<?xml version="1.0" encoding="UTF-8" standalone="no"?><svg xmlns="http://www.w3.org/2000/svg" xmlns:xlink="http://www.w3.org/1999/xlink" contentScriptType="application/ecmascript" contentStyleType="text/css" height="409px" preserveAspectRatio="none" style="width:432px;height:409px;" version="1.1" viewBox="0 0 432 409" width="432px" zoomAndPan="magnify"><defs><filter height="300%" id="fytxma0ac837q" width="300%" x="-1" y="-1"><feGaussianBlur result="blurOut" stdDeviation="2.0"/><feColorMatrix in="blurOut" result="blurOut2" type="matrix" values="0 0 0 0 0 0 0 0 0 0 0 0 0 0 0 0 0 0 .4 0"/><feOffset dx="4.0" dy="4.0" in="blurOut2" result="blurOut3"/><feBlend in="SourceGraphic" in2="blurOut3" mode="normal"/></filter></defs><g><!--entity Service--><rect fill="#90EE90" filter="url(#fytxma0ac837q)" height="37.6094" style="stroke: #000000; stroke-width: 1.5;" width="67" x="136.959" y="8"/><text fill="#000000" font-family="sans-serif" font-size="14" lengthAdjust="spacingAndGlyphs" textLength="47" x="146.959" y="32.5332">Service</text><!--entity StackInstance--><rect fill="#90EE90" filter="url(#fytxma0ac837q)" height="37.6094" style="stroke: #000000; stroke-width: 1.5;" width="108" x="8.4593" y="361"/><text fill="#000000" font-family="sans-serif" font-size="14" lengthAdjust="spacingAndGlyphs" textLength="88" x="18.4593" y="385.5332">StackInstance</text><!--entity Application--><rect fill="#90EE90" filter="url(#fytxma0ac837q)" height="37.6094" style="stroke: #000000; stroke-width: 1.5;" width="89" x="170.959" y="361"/><text fill="#000000" font-family="sans-serif" font-size="14" lengthAdjust="spacingAndGlyphs" textLength="69" x="180.959" y="385.5332">Application</text><!--entity Stack--><rect fill="#90EE90" filter="url(#fytxma0ac837q)" height="37.6094" style="stroke: #000000; stroke-width: 1.5;" width="55" x="337.959" y="361"/><text fill="#000000" font-family="sans-serif" font-size="14" lengthAdjust="spacingAndGlyphs" textLength="35" x="347.959" y="385.5332">Stack</text><!--entity SABundle--><rect fill="#90EE90" filter="url(#fytxma0ac837q)" height="37.6094" style="stroke: #000000; stroke-width: 1.5;" width="82" x="339.459" y="8"/><text fill="#000000" font-family="sans-serif" font-size="14" lengthAdjust="spacingAndGlyphs" textLength="62" x="349.459" y="32.5332">SABundle</text><!--class Model--><rect fill="#FEFECE" filter="url(#fytxma0ac837q)" height="158.6875" id="Model" style="stroke: #A80036; stroke-width: 1.5;" width="101" x="164.959" y="124"/><ellipse cx="197.509" cy="140" fill="#ADD1B2" rx="11" ry="11" style="stroke: #A80036; stroke-width: 1.0;"/><path d="M200.2746,135.875 Q200.4309,135.6563 200.6184,135.5469 Q200.8059,135.4375 201.0246,135.4375 Q201.3996,135.4375 201.634,135.6953 Q201.8684,135.9531 201.8684,136.5625 L201.8684,138.0156 Q201.8684,138.625 201.634,138.8906 Q201.3996,139.1563 201.0246,139.1563 Q200.6809,139.1563 200.4778,138.9531 Q200.2746,138.7656 200.1653,138.25 Q200.1184,137.8906 199.9309,137.7031 Q199.6028,137.3281 198.9934,137.1094 Q198.384,136.8906 197.759,136.8906 Q196.9934,136.8906 196.3606,137.2188 Q195.7278,137.5469 195.2356,138.2969 Q194.7434,139.0469 194.7434,140.0781 L194.7434,141.1719 Q194.7434,142.4063 195.634,143.2266 Q196.5246,144.0469 198.1184,144.0469 Q199.0559,144.0469 199.7121,143.7969 Q200.1028,143.6406 200.5246,143.2031 Q200.7903,142.9375 200.9387,142.8594 Q201.0871,142.7813 201.2903,142.7813 Q201.6184,142.7813 201.8762,143.0391 Q202.134,143.2969 202.134,143.6406 Q202.134,143.9844 201.7903,144.3906 Q201.2903,144.9688 200.4934,145.2969 Q199.4153,145.75 198.1184,145.75 Q196.6028,145.75 195.3996,145.125 Q194.4153,144.625 193.7278,143.5547 Q193.0403,142.4844 193.0403,141.2031 L193.0403,140.0469 Q193.0403,138.7188 193.6574,137.5703 Q194.2746,136.4219 195.3684,135.8047 Q196.4621,135.1875 197.6965,135.1875 Q198.4309,135.1875 199.0793,135.3516 Q199.7278,135.5156 200.2746,135.875 Z "/><text fill="#000000" font-family="sans-serif" font-size="12" lengthAdjust="spacingAndGlyphs" textLength="30" x="215.409" y="144.9102">Stack</text><line style="stroke: #A80036; stroke-width: 1.5;" x1="165.959" x2="264.959" y1="156" y2="156"/><text fill="#000000" font-family="sans-serif" font-size="11" lengthAdjust="spacingAndGlyphs" textLength="56" x="170.959" y="171.4189">string name</text><text fill="#000000" font-family="sans-serif" font-size="11" lengthAdjust="spacingAndGlyphs" textLength="76" x="170.959" y="185.2549">string command</text><text fill="#000000" font-family="sans-serif" font-size="11" lengthAdjust="spacingAndGlyphs" textLength="66" x="170.959" y="199.0908">string version</text><text fill="#000000" font-family="sans-serif" font-size="11" lengthAdjust="spacingAndGlyphs" textLength="48" x="170.959" y="212.9268">json ports</text><text fill="#000000" font-family="sans-serif" font-size="11" lengthAdjust="spacingAndGlyphs" textLength="59" x="170.959" y="226.7627">json expose</text><text fill="#000000" font-family="sans-serif" font-size="11" lengthAdjust="spacingAndGlyphs" textLength="78" x="170.959" y="240.5986">json parameters</text><text fill="#000000" font-family="sans-serif" font-size="11" lengthAdjust="spacingAndGlyphs" textLength="82" x="170.959" y="254.4346">json environment</text><text fill="#000000" font-family="sans-serif" font-size="11" lengthAdjust="spacingAndGlyphs" textLength="89" x="170.959" y="268.2705">ref provisionScript</text><line style="stroke: #A80036; stroke-width: 1.5;" x1="165.959" x2="264.959" y1="274.6875" y2="274.6875"/><!--link Model to Service--><path d="M155.999,147.335 C142.75,131.529 130.542,113.305 123.459,94 C118.363,80.109 125.389,66.49 135.437,55.266 " fill="none" id="Model-Service" style="stroke: #A80036; stroke-width: 1.0;"/><polygon fill="#A80036" points="144.816,46.071,135.5892,49.5156,141.2457,49.5715,141.1899,55.2281,144.816,46.071" style="stroke: #A80036; stroke-width: 1.0;"/><line style="stroke: #A80036; stroke-width: 1.0;" x1="141.2457" x2="135.5325" y1="49.5715" y2="55.172"/><polygon fill="#A80036" points="164.813,157.358,163.8545,150.2109,156.8885,148.3468,157.847,155.4939,164.813,157.358" style="stroke: #A80036; stroke-width: 1.0;"/><text fill="#000000" font-family="sans-serif" font-size="13" lengthAdjust="spacingAndGlyphs" textLength="47" x="124.459" y="90.4951">services</text><text fill="#000000" font-family="sans-serif" font-size="13" lengthAdjust="spacingAndGlyphs" textLength="7" x="129.9838" y="66.9412">n</text><!--link Model to Service--><path d="M191.854,110.963 C186.983,92.074 182.181,73.453 178.364,58.654 " fill="none" id="Model-Service-1" style="stroke: #A80036; stroke-width: 1.0;"/><polygon fill="#A80036" points="175.106,46.017,173.4807,55.7308,176.3548,50.8585,181.2271,53.7327,175.106,46.017" style="stroke: #A80036; stroke-width: 1.0;"/><line style="stroke: #A80036; stroke-width: 1.0;" x1="176.3548" x2="178.352" y1="50.8585" y2="58.6055"/><polygon fill="#FFFFFF" points="195.14,123.707,197.5153,116.8983,192.144,112.087,189.7687,118.8957,195.14,123.707" style="stroke: #A80036; stroke-width: 1.0;"/><text fill="#000000" font-family="sans-serif" font-size="13" lengthAdjust="spacingAndGlyphs" textLength="45" x="187.459" y="90.4951">children</text><text fill="#000000" font-family="sans-serif" font-size="13" lengthAdjust="spacingAndGlyphs" textLength="7" x="168.4286" y="67.215">n</text><!--link Model to Service--><path d="M249.079,110.713 C249.29,98.654 247.174,86.761 241.459,76 C235.566,64.902 225.834,55.902 215.437,48.825 " fill="none" id="Model-Service-2" style="stroke: #A80036; stroke-width: 1.0;"/><polygon fill="#A80036" points="204.045,41.89,209.6525,49.9866,208.3158,44.49,213.8125,43.1533,204.045,41.89" style="stroke: #A80036; stroke-width: 1.0;"/><line style="stroke: #A80036; stroke-width: 1.0;" x1="208.3158" x2="215.15" y1="44.49" y2="48.6495"/><polygon fill="#FFFFFF" points="247.997,123.818,252.4773,118.1676,248.9847,111.8587,244.5044,117.5091,247.997,123.818" style="stroke: #A80036; stroke-width: 1.0;"/><text fill="#000000" font-family="sans-serif" font-size="13" lengthAdjust="spacingAndGlyphs" textLength="36" x="248.459" y="90.4951">parent</text><text fill="#000000" font-family="sans-serif" font-size="13" lengthAdjust="spacingAndGlyphs" textLength="7" x="212.1576" y="40.9735">1</text><!--link Service to Model--><path d="M124.32,41.394 C96.5986,52.188 68.768,69.604 80.4593,94 C95.821,126.054 125.782,151.641 153.583,169.898 " fill="none" id="Service-Model" style="stroke: #A80036; stroke-width: 1.0;"/><polygon fill="#A80036" points="164.908,177.024,159.4206,168.8455,160.676,174.3613,155.1602,175.6167,164.908,177.024" style="stroke: #A80036; stroke-width: 1.0;"/><line style="stroke: #A80036; stroke-width: 1.0;" x1="160.676" x2="153.905" y1="174.3613" y2="170.1"/><polygon fill="#FFFFFF" points="136.906,36.899,129.9102,35.1503,125.6052,40.9354,132.6011,42.6841,136.906,36.899" style="stroke: #A80036; stroke-width: 1.0;"/><text fill="#000000" font-family="sans-serif" font-size="13" lengthAdjust="spacingAndGlyphs" textLength="32" x="81.4593" y="90.4951">stack</text><text fill="#000000" font-family="sans-serif" font-size="13" lengthAdjust="spacingAndGlyphs" textLength="7" x="149.9693" y="169.5042">1</text><!--link Model to StackInstance--><path d="M152.252,218.991 C103.8166,233.776 40.2319,262.012 9.4593,313 C1.1089,326.8359 9.7125,340.9637 22.2453,352.5796 " fill="none" id="Model-StackInstance" style="stroke: #A80036; stroke-width: 1.0;"/><polygon fill="#A80036" points="32.3793,360.9262,27.9753,352.1168,28.5199,357.7474,22.8893,358.2919,32.3793,360.9262" style="stroke: #A80036; stroke-width: 1.0;"/><line style="stroke: #A80036; stroke-width: 1.0;" x1="28.5199" x2="22.3446" y1="357.7474" y2="352.6614"/><polygon fill="#A80036" points="164.84,215.343,157.9638,213.1711,153.3142,218.683,160.1904,220.8549,164.84,215.343" style="stroke: #A80036; stroke-width: 1.0;"/><text fill="#000000" font-family="sans-serif" font-size="13" lengthAdjust="spacingAndGlyphs" textLength="56" x="10.4593" y="327.4951">instances</text><text fill="#000000" font-family="sans-serif" font-size="13" lengthAdjust="spacingAndGlyphs" textLength="7" x="15.0954" y="350.2436">n</text><!--link StackInstance to Model--><path d="M87.0451,350.9593 C105.7309,329.6477 132.24,299.4136 156.324,271.945 " fill="none" id="StackInstance-Model" style="stroke: #A80036; stroke-width: 1.0;"/><polygon fill="#A80036" points="164.937,262.121,155.996,266.2511,161.6407,265.8805,162.0112,271.5252,164.937,262.121" style="stroke: #A80036; stroke-width: 1.0;"/><line style="stroke: #A80036; stroke-width: 1.0;" x1="161.6407" x2="156.367" y1="265.8805" y2="271.8965"/><polygon fill="#FFFFFF" points="78.2936,360.9406,85.2568,359.0662,86.2048,351.9177,79.2415,353.7921,78.2936,360.9406" style="stroke: #A80036; stroke-width: 1.0;"/><text fill="#000000" font-family="sans-serif" font-size="13" lengthAdjust="spacingAndGlyphs" textLength="32" x="117.459" y="327.4951">stack</text><text fill="#000000" font-family="sans-serif" font-size="13" lengthAdjust="spacingAndGlyphs" textLength="7" x="150.0025" y="267.0998">1</text><!--link Model to Application--><path d="M178.239,296.278 C177.158,308.0112 177.901,319.8213 181.459,331 C183.573,337.6415 186.977,344.1534 190.832,350.1327 " fill="none" id="Model-Application" style="stroke: #A80036; stroke-width: 1.0;"/><polygon fill="#A80036" points="198.581,360.8688,196.557,351.2302,195.6547,356.8146,190.0703,355.9122,198.581,360.8688" style="stroke: #A80036; stroke-width: 1.0;"/><line style="stroke: #A80036; stroke-width: 1.0;" x1="195.6547" x2="190.9725" y1="356.8146" y2="350.328"/><polygon fill="#FFFFFF" points="180.182,283.102,175.3498,288.4546,178.4322,294.9737,183.2643,289.6211,180.182,283.102" style="stroke: #A80036; stroke-width: 1.0;"/><text fill="#000000" font-family="sans-serif" font-size="13" lengthAdjust="spacingAndGlyphs" textLength="21" x="182.459" y="327.4951">app</text><text fill="#000000" font-family="sans-serif" font-size="13" lengthAdjust="spacingAndGlyphs" textLength="7" x="185.3402" y="350.1686">1</text><!--link Application to Model--><path d="M215.459,347.5881 C215.459,332.9951 215.459,314.8081 215.459,296.346 " fill="none" id="Application-Model" style="stroke: #A80036; stroke-width: 1.0;"/><polygon fill="#A80036" points="215.459,283.072,211.459,292.072,215.459,288.072,219.459,292.072,215.459,283.072" style="stroke: #A80036; stroke-width: 1.0;"/><line style="stroke: #A80036; stroke-width: 1.0;" x1="215.459" x2="215.459" y1="288.072" y2="296.072"/><polygon fill="#A80036" points="215.459,360.8602,219.459,354.8602,215.459,348.8602,211.459,354.8602,215.459,360.8602" style="stroke: #A80036; stroke-width: 1.0;"/><text fill="#000000" font-family="sans-serif" font-size="13" lengthAdjust="spacingAndGlyphs" textLength="39" x="216.459" y="327.4951">stacks</text><text fill="#000000" font-family="sans-serif" font-size="13" lengthAdjust="spacingAndGlyphs" textLength="7" x="208.1582" y="304.1214">n</text><!--link Model to Stack--><path d="M274.946,273.703 C298.087,300.6235 323.288,329.9408 341.208,350.7881 " fill="none" id="Model-Stack" style="stroke: #A80036; stroke-width: 1.0;"/><polygon fill="#A80036" points="349.866,360.8602,347.032,351.4279,346.6064,357.0687,340.9656,356.6432,349.866,360.8602" style="stroke: #A80036; stroke-width: 1.0;"/><line style="stroke: #A80036; stroke-width: 1.0;" x1="346.6064" x2="341.392" y1="357.0687" y2="351.0018"/><polygon fill="#FFFFFF" points="266.242,263.578,267.1198,270.7355,274.0643,272.6781,273.1865,265.5206,266.242,263.578" style="stroke: #A80036; stroke-width: 1.0;"/><text fill="#000000" font-family="sans-serif" font-size="13" lengthAdjust="spacingAndGlyphs" textLength="32" x="322.459" y="327.4951">stack</text><text fill="#000000" font-family="sans-serif" font-size="13" lengthAdjust="spacingAndGlyphs" textLength="7" x="337.0188" y="350.1574">1</text><!--link Stack to Model--><path d="M370.06,347.6816 C370.356,336.1963 368.961,323.4587 363.459,313 C344.966,277.842 309.377,251.193 277.734,233.105 " fill="none" id="Stack-Model" style="stroke: #A80036; stroke-width: 1.0;"/><polygon fill="#A80036" points="266.293,226.828,272.2595,234.6639,270.6766,229.233,276.1075,227.6501,266.293,226.828" style="stroke: #A80036; stroke-width: 1.0;"/><line style="stroke: #A80036; stroke-width: 1.0;" x1="270.6766" x2="277.6905" y1="229.233" y2="233.081"/><polygon fill="#FFFFFF" points="369.022,360.8328,373.4817,355.1662,369.9663,348.87,365.5065,354.5367,369.022,360.8328" style="stroke: #A80036; stroke-width: 1.0;"/><text fill="#000000" font-family="sans-serif" font-size="13" lengthAdjust="spacingAndGlyphs" textLength="32" x="370.459" y="327.4951">stack</text><text fill="#000000" font-family="sans-serif" font-size="13" lengthAdjust="spacingAndGlyphs" textLength="7" x="273.9337" y="226.5253">1</text><!--link SABundle to Model--><path d="M354.401,55.559 C333.226,77.953 302.523,110.424 275.361,139.15 " fill="none" id="SABundle-Model" style="stroke: #A80036; stroke-width: 1.0;"/><polygon fill="#A80036" points="266.304,148.728,275.3939,144.9367,269.7392,145.0949,269.581,139.4403,266.304,148.728" style="stroke: #A80036; stroke-width: 1.0;"/><line style="stroke: #A80036; stroke-width: 1.0;" x1="269.7392" x2="275.236" y1="145.0949" y2="139.282"/><polygon fill="#FFFFFF" points="363.423,46.017,356.3943,47.6285,355.1784,54.7363,362.2071,53.1249,363.423,46.017" style="stroke: #A80036; stroke-width: 1.0;"/><text fill="#000000" font-family="sans-serif" font-size="13" lengthAdjust="spacingAndGlyphs" textLength="39" x="333.459" y="90.4951">stacks</text><text fill="#000000" font-family="sans-serif" font-size="13" lengthAdjust="spacingAndGlyphs" textLength="7" x="273.9463" y="137.4425">n</text><!--
@startuml

class "Stack" as Model {
 string name
 string command
 string version
 json ports
 json expose
 json parameters
 json environment
 ref provisionScript

 
}

rectangle "Service" as Service #lightblue {
}

Model *- -> "n" Service : services


rectangle "StackInstance" as StackInstance #lightblue {
}

Model *- -> "n" StackInstance : instances


rectangle "Application" as Application #lightblue {
}

Model o- -> "1" Application : app


rectangle "Stack" as Stack #lightblue {
}

Model o- -> "1" Stack : stack


rectangle "Service" as Service #lightblue {
}

Model o- -> "n" Service : children


rectangle "Service" as Service #lightblue {
}

Model o- -> "1" Service : parent




    rectangle "Application" as Application #lightgreen {
    }
    
        Application   *- -> "n" Model : "stacks"
    
    rectangle "Service" as Service #lightgreen {
    }
    
        Service   o- -> "1" Model : "stack"
    
    rectangle "Stack" as Stack #lightgreen {
    }
    
        Stack   o- -> "1" Model : "stack"
    
    rectangle "StackInstance" as StackInstance #lightgreen {
    }
    
        StackInstance   o- -> "1" Model : "stack"
    
    rectangle "SABundle" as SABundle #lightgreen {
    }
    
        SABundle   o- -> "n" Model : "stacks"
    

@enduml

PlantUML version 1.2019.05(Sat Apr 20 09:45:36 PDT 2019)
(GPL source distribution)
Java Runtime: Java(TM) SE Runtime Environment
JVM: Java HotSpot(TM) Client VM
Java Version: 1.8.0_271-b09
Operating System: Windows 10
OS Version: 10.0
Default Encoding: Cp1252
Language: en
Country: US
--></g></svg>