<?xml version="1.0" encoding="us-ascii" standalone="no"?><svg xmlns="http://www.w3.org/2000/svg" xmlns:xlink="http://www.w3.org/1999/xlink" contentStyleType="text/css" height="433px" preserveAspectRatio="none" style="width:439px;height:433px;background:#FFFFFF;" version="1.1" viewBox="0 0 439 433" width="439px" zoomAndPan="magnify"><defs/><g><!--entity Service--><g id="elem_Service"><rect fill="#90EE90" height="37.6094" rx="2.5" ry="2.5" style="stroke:#181818;stroke-width:0.5;" width="67" x="149.5" y="7"/><text fill="#000000" font-family="sans-serif" font-size="14" lengthAdjust="spacing" textLength="47" x="159.5" y="31.5332">Service</text></g><!--entity StackInstance--><g id="elem_StackInstance"><rect fill="#90EE90" height="37.6094" rx="2.5" ry="2.5" style="stroke:#181818;stroke-width:0.5;" width="108" x="7" y="390"/><text fill="#000000" font-family="sans-serif" font-size="14" lengthAdjust="spacing" textLength="88" x="17" y="414.5332">StackInstance</text></g><!--entity Application--><g id="elem_Application"><rect fill="#90EE90" height="37.6094" rx="2.5" ry="2.5" style="stroke:#181818;stroke-width:0.5;" width="89" x="169.5" y="390"/><text fill="#000000" font-family="sans-serif" font-size="14" lengthAdjust="spacing" textLength="69" x="179.5" y="414.5332">Application</text></g><!--entity Stack--><g id="elem_Stack"><rect fill="#90EE90" height="37.6094" rx="2.5" ry="2.5" style="stroke:#181818;stroke-width:0.5;" width="55" x="349.5" y="390"/><text fill="#000000" font-family="sans-serif" font-size="14" lengthAdjust="spacing" textLength="35" x="359.5" y="414.5332">Stack</text></g><!--entity SABundle--><g id="elem_SABundle"><rect fill="#90EE90" height="37.6094" rx="2.5" ry="2.5" style="stroke:#181818;stroke-width:0.5;" width="82" x="351" y="7"/><text fill="#000000" font-family="sans-serif" font-size="14" lengthAdjust="spacing" textLength="62" x="361" y="31.5332">SABundle</text></g><!--class Model--><g id="elem_Model"><rect codeLine="2" fill="#F1F1F1" height="188.875" id="Model" rx="2.5" ry="2.5" style="stroke:#181818;stroke-width:0.5;" width="126" x="164" y="123"/><ellipse cx="205.55" cy="139" fill="#ADD1B2" rx="11" ry="11" style="stroke:#181818;stroke-width:1.0;"/><path d="M208.3156,134.875 Q208.4719,134.6563 208.6594,134.5469 Q208.8469,134.4375 209.0656,134.4375 Q209.4406,134.4375 209.675,134.6953 Q209.9094,134.9531 209.9094,135.5625 L209.9094,137.0156 Q209.9094,137.625 209.675,137.8906 Q209.4406,138.1563 209.0656,138.1563 Q208.7219,138.1563 208.5188,137.9531 Q208.3156,137.7656 208.2063,137.25 Q208.1594,136.8906 207.9719,136.7031 Q207.6438,136.3281 207.0344,136.1094 Q206.425,135.8906 205.8,135.8906 Q205.0344,135.8906 204.4016,136.2188 Q203.7688,136.5469 203.2766,137.2969 Q202.7844,138.0469 202.7844,139.0781 L202.7844,140.1719 Q202.7844,141.4063 203.675,142.2266 Q204.5656,143.0469 206.1594,143.0469 Q207.0969,143.0469 207.7531,142.7969 Q208.1438,142.6406 208.5656,142.2031 Q208.8313,141.9375 208.9797,141.8594 Q209.1281,141.7813 209.3313,141.7813 Q209.6594,141.7813 209.9172,142.0391 Q210.175,142.2969 210.175,142.6406 Q210.175,142.9844 209.8313,143.3906 Q209.3313,143.9688 208.5344,144.2969 Q207.4563,144.75 206.1594,144.75 Q204.6438,144.75 203.4406,144.125 Q202.4563,143.625 201.7688,142.5547 Q201.0813,141.4844 201.0813,140.2031 L201.0813,139.0469 Q201.0813,137.7188 201.6984,136.5703 Q202.3156,135.4219 203.4094,134.8047 Q204.5031,134.1875 205.7375,134.1875 Q206.4719,134.1875 207.1203,134.3516 Q207.7688,134.5156 208.3156,134.875 Z " fill="#000000"/><text fill="#000000" font-family="sans-serif" font-size="14" lengthAdjust="spacing" textLength="35" x="225.45" y="144.7285">Stack</text><line style="stroke:#181818;stroke-width:0.5;" x1="165" x2="289" y1="155" y2="155"/><text fill="#000000" font-family="sans-serif" font-size="14" lengthAdjust="spacing" textLength="74" x="170" y="173.5332">string name</text><text fill="#000000" font-family="sans-serif" font-size="14" lengthAdjust="spacing" textLength="100" x="170" y="191.1426">string command</text><text fill="#000000" font-family="sans-serif" font-size="14" lengthAdjust="spacing" textLength="85" x="170" y="208.752">string version</text><text fill="#000000" font-family="sans-serif" font-size="14" lengthAdjust="spacing" textLength="62" x="170" y="226.3613">json ports</text><text fill="#000000" font-family="sans-serif" font-size="14" lengthAdjust="spacing" textLength="75" x="170" y="243.9707">json expose</text><text fill="#000000" font-family="sans-serif" font-size="14" lengthAdjust="spacing" textLength="102" x="170" y="261.5801">json parameters</text><text fill="#000000" font-family="sans-serif" font-size="14" lengthAdjust="spacing" textLength="108" x="170" y="279.1895">json environment</text><text fill="#000000" font-family="sans-serif" font-size="14" lengthAdjust="spacing" textLength="114" x="170" y="296.7988">ref provisionScript</text><line style="stroke:#181818;stroke-width:0.5;" x1="165" x2="289" y1="303.875" y2="303.875"/></g><!--link Model to Service--><g id="link_Model_Service"><path codeLine="18" d="M157.0549,138.0069 C145.1649,121.2169 141.39,112.29 135,93 C128.98,74.84 138.1231,61.4064 152.3931,49.0564 " fill="none" id="Model-Service" style="stroke:#181818;stroke-width:1.0;"/><polygon fill="#181818" points="163.99,147.8,163.7868,140.5918,157.0549,138.0069,157.2581,145.2151,163.99,147.8" style="stroke:#181818;stroke-width:1.0;"/><polygon fill="#181818" points="156.93,45.13,147.5071,47.9951,153.1493,48.402,152.7423,54.0442,156.93,45.13" style="stroke:#181818;stroke-width:1.0;"/><text fill="#000000" font-family="sans-serif" font-size="13" lengthAdjust="spacing" textLength="47" x="136" y="89.4951">services</text><text fill="#000000" font-family="sans-serif" font-size="13" lengthAdjust="spacing" textLength="7" x="141.9831" y="66.016">n</text></g><!--link Model to Service--><g id="link_Model_Service"><path codeLine="42" d="M202.5558,111.231 C195.6758,81.601 192.8375,69.3544 188.5775,51.0144 " fill="none" id="Model-Service-1" style="stroke:#181818;stroke-width:1.0;"/><polygon fill="none" points="205.27,122.92,207.8093,116.1708,202.5558,111.231,200.0166,117.9802,205.27,122.92" style="stroke:#181818;stroke-width:1.0;"/><polygon fill="#181818" points="187.22,45.17,185.36,54.8416,188.3513,50.0403,193.1526,53.0316,187.22,45.17" style="stroke:#181818;stroke-width:1.0;"/><text fill="#000000" font-family="sans-serif" font-size="13" lengthAdjust="spacing" textLength="45" x="199" y="89.4951">children</text><text fill="#000000" font-family="sans-serif" font-size="13" lengthAdjust="spacing" textLength="7" x="180.4135" y="66.0668">n</text></g><!--link Model to Service--><g id="link_Model_Service"><path codeLine="48" d="M262.339,110.8792 C263.679,94.3392 260.74,89.7 253,75 C245.24,60.27 235.9194,52.1317 222.0894,44.3517 " fill="none" id="Model-Service-2" style="stroke:#181818;stroke-width:1.0;"/><polygon fill="none" points="261.37,122.84,265.8414,117.1826,262.339,110.8792,257.8676,116.5366,261.37,122.84" style="stroke:#181818;stroke-width:1.0;"/><polygon fill="#181818" points="216.86,41.41,222.7429,49.3089,221.2178,43.8615,226.6652,42.3364,216.86,41.41" style="stroke:#181818;stroke-width:1.0;"/><text fill="#000000" font-family="sans-serif" font-size="13" lengthAdjust="spacing" textLength="36" x="261" y="89.4951">parent</text><text fill="#000000" font-family="sans-serif" font-size="13" lengthAdjust="spacing" textLength="7" x="224.5655" y="40.51">1</text></g><!--link Service to Model--><g id="link_Service_Model"><path codeLine="61" d="M138.044,39.3068 C107.164,49.2168 79.33,64.24 92,93 C106.92,126.87 131.4623,151.8343 158.9623,172.9643 " fill="none" id="Service-Model" style="stroke:#181818;stroke-width:1.0;"/><polygon fill="none" points="149.47,35.64,142.5347,33.6647,138.044,39.3068,144.9793,41.2821,149.47,35.64" style="stroke:#181818;stroke-width:1.0;"/><polygon fill="#181818" points="163.72,176.62,159.0205,167.9647,159.7552,173.5736,154.1463,174.3083,163.72,176.62" style="stroke:#181818;stroke-width:1.0;"/><text fill="#000000" font-family="sans-serif" font-size="13" lengthAdjust="spacing" textLength="32" x="93" y="89.4951">stack</text><text fill="#000000" font-family="sans-serif" font-size="13" lengthAdjust="spacing" textLength="7" x="148.9986" y="168.4909">1</text></g><!--link Model to StackInstance--><g id="link_Model_StackInstance"><path codeLine="24" d="M152.4541,241.6237 C103.8441,259.8537 51.31,288.48 21,342 C11.69,358.44 20.4552,372.6208 34.0852,385.7908 " fill="none" id="Model-StackInstance" style="stroke:#181818;stroke-width:1.0;"/><polygon fill="#181818" points="163.69,237.41,156.6675,235.7716,152.4541,241.6237,159.4767,243.2622,163.69,237.41" style="stroke:#181818;stroke-width:1.0;"/><polygon fill="#181818" points="38.4,389.96,34.7072,380.8296,34.8043,386.4857,29.1483,386.5827,38.4,389.96" style="stroke:#181818;stroke-width:1.0;"/><text fill="#000000" font-family="sans-serif" font-size="13" lengthAdjust="spacing" textLength="56" x="22" y="356.4951">instances</text><text fill="#000000" font-family="sans-serif" font-size="13" lengthAdjust="spacing" textLength="7" x="23.4069" y="379.2878">n</text></g><!--link StackInstance to Model--><g id="link_StackInstance_Model"><path codeLine="71" d="M85.0076,380.594 C105.0176,357.754 128.476,330.9629 159.816,295.1929 " fill="none" id="StackInstance-Model" style="stroke:#181818;stroke-width:1.0;"/><polygon fill="none" points="77.1,389.62,84.0625,387.7429,85.0076,380.594,78.0452,382.4711,77.1,389.62" style="stroke:#181818;stroke-width:1.0;"/><polygon fill="#181818" points="163.77,290.68,154.8305,294.8133,160.475,294.4407,160.8476,300.0853,163.77,290.68" style="stroke:#181818;stroke-width:1.0;"/><text fill="#000000" font-family="sans-serif" font-size="13" lengthAdjust="spacing" textLength="32" x="116" y="356.4951">stack</text><text fill="#000000" font-family="sans-serif" font-size="13" lengthAdjust="spacing" textLength="7" x="149.0543" y="295.7391">1</text></g><!--link Model to Application--><g id="link_Model_Application"><path codeLine="30" d="M190.7495,324.1841 C188.3395,340.0641 189.77,344.54 193,360 C195.16,370.33 197.0237,375.7651 201.3237,384.5151 " fill="none" id="Model-Application" style="stroke:#181818;stroke-width:1.0;"/><polygon fill="none" points="192.55,312.32,187.695,317.6519,190.7495,324.1841,195.6044,318.8523,192.55,312.32" style="stroke:#181818;stroke-width:1.0;"/><polygon fill="#181818" points="203.97,389.9,203.5905,380.0585,201.7648,385.4126,196.4106,383.5868,203.97,389.9" style="stroke:#181818;stroke-width:1.0;"/><text fill="#000000" font-family="sans-serif" font-size="13" lengthAdjust="spacing" textLength="21" x="194" y="356.4951">app</text><text fill="#000000" font-family="sans-serif" font-size="13" lengthAdjust="spacing" textLength="7" x="192.8264" y="379.2094">1</text></g><!--link Application to Model--><g id="link_Application_Model"><path codeLine="56" d="M218.1929,377.9062 C219.3929,368.9462 219.14,369.87 220,360 C221.34,344.56 222.1084,334.1403 223.0184,318.1803 " fill="none" id="Application-Model" style="stroke:#181818;stroke-width:1.0;"/><polygon fill="#181818" points="216.6,389.8,221.3611,384.3841,218.1929,377.9062,213.4319,383.3221,216.6,389.8" style="stroke:#181818;stroke-width:1.0;"/><polygon fill="#181818" points="223.36,312.19,218.8542,320.9477,223.0754,317.1819,226.8412,321.4031,223.36,312.19" style="stroke:#181818;stroke-width:1.0;"/><text fill="#000000" font-family="sans-serif" font-size="13" lengthAdjust="spacing" textLength="39" x="223" y="356.4951">stacks</text><text fill="#000000" font-family="sans-serif" font-size="13" lengthAdjust="spacing" textLength="7" x="215.8357" y="333.2439">n</text></g><!--link Model to Stack--><g id="link_Model_Stack"><path codeLine="36" d="M297.595,310.2662 C312.795,329.7762 321.68,340.97 337,360 C345.03,369.97 350.2907,376.3559 357.8007,385.2959 " fill="none" id="Model-Stack" style="stroke:#181818;stroke-width:1.0;"/><polygon fill="none" points="290.22,300.8,290.7521,307.9914,297.595,310.2662,297.0629,303.0748,290.22,300.8" style="stroke:#181818;stroke-width:1.0;"/><polygon fill="#181818" points="361.66,389.89,358.9338,380.426,358.4439,386.0616,352.8083,385.5717,361.66,389.89" style="stroke:#181818;stroke-width:1.0;"/><text fill="#000000" font-family="sans-serif" font-size="13" lengthAdjust="spacing" textLength="32" x="338" y="356.4951">stack</text><text fill="#000000" font-family="sans-serif" font-size="13" lengthAdjust="spacing" textLength="7" x="348.8903" y="379.1963">1</text></g><!--link Stack to Model--><g id="link_Stack_Model"><path codeLine="66" d="M381.7216,378.0545 C383.3716,364.2245 382.27,356.95 375,342 C356.92,304.84 326.8199,278.1368 295.3499,256.9868 " fill="none" id="Stack-Model" style="stroke:#181818;stroke-width:1.0;"/><polygon fill="none" points="380.3,389.97,384.9826,384.4861,381.7216,378.0545,377.039,383.5384,380.3,389.97" style="stroke:#181818;stroke-width:1.0;"/><polygon fill="#181818" points="290.37,253.64,295.6086,261.9801,294.5199,256.429,300.071,255.3403,290.37,253.64" style="stroke:#181818;stroke-width:1.0;"/><text fill="#000000" font-family="sans-serif" font-size="13" lengthAdjust="spacing" textLength="32" x="381" y="356.4951">stack</text><text fill="#000000" font-family="sans-serif" font-size="13" lengthAdjust="spacing" textLength="7" x="298.1018" y="254.4164">1</text></g><!--link SABundle to Model--><g id="link_SABundle_Model"><path codeLine="76" d="M368.3011,54.2211 C348.5411,76.9211 325.3503,103.5451 294.2103,139.3051 " fill="none" id="SABundle-Model" style="stroke:#181818;stroke-width:1.0;"/><polygon fill="none" points="376.18,45.17,369.2235,47.0693,368.3011,54.2211,375.2576,52.3219,376.18,45.17" style="stroke:#181818;stroke-width:1.0;"/><polygon fill="#181818" points="290.27,143.83,299.197,139.6696,293.5536,140.0593,293.1638,134.4159,290.27,143.83" style="stroke:#181818;stroke-width:1.0;"/><text fill="#000000" font-family="sans-serif" font-size="13" lengthAdjust="spacing" textLength="39" x="348" y="89.4951">stacks</text><text fill="#000000" font-family="sans-serif" font-size="13" lengthAdjust="spacing" textLength="7" x="297.9903" y="131.9096">n</text></g><!--SRC=[fLAxRiCm3Dpr5OIw5SYGrKE1TElGAL-WogoZLgO4IJ4A5FdtIlAxTU8avI2JzldkI55guJtmVH3oauFmy6fArF3Dm0Udg08IDGw5D7Kjg1pg1frNXXXyU4DWZGk-o_7B6e_z1-4YIuZW_YiroXcgaG83X-zWdMbKejfBfsnW3DY9COSo2AeqHeFe6YKnM-noUD2gEeGtVSJeDy9Rwu-RpHDmuWEi0DzcdiqfKyylv6FT4q_VhDBFm0MeBlsbihDMAob2x2rhJEep2YOhRFaCMe2mTi7_w7kDhGN5OQGdktEuvkzmvK7fqY7zZt8xfOpxaZOZ1SIuQPgLGwIqlp5E-Sn7YYaOnejiRHJ0ysGy7t-wgfyBWZqGnYRdOcUq5Y_saaw6tQEoklvhgWFyLlNTyv5AtGbtnHMQFHB6LLo-lny0]--></g></svg>