<?xml version="1.0" encoding="UTF-8" standalone="no"?><svg xmlns="http://www.w3.org/2000/svg" xmlns:xlink="http://www.w3.org/1999/xlink" contentScriptType="application/ecmascript" contentStyleType="text/css" height="196px" preserveAspectRatio="none" style="width:265px;height:196px;" version="1.1" viewBox="0 0 265 196" width="265px" zoomAndPan="magnify"><defs><filter height="300%" id="f1h24x39m9kkhw" width="300%" x="-1" y="-1"><feGaussianBlur result="blurOut" stdDeviation="2.0"/><feColorMatrix in="blurOut" result="blurOut2" type="matrix" values="0 0 0 0 0 0 0 0 0 0 0 0 0 0 0 0 0 0 .4 0"/><feOffset dx="4.0" dy="4.0" in="blurOut2" result="blurOut3"/><feBlend in="SourceGraphic" in2="blurOut3" mode="normal"/></filter></defs><g><!--entity BuildInstance--><rect fill="#90EE90" filter="url(#f1h24x39m9kkhw)" height="37.6094" style="stroke: #000000; stroke-width: 1.5;" width="104" x="6" y="8"/><text fill="#000000" font-family="sans-serif" font-size="14" lengthAdjust="spacingAndGlyphs" textLength="84" x="16" y="32.5332">BuildInstance</text><!--entity Environment--><rect fill="#90EE90" filter="url(#f1h24x39m9kkhw)" height="37.6094" style="stroke: #000000; stroke-width: 1.5;" width="99" x="155.5" y="8"/><text fill="#000000" font-family="sans-serif" font-size="14" lengthAdjust="spacingAndGlyphs" textLength="79" x="165.5" y="32.5332">Environment</text><!--class Model--><rect fill="#FEFECE" filter="url(#f1h24x39m9kkhw)" height="61.8359" id="Model" style="stroke: #A80036; stroke-width: 1.5;" width="68" x="82" y="124"/><ellipse cx="100.6" cy="140" fill="#ADD1B2" rx="11" ry="11" style="stroke: #A80036; stroke-width: 1.0;"/><path d="M103.3656,135.875 Q103.5219,135.6563 103.7094,135.5469 Q103.8969,135.4375 104.1156,135.4375 Q104.4906,135.4375 104.725,135.6953 Q104.9594,135.9531 104.9594,136.5625 L104.9594,138.0156 Q104.9594,138.625 104.725,138.8906 Q104.4906,139.1563 104.1156,139.1563 Q103.7719,139.1563 103.5688,138.9531 Q103.3656,138.7656 103.2563,138.25 Q103.2094,137.8906 103.0219,137.7031 Q102.6938,137.3281 102.0844,137.1094 Q101.475,136.8906 100.85,136.8906 Q100.0844,136.8906 99.4516,137.2188 Q98.8188,137.5469 98.3266,138.2969 Q97.8344,139.0469 97.8344,140.0781 L97.8344,141.1719 Q97.8344,142.4063 98.725,143.2266 Q99.6156,144.0469 101.2094,144.0469 Q102.1469,144.0469 102.8031,143.7969 Q103.1938,143.6406 103.6156,143.2031 Q103.8813,142.9375 104.0297,142.8594 Q104.1781,142.7813 104.3813,142.7813 Q104.7094,142.7813 104.9672,143.0391 Q105.225,143.2969 105.225,143.6406 Q105.225,143.9844 104.8813,144.3906 Q104.3813,144.9688 103.5844,145.2969 Q102.5063,145.75 101.2094,145.75 Q99.6938,145.75 98.4906,145.125 Q97.5063,144.625 96.8188,143.5547 Q96.1313,142.4844 96.1313,141.2031 L96.1313,140.0469 Q96.1313,138.7188 96.7484,137.5703 Q97.3656,136.4219 98.4594,135.8047 Q99.5531,135.1875 100.7875,135.1875 Q101.5219,135.1875 102.1703,135.3516 Q102.8188,135.5156 103.3656,135.875 Z "/><text fill="#000000" font-family="sans-serif" font-size="12" lengthAdjust="spacingAndGlyphs" textLength="28" x="115.4" y="144.9102">Build</text><line style="stroke: #A80036; stroke-width: 1.5;" x1="83" x2="149" y1="156" y2="156"/><text fill="#000000" font-family="sans-serif" font-size="11" lengthAdjust="spacingAndGlyphs" textLength="56" x="88" y="171.4189">string name</text><line style="stroke: #A80036; stroke-width: 1.5;" x1="83" x2="149" y1="177.8359" y2="177.8359"/><!--link Model to BuildInstance--><path d="M96.5822,111.8166 C88.4822,94.22 79.2585,74.182 71.8611,58.112 " fill="none" id="Model-BuildInstance" style="stroke: #A80036; stroke-width: 1.0;"/><polygon fill="#A80036" points="66.31,46.053,66.4397,55.901,68.4007,50.5949,73.7068,52.5559,66.31,46.053" style="stroke: #A80036; stroke-width: 1.0;"/><line style="stroke: #A80036; stroke-width: 1.0;" x1="68.4007" x2="71.7459" y1="50.5949" y2="57.8615"/><polygon fill="#A80036" points="102.1064,123.8174,103.231,116.6945,97.0886,112.9169,95.964,120.0397,102.1064,123.8174" style="stroke: #A80036; stroke-width: 1.0;"/><text fill="#000000" font-family="sans-serif" font-size="13" lengthAdjust="spacingAndGlyphs" textLength="47" x="88" y="90.4951">versions</text><text fill="#000000" font-family="sans-serif" font-size="13" lengthAdjust="spacingAndGlyphs" textLength="7" x="60.6628" y="67.2611">n</text><!--link BuildInstance to Model--><path d="M43.6514,58.298 C40.1911,69.851 38.802,82.902 44,94 C50.0146,106.8415 60.2782,117.8931 71.2007,126.8854 " fill="none" id="BuildInstance-Model" style="stroke: #A80036; stroke-width: 1.0;"/><polygon fill="#A80036" points="81.7576,134.8671,76.9909,126.2486,77.7692,131.8516,72.1662,132.63,81.7576,134.8671" style="stroke: #A80036; stroke-width: 1.0;"/><line style="stroke: #A80036; stroke-width: 1.0;" x1="77.7692" x2="71.3879" y1="131.8516" y2="127.0269"/><polygon fill="#FFFFFF" points="48.1975,46.074,42.3569,50.3034,44.0147,57.3214,49.8552,53.092,48.1975,46.074" style="stroke: #A80036; stroke-width: 1.0;"/><text fill="#000000" font-family="sans-serif" font-size="13" lengthAdjust="spacingAndGlyphs" textLength="27" x="45" y="90.4951">build</text><text fill="#000000" font-family="sans-serif" font-size="13" lengthAdjust="spacingAndGlyphs" textLength="7" x="66.9732" y="126.613">1</text><!--link Environment to Model--><path d="M184.726,56.703 C172.945,73.381 157.907,94.6711 144.903,113.0813 " fill="none" id="Environment-Model" style="stroke: #A80036; stroke-width: 1.0;"/><polygon fill="#A80036" points="137.319,123.8174,145.7785,118.774,140.2037,119.7334,139.2442,114.1585,137.319,123.8174" style="stroke: #A80036; stroke-width: 1.0;"/><line style="stroke: #A80036; stroke-width: 1.0;" x1="140.2037" x2="144.8195" y1="119.7334" y2="113.1991"/><polygon fill="#FFFFFF" points="192.248,46.053,185.5193,48.6462,185.325,55.8546,192.0537,53.2615,192.248,46.053" style="stroke: #A80036; stroke-width: 1.0;"/><text fill="#000000" font-family="sans-serif" font-size="13" lengthAdjust="spacingAndGlyphs" textLength="34" x="173" y="90.4951">builds</text><text fill="#000000" font-family="sans-serif" font-size="13" lengthAdjust="spacingAndGlyphs" textLength="7" x="133.9942" y="113.2843">n</text><!--
@startuml

class "Build" as Model {
 string name

 
}

rectangle "BuildInstance" as BuildInstance #lightblue {
}

Model *- -> "n" BuildInstance : versions




    rectangle "BuildInstance" as BuildInstance #lightgreen {
    }
    
        BuildInstance   o- -> "1" Model : "build"
    
    rectangle "Environment" as Environment #lightgreen {
    }
    
        Environment   o- -> "n" Model : "builds"
    

@enduml

PlantUML version 1.2019.05(Sat Apr 20 09:45:36 PDT 2019)
(GPL source distribution)
Java Runtime: Java(TM) SE Runtime Environment
JVM: Java HotSpot(TM) Client VM
Java Version: 1.8.0_271-b09
Operating System: Windows 10
OS Version: 10.0
Default Encoding: Cp1252
Language: en
Country: US
--></g></svg>