<?xml version="1.0" encoding="us-ascii" standalone="no"?><svg xmlns="http://www.w3.org/2000/svg" xmlns:xlink="http://www.w3.org/1999/xlink" contentStyleType="text/css" height="398px" preserveAspectRatio="none" style="width:1191px;height:398px;background:#FFFFFF;" version="1.1" viewBox="0 0 1191 398" width="1191px" zoomAndPan="magnify"><defs/><g><!--entity DataStream--><g id="elem_DataStream"><rect fill="#90EE90" height="37.6094" rx="2.5" ry="2.5" style="stroke:#181818;stroke-width:0.5;" width="95" x="359" y="7"/><text fill="#000000" font-family="sans-serif" font-size="14" lengthAdjust="spacing" textLength="75" x="369" y="31.5332">DataStream</text></g><!--entity DataTransform--><g id="elem_DataTransform"><rect fill="#ADD8E6" height="37.6094" rx="2.5" ry="2.5" style="stroke:#181818;stroke-width:0.5;" width="115" x="177" y="355"/><text fill="#000000" font-family="sans-serif" font-size="14" lengthAdjust="spacing" textLength="95" x="187" y="379.5332">DataTransform</text></g><!--entity Application--><g id="elem_Application"><rect fill="#ADD8E6" height="37.6094" rx="2.5" ry="2.5" style="stroke:#181818;stroke-width:0.5;" width="89" x="327" y="355"/><text fill="#000000" font-family="sans-serif" font-size="14" lengthAdjust="spacing" textLength="69" x="337" y="379.5332">Application</text></g><!--entity Stack--><g id="elem_Stack"><rect fill="#ADD8E6" height="37.6094" rx="2.5" ry="2.5" style="stroke:#181818;stroke-width:0.5;" width="55" x="451" y="355"/><text fill="#000000" font-family="sans-serif" font-size="14" lengthAdjust="spacing" textLength="35" x="461" y="379.5332">Stack</text></g><!--entity AIModel--><g id="elem_AIModel"><rect fill="#ADD8E6" height="37.6094" rx="2.5" ry="2.5" style="stroke:#181818;stroke-width:0.5;" width="70" x="541.5" y="355"/><text fill="#000000" font-family="sans-serif" font-size="14" lengthAdjust="spacing" textLength="50" x="551.5" y="379.5332">AIModel</text></g><!--entity SABundleInstance--><g id="elem_SABundleInstance"><rect fill="#90EE90" height="37.6094" rx="2.5" ry="2.5" style="stroke:#181818;stroke-width:0.5;" width="135" x="7" y="355"/><text fill="#000000" font-family="sans-serif" font-size="14" lengthAdjust="spacing" textLength="115" x="17" y="379.5332">SABundleInstance</text></g><!--entity SecureVault--><g id="elem_SecureVault"><rect fill="#ADD8E6" height="37.6094" rx="2.5" ry="2.5" style="stroke:#181818;stroke-width:0.5;" width="97" x="647" y="355"/><text fill="#000000" font-family="sans-serif" font-size="14" lengthAdjust="spacing" textLength="77" x="657" y="379.5332">SecureVault</text></g><!--entity ChannelCreationPolicy--><g id="elem_ChannelCreationPolicy"><rect fill="#ADD8E6" height="37.6094" rx="2.5" ry="2.5" style="stroke:#181818;stroke-width:0.5;" width="164" x="779.5" y="355"/><text fill="#000000" font-family="sans-serif" font-size="14" lengthAdjust="spacing" textLength="144" x="789.5" y="379.5332">ChannelCreationPolicy</text></g><!--entity SABundleBuild--><g id="elem_SABundleBuild"><rect fill="#ADD8E6" height="37.6094" rx="2.5" ry="2.5" style="stroke:#181818;stroke-width:0.5;" width="113" x="979" y="355"/><text fill="#000000" font-family="sans-serif" font-size="14" lengthAdjust="spacing" textLength="93" x="989" y="379.5332">SABundleBuild</text></g><!--entity Image--><g id="elem_Image"><rect fill="#ADD8E6" height="37.6094" rx="2.5" ry="2.5" style="stroke:#181818;stroke-width:0.5;" width="58" x="1127.5" y="355"/><text fill="#000000" font-family="sans-serif" font-size="14" lengthAdjust="spacing" textLength="38" x="1137.5" y="379.5332">Image</text></g><!--entity Capability--><g id="elem_Capability"><rect fill="#90EE90" height="37.6094" rx="2.5" ry="2.5" style="stroke:#181818;stroke-width:0.5;" width="82" x="736.5" y="7"/><text fill="#000000" font-family="sans-serif" font-size="14" lengthAdjust="spacing" textLength="62" x="746.5" y="31.5332">Capability</text></g><!--entity AdminDataStream--><g id="elem_AdminDataStream"><rect fill="#90EE90" height="37.6094" rx="2.5" ry="2.5" style="stroke:#181818;stroke-width:0.5;" width="134" x="878.5" y="7"/><text fill="#000000" font-family="sans-serif" font-size="14" lengthAdjust="spacing" textLength="114" x="888.5" y="31.5332">AdminDataStream</text></g><!--class Model--><g id="elem_Model"><rect codeLine="2" fill="#F1F1F1" height="153.6563" id="Model" rx="2.5" ry="2.5" style="stroke:#181818;stroke-width:0.5;" width="97" x="481" y="123"/><ellipse cx="497.35" cy="139" fill="#ADD1B2" rx="11" ry="11" style="stroke:#181818;stroke-width:1.0;"/><path d="M500.1156,134.875 Q500.2719,134.6563 500.4594,134.5469 Q500.6469,134.4375 500.8656,134.4375 Q501.2406,134.4375 501.475,134.6953 Q501.7094,134.9531 501.7094,135.5625 L501.7094,137.0156 Q501.7094,137.625 501.475,137.8906 Q501.2406,138.1563 500.8656,138.1563 Q500.5219,138.1563 500.3188,137.9531 Q500.1156,137.7656 500.0063,137.25 Q499.9594,136.8906 499.7719,136.7031 Q499.4438,136.3281 498.8344,136.1094 Q498.225,135.8906 497.6,135.8906 Q496.8344,135.8906 496.2016,136.2188 Q495.5688,136.5469 495.0766,137.2969 Q494.5844,138.0469 494.5844,139.0781 L494.5844,140.1719 Q494.5844,141.4063 495.475,142.2266 Q496.3656,143.0469 497.9594,143.0469 Q498.8969,143.0469 499.5531,142.7969 Q499.9438,142.6406 500.3656,142.2031 Q500.6313,141.9375 500.7797,141.8594 Q500.9281,141.7813 501.1313,141.7813 Q501.4594,141.7813 501.7172,142.0391 Q501.975,142.2969 501.975,142.6406 Q501.975,142.9844 501.6313,143.3906 Q501.1313,143.9688 500.3344,144.2969 Q499.2563,144.75 497.9594,144.75 Q496.4438,144.75 495.2406,144.125 Q494.2563,143.625 493.5688,142.5547 Q492.8813,141.4844 492.8813,140.2031 L492.8813,139.0469 Q492.8813,137.7188 493.4984,136.5703 Q494.1156,135.4219 495.2094,134.8047 Q496.3031,134.1875 497.5375,134.1875 Q498.2719,134.1875 498.9203,134.3516 Q499.5688,134.5156 500.1156,134.875 Z " fill="#000000"/><text fill="#000000" font-family="sans-serif" font-size="14" lengthAdjust="spacing" textLength="62" x="511.65" y="144.7285">SABundle</text><line style="stroke:#181818;stroke-width:0.5;" x1="482" x2="577" y1="155" y2="155"/><text fill="#000000" font-family="sans-serif" font-size="14" lengthAdjust="spacing" textLength="74" x="487" y="173.5332">string name</text><text fill="#000000" font-family="sans-serif" font-size="14" lengthAdjust="spacing" textLength="85" x="487" y="191.1426">string version</text><line style="stroke:#181818;stroke-width:0.5;" x1="482" x2="577" y1="198.2188" y2="198.2188"/><text fill="#000000" font-family="sans-serif" font-size="14" lengthAdjust="spacing" textLength="40" x="487" y="216.752">build()</text><text fill="#000000" font-family="sans-serif" font-size="14" lengthAdjust="spacing" textLength="50" x="487" y="234.3613">create()</text><text fill="#000000" font-family="sans-serif" font-size="14" lengthAdjust="spacing" textLength="52" x="487" y="251.9707">deploy()</text><text fill="#000000" font-family="sans-serif" font-size="14" lengthAdjust="spacing" textLength="64" x="487" y="269.5801">toJScript()</text></g><!--link Model to DataStream--><g id="link_Model_DataStream"><path codeLine="16" d="M469.5456,178.0312 C430.3156,161.9612 388.98,137.82 364.5,93 C355.39,76.31 364.4067,62.2264 378.4367,49.1764 " fill="none" id="Model-DataStream" style="stroke:#181818;stroke-width:1.0;"/><polygon fill="none" points="480.65,182.58,476.614,176.6041,469.5456,178.0312,473.5815,184.0071,480.65,182.58" style="stroke:#181818;stroke-width:1.0;"/><polygon fill="#181818" points="382.83,45.09,373.5158,48.2908,379.1689,48.4954,378.9643,54.1485,382.83,45.09" style="stroke:#181818;stroke-width:1.0;"/><text fill="#000000" font-family="sans-serif" font-size="13" lengthAdjust="spacing" textLength="35" x="365.5" y="89.4951">inputs</text><text fill="#000000" font-family="sans-serif" font-size="13" lengthAdjust="spacing" textLength="7" x="368.5281" y="65.9653">n</text></g><!--link Model to DataStream--><g id="link_Model_DataStream"><path codeLine="22" d="M473.2205,135.6174 C459.7405,119.4674 453.28,110.59 441.5,93 C431.18,77.59 424.0831,64.2011 417.5131,50.6211 " fill="none" id="Model-DataStream-1" style="stroke:#181818;stroke-width:1.0;"/><polygon fill="none" points="480.91,144.83,480.1361,137.6605,473.2205,135.6174,473.9944,142.7869,480.91,144.83" style="stroke:#181818;stroke-width:1.0;"/><polygon fill="#181818" points="414.9,45.22,415.2188,55.0637,417.0775,49.7209,422.4203,51.5796,414.9,45.22" style="stroke:#181818;stroke-width:1.0;"/><text fill="#000000" font-family="sans-serif" font-size="13" lengthAdjust="spacing" textLength="43" x="442.5" y="89.4951">outputs</text><text fill="#000000" font-family="sans-serif" font-size="13" lengthAdjust="spacing" textLength="7" x="409.2169" y="66.1302">n</text></g><!--link Model to DataStream--><g id="link_Model_DataStream"><path codeLine="28" d="M511.451,111.3473 C505.751,94.4173 501.61,88.8 490.5,75 C480.38,62.44 471.3342,55.3733 457.3642,47.9233 " fill="none" id="Model-DataStream-2" style="stroke:#181818;stroke-width:1.0;"/><polygon fill="none" points="515.28,122.72,517.1564,115.7573,511.451,111.3473,509.5746,118.31,515.28,122.72" style="stroke:#181818;stroke-width:1.0;"/><polygon fill="#181818" points="452.07,45.1,458.1291,52.8645,456.4819,47.4528,461.8936,45.8055,452.07,45.1" style="stroke:#181818;stroke-width:1.0;"/><text fill="#000000" font-family="sans-serif" font-size="13" lengthAdjust="spacing" textLength="87" x="503.5" y="89.4951">learningStream</text><text fill="#000000" font-family="sans-serif" font-size="13" lengthAdjust="spacing" textLength="7" x="456.3763" y="65.978">1</text></g><!--link Model to DataStream--><g id="link_Model_DataStream"><path codeLine="34" d="M586.1685,148.004 C609.0385,123.054 619.29,100.32 599.5,75 C581.8,52.35 511.4297,39.6351 460.2297,32.9651 " fill="none" id="Model-DataStream-3" style="stroke:#181818;stroke-width:1.0;"/><polygon fill="none" points="578.06,156.85,585.0629,155.1298,586.1685,148.004,579.1656,149.7242,578.06,156.85" style="stroke:#181818;stroke-width:1.0;"/><polygon fill="#181818" points="454.28,32.19,462.6879,37.3191,459.2381,32.8359,463.7213,29.3862,454.28,32.19" style="stroke:#181818;stroke-width:1.0;"/><text fill="#000000" font-family="sans-serif" font-size="13" lengthAdjust="spacing" textLength="77" x="608.5" y="89.4951">adminStream</text><text fill="#000000" font-family="sans-serif" font-size="13" lengthAdjust="spacing" textLength="7" x="462.1322" y="29.4648">1</text></g><!--link DataStream to Model--><g id="link_DataStream_Model"><path codeLine="101" d="M346.8653,30.0591 C282.3153,34.2591 184.27,44.96 159.5,75 C154.41,81.17 154.68,86.61 159.5,93 C198.36,144.56 383.4657,177.7942 474.7757,191.4242 " fill="none" id="DataStream-Model" style="stroke:#181818;stroke-width:1.0;"/><polygon fill="none" points="358.84,29.28,352.5929,25.678,346.8653,30.0591,353.1124,33.6611,358.84,29.28" style="stroke:#181818;stroke-width:1.0;"/><polygon fill="#181818" points="480.71,192.31,472.3992,187.0251,475.7648,191.5718,471.2181,194.9374,480.71,192.31" style="stroke:#181818;stroke-width:1.0;"/><text fill="#000000" font-family="sans-serif" font-size="13" lengthAdjust="spacing" textLength="64" x="160.5" y="89.4951">consumers</text><text fill="#000000" font-family="sans-serif" font-size="13" lengthAdjust="spacing" textLength="7" x="466.0299" y="187.5517">n</text></g><!--link DataStream to Model--><g id="link_DataStream_Model"><path codeLine="106" d="M347.1448,39.2359 C309.1348,48.9659 276.79,63.98 295.5,93 C336.35,156.34 419.3398,181.16 475.0398,191.45 " fill="none" id="DataStream-Model-1" style="stroke:#181818;stroke-width:1.0;"/><polygon fill="none" points="358.77,36.26,351.9655,33.8729,347.1448,39.2359,353.9494,41.623,358.77,36.26" style="stroke:#181818;stroke-width:1.0;"/><polygon fill="#181818" points="480.94,192.54,472.8164,186.9716,476.0232,191.6317,471.3631,194.8385,480.94,192.54" style="stroke:#181818;stroke-width:1.0;"/><text fill="#000000" font-family="sans-serif" font-size="13" lengthAdjust="spacing" textLength="57" x="296.5" y="89.4951">producers</text><text fill="#000000" font-family="sans-serif" font-size="13" lengthAdjust="spacing" textLength="7" x="465.9683" y="206.171">n</text></g><!--link Model to DataTransform--><g id="link_Model_DataTransform"><path codeLine="40" d="M469.9946,230.7413 C429.4246,251.3813 381.2,276.91 331.5,307 C306.41,322.19 283.7535,337.7082 264.4435,351.4082 " fill="none" id="Model-DataTransform" style="stroke:#181818;stroke-width:1.0;"/><polygon fill="none" points="480.69,225.3,473.5285,224.4555,469.9946,230.7413,477.1561,231.5858,480.69,225.3" style="stroke:#181818;stroke-width:1.0;"/><polygon fill="#181818" points="259.55,354.88,269.2048,352.9346,263.6279,351.9868,264.5757,346.4099,259.55,354.88" style="stroke:#181818;stroke-width:1.0;"/><text fill="#000000" font-family="sans-serif" font-size="13" lengthAdjust="spacing" textLength="61" x="332.5" y="321.4951">transforms</text><text fill="#000000" font-family="sans-serif" font-size="13" lengthAdjust="spacing" textLength="7" x="259.1497" y="344.1833">n</text></g><!--link Model to Application--><g id="link_Model_Application"><path codeLine="46" d="M471.8016,249.7229 C450.6316,268.5429 435.2,283.84 415.5,307 C402.65,322.1 393.4495,335.9686 385.1295,349.6986 " fill="none" id="Model-Application" style="stroke:#181818;stroke-width:1.0;"/><polygon fill="none" points="480.77,241.75,473.6281,242.747,471.8016,249.7229,478.9434,248.7259,480.77,241.75" style="stroke:#181818;stroke-width:1.0;"/><polygon fill="#181818" points="382.02,354.83,390.1051,349.2059,384.6112,350.5538,383.2633,345.0599,382.02,354.83" style="stroke:#181818;stroke-width:1.0;"/><text fill="#000000" font-family="sans-serif" font-size="13" lengthAdjust="spacing" textLength="69" x="416.5" y="321.4951">applications</text><text fill="#000000" font-family="sans-serif" font-size="13" lengthAdjust="spacing" textLength="7" x="377.1699" y="344.118">n</text></g><!--link Model to Stack--><g id="link_Model_Stack"><path codeLine="52" d="M503.4978,288.6946 C494.9678,317.4546 491.1265,330.4278 485.5965,349.0678 " fill="none" id="Model-Stack" style="stroke:#181818;stroke-width:1.0;"/><polygon fill="none" points="506.91,277.19,501.369,281.8049,503.4978,288.6946,509.0388,284.0797,506.91,277.19" style="stroke:#181818;stroke-width:1.0;"/><polygon fill="#181818" points="483.89,354.82,490.2846,347.3294,485.3121,350.0265,482.615,345.054,483.89,354.82" style="stroke:#181818;stroke-width:1.0;"/><text fill="#000000" font-family="sans-serif" font-size="13" lengthAdjust="spacing" textLength="39" x="499.5" y="321.4951">stacks</text><text fill="#000000" font-family="sans-serif" font-size="13" lengthAdjust="spacing" textLength="7" x="477.4688" y="344.1049">n</text></g><!--link Model to AIModel--><g id="link_Model_AIModel"><path codeLine="58" d="M553.4835,288.7655 C561.3435,317.5255 564.8595,330.3919 569.9495,349.0319 " fill="none" id="Model-AIModel" style="stroke:#181818;stroke-width:1.0;"/><polygon fill="none" points="550.32,277.19,548.0433,284.0323,553.4835,288.7655,555.7603,281.9232,550.32,277.19" style="stroke:#181818;stroke-width:1.0;"/><polygon fill="#181818" points="571.53,354.82,573.0179,345.0842,570.2129,349.9966,565.3005,347.1916,571.53,354.82" style="stroke:#181818;stroke-width:1.0;"/><text fill="#000000" font-family="sans-serif" font-size="13" lengthAdjust="spacing" textLength="52" x="564.5" y="321.4951">aimodels</text><text fill="#000000" font-family="sans-serif" font-size="13" lengthAdjust="spacing" textLength="7" x="561.9361" y="344.1049">n</text></g><!--link Model to SABundleInstance--><g id="link_Model_SABundleInstance"><path codeLine="64" d="M468.6769,205.8898 C361.3069,215.4098 122.29,243.11 71.5,307 C60.94,320.29 61.9501,334.4985 66.0701,348.9985 " fill="none" id="Model-SABundleInstance" style="stroke:#181818;stroke-width:1.0;"/><polygon fill="#181818" points="480.63,204.83,474.3002,201.3755,468.6769,205.8898,475.0067,209.3443,480.63,204.83" style="stroke:#181818;stroke-width:1.0;"/><polygon fill="#181818" points="67.71,354.77,69.0978,345.0194,66.3434,349.9604,61.4024,347.206,67.71,354.77" style="stroke:#181818;stroke-width:1.0;"/><text fill="#000000" font-family="sans-serif" font-size="13" lengthAdjust="spacing" textLength="56" x="72.5" y="321.4951">instances</text><text fill="#000000" font-family="sans-serif" font-size="13" lengthAdjust="spacing" textLength="7" x="57.5587" y="344.0396">n</text></g><!--link SABundleInstance to Model--><g id="link_SABundleInstance_Model"><path codeLine="121" d="M133.3849,350.7371 C220.4249,317.8371 387.3875,254.7214 475.1975,221.5314 " fill="none" id="SABundleInstance-Model" style="stroke:#181818;stroke-width:1.0;"/><polygon fill="none" points="122.16,354.98,129.1867,356.6002,133.3849,350.7371,126.3582,349.1169,122.16,354.98" style="stroke:#181818;stroke-width:1.0;"/><polygon fill="#181818" points="480.81,219.41,470.9771,218.8504,476.1329,221.1778,473.8055,226.3337,480.81,219.41" style="stroke:#181818;stroke-width:1.0;"/><text fill="#000000" font-family="sans-serif" font-size="13" lengthAdjust="spacing" textLength="36" x="249.5" y="321.4951">parent</text><text fill="#000000" font-family="sans-serif" font-size="13" lengthAdjust="spacing" textLength="7" x="466.1446" y="236.982">1</text></g><!--link Model to SecureVault--><g id="link_Model_SecureVault"><path codeLine="70" d="M586.7433,260.3146 C620.2133,294.9946 650.1434,326.0026 673.6334,350.3426 " fill="none" id="Model-SecureVault" style="stroke:#181818;stroke-width:1.0;"/><polygon fill="#181818" points="578.41,251.68,579.6985,258.7751,586.7433,260.3146,585.4548,253.2195,578.41,251.68" style="stroke:#181818;stroke-width:1.0;"/><polygon fill="#181818" points="677.8,354.66,674.4284,345.4062,674.3278,351.0622,668.6719,350.9617,677.8,354.66" style="stroke:#181818;stroke-width:1.0;"/><text fill="#000000" font-family="sans-serif" font-size="13" lengthAdjust="spacing" textLength="69" x="647.5" y="321.4951">secureVault</text><text fill="#000000" font-family="sans-serif" font-size="13" lengthAdjust="spacing" textLength="7" x="664.5725" y="344.233">1</text></g><!--link Model to ChannelCreationPolicy--><g id="link_Model_ChannelCreationPolicy"><path codeLine="76" d="M588.7846,231.7108 C656.5046,266.8008 761.6021,321.2508 821.1521,352.0908 " fill="none" id="Model-ChannelCreationPolicy" style="stroke:#181818;stroke-width:1.0;"/><polygon fill="none" points="578.13,226.19,581.617,232.5019,588.7846,231.7108,585.2976,225.3989,578.13,226.19" style="stroke:#181818;stroke-width:1.0;"/><polygon fill="#181818" points="826.48,354.85,820.3276,347.1592,822.0401,352.5506,816.6486,354.2631,826.48,354.85" style="stroke:#181818;stroke-width:1.0;"/><text fill="#000000" font-family="sans-serif" font-size="13" lengthAdjust="spacing" textLength="44" x="764.5" y="321.4951">policies</text><text fill="#000000" font-family="sans-serif" font-size="13" lengthAdjust="spacing" textLength="7" x="807.6833" y="344.1441">n</text></g><!--link Model to SABundleBuild--><g id="link_Model_SABundleBuild"><path codeLine="82" d="M589.3815,221.352 C684.4915,253.682 877.7094,319.3585 976.5294,352.9585 " fill="none" id="Model-SABundleBuild" style="stroke:#181818;stroke-width:1.0;"/><polygon fill="none" points="578.02,217.49,582.4134,223.2082,589.3815,221.352,584.9881,215.6338,578.02,217.49" style="stroke:#181818;stroke-width:1.0;"/><polygon fill="#181818" points="982.21,354.89,974.9767,348.2057,977.4762,353.2804,972.4014,355.7799,982.21,354.89" style="stroke:#181818;stroke-width:1.0;"/><text fill="#000000" font-family="sans-serif" font-size="13" lengthAdjust="spacing" textLength="34" x="886.5" y="321.4951">builds</text><text fill="#000000" font-family="sans-serif" font-size="13" lengthAdjust="spacing" textLength="7" x="964.0295" y="347.1209">n</text></g><!--link Model to Image--><g id="link_Model_Image"><path codeLine="88" d="M589.751,216.9386 C665.061,236.8586 802.79,273.32 929.5,307 C1009.52,328.27 1030.73,329.49 1109.5,355 C1115.32,356.88 1115.8548,356.9659 1121.7248,359.1759 " fill="none" id="Model-Image" style="stroke:#181818;stroke-width:1.0;"/><polygon fill="none" points="578.15,213.87,582.9277,219.2713,589.751,216.9386,584.9734,211.5373,578.15,213.87" style="stroke:#181818;stroke-width:1.0;"/><polygon fill="#181818" points="1127.34,361.29,1120.3266,354.3754,1122.6607,359.5283,1117.5078,361.8624,1127.34,361.29" style="stroke:#181818;stroke-width:1.0;"/><text fill="#000000" font-family="sans-serif" font-size="13" lengthAdjust="spacing" textLength="42" x="1002.5" y="321.4951">images</text><text fill="#000000" font-family="sans-serif" font-size="13" lengthAdjust="spacing" textLength="7" x="1112.3791" y="353.8275">n</text></g><!--link Capability to Model--><g id="link_Capability_Model"><path codeLine="96" d="M746.5174,52.9113 C730.0374,66.5213 715.9,77.67 694.5,93 C656.3,120.35 616.4436,145.8651 583.1036,166.4751 " fill="none" id="Capability-Model" style="stroke:#181818;stroke-width:1.0;"/><polygon fill="none" points="755.77,45.27,748.5966,46.0064,746.5174,52.9113,753.6908,52.1748,755.77,45.27" style="stroke:#181818;stroke-width:1.0;"/><polygon fill="#181818" points="578,169.63,587.7586,168.3,582.253,167.0009,583.5521,161.4952,578,169.63" style="stroke:#181818;stroke-width:1.0;"/><text fill="#000000" font-family="sans-serif" font-size="13" lengthAdjust="spacing" textLength="45" x="719.5" y="89.4951">bundles</text><text fill="#000000" font-family="sans-serif" font-size="13" lengthAdjust="spacing" textLength="7" x="585.9625" y="161.3029">n</text></g><!--link AdminDataStream to Model--><g id="link_AdminDataStream_Model"><path codeLine="111" d="M890.6807,49.6655 C812.3507,82.0555 665.3147,142.8474 583.6147,176.6274 " fill="none" id="AdminDataStream-Model" style="stroke:#181818;stroke-width:1.0;"/><polygon fill="none" points="901.77,45.08,894.6968,43.6763,890.6807,49.6655,897.7538,51.0692,901.77,45.08" style="stroke:#181818;stroke-width:1.0;"/><polygon fill="#181818" points="578.07,178.92,587.9155,179.1777,582.6906,177.0095,584.8588,171.7847,578.07,178.92" style="stroke:#181818;stroke-width:1.0;"/><text fill="#000000" font-family="sans-serif" font-size="13" lengthAdjust="spacing" textLength="64" x="823.5" y="89.4951">consumers</text><text fill="#000000" font-family="sans-serif" font-size="13" lengthAdjust="spacing" textLength="7" x="586.0432" y="190.4655">n</text></g><!--link AdminDataStream to Model--><g id="link_AdminDataStream_Model"><path codeLine="116" d="M930.5948,55.4634 C922.1948,70.4234 914.2,80.71 896.5,93 C797.06,162.01 658.8525,185.8201 584.2625,194.2001 " fill="none" id="AdminDataStream-Model-1" style="stroke:#181818;stroke-width:1.0;"/><polygon fill="none" points="936.47,45,930.0446,48.2733,930.5948,55.4634,937.0202,52.1901,936.47,45" style="stroke:#181818;stroke-width:1.0;"/><polygon fill="#181818" points="578.3,194.87,587.6903,197.8402,583.2687,194.3118,586.7972,189.8902,578.3,194.87" style="stroke:#181818;stroke-width:1.0;"/><text fill="#000000" font-family="sans-serif" font-size="13" lengthAdjust="spacing" textLength="57" x="915.5" y="89.4951">producers</text><text fill="#000000" font-family="sans-serif" font-size="13" lengthAdjust="spacing" textLength="7" x="585.9816" y="208.8377">n</text></g><!--SRC=[lLN1JiCm3BttAw9o0IGEN7j06d0P4XBI47SlDIKYJQeqGPhG_XqdAKiNjXKG8uVMpfxzNXt7unBwdfMBsRLJjSIIGS_kTOsIlHUijqQeXYbeSUEyeUc5LaN1bax8-lIiODmWMFHMZPtKAszPVRVWHdJMEyMwA0no2wgHoCfRiB2m5DG6kkIo4ocQ5xkK3ecUWg8IVN5nnKfLZf4L4wfpjY-Ea5ax-rUfBxFK4i4eAcFSE0O3rArG-z8_6b3zipQ9ORFpdGebSCNifvtLQTPrKd2mr2E1PEHFKOoXz279ooWM5lXhI1wigRGHL543qpjNEm_Wg3JQaoe762aKhRToTSDLcYiYL3nUgNnp3ydvHdEEz_qUpPmEkJFu14xQo9JyWoJKDsCebITvsmmtBw0KoXj_o-am7ZGToofmxVnbgdwxWohMUKFWdcfU-s6pLSgmCtdsM-0gpgoCOjv24qyfM5Cf8uZEmxzzAXg5jCO5WmwMGWexL6dZ3gaRWwZyVAMr3i_my6k4POdoi-7APVYOlan1FvWV1sX7s5sqdAwWQsdm_pTnPtJj-5xYcPzr6NksDoqX3_X50VvDnqGzVZ9w3YZv4i7IVqsI0WQL7NHy0000]--></g></svg>