<?xml version="1.0" encoding="UTF-8" standalone="no"?><svg xmlns="http://www.w3.org/2000/svg" xmlns:xlink="http://www.w3.org/1999/xlink" contentScriptType="application/ecmascript" contentStyleType="text/css" height="381px" preserveAspectRatio="none" style="width:1195px;height:381px;" version="1.1" viewBox="0 0 1195 381" width="1195px" zoomAndPan="magnify"><defs><filter height="300%" id="f1g2kv59p6fh7p" width="300%" x="-1" y="-1"><feGaussianBlur result="blurOut" stdDeviation="2.0"/><feColorMatrix in="blurOut" result="blurOut2" type="matrix" values="0 0 0 0 0 0 0 0 0 0 0 0 0 0 0 0 0 0 .4 0"/><feOffset dx="4.0" dy="4.0" in="blurOut2" result="blurOut3"/><feBlend in="SourceGraphic" in2="blurOut3" mode="normal"/></filter></defs><g><!--entity DataStream--><rect fill="#90EE90" filter="url(#f1g2kv59p6fh7p)" height="37.6094" style="stroke: #000000; stroke-width: 1.5;" width="95" x="357" y="8"/><text fill="#000000" font-family="sans-serif" font-size="14" lengthAdjust="spacingAndGlyphs" textLength="75" x="367" y="32.5332">DataStream</text><!--entity DataTransform--><rect fill="#ADD8E6" filter="url(#f1g2kv59p6fh7p)" height="37.6094" style="stroke: #000000; stroke-width: 1.5;" width="115" x="176" y="333"/><text fill="#000000" font-family="sans-serif" font-size="14" lengthAdjust="spacingAndGlyphs" textLength="95" x="186" y="357.5332">DataTransform</text><!--entity Application--><rect fill="#ADD8E6" filter="url(#f1g2kv59p6fh7p)" height="37.6094" style="stroke: #000000; stroke-width: 1.5;" width="89" x="326" y="333"/><text fill="#000000" font-family="sans-serif" font-size="14" lengthAdjust="spacingAndGlyphs" textLength="69" x="336" y="357.5332">Application</text><!--entity Stack--><rect fill="#ADD8E6" filter="url(#f1g2kv59p6fh7p)" height="37.6094" style="stroke: #000000; stroke-width: 1.5;" width="55" x="450" y="333"/><text fill="#000000" font-family="sans-serif" font-size="14" lengthAdjust="spacingAndGlyphs" textLength="35" x="460" y="357.5332">Stack</text><!--entity AIModel--><rect fill="#ADD8E6" filter="url(#f1g2kv59p6fh7p)" height="37.6094" style="stroke: #000000; stroke-width: 1.5;" width="70" x="540.5" y="333"/><text fill="#000000" font-family="sans-serif" font-size="14" lengthAdjust="spacingAndGlyphs" textLength="50" x="550.5" y="357.5332">AIModel</text><!--entity SABundleInstance--><rect fill="#90EE90" filter="url(#f1g2kv59p6fh7p)" height="37.6094" style="stroke: #000000; stroke-width: 1.5;" width="135" x="6" y="333"/><text fill="#000000" font-family="sans-serif" font-size="14" lengthAdjust="spacingAndGlyphs" textLength="115" x="16" y="357.5332">SABundleInstance</text><!--entity SecureVault--><rect fill="#ADD8E6" filter="url(#f1g2kv59p6fh7p)" height="37.6094" style="stroke: #000000; stroke-width: 1.5;" width="97" x="646" y="333"/><text fill="#000000" font-family="sans-serif" font-size="14" lengthAdjust="spacingAndGlyphs" textLength="77" x="656" y="357.5332">SecureVault</text><!--entity ChannelCreationPolicy--><rect fill="#ADD8E6" filter="url(#f1g2kv59p6fh7p)" height="37.6094" style="stroke: #000000; stroke-width: 1.5;" width="164" x="778.5" y="333"/><text fill="#000000" font-family="sans-serif" font-size="14" lengthAdjust="spacingAndGlyphs" textLength="144" x="788.5" y="357.5332">ChannelCreationPolicy</text><!--entity SABundleBuild--><rect fill="#ADD8E6" filter="url(#f1g2kv59p6fh7p)" height="37.6094" style="stroke: #000000; stroke-width: 1.5;" width="113" x="978" y="333"/><text fill="#000000" font-family="sans-serif" font-size="14" lengthAdjust="spacingAndGlyphs" textLength="93" x="988" y="357.5332">SABundleBuild</text><!--entity Image--><rect fill="#ADD8E6" filter="url(#f1g2kv59p6fh7p)" height="37.6094" style="stroke: #000000; stroke-width: 1.5;" width="58" x="1126.5" y="333"/><text fill="#000000" font-family="sans-serif" font-size="14" lengthAdjust="spacingAndGlyphs" textLength="38" x="1136.5" y="357.5332">Image</text><!--entity Capability--><rect fill="#90EE90" filter="url(#f1g2kv59p6fh7p)" height="37.6094" style="stroke: #000000; stroke-width: 1.5;" width="82" x="735.5" y="8"/><text fill="#000000" font-family="sans-serif" font-size="14" lengthAdjust="spacingAndGlyphs" textLength="62" x="745.5" y="32.5332">Capability</text><!--entity AdminDataStream--><rect fill="#90EE90" filter="url(#f1g2kv59p6fh7p)" height="37.6094" style="stroke: #000000; stroke-width: 1.5;" width="134" x="877.5" y="8"/><text fill="#000000" font-family="sans-serif" font-size="14" lengthAdjust="spacingAndGlyphs" textLength="114" x="887.5" y="32.5332">AdminDataStream</text><!--class Model--><rect fill="#FEFECE" filter="url(#f1g2kv59p6fh7p)" height="131.0156" id="Model" style="stroke: #A80036; stroke-width: 1.5;" width="86" x="485.5" y="124"/><ellipse cx="500.5" cy="140" fill="#ADD1B2" rx="11" ry="11" style="stroke: #A80036; stroke-width: 1.0;"/><path d="M503.2656,135.875 Q503.4219,135.6563 503.6094,135.5469 Q503.7969,135.4375 504.0156,135.4375 Q504.3906,135.4375 504.625,135.6953 Q504.8594,135.9531 504.8594,136.5625 L504.8594,138.0156 Q504.8594,138.625 504.625,138.8906 Q504.3906,139.1563 504.0156,139.1563 Q503.6719,139.1563 503.4688,138.9531 Q503.2656,138.7656 503.1563,138.25 Q503.1094,137.8906 502.9219,137.7031 Q502.5938,137.3281 501.9844,137.1094 Q501.375,136.8906 500.75,136.8906 Q499.9844,136.8906 499.3516,137.2188 Q498.7188,137.5469 498.2266,138.2969 Q497.7344,139.0469 497.7344,140.0781 L497.7344,141.1719 Q497.7344,142.4063 498.625,143.2266 Q499.5156,144.0469 501.1094,144.0469 Q502.0469,144.0469 502.7031,143.7969 Q503.0938,143.6406 503.5156,143.2031 Q503.7813,142.9375 503.9297,142.8594 Q504.0781,142.7813 504.2813,142.7813 Q504.6094,142.7813 504.8672,143.0391 Q505.125,143.2969 505.125,143.6406 Q505.125,143.9844 504.7813,144.3906 Q504.2813,144.9688 503.4844,145.2969 Q502.4063,145.75 501.1094,145.75 Q499.5938,145.75 498.3906,145.125 Q497.4063,144.625 496.7188,143.5547 Q496.0313,142.4844 496.0313,141.2031 L496.0313,140.0469 Q496.0313,138.7188 496.6484,137.5703 Q497.2656,136.4219 498.3594,135.8047 Q499.4531,135.1875 500.6875,135.1875 Q501.4219,135.1875 502.0703,135.3516 Q502.7188,135.5156 503.2656,135.875 Z "/><text fill="#000000" font-family="sans-serif" font-size="12" lengthAdjust="spacingAndGlyphs" textLength="54" x="514.5" y="144.9102">SABundle</text><line style="stroke: #A80036; stroke-width: 1.5;" x1="486.5" x2="570.5" y1="156" y2="156"/><text fill="#000000" font-family="sans-serif" font-size="11" lengthAdjust="spacingAndGlyphs" textLength="56" x="491.5" y="171.4189">string name</text><text fill="#000000" font-family="sans-serif" font-size="11" lengthAdjust="spacingAndGlyphs" textLength="66" x="491.5" y="185.2549">string version</text><line style="stroke: #A80036; stroke-width: 1.5;" x1="486.5" x2="570.5" y1="191.6719" y2="191.6719"/><text fill="#000000" font-family="sans-serif" font-size="11" lengthAdjust="spacingAndGlyphs" textLength="30" x="491.5" y="207.0908">build()</text><text fill="#000000" font-family="sans-serif" font-size="11" lengthAdjust="spacingAndGlyphs" textLength="39" x="491.5" y="220.9268">create()</text><text fill="#000000" font-family="sans-serif" font-size="11" lengthAdjust="spacingAndGlyphs" textLength="40" x="491.5" y="234.7627">deploy()</text><text fill="#000000" font-family="sans-serif" font-size="11" lengthAdjust="spacingAndGlyphs" textLength="50" x="491.5" y="248.5986">toJScript()</text><!--link Model to DataStream--><path d="M472.701,172.819 C434.564,158.866 386.852,134.285 363.5,94 C356.123,81.273 362.471,67.412 372.19,55.693 " fill="none" id="Model-DataStream" style="stroke: #A80036; stroke-width: 1.0;"/><polygon fill="#A80036" points="381.338,46.028,372.2463,49.8151,377.9011,49.6595,378.0567,55.3142,381.338,46.028" style="stroke: #A80036; stroke-width: 1.0;"/><line style="stroke: #A80036; stroke-width: 1.0;" x1="377.9011" x2="372.4015" y1="49.6595" y2="55.4695"/><polygon fill="#FFFFFF" points="485.219,177.15,480.8564,171.4083,473.8784,173.2269,478.241,178.9687,485.219,177.15" style="stroke: #A80036; stroke-width: 1.0;"/><text fill="#000000" font-family="sans-serif" font-size="13" lengthAdjust="spacingAndGlyphs" textLength="35" x="364.5" y="90.4951">inputs</text><text fill="#000000" font-family="sans-serif" font-size="13" lengthAdjust="spacingAndGlyphs" textLength="7" x="366.8393" y="67.2291">n</text><!--link Model to DataStream--><path d="M476.366,137.182 C463.913,123.701 451.154,108.78 440.5,94 C432.429,82.803 424.883,69.595 418.805,57.947 " fill="none" id="Model-DataStream-1" style="stroke: #A80036; stroke-width: 1.0;"/><polygon fill="#A80036" points="412.832,46.09,413.3097,55.9273,415.0819,50.5552,420.454,52.3274,412.832,46.09" style="stroke: #A80036; stroke-width: 1.0;"/><line style="stroke: #A80036; stroke-width: 1.0;" x1="415.0819" x2="418.6805" y1="50.5552" y2="57.6995"/><polygon fill="#FFFFFF" points="485.346,146.722,484.1467,139.6113,477.1217,137.9835,478.321,145.0942,485.346,146.722" style="stroke: #A80036; stroke-width: 1.0;"/><text fill="#000000" font-family="sans-serif" font-size="13" lengthAdjust="spacingAndGlyphs" textLength="43" x="441.5" y="90.4951">outputs</text><text fill="#000000" font-family="sans-serif" font-size="13" lengthAdjust="spacingAndGlyphs" textLength="7" x="407.1306" y="66.9653">n</text><!--link Model to DataStream--><path d="M510.273,111.628 C504.971,98.858 498.18,86.406 489.5,76 C481.928,66.923 472.172,59.228 461.985,52.838 " fill="none" id="Model-DataStream-2" style="stroke: #A80036; stroke-width: 1.0;"/><polygon fill="#A80036" points="450.393,46.172,456.2006,54.1263,454.7273,48.6647,460.189,47.1914,450.393,46.172" style="stroke: #A80036; stroke-width: 1.0;"/><line style="stroke: #A80036; stroke-width: 1.0;" x1="454.7273" x2="461.6625" y1="48.6647" y2="52.6525"/><polygon fill="#FFFFFF" points="514.912,123.911,516.5345,116.8848,510.6728,112.6847,509.0503,119.7109,514.912,123.911" style="stroke: #A80036; stroke-width: 1.0;"/><text fill="#000000" font-family="sans-serif" font-size="13" lengthAdjust="spacingAndGlyphs" textLength="87" x="502.5" y="90.4951">learningStream</text><text fill="#000000" font-family="sans-serif" font-size="13" lengthAdjust="spacingAndGlyphs" textLength="7" x="454.7861" y="67.0693">1</text><!--link Model to DataStream--><path d="M580.859,145.736 C601.042,124.096 615.606,97.854 598.5,76 C582.108,55.058 515.78,41.985 465.2,34.866 " fill="none" id="Model-DataStream-3" style="stroke: #A80036; stroke-width: 1.0;"/><polygon fill="#A80036" points="452.065,33.099,460.4509,38.264,457.0203,33.7661,461.5182,30.3355,452.065,33.099" style="stroke: #A80036; stroke-width: 1.0;"/><line style="stroke: #A80036; stroke-width: 1.0;" x1="457.0203" x2="464.949" y1="33.7661" y2="34.832"/><polygon fill="#FFFFFF" points="571.614,155.012,578.6826,153.5857,580.0848,146.5122,573.0161,147.9385,571.614,155.012" style="stroke: #A80036; stroke-width: 1.0;"/><text fill="#000000" font-family="sans-serif" font-size="13" lengthAdjust="spacingAndGlyphs" textLength="77" x="607.5" y="90.4951">adminStream</text><text fill="#000000" font-family="sans-serif" font-size="13" lengthAdjust="spacingAndGlyphs" textLength="7" x="459.8843" y="30.3599">1</text><!--link DataStream to Model--><path d="M343.39,31.274 C278.291,36.191 181.488,48.093 158.5,76 C153.414,82.175 153.593,87.682 158.5,94 C196.729,143.219 378.359,171.113 472.148,182.458 " fill="none" id="DataStream-Model" style="stroke: #A80036; stroke-width: 1.0;"/><polygon fill="#A80036" points="485.321,184.012,476.8515,178.9853,480.3554,183.4263,475.9144,186.9303,485.321,184.012" style="stroke: #A80036; stroke-width: 1.0;"/><line style="stroke: #A80036; stroke-width: 1.0;" x1="480.3554" x2="472.411" y1="183.4263" y2="182.489"/><polygon fill="#FFFFFF" points="356.762,30.328,350.4944,26.762,344.792,31.1759,351.0596,34.742,356.762,30.328" style="stroke: #A80036; stroke-width: 1.0;"/><text fill="#000000" font-family="sans-serif" font-size="13" lengthAdjust="spacingAndGlyphs" textLength="64" x="159.5" y="90.4951">consumers</text><text fill="#000000" font-family="sans-serif" font-size="13" lengthAdjust="spacingAndGlyphs" textLength="7" x="470.5898" y="179.301">n</text><!--link DataStream to Model--><path d="M344.149,40.891 C309.593,51.287 276.228,68.438 293.5,94 C333.273,152.862 416.431,175.066 472.379,183.438 " fill="none" id="DataStream-Model-1" style="stroke: #A80036; stroke-width: 1.0;"/><polygon fill="#A80036" points="485.274,185.197,476.8966,180.0182,480.3198,184.5218,475.8163,187.9449,485.274,185.197" style="stroke: #A80036; stroke-width: 1.0;"/><line style="stroke: #A80036; stroke-width: 1.0;" x1="480.3198" x2="472.3935" y1="184.5218" y2="183.4405"/><polygon fill="#FFFFFF" points="356.843,37.363,349.9912,35.1151,345.2809,40.5753,352.1327,42.8232,356.843,37.363" style="stroke: #A80036; stroke-width: 1.0;"/><text fill="#000000" font-family="sans-serif" font-size="13" lengthAdjust="spacingAndGlyphs" textLength="57" x="294.5" y="90.4951">producers</text><text fill="#000000" font-family="sans-serif" font-size="13" lengthAdjust="spacingAndGlyphs" textLength="7" x="470.535" y="199.3323">n</text><!--link Model to DataTransform--><path d="M473.374,214.345 C433.257,232.318 378.039,258.354 331.5,285 C310.124,297.2384 287.24,312.5167 268.966,325.2905 " fill="none" id="Model-DataTransform" style="stroke: #A80036; stroke-width: 1.0;"/><polygon fill="#A80036" points="258.237,332.8708,267.8956,330.9443,262.3206,329.9856,263.2793,324.4106,258.237,332.8708" style="stroke: #A80036; stroke-width: 1.0;"/><line style="stroke: #A80036; stroke-width: 1.0;" x1="262.3206" x2="268.8545" y1="329.9856" y2="325.3689"/><polygon fill="#FFFFFF" points="485.313,209.034,478.2052,207.8176,474.3487,213.9108,481.4565,215.1272,485.313,209.034" style="stroke: #A80036; stroke-width: 1.0;"/><text fill="#000000" font-family="sans-serif" font-size="13" lengthAdjust="spacingAndGlyphs" textLength="61" x="332.5" y="299.4951">transforms</text><text fill="#000000" font-family="sans-serif" font-size="13" lengthAdjust="spacingAndGlyphs" textLength="7" x="257.7408" y="322.1712">n</text><!--link Model to Application--><path d="M474.852,230.312 C455.114,246.22 433.262,265.405 415.5,285 C405.371,296.1742 395.727,309.765 387.984,321.7028 " fill="none" id="Model-Application" style="stroke: #A80036; stroke-width: 1.0;"/><polygon fill="#A80036" points="380.927,332.9387,389.1012,327.4449,383.5864,328.7046,382.3267,323.1898,380.927,332.9387" style="stroke: #A80036; stroke-width: 1.0;"/><line style="stroke: #A80036; stroke-width: 1.0;" x1="383.5864" x2="387.841" y1="328.7046" y2="321.9301"/><polygon fill="#FFFFFF" points="485.254,222.069,478.0672,222.6606,475.8492,229.5222,483.036,228.9305,485.254,222.069" style="stroke: #A80036; stroke-width: 1.0;"/><text fill="#000000" font-family="sans-serif" font-size="13" lengthAdjust="spacingAndGlyphs" textLength="69" x="416.5" y="299.4951">applications</text><text fill="#000000" font-family="sans-serif" font-size="13" lengthAdjust="spacingAndGlyphs" textLength="7" x="376.0484" y="322.2599">n</text><!--link Model to Stack--><path d="M503.899,267.919 C498.001,286.4825 492.038,305.2479 487.276,320.2358 " fill="none" id="Model-Stack" style="stroke: #A80036; stroke-width: 1.0;"/><polygon fill="#A80036" points="483.276,332.824,489.8137,325.458,484.7902,328.0588,482.1893,323.0353,483.276,332.824" style="stroke: #A80036; stroke-width: 1.0;"/><line style="stroke: #A80036; stroke-width: 1.0;" x1="484.7902" x2="487.2125" y1="328.0588" y2="320.4345"/><polygon fill="#FFFFFF" points="507.903,255.319,502.2738,259.8259,504.2689,266.7555,509.8981,262.2486,507.903,255.319" style="stroke: #A80036; stroke-width: 1.0;"/><text fill="#000000" font-family="sans-serif" font-size="13" lengthAdjust="spacingAndGlyphs" textLength="39" x="499.5" y="299.4951">stacks</text><text fill="#000000" font-family="sans-serif" font-size="13" lengthAdjust="spacingAndGlyphs" textLength="7" x="476.973" y="322.1101">n</text><!--link Model to AIModel--><path d="M551.171,267.919 C556.607,286.4825 562.102,305.2479 566.491,320.2358 " fill="none" id="Model-AIModel" style="stroke: #A80036; stroke-width: 1.0;"/><polygon fill="#A80036" points="570.177,332.824,571.4866,323.0626,568.7719,328.0255,563.809,325.3108,570.177,332.824" style="stroke: #A80036; stroke-width: 1.0;"/><line style="stroke: #A80036; stroke-width: 1.0;" x1="568.7719" x2="566.524" y1="328.0255" y2="320.348"/><polygon fill="#FFFFFF" points="547.481,255.319,545.3289,262.2015,550.8542,266.8351,553.0063,259.9527,547.481,255.319" style="stroke: #A80036; stroke-width: 1.0;"/><text fill="#000000" font-family="sans-serif" font-size="13" lengthAdjust="spacingAndGlyphs" textLength="52" x="561.5" y="299.4951">aimodels</text><text fill="#000000" font-family="sans-serif" font-size="13" lengthAdjust="spacingAndGlyphs" textLength="7" x="560.475" y="322.1101">n</text><!--link Model to SABundleInstance--><path d="M471.998,193.547 C360.932,200.841 120.59,223.52 70.5,285 C62.6568,294.6268 61.9836,307.9143 63.8188,320.0449 " fill="none" id="Model-SABundleInstance" style="stroke: #A80036; stroke-width: 1.0;"/><polygon fill="#A80036" points="66.7082,332.9923,68.6518,323.3371,65.6191,328.1123,60.8439,325.0796,66.7082,332.9923" style="stroke: #A80036; stroke-width: 1.0;"/><line style="stroke: #A80036; stroke-width: 1.0;" x1="65.6191" x2="63.8767" y1="328.1123" y2="320.3045"/><polygon fill="#A80036" points="485.198,192.712,478.9572,189.0991,473.222,193.4703,479.4628,197.0832,485.198,192.712" style="stroke: #A80036; stroke-width: 1.0;"/><text fill="#000000" font-family="sans-serif" font-size="13" lengthAdjust="spacingAndGlyphs" textLength="56" x="71.5" y="299.4951">instances</text><text fill="#000000" font-family="sans-serif" font-size="13" lengthAdjust="spacingAndGlyphs" textLength="7" x="56.4277" y="321.997">n</text><!--link SABundleInstance to Model--><path d="M136.429,328.4441 C172.201,315.6486 217.837,299.3692 258.5,285 C332.629,258.805 418.327,228.87 472.938,209.837 " fill="none" id="SABundleInstance-Model" style="stroke: #A80036; stroke-width: 1.0;"/><polygon fill="#A80036" points="485.451,205.478,475.636,204.6616,480.7293,207.1229,478.268,212.2162,485.451,205.478" style="stroke: #A80036; stroke-width: 1.0;"/><line style="stroke: #A80036; stroke-width: 1.0;" x1="480.7293" x2="473.174" y1="207.1229" y2="209.755"/><polygon fill="#FFFFFF" points="123.723,332.9906,130.7199,334.7352,135.0214,328.9475,128.0245,327.2029,123.723,332.9906" style="stroke: #A80036; stroke-width: 1.0;"/><text fill="#000000" font-family="sans-serif" font-size="13" lengthAdjust="spacingAndGlyphs" textLength="36" x="259.5" y="299.4951">parent</text><text fill="#000000" font-family="sans-serif" font-size="13" lengthAdjust="spacingAndGlyphs" textLength="7" x="470.4504" y="223.1232">1</text><!--link Model to SecureVault--><path d="M581.413,241.66 C609.429,268.748 642.735,300.9502 665.916,323.363 " fill="none" id="Model-SecureVault" style="stroke: #A80036; stroke-width: 1.0;"/><polygon fill="#A80036" points="675.492,332.6216,671.8025,323.4899,671.8976,329.146,666.2415,329.241,675.492,332.6216" style="stroke: #A80036; stroke-width: 1.0;"/><line style="stroke: #A80036; stroke-width: 1.0;" x1="671.8976" x2="666.146" y1="329.146" y2="323.5853"/><polygon fill="#A80036" points="571.681,232.251,573.2137,239.2973,580.3075,240.5927,578.7748,233.5463,571.681,232.251" style="stroke: #A80036; stroke-width: 1.0;"/><text fill="#000000" font-family="sans-serif" font-size="13" lengthAdjust="spacingAndGlyphs" textLength="69" x="642.5" y="299.4951">secureVault</text><text fill="#000000" font-family="sans-serif" font-size="13" lengthAdjust="spacingAndGlyphs" textLength="7" x="661.8803" y="322.1833">1</text><!--link Model to ChannelCreationPolicy--><path d="M583.674,217.173 C647.121,247.845 750.333,297.7415 811.196,327.1646 " fill="none" id="Model-ChannelCreationPolicy" style="stroke: #A80036; stroke-width: 1.0;"/><polygon fill="#A80036" points="823.145,332.9413,816.7834,325.4227,818.6435,330.765,813.3012,332.6251,823.145,332.9413" style="stroke: #A80036; stroke-width: 1.0;"/><line style="stroke: #A80036; stroke-width: 1.0;" x1="818.6435" x2="811.4405" y1="330.765" y2="327.2831"/><polygon fill="#FFFFFF" points="571.563,211.318,575.2244,217.5304,582.3672,216.5401,578.7058,210.3277,571.563,211.318" style="stroke: #A80036; stroke-width: 1.0;"/><text fill="#000000" font-family="sans-serif" font-size="13" lengthAdjust="spacingAndGlyphs" textLength="44" x="754.5" y="299.4951">policies</text><text fill="#000000" font-family="sans-serif" font-size="13" lengthAdjust="spacingAndGlyphs" textLength="7" x="803.6332" y="322.2633">n</text><!--link Model to SABundleBuild--><path d="M584.064,208.125 C677.037,237.615 863.889,296.8833 965.266,329.0395 " fill="none" id="Model-SABundleBuild" style="stroke: #A80036; stroke-width: 1.0;"/><polygon fill="#A80036" points="977.791,333.0122,970.4214,326.4786,973.025,331.5006,968.0029,334.1042,977.791,333.0122" style="stroke: #A80036; stroke-width: 1.0;"/><line style="stroke: #A80036; stroke-width: 1.0;" x1="973.025" x2="965.3995" y1="331.5006" y2="329.0816"/><polygon fill="#FFFFFF" points="571.641,204.184,576.1504,209.8112,583.0791,207.813,578.5697,202.1858,571.641,204.184" style="stroke: #A80036; stroke-width: 1.0;"/><text fill="#000000" font-family="sans-serif" font-size="13" lengthAdjust="spacingAndGlyphs" textLength="34" x="872.5" y="299.4951">builds</text><text fill="#000000" font-family="sans-serif" font-size="13" lengthAdjust="spacingAndGlyphs" textLength="7" x="963.0767" y="327.0971">n</text><!--link Model to Image--><path d="M584.556,201.779 C688.832,223.31 919.222,273.4621 1108.5,333 C1110.32,333.5735 1112.18,334.1805 1114.05,334.8109 " fill="none" id="Model-Image" style="stroke: #A80036; stroke-width: 1.0;"/><polygon fill="#A80036" points="1126.36,339.2079,1119.2291,332.4145,1121.6512,337.5266,1116.539,339.9486,1126.36,339.2079" style="stroke: #A80036; stroke-width: 1.0;"/><line style="stroke: #A80036; stroke-width: 1.0;" x1="1121.6512" x2="1114.12" y1="337.5266" y2="334.8365"/><polygon fill="#FFFFFF" points="571.584,199.115,576.6565,204.2404,583.3386,201.5295,578.2661,196.404,571.584,199.115" style="stroke: #A80036; stroke-width: 1.0;"/><text fill="#000000" font-family="sans-serif" font-size="13" lengthAdjust="spacingAndGlyphs" textLength="42" x="1000.5" y="299.4951">images</text><text fill="#000000" font-family="sans-serif" font-size="13" lengthAdjust="spacingAndGlyphs" textLength="7" x="1111.404" y="331.7254">n</text><!--link Capability to Model--><path d="M745.305,54.653 C730.092,67.166 711.278,81.943 693.5,94 C657.975,118.094 615.969,142.092 583.231,159.876 " fill="none" id="Capability-Model" style="stroke: #A80036; stroke-width: 1.0;"/><polygon fill="#A80036" points="571.619,166.136,581.4393,165.3868,576.0203,163.7636,577.6435,158.3447,571.619,166.136" style="stroke: #A80036; stroke-width: 1.0;"/><line style="stroke: #A80036; stroke-width: 1.0;" x1="576.0203" x2="583.062" y1="163.7636" y2="159.9675"/><polygon fill="#FFFFFF" points="755.68,46.013,748.5097,46.7791,746.4591,53.6925,753.6294,52.9264,755.68,46.013" style="stroke: #A80036; stroke-width: 1.0;"/><text fill="#000000" font-family="sans-serif" font-size="13" lengthAdjust="spacingAndGlyphs" textLength="45" x="718.5" y="90.4951">bundles</text><text fill="#000000" font-family="sans-serif" font-size="13" lengthAdjust="spacingAndGlyphs" textLength="7" x="579.6316" y="158.2693">n</text><!--link AdminDataStream to Model--><path d="M885.358,50.818 C805.108,81.78 662.757,136.701 584.283,166.978 " fill="none" id="AdminDataStream-Model" style="stroke: #A80036; stroke-width: 1.0;"/><polygon fill="#A80036" points="571.792,171.797,581.6286,172.2889,576.4568,169.997,578.7486,164.8252,571.792,171.797" style="stroke: #A80036; stroke-width: 1.0;"/><line style="stroke: #A80036; stroke-width: 1.0;" x1="576.4568" x2="583.921" y1="169.997" y2="167.118"/><polygon fill="#FFFFFF" points="897.588,46.099,890.5505,44.5264,886.3921,50.4178,893.4297,51.9904,897.588,46.099" style="stroke: #A80036; stroke-width: 1.0;"/><text fill="#000000" font-family="sans-serif" font-size="13" lengthAdjust="spacingAndGlyphs" textLength="64" x="811.5" y="90.4951">consumers</text><text fill="#000000" font-family="sans-serif" font-size="13" lengthAdjust="spacingAndGlyphs" textLength="7" x="579.5419" y="183.7129">n</text><!--link AdminDataStream to Model--><path d="M924.595,56.595 C914.074,69.752 900.11,84.51 884.5,94 C789.079,152.008 658.184,174.849 584.614,183.509 " fill="none" id="AdminDataStream-Model-1" style="stroke: #A80036; stroke-width: 1.0;"/><polygon fill="#A80036" points="571.565,184.966,580.9533,187.9424,576.5341,184.4111,580.0655,179.9918,571.565,184.966" style="stroke: #A80036; stroke-width: 1.0;"/><line style="stroke: #A80036; stroke-width: 1.0;" x1="576.5341" x2="584.485" y1="184.4111" y2="183.523"/><polygon fill="#FFFFFF" points="932.583,46.071,925.7692,48.4315,925.3274,55.6291,932.1412,53.2686,932.583,46.071" style="stroke: #A80036; stroke-width: 1.0;"/><text fill="#000000" font-family="sans-serif" font-size="13" lengthAdjust="spacingAndGlyphs" textLength="57" x="907.5" y="90.4951">producers</text><text fill="#000000" font-family="sans-serif" font-size="13" lengthAdjust="spacingAndGlyphs" textLength="7" x="579.5684" y="199.0857">n</text><!--
@startuml

class "SABundle" as Model {
 string name
 string version

 build()
 create()
 deploy()
 toJScript()
 
}

rectangle "DataStream" as DataStream #lightblue {
}

Model o- -> "n" DataStream : inputs


rectangle "DataStream" as DataStream #lightblue {
}

Model o- -> "n" DataStream : outputs


rectangle "DataStream" as DataStream #lightblue {
}

Model o- -> "1" DataStream : learningStream


rectangle "DataStream" as DataStream #lightblue {
}

Model o- -> "1" DataStream : adminStream


rectangle "DataTransform" as DataTransform #lightblue {
}

Model o- -> "n" DataTransform : transforms


rectangle "Application" as Application #lightblue {
}

Model o- -> "n" Application : applications


rectangle "Stack" as Stack #lightblue {
}

Model o- -> "n" Stack : stacks


rectangle "AIModel" as AIModel #lightblue {
}

Model o- -> "n" AIModel : aimodels


rectangle "SABundleInstance" as SABundleInstance #lightblue {
}

Model *- -> "n" SABundleInstance : instances


rectangle "SecureVault" as SecureVault #lightblue {
}

Model *- -> "1" SecureVault : secureVault


rectangle "ChannelCreationPolicy" as ChannelCreationPolicy #lightblue {
}

Model o- -> "n" ChannelCreationPolicy : policies


rectangle "SABundleBuild" as SABundleBuild #lightblue {
}

Model o- -> "n" SABundleBuild : builds


rectangle "Image" as Image #lightblue {
}

Model o- -> "n" Image : images




    rectangle "Capability" as Capability #lightgreen {
    }
    
        Capability   o- -> "n" Model : "bundles"
    
    rectangle "DataStream" as DataStream #lightgreen {
    }
    
        DataStream   o- -> "n" Model : "consumers"
    
    rectangle "DataStream" as DataStream #lightgreen {
    }
    
        DataStream   o- -> "n" Model : "producers"
    
    rectangle "AdminDataStream" as AdminDataStream #lightgreen {
    }
    
        AdminDataStream   o- -> "n" Model : "consumers"
    
    rectangle "AdminDataStream" as AdminDataStream #lightgreen {
    }
    
        AdminDataStream   o- -> "n" Model : "producers"
    
    rectangle "SABundleInstance" as SABundleInstance #lightgreen {
    }
    
        SABundleInstance   o- -> "1" Model : "parent"
    

@enduml

PlantUML version 1.2019.05(Sat Apr 20 09:45:36 PDT 2019)
(GPL source distribution)
Java Runtime: Java(TM) SE Runtime Environment
JVM: Java HotSpot(TM) Client VM
Java Version: 1.8.0_271-b09
Operating System: Windows 10
OS Version: 10.0
Default Encoding: Cp1252
Language: en
Country: US
--></g></svg>