<?xml version="1.0" encoding="us-ascii" standalone="no"?><svg xmlns="http://www.w3.org/2000/svg" xmlns:xlink="http://www.w3.org/1999/xlink" contentStyleType="text/css" height="964px" preserveAspectRatio="none" style="width:185px;height:964px;background:#FFFFFF;" version="1.1" viewBox="0 0 185 964" width="185px" zoomAndPan="magnify"><defs/><g><path d="M19.5,7 L159.5,7 A12.5,12.5 0 0 1 172,19.5 L172,34.6094 L7,34.6094 L7,19.5 A12.5,12.5 0 0 1 19.5,7 " fill="#FFCC88" style="stroke:#FFCC88;stroke-width:1.0;"/><rect fill="none" height="951.6094" rx="12.5" ry="12.5" style="stroke:#181818;stroke-width:0.5;" width="165" x="7" y="7"/><line style="stroke:#181818;stroke-width:0.5;" x1="7" x2="172" y1="34.6094" y2="34.6094"/><text fill="#000000" font-family="sans-serif" font-size="14" lengthAdjust="spacing" textLength="62" x="58.5" y="26.5332">SABundle</text><g id="SABundle.Init"><rect fill="#FFCC88" height="50" rx="12.5" ry="12.5" style="stroke:#181818;stroke-width:0.5;" width="50" x="72.5" y="46.6094"/><line style="stroke:#181818;stroke-width:0.5;" x1="72.5" x2="122.5" y1="74.2188" y2="74.2188"/><text fill="#000000" font-family="sans-serif" font-size="14" lengthAdjust="spacing" textLength="18" x="88.5" y="66.1426">Init</text></g><g id="SABundle.Created"><rect fill="#FFCC88" height="50" rx="12.5" ry="12.5" style="stroke:#181818;stroke-width:0.5;" width="71" x="62" y="188.6094"/><line style="stroke:#181818;stroke-width:0.5;" x1="62" x2="133" y1="216.2188" y2="216.2188"/><text fill="#000000" font-family="sans-serif" font-size="14" lengthAdjust="spacing" textLength="51" x="72" y="208.1426">Created</text></g><g id="SABundle.Building"><rect fill="#FFCC88" height="50" rx="12.5" ry="12.5" style="stroke:#181818;stroke-width:0.5;" width="70" x="62.5" y="330.6094"/><line style="stroke:#181818;stroke-width:0.5;" x1="62.5" x2="132.5" y1="358.2188" y2="358.2188"/><text fill="#000000" font-family="sans-serif" font-size="14" lengthAdjust="spacing" textLength="50" x="72.5" y="350.1426">Building</text></g><g id="SABundle.Built"><rect fill="#FFCC88" height="50" rx="12.5" ry="12.5" style="stroke:#181818;stroke-width:0.5;" width="50" x="35.5" y="472.6094"/><line style="stroke:#181818;stroke-width:0.5;" x1="35.5" x2="85.5" y1="500.2188" y2="500.2188"/><text fill="#000000" font-family="sans-serif" font-size="14" lengthAdjust="spacing" textLength="27" x="47" y="492.1426">Built</text></g><g id="SABundle.Deploying"><rect fill="#FFCC88" height="50" rx="12.5" ry="12.5" style="stroke:#181818;stroke-width:0.5;" width="83" x="19" y="614.6094"/><line style="stroke:#181818;stroke-width:0.5;" x1="19" x2="102" y1="642.2188" y2="642.2188"/><text fill="#000000" font-family="sans-serif" font-size="14" lengthAdjust="spacing" textLength="63" x="29" y="634.1426">Deploying</text></g><g id="SABundle.Enabled"><rect fill="#FFCC88" height="50" rx="12.5" ry="12.5" style="stroke:#181818;stroke-width:0.5;" width="72" x="24.5" y="756.6094"/><line style="stroke:#181818;stroke-width:0.5;" x1="24.5" x2="96.5" y1="784.2188" y2="784.2188"/><text fill="#000000" font-family="sans-serif" font-size="14" lengthAdjust="spacing" textLength="52" x="34.5" y="776.1426">Enabled</text></g><g id="SABundle.Disabled"><rect fill="#FFCC88" height="50" rx="12.5" ry="12.5" style="stroke:#181818;stroke-width:0.5;" width="75" x="23" y="898.6094"/><line style="stroke:#181818;stroke-width:0.5;" x1="23" x2="98" y1="926.2188" y2="926.2188"/><text fill="#000000" font-family="sans-serif" font-size="14" lengthAdjust="spacing" textLength="55" x="33" y="918.1426">Disabled</text></g><g id="SABundle.Failed"><rect fill="#FFCC88" height="50" rx="12.5" ry="12.5" style="stroke:#181818;stroke-width:0.5;" width="59" x="104" y="472.6094"/><line style="stroke:#181818;stroke-width:0.5;" x1="104" x2="163" y1="500.2188" y2="500.2188"/><text fill="#000000" font-family="sans-serif" font-size="14" lengthAdjust="spacing" textLength="39" x="114" y="492.1426">Failed</text></g><!--link Init to Created--><g id="link_Init_Created"><path d="M97.5,96.6794 C97.5,122.3194 97.5,156.6894 97.5,182.3894 " fill="none" id="Init-to-Created" style="stroke:#000000;stroke-width:1.0;"/><polygon fill="#000000" points="97.5,188.3894,101.5,179.3894,97.5,183.3894,93.5,179.3894,97.5,188.3894" style="stroke:#000000;stroke-width:1.0;"/><text fill="#000000" font-family="sans-serif" font-size="13" lengthAdjust="spacing" textLength="36" x="98.5" y="148.1045">create</text></g><!--link Created to Building--><g id="link_Created_Building"><path d="M97.5,238.6794 C97.5,264.3194 97.5,298.6894 97.5,324.3894 " fill="none" id="Created-to-Building" style="stroke:#000000;stroke-width:1.0;"/><polygon fill="#000000" points="97.5,330.3894,101.5,321.3894,97.5,325.3894,93.5,321.3894,97.5,330.3894" style="stroke:#000000;stroke-width:1.0;"/><text fill="#000000" font-family="sans-serif" font-size="13" lengthAdjust="spacing" textLength="27" x="98.5" y="290.1045">build</text></g><!--link Building to Built--><g id="link_Building_Built"><path d="M91.14,380.6794 C84.36,406.3194 75.2226,440.8884 68.4326,466.5884 " fill="none" id="Building-to-Built" style="stroke:#000000;stroke-width:1.0;"/><polygon fill="#000000" points="66.9,472.3894,73.0662,464.7097,68.1772,467.5552,65.3316,462.6662,66.9,472.3894" style="stroke:#000000;stroke-width:1.0;"/><text fill="#000000" font-family="sans-serif" font-size="13" lengthAdjust="spacing" textLength="24" x="82.5" y="432.1045">built</text></g><!--link Building to Failed--><g id="link_Building_Failed"><path d="M103.69,380.6794 C110.28,406.3194 119.1655,440.8785 125.7755,466.5785 " fill="none" id="Building-to-Failed" style="stroke:#000000;stroke-width:1.0;"/><polygon fill="#000000" points="127.27,472.3894,128.9021,462.6767,126.0245,467.547,121.1543,464.6694,127.27,472.3894" style="stroke:#000000;stroke-width:1.0;"/><text fill="#000000" font-family="sans-serif" font-size="13" lengthAdjust="spacing" textLength="30" x="118.5" y="432.1045">failed</text></g><!--link Built to Deploying--><g id="link_Built_Deploying"><path d="M48.64,522.6194 C43.85,533.6094 38.9,546.9794 36.5,559.6094 C32.95,578.3394 37.0341,593.487 44.2141,608.957 " fill="none" id="Built-to-Deploying" style="stroke:#000000;stroke-width:1.0;"/><polygon fill="#000000" points="46.74,614.3994,46.5793,604.5518,44.635,609.8641,39.3228,607.9198,46.74,614.3994" style="stroke:#000000;stroke-width:1.0;"/><text fill="#000000" font-family="sans-serif" font-size="13" lengthAdjust="spacing" textLength="38" x="37.5" y="574.1045">deploy</text></g><!--link Built to Deploying--><g id="link_Built_Deploying"><path d="M69.57,522.6594 C74.4,538.2394 78.9,559.0094 76.5,577.6094 C74.9,589.9894 73.235,597.6779 70.005,608.7879 " fill="none" id="Built-to-Deploying-1" style="stroke:#000000;stroke-width:1.0;"/><polygon fill="#000000" points="68.33,614.5494,74.6835,607.0239,69.7259,609.7482,67.0016,604.7905,68.33,614.5494" style="stroke:#000000;stroke-width:1.0;"/><text fill="#000000" font-family="sans-serif" font-size="13" lengthAdjust="spacing" textLength="55" x="78.5" y="574.1045">deploying</text></g><!--link Deploying to Enabled--><g id="link_Deploying_Enabled"><path d="M60.5,664.6794 C60.5,690.3194 60.5,724.6894 60.5,750.3894 " fill="none" id="Deploying-to-Enabled" style="stroke:#000000;stroke-width:1.0;"/><polygon fill="#000000" points="60.5,756.3894,64.5,747.3894,60.5,751.3894,56.5,747.3894,60.5,756.3894" style="stroke:#000000;stroke-width:1.0;"/><text fill="#000000" font-family="sans-serif" font-size="13" lengthAdjust="spacing" textLength="52" x="61.5" y="716.1045">deployed</text></g><!--link Enabled to Disabled--><g id="link_Enabled_Disabled"><path d="M48.02,806.8594 C43.07,817.7894 37.98,831.0294 35.5,843.6094 C31.8,862.3794 36.0754,877.569 43.5554,893.019 " fill="none" id="Enabled-to-Disabled" style="stroke:#000000;stroke-width:1.0;"/><polygon fill="#000000" points="46.17,898.4194,45.8484,888.5758,43.9912,893.9191,38.6479,892.0618,46.17,898.4194" style="stroke:#000000;stroke-width:1.0;"/><text fill="#000000" font-family="sans-serif" font-size="13" lengthAdjust="spacing" textLength="41" x="36.5" y="858.1045">disable</text></g><!--link Disabled to Enabled--><g id="link_Disabled_Enabled"><path d="M69.4,898.3294 C73,887.2894 76.72,873.9594 78.5,861.6094 C81.2,842.9494 78.1202,827.8432 72.6802,812.2832 " fill="none" id="Disabled-to-Enabled" style="stroke:#000000;stroke-width:1.0;"/><polygon fill="#000000" points="70.7,806.6194,69.8943,816.4352,72.3501,811.3392,77.4461,813.795,70.7,806.6194" style="stroke:#000000;stroke-width:1.0;"/><text fill="#000000" font-family="sans-serif" font-size="13" lengthAdjust="spacing" textLength="38" x="80.5" y="858.1045">enable</text></g><!--SRC=[ZP0_2y8m4CNt-nG7dRkN38Ar2iwEuf0cgGH359iE8dvthsdJFsfRi-Jnte-xuvMEEuM7TLfPQHH6HI54ak0J0EcLFjrRxGP97Ro6-UQkw9DpI5ff8xKzBp6pUp9rCzV7mfIjvRcPFoRJvIApu_edGS_N4H-Zt71nESNngYk0eV0A83WZh2k1OLvBWCxvubmBkIceFP1XuKM3VTpL5yPGUlqdHXgWjqTqA3YmzUxWZSU6cebi9CqCtiH8PHkEcdu3]--></g></svg>