<?xml version="1.0" encoding="UTF-8" standalone="no"?><svg xmlns="http://www.w3.org/2000/svg" xmlns:xlink="http://www.w3.org/1999/xlink" contentScriptType="application/ecmascript" contentStyleType="text/css" height="976px" preserveAspectRatio="none" style="width:206px;height:976px;" version="1.1" viewBox="0 0 206 976" width="206px" zoomAndPan="magnify"><defs><filter height="300%" id="f10ews1y6hyc60" width="300%" x="-1" y="-1"><feGaussianBlur result="blurOut" stdDeviation="2.0"/><feColorMatrix in="blurOut" result="blurOut2" type="matrix" values="0 0 0 0 0 0 0 0 0 0 0 0 0 0 0 0 0 0 .4 0"/><feOffset dx="4.0" dy="4.0" in="blurOut2" result="blurOut3"/><feBlend in="SourceGraphic" in2="blurOut3" mode="normal"/></filter></defs><g><rect fill="#FFCC88" filter="url(#f10ews1y6hyc60)" height="957.6094" rx="12.5" ry="12.5" style="stroke: #A80036; stroke-width: 1.5;" width="188" x="6" y="8"/><rect fill="#FFFFFF" height="924" rx="12.5" ry="12.5" style="stroke: #FFFFFF; stroke-width: 1.0;" width="182" x="9" y="38.6094"/><line style="stroke: #A80036; stroke-width: 1.5;" x1="6" x2="194" y1="35.6094" y2="35.6094"/><text fill="#000000" font-family="sans-serif" font-size="14" lengthAdjust="spacingAndGlyphs" textLength="62" x="69" y="27.5332">SABundle</text><rect fill="#FFCC88" filter="url(#f10ews1y6hyc60)" height="50" rx="12.5" ry="12.5" style="stroke: #A80036; stroke-width: 1.5;" width="50" x="74.5" y="48.6094"/><line style="stroke: #A80036; stroke-width: 1.5;" x1="74.5" x2="124.5" y1="76.2188" y2="76.2188"/><text fill="#000000" font-family="sans-serif" font-size="14" lengthAdjust="spacingAndGlyphs" textLength="18" x="90.5" y="68.1426">Init</text><rect fill="#FFCC88" filter="url(#f10ews1y6hyc60)" height="50" rx="12.5" ry="12.5" style="stroke: #A80036; stroke-width: 1.5;" width="71" x="64" y="190.6094"/><line style="stroke: #A80036; stroke-width: 1.5;" x1="64" x2="135" y1="218.2188" y2="218.2188"/><text fill="#000000" font-family="sans-serif" font-size="14" lengthAdjust="spacingAndGlyphs" textLength="51" x="74" y="210.1426">Created</text><rect fill="#FFCC88" filter="url(#f10ews1y6hyc60)" height="50" rx="12.5" ry="12.5" style="stroke: #A80036; stroke-width: 1.5;" width="70" x="64.5" y="332.6094"/><line style="stroke: #A80036; stroke-width: 1.5;" x1="64.5" x2="134.5" y1="360.2188" y2="360.2188"/><text fill="#000000" font-family="sans-serif" font-size="14" lengthAdjust="spacingAndGlyphs" textLength="50" x="74.5" y="352.1426">Building</text><rect fill="#FFCC88" filter="url(#f10ews1y6hyc60)" height="50" rx="12.5" ry="12.5" style="stroke: #A80036; stroke-width: 1.5;" width="50" x="33.5" y="474.6094"/><line style="stroke: #A80036; stroke-width: 1.5;" x1="33.5" x2="83.5" y1="502.2188" y2="502.2188"/><text fill="#000000" font-family="sans-serif" font-size="14" lengthAdjust="spacingAndGlyphs" textLength="27" x="45" y="494.1426">Built</text><rect fill="#FFCC88" filter="url(#f10ews1y6hyc60)" height="50" rx="12.5" ry="12.5" style="stroke: #A80036; stroke-width: 1.5;" width="83" x="17" y="616.6094"/><line style="stroke: #A80036; stroke-width: 1.5;" x1="17" x2="100" y1="644.2188" y2="644.2188"/><text fill="#000000" font-family="sans-serif" font-size="14" lengthAdjust="spacingAndGlyphs" textLength="63" x="27" y="636.1426">Deploying</text><rect fill="#FFCC88" filter="url(#f10ews1y6hyc60)" height="50" rx="12.5" ry="12.5" style="stroke: #A80036; stroke-width: 1.5;" width="72" x="22.5" y="758.6094"/><line style="stroke: #A80036; stroke-width: 1.5;" x1="22.5" x2="94.5" y1="786.2188" y2="786.2188"/><text fill="#000000" font-family="sans-serif" font-size="14" lengthAdjust="spacingAndGlyphs" textLength="52" x="32.5" y="778.1426">Enabled</text><rect fill="#FFCC88" filter="url(#f10ews1y6hyc60)" height="50" rx="12.5" ry="12.5" style="stroke: #A80036; stroke-width: 1.5;" width="75" x="21" y="900.6094"/><line style="stroke: #A80036; stroke-width: 1.5;" x1="21" x2="96" y1="928.2188" y2="928.2188"/><text fill="#000000" font-family="sans-serif" font-size="14" lengthAdjust="spacingAndGlyphs" textLength="55" x="31" y="920.1426">Disabled</text><rect fill="#FFCC88" filter="url(#f10ews1y6hyc60)" height="50" rx="12.5" ry="12.5" style="stroke: #A80036; stroke-width: 1.5;" width="59" x="102" y="474.6094"/><line style="stroke: #A80036; stroke-width: 1.5;" x1="102" x2="161" y1="502.2188" y2="502.2188"/><text fill="#000000" font-family="sans-serif" font-size="14" lengthAdjust="spacingAndGlyphs" textLength="39" x="112" y="494.1426">Failed</text><!--link Init to Created--><path d="M99.5,98.6764 C99.5,122.6164 99.5,159.3894 99.5,185.0824 " fill="none" id="Init-Created" style="stroke: #000000; stroke-width: 1.0;"/><polygon fill="#000000" points="99.5,190.3884,103.5,181.3884,99.5,185.3884,95.5,181.3884,99.5,190.3884" style="stroke: #000000; stroke-width: 1.0;"/><text fill="#000000" font-family="sans-serif" font-size="13" lengthAdjust="spacingAndGlyphs" textLength="36" x="100.5" y="150.1045">create</text><!--link Created to Building--><path d="M99.5,240.6764 C99.5,264.6164 99.5,301.3894 99.5,327.0824 " fill="none" id="Created-Building" style="stroke: #000000; stroke-width: 1.0;"/><polygon fill="#000000" points="99.5,332.3884,103.5,323.3884,99.5,327.3884,95.5,323.3884,99.5,332.3884" style="stroke: #000000; stroke-width: 1.0;"/><text fill="#000000" font-family="sans-serif" font-size="13" lengthAdjust="spacingAndGlyphs" textLength="27" x="100.5" y="292.1045">build</text><!--link Building to Built--><path d="M92.4518,382.6764 C85.4115,406.7164 74.5813,443.6974 67.0529,469.4044 " fill="none" id="Building-Built" style="stroke: #000000; stroke-width: 1.0;"/><polygon fill="#000000" points="65.5934,474.3884,71.9623,466.8759,66.9991,469.59,64.285,464.6268,65.5934,474.3884" style="stroke: #000000; stroke-width: 1.0;"/><text fill="#000000" font-family="sans-serif" font-size="13" lengthAdjust="spacingAndGlyphs" textLength="24" x="82.5" y="434.1045">built</text><!--link Building to Failed--><path d="M105.001,382.6764 C110.4959,406.7164 118.949,443.6974 124.825,469.4044 " fill="none" id="Building-Failed" style="stroke: #000000; stroke-width: 1.0;"/><polygon fill="#000000" points="125.964,474.3884,127.8583,464.7234,124.85,469.514,120.0594,466.5058,125.964,474.3884" style="stroke: #000000; stroke-width: 1.0;"/><text fill="#000000" font-family="sans-serif" font-size="13" lengthAdjust="spacingAndGlyphs" textLength="30" x="118.5" y="434.1045">failed</text><!--link Built to Deploying--><path d="M46.6433,524.6194 C41.8531,535.6084 36.8961,548.9744 34.5,561.6094 C31.3086,578.4374 36.3253,596.7684 42.583,611.5314 " fill="none" id="Built-Deploying" style="stroke: #000000; stroke-width: 1.0;"/><polygon fill="#000000" points="44.7427,616.3944,44.7444,606.5455,42.7128,611.825,37.4333,609.7934,44.7427,616.3944" style="stroke: #000000; stroke-width: 1.0;"/><text fill="#000000" font-family="sans-serif" font-size="13" lengthAdjust="spacingAndGlyphs" textLength="38" x="35.5" y="576.1045">deploy</text><!--link Built to Deploying--><path d="M67.5721,524.6624 C72.4022,540.2384 76.8985,561.0114 74.5,579.6094 C73.1281,590.2474 70.4629,601.6764 67.6953,611.7344 " fill="none" id="Built-Deploying-1" style="stroke: #000000; stroke-width: 1.0;"/><polygon fill="#000000" points="66.3337,616.5514,72.6309,608.9787,67.6937,611.7399,64.9325,606.8027,66.3337,616.5514" style="stroke: #000000; stroke-width: 1.0;"/><text fill="#000000" font-family="sans-serif" font-size="13" lengthAdjust="spacingAndGlyphs" textLength="55" x="76.5" y="576.1045">deploying</text><!--link Deploying to Enabled--><path d="M58.5,666.6764 C58.5,690.6164 58.5,727.3894 58.5,753.0824 " fill="none" id="Deploying-Enabled" style="stroke: #000000; stroke-width: 1.0;"/><polygon fill="#000000" points="58.5,758.3884,62.5,749.3884,58.5,753.3884,54.5,749.3884,58.5,758.3884" style="stroke: #000000; stroke-width: 1.0;"/><text fill="#000000" font-family="sans-serif" font-size="13" lengthAdjust="spacingAndGlyphs" textLength="52" x="59.5" y="718.1045">deployed</text><!--link Enabled to Disabled--><path d="M46.0199,808.8604 C41.0721,819.7844 35.9773,833.0324 33.5,845.6094 C30.178,862.4751 35.404,880.8079 41.9219,895.5637 " fill="none" id="Enabled-Disabled" style="stroke: #000000; stroke-width: 1.0;"/><polygon fill="#000000" points="44.1713,900.4234,44.0208,890.5757,42.071,895.8859,36.7608,893.9361,44.1713,900.4234" style="stroke: #000000; stroke-width: 1.0;"/><text fill="#000000" font-family="sans-serif" font-size="13" lengthAdjust="spacingAndGlyphs" textLength="41" x="34.5" y="860.1045">disable</text><!--link Disabled to Enabled--><path d="M67.4049,900.3322 C70.9999,889.2907 74.716,875.9584 76.5,863.6094 C78.9213,846.8484 75.0844,828.3804 70.3399,813.5174 " fill="none" id="Disabled-Enabled" style="stroke: #000000; stroke-width: 1.0;"/><polygon fill="#000000" points="68.7039,808.6234,67.7645,818.4273,70.2895,813.3653,75.3516,815.8903,68.7039,808.6234" style="stroke: #000000; stroke-width: 1.0;"/><text fill="#000000" font-family="sans-serif" font-size="13" lengthAdjust="spacingAndGlyphs" textLength="38" x="78.5" y="860.1045">enable</text><!--
@startuml



state SABundle #ffcc88 {

    state Init #ffcc88 {
    }

    state Created #ffcc88 {
    }

    state Building #ffcc88 {
    }

    state Built #ffcc88 {
    }

    state Deploying #ffcc88 {
    }

    state Enabled #ffcc88 {
    }

    state Disabled #ffcc88 {
    }

    state Failed #ffcc88 {
    }




Init -[#black]- -> Created : create

Created -[#black]- -> Building : build

Building -[#black]- -> Built : built

Building -[#black]- -> Failed : failed

Built -[#black]- -> Deploying : deploy

Built -[#black]- -> Deploying : deploying

Deploying -[#black]- -> Enabled : deployed

Enabled -[#black]- -> Disabled : disable

Disabled -[#black]- -> Enabled : enable

}


@enduml

PlantUML version 1.2019.05(Sat Apr 20 09:45:36 PDT 2019)
(GPL source distribution)
Java Runtime: Java(TM) SE Runtime Environment
JVM: Java HotSpot(TM) Client VM
Java Version: 1.8.0_271-b09
Operating System: Windows 10
OS Version: 10.0
Default Encoding: Cp1252
Language: en
Country: US
--></g></svg>