<?xml version="1.0" encoding="us-ascii" standalone="no"?><svg xmlns="http://www.w3.org/2000/svg" xmlns:xlink="http://www.w3.org/1999/xlink" contentStyleType="text/css" height="147px" preserveAspectRatio="none" style="width:229px;height:147px;background:#FFFFFF;" version="1.1" viewBox="0 0 229 147" width="229px" zoomAndPan="magnify"><defs/><g><!--cluster Common Physical Layer--><g id="cluster_Common Physical Layer"><path d="M8.5,40 L173.5,40 A3.75,3.75 0 0 1 176,42.5 L183,63.6094 L219.5,63.6094 A2.5,2.5 0 0 1 222,66.1094 L222,137.5 A2.5,2.5 0 0 1 219.5,140 L8.5,140 A2.5,2.5 0 0 1 6,137.5 L6,42.5 A2.5,2.5 0 0 1 8.5,40 " fill="#BBBBBB" style="stroke:#000000;stroke-width:1.5;"/><line style="stroke:#000000;stroke-width:1.5;" x1="6" x2="183" y1="63.6094" y2="63.6094"/><text fill="#000000" font-family="sans-serif" font-size="14" font-weight="bold" lengthAdjust="spacing" textLength="164" x="10" y="56.5332">Common Physical Layer</text></g><!--class i--><g id="elem_i"><rect codeLine="6" fill="#F1F1F1" height="48" id="i" rx="2.5" ry="2.5" style="stroke:#181818;stroke-width:0.5;" width="184" x="22" y="76"/><ellipse cx="37" cy="92" fill="#B4A7E5" rx="11" ry="11" style="stroke:#181818;stroke-width:1.0;"/><path d="M37.9531,88.6406 L37.9531,95.2969 L39.6719,95.2969 Q40.2813,95.2969 40.5469,95.5313 Q40.8125,95.7656 40.8125,96.1563 Q40.8125,96.5313 40.5469,96.7656 Q40.2813,97 39.6719,97 L34.5313,97 Q33.9219,97 33.6563,96.7656 Q33.3906,96.5313 33.3906,96.1406 Q33.3906,95.7656 33.6563,95.5313 Q33.9219,95.2969 34.5313,95.2969 L36.25,95.2969 L36.25,88.6406 L34.5313,88.6406 Q33.9219,88.6406 33.6563,88.4063 Q33.3906,88.1719 33.3906,87.7813 Q33.3906,87.4063 33.6563,87.1719 Q33.9219,86.9375 34.5313,86.9375 L39.6719,86.9375 Q40.2813,86.9375 40.5469,87.1719 Q40.8125,87.4063 40.8125,87.7813 Q40.8125,88.1719 40.5469,88.4063 Q40.2813,88.6406 39.6719,88.6406 L37.9531,88.6406 Z " fill="#000000"/><text fill="#000000" font-family="sans-serif" font-size="14" font-style="italic" lengthAdjust="spacing" textLength="152" x="51" y="97.7285">Common Physical Layer</text><line style="stroke:#181818;stroke-width:0.5;" x1="23" x2="205" y1="108" y2="108"/><line style="stroke:#181818;stroke-width:0.5;" x1="23" x2="205" y1="116" y2="116"/></g><g id="elem_ilol4"><ellipse cx="69" cy="11" fill="#F1F1F1" rx="5" ry="5" style="stroke:#181818;stroke-width:1.5;"/></g><text fill="#000000" font-family="sans-serif" font-size="14" lengthAdjust="spacing" textLength="21" x="58.5" y="30.5332">CLI</text><g id="elem_ilol7"><ellipse cx="114" cy="11" fill="#F1F1F1" rx="5" ry="5" style="stroke:#181818;stroke-width:1.5;"/></g><text fill="#000000" font-family="sans-serif" font-size="14" lengthAdjust="spacing" textLength="37" x="95.5" y="30.5332">REST</text><g id="elem_ilol10"><ellipse cx="159" cy="11" fill="#F1F1F1" rx="5" ry="5" style="stroke:#181818;stroke-width:1.5;"/></g><text fill="#000000" font-family="sans-serif" font-size="14" lengthAdjust="spacing" textLength="29" x="144.5" y="30.5332">Web</text><!--link ilol4 to i--><g id="link_ilol4_i"><path d="M70.93,15.74 C76.22,25.95 91.22,54.95 102.03,75.86 " fill="none" id="ilol4-i" style="stroke:#181818;stroke-width:1.0;"/></g><!--link ilol7 to i--><g id="link_ilol7_i"><path d="M114,16.2 C114,26.79 114,55.22 114,75.81 " fill="none" id="ilol7-i" style="stroke:#181818;stroke-width:1.0;"/></g><!--link ilol10 to i--><g id="link_ilol10_i"><path d="M157.07,15.74 C151.78,25.95 136.78,54.95 125.97,75.86 " fill="none" id="ilol10-i" style="stroke:#181818;stroke-width:1.0;"/></g><!--SRC=[AqXCpavCJrLGSixFpStFKmZ8g2pEJ4xCKV19h4mjKb9GJW83XMekBWKWoCmhIIrAIqp6hI6nM24Jg1ga64pKSjLoSJdxU2feQEhgAcHo1Ra6Xy3OuQb9C2PN0T4E0HiDD9GB0000]--></g></svg>