<?xml version="1.0" encoding="UTF-8" standalone="no"?><svg xmlns="http://www.w3.org/2000/svg" xmlns:xlink="http://www.w3.org/1999/xlink" contentScriptType="application/ecmascript" contentStyleType="text/css" height="246px" preserveAspectRatio="none" style="width:349px;height:246px;" version="1.1" viewBox="0 0 349 246" width="349px" zoomAndPan="magnify"><defs><filter height="300%" id="fut5f3kooxlmr" width="300%" x="-1" y="-1"><feGaussianBlur result="blurOut" stdDeviation="2.0"/><feColorMatrix in="blurOut" result="blurOut2" type="matrix" values="0 0 0 0 0 0 0 0 0 0 0 0 0 0 0 0 0 0 .4 0"/><feOffset dx="4.0" dy="4.0" in="blurOut2" result="blurOut3"/><feBlend in="SourceGraphic" in2="blurOut3" mode="normal"/></filter></defs><g><!--cluster Common Physical Layer--><polygon fill="#BBBBBB" filter="url(#fut5f3kooxlmr)" points="22,24,192,24,199,47.6094,222,47.6094,222,124,22,124,22,24" style="stroke: #000000; stroke-width: 1.5;"/><line style="stroke: #000000; stroke-width: 1.5;" x1="22" x2="199" y1="47.6094" y2="47.6094"/><text fill="#000000" font-family="sans-serif" font-size="14" font-weight="bold" lengthAdjust="spacingAndGlyphs" textLength="164" x="26" y="40.5332">Common Physical Layer</text><!--class i--><rect fill="#FEFECE" filter="url(#fut5f3kooxlmr)" height="48" id="i" style="stroke: #A80036; stroke-width: 1.5;" width="167" x="38.5" y="60"/><ellipse cx="53.5" cy="76" fill="#B4A7E5" rx="11" ry="11" style="stroke: #A80036; stroke-width: 1.0;"/><path d="M54.4531,72.6406 L54.4531,79.2969 L56.1719,79.2969 Q56.7813,79.2969 57.0469,79.5313 Q57.3125,79.7656 57.3125,80.1563 Q57.3125,80.5313 57.0469,80.7656 Q56.7813,81 56.1719,81 L51.0313,81 Q50.4219,81 50.1563,80.7656 Q49.8906,80.5313 49.8906,80.1406 Q49.8906,79.7656 50.1563,79.5313 Q50.4219,79.2969 51.0313,79.2969 L52.75,79.2969 L52.75,72.6406 L51.0313,72.6406 Q50.4219,72.6406 50.1563,72.4063 Q49.8906,72.1719 49.8906,71.7813 Q49.8906,71.4063 50.1563,71.1719 Q50.4219,70.9375 51.0313,70.9375 L56.1719,70.9375 Q56.7813,70.9375 57.0469,71.1719 Q57.3125,71.4063 57.3125,71.7813 Q57.3125,72.1719 57.0469,72.4063 Q56.7813,72.6406 56.1719,72.6406 L54.4531,72.6406 Z "/><text fill="#000000" font-family="sans-serif" font-size="12" font-style="italic" lengthAdjust="spacingAndGlyphs" textLength="135" x="67.5" y="80.9102">Common Physical Layer</text><line style="stroke: #A80036; stroke-width: 1.5;" x1="39.5" x2="204.5" y1="92" y2="92"/><line style="stroke: #A80036; stroke-width: 1.5;" x1="39.5" x2="204.5" y1="100" y2="100"/><!--entity REST--><ellipse cx="33" cy="201" fill="#FEFECE" filter="url(#fut5f3kooxlmr)" rx="8" ry="8" style="stroke: #A80036; stroke-width: 2.0;"/><text fill="#000000" font-family="sans-serif" font-size="14" lengthAdjust="spacingAndGlyphs" textLength="37" x="14.5" y="232.5332">REST</text><!--entity Web--><ellipse cx="122" cy="201" fill="#FEFECE" filter="url(#fut5f3kooxlmr)" rx="8" ry="8" style="stroke: #A80036; stroke-width: 2.0;"/><text fill="#000000" font-family="sans-serif" font-size="14" lengthAdjust="spacingAndGlyphs" textLength="29" x="107.5" y="232.5332">Web</text><!--entity CLI--><ellipse cx="211" cy="201" fill="#FEFECE" filter="url(#fut5f3kooxlmr)" rx="8" ry="8" style="stroke: #A80036; stroke-width: 2.0;"/><text fill="#000000" font-family="sans-serif" font-size="14" lengthAdjust="spacingAndGlyphs" textLength="21" x="200.5" y="232.5332">CLI</text><!--entity WebSocket--><ellipse cx="301" cy="84" fill="#FEFECE" filter="url(#fut5f3kooxlmr)" rx="8" ry="8" style="stroke: #A80036; stroke-width: 2.0;"/><text fill="#000000" font-family="sans-serif" font-size="14" lengthAdjust="spacingAndGlyphs" textLength="72" x="265" y="115.5332">WebSocket</text><!--link i to Web--><path d="M122,108.272 C122,134.1308 122,174.5106 122,191.7497 " fill="none" id="i-Web" style="stroke: #A80036; stroke-width: 1.0;"/><!--link i to CLI--><path d="M140.01,108.272 C160.023,134.1308 191.273,174.5106 204.615,191.7497 " fill="none" id="i-CLI" style="stroke: #A80036; stroke-width: 1.0;"/><!--link i to REST--><path d="M103.9895,108.272 C83.977,134.1308 52.7266,174.5106 39.385,191.7497 " fill="none" id="i-REST" style="stroke: #A80036; stroke-width: 1.0;"/><!--link i to WebSocket--><path d="M205.735,84 C240.129,84 275.663,84 291.907,84 " fill="none" id="i-WebSocket" style="stroke: #A80036; stroke-width: 1.0;"/><polygon fill="#000000" points="230.75,70.6758,224.75,73.6758,230.75,76.6758,230.75,70.6758" style="stroke: #000000; stroke-width: 1.0;"/><text fill="#000000" font-family="sans-serif" font-size="13" lengthAdjust="spacingAndGlyphs" textLength="37" x="236.75" y="77.4951">events</text><!--
@startuml



package "Common Physical Layer" #bbbbbb {

    interface "Common Physical Layer" as i {
    
    
    }
}

circle REST
circle Web
circle CLI
circle WebSocket

i -down- Web
i -down- CLI
i -down- REST
WebSocket -left- i: events >

package "Common Physical Layer" #bbbbbb {


}



@enduml

PlantUML version 1.2019.05(Sat Apr 20 09:45:36 PDT 2019)
(GPL source distribution)
Java Runtime: Java(TM) SE Runtime Environment
JVM: Java HotSpot(TM) Client VM
Java Version: 1.8.0_271-b09
Operating System: Windows 10
OS Version: 10.0
Default Encoding: Cp1252
Language: en
Country: US
--></g></svg>