<?xml version="1.0" encoding="us-ascii" standalone="no"?><svg xmlns="http://www.w3.org/2000/svg" xmlns:xlink="http://www.w3.org/1999/xlink" contentStyleType="text/css" height="327px" preserveAspectRatio="none" style="width:454px;height:327px;background:#FFFFFF;" version="1.1" viewBox="0 0 454 327" width="454px" zoomAndPan="magnify"><defs/><g><!--entity DataTransform--><g id="elem_DataTransform"><rect fill="#ADD8E6" height="37.6094" rx="2.5" ry="2.5" style="stroke:#181818;stroke-width:0.5;" width="115" x="333.51" y="284"/><text fill="#000000" font-family="sans-serif" font-size="14" lengthAdjust="spacing" textLength="95" x="343.51" y="308.5332">DataTransform</text></g><!--entity DataStream--><g id="elem_DataStream"><rect fill="#90EE90" height="37.6094" rx="2.5" ry="2.5" style="stroke:#181818;stroke-width:0.5;" width="95" x="22.51" y="284"/><text fill="#000000" font-family="sans-serif" font-size="14" lengthAdjust="spacing" textLength="75" x="32.51" y="308.5332">DataStream</text></g><!--entity DataChannel--><g id="elem_DataChannel"><rect fill="#90EE90" height="37.6094" rx="2.5" ry="2.5" style="stroke:#181818;stroke-width:0.5;" width="103" x="182.51" y="284"/><text fill="#000000" font-family="sans-serif" font-size="14" lengthAdjust="spacing" textLength="83" x="192.51" y="308.5332">DataChannel</text></g><!--entity Capability--><g id="elem_Capability"><rect fill="#90EE90" height="37.6094" rx="2.5" ry="2.5" style="stroke:#181818;stroke-width:0.5;" width="82" x="52.01" y="7"/><text fill="#000000" font-family="sans-serif" font-size="14" lengthAdjust="spacing" textLength="62" x="62.01" y="31.5332">Capability</text></g><!--entity AdminDataStream--><g id="elem_AdminDataStream"><rect fill="#90EE90" height="37.6094" rx="2.5" ry="2.5" style="stroke:#181818;stroke-width:0.5;" width="134" x="169.01" y="7"/><text fill="#000000" font-family="sans-serif" font-size="14" lengthAdjust="spacing" textLength="114" x="179.01" y="31.5332">AdminDataStream</text></g><!--entity SABundle--><g id="elem_SABundle"><rect fill="#90EE90" height="37.6094" rx="2.5" ry="2.5" style="stroke:#181818;stroke-width:0.5;" width="82" x="338.01" y="7"/><text fill="#000000" font-family="sans-serif" font-size="14" lengthAdjust="spacing" textLength="62" x="348.01" y="31.5332">SABundle</text></g><!--class Model--><g id="elem_Model"><rect codeLine="2" fill="#F1F1F1" height="83.2188" id="Model" rx="2.5" ry="2.5" style="stroke:#181818;stroke-width:0.5;" width="114" x="179.01" y="123"/><ellipse cx="194.01" cy="139" fill="#ADD1B2" rx="11" ry="11" style="stroke:#181818;stroke-width:1.0;"/><path d="M196.7756,134.875 Q196.9319,134.6563 197.1194,134.5469 Q197.3069,134.4375 197.5256,134.4375 Q197.9006,134.4375 198.135,134.6953 Q198.3694,134.9531 198.3694,135.5625 L198.3694,137.0156 Q198.3694,137.625 198.135,137.8906 Q197.9006,138.1563 197.5256,138.1563 Q197.1819,138.1563 196.9788,137.9531 Q196.7756,137.7656 196.6663,137.25 Q196.6194,136.8906 196.4319,136.7031 Q196.1038,136.3281 195.4944,136.1094 Q194.885,135.8906 194.26,135.8906 Q193.4944,135.8906 192.8616,136.2188 Q192.2288,136.5469 191.7366,137.2969 Q191.2444,138.0469 191.2444,139.0781 L191.2444,140.1719 Q191.2444,141.4063 192.135,142.2266 Q193.0256,143.0469 194.6194,143.0469 Q195.5569,143.0469 196.2131,142.7969 Q196.6038,142.6406 197.0256,142.2031 Q197.2913,141.9375 197.4397,141.8594 Q197.5881,141.7813 197.7913,141.7813 Q198.1194,141.7813 198.3772,142.0391 Q198.635,142.2969 198.635,142.6406 Q198.635,142.9844 198.2913,143.3906 Q197.7913,143.9688 196.9944,144.2969 Q195.9163,144.75 194.6194,144.75 Q193.1038,144.75 191.9006,144.125 Q190.9163,143.625 190.2288,142.5547 Q189.5413,141.4844 189.5413,140.2031 L189.5413,139.0469 Q189.5413,137.7188 190.1584,136.5703 Q190.7756,135.4219 191.8694,134.8047 Q192.9631,134.1875 194.1975,134.1875 Q194.9319,134.1875 195.5803,134.3516 Q196.2288,134.5156 196.7756,134.875 Z " fill="#000000"/><text fill="#000000" font-family="sans-serif" font-size="14" lengthAdjust="spacing" textLength="82" x="208.01" y="144.7285">StreamPolicy</text><line style="stroke:#181818;stroke-width:0.5;" x1="180.01" x2="292.01" y1="155" y2="155"/><text fill="#000000" font-family="sans-serif" font-size="14" lengthAdjust="spacing" textLength="74" x="185.01" y="173.5332">string name</text><line style="stroke:#181818;stroke-width:0.5;" x1="180.01" x2="292.01" y1="180.6094" y2="180.6094"/><text fill="#000000" font-family="sans-serif" font-size="14" lengthAdjust="spacing" textLength="50" x="185.01" y="199.1426">create()</text></g><!--link Model to DataTransform--><g id="link_Model_DataTransform"><path codeLine="12" d="M291.1051,214.0114 C320.3751,239.7914 343.3369,260.0149 365.7669,279.7649 " fill="none" id="Model-DataTransform" style="stroke:#181818;stroke-width:1.0;"/><polygon fill="none" points="282.1,206.08,283.9588,213.0474,291.1051,214.0114,289.2464,207.044,282.1,206.08" style="stroke:#181818;stroke-width:1.0;"/><polygon fill="#181818" points="370.27,283.73,366.1587,274.7803,366.5174,280.4258,360.8719,280.7845,370.27,283.73" style="stroke:#181818;stroke-width:1.0;"/><text fill="#000000" font-family="sans-serif" font-size="13" lengthAdjust="spacing" textLength="25" x="337.01" y="250.4951">post</text><text fill="#000000" font-family="sans-serif" font-size="13" lengthAdjust="spacing" textLength="7" x="355.8465" y="272.9873">1</text></g><!--link Model to DataTransform--><g id="link_Model_DataTransform"><path codeLine="18" d="M304.1198,188.0842 C331.1898,199.2742 350.86,211.67 371.01,236 C382.32,249.65 386.3574,263.6353 388.4974,278.0253 " fill="none" id="Model-DataTransform-1" style="stroke:#181818;stroke-width:1.0;"/><polygon fill="none" points="293.03,183.5,297.0468,189.4887,304.1198,188.0842,300.103,182.0955,293.03,183.5" style="stroke:#181818;stroke-width:1.0;"/><polygon fill="#181818" points="389.38,283.96,392.0126,274.4695,388.6445,279.0144,384.0996,275.6463,389.38,283.96" style="stroke:#181818;stroke-width:1.0;"/><text fill="#000000" font-family="sans-serif" font-size="13" lengthAdjust="spacing" textLength="18" x="382.01" y="250.4951">pre</text><text fill="#000000" font-family="sans-serif" font-size="13" lengthAdjust="spacing" textLength="7" x="380.8089" y="273.2878">1</text></g><!--link Model to DataStream--><g id="link_Model_DataStream"><path codeLine="24" d="M166.9602,167.3813 C115.5302,171.6013 54.52,185.82 18.01,236 C6,252.51 17.8689,267.1149 35.4489,280.2149 " fill="none" id="Model-DataStream" style="stroke:#181818;stroke-width:1.0;"/><polygon fill="none" points="178.92,166.4,172.613,162.9041,166.9602,167.3813,173.2672,170.8773,178.92,166.4" style="stroke:#181818;stroke-width:1.0;"/><polygon fill="#181818" points="40.26,283.8,35.4333,275.2149,36.2507,280.8124,30.6532,281.6298,40.26,283.8" style="stroke:#181818;stroke-width:1.0;"/><text fill="#000000" font-family="sans-serif" font-size="13" lengthAdjust="spacing" textLength="40" x="19.01" y="250.4951">stream</text><text fill="#000000" font-family="sans-serif" font-size="13" lengthAdjust="spacing" textLength="7" x="23.0772" y="273.0788">n</text></g><!--link DataStream to Model--><g id="link_DataStream_Model"><path codeLine="48" d="M92.1248,274.5485 C103.6548,260.6285 112.99,250.64 130.01,236 C145.02,223.11 157.4708,213.9128 173.8508,203.1128 " fill="none" id="DataStream-Model" style="stroke:#181818;stroke-width:1.0;"/><polygon fill="none" points="84.47,283.79,91.3779,281.7208,92.1248,274.5485,85.2169,276.6177,84.47,283.79" style="stroke:#181818;stroke-width:1.0;"/><polygon fill="#181818" points="178.86,199.81,169.1444,201.4247,174.6857,202.5623,173.5481,208.1036,178.86,199.81" style="stroke:#181818;stroke-width:1.0;"/><text fill="#000000" font-family="sans-serif" font-size="13" lengthAdjust="spacing" textLength="44" x="131.01" y="250.4951">policies</text><text fill="#000000" font-family="sans-serif" font-size="13" lengthAdjust="spacing" textLength="7" x="164.0892" y="200.8127">n</text></g><!--link Model to DataChannel--><g id="link_Model_DataChannel"><path codeLine="30" d="M194.3535,216.0678 C188.1935,225.3478 189.34,225.56 186.01,236 C183.59,243.62 182.95,246.61 186.01,254 C190.84,265.65 195.5345,271.965 204.5845,280.005 " fill="none" id="Model-DataChannel" style="stroke:#181818;stroke-width:1.0;"/><polygon fill="none" points="200.99,206.07,194.3391,208.8568,194.3535,216.0678,201.0044,213.2811,200.99,206.07" style="stroke:#181818;stroke-width:1.0;"/><polygon fill="#181818" points="209.07,283.99,204.9983,275.0222,205.332,280.6692,199.685,281.0029,209.07,283.99" style="stroke:#181818;stroke-width:1.0;"/><text fill="#000000" font-family="sans-serif" font-size="13" lengthAdjust="spacing" textLength="52" x="187.01" y="250.4951">channels</text><text fill="#000000" font-family="sans-serif" font-size="13" lengthAdjust="spacing" textLength="7" x="193.0048" y="272.994">n</text></g><!--link DataChannel to Model--><g id="link_DataChannel_Model"><path codeLine="43" d="M241.4222,272.2128 C243.5022,263.2828 242.98,263.99 244.01,254 C245.63,238.35 245.3704,227.0813 243.6504,212.0113 " fill="none" id="DataChannel-Model" style="stroke:#181818;stroke-width:1.0;"/><polygon fill="none" points="238.7,283.9,243.9568,278.9638,241.4222,272.2128,236.1654,277.149,238.7,283.9" style="stroke:#181818;stroke-width:1.0;"/><polygon fill="#181818" points="242.97,206.05,240.0164,215.4455,243.537,211.0177,247.9648,214.5384,242.97,206.05" style="stroke:#181818;stroke-width:1.0;"/><text fill="#000000" font-family="sans-serif" font-size="13" lengthAdjust="spacing" textLength="34" x="245.01" y="250.4951">policy</text><text fill="#000000" font-family="sans-serif" font-size="13" lengthAdjust="spacing" textLength="7" x="236.5431" y="227.7628">n</text></g><!--link Capability to Model--><g id="link_Capability_Model"><path codeLine="38" d="M120.6825,53.4134 C141.3525,73.1334 162.0399,92.8871 189.0999,118.7171 " fill="none" id="Capability-Model" style="stroke:#181818;stroke-width:1.0;"/><polygon fill="none" points="112,45.13,113.5801,52.1659,120.6825,53.4134,119.1024,46.3776,112,45.13" style="stroke:#181818;stroke-width:1.0;"/><polygon fill="#181818" points="193.44,122.86,189.6917,113.7523,189.8232,119.4076,184.1679,119.5391,193.44,122.86" style="stroke:#181818;stroke-width:1.0;"/><text fill="#000000" font-family="sans-serif" font-size="13" lengthAdjust="spacing" textLength="44" x="162.01" y="89.4951">policies</text><text fill="#000000" font-family="sans-serif" font-size="13" lengthAdjust="spacing" textLength="7" x="178.8097" y="112.1445">n</text></g><!--link AdminDataStream to Model--><g id="link_AdminDataStream_Model"><path codeLine="53" d="M236.01,57.13 C236.01,76.85 236.01,91.03 236.01,116.86 " fill="none" id="AdminDataStream-Model" style="stroke:#181818;stroke-width:1.0;"/><polygon fill="none" points="236.01,45.13,232.01,51.13,236.01,57.13,240.01,51.13,236.01,45.13" style="stroke:#181818;stroke-width:1.0;"/><polygon fill="#181818" points="236.01,122.86,240.01,113.86,236.01,117.86,232.01,113.86,236.01,122.86" style="stroke:#181818;stroke-width:1.0;"/><text fill="#000000" font-family="sans-serif" font-size="13" lengthAdjust="spacing" textLength="44" x="237.01" y="89.4951">policies</text><text fill="#000000" font-family="sans-serif" font-size="13" lengthAdjust="spacing" textLength="7" x="228.4303" y="112.1445">n</text></g><!--link SABundle to Model--><g id="link_SABundle_Model"><path codeLine="58" d="M351.3475,53.4134 C330.6775,73.1334 309.9901,92.8871 282.9301,118.7171 " fill="none" id="SABundle-Model" style="stroke:#181818;stroke-width:1.0;"/><polygon fill="none" points="360.03,45.13,352.9276,46.3776,351.3475,53.4134,358.4499,52.1659,360.03,45.13" style="stroke:#181818;stroke-width:1.0;"/><polygon fill="#181818" points="278.59,122.86,287.8621,119.5391,282.2068,119.4076,282.3383,113.7523,278.59,122.86" style="stroke:#181818;stroke-width:1.0;"/><text fill="#000000" font-family="sans-serif" font-size="13" lengthAdjust="spacing" textLength="44" x="329.01" y="89.4951">policies</text><text fill="#000000" font-family="sans-serif" font-size="13" lengthAdjust="spacing" textLength="7" x="278.0626" y="112.1445">n</text></g><!--SRC=[jPAnRiCW48Ptdk94bdR8qDL3fJHTAqLAN-22hmuIFbj0XYZAknUCOxkEOiT3Rq0S-k__3Wvbq3cGUsy9orrbj3fBG0TVLKu6BWASjveBO2n92511vkdbLO2u2c59UUJ24CXFzFXjaTrFPSl6uSy9h8mkZlvWJXHCGsdohzRhTv1lSYJEeAwS5_yAi7JldrwXCq_ff3FBeJABhnKszyxR8pAJwQpR_1dlcpG3bNPEn80G0yWMQpneetqQNv-sYC8ISPndY6kpDakCWHPwTEea0rd7Jw79oRvgqUKco4FnG_JvCNXgNZFOLhlymfkyr3o2ZyxcEnWNB6zZl_auSMweuT-IUN2dV8Bu2m00]--></g></svg>