<?xml version="1.0" encoding="UTF-8" standalone="no"?><svg xmlns="http://www.w3.org/2000/svg" xmlns:xlink="http://www.w3.org/1999/xlink" contentScriptType="application/ecmascript" contentStyleType="text/css" height="326px" preserveAspectRatio="none" style="width:452px;height:326px;" version="1.1" viewBox="0 0 452 326" width="452px" zoomAndPan="magnify"><defs><filter height="300%" id="fdaxmp9mi5tpv" width="300%" x="-1" y="-1"><feGaussianBlur result="blurOut" stdDeviation="2.0"/><feColorMatrix in="blurOut" result="blurOut2" type="matrix" values="0 0 0 0 0 0 0 0 0 0 0 0 0 0 0 0 0 0 .4 0"/><feOffset dx="4.0" dy="4.0" in="blurOut2" result="blurOut3"/><feBlend in="SourceGraphic" in2="blurOut3" mode="normal"/></filter></defs><g><!--entity DataTransform--><rect fill="#ADD8E6" filter="url(#fdaxmp9mi5tpv)" height="37.6094" style="stroke: #000000; stroke-width: 1.5;" width="115" x="326.896" y="278"/><text fill="#000000" font-family="sans-serif" font-size="14" lengthAdjust="spacingAndGlyphs" textLength="95" x="336.896" y="302.5332">DataTransform</text><!--entity DataStream--><rect fill="#90EE90" filter="url(#fdaxmp9mi5tpv)" height="37.6094" style="stroke: #000000; stroke-width: 1.5;" width="95" x="11.8959" y="278"/><text fill="#000000" font-family="sans-serif" font-size="14" lengthAdjust="spacingAndGlyphs" textLength="75" x="21.8959" y="302.5332">DataStream</text><!--entity DataChannel--><rect fill="#90EE90" filter="url(#fdaxmp9mi5tpv)" height="37.6094" style="stroke: #000000; stroke-width: 1.5;" width="103" x="158.896" y="278"/><text fill="#000000" font-family="sans-serif" font-size="14" lengthAdjust="spacingAndGlyphs" textLength="83" x="168.896" y="302.5332">DataChannel</text><!--entity Capability--><rect fill="#90EE90" filter="url(#fdaxmp9mi5tpv)" height="37.6094" style="stroke: #000000; stroke-width: 1.5;" width="82" x="44.3959" y="8"/><text fill="#000000" font-family="sans-serif" font-size="14" lengthAdjust="spacingAndGlyphs" textLength="62" x="54.3959" y="32.5332">Capability</text><!--entity AdminDataStream--><rect fill="#90EE90" filter="url(#fdaxmp9mi5tpv)" height="37.6094" style="stroke: #000000; stroke-width: 1.5;" width="134" x="161.396" y="8"/><text fill="#000000" font-family="sans-serif" font-size="14" lengthAdjust="spacingAndGlyphs" textLength="114" x="171.396" y="32.5332">AdminDataStream</text><!--entity SABundle--><rect fill="#90EE90" filter="url(#fdaxmp9mi5tpv)" height="37.6094" style="stroke: #000000; stroke-width: 1.5;" width="82" x="330.396" y="8"/><text fill="#000000" font-family="sans-serif" font-size="14" lengthAdjust="spacingAndGlyphs" textLength="62" x="340.396" y="32.5332">SABundle</text><!--class Model--><rect fill="#FEFECE" filter="url(#fdaxmp9mi5tpv)" height="75.6719" id="Model" style="stroke: #A80036; stroke-width: 1.5;" width="104" x="176.396" y="124"/><ellipse cx="191.396" cy="140" fill="#ADD1B2" rx="11" ry="11" style="stroke: #A80036; stroke-width: 1.0;"/><path d="M194.1616,135.875 Q194.3179,135.6563 194.5054,135.5469 Q194.6929,135.4375 194.9116,135.4375 Q195.2866,135.4375 195.521,135.6953 Q195.7554,135.9531 195.7554,136.5625 L195.7554,138.0156 Q195.7554,138.625 195.521,138.8906 Q195.2866,139.1563 194.9116,139.1563 Q194.5679,139.1563 194.3648,138.9531 Q194.1616,138.7656 194.0523,138.25 Q194.0054,137.8906 193.8179,137.7031 Q193.4898,137.3281 192.8804,137.1094 Q192.271,136.8906 191.646,136.8906 Q190.8804,136.8906 190.2476,137.2188 Q189.6148,137.5469 189.1226,138.2969 Q188.6304,139.0469 188.6304,140.0781 L188.6304,141.1719 Q188.6304,142.4063 189.521,143.2266 Q190.4116,144.0469 192.0054,144.0469 Q192.9429,144.0469 193.5991,143.7969 Q193.9898,143.6406 194.4116,143.2031 Q194.6773,142.9375 194.8257,142.8594 Q194.9741,142.7813 195.1773,142.7813 Q195.5054,142.7813 195.7632,143.0391 Q196.021,143.2969 196.021,143.6406 Q196.021,143.9844 195.6773,144.3906 Q195.1773,144.9688 194.3804,145.2969 Q193.3023,145.75 192.0054,145.75 Q190.4898,145.75 189.2866,145.125 Q188.3023,144.625 187.6148,143.5547 Q186.9273,142.4844 186.9273,141.2031 L186.9273,140.0469 Q186.9273,138.7188 187.5444,137.5703 Q188.1616,136.4219 189.2554,135.8047 Q190.3491,135.1875 191.5835,135.1875 Q192.3179,135.1875 192.9663,135.3516 Q193.6148,135.5156 194.1616,135.875 Z "/><text fill="#000000" font-family="sans-serif" font-size="12" lengthAdjust="spacingAndGlyphs" textLength="72" x="205.396" y="144.9102">StreamPolicy</text><line style="stroke: #A80036; stroke-width: 1.5;" x1="177.396" x2="279.396" y1="156" y2="156"/><text fill="#000000" font-family="sans-serif" font-size="11" lengthAdjust="spacingAndGlyphs" textLength="56" x="182.396" y="171.4189">string name</text><line style="stroke: #A80036; stroke-width: 1.5;" x1="177.396" x2="279.396" y1="177.8359" y2="177.8359"/><text fill="#000000" font-family="sans-serif" font-size="11" lengthAdjust="spacingAndGlyphs" textLength="39" x="182.396" y="193.2549">create()</text><!--link Model to DataTransform--><path d="M281.884,208.602 C305.631,228.8482 332.753,251.9712 353.132,269.3457 " fill="none" id="Model-DataTransform" style="stroke: #A80036; stroke-width: 1.0;"/><polygon fill="#A80036" points="363.121,277.8618,358.8674,268.9788,359.3161,274.6179,353.6771,275.0666,363.121,277.8618" style="stroke: #A80036; stroke-width: 1.0;"/><line style="stroke: #A80036; stroke-width: 1.0;" x1="359.3161" x2="353.228" y1="274.6179" y2="269.4276"/><polygon fill="#FFFFFF" points="271.851,200.048,273.8217,206.9846,280.9827,207.8334,279.012,200.8968,271.851,200.048" style="stroke: #A80036; stroke-width: 1.0;"/><text fill="#000000" font-family="sans-serif" font-size="13" lengthAdjust="spacingAndGlyphs" textLength="25" x="325.396" y="244.4951">post</text><text fill="#000000" font-family="sans-serif" font-size="13" lengthAdjust="spacingAndGlyphs" textLength="7" x="348.5337" y="267.1595">1</text><!--link Model to DataTransform--><path d="M292.576,184.521 C316.175,195.104 341.479,209.982 359.396,230 C368.183,239.8176 373.999,253.0324 377.79,265.0582 " fill="none" id="Model-DataTransform-1" style="stroke: #A80036; stroke-width: 1.0;"/><polygon fill="#A80036" points="381.259,277.8862,382.7704,268.154,379.9535,273.0596,375.0479,270.2428,381.259,277.8862" style="stroke: #A80036; stroke-width: 1.0;"/><line style="stroke: #A80036; stroke-width: 1.0;" x1="379.9535" x2="377.865" y1="273.0596" y2="265.3371"/><polygon fill="#FFFFFF" points="280.44,179.374,284.4018,185.3993,291.4874,184.0596,287.5256,178.0343,280.44,179.374" style="stroke: #A80036; stroke-width: 1.0;"/><text fill="#000000" font-family="sans-serif" font-size="13" lengthAdjust="spacingAndGlyphs" textLength="18" x="371.396" y="244.4951">pre</text><text fill="#000000" font-family="sans-serif" font-size="13" lengthAdjust="spacingAndGlyphs" textLength="7" x="372.2264" y="267.1914">1</text><!--link Model to DataStream--><path d="M163.348,174.242 C106.004,185.634 28.7859,205.109 10.3959,230 C0.8675,242.8967 9.1424,257.1866 21.4282,269.1623 " fill="none" id="Model-DataStream" style="stroke: #A80036; stroke-width: 1.0;"/><polygon fill="#A80036" points="31.3767,277.8078,27.2072,268.885,27.6027,274.5281,21.9597,274.9235,31.3767,277.8078" style="stroke: #A80036; stroke-width: 1.0;"/><line style="stroke: #A80036; stroke-width: 1.0;" x1="27.6027" x2="21.5641" y1="274.5281" y2="269.2805"/><polygon fill="#FFFFFF" points="176.349,171.728,169.6989,168.9395,164.5671,174.0055,171.2172,176.7941,176.349,171.728" style="stroke: #A80036; stroke-width: 1.0;"/><text fill="#000000" font-family="sans-serif" font-size="13" lengthAdjust="spacingAndGlyphs" textLength="40" x="11.3959" y="244.4951">stream</text><text fill="#000000" font-family="sans-serif" font-size="13" lengthAdjust="spacingAndGlyphs" textLength="7" x="14.724" y="267.089">n</text><!--link DataStream to Model--><path d="M83.8288,267.9908 C95.2438,255.6682 109.387,241.4304 123.396,230 C136.286,219.4828 150.911,209.236 165.065,200.047 " fill="none" id="DataStream-Model" style="stroke: #A80036; stroke-width: 1.0;"/><polygon fill="#A80036" points="176.273,192.919,166.5322,194.3739,172.054,195.6023,170.8255,201.1242,176.273,192.919" style="stroke: #A80036; stroke-width: 1.0;"/><line style="stroke: #A80036; stroke-width: 1.0;" x1="172.054" x2="165.303" y1="195.6023" y2="199.8955"/><polygon fill="#FFFFFF" points="74.9446,277.7875,81.9382,276.03,83.0058,268.8983,76.0121,270.6559,74.9446,277.7875" style="stroke: #A80036; stroke-width: 1.0;"/><text fill="#000000" font-family="sans-serif" font-size="13" lengthAdjust="spacingAndGlyphs" textLength="44" x="124.396" y="244.4951">policies</text><text fill="#000000" font-family="sans-serif" font-size="13" lengthAdjust="spacingAndGlyphs" textLength="7" x="161.451" y="193.6849">n</text><!--link Model to DataChannel--><path d="M186.976,211.375 C183.502,217.3567 180.514,223.6206 178.396,230 C174.256,242.4678 178.65,255.6052 185.371,266.8476 " fill="none" id="Model-DataChannel" style="stroke: #A80036; stroke-width: 1.0;"/><polygon fill="#A80036" points="192.958,277.7701,191.1089,268.0964,190.1056,273.6636,184.5384,272.6603,192.958,277.7701" style="stroke: #A80036; stroke-width: 1.0;"/><line style="stroke: #A80036; stroke-width: 1.0;" x1="190.1056" x2="185.542" y1="273.6636" y2="267.0932"/><polygon fill="#FFFFFF" points="194.155,200.264,187.5389,203.1324,187.642,210.3427,194.2581,207.4744,194.155,200.264" style="stroke: #A80036; stroke-width: 1.0;"/><text fill="#000000" font-family="sans-serif" font-size="13" lengthAdjust="spacingAndGlyphs" textLength="52" x="179.396" y="244.4951">channels</text><text fill="#000000" font-family="sans-serif" font-size="13" lengthAdjust="spacingAndGlyphs" textLength="7" x="179.5457" y="267.0397">n</text><!--link DataChannel to Model--><path d="M229.575,265.9215 C232.394,260.1733 234.861,254.0547 236.396,248 C239.196,236.9502 239.592,224.8682 238.775,213.372 " fill="none" id="DataChannel-Model" style="stroke: #A80036; stroke-width: 1.0;"/><polygon fill="#A80036" points="237.331,200.241,234.3391,209.6244,237.8777,205.211,242.2911,208.7497,237.331,200.241" style="stroke: #A80036; stroke-width: 1.0;"/><line style="stroke: #A80036; stroke-width: 1.0;" x1="237.8777" x2="238.7525" y1="205.211" y2="213.1635"/><polygon fill="#FFFFFF" points="223.07,277.7452,229.4668,274.4164,228.8544,267.2314,222.4576,270.5601,223.07,277.7452" style="stroke: #A80036; stroke-width: 1.0;"/><text fill="#000000" font-family="sans-serif" font-size="13" lengthAdjust="spacingAndGlyphs" textLength="34" x="239.396" y="244.4951">policy</text><text fill="#000000" font-family="sans-serif" font-size="13" lengthAdjust="spacingAndGlyphs" textLength="7" x="231.1972" y="221.1599">n</text><!--link Capability to Model--><path d="M114.756,55.307 C133.232,72.491 157.545,95.104 178.94,115.002 " fill="none" id="Capability-Model" style="stroke: #A80036; stroke-width: 1.0;"/><polygon fill="#A80036" points="188.533,123.924,184.6662,114.866,184.8715,120.5191,179.2184,120.7244,188.533,123.924" style="stroke: #A80036; stroke-width: 1.0;"/><line style="stroke: #A80036; stroke-width: 1.0;" x1="184.8715" x2="179.0135" y1="120.5191" y2="115.071"/><polygon fill="#FFFFFF" points="104.9796,46.214,106.6484,53.2294,113.7659,54.3871,112.0971,47.3718,104.9796,46.214" style="stroke: #A80036; stroke-width: 1.0;"/><text fill="#000000" font-family="sans-serif" font-size="13" lengthAdjust="spacingAndGlyphs" textLength="44" x="154.396" y="90.4951">policies</text><text fill="#000000" font-family="sans-serif" font-size="13" lengthAdjust="spacingAndGlyphs" textLength="7" x="173.809" y="113.2724">n</text><!--link AdminDataStream to Model--><path d="M228.396,59.457 C228.396,74.784 228.396,93.587 228.396,110.829 " fill="none" id="AdminDataStream-Model" style="stroke: #A80036; stroke-width: 1.0;"/><polygon fill="#A80036" points="228.396,123.924,232.396,114.924,228.396,118.924,224.396,114.924,228.396,123.924" style="stroke: #A80036; stroke-width: 1.0;"/><line style="stroke: #A80036; stroke-width: 1.0;" x1="228.396" x2="228.396" y1="118.924" y2="110.9245"/><polygon fill="#FFFFFF" points="228.396,46.214,224.396,52.214,228.396,58.214,232.396,52.214,228.396,46.214" style="stroke: #A80036; stroke-width: 1.0;"/><text fill="#000000" font-family="sans-serif" font-size="13" lengthAdjust="spacingAndGlyphs" textLength="44" x="229.396" y="90.4951">policies</text><text fill="#000000" font-family="sans-serif" font-size="13" lengthAdjust="spacingAndGlyphs" textLength="7" x="220.7726" y="113.2724">n</text><!--link SABundle to Model--><path d="M342.035,55.307 C323.559,72.491 299.246,95.104 277.852,115.002 " fill="none" id="SABundle-Model" style="stroke: #A80036; stroke-width: 1.0;"/><polygon fill="#A80036" points="268.259,123.924,277.5736,120.7244,271.9205,120.5191,272.1258,114.866,268.259,123.924" style="stroke: #A80036; stroke-width: 1.0;"/><line style="stroke: #A80036; stroke-width: 1.0;" x1="271.9205" x2="277.7785" y1="120.5191" y2="115.071"/><polygon fill="#FFFFFF" points="351.812,46.214,344.6945,47.3718,343.0257,54.3871,350.1432,53.2294,351.812,46.214" style="stroke: #A80036; stroke-width: 1.0;"/><text fill="#000000" font-family="sans-serif" font-size="13" lengthAdjust="spacingAndGlyphs" textLength="44" x="317.396" y="90.4951">policies</text><text fill="#000000" font-family="sans-serif" font-size="13" lengthAdjust="spacingAndGlyphs" textLength="7" x="267.7362" y="113.2724">n</text><!--
@startuml

class "StreamPolicy" as Model {
 string name

 create()
 
}

rectangle "DataTransform" as DataTransform #lightblue {
}

Model o- -> "1" DataTransform : post


rectangle "DataTransform" as DataTransform #lightblue {
}

Model o- -> "1" DataTransform : pre


rectangle "DataStream" as DataStream #lightblue {
}

Model o- -> "n" DataStream : stream


rectangle "DataChannel" as DataChannel #lightblue {
}

Model o- -> "n" DataChannel : channels




    rectangle "Capability" as Capability #lightgreen {
    }
    
        Capability   o- -> "n" Model : "policies"
    
    rectangle "DataChannel" as DataChannel #lightgreen {
    }
    
        DataChannel   o- -> "n" Model : "policy"
    
    rectangle "DataStream" as DataStream #lightgreen {
    }
    
        DataStream   o- -> "n" Model : "policies"
    
    rectangle "AdminDataStream" as AdminDataStream #lightgreen {
    }
    
        AdminDataStream   o- -> "n" Model : "policies"
    
    rectangle "SABundle" as SABundle #lightgreen {
    }
    
        SABundle   o- -> "n" Model : "policies"
    

@enduml

PlantUML version 1.2019.05(Sat Apr 20 09:45:36 PDT 2019)
(GPL source distribution)
Java Runtime: Java(TM) SE Runtime Environment
JVM: Java HotSpot(TM) Client VM
Java Version: 1.8.0_271-b09
Operating System: Windows 10
OS Version: 10.0
Default Encoding: Cp1252
Language: en
Country: US
--></g></svg>