<?xml version="1.0" encoding="UTF-8" standalone="no"?><svg xmlns="http://www.w3.org/2000/svg" xmlns:xlink="http://www.w3.org/1999/xlink" contentScriptType="application/ecmascript" contentStyleType="text/css" height="1115px" preserveAspectRatio="none" style="width:674px;height:1115px;" version="1.1" viewBox="0 0 674 1115" width="674px" zoomAndPan="magnify"><defs><filter height="300%" id="f6w76yc5jqd51" width="300%" x="-1" y="-1"><feGaussianBlur result="blurOut" stdDeviation="2.0"/><feColorMatrix in="blurOut" result="blurOut2" type="matrix" values="0 0 0 0 0 0 0 0 0 0 0 0 0 0 0 0 0 0 .4 0"/><feOffset dx="4.0" dy="4.0" in="blurOut2" result="blurOut3"/><feBlend in="SourceGraphic" in2="blurOut3" mode="normal"/></filter></defs><g><!--cluster sabr_amlStack--><rect fill="#00AAFF" filter="url(#f6w76yc5jqd51)" height="115" style="stroke: #000000; stroke-width: 1.5;" width="114" x="549" y="32"/><text fill="#000000" font-family="sans-serif" font-size="14" font-weight="bold" lengthAdjust="spacingAndGlyphs" textLength="63" x="574.5" y="48.5332">sabr_aml</text><!--cluster sabr_cplStack--><rect fill="#BBBBBB" filter="url(#f6w76yc5jqd51)" height="115" style="stroke: #000000; stroke-width: 1.5;" width="114" x="549" y="187"/><text fill="#000000" font-family="sans-serif" font-size="14" font-weight="bold" lengthAdjust="spacingAndGlyphs" textLength="60" x="576" y="203.5332">sabr_cpl</text><!--cluster sabr_dimlStack--><rect fill="#FFCC88" filter="url(#f6w76yc5jqd51)" height="115" style="stroke: #000000; stroke-width: 1.5;" width="114" x="549" y="342"/><text fill="#000000" font-family="sans-serif" font-size="14" font-weight="bold" lengthAdjust="spacingAndGlyphs" textLength="68" x="572" y="358.5332">sabr_diml</text><!--cluster sabr_saStack--><rect fill="#FFC0CB" filter="url(#f6w76yc5jqd51)" height="115" style="stroke: #000000; stroke-width: 1.5;" width="114" x="549" y="497"/><text fill="#000000" font-family="sans-serif" font-size="14" font-weight="bold" lengthAdjust="spacingAndGlyphs" textLength="55" x="578.5" y="513.5332">sabr_sa</text><!--cluster sabr_smlStack--><rect fill="#90EE90" filter="url(#f6w76yc5jqd51)" height="115" style="stroke: #000000; stroke-width: 1.5;" width="114" x="549" y="652"/><text fill="#000000" font-family="sans-serif" font-size="14" font-weight="bold" lengthAdjust="spacingAndGlyphs" textLength="63" x="574.5" y="668.5332">sabr_sml</text><!--cluster sabr_sdiStack--><rect fill="#FFFFE0" filter="url(#f6w76yc5jqd51)" height="115" style="stroke: #000000; stroke-width: 1.5;" width="114" x="549" y="807"/><text fill="#000000" font-family="sans-serif" font-size="14" font-weight="bold" lengthAdjust="spacingAndGlyphs" textLength="60" x="576" y="823.5332">sabr_sdi</text><!--cluster sabr_iaStack--><rect fill="#FFBBBB" filter="url(#f6w76yc5jqd51)" height="115" style="stroke: #000000; stroke-width: 1.5;" width="114" x="549" y="962"/><text fill="#000000" font-family="sans-serif" font-size="14" font-weight="bold" lengthAdjust="spacingAndGlyphs" textLength="51" x="580.5" y="978.5332">sabr_ia</text><!--cluster sabr--><polygon fill="#BBAAFF" filter="url(#f6w76yc5jqd51)" points="22,295,59,295,66,318.6094,517,318.6094,517,1039,22,1039,22,295" style="stroke: #000000; stroke-width: 1.5;"/><line style="stroke: #000000; stroke-width: 1.5;" x1="22" x2="66" y1="318.6094" y2="318.6094"/><text fill="#000000" font-family="sans-serif" font-size="14" font-weight="bold" lengthAdjust="spacingAndGlyphs" textLength="31" x="26" y="311.5332">sabr</text><!--entity sabr_amlStacksnet--><path d="M578,76 L634,76 C639,76 639,89.8047 639,89.8047 C639,89.8047 639,103.6094 634,103.6094 L578,103.6094 C573,103.6094 573,89.8047 573,89.8047 C573,89.8047 573,76 578,76 " fill="#0000FF" filter="url(#f6w76yc5jqd51)" style="stroke: #A80036; stroke-width: 1.5;"/><path d="M634,76 C629,76 629,89.8047 629,89.8047 C629,103.6094 634,103.6094 634,103.6094 " fill="none" style="stroke: #A80036; stroke-width: 1.5;"/><text fill="#FFFFFF" font-family="sans-serif" font-size="14" font-weight="bold" lengthAdjust="spacingAndGlyphs" textLength="46" x="578" y="95.5332">parent</text><!--entity sabr_cplStacksnet--><path d="M578,231 L634,231 C639,231 639,244.8047 639,244.8047 C639,244.8047 639,258.6094 634,258.6094 L578,258.6094 C573,258.6094 573,244.8047 573,244.8047 C573,244.8047 573,231 578,231 " fill="#0000FF" filter="url(#f6w76yc5jqd51)" style="stroke: #A80036; stroke-width: 1.5;"/><path d="M634,231 C629,231 629,244.8047 629,244.8047 C629,258.6094 634,258.6094 634,258.6094 " fill="none" style="stroke: #A80036; stroke-width: 1.5;"/><text fill="#FFFFFF" font-family="sans-serif" font-size="14" font-weight="bold" lengthAdjust="spacingAndGlyphs" textLength="46" x="578" y="250.5332">parent</text><!--entity sabr_dimlStacksnet--><path d="M578,386 L634,386 C639,386 639,399.8047 639,399.8047 C639,399.8047 639,413.6094 634,413.6094 L578,413.6094 C573,413.6094 573,399.8047 573,399.8047 C573,399.8047 573,386 578,386 " fill="#0000FF" filter="url(#f6w76yc5jqd51)" style="stroke: #A80036; stroke-width: 1.5;"/><path d="M634,386 C629,386 629,399.8047 629,399.8047 C629,413.6094 634,413.6094 634,413.6094 " fill="none" style="stroke: #A80036; stroke-width: 1.5;"/><text fill="#FFFFFF" font-family="sans-serif" font-size="14" font-weight="bold" lengthAdjust="spacingAndGlyphs" textLength="46" x="578" y="405.5332">parent</text><!--entity sabr_saStacksnet--><path d="M578,541 L634,541 C639,541 639,554.8047 639,554.8047 C639,554.8047 639,568.6094 634,568.6094 L578,568.6094 C573,568.6094 573,554.8047 573,554.8047 C573,554.8047 573,541 578,541 " fill="#0000FF" filter="url(#f6w76yc5jqd51)" style="stroke: #A80036; stroke-width: 1.5;"/><path d="M634,541 C629,541 629,554.8047 629,554.8047 C629,568.6094 634,568.6094 634,568.6094 " fill="none" style="stroke: #A80036; stroke-width: 1.5;"/><text fill="#FFFFFF" font-family="sans-serif" font-size="14" font-weight="bold" lengthAdjust="spacingAndGlyphs" textLength="46" x="578" y="560.5332">parent</text><!--entity sabr_smlStacksnet--><path d="M578,696 L634,696 C639,696 639,709.8047 639,709.8047 C639,709.8047 639,723.6094 634,723.6094 L578,723.6094 C573,723.6094 573,709.8047 573,709.8047 C573,709.8047 573,696 578,696 " fill="#0000FF" filter="url(#f6w76yc5jqd51)" style="stroke: #A80036; stroke-width: 1.5;"/><path d="M634,696 C629,696 629,709.8047 629,709.8047 C629,723.6094 634,723.6094 634,723.6094 " fill="none" style="stroke: #A80036; stroke-width: 1.5;"/><text fill="#FFFFFF" font-family="sans-serif" font-size="14" font-weight="bold" lengthAdjust="spacingAndGlyphs" textLength="46" x="578" y="715.5332">parent</text><!--entity sabr_sdiStacksnet--><path d="M578,851 L634,851 C639,851 639,864.8047 639,864.8047 C639,864.8047 639,878.6094 634,878.6094 L578,878.6094 C573,878.6094 573,864.8047 573,864.8047 C573,864.8047 573,851 578,851 " fill="#0000FF" filter="url(#f6w76yc5jqd51)" style="stroke: #A80036; stroke-width: 1.5;"/><path d="M634,851 C629,851 629,864.8047 629,864.8047 C629,878.6094 634,878.6094 634,878.6094 " fill="none" style="stroke: #A80036; stroke-width: 1.5;"/><text fill="#FFFFFF" font-family="sans-serif" font-size="14" font-weight="bold" lengthAdjust="spacingAndGlyphs" textLength="46" x="578" y="870.5332">parent</text><!--entity sabr_iaStacksnet--><path d="M578,1006 L634,1006 C639,1006 639,1019.8047 639,1019.8047 C639,1019.8047 639,1033.6094 634,1033.6094 L578,1033.6094 C573,1033.6094 573,1019.8047 573,1019.8047 C573,1019.8047 573,1006 578,1006 " fill="#0000FF" filter="url(#f6w76yc5jqd51)" style="stroke: #A80036; stroke-width: 1.5;"/><path d="M634,1006 C629,1006 629,1019.8047 629,1019.8047 C629,1033.6094 634,1033.6094 634,1033.6094 " fill="none" style="stroke: #A80036; stroke-width: 1.5;"/><text fill="#FFFFFF" font-family="sans-serif" font-size="14" font-weight="bold" lengthAdjust="spacingAndGlyphs" textLength="46" x="578" y="1025.5332">parent</text><!--entity parentnet--><path d="M43,995 L99,995 C104,995 104,1008.8047 104,1008.8047 C104,1008.8047 104,1022.6094 99,1022.6094 L43,1022.6094 C38,1022.6094 38,1008.8047 38,1008.8047 C38,1008.8047 38,995 43,995 " fill="#000000" filter="url(#f6w76yc5jqd51)" style="stroke: #A80036; stroke-width: 1.5;"/><path d="M99,995 C94,995 94,1008.8047 94,1008.8047 C94,1022.6094 99,1022.6094 99,1022.6094 " fill="none" style="stroke: #A80036; stroke-width: 1.5;"/><text fill="#FFFFFF" font-family="sans-serif" font-size="14" font-weight="bold" lengthAdjust="spacingAndGlyphs" textLength="46" x="43" y="1014.5332">parent</text><!--entity childrennet--><path d="M169,641 L237,641 C242,641 242,654.8047 242,654.8047 C242,654.8047 242,668.6094 237,668.6094 L169,668.6094 C164,668.6094 164,654.8047 164,654.8047 C164,654.8047 164,641 169,641 " fill="#0000FF" filter="url(#f6w76yc5jqd51)" style="stroke: #A80036; stroke-width: 1.5;"/><path d="M237,641 C232,641 232,654.8047 232,654.8047 C232,668.6094 237,668.6094 237,668.6094 " fill="none" style="stroke: #A80036; stroke-width: 1.5;"/><text fill="#FFFFFF" font-family="sans-serif" font-size="14" font-weight="bold" lengthAdjust="spacingAndGlyphs" textLength="58" x="169" y="660.5332">children</text><!--entity siblingsnet--><path d="M170.5,971 L235.5,971 C240.5,971 240.5,984.8047 240.5,984.8047 C240.5,984.8047 240.5,998.6094 235.5,998.6094 L170.5,998.6094 C165.5,998.6094 165.5,984.8047 165.5,984.8047 C165.5,984.8047 165.5,971 170.5,971 " fill="#FF0000" filter="url(#f6w76yc5jqd51)" style="stroke: #A80036; stroke-width: 1.5;"/><path d="M235.5,971 C230.5,971 230.5,984.8047 230.5,984.8047 C230.5,998.6094 235.5,998.6094 235.5,998.6094 " fill="none" style="stroke: #A80036; stroke-width: 1.5;"/><text fill="#FFFFFF" font-family="sans-serif" font-size="14" font-weight="bold" lengthAdjust="spacingAndGlyphs" textLength="55" x="170.5" y="990.5332">siblings</text><!--entity amlService--><polygon fill="#FEFECE" filter="url(#f6w76yc5jqd51)" points="40,341,50,331,102,331,102,368.6094,92,378.6094,40,378.6094,40,341" style="stroke: #000000; stroke-width: 1.5;"/><line style="stroke: #000000; stroke-width: 1.5;" x1="92" x2="101" y1="341" y2="332"/><line style="stroke: #000000; stroke-width: 1.5;" x1="40" x2="92" y1="341" y2="341"/><line style="stroke: #000000; stroke-width: 1.5;" x1="92" x2="92" y1="341" y2="378.6094"/><text fill="#000000" font-family="sans-serif" font-size="14" lengthAdjust="spacingAndGlyphs" textLength="22" x="55" y="365.5332">aml</text><!--entity cplService--><polygon fill="#FEFECE" filter="url(#f6w76yc5jqd51)" points="42,424,52,414,100,414,100,451.6094,90,461.6094,42,461.6094,42,424" style="stroke: #000000; stroke-width: 1.5;"/><line style="stroke: #000000; stroke-width: 1.5;" x1="90" x2="99" y1="424" y2="415"/><line style="stroke: #000000; stroke-width: 1.5;" x1="42" x2="90" y1="424" y2="424"/><line style="stroke: #000000; stroke-width: 1.5;" x1="90" x2="90" y1="424" y2="461.6094"/><text fill="#000000" font-family="sans-serif" font-size="14" lengthAdjust="spacingAndGlyphs" textLength="18" x="57" y="448.5332">cpl</text><!--entity dimlService--><polygon fill="#FEFECE" filter="url(#f6w76yc5jqd51)" points="38.5,507,48.5,497,103.5,497,103.5,534.6094,93.5,544.6094,38.5,544.6094,38.5,507" style="stroke: #000000; stroke-width: 1.5;"/><line style="stroke: #000000; stroke-width: 1.5;" x1="93.5" x2="102.5" y1="507" y2="498"/><line style="stroke: #000000; stroke-width: 1.5;" x1="38.5" x2="93.5" y1="507" y2="507"/><line style="stroke: #000000; stroke-width: 1.5;" x1="93.5" x2="93.5" y1="507" y2="544.6094"/><text fill="#000000" font-family="sans-serif" font-size="14" lengthAdjust="spacingAndGlyphs" textLength="25" x="53.5" y="531.5332">diml</text><!--entity saService--><polygon fill="#FEFECE" filter="url(#f6w76yc5jqd51)" points="43.5,590,53.5,580,98.5,580,98.5,617.6094,88.5,627.6094,43.5,627.6094,43.5,590" style="stroke: #000000; stroke-width: 1.5;"/><line style="stroke: #000000; stroke-width: 1.5;" x1="88.5" x2="97.5" y1="590" y2="581"/><line style="stroke: #000000; stroke-width: 1.5;" x1="43.5" x2="88.5" y1="590" y2="590"/><line style="stroke: #000000; stroke-width: 1.5;" x1="88.5" x2="88.5" y1="590" y2="627.6094"/><text fill="#000000" font-family="sans-serif" font-size="14" lengthAdjust="spacingAndGlyphs" textLength="15" x="58.5" y="614.5332">sa</text><!--entity smlService--><polygon fill="#FEFECE" filter="url(#f6w76yc5jqd51)" points="40.5,673,50.5,663,101.5,663,101.5,700.6094,91.5,710.6094,40.5,710.6094,40.5,673" style="stroke: #000000; stroke-width: 1.5;"/><line style="stroke: #000000; stroke-width: 1.5;" x1="91.5" x2="100.5" y1="673" y2="664"/><line style="stroke: #000000; stroke-width: 1.5;" x1="40.5" x2="91.5" y1="673" y2="673"/><line style="stroke: #000000; stroke-width: 1.5;" x1="91.5" x2="91.5" y1="673" y2="710.6094"/><text fill="#000000" font-family="sans-serif" font-size="14" lengthAdjust="spacingAndGlyphs" textLength="21" x="55.5" y="697.5332">sml</text><!--entity sdiService--><polygon fill="#FEFECE" filter="url(#f6w76yc5jqd51)" points="42,756,52,746,100,746,100,783.6094,90,793.6094,42,793.6094,42,756" style="stroke: #000000; stroke-width: 1.5;"/><line style="stroke: #000000; stroke-width: 1.5;" x1="90" x2="99" y1="756" y2="747"/><line style="stroke: #000000; stroke-width: 1.5;" x1="42" x2="90" y1="756" y2="756"/><line style="stroke: #000000; stroke-width: 1.5;" x1="90" x2="90" y1="756" y2="793.6094"/><text fill="#000000" font-family="sans-serif" font-size="14" lengthAdjust="spacingAndGlyphs" textLength="18" x="57" y="780.5332">sdi</text><!--entity iaService--><polygon fill="#FEFECE" filter="url(#f6w76yc5jqd51)" points="45.5,839,55.5,829,96.5,829,96.5,866.6094,86.5,876.6094,45.5,876.6094,45.5,839" style="stroke: #000000; stroke-width: 1.5;"/><line style="stroke: #000000; stroke-width: 1.5;" x1="86.5" x2="95.5" y1="839" y2="830"/><line style="stroke: #000000; stroke-width: 1.5;" x1="45.5" x2="86.5" y1="839" y2="839"/><line style="stroke: #000000; stroke-width: 1.5;" x1="86.5" x2="86.5" y1="839" y2="876.6094"/><text fill="#000000" font-family="sans-serif" font-size="14" lengthAdjust="spacingAndGlyphs" textLength="11" x="60.5" y="863.5332">ia</text><!--entity docService--><polygon fill="#FEFECE" filter="url(#f6w76yc5jqd51)" points="39.5,922,49.5,912,102.5,912,102.5,949.6094,92.5,959.6094,39.5,959.6094,39.5,922" style="stroke: #000000; stroke-width: 1.5;"/><line style="stroke: #000000; stroke-width: 1.5;" x1="92.5" x2="101.5" y1="922" y2="913"/><line style="stroke: #000000; stroke-width: 1.5;" x1="39.5" x2="92.5" y1="922" y2="922"/><line style="stroke: #000000; stroke-width: 1.5;" x1="92.5" x2="92.5" y1="922" y2="959.6094"/><text fill="#000000" font-family="sans-serif" font-size="14" lengthAdjust="spacingAndGlyphs" textLength="23" x="54.5" y="946.5332">doc</text><!--entity sabr_amlimage--><rect fill="#FEFECE" filter="url(#f6w76yc5jqd51)" height="33.6094" style="stroke: #000000; stroke-width: 1.5;" width="74" x="421.5" y="336"/><rect fill="#FEFECE" height="33.6094" style="stroke: #000000; stroke-width: 1.5;" width="74" x="417.5" y="332"/><text fill="#000000" font-family="sans-serif" font-size="14" lengthAdjust="spacingAndGlyphs" textLength="58" x="425.5" y="354.5332">sabr_aml</text><!--entity sabr_cplimage--><rect fill="#FEFECE" filter="url(#f6w76yc5jqd51)" height="33.6094" style="stroke: #000000; stroke-width: 1.5;" width="70" x="423.5" y="415"/><rect fill="#FEFECE" height="33.6094" style="stroke: #000000; stroke-width: 1.5;" width="70" x="419.5" y="411"/><text fill="#000000" font-family="sans-serif" font-size="14" lengthAdjust="spacingAndGlyphs" textLength="54" x="427.5" y="433.5332">sabr_cpl</text><!--entity sabr_dimlimage--><rect fill="#FEFECE" filter="url(#f6w76yc5jqd51)" height="33.6094" style="stroke: #000000; stroke-width: 1.5;" width="77" x="420" y="500"/><rect fill="#FEFECE" height="33.6094" style="stroke: #000000; stroke-width: 1.5;" width="77" x="416" y="496"/><text fill="#000000" font-family="sans-serif" font-size="14" lengthAdjust="spacingAndGlyphs" textLength="61" x="424" y="518.5332">sabr_diml</text><!--entity sabr_saimage--><rect fill="#FEFECE" filter="url(#f6w76yc5jqd51)" height="33.6094" style="stroke: #000000; stroke-width: 1.5;" width="67" x="425" y="589"/><rect fill="#FEFECE" height="33.6094" style="stroke: #000000; stroke-width: 1.5;" width="67" x="421" y="585"/><text fill="#000000" font-family="sans-serif" font-size="14" lengthAdjust="spacingAndGlyphs" textLength="51" x="429" y="607.5332">sabr_sa</text><!--entity sabr_smlimage--><rect fill="#FEFECE" filter="url(#f6w76yc5jqd51)" height="33.6094" style="stroke: #000000; stroke-width: 1.5;" width="73" x="422" y="694"/><rect fill="#FEFECE" height="33.6094" style="stroke: #000000; stroke-width: 1.5;" width="73" x="418" y="690"/><text fill="#000000" font-family="sans-serif" font-size="14" lengthAdjust="spacingAndGlyphs" textLength="57" x="426" y="712.5332">sabr_sml</text><!--entity sabr_sdiimage--><rect fill="#FEFECE" filter="url(#f6w76yc5jqd51)" height="33.6094" style="stroke: #000000; stroke-width: 1.5;" width="70" x="423.5" y="770"/><rect fill="#FEFECE" height="33.6094" style="stroke: #000000; stroke-width: 1.5;" width="70" x="419.5" y="766"/><text fill="#000000" font-family="sans-serif" font-size="14" lengthAdjust="spacingAndGlyphs" textLength="54" x="427.5" y="788.5332">sabr_sdi</text><!--entity sabr_iaimage--><rect fill="#FEFECE" filter="url(#f6w76yc5jqd51)" height="33.6094" style="stroke: #000000; stroke-width: 1.5;" width="63" x="427" y="844"/><rect fill="#FEFECE" height="33.6094" style="stroke: #000000; stroke-width: 1.5;" width="63" x="423" y="840"/><text fill="#000000" font-family="sans-serif" font-size="14" lengthAdjust="spacingAndGlyphs" textLength="47" x="431" y="862.5332">sabr_ia</text><!--entity sabr_docimage--><rect fill="#FEFECE" filter="url(#f6w76yc5jqd51)" height="40.6094" style="stroke: #000000; stroke-width: 1.5;" width="89" x="412" y="914.5"/><polygon fill="#FEFECE" points="484,919.5,484,933.5,496,933.5,496,925.5,490,919.5,484,919.5" style="stroke: #000000; stroke-width: 1.5;"/><line style="stroke: #000000; stroke-width: 1.5;" x1="490" x2="490" y1="919.5" y2="925.5"/><line style="stroke: #000000; stroke-width: 1.5;" x1="496" x2="490" y1="925.5" y2="925.5"/><text fill="#000000" font-family="sans-serif" font-size="14" lengthAdjust="spacingAndGlyphs" textLength="59" x="422" y="942.0332">sabr_doc</text><!--entity parent--><path d="M182.5,1059 L182.5,1083 M182.5,1071 L199.5,1071 " fill="none" filter="url(#f6w76yc5jqd51)" style="stroke: #A80036; stroke-width: 2.0;"/><ellipse cx="211.5" cy="1071" fill="#000000" filter="url(#f6w76yc5jqd51)" rx="12" ry="12" style="stroke: #A80036; stroke-width: 2.0;"/><text fill="#000000" font-family="sans-serif" font-size="14" lengthAdjust="spacingAndGlyphs" textLength="41" x="182.5" y="1101.5332">parent</text><!--entity children--><ellipse cx="327" cy="1071" fill="#0000FF" filter="url(#f6w76yc5jqd51)" rx="12" ry="12" style="stroke: #A80036; stroke-width: 2.0;"/><line style="stroke: #A80036; stroke-width: 2.0;" x1="315" x2="339" y1="1085" y2="1085"/><text fill="#000000" font-family="sans-serif" font-size="14" lengthAdjust="spacingAndGlyphs" textLength="50" x="302" y="1101.5332">children</text><!--link parentnet to parent--><path d="M97.6838,1023.0273 C121.067,1035.7979 155.322,1054.5068 178.123,1066.9594 " fill="none" id="parentnet-parent" style="stroke: #000000; stroke-width: 1.0;"/><!--link childrennet to children--><path d="M206.125,669.05 C214.158,720.179 245.143,900.574 302,1039 C304.194,1044.3406 306.982,1049.826 309.876,1054.9778 " fill="none" id="childrennet-children" style="stroke: #0000FF; stroke-width: 1.0;"/><!--link amlService to childrennet--><path d="M92.8918,379.312 C96.8883,384.611 100.8136,390.333 104,396 C153.247,483.584 187.402,600.788 198.283,640.872 " fill="none" id="amlService-childrennet" style="stroke: #0000FF; stroke-width: 1.0;"/><!--link cplService to childrennet--><path d="M91.9263,462.258 C96.0768,467.655 100.3081,473.431 104,479 C142.261,536.717 179.961,610.437 195.08,640.879 " fill="none" id="cplService-childrennet" style="stroke: #0000FF; stroke-width: 1.0;"/><!--link dimlService to childrennet--><path d="M95.542,545.266 C122.614,573.172 166.155,618.052 188.223,640.799 " fill="none" id="dimlService-childrennet" style="stroke: #0000FF; stroke-width: 1.0;"/><!--link saService to childrennet--><path d="M98.6211,614.444 C118.083,622.079 144.698,632.52 166.048,640.896 " fill="none" id="saService-childrennet" style="stroke: #0000FF; stroke-width: 1.0;"/><!--link smlService to childrennet--><path d="M101.8246,679.659 C120.265,675.119 144.111,669.25 163.911,664.376 " fill="none" id="smlService-childrennet" style="stroke: #0000FF; stroke-width: 1.0;"/><!--link sdiService to childrennet--><path d="M99.2523,745.892 C125.46,722.709 164.196,688.442 185.847,669.289 " fill="none" id="sdiService-childrennet" style="stroke: #0000FF; stroke-width: 1.0;"/><!--link iaService to childrennet--><path d="M91.7171,828.599 C95.8806,823.211 100.1701,817.475 104,812 C139.729,760.921 177.586,697.097 193.827,669.178 " fill="none" id="iaService-childrennet" style="stroke: #0000FF; stroke-width: 1.0;"/><!--link docService to siblingsnet--><path d="M102.8082,947.612 C121.579,954.687 145.668,963.767 165.407,971.207 " fill="none" id="docService-siblingsnet" style="stroke: #FF0000; stroke-width: 1.0;"/><!--link amlService to sabr_amlimage--><path d="M102.0926,354.686 C171.222,353.965 341.265,352.192 417.475,351.397 " fill="none" id="amlService-sabr_amlimage" style="stroke: #A80036; stroke-width: 1.0; stroke-dasharray: 7.0,7.0;"/><!--link cplService to sabr_cplimage--><path d="M100.1997,437.412 C168.612,435.985 343.339,432.34 419.311,430.755 " fill="none" id="cplService-sabr_cplimage" style="stroke: #A80036; stroke-width: 1.0; stroke-dasharray: 7.0,7.0;"/><!--link dimlService to sabr_dimlimage--><path d="M103.7097,520.504 C173.339,519.415 339.462,516.815 415.844,515.62 " fill="none" id="dimlService-sabr_dimlimage" style="stroke: #A80036; stroke-width: 1.0; stroke-dasharray: 7.0,7.0;"/><!--link saService to sabr_saimage--><path d="M98.6625,604 C166.437,604 345.287,604 420.932,604 " fill="none" id="saService-sabr_saimage" style="stroke: #A80036; stroke-width: 1.0; stroke-dasharray: 7.0,7.0;"/><!--link smlService to sabr_smlimage--><path d="M101.7735,688.708 C170.848,692.671 341.895,702.483 417.976,706.847 " fill="none" id="smlService-sabr_smlimage" style="stroke: #A80036; stroke-width: 1.0; stroke-dasharray: 7.0,7.0;"/><!--link sdiService to sabr_sdiimage--><path d="M100.1997,771.103 C168.612,773.779 343.339,780.613 419.311,783.585 " fill="none" id="sdiService-sabr_sdiimage" style="stroke: #A80036; stroke-width: 1.0; stroke-dasharray: 7.0,7.0;"/><!--link iaService to sabr_iaimage--><path d="M96.573,853.384 C163.279,854.428 347.767,857.314 422.963,858.491 " fill="none" id="iaService-sabr_iaimage" style="stroke: #A80036; stroke-width: 1.0; stroke-dasharray: 7.0,7.0;"/><!--link docService to sabr_docimage--><path d="M102.7351,935.92 C170.632,935.743 333.583,935.318 411.954,935.114 " fill="none" id="docService-sabr_docimage" style="stroke: #A80036; stroke-width: 1.0; stroke-dasharray: 7.0,7.0;"/><!--link sabr_amlimage to sabr_amlStack--><path d="M466.341,331.614 C479.18,304.375 504.58,253.768 533,215 C546.325,196.8235 563.634,178.4245 577.9413,164.2831 C581.5181,160.7478 584.9073,157.4785 587.9997,154.5454 C589.5459,153.0788 591.018,151.6963 592.4022,150.4065 C593.0943,149.7616 593.7644,149.1399 594.4109,148.5425 C594.7341,148.2438 595.0514,147.9512 595.3626,147.6648 C595.5182,147.5216 595.6723,147.3799 595.8248,147.2398 C595.901,147.1698 595.9769,147.1001 596.0524,147.0309 " fill="none" id="sabr_amlimage-sabr_amlStack" style="stroke: #A80036; stroke-width: 1.0;"/><polygon fill="#A80036" points="596.0524,147.0309,586.7168,150.169,592.3685,150.4116,592.1259,156.0632,596.0524,147.0309" style="stroke: #A80036; stroke-width: 1.0;"/><!--link sabr_cplimage to sabr_cplStack--><path d="M493.665,412.127 C504.735,405.385 516.279,396.909 525,387 C530.517,380.732 528.291,376.896 533,370 C545.709,351.3875 562.9988,332.9748 577.4499,318.9351 C581.0627,315.4252 584.498,312.1886 587.64,309.2906 C589.2111,307.8415 590.7087,306.4772 592.1186,305.2055 C592.8235,304.5697 593.5065,303.9571 594.1657,303.3687 C594.4953,303.0745 594.8189,302.7864 595.1364,302.5044 C595.2952,302.3634 595.4524,302.224 595.608,302.0861 " fill="none" id="sabr_cplimage-sabr_cplStack" style="stroke: #A80036; stroke-width: 1.0;"/><polygon fill="#A80036" points="595.608,302.0861,586.2189,305.0601,591.8654,305.4017,591.5238,311.0482,595.608,302.0861" style="stroke: #A80036; stroke-width: 1.0;"/><!--link sabr_dimlimage to sabr_dimlStack--><path d="M497.027,497.313 C518.5315,487.691 545.0238,475.837 566.3845,466.279 C571.7247,463.8895 576.7442,461.6435 581.2848,459.6118 C582.42,459.1038 583.5252,458.6093 584.598,458.1292 C585.1344,457.8892 585.6628,457.6528 586.1827,457.4201 C586.4426,457.3038 586.7005,457.1885 586.9562,457.074 " fill="none" id="sabr_dimlimage-sabr_dimlStack" style="stroke: #A80036; stroke-width: 1.0;"/><polygon fill="#A80036" points="586.9562,457.074,577.1074,457.0988,582.3922,459.1162,580.3748,464.4011,586.9562,457.074" style="stroke: #A80036; stroke-width: 1.0;"/><!--link sabr_saimage to sabr_saStack--><path d="M492.082,604 C502.811,604 515.0979,604 527.5261,604 C533.7402,604 539.9896,604 546.0974,604 C546.8608,604 547.6221,604 548.3808,604 C548.5704,604 548.76,604 548.9493,604 " fill="none" id="sabr_saimage-sabr_saStack" style="stroke: #A80036; stroke-width: 1.0;"/><polygon fill="#A80036" points="548.9493,604,539.9493,600,543.9493,604,539.9493,608,548.9493,604" style="stroke: #A80036; stroke-width: 1.0;"/><!--link sabr_smlimage to sabr_smlStack--><path d="M495.153,725.6 C507.127,730.57 520.507,735.807 533,740 C536.7994,741.2751 540.7344,742.52 544.7164,743.7234 C545.712,744.0242 546.7104,744.3224 547.7104,744.6179 C547.9604,744.6918 548.2105,744.7655 548.4607,744.839 C548.5858,744.8757 548.7109,744.9124 548.836,744.9491 " fill="none" id="sabr_smlimage-sabr_smlStack" style="stroke: #A80036; stroke-width: 1.0;"/><polygon fill="#A80036" points="548.836,744.9491,541.3242,738.5795,544.0378,743.543,539.0743,746.2566,548.836,744.9491" style="stroke: #A80036; stroke-width: 1.0;"/><!--link sabr_sdiimage to sabr_sdiStack--><path d="M493.53,797.463 C505.42,803.367 517.507,811.671 525,823 C542.762,849.854 511.971,870.619 533,895 C535.6175,898.0348 538.6569,900.6131 541.9775,902.8012 C543.6379,903.8952 545.3685,904.8916 547.1519,905.7987 C547.5978,906.0255 548.0469,906.2467 548.4991,906.4624 C548.6122,906.5163 548.7254,906.5699 548.8388,906.6232 " fill="none" id="sabr_sdiimage-sabr_sdiStack" style="stroke: #A80036; stroke-width: 1.0;"/><polygon fill="#A80036" points="548.8388,906.6232,542.3923,899.1772,544.3129,904.4981,538.9921,906.4187,548.8388,906.6232" style="stroke: #A80036; stroke-width: 1.0;"/><!--link sabr_iaimage to sabr_iaStack--><path d="M490.01,869.394 C503.149,875.327 517.061,884.2 525,897 C542.945,925.933 511.525,1023.5803 533,1050 C535.5278,1053.1099 538.4991,1055.7452 541.7695,1057.9753 C543.4048,1059.0904 545.1147,1060.1041 546.8815,1061.0252 C547.3231,1061.2555 547.7683,1061.48 548.2168,1061.6988 C548.4411,1061.8082 548.6661,1061.9162 548.892,1062.0228 " fill="none" id="sabr_iaimage-sabr_iaStack" style="stroke: #A80036; stroke-width: 1.0;"/><polygon fill="#A80036" points="548.892,1062.0228,542.4606,1054.5637,544.3704,1059.8885,539.0457,1061.7982,548.892,1062.0228" style="stroke: #A80036; stroke-width: 1.0;"/><!--
@startuml

left to right direction


boundary parent #black


entity children #blue

rectangle "sabr_aml" as sabr_amlStack #00aaff {
    queue sabr_amlStacksnet #blue [
        <b><color:white>parent</color></b>
    ]
}
rectangle "sabr_cpl" as sabr_cplStack #bbbbbb {
    queue sabr_cplStacksnet #blue [
        <b><color:white>parent</color></b>
    ]
}
rectangle "sabr_diml" as sabr_dimlStack #ffcc88 {
    queue sabr_dimlStacksnet #blue [
        <b><color:white>parent</color></b>
    ]
}
rectangle "sabr_sa" as sabr_saStack #pink {
    queue sabr_saStacksnet #blue [
        <b><color:white>parent</color></b>
    ]
}
rectangle "sabr_sml" as sabr_smlStack #lightgreen {
    queue sabr_smlStacksnet #blue [
        <b><color:white>parent</color></b>
    ]
}
rectangle "sabr_sdi" as sabr_sdiStack #lightyellow {
    queue sabr_sdiStacksnet #blue [
        <b><color:white>parent</color></b>
    ]
}
rectangle "sabr_ia" as sabr_iaStack #ffbbbb {
    queue sabr_iaStacksnet #blue [
        <b><color:white>parent</color></b>
    ]
}



package "sabr" #bbaaff {
    queue parentnet #black [
            <b><color:white>parent</color></b>
    ]
    
    parentnet -[#black]- parent
    
    queue childrennet #blue [
            <b><color:white>children</color></b>
    ]
    
    childrennet -[#blue]- children
    
    queue siblingsnet #red [
            <b><color:white>siblings</color></b>
    ]
    

node "aml" as amlService
node "cpl" as cplService
node "diml" as dimlService
node "sa" as saService
node "sml" as smlService
node "sdi" as sdiService
node "ia" as iaService
node "doc" as docService

        collections "sabr_aml" as sabr_amlimage
            collections "sabr_cpl" as sabr_cplimage
            collections "sabr_diml" as sabr_dimlimage
            collections "sabr_sa" as sabr_saimage
            collections "sabr_sml" as sabr_smlimage
            collections "sabr_sdi" as sabr_sdiimage
            collections "sabr_ia" as sabr_iaimage
    
        artifact "sabr_doc" as sabr_docimage
    
}

amlService -[#blue]- childrennet

cplService -[#blue]- childrennet

dimlService -[#blue]- childrennet

saService -[#blue]- childrennet

smlService -[#blue]- childrennet

sdiService -[#blue]- childrennet

iaService -[#blue]- childrennet

docService -[#red]- siblingsnet
amlService .... sabr_amlimage
cplService .... sabr_cplimage
dimlService .... sabr_dimlimage
saService .... sabr_saimage
smlService .... sabr_smlimage
sdiService .... sabr_sdiimage
iaService .... sabr_iaimage
docService .... sabr_docimage

sabr_amlimage - -> sabr_amlStack
    
sabr_cplimage - -> sabr_cplStack
    
sabr_dimlimage - -> sabr_dimlStack
    
sabr_saimage - -> sabr_saStack
    
sabr_smlimage - -> sabr_smlStack
    
sabr_sdiimage - -> sabr_sdiStack
    
sabr_iaimage - -> sabr_iaStack
    

@enduml

PlantUML version 1.2019.05(Sat Apr 20 09:45:36 PDT 2019)
(GPL source distribution)
Java Runtime: Java(TM) SE Runtime Environment
JVM: Java HotSpot(TM) Client VM
Java Version: 1.8.0_271-b09
Operating System: Windows 10
OS Version: 10.0
Default Encoding: Cp1252
Language: en
Country: US
--></g></svg>