<?xml version="1.0" encoding="us-ascii" standalone="no"?><svg xmlns="http://www.w3.org/2000/svg" xmlns:xlink="http://www.w3.org/1999/xlink" contentStyleType="text/css" height="673px" preserveAspectRatio="none" style="width:337px;height:673px;background:#FFFFFF;" version="1.1" viewBox="0 0 337 673" width="337px" zoomAndPan="magnify"><defs/><g><!--cluster Application Management Layer--><g id="cluster_Application Management Layer"><path d="M48,60 L264,60 A3.75,3.75 0 0 1 266.5,62.5 L273.5,83.6094 L328,83.6094 A2.5,2.5 0 0 1 330.5,86.1094 L330.5,663.5 A2.5,2.5 0 0 1 328,666 L48,666 A2.5,2.5 0 0 1 45.5,663.5 L45.5,62.5 A2.5,2.5 0 0 1 48,60 " fill="#00AAFF" style="stroke:#000000;stroke-width:1.5;"/><line style="stroke:#000000;stroke-width:1.5;" x1="45.5" x2="273.5" y1="83.6094" y2="83.6094"/><text fill="#000000" font-family="sans-serif" font-size="14" font-weight="bold" lengthAdjust="spacing" textLength="215" x="49.5" y="76.5332">Application Management Layer</text></g><!--cluster bin--><g id="cluster_bin"><path d="M72,104 L95,104 A3.75,3.75 0 0 1 97.5,106.5 L104.5,127.6094 L197,127.6094 A2.5,2.5 0 0 1 199.5,130.1094 L199.5,201.5 A2.5,2.5 0 0 1 197,204 L72,204 A2.5,2.5 0 0 1 69.5,201.5 L69.5,106.5 A2.5,2.5 0 0 1 72,104 " fill="#FFFFFF" style="stroke:#000000;stroke-width:1.5;"/><line style="stroke:#000000;stroke-width:1.5;" x1="69.5" x2="104.5" y1="127.6094" y2="127.6094"/><text fill="#000000" font-family="sans-serif" font-size="14" font-weight="bold" lengthAdjust="spacing" textLength="22" x="73.5" y="120.5332">bin</text></g><!--cluster deploy--><g id="cluster_deploy"><path d="M72,320 L120,320 A3.75,3.75 0 0 1 122.5,322.5 L129.5,343.6094 L209,343.6094 A2.5,2.5 0 0 1 211.5,346.1094 L211.5,424.5 A2.5,2.5 0 0 1 209,427 L72,427 A2.5,2.5 0 0 1 69.5,424.5 L69.5,322.5 A2.5,2.5 0 0 1 72,320 " fill="#FFFFFF" style="stroke:#000000;stroke-width:1.5;"/><line style="stroke:#000000;stroke-width:1.5;" x1="69.5" x2="129.5" y1="343.6094" y2="343.6094"/><text fill="#000000" font-family="sans-serif" font-size="14" font-weight="bold" lengthAdjust="spacing" textLength="47" x="73.5" y="336.5332">deploy</text></g><!--cluster images--><g id="cluster_images"><path d="M73,451 L124,451 A3.75,3.75 0 0 1 126.5,453.5 L133.5,474.6094 L208,474.6094 A2.5,2.5 0 0 1 210.5,477.1094 L210.5,639.5 A2.5,2.5 0 0 1 208,642 L73,642 A2.5,2.5 0 0 1 70.5,639.5 L70.5,453.5 A2.5,2.5 0 0 1 73,451 " fill="#FFFFFF" style="stroke:#000000;stroke-width:1.5;"/><line style="stroke:#000000;stroke-width:1.5;" x1="70.5" x2="133.5" y1="474.6094" y2="474.6094"/><text fill="#000000" font-family="sans-serif" font-size="14" font-weight="bold" lengthAdjust="spacing" textLength="50" x="74.5" y="467.5332">images</text></g><!--entity REST--><g id="elem_REST"><rect fill="#F1F1F1" height="47.6094" rx="2.5" ry="2.5" style="stroke:#181818;stroke-width:0.5;" width="89" x="90" y="248"/><rect fill="#F1F1F1" height="10" style="stroke:#181818;stroke-width:0.5;" width="15" x="159" y="253"/><rect fill="#F1F1F1" height="2" style="stroke:#181818;stroke-width:0.5;" width="4" x="157" y="255"/><rect fill="#F1F1F1" height="2" style="stroke:#181818;stroke-width:0.5;" width="4" x="157" y="259"/><text fill="#000000" font-family="sans-serif" font-size="14" lengthAdjust="spacing" textLength="49" x="105" y="282.5332">express</text></g><!--entity socket--><g id="elem_socket"><rect fill="#F1F1F1" height="47.6094" rx="2.5" ry="2.5" style="stroke:#181818;stroke-width:0.5;" width="96" x="218.5" y="140"/><rect fill="#F1F1F1" height="10" style="stroke:#181818;stroke-width:0.5;" width="15" x="294.5" y="145"/><rect fill="#F1F1F1" height="2" style="stroke:#181818;stroke-width:0.5;" width="4" x="292.5" y="147"/><rect fill="#F1F1F1" height="2" style="stroke:#181818;stroke-width:0.5;" width="4" x="292.5" y="151"/><text fill="#000000" font-family="sans-serif" font-size="14" lengthAdjust="spacing" textLength="56" x="233.5" y="174.5332">socket.io</text></g><!--entity binName--><g id="elem_binName"><rect fill="#F1F1F1" height="47.6094" rx="2.5" ry="2.5" style="stroke:#181818;stroke-width:0.5;" width="98" x="85.5" y="140"/><rect fill="#F1F1F1" height="10" style="stroke:#181818;stroke-width:0.5;" width="15" x="163.5" y="145"/><rect fill="#F1F1F1" height="2" style="stroke:#181818;stroke-width:0.5;" width="4" x="161.5" y="147"/><rect fill="#F1F1F1" height="2" style="stroke:#181818;stroke-width:0.5;" width="4" x="161.5" y="151"/><text fill="#000000" font-family="sans-serif" font-size="14" lengthAdjust="spacing" textLength="54" x="104.5" y="174.5332">sabr aml</text></g><!--entity sabr_aml_container--><g id="elem_sabr_aml_container"><path d="M85.5,358.5 L85.5,408.7188 A2.5,2.5 0 0 0 88,411.2188 L193,411.2188 A2.5,2.5 0 0 0 195.5,408.7188 L195.5,366 L185.5,356 L88,356 A2.5,2.5 0 0 0 85.5,358.5 " fill="#F1F1F1" style="stroke:#181818;stroke-width:0.5;"/><path d="M185.5,356 L185.5,363.5 A2.5,2.5 0 0 0 188,366 L195.5,366 " fill="#F1F1F1" style="stroke:#181818;stroke-width:0.5;"/><text fill="#000000" font-family="sans-serif" font-size="14" lengthAdjust="spacing" textLength="90" x="95.5" y="380.5332">node server.js</text><text fill="#000000" font-family="sans-serif" font-size="14" lengthAdjust="spacing" textLength="4" x="95.5" y="398.1426">&#160;</text></g><!--entity sabr_amlimage--><g id="elem_sabr_amlimage"><rect fill="#F1F1F1" height="33.6094" rx="2.5" ry="2.5" style="stroke:#181818;stroke-width:0.5;" width="74" x="105.5" y="491"/><rect fill="#F1F1F1" height="33.6094" rx="2.5" ry="2.5" style="stroke:#181818;stroke-width:0.5;" width="74" x="101.5" y="487"/><text fill="#000000" font-family="sans-serif" font-size="14" lengthAdjust="spacing" textLength="58" x="109.5" y="509.5332">sabr_aml</text></g><!--entity ailtireswarm--><g id="elem_ailtireswarm"><rect fill="#F1F1F1" height="40.6094" rx="2.5" ry="2.5" style="stroke:#181818;stroke-width:0.5;" width="108" x="86.5" y="585"/><polygon fill="#F1F1F1" points="177.5,590,177.5,604,189.5,604,189.5,596,183.5,590,177.5,590" style="stroke:#181818;stroke-width:0.5;"/><line style="stroke:#181818;stroke-width:0.5;" x1="183.5" x2="183.5" y1="590" y2="596"/><line style="stroke:#181818;stroke-width:0.5;" x1="189.5" x2="183.5" y1="596" y2="596"/><text fill="#000000" font-family="sans-serif" font-size="14" lengthAdjust="spacing" textLength="78" x="96.5" y="612.5332">ailtire:swarm</text></g><!--entity CLI--><g id="elem_CLI"><ellipse cx="134.5" cy="14" fill="#F1F1F1" rx="8" ry="8" style="stroke:#181818;stroke-width:0.5;"/><text fill="#000000" font-family="sans-serif" font-size="14" lengthAdjust="spacing" textLength="21" x="124" y="45.5332">CLI</text></g><!--entity Web--><g id="elem_Web"><ellipse cx="20.5" cy="272" fill="#F1F1F1" rx="8" ry="8" style="stroke:#181818;stroke-width:0.5;"/><text fill="#000000" font-family="sans-serif" font-size="14" lengthAdjust="spacing" textLength="29" x="6" y="303.5332">Web</text></g><!--entity WebSocket--><g id="elem_WebSocket"><ellipse cx="266.5" cy="14" fill="#F1F1F1" rx="8" ry="8" style="stroke:#181818;stroke-width:0.5;"/><text fill="#000000" font-family="sans-serif" font-size="14" lengthAdjust="spacing" textLength="72" x="230.5" y="45.5332">WebSocket</text></g><!--link binName to REST--><g id="link_binName_REST"><path d="M134.5,188 C134.5,205.66 134.5,223.94 134.5,241.68 " fill="none" id="binName-to-REST" style="stroke:#181818;stroke-width:1.0;"/><polygon fill="#181818" points="134.5,247.68,138.5,238.68,134.5,242.68,130.5,238.68,134.5,247.68" style="stroke:#181818;stroke-width:1.0;"/></g><!--link REST to sabr_aml_container--><g id="link_REST_sabr_aml_container"><path d="M135.77,296.22 C136.73,313.67 137.7114,331.619 138.7114,349.849 " fill="none" id="REST-to-sabr_aml_container" style="stroke:#181818;stroke-width:1.0;"/><polygon fill="#181818" points="139.04,355.84,142.541,346.6344,138.7661,350.8475,134.5531,347.0726,139.04,355.84" style="stroke:#181818;stroke-width:1.0;"/></g><!--reverse link sabr_amlimage to ailtireswarm--><g id="link_sabr_amlimage_ailtireswarm"><path d="M140.5,543.34 C140.5,560.33 140.5,567.52 140.5,584.91 " fill="none" id="sabr_amlimage-backto-ailtireswarm" style="stroke:#181818;stroke-width:1.0;"/><polygon fill="none" points="140.5,525.34,134.5,543.34,146.5,543.34,140.5,525.34" style="stroke:#181818;stroke-width:1.0;"/></g><!--link sabr_aml_container to sabr_amlimage--><g id="link_sabr_aml_container_sabr_amlimage"><path d="M140.5,411.24 C140.5,434.26 140.5,460.85 140.5,480.92 " fill="none" id="sabr_aml_container-to-sabr_amlimage" style="stroke:#181818;stroke-width:1.0;"/><polygon fill="#181818" points="140.5,486.92,144.5,477.92,140.5,481.92,136.5,477.92,140.5,486.92" style="stroke:#181818;stroke-width:1.0;"/></g><!--link CLI to binName--><g id="link_CLI_binName"><path d="M134.5,23.38 C134.5,45.52 134.5,106.15 134.5,139.77 " fill="none" id="CLI-binName" style="stroke:#181818;stroke-width:1.0;"/><text fill="#000000" font-family="sans-serif" font-size="13" lengthAdjust="spacing" textLength="50" x="67.2875" y="21.8669">sabr aml</text></g><!--link Web to REST--><g id="link_Web_REST"><path d="M29.85,272 C49.88,272 69.91,272 89.94,272 " fill="none" id="Web-REST" style="stroke:#181818;stroke-width:1.0;"/><text fill="#000000" font-family="sans-serif" font-size="13" lengthAdjust="spacing" textLength="54" x="37.31" y="267.1655">/sabr/aml</text></g><!--link WebSocket to socket--><g id="link_WebSocket_socket"><path d="M266.5,23.38 C266.5,45.52 266.5,106.15 266.5,139.77 " fill="none" id="WebSocket-socket" style="stroke:#181818;stroke-width:1.0;"/><text fill="#000000" font-family="sans-serif" font-size="13" lengthAdjust="spacing" textLength="54" x="195.2875" y="21.8669">.sabr.aml</text></g><!--SRC=[TL9BImCn4BxtLmpfURSzYmWY7eJgmGfUX3ARdPNOl4Y2MhJ_tKbsrtQhNTZ3pFVAJ0AWRABGeIIuMTtDuAX-fkQqNZkvfJJpABVuIY2klTTAObBEmZrQxXco2LQueo1WlbmYTXryiOrqnZkRGVhqWM84ZF1uktwQOB7uryfbj2yOxvnkAK2ZBCoxyXNBOw60Y4q0D5faALCVq12JzlmF5LJLLHzvy6p9QxSxiMLKQPxEkfOWKdYdKB_55rkiSyw6SpRIsOJAKXWqsRb4_CDWod2M8LSPtbNyCuxM9FCo8uZHPH9QP8MB8Ic-5PuSbKugq4Nym60AU-YKHY5Fv73vNLNdEOTJJuRfaySvzZD-B9Ebi-MuT7ud81OPMlHGl_JVvmEYpc0zwePx_W40]--></g></svg>