<?xml version="1.0" encoding="UTF-8" standalone="no"?><svg xmlns="http://www.w3.org/2000/svg" xmlns:xlink="http://www.w3.org/1999/xlink" contentScriptType="application/ecmascript" contentStyleType="text/css" height="685px" preserveAspectRatio="none" style="width:394px;height:685px;" version="1.1" viewBox="0 0 394 685" width="394px" zoomAndPan="magnify"><defs><filter height="300%" id="fpky3vydtqsjj" width="300%" x="-1" y="-1"><feGaussianBlur result="blurOut" stdDeviation="2.0"/><feColorMatrix in="blurOut" result="blurOut2" type="matrix" values="0 0 0 0 0 0 0 0 0 0 0 0 0 0 0 0 0 0 .4 0"/><feOffset dx="4.0" dy="4.0" in="blurOut2" result="blurOut3"/><feBlend in="SourceGraphic" in2="blurOut3" mode="normal"/></filter></defs><g><!--cluster Edge Security Controller--><polygon fill="#FFCCCC" filter="url(#fpky3vydtqsjj)" points="45.5,84,223.5,84,230.5,107.6094,372.5,107.6094,372.5,673,45.5,673,45.5,84" style="stroke: #000000; stroke-width: 1.5;"/><line style="stroke: #000000; stroke-width: 1.5;" x1="45.5" x2="230.5" y1="107.6094" y2="107.6094"/><text fill="#000000" font-family="sans-serif" font-size="14" font-weight="bold" lengthAdjust="spacingAndGlyphs" textLength="172" x="49.5" y="100.5332">Edge Security Controller</text><!--cluster bin--><polygon fill="#FFFFFF" filter="url(#fpky3vydtqsjj)" points="77.5,128,105.5,128,112.5,151.6094,203.5,151.6094,203.5,218,77.5,218,77.5,128" style="stroke: #000000; stroke-width: 1.5;"/><line style="stroke: #000000; stroke-width: 1.5;" x1="77.5" x2="112.5" y1="151.6094" y2="151.6094"/><text fill="#000000" font-family="sans-serif" font-size="14" font-weight="bold" lengthAdjust="spacingAndGlyphs" textLength="22" x="81.5" y="144.5332">bin</text><!--cluster deploy--><polygon fill="#FFFFFF" filter="url(#fpky3vydtqsjj)" points="69.5,324,122.5,324,129.5,347.6094,348.5,347.6094,348.5,431,69.5,431,69.5,324" style="stroke: #000000; stroke-width: 1.5;"/><line style="stroke: #000000; stroke-width: 1.5;" x1="69.5" x2="129.5" y1="347.6094" y2="347.6094"/><text fill="#000000" font-family="sans-serif" font-size="14" font-weight="bold" lengthAdjust="spacingAndGlyphs" textLength="47" x="73.5" y="340.5332">deploy</text><!--cluster images--><polygon fill="#FFFFFF" filter="url(#fpky3vydtqsjj)" points="97.5,455,153.5,455,160.5,478.6094,341.5,478.6094,341.5,649,97.5,649,97.5,455" style="stroke: #000000; stroke-width: 1.5;"/><line style="stroke: #000000; stroke-width: 1.5;" x1="97.5" x2="160.5" y1="478.6094" y2="478.6094"/><text fill="#000000" font-family="sans-serif" font-size="14" font-weight="bold" lengthAdjust="spacingAndGlyphs" textLength="50" x="101.5" y="471.5332">images</text><!--entity REST--><rect fill="#FEFECE" filter="url(#fpky3vydtqsjj)" height="37.6094" style="stroke: #A80036; stroke-width: 1.5;" width="69" x="106" y="262"/><rect fill="#FEFECE" height="5" style="stroke: #A80036; stroke-width: 1.5;" width="10" x="101" y="267"/><rect fill="#FEFECE" height="5" style="stroke: #A80036; stroke-width: 1.5;" width="10" x="101" y="289.6094"/><text fill="#000000" font-family="sans-serif" font-size="14" lengthAdjust="spacingAndGlyphs" textLength="49" x="116" y="286.5332">express</text><!--entity socket--><rect fill="#FEFECE" filter="url(#fpky3vydtqsjj)" height="37.6094" style="stroke: #A80036; stroke-width: 1.5;" width="76" x="243.5" y="164"/><rect fill="#FEFECE" height="5" style="stroke: #A80036; stroke-width: 1.5;" width="10" x="238.5" y="169"/><rect fill="#FEFECE" height="5" style="stroke: #A80036; stroke-width: 1.5;" width="10" x="238.5" y="191.6094"/><text fill="#000000" font-family="sans-serif" font-size="14" lengthAdjust="spacingAndGlyphs" textLength="56" x="253.5" y="188.5332">socket.io</text><!--entity binName--><rect fill="#FEFECE" filter="url(#fpky3vydtqsjj)" height="37.6094" style="stroke: #A80036; stroke-width: 1.5;" width="93" x="94" y="164"/><rect fill="#FEFECE" height="5" style="stroke: #A80036; stroke-width: 1.5;" width="10" x="89" y="169"/><rect fill="#FEFECE" height="5" style="stroke: #A80036; stroke-width: 1.5;" width="10" x="89" y="191.6094"/><text fill="#000000" font-family="sans-serif" font-size="14" lengthAdjust="spacingAndGlyphs" textLength="73" x="104" y="188.5332">sabr sa esc</text><!--entity sa_esc_container--><polygon fill="#FEFECE" filter="url(#fpky3vydtqsjj)" points="85.5,360,85.5,415.2188,195.5,415.2188,195.5,370,185.5,360,85.5,360" style="stroke: #000000; stroke-width: 1.5;"/><path d="M185.5,360 L185.5,370 L195.5,370 " fill="#FEFECE" style="stroke: #000000; stroke-width: 1.5;"/><text fill="#000000" font-family="sans-serif" font-size="14" lengthAdjust="spacingAndGlyphs" textLength="90" x="95.5" y="384.5332">node server.js</text><text fill="#000000" font-family="sans-serif" font-size="14" lengthAdjust="spacingAndGlyphs" textLength="0" x="99.5" y="402.1426"/><!--entity sabr_sa_esc_container--><polygon fill="#FEFECE" filter="url(#fpky3vydtqsjj)" points="231,368.5,231,406.1094,332,406.1094,332,378.5,322,368.5,231,368.5" style="stroke: #000000; stroke-width: 1.5;"/><path d="M322,368.5 L322,378.5 L332,378.5 " fill="#FEFECE" style="stroke: #000000; stroke-width: 1.5;"/><text fill="#000000" font-family="sans-serif" font-size="14" lengthAdjust="spacingAndGlyphs" textLength="81" x="241" y="393.0332">sabr_sa_esc</text><!--entity sa_escimage--><rect fill="#FEFECE" filter="url(#fpky3vydtqsjj)" height="33.6094" style="stroke: #000000; stroke-width: 1.5;" width="61" x="118" y="496.5"/><rect fill="#FEFECE" height="33.6094" style="stroke: #000000; stroke-width: 1.5;" width="61" x="114" y="492.5"/><text fill="#000000" font-family="sans-serif" font-size="14" lengthAdjust="spacingAndGlyphs" textLength="45" x="122" y="515.0332">sa_esc</text><!--entity ailtireswarm--><rect fill="#FEFECE" filter="url(#fpky3vydtqsjj)" height="40.6094" style="stroke: #000000; stroke-width: 1.5;" width="108" x="113.5" y="592"/><polygon fill="#FEFECE" points="204.5,597,204.5,611,216.5,611,216.5,603,210.5,597,204.5,597" style="stroke: #000000; stroke-width: 1.5;"/><line style="stroke: #000000; stroke-width: 1.5;" x1="210.5" x2="210.5" y1="597" y2="603"/><line style="stroke: #000000; stroke-width: 1.5;" x1="216.5" x2="210.5" y1="603" y2="603"/><text fill="#000000" font-family="sans-serif" font-size="14" lengthAdjust="spacingAndGlyphs" textLength="78" x="123.5" y="619.5332">ailtire:swarm</text><!--entity sabr_sa_esc--><rect fill="#FEFECE" filter="url(#fpky3vydtqsjj)" height="40.6094" style="stroke: #000000; stroke-width: 1.5;" width="111" x="214" y="491"/><polygon fill="#FEFECE" points="308,496,308,510,320,510,320,502,314,496,308,496" style="stroke: #000000; stroke-width: 1.5;"/><line style="stroke: #000000; stroke-width: 1.5;" x1="314" x2="314" y1="496" y2="502"/><line style="stroke: #000000; stroke-width: 1.5;" x1="320" x2="314" y1="502" y2="502"/><text fill="#000000" font-family="sans-serif" font-size="14" lengthAdjust="spacingAndGlyphs" textLength="81" x="224" y="518.5332">sabr_sa_esc</text><!--entity CLI--><ellipse cx="140.5" cy="38" fill="#FEFECE" filter="url(#fpky3vydtqsjj)" rx="8" ry="8" style="stroke: #A80036; stroke-width: 2.0;"/><text fill="#000000" font-family="sans-serif" font-size="14" lengthAdjust="spacingAndGlyphs" textLength="21" x="130" y="69.5332">CLI</text><!--entity Web--><ellipse cx="20.5" cy="281" fill="#FEFECE" filter="url(#fpky3vydtqsjj)" rx="8" ry="8" style="stroke: #A80036; stroke-width: 2.0;"/><text fill="#000000" font-family="sans-serif" font-size="14" lengthAdjust="spacingAndGlyphs" textLength="29" x="6" y="312.5332">Web</text><!--entity WebSocket--><ellipse cx="281.5" cy="38" fill="#FEFECE" filter="url(#fpky3vydtqsjj)" rx="8" ry="8" style="stroke: #A80036; stroke-width: 2.0;"/><text fill="#000000" font-family="sans-serif" font-size="14" lengthAdjust="spacingAndGlyphs" textLength="72" x="245.5" y="69.5332">WebSocket</text><!--link binName to REST--><path d="M140.5,202.057 C140.5,217.513 140.5,239.865 140.5,256.673 " fill="none" id="binName-REST" style="stroke: #A80036; stroke-width: 1.0;"/><polygon fill="#A80036" points="140.5,261.698,144.5,252.698,140.5,256.698,136.5,252.698,140.5,261.698" style="stroke: #A80036; stroke-width: 1.0;"/><!--link REST to sa_esc_container--><path d="M140.5,300.203 C140.5,315.147 140.5,336.673 140.5,354.487 " fill="none" id="REST-sa_esc_container" style="stroke: #A80036; stroke-width: 1.0;"/><polygon fill="#A80036" points="140.5,359.885,144.5,350.885,140.5,354.885,136.5,350.885,140.5,359.885" style="stroke: #A80036; stroke-width: 1.0;"/><!--link REST to sabr_sa_esc_container--><path d="M175.213,295.394 C187.52,300.903 201.126,307.903 212.5,316 C231.757,329.709 250.306,349.129 263.313,364.117 " fill="none" id="REST-sabr_sa_esc_container" style="stroke: #A80036; stroke-width: 1.0;"/><polygon fill="#A80036" points="266.831,368.218,264.0059,358.783,263.575,364.4234,257.9346,363.9925,266.831,368.218" style="stroke: #A80036; stroke-width: 1.0;"/><!--link socket to sabr_sa_esc_container--><path d="M281.5,202.328 C281.5,239.225 281.5,322.407 281.5,363.138 " fill="none" id="socket-sabr_sa_esc_container" style="stroke: #A80036; stroke-width: 1.0;"/><polygon fill="#A80036" points="281.5,368.36,285.5,359.36,281.5,363.36,277.5,359.36,281.5,368.36" style="stroke: #A80036; stroke-width: 1.0;"/><!--link sa_escimage to ailtireswarm--><path d="M154.539,550.398 C157.53,564.499 160.804,579.932 163.313,591.7594 " fill="none" id="sa_escimage-ailtireswarm" style="stroke: #A80036; stroke-width: 1.0;"/><polygon fill="none" points="147.654,551.675,150.352,530.658,161.35,548.77,147.654,551.675" style="stroke: #A80036; stroke-width: 1.0;"/><!--link sa_esc_container to sa_escimage--><path d="M141.817,415.273 C142.879,436.871 144.357,466.931 145.367,487.465 " fill="none" id="sa_esc_container-sa_escimage" style="stroke: #A80036; stroke-width: 1.0;"/><polygon fill="#A80036" points="145.613,492.469,149.1658,483.2833,145.3672,487.475,141.1755,483.6765,145.613,492.469" style="stroke: #A80036; stroke-width: 1.0;"/><!--link sabr_sa_esc_container to sabr_sa_esc--><path d="M279.729,406.502 C277.669,427.453 274.253,462.173 271.942,485.676 " fill="none" id="sabr_sa_esc_container-sabr_sa_esc" style="stroke: #A80036; stroke-width: 1.0;"/><polygon fill="#A80036" points="271.437,490.805,276.2998,482.2403,271.927,485.8291,268.3383,481.4563,271.437,490.805" style="stroke: #A80036; stroke-width: 1.0;"/><!--link CLI to binName--><path d="M140.5,47.098 C140.5,69.432 140.5,132.318 140.5,163.705 " fill="none" id="CLI-binName" style="stroke: #A80036; stroke-width: 1.0;"/><text fill="#000000" font-family="sans-serif" font-size="13" lengthAdjust="spacingAndGlyphs" textLength="68" x="55.85" y="45.1822">sabr sa esc</text><!--link Web to REST--><path d="M29.875,281 C55.2266,281 80.5781,281 105.9297,281 " fill="none" id="Web-REST" style="stroke: #A80036; stroke-width: 1.0;"/><text fill="#000000" font-family="sans-serif" font-size="13" lengthAdjust="spacingAndGlyphs" textLength="72" x="37.7067" y="275.7906">/sabr/sa/esc</text><!--link WebSocket to socket--><path d="M281.5,47.098 C281.5,69.432 281.5,132.318 281.5,163.705 " fill="none" id="WebSocket-socket" style="stroke: #A80036; stroke-width: 1.0;"/><text fill="#000000" font-family="sans-serif" font-size="13" lengthAdjust="spacingAndGlyphs" textLength="72" x="192.85" y="45.1822">.sabr.sa.esc</text><!--
@startuml
  interface CLI
  interface Web
  interface WebSocket
package "Edge Security Controller" #ffcccc {
  component express as REST
  component socket.io as socket
  folder bin #ffffff {
    component " sabr sa esc" as binName
  }
  binName - -> REST

  folder deploy #ffffff {
      file "node server.js\n" as sa_esc_container
      REST - -> sa_esc_container

  
    file "sabr_sa_esc" as sabr_sa_esc_container
    REST - -> sabr_sa_esc_container
    socket - - -> sabr_sa_esc_container
  
  }
  folder images #ffffff {
    collections "sa_esc" as sa_escimage
    artifact "ailtire:swarm" as ailtireswarm
    sa_escimage <|- - ailtireswarm
    sa_esc_container - -> sa_escimage

  
      artifact "sabr_sa_esc" as sabr_sa_esc
      sabr_sa_esc_container - -> sabr_sa_esc
    
  }
}
CLI " sabr sa esc" - - binName
Web "/sabr/sa/esc" - REST
WebSocket ".sabr.sa.esc" - - socket

@enduml

PlantUML version 1.2019.05(Sat Apr 20 09:45:36 PDT 2019)
(GPL source distribution)
Java Runtime: Java(TM) SE Runtime Environment
JVM: Java HotSpot(TM) Client VM
Java Version: 1.8.0_271-b09
Operating System: Windows 10
OS Version: 10.0
Default Encoding: Cp1252
Language: en
Country: US
--></g></svg>