<?xml version="1.0" encoding="UTF-8" standalone="no"?><svg xmlns="http://www.w3.org/2000/svg" xmlns:xlink="http://www.w3.org/1999/xlink" contentScriptType="application/ecmascript" contentStyleType="text/css" height="286px" preserveAspectRatio="none" style="width:855px;height:286px;" version="1.1" viewBox="0 0 855 286" width="855px" zoomAndPan="magnify"><defs><filter height="300%" id="f176uftlawcofj" width="300%" x="-1" y="-1"><feGaussianBlur result="blurOut" stdDeviation="2.0"/><feColorMatrix in="blurOut" result="blurOut2" type="matrix" values="0 0 0 0 0 0 0 0 0 0 0 0 0 0 0 0 0 0 .4 0"/><feOffset dx="4.0" dy="4.0" in="blurOut2" result="blurOut3"/><feBlend in="SourceGraphic" in2="blurOut3" mode="normal"/></filter></defs><g><ellipse cx="427.0337" cy="168.8067" fill="#FFFF00" filter="url(#f176uftlawcofj)" rx="67.0337" ry="15.8067" style="stroke: #A80036; stroke-width: 1.5;"/><text fill="#000000" font-family="sans-serif" font-size="14" lengthAdjust="spacingAndGlyphs" textLength="93" x="380.5337" y="174.1114">Manage Builds</text><!--entity Actor--><ellipse cx="427" cy="18" fill="#FEFECE" filter="url(#f176uftlawcofj)" rx="8" ry="8" style="stroke: #A80036; stroke-width: 2.0;"/><path d="M427,26 L427,53 M414,34 L440,34 M427,53 L414,68 M427,53 L440,68 " fill="none" filter="url(#f176uftlawcofj)" style="stroke: #A80036; stroke-width: 2.0;"/><text fill="#000000" font-family="sans-serif" font-size="14" lengthAdjust="spacingAndGlyphs" textLength="33" x="410.5" y="89.5332">Actor</text><ellipse cx="62.033" cy="260.4517" fill="#D3D3D3" filter="url(#f176uftlawcofj)" rx="56.033" ry="15.4517" style="stroke: #A80036; stroke-width: 1.5;"/><text fill="#000000" font-family="sans-serif" font-size="14" lengthAdjust="spacingAndGlyphs" textLength="75" x="24.533" y="265.7564">CancelBuild</text><ellipse cx="208.8259" cy="260.4517" fill="#D3D3D3" filter="url(#f176uftlawcofj)" rx="55.3259" ry="15.4517" style="stroke: #A80036; stroke-width: 1.5;"/><text fill="#000000" font-family="sans-serif" font-size="14" lengthAdjust="spacingAndGlyphs" textLength="74" x="171.8259" y="265.7564">CreateBuild</text><ellipse cx="358.1543" cy="260.4517" fill="#D3D3D3" filter="url(#f176uftlawcofj)" rx="58.1543" ry="15.4517" style="stroke: #A80036; stroke-width: 1.5;"/><text fill="#000000" font-family="sans-serif" font-size="14" lengthAdjust="spacingAndGlyphs" textLength="78" x="319.1543" y="265.7564">LaunchBuild</text><ellipse cx="496.9264" cy="260.4517" fill="#D3D3D3" filter="url(#f176uftlawcofj)" rx="45.4264" ry="15.4517" style="stroke: #A80036; stroke-width: 1.5;"/><text fill="#000000" font-family="sans-serif" font-size="14" lengthAdjust="spacingAndGlyphs" textLength="60" x="466.9264" y="265.7564">ListBuilds</text><ellipse cx="636.1543" cy="260.4517" fill="#D3D3D3" filter="url(#f176uftlawcofj)" rx="58.1543" ry="15.4517" style="stroke: #A80036; stroke-width: 1.5;"/><text fill="#000000" font-family="sans-serif" font-size="14" lengthAdjust="spacingAndGlyphs" textLength="78" x="597.1543" y="265.7564">MonitorBuild</text><ellipse cx="786.9472" cy="260.4517" fill="#D3D3D3" filter="url(#f176uftlawcofj)" rx="57.4472" ry="15.4517" style="stroke: #A80036; stroke-width: 1.5;"/><text fill="#000000" font-family="sans-serif" font-size="14" lengthAdjust="spacingAndGlyphs" textLength="77" x="748.4472" y="265.7564">RestartBuild</text><!--link Actor to ManageBuilds--><path d="M427,93.23 C427,111.721 427,132.634 427,147.631 " fill="none" id="Actor-ManageBuilds" style="stroke: #A80036; stroke-width: 1.0;"/><polygon fill="#A80036" points="427,152.873,431,143.873,427,147.873,423,143.873,427,152.873" style="stroke: #A80036; stroke-width: 1.0;"/><!--link ManageBuilds to CancelBuild--><path d="M382.244,180.9745 C312.159,198.1596 177.28,231.2327 107.028,248.4588 " fill="none" id="ManageBuilds-CancelBuild" style="stroke: #A80036; stroke-width: 1.0;"/><polygon fill="#A80036" points="102.0836,249.6713,111.7775,251.4116,106.9396,248.4799,109.8713,243.642,102.0836,249.6713" style="stroke: #A80036; stroke-width: 1.0;"/><!--link ManageBuilds to CreateBuild--><path d="M394.833,183.206 C354.348,199.8273 285.09,228.2613 243.523,245.3264 " fill="none" id="ManageBuilds-CreateBuild" style="stroke: #A80036; stroke-width: 1.0;"/><polygon fill="#A80036" points="238.844,247.2475,248.6888,247.5303,243.4695,245.3488,245.651,240.1295,238.844,247.2475" style="stroke: #A80036; stroke-width: 1.0;"/><!--link ManageBuilds to LaunchBuild--><path d="M415.606,184.7791 C403.75,200.158 385.155,224.277 372.315,240.9322 " fill="none" id="ManageBuilds-LaunchBuild" style="stroke: #A80036; stroke-width: 1.0;"/><polygon fill="#A80036" points="369.182,244.9959,377.845,240.3105,372.2349,241.0361,371.5093,235.426,369.182,244.9959" style="stroke: #A80036; stroke-width: 1.0;"/><!--link ManageBuilds to ListBuilds--><path d="M438.559,184.7791 C450.659,200.2496 469.676,224.5644 482.71,241.2288 " fill="none" id="ManageBuilds-ListBuilds" style="stroke: #A80036; stroke-width: 1.0;"/><polygon fill="#A80036" points="485.887,245.2907,483.4932,235.7372,482.8067,241.3522,477.1916,240.6657,485.887,245.2907" style="stroke: #A80036; stroke-width: 1.0;"/><!--link ManageBuilds to MonitorBuild--><path d="M457.839,183.206 C496.356,199.7001 562.037,227.8269 601.983,244.9327 " fill="none" id="ManageBuilds-MonitorBuild" style="stroke: #A80036; stroke-width: 1.0;"/><polygon fill="#A80036" points="606.723,246.9626,600.0228,239.7441,602.1263,244.9953,596.8751,247.0988,606.723,246.9626" style="stroke: #A80036; stroke-width: 1.0;"/><!--link ManageBuilds to RestartBuild--><path d="M471.504,181.0642 C540.396,198.1916 672.142,230.9451 741.584,248.2091 " fill="none" id="ManageBuilds-RestartBuild" style="stroke: #A80036; stroke-width: 1.0;"/><polygon fill="#A80036" points="746.475,249.425,738.7068,243.3706,741.6229,248.2179,736.7755,251.134,746.475,249.425" style="stroke: #A80036; stroke-width: 1.0;"/><!--
@startuml


usecase "Manage Builds" as ManageBuilds #yellow

Actor "Actor" as Actor

Actor - -> ManageBuilds



usecase "CancelBuild" as CancelBuild #lightgrey

ManageBuilds - -> CancelBuild

usecase "CreateBuild" as CreateBuild #lightgrey

ManageBuilds - -> CreateBuild

usecase "LaunchBuild" as LaunchBuild #lightgrey

ManageBuilds - -> LaunchBuild

usecase "ListBuilds" as ListBuilds #lightgrey

ManageBuilds - -> ListBuilds

usecase "MonitorBuild" as MonitorBuild #lightgrey

ManageBuilds - -> MonitorBuild

usecase "RestartBuild" as RestartBuild #lightgrey

ManageBuilds - -> RestartBuild









@enduml

PlantUML version 1.2019.05(Sat Apr 20 09:45:36 PDT 2019)
(GPL source distribution)
Java Runtime: Java(TM) SE Runtime Environment
JVM: Java HotSpot(TM) Client VM
Java Version: 1.8.0_271-b09
Operating System: Windows 10
OS Version: 10.0
Default Encoding: Cp1252
Language: en
Country: US
--></g></svg>