<?xml version="1.0" encoding="UTF-8" standalone="no"?><svg xmlns="http://www.w3.org/2000/svg" xmlns:xlink="http://www.w3.org/1999/xlink" contentScriptType="application/ecmascript" contentStyleType="text/css" height="297px" preserveAspectRatio="none" style="width:727px;height:297px;" version="1.1" viewBox="0 0 727 297" width="727px" zoomAndPan="magnify"><defs><filter height="300%" id="foip8qdinirrq" width="300%" x="-1" y="-1"><feGaussianBlur result="blurOut" stdDeviation="2.0"/><feColorMatrix in="blurOut" result="blurOut2" type="matrix" values="0 0 0 0 0 0 0 0 0 0 0 0 0 0 0 0 0 0 .4 0"/><feOffset dx="4.0" dy="4.0" in="blurOut2" result="blurOut3"/><feBlend in="SourceGraphic" in2="blurOut3" mode="normal"/></filter></defs><g><rect fill="#00AAFF" height="282.2734" style="stroke: #A80036; stroke-width: 1.0;" width="138" x="227" y="4"/><text fill="#000000" font-family="sans-serif" font-size="13" font-weight="bold" lengthAdjust="spacingAndGlyphs" textLength="128" x="230" y="17.4951">DevSecOpsManager</text><rect fill="#AAFFAA" height="282.2734" style="stroke: #A80036; stroke-width: 1.0;" width="140" x="576.5" y="4"/><text fill="#000000" font-family="sans-serif" font-size="13" font-weight="bold" lengthAdjust="spacingAndGlyphs" textLength="130" x="579.5" y="17.4951">Service Orchestrator</text><line style="stroke: #A80036; stroke-width: 1.0; stroke-dasharray: 5.0,5.0;" x1="76" x2="76" y1="87.6094" y2="198.6641"/><line style="stroke: #A80036; stroke-width: 1.0; stroke-dasharray: 5.0,5.0;" x1="188" x2="188" y1="87.6094" y2="198.6641"/><line style="stroke: #A80036; stroke-width: 1.0; stroke-dasharray: 5.0,5.0;" x1="295.5" x2="295.5" y1="87.6094" y2="198.6641"/><line style="stroke: #A80036; stroke-width: 1.0; stroke-dasharray: 5.0,5.0;" x1="646.5" x2="646.5" y1="87.6094" y2="198.6641"/><text fill="#000000" font-family="sans-serif" font-size="14" lengthAdjust="spacingAndGlyphs" textLength="131" x="8" y="84.5332">DevSecOpsManager</text><ellipse cx="76.5" cy="13" fill="#FEFECE" filter="url(#foip8qdinirrq)" rx="8" ry="8" style="stroke: #A80036; stroke-width: 2.0;"/><path d="M76.5,21 L76.5,48 M63.5,29 L89.5,29 M76.5,48 L63.5,63 M76.5,48 L89.5,63 " fill="none" filter="url(#foip8qdinirrq)" style="stroke: #A80036; stroke-width: 2.0;"/><text fill="#000000" font-family="sans-serif" font-size="14" lengthAdjust="spacingAndGlyphs" textLength="131" x="8" y="212.1973">DevSecOpsManager</text><ellipse cx="76.5" cy="225.2734" fill="#FEFECE" filter="url(#foip8qdinirrq)" rx="8" ry="8" style="stroke: #A80036; stroke-width: 2.0;"/><path d="M76.5,233.2734 L76.5,260.2734 M63.5,241.2734 L89.5,241.2734 M76.5,260.2734 L63.5,275.2734 M76.5,260.2734 L89.5,275.2734 " fill="none" filter="url(#foip8qdinirrq)" style="stroke: #A80036; stroke-width: 2.0;"/><text fill="#000000" font-family="sans-serif" font-size="14" lengthAdjust="spacingAndGlyphs" textLength="60" x="155" y="84.5332">EventBus</text><ellipse cx="188" cy="54" fill="#FEFECE" filter="url(#foip8qdinirrq)" rx="12" ry="12" style="stroke: #A80036; stroke-width: 2.0;"/><line style="stroke: #A80036; stroke-width: 2.0;" x1="176" x2="200" y1="68" y2="68"/><text fill="#000000" font-family="sans-serif" font-size="14" lengthAdjust="spacingAndGlyphs" textLength="60" x="155" y="212.1973">EventBus</text><ellipse cx="188" cy="231.2734" fill="#FEFECE" filter="url(#foip8qdinirrq)" rx="12" ry="12" style="stroke: #A80036; stroke-width: 2.0;"/><line style="stroke: #A80036; stroke-width: 2.0;" x1="176" x2="200" y1="245.2734" y2="245.2734"/><text fill="#000000" font-family="sans-serif" font-size="14" lengthAdjust="spacingAndGlyphs" textLength="34" x="276" y="84.5332">dsom</text><path d="M275.5,42 L275.5,66 M275.5,54 L292.5,54 " fill="none" filter="url(#foip8qdinirrq)" style="stroke: #A80036; stroke-width: 2.0;"/><ellipse cx="304.5" cy="54" fill="#FFFFFF" filter="url(#foip8qdinirrq)" rx="12" ry="12" style="stroke: #A80036; stroke-width: 2.0;"/><text fill="#000000" font-family="sans-serif" font-size="14" lengthAdjust="spacingAndGlyphs" textLength="34" x="276" y="212.1973">dsom</text><path d="M275.5,219.2734 L275.5,243.2734 M275.5,231.2734 L292.5,231.2734 " fill="none" filter="url(#foip8qdinirrq)" style="stroke: #A80036; stroke-width: 2.0;"/><ellipse cx="304.5" cy="231.2734" fill="#FFFFFF" filter="url(#foip8qdinirrq)" rx="12" ry="12" style="stroke: #A80036; stroke-width: 2.0;"/><rect fill="#FEFECE" filter="url(#foip8qdinirrq)" height="31.6094" style="stroke: #A80036; stroke-width: 1.5;" width="84" x="602.5" y="51"/><text fill="#000000" font-family="sans-serif" font-size="14" lengthAdjust="spacingAndGlyphs" textLength="70" x="609.5" y="72.5332">provisioner</text><rect fill="#FEFECE" filter="url(#foip8qdinirrq)" height="31.6094" style="stroke: #A80036; stroke-width: 1.5;" width="84" x="602.5" y="197.6641"/><text fill="#000000" font-family="sans-serif" font-size="14" lengthAdjust="spacingAndGlyphs" textLength="70" x="609.5" y="219.1973">provisioner</text><polygon fill="#A80036" points="284,115.9609,294,119.9609,284,123.9609,288,119.9609" style="stroke: #A80036; stroke-width: 1.0;"/><line style="stroke: #A80036; stroke-width: 1.0;" x1="76.5" x2="290" y1="119.9609" y2="119.9609"/><text fill="#000000" font-family="sans-serif" font-size="13" lengthAdjust="spacingAndGlyphs" textLength="71" x="83.5" y="115.1045">Create Build</text><polygon fill="#A80036" points="634.5,146.3125,644.5,150.3125,634.5,154.3125,638.5,150.3125" style="stroke: #A80036; stroke-width: 1.0;"/><line style="stroke: #A80036; stroke-width: 1.0;" x1="296" x2="640.5" y1="150.3125" y2="150.3125"/><text fill="#000000" font-family="sans-serif" font-size="13" lengthAdjust="spacingAndGlyphs" textLength="264" x="303" y="145.4561">create (name: hello,file: ./templates/build.yml)</text><polygon fill="#A80036" points="199,181.6641,189,181.6641,199,185.6641" style="stroke: #A80036; stroke-width: 1.0;"/><line style="stroke: #A80036; stroke-width: 1.0; stroke-dasharray: 2.0,2.0;" x1="188" x2="645.5" y1="180.6641" y2="180.6641"/><text fill="#000000" font-family="sans-serif" font-size="13" lengthAdjust="spacingAndGlyphs" textLength="67" x="205" y="175.8076">build.create</text><!--
@startuml

actor "DevSecOpsManager"


entity EventBus

box DevSecOpsManager #00aaff
    boundary dsom #white
end box


box Service Orchestrator #aaffaa
            participant provisioner
    end box


"DevSecOpsManager" -> dsom: Create Build

    dsom -> "provisioner": create (name: hello,file: ./templates/build.yml)

    "provisioner" - -/ EventBus: build.create



@enduml

PlantUML version 1.2019.05(Sat Apr 20 09:45:36 PDT 2019)
(GPL source distribution)
Java Runtime: Java(TM) SE Runtime Environment
JVM: Java HotSpot(TM) Client VM
Java Version: 1.8.0_271-b09
Operating System: Windows 10
OS Version: 10.0
Default Encoding: Cp1252
Language: en
Country: US
--></g></svg>