<?xml version="1.0" encoding="UTF-8" standalone="no"?><svg xmlns="http://www.w3.org/2000/svg" xmlns:xlink="http://www.w3.org/1999/xlink" contentScriptType="application/ecmascript" contentStyleType="text/css" height="370px" preserveAspectRatio="none" style="width:728px;height:370px;" version="1.1" viewBox="0 0 728 370" width="728px" zoomAndPan="magnify"><defs><filter height="300%" id="f1nk8b8r3c95sm" width="300%" x="-1" y="-1"><feGaussianBlur result="blurOut" stdDeviation="2.0"/><feColorMatrix in="blurOut" result="blurOut2" type="matrix" values="0 0 0 0 0 0 0 0 0 0 0 0 0 0 0 0 0 0 .4 0"/><feOffset dx="4.0" dy="4.0" in="blurOut2" result="blurOut3"/><feBlend in="SourceGraphic" in2="blurOut3" mode="normal"/></filter></defs><g><rect fill="#00AAFF" height="355.9766" style="stroke: #A80036; stroke-width: 1.0;" width="138" x="154.5" y="4"/><text fill="#000000" font-family="sans-serif" font-size="13" font-weight="bold" lengthAdjust="spacingAndGlyphs" textLength="128" x="157.5" y="17.4951">DevSecOpsManager</text><rect fill="#AAFFAA" height="355.9766" style="stroke: #A80036; stroke-width: 1.0;" width="140" x="577" y="4"/><text fill="#000000" font-family="sans-serif" font-size="13" font-weight="bold" lengthAdjust="spacingAndGlyphs" textLength="130" x="580" y="17.4951">Service Orchestrator</text><line style="stroke: #A80036; stroke-width: 1.0; stroke-dasharray: 5.0,5.0;" x1="27" x2="27" y1="87.6094" y2="272.3672"/><line style="stroke: #A80036; stroke-width: 1.0; stroke-dasharray: 5.0,5.0;" x1="90" x2="90" y1="87.6094" y2="272.3672"/><line style="stroke: #A80036; stroke-width: 1.0; stroke-dasharray: 5.0,5.0;" x1="223" x2="223" y1="87.6094" y2="272.3672"/><line style="stroke: #A80036; stroke-width: 1.0; stroke-dasharray: 5.0,5.0;" x1="647" x2="647" y1="87.6094" y2="272.3672"/><text fill="#000000" font-family="sans-serif" font-size="14" lengthAdjust="spacingAndGlyphs" textLength="33" x="8" y="84.5332">Actor</text><ellipse cx="27.5" cy="13" fill="#FEFECE" filter="url(#f1nk8b8r3c95sm)" rx="8" ry="8" style="stroke: #A80036; stroke-width: 2.0;"/><path d="M27.5,21 L27.5,48 M14.5,29 L40.5,29 M27.5,48 L14.5,63 M27.5,48 L40.5,63 " fill="none" filter="url(#f1nk8b8r3c95sm)" style="stroke: #A80036; stroke-width: 2.0;"/><text fill="#000000" font-family="sans-serif" font-size="14" lengthAdjust="spacingAndGlyphs" textLength="33" x="8" y="285.9004">Actor</text><ellipse cx="27.5" cy="298.9766" fill="#FEFECE" filter="url(#f1nk8b8r3c95sm)" rx="8" ry="8" style="stroke: #A80036; stroke-width: 2.0;"/><path d="M27.5,306.9766 L27.5,333.9766 M14.5,314.9766 L40.5,314.9766 M27.5,333.9766 L14.5,348.9766 M27.5,333.9766 L40.5,348.9766 " fill="none" filter="url(#f1nk8b8r3c95sm)" style="stroke: #A80036; stroke-width: 2.0;"/><text fill="#000000" font-family="sans-serif" font-size="14" lengthAdjust="spacingAndGlyphs" textLength="60" x="57" y="84.5332">EventBus</text><ellipse cx="90" cy="54" fill="#FEFECE" filter="url(#f1nk8b8r3c95sm)" rx="12" ry="12" style="stroke: #A80036; stroke-width: 2.0;"/><line style="stroke: #A80036; stroke-width: 2.0;" x1="78" x2="102" y1="68" y2="68"/><text fill="#000000" font-family="sans-serif" font-size="14" lengthAdjust="spacingAndGlyphs" textLength="60" x="57" y="285.9004">EventBus</text><ellipse cx="90" cy="304.9766" fill="#FEFECE" filter="url(#f1nk8b8r3c95sm)" rx="12" ry="12" style="stroke: #A80036; stroke-width: 2.0;"/><line style="stroke: #A80036; stroke-width: 2.0;" x1="78" x2="102" y1="318.9766" y2="318.9766"/><text fill="#000000" font-family="sans-serif" font-size="14" lengthAdjust="spacingAndGlyphs" textLength="34" x="203.5" y="84.5332">dsom</text><path d="M203,42 L203,66 M203,54 L220,54 " fill="none" filter="url(#f1nk8b8r3c95sm)" style="stroke: #A80036; stroke-width: 2.0;"/><ellipse cx="232" cy="54" fill="#FFFFFF" filter="url(#f1nk8b8r3c95sm)" rx="12" ry="12" style="stroke: #A80036; stroke-width: 2.0;"/><text fill="#000000" font-family="sans-serif" font-size="14" lengthAdjust="spacingAndGlyphs" textLength="34" x="203.5" y="285.9004">dsom</text><path d="M203,292.9766 L203,316.9766 M203,304.9766 L220,304.9766 " fill="none" filter="url(#f1nk8b8r3c95sm)" style="stroke: #A80036; stroke-width: 2.0;"/><ellipse cx="232" cy="304.9766" fill="#FFFFFF" filter="url(#f1nk8b8r3c95sm)" rx="12" ry="12" style="stroke: #A80036; stroke-width: 2.0;"/><rect fill="#FEFECE" filter="url(#f1nk8b8r3c95sm)" height="31.6094" style="stroke: #A80036; stroke-width: 1.5;" width="84" x="603" y="51"/><text fill="#000000" font-family="sans-serif" font-size="14" lengthAdjust="spacingAndGlyphs" textLength="70" x="610" y="72.5332">provisioner</text><rect fill="#FEFECE" filter="url(#f1nk8b8r3c95sm)" height="31.6094" style="stroke: #A80036; stroke-width: 1.5;" width="84" x="603" y="271.3672"/><text fill="#000000" font-family="sans-serif" font-size="14" lengthAdjust="spacingAndGlyphs" textLength="70" x="610" y="292.9004">provisioner</text><polygon fill="#A80036" points="211.5,115.9609,221.5,119.9609,211.5,123.9609,215.5,119.9609" style="stroke: #A80036; stroke-width: 1.0;"/><line style="stroke: #A80036; stroke-width: 1.0;" x1="27.5" x2="217.5" y1="119.9609" y2="119.9609"/><text fill="#000000" font-family="sans-serif" font-size="13" lengthAdjust="spacingAndGlyphs" textLength="75" x="34.5" y="115.1045">Launch Build</text><polygon fill="#A80036" points="635,146.3125,645,150.3125,635,154.3125,639,150.3125" style="stroke: #A80036; stroke-width: 1.0;"/><line style="stroke: #A80036; stroke-width: 1.0;" x1="223.5" x2="641" y1="150.3125" y2="150.3125"/><text fill="#000000" font-family="sans-serif" font-size="13" lengthAdjust="spacingAndGlyphs" textLength="264" x="230.5" y="145.4561">create (name: hello,file: ./templates/build.yml)</text><polygon fill="#A80036" points="101,181.6641,91,181.6641,101,185.6641" style="stroke: #A80036; stroke-width: 1.0;"/><line style="stroke: #A80036; stroke-width: 1.0; stroke-dasharray: 2.0,2.0;" x1="90" x2="646" y1="180.6641" y2="180.6641"/><text fill="#000000" font-family="sans-serif" font-size="13" lengthAdjust="spacingAndGlyphs" textLength="67" x="107" y="175.8076">build.create</text><line style="stroke: #A80036; stroke-width: 1.0;" x1="223.5" x2="265.5" y1="211.0156" y2="211.0156"/><line style="stroke: #A80036; stroke-width: 1.0;" x1="265.5" x2="265.5" y1="211.0156" y2="224.0156"/><line style="stroke: #A80036; stroke-width: 1.0;" x1="224.5" x2="265.5" y1="224.0156" y2="224.0156"/><polygon fill="#A80036" points="234.5,220.0156,224.5,224.0156,234.5,228.0156,230.5,224.0156" style="stroke: #A80036; stroke-width: 1.0;"/><text fill="#000000" font-family="sans-serif" font-size="13" lengthAdjust="spacingAndGlyphs" textLength="347" x="230.5" y="206.1592">launch (name: hello,parameter1: State1,parameter2: State2)</text><polygon fill="#A80036" points="101,255.3672,91,255.3672,101,259.3672" style="stroke: #A80036; stroke-width: 1.0;"/><line style="stroke: #A80036; stroke-width: 1.0; stroke-dasharray: 2.0,2.0;" x1="90" x2="222.5" y1="254.3672" y2="254.3672"/><text fill="#000000" font-family="sans-serif" font-size="13" lengthAdjust="spacingAndGlyphs" textLength="69" x="107" y="249.5107">build.launch</text><!--
@startuml

actor "Actor"


entity EventBus

box DevSecOpsManager #00aaff
    boundary dsom #white
end box


box Service Orchestrator #aaffaa
            participant provisioner
    end box


"Actor" -> dsom: Launch Build

    dsom -> "provisioner": create (name: hello,file: ./templates/build.yml)

    "provisioner" - -/ EventBus: build.create

    dsom -> "dsom": launch (name: hello,parameter1: State1,parameter2: State2)

    "dsom" - -/ EventBus: build.launch



@enduml

PlantUML version 1.2019.05(Sat Apr 20 09:45:36 PDT 2019)
(GPL source distribution)
Java Runtime: Java(TM) SE Runtime Environment
JVM: Java HotSpot(TM) Client VM
Java Version: 1.8.0_271-b09
Operating System: Windows 10
OS Version: 10.0
Default Encoding: Cp1252
Language: en
Country: US
--></g></svg>