<?xml version="1.0" encoding="UTF-8" standalone="no"?><svg xmlns="http://www.w3.org/2000/svg" xmlns:xlink="http://www.w3.org/1999/xlink" contentScriptType="application/ecmascript" contentStyleType="text/css" height="310px" preserveAspectRatio="none" style="width:406px;height:310px;" version="1.1" viewBox="0 0 406 310" width="406px" zoomAndPan="magnify"><defs><filter height="300%" id="f1eqh0hpidpa7c" width="300%" x="-1" y="-1"><feGaussianBlur result="blurOut" stdDeviation="2.0"/><feColorMatrix in="blurOut" result="blurOut2" type="matrix" values="0 0 0 0 0 0 0 0 0 0 0 0 0 0 0 0 0 0 .4 0"/><feOffset dx="4.0" dy="4.0" in="blurOut2" result="blurOut3"/><feBlend in="SourceGraphic" in2="blurOut3" mode="normal"/></filter></defs><g><rect fill="#00AAFF" height="295.2734" style="stroke: #A80036; stroke-width: 1.0;" width="138" x="257.5" y="4"/><text fill="#000000" font-family="sans-serif" font-size="13" font-weight="bold" lengthAdjust="spacingAndGlyphs" textLength="128" x="260.5" y="17.4951">DevSecOpsManager</text><line style="stroke: #A80036; stroke-width: 1.0; stroke-dasharray: 5.0,5.0;" x1="76" x2="76" y1="87.6094" y2="211.6641"/><line style="stroke: #A80036; stroke-width: 1.0; stroke-dasharray: 5.0,5.0;" x1="188" x2="188" y1="87.6094" y2="211.6641"/><line style="stroke: #A80036; stroke-width: 1.0; stroke-dasharray: 5.0,5.0;" x1="326" x2="326" y1="87.6094" y2="211.6641"/><text fill="#000000" font-family="sans-serif" font-size="14" lengthAdjust="spacingAndGlyphs" textLength="131" x="8" y="84.5332">DevSecOpsManager</text><ellipse cx="76.5" cy="13" fill="#FEFECE" filter="url(#f1eqh0hpidpa7c)" rx="8" ry="8" style="stroke: #A80036; stroke-width: 2.0;"/><path d="M76.5,21 L76.5,48 M63.5,29 L89.5,29 M76.5,48 L63.5,63 M76.5,48 L89.5,63 " fill="none" filter="url(#f1eqh0hpidpa7c)" style="stroke: #A80036; stroke-width: 2.0;"/><text fill="#000000" font-family="sans-serif" font-size="14" lengthAdjust="spacingAndGlyphs" textLength="131" x="8" y="225.1973">DevSecOpsManager</text><ellipse cx="76.5" cy="238.2734" fill="#FEFECE" filter="url(#f1eqh0hpidpa7c)" rx="8" ry="8" style="stroke: #A80036; stroke-width: 2.0;"/><path d="M76.5,246.2734 L76.5,273.2734 M63.5,254.2734 L89.5,254.2734 M76.5,273.2734 L63.5,288.2734 M76.5,273.2734 L89.5,288.2734 " fill="none" filter="url(#f1eqh0hpidpa7c)" style="stroke: #A80036; stroke-width: 2.0;"/><text fill="#000000" font-family="sans-serif" font-size="14" lengthAdjust="spacingAndGlyphs" textLength="60" x="155" y="84.5332">EventBus</text><ellipse cx="188" cy="54" fill="#FEFECE" filter="url(#f1eqh0hpidpa7c)" rx="12" ry="12" style="stroke: #A80036; stroke-width: 2.0;"/><line style="stroke: #A80036; stroke-width: 2.0;" x1="176" x2="200" y1="68" y2="68"/><text fill="#000000" font-family="sans-serif" font-size="14" lengthAdjust="spacingAndGlyphs" textLength="60" x="155" y="225.1973">EventBus</text><ellipse cx="188" cy="244.2734" fill="#FEFECE" filter="url(#f1eqh0hpidpa7c)" rx="12" ry="12" style="stroke: #A80036; stroke-width: 2.0;"/><line style="stroke: #A80036; stroke-width: 2.0;" x1="176" x2="200" y1="258.2734" y2="258.2734"/><text fill="#000000" font-family="sans-serif" font-size="14" lengthAdjust="spacingAndGlyphs" textLength="34" x="306.5" y="84.5332">dsom</text><path d="M306,42 L306,66 M306,54 L323,54 " fill="none" filter="url(#f1eqh0hpidpa7c)" style="stroke: #A80036; stroke-width: 2.0;"/><ellipse cx="335" cy="54" fill="#FFFFFF" filter="url(#f1eqh0hpidpa7c)" rx="12" ry="12" style="stroke: #A80036; stroke-width: 2.0;"/><text fill="#000000" font-family="sans-serif" font-size="14" lengthAdjust="spacingAndGlyphs" textLength="34" x="306.5" y="225.1973">dsom</text><path d="M306,232.2734 L306,256.2734 M306,244.2734 L323,244.2734 " fill="none" filter="url(#f1eqh0hpidpa7c)" style="stroke: #A80036; stroke-width: 2.0;"/><ellipse cx="335" cy="244.2734" fill="#FFFFFF" filter="url(#f1eqh0hpidpa7c)" rx="12" ry="12" style="stroke: #A80036; stroke-width: 2.0;"/><polygon fill="#A80036" points="314.5,115.9609,324.5,119.9609,314.5,123.9609,318.5,119.9609" style="stroke: #A80036; stroke-width: 1.0;"/><line style="stroke: #A80036; stroke-width: 1.0;" x1="76.5" x2="320.5" y1="119.9609" y2="119.9609"/><text fill="#000000" font-family="sans-serif" font-size="13" lengthAdjust="spacingAndGlyphs" textLength="76" x="83.5" y="115.1045">Monitor Build</text><line style="stroke: #A80036; stroke-width: 1.0;" x1="326.5" x2="368.5" y1="150.3125" y2="150.3125"/><line style="stroke: #A80036; stroke-width: 1.0;" x1="368.5" x2="368.5" y1="150.3125" y2="163.3125"/><line style="stroke: #A80036; stroke-width: 1.0;" x1="327.5" x2="368.5" y1="163.3125" y2="163.3125"/><polygon fill="#A80036" points="337.5,159.3125,327.5,163.3125,337.5,167.3125,333.5,163.3125" style="stroke: #A80036; stroke-width: 1.0;"/><text fill="#000000" font-family="sans-serif" font-size="13" lengthAdjust="spacingAndGlyphs" textLength="55" x="333.5" y="145.4561">monitor ()</text><polygon fill="#A80036" points="199,194.6641,189,194.6641,199,198.6641" style="stroke: #A80036; stroke-width: 1.0;"/><line style="stroke: #A80036; stroke-width: 1.0; stroke-dasharray: 2.0,2.0;" x1="188" x2="325.5" y1="193.6641" y2="193.6641"/><text fill="#000000" font-family="sans-serif" font-size="13" lengthAdjust="spacingAndGlyphs" textLength="74" x="205" y="188.8076">build.monitor</text><!--
@startuml

actor "DevSecOpsManager"


entity EventBus

box DevSecOpsManager #00aaff
    boundary dsom #white
end box



"DevSecOpsManager" -> dsom: Monitor Build

    dsom -> "dsom": monitor ()

    "dsom" - -/ EventBus: build.monitor



@enduml

PlantUML version 1.2019.05(Sat Apr 20 09:45:36 PDT 2019)
(GPL source distribution)
Java Runtime: Java(TM) SE Runtime Environment
JVM: Java HotSpot(TM) Client VM
Java Version: 1.8.0_271-b09
Operating System: Windows 10
OS Version: 10.0
Default Encoding: Cp1252
Language: en
Country: US
--></g></svg>