<?xml version="1.0" encoding="UTF-8" standalone="no"?><svg xmlns="http://www.w3.org/2000/svg" xmlns:xlink="http://www.w3.org/1999/xlink" contentScriptType="application/ecmascript" contentStyleType="text/css" height="261px" preserveAspectRatio="none" style="width:379px;height:261px;" version="1.1" viewBox="0 0 379 261" width="379px" zoomAndPan="magnify"><defs><filter height="300%" id="f1sddv1larfh84" width="300%" x="-1" y="-1"><feGaussianBlur result="blurOut" stdDeviation="2.0"/><feColorMatrix in="blurOut" result="blurOut2" type="matrix" values="0 0 0 0 0 0 0 0 0 0 0 0 0 0 0 0 0 0 .4 0"/><feOffset dx="4.0" dy="4.0" in="blurOut2" result="blurOut3"/><feBlend in="SourceGraphic" in2="blurOut3" mode="normal"/></filter></defs><g><!--cluster Software Defined Infrastructure--><polygon fill="#FFFFE0" filter="url(#f1sddv1larfh84)" points="90,42,318,42,325,65.6094,357,65.6094,357,158,90,158,90,42" style="stroke: #000000; stroke-width: 1.5;"/><line style="stroke: #000000; stroke-width: 1.5;" x1="90" x2="325" y1="65.6094" y2="65.6094"/><text fill="#000000" font-family="sans-serif" font-size="14" font-weight="bold" lengthAdjust="spacingAndGlyphs" textLength="222" x="94" y="58.5332">Software Defined Infrastructure</text><polygon fill="#BBBBBB" filter="url(#f1sddv1larfh84)" points="6,194,176,194,183,217.6094,190,217.6094,190,249.2188,6,249.2188,6,194" style="stroke: #000000; stroke-width: 1.5;"/><line style="stroke: #000000; stroke-width: 1.5;" x1="6" x2="183" y1="217.6094" y2="217.6094"/><text fill="#000000" font-family="sans-serif" font-size="14" font-weight="bold" lengthAdjust="spacingAndGlyphs" textLength="164" x="10" y="210.5332">Common Physical Layer</text><!--class i--><rect fill="#FEFECE" filter="url(#f1sddv1larfh84)" height="48" id="i" style="stroke: #A80036; stroke-width: 1.5;" width="200" x="133" y="86"/><ellipse cx="148" cy="102" fill="#B4A7E5" rx="11" ry="11" style="stroke: #A80036; stroke-width: 1.0;"/><path d="M148.9531,98.6406 L148.9531,105.2969 L150.6719,105.2969 Q151.2813,105.2969 151.5469,105.5313 Q151.8125,105.7656 151.8125,106.1563 Q151.8125,106.5313 151.5469,106.7656 Q151.2813,107 150.6719,107 L145.5313,107 Q144.9219,107 144.6563,106.7656 Q144.3906,106.5313 144.3906,106.1406 Q144.3906,105.7656 144.6563,105.5313 Q144.9219,105.2969 145.5313,105.2969 L147.25,105.2969 L147.25,98.6406 L145.5313,98.6406 Q144.9219,98.6406 144.6563,98.4063 Q144.3906,98.1719 144.3906,97.7813 Q144.3906,97.4063 144.6563,97.1719 Q144.9219,96.9375 145.5313,96.9375 L150.6719,96.9375 Q151.2813,96.9375 151.5469,97.1719 Q151.8125,97.4063 151.8125,97.7813 Q151.8125,98.1719 151.5469,98.4063 Q151.2813,98.6406 150.6719,98.6406 L148.9531,98.6406 Z "/><text fill="#000000" font-family="sans-serif" font-size="12" font-style="italic" lengthAdjust="spacingAndGlyphs" textLength="168" x="162" y="106.9102">Software Defined Infrastructure</text><line style="stroke: #A80036; stroke-width: 1.5;" x1="134" x2="332" y1="118" y2="118"/><line style="stroke: #A80036; stroke-width: 1.5;" x1="134" x2="332" y1="126" y2="126"/><ellipse cx="188" cy="13" fill="#FEFECE" filter="url(#f1sddv1larfh84)" rx="5" ry="5" style="stroke: #A80036; stroke-width: 1.5;"/><text fill="#000000" font-family="sans-serif" font-size="12" lengthAdjust="spacingAndGlyphs" textLength="19" x="178.5" y="30.457">CLI</text><ellipse cx="233" cy="13" fill="#FEFECE" filter="url(#f1sddv1larfh84)" rx="5" ry="5" style="stroke: #A80036; stroke-width: 1.5;"/><text fill="#000000" font-family="sans-serif" font-size="12" lengthAdjust="spacingAndGlyphs" textLength="32" x="217" y="30.457">REST</text><ellipse cx="278" cy="13" fill="#FEFECE" filter="url(#f1sddv1larfh84)" rx="5" ry="5" style="stroke: #A80036; stroke-width: 1.5;"/><text fill="#000000" font-family="sans-serif" font-size="12" lengthAdjust="spacingAndGlyphs" textLength="25" x="265.5" y="30.457">Web</text><!--link ilol5180 to i--><path d="M189.934,18.082 C195.384,29.589 211.182,62.941 222.049,85.882 " fill="none" id="ilol5180-i" style="stroke: #A80036; stroke-width: 1.0;"/><!--link ilol5183 to i--><path d="M233,18.082 C233,29.589 233,62.941 233,85.882 " fill="none" id="ilol5183-i" style="stroke: #A80036; stroke-width: 1.0;"/><!--link ilol5187 to i--><path d="M276.066,18.082 C270.616,29.589 254.818,62.941 243.951,85.882 " fill="none" id="ilol5187-i" style="stroke: #A80036; stroke-width: 1.0;"/><!--link Software Defined Infrastructure to Common Physical Layer--><path d="M98,158.2243 C98,158.3573 98,158.4903 98,158.6234 C98,159.1558 98,159.689 98,160.223 C98,161.2909 98,162.3617 98,163.4336 C98,172.0093 98,180.6608 98,188.5446 " fill="none" id="Software Defined Infrastructure-Common Physical Layer" style="stroke: #A80036; stroke-width: 1.0;"/><polygon fill="#A80036" points="98,193.8839,102,184.8839,98,188.8839,94,184.8839,98,193.8839" style="stroke: #A80036; stroke-width: 1.0;"/><!--
@startuml


package "Common Physical Layer" #bbbbbb {
    }


package "Software Defined Infrastructure" #lightyellow {

    interface "Software Defined Infrastructure" as i {
    
    }
}

CLI ()- - i
REST ()- - i
Web ()- - i

package "Software Defined Infrastructure" #lightyellow {
    
}


    "Software Defined Infrastructure" - -> "Common Physical Layer"


@enduml

PlantUML version 1.2019.05(Sat Apr 20 09:45:36 PDT 2019)
(GPL source distribution)
Java Runtime: Java(TM) SE Runtime Environment
JVM: Java HotSpot(TM) Client VM
Java Version: 1.8.0_271-b09
Operating System: Windows 10
OS Version: 10.0
Default Encoding: Cp1252
Language: en
Country: US
--></g></svg>