<?xml version="1.0" encoding="UTF-8" standalone="no"?><svg xmlns="http://www.w3.org/2000/svg" xmlns:xlink="http://www.w3.org/1999/xlink" contentScriptType="application/ecmascript" contentStyleType="text/css" height="364px" preserveAspectRatio="none" style="width:477px;height:364px;" version="1.1" viewBox="0 0 477 364" width="477px" zoomAndPan="magnify"><defs><filter height="300%" id="f3vl1ped7lqnj" width="300%" x="-1" y="-1"><feGaussianBlur result="blurOut" stdDeviation="2.0"/><feColorMatrix in="blurOut" result="blurOut2" type="matrix" values="0 0 0 0 0 0 0 0 0 0 0 0 0 0 0 0 0 0 .4 0"/><feOffset dx="4.0" dy="4.0" in="blurOut2" result="blurOut3"/><feBlend in="SourceGraphic" in2="blurOut3" mode="normal"/></filter></defs><g><!--cluster Software Defined Infrastructure--><polygon fill="#FFFFE0" filter="url(#f3vl1ped7lqnj)" points="90,118,318,118,325,141.6094,357,141.6094,357,234,90,234,90,118" style="stroke: #000000; stroke-width: 1.5;"/><line style="stroke: #000000; stroke-width: 1.5;" x1="90" x2="325" y1="141.6094" y2="141.6094"/><text fill="#000000" font-family="sans-serif" font-size="14" font-weight="bold" lengthAdjust="spacingAndGlyphs" textLength="222" x="94" y="134.5332">Software Defined Infrastructure</text><polygon fill="#BBBBBB" filter="url(#f3vl1ped7lqnj)" points="6,8,176,8,183,31.6094,190,31.6094,190,63.2188,6,63.2188,6,8" style="stroke: #000000; stroke-width: 1.5;"/><line style="stroke: #000000; stroke-width: 1.5;" x1="6" x2="183" y1="31.6094" y2="31.6094"/><text fill="#000000" font-family="sans-serif" font-size="14" font-weight="bold" lengthAdjust="spacingAndGlyphs" textLength="164" x="10" y="24.5332">Common Physical Layer</text><!--class i--><rect fill="#FEFECE" filter="url(#f3vl1ped7lqnj)" height="48" id="i" style="stroke: #A80036; stroke-width: 1.5;" width="200" x="133" y="162"/><ellipse cx="148" cy="178" fill="#B4A7E5" rx="11" ry="11" style="stroke: #A80036; stroke-width: 1.0;"/><path d="M148.9531,174.6406 L148.9531,181.2969 L150.6719,181.2969 Q151.2813,181.2969 151.5469,181.5313 Q151.8125,181.7656 151.8125,182.1563 Q151.8125,182.5313 151.5469,182.7656 Q151.2813,183 150.6719,183 L145.5313,183 Q144.9219,183 144.6563,182.7656 Q144.3906,182.5313 144.3906,182.1406 Q144.3906,181.7656 144.6563,181.5313 Q144.9219,181.2969 145.5313,181.2969 L147.25,181.2969 L147.25,174.6406 L145.5313,174.6406 Q144.9219,174.6406 144.6563,174.4063 Q144.3906,174.1719 144.3906,173.7813 Q144.3906,173.4063 144.6563,173.1719 Q144.9219,172.9375 145.5313,172.9375 L150.6719,172.9375 Q151.2813,172.9375 151.5469,173.1719 Q151.8125,173.4063 151.8125,173.7813 Q151.8125,174.1719 151.5469,174.4063 Q151.2813,174.6406 150.6719,174.6406 L148.9531,174.6406 Z "/><text fill="#000000" font-family="sans-serif" font-size="12" font-style="italic" lengthAdjust="spacingAndGlyphs" textLength="168" x="162" y="182.9102">Software Defined Infrastructure</text><line style="stroke: #A80036; stroke-width: 1.5;" x1="134" x2="332" y1="194" y2="194"/><line style="stroke: #A80036; stroke-width: 1.5;" x1="134" x2="332" y1="202" y2="202"/><!--entity REST--><ellipse cx="144" cy="319" fill="#FEFECE" filter="url(#f3vl1ped7lqnj)" rx="8" ry="8" style="stroke: #A80036; stroke-width: 2.0;"/><text fill="#000000" font-family="sans-serif" font-size="14" lengthAdjust="spacingAndGlyphs" textLength="37" x="125.5" y="350.5332">REST</text><!--entity Web--><ellipse cx="233" cy="319" fill="#FEFECE" filter="url(#f3vl1ped7lqnj)" rx="8" ry="8" style="stroke: #A80036; stroke-width: 2.0;"/><text fill="#000000" font-family="sans-serif" font-size="14" lengthAdjust="spacingAndGlyphs" textLength="29" x="218.5" y="350.5332">Web</text><!--entity CLI--><ellipse cx="322" cy="319" fill="#FEFECE" filter="url(#f3vl1ped7lqnj)" rx="8" ry="8" style="stroke: #A80036; stroke-width: 2.0;"/><text fill="#000000" font-family="sans-serif" font-size="14" lengthAdjust="spacingAndGlyphs" textLength="21" x="311.5" y="350.5332">CLI</text><!--entity WebSocket--><ellipse cx="429" cy="186" fill="#FEFECE" filter="url(#f3vl1ped7lqnj)" rx="8" ry="8" style="stroke: #A80036; stroke-width: 2.0;"/><text fill="#000000" font-family="sans-serif" font-size="14" lengthAdjust="spacingAndGlyphs" textLength="72" x="393" y="217.5332">WebSocket</text><!--link i to Web--><path d="M233,210.119 C233,239.94 233,290.3024 233,309.8772 " fill="none" id="i-Web" style="stroke: #A80036; stroke-width: 1.0;"/><!--link i to CLI--><path d="M248.707,210.119 C268.967,239.94 303.183,290.3024 316.481,309.8772 " fill="none" id="i-CLI" style="stroke: #A80036; stroke-width: 1.0;"/><!--link i to REST--><path d="M217.293,210.119 C197.033,239.94 162.817,290.3024 149.519,309.8772 " fill="none" id="i-REST" style="stroke: #A80036; stroke-width: 1.0;"/><!--link i to WebSocket--><path d="M333.01,186 C368.495,186 403.63,186 419.791,186 " fill="none" id="i-WebSocket" style="stroke: #A80036; stroke-width: 1.0;"/><polygon fill="#000000" points="358.5,172.6758,352.5,175.6758,358.5,178.6758,358.5,172.6758" style="stroke: #000000; stroke-width: 1.0;"/><text fill="#000000" font-family="sans-serif" font-size="13" lengthAdjust="spacingAndGlyphs" textLength="37" x="364.5" y="179.4951">events</text><!--link Common Physical Layer to Software Defined Infrastructure--><path d="M98,68.132 C98,78.8568 98,91.3751 98,104.156 C98,107.3513 98,110.5629 98,113.7671 C98,114.5681 98,115.3687 98,116.1684 C98,116.5683 98,116.9679 98,117.3673 C98,117.567 98,117.7667 98,117.9662 " fill="none" id="Common Physical Layer-Software Defined Infrastructure" style="stroke: #A80036; stroke-width: 1.0;"/><polygon fill="#A80036" points="98,63.049,94,72.049,98,68.049,102,72.049,98,63.049" style="stroke: #A80036; stroke-width: 1.0;"/><!--
@startuml


package "Common Physical Layer" #bbbbbb {

}


package "Software Defined Infrastructure" #lightyellow {

    interface "Software Defined Infrastructure" as i {
    
    
    }
}

circle REST
circle Web
circle CLI
circle WebSocket

i -down- Web
i -down- CLI
i -down- REST
WebSocket -left- i: events >

package "Software Defined Infrastructure" #lightyellow {


}


    "Common Physical Layer" <- - "Software Defined Infrastructure"


@enduml

PlantUML version 1.2019.05(Sat Apr 20 09:45:36 PDT 2019)
(GPL source distribution)
Java Runtime: Java(TM) SE Runtime Environment
JVM: Java HotSpot(TM) Client VM
Java Version: 1.8.0_271-b09
Operating System: Windows 10
OS Version: 10.0
Default Encoding: Cp1252
Language: en
Country: US
--></g></svg>