<?xml version="1.0" encoding="UTF-8" standalone="no"?><svg xmlns="http://www.w3.org/2000/svg" xmlns:xlink="http://www.w3.org/1999/xlink" contentScriptType="application/ecmascript" contentStyleType="text/css" height="224px" preserveAspectRatio="none" style="width:326px;height:224px;" version="1.1" viewBox="0 0 326 224" width="326px" zoomAndPan="magnify"><defs><filter height="300%" id="fnvbks2mdmhfo" width="300%" x="-1" y="-1"><feGaussianBlur result="blurOut" stdDeviation="2.0"/><feColorMatrix in="blurOut" result="blurOut2" type="matrix" values="0 0 0 0 0 0 0 0 0 0 0 0 0 0 0 0 0 0 .4 0"/><feOffset dx="4.0" dy="4.0" in="blurOut2" result="blurOut3"/><feBlend in="SourceGraphic" in2="blurOut3" mode="normal"/></filter></defs><g><!--entity DataChannel--><rect fill="#ADD8E6" filter="url(#fnvbks2mdmhfo)" height="37.6094" style="stroke: #000000; stroke-width: 1.5;" width="103" x="212" y="176"/><text fill="#000000" font-family="sans-serif" font-size="14" lengthAdjust="spacingAndGlyphs" textLength="83" x="222" y="200.5332">DataChannel</text><!--entity ChannelActivationPolicy--><rect fill="#90EE90" filter="url(#fnvbks2mdmhfo)" height="37.6094" style="stroke: #000000; stroke-width: 1.5;" width="171" x="6" y="176"/><text fill="#000000" font-family="sans-serif" font-size="14" lengthAdjust="spacingAndGlyphs" textLength="151" x="16" y="200.5332">ChannelActivationPolicy</text><!--class Model--><rect fill="#FEFECE" filter="url(#fnvbks2mdmhfo)" height="89.5078" id="Model" style="stroke: #A80036; stroke-width: 1.5;" width="154" x="92.5" y="8"/><ellipse cx="107.5" cy="24" fill="#ADD1B2" rx="11" ry="11" style="stroke: #A80036; stroke-width: 1.0;"/><path d="M110.2656,19.875 Q110.4219,19.6563 110.6094,19.5469 Q110.7969,19.4375 111.0156,19.4375 Q111.3906,19.4375 111.625,19.6953 Q111.8594,19.9531 111.8594,20.5625 L111.8594,22.0156 Q111.8594,22.625 111.625,22.8906 Q111.3906,23.1563 111.0156,23.1563 Q110.6719,23.1563 110.4688,22.9531 Q110.2656,22.7656 110.1563,22.25 Q110.1094,21.8906 109.9219,21.7031 Q109.5938,21.3281 108.9844,21.1094 Q108.375,20.8906 107.75,20.8906 Q106.9844,20.8906 106.3516,21.2188 Q105.7188,21.5469 105.2266,22.2969 Q104.7344,23.0469 104.7344,24.0781 L104.7344,25.1719 Q104.7344,26.4063 105.625,27.2266 Q106.5156,28.0469 108.1094,28.0469 Q109.0469,28.0469 109.7031,27.7969 Q110.0938,27.6406 110.5156,27.2031 Q110.7813,26.9375 110.9297,26.8594 Q111.0781,26.7813 111.2813,26.7813 Q111.6094,26.7813 111.8672,27.0391 Q112.125,27.2969 112.125,27.6406 Q112.125,27.9844 111.7813,28.3906 Q111.2813,28.9688 110.4844,29.2969 Q109.4063,29.75 108.1094,29.75 Q106.5938,29.75 105.3906,29.125 Q104.4063,28.625 103.7188,27.5547 Q103.0313,26.4844 103.0313,25.2031 L103.0313,24.0469 Q103.0313,22.7188 103.6484,21.5703 Q104.2656,20.4219 105.3594,19.8047 Q106.4531,19.1875 107.6875,19.1875 Q108.4219,19.1875 109.0703,19.3516 Q109.7188,19.5156 110.2656,19.875 Z "/><text fill="#000000" font-family="sans-serif" font-size="12" lengthAdjust="spacingAndGlyphs" textLength="122" x="121.5" y="28.9102">ChannelActivationItem</text><line style="stroke: #A80036; stroke-width: 1.5;" x1="93.5" x2="245.5" y1="40" y2="40"/><text fill="#000000" font-family="sans-serif" font-size="11" lengthAdjust="spacingAndGlyphs" textLength="56" x="98.5" y="55.4189">string name</text><text fill="#000000" font-family="sans-serif" font-size="11" lengthAdjust="spacingAndGlyphs" textLength="72" x="98.5" y="69.2549">number priority</text><text fill="#000000" font-family="sans-serif" font-size="11" lengthAdjust="spacingAndGlyphs" textLength="85" x="98.5" y="83.0908">boolean activated</text><line style="stroke: #A80036; stroke-width: 1.5;" x1="93.5" x2="245.5" y1="89.5078" y2="89.5078"/><!--link Model to DataChannel--><path d="M206.659,109.343 C219.473,128.4281 233.309,149.0353 244.122,165.1396 " fill="none" id="Model-DataChannel" style="stroke: #A80036; stroke-width: 1.0;"/><polygon fill="#A80036" points="251.404,175.9841,249.7079,166.2824,248.6168,171.833,243.0662,170.7419,251.404,175.9841" style="stroke: #A80036; stroke-width: 1.0;"/><line style="stroke: #A80036; stroke-width: 1.0;" x1="248.6168" x2="244.1565" y1="171.833" y2="165.1912"/><polygon fill="#FFFFFF" points="199.242,98.297,199.266,105.5081,205.9315,108.2594,205.9076,101.0484,199.242,98.297" style="stroke: #A80036; stroke-width: 1.0;"/><text fill="#000000" font-family="sans-serif" font-size="13" lengthAdjust="spacingAndGlyphs" textLength="45" x="230.5" y="142.4951">channel</text><text fill="#000000" font-family="sans-serif" font-size="13" lengthAdjust="spacingAndGlyphs" textLength="7" x="239.4328" y="164.9862">1</text><!--link Model to ChannelActivationPolicy--><path d="M100.5066,108.089 C95.7381,114.3105 91.6014,120.9659 88.5,128 C83.7627,138.7446 83.294,151.4504 84.4376,162.8306 " fill="none" id="Model-ChannelActivationPolicy" style="stroke: #A80036; stroke-width: 1.0;"/><polygon fill="#A80036" points="86.4535,175.8336,89.0273,166.327,85.6874,170.8926,81.1217,167.5528,86.4535,175.8336" style="stroke: #A80036; stroke-width: 1.0;"/><line style="stroke: #A80036; stroke-width: 1.0;" x1="85.6874" x2="84.4618" y1="170.8926" y2="162.9871"/><polygon fill="#FFFFFF" points="109.057,98.039,102.1224,100.0169,101.281,107.1787,108.2156,105.2008,109.057,98.039" style="stroke: #A80036; stroke-width: 1.0;"/><text fill="#000000" font-family="sans-serif" font-size="13" lengthAdjust="spacingAndGlyphs" textLength="36" x="89.5" y="142.4951">parent</text><text fill="#000000" font-family="sans-serif" font-size="13" lengthAdjust="spacingAndGlyphs" textLength="7" x="76.8361" y="165.1227">1</text><!--link ChannelActivationPolicy to Model--><path d="M116.956,165.3273 C121.786,159.1798 126.556,152.5553 130.5,146 C137.138,134.9674 143.205,122.5991 148.474,110.597 " fill="none" id="ChannelActivationPolicy-Model" style="stroke: #A80036; stroke-width: 1.0;"/><polygon fill="#A80036" points="153.667,98.293,146.4826,105.0297,151.723,102.8996,153.8532,108.1401,153.667,98.293" style="stroke: #A80036; stroke-width: 1.0;"/><line style="stroke: #A80036; stroke-width: 1.0;" x1="151.723" x2="148.612" y1="102.8996" y2="110.27"/><polygon fill="#A80036" points="108.362,175.7594,115.2643,173.6717,115.9919,166.4974,109.0896,168.5851,108.362,175.7594" style="stroke: #A80036; stroke-width: 1.0;"/><text fill="#000000" font-family="sans-serif" font-size="13" lengthAdjust="spacingAndGlyphs" textLength="52" x="140.5" y="142.4951">channels</text><text fill="#000000" font-family="sans-serif" font-size="13" lengthAdjust="spacingAndGlyphs" textLength="7" x="144.0691" y="119.0061">n</text><!--
@startuml

class "ChannelActivationItem" as Model {
 string name
 number priority
 boolean activated

 
}

rectangle "DataChannel" as DataChannel #lightblue {
}

Model o- -> "1" DataChannel : channel


rectangle "ChannelActivationPolicy" as ChannelActivationPolicy #lightblue {
}

Model o- -> "1" ChannelActivationPolicy : parent




    rectangle "ChannelActivationPolicy" as ChannelActivationPolicy #lightgreen {
    }
    
        ChannelActivationPolicy   *- -> "n" Model : "channels"
    

@enduml

PlantUML version 1.2019.05(Sat Apr 20 09:45:36 PDT 2019)
(GPL source distribution)
Java Runtime: Java(TM) SE Runtime Environment
JVM: Java HotSpot(TM) Client VM
Java Version: 1.8.0_271-b09
Operating System: Windows 10
OS Version: 10.0
Default Encoding: Cp1252
Language: en
Country: US
--></g></svg>