<?xml version="1.0" encoding="us-ascii" standalone="no"?><svg xmlns="http://www.w3.org/2000/svg" xmlns:xlink="http://www.w3.org/1999/xlink" contentStyleType="text/css" height="229px" preserveAspectRatio="none" style="width:322px;height:229px;background:#FFFFFF;" version="1.1" viewBox="0 0 322 229" width="322px" zoomAndPan="magnify"><defs/><g><!--entity DataChannel--><g id="elem_DataChannel"><rect fill="#ADD8E6" height="37.6094" rx="2.5" ry="2.5" style="stroke:#181818;stroke-width:0.5;" width="103" x="213" y="186"/><text fill="#000000" font-family="sans-serif" font-size="14" lengthAdjust="spacing" textLength="83" x="223" y="210.5332">DataChannel</text></g><!--entity ChannelActivationPolicy--><g id="elem_ChannelActivationPolicy"><rect fill="#90EE90" height="37.6094" rx="2.5" ry="2.5" style="stroke:#181818;stroke-width:0.5;" width="171" x="7" y="186"/><text fill="#000000" font-family="sans-serif" font-size="14" lengthAdjust="spacing" textLength="151" x="17" y="210.5332">ChannelActivationPolicy</text></g><!--class Model--><g id="elem_Model"><rect codeLine="2" fill="#F1F1F1" height="100.8281" id="Model" rx="2.5" ry="2.5" style="stroke:#181818;stroke-width:0.5;" width="172" x="84.5" y="7"/><ellipse cx="99.5" cy="23" fill="#ADD1B2" rx="11" ry="11" style="stroke:#181818;stroke-width:1.0;"/><path d="M102.2656,18.875 Q102.4219,18.6563 102.6094,18.5469 Q102.7969,18.4375 103.0156,18.4375 Q103.3906,18.4375 103.625,18.6953 Q103.8594,18.9531 103.8594,19.5625 L103.8594,21.0156 Q103.8594,21.625 103.625,21.8906 Q103.3906,22.1563 103.0156,22.1563 Q102.6719,22.1563 102.4688,21.9531 Q102.2656,21.7656 102.1563,21.25 Q102.1094,20.8906 101.9219,20.7031 Q101.5938,20.3281 100.9844,20.1094 Q100.375,19.8906 99.75,19.8906 Q98.9844,19.8906 98.3516,20.2188 Q97.7188,20.5469 97.2266,21.2969 Q96.7344,22.0469 96.7344,23.0781 L96.7344,24.1719 Q96.7344,25.4063 97.625,26.2266 Q98.5156,27.0469 100.1094,27.0469 Q101.0469,27.0469 101.7031,26.7969 Q102.0938,26.6406 102.5156,26.2031 Q102.7813,25.9375 102.9297,25.8594 Q103.0781,25.7813 103.2813,25.7813 Q103.6094,25.7813 103.8672,26.0391 Q104.125,26.2969 104.125,26.6406 Q104.125,26.9844 103.7813,27.3906 Q103.2813,27.9688 102.4844,28.2969 Q101.4063,28.75 100.1094,28.75 Q98.5938,28.75 97.3906,28.125 Q96.4063,27.625 95.7188,26.5547 Q95.0313,25.4844 95.0313,24.2031 L95.0313,23.0469 Q95.0313,21.7188 95.6484,20.5703 Q96.2656,19.4219 97.3594,18.8047 Q98.4531,18.1875 99.6875,18.1875 Q100.4219,18.1875 101.0703,18.3516 Q101.7188,18.5156 102.2656,18.875 Z " fill="#000000"/><text fill="#000000" font-family="sans-serif" font-size="14" lengthAdjust="spacing" textLength="140" x="113.5" y="28.7285">ChannelActivationItem</text><line style="stroke:#181818;stroke-width:0.5;" x1="85.5" x2="255.5" y1="39" y2="39"/><text fill="#000000" font-family="sans-serif" font-size="14" lengthAdjust="spacing" textLength="74" x="90.5" y="57.5332">string name</text><text fill="#000000" font-family="sans-serif" font-size="14" lengthAdjust="spacing" textLength="95" x="90.5" y="75.1426">number priority</text><text fill="#000000" font-family="sans-serif" font-size="14" lengthAdjust="spacing" textLength="112" x="90.5" y="92.752">boolean activated</text><line style="stroke:#181818;stroke-width:0.5;" x1="85.5" x2="255.5" y1="99.8281" y2="99.8281"/></g><!--link Model to DataChannel--><g id="link_Model_DataChannel"><path codeLine="13" d="M209.1036,118.2484 C226.4436,145.0784 237.0224,161.4813 249.5324,180.8313 " fill="none" id="Model-DataChannel" style="stroke:#181818;stroke-width:1.0;"/><polygon fill="none" points="202.59,108.17,202.4873,115.3804,209.1036,118.2484,209.2062,111.038,202.59,108.17" style="stroke:#181818;stroke-width:1.0;"/><polygon fill="#181818" points="252.79,185.87,251.2628,176.1403,250.0754,181.6711,244.5445,180.4837,252.79,185.87" style="stroke:#181818;stroke-width:1.0;"/><text fill="#000000" font-family="sans-serif" font-size="13" lengthAdjust="spacing" textLength="45" x="231.5" y="152.4951">channel</text><text fill="#000000" font-family="sans-serif" font-size="13" lengthAdjust="spacing" textLength="7" x="241.1319" y="175.1702">1</text></g><!--link Model to ChannelActivationPolicy--><g id="link_Model_ChannelActivationPolicy"><path codeLine="19" d="M100.6497,117.3745 C92.9597,126.4245 94,127.28 89.5,138 C83.11,153.23 83.6783,166.3275 86.4283,180.0175 " fill="none" id="Model-ChannelActivationPolicy" style="stroke:#181818;stroke-width:1.0;"/><polygon fill="none" points="108.42,108.23,101.4867,110.2122,100.6497,117.3745,107.583,115.3924,108.42,108.23" style="stroke:#181818;stroke-width:1.0;"/><polygon fill="#181818" points="87.61,185.9,89.7592,176.2885,86.6253,180.9979,81.9159,177.864,87.61,185.9" style="stroke:#181818;stroke-width:1.0;"/><text fill="#000000" font-family="sans-serif" font-size="13" lengthAdjust="spacing" textLength="36" x="90.5" y="152.4951">parent</text><text fill="#000000" font-family="sans-serif" font-size="13" lengthAdjust="spacing" textLength="7" x="78.0406" y="175.2094">1</text></g><!--link ChannelActivationPolicy to Model--><g id="link_ChannelActivationPolicy_Model"><path codeLine="27" d="M117.3043,176.7388 C124.7243,168.1488 125.3,166.55 131.5,156 C140.23,141.15 145.66,129.5638 151.77,113.8138 " fill="none" id="ChannelActivationPolicy-Model" style="stroke:#181818;stroke-width:1.0;"/><polygon fill="#181818" points="109.46,185.82,116.4092,183.8942,117.3043,176.7388,110.3551,178.6647,109.46,185.82" style="stroke:#181818;stroke-width:1.0;"/><polygon fill="#181818" points="153.94,108.22,146.9557,115.164,152.1316,112.8815,154.4141,118.0574,153.94,108.22" style="stroke:#181818;stroke-width:1.0;"/><text fill="#000000" font-family="sans-serif" font-size="13" lengthAdjust="spacing" textLength="52" x="141.5" y="152.4951">channels</text><text fill="#000000" font-family="sans-serif" font-size="13" lengthAdjust="spacing" textLength="7" x="144.3698" y="129.2721">n</text></g><!--SRC=[hP6nYiCm44Jx_Of1wG8fhdKH2BacHU1-OQqiZa1U1MaT24V-_MpPHS9Xhhaf5WbfvgrMFd8fSCShgqeyU0jtjf3qPD8xSC4vNIJYcr0i1-sWt0j1XxwLZ5iEAGTx4DgKeh22vmIv486UH5cyiNPHu3xPUE7Kv9SzDZ5qLslZ82DgjCtKjDljuJxSszK6VbxHM_gl5tob6FoZabRE_gAksHhSE8iQJSAeVscZoo8w3NhKizPQ9gqPWMtjLTtoJGtSCfpYveWV]--></g></svg>