<?xml version="1.0" encoding="UTF-8" standalone="no"?><svg xmlns="http://www.w3.org/2000/svg" xmlns:xlink="http://www.w3.org/1999/xlink" contentScriptType="application/ecmascript" contentStyleType="text/css" height="685px" preserveAspectRatio="none" style="width:412px;height:685px;" version="1.1" viewBox="0 0 412 685" width="412px" zoomAndPan="magnify"><defs><filter height="300%" id="fggsd0z48xkph" width="300%" x="-1" y="-1"><feGaussianBlur result="blurOut" stdDeviation="2.0"/><feColorMatrix in="blurOut" result="blurOut2" type="matrix" values="0 0 0 0 0 0 0 0 0 0 0 0 0 0 0 0 0 0 .4 0"/><feOffset dx="4.0" dy="4.0" in="blurOut2" result="blurOut3"/><feBlend in="SourceGraphic" in2="blurOut3" mode="normal"/></filter></defs><g><!--cluster DevSecOpsManager--><polygon fill="#00AAFF" filter="url(#fggsd0z48xkph)" points="111.625,84,261.625,84,268.625,107.6094,390.625,107.6094,390.625,673,111.625,673,111.625,84" style="stroke: #000000; stroke-width: 1.5;"/><line style="stroke: #000000; stroke-width: 1.5;" x1="111.625" x2="268.625" y1="107.6094" y2="107.6094"/><text fill="#000000" font-family="sans-serif" font-size="14" font-weight="bold" lengthAdjust="spacingAndGlyphs" textLength="144" x="115.625" y="100.5332">DevSecOpsManager</text><!--cluster bin--><polygon fill="#FFFFFF" filter="url(#fggsd0z48xkph)" points="135.625,128,163.625,128,170.625,151.6094,279.625,151.6094,279.625,218,135.625,218,135.625,128" style="stroke: #000000; stroke-width: 1.5;"/><line style="stroke: #000000; stroke-width: 1.5;" x1="135.625" x2="170.625" y1="151.6094" y2="151.6094"/><text fill="#000000" font-family="sans-serif" font-size="14" font-weight="bold" lengthAdjust="spacingAndGlyphs" textLength="22" x="139.625" y="144.5332">bin</text><!--cluster deploy--><polygon fill="#FFFFFF" filter="url(#fggsd0z48xkph)" points="135.625,324,188.625,324,195.625,347.6094,358.625,347.6094,358.625,431,135.625,431,135.625,324" style="stroke: #000000; stroke-width: 1.5;"/><line style="stroke: #000000; stroke-width: 1.5;" x1="135.625" x2="195.625" y1="347.6094" y2="347.6094"/><text fill="#000000" font-family="sans-serif" font-size="14" font-weight="bold" lengthAdjust="spacingAndGlyphs" textLength="47" x="139.625" y="340.5332">deploy</text><!--cluster images--><polygon fill="#FFFFFF" filter="url(#fggsd0z48xkph)" points="157.625,455,213.625,455,220.625,478.6094,366.625,478.6094,366.625,649,157.625,649,157.625,455" style="stroke: #000000; stroke-width: 1.5;"/><line style="stroke: #000000; stroke-width: 1.5;" x1="157.625" x2="220.625" y1="478.6094" y2="478.6094"/><text fill="#000000" font-family="sans-serif" font-size="14" font-weight="bold" lengthAdjust="spacingAndGlyphs" textLength="50" x="161.625" y="471.5332">images</text><!--entity REST--><rect fill="#FEFECE" filter="url(#fggsd0z48xkph)" height="37.6094" style="stroke: #A80036; stroke-width: 1.5;" width="69" x="172.125" y="262"/><rect fill="#FEFECE" height="5" style="stroke: #A80036; stroke-width: 1.5;" width="10" x="167.125" y="267"/><rect fill="#FEFECE" height="5" style="stroke: #A80036; stroke-width: 1.5;" width="10" x="167.125" y="289.6094"/><text fill="#000000" font-family="sans-serif" font-size="14" lengthAdjust="spacingAndGlyphs" textLength="49" x="182.125" y="286.5332">express</text><!--entity socket--><rect fill="#FEFECE" filter="url(#fggsd0z48xkph)" height="37.6094" style="stroke: #A80036; stroke-width: 1.5;" width="76" x="298.625" y="164"/><rect fill="#FEFECE" height="5" style="stroke: #A80036; stroke-width: 1.5;" width="10" x="293.625" y="169"/><rect fill="#FEFECE" height="5" style="stroke: #A80036; stroke-width: 1.5;" width="10" x="293.625" y="191.6094"/><text fill="#000000" font-family="sans-serif" font-size="14" lengthAdjust="spacingAndGlyphs" textLength="56" x="308.625" y="188.5332">socket.io</text><!--entity binName--><rect fill="#FEFECE" filter="url(#fggsd0z48xkph)" height="37.6094" style="stroke: #A80036; stroke-width: 1.5;" width="112" x="151.625" y="164"/><rect fill="#FEFECE" height="5" style="stroke: #A80036; stroke-width: 1.5;" width="10" x="146.625" y="169"/><rect fill="#FEFECE" height="5" style="stroke: #A80036; stroke-width: 1.5;" width="10" x="146.625" y="191.6094"/><text fill="#000000" font-family="sans-serif" font-size="14" lengthAdjust="spacingAndGlyphs" textLength="92" x="161.625" y="188.5332">sabr aml dsom</text><!--entity devops_container--><polygon fill="#FEFECE" filter="url(#fggsd0z48xkph)" points="151.625,360,151.625,415.2188,261.625,415.2188,261.625,370,251.625,360,151.625,360" style="stroke: #000000; stroke-width: 1.5;"/><path d="M251.625,360 L251.625,370 L261.625,370 " fill="#FEFECE" style="stroke: #000000; stroke-width: 1.5;"/><text fill="#000000" font-family="sans-serif" font-size="14" lengthAdjust="spacingAndGlyphs" textLength="90" x="161.625" y="384.5332">node server.js</text><text fill="#000000" font-family="sans-serif" font-size="14" lengthAdjust="spacingAndGlyphs" textLength="0" x="165.625" y="402.1426"/><!--entity web_container--><polygon fill="#FEFECE" filter="url(#fggsd0z48xkph)" points="297.125,368.5,297.125,406.1094,342.125,406.1094,342.125,378.5,332.125,368.5,297.125,368.5" style="stroke: #000000; stroke-width: 1.5;"/><path d="M332.125,368.5 L332.125,378.5 L342.125,378.5 " fill="#FEFECE" style="stroke: #000000; stroke-width: 1.5;"/><text fill="#000000" font-family="sans-serif" font-size="14" lengthAdjust="spacingAndGlyphs" textLength="25" x="307.125" y="393.0332">web</text><!--entity devopsimage--><rect fill="#FEFECE" filter="url(#fggsd0z48xkph)" height="33.6094" style="stroke: #000000; stroke-width: 1.5;" width="62" x="177.625" y="496.5"/><rect fill="#FEFECE" height="33.6094" style="stroke: #000000; stroke-width: 1.5;" width="62" x="173.625" y="492.5"/><text fill="#000000" font-family="sans-serif" font-size="14" lengthAdjust="spacingAndGlyphs" textLength="46" x="181.625" y="515.0332">devops</text><!--entity ailtireswarm--><rect fill="#FEFECE" filter="url(#fggsd0z48xkph)" height="40.6094" style="stroke: #000000; stroke-width: 1.5;" width="108" x="173.625" y="592"/><polygon fill="#FEFECE" points="264.625,597,264.625,611,276.625,611,276.625,603,270.625,597,264.625,597" style="stroke: #000000; stroke-width: 1.5;"/><line style="stroke: #000000; stroke-width: 1.5;" x1="270.625" x2="270.625" y1="597" y2="603"/><line style="stroke: #000000; stroke-width: 1.5;" x1="276.625" x2="270.625" y1="603" y2="603"/><text fill="#000000" font-family="sans-serif" font-size="14" lengthAdjust="spacingAndGlyphs" textLength="78" x="183.625" y="619.5332">ailtire:swarm</text><!--entity devops--><rect fill="#FEFECE" filter="url(#fggsd0z48xkph)" height="40.6094" style="stroke: #000000; stroke-width: 1.5;" width="76" x="274.625" y="491"/><polygon fill="#FEFECE" points="333.625,496,333.625,510,345.625,510,345.625,502,339.625,496,333.625,496" style="stroke: #000000; stroke-width: 1.5;"/><line style="stroke: #000000; stroke-width: 1.5;" x1="339.625" x2="339.625" y1="496" y2="502"/><line style="stroke: #000000; stroke-width: 1.5;" x1="345.625" x2="339.625" y1="502" y2="502"/><text fill="#000000" font-family="sans-serif" font-size="14" lengthAdjust="spacingAndGlyphs" textLength="46" x="284.625" y="518.5332">devops</text><!--entity CLI--><ellipse cx="207.625" cy="38" fill="#FEFECE" filter="url(#fggsd0z48xkph)" rx="8" ry="8" style="stroke: #A80036; stroke-width: 2.0;"/><text fill="#000000" font-family="sans-serif" font-size="14" lengthAdjust="spacingAndGlyphs" textLength="21" x="197.125" y="69.5332">CLI</text><!--entity Web--><ellipse cx="86.625" cy="281" fill="#FEFECE" filter="url(#fggsd0z48xkph)" rx="8" ry="8" style="stroke: #A80036; stroke-width: 2.0;"/><text fill="#000000" font-family="sans-serif" font-size="14" lengthAdjust="spacingAndGlyphs" textLength="29" x="72.125" y="312.5332">Web</text><!--entity WebSocket--><ellipse cx="336.625" cy="38" fill="#FEFECE" filter="url(#fggsd0z48xkph)" rx="8" ry="8" style="stroke: #A80036; stroke-width: 2.0;"/><text fill="#000000" font-family="sans-serif" font-size="14" lengthAdjust="spacingAndGlyphs" textLength="72" x="300.625" y="69.5332">WebSocket</text><!--link binName to REST--><path d="M207.437,202.057 C207.276,217.513 207.043,239.865 206.868,256.673 " fill="none" id="binName-REST" style="stroke: #A80036; stroke-width: 1.0;"/><polygon fill="#A80036" points="206.816,261.698,210.9084,252.7396,206.8674,256.6983,202.9088,252.6573,206.816,261.698" style="stroke: #A80036; stroke-width: 1.0;"/><!--link REST to devops_container--><path d="M206.625,300.203 C206.625,315.147 206.625,336.673 206.625,354.487 " fill="none" id="REST-devops_container" style="stroke: #A80036; stroke-width: 1.0;"/><polygon fill="#A80036" points="206.625,359.885,210.625,350.885,206.625,354.885,202.625,350.885,206.625,359.885" style="stroke: #A80036; stroke-width: 1.0;"/><!--link REST to web_container--><path d="M241.43,293.443 C254.165,298.844 268.034,306.278 278.625,316 C292.87,329.075 303.584,348.262 310.481,363.32 " fill="none" id="REST-web_container" style="stroke: #A80036; stroke-width: 1.0;"/><polygon fill="#A80036" points="312.673,368.253,312.675,358.4041,310.6432,363.6835,305.3638,361.6518,312.673,368.253" style="stroke: #A80036; stroke-width: 1.0;"/><!--link socket to web_container--><path d="M335.086,202.328 C331.989,239.225 325.006,322.407 321.586,363.138 " fill="none" id="socket-web_container" style="stroke: #A80036; stroke-width: 1.0;"/><polygon fill="#A80036" points="321.148,368.36,325.8873,359.7264,321.5665,363.3775,317.9154,359.0568,321.148,368.36" style="stroke: #A80036; stroke-width: 1.0;"/><!--link devopsimage to ailtireswarm--><path d="M214.664,550.398 C217.655,564.499 220.929,579.932 223.438,591.7594 " fill="none" id="devopsimage-ailtireswarm" style="stroke: #A80036; stroke-width: 1.0;"/><polygon fill="none" points="207.779,551.675,210.477,530.658,221.475,548.77,207.779,551.675" style="stroke: #A80036; stroke-width: 1.0;"/><!--link devops_container to devopsimage--><path d="M206.625,415.273 C206.625,436.871 206.625,466.931 206.625,487.465 " fill="none" id="devops_container-devopsimage" style="stroke: #A80036; stroke-width: 1.0;"/><polygon fill="#A80036" points="206.625,492.469,210.625,483.469,206.625,487.469,202.625,483.469,206.625,492.469" style="stroke: #A80036; stroke-width: 1.0;"/><!--link web_container to devops--><path d="M318.592,406.502 C317.39,427.453 315.398,462.173 314.049,485.676 " fill="none" id="web_container-devops" style="stroke: #A80036; stroke-width: 1.0;"/><polygon fill="#A80036" points="313.755,490.805,318.2651,482.0495,314.0421,485.8132,310.2783,481.5902,313.755,490.805" style="stroke: #A80036; stroke-width: 1.0;"/><!--link CLI to binName--><path d="M207.625,47.098 C207.625,69.432 207.625,132.318 207.625,163.705 " fill="none" id="CLI-binName" style="stroke: #A80036; stroke-width: 1.0;"/><text fill="#000000" font-family="sans-serif" font-size="13" lengthAdjust="spacingAndGlyphs" textLength="86" x="104.4688" y="45.0787">sabr aml dsom</text><!--link Web to REST--><path d="M96,281 C121.352,281 146.703,281 172.055,281 " fill="none" id="Web-REST" style="stroke: #A80036; stroke-width: 1.0;"/><text fill="#000000" font-family="sans-serif" font-size="13" lengthAdjust="spacingAndGlyphs" textLength="90" x="-20.2734" y="272.7248">/sabr/aml/dsom</text><!--link WebSocket to socket--><path d="M336.625,47.098 C336.625,69.432 336.625,132.318 336.625,163.705 " fill="none" id="WebSocket-socket" style="stroke: #A80036; stroke-width: 1.0;"/><text fill="#000000" font-family="sans-serif" font-size="13" lengthAdjust="spacingAndGlyphs" textLength="90" x="229.4688" y="45.0787">.sabr.aml.dsom</text><!--
@startuml
  interface CLI
  interface Web
  interface WebSocket
package "DevSecOpsManager" #00aaff {
  component express as REST
  component socket.io as socket
  folder bin #ffffff {
    component " sabr aml dsom" as binName
  }
  binName - -> REST

  folder deploy #ffffff {
      file "node server.js\n" as devops_container
      REST - -> devops_container

  
    file "web" as web_container
    REST - -> web_container
    socket - - -> web_container
  
  }
  folder images #ffffff {
    collections "devops" as devopsimage
    artifact "ailtire:swarm" as ailtireswarm
    devopsimage <|- - ailtireswarm
    devops_container - -> devopsimage

  
      artifact "devops" as devops
      web_container - -> devops
    
  }
}
CLI " sabr aml dsom" - - binName
Web "/sabr/aml/dsom" - REST
WebSocket ".sabr.aml.dsom" - - socket

@enduml

PlantUML version 1.2019.05(Sat Apr 20 09:45:36 PDT 2019)
(GPL source distribution)
Java Runtime: Java(TM) SE Runtime Environment
JVM: Java HotSpot(TM) Client VM
Java Version: 1.8.0_271-b09
Operating System: Windows 10
OS Version: 10.0
Default Encoding: Cp1252
Language: en
Country: US
--></g></svg>