<?xml version="1.0" encoding="UTF-8" standalone="no"?><svg xmlns="http://www.w3.org/2000/svg" xmlns:xlink="http://www.w3.org/1999/xlink" contentScriptType="application/ecmascript" contentStyleType="text/css" height="252px" preserveAspectRatio="none" style="width:1440px;height:252px;" version="1.1" viewBox="0 0 1440 252" width="1440px" zoomAndPan="magnify"><defs><filter height="300%" id="f19qhp9e9ds440" width="300%" x="-1" y="-1"><feGaussianBlur result="blurOut" stdDeviation="2.0"/><feColorMatrix in="blurOut" result="blurOut2" type="matrix" values="0 0 0 0 0 0 0 0 0 0 0 0 0 0 0 0 0 0 .4 0"/><feOffset dx="4.0" dy="4.0" in="blurOut2" result="blurOut3"/><feBlend in="SourceGraphic" in2="blurOut3" mode="normal"/></filter></defs><g><!--entity DataChannel--><rect fill="#90EE90" filter="url(#f19qhp9e9ds440)" height="37.6094" style="stroke: #000000; stroke-width: 1.5;" width="103" x="20.8409" y="8"/><text fill="#000000" font-family="sans-serif" font-size="14" lengthAdjust="spacingAndGlyphs" textLength="83" x="30.8409" y="32.5332">DataChannel</text><!--entity DataStream--><rect fill="#90EE90" filter="url(#f19qhp9e9ds440)" height="37.6094" style="stroke: #000000; stroke-width: 1.5;" width="95" x="266.841" y="8"/><text fill="#000000" font-family="sans-serif" font-size="14" lengthAdjust="spacingAndGlyphs" textLength="75" x="276.841" y="32.5332">DataStream</text><!--entity AdminDataStream--><rect fill="#90EE90" filter="url(#f19qhp9e9ds440)" height="37.6094" style="stroke: #000000; stroke-width: 1.5;" width="134" x="509.341" y="8"/><text fill="#000000" font-family="sans-serif" font-size="14" lengthAdjust="spacingAndGlyphs" textLength="114" x="519.341" y="32.5332">AdminDataStream</text><!--entity SABundleBuild--><rect fill="#90EE90" filter="url(#f19qhp9e9ds440)" height="37.6094" style="stroke: #000000; stroke-width: 1.5;" width="113" x="805.841" y="8"/><text fill="#000000" font-family="sans-serif" font-size="14" lengthAdjust="spacingAndGlyphs" textLength="93" x="815.841" y="32.5332">SABundleBuild</text><!--entity EncryptedVault--><rect fill="#90EE90" filter="url(#f19qhp9e9ds440)" height="37.6094" style="stroke: #000000; stroke-width: 1.5;" width="116" x="954.341" y="8"/><text fill="#000000" font-family="sans-serif" font-size="14" lengthAdjust="spacingAndGlyphs" textLength="96" x="964.341" y="32.5332">EncryptedVault</text><!--entity KeyStore--><rect fill="#90EE90" filter="url(#f19qhp9e9ds440)" height="37.6094" style="stroke: #000000; stroke-width: 1.5;" width="78" x="1105.34" y="8"/><text fill="#000000" font-family="sans-serif" font-size="14" lengthAdjust="spacingAndGlyphs" textLength="58" x="1115.34" y="32.5332">KeyStore</text><!--entity Seed--><rect fill="#90EE90" filter="url(#f19qhp9e9ds440)" height="37.6094" style="stroke: #000000; stroke-width: 1.5;" width="53" x="1218.84" y="8"/><text fill="#000000" font-family="sans-serif" font-size="14" lengthAdjust="spacingAndGlyphs" textLength="33" x="1228.84" y="32.5332">Seed</text><!--entity WorkingEnclave--><rect fill="#90EE90" filter="url(#f19qhp9e9ds440)" height="37.6094" style="stroke: #000000; stroke-width: 1.5;" width="122" x="1307.34" y="8"/><text fill="#000000" font-family="sans-serif" font-size="14" lengthAdjust="spacingAndGlyphs" textLength="102" x="1317.34" y="32.5332">WorkingEnclave</text><!--class Model--><rect fill="#FEFECE" filter="url(#f19qhp9e9ds440)" height="117.1797" id="Model" style="stroke: #A80036; stroke-width: 1.5;" width="95" x="770.841" y="124"/><ellipse cx="785.841" cy="140" fill="#ADD1B2" rx="11" ry="11" style="stroke: #A80036; stroke-width: 1.0;"/><path d="M788.6066,135.875 Q788.7629,135.6563 788.9504,135.5469 Q789.1379,135.4375 789.3566,135.4375 Q789.7316,135.4375 789.966,135.6953 Q790.2004,135.9531 790.2004,136.5625 L790.2004,138.0156 Q790.2004,138.625 789.966,138.8906 Q789.7316,139.1563 789.3566,139.1563 Q789.0129,139.1563 788.8098,138.9531 Q788.6066,138.7656 788.4973,138.25 Q788.4504,137.8906 788.2629,137.7031 Q787.9348,137.3281 787.3254,137.1094 Q786.716,136.8906 786.091,136.8906 Q785.3254,136.8906 784.6926,137.2188 Q784.0598,137.5469 783.5676,138.2969 Q783.0754,139.0469 783.0754,140.0781 L783.0754,141.1719 Q783.0754,142.4063 783.966,143.2266 Q784.8566,144.0469 786.4504,144.0469 Q787.3879,144.0469 788.0441,143.7969 Q788.4348,143.6406 788.8566,143.2031 Q789.1223,142.9375 789.2707,142.8594 Q789.4191,142.7813 789.6223,142.7813 Q789.9504,142.7813 790.2082,143.0391 Q790.466,143.2969 790.466,143.6406 Q790.466,143.9844 790.1223,144.3906 Q789.6223,144.9688 788.8254,145.2969 Q787.7473,145.75 786.4504,145.75 Q784.9348,145.75 783.7316,145.125 Q782.7473,144.625 782.0598,143.5547 Q781.3723,142.4844 781.3723,141.2031 L781.3723,140.0469 Q781.3723,138.7188 781.9894,137.5703 Q782.6066,136.4219 783.7004,135.8047 Q784.7941,135.1875 786.0285,135.1875 Q786.7629,135.1875 787.4113,135.3516 Q788.0598,135.5156 788.6066,135.875 Z "/><text fill="#000000" font-family="sans-serif" font-size="12" lengthAdjust="spacingAndGlyphs" textLength="63" x="799.841" y="144.9102">SecurityKey</text><line style="stroke: #A80036; stroke-width: 1.5;" x1="771.841" x2="864.841" y1="156" y2="156"/><text fill="#000000" font-family="sans-serif" font-size="11" lengthAdjust="spacingAndGlyphs" textLength="56" x="776.841" y="171.4189">string name</text><text fill="#000000" font-family="sans-serif" font-size="11" lengthAdjust="spacingAndGlyphs" textLength="56" x="776.841" y="185.2549">string value</text><text fill="#000000" font-family="sans-serif" font-size="11" lengthAdjust="spacingAndGlyphs" textLength="38" x="776.841" y="199.0908">string iv</text><line style="stroke: #A80036; stroke-width: 1.5;" x1="771.841" x2="864.841" y1="205.5078" y2="205.5078"/><text fill="#000000" font-family="sans-serif" font-size="11" lengthAdjust="spacingAndGlyphs" textLength="70" x="776.841" y="220.9268">generateKey()</text><text fill="#000000" font-family="sans-serif" font-size="11" lengthAdjust="spacingAndGlyphs" textLength="69" x="776.841" y="234.7627">generatePair()</text><!--link DataChannel to Model--><path d="M26.5787,53.647 C10.5778,65.801 -0.7128,80.569 11.3409,94 C61.0462,149.386 578.149,172.9438 757.492,179.4895 " fill="none" id="DataChannel-Model" style="stroke: #A80036; stroke-width: 1.0;"/><polygon fill="#A80036" points="770.558,179.958,761.7071,175.6382,765.5612,179.7789,761.4205,183.633,770.558,179.958" style="stroke: #A80036; stroke-width: 1.0;"/><line style="stroke: #A80036; stroke-width: 1.0;" x1="765.5612" x2="757.566" y1="179.7789" y2="179.4921"/><polygon fill="#FFFFFF" points="37.5758,46.078,30.3655,46.1854,27.6915,52.8824,34.9018,52.775,37.5758,46.078" style="stroke: #A80036; stroke-width: 1.0;"/><text fill="#000000" font-family="sans-serif" font-size="13" lengthAdjust="spacingAndGlyphs" textLength="83" x="12.3409" y="90.4951">encryptionKey</text><text fill="#000000" font-family="sans-serif" font-size="13" lengthAdjust="spacingAndGlyphs" textLength="7" x="755.7053" y="175.852">1</text><!--link DataChannel to Model--><path d="M101.8083,54.872 C118.848,68.862 141.408,84.903 164.341,94 C271.879,136.659 616.852,166.473 757.642,177.1549 " fill="none" id="DataChannel-Model-1" style="stroke: #A80036; stroke-width: 1.0;"/><polygon fill="#A80036" points="770.614,178.1288,761.9386,173.4665,765.628,177.7546,761.3399,181.4441,770.614,178.1288" style="stroke: #A80036; stroke-width: 1.0;"/><line style="stroke: #A80036; stroke-width: 1.0;" x1="765.628" x2="757.6505" y1="177.7546" y2="177.1556"/><polygon fill="#FFFFFF" points="91.459,46.069,93.4378,53.0033,100.5997,53.8438,98.621,46.9095,91.459,46.069" style="stroke: #A80036; stroke-width: 1.0;"/><text fill="#000000" font-family="sans-serif" font-size="13" lengthAdjust="spacingAndGlyphs" textLength="83" x="165.341" y="90.4951">decryptionKey</text><text fill="#000000" font-family="sans-serif" font-size="13" lengthAdjust="spacingAndGlyphs" textLength="7" x="755.7699" y="192.1927">1</text><!--link DataStream to Model--><path d="M273.556,54.555 C259.815,66.72 250.427,81.238 261.341,94 C324.629,168.0068 625.98,179.8311 757.13,181.4262 " fill="none" id="DataStream-Model" style="stroke: #A80036; stroke-width: 1.0;"/><polygon fill="#A80036" points="770.396,181.5594,761.4369,177.4686,765.3963,181.5089,761.356,185.4682,770.396,181.5594" style="stroke: #A80036; stroke-width: 1.0;"/><line style="stroke: #A80036; stroke-width: 1.0;" x1="765.3963" x2="757.397" y1="181.5089" y2="181.4288"/><polygon fill="#FFFFFF" points="284.103,46.173,276.917,46.7748,274.7087,53.6394,281.8946,53.0376,284.103,46.173" style="stroke: #A80036; stroke-width: 1.0;"/><text fill="#000000" font-family="sans-serif" font-size="13" lengthAdjust="spacingAndGlyphs" textLength="83" x="262.341" y="90.4951">encryptionKey</text><text fill="#000000" font-family="sans-serif" font-size="13" lengthAdjust="spacingAndGlyphs" textLength="7" x="755.84" y="196.104">1</text><!--link DataStream to Model--><path d="M346.986,54.028 C365.723,67.78 390.253,83.863 414.341,94 C530.02,142.6809 676.187,165.6845 757.202,175.3748 " fill="none" id="DataStream-Model-1" style="stroke: #A80036; stroke-width: 1.0;"/><polygon fill="#A80036" points="770.59,176.9253,762.11,171.9164,765.6232,176.35,761.1895,179.8632,770.59,176.9253" style="stroke: #A80036; stroke-width: 1.0;"/><line style="stroke: #A80036; stroke-width: 1.0;" x1="765.6232" x2="757.6765" y1="176.35" y2="175.4296"/><polygon fill="#FFFFFF" points="336.398,46.052,338.783,52.8573,345.9822,53.2731,343.5971,46.4678,336.398,46.052" style="stroke: #A80036; stroke-width: 1.0;"/><text fill="#000000" font-family="sans-serif" font-size="13" lengthAdjust="spacingAndGlyphs" textLength="83" x="415.341" y="90.4951">decryptionKey</text><text fill="#000000" font-family="sans-serif" font-size="13" lengthAdjust="spacingAndGlyphs" textLength="7" x="755.7422" y="172.355">1</text><!--link AdminDataStream to Model--><path d="M527.642,53.389 C511.65,65.095 500.452,79.574 511.341,94 C540.953,133.231 676.912,160.104 757.633,172.9105 " fill="none" id="AdminDataStream-Model" style="stroke: #A80036; stroke-width: 1.0;"/><polygon fill="#A80036" points="770.573,174.9183,762.2926,169.5859,765.6321,174.1518,761.0662,177.4913,770.573,174.9183" style="stroke: #A80036; stroke-width: 1.0;"/><line style="stroke: #A80036; stroke-width: 1.0;" x1="765.6321" x2="757.7265" y1="174.1518" y2="172.9249"/><polygon fill="#FFFFFF" points="538.658,46.126,531.447,46.0893,528.6396,52.7315,535.8507,52.7682,538.658,46.126" style="stroke: #A80036; stroke-width: 1.0;"/><text fill="#000000" font-family="sans-serif" font-size="13" lengthAdjust="spacingAndGlyphs" textLength="83" x="512.341" y="90.4951">encryptionKey</text><text fill="#000000" font-family="sans-serif" font-size="13" lengthAdjust="spacingAndGlyphs" textLength="7" x="755.9092" y="167.2804">1</text><!--link AdminDataStream to Model--><path d="M609.04,54.468 C625.039,66.984 644.805,81.817 663.341,94 C693.981,114.138 729.515,134.405 758.825,150.3562 " fill="none" id="AdminDataStream-Model-1" style="stroke: #A80036; stroke-width: 1.0;"/><polygon fill="#A80036" points="770.556,156.6917,764.5376,148.8956,766.1565,154.3159,760.7363,155.9348,770.556,156.6917" style="stroke: #A80036; stroke-width: 1.0;"/><line style="stroke: #A80036; stroke-width: 1.0;" x1="766.1565" x2="759.118" y1="154.3159" y2="150.5142"/><polygon fill="#FFFFFF" points="598.627,46.235,600.853,53.0939,608.0405,53.6772,605.8145,46.8183,598.627,46.235" style="stroke: #A80036; stroke-width: 1.0;"/><text fill="#000000" font-family="sans-serif" font-size="13" lengthAdjust="spacingAndGlyphs" textLength="83" x="664.341" y="90.4951">decryptionKey</text><text fill="#000000" font-family="sans-serif" font-size="13" lengthAdjust="spacingAndGlyphs" textLength="7" x="755.703" y="149.0234">1</text><!--link SABundleBuild to Model--><path d="M793.752,47.692 C780.898,54.561 769.083,63.749 761.341,76 C751.765,91.153 755.079,108.047 763.694,123.797 " fill="none" id="SABundleBuild-Model" style="stroke: #A80036; stroke-width: 1.0;"/><polygon fill="#A80036" points="770.797,135.022,769.3656,125.2777,768.1238,130.7966,762.605,129.5548,770.797,135.022" style="stroke: #A80036; stroke-width: 1.0;"/><line style="stroke: #A80036; stroke-width: 1.0;" x1="768.1238" x2="763.846" y1="130.7966" y2="124.0365"/><polygon fill="#A80036" points="805.762,42.014,798.628,40.9626,794.9136,47.1435,802.0476,48.1949,805.762,42.014" style="stroke: #A80036; stroke-width: 1.0;"/><text fill="#000000" font-family="sans-serif" font-size="13" lengthAdjust="spacingAndGlyphs" textLength="66" x="762.341" y="90.4951">encryptKey</text><text fill="#000000" font-family="sans-serif" font-size="13" lengthAdjust="spacingAndGlyphs" textLength="7" x="755.9809" y="124.0352">1</text><!--link SABundleBuild to Model--><path d="M853.486,58.893 C849.163,73.973 843.772,92.782 838.519,111.104 " fill="none" id="SABundleBuild-Model-1" style="stroke: #A80036; stroke-width: 1.0;"/><polygon fill="#A80036" points="834.921,123.66,841.2464,116.1109,836.299,118.8536,833.5562,113.9062,834.921,123.66" style="stroke: #A80036; stroke-width: 1.0;"/><line style="stroke: #A80036; stroke-width: 1.0;" x1="836.299" x2="838.503" y1="118.8536" y2="111.163"/><polygon fill="#A80036" points="857.121,46.211,851.6222,50.8761,853.8135,57.7462,859.3123,53.0811,857.121,46.211" style="stroke: #A80036; stroke-width: 1.0;"/><text fill="#000000" font-family="sans-serif" font-size="13" lengthAdjust="spacingAndGlyphs" textLength="66" x="849.341" y="90.4951">decryptKey</text><text fill="#000000" font-family="sans-serif" font-size="13" lengthAdjust="spacingAndGlyphs" textLength="7" x="829.5151" y="113.0195">1</text><!--link SABundleBuild to Model--><path d="M908.88,54.154 C922.179,65.232 931.39,79.041 924.341,94 C914.09,115.755 895.482,133.942 876.686,147.9984 " fill="none" id="SABundleBuild-Model-2" style="stroke: #A80036; stroke-width: 1.0;"/><polygon fill="#A80036" points="865.968,155.5857,875.6248,153.6501,870.0489,152.6967,871.0023,147.1207,865.968,155.5857" style="stroke: #A80036; stroke-width: 1.0;"/><line style="stroke: #A80036; stroke-width: 1.0;" x1="870.0489" x2="876.579" y1="152.6967" y2="148.0741"/><polygon fill="#A80036" points="898.114,46.241,900.5791,53.0177,907.7826,53.3487,905.3175,46.572,898.114,46.241" style="stroke: #A80036; stroke-width: 1.0;"/><text fill="#000000" font-family="sans-serif" font-size="13" lengthAdjust="spacingAndGlyphs" textLength="8" x="928.341" y="90.4951">iv</text><text fill="#000000" font-family="sans-serif" font-size="13" lengthAdjust="spacingAndGlyphs" textLength="7" x="873.7968" y="147.7481">1</text><!--link EncryptedVault to Model--><path d="M986.133,55.935 C974.155,68.137 959.501,82.299 945.341,94 C923.888,111.727 898.919,129.484 876.827,144.3232 " fill="none" id="EncryptedVault-Model" style="stroke: #A80036; stroke-width: 1.0;"/><polygon fill="#A80036" points="865.906,151.5806,875.6156,149.9302,870.0702,148.813,871.1874,143.2676,865.906,151.5806" style="stroke: #A80036; stroke-width: 1.0;"/><line style="stroke: #A80036; stroke-width: 1.0;" x1="870.0702" x2="876.7335" y1="148.813" y2="144.3854"/><polygon fill="#A80036" points="995.497,46.245,988.4513,47.7804,987.1587,54.8747,994.2044,53.3393,995.497,46.245" style="stroke: #A80036; stroke-width: 1.0;"/><text fill="#000000" font-family="sans-serif" font-size="13" lengthAdjust="spacingAndGlyphs" textLength="47" x="966.341" y="90.4951">streams</text><text fill="#000000" font-family="sans-serif" font-size="13" lengthAdjust="spacingAndGlyphs" textLength="7" x="873.7253" y="161.5793">n</text><!--link KeyStore to Model--><path d="M1101.39,52.473 C1078.23,65.349 1049.02,81.097 1022.34,94 C974.553,117.116 919.128,140.69 878.121,157.5355 " fill="none" id="KeyStore-Model" style="stroke: #A80036; stroke-width: 1.0;"/><polygon fill="#A80036" points="865.881,162.5396,875.7254,162.8359,870.5091,160.6473,872.6977,155.431,865.881,162.5396" style="stroke: #A80036; stroke-width: 1.0;"/><line style="stroke: #A80036; stroke-width: 1.0;" x1="870.5091" x2="877.915" y1="160.6473" y2="157.6196"/><polygon fill="#FFFFFF" points="1112.9,46.031,1105.7104,45.4747,1102.4316,51.8973,1109.6212,52.4536,1112.9,46.031" style="stroke: #A80036; stroke-width: 1.0;"/><text fill="#000000" font-family="sans-serif" font-size="13" lengthAdjust="spacingAndGlyphs" textLength="28" x="1057.34" y="90.4951">keys</text><text fill="#000000" font-family="sans-serif" font-size="13" lengthAdjust="spacingAndGlyphs" textLength="7" x="873.6965" y="174.2164">n</text><!--link Seed to Model--><path d="M1206.58,46.286 C1176.35,60.219 1133.12,79.423 1094.34,94 C1021.22,121.483 935.175,147.8417 878.837,164.3144 " fill="none" id="Seed-Model" style="stroke: #A80036; stroke-width: 1.0;"/><polygon fill="#A80036" points="866.232,167.9797,875.9909,169.3075,871.0331,166.5836,873.7571,161.6257,866.232,167.9797" style="stroke: #A80036; stroke-width: 1.0;"/><line style="stroke: #A80036; stroke-width: 1.0;" x1="871.0331" x2="878.7155" y1="166.5836" y2="164.3497"/><polygon fill="#A80036" points="1218.69,40.667,1211.5637,39.5641,1207.8048,45.7179,1214.931,46.8209,1218.69,40.667" style="stroke: #A80036; stroke-width: 1.0;"/><text fill="#000000" font-family="sans-serif" font-size="13" lengthAdjust="spacingAndGlyphs" textLength="54" x="1138.34" y="90.4951">bootstrap</text><text fill="#000000" font-family="sans-serif" font-size="13" lengthAdjust="spacingAndGlyphs" textLength="7" x="873.7801" y="180.5298">1</text><!--link Seed to Model--><path d="M1231.76,58.021 C1224.48,70.919 1214.31,85.054 1201.34,94 C1103.01,161.8063 959.988,177.7901 879.43,181.1216 " fill="none" id="Seed-Model-1" style="stroke: #A80036; stroke-width: 1.0;"/><polygon fill="#A80036" points="866.097,181.5803,875.2293,185.2684,871.094,181.4083,874.9541,177.2731,866.097,181.5803" style="stroke: #A80036; stroke-width: 1.0;"/><line style="stroke: #A80036; stroke-width: 1.0;" x1="871.094" x2="879.0885" y1="181.4083" y2="181.1332"/><polygon fill="#A80036" points="1237.85,46.243,1231.5425,49.738,1232.3426,56.9046,1238.6502,53.4096,1237.85,46.243" style="stroke: #A80036; stroke-width: 1.0;"/><text fill="#000000" font-family="sans-serif" font-size="13" lengthAdjust="spacingAndGlyphs" textLength="32" x="1221.34" y="90.4951">uauth</text><text fill="#000000" font-family="sans-serif" font-size="13" lengthAdjust="spacingAndGlyphs" textLength="7" x="873.9456" y="196.1727">1</text><!--link WorkingEnclave to Model--><path d="M1334.14,53.751 C1314.16,67.622 1287.91,83.912 1262.34,94 C1131.44,145.6391 966.363,167.8518 879.012,176.5366 " fill="none" id="WorkingEnclave-Model" style="stroke: #A80036; stroke-width: 1.0;"/><polygon fill="#A80036" points="865.934,177.793,875.2752,180.9142,870.9111,177.315,874.5104,172.9509,865.934,177.793" style="stroke: #A80036; stroke-width: 1.0;"/><line style="stroke: #A80036; stroke-width: 1.0;" x1="870.9111" x2="878.874" y1="177.315" y2="176.5498"/><polygon fill="#FFFFFF" points="1344.84,46.139,1337.6323,46.3609,1335.065,53.0995,1342.2727,52.8776,1344.84,46.139" style="stroke: #A80036; stroke-width: 1.0;"/><text fill="#000000" font-family="sans-serif" font-size="13" lengthAdjust="spacingAndGlyphs" textLength="104" x="1297.34" y="90.4951">authenticationKey</text><text fill="#000000" font-family="sans-serif" font-size="13" lengthAdjust="spacingAndGlyphs" textLength="7" x="874.091" y="170.9496">1</text><!--
@startuml

class "SecurityKey" as Model {
 string name
 string value
 string iv

 generateKey()
 generatePair()
 
}



    rectangle "DataChannel" as DataChannel #lightgreen {
    }
    
        DataChannel   o- -> "1" Model : "encryptionKey"
    
    rectangle "DataChannel" as DataChannel #lightgreen {
    }
    
        DataChannel   o- -> "1" Model : "decryptionKey"
    
    rectangle "DataStream" as DataStream #lightgreen {
    }
    
        DataStream   o- -> "1" Model : "encryptionKey"
    
    rectangle "DataStream" as DataStream #lightgreen {
    }
    
        DataStream   o- -> "1" Model : "decryptionKey"
    
    rectangle "AdminDataStream" as AdminDataStream #lightgreen {
    }
    
        AdminDataStream   o- -> "1" Model : "encryptionKey"
    
    rectangle "AdminDataStream" as AdminDataStream #lightgreen {
    }
    
        AdminDataStream   o- -> "1" Model : "decryptionKey"
    
    rectangle "SABundleBuild" as SABundleBuild #lightgreen {
    }
    
        SABundleBuild   *- -> "1" Model : "encryptKey"
    
    rectangle "SABundleBuild" as SABundleBuild #lightgreen {
    }
    
        SABundleBuild   *- -> "1" Model : "decryptKey"
    
    rectangle "SABundleBuild" as SABundleBuild #lightgreen {
    }
    
        SABundleBuild   *- -> "1" Model : "iv"
    
    rectangle "EncryptedVault" as EncryptedVault #lightgreen {
    }
    
        EncryptedVault   *- -> "n" Model : "streams"
    
    rectangle "KeyStore" as KeyStore #lightgreen {
    }
    
        KeyStore   o- -> "n" Model : "keys"
    
    rectangle "Seed" as Seed #lightgreen {
    }
    
        Seed   *- -> "1" Model : "bootstrap"
    
    rectangle "Seed" as Seed #lightgreen {
    }
    
        Seed   *- -> "1" Model : "uauth"
    
    rectangle "WorkingEnclave" as WorkingEnclave #lightgreen {
    }
    
        WorkingEnclave   o- -> "1" Model : "authenticationKey"
    

@enduml

PlantUML version 1.2019.05(Sat Apr 20 09:45:36 PDT 2019)
(GPL source distribution)
Java Runtime: Java(TM) SE Runtime Environment
JVM: Java HotSpot(TM) Client VM
Java Version: 1.8.0_271-b09
Operating System: Windows 10
OS Version: 10.0
Default Encoding: Cp1252
Language: en
Country: US
--></g></svg>