<?xml version="1.0" encoding="us-ascii" standalone="no"?><svg xmlns="http://www.w3.org/2000/svg" xmlns:xlink="http://www.w3.org/1999/xlink" contentStyleType="text/css" height="266px" preserveAspectRatio="none" style="width:1448px;height:266px;background:#FFFFFF;" version="1.1" viewBox="0 0 1448 266" width="1448px" zoomAndPan="magnify"><defs/><g><!--entity DataChannel--><g id="elem_DataChannel"><rect fill="#90EE90" height="37.6094" rx="2.5" ry="2.5" style="stroke:#181818;stroke-width:0.5;" width="103" x="67.02" y="7"/><text fill="#000000" font-family="sans-serif" font-size="14" lengthAdjust="spacing" textLength="83" x="77.02" y="31.5332">DataChannel</text></g><!--entity DataStream--><g id="elem_DataStream"><rect fill="#90EE90" height="37.6094" rx="2.5" ry="2.5" style="stroke:#181818;stroke-width:0.5;" width="95" x="263.02" y="7"/><text fill="#000000" font-family="sans-serif" font-size="14" lengthAdjust="spacing" textLength="75" x="273.02" y="31.5332">DataStream</text></g><!--entity AdminDataStream--><g id="elem_AdminDataStream"><rect fill="#90EE90" height="37.6094" rx="2.5" ry="2.5" style="stroke:#181818;stroke-width:0.5;" width="134" x="522.52" y="7"/><text fill="#000000" font-family="sans-serif" font-size="14" lengthAdjust="spacing" textLength="114" x="532.52" y="31.5332">AdminDataStream</text></g><!--entity SABundleBuild--><g id="elem_SABundleBuild"><rect fill="#90EE90" height="37.6094" rx="2.5" ry="2.5" style="stroke:#181818;stroke-width:0.5;" width="113" x="819.02" y="7"/><text fill="#000000" font-family="sans-serif" font-size="14" lengthAdjust="spacing" textLength="93" x="829.02" y="31.5332">SABundleBuild</text></g><!--entity EncryptedVault--><g id="elem_EncryptedVault"><rect fill="#90EE90" height="37.6094" rx="2.5" ry="2.5" style="stroke:#181818;stroke-width:0.5;" width="116" x="967.52" y="7"/><text fill="#000000" font-family="sans-serif" font-size="14" lengthAdjust="spacing" textLength="96" x="977.52" y="31.5332">EncryptedVault</text></g><!--entity KeyStore--><g id="elem_KeyStore"><rect fill="#90EE90" height="37.6094" rx="2.5" ry="2.5" style="stroke:#181818;stroke-width:0.5;" width="78" x="1118.52" y="7"/><text fill="#000000" font-family="sans-serif" font-size="14" lengthAdjust="spacing" textLength="58" x="1128.52" y="31.5332">KeyStore</text></g><!--entity Seed--><g id="elem_Seed"><rect fill="#90EE90" height="37.6094" rx="2.5" ry="2.5" style="stroke:#181818;stroke-width:0.5;" width="53" x="1232.02" y="7"/><text fill="#000000" font-family="sans-serif" font-size="14" lengthAdjust="spacing" textLength="33" x="1242.02" y="31.5332">Seed</text></g><!--entity WorkingEnclave--><g id="elem_WorkingEnclave"><rect fill="#90EE90" height="37.6094" rx="2.5" ry="2.5" style="stroke:#181818;stroke-width:0.5;" width="122" x="1320.52" y="7"/><text fill="#000000" font-family="sans-serif" font-size="14" lengthAdjust="spacing" textLength="102" x="1330.52" y="31.5332">WorkingEnclave</text></g><!--class Model--><g id="elem_Model"><rect codeLine="2" fill="#F1F1F1" height="136.0469" id="Model" rx="2.5" ry="2.5" style="stroke:#181818;stroke-width:0.5;" width="107" x="778.02" y="123"/><ellipse cx="793.02" cy="139" fill="#ADD1B2" rx="11" ry="11" style="stroke:#181818;stroke-width:1.0;"/><path d="M795.7856,134.875 Q795.9419,134.6563 796.1294,134.5469 Q796.3169,134.4375 796.5356,134.4375 Q796.9106,134.4375 797.145,134.6953 Q797.3794,134.9531 797.3794,135.5625 L797.3794,137.0156 Q797.3794,137.625 797.145,137.8906 Q796.9106,138.1563 796.5356,138.1563 Q796.1919,138.1563 795.9888,137.9531 Q795.7856,137.7656 795.6763,137.25 Q795.6294,136.8906 795.4419,136.7031 Q795.1138,136.3281 794.5044,136.1094 Q793.895,135.8906 793.27,135.8906 Q792.5044,135.8906 791.8716,136.2188 Q791.2388,136.5469 790.7466,137.2969 Q790.2544,138.0469 790.2544,139.0781 L790.2544,140.1719 Q790.2544,141.4063 791.145,142.2266 Q792.0356,143.0469 793.6294,143.0469 Q794.5669,143.0469 795.2231,142.7969 Q795.6138,142.6406 796.0356,142.2031 Q796.3013,141.9375 796.4497,141.8594 Q796.5981,141.7813 796.8013,141.7813 Q797.1294,141.7813 797.3872,142.0391 Q797.645,142.2969 797.645,142.6406 Q797.645,142.9844 797.3013,143.3906 Q796.8013,143.9688 796.0044,144.2969 Q794.9263,144.75 793.6294,144.75 Q792.1138,144.75 790.9106,144.125 Q789.9263,143.625 789.2388,142.5547 Q788.5513,141.4844 788.5513,140.2031 L788.5513,139.0469 Q788.5513,137.7188 789.1684,136.5703 Q789.7856,135.4219 790.8794,134.8047 Q791.9731,134.1875 793.2075,134.1875 Q793.9419,134.1875 794.5903,134.3516 Q795.2388,134.5156 795.7856,134.875 Z " fill="#000000"/><text fill="#000000" font-family="sans-serif" font-size="14" lengthAdjust="spacing" textLength="75" x="807.02" y="144.7285">SecurityKey</text><line style="stroke:#181818;stroke-width:0.5;" x1="779.02" x2="884.02" y1="155" y2="155"/><text fill="#000000" font-family="sans-serif" font-size="14" lengthAdjust="spacing" textLength="74" x="784.02" y="173.5332">string name</text><text fill="#000000" font-family="sans-serif" font-size="14" lengthAdjust="spacing" textLength="73" x="784.02" y="191.1426">string value</text><text fill="#000000" font-family="sans-serif" font-size="14" lengthAdjust="spacing" textLength="49" x="784.02" y="208.752">string iv</text><line style="stroke:#181818;stroke-width:0.5;" x1="779.02" x2="884.02" y1="215.8281" y2="215.8281"/><text fill="#000000" font-family="sans-serif" font-size="14" lengthAdjust="spacing" textLength="91" x="784.02" y="234.3613">generateKey()</text><text fill="#000000" font-family="sans-serif" font-size="14" lengthAdjust="spacing" textLength="92" x="784.02" y="251.9707">generatePair()</text></g><!--link DataChannel to Model--><g id="link_DataChannel_Model"><path codeLine="17" d="M55.4943,46.8034 C24.6443,58.6234 6,72.12 24.52,93 C74.65,149.51 599.5069,179.0631 771.8369,187.3131 " fill="none" id="DataChannel-Model" style="stroke:#181818;stroke-width:1.0;"/><polygon fill="none" points="66.7,42.51,59.666,40.9215,55.4943,46.8034,62.5283,48.3919,66.7,42.51" style="stroke:#181818;stroke-width:1.0;"/><polygon fill="#181818" points="777.83,187.6,769.0316,183.1742,772.8357,187.3609,768.649,191.1651,777.83,187.6" style="stroke:#181818;stroke-width:1.0;"/><text fill="#000000" font-family="sans-serif" font-size="13" lengthAdjust="spacing" textLength="83" x="25.52" y="89.4951">encryptionKey</text><text fill="#000000" font-family="sans-serif" font-size="13" lengthAdjust="spacing" textLength="7" x="763.1451" y="183.5837">1</text></g><!--link DataChannel to Model--><g id="link_DataChannel_Model"><path codeLine="22" d="M136.1307,55.0017 C146.4807,70.4117 156.82,81.84 177.52,93 C281.47,149.02 634.7931,177.2534 771.8431,186.3334 " fill="none" id="DataChannel-Model-1" style="stroke:#181818;stroke-width:1.0;"/><polygon fill="none" points="129.44,45.04,129.4648,52.2511,136.1307,55.0017,136.1059,47.7906,129.44,45.04" style="stroke:#181818;stroke-width:1.0;"/><polygon fill="#181818" points="777.83,186.73,769.1141,182.1438,772.8409,186.3995,768.5853,190.1263,777.83,186.73" style="stroke:#181818;stroke-width:1.0;"/><text fill="#000000" font-family="sans-serif" font-size="13" lengthAdjust="spacing" textLength="83" x="178.52" y="89.4951">decryptionKey</text><text fill="#000000" font-family="sans-serif" font-size="13" lengthAdjust="spacing" textLength="7" x="763.1451" y="200.7468">1</text></g><!--link DataStream to Model--><g id="link_DataStream_Model"><path codeLine="27" d="M281.0698,53.55 C267.2598,67.54 262.26,78.42 274.52,93 C338.56,169.16 644.5423,185.3643 771.5623,188.8743 " fill="none" id="DataStream-Model" style="stroke:#181818;stroke-width:1.0;"/><polygon fill="none" points="289.5,45.01,282.4382,46.47,281.0698,53.55,288.1316,52.0901,289.5,45.01" style="stroke:#181818;stroke-width:1.0;"/><polygon fill="#181818" points="777.56,189.04,768.6739,184.7929,772.5619,188.9019,768.4529,192.7899,777.56,189.04" style="stroke:#181818;stroke-width:1.0;"/><text fill="#000000" font-family="sans-serif" font-size="13" lengthAdjust="spacing" textLength="83" x="275.52" y="89.4951">encryptionKey</text><text fill="#000000" font-family="sans-serif" font-size="13" lengthAdjust="spacing" textLength="7" x="763.1979" y="203.3285">1</text></g><!--link DataStream to Model--><g id="link_DataStream_Model"><path codeLine="32" d="M347.1686,51.5232 C370.0086,66.2832 394.2,80.23 426.52,93 C547.73,140.88 693.1162,168.4667 772.0362,181.1667 " fill="none" id="DataStream-Model-1" style="stroke:#181818;stroke-width:1.0;"/><polygon fill="none" points="337.09,45.01,339.9583,51.6261,347.1686,51.5232,344.3004,44.907,337.09,45.01" style="stroke:#181818;stroke-width:1.0;"/><polygon fill="#181818" points="777.96,182.12,769.7098,176.7409,773.0235,181.3256,768.4388,184.6393,777.96,182.12" style="stroke:#181818;stroke-width:1.0;"/><text fill="#000000" font-family="sans-serif" font-size="13" lengthAdjust="spacing" textLength="83" x="427.52" y="89.4951">decryptionKey</text><text fill="#000000" font-family="sans-serif" font-size="13" lengthAdjust="spacing" textLength="7" x="762.9359" y="177.2628">1</text></g><!--link AdminDataStream to Model--><g id="link_AdminDataStream_Model"><path codeLine="37" d="M541.7097,51.1732 C520.7397,63.7532 511.5,75.23 524.52,93 C554.71,134.2 692.3513,164.912 772.0213,179.742 " fill="none" id="AdminDataStream-Model" style="stroke:#181818;stroke-width:1.0;"/><polygon fill="none" points="552,45,544.7971,44.6565,541.7097,51.1732,548.9126,51.5167,552,45" style="stroke:#181818;stroke-width:1.0;"/><polygon fill="#181818" points="777.92,180.84,769.804,175.2606,773.0044,179.925,768.34,183.1255,777.92,180.84" style="stroke:#181818;stroke-width:1.0;"/><text fill="#000000" font-family="sans-serif" font-size="13" lengthAdjust="spacing" textLength="83" x="525.52" y="89.4951">encryptionKey</text><text fill="#000000" font-family="sans-serif" font-size="13" lengthAdjust="spacing" textLength="7" x="763.2031" y="173.0454">1</text></g><!--link AdminDataStream to Model--><g id="link_AdminDataStream_Model"><path codeLine="42" d="M621.447,52.7456 C638.537,66.3556 653.39,77.68 675.52,93 C708.82,116.05 742.3417,137.0019 772.8417,155.3919 " fill="none" id="AdminDataStream-Model-1" style="stroke:#181818;stroke-width:1.0;"/><polygon fill="none" points="612.06,45.27,614.2617,52.1368,621.447,52.7456,619.2454,45.8788,612.06,45.27" style="stroke:#181818;stroke-width:1.0;"/><polygon fill="#181818" points="777.98,158.49,772.338,150.4173,773.6981,155.9082,768.2072,157.2683,777.98,158.49" style="stroke:#181818;stroke-width:1.0;"/><text fill="#000000" font-family="sans-serif" font-size="13" lengthAdjust="spacing" textLength="83" x="676.52" y="89.4951">decryptionKey</text><text fill="#000000" font-family="sans-serif" font-size="13" lengthAdjust="spacing" textLength="7" x="762.9588" y="150.3098">1</text></g><!--link SABundleBuild to Model--><g id="link_SABundleBuild_Model"><path codeLine="47" d="M807.8682,45.6377 C790.6182,52.8477 784.63,59 774.52,75 C763.51,92.42 764.9957,107.0198 775.0857,125.2598 " fill="none" id="SABundleBuild-Model" style="stroke:#181818;stroke-width:1.0;"/><polygon fill="#181818" points="818.94,41.01,811.8615,39.6332,807.8682,45.6377,814.9467,47.0144,818.94,41.01" style="stroke:#181818;stroke-width:1.0;"/><polygon fill="#181818" points="777.99,130.51,777.1337,120.6984,775.5697,126.1348,770.1334,124.5709,777.99,130.51" style="stroke:#181818;stroke-width:1.0;"/><text fill="#000000" font-family="sans-serif" font-size="13" lengthAdjust="spacing" textLength="66" x="775.52" y="89.4951">encryptKey</text><text fill="#000000" font-family="sans-serif" font-size="13" lengthAdjust="spacing" textLength="7" x="762.9702" y="118.3951">1</text></g><!--link SABundleBuild to Model--><g id="link_SABundleBuild_Model"><path codeLine="52" d="M867.517,56.6565 C862.447,75.4665 858.864,88.7074 851.234,116.9674 " fill="none" id="SABundleBuild-Model-1" style="stroke:#181818;stroke-width:1.0;"/><polygon fill="#181818" points="870.64,45.07,865.2163,49.8222,867.517,56.6565,872.9407,51.9042,870.64,45.07" style="stroke:#181818;stroke-width:1.0;"/><polygon fill="#181818" points="849.67,122.76,855.8777,115.1138,850.9733,117.9328,848.1542,113.0285,849.67,122.76" style="stroke:#181818;stroke-width:1.0;"/><text fill="#000000" font-family="sans-serif" font-size="13" lengthAdjust="spacing" textLength="66" x="862.52" y="89.4951">decryptKey</text><text fill="#000000" font-family="sans-serif" font-size="13" lengthAdjust="spacing" textLength="7" x="844.2723" y="111.933">1</text></g><!--link SABundleBuild to Model--><g id="link_SABundleBuild_Model"><path codeLine="57" d="M920.9851,51.6852 C939.1651,63.6452 945.89,74.01 937.52,93 C926.51,118 910.2228,135.6214 889.8128,151.8814 " fill="none" id="SABundleBuild-Model-2" style="stroke:#181818;stroke-width:1.0;"/><polygon fill="#181818" points="910.96,45.09,913.7742,51.7293,920.9851,51.6852,918.171,45.0459,910.96,45.09" style="stroke:#181818;stroke-width:1.0;"/><polygon fill="#181818" points="885.12,155.62,894.6517,153.1406,889.0307,152.5045,889.6668,146.8835,885.12,155.62" style="stroke:#181818;stroke-width:1.0;"/><text fill="#000000" font-family="sans-serif" font-size="13" lengthAdjust="spacing" textLength="8" x="940.52" y="89.4951">iv</text><text fill="#000000" font-family="sans-serif" font-size="13" lengthAdjust="spacing" textLength="7" x="893.1497" y="147.0362">1</text></g><!--link EncryptedVault to Model--><g id="link_EncryptedVault_Model"><path codeLine="62" d="M999.4383,53.7685 C986.0183,67.3585 975.31,77.61 957.52,93 C934.56,112.87 912.8501,129.9569 890.1001,147.1169 " fill="none" id="EncryptedVault-Model" style="stroke:#181818;stroke-width:1.0;"/><polygon fill="#181818" points="1007.87,45.23,1000.808,46.6887,999.4383,53.7685,1006.5003,52.3098,1007.87,45.23" style="stroke:#181818;stroke-width:1.0;"/><polygon fill="#181818" points="885.31,150.73,894.9039,148.5037,889.3018,147.7191,890.0864,142.1169,885.31,150.73" style="stroke:#181818;stroke-width:1.0;"/><text fill="#000000" font-family="sans-serif" font-size="13" lengthAdjust="spacing" textLength="47" x="977.52" y="89.4951">streams</text><text fill="#000000" font-family="sans-serif" font-size="13" lengthAdjust="spacing" textLength="7" x="893.0083" y="159.9093">n</text></g><!--link KeyStore to Model--><g id="link_KeyStore_Model"><path codeLine="67" d="M1114.0109,50.7398 C1089.1309,64.2298 1064.64,77.26 1033.52,93 C983.71,118.2 931.6983,143.0739 890.8383,162.3139 " fill="none" id="KeyStore-Model" style="stroke:#181818;stroke-width:1.0;"/><polygon fill="none" points="1124.56,45.02,1117.3788,44.3635,1114.0109,50.7398,1121.192,51.3963,1124.56,45.02" style="stroke:#181818;stroke-width:1.0;"/><polygon fill="#181818" points="885.41,164.87,895.2565,164.6548,889.9336,162.7399,891.8484,157.417,885.41,164.87" style="stroke:#181818;stroke-width:1.0;"/><text fill="#000000" font-family="sans-serif" font-size="13" lengthAdjust="spacing" textLength="28" x="1068.52" y="89.4951">keys</text><text fill="#000000" font-family="sans-serif" font-size="13" lengthAdjust="spacing" textLength="7" x="893.1218" y="175.9494">n</text></g><!--link Seed to Model--><g id="link_Seed_Model"><path codeLine="72" d="M1221,44.0411 C1190.65,57.7211 1150.36,75.41 1105.52,93 C1029.77,122.71 946.4262,151.5651 890.8962,170.2651 " fill="none" id="Seed-Model" style="stroke:#181818;stroke-width:1.0;"/><polygon fill="#181818" points="1231.94,39.11,1224.8263,37.9289,1221,44.0411,1228.1137,45.2222,1231.94,39.11" style="stroke:#181818;stroke-width:1.0;"/><polygon fill="#181818" points="885.21,172.18,895.0159,173.0985,889.9485,170.5843,892.4628,165.5169,885.21,172.18" style="stroke:#181818;stroke-width:1.0;"/><text fill="#000000" font-family="sans-serif" font-size="13" lengthAdjust="spacing" textLength="54" x="1148.52" y="89.4951">bootstrap</text><text fill="#000000" font-family="sans-serif" font-size="13" lengthAdjust="spacing" textLength="7" x="892.8949" y="184.2417">1</text></g><!--link Seed to Model--><g id="link_Seed_Model"><path codeLine="77" d="M1244.5582,55.768 C1236.6682,70.818 1229.04,80.99 1211.52,93 C1110.3,162.39 969.2146,181.7305 891.0446,187.3405 " fill="none" id="Seed-Model-1" style="stroke:#181818;stroke-width:1.0;"/><polygon fill="#181818" points="1250.13,45.14,1243.8014,48.5968,1244.5582,55.768,1250.8868,52.3113,1250.13,45.14" style="stroke:#181818;stroke-width:1.0;"/><polygon fill="#181818" points="885.06,187.77,894.3232,191.1155,890.0472,187.4121,893.7506,183.136,885.06,187.77" style="stroke:#181818;stroke-width:1.0;"/><text fill="#000000" font-family="sans-serif" font-size="13" lengthAdjust="spacing" textLength="32" x="1229.52" y="89.4951">uauth</text><text fill="#000000" font-family="sans-serif" font-size="13" lengthAdjust="spacing" textLength="7" x="893.0813" y="201.9573">1</text></g><!--link WorkingEnclave to Model--><g id="link_WorkingEnclave_Model"><path codeLine="82" d="M1346.366,51.9857 C1324.616,66.8657 1301.79,80.62 1270.52,93 C1137.35,145.72 975.4792,171.9208 891.1092,182.9708 " fill="none" id="WorkingEnclave-Model" style="stroke:#181818;stroke-width:1.0;"/><polygon fill="none" points="1356.27,45.21,1349.0594,45.2965,1346.366,51.9857,1353.5766,51.8992,1356.27,45.21" style="stroke:#181818;stroke-width:1.0;"/><polygon fill="#181818" points="885.16,183.75,894.6032,186.5474,890.1177,183.1007,893.5643,178.6151,885.16,183.75" style="stroke:#181818;stroke-width:1.0;"/><text fill="#000000" font-family="sans-serif" font-size="13" lengthAdjust="spacing" textLength="104" x="1306.52" y="89.4951">authenticationKey</text><text fill="#000000" font-family="sans-serif" font-size="13" lengthAdjust="spacing" textLength="7" x="892.8886" y="176.8102">1</text></g><!--SRC=[nPN1QiCm38RlUGgHNRP13xlkC6YtdSPW4DZEMY9IKrSkZXm8e-y-nqtR9AGaRBJLmKH2ullrOvDKOr50d53gh9BgZQeOi81tav66dmWAiOfpO5pJ8IbHksEcoYY2d9Wi2ldvsxjZ-e7ArdcqZNo03qkf8EUQ87v1mUSbCfCEp5OEDrhbIyaj4TSgV6p36Ouwsiq0PZPxWlWXRdG_GaoSsceZod2zqd7sKloC9l4JiOJh0twNJgCtlVzO_Zpm2PlFixNYde9URLn6V-2FHbnComHVald2SQPfuPJEWf9EPLn7jntW_fGZrvJG675D2QeSHh_ktA7i4vsMmEwMnk6z_ZsTM_GYN99YM8At9H5ZAS3toJZsqBc_UctWYgeJj8IeiTX_J72sxXeozDiOyMlXvhmOXqwMmuWlOrV-T-JjrrZktEkMnh6z_g57NFE9HQNOVSY_]--></g></svg>