<?xml version="1.0" encoding="us-ascii" standalone="no"?><svg xmlns="http://www.w3.org/2000/svg" xmlns:xlink="http://www.w3.org/1999/xlink" contentStyleType="text/css" height="292px" preserveAspectRatio="none" style="width:291px;height:292px;background:#FFFFFF;" version="1.1" viewBox="0 0 291 292" width="291px" zoomAndPan="magnify"><defs/><g><!--entity Credential--><g id="elem_Credential"><rect fill="#ADD8E6" height="37.6094" rx="2.5" ry="2.5" style="stroke:#181818;stroke-width:0.5;" width="85" x="7" y="249"/><text fill="#000000" font-family="sans-serif" font-size="14" lengthAdjust="spacing" textLength="65" x="17" y="273.5332">Credential</text></g><!--entity SecurityKey--><g id="elem_SecurityKey"><rect fill="#ADD8E6" height="37.6094" rx="2.5" ry="2.5" style="stroke:#181818;stroke-width:0.5;" width="95" x="190" y="249"/><text fill="#000000" font-family="sans-serif" font-size="14" lengthAdjust="spacing" textLength="75" x="200" y="273.5332">SecurityKey</text></g><!--entity SecureVault--><g id="elem_SecureVault"><rect fill="#90EE90" height="37.6094" rx="2.5" ry="2.5" style="stroke:#181818;stroke-width:0.5;" width="97" x="141" y="7"/><text fill="#000000" font-family="sans-serif" font-size="14" lengthAdjust="spacing" textLength="77" x="151" y="31.5332">SecureVault</text></g><!--class Model--><g id="elem_Model"><rect codeLine="2" fill="#F1F1F1" height="48" id="Model" rx="2.5" ry="2.5" style="stroke:#181818;stroke-width:0.5;" width="65" x="157" y="123"/><ellipse cx="172" cy="139" fill="#ADD1B2" rx="11" ry="11" style="stroke:#181818;stroke-width:1.0;"/><path d="M174.7656,134.875 Q174.9219,134.6563 175.1094,134.5469 Q175.2969,134.4375 175.5156,134.4375 Q175.8906,134.4375 176.125,134.6953 Q176.3594,134.9531 176.3594,135.5625 L176.3594,137.0156 Q176.3594,137.625 176.125,137.8906 Q175.8906,138.1563 175.5156,138.1563 Q175.1719,138.1563 174.9688,137.9531 Q174.7656,137.7656 174.6563,137.25 Q174.6094,136.8906 174.4219,136.7031 Q174.0938,136.3281 173.4844,136.1094 Q172.875,135.8906 172.25,135.8906 Q171.4844,135.8906 170.8516,136.2188 Q170.2188,136.5469 169.7266,137.2969 Q169.2344,138.0469 169.2344,139.0781 L169.2344,140.1719 Q169.2344,141.4063 170.125,142.2266 Q171.0156,143.0469 172.6094,143.0469 Q173.5469,143.0469 174.2031,142.7969 Q174.5938,142.6406 175.0156,142.2031 Q175.2813,141.9375 175.4297,141.8594 Q175.5781,141.7813 175.7813,141.7813 Q176.1094,141.7813 176.3672,142.0391 Q176.625,142.2969 176.625,142.6406 Q176.625,142.9844 176.2813,143.3906 Q175.7813,143.9688 174.9844,144.2969 Q173.9063,144.75 172.6094,144.75 Q171.0938,144.75 169.8906,144.125 Q168.9063,143.625 168.2188,142.5547 Q167.5313,141.4844 167.5313,140.2031 L167.5313,139.0469 Q167.5313,137.7188 168.1484,136.5703 Q168.7656,135.4219 169.8594,134.8047 Q170.9531,134.1875 172.1875,134.1875 Q172.9219,134.1875 173.5703,134.3516 Q174.2188,134.5156 174.7656,134.875 Z " fill="#000000"/><text fill="#000000" font-family="sans-serif" font-size="14" lengthAdjust="spacing" textLength="33" x="186" y="144.7285">Seed</text><line style="stroke:#181818;stroke-width:0.5;" x1="158" x2="221" y1="155" y2="155"/><line style="stroke:#181818;stroke-width:0.5;" x1="158" x2="221" y1="163" y2="163"/></g><!--link Model to Credential--><g id="link_Model_Credential"><path codeLine="10" d="M145.4572,159.1284 C119.9172,166.7184 96.61,177.29 74.5,201 C62.13,214.26 57.0107,228.3927 53.7907,242.8927 " fill="none" id="Model-Credential" style="stroke:#181818;stroke-width:1.0;"/><polygon fill="#181818" points="156.96,155.71,150.0691,153.5849,145.4572,159.1284,152.3481,161.2535,156.96,155.71" style="stroke:#181818;stroke-width:1.0;"/><polygon fill="#181818" points="52.49,248.75,58.346,240.8312,53.5739,243.8689,50.5362,239.0969,52.49,248.75" style="stroke:#181818;stroke-width:1.0;"/><text fill="#000000" font-family="sans-serif" font-size="13" lengthAdjust="spacing" textLength="98" x="75.5" y="215.4951">registrationCreds</text><text fill="#000000" font-family="sans-serif" font-size="13" lengthAdjust="spacing" textLength="7" x="45.3338" y="238.0135">1</text></g><!--link Model to SecurityKey--><g id="link_Model_SecurityKey"><path codeLine="16" d="M181.4737,183.1342 C178.9937,197.4642 180.04,204.05 186.5,219 C191.56,230.72 196.4559,237.0407 205.8959,244.9707 " fill="none" id="Model-SecurityKey" style="stroke:#181818;stroke-width:1.0;"/><polygon fill="#181818" points="183.52,171.31,178.5554,176.54,181.4737,183.1342,186.4382,177.9042,183.52,171.31" style="stroke:#181818;stroke-width:1.0;"/><polygon fill="#181818" points="210.49,248.83,206.1716,239.9783,206.6616,245.6139,201.026,246.1039,210.49,248.83" style="stroke:#181818;stroke-width:1.0;"/><text fill="#000000" font-family="sans-serif" font-size="13" lengthAdjust="spacing" textLength="54" x="187.5" y="215.4951">bootstrap</text><text fill="#000000" font-family="sans-serif" font-size="13" lengthAdjust="spacing" textLength="7" x="194.1463" y="238.118">1</text></g><!--link Model to SecurityKey--><g id="link_Model_SecurityKey"><path codeLine="22" d="M231.1555,177.8924 C240.8755,186.3224 241.26,188.98 246.5,201 C253.15,216.27 251.3411,229.5392 246.8511,243.2192 " fill="none" id="Model-SecurityKey-1" style="stroke:#181818;stroke-width:1.0;"/><polygon fill="#181818" points="222.09,170.03,224.002,176.983,231.1555,177.8924,229.2435,170.9393,222.09,170.03" style="stroke:#181818;stroke-width:1.0;"/><polygon fill="#181818" points="244.98,248.92,251.5872,241.6162,246.5392,244.1693,243.9861,239.1214,244.98,248.92" style="stroke:#181818;stroke-width:1.0;"/><text fill="#000000" font-family="sans-serif" font-size="13" lengthAdjust="spacing" textLength="32" x="250.5" y="215.4951">uauth</text><text fill="#000000" font-family="sans-serif" font-size="13" lengthAdjust="spacing" textLength="7" x="239.1989" y="238.2355">1</text></g><!--link SecureVault to Model--><g id="link_SecureVault_Model"><path codeLine="30" d="M189.5,57.07 C189.5,77.88 189.5,94.1 189.5,116.84 " fill="none" id="SecureVault-Model" style="stroke:#181818;stroke-width:1.0;"/><polygon fill="#181818" points="189.5,45.07,185.5,51.07,189.5,57.07,193.5,51.07,189.5,45.07" style="stroke:#181818;stroke-width:1.0;"/><polygon fill="#181818" points="189.5,122.84,193.5,113.84,189.5,117.84,185.5,113.84,189.5,122.84" style="stroke:#181818;stroke-width:1.0;"/><text fill="#000000" font-family="sans-serif" font-size="13" lengthAdjust="spacing" textLength="28" x="190.5" y="89.4951">seed</text><text fill="#000000" font-family="sans-serif" font-size="13" lengthAdjust="spacing" textLength="7" x="181.6031" y="112.1392">1</text></g><!--SRC=[jP4_2y8m4CNt-nH7t8GEhXrS7CMfu9wsHne8YIINeKY_k_aZDBeu-OQ3Hzwxtq4c8qD0CH3D0cN0cvl9u1C0OGFmDB6qoX2AYwUPB6jfIcwtU31QBJoQIAcNIdN5iUlEA4wYJVReIUd0Nh9sDZy4-80CD4MlURtIMYYD_uLfepsEpd7cFFwqFyh82sHXqZU1xZ8QtWdLlmdA4zc4oCMjp3AosZ3kw7f9ZoBaNwgL5m00]--></g></svg>