<?xml version="1.0" encoding="UTF-8" standalone="no"?><svg xmlns="http://www.w3.org/2000/svg" xmlns:xlink="http://www.w3.org/1999/xlink" contentScriptType="application/ecmascript" contentStyleType="text/css" height="298px" preserveAspectRatio="none" style="width:295px;height:298px;" version="1.1" viewBox="0 0 295 298" width="295px" zoomAndPan="magnify"><defs><filter height="300%" id="fel2ustk3u53z" width="300%" x="-1" y="-1"><feGaussianBlur result="blurOut" stdDeviation="2.0"/><feColorMatrix in="blurOut" result="blurOut2" type="matrix" values="0 0 0 0 0 0 0 0 0 0 0 0 0 0 0 0 0 0 .4 0"/><feOffset dx="4.0" dy="4.0" in="blurOut2" result="blurOut3"/><feBlend in="SourceGraphic" in2="blurOut3" mode="normal"/></filter></defs><g><!--entity Credential--><rect fill="#ADD8E6" filter="url(#fel2ustk3u53z)" height="37.6094" style="stroke: #000000; stroke-width: 1.5;" width="85" x="6" y="250"/><text fill="#000000" font-family="sans-serif" font-size="14" lengthAdjust="spacingAndGlyphs" textLength="65" x="16" y="274.5332">Credential</text><!--entity SecurityKey--><rect fill="#ADD8E6" filter="url(#fel2ustk3u53z)" height="37.6094" style="stroke: #000000; stroke-width: 1.5;" width="95" x="189" y="250"/><text fill="#000000" font-family="sans-serif" font-size="14" lengthAdjust="spacingAndGlyphs" textLength="75" x="199" y="274.5332">SecurityKey</text><!--entity SecureVault--><rect fill="#90EE90" filter="url(#fel2ustk3u53z)" height="37.6094" style="stroke: #000000; stroke-width: 1.5;" width="97" x="140" y="8"/><text fill="#000000" font-family="sans-serif" font-size="14" lengthAdjust="spacingAndGlyphs" textLength="77" x="150" y="32.5332">SecureVault</text><!--class Model--><rect fill="#FEFECE" filter="url(#fel2ustk3u53z)" height="48" id="Model" style="stroke: #A80036; stroke-width: 1.5;" width="61" x="158" y="124"/><ellipse cx="173" cy="140" fill="#ADD1B2" rx="11" ry="11" style="stroke: #A80036; stroke-width: 1.0;"/><path d="M175.7656,135.875 Q175.9219,135.6563 176.1094,135.5469 Q176.2969,135.4375 176.5156,135.4375 Q176.8906,135.4375 177.125,135.6953 Q177.3594,135.9531 177.3594,136.5625 L177.3594,138.0156 Q177.3594,138.625 177.125,138.8906 Q176.8906,139.1563 176.5156,139.1563 Q176.1719,139.1563 175.9688,138.9531 Q175.7656,138.7656 175.6563,138.25 Q175.6094,137.8906 175.4219,137.7031 Q175.0938,137.3281 174.4844,137.1094 Q173.875,136.8906 173.25,136.8906 Q172.4844,136.8906 171.8516,137.2188 Q171.2188,137.5469 170.7266,138.2969 Q170.2344,139.0469 170.2344,140.0781 L170.2344,141.1719 Q170.2344,142.4063 171.125,143.2266 Q172.0156,144.0469 173.6094,144.0469 Q174.5469,144.0469 175.2031,143.7969 Q175.5938,143.6406 176.0156,143.2031 Q176.2813,142.9375 176.4297,142.8594 Q176.5781,142.7813 176.7813,142.7813 Q177.1094,142.7813 177.3672,143.0391 Q177.625,143.2969 177.625,143.6406 Q177.625,143.9844 177.2813,144.3906 Q176.7813,144.9688 175.9844,145.2969 Q174.9063,145.75 173.6094,145.75 Q172.0938,145.75 170.8906,145.125 Q169.9063,144.625 169.2188,143.5547 Q168.5313,142.4844 168.5313,141.2031 L168.5313,140.0469 Q168.5313,138.7188 169.1484,137.5703 Q169.7656,136.4219 170.8594,135.8047 Q171.9531,135.1875 173.1875,135.1875 Q173.9219,135.1875 174.5703,135.3516 Q175.2188,135.5156 175.7656,135.875 Z "/><text fill="#000000" font-family="sans-serif" font-size="12" lengthAdjust="spacingAndGlyphs" textLength="29" x="187" y="144.9102">Seed</text><line style="stroke: #A80036; stroke-width: 1.5;" x1="159" x2="218" y1="156" y2="156"/><line style="stroke: #A80036; stroke-width: 1.5;" x1="159" x2="218" y1="164" y2="164"/><!--link Model to Credential--><path d="M145.06,160.179 C121.175,168.294 92.6022,181.516 73.5,202 C64.514,211.6358 58.6662,224.8215 54.9055,236.8748 " fill="none" id="Model-Credential" style="stroke: #A80036; stroke-width: 1.0;"/><polygon fill="#A80036" points="51.4906,249.7526,57.6639,242.0786,52.7723,244.9197,49.9312,240.028,51.4906,249.7526" style="stroke: #A80036; stroke-width: 1.0;"/><line style="stroke: #A80036; stroke-width: 1.0;" x1="52.7723" x2="54.8229" y1="244.9197" y2="237.1869"/><polygon fill="#A80036" points="157.757,156.182,150.8329,154.1679,146.3106,159.7847,153.2347,161.7988,157.757,156.182" style="stroke: #A80036; stroke-width: 1.0;"/><text fill="#000000" font-family="sans-serif" font-size="13" lengthAdjust="spacingAndGlyphs" textLength="98" x="74.5" y="216.4951">registrationCreds</text><text fill="#000000" font-family="sans-serif" font-size="13" lengthAdjust="spacingAndGlyphs" textLength="7" x="44.3346" y="239.0168">1</text><!--link Model to SecurityKey--><path d="M180.886,185.579 C180.086,196.9948 180.908,209.3718 185.5,220 C188.823,227.6911 194.052,234.7194 199.921,240.8846 " fill="none" id="Model-SecurityKey" style="stroke: #A80036; stroke-width: 1.0;"/><polygon fill="#A80036" points="209.486,249.8333,205.6464,240.7637,205.8347,246.4174,200.181,246.6057,209.486,249.8333" style="stroke: #A80036; stroke-width: 1.0;"/><line style="stroke: #A80036; stroke-width: 1.0;" x1="205.8347" x2="199.9925" y1="246.4174" y2="240.9521"/><polygon fill="#A80036" points="182.524,172.314,177.819,177.7787,181.0538,184.2236,185.7587,178.7589,182.524,172.314" style="stroke: #A80036; stroke-width: 1.0;"/><text fill="#000000" font-family="sans-serif" font-size="13" lengthAdjust="spacingAndGlyphs" textLength="54" x="186.5" y="216.4951">bootstrap</text><text fill="#000000" font-family="sans-serif" font-size="13" lengthAdjust="spacingAndGlyphs" textLength="7" x="193.1411" y="239.1223">1</text><!--link Model to SecurityKey--><path d="M229.29,178.782 C235.884,185.616 241.765,193.4271 245.5,202 C250.281,212.973 249.725,225.8614 247.366,237.3228 " fill="none" id="Model-SecurityKey-1" style="stroke: #A80036; stroke-width: 1.0;"/><polygon fill="#A80036" points="243.98,249.9217,250.1787,242.2682,245.2776,245.093,242.4528,240.192,243.98,249.9217" style="stroke: #A80036; stroke-width: 1.0;"/><line style="stroke: #A80036; stroke-width: 1.0;" x1="245.2776" x2="247.354" y1="245.093" y2="237.3671"/><polygon fill="#A80036" points="219.287,169.492,220.9612,176.5061,228.0797,177.6583,226.4054,170.6443,219.287,169.492" style="stroke: #A80036; stroke-width: 1.0;"/><text fill="#000000" font-family="sans-serif" font-size="13" lengthAdjust="spacingAndGlyphs" textLength="32" x="249.5" y="216.4951">uauth</text><text fill="#000000" font-family="sans-serif" font-size="13" lengthAdjust="spacingAndGlyphs" textLength="7" x="238.1989" y="239.2377">1</text><!--link SecureVault to Model--><path d="M188.5,59.321 C188.5,75.133 188.5,94.397 188.5,110.837 " fill="none" id="SecureVault-Model" style="stroke: #A80036; stroke-width: 1.0;"/><polygon fill="#A80036" points="188.5,123.844,192.5,114.844,188.5,118.844,184.5,114.844,188.5,123.844" style="stroke: #A80036; stroke-width: 1.0;"/><line style="stroke: #A80036; stroke-width: 1.0;" x1="188.5" x2="188.5" y1="118.844" y2="110.844"/><polygon fill="#A80036" points="188.5,46.074,184.5,52.074,188.5,58.074,192.5,52.074,188.5,46.074" style="stroke: #A80036; stroke-width: 1.0;"/><text fill="#000000" font-family="sans-serif" font-size="13" lengthAdjust="spacingAndGlyphs" textLength="28" x="189.5" y="90.4951">seed</text><text fill="#000000" font-family="sans-serif" font-size="13" lengthAdjust="spacingAndGlyphs" textLength="7" x="180.6031" y="113.1442">1</text><!--
@startuml

class "Seed" as Model {

 
}

rectangle "Credential" as Credential #lightblue {
}

Model *- -> "1" Credential : registrationCreds


rectangle "SecurityKey" as SecurityKey #lightblue {
}

Model *- -> "1" SecurityKey : bootstrap


rectangle "SecurityKey" as SecurityKey #lightblue {
}

Model *- -> "1" SecurityKey : uauth




    rectangle "SecureVault" as SecureVault #lightgreen {
    }
    
        SecureVault   *- -> "1" Model : "seed"
    

@enduml

PlantUML version 1.2019.05(Sat Apr 20 09:45:36 PDT 2019)
(GPL source distribution)
Java Runtime: Java(TM) SE Runtime Environment
JVM: Java HotSpot(TM) Client VM
Java Version: 1.8.0_271-b09
Operating System: Windows 10
OS Version: 10.0
Default Encoding: Cp1252
Language: en
Country: US
--></g></svg>