<?xml version="1.0" encoding="us-ascii" standalone="no"?><svg xmlns="http://www.w3.org/2000/svg" xmlns:xlink="http://www.w3.org/1999/xlink" contentStyleType="text/css" height="676px" preserveAspectRatio="none" style="width:353px;height:676px;background:#FFFFFF;" version="1.1" viewBox="0 0 353 676" width="353px" zoomAndPan="magnify"><defs/><g><!--cluster Key Manager--><g id="cluster_Key Manager"><path d="M48,60 L141,60 A3.75,3.75 0 0 1 143.5,62.5 L150.5,83.6094 L344,83.6094 A2.5,2.5 0 0 1 346.5,86.1094 L346.5,666.5 A2.5,2.5 0 0 1 344,669 L48,669 A2.5,2.5 0 0 1 45.5,666.5 L45.5,62.5 A2.5,2.5 0 0 1 48,60 " fill="#ADD8E6" style="stroke:#000000;stroke-width:1.5;"/><line style="stroke:#000000;stroke-width:1.5;" x1="45.5" x2="150.5" y1="83.6094" y2="83.6094"/><text fill="#000000" font-family="sans-serif" font-size="14" font-weight="bold" lengthAdjust="spacing" textLength="92" x="49.5" y="76.5332">Key Manager</text></g><!--cluster bin--><g id="cluster_bin"><path d="M72,104 L95,104 A3.75,3.75 0 0 1 97.5,106.5 L104.5,127.6094 L213,127.6094 A2.5,2.5 0 0 1 215.5,130.1094 L215.5,201.5 A2.5,2.5 0 0 1 213,204 L72,204 A2.5,2.5 0 0 1 69.5,201.5 L69.5,106.5 A2.5,2.5 0 0 1 72,104 " fill="#FFFFFF" style="stroke:#000000;stroke-width:1.5;"/><line style="stroke:#000000;stroke-width:1.5;" x1="69.5" x2="104.5" y1="127.6094" y2="127.6094"/><text fill="#000000" font-family="sans-serif" font-size="14" font-weight="bold" lengthAdjust="spacing" textLength="22" x="73.5" y="120.5332">bin</text></g><!--cluster deploy--><g id="cluster_deploy"><path d="M72,320 L120,320 A3.75,3.75 0 0 1 122.5,322.5 L129.5,343.6094 L312,343.6094 A2.5,2.5 0 0 1 314.5,346.1094 L314.5,424.5 A2.5,2.5 0 0 1 312,427 L72,427 A2.5,2.5 0 0 1 69.5,424.5 L69.5,322.5 A2.5,2.5 0 0 1 72,320 " fill="#FFFFFF" style="stroke:#000000;stroke-width:1.5;"/><line style="stroke:#000000;stroke-width:1.5;" x1="69.5" x2="129.5" y1="343.6094" y2="343.6094"/><text fill="#000000" font-family="sans-serif" font-size="14" font-weight="bold" lengthAdjust="spacing" textLength="47" x="73.5" y="336.5332">deploy</text></g><!--cluster images--><g id="cluster_images"><path d="M78,451 L129,451 A3.75,3.75 0 0 1 131.5,453.5 L138.5,474.6094 L320,474.6094 A2.5,2.5 0 0 1 322.5,477.1094 L322.5,642.5 A2.5,2.5 0 0 1 320,645 L78,645 A2.5,2.5 0 0 1 75.5,642.5 L75.5,453.5 A2.5,2.5 0 0 1 78,451 " fill="#FFFFFF" style="stroke:#000000;stroke-width:1.5;"/><line style="stroke:#000000;stroke-width:1.5;" x1="75.5" x2="138.5" y1="474.6094" y2="474.6094"/><text fill="#000000" font-family="sans-serif" font-size="14" font-weight="bold" lengthAdjust="spacing" textLength="50" x="79.5" y="467.5332">images</text></g><!--entity REST--><g id="elem_REST"><rect fill="#F1F1F1" height="47.6094" rx="2.5" ry="2.5" style="stroke:#181818;stroke-width:0.5;" width="89" x="97" y="248"/><rect fill="#F1F1F1" height="10" style="stroke:#181818;stroke-width:0.5;" width="15" x="166" y="253"/><rect fill="#F1F1F1" height="2" style="stroke:#181818;stroke-width:0.5;" width="4" x="164" y="255"/><rect fill="#F1F1F1" height="2" style="stroke:#181818;stroke-width:0.5;" width="4" x="164" y="259"/><text fill="#000000" font-family="sans-serif" font-size="14" lengthAdjust="spacing" textLength="49" x="112" y="282.5332">express</text></g><!--entity socket--><g id="elem_socket"><rect fill="#F1F1F1" height="47.6094" rx="2.5" ry="2.5" style="stroke:#181818;stroke-width:0.5;" width="96" x="234.5" y="140"/><rect fill="#F1F1F1" height="10" style="stroke:#181818;stroke-width:0.5;" width="15" x="310.5" y="145"/><rect fill="#F1F1F1" height="2" style="stroke:#181818;stroke-width:0.5;" width="4" x="308.5" y="147"/><rect fill="#F1F1F1" height="2" style="stroke:#181818;stroke-width:0.5;" width="4" x="308.5" y="151"/><text fill="#000000" font-family="sans-serif" font-size="14" lengthAdjust="spacing" textLength="56" x="249.5" y="174.5332">socket.io</text></g><!--entity binName--><g id="elem_binName"><rect fill="#F1F1F1" height="47.6094" rx="2.5" ry="2.5" style="stroke:#181818;stroke-width:0.5;" width="113" x="86" y="140"/><rect fill="#F1F1F1" height="10" style="stroke:#181818;stroke-width:0.5;" width="15" x="179" y="145"/><rect fill="#F1F1F1" height="2" style="stroke:#181818;stroke-width:0.5;" width="4" x="177" y="147"/><rect fill="#F1F1F1" height="2" style="stroke:#181818;stroke-width:0.5;" width="4" x="177" y="151"/><text fill="#000000" font-family="sans-serif" font-size="14" lengthAdjust="spacing" textLength="69" x="105" y="174.5332">sabr sa km</text></g><!--entity s_km_container--><g id="elem_s_km_container"><path d="M85.5,358.5 L85.5,408.7188 A2.5,2.5 0 0 0 88,411.2188 L193,411.2188 A2.5,2.5 0 0 0 195.5,408.7188 L195.5,366 L185.5,356 L88,356 A2.5,2.5 0 0 0 85.5,358.5 " fill="#F1F1F1" style="stroke:#181818;stroke-width:0.5;"/><path d="M185.5,356 L185.5,363.5 A2.5,2.5 0 0 0 188,366 L195.5,366 " fill="#F1F1F1" style="stroke:#181818;stroke-width:0.5;"/><text fill="#000000" font-family="sans-serif" font-size="14" lengthAdjust="spacing" textLength="90" x="95.5" y="380.5332">node server.js</text><text fill="#000000" font-family="sans-serif" font-size="14" lengthAdjust="spacing" textLength="4" x="95.5" y="398.1426">&#160;</text></g><!--entity registry_container--><g id="elem_registry_container"><path d="M231,367 L231,399.6094 A2.5,2.5 0 0 0 233.5,402.1094 L295.5,402.1094 A2.5,2.5 0 0 0 298,399.6094 L298,374.5 L288,364.5 L233.5,364.5 A2.5,2.5 0 0 0 231,367 " fill="#F1F1F1" style="stroke:#181818;stroke-width:0.5;"/><path d="M288,364.5 L288,372 A2.5,2.5 0 0 0 290.5,374.5 L298,374.5 " fill="#F1F1F1" style="stroke:#181818;stroke-width:0.5;"/><text fill="#000000" font-family="sans-serif" font-size="14" lengthAdjust="spacing" textLength="47" x="241" y="389.0332">registry</text></g><!--entity s_kmimage--><g id="elem_s_kmimage"><rect fill="#F1F1F1" height="33.6094" rx="2.5" ry="2.5" style="stroke:#181818;stroke-width:0.5;" width="49" x="96" y="492.5"/><rect fill="#F1F1F1" height="33.6094" rx="2.5" ry="2.5" style="stroke:#181818;stroke-width:0.5;" width="49" x="92" y="488.5"/><text fill="#000000" font-family="sans-serif" font-size="14" lengthAdjust="spacing" textLength="33" x="100" y="511.0332">s_km</text></g><!--entity ailtireswarm--><g id="elem_ailtireswarm"><rect fill="#F1F1F1" height="40.6094" rx="2.5" ry="2.5" style="stroke:#181818;stroke-width:0.5;" width="108" x="91.5" y="588"/><polygon fill="#F1F1F1" points="182.5,593,182.5,607,194.5,607,194.5,599,188.5,593,182.5,593" style="stroke:#181818;stroke-width:0.5;"/><line style="stroke:#181818;stroke-width:0.5;" x1="188.5" x2="188.5" y1="593" y2="599"/><line style="stroke:#181818;stroke-width:0.5;" x1="194.5" x2="188.5" y1="599" y2="599"/><text fill="#000000" font-family="sans-serif" font-size="14" lengthAdjust="spacing" textLength="78" x="101.5" y="615.5332">ailtire:swarm</text></g><!--entity sa_km_registry--><g id="elem_sa_km_registry"><rect fill="#F1F1F1" height="40.6094" rx="2.5" ry="2.5" style="stroke:#181818;stroke-width:0.5;" width="126" x="180.5" y="487"/><polygon fill="#F1F1F1" points="289.5,492,289.5,506,301.5,506,301.5,498,295.5,492,289.5,492" style="stroke:#181818;stroke-width:0.5;"/><line style="stroke:#181818;stroke-width:0.5;" x1="295.5" x2="295.5" y1="492" y2="498"/><line style="stroke:#181818;stroke-width:0.5;" x1="301.5" x2="295.5" y1="498" y2="498"/><text fill="#000000" font-family="sans-serif" font-size="14" lengthAdjust="spacing" textLength="96" x="190.5" y="514.5332">sa_km_registry</text></g><!--entity CLI--><g id="elem_CLI"><ellipse cx="142.5" cy="14" fill="#F1F1F1" rx="8" ry="8" style="stroke:#181818;stroke-width:0.5;"/><text fill="#000000" font-family="sans-serif" font-size="14" lengthAdjust="spacing" textLength="21" x="132" y="45.5332">CLI</text></g><!--entity Web--><g id="elem_Web"><ellipse cx="20.5" cy="272" fill="#F1F1F1" rx="8" ry="8" style="stroke:#181818;stroke-width:0.5;"/><text fill="#000000" font-family="sans-serif" font-size="14" lengthAdjust="spacing" textLength="29" x="6" y="303.5332">Web</text></g><!--entity WebSocket--><g id="elem_WebSocket"><ellipse cx="282.5" cy="14" fill="#F1F1F1" rx="8" ry="8" style="stroke:#181818;stroke-width:0.5;"/><text fill="#000000" font-family="sans-serif" font-size="14" lengthAdjust="spacing" textLength="72" x="246.5" y="45.5332">WebSocket</text></g><!--link binName to REST--><g id="link_binName_REST"><path d="M142.28,188 C142.12,205.66 141.9475,223.9403 141.7775,241.6803 " fill="none" id="binName-to-REST" style="stroke:#181818;stroke-width:1.0;"/><polygon fill="#181818" points="141.72,247.68,145.8061,238.7187,141.7679,242.6802,137.8064,238.6421,141.72,247.68" style="stroke:#181818;stroke-width:1.0;"/></g><!--link REST to s_km_container--><g id="link_REST_s_km_container"><path d="M141.29,296.22 C141.13,313.67 140.9659,331.6103 140.7959,349.8403 " fill="none" id="REST-to-s_km_container" style="stroke:#181818;stroke-width:1.0;"/><polygon fill="#181818" points="140.74,355.84,144.8238,346.8777,140.7866,350.8402,136.8241,346.8031,140.74,355.84" style="stroke:#181818;stroke-width:1.0;"/></g><!--link REST to registry_container--><g id="link_REST_registry_container"><path d="M186.19,293.16 C195.74,298.54 205.38,304.87 213.5,312 C230.64,327.05 242.2433,343.7129 251.3833,359.0829 " fill="none" id="REST-to-registry_container" style="stroke:#181818;stroke-width:1.0;"/><polygon fill="#181818" points="254.45,364.24,253.288,354.4599,251.8944,359.9425,246.4119,358.5489,254.45,364.24" style="stroke:#181818;stroke-width:1.0;"/></g><!--link socket to registry_container--><g id="link_socket_registry_container"><path d="M280.57,188.28 C276.96,231.89 269.7441,319.0804 266.4941,358.4104 " fill="none" id="socket-to-registry_container" style="stroke:#181818;stroke-width:1.0;"/><polygon fill="#181818" points="266,364.39,270.7276,355.75,266.4118,359.407,262.7548,355.0912,266,364.39" style="stroke:#181818;stroke-width:1.0;"/></g><!--reverse link s_kmimage to ailtireswarm--><g id="link_s_kmimage_ailtireswarm"><path d="M128.1878,544.0253 C132.9078,561.3253 135.26,569.95 140.12,587.76 " fill="none" id="s_kmimage-backto-ailtireswarm" style="stroke:#181818;stroke-width:1.0;"/><polygon fill="none" points="123.45,526.66,122.3994,545.6046,133.9762,542.446,123.45,526.66" style="stroke:#181818;stroke-width:1.0;"/></g><!--link s_km_container to s_kmimage--><g id="link_s_km_container_s_kmimage"><path d="M135.67,411.27 C131.45,434.7 126.4962,462.1855 122.8162,482.5655 " fill="none" id="s_km_container-to-s_kmimage" style="stroke:#181818;stroke-width:1.0;"/><polygon fill="#181818" points="121.75,488.47,127.2856,480.324,122.6385,483.5496,119.4129,478.9024,121.75,488.47" style="stroke:#181818;stroke-width:1.0;"/></g><!--link registry_container to sa_km_registry--><g id="link_registry_container_sa_km_registry"><path d="M261.4,402.5 C257.52,425.04 251.9172,457.5869 247.9072,480.8969 " fill="none" id="registry_container-to-sa_km_registry" style="stroke:#181818;stroke-width:1.0;"/><polygon fill="#181818" points="246.89,486.81,252.3579,478.6184,247.7377,481.8824,244.4738,477.2621,246.89,486.81" style="stroke:#181818;stroke-width:1.0;"/></g><!--link CLI to binName--><g id="link_CLI_binName"><path d="M142.5,23.38 C142.5,45.52 142.5,106.15 142.5,139.77 " fill="none" id="CLI-binName" style="stroke:#181818;stroke-width:1.0;"/><text fill="#000000" font-family="sans-serif" font-size="13" lengthAdjust="spacing" textLength="65" x="60.6813" y="21.6336">sabr sa km</text></g><!--link Web to REST--><g id="link_Web_REST"><path d="M29.95,272 C52.18,272 74.4,272 96.62,272 " fill="none" id="Web-REST" style="stroke:#181818;stroke-width:1.0;"/><text fill="#000000" font-family="sans-serif" font-size="13" lengthAdjust="spacing" textLength="69" x="37.5429" y="264.0068">/sabr/sa/km</text></g><!--link WebSocket to socket--><g id="link_WebSocket_socket"><path d="M282.5,23.38 C282.5,45.52 282.5,106.15 282.5,139.77 " fill="none" id="WebSocket-socket" style="stroke:#181818;stroke-width:1.0;"/><text fill="#000000" font-family="sans-serif" font-size="13" lengthAdjust="spacing" textLength="69" x="196.6813" y="21.6336">.sabr.sa.km</text></g><!--SRC=[TLBBJiCm4BpdArRkEUaT8Iw80-9ne4XSa2edtHOJnuxMvb51_vtr8scRqaYnl9xPyUvu0PJnI6lP85pVtnPm4BzWFOqNjcdH5xriMhb147UuXGTfU4y2PbfjtdojFn1-EB6nNMyD6W_utHCw1zB1qytY-GXpKR5IDg0fO7njzGe9QcLWjevVb3nC5E1aJRn0sucGpEH7sI7JTlpd2ChoAbswLrrXh-rs8ioeqjoHiIi4X_I9LBsxLnEbtRBjbeqrNYg3bFb1DSfFK8QBlHxXHZbFswWp11EjKUaCdcnXnZbAxZdtfpf-3tTYdDROU6MD0n4g7XkBzCYHv1M_D7ihbVQAyC9zIKhCV18FKb53Abp-bkN_-Bx8qQXqs-3HuPrEXemZluwFSiQf0qdyb1jjsHKyrvDfuNg7QU6X1Z4F82_p2APv6QSTH1LWNggScyVq3m00]--></g></svg>