<?xml version="1.0" encoding="UTF-8" standalone="no"?><svg xmlns="http://www.w3.org/2000/svg" xmlns:xlink="http://www.w3.org/1999/xlink" contentScriptType="application/ecmascript" contentStyleType="text/css" height="237px" preserveAspectRatio="none" style="width:410px;height:237px;" version="1.1" viewBox="0 0 410 237" width="410px" zoomAndPan="magnify"><defs><filter height="300%" id="f1xdulhhq22khy" width="300%" x="-1" y="-1"><feGaussianBlur result="blurOut" stdDeviation="2.0"/><feColorMatrix in="blurOut" result="blurOut2" type="matrix" values="0 0 0 0 0 0 0 0 0 0 0 0 0 0 0 0 0 0 .4 0"/><feOffset dx="4.0" dy="4.0" in="blurOut2" result="blurOut3"/><feBlend in="SourceGraphic" in2="blurOut3" mode="normal"/></filter></defs><g><!--entity SABundleInstance--><rect fill="#ADD8E6" filter="url(#f1xdulhhq22khy)" height="37.6094" style="stroke: #000000; stroke-width: 1.5;" width="135" x="138.5" y="189"/><text fill="#000000" font-family="sans-serif" font-size="14" lengthAdjust="spacingAndGlyphs" textLength="115" x="148.5" y="213.5332">SABundleInstance</text><!--entity Capability--><rect fill="#90EE90" filter="url(#f1xdulhhq22khy)" height="37.6094" style="stroke: #000000; stroke-width: 1.5;" width="82" x="6" y="189"/><text fill="#000000" font-family="sans-serif" font-size="14" lengthAdjust="spacingAndGlyphs" textLength="62" x="16" y="213.5332">Capability</text><!--entity Provisioner--><rect fill="#ADD8E6" filter="url(#f1xdulhhq22khy)" height="37.6094" style="stroke: #000000; stroke-width: 1.5;" width="91" x="308.5" y="189"/><text fill="#000000" font-family="sans-serif" font-size="14" lengthAdjust="spacingAndGlyphs" textLength="71" x="318.5" y="213.5332">Provisioner</text><!--class Model--><rect fill="#FEFECE" filter="url(#f1xdulhhq22khy)" height="103.3438" id="Model" style="stroke: #A80036; stroke-width: 1.5;" width="133" x="90.5" y="8"/><ellipse cx="105.5" cy="24" fill="#ADD1B2" rx="11" ry="11" style="stroke: #A80036; stroke-width: 1.0;"/><path d="M108.2656,19.875 Q108.4219,19.6563 108.6094,19.5469 Q108.7969,19.4375 109.0156,19.4375 Q109.3906,19.4375 109.625,19.6953 Q109.8594,19.9531 109.8594,20.5625 L109.8594,22.0156 Q109.8594,22.625 109.625,22.8906 Q109.3906,23.1563 109.0156,23.1563 Q108.6719,23.1563 108.4688,22.9531 Q108.2656,22.7656 108.1563,22.25 Q108.1094,21.8906 107.9219,21.7031 Q107.5938,21.3281 106.9844,21.1094 Q106.375,20.8906 105.75,20.8906 Q104.9844,20.8906 104.3516,21.2188 Q103.7188,21.5469 103.2266,22.2969 Q102.7344,23.0469 102.7344,24.0781 L102.7344,25.1719 Q102.7344,26.4063 103.625,27.2266 Q104.5156,28.0469 106.1094,28.0469 Q107.0469,28.0469 107.7031,27.7969 Q108.0938,27.6406 108.5156,27.2031 Q108.7813,26.9375 108.9297,26.8594 Q109.0781,26.7813 109.2813,26.7813 Q109.6094,26.7813 109.8672,27.0391 Q110.125,27.2969 110.125,27.6406 Q110.125,27.9844 109.7813,28.3906 Q109.2813,28.9688 108.4844,29.2969 Q107.4063,29.75 106.1094,29.75 Q104.5938,29.75 103.3906,29.125 Q102.4063,28.625 101.7188,27.5547 Q101.0313,26.4844 101.0313,25.2031 L101.0313,24.0469 Q101.0313,22.7188 101.6484,21.5703 Q102.2656,20.4219 103.3594,19.8047 Q104.4531,19.1875 105.6875,19.1875 Q106.4219,19.1875 107.0703,19.3516 Q107.7188,19.5156 108.2656,19.875 Z "/><text fill="#000000" font-family="sans-serif" font-size="12" lengthAdjust="spacingAndGlyphs" textLength="101" x="119.5" y="28.9102">CapabilityInstance</text><line style="stroke: #A80036; stroke-width: 1.5;" x1="91.5" x2="222.5" y1="40" y2="40"/><text fill="#000000" font-family="sans-serif" font-size="11" lengthAdjust="spacingAndGlyphs" textLength="56" x="96.5" y="55.4189">string name</text><line style="stroke: #A80036; stroke-width: 1.5;" x1="91.5" x2="222.5" y1="61.8359" y2="61.8359"/><text fill="#000000" font-family="sans-serif" font-size="11" lengthAdjust="spacingAndGlyphs" textLength="40" x="96.5" y="77.2549">deploy()</text><text fill="#000000" font-family="sans-serif" font-size="11" lengthAdjust="spacingAndGlyphs" textLength="19" x="96.5" y="91.0908">kill()</text><text fill="#000000" font-family="sans-serif" font-size="11" lengthAdjust="spacingAndGlyphs" textLength="41" x="96.5" y="104.9268">update()</text><!--link Model to SABundleInstance--><path d="M178.203,123.894 C184.326,142.1981 190.728,161.3391 195.843,176.6314 " fill="none" id="Model-SABundleInstance" style="stroke: #A80036; stroke-width: 1.0;"/><polygon fill="#A80036" points="199.967,188.9617,200.9055,179.1577,198.3809,184.2199,193.3187,181.6953,199.967,188.9617" style="stroke: #A80036; stroke-width: 1.0;"/><line style="stroke: #A80036; stroke-width: 1.0;" x1="198.3809" x2="195.843" y1="184.2199" y2="176.633"/><polygon fill="#FFFFFF" points="174,111.327,172.1094,118.2859,177.8058,122.7075,179.6964,115.7486,174,111.327" style="stroke: #A80036; stroke-width: 1.0;"/><text fill="#000000" font-family="sans-serif" font-size="13" lengthAdjust="spacingAndGlyphs" textLength="45" x="190" y="155.4951">bundles</text><text fill="#000000" font-family="sans-serif" font-size="13" lengthAdjust="spacingAndGlyphs" textLength="7" x="190.0475" y="178.29">n</text><!--link Model to Capability--><path d="M78.8126,92.63 C59.042,104.731 40.2471,120.64 29,141 C22.9268,151.9938 24.9427,165.1671 29.4009,176.8432 " fill="none" id="Model-Capability" style="stroke: #A80036; stroke-width: 1.0;"/><polygon fill="#A80036" points="34.93,188.7515,34.7679,178.904,32.8244,184.2165,27.5118,182.273,34.93,188.7515" style="stroke: #A80036; stroke-width: 1.0;"/><line style="stroke: #A80036; stroke-width: 1.0;" x1="32.8244" x2="29.4553" y1="184.2165" y2="176.9604"/><polygon fill="#FFFFFF" points="90.1842,86.118,82.9897,85.6288,79.771,92.0817,86.9655,92.5709,90.1842,86.118" style="stroke: #A80036; stroke-width: 1.0;"/><text fill="#000000" font-family="sans-serif" font-size="13" lengthAdjust="spacingAndGlyphs" textLength="34" x="30" y="155.4951">owner</text><text fill="#000000" font-family="sans-serif" font-size="13" lengthAdjust="spacingAndGlyphs" textLength="7" x="23.1617" y="178.0154">1</text><!--link Capability to Model--><path d="M68.6609,178.1517 C80.7267,162.0822 96.2303,141.4342 110.872,121.934 " fill="none" id="Capability-Model" style="stroke: #A80036; stroke-width: 1.0;"/><polygon fill="#A80036" points="118.836,111.327,110.2334,116.1223,115.8338,115.3254,116.6307,120.9258,118.836,111.327" style="stroke: #A80036; stroke-width: 1.0;"/><line style="stroke: #A80036; stroke-width: 1.0;" x1="115.8338" x2="111.0305" y1="115.3254" y2="121.723"/><polygon fill="#A80036" points="60.5441,188.9617,67.3454,186.5654,67.7493,179.3656,60.948,181.7619,60.5441,188.9617" style="stroke: #A80036; stroke-width: 1.0;"/><text fill="#000000" font-family="sans-serif" font-size="13" lengthAdjust="spacingAndGlyphs" textLength="56" x="97" y="155.4951">instances</text><text fill="#000000" font-family="sans-serif" font-size="13" lengthAdjust="spacingAndGlyphs" textLength="7" x="106.2374" y="132.8619">n</text><!--link Model to Provisioner--><path d="M234.146,117.87 C263.592,139.7678 295.713,163.6545 319.284,181.183 " fill="none" id="Model-Provisioner" style="stroke: #A80036; stroke-width: 1.0;"/><polygon fill="#A80036" points="329.795,188.9995,324.9598,180.4193,325.7827,186.0159,320.1861,186.8389,329.795,188.9995" style="stroke: #A80036; stroke-width: 1.0;"/><line style="stroke: #A80036; stroke-width: 1.0;" x1="325.7827" x2="319.363" y1="186.0159" y2="181.2419"/><polygon fill="#FFFFFF" points="223.695,110.098,226.1228,116.8881,233.3244,117.2587,230.8966,110.4686,223.695,110.098" style="stroke: #A80036; stroke-width: 1.0;"/><text fill="#000000" font-family="sans-serif" font-size="13" lengthAdjust="spacingAndGlyphs" textLength="61" x="286" y="155.4951">provisioner</text><text fill="#000000" font-family="sans-serif" font-size="13" lengthAdjust="spacingAndGlyphs" textLength="7" x="313.964" y="178.0065">1</text><!--
@startuml

class "CapabilityInstance" as Model {
 string name

 deploy()
 kill()
 update()
 
}

rectangle "SABundleInstance" as SABundleInstance #lightblue {
}

Model o- -> "n" SABundleInstance : bundles


rectangle "Capability" as Capability #lightblue {
}

Model o- -> "1" Capability : owner


rectangle "Provisioner" as Provisioner #lightblue {
}

Model o- -> "1" Provisioner : provisioner




    rectangle "Capability" as Capability #lightgreen {
    }
    
        Capability   *- -> "n" Model : "instances"
    

@enduml

PlantUML version 1.2019.05(Sat Apr 20 09:45:36 PDT 2019)
(GPL source distribution)
Java Runtime: Java(TM) SE Runtime Environment
JVM: Java HotSpot(TM) Client VM
Java Version: 1.8.0_271-b09
Operating System: Windows 10
OS Version: 10.0
Default Encoding: Cp1252
Language: en
Country: US
--></g></svg>