<?xml version="1.0" encoding="UTF-8" standalone="no"?><svg xmlns="http://www.w3.org/2000/svg" xmlns:xlink="http://www.w3.org/1999/xlink" contentScriptType="application/ecmascript" contentStyleType="text/css" height="834px" preserveAspectRatio="none" style="width:245px;height:834px;" version="1.1" viewBox="0 0 245 834" width="245px" zoomAndPan="magnify"><defs><filter height="300%" id="fiz5agb8dnbmj" width="300%" x="-1" y="-1"><feGaussianBlur result="blurOut" stdDeviation="2.0"/><feColorMatrix in="blurOut" result="blurOut2" type="matrix" values="0 0 0 0 0 0 0 0 0 0 0 0 0 0 0 0 0 0 .4 0"/><feOffset dx="4.0" dy="4.0" in="blurOut2" result="blurOut3"/><feBlend in="SourceGraphic" in2="blurOut3" mode="normal"/></filter></defs><g><rect fill="#00AAFF" filter="url(#fiz5agb8dnbmj)" height="815.6094" rx="12.5" ry="12.5" style="stroke: #A80036; stroke-width: 1.5;" width="227" x="6" y="8"/><rect fill="#FFFFFF" height="782" rx="12.5" ry="12.5" style="stroke: #FFFFFF; stroke-width: 1.0;" width="221" x="9" y="38.6094"/><line style="stroke: #A80036; stroke-width: 1.5;" x1="6" x2="233" y1="35.6094" y2="35.6094"/><text fill="#000000" font-family="sans-serif" font-size="14" lengthAdjust="spacingAndGlyphs" textLength="115" x="62" y="27.5332">CapabilityInstance</text><rect fill="#00AAFF" filter="url(#fiz5agb8dnbmj)" height="50" rx="12.5" ry="12.5" style="stroke: #A80036; stroke-width: 1.5;" width="50" x="93.7676" y="48.6094"/><line style="stroke: #A80036; stroke-width: 1.5;" x1="93.7676" x2="143.7676" y1="76.2188" y2="76.2188"/><text fill="#000000" font-family="sans-serif" font-size="14" lengthAdjust="spacingAndGlyphs" textLength="18" x="109.7676" y="68.1426">Init</text><rect fill="#00AAFF" filter="url(#fiz5agb8dnbmj)" height="50" rx="12.5" ry="12.5" style="stroke: #A80036; stroke-width: 1.5;" width="71" x="83.2676" y="190.6094"/><line style="stroke: #A80036; stroke-width: 1.5;" x1="83.2676" x2="154.2676" y1="218.2188" y2="218.2188"/><text fill="#000000" font-family="sans-serif" font-size="14" lengthAdjust="spacingAndGlyphs" textLength="51" x="93.2676" y="210.1426">Created</text><rect fill="#00AAFF" filter="url(#fiz5agb8dnbmj)" height="50" rx="12.5" ry="12.5" style="stroke: #A80036; stroke-width: 1.5;" width="83" x="37.2676" y="332.6094"/><line style="stroke: #A80036; stroke-width: 1.5;" x1="37.2676" x2="120.2676" y1="360.2188" y2="360.2188"/><text fill="#000000" font-family="sans-serif" font-size="14" lengthAdjust="spacingAndGlyphs" textLength="63" x="47.2676" y="352.1426">Deploying</text><rect fill="#00AAFF" filter="url(#fiz5agb8dnbmj)" height="50" rx="12.5" ry="12.5" style="stroke: #A80036; stroke-width: 1.5;" width="80" x="32.7676" y="474.6094"/><line style="stroke: #A80036; stroke-width: 1.5;" x1="32.7676" x2="112.7676" y1="502.2188" y2="502.2188"/><text fill="#000000" font-family="sans-serif" font-size="14" lengthAdjust="spacingAndGlyphs" textLength="60" x="42.7676" y="494.1426">Deployed</text><rect fill="#00AAFF" filter="url(#fiz5agb8dnbmj)" height="50" rx="12.5" ry="12.5" style="stroke: #A80036; stroke-width: 1.5;" width="75" x="44.2676" y="616.6094"/><line style="stroke: #A80036; stroke-width: 1.5;" x1="44.2676" x2="119.2676" y1="644.2188" y2="644.2188"/><text fill="#000000" font-family="sans-serif" font-size="14" lengthAdjust="spacingAndGlyphs" textLength="55" x="54.2676" y="636.1426">Disabled</text><rect fill="#00AAFF" filter="url(#fiz5agb8dnbmj)" height="50" rx="12.5" ry="12.5" style="stroke: #A80036; stroke-width: 1.5;" width="85" x="75.2676" y="758.6094"/><line style="stroke: #A80036; stroke-width: 1.5;" x1="75.2676" x2="160.2676" y1="786.2188" y2="786.2188"/><text fill="#000000" font-family="sans-serif" font-size="14" lengthAdjust="spacingAndGlyphs" textLength="65" x="85.2676" y="778.1426">Destroyed</text><!--link Init to Created--><path d="M118.768,98.6764 C118.768,122.6164 118.768,159.3894 118.768,185.0824 " fill="none" id="Init-Created" style="stroke: #000000; stroke-width: 1.0;"/><polygon fill="#000000" points="118.768,190.3884,122.768,181.3884,118.768,185.3884,114.768,181.3884,118.768,190.3884" style="stroke: #000000; stroke-width: 1.0;"/><text fill="#000000" font-family="sans-serif" font-size="13" lengthAdjust="spacingAndGlyphs" textLength="36" x="119.768" y="150.1045">create</text><!--link Created to Deploying--><path d="M111.5868,240.6314 C108.2557,251.8544 104.2679,265.4034 100.7676,277.6094 C96.0429,294.0854 90.8965,312.5364 86.77,327.4614 " fill="none" id="Created-Deploying" style="stroke: #000000; stroke-width: 1.0;"/><polygon fill="#000000" points="85.4117,332.3794,91.6617,324.7677,86.7417,327.5595,83.9499,322.6396,85.4117,332.3794" style="stroke: #000000; stroke-width: 1.0;"/><text fill="#000000" font-family="sans-serif" font-size="13" lengthAdjust="spacingAndGlyphs" textLength="38" x="101.7676" y="292.1045">deploy</text><!--link Created to Destroyed--><path d="M138.453,240.6114 C146.857,253.2214 154.768,269.3954 154.768,285.6094 C154.768,285.6094 154.768,285.6094 154.768,713.6094 C154.768,728.0156 148.426,742.3198 140.993,754.1373 " fill="none" id="Created-Destroyed" style="stroke: #000000; stroke-width: 1.0;"/><polygon fill="#000000" points="138.216,758.3742,146.4959,753.0409,140.9575,754.1928,139.8057,748.6545,138.216,758.3742" style="stroke: #000000; stroke-width: 1.0;"/><text fill="#000000" font-family="sans-serif" font-size="13" lengthAdjust="spacingAndGlyphs" textLength="43" x="155.768" y="505.1045">destroy</text><!--link Deploying to Deployed--><path d="M77.7362,382.6764 C76.7102,406.6164 75.1342,443.3894 74.0331,469.0824 " fill="none" id="Deploying-Deployed" style="stroke: #000000; stroke-width: 1.0;"/><polygon fill="#000000" points="73.8057,474.3884,78.1877,465.5681,74.02,469.393,70.1951,465.2252,73.8057,474.3884" style="stroke: #000000; stroke-width: 1.0;"/><text fill="#000000" font-family="sans-serif" font-size="13" lengthAdjust="spacingAndGlyphs" textLength="52" x="77.7676" y="434.1045">deployed</text><!--link Deployed to Disabled--><path d="M40.8589,524.7924 C25.2676,539.7444 11.4706,559.8064 19.7676,579.6094 C25.0221,592.1504 34.251,603.4164 44.0083,612.7524 " fill="none" id="Deployed-Disabled" style="stroke: #000000; stroke-width: 1.0;"/><polygon fill="#000000" points="47.9139,616.3664,44.025,607.3178,44.2441,612.9704,38.5915,613.1895,47.9139,616.3664" style="stroke: #000000; stroke-width: 1.0;"/><text fill="#000000" font-family="sans-serif" font-size="13" lengthAdjust="spacingAndGlyphs" textLength="41" x="20.7676" y="576.1045">disable</text><!--link Disabled to Deployed--><path d="M80.2106,616.3884 C78.668,592.3934 76.3038,555.6154 74.6552,529.9714 " fill="none" id="Disabled-Deployed" style="stroke: #000000; stroke-width: 1.0;"/><polygon fill="#000000" points="74.3148,524.6764,70.9017,533.9149,74.6362,529.666,78.8851,533.4006,74.3148,524.6764" style="stroke: #000000; stroke-width: 1.0;"/><text fill="#000000" font-family="sans-serif" font-size="13" lengthAdjust="spacingAndGlyphs" textLength="38" x="78.7676" y="576.1045">enable</text><!--link Disabled to Destroyed--><path d="M84.9448,666.6954 C87.2914,682.4654 90.9196,703.4414 95.7676,721.6094 C98.6112,732.2658 102.5003,743.6996 106.2183,753.7551 " fill="none" id="Disabled-Destroyed" style="stroke: #000000; stroke-width: 1.0;"/><polygon fill="#000000" points="108.0244,758.5713,108.6094,748.7398,106.2687,753.8897,101.1188,751.549,108.0244,758.5713" style="stroke: #000000; stroke-width: 1.0;"/><text fill="#000000" font-family="sans-serif" font-size="13" lengthAdjust="spacingAndGlyphs" textLength="43" x="96.7676" y="718.1045">destroy</text><!--
@startuml



state CapabilityInstance #00aaff {

    state Init #00aaff {
    }

    state Created #00aaff {
    }

    state Deploying #00aaff {
    }

    state Deployed #00aaff {
    }

    state Disabled #00aaff {
    }

    state Destroyed #00aaff {
    }




Init -[#black]- -> Created : create

Created -[#black]- -> Deploying : deploy

Created -[#black]- -> Destroyed : destroy

Deploying -[#black]- -> Deployed : deployed

Deployed -[#black]- -> Disabled : disable

Disabled -[#black]- -> Deployed : enable

Disabled -[#black]- -> Destroyed : destroy

}


@enduml

PlantUML version 1.2019.05(Sat Apr 20 09:45:36 PDT 2019)
(GPL source distribution)
Java Runtime: Java(TM) SE Runtime Environment
JVM: Java HotSpot(TM) Client VM
Java Version: 1.8.0_271-b09
Operating System: Windows 10
OS Version: 10.0
Default Encoding: Cp1252
Language: en
Country: US
--></g></svg>