<?xml version="1.0" encoding="us-ascii" standalone="no"?><svg xmlns="http://www.w3.org/2000/svg" xmlns:xlink="http://www.w3.org/1999/xlink" contentStyleType="text/css" height="822px" preserveAspectRatio="none" style="width:228px;height:822px;background:#FFFFFF;" version="1.1" viewBox="0 0 228 822" width="228px" zoomAndPan="magnify"><defs/><g><path d="M19.5,7 L202.8,7 A12.5,12.5 0 0 1 215.3,19.5 L215.3,34.6094 L7,34.6094 L7,19.5 A12.5,12.5 0 0 1 19.5,7 " fill="#00AAFF" style="stroke:#00AAFF;stroke-width:1.0;"/><rect fill="none" height="809.6094" rx="12.5" ry="12.5" style="stroke:#181818;stroke-width:0.5;" width="208.3" x="7" y="7"/><line style="stroke:#181818;stroke-width:0.5;" x1="7" x2="215.3" y1="34.6094" y2="34.6094"/><text fill="#000000" font-family="sans-serif" font-size="14" lengthAdjust="spacing" textLength="115" x="53.65" y="26.5332">CapabilityInstance</text><g id="CapabilityInstance.Init"><rect fill="#00AAFF" height="50" rx="12.5" ry="12.5" style="stroke:#181818;stroke-width:0.5;" width="50" x="101.3" y="46.6094"/><line style="stroke:#181818;stroke-width:0.5;" x1="101.3" x2="151.3" y1="74.2188" y2="74.2188"/><text fill="#000000" font-family="sans-serif" font-size="14" lengthAdjust="spacing" textLength="18" x="117.3" y="66.1426">Init</text></g><g id="CapabilityInstance.Created"><rect fill="#00AAFF" height="50" rx="12.5" ry="12.5" style="stroke:#181818;stroke-width:0.5;" width="71" x="90.8" y="188.6094"/><line style="stroke:#181818;stroke-width:0.5;" x1="90.8" x2="161.8" y1="216.2188" y2="216.2188"/><text fill="#000000" font-family="sans-serif" font-size="14" lengthAdjust="spacing" textLength="51" x="100.8" y="208.1426">Created</text></g><g id="CapabilityInstance.Deploying"><rect fill="#00AAFF" height="50" rx="12.5" ry="12.5" style="stroke:#181818;stroke-width:0.5;" width="83" x="43.8" y="330.6094"/><line style="stroke:#181818;stroke-width:0.5;" x1="43.8" x2="126.8" y1="358.2188" y2="358.2188"/><text fill="#000000" font-family="sans-serif" font-size="14" lengthAdjust="spacing" textLength="63" x="53.8" y="350.1426">Deploying</text></g><g id="CapabilityInstance.Deployed"><rect fill="#00AAFF" height="50" rx="12.5" ry="12.5" style="stroke:#181818;stroke-width:0.5;" width="80" x="39.3" y="472.6094"/><line style="stroke:#181818;stroke-width:0.5;" x1="39.3" x2="119.3" y1="500.2188" y2="500.2188"/><text fill="#000000" font-family="sans-serif" font-size="14" lengthAdjust="spacing" textLength="60" x="49.3" y="492.1426">Deployed</text></g><g id="CapabilityInstance.Disabled"><rect fill="#00AAFF" height="50" rx="12.5" ry="12.5" style="stroke:#181818;stroke-width:0.5;" width="75" x="50.8" y="614.6094"/><line style="stroke:#181818;stroke-width:0.5;" x1="50.8" x2="125.8" y1="642.2188" y2="642.2188"/><text fill="#000000" font-family="sans-serif" font-size="14" lengthAdjust="spacing" textLength="55" x="60.8" y="634.1426">Disabled</text></g><g id="CapabilityInstance.Destroyed"><rect fill="#00AAFF" height="50" rx="12.5" ry="12.5" style="stroke:#181818;stroke-width:0.5;" width="85" x="81.8" y="756.6094"/><line style="stroke:#181818;stroke-width:0.5;" x1="81.8" x2="166.8" y1="784.2188" y2="784.2188"/><text fill="#000000" font-family="sans-serif" font-size="14" lengthAdjust="spacing" textLength="65" x="91.8" y="776.1426">Destroyed</text></g><!--link Init to Created--><g id="link_Init_Created"><path d="M126.3,96.6794 C126.3,122.3194 126.3,156.6894 126.3,182.3894 " fill="none" id="Init-to-Created" style="stroke:#000000;stroke-width:1.0;"/><polygon fill="#000000" points="126.3,188.3894,130.3,179.3894,126.3,183.3894,122.3,179.3894,126.3,188.3894" style="stroke:#000000;stroke-width:1.0;"/><text fill="#000000" font-family="sans-serif" font-size="13" lengthAdjust="spacing" textLength="36" x="127.3" y="148.1045">create</text></g><!--link Created to Deploying--><g id="link_Created_Deploying"><path d="M118.55,238.8994 C115.03,250.0594 110.87,263.4794 107.3,275.6094 C101.9,293.9094 97.7128,308.9119 93.4328,324.5619 " fill="none" id="Created-to-Deploying" style="stroke:#000000;stroke-width:1.0;"/><polygon fill="#000000" points="91.85,330.3494,98.0825,322.7233,93.169,325.5265,90.3658,320.613,91.85,330.3494" style="stroke:#000000;stroke-width:1.0;"/><text fill="#000000" font-family="sans-serif" font-size="13" lengthAdjust="spacing" textLength="38" x="108.3" y="290.1045">deploy</text></g><!--link Created to Destroyed--><g id="link_Created_Destroyed"><path d="M145.44,238.6894 C153.61,251.3194 161.3,267.4894 161.3,283.6094 C161.3,283.6094 161.3,283.6094 161.3,711.6094 C161.3,727.7894 156.68,738.872 148.13,751.412 " fill="none" id="Created-to-Destroyed" style="stroke:#000000;stroke-width:1.0;"/><polygon fill="#000000" points="144.75,756.3694,153.1249,751.1867,147.5667,752.2382,146.5151,746.68,144.75,756.3694" style="stroke:#000000;stroke-width:1.0;"/><text fill="#000000" font-family="sans-serif" font-size="13" lengthAdjust="spacing" textLength="43" x="162.3" y="503.1045">destroy</text></g><!--link Deploying to Deployed--><g id="link_Deploying_Deployed"><path d="M84.27,380.6794 C83.17,406.3194 81.6966,440.6949 80.5966,466.3949 " fill="none" id="Deploying-to-Deployed" style="stroke:#000000;stroke-width:1.0;"/><polygon fill="#000000" points="80.34,472.3894,84.7212,463.5687,80.5538,467.3939,76.7285,463.2266,80.34,472.3894" style="stroke:#000000;stroke-width:1.0;"/><text fill="#000000" font-family="sans-serif" font-size="13" lengthAdjust="spacing" textLength="52" x="84.3" y="432.1045">deployed</text></g><!--link Deployed to Disabled--><g id="link_Deployed_Disabled"><path d="M47.39,522.7894 C31.8,537.7394 18,557.8094 26.3,577.6094 C32.25,591.8194 38.8311,600.3858 49.9711,610.3658 " fill="none" id="Deployed-to-Disabled" style="stroke:#000000;stroke-width:1.0;"/><polygon fill="#000000" points="54.44,614.3694,50.4057,605.3847,50.7159,611.0331,45.0676,611.3433,54.44,614.3694" style="stroke:#000000;stroke-width:1.0;"/><text fill="#000000" font-family="sans-serif" font-size="13" lengthAdjust="spacing" textLength="41" x="27.3" y="574.1045">disable</text></g><!--link Disabled to Deployed--><g id="link_Disabled_Deployed"><path d="M86.74,614.3894 C85.09,588.6894 82.8753,554.307 81.2253,528.667 " fill="none" id="Disabled-to-Deployed" style="stroke:#000000;stroke-width:1.0;"/><polygon fill="#000000" points="80.84,522.6794,77.4262,531.9177,81.1611,527.6691,85.4097,531.4039,80.84,522.6794" style="stroke:#000000;stroke-width:1.0;"/><text fill="#000000" font-family="sans-serif" font-size="13" lengthAdjust="spacing" textLength="38" x="85.3" y="574.1045">enable</text></g><!--link Disabled to Destroyed--><g id="link_Disabled_Destroyed"><path d="M91.47,664.6994 C93.82,680.4694 97.45,701.4394 102.3,719.6094 C105.61,732.0094 108.1995,739.8504 112.4195,750.9604 " fill="none" id="Disabled-to-Destroyed" style="stroke:#000000;stroke-width:1.0;"/><polygon fill="#000000" points="114.55,756.5694,115.0936,746.7355,112.7746,751.8952,107.6149,749.5762,114.55,756.5694" style="stroke:#000000;stroke-width:1.0;"/><text fill="#000000" font-family="sans-serif" font-size="13" lengthAdjust="spacing" textLength="43" x="103.3" y="716.1045">destroy</text></g><!--SRC=[XP0n3eCm34Ltdo8ISoHcXYvquGnL1oU4AcgK8k85LRrxJMWALGDuyPVzycqd498HDVQehBCqDZuGUcr4KPQ8NIUU088ZHAxnbbQTgV5Qz-l1S6htaBFftMEq_dOC7HZPWCeT3Giqv8quuZNoKYY7-dwLylJTln8wAe1K-S6M6ohHHhq9flaJ63N0yZfZ-a5dcTW_stGwexDaCjMsJ8tV1pERyZUz0G00]--></g></svg>