<?xml version="1.0" encoding="us-ascii" standalone="no"?><svg xmlns="http://www.w3.org/2000/svg" xmlns:xlink="http://www.w3.org/1999/xlink" contentStyleType="text/css" height="627px" preserveAspectRatio="none" style="width:638px;height:627px;background:#FFFFFF;" version="1.1" viewBox="0 0 638 627" width="638px" zoomAndPan="magnify"><defs/><g><!--cluster sabr_diml_sabm--><g id="cluster_sabr_diml_sabm"><path d="M8.5,6 L122.5,6 A3.75,3.75 0 0 1 125,8.5 L132,29.6094 L628.5,29.6094 A2.5,2.5 0 0 1 631,32.1094 L631,383.5 A2.5,2.5 0 0 1 628.5,386 L8.5,386 A2.5,2.5 0 0 1 6,383.5 L6,8.5 A2.5,2.5 0 0 1 8.5,6 " fill="#FFCC88" style="stroke:#000000;stroke-width:1.5;"/><line style="stroke:#000000;stroke-width:1.5;" x1="6" x2="132" y1="29.6094" y2="29.6094"/><text fill="#000000" font-family="sans-serif" font-size="14" font-weight="bold" lengthAdjust="spacing" textLength="113" x="10" y="22.5332">sabr_diml_sabm</text></g><!--entity pulsar_netnet--><g id="elem_pulsar_netnet"><path d="M166,342 L251,342 C256,342 256,355.8047 256,355.8047 C256,355.8047 256,369.6094 251,369.6094 L166,369.6094 C161,369.6094 161,355.8047 161,355.8047 C161,355.8047 161,342 166,342 " fill="#000000" style="stroke:#181818;stroke-width:0.5;"/><path d="M251,342 C246,342 246,355.8047 246,355.8047 C246,369.6094 251,369.6094 251,369.6094 " fill="none" style="stroke:#181818;stroke-width:0.5;"/><text fill="#FFFFFF" font-family="sans-serif" font-size="14" font-weight="bold" lengthAdjust="spacing" textLength="75" x="166" y="361.5332">pulsar_net</text></g><!--entity parentnet--><g id="elem_parentnet"><path d="M180.5,279 L236.5,279 C241.5,279 241.5,292.8047 241.5,292.8047 C241.5,292.8047 241.5,306.6094 236.5,306.6094 L180.5,306.6094 C175.5,306.6094 175.5,292.8047 175.5,292.8047 C175.5,292.8047 175.5,279 180.5,279 " fill="#0000FF" style="stroke:#181818;stroke-width:0.5;"/><path d="M236.5,279 C231.5,279 231.5,292.8047 231.5,292.8047 C231.5,306.6094 236.5,306.6094 236.5,306.6094 " fill="none" style="stroke:#181818;stroke-width:0.5;"/><text fill="#FFFFFF" font-family="sans-serif" font-size="14" font-weight="bold" lengthAdjust="spacing" textLength="46" x="180.5" y="298.5332">parent</text></g><!--entity childrennet--><g id="elem_childrennet"><path d="M174.5,179 L242.5,179 C247.5,179 247.5,192.8047 247.5,192.8047 C247.5,192.8047 247.5,206.6094 242.5,206.6094 L174.5,206.6094 C169.5,206.6094 169.5,192.8047 169.5,192.8047 C169.5,192.8047 169.5,179 174.5,179 " fill="#FF0000" style="stroke:#181818;stroke-width:0.5;"/><path d="M242.5,179 C237.5,179 237.5,192.8047 237.5,192.8047 C237.5,206.6094 242.5,206.6094 242.5,206.6094 " fill="none" style="stroke:#181818;stroke-width:0.5;"/><text fill="#FFFFFF" font-family="sans-serif" font-size="14" font-weight="bold" lengthAdjust="spacing" textLength="58" x="174.5" y="198.5332">children</text></g><!--entity siblingsnet--><g id="elem_siblingsnet"><path d="M176,79 L241,79 C246,79 246,92.8047 246,92.8047 C246,92.8047 246,106.6094 241,106.6094 L176,106.6094 C171,106.6094 171,92.8047 171,92.8047 C171,92.8047 171,79 176,79 " fill="#FFA500" style="stroke:#181818;stroke-width:0.5;"/><path d="M241,79 C236,79 236,92.8047 236,92.8047 C236,106.6094 241,106.6094 241,106.6094 " fill="none" style="stroke:#181818;stroke-width:0.5;"/><text fill="#FFFFFF" font-family="sans-serif" font-size="14" font-weight="bold" lengthAdjust="spacing" textLength="55" x="176" y="98.5332">siblings</text></g><!--entity sabrService--><g id="elem_sabrService"><polygon fill="#F1F1F1" points="27.5,66,37.5,56,95.5,56,95.5,93.6094,85.5,103.6094,27.5,103.6094,27.5,66" style="stroke:#181818;stroke-width:0.5;"/><line style="stroke:#181818;stroke-width:0.5;" x1="85.5" x2="95.5" y1="66" y2="56"/><line style="stroke:#181818;stroke-width:0.5;" x1="27.5" x2="85.5" y1="66" y2="66"/><line style="stroke:#181818;stroke-width:0.5;" x1="85.5" x2="85.5" y1="66" y2="103.6094"/><text fill="#000000" font-family="sans-serif" font-size="14" lengthAdjust="spacing" textLength="28" x="42.5" y="90.5332">sabr</text></g><!--entity webService--><g id="elem_webService"><polygon fill="#F1F1F1" points="29,149,39,139,94,139,94,176.6094,84,186.6094,29,186.6094,29,149" style="stroke:#181818;stroke-width:0.5;"/><line style="stroke:#181818;stroke-width:0.5;" x1="84" x2="94" y1="149" y2="139"/><line style="stroke:#181818;stroke-width:0.5;" x1="29" x2="84" y1="149" y2="149"/><line style="stroke:#181818;stroke-width:0.5;" x1="84" x2="84" y1="149" y2="186.6094"/><text fill="#000000" font-family="sans-serif" font-size="14" lengthAdjust="spacing" textLength="25" x="44" y="173.5332">web</text></g><!--entity pulsarService--><g id="elem_pulsarService"><polygon fill="#F1F1F1" points="22,256,32,246,101,246,101,283.6094,91,293.6094,22,293.6094,22,256" style="stroke:#181818;stroke-width:0.5;"/><line style="stroke:#181818;stroke-width:0.5;" x1="91" x2="101" y1="256" y2="246"/><line style="stroke:#181818;stroke-width:0.5;" x1="22" x2="91" y1="256" y2="256"/><line style="stroke:#181818;stroke-width:0.5;" x1="91" x2="91" y1="256" y2="293.6094"/><text fill="#000000" font-family="sans-serif" font-size="14" lengthAdjust="spacing" textLength="39" x="37" y="280.5332">pulsar</text></g><!--entity sabr_diml_sabm_sabrimage--><g id="elem_sabr_diml_sabm_sabrimage"><rect fill="#F1F1F1" height="40.6094" rx="2.5" ry="2.5" style="stroke:#181818;stroke-width:0.5;" width="169" x="444.5" y="42.5"/><polygon fill="#F1F1F1" points="596.5,47.5,596.5,61.5,608.5,61.5,608.5,53.5,602.5,47.5,596.5,47.5" style="stroke:#181818;stroke-width:0.5;"/><line style="stroke:#181818;stroke-width:0.5;" x1="602.5" x2="602.5" y1="47.5" y2="53.5"/><line style="stroke:#181818;stroke-width:0.5;" x1="608.5" x2="602.5" y1="53.5" y2="53.5"/><text fill="#000000" font-family="sans-serif" font-size="14" lengthAdjust="spacing" textLength="139" x="454.5" y="70.0332">sabr_diml_sabm_sabr</text></g><!--entity sabr_diml_sabm_webimage--><g id="elem_sabr_diml_sabm_webimage"><rect fill="#F1F1F1" height="40.6094" rx="2.5" ry="2.5" style="stroke:#181818;stroke-width:0.5;" width="166" x="446" y="122.5"/><polygon fill="#F1F1F1" points="595,127.5,595,141.5,607,141.5,607,133.5,601,127.5,595,127.5" style="stroke:#181818;stroke-width:0.5;"/><line style="stroke:#181818;stroke-width:0.5;" x1="601" x2="601" y1="127.5" y2="133.5"/><line style="stroke:#181818;stroke-width:0.5;" x1="607" x2="601" y1="133.5" y2="133.5"/><text fill="#000000" font-family="sans-serif" font-size="14" lengthAdjust="spacing" textLength="136" x="456" y="150.0332">sabr_diml_sabm_web</text></g><!--entity sabr_diml_dsm_pulsarimage--><g id="elem_sabr_diml_dsm_pulsarimage"><rect fill="#F1F1F1" height="40.6094" rx="2.5" ry="2.5" style="stroke:#181818;stroke-width:0.5;" width="172" x="443" y="222.5"/><polygon fill="#F1F1F1" points="598,227.5,598,241.5,610,241.5,610,233.5,604,227.5,598,227.5" style="stroke:#181818;stroke-width:0.5;"/><line style="stroke:#181818;stroke-width:0.5;" x1="604" x2="604" y1="227.5" y2="233.5"/><line style="stroke:#181818;stroke-width:0.5;" x1="610" x2="604" y1="233.5" y2="233.5"/><text fill="#000000" font-family="sans-serif" font-size="14" lengthAdjust="spacing" textLength="142" x="453" y="250.0332">sabr_diml_dsm_pulsar</text></g><!--entity parent--><g id="elem_parent"><path d="M329,491 L329,515 M329,503 L346,503 " fill="none" style="stroke:#181818;stroke-width:0.5;"/><ellipse cx="358" cy="503" fill="#0000FF" rx="12" ry="12" style="stroke:#181818;stroke-width:0.5;"/><text fill="#000000" font-family="sans-serif" font-size="14" lengthAdjust="spacing" textLength="41" x="329" y="533.5332">parent</text></g><!--entity pulsar_net--><g id="elem_pulsar_net"><ellipse cx="349.5" cy="588" fill="#000000" rx="12" ry="12" style="stroke:#181818;stroke-width:0.5;"/><line style="stroke:#181818;stroke-width:0.5;" x1="337.5" x2="361.5" y1="602" y2="602"/><text fill="#000000" font-family="sans-serif" font-size="14" lengthAdjust="spacing" textLength="67" x="316" y="618.5332">pulsar_net</text></g><!--entity children--><g id="elem_children"><ellipse cx="349.5" cy="418" fill="#FF0000" rx="12" ry="12" style="stroke:#181818;stroke-width:0.5;"/><line style="stroke:#181818;stroke-width:0.5;" x1="337.5" x2="361.5" y1="432" y2="432"/><text fill="#000000" font-family="sans-serif" font-size="14" lengthAdjust="spacing" textLength="50" x="324.5" y="448.5332">children</text></g><!--link pulsar_netnet to pulsar_net--><g id="link_pulsar_netnet_pulsar_net"><path d="M216.2,370.46 C231.94,403.92 273.17,488.9 316,555 C319.61,560.57 323.76,566.33 327.86,571.73 " fill="none" id="pulsar_netnet-pulsar_net" style="stroke:#000000;stroke-width:1.0;"/></g><!--link parentnet to parent--><g id="link_parentnet_parent"><path d="M236.79,307.32 C243.73,311.93 250.71,317.55 256,324 C300.46,378.27 280.88,409.27 316,470 C319.23,475.59 323.12,481.26 327.08,486.55 " fill="none" id="parentnet-parent" style="stroke:#0000FF;stroke-width:1.0;"/></g><!--link childrennet to children--><g id="link_childrennet_children"><path d="M220.14,207.18 C230.02,220.65 244.84,241.68 256,261 C286.81,314.37 283.32,333.75 316,386 C319.28,391.24 323.1,396.58 326.96,401.61 " fill="none" id="childrennet-children" style="stroke:#FF0000;stroke-width:1.0;"/></g><!--link sabrService to childrennet--><g id="link_sabrService_childrennet"><path d="M93.61,104.24 C122.73,126.94 165.26,160.08 189.26,178.78 " fill="none" id="sabrService-childrennet" style="stroke:#FF0000;stroke-width:1.0;"/></g><!--link sabrService to siblingsnet--><g id="link_sabrService_siblingsnet"><path d="M95.77,82.98 C118.17,84.99 147.74,87.64 170.83,89.71 " fill="none" id="sabrService-siblingsnet" style="stroke:#FFA500;stroke-width:1.0;"/></g><!--link webService to childrennet--><g id="link_webService_childrennet"><path d="M94.32,169.58 C116.41,174.15 145.96,180.27 169.32,185.1 " fill="none" id="webService-childrennet" style="stroke:#FF0000;stroke-width:1.0;"/></g><!--link webService to siblingsnet--><g id="link_webService_siblingsnet"><path d="M94.32,147.64 C119.33,135.56 153.89,118.88 178.22,107.14 " fill="none" id="webService-siblingsnet" style="stroke:#FFA500;stroke-width:1.0;"/></g><!--link pulsarService to pulsar_netnet--><g id="link_pulsarService_pulsar_netnet"><path d="M101.36,293.05 C127.53,308.57 161.22,328.55 183.55,341.79 " fill="none" id="pulsarService-pulsar_netnet" style="stroke:#000000;stroke-width:1.0;"/></g><!--link pulsarService to childrennet--><g id="link_pulsarService_childrennet"><path d="M101.36,249.37 C126.52,236 158.64,218.95 180.92,207.11 " fill="none" id="pulsarService-childrennet" style="stroke:#FF0000;stroke-width:1.0;"/></g><!--link pulsarService to parentnet--><g id="link_pulsarService_parentnet"><path d="M101.36,276.16 C124.51,279.84 153.55,284.44 175.39,287.91 " fill="none" id="pulsarService-parentnet" style="stroke:#0000FF;stroke-width:1.0;"/></g><!--link sabrService to sabr_diml_sabm_sabrimage--><g id="link_sabrService_sabr_diml_sabm_sabrimage"><path d="M95.55,71.99 C114.57,67.8 138.98,63.1 161,61 C257.89,51.74 369.81,54.24 444.34,57.77 " fill="none" id="sabrService-sabr_diml_sabm_sabrimage" style="stroke:#181818;stroke-width:1.0;stroke-dasharray:7.0,7.0;"/></g><!--link webService to sabr_diml_sabm_webimage--><g id="link_webService_sabr_diml_sabm_webimage"><path d="M94.13,161.64 C165.55,158.57 341.19,151.03 445.79,146.53 " fill="none" id="webService-sabr_diml_sabm_webimage" style="stroke:#181818;stroke-width:1.0;stroke-dasharray:7.0,7.0;"/></g><!--link pulsarService to sabr_diml_dsm_pulsarimage--><g id="link_pulsarService_sabr_diml_dsm_pulsarimage"><path d="M101.3,266.07 C119.42,264.34 141.3,262.38 161,261 C257.41,254.23 368.24,249.17 442.66,246.17 " fill="none" id="pulsarService-sabr_diml_dsm_pulsarimage" style="stroke:#181818;stroke-width:1.0;stroke-dasharray:7.0,7.0;"/></g><!--SRC=[ZLFBZeCW5Dtp5QHTTxfj9iQVc6NJ65vQCWWTn3QJoVpxN54KAMs7XU8zXtFk0vMe7NO6MzcS7URI2kQaqGWXQdhDYVt65sA5TdXBLIyW3dlf8DghZjXA2uyGzZaZx2mLXoDuQmL7mxe0J1g1DnsXjkAoLHNisWtUrZLZXmF-GHZMLozw4GalslZe2M4Lj2oOKSQ-tyxIYN8vKknzl2psjFH7Jlxf7slXtN6KFkqYO25FkVZIfppW-qKQdlqqXLdFs_TYSFUnr3aqqNj37rzO1_epyrWIx44Kt4CmzUyaLL8tdVStbkZcLVNXnACKa3PykW8RJ3eyR3w4lKec9kWcg4VWlGR60Nbit0OOpHaHwsHDc4llMBNoI-AoXLkvLFvK9oHt7_wd2k_QAYea1qHAlmX53RgVrt1PKyOu9Y15mqDewUO3bJKXBx9gU_xVoVCoVXcjw4SOA75TRx0UpoxAFKUSfxFsJAZf0D0V]--></g></svg>