<?xml version="1.0" encoding="us-ascii" standalone="no"?><svg xmlns="http://www.w3.org/2000/svg" xmlns:xlink="http://www.w3.org/1999/xlink" contentStyleType="text/css" height="676px" preserveAspectRatio="none" style="width:896px;height:676px;background:#FFFFFF;" version="1.1" viewBox="0 0 896 676" width="896px" zoomAndPan="magnify"><defs/><g><!--cluster Sentient Agent Bundle Manager--><g id="cluster_Sentient Agent Bundle Manager"><path d="M48,60 L273,60 A3.75,3.75 0 0 1 275.5,62.5 L282.5,83.6094 L887,83.6094 A2.5,2.5 0 0 1 889.5,86.1094 L889.5,666.5 A2.5,2.5 0 0 1 887,669 L48,669 A2.5,2.5 0 0 1 45.5,666.5 L45.5,62.5 A2.5,2.5 0 0 1 48,60 " fill="#FFCC88" style="stroke:#000000;stroke-width:1.5;"/><line style="stroke:#000000;stroke-width:1.5;" x1="45.5" x2="282.5" y1="83.6094" y2="83.6094"/><text fill="#000000" font-family="sans-serif" font-size="14" font-weight="bold" lengthAdjust="spacing" textLength="224" x="49.5" y="76.5332">Sentient Agent Bundle Manager</text></g><!--cluster bin--><g id="cluster_bin"><path d="M257,104 L280,104 A3.75,3.75 0 0 1 282.5,106.5 L289.5,127.6094 L424,127.6094 A2.5,2.5 0 0 1 426.5,130.1094 L426.5,201.5 A2.5,2.5 0 0 1 424,204 L257,204 A2.5,2.5 0 0 1 254.5,201.5 L254.5,106.5 A2.5,2.5 0 0 1 257,104 " fill="#FFFFFF" style="stroke:#000000;stroke-width:1.5;"/><line style="stroke:#000000;stroke-width:1.5;" x1="254.5" x2="289.5" y1="127.6094" y2="127.6094"/><text fill="#000000" font-family="sans-serif" font-size="14" font-weight="bold" lengthAdjust="spacing" textLength="22" x="258.5" y="120.5332">bin</text></g><!--cluster deploy--><g id="cluster_deploy"><path d="M121,320 L169,320 A3.75,3.75 0 0 1 171.5,322.5 L178.5,343.6094 L748,343.6094 A2.5,2.5 0 0 1 750.5,346.1094 L750.5,424.5 A2.5,2.5 0 0 1 748,427 L121,427 A2.5,2.5 0 0 1 118.5,424.5 L118.5,322.5 A2.5,2.5 0 0 1 121,320 " fill="#FFFFFF" style="stroke:#000000;stroke-width:1.5;"/><line style="stroke:#000000;stroke-width:1.5;" x1="118.5" x2="178.5" y1="343.6094" y2="343.6094"/><text fill="#000000" font-family="sans-serif" font-size="14" font-weight="bold" lengthAdjust="spacing" textLength="47" x="122.5" y="336.5332">deploy</text></g><!--cluster images--><g id="cluster_images"><path d="M72,451 L123,451 A3.75,3.75 0 0 1 125.5,453.5 L132.5,474.6094 L863,474.6094 A2.5,2.5 0 0 1 865.5,477.1094 L865.5,642.5 A2.5,2.5 0 0 1 863,645 L72,645 A2.5,2.5 0 0 1 69.5,642.5 L69.5,453.5 A2.5,2.5 0 0 1 72,451 " fill="#FFFFFF" style="stroke:#000000;stroke-width:1.5;"/><line style="stroke:#000000;stroke-width:1.5;" x1="69.5" x2="132.5" y1="474.6094" y2="474.6094"/><text fill="#000000" font-family="sans-serif" font-size="14" font-weight="bold" lengthAdjust="spacing" textLength="50" x="73.5" y="467.5332">images</text></g><!--entity REST--><g id="elem_REST"><rect fill="#F1F1F1" height="47.6094" rx="2.5" ry="2.5" style="stroke:#181818;stroke-width:0.5;" width="89" x="296" y="248"/><rect fill="#F1F1F1" height="10" style="stroke:#181818;stroke-width:0.5;" width="15" x="365" y="253"/><rect fill="#F1F1F1" height="2" style="stroke:#181818;stroke-width:0.5;" width="4" x="363" y="255"/><rect fill="#F1F1F1" height="2" style="stroke:#181818;stroke-width:0.5;" width="4" x="363" y="259"/><text fill="#000000" font-family="sans-serif" font-size="14" lengthAdjust="spacing" textLength="49" x="311" y="282.5332">express</text></g><!--entity socket--><g id="elem_socket"><rect fill="#F1F1F1" height="47.6094" rx="2.5" ry="2.5" style="stroke:#181818;stroke-width:0.5;" width="96" x="479.5" y="140"/><rect fill="#F1F1F1" height="10" style="stroke:#181818;stroke-width:0.5;" width="15" x="555.5" y="145"/><rect fill="#F1F1F1" height="2" style="stroke:#181818;stroke-width:0.5;" width="4" x="553.5" y="147"/><rect fill="#F1F1F1" height="2" style="stroke:#181818;stroke-width:0.5;" width="4" x="553.5" y="151"/><text fill="#000000" font-family="sans-serif" font-size="14" lengthAdjust="spacing" textLength="56" x="494.5" y="174.5332">socket.io</text></g><!--entity binName--><g id="elem_binName"><rect fill="#F1F1F1" height="47.6094" rx="2.5" ry="2.5" style="stroke:#181818;stroke-width:0.5;" width="139" x="271" y="140"/><rect fill="#F1F1F1" height="10" style="stroke:#181818;stroke-width:0.5;" width="15" x="390" y="145"/><rect fill="#F1F1F1" height="2" style="stroke:#181818;stroke-width:0.5;" width="4" x="388" y="147"/><rect fill="#F1F1F1" height="2" style="stroke:#181818;stroke-width:0.5;" width="4" x="388" y="151"/><text fill="#000000" font-family="sans-serif" font-size="14" lengthAdjust="spacing" textLength="95" x="290" y="174.5332">sabr diml sabm</text></g><!--entity sabr_diml_sabm_container--><g id="elem_sabr_diml_sabm_container"><path d="M269.5,358.5 L269.5,408.7188 A2.5,2.5 0 0 0 272,411.2188 L377,411.2188 A2.5,2.5 0 0 0 379.5,408.7188 L379.5,366 L369.5,356 L272,356 A2.5,2.5 0 0 0 269.5,358.5 " fill="#F1F1F1" style="stroke:#181818;stroke-width:0.5;"/><path d="M369.5,356 L369.5,363.5 A2.5,2.5 0 0 0 372,366 L379.5,366 " fill="#F1F1F1" style="stroke:#181818;stroke-width:0.5;"/><text fill="#000000" font-family="sans-serif" font-size="14" lengthAdjust="spacing" textLength="90" x="279.5" y="380.5332">node server.js</text><text fill="#000000" font-family="sans-serif" font-size="14" lengthAdjust="spacing" textLength="4" x="279.5" y="398.1426">&#160;</text></g><!--entity web_container--><g id="elem_web_container"><path d="M415,367 L415,399.6094 A2.5,2.5 0 0 0 417.5,402.1094 L457.5,402.1094 A2.5,2.5 0 0 0 460,399.6094 L460,374.5 L450,364.5 L417.5,364.5 A2.5,2.5 0 0 0 415,367 " fill="#F1F1F1" style="stroke:#181818;stroke-width:0.5;"/><path d="M450,364.5 L450,372 A2.5,2.5 0 0 0 452.5,374.5 L460,374.5 " fill="#F1F1F1" style="stroke:#181818;stroke-width:0.5;"/><text fill="#000000" font-family="sans-serif" font-size="14" lengthAdjust="spacing" textLength="25" x="425" y="389.0332">web</text></g><!--entity sabr_service_container--><g id="elem_sabr_service_container"><path d="M495,367 L495,399.6094 A2.5,2.5 0 0 0 497.5,402.1094 L593.5,402.1094 A2.5,2.5 0 0 0 596,399.6094 L596,374.5 L586,364.5 L497.5,364.5 A2.5,2.5 0 0 0 495,367 " fill="#F1F1F1" style="stroke:#181818;stroke-width:0.5;"/><path d="M586,364.5 L586,372 A2.5,2.5 0 0 0 588.5,374.5 L596,374.5 " fill="#F1F1F1" style="stroke:#181818;stroke-width:0.5;"/><text fill="#000000" font-family="sans-serif" font-size="14" lengthAdjust="spacing" textLength="81" x="505" y="389.0332">sabr_service</text></g><!--entity sabr_registry_container--><g id="elem_sabr_registry_container"><path d="M631,367 L631,399.6094 A2.5,2.5 0 0 0 633.5,402.1094 L731.5,402.1094 A2.5,2.5 0 0 0 734,399.6094 L734,374.5 L724,364.5 L633.5,364.5 A2.5,2.5 0 0 0 631,367 " fill="#F1F1F1" style="stroke:#181818;stroke-width:0.5;"/><path d="M724,364.5 L724,372 A2.5,2.5 0 0 0 726.5,374.5 L734,374.5 " fill="#F1F1F1" style="stroke:#181818;stroke-width:0.5;"/><text fill="#000000" font-family="sans-serif" font-size="14" lengthAdjust="spacing" textLength="83" x="641" y="389.0332">sabr_registry</text></g><!--entity sabr_builder_container--><g id="elem_sabr_builder_container"><path d="M135,367 L135,399.6094 A2.5,2.5 0 0 0 137.5,402.1094 L231.5,402.1094 A2.5,2.5 0 0 0 234,399.6094 L234,374.5 L224,364.5 L137.5,364.5 A2.5,2.5 0 0 0 135,367 " fill="#F1F1F1" style="stroke:#181818;stroke-width:0.5;"/><path d="M224,364.5 L224,372 A2.5,2.5 0 0 0 226.5,374.5 L234,374.5 " fill="#F1F1F1" style="stroke:#181818;stroke-width:0.5;"/><text fill="#000000" font-family="sans-serif" font-size="14" lengthAdjust="spacing" textLength="79" x="145" y="389.0332">sabr_builder</text></g><!--entity sabr_diml_sabmimage--><g id="elem_sabr_diml_sabmimage"><rect fill="#F1F1F1" height="33.6094" rx="2.5" ry="2.5" style="stroke:#181818;stroke-width:0.5;" width="119" x="234" y="492.5"/><rect fill="#F1F1F1" height="33.6094" rx="2.5" ry="2.5" style="stroke:#181818;stroke-width:0.5;" width="119" x="230" y="488.5"/><text fill="#000000" font-family="sans-serif" font-size="14" lengthAdjust="spacing" textLength="103" x="238" y="511.0332">sabr_diml_sabm</text></g><!--entity ailtireswarm--><g id="elem_ailtireswarm"><rect fill="#F1F1F1" height="40.6094" rx="2.5" ry="2.5" style="stroke:#181818;stroke-width:0.5;" width="108" x="237.5" y="588"/><polygon fill="#F1F1F1" points="328.5,593,328.5,607,340.5,607,340.5,599,334.5,593,328.5,593" style="stroke:#181818;stroke-width:0.5;"/><line style="stroke:#181818;stroke-width:0.5;" x1="334.5" x2="334.5" y1="593" y2="599"/><line style="stroke:#181818;stroke-width:0.5;" x1="340.5" x2="334.5" y1="599" y2="599"/><text fill="#000000" font-family="sans-serif" font-size="14" lengthAdjust="spacing" textLength="78" x="247.5" y="615.5332">ailtire:swarm</text></g><!--entity sabr_diml_sabm_web--><g id="elem_sabr_diml_sabm_web"><rect fill="#F1F1F1" height="40.6094" rx="2.5" ry="2.5" style="stroke:#181818;stroke-width:0.5;" width="166" x="388.5" y="487"/><polygon fill="#F1F1F1" points="537.5,492,537.5,506,549.5,506,549.5,498,543.5,492,537.5,492" style="stroke:#181818;stroke-width:0.5;"/><line style="stroke:#181818;stroke-width:0.5;" x1="543.5" x2="543.5" y1="492" y2="498"/><line style="stroke:#181818;stroke-width:0.5;" x1="549.5" x2="543.5" y1="498" y2="498"/><text fill="#000000" font-family="sans-serif" font-size="14" lengthAdjust="spacing" textLength="136" x="398.5" y="514.5332">sabr_diml_sabm_web</text></g><!--entity sabr_service--><g id="elem_sabr_service"><rect fill="#F1F1F1" height="40.6094" rx="2.5" ry="2.5" style="stroke:#181818;stroke-width:0.5;" width="111" x="590" y="487"/><polygon fill="#F1F1F1" points="684,492,684,506,696,506,696,498,690,492,684,492" style="stroke:#181818;stroke-width:0.5;"/><line style="stroke:#181818;stroke-width:0.5;" x1="690" x2="690" y1="492" y2="498"/><line style="stroke:#181818;stroke-width:0.5;" x1="696" x2="690" y1="498" y2="498"/><text fill="#000000" font-family="sans-serif" font-size="14" lengthAdjust="spacing" textLength="81" x="600" y="514.5332">sabr_service</text></g><!--entity sabr_registry--><g id="elem_sabr_registry"><rect fill="#F1F1F1" height="40.6094" rx="2.5" ry="2.5" style="stroke:#181818;stroke-width:0.5;" width="113" x="736" y="487"/><polygon fill="#F1F1F1" points="832,492,832,506,844,506,844,498,838,492,832,492" style="stroke:#181818;stroke-width:0.5;"/><line style="stroke:#181818;stroke-width:0.5;" x1="838" x2="838" y1="492" y2="498"/><line style="stroke:#181818;stroke-width:0.5;" x1="844" x2="838" y1="498" y2="498"/><text fill="#000000" font-family="sans-serif" font-size="14" lengthAdjust="spacing" textLength="83" x="746" y="514.5332">sabr_registry</text></g><!--entity sabr_builder--><g id="elem_sabr_builder"><rect fill="#F1F1F1" height="40.6094" rx="2.5" ry="2.5" style="stroke:#181818;stroke-width:0.5;" width="109" x="86" y="487"/><polygon fill="#F1F1F1" points="178,492,178,506,190,506,190,498,184,492,178,492" style="stroke:#181818;stroke-width:0.5;"/><line style="stroke:#181818;stroke-width:0.5;" x1="184" x2="184" y1="492" y2="498"/><line style="stroke:#181818;stroke-width:0.5;" x1="190" x2="184" y1="498" y2="498"/><text fill="#000000" font-family="sans-serif" font-size="14" lengthAdjust="spacing" textLength="79" x="96" y="514.5332">sabr_builder</text></g><!--entity CLI--><g id="elem_CLI"><ellipse cx="340.5" cy="14" fill="#F1F1F1" rx="8" ry="8" style="stroke:#181818;stroke-width:0.5;"/><text fill="#000000" font-family="sans-serif" font-size="14" lengthAdjust="spacing" textLength="21" x="330" y="45.5332">CLI</text></g><!--entity Web--><g id="elem_Web"><ellipse cx="20.5" cy="272" fill="#F1F1F1" rx="8" ry="8" style="stroke:#181818;stroke-width:0.5;"/><text fill="#000000" font-family="sans-serif" font-size="14" lengthAdjust="spacing" textLength="29" x="6" y="303.5332">Web</text></g><!--entity WebSocket--><g id="elem_WebSocket"><ellipse cx="527.5" cy="14" fill="#F1F1F1" rx="8" ry="8" style="stroke:#181818;stroke-width:0.5;"/><text fill="#000000" font-family="sans-serif" font-size="14" lengthAdjust="spacing" textLength="72" x="491.5" y="45.5332">WebSocket</text></g><!--link binName to REST--><g id="link_binName_REST"><path d="M340.5,188 C340.5,205.66 340.5,223.94 340.5,241.68 " fill="none" id="binName-to-REST" style="stroke:#181818;stroke-width:1.0;"/><polygon fill="#181818" points="340.5,247.68,344.5,238.68,340.5,242.68,336.5,238.68,340.5,247.68" style="stroke:#181818;stroke-width:1.0;"/></g><!--link REST to sabr_diml_sabm_container--><g id="link_REST_sabr_diml_sabm_container"><path d="M337.11,296.22 C334.56,313.67 331.9295,331.6733 329.2595,349.9033 " fill="none" id="REST-to-sabr_diml_sabm_container" style="stroke:#181818;stroke-width:1.0;"/><polygon fill="#181818" points="328.39,355.84,333.652,347.5147,329.1146,350.8928,325.7365,346.3553,328.39,355.84" style="stroke:#181818;stroke-width:1.0;"/></g><!--link REST to web_container--><g id="link_REST_web_container"><path d="M379.53,296.15 C385.95,300.92 392.23,306.26 397.5,312 C411.79,327.54 420.5788,343.6071 427.4688,358.7771 " fill="none" id="REST-to-web_container" style="stroke:#181818;stroke-width:1.0;"/><polygon fill="#181818" points="429.95,364.24,429.8702,354.3915,427.8823,359.6876,422.5863,357.6997,429.95,364.24" style="stroke:#181818;stroke-width:1.0;"/></g><!--link socket to web_container--><g id="link_socket_web_container"><path d="M517.87,188.28 C499.82,231.89 463.5648,319.5162 447.2848,358.8462 " fill="none" id="socket-to-web_container" style="stroke:#181818;stroke-width:1.0;"/><polygon fill="#181818" points="444.99,364.39,452.128,357.6041,446.9023,359.7701,444.7363,354.5444,444.99,364.39" style="stroke:#181818;stroke-width:1.0;"/></g><!--link REST to sabr_service_container--><g id="link_REST_sabr_service_container"><path d="M385.14,279.58 C413.15,285.14 449.19,295.02 477.5,312 C499.96,325.47 516.3242,343.5078 528.7342,359.5178 " fill="none" id="REST-to-sabr_service_container" style="stroke:#181818;stroke-width:1.0;"/><polygon fill="#181818" points="532.41,364.26,530.0577,354.6962,529.3468,360.3082,523.7348,359.5973,532.41,364.26" style="stroke:#181818;stroke-width:1.0;"/></g><!--link socket to sabr_service_container--><g id="link_socket_sabr_service_container"><path d="M529.43,188.28 C533.04,231.89 540.2559,319.0804 543.5059,358.4104 " fill="none" id="socket-to-sabr_service_container" style="stroke:#181818;stroke-width:1.0;"/><polygon fill="#181818" points="544,364.39,547.2452,355.0912,543.5882,359.407,539.2724,355.75,544,364.39" style="stroke:#181818;stroke-width:1.0;"/></g><!--link REST to sabr_registry_container--><g id="link_REST_sabr_registry_container"><path d="M385.18,275.89 C452.05,280.81 574.48,292.23 613.5,312 C637.48,324.15 654.4261,343.1005 666.7061,359.6605 " fill="none" id="REST-to-sabr_registry_container" style="stroke:#181818;stroke-width:1.0;"/><polygon fill="#181818" points="670.28,364.48,668.1322,354.8682,667.3018,360.4638,661.7062,359.6334,670.28,364.48" style="stroke:#181818;stroke-width:1.0;"/></g><!--link socket to sabr_registry_container--><g id="link_socket_sabr_registry_container"><path d="M544.09,188.28 C575.17,231.89 638.0886,320.1733 666.1086,359.5033 " fill="none" id="socket-to-sabr_registry_container" style="stroke:#181818;stroke-width:1.0;"/><polygon fill="#181818" points="669.59,364.39,667.6256,354.739,666.6888,360.3178,661.1101,359.3809,669.59,364.39" style="stroke:#181818;stroke-width:1.0;"/></g><!--link REST to sabr_builder_container--><g id="link_REST_sabr_builder_container"><path d="M295.75,288.89 C281.31,295.02 265.65,302.81 252.5,312 C231.32,326.81 215.1349,344.2589 202.3749,359.7489 " fill="none" id="REST-to-sabr_builder_container" style="stroke:#181818;stroke-width:1.0;"/><polygon fill="#181818" points="198.56,364.38,207.3697,359.9767,201.7391,360.5208,201.1949,354.8902,198.56,364.38" style="stroke:#181818;stroke-width:1.0;"/></g><!--link socket to sabr_builder_container--><g id="link_socket_sabr_builder_container"><path d="M482.79,188.12 C465.52,196.43 445.39,205.38 426.5,212 C362.61,234.39 334.38,209.79 278.5,248 C234.99,277.75 207.7331,329.2644 194.5931,358.5944 " fill="none" id="socket-to-sabr_builder_container" style="stroke:#181818;stroke-width:1.0;"/><polygon fill="#181818" points="192.14,364.07,199.4701,357.492,194.1843,359.507,192.1692,354.2212,192.14,364.07" style="stroke:#181818;stroke-width:1.0;"/></g><!--reverse link sabr_diml_sabmimage to ailtireswarm--><g id="link_sabr_diml_sabmimage_ailtireswarm"><path d="M291.5,544.66 C291.5,561.96 291.5,569.95 291.5,587.76 " fill="none" id="sabr_diml_sabmimage-backto-ailtireswarm" style="stroke:#181818;stroke-width:1.0;"/><polygon fill="none" points="291.5,526.66,285.5,544.66,297.5,544.66,291.5,526.66" style="stroke:#181818;stroke-width:1.0;"/></g><!--link sabr_diml_sabm_container to sabr_diml_sabmimage--><g id="link_sabr_diml_sabm_container_sabr_diml_sabmimage"><path d="M317.26,411.27 C310.92,434.7 303.456,462.298 297.946,482.678 " fill="none" id="sabr_diml_sabm_container-to-sabr_diml_sabmimage" style="stroke:#181818;stroke-width:1.0;"/><polygon fill="#181818" points="296.38,488.47,302.5903,480.8259,297.685,483.6433,294.8676,478.738,296.38,488.47" style="stroke:#181818;stroke-width:1.0;"/></g><!--link web_container to sabr_diml_sabm_web--><g id="link_web_container_sabr_diml_sabm_web"><path d="M442.52,402.5 C448.8,425.04 457.9107,457.7199 464.4007,481.0299 " fill="none" id="web_container-to-sabr_diml_sabm_web" style="stroke:#181818;stroke-width:1.0;"/><polygon fill="#181818" points="466.01,486.81,467.4495,477.0669,464.6689,481.9932,459.7426,479.2127,466.01,486.81" style="stroke:#181818;stroke-width:1.0;"/></g><!--link sabr_service_container to sabr_service--><g id="link_sabr_service_container_sabr_service"><path d="M560.26,402.5 C578.73,425.04 606.4572,458.859 625.5572,482.169 " fill="none" id="sabr_service_container-to-sabr_service" style="stroke:#181818;stroke-width:1.0;"/><polygon fill="#181818" points="629.36,486.81,626.7498,477.3133,626.191,482.9425,620.5618,482.3837,629.36,486.81" style="stroke:#181818;stroke-width:1.0;"/></g><!--link sabr_registry_container to sabr_registry--><g id="link_sabr_registry_container_sabr_registry"><path d="M698.73,402.5 C719.05,425.04 749.7129,459.0432 770.7229,482.3532 " fill="none" id="sabr_registry_container-to-sabr_registry" style="stroke:#181818;stroke-width:1.0;"/><polygon fill="#181818" points="774.74,486.81,771.6856,477.4467,771.3924,483.096,765.7432,482.8028,774.74,486.81" style="stroke:#181818;stroke-width:1.0;"/></g><!--link sabr_builder_container to sabr_builder--><g id="link_sabr_builder_container_sabr_builder"><path d="M178.01,402.5 C169.88,425.04 158.0463,457.8561 149.6363,481.1661 " fill="none" id="sabr_builder_container-to-sabr_builder" style="stroke:#181818;stroke-width:1.0;"/><polygon fill="#181818" points="147.6,486.81,154.417,479.7017,149.2969,482.1067,146.8918,476.9866,147.6,486.81" style="stroke:#181818;stroke-width:1.0;"/></g><!--link CLI to binName--><g id="link_CLI_binName"><path d="M340.5,23.38 C340.5,45.52 340.5,106.15 340.5,139.77 " fill="none" id="CLI-binName" style="stroke:#181818;stroke-width:1.0;"/><text fill="#000000" font-family="sans-serif" font-size="13" lengthAdjust="spacing" textLength="89" x="234.3531" y="21.4488">sabr diml sabm</text></g><!--link Web to REST--><g id="link_Web_REST"><path d="M29.56,272 C118.33,272 207.1,272 295.86,272 " fill="none" id="Web-REST" style="stroke:#181818;stroke-width:1.0;"/><text fill="#000000" font-family="sans-serif" font-size="13" lengthAdjust="spacing" textLength="93" x="37.3731" y="268.3948">/sabr/diml/sabm</text></g><!--link WebSocket to socket--><g id="link_WebSocket_socket"><path d="M527.5,23.38 C527.5,45.52 527.5,106.15 527.5,139.77 " fill="none" id="WebSocket-socket" style="stroke:#181818;stroke-width:1.0;"/><text fill="#000000" font-family="sans-serif" font-size="13" lengthAdjust="spacing" textLength="93" x="417.3531" y="21.4488">.sabr.diml.sabm</text></g><!--SRC=[XLJ1Yjim4BtxAmRlESurbANGbXuMsXus2xqi15cU17LjAKZEPiCs_zuPMOwzbkm6d4IQD-yzsqy3e7IBTYyamhSV3ncCrh-ndAwtHhvWcns5V147X7oBkbLqmPS3VtyzwQf6-2aqLMqET_kzb9iDl1EFDCtHQ4RXsz6YSo0SF7xVFdseEIzGACFLRa7rlQahj50gpPJyyPJZnXoSA2rKggdvNvCp0JNy4WqIz4fNMC5gzRaJ7fWhFDRcCY6dggAxoRMf41pQLxJ57_UiFJMhxLXjnsexQNGhb4OREfdV2ytY29WD6cSiFItzJhXkJ76fUpvKJ5H7tDu2-rSI1-zXOqvj0JEMdOLDzIqUb6ljPJ3Gxomwc0555fAugOVofFXj3nR2ngA3D2Ooa8A5t8MCgOOEXOi2NDSeMsMq2oPlMKd4p5FuFc5RHOUISYzKtIgBdznPsAudxFYDpcnC0lT_Lwl_8OURIKIvyz8_vR6Z2KaVxNWxT7w8RkhGzD2qqboo0pgTq2ZZ2mBpqHrBn0cCKxmWCfVDiKIKiIYblS0rksOqpXDJaTvwFnLfdaE-Pi2Q0Ui0w6RZRTX3NZ2aO4XnumYZ-Hy0]--></g></svg>