<?xml version="1.0" encoding="us-ascii" standalone="no"?><svg xmlns="http://www.w3.org/2000/svg" xmlns:xlink="http://www.w3.org/1999/xlink" contentStyleType="text/css" height="362px" preserveAspectRatio="none" style="width:222px;height:362px;background:#FFFFFF;" version="1.1" viewBox="0 0 222 362" width="222px" zoomAndPan="magnify"><defs/><g><!--entity SecurityKey--><g id="elem_SecurityKey"><rect fill="#ADD8E6" height="37.6094" rx="2.5" ry="2.5" style="stroke:#181818;stroke-width:0.5;" width="95" x="87.72" y="319"/><text fill="#000000" font-family="sans-serif" font-size="14" lengthAdjust="spacing" textLength="75" x="97.72" y="343.5332">SecurityKey</text></g><!--entity SABundle--><g id="elem_SABundle"><rect fill="#90EE90" height="37.6094" rx="2.5" ry="2.5" style="stroke:#181818;stroke-width:0.5;" width="82" x="94.22" y="7"/><text fill="#000000" font-family="sans-serif" font-size="14" lengthAdjust="spacing" textLength="62" x="104.22" y="31.5332">SABundle</text></g><!--class Model--><g id="elem_Model"><rect codeLine="2" fill="#F1F1F1" height="118.4375" id="Model" rx="2.5" ry="2.5" style="stroke:#181818;stroke-width:0.5;" width="144" x="63.22" y="123"/><ellipse cx="86.77" cy="139" fill="#ADD1B2" rx="11" ry="11" style="stroke:#181818;stroke-width:1.0;"/><path d="M89.5356,134.875 Q89.6919,134.6563 89.8794,134.5469 Q90.0669,134.4375 90.2856,134.4375 Q90.6606,134.4375 90.895,134.6953 Q91.1294,134.9531 91.1294,135.5625 L91.1294,137.0156 Q91.1294,137.625 90.895,137.8906 Q90.6606,138.1563 90.2856,138.1563 Q89.9419,138.1563 89.7388,137.9531 Q89.5356,137.7656 89.4263,137.25 Q89.3794,136.8906 89.1919,136.7031 Q88.8638,136.3281 88.2544,136.1094 Q87.645,135.8906 87.02,135.8906 Q86.2544,135.8906 85.6216,136.2188 Q84.9888,136.5469 84.4966,137.2969 Q84.0044,138.0469 84.0044,139.0781 L84.0044,140.1719 Q84.0044,141.4063 84.895,142.2266 Q85.7856,143.0469 87.3794,143.0469 Q88.3169,143.0469 88.9731,142.7969 Q89.3638,142.6406 89.7856,142.2031 Q90.0513,141.9375 90.1997,141.8594 Q90.3481,141.7813 90.5513,141.7813 Q90.8794,141.7813 91.1372,142.0391 Q91.395,142.2969 91.395,142.6406 Q91.395,142.9844 91.0513,143.3906 Q90.5513,143.9688 89.7544,144.2969 Q88.6763,144.75 87.3794,144.75 Q85.8638,144.75 84.6606,144.125 Q83.6763,143.625 82.9888,142.5547 Q82.3013,141.4844 82.3013,140.2031 L82.3013,139.0469 Q82.3013,137.7188 82.9184,136.5703 Q83.5356,135.4219 84.6294,134.8047 Q85.7231,134.1875 86.9575,134.1875 Q87.6919,134.1875 88.3403,134.3516 Q88.9888,134.5156 89.5356,134.875 Z " fill="#000000"/><text fill="#000000" font-family="sans-serif" font-size="14" lengthAdjust="spacing" textLength="93" x="102.67" y="144.7285">SABundleBuild</text><line style="stroke:#181818;stroke-width:0.5;" x1="64.22" x2="206.22" y1="155" y2="155"/><text fill="#000000" font-family="sans-serif" font-size="14" lengthAdjust="spacing" textLength="74" x="69.22" y="173.5332">string name</text><text fill="#000000" font-family="sans-serif" font-size="14" lengthAdjust="spacing" textLength="85" x="69.22" y="191.1426">string version</text><text fill="#000000" font-family="sans-serif" font-size="14" lengthAdjust="spacing" textLength="132" x="69.22" y="208.752">string encryptedData</text><line style="stroke:#181818;stroke-width:0.5;" x1="64.22" x2="206.22" y1="215.8281" y2="215.8281"/><text fill="#000000" font-family="sans-serif" font-size="14" lengthAdjust="spacing" textLength="57" x="69.22" y="234.3613">encrypt()</text></g><!--link Model to SecurityKey--><g id="link_Model_SecurityKey"><path codeLine="14" d="M52.7976,222.5152 C21.5376,241.7352 6,261.27 24.22,289 C38.34,310.49 58.5958,320.7794 81.8958,327.3594 " fill="none" id="Model-SecurityKey" style="stroke:#181818;stroke-width:1.0;"/><polygon fill="#181818" points="63.02,216.23,55.8138,215.9651,52.7976,222.5152,60.0039,222.78,63.02,216.23" style="stroke:#181818;stroke-width:1.0;"/><polygon fill="#181818" points="87.67,328.99,80.0958,322.6946,82.8582,327.6311,77.9217,330.3935,87.67,328.99" style="stroke:#181818;stroke-width:1.0;"/><text fill="#000000" font-family="sans-serif" font-size="13" lengthAdjust="spacing" textLength="66" x="25.22" y="285.4951">encryptKey</text><text fill="#000000" font-family="sans-serif" font-size="13" lengthAdjust="spacing" textLength="7" x="72.853" y="323.9373">1</text></g><!--link Model to SecurityKey--><g id="link_Model_SecurityKey"><path codeLine="20" d="M131.9989,253.0354 C131.5689,268.6154 131.73,273.45 132.22,289 C132.53,298.85 132.7758,303.8343 133.3958,312.7943 " fill="none" id="Model-SecurityKey-1" style="stroke:#181818;stroke-width:1.0;"/><polygon fill="#181818" points="132.33,241.04,128.166,246.9274,131.9989,253.0354,136.1629,247.1481,132.33,241.04" style="stroke:#181818;stroke-width:1.0;"/><polygon fill="#181818" points="133.81,318.78,137.1792,309.5253,133.4648,313.7919,129.1983,310.0776,133.81,318.78" style="stroke:#181818;stroke-width:1.0;"/><text fill="#000000" font-family="sans-serif" font-size="13" lengthAdjust="spacing" textLength="66" x="133.22" y="285.4951">decryptKey</text><text fill="#000000" font-family="sans-serif" font-size="13" lengthAdjust="spacing" textLength="7" x="125.3063" y="308.0526">1</text></g><!--link Model to SecurityKey--><g id="link_Model_SecurityKey"><path codeLine="26" d="M195.8293,251.4321 C201.9393,260.7721 200.67,260.72 204.22,271 C211.09,290.9 199.282,304.175 180.482,315.645 " fill="none" id="Model-SecurityKey-2" style="stroke:#181818;stroke-width:1.0;"/><polygon fill="#181818" points="189.26,241.39,189.1973,248.6008,195.8293,251.4321,195.892,244.2213,189.26,241.39" style="stroke:#181818;stroke-width:1.0;"/><polygon fill="#181818" points="175.36,318.77,185.1263,317.4972,179.6283,316.1659,180.9597,310.6679,175.36,318.77" style="stroke:#181818;stroke-width:1.0;"/><text fill="#000000" font-family="sans-serif" font-size="13" lengthAdjust="spacing" textLength="8" x="206.22" y="285.4951">iv</text><text fill="#000000" font-family="sans-serif" font-size="13" lengthAdjust="spacing" textLength="7" x="179.581" y="308.0396">1</text></g><!--link SABundle to Model--><g id="link_SABundle_Model"><path codeLine="34" d="M135.22,57.27 C135.22,76.39 135.22,89.41 135.22,116.97 " fill="none" id="SABundle-Model" style="stroke:#181818;stroke-width:1.0;"/><polygon fill="none" points="135.22,45.27,131.22,51.27,135.22,57.27,139.22,51.27,135.22,45.27" style="stroke:#181818;stroke-width:1.0;"/><polygon fill="#181818" points="135.22,122.97,139.22,113.97,135.22,117.97,131.22,113.97,135.22,122.97" style="stroke:#181818;stroke-width:1.0;"/><text fill="#000000" font-family="sans-serif" font-size="13" lengthAdjust="spacing" textLength="34" x="136.22" y="89.4951">builds</text><text fill="#000000" font-family="sans-serif" font-size="13" lengthAdjust="spacing" textLength="7" x="127.7934" y="112.2906">n</text></g><!--SRC=[jP5D2i8m48NtSueXRbJemcqNWiMTkF84QJB4G4mbFuKYlRjfcfPw0DzYuC7C-mQUCDnxP8zB4wqqr4Hj94FkyTv9ClW1zC5fgz3o5wsc9-TrPrTFLhZX7KXUUU00YzyV0644S2G2jyfG0f68JeVXHaF6R3pkZ5RFq9f8YPlEvXUELNL6Tc8_g_M2I0R-0v3qPu3kOH8cRUDB4tDsCILOEI8xTP8qvfd7f7KJiSiuoqg5DR9sQjMp-U8B]--></g></svg>