<?xml version="1.0" encoding="UTF-8" standalone="no"?><svg xmlns="http://www.w3.org/2000/svg" xmlns:xlink="http://www.w3.org/1999/xlink" contentScriptType="application/ecmascript" contentStyleType="text/css" height="353px" preserveAspectRatio="none" style="width:213px;height:353px;" version="1.1" viewBox="0 0 213 353" width="213px" zoomAndPan="magnify"><defs><filter height="300%" id="f8ls1vjmblssp" width="300%" x="-1" y="-1"><feGaussianBlur result="blurOut" stdDeviation="2.0"/><feColorMatrix in="blurOut" result="blurOut2" type="matrix" values="0 0 0 0 0 0 0 0 0 0 0 0 0 0 0 0 0 0 .4 0"/><feOffset dx="4.0" dy="4.0" in="blurOut2" result="blurOut3"/><feBlend in="SourceGraphic" in2="blurOut3" mode="normal"/></filter></defs><g><!--entity SecurityKey--><rect fill="#ADD8E6" filter="url(#f8ls1vjmblssp)" height="37.6094" style="stroke: #000000; stroke-width: 1.5;" width="95" x="75.4112" y="305"/><text fill="#000000" font-family="sans-serif" font-size="14" lengthAdjust="spacingAndGlyphs" textLength="75" x="85.4112" y="329.5332">SecurityKey</text><!--entity SABundle--><rect fill="#90EE90" filter="url(#f8ls1vjmblssp)" height="37.6094" style="stroke: #000000; stroke-width: 1.5;" width="82" x="81.9112" y="8"/><text fill="#000000" font-family="sans-serif" font-size="14" lengthAdjust="spacingAndGlyphs" textLength="62" x="91.9112" y="32.5332">SABundle</text><!--class Model--><rect fill="#FEFECE" filter="url(#f8ls1vjmblssp)" height="103.3438" id="Model" style="stroke: #A80036; stroke-width: 1.5;" width="114" x="65.9112" y="124"/><ellipse cx="80.9112" cy="140" fill="#ADD1B2" rx="11" ry="11" style="stroke: #A80036; stroke-width: 1.0;"/><path d="M83.6768,135.875 Q83.8331,135.6563 84.0206,135.5469 Q84.2081,135.4375 84.4268,135.4375 Q84.8018,135.4375 85.0362,135.6953 Q85.2706,135.9531 85.2706,136.5625 L85.2706,138.0156 Q85.2706,138.625 85.0362,138.8906 Q84.8018,139.1563 84.4268,139.1563 Q84.0831,139.1563 83.88,138.9531 Q83.6768,138.7656 83.5675,138.25 Q83.5206,137.8906 83.3331,137.7031 Q83.005,137.3281 82.3956,137.1094 Q81.7862,136.8906 81.1612,136.8906 Q80.3956,136.8906 79.7628,137.2188 Q79.13,137.5469 78.6378,138.2969 Q78.1456,139.0469 78.1456,140.0781 L78.1456,141.1719 Q78.1456,142.4063 79.0362,143.2266 Q79.9268,144.0469 81.5206,144.0469 Q82.4581,144.0469 83.1143,143.7969 Q83.505,143.6406 83.9268,143.2031 Q84.1925,142.9375 84.3409,142.8594 Q84.4893,142.7813 84.6925,142.7813 Q85.0206,142.7813 85.2784,143.0391 Q85.5362,143.2969 85.5362,143.6406 Q85.5362,143.9844 85.1925,144.3906 Q84.6925,144.9688 83.8956,145.2969 Q82.8175,145.75 81.5206,145.75 Q80.005,145.75 78.8018,145.125 Q77.8175,144.625 77.13,143.5547 Q76.4425,142.4844 76.4425,141.2031 L76.4425,140.0469 Q76.4425,138.7188 77.0596,137.5703 Q77.6768,136.4219 78.7706,135.8047 Q79.8643,135.1875 81.0987,135.1875 Q81.8331,135.1875 82.4815,135.3516 Q83.13,135.5156 83.6768,135.875 Z "/><text fill="#000000" font-family="sans-serif" font-size="12" lengthAdjust="spacingAndGlyphs" textLength="82" x="94.9112" y="144.9102">SABundleBuild</text><line style="stroke: #A80036; stroke-width: 1.5;" x1="66.9112" x2="178.9112" y1="156" y2="156"/><text fill="#000000" font-family="sans-serif" font-size="11" lengthAdjust="spacingAndGlyphs" textLength="56" x="71.9112" y="171.4189">string name</text><text fill="#000000" font-family="sans-serif" font-size="11" lengthAdjust="spacingAndGlyphs" textLength="66" x="71.9112" y="185.2549">string version</text><text fill="#000000" font-family="sans-serif" font-size="11" lengthAdjust="spacingAndGlyphs" textLength="101" x="71.9112" y="199.0908">string encryptedData</text><line style="stroke: #A80036; stroke-width: 1.5;" x1="66.9112" x2="178.9112" y1="205.5078" y2="205.5078"/><text fill="#000000" font-family="sans-serif" font-size="11" lengthAdjust="spacingAndGlyphs" textLength="45" x="71.9112" y="220.9268">encrypt()</text><!--link Model to SecurityKey--><path d="M54.1055,204.927 C21.7105,222.673 -6.2499,247.3602 11.9112,275 C23.5519,292.7163 43.2767,303.9245 62.8981,311.0023 " fill="none" id="Model-SecurityKey" style="stroke: #A80036; stroke-width: 1.0;"/><polygon fill="#A80036" points="75.3586,314.9902,68.0062,308.4371,70.5966,313.4661,65.5676,316.0564,75.3586,314.9902" style="stroke: #A80036; stroke-width: 1.0;"/><line style="stroke: #A80036; stroke-width: 1.0;" x1="70.5966" x2="62.9773" y1="313.4661" y2="311.0276"/><polygon fill="#A80036" points="65.6806,198.947,58.514,198.1475,55.0196,204.4554,62.1862,205.2549,65.6806,198.947" style="stroke: #A80036; stroke-width: 1.0;"/><text fill="#000000" font-family="sans-serif" font-size="13" lengthAdjust="spacingAndGlyphs" textLength="66" x="12.9112" y="271.4951">encryptKey</text><text fill="#000000" font-family="sans-serif" font-size="13" lengthAdjust="spacingAndGlyphs" textLength="7" x="60.5412" y="309.9375">1</text><!--link Model to SecurityKey--><path d="M119.818,240.398 C119.587,251.9161 119.562,263.8153 119.911,275 C120.079,280.3855 120.353,286.1059 120.669,291.6501 " fill="none" id="Model-SecurityKey-1" style="stroke: #A80036; stroke-width: 1.0;"/><polygon fill="#A80036" points="121.504,304.7781,124.9248,295.5424,121.1867,299.7882,116.9409,296.0501,121.504,304.7781" style="stroke: #A80036; stroke-width: 1.0;"/><line style="stroke: #A80036; stroke-width: 1.0;" x1="121.1867" x2="120.679" y1="299.7882" y2="291.8044"/><polygon fill="#A80036" points="120.173,227.116,116.0142,233.0071,119.8526,239.1117,124.0114,233.2207,120.173,227.116" style="stroke: #A80036; stroke-width: 1.0;"/><text fill="#000000" font-family="sans-serif" font-size="13" lengthAdjust="spacingAndGlyphs" textLength="66" x="120.911" y="271.4951">decryptKey</text><text fill="#000000" font-family="sans-serif" font-size="13" lengthAdjust="spacingAndGlyphs" textLength="7" x="113.0012" y="294.0502">1</text><!--link Model to SecurityKey--><path d="M182.766,238.334 C186.398,244.3319 189.537,250.5828 191.911,257 C197.835,273.0136 187.822,286.8254 173.738,297.6149 " fill="none" id="Model-SecurityKey-2" style="stroke: #A80036; stroke-width: 1.0;"/><polygon fill="#A80036" points="162.932,304.9253,172.6277,303.1953,167.0733,302.1236,168.145,296.5692,162.932,304.9253" style="stroke: #A80036; stroke-width: 1.0;"/><line style="stroke: #A80036; stroke-width: 1.0;" x1="167.0733" x2="173.6995" y1="302.1236" y2="297.6407"/><polygon fill="#A80036" points="175.244,227.136,175.2686,234.3471,181.9344,237.0978,181.9098,229.8868,175.244,227.136" style="stroke: #A80036; stroke-width: 1.0;"/><text fill="#000000" font-family="sans-serif" font-size="13" lengthAdjust="spacingAndGlyphs" textLength="8" x="193.911" y="271.4951">iv</text><text fill="#000000" font-family="sans-serif" font-size="13" lengthAdjust="spacingAndGlyphs" textLength="7" x="167.1165" y="294.2424">1</text><!--link SABundle to Model--><path d="M122.911,59.388 C122.911,74.409 122.911,92.963 122.911,110.757 " fill="none" id="SABundle-Model" style="stroke: #A80036; stroke-width: 1.0;"/><polygon fill="#A80036" points="122.911,123.83,126.911,114.83,122.911,118.83,118.911,114.83,122.911,123.83" style="stroke: #A80036; stroke-width: 1.0;"/><line style="stroke: #A80036; stroke-width: 1.0;" x1="122.911" x2="122.911" y1="118.83" y2="110.83"/><polygon fill="#FFFFFF" points="122.911,46.258,118.911,52.258,122.911,58.258,126.911,52.258,122.911,46.258" style="stroke: #A80036; stroke-width: 1.0;"/><text fill="#000000" font-family="sans-serif" font-size="13" lengthAdjust="spacingAndGlyphs" textLength="34" x="123.911" y="90.4951">builds</text><text fill="#000000" font-family="sans-serif" font-size="13" lengthAdjust="spacingAndGlyphs" textLength="7" x="115.4407" y="113.3075">n</text><!--
@startuml

class "SABundleBuild" as Model {
 string name
 string version
 string encryptedData

 encrypt()
 
}

rectangle "SecurityKey" as SecurityKey #lightblue {
}

Model *- -> "1" SecurityKey : encryptKey


rectangle "SecurityKey" as SecurityKey #lightblue {
}

Model *- -> "1" SecurityKey : decryptKey


rectangle "SecurityKey" as SecurityKey #lightblue {
}

Model *- -> "1" SecurityKey : iv




    rectangle "SABundle" as SABundle #lightgreen {
    }
    
        SABundle   o- -> "n" Model : "builds"
    

@enduml

PlantUML version 1.2019.05(Sat Apr 20 09:45:36 PDT 2019)
(GPL source distribution)
Java Runtime: Java(TM) SE Runtime Environment
JVM: Java HotSpot(TM) Client VM
Java Version: 1.8.0_271-b09
Operating System: Windows 10
OS Version: 10.0
Default Encoding: Cp1252
Language: en
Country: US
--></g></svg>