<?xml version="1.0" encoding="UTF-8" standalone="no"?><svg xmlns="http://www.w3.org/2000/svg" xmlns:xlink="http://www.w3.org/1999/xlink" contentScriptType="application/ecmascript" contentStyleType="text/css" height="285px" preserveAspectRatio="none" style="width:495px;height:285px;" version="1.1" viewBox="0 0 495 285" width="495px" zoomAndPan="magnify"><defs><filter height="300%" id="f1o11ff4ru5g5k" width="300%" x="-1" y="-1"><feGaussianBlur result="blurOut" stdDeviation="2.0"/><feColorMatrix in="blurOut" result="blurOut2" type="matrix" values="0 0 0 0 0 0 0 0 0 0 0 0 0 0 0 0 0 0 .4 0"/><feOffset dx="4.0" dy="4.0" in="blurOut2" result="blurOut3"/><feBlend in="SourceGraphic" in2="blurOut3" mode="normal"/></filter></defs><g><ellipse cx="265.7487" cy="168.4517" fill="#FFFF00" filter="url(#f1o11ff4ru5g5k)" rx="27.7487" ry="15.4517" style="stroke: #A80036; stroke-width: 1.5;"/><text fill="#000000" font-family="sans-serif" font-size="14" lengthAdjust="spacingAndGlyphs" textLength="35" x="248.2487" y="173.7564">Ships</text><!--entity DevOpsEngineer--><ellipse cx="265.5" cy="18" fill="#FEFECE" filter="url(#f1o11ff4ru5g5k)" rx="8" ry="8" style="stroke: #A80036; stroke-width: 2.0;"/><path d="M265.5,26 L265.5,53 M252.5,34 L278.5,34 M265.5,53 L252.5,68 M265.5,53 L278.5,68 " fill="none" filter="url(#f1o11ff4ru5g5k)" style="stroke: #A80036; stroke-width: 2.0;"/><text fill="#000000" font-family="sans-serif" font-size="14" lengthAdjust="spacingAndGlyphs" textLength="112" x="209.5" y="89.5332">DevOps Engineer</text><ellipse cx="70.5183" cy="259.4517" fill="#D3D3D3" filter="url(#f1o11ff4ru5g5k)" rx="64.5183" ry="15.4517" style="stroke: #A80036; stroke-width: 1.5;"/><text fill="#000000" font-family="sans-serif" font-size="14" lengthAdjust="spacingAndGlyphs" textLength="87" x="27.0183" y="264.7564">AISNoContact</text><ellipse cx="207.4411" cy="259.4517" fill="#D3D3D3" filter="url(#f1o11ff4ru5g5k)" rx="36.9411" ry="15.4517" style="stroke: #A80036; stroke-width: 1.5;"/><text fill="#000000" font-family="sans-serif" font-size="14" lengthAdjust="spacingAndGlyphs" textLength="48" x="183.4411" y="264.7564">AISOne</text><ellipse cx="323.5122" cy="259.4517" fill="#D3D3D3" filter="url(#f1o11ff4ru5g5k)" rx="44.0122" ry="15.4517" style="stroke: #A80036; stroke-width: 1.5;"/><text fill="#000000" font-family="sans-serif" font-size="14" lengthAdjust="spacingAndGlyphs" textLength="58" x="294.5122" y="264.7564">AISSABR</text><ellipse cx="443.6838" cy="259.4517" fill="#D3D3D3" filter="url(#f1o11ff4ru5g5k)" rx="41.1838" ry="15.4517" style="stroke: #A80036; stroke-width: 1.5;"/><text fill="#000000" font-family="sans-serif" font-size="14" lengthAdjust="spacingAndGlyphs" textLength="54" x="416.6838" y="264.7564">USVOne</text><!--link DevOpsEngineer to Ships--><path d="M265.5,93.051 C265.5,111.579 265.5,132.548 265.5,147.5 " fill="none" id="DevOpsEngineer-Ships" style="stroke: #A80036; stroke-width: 1.0;"/><polygon fill="#A80036" points="265.5,152.72,269.5,143.72,265.5,147.72,261.5,143.72,265.5,152.72" style="stroke: #A80036; stroke-width: 1.0;"/><!--link Ships to AISNoContact--><path d="M245,178.8563 C211.361,194.2097 144.147,224.8867 103.6633,243.3639 " fill="none" id="Ships-AISNoContact" style="stroke: #A80036; stroke-width: 1.0;"/><polygon fill="#A80036" points="98.8628,245.5549,108.7112,245.4567,103.4114,243.4788,105.3893,238.179,98.8628,245.5549" style="stroke: #A80036; stroke-width: 1.0;"/><!--link Ships to AISOne--><path d="M256.438,183.4062 C246.536,198.6001 230.624,223.0165 219.647,239.8613 " fill="none" id="Ships-AISOne" style="stroke: #A80036; stroke-width: 1.0;"/><polygon fill="#A80036" points="216.69,244.3977,224.9553,239.042,219.4202,240.2089,218.2532,234.6737,216.69,244.3977" style="stroke: #A80036; stroke-width: 1.0;"/><!--link Ships to AISSABR--><path d="M274.563,183.4062 C284.406,198.5107 300.189,222.7296 311.159,239.5633 " fill="none" id="Ships-AISSABR" style="stroke: #A80036; stroke-width: 1.0;"/><polygon fill="#A80036" points="314.117,244.1017,312.5538,234.3777,311.3868,239.9129,305.8517,238.746,314.117,244.1017" style="stroke: #A80036; stroke-width: 1.0;"/><!--link Ships to USVOne--><path d="M285.229,179.3646 C316.848,195.1741 378.994,226.2469 415.294,244.3971 " fill="none" id="Ships-USVOne" style="stroke: #A80036; stroke-width: 1.0;"/><polygon fill="#A80036" points="420.022,246.7611,413.7625,239.1573,415.5503,244.5242,410.1834,246.312,420.022,246.7611" style="stroke: #A80036; stroke-width: 1.0;"/><!--
@startuml


usecase "Ships" as Ships #yellow

Actor "DevOps Engineer" as DevOpsEngineer

DevOpsEngineer - -> Ships



usecase "AISNoContact" as AISNoContact #lightgrey

Ships - -> AISNoContact

usecase "AISOne" as AISOne #lightgrey

Ships - -> AISOne

usecase "AISSABR" as AISSABR #lightgrey

Ships - -> AISSABR

usecase "USVOne" as USVOne #lightgrey

Ships - -> USVOne









@enduml

PlantUML version 1.2019.05(Sat Apr 20 09:45:36 PDT 2019)
(GPL source distribution)
Java Runtime: Java(TM) SE Runtime Environment
JVM: Java HotSpot(TM) Client VM
Java Version: 1.8.0_271-b09
Operating System: Windows 10
OS Version: 10.0
Default Encoding: Cp1252
Language: en
Country: US
--></g></svg>