<?xml version="1.0" encoding="us-ascii" standalone="no"?><svg xmlns="http://www.w3.org/2000/svg" xmlns:xlink="http://www.w3.org/1999/xlink" contentStyleType="text/css" height="826px" preserveAspectRatio="none" style="width:1233px;height:826px;background:#FFFFFF;" version="1.1" viewBox="0 0 1233 826" width="1233px" zoomAndPan="magnify"><defs/><g><rect fill="#BBAAFF" height="814.6016" style="stroke:#181818;stroke-width:0.5;" width="222" x="227" y="6"/><text fill="#000000" font-family="sans-serif" font-size="13" font-weight="bold" lengthAdjust="spacing" textLength="212" x="230" y="19.4951">Sentient Agent Bundle Resources</text><line style="stroke:#181818;stroke-width:0.5;stroke-dasharray:5.0,5.0;" x1="75" x2="75" y1="82.6094" y2="739.9922"/><line style="stroke:#181818;stroke-width:0.5;stroke-dasharray:5.0,5.0;" x1="188" x2="188" y1="82.6094" y2="739.9922"/><line style="stroke:#181818;stroke-width:0.5;stroke-dasharray:5.0,5.0;" x1="337.5" x2="337.5" y1="82.6094" y2="739.9922"/><line style="stroke:#181818;stroke-width:0.5;stroke-dasharray:5.0,5.0;" x1="897.5" x2="897.5" y1="82.6094" y2="739.9922"/><line style="stroke:#181818;stroke-width:0.5;stroke-dasharray:5.0,5.0;" x1="1121.5" x2="1121.5" y1="82.6094" y2="739.9922"/><text fill="#000000" font-family="sans-serif" font-size="14" lengthAdjust="spacing" textLength="134" x="5" y="79.5332">ApplicationDeveloper</text><ellipse cx="75" cy="13.5" fill="#E2E2F0" rx="8" ry="8" style="stroke:#181818;stroke-width:0.5;"/><path d="M75,21.5 L75,48.5 M62,29.5 L88,29.5 M75,48.5 L62,63.5 M75,48.5 L88,63.5 " fill="none" style="stroke:#181818;stroke-width:0.5;"/><text fill="#000000" font-family="sans-serif" font-size="14" lengthAdjust="spacing" textLength="134" x="5" y="753.5254">ApplicationDeveloper</text><ellipse cx="75" cy="765.1016" fill="#E2E2F0" rx="8" ry="8" style="stroke:#181818;stroke-width:0.5;"/><path d="M75,773.1016 L75,800.1016 M62,781.1016 L88,781.1016 M75,800.1016 L62,815.1016 M75,800.1016 L88,815.1016 " fill="none" style="stroke:#181818;stroke-width:0.5;"/><text fill="#000000" font-family="sans-serif" font-size="14" lengthAdjust="spacing" textLength="60" x="155" y="79.5332">EventBus</text><ellipse cx="188" cy="49" fill="#E2E2F0" rx="12" ry="12" style="stroke:#181818;stroke-width:0.5;"/><line style="stroke:#181818;stroke-width:0.5;" x1="176" x2="200" y1="63" y2="63"/><text fill="#000000" font-family="sans-serif" font-size="14" lengthAdjust="spacing" textLength="60" x="155" y="753.5254">EventBus</text><ellipse cx="188" cy="772.6016" fill="#E2E2F0" rx="12" ry="12" style="stroke:#181818;stroke-width:0.5;"/><line style="stroke:#181818;stroke-width:0.5;" x1="176" x2="200" y1="786.6016" y2="786.6016"/><text fill="#000000" font-family="sans-serif" font-size="14" lengthAdjust="spacing" textLength="28" x="321" y="79.5332">sabr</text><path d="M317.5,37 L317.5,61 M317.5,49 L334.5,49 " fill="none" style="stroke:#181818;stroke-width:0.5;"/><ellipse cx="346.5" cy="49" fill="#FFFFFF" rx="12" ry="12" style="stroke:#181818;stroke-width:0.5;"/><text fill="#000000" font-family="sans-serif" font-size="14" lengthAdjust="spacing" textLength="28" x="321" y="753.5254">sabr</text><path d="M317.5,760.6016 L317.5,784.6016 M317.5,772.6016 L334.5,772.6016 " fill="none" style="stroke:#181818;stroke-width:0.5;"/><ellipse cx="346.5" cy="772.6016" fill="#FFFFFF" rx="12" ry="12" style="stroke:#181818;stroke-width:0.5;"/><rect fill="#E2E2F0" height="31.6094" rx="2.5" ry="2.5" style="stroke:#181818;stroke-width:0.5;" width="218" x="788.5" y="50"/><text fill="#000000" font-family="sans-serif" font-size="14" lengthAdjust="spacing" textLength="204" x="795.5" y="71.5332">sentient agent bundle resources</text><rect fill="#E2E2F0" height="31.6094" rx="2.5" ry="2.5" style="stroke:#181818;stroke-width:0.5;" width="218" x="788.5" y="738.9922"/><text fill="#000000" font-family="sans-serif" font-size="14" lengthAdjust="spacing" textLength="204" x="795.5" y="760.5254">sentient agent bundle resources</text><rect fill="#E2E2F0" height="31.6094" rx="2.5" ry="2.5" style="stroke:#181818;stroke-width:0.5;" width="211" x="1016.5" y="50"/><text fill="#000000" font-family="sans-serif" font-size="14" lengthAdjust="spacing" textLength="197" x="1023.5" y="71.5332">sentient agent bundle manager</text><rect fill="#E2E2F0" height="31.6094" rx="2.5" ry="2.5" style="stroke:#181818;stroke-width:0.5;" width="211" x="1016.5" y="738.9922"/><text fill="#000000" font-family="sans-serif" font-size="14" lengthAdjust="spacing" textLength="197" x="1023.5" y="760.5254">sentient agent bundle manager</text><polygon fill="#181818" points="326,110.9609,336,114.9609,326,118.9609,330,114.9609" style="stroke:#181818;stroke-width:1.0;"/><line style="stroke:#181818;stroke-width:1.0;" x1="75" x2="332" y1="114.9609" y2="114.9609"/><text fill="#000000" font-family="sans-serif" font-size="13" lengthAdjust="spacing" textLength="90" x="82" y="110.1045">AIS No Contact</text><polygon fill="#181818" points="885.5,141.3125,895.5,145.3125,885.5,149.3125,889.5,145.3125" style="stroke:#181818;stroke-width:1.0;"/><line style="stroke:#181818;stroke-width:1.0;" x1="338" x2="891.5" y1="145.3125" y2="145.3125"/><text fill="#000000" font-family="sans-serif" font-size="13" lengthAdjust="spacing" textLength="390" x="345" y="140.4561">create (name: Ship1,file: ./projects/AISSimulator/AISShip/bundle.js)</text><polygon fill="#181818" points="199,176.6641,189,176.6641,199,180.6641" style="stroke:#181818;stroke-width:1.0;"/><line style="stroke:#181818;stroke-width:1.0;stroke-dasharray:2.0,2.0;" x1="188" x2="896.5" y1="175.6641" y2="175.6641"/><text fill="#000000" font-family="sans-serif" font-size="13" lengthAdjust="spacing" textLength="78" x="205" y="170.8076">bundle.create</text><polygon fill="#181818" points="885.5,202.0156,895.5,206.0156,885.5,210.0156,889.5,206.0156" style="stroke:#181818;stroke-width:1.0;"/><line style="stroke:#181818;stroke-width:1.0;" x1="338" x2="891.5" y1="206.0156" y2="206.0156"/><text fill="#000000" font-family="sans-serif" font-size="13" lengthAdjust="spacing" textLength="453" x="345" y="201.1592">create (name: NoContact,file: ./projects/AISSimulator/AISNoContact/bundle.js)</text><polygon fill="#181818" points="199,237.3672,189,237.3672,199,241.3672" style="stroke:#181818;stroke-width:1.0;"/><line style="stroke:#181818;stroke-width:1.0;stroke-dasharray:2.0,2.0;" x1="188" x2="896.5" y1="236.3672" y2="236.3672"/><text fill="#000000" font-family="sans-serif" font-size="13" lengthAdjust="spacing" textLength="78" x="205" y="231.5107">bundle.create</text><polygon fill="#181818" points="885.5,262.7188,895.5,266.7188,885.5,270.7188,889.5,266.7188" style="stroke:#181818;stroke-width:1.0;"/><line style="stroke:#181818;stroke-width:1.0;" x1="338" x2="891.5" y1="266.7188" y2="266.7188"/><text fill="#000000" font-family="sans-serif" font-size="13" lengthAdjust="spacing" textLength="384" x="345" y="261.8623">create (name: Agg1,file: ./projects/AISSimulator/AISAgg/bundle.js)</text><polygon fill="#181818" points="199,298.0703,189,298.0703,199,302.0703" style="stroke:#181818;stroke-width:1.0;"/><line style="stroke:#181818;stroke-width:1.0;stroke-dasharray:2.0,2.0;" x1="188" x2="896.5" y1="297.0703" y2="297.0703"/><text fill="#000000" font-family="sans-serif" font-size="13" lengthAdjust="spacing" textLength="78" x="205" y="292.2139">bundle.create</text><polygon fill="#181818" points="885.5,323.4219,895.5,327.4219,885.5,331.4219,889.5,327.4219" style="stroke:#181818;stroke-width:1.0;"/><line style="stroke:#181818;stroke-width:1.0;" x1="338" x2="891.5" y1="327.4219" y2="327.4219"/><text fill="#000000" font-family="sans-serif" font-size="13" lengthAdjust="spacing" textLength="416" x="345" y="322.5654">create (name: Viewer1,file: ./projects/AISSimulator/AISViewer/bundle.js)</text><polygon fill="#181818" points="199,358.7734,189,358.7734,199,362.7734" style="stroke:#181818;stroke-width:1.0;"/><line style="stroke:#181818;stroke-width:1.0;stroke-dasharray:2.0,2.0;" x1="188" x2="896.5" y1="357.7734" y2="357.7734"/><text fill="#000000" font-family="sans-serif" font-size="13" lengthAdjust="spacing" textLength="78" x="205" y="352.917">bundle.create</text><polygon fill="#181818" points="1110,384.125,1120,388.125,1110,392.125,1114,388.125" style="stroke:#181818;stroke-width:1.0;"/><line style="stroke:#181818;stroke-width:1.0;" x1="338" x2="1116" y1="388.125" y2="388.125"/><text fill="#000000" font-family="sans-serif" font-size="13" lengthAdjust="spacing" textLength="319" x="345" y="383.2686">create (file: ./projects/AISSimulator/AISShip/policies.js)</text><polygon fill="#181818" points="199,419.4766,189,419.4766,199,423.4766" style="stroke:#181818;stroke-width:1.0;"/><line style="stroke:#181818;stroke-width:1.0;stroke-dasharray:2.0,2.0;" x1="188" x2="1121" y1="418.4766" y2="418.4766"/><text fill="#000000" font-family="sans-serif" font-size="13" lengthAdjust="spacing" textLength="74" x="205" y="413.6201">policy.create</text><polygon fill="#181818" points="1110,444.8281,1120,448.8281,1110,452.8281,1114,448.8281" style="stroke:#181818;stroke-width:1.0;"/><line style="stroke:#181818;stroke-width:1.0;" x1="338" x2="1116" y1="448.8281" y2="448.8281"/><text fill="#000000" font-family="sans-serif" font-size="13" lengthAdjust="spacing" textLength="231" x="345" y="443.9717">deploy (sabr: Viewer1,policies: realtime)</text><polygon fill="#181818" points="199,480.1797,189,480.1797,199,484.1797" style="stroke:#181818;stroke-width:1.0;"/><line style="stroke:#181818;stroke-width:1.0;stroke-dasharray:2.0,2.0;" x1="188" x2="1121" y1="479.1797" y2="479.1797"/><text fill="#000000" font-family="sans-serif" font-size="13" lengthAdjust="spacing" textLength="80" x="205" y="474.3232">bundle.deploy</text><polygon fill="#181818" points="1110,505.5313,1120,509.5313,1110,513.5313,1114,509.5313" style="stroke:#181818;stroke-width:1.0;"/><line style="stroke:#181818;stroke-width:1.0;" x1="338" x2="1116" y1="509.5313" y2="509.5313"/><text fill="#000000" font-family="sans-serif" font-size="13" lengthAdjust="spacing" textLength="409" x="345" y="504.6748">deploy (sabr: NoContact,policies: realtime,parameters: timeout=10000)</text><polygon fill="#181818" points="199,540.8828,189,540.8828,199,544.8828" style="stroke:#181818;stroke-width:1.0;"/><line style="stroke:#181818;stroke-width:1.0;stroke-dasharray:2.0,2.0;" x1="188" x2="1121" y1="539.8828" y2="539.8828"/><text fill="#000000" font-family="sans-serif" font-size="13" lengthAdjust="spacing" textLength="80" x="205" y="535.0264">bundle.deploy</text><polygon fill="#181818" points="1110,566.2344,1120,570.2344,1110,574.2344,1114,570.2344" style="stroke:#181818;stroke-width:1.0;"/><line style="stroke:#181818;stroke-width:1.0;" x1="338" x2="1116" y1="570.2344" y2="570.2344"/><text fill="#000000" font-family="sans-serif" font-size="13" lengthAdjust="spacing" textLength="215" x="345" y="565.3779">deploy (sabr: Agg1,policies: realtime)</text><polygon fill="#181818" points="199,601.5859,189,601.5859,199,605.5859" style="stroke:#181818;stroke-width:1.0;"/><line style="stroke:#181818;stroke-width:1.0;stroke-dasharray:2.0,2.0;" x1="188" x2="1121" y1="600.5859" y2="600.5859"/><text fill="#000000" font-family="sans-serif" font-size="13" lengthAdjust="spacing" textLength="80" x="205" y="595.7295">bundle.deploy</text><polygon fill="#181818" points="1110,626.9375,1120,630.9375,1110,634.9375,1114,630.9375" style="stroke:#181818;stroke-width:1.0;"/><line style="stroke:#181818;stroke-width:1.0;" x1="338" x2="1116" y1="630.9375" y2="630.9375"/><text fill="#000000" font-family="sans-serif" font-size="13" lengthAdjust="spacing" textLength="592" x="345" y="626.0811">deploy (sabr: Ship1,policies: realtime,parameters: sourceFile=../AIS_Simulator/ships/215071000A.csv)</text><polygon fill="#181818" points="199,662.2891,189,662.2891,199,666.2891" style="stroke:#181818;stroke-width:1.0;"/><line style="stroke:#181818;stroke-width:1.0;stroke-dasharray:2.0,2.0;" x1="188" x2="1121" y1="661.2891" y2="661.2891"/><text fill="#000000" font-family="sans-serif" font-size="13" lengthAdjust="spacing" textLength="80" x="205" y="656.4326">bundle.deploy</text><polygon fill="#181818" points="1110,687.6406,1120,691.6406,1110,695.6406,1114,691.6406" style="stroke:#181818;stroke-width:1.0;"/><line style="stroke:#181818;stroke-width:1.0;" x1="338" x2="1116" y1="691.6406" y2="691.6406"/><text fill="#000000" font-family="sans-serif" font-size="13" lengthAdjust="spacing" textLength="592" x="345" y="686.7842">deploy (sabr: Ship1,policies: realtime,parameters: sourceFile=../AIS_Simulator/ships/215031000A.csv)</text><polygon fill="#181818" points="199,722.9922,189,722.9922,199,726.9922" style="stroke:#181818;stroke-width:1.0;"/><line style="stroke:#181818;stroke-width:1.0;stroke-dasharray:2.0,2.0;" x1="188" x2="1121" y1="721.9922" y2="721.9922"/><text fill="#000000" font-family="sans-serif" font-size="13" lengthAdjust="spacing" textLength="80" x="205" y="717.1357">bundle.deploy</text><!--SRC=[tPHBQy904CVl-oa6lLYeYRQKIi12x0Dwg8SAlPRDEj6Lc0sx6n_VlfEiqJxHQa5f866pEpF_tqncmeLL6cfXbYLIS2jLUeSpJ5I6kiOOmzHAkuJx6IrwkM4iKWiO5BjqGpWgdhqy7IO8psXKhWKQg4SHvt7CWAv8qIdNIp0yqb2VZwL5YZgaWmNxVRYrvy-EJppb8oIjE1QYq_denhxF59et9M00uUC0-WfkLMgviApqBj79ecOgGLuAHavGLwIr08H6RX4QAPzY08EnpDhdiKnexVcPLXCKrlYaCP3JFE5K-lA5p7mNp9kOCoUwLGoQJN_zOOBLkUS03kJkgrN-szdNfYULG3WQxL1tiZefwXU9SzGxW3l38x1FtMoz8z-jkJD5CoVHR6Mj13wHblxB_KY7c2Lg2GqttrMDAwA0oiCJAwUu5zYgX4xZ8B3Dp7r5Ey-ufWwng6cps52vxRPRT1qPkfopaokb- -rkAQERYGTgtwxd5OtwkcbRGm6CVz6-QbqNLGuzOMR_9wVBFys9lG40]--></g></svg>