<?xml version="1.0" encoding="us-ascii" standalone="no"?><svg xmlns="http://www.w3.org/2000/svg" xmlns:xlink="http://www.w3.org/1999/xlink" contentStyleType="text/css" height="2040px" preserveAspectRatio="none" style="width:1196px;height:2040px;background:#FFFFFF;" version="1.1" viewBox="0 0 1196 2040" width="1196px" zoomAndPan="magnify"><defs/><g><rect fill="#BBAAFF" height="2028.6641" style="stroke:#181818;stroke-width:0.5;" width="222" x="227" y="6"/><text fill="#000000" font-family="sans-serif" font-size="13" font-weight="bold" lengthAdjust="spacing" textLength="212" x="230" y="19.4951">Sentient Agent Bundle Resources</text><line style="stroke:#181818;stroke-width:0.5;stroke-dasharray:5.0,5.0;" x1="75" x2="75" y1="82.6094" y2="1954.0547"/><line style="stroke:#181818;stroke-width:0.5;stroke-dasharray:5.0,5.0;" x1="188" x2="188" y1="82.6094" y2="1954.0547"/><line style="stroke:#181818;stroke-width:0.5;stroke-dasharray:5.0,5.0;" x1="337.5" x2="337.5" y1="82.6094" y2="1954.0547"/><line style="stroke:#181818;stroke-width:0.5;stroke-dasharray:5.0,5.0;" x1="860.5" x2="860.5" y1="82.6094" y2="1954.0547"/><line style="stroke:#181818;stroke-width:0.5;stroke-dasharray:5.0,5.0;" x1="1084.5" x2="1084.5" y1="82.6094" y2="1954.0547"/><text fill="#000000" font-family="sans-serif" font-size="14" lengthAdjust="spacing" textLength="134" x="5" y="79.5332">ApplicationDeveloper</text><ellipse cx="75" cy="13.5" fill="#E2E2F0" rx="8" ry="8" style="stroke:#181818;stroke-width:0.5;"/><path d="M75,21.5 L75,48.5 M62,29.5 L88,29.5 M75,48.5 L62,63.5 M75,48.5 L88,63.5 " fill="none" style="stroke:#181818;stroke-width:0.5;"/><text fill="#000000" font-family="sans-serif" font-size="14" lengthAdjust="spacing" textLength="134" x="5" y="1967.5879">ApplicationDeveloper</text><ellipse cx="75" cy="1979.1641" fill="#E2E2F0" rx="8" ry="8" style="stroke:#181818;stroke-width:0.5;"/><path d="M75,1987.1641 L75,2014.1641 M62,1995.1641 L88,1995.1641 M75,2014.1641 L62,2029.1641 M75,2014.1641 L88,2029.1641 " fill="none" style="stroke:#181818;stroke-width:0.5;"/><text fill="#000000" font-family="sans-serif" font-size="14" lengthAdjust="spacing" textLength="60" x="155" y="79.5332">EventBus</text><ellipse cx="188" cy="49" fill="#E2E2F0" rx="12" ry="12" style="stroke:#181818;stroke-width:0.5;"/><line style="stroke:#181818;stroke-width:0.5;" x1="176" x2="200" y1="63" y2="63"/><text fill="#000000" font-family="sans-serif" font-size="14" lengthAdjust="spacing" textLength="60" x="155" y="1967.5879">EventBus</text><ellipse cx="188" cy="1986.6641" fill="#E2E2F0" rx="12" ry="12" style="stroke:#181818;stroke-width:0.5;"/><line style="stroke:#181818;stroke-width:0.5;" x1="176" x2="200" y1="2000.6641" y2="2000.6641"/><text fill="#000000" font-family="sans-serif" font-size="14" lengthAdjust="spacing" textLength="28" x="321" y="79.5332">sabr</text><path d="M317.5,37 L317.5,61 M317.5,49 L334.5,49 " fill="none" style="stroke:#181818;stroke-width:0.5;"/><ellipse cx="346.5" cy="49" fill="#FFFFFF" rx="12" ry="12" style="stroke:#181818;stroke-width:0.5;"/><text fill="#000000" font-family="sans-serif" font-size="14" lengthAdjust="spacing" textLength="28" x="321" y="1967.5879">sabr</text><path d="M317.5,1974.6641 L317.5,1998.6641 M317.5,1986.6641 L334.5,1986.6641 " fill="none" style="stroke:#181818;stroke-width:0.5;"/><ellipse cx="346.5" cy="1986.6641" fill="#FFFFFF" rx="12" ry="12" style="stroke:#181818;stroke-width:0.5;"/><rect fill="#E2E2F0" height="31.6094" rx="2.5" ry="2.5" style="stroke:#181818;stroke-width:0.5;" width="218" x="751.5" y="50"/><text fill="#000000" font-family="sans-serif" font-size="14" lengthAdjust="spacing" textLength="204" x="758.5" y="71.5332">sentient agent bundle resources</text><rect fill="#E2E2F0" height="31.6094" rx="2.5" ry="2.5" style="stroke:#181818;stroke-width:0.5;" width="218" x="751.5" y="1953.0547"/><text fill="#000000" font-family="sans-serif" font-size="14" lengthAdjust="spacing" textLength="204" x="758.5" y="1974.5879">sentient agent bundle resources</text><rect fill="#E2E2F0" height="31.6094" rx="2.5" ry="2.5" style="stroke:#181818;stroke-width:0.5;" width="211" x="979.5" y="50"/><text fill="#000000" font-family="sans-serif" font-size="14" lengthAdjust="spacing" textLength="197" x="986.5" y="71.5332">sentient agent bundle manager</text><rect fill="#E2E2F0" height="31.6094" rx="2.5" ry="2.5" style="stroke:#181818;stroke-width:0.5;" width="211" x="979.5" y="1953.0547"/><text fill="#000000" font-family="sans-serif" font-size="14" lengthAdjust="spacing" textLength="197" x="986.5" y="1974.5879">sentient agent bundle manager</text><polygon fill="#181818" points="326,110.9609,336,114.9609,326,118.9609,330,114.9609" style="stroke:#181818;stroke-width:1.0;"/><line style="stroke:#181818;stroke-width:1.0;" x1="75" x2="332" y1="114.9609" y2="114.9609"/><text fill="#000000" font-family="sans-serif" font-size="13" lengthAdjust="spacing" textLength="49" x="82" y="110.1045">AIS One</text><polygon fill="#181818" points="848.5,141.3125,858.5,145.3125,848.5,149.3125,852.5,145.3125" style="stroke:#181818;stroke-width:1.0;"/><line style="stroke:#181818;stroke-width:1.0;" x1="338" x2="854.5" y1="145.3125" y2="145.3125"/><text fill="#000000" font-family="sans-serif" font-size="13" lengthAdjust="spacing" textLength="390" x="345" y="140.4561">create (name: Ship1,file: ./projects/AISSimulator/AISShip/bundle.js)</text><polygon fill="#181818" points="199,176.6641,189,176.6641,199,180.6641" style="stroke:#181818;stroke-width:1.0;"/><line style="stroke:#181818;stroke-width:1.0;stroke-dasharray:2.0,2.0;" x1="188" x2="859.5" y1="175.6641" y2="175.6641"/><text fill="#000000" font-family="sans-serif" font-size="13" lengthAdjust="spacing" textLength="78" x="205" y="170.8076">bundle.create</text><polygon fill="#181818" points="848.5,202.0156,858.5,206.0156,848.5,210.0156,852.5,206.0156" style="stroke:#181818;stroke-width:1.0;"/><line style="stroke:#181818;stroke-width:1.0;" x1="338" x2="854.5" y1="206.0156" y2="206.0156"/><text fill="#000000" font-family="sans-serif" font-size="13" lengthAdjust="spacing" textLength="384" x="345" y="201.1592">create (name: Agg1,file: ./projects/AISSimulator/AISAgg/bundle.js)</text><polygon fill="#181818" points="199,237.3672,189,237.3672,199,241.3672" style="stroke:#181818;stroke-width:1.0;"/><line style="stroke:#181818;stroke-width:1.0;stroke-dasharray:2.0,2.0;" x1="188" x2="859.5" y1="236.3672" y2="236.3672"/><text fill="#000000" font-family="sans-serif" font-size="13" lengthAdjust="spacing" textLength="78" x="205" y="231.5107">bundle.create</text><polygon fill="#181818" points="848.5,262.7188,858.5,266.7188,848.5,270.7188,852.5,266.7188" style="stroke:#181818;stroke-width:1.0;"/><line style="stroke:#181818;stroke-width:1.0;" x1="338" x2="854.5" y1="266.7188" y2="266.7188"/><text fill="#000000" font-family="sans-serif" font-size="13" lengthAdjust="spacing" textLength="416" x="345" y="261.8623">create (name: Viewer1,file: ./projects/AISSimulator/AISViewer/bundle.js)</text><polygon fill="#181818" points="199,298.0703,189,298.0703,199,302.0703" style="stroke:#181818;stroke-width:1.0;"/><line style="stroke:#181818;stroke-width:1.0;stroke-dasharray:2.0,2.0;" x1="188" x2="859.5" y1="297.0703" y2="297.0703"/><text fill="#000000" font-family="sans-serif" font-size="13" lengthAdjust="spacing" textLength="78" x="205" y="292.2139">bundle.create</text><polygon fill="#181818" points="1073,323.4219,1083,327.4219,1073,331.4219,1077,327.4219" style="stroke:#181818;stroke-width:1.0;"/><line style="stroke:#181818;stroke-width:1.0;" x1="338" x2="1079" y1="327.4219" y2="327.4219"/><text fill="#000000" font-family="sans-serif" font-size="13" lengthAdjust="spacing" textLength="112" x="345" y="322.5654">build (name: Ship1)</text><polygon fill="#181818" points="199,358.7734,189,358.7734,199,362.7734" style="stroke:#181818;stroke-width:1.0;"/><line style="stroke:#181818;stroke-width:1.0;stroke-dasharray:2.0,2.0;" x1="188" x2="1084" y1="357.7734" y2="357.7734"/><text fill="#000000" font-family="sans-serif" font-size="13" lengthAdjust="spacing" textLength="83" x="205" y="352.917">sabundle.build</text><polygon fill="#181818" points="1073,384.125,1083,388.125,1073,392.125,1077,388.125" style="stroke:#181818;stroke-width:1.0;"/><line style="stroke:#181818;stroke-width:1.0;" x1="338" x2="1079" y1="388.125" y2="388.125"/><text fill="#000000" font-family="sans-serif" font-size="13" lengthAdjust="spacing" textLength="109" x="345" y="383.2686">build (name: Agg1)</text><polygon fill="#181818" points="199,419.4766,189,419.4766,199,423.4766" style="stroke:#181818;stroke-width:1.0;"/><line style="stroke:#181818;stroke-width:1.0;stroke-dasharray:2.0,2.0;" x1="188" x2="1084" y1="418.4766" y2="418.4766"/><text fill="#000000" font-family="sans-serif" font-size="13" lengthAdjust="spacing" textLength="83" x="205" y="413.6201">sabundle.build</text><polygon fill="#181818" points="1073,444.8281,1083,448.8281,1073,452.8281,1077,448.8281" style="stroke:#181818;stroke-width:1.0;"/><line style="stroke:#181818;stroke-width:1.0;" x1="338" x2="1079" y1="448.8281" y2="448.8281"/><text fill="#000000" font-family="sans-serif" font-size="13" lengthAdjust="spacing" textLength="125" x="345" y="443.9717">build (name: Viewer1)</text><polygon fill="#181818" points="199,480.1797,189,480.1797,199,484.1797" style="stroke:#181818;stroke-width:1.0;"/><line style="stroke:#181818;stroke-width:1.0;stroke-dasharray:2.0,2.0;" x1="188" x2="1084" y1="479.1797" y2="479.1797"/><text fill="#000000" font-family="sans-serif" font-size="13" lengthAdjust="spacing" textLength="83" x="205" y="474.3232">sabundle.build</text><polygon fill="#181818" points="1073,505.5313,1083,509.5313,1073,513.5313,1077,509.5313" style="stroke:#181818;stroke-width:1.0;"/><line style="stroke:#181818;stroke-width:1.0;" x1="338" x2="1079" y1="509.5313" y2="509.5313"/><text fill="#000000" font-family="sans-serif" font-size="13" lengthAdjust="spacing" textLength="319" x="345" y="504.6748">create (file: ./projects/AISSimulator/AISShip/policies.js)</text><polygon fill="#181818" points="199,540.8828,189,540.8828,199,544.8828" style="stroke:#181818;stroke-width:1.0;"/><line style="stroke:#181818;stroke-width:1.0;stroke-dasharray:2.0,2.0;" x1="188" x2="1084" y1="539.8828" y2="539.8828"/><text fill="#000000" font-family="sans-serif" font-size="13" lengthAdjust="spacing" textLength="74" x="205" y="535.0264">policy.create</text><polygon fill="#181818" points="1073,566.2344,1083,570.2344,1073,574.2344,1077,570.2344" style="stroke:#181818;stroke-width:1.0;"/><line style="stroke:#181818;stroke-width:1.0;" x1="338" x2="1079" y1="570.2344" y2="570.2344"/><text fill="#000000" font-family="sans-serif" font-size="13" lengthAdjust="spacing" textLength="231" x="345" y="565.3779">deploy (sabr: Viewer1,policies: realtime)</text><polygon fill="#181818" points="199,601.5859,189,601.5859,199,605.5859" style="stroke:#181818;stroke-width:1.0;"/><line style="stroke:#181818;stroke-width:1.0;stroke-dasharray:2.0,2.0;" x1="188" x2="1084" y1="600.5859" y2="600.5859"/><text fill="#000000" font-family="sans-serif" font-size="13" lengthAdjust="spacing" textLength="80" x="205" y="595.7295">bundle.deploy</text><polygon fill="#181818" points="1073,626.9375,1083,630.9375,1073,634.9375,1077,630.9375" style="stroke:#181818;stroke-width:1.0;"/><line style="stroke:#181818;stroke-width:1.0;" x1="338" x2="1079" y1="630.9375" y2="630.9375"/><text fill="#000000" font-family="sans-serif" font-size="13" lengthAdjust="spacing" textLength="215" x="345" y="626.0811">deploy (sabr: Agg1,policies: realtime)</text><polygon fill="#181818" points="199,662.2891,189,662.2891,199,666.2891" style="stroke:#181818;stroke-width:1.0;"/><line style="stroke:#181818;stroke-width:1.0;stroke-dasharray:2.0,2.0;" x1="188" x2="1084" y1="661.2891" y2="661.2891"/><text fill="#000000" font-family="sans-serif" font-size="13" lengthAdjust="spacing" textLength="80" x="205" y="656.4326">bundle.deploy</text><polygon fill="#181818" points="1073,687.6406,1083,691.6406,1073,695.6406,1077,691.6406" style="stroke:#181818;stroke-width:1.0;"/><line style="stroke:#181818;stroke-width:1.0;" x1="338" x2="1079" y1="691.6406" y2="691.6406"/><text fill="#000000" font-family="sans-serif" font-size="13" lengthAdjust="spacing" textLength="583" x="345" y="686.7842">deploy (sabr: Ship1,policies: realtime,parameters: sourceFile=../AIS_Simulator/ships/215071000.csv)</text><polygon fill="#181818" points="199,722.9922,189,722.9922,199,726.9922" style="stroke:#181818;stroke-width:1.0;"/><line style="stroke:#181818;stroke-width:1.0;stroke-dasharray:2.0,2.0;" x1="188" x2="1084" y1="721.9922" y2="721.9922"/><text fill="#000000" font-family="sans-serif" font-size="13" lengthAdjust="spacing" textLength="80" x="205" y="717.1357">bundle.deploy</text><polygon fill="#181818" points="1073,748.3438,1083,752.3438,1073,756.3438,1077,752.3438" style="stroke:#181818;stroke-width:1.0;"/><line style="stroke:#181818;stroke-width:1.0;" x1="338" x2="1079" y1="752.3438" y2="752.3438"/><text fill="#000000" font-family="sans-serif" font-size="13" lengthAdjust="spacing" textLength="583" x="345" y="747.4873">deploy (sabr: Ship1,policies: realtime,parameters: sourceFile=../AIS_Simulator/ships/215031000.csv)</text><polygon fill="#181818" points="199,783.6953,189,783.6953,199,787.6953" style="stroke:#181818;stroke-width:1.0;"/><line style="stroke:#181818;stroke-width:1.0;stroke-dasharray:2.0,2.0;" x1="188" x2="1084" y1="782.6953" y2="782.6953"/><text fill="#000000" font-family="sans-serif" font-size="13" lengthAdjust="spacing" textLength="80" x="205" y="777.8389">bundle.deploy</text><polygon fill="#181818" points="1073,809.0469,1083,813.0469,1073,817.0469,1077,813.0469" style="stroke:#181818;stroke-width:1.0;"/><line style="stroke:#181818;stroke-width:1.0;" x1="338" x2="1079" y1="813.0469" y2="813.0469"/><text fill="#000000" font-family="sans-serif" font-size="13" lengthAdjust="spacing" textLength="583" x="345" y="808.1904">deploy (sabr: Ship1,policies: realtime,parameters: sourceFile=../AIS_Simulator/ships/367092720.csv)</text><polygon fill="#181818" points="199,844.3984,189,844.3984,199,848.3984" style="stroke:#181818;stroke-width:1.0;"/><line style="stroke:#181818;stroke-width:1.0;stroke-dasharray:2.0,2.0;" x1="188" x2="1084" y1="843.3984" y2="843.3984"/><text fill="#000000" font-family="sans-serif" font-size="13" lengthAdjust="spacing" textLength="80" x="205" y="838.542">bundle.deploy</text><polygon fill="#181818" points="1073,869.75,1083,873.75,1073,877.75,1077,873.75" style="stroke:#181818;stroke-width:1.0;"/><line style="stroke:#181818;stroke-width:1.0;" x1="338" x2="1079" y1="873.75" y2="873.75"/><text fill="#000000" font-family="sans-serif" font-size="13" lengthAdjust="spacing" textLength="583" x="345" y="868.8936">deploy (sabr: Ship1,policies: realtime,parameters: sourceFile=../AIS_Simulator/ships/367182840.csv)</text><polygon fill="#181818" points="199,905.1016,189,905.1016,199,909.1016" style="stroke:#181818;stroke-width:1.0;"/><line style="stroke:#181818;stroke-width:1.0;stroke-dasharray:2.0,2.0;" x1="188" x2="1084" y1="904.1016" y2="904.1016"/><text fill="#000000" font-family="sans-serif" font-size="13" lengthAdjust="spacing" textLength="80" x="205" y="899.2451">bundle.deploy</text><polygon fill="#181818" points="1073,930.4531,1083,934.4531,1073,938.4531,1077,934.4531" style="stroke:#181818;stroke-width:1.0;"/><line style="stroke:#181818;stroke-width:1.0;" x1="338" x2="1079" y1="934.4531" y2="934.4531"/><text fill="#000000" font-family="sans-serif" font-size="13" lengthAdjust="spacing" textLength="583" x="345" y="929.5967">deploy (sabr: Ship1,policies: realtime,parameters: sourceFile=../AIS_Simulator/ships/367289000.csv)</text><polygon fill="#181818" points="199,965.8047,189,965.8047,199,969.8047" style="stroke:#181818;stroke-width:1.0;"/><line style="stroke:#181818;stroke-width:1.0;stroke-dasharray:2.0,2.0;" x1="188" x2="1084" y1="964.8047" y2="964.8047"/><text fill="#000000" font-family="sans-serif" font-size="13" lengthAdjust="spacing" textLength="80" x="205" y="959.9482">bundle.deploy</text><polygon fill="#181818" points="1073,991.1563,1083,995.1563,1073,999.1563,1077,995.1563" style="stroke:#181818;stroke-width:1.0;"/><line style="stroke:#181818;stroke-width:1.0;" x1="338" x2="1079" y1="995.1563" y2="995.1563"/><text fill="#000000" font-family="sans-serif" font-size="13" lengthAdjust="spacing" textLength="583" x="345" y="990.2998">deploy (sabr: Ship1,policies: realtime,parameters: sourceFile=../AIS_Simulator/ships/367370780.csv)</text><polygon fill="#181818" points="199,1026.5078,189,1026.5078,199,1030.5078" style="stroke:#181818;stroke-width:1.0;"/><line style="stroke:#181818;stroke-width:1.0;stroke-dasharray:2.0,2.0;" x1="188" x2="1084" y1="1025.5078" y2="1025.5078"/><text fill="#000000" font-family="sans-serif" font-size="13" lengthAdjust="spacing" textLength="80" x="205" y="1020.6514">bundle.deploy</text><polygon fill="#181818" points="1073,1051.8594,1083,1055.8594,1073,1059.8594,1077,1055.8594" style="stroke:#181818;stroke-width:1.0;"/><line style="stroke:#181818;stroke-width:1.0;" x1="338" x2="1079" y1="1055.8594" y2="1055.8594"/><text fill="#000000" font-family="sans-serif" font-size="13" lengthAdjust="spacing" textLength="583" x="345" y="1051.0029">deploy (sabr: Ship1,policies: realtime,parameters: sourceFile=../AIS_Simulator/ships/367425680.csv)</text><polygon fill="#181818" points="199,1087.2109,189,1087.2109,199,1091.2109" style="stroke:#181818;stroke-width:1.0;"/><line style="stroke:#181818;stroke-width:1.0;stroke-dasharray:2.0,2.0;" x1="188" x2="1084" y1="1086.2109" y2="1086.2109"/><text fill="#000000" font-family="sans-serif" font-size="13" lengthAdjust="spacing" textLength="80" x="205" y="1081.3545">bundle.deploy</text><polygon fill="#181818" points="1073,1112.5625,1083,1116.5625,1073,1120.5625,1077,1116.5625" style="stroke:#181818;stroke-width:1.0;"/><line style="stroke:#181818;stroke-width:1.0;" x1="338" x2="1079" y1="1116.5625" y2="1116.5625"/><text fill="#000000" font-family="sans-serif" font-size="13" lengthAdjust="spacing" textLength="583" x="345" y="1111.7061">deploy (sabr: Ship1,policies: realtime,parameters: sourceFile=../AIS_Simulator/ships/367530120.csv)</text><polygon fill="#181818" points="199,1147.9141,189,1147.9141,199,1151.9141" style="stroke:#181818;stroke-width:1.0;"/><line style="stroke:#181818;stroke-width:1.0;stroke-dasharray:2.0,2.0;" x1="188" x2="1084" y1="1146.9141" y2="1146.9141"/><text fill="#000000" font-family="sans-serif" font-size="13" lengthAdjust="spacing" textLength="80" x="205" y="1142.0576">bundle.deploy</text><polygon fill="#181818" points="1073,1173.2656,1083,1177.2656,1073,1181.2656,1077,1177.2656" style="stroke:#181818;stroke-width:1.0;"/><line style="stroke:#181818;stroke-width:1.0;" x1="338" x2="1079" y1="1177.2656" y2="1177.2656"/><text fill="#000000" font-family="sans-serif" font-size="13" lengthAdjust="spacing" textLength="583" x="345" y="1172.4092">deploy (sabr: Ship1,policies: realtime,parameters: sourceFile=../AIS_Simulator/ships/367602610.csv)</text><polygon fill="#181818" points="199,1208.6172,189,1208.6172,199,1212.6172" style="stroke:#181818;stroke-width:1.0;"/><line style="stroke:#181818;stroke-width:1.0;stroke-dasharray:2.0,2.0;" x1="188" x2="1084" y1="1207.6172" y2="1207.6172"/><text fill="#000000" font-family="sans-serif" font-size="13" lengthAdjust="spacing" textLength="80" x="205" y="1202.7607">bundle.deploy</text><polygon fill="#181818" points="1073,1233.9688,1083,1237.9688,1073,1241.9688,1077,1237.9688" style="stroke:#181818;stroke-width:1.0;"/><line style="stroke:#181818;stroke-width:1.0;" x1="338" x2="1079" y1="1237.9688" y2="1237.9688"/><text fill="#000000" font-family="sans-serif" font-size="13" lengthAdjust="spacing" textLength="583" x="345" y="1233.1123">deploy (sabr: Ship1,policies: realtime,parameters: sourceFile=../AIS_Simulator/ships/367611060.csv)</text><polygon fill="#181818" points="199,1269.3203,189,1269.3203,199,1273.3203" style="stroke:#181818;stroke-width:1.0;"/><line style="stroke:#181818;stroke-width:1.0;stroke-dasharray:2.0,2.0;" x1="188" x2="1084" y1="1268.3203" y2="1268.3203"/><text fill="#000000" font-family="sans-serif" font-size="13" lengthAdjust="spacing" textLength="80" x="205" y="1263.4639">bundle.deploy</text><polygon fill="#181818" points="1073,1294.6719,1083,1298.6719,1073,1302.6719,1077,1298.6719" style="stroke:#181818;stroke-width:1.0;"/><line style="stroke:#181818;stroke-width:1.0;" x1="338" x2="1079" y1="1298.6719" y2="1298.6719"/><text fill="#000000" font-family="sans-serif" font-size="13" lengthAdjust="spacing" textLength="583" x="345" y="1293.8154">deploy (sabr: Ship1,policies: realtime,parameters: sourceFile=../AIS_Simulator/ships/368010420.csv)</text><polygon fill="#181818" points="199,1330.0234,189,1330.0234,199,1334.0234" style="stroke:#181818;stroke-width:1.0;"/><line style="stroke:#181818;stroke-width:1.0;stroke-dasharray:2.0,2.0;" x1="188" x2="1084" y1="1329.0234" y2="1329.0234"/><text fill="#000000" font-family="sans-serif" font-size="13" lengthAdjust="spacing" textLength="80" x="205" y="1324.167">bundle.deploy</text><polygon fill="#181818" points="1073,1355.375,1083,1359.375,1073,1363.375,1077,1359.375" style="stroke:#181818;stroke-width:1.0;"/><line style="stroke:#181818;stroke-width:1.0;" x1="338" x2="1079" y1="1359.375" y2="1359.375"/><text fill="#000000" font-family="sans-serif" font-size="13" lengthAdjust="spacing" textLength="583" x="345" y="1354.5186">deploy (sabr: Ship1,policies: realtime,parameters: sourceFile=../AIS_Simulator/ships/368066140.csv)</text><polygon fill="#181818" points="199,1390.7266,189,1390.7266,199,1394.7266" style="stroke:#181818;stroke-width:1.0;"/><line style="stroke:#181818;stroke-width:1.0;stroke-dasharray:2.0,2.0;" x1="188" x2="1084" y1="1389.7266" y2="1389.7266"/><text fill="#000000" font-family="sans-serif" font-size="13" lengthAdjust="spacing" textLength="80" x="205" y="1384.8701">bundle.deploy</text><polygon fill="#181818" points="1073,1416.0781,1083,1420.0781,1073,1424.0781,1077,1420.0781" style="stroke:#181818;stroke-width:1.0;"/><line style="stroke:#181818;stroke-width:1.0;" x1="338" x2="1079" y1="1420.0781" y2="1420.0781"/><text fill="#000000" font-family="sans-serif" font-size="13" lengthAdjust="spacing" textLength="583" x="345" y="1415.2217">deploy (sabr: Ship1,policies: realtime,parameters: sourceFile=../AIS_Simulator/ships/368132890.csv)</text><polygon fill="#181818" points="199,1451.4297,189,1451.4297,199,1455.4297" style="stroke:#181818;stroke-width:1.0;"/><line style="stroke:#181818;stroke-width:1.0;stroke-dasharray:2.0,2.0;" x1="188" x2="1084" y1="1450.4297" y2="1450.4297"/><text fill="#000000" font-family="sans-serif" font-size="13" lengthAdjust="spacing" textLength="80" x="205" y="1445.5732">bundle.deploy</text><polygon fill="#181818" points="1073,1476.7813,1083,1480.7813,1073,1484.7813,1077,1480.7813" style="stroke:#181818;stroke-width:1.0;"/><line style="stroke:#181818;stroke-width:1.0;" x1="338" x2="1079" y1="1480.7813" y2="1480.7813"/><text fill="#000000" font-family="sans-serif" font-size="13" lengthAdjust="spacing" textLength="583" x="345" y="1475.9248">deploy (sabr: Ship1,policies: realtime,parameters: sourceFile=../AIS_Simulator/ships/368149330.csv)</text><polygon fill="#181818" points="199,1512.1328,189,1512.1328,199,1516.1328" style="stroke:#181818;stroke-width:1.0;"/><line style="stroke:#181818;stroke-width:1.0;stroke-dasharray:2.0,2.0;" x1="188" x2="1084" y1="1511.1328" y2="1511.1328"/><text fill="#000000" font-family="sans-serif" font-size="13" lengthAdjust="spacing" textLength="80" x="205" y="1506.2764">bundle.deploy</text><polygon fill="#181818" points="1073,1537.4844,1083,1541.4844,1073,1545.4844,1077,1541.4844" style="stroke:#181818;stroke-width:1.0;"/><line style="stroke:#181818;stroke-width:1.0;" x1="338" x2="1079" y1="1541.4844" y2="1541.4844"/><text fill="#000000" font-family="sans-serif" font-size="13" lengthAdjust="spacing" textLength="583" x="345" y="1536.6279">deploy (sabr: Ship1,policies: realtime,parameters: sourceFile=../AIS_Simulator/ships/368175820.csv)</text><polygon fill="#181818" points="199,1572.8359,189,1572.8359,199,1576.8359" style="stroke:#181818;stroke-width:1.0;"/><line style="stroke:#181818;stroke-width:1.0;stroke-dasharray:2.0,2.0;" x1="188" x2="1084" y1="1571.8359" y2="1571.8359"/><text fill="#000000" font-family="sans-serif" font-size="13" lengthAdjust="spacing" textLength="80" x="205" y="1566.9795">bundle.deploy</text><polygon fill="#181818" points="1073,1598.1875,1083,1602.1875,1073,1606.1875,1077,1602.1875" style="stroke:#181818;stroke-width:1.0;"/><line style="stroke:#181818;stroke-width:1.0;" x1="338" x2="1079" y1="1602.1875" y2="1602.1875"/><text fill="#000000" font-family="sans-serif" font-size="13" lengthAdjust="spacing" textLength="583" x="345" y="1597.3311">deploy (sabr: Ship1,policies: realtime,parameters: sourceFile=../AIS_Simulator/ships/368184020.csv)</text><polygon fill="#181818" points="199,1633.5391,189,1633.5391,199,1637.5391" style="stroke:#181818;stroke-width:1.0;"/><line style="stroke:#181818;stroke-width:1.0;stroke-dasharray:2.0,2.0;" x1="188" x2="1084" y1="1632.5391" y2="1632.5391"/><text fill="#000000" font-family="sans-serif" font-size="13" lengthAdjust="spacing" textLength="80" x="205" y="1627.6826">bundle.deploy</text><polygon fill="#181818" points="1073,1658.8906,1083,1662.8906,1073,1666.8906,1077,1662.8906" style="stroke:#181818;stroke-width:1.0;"/><line style="stroke:#181818;stroke-width:1.0;" x1="338" x2="1079" y1="1662.8906" y2="1662.8906"/><text fill="#000000" font-family="sans-serif" font-size="13" lengthAdjust="spacing" textLength="583" x="345" y="1658.0342">deploy (sabr: Ship1,policies: realtime,parameters: sourceFile=../AIS_Simulator/ships/368197440.csv)</text><polygon fill="#181818" points="199,1694.2422,189,1694.2422,199,1698.2422" style="stroke:#181818;stroke-width:1.0;"/><line style="stroke:#181818;stroke-width:1.0;stroke-dasharray:2.0,2.0;" x1="188" x2="1084" y1="1693.2422" y2="1693.2422"/><text fill="#000000" font-family="sans-serif" font-size="13" lengthAdjust="spacing" textLength="80" x="205" y="1688.3857">bundle.deploy</text><polygon fill="#181818" points="1073,1719.5938,1083,1723.5938,1073,1727.5938,1077,1723.5938" style="stroke:#181818;stroke-width:1.0;"/><line style="stroke:#181818;stroke-width:1.0;" x1="338" x2="1079" y1="1723.5938" y2="1723.5938"/><text fill="#000000" font-family="sans-serif" font-size="13" lengthAdjust="spacing" textLength="583" x="345" y="1718.7373">deploy (sabr: Ship1,policies: realtime,parameters: sourceFile=../AIS_Simulator/ships/372443000.csv)</text><polygon fill="#181818" points="199,1754.9453,189,1754.9453,199,1758.9453" style="stroke:#181818;stroke-width:1.0;"/><line style="stroke:#181818;stroke-width:1.0;stroke-dasharray:2.0,2.0;" x1="188" x2="1084" y1="1753.9453" y2="1753.9453"/><text fill="#000000" font-family="sans-serif" font-size="13" lengthAdjust="spacing" textLength="80" x="205" y="1749.0889">bundle.deploy</text><polygon fill="#181818" points="1073,1780.2969,1083,1784.2969,1073,1788.2969,1077,1784.2969" style="stroke:#181818;stroke-width:1.0;"/><line style="stroke:#181818;stroke-width:1.0;" x1="338" x2="1079" y1="1784.2969" y2="1784.2969"/><text fill="#000000" font-family="sans-serif" font-size="13" lengthAdjust="spacing" textLength="583" x="345" y="1779.4404">deploy (sabr: Ship1,policies: realtime,parameters: sourceFile=../AIS_Simulator/ships/538002220.csv)</text><polygon fill="#181818" points="199,1815.6484,189,1815.6484,199,1819.6484" style="stroke:#181818;stroke-width:1.0;"/><line style="stroke:#181818;stroke-width:1.0;stroke-dasharray:2.0,2.0;" x1="188" x2="1084" y1="1814.6484" y2="1814.6484"/><text fill="#000000" font-family="sans-serif" font-size="13" lengthAdjust="spacing" textLength="80" x="205" y="1809.792">bundle.deploy</text><polygon fill="#181818" points="1073,1841,1083,1845,1073,1849,1077,1845" style="stroke:#181818;stroke-width:1.0;"/><line style="stroke:#181818;stroke-width:1.0;" x1="338" x2="1079" y1="1845" y2="1845"/><text fill="#000000" font-family="sans-serif" font-size="13" lengthAdjust="spacing" textLength="583" x="345" y="1840.1436">deploy (sabr: Ship1,policies: realtime,parameters: sourceFile=../AIS_Simulator/ships/538002784.csv)</text><polygon fill="#181818" points="199,1876.3516,189,1876.3516,199,1880.3516" style="stroke:#181818;stroke-width:1.0;"/><line style="stroke:#181818;stroke-width:1.0;stroke-dasharray:2.0,2.0;" x1="188" x2="1084" y1="1875.3516" y2="1875.3516"/><text fill="#000000" font-family="sans-serif" font-size="13" lengthAdjust="spacing" textLength="80" x="205" y="1870.4951">bundle.deploy</text><polygon fill="#181818" points="1073,1901.7031,1083,1905.7031,1073,1909.7031,1077,1905.7031" style="stroke:#181818;stroke-width:1.0;"/><line style="stroke:#181818;stroke-width:1.0;" x1="338" x2="1079" y1="1905.7031" y2="1905.7031"/><text fill="#000000" font-family="sans-serif" font-size="13" lengthAdjust="spacing" textLength="583" x="345" y="1900.8467">deploy (sabr: Ship1,policies: realtime,parameters: sourceFile=../AIS_Simulator/ships/636019418.csv)</text><polygon fill="#181818" points="199,1937.0547,189,1937.0547,199,1941.0547" style="stroke:#181818;stroke-width:1.0;"/><line style="stroke:#181818;stroke-width:1.0;stroke-dasharray:2.0,2.0;" x1="188" x2="1084" y1="1936.0547" y2="1936.0547"/><text fill="#000000" font-family="sans-serif" font-size="13" lengthAdjust="spacing" textLength="80" x="205" y="1931.1982">bundle.deploy</text><!--SRC=[tPPTQzim58RlzIk4UzD1O-l37x9XWvHji8inQ62tGtQKLCMnZUIapR-VRCKTtTOrQyPQJi31jdJEULxhrR5brRS61_EkgtKbUzqsxzLErMsdJ80GKasl-pt-i7CdbrkBKDdUuSLmrnrulXx-BxVDibRuIjbsQofbyLbPIhbQ8Un-PUj6fTbZAqk3pswlTQzSrgKRk4D_d-u-yl70pxAHQ-LghLPL9SJ3CFHxfNZsRWGiyFpJ0dzf51h3HcOt5DYfaXmhbRwIcH230bT6oLxXyqPkL84NrxgZ5ojTk_CmwanxewhUHYxvGc-sjNJFVBnmqoAVBBonRtpH9ulXsIowNv7YC1vwW1Evv-lr4TXkrgkY_ghLhJ97WFk9By2-yPuCXbXTBn_OvCyGK-HF2AwUXnZpdS8mBFaB8npMx_zJJ3OwRgDshMiSMjadZVC8wXY_Vvvjbgghspq-zqrgCln4L3YlohhN6_KiiCCJz3LE0XlxnwkZyjtuLwoBJXfdm5wPmKZZNl_edF0s38Sr__R30TObi16Z2Sae8IIix0wE90vB4aypahECmP941HCnB4bCvD2CnpEI2LYIOfQam2Gbd51WxI4bBAN0955AKb2I1A4aPi0afIc5zLuIb0zl9bYIufnpO9AoH03RIzHzuK6Jb6SngFQGiJZce3vR4ou8OOo1avI968wabAU4vZ4L_qeI-Wu0]--></g></svg>