<?xml version="1.0" encoding="UTF-8" standalone="no"?><svg xmlns="http://www.w3.org/2000/svg" xmlns:xlink="http://www.w3.org/1999/xlink" contentScriptType="application/ecmascript" contentStyleType="text/css" height="1025px" preserveAspectRatio="none" style="width:1243px;height:1025px;" version="1.1" viewBox="0 0 1243 1025" width="1243px" zoomAndPan="magnify"><defs><filter height="300%" id="fs530dbl5inzs" width="300%" x="-1" y="-1"><feGaussianBlur result="blurOut" stdDeviation="2.0"/><feColorMatrix in="blurOut" result="blurOut2" type="matrix" values="0 0 0 0 0 0 0 0 0 0 0 0 0 0 0 0 0 0 .4 0"/><feOffset dx="4.0" dy="4.0" in="blurOut2" result="blurOut3"/><feBlend in="SourceGraphic" in2="blurOut3" mode="normal"/></filter></defs><g><rect fill="#BBAAFF" height="1010.7109" style="stroke: #A80036; stroke-width: 1.0;" width="222" x="230" y="4"/><text fill="#000000" font-family="sans-serif" font-size="13" font-weight="bold" lengthAdjust="spacingAndGlyphs" textLength="212" x="233" y="17.4951">Sentient Agent Bundle Resources</text><line style="stroke: #A80036; stroke-width: 1.0; stroke-dasharray: 5.0,5.0;" x1="78" x2="78" y1="87.6094" y2="927.1016"/><line style="stroke: #A80036; stroke-width: 1.0; stroke-dasharray: 5.0,5.0;" x1="191" x2="191" y1="87.6094" y2="927.1016"/><line style="stroke: #A80036; stroke-width: 1.0; stroke-dasharray: 5.0,5.0;" x1="340.5" x2="340.5" y1="87.6094" y2="927.1016"/><line style="stroke: #A80036; stroke-width: 1.0; stroke-dasharray: 5.0,5.0;" x1="900.5" x2="900.5" y1="87.6094" y2="927.1016"/><line style="stroke: #A80036; stroke-width: 1.0; stroke-dasharray: 5.0,5.0;" x1="1128.5" x2="1128.5" y1="87.6094" y2="927.1016"/><text fill="#000000" font-family="sans-serif" font-size="14" lengthAdjust="spacingAndGlyphs" textLength="134" x="8" y="84.5332">ApplicationDeveloper</text><ellipse cx="78" cy="13" fill="#FEFECE" filter="url(#fs530dbl5inzs)" rx="8" ry="8" style="stroke: #A80036; stroke-width: 2.0;"/><path d="M78,21 L78,48 M65,29 L91,29 M78,48 L65,63 M78,48 L91,63 " fill="none" filter="url(#fs530dbl5inzs)" style="stroke: #A80036; stroke-width: 2.0;"/><text fill="#000000" font-family="sans-serif" font-size="14" lengthAdjust="spacingAndGlyphs" textLength="134" x="8" y="940.6348">ApplicationDeveloper</text><ellipse cx="78" cy="953.7109" fill="#FEFECE" filter="url(#fs530dbl5inzs)" rx="8" ry="8" style="stroke: #A80036; stroke-width: 2.0;"/><path d="M78,961.7109 L78,988.7109 M65,969.7109 L91,969.7109 M78,988.7109 L65,1003.7109 M78,988.7109 L91,1003.7109 " fill="none" filter="url(#fs530dbl5inzs)" style="stroke: #A80036; stroke-width: 2.0;"/><text fill="#000000" font-family="sans-serif" font-size="14" lengthAdjust="spacingAndGlyphs" textLength="60" x="158" y="84.5332">EventBus</text><ellipse cx="191" cy="54" fill="#FEFECE" filter="url(#fs530dbl5inzs)" rx="12" ry="12" style="stroke: #A80036; stroke-width: 2.0;"/><line style="stroke: #A80036; stroke-width: 2.0;" x1="179" x2="203" y1="68" y2="68"/><text fill="#000000" font-family="sans-serif" font-size="14" lengthAdjust="spacingAndGlyphs" textLength="60" x="158" y="940.6348">EventBus</text><ellipse cx="191" cy="959.7109" fill="#FEFECE" filter="url(#fs530dbl5inzs)" rx="12" ry="12" style="stroke: #A80036; stroke-width: 2.0;"/><line style="stroke: #A80036; stroke-width: 2.0;" x1="179" x2="203" y1="973.7109" y2="973.7109"/><text fill="#000000" font-family="sans-serif" font-size="14" lengthAdjust="spacingAndGlyphs" textLength="28" x="324" y="84.5332">sabr</text><path d="M320.5,42 L320.5,66 M320.5,54 L337.5,54 " fill="none" filter="url(#fs530dbl5inzs)" style="stroke: #A80036; stroke-width: 2.0;"/><ellipse cx="349.5" cy="54" fill="#FFFFFF" filter="url(#fs530dbl5inzs)" rx="12" ry="12" style="stroke: #A80036; stroke-width: 2.0;"/><text fill="#000000" font-family="sans-serif" font-size="14" lengthAdjust="spacingAndGlyphs" textLength="28" x="324" y="940.6348">sabr</text><path d="M320.5,947.7109 L320.5,971.7109 M320.5,959.7109 L337.5,959.7109 " fill="none" filter="url(#fs530dbl5inzs)" style="stroke: #A80036; stroke-width: 2.0;"/><ellipse cx="349.5" cy="959.7109" fill="#FFFFFF" filter="url(#fs530dbl5inzs)" rx="12" ry="12" style="stroke: #A80036; stroke-width: 2.0;"/><rect fill="#FEFECE" filter="url(#fs530dbl5inzs)" height="31.6094" style="stroke: #A80036; stroke-width: 1.5;" width="218" x="789.5" y="51"/><text fill="#000000" font-family="sans-serif" font-size="14" lengthAdjust="spacingAndGlyphs" textLength="204" x="796.5" y="72.5332">sentient agent bundle resources</text><rect fill="#FEFECE" filter="url(#fs530dbl5inzs)" height="31.6094" style="stroke: #A80036; stroke-width: 1.5;" width="218" x="789.5" y="926.1016"/><text fill="#000000" font-family="sans-serif" font-size="14" lengthAdjust="spacingAndGlyphs" textLength="204" x="796.5" y="947.6348">sentient agent bundle resources</text><rect fill="#FEFECE" filter="url(#fs530dbl5inzs)" height="31.6094" style="stroke: #A80036; stroke-width: 1.5;" width="211" x="1021.5" y="51"/><text fill="#000000" font-family="sans-serif" font-size="14" lengthAdjust="spacingAndGlyphs" textLength="197" x="1028.5" y="72.5332">sentient agent bundle manager</text><rect fill="#FEFECE" filter="url(#fs530dbl5inzs)" height="31.6094" style="stroke: #A80036; stroke-width: 1.5;" width="211" x="1021.5" y="926.1016"/><text fill="#000000" font-family="sans-serif" font-size="14" lengthAdjust="spacingAndGlyphs" textLength="197" x="1028.5" y="947.6348">sentient agent bundle manager</text><polygon fill="#A80036" points="329,115.9609,339,119.9609,329,123.9609,333,119.9609" style="stroke: #A80036; stroke-width: 1.0;"/><line style="stroke: #A80036; stroke-width: 1.0;" x1="78" x2="335" y1="119.9609" y2="119.9609"/><text fill="#000000" font-family="sans-serif" font-size="13" lengthAdjust="spacingAndGlyphs" textLength="85" x="85" y="115.1045">Build AIS SAB</text><polygon fill="#A80036" points="888.5,146.3125,898.5,150.3125,888.5,154.3125,892.5,150.3125" style="stroke: #A80036; stroke-width: 1.0;"/><line style="stroke: #A80036; stroke-width: 1.0;" x1="341" x2="894.5" y1="150.3125" y2="150.3125"/><text fill="#000000" font-family="sans-serif" font-size="13" lengthAdjust="spacingAndGlyphs" textLength="390" x="348" y="145.4561">create (name: Ship1,file: ./projects/AISSimulator/AISShip/bundle.js)</text><polygon fill="#A80036" points="202,181.6641,192,181.6641,202,185.6641" style="stroke: #A80036; stroke-width: 1.0;"/><line style="stroke: #A80036; stroke-width: 1.0; stroke-dasharray: 2.0,2.0;" x1="191" x2="899.5" y1="180.6641" y2="180.6641"/><text fill="#000000" font-family="sans-serif" font-size="13" lengthAdjust="spacingAndGlyphs" textLength="78" x="208" y="175.8076">bundle.create</text><polygon fill="#A80036" points="888.5,207.0156,898.5,211.0156,888.5,215.0156,892.5,211.0156" style="stroke: #A80036; stroke-width: 1.0;"/><line style="stroke: #A80036; stroke-width: 1.0;" x1="341" x2="894.5" y1="211.0156" y2="211.0156"/><text fill="#000000" font-family="sans-serif" font-size="13" lengthAdjust="spacingAndGlyphs" textLength="384" x="348" y="206.1592">create (name: Agg1,file: ./projects/AISSimulator/AISAgg/bundle.js)</text><polygon fill="#A80036" points="202,242.3672,192,242.3672,202,246.3672" style="stroke: #A80036; stroke-width: 1.0;"/><line style="stroke: #A80036; stroke-width: 1.0; stroke-dasharray: 2.0,2.0;" x1="191" x2="899.5" y1="241.3672" y2="241.3672"/><text fill="#000000" font-family="sans-serif" font-size="13" lengthAdjust="spacingAndGlyphs" textLength="78" x="208" y="236.5107">bundle.create</text><polygon fill="#A80036" points="888.5,267.7188,898.5,271.7188,888.5,275.7188,892.5,271.7188" style="stroke: #A80036; stroke-width: 1.0;"/><line style="stroke: #A80036; stroke-width: 1.0;" x1="341" x2="894.5" y1="271.7188" y2="271.7188"/><text fill="#000000" font-family="sans-serif" font-size="13" lengthAdjust="spacingAndGlyphs" textLength="453" x="348" y="266.8623">create (name: NoContact,file: ./projects/AISSimulator/AISNoContact/bundle.js)</text><polygon fill="#A80036" points="202,303.0703,192,303.0703,202,307.0703" style="stroke: #A80036; stroke-width: 1.0;"/><line style="stroke: #A80036; stroke-width: 1.0; stroke-dasharray: 2.0,2.0;" x1="191" x2="899.5" y1="302.0703" y2="302.0703"/><text fill="#000000" font-family="sans-serif" font-size="13" lengthAdjust="spacingAndGlyphs" textLength="78" x="208" y="297.2139">bundle.create</text><polygon fill="#A80036" points="888.5,328.4219,898.5,332.4219,888.5,336.4219,892.5,332.4219" style="stroke: #A80036; stroke-width: 1.0;"/><line style="stroke: #A80036; stroke-width: 1.0;" x1="341" x2="894.5" y1="332.4219" y2="332.4219"/><text fill="#000000" font-family="sans-serif" font-size="13" lengthAdjust="spacingAndGlyphs" textLength="416" x="348" y="327.5654">create (name: Viewer1,file: ./projects/AISSimulator/AISViewer/bundle.js)</text><polygon fill="#A80036" points="202,363.7734,192,363.7734,202,367.7734" style="stroke: #A80036; stroke-width: 1.0;"/><line style="stroke: #A80036; stroke-width: 1.0; stroke-dasharray: 2.0,2.0;" x1="191" x2="899.5" y1="362.7734" y2="362.7734"/><text fill="#000000" font-family="sans-serif" font-size="13" lengthAdjust="spacingAndGlyphs" textLength="78" x="208" y="357.917">bundle.create</text><polygon fill="#A80036" points="1117,389.125,1127,393.125,1117,397.125,1121,393.125" style="stroke: #A80036; stroke-width: 1.0;"/><line style="stroke: #A80036; stroke-width: 1.0;" x1="341" x2="1123" y1="393.125" y2="393.125"/><text fill="#000000" font-family="sans-serif" font-size="13" lengthAdjust="spacingAndGlyphs" textLength="112" x="348" y="388.2686">build (name: Ship1)</text><polygon fill="#A80036" points="202,424.4766,192,424.4766,202,428.4766" style="stroke: #A80036; stroke-width: 1.0;"/><line style="stroke: #A80036; stroke-width: 1.0; stroke-dasharray: 2.0,2.0;" x1="191" x2="1128" y1="423.4766" y2="423.4766"/><text fill="#000000" font-family="sans-serif" font-size="13" lengthAdjust="spacingAndGlyphs" textLength="83" x="208" y="418.6201">sabundle.build</text><polygon fill="#A80036" points="1117,449.8281,1127,453.8281,1117,457.8281,1121,453.8281" style="stroke: #A80036; stroke-width: 1.0;"/><line style="stroke: #A80036; stroke-width: 1.0;" x1="341" x2="1123" y1="453.8281" y2="453.8281"/><text fill="#000000" font-family="sans-serif" font-size="13" lengthAdjust="spacingAndGlyphs" textLength="109" x="348" y="448.9717">build (name: Agg1)</text><polygon fill="#A80036" points="202,485.1797,192,485.1797,202,489.1797" style="stroke: #A80036; stroke-width: 1.0;"/><line style="stroke: #A80036; stroke-width: 1.0; stroke-dasharray: 2.0,2.0;" x1="191" x2="1128" y1="484.1797" y2="484.1797"/><text fill="#000000" font-family="sans-serif" font-size="13" lengthAdjust="spacingAndGlyphs" textLength="83" x="208" y="479.3232">sabundle.build</text><polygon fill="#A80036" points="1117,510.5313,1127,514.5313,1117,518.5313,1121,514.5313" style="stroke: #A80036; stroke-width: 1.0;"/><line style="stroke: #A80036; stroke-width: 1.0;" x1="341" x2="1123" y1="514.5313" y2="514.5313"/><text fill="#000000" font-family="sans-serif" font-size="13" lengthAdjust="spacingAndGlyphs" textLength="125" x="348" y="509.6748">build (name: Viewer1)</text><polygon fill="#A80036" points="202,545.8828,192,545.8828,202,549.8828" style="stroke: #A80036; stroke-width: 1.0;"/><line style="stroke: #A80036; stroke-width: 1.0; stroke-dasharray: 2.0,2.0;" x1="191" x2="1128" y1="544.8828" y2="544.8828"/><text fill="#000000" font-family="sans-serif" font-size="13" lengthAdjust="spacingAndGlyphs" textLength="83" x="208" y="540.0264">sabundle.build</text><polygon fill="#A80036" points="1117,571.2344,1127,575.2344,1117,579.2344,1121,575.2344" style="stroke: #A80036; stroke-width: 1.0;"/><line style="stroke: #A80036; stroke-width: 1.0;" x1="341" x2="1123" y1="575.2344" y2="575.2344"/><text fill="#000000" font-family="sans-serif" font-size="13" lengthAdjust="spacingAndGlyphs" textLength="319" x="348" y="570.3779">create (file: ./projects/AISSimulator/AISShip/policies.js)</text><polygon fill="#A80036" points="202,606.5859,192,606.5859,202,610.5859" style="stroke: #A80036; stroke-width: 1.0;"/><line style="stroke: #A80036; stroke-width: 1.0; stroke-dasharray: 2.0,2.0;" x1="191" x2="1128" y1="605.5859" y2="605.5859"/><text fill="#000000" font-family="sans-serif" font-size="13" lengthAdjust="spacingAndGlyphs" textLength="74" x="208" y="600.7295">policy.create</text><polygon fill="#A80036" points="1117,631.9375,1127,635.9375,1117,639.9375,1121,635.9375" style="stroke: #A80036; stroke-width: 1.0;"/><line style="stroke: #A80036; stroke-width: 1.0;" x1="341" x2="1123" y1="635.9375" y2="635.9375"/><text fill="#000000" font-family="sans-serif" font-size="13" lengthAdjust="spacingAndGlyphs" textLength="231" x="348" y="631.0811">deploy (sabr: Viewer1,policies: realtime)</text><polygon fill="#A80036" points="202,667.2891,192,667.2891,202,671.2891" style="stroke: #A80036; stroke-width: 1.0;"/><line style="stroke: #A80036; stroke-width: 1.0; stroke-dasharray: 2.0,2.0;" x1="191" x2="1128" y1="666.2891" y2="666.2891"/><text fill="#000000" font-family="sans-serif" font-size="13" lengthAdjust="spacingAndGlyphs" textLength="80" x="208" y="661.4326">bundle.deploy</text><polygon fill="#A80036" points="1117,692.6406,1127,696.6406,1117,700.6406,1121,696.6406" style="stroke: #A80036; stroke-width: 1.0;"/><line style="stroke: #A80036; stroke-width: 1.0;" x1="341" x2="1123" y1="696.6406" y2="696.6406"/><text fill="#000000" font-family="sans-serif" font-size="13" lengthAdjust="spacingAndGlyphs" textLength="409" x="348" y="691.7842">deploy (sabr: NoContact,policies: realtime,parameters: timeout=10000)</text><polygon fill="#A80036" points="202,727.9922,192,727.9922,202,731.9922" style="stroke: #A80036; stroke-width: 1.0;"/><line style="stroke: #A80036; stroke-width: 1.0; stroke-dasharray: 2.0,2.0;" x1="191" x2="1128" y1="726.9922" y2="726.9922"/><text fill="#000000" font-family="sans-serif" font-size="13" lengthAdjust="spacingAndGlyphs" textLength="80" x="208" y="722.1357">bundle.deploy</text><polygon fill="#A80036" points="1117,753.3438,1127,757.3438,1117,761.3438,1121,757.3438" style="stroke: #A80036; stroke-width: 1.0;"/><line style="stroke: #A80036; stroke-width: 1.0;" x1="341" x2="1123" y1="757.3438" y2="757.3438"/><text fill="#000000" font-family="sans-serif" font-size="13" lengthAdjust="spacingAndGlyphs" textLength="215" x="348" y="752.4873">deploy (sabr: Agg1,policies: realtime)</text><polygon fill="#A80036" points="202,788.6953,192,788.6953,202,792.6953" style="stroke: #A80036; stroke-width: 1.0;"/><line style="stroke: #A80036; stroke-width: 1.0; stroke-dasharray: 2.0,2.0;" x1="191" x2="1128" y1="787.6953" y2="787.6953"/><text fill="#000000" font-family="sans-serif" font-size="13" lengthAdjust="spacingAndGlyphs" textLength="80" x="208" y="782.8389">bundle.deploy</text><polygon fill="#A80036" points="1117,814.0469,1127,818.0469,1117,822.0469,1121,818.0469" style="stroke: #A80036; stroke-width: 1.0;"/><line style="stroke: #A80036; stroke-width: 1.0;" x1="341" x2="1123" y1="818.0469" y2="818.0469"/><text fill="#000000" font-family="sans-serif" font-size="13" lengthAdjust="spacingAndGlyphs" textLength="592" x="348" y="813.1904">deploy (sabr: Ship1,policies: realtime,parameters: sourceFile=../AIS_Simulator/ships/215071000A.csv)</text><polygon fill="#A80036" points="202,849.3984,192,849.3984,202,853.3984" style="stroke: #A80036; stroke-width: 1.0;"/><line style="stroke: #A80036; stroke-width: 1.0; stroke-dasharray: 2.0,2.0;" x1="191" x2="1128" y1="848.3984" y2="848.3984"/><text fill="#000000" font-family="sans-serif" font-size="13" lengthAdjust="spacingAndGlyphs" textLength="80" x="208" y="843.542">bundle.deploy</text><polygon fill="#A80036" points="1117,874.75,1127,878.75,1117,882.75,1121,878.75" style="stroke: #A80036; stroke-width: 1.0;"/><line style="stroke: #A80036; stroke-width: 1.0;" x1="341" x2="1123" y1="878.75" y2="878.75"/><text fill="#000000" font-family="sans-serif" font-size="13" lengthAdjust="spacingAndGlyphs" textLength="592" x="348" y="873.8936">deploy (sabr: Ship1,policies: realtime,parameters: sourceFile=../AIS_Simulator/ships/215031000A.csv)</text><polygon fill="#A80036" points="202,910.1016,192,910.1016,202,914.1016" style="stroke: #A80036; stroke-width: 1.0;"/><line style="stroke: #A80036; stroke-width: 1.0; stroke-dasharray: 2.0,2.0;" x1="191" x2="1128" y1="909.1016" y2="909.1016"/><text fill="#000000" font-family="sans-serif" font-size="13" lengthAdjust="spacingAndGlyphs" textLength="80" x="208" y="904.2451">bundle.deploy</text><!--
@startuml

actor "ApplicationDeveloper"


entity EventBus

box Sentient Agent Bundle Resources #bbaaff
    boundary sabr #white
end box


box Sentient Agent Bundle Resources #bbaaff
    end box

box Sentient Agent Bundle Manager #ffcc88
    end box


"ApplicationDeveloper" -> sabr: Build AIS SAB

    sabr -> "sentient agent bundle resources": create (name: Ship1,file: ./projects/AISSimulator/AISShip/bundle.js)

    "sentient agent bundle resources" - -/ EventBus: bundle.create

    sabr -> "sentient agent bundle resources": create (name: Agg1,file: ./projects/AISSimulator/AISAgg/bundle.js)

    "sentient agent bundle resources" - -/ EventBus: bundle.create

    sabr -> "sentient agent bundle resources": create (name: NoContact,file: ./projects/AISSimulator/AISNoContact/bundle.js)

    "sentient agent bundle resources" - -/ EventBus: bundle.create

    sabr -> "sentient agent bundle resources": create (name: Viewer1,file: ./projects/AISSimulator/AISViewer/bundle.js)

    "sentient agent bundle resources" - -/ EventBus: bundle.create

    sabr -> "sentient agent bundle manager": build (name: Ship1)

    "sentient agent bundle manager" - -/ EventBus: sabundle.build

    sabr -> "sentient agent bundle manager": build (name: Agg1)

    "sentient agent bundle manager" - -/ EventBus: sabundle.build

    sabr -> "sentient agent bundle manager": build (name: Viewer1)

    "sentient agent bundle manager" - -/ EventBus: sabundle.build

    sabr -> "sentient agent bundle manager": create (file: ./projects/AISSimulator/AISShip/policies.js)

    "sentient agent bundle manager" - -/ EventBus: policy.create

    sabr -> "sentient agent bundle manager": deploy (sabr: Viewer1,policies: realtime)

    "sentient agent bundle manager" - -/ EventBus: bundle.deploy

    sabr -> "sentient agent bundle manager": deploy (sabr: NoContact,policies: realtime,parameters: timeout=10000)

    "sentient agent bundle manager" - -/ EventBus: bundle.deploy

    sabr -> "sentient agent bundle manager": deploy (sabr: Agg1,policies: realtime)

    "sentient agent bundle manager" - -/ EventBus: bundle.deploy

    sabr -> "sentient agent bundle manager": deploy (sabr: Ship1,policies: realtime,parameters: sourceFile=../AIS_Simulator/ships/215071000A.csv)

    "sentient agent bundle manager" - -/ EventBus: bundle.deploy

    sabr -> "sentient agent bundle manager": deploy (sabr: Ship1,policies: realtime,parameters: sourceFile=../AIS_Simulator/ships/215031000A.csv)

    "sentient agent bundle manager" - -/ EventBus: bundle.deploy



@enduml

PlantUML version 1.2019.05(Sat Apr 20 09:45:36 PDT 2019)
(GPL source distribution)
Java Runtime: Java(TM) SE Runtime Environment
JVM: Java HotSpot(TM) 64-Bit Server VM
Java Version: 17.0.7+8-LTS-224
Operating System: Windows 11
OS Version: 10.0
Default Encoding: Cp1252
Language: en
Country: US
--></g></svg>