<?xml version="1.0" encoding="us-ascii" standalone="no"?><svg xmlns="http://www.w3.org/2000/svg" xmlns:xlink="http://www.w3.org/1999/xlink" contentStyleType="text/css" height="705px" preserveAspectRatio="none" style="width:5505px;height:705px;background:#FFFFFF;" version="1.1" viewBox="0 0 5505 705" width="5505px" zoomAndPan="magnify"><defs/><g><rect fill="#BBAAFF" height="693.1953" style="stroke:#181818;stroke-width:0.5;" width="222" x="227" y="6"/><text fill="#000000" font-family="sans-serif" font-size="13" font-weight="bold" lengthAdjust="spacing" textLength="212" x="230" y="19.4951">Sentient Agent Bundle Resources</text><line style="stroke:#181818;stroke-width:0.5;stroke-dasharray:5.0,5.0;" x1="75" x2="75" y1="82.6094" y2="618.5859"/><line style="stroke:#181818;stroke-width:0.5;stroke-dasharray:5.0,5.0;" x1="188" x2="188" y1="82.6094" y2="618.5859"/><line style="stroke:#181818;stroke-width:0.5;stroke-dasharray:5.0,5.0;" x1="337.5" x2="337.5" y1="82.6094" y2="618.5859"/><line style="stroke:#181818;stroke-width:0.5;stroke-dasharray:5.0,5.0;" x1="860.5" x2="860.5" y1="82.6094" y2="618.5859"/><line style="stroke:#181818;stroke-width:0.5;stroke-dasharray:5.0,5.0;" x1="5393" x2="5393" y1="82.6094" y2="618.5859"/><text fill="#000000" font-family="sans-serif" font-size="14" lengthAdjust="spacing" textLength="134" x="5" y="79.5332">ApplicationDeveloper</text><ellipse cx="75" cy="13.5" fill="#E2E2F0" rx="8" ry="8" style="stroke:#181818;stroke-width:0.5;"/><path d="M75,21.5 L75,48.5 M62,29.5 L88,29.5 M75,48.5 L62,63.5 M75,48.5 L88,63.5 " fill="none" style="stroke:#181818;stroke-width:0.5;"/><text fill="#000000" font-family="sans-serif" font-size="14" lengthAdjust="spacing" textLength="134" x="5" y="632.1191">ApplicationDeveloper</text><ellipse cx="75" cy="643.6953" fill="#E2E2F0" rx="8" ry="8" style="stroke:#181818;stroke-width:0.5;"/><path d="M75,651.6953 L75,678.6953 M62,659.6953 L88,659.6953 M75,678.6953 L62,693.6953 M75,678.6953 L88,693.6953 " fill="none" style="stroke:#181818;stroke-width:0.5;"/><text fill="#000000" font-family="sans-serif" font-size="14" lengthAdjust="spacing" textLength="60" x="155" y="79.5332">EventBus</text><ellipse cx="188" cy="49" fill="#E2E2F0" rx="12" ry="12" style="stroke:#181818;stroke-width:0.5;"/><line style="stroke:#181818;stroke-width:0.5;" x1="176" x2="200" y1="63" y2="63"/><text fill="#000000" font-family="sans-serif" font-size="14" lengthAdjust="spacing" textLength="60" x="155" y="632.1191">EventBus</text><ellipse cx="188" cy="651.1953" fill="#E2E2F0" rx="12" ry="12" style="stroke:#181818;stroke-width:0.5;"/><line style="stroke:#181818;stroke-width:0.5;" x1="176" x2="200" y1="665.1953" y2="665.1953"/><text fill="#000000" font-family="sans-serif" font-size="14" lengthAdjust="spacing" textLength="28" x="321" y="79.5332">sabr</text><path d="M317.5,37 L317.5,61 M317.5,49 L334.5,49 " fill="none" style="stroke:#181818;stroke-width:0.5;"/><ellipse cx="346.5" cy="49" fill="#FFFFFF" rx="12" ry="12" style="stroke:#181818;stroke-width:0.5;"/><text fill="#000000" font-family="sans-serif" font-size="14" lengthAdjust="spacing" textLength="28" x="321" y="632.1191">sabr</text><path d="M317.5,639.1953 L317.5,663.1953 M317.5,651.1953 L334.5,651.1953 " fill="none" style="stroke:#181818;stroke-width:0.5;"/><ellipse cx="346.5" cy="651.1953" fill="#FFFFFF" rx="12" ry="12" style="stroke:#181818;stroke-width:0.5;"/><rect fill="#E2E2F0" height="31.6094" rx="2.5" ry="2.5" style="stroke:#181818;stroke-width:0.5;" width="218" x="751.5" y="50"/><text fill="#000000" font-family="sans-serif" font-size="14" lengthAdjust="spacing" textLength="204" x="758.5" y="71.5332">sentient agent bundle resources</text><rect fill="#E2E2F0" height="31.6094" rx="2.5" ry="2.5" style="stroke:#181818;stroke-width:0.5;" width="218" x="751.5" y="617.5859"/><text fill="#000000" font-family="sans-serif" font-size="14" lengthAdjust="spacing" textLength="204" x="758.5" y="639.1191">sentient agent bundle resources</text><rect fill="#E2E2F0" height="31.6094" rx="2.5" ry="2.5" style="stroke:#181818;stroke-width:0.5;" width="211" x="5288" y="50"/><text fill="#000000" font-family="sans-serif" font-size="14" lengthAdjust="spacing" textLength="197" x="5295" y="71.5332">sentient agent bundle manager</text><rect fill="#E2E2F0" height="31.6094" rx="2.5" ry="2.5" style="stroke:#181818;stroke-width:0.5;" width="211" x="5288" y="617.5859"/><text fill="#000000" font-family="sans-serif" font-size="14" lengthAdjust="spacing" textLength="197" x="5295" y="639.1191">sentient agent bundle manager</text><polygon fill="#181818" points="326,110.9609,336,114.9609,326,118.9609,330,114.9609" style="stroke:#181818;stroke-width:1.0;"/><line style="stroke:#181818;stroke-width:1.0;" x1="75" x2="332" y1="114.9609" y2="114.9609"/><text fill="#000000" font-family="sans-serif" font-size="13" lengthAdjust="spacing" textLength="108" x="82" y="110.1045">USV One Instance</text><polygon fill="#181818" points="848.5,141.3125,858.5,145.3125,848.5,149.3125,852.5,145.3125" style="stroke:#181818;stroke-width:1.0;"/><line style="stroke:#181818;stroke-width:1.0;" x1="338" x2="854.5" y1="145.3125" y2="145.3125"/><text fill="#000000" font-family="sans-serif" font-size="13" lengthAdjust="spacing" textLength="390" x="345" y="140.4561">create (name: Ship1,file: ./projects/AISSimulator/AISShip/bundle.js)</text><polygon fill="#181818" points="199,176.6641,189,176.6641,199,180.6641" style="stroke:#181818;stroke-width:1.0;"/><line style="stroke:#181818;stroke-width:1.0;stroke-dasharray:2.0,2.0;" x1="188" x2="859.5" y1="175.6641" y2="175.6641"/><text fill="#000000" font-family="sans-serif" font-size="13" lengthAdjust="spacing" textLength="78" x="205" y="170.8076">bundle.create</text><polygon fill="#181818" points="848.5,202.0156,858.5,206.0156,848.5,210.0156,852.5,206.0156" style="stroke:#181818;stroke-width:1.0;"/><line style="stroke:#181818;stroke-width:1.0;" x1="338" x2="854.5" y1="206.0156" y2="206.0156"/><text fill="#000000" font-family="sans-serif" font-size="13" lengthAdjust="spacing" textLength="385" x="345" y="201.1592">create (name: USV,file: ./projects/AISSimulator/AISUSV/bundle.js)</text><polygon fill="#181818" points="199,237.3672,189,237.3672,199,241.3672" style="stroke:#181818;stroke-width:1.0;"/><line style="stroke:#181818;stroke-width:1.0;stroke-dasharray:2.0,2.0;" x1="188" x2="859.5" y1="236.3672" y2="236.3672"/><text fill="#000000" font-family="sans-serif" font-size="13" lengthAdjust="spacing" textLength="78" x="205" y="231.5107">bundle.create</text><polygon fill="#181818" points="848.5,262.7188,858.5,266.7188,848.5,270.7188,852.5,266.7188" style="stroke:#181818;stroke-width:1.0;"/><line style="stroke:#181818;stroke-width:1.0;" x1="338" x2="854.5" y1="266.7188" y2="266.7188"/><text fill="#000000" font-family="sans-serif" font-size="13" lengthAdjust="spacing" textLength="384" x="345" y="261.8623">create (name: Agg1,file: ./projects/AISSimulator/AISAgg/bundle.js)</text><polygon fill="#181818" points="199,298.0703,189,298.0703,199,302.0703" style="stroke:#181818;stroke-width:1.0;"/><line style="stroke:#181818;stroke-width:1.0;stroke-dasharray:2.0,2.0;" x1="188" x2="859.5" y1="297.0703" y2="297.0703"/><text fill="#000000" font-family="sans-serif" font-size="13" lengthAdjust="spacing" textLength="78" x="205" y="292.2139">bundle.create</text><polygon fill="#181818" points="848.5,323.4219,858.5,327.4219,848.5,331.4219,852.5,327.4219" style="stroke:#181818;stroke-width:1.0;"/><line style="stroke:#181818;stroke-width:1.0;" x1="338" x2="854.5" y1="327.4219" y2="327.4219"/><text fill="#000000" font-family="sans-serif" font-size="13" lengthAdjust="spacing" textLength="416" x="345" y="322.5654">create (name: Viewer1,file: ./projects/AISSimulator/AISViewer/bundle.js)</text><polygon fill="#181818" points="199,358.7734,189,358.7734,199,362.7734" style="stroke:#181818;stroke-width:1.0;"/><line style="stroke:#181818;stroke-width:1.0;stroke-dasharray:2.0,2.0;" x1="188" x2="859.5" y1="357.7734" y2="357.7734"/><text fill="#000000" font-family="sans-serif" font-size="13" lengthAdjust="spacing" textLength="78" x="205" y="352.917">bundle.create</text><polygon fill="#181818" points="5381.5,384.125,5391.5,388.125,5381.5,392.125,5385.5,388.125" style="stroke:#181818;stroke-width:1.0;"/><line style="stroke:#181818;stroke-width:1.0;" x1="338" x2="5387.5" y1="388.125" y2="388.125"/><text fill="#000000" font-family="sans-serif" font-size="13" lengthAdjust="spacing" textLength="319" x="345" y="383.2686">create (file: ./projects/AISSimulator/AISShip/policies.js)</text><polygon fill="#181818" points="199,419.4766,189,419.4766,199,423.4766" style="stroke:#181818;stroke-width:1.0;"/><line style="stroke:#181818;stroke-width:1.0;stroke-dasharray:2.0,2.0;" x1="188" x2="5392.5" y1="418.4766" y2="418.4766"/><text fill="#000000" font-family="sans-serif" font-size="13" lengthAdjust="spacing" textLength="74" x="205" y="413.6201">policy.create</text><polygon fill="#181818" points="5381.5,444.8281,5391.5,448.8281,5381.5,452.8281,5385.5,448.8281" style="stroke:#181818;stroke-width:1.0;"/><line style="stroke:#181818;stroke-width:1.0;" x1="338" x2="5387.5" y1="448.8281" y2="448.8281"/><text fill="#000000" font-family="sans-serif" font-size="13" lengthAdjust="spacing" textLength="231" x="345" y="443.9717">deploy (sabr: Viewer1,policies: realtime)</text><polygon fill="#181818" points="199,480.1797,189,480.1797,199,484.1797" style="stroke:#181818;stroke-width:1.0;"/><line style="stroke:#181818;stroke-width:1.0;stroke-dasharray:2.0,2.0;" x1="188" x2="5392.5" y1="479.1797" y2="479.1797"/><text fill="#000000" font-family="sans-serif" font-size="13" lengthAdjust="spacing" textLength="80" x="205" y="474.3232">bundle.deploy</text><polygon fill="#181818" points="5381.5,505.5313,5391.5,509.5313,5381.5,513.5313,5385.5,509.5313" style="stroke:#181818;stroke-width:1.0;"/><line style="stroke:#181818;stroke-width:1.0;" x1="338" x2="5387.5" y1="509.5313" y2="509.5313"/><text fill="#000000" font-family="sans-serif" font-size="13" lengthAdjust="spacing" textLength="215" x="345" y="504.6748">deploy (sabr: Agg1,policies: realtime)</text><polygon fill="#181818" points="199,540.8828,189,540.8828,199,544.8828" style="stroke:#181818;stroke-width:1.0;"/><line style="stroke:#181818;stroke-width:1.0;stroke-dasharray:2.0,2.0;" x1="188" x2="5392.5" y1="539.8828" y2="539.8828"/><text fill="#000000" font-family="sans-serif" font-size="13" lengthAdjust="spacing" textLength="80" x="205" y="535.0264">bundle.deploy</text><polygon fill="#181818" points="5381.5,566.2344,5391.5,570.2344,5381.5,574.2344,5385.5,570.2344" style="stroke:#181818;stroke-width:1.0;"/><line style="stroke:#181818;stroke-width:1.0;" x1="338" x2="5387.5" y1="570.2344" y2="570.2344"/><text fill="#000000" font-family="sans-serif" font-size="13" lengthAdjust="spacing" textLength="4949" x="345" y="565.3779">deploy (sabr: USV,policies: realtime,parameters: MMSI=215071000,sourceFiles=../AIS_Simulator/ships/215071000.csv:../AIS_Simulator/ships/367092720.csv:../AIS_Simulator/ships/367182840.csv:../AIS_Simulator/ships/367289000.csv:../AIS_Simulator/ships/367370780.csv:../AIS_Simulator/ships/367425680.csv:../AIS_Simulator/ships/367530120.csv:../AIS_Simulator/ships/367602610.csv:../AIS_Simulator/ships/367611060.csv:../AIS_Simulator/ships/368010420.csv:../AIS_Simulator/ships/368066140.csv:../AIS_Simulator/ships/368132890.csv:../AIS_Simulator/ships/368149330.csv:../AIS_Simulator/ships/368175820.csv:../AIS_Simulator/ships/368184020.csv:../AIS_Simulator/ships/368197440.csv:../AIS_Simulator/ships/372443000.csv:../AIS_Simulator/ships/538002220.csv:../AIS_Simulator/ships/538002784.csv:../AIS_Simulator/ships/636019418.csv)</text><polygon fill="#181818" points="199,601.5859,189,601.5859,199,605.5859" style="stroke:#181818;stroke-width:1.0;"/><line style="stroke:#181818;stroke-width:1.0;stroke-dasharray:2.0,2.0;" x1="188" x2="5392.5" y1="600.5859" y2="600.5859"/><text fill="#000000" font-family="sans-serif" font-size="13" lengthAdjust="spacing" textLength="80" x="205" y="595.7295">bundle.deploy</text><!--SRC=[pPFVRvim483V-IkizAMJ4h3DBuFKIQcsINc89WsjhvCXH-gA0B99slptEw39rcwTitRI4ea8y7U-Z_ETBBf6aycyRIjLo4urzGVOGTMqe2UEuq3TgMvFFkxmvdfh72Tl7aZMlyMBpDVz__MsNbL0le1fjhe0GoxoNCgoT0Z-yWPNfTuJ8tDDBkvlLGUuwmeN7fo_t-uO-NBWKjPo3PYhB8j2YATXpk-_bCpU3u8f-PhTaCyra4LjEbaNu0pnWpmo4tD8AOUK-PXI7rmdAIaqo0x8PIqta9BiLhLiMgeAxrslrSqT59tnveiiKvjj9R7ummDYthYPUsVUZKcjoSXivXsF9drSTqU1DtfZ6UpM29sLz7ozFg7MI9sLzOs2Uz0dY8_WVt3VZ1Fra_bf3TqsE6aAZDNraE2PwH2_Vvtf2jggsPFBSQeFDJuOfLWUMNLg0wyIUopXcEDDOaFBdfrLF_s_IarRgR5ZEz3uShdC5bUSXJHcbDBfs6kVi2tCbUls7V3jHpyOR0RZ7M6tCBlq1SYFOfhmcDiW9hW8R10NYJsT7zDOsA20Xv4L2dtAhE8HvH6pGepHo089ocZ0hL0KCLkT1FFxIjcW8F5zAnI7mkh4yEJiK1875l6O1u5lEU3G5vHopa-0OX7y2OhyYB8aOAA7_iLyEjy1]--></g></svg>