<?xml version="1.0" encoding="us-ascii" standalone="no"?><svg xmlns="http://www.w3.org/2000/svg" xmlns:xlink="http://www.w3.org/1999/xlink" contentStyleType="text/css" height="415px" preserveAspectRatio="none" style="width:1143px;height:415px;background:#FFFFFF;" version="1.1" viewBox="0 0 1143 415" width="1143px" zoomAndPan="magnify"><defs/><g><!--entity Service--><g id="elem_Service"><rect fill="#90EE90" height="37.6094" rx="2.5" ry="2.5" style="stroke:#181818;stroke-width:0.5;" width="67" x="7" y="7"/><text fill="#000000" font-family="sans-serif" font-size="14" lengthAdjust="spacing" textLength="47" x="17" y="31.5332">Service</text></g><!--entity StackInstance--><g id="elem_StackInstance"><rect fill="#90EE90" height="37.6094" rx="2.5" ry="2.5" style="stroke:#181818;stroke-width:0.5;" width="108" x="424.5" y="372"/><text fill="#000000" font-family="sans-serif" font-size="14" lengthAdjust="spacing" textLength="88" x="434.5" y="396.5332">StackInstance</text></g><!--entity DataChannelInstance--><g id="elem_DataChannelInstance"><rect fill="#90EE90" height="37.6094" rx="2.5" ry="2.5" style="stroke:#181818;stroke-width:0.5;" width="156" x="109.5" y="7"/><text fill="#000000" font-family="sans-serif" font-size="14" lengthAdjust="spacing" textLength="136" x="119.5" y="31.5332">DataChannelInstance</text></g><!--entity InputChannelInstance--><g id="elem_InputChannelInstance"><rect fill="#90EE90" height="37.6094" rx="2.5" ry="2.5" style="stroke:#181818;stroke-width:0.5;" width="157" x="301" y="7"/><text fill="#000000" font-family="sans-serif" font-size="14" lengthAdjust="spacing" textLength="137" x="311" y="31.5332">InputChannelInstance</text></g><!--entity OutputChannelInstance--><g id="elem_OutputChannelInstance"><rect fill="#90EE90" height="37.6094" rx="2.5" ry="2.5" style="stroke:#181818;stroke-width:0.5;" width="169" x="493" y="7"/><text fill="#000000" font-family="sans-serif" font-size="14" lengthAdjust="spacing" textLength="149" x="503" y="31.5332">OutputChannelInstance</text></g><!--entity DockerProvisioner--><g id="elem_DockerProvisioner"><rect fill="#90EE90" height="37.6094" rx="2.5" ry="2.5" style="stroke:#181818;stroke-width:0.5;" width="136" x="697.5" y="7"/><text fill="#000000" font-family="sans-serif" font-size="14" lengthAdjust="spacing" textLength="116" x="707.5" y="31.5332">DockerProvisioner</text></g><!--entity ProcessProvisioner--><g id="elem_ProcessProvisioner"><rect fill="#90EE90" height="37.6094" rx="2.5" ry="2.5" style="stroke:#181818;stroke-width:0.5;" width="142" x="868.5" y="7"/><text fill="#000000" font-family="sans-serif" font-size="14" lengthAdjust="spacing" textLength="122" x="878.5" y="31.5332">ProcessProvisioner</text></g><!--entity Provisioner--><g id="elem_Provisioner"><rect fill="#90EE90" height="37.6094" rx="2.5" ry="2.5" style="stroke:#181818;stroke-width:0.5;" width="91" x="1046" y="7"/><text fill="#000000" font-family="sans-serif" font-size="14" lengthAdjust="spacing" textLength="71" x="1056" y="31.5332">Provisioner</text></g><!--class Model--><g id="elem_Model"><rect codeLine="2" fill="#F1F1F1" height="171.2656" id="Model" rx="2.5" ry="2.5" style="stroke:#181818;stroke-width:0.5;" width="132" x="412.5" y="123"/><ellipse cx="427.5" cy="139" fill="#ADD1B2" rx="11" ry="11" style="stroke:#181818;stroke-width:1.0;"/><path d="M430.2656,134.875 Q430.4219,134.6563 430.6094,134.5469 Q430.7969,134.4375 431.0156,134.4375 Q431.3906,134.4375 431.625,134.6953 Q431.8594,134.9531 431.8594,135.5625 L431.8594,137.0156 Q431.8594,137.625 431.625,137.8906 Q431.3906,138.1563 431.0156,138.1563 Q430.6719,138.1563 430.4688,137.9531 Q430.2656,137.7656 430.1563,137.25 Q430.1094,136.8906 429.9219,136.7031 Q429.5938,136.3281 428.9844,136.1094 Q428.375,135.8906 427.75,135.8906 Q426.9844,135.8906 426.3516,136.2188 Q425.7188,136.5469 425.2266,137.2969 Q424.7344,138.0469 424.7344,139.0781 L424.7344,140.1719 Q424.7344,141.4063 425.625,142.2266 Q426.5156,143.0469 428.1094,143.0469 Q429.0469,143.0469 429.7031,142.7969 Q430.0938,142.6406 430.5156,142.2031 Q430.7813,141.9375 430.9297,141.8594 Q431.0781,141.7813 431.2813,141.7813 Q431.6094,141.7813 431.8672,142.0391 Q432.125,142.2969 432.125,142.6406 Q432.125,142.9844 431.7813,143.3906 Q431.2813,143.9688 430.4844,144.2969 Q429.4063,144.75 428.1094,144.75 Q426.5938,144.75 425.3906,144.125 Q424.4063,143.625 423.7188,142.5547 Q423.0313,141.4844 423.0313,140.2031 L423.0313,139.0469 Q423.0313,137.7188 423.6484,136.5703 Q424.2656,135.4219 425.3594,134.8047 Q426.4531,134.1875 427.6875,134.1875 Q428.4219,134.1875 429.0703,134.3516 Q429.7188,134.5156 430.2656,134.875 Z " fill="#000000"/><text fill="#000000" font-family="sans-serif" font-size="14" lengthAdjust="spacing" textLength="100" x="441.5" y="144.7285">ServiceInstance</text><line style="stroke:#181818;stroke-width:0.5;" x1="413.5" x2="543.5" y1="155" y2="155"/><text fill="#000000" font-family="sans-serif" font-size="14" lengthAdjust="spacing" textLength="74" x="418.5" y="173.5332">string name</text><text fill="#000000" font-family="sans-serif" font-size="14" lengthAdjust="spacing" textLength="58" x="418.5" y="191.1426">string pid</text><text fill="#000000" font-family="sans-serif" font-size="14" lengthAdjust="spacing" textLength="55" x="418.5" y="208.752">string url</text><text fill="#000000" font-family="sans-serif" font-size="14" lengthAdjust="spacing" textLength="78" x="418.5" y="226.3613">string stdout</text><text fill="#000000" font-family="sans-serif" font-size="14" lengthAdjust="spacing" textLength="76" x="418.5" y="243.9707">string stderr</text><line style="stroke:#181818;stroke-width:0.5;" x1="413.5" x2="543.5" y1="251.0469" y2="251.0469"/><text fill="#000000" font-family="sans-serif" font-size="14" lengthAdjust="spacing" textLength="68" x="418.5" y="269.5801">launched()</text><text fill="#000000" font-family="sans-serif" font-size="14" lengthAdjust="spacing" textLength="67" x="418.5" y="287.1895">provision()</text></g><!--link Model to Service--><g id="link_Model_Service"><path codeLine="17" d="M401.1149,175.6084 C306.2449,136.5184 151.9075,72.906 79.6875,43.146 " fill="none" id="Model-Service" style="stroke:#181818;stroke-width:1.0;"/><polygon fill="none" points="412.21,180.18,408.1863,174.1959,401.1149,175.6084,405.1386,181.5926,412.21,180.18" style="stroke:#181818;stroke-width:1.0;"/><polygon fill="#181818" points="74.14,40.86,80.9372,47.9873,78.7629,42.765,83.9852,40.5906,74.14,40.86" style="stroke:#181818;stroke-width:1.0;"/><text fill="#000000" font-family="sans-serif" font-size="13" lengthAdjust="spacing" textLength="36" x="196.5" y="89.4951">parent</text><text fill="#000000" font-family="sans-serif" font-size="13" lengthAdjust="spacing" textLength="7" x="81.8001" y="39.8465">1</text></g><!--link Service to Model--><g id="link_Service_Model"><path codeLine="31" d="M56.8016,55.5029 C65.9016,70.4129 74.39,80.72 92.5,93 C191.57,160.19 324.8894,187.8779 406.2294,199.4079 " fill="none" id="Service-Model" style="stroke:#181818;stroke-width:1.0;"/><polygon fill="#181818" points="50.55,45.26,50.2615,52.4653,56.8016,55.5029,57.0901,48.2976,50.55,45.26" style="stroke:#181818;stroke-width:1.0;"/><polygon fill="#181818" points="412.17,200.25,403.8205,195.0265,407.2195,199.5483,402.6977,202.9473,412.17,200.25" style="stroke:#181818;stroke-width:1.0;"/><text fill="#000000" font-family="sans-serif" font-size="13" lengthAdjust="spacing" textLength="56" x="93.5" y="89.4951">instances</text><text fill="#000000" font-family="sans-serif" font-size="13" lengthAdjust="spacing" textLength="7" x="397.5323" y="195.9725">n</text></g><!--link Model to StackInstance--><g id="link_Model_StackInstance"><path codeLine="23" d="M434.0363,305.8106 C430.7163,321.8406 432.94,326.64 438.5,342 C442.56,353.22 446.4146,359.2844 454.1646,367.5444 " fill="none" id="Model-StackInstance" style="stroke:#181818;stroke-width:1.0;"/><polygon fill="none" points="436.47,294.06,431.3363,299.1241,434.0363,305.8106,439.17,300.7465,436.47,294.06" style="stroke:#181818;stroke-width:1.0;"/><polygon fill="#181818" points="458.27,371.92,455.0289,362.6197,454.8488,368.2737,449.1948,368.0936,458.27,371.92" style="stroke:#181818;stroke-width:1.0;"/><text fill="#000000" font-family="sans-serif" font-size="13" lengthAdjust="spacing" textLength="32" x="439.5" y="338.4951">stack</text><text fill="#000000" font-family="sans-serif" font-size="13" lengthAdjust="spacing" textLength="7" x="444.0027" y="361.2355">1</text></g><!--link StackInstance to Model--><g id="link_StackInstance_Model"><path codeLine="36" d="M478.5,359.71 C478.5,341.23 478.5,329.33 478.5,300.2 " fill="none" id="StackInstance-Model" style="stroke:#181818;stroke-width:1.0;"/><polygon fill="#181818" points="478.5,371.71,482.5,365.71,478.5,359.71,474.5,365.71,478.5,371.71" style="stroke:#181818;stroke-width:1.0;"/><polygon fill="#181818" points="478.5,294.2,474.5,303.2,478.5,299.2,482.5,303.2,478.5,294.2" style="stroke:#181818;stroke-width:1.0;"/><text fill="#000000" font-family="sans-serif" font-size="13" lengthAdjust="spacing" textLength="47" x="479.5" y="338.4951">services</text><text fill="#000000" font-family="sans-serif" font-size="13" lengthAdjust="spacing" textLength="7" x="471.1992" y="315.7512">n</text></g><!--link DataChannelInstance to Model--><g id="link_DataChannelInstance_Model"><path codeLine="41" d="M226.9146,51.5762 C248.1946,64.8362 267.53,76.88 293.5,93 C332.81,117.4 371.757,141.5141 407.007,163.3141 " fill="none" id="DataChannelInstance-Model" style="stroke:#181818;stroke-width:1.0;"/><polygon fill="none" points="216.73,45.23,219.7069,51.798,226.9146,51.5762,223.9377,45.0082,216.73,45.23" style="stroke:#181818;stroke-width:1.0;"/><polygon fill="#181818" points="412.11,166.47,406.5595,158.3342,407.8575,163.8401,402.3516,165.1382,412.11,166.47" style="stroke:#181818;stroke-width:1.0;"/><text fill="#000000" font-family="sans-serif" font-size="13" lengthAdjust="spacing" textLength="103" x="294.5" y="89.4951">transformInstance</text><text fill="#000000" font-family="sans-serif" font-size="13" lengthAdjust="spacing" textLength="7" x="397.4658" y="158.4978">n</text></g><!--link InputChannelInstance to Model--><g id="link_InputChannelInstance_Model"><path codeLine="46" d="M395.3086,55.8225 C405.4286,74.2825 413.1547,88.3693 429.1147,117.4693 " fill="none" id="InputChannelInstance-Model" style="stroke:#181818;stroke-width:1.0;"/><polygon fill="none" points="389.54,45.3,388.9168,52.4841,395.3086,55.8225,395.9318,48.6384,389.54,45.3" style="stroke:#181818;stroke-width:1.0;"/><polygon fill="#181818" points="432,122.73,431.1793,112.9154,429.5956,118.3461,424.165,116.7624,432,122.73" style="stroke:#181818;stroke-width:1.0;"/><text fill="#000000" font-family="sans-serif" font-size="13" lengthAdjust="spacing" textLength="103" x="415.5" y="89.4951">transformInstance</text><text fill="#000000" font-family="sans-serif" font-size="13" lengthAdjust="spacing" textLength="7" x="420.7031" y="112.1705">n</text></g><!--link OutputChannelInstance to Model--><g id="link_OutputChannelInstance_Model"><path codeLine="51" d="M561.6914,55.8225 C551.5714,74.2825 543.8453,88.3693 527.8853,117.4693 " fill="none" id="OutputChannelInstance-Model" style="stroke:#181818;stroke-width:1.0;"/><polygon fill="none" points="567.46,45.3,561.0682,48.6384,561.6914,55.8225,568.0832,52.4841,567.46,45.3" style="stroke:#181818;stroke-width:1.0;"/><polygon fill="#181818" points="525,122.73,532.835,116.7624,527.4044,118.3461,525.8207,112.9154,525,122.73" style="stroke:#181818;stroke-width:1.0;"/><text fill="#000000" font-family="sans-serif" font-size="13" lengthAdjust="spacing" textLength="103" x="552.5" y="89.4951">transformInstance</text><text fill="#000000" font-family="sans-serif" font-size="13" lengthAdjust="spacing" textLength="7" x="521.6953" y="112.1705">n</text></g><!--link DockerProvisioner to Model--><g id="link_DockerProvisioner_Model"><path codeLine="56" d="M728.1773,51.7441 C707.9373,65.1141 689.62,77.07 664.5,93 C624.95,118.09 585.4011,142.4936 549.7411,164.2636 " fill="none" id="DockerProvisioner-Model" style="stroke:#181818;stroke-width:1.0;"/><polygon fill="none" points="738.19,45.13,730.979,45.0995,728.1773,51.7441,735.3884,51.7746,738.19,45.13" style="stroke:#181818;stroke-width:1.0;"/><polygon fill="#181818" points="544.62,167.39,554.3859,166.1145,548.8876,164.7847,550.2174,159.2864,544.62,167.39" style="stroke:#181818;stroke-width:1.0;"/><text fill="#000000" font-family="sans-serif" font-size="13" lengthAdjust="spacing" textLength="47" x="693.5" y="89.4951">services</text><text fill="#000000" font-family="sans-serif" font-size="13" lengthAdjust="spacing" textLength="7" x="552.6698" y="159.2117">n</text></g><!--link ProcessProvisioner to Model--><g id="link_ProcessProvisioner_Model"><path codeLine="61" d="M882.0162,49.5057 C799.8162,81.6957 644.9569,142.3221 550.2969,179.3921 " fill="none" id="ProcessProvisioner-Model" style="stroke:#181818;stroke-width:1.0;"/><polygon fill="none" points="893.19,45.13,886.1445,43.5933,882.0162,49.5057,889.0617,51.0424,893.19,45.13" style="stroke:#181818;stroke-width:1.0;"/><polygon fill="#181818" points="544.71,181.58,554.5489,182.0228,549.3657,179.7568,551.6317,174.5736,544.71,181.58" style="stroke:#181818;stroke-width:1.0;"/><text fill="#000000" font-family="sans-serif" font-size="13" lengthAdjust="spacing" textLength="47" x="817.5" y="89.4951">services</text><text fill="#000000" font-family="sans-serif" font-size="13" lengthAdjust="spacing" textLength="7" x="552.3345" y="193.0104">n</text></g><!--link Provisioner to Model--><g id="link_Provisioner_Model"><path codeLine="66" d="M1034.1436,44.5662 C990.0536,58.0362 933.03,75.36 873.5,93 C757.98,127.23 628.8876,164.4261 550.3876,186.9361 " fill="none" id="Provisioner-Model" style="stroke:#181818;stroke-width:1.0;"/><polygon fill="none" points="1045.62,41.06,1038.7131,38.9876,1034.1436,44.5662,1041.0505,46.6385,1045.62,41.06" style="stroke:#181818;stroke-width:1.0;"/><polygon fill="#181818" points="544.62,188.59,554.3739,189.9543,549.4263,187.2118,552.1688,182.2642,544.62,188.59" style="stroke:#181818;stroke-width:1.0;"/><text fill="#000000" font-family="sans-serif" font-size="13" lengthAdjust="spacing" textLength="47" x="933.5" y="89.4951">services</text><text fill="#000000" font-family="sans-serif" font-size="13" lengthAdjust="spacing" textLength="7" x="552.6698" y="182.863">n</text></g><!--SRC=[fPCxRiCm38PtdO9GbxP0XguUkZHBXY85UW9LPcqX2cLGSfOYTw_yY1idIXmt70IIuYz-4crjbVSWFv5tHkEAV52aKOBoyEvojF0Zm0SsL02fBGv1PVB1hzaElW-vgyDnYCn2W5KrwHBpnoS15RkTySPH4uYz48mwjYqi3Y0jGE_3WpL56RviZP4cbdTWRh5u1VaYXx8CAiL8GOmF34flHlSQPIOF7nLdyK8n5er1j9l02qQavXsZxTkrNHex508yjmr9zg-UWJHzKo__DBFlTQttg3n5u3kw2m1B5THRgOZGZZ0I-McOb0ZwAHmZ1LRalnrlXvP9jXLLTKZ1fJQcwPAgE_3MTRZ0bzoP1apBxY1SEhr1_ZZygCZTQ4-pDmpsJ9AYklwbHNNSywSqv-bfd8JcNpod8BC8vhJ-1G00]--></g></svg>