<?xml version="1.0" encoding="UTF-8" standalone="no"?><svg xmlns="http://www.w3.org/2000/svg" xmlns:xlink="http://www.w3.org/1999/xlink" contentScriptType="application/ecmascript" contentStyleType="text/css" height="395px" preserveAspectRatio="none" style="width:1147px;height:395px;" version="1.1" viewBox="0 0 1147 395" width="1147px" zoomAndPan="magnify"><defs><filter height="300%" id="f1lox5pumbzomy" width="300%" x="-1" y="-1"><feGaussianBlur result="blurOut" stdDeviation="2.0"/><feColorMatrix in="blurOut" result="blurOut2" type="matrix" values="0 0 0 0 0 0 0 0 0 0 0 0 0 0 0 0 0 0 .4 0"/><feOffset dx="4.0" dy="4.0" in="blurOut2" result="blurOut3"/><feBlend in="SourceGraphic" in2="blurOut3" mode="normal"/></filter></defs><g><!--entity Service--><rect fill="#90EE90" filter="url(#f1lox5pumbzomy)" height="37.6094" style="stroke: #000000; stroke-width: 1.5;" width="67" x="6" y="8"/><text fill="#000000" font-family="sans-serif" font-size="14" lengthAdjust="spacingAndGlyphs" textLength="47" x="16" y="32.5332">Service</text><!--entity StackInstance--><rect fill="#90EE90" filter="url(#f1lox5pumbzomy)" height="37.6094" style="stroke: #000000; stroke-width: 1.5;" width="108" x="423.5" y="347"/><text fill="#000000" font-family="sans-serif" font-size="14" lengthAdjust="spacingAndGlyphs" textLength="88" x="433.5" y="371.5332">StackInstance</text><!--entity DataChannelInstance--><rect fill="#90EE90" filter="url(#f1lox5pumbzomy)" height="37.6094" style="stroke: #000000; stroke-width: 1.5;" width="156" x="108.5" y="8"/><text fill="#000000" font-family="sans-serif" font-size="14" lengthAdjust="spacingAndGlyphs" textLength="136" x="118.5" y="32.5332">DataChannelInstance</text><!--entity InputChannelInstance--><rect fill="#90EE90" filter="url(#f1lox5pumbzomy)" height="37.6094" style="stroke: #000000; stroke-width: 1.5;" width="157" x="300" y="8"/><text fill="#000000" font-family="sans-serif" font-size="14" lengthAdjust="spacingAndGlyphs" textLength="137" x="310" y="32.5332">InputChannelInstance</text><!--entity OutputChannelInstance--><rect fill="#90EE90" filter="url(#f1lox5pumbzomy)" height="37.6094" style="stroke: #000000; stroke-width: 1.5;" width="169" x="492" y="8"/><text fill="#000000" font-family="sans-serif" font-size="14" lengthAdjust="spacingAndGlyphs" textLength="149" x="502" y="32.5332">OutputChannelInstance</text><!--entity DockerProvisioner--><rect fill="#90EE90" filter="url(#f1lox5pumbzomy)" height="37.6094" style="stroke: #000000; stroke-width: 1.5;" width="136" x="696.5" y="8"/><text fill="#000000" font-family="sans-serif" font-size="14" lengthAdjust="spacingAndGlyphs" textLength="116" x="706.5" y="32.5332">DockerProvisioner</text><!--entity ProcessProvisioner--><rect fill="#90EE90" filter="url(#f1lox5pumbzomy)" height="37.6094" style="stroke: #000000; stroke-width: 1.5;" width="142" x="867.5" y="8"/><text fill="#000000" font-family="sans-serif" font-size="14" lengthAdjust="spacingAndGlyphs" textLength="122" x="877.5" y="32.5332">ProcessProvisioner</text><!--entity Provisioner--><rect fill="#90EE90" filter="url(#f1lox5pumbzomy)" height="37.6094" style="stroke: #000000; stroke-width: 1.5;" width="91" x="1045" y="8"/><text fill="#000000" font-family="sans-serif" font-size="14" lengthAdjust="spacingAndGlyphs" textLength="71" x="1055" y="32.5332">Provisioner</text><!--class Model--><rect fill="#FEFECE" filter="url(#f1lox5pumbzomy)" height="144.8516" id="Model" style="stroke: #A80036; stroke-width: 1.5;" width="119" x="418" y="124"/><ellipse cx="433" cy="140" fill="#ADD1B2" rx="11" ry="11" style="stroke: #A80036; stroke-width: 1.0;"/><path d="M435.7656,135.875 Q435.9219,135.6563 436.1094,135.5469 Q436.2969,135.4375 436.5156,135.4375 Q436.8906,135.4375 437.125,135.6953 Q437.3594,135.9531 437.3594,136.5625 L437.3594,138.0156 Q437.3594,138.625 437.125,138.8906 Q436.8906,139.1563 436.5156,139.1563 Q436.1719,139.1563 435.9688,138.9531 Q435.7656,138.7656 435.6563,138.25 Q435.6094,137.8906 435.4219,137.7031 Q435.0938,137.3281 434.4844,137.1094 Q433.875,136.8906 433.25,136.8906 Q432.4844,136.8906 431.8516,137.2188 Q431.2188,137.5469 430.7266,138.2969 Q430.2344,139.0469 430.2344,140.0781 L430.2344,141.1719 Q430.2344,142.4063 431.125,143.2266 Q432.0156,144.0469 433.6094,144.0469 Q434.5469,144.0469 435.2031,143.7969 Q435.5938,143.6406 436.0156,143.2031 Q436.2813,142.9375 436.4297,142.8594 Q436.5781,142.7813 436.7813,142.7813 Q437.1094,142.7813 437.3672,143.0391 Q437.625,143.2969 437.625,143.6406 Q437.625,143.9844 437.2813,144.3906 Q436.7813,144.9688 435.9844,145.2969 Q434.9063,145.75 433.6094,145.75 Q432.0938,145.75 430.8906,145.125 Q429.9063,144.625 429.2188,143.5547 Q428.5313,142.4844 428.5313,141.2031 L428.5313,140.0469 Q428.5313,138.7188 429.1484,137.5703 Q429.7656,136.4219 430.8594,135.8047 Q431.9531,135.1875 433.1875,135.1875 Q433.9219,135.1875 434.5703,135.3516 Q435.2188,135.5156 435.7656,135.875 Z "/><text fill="#000000" font-family="sans-serif" font-size="12" lengthAdjust="spacingAndGlyphs" textLength="87" x="447" y="144.9102">ServiceInstance</text><line style="stroke: #A80036; stroke-width: 1.5;" x1="419" x2="536" y1="156" y2="156"/><text fill="#000000" font-family="sans-serif" font-size="11" lengthAdjust="spacingAndGlyphs" textLength="56" x="424" y="171.4189">string name</text><text fill="#000000" font-family="sans-serif" font-size="11" lengthAdjust="spacingAndGlyphs" textLength="44" x="424" y="185.2549">string pid</text><text fill="#000000" font-family="sans-serif" font-size="11" lengthAdjust="spacingAndGlyphs" textLength="42" x="424" y="199.0908">string url</text><text fill="#000000" font-family="sans-serif" font-size="11" lengthAdjust="spacingAndGlyphs" textLength="60" x="424" y="212.9268">string stdout</text><text fill="#000000" font-family="sans-serif" font-size="11" lengthAdjust="spacingAndGlyphs" textLength="59" x="424" y="226.7627">string stderr</text><line style="stroke: #A80036; stroke-width: 1.5;" x1="419" x2="536" y1="233.1797" y2="233.1797"/><text fill="#000000" font-family="sans-serif" font-size="11" lengthAdjust="spacingAndGlyphs" textLength="52" x="424" y="248.5986">launched()</text><text fill="#000000" font-family="sans-serif" font-size="11" lengthAdjust="spacingAndGlyphs" textLength="52" x="424" y="262.4346">provision()</text><!--link Model to Service--><path d="M405.433,167.94 C314.831,133.292 161.948,74.827 85.6717,45.657 " fill="none" id="Model-Service" style="stroke: #A80036; stroke-width: 1.0;"/><polygon fill="#A80036" points="73.1418,40.865,80.1194,47.8158,77.812,42.6509,82.9768,40.3435,73.1418,40.865" style="stroke: #A80036; stroke-width: 1.0;"/><line style="stroke: #A80036; stroke-width: 1.0;" x1="77.812" x2="85.2843" y1="42.6509" y2="45.509"/><polygon fill="#FFFFFF" points="417.79,172.666,413.6148,166.7865,406.5818,168.3792,410.757,174.2587,417.79,172.666" style="stroke: #A80036; stroke-width: 1.0;"/><text fill="#000000" font-family="sans-serif" font-size="13" lengthAdjust="spacingAndGlyphs" textLength="36" x="207.5" y="90.4951">parent</text><text fill="#000000" font-family="sans-serif" font-size="13" lengthAdjust="spacingAndGlyphs" textLength="7" x="80.8023" y="39.6463">1</text><!--link Service to Model--><path d="M60.771,56.135 C72.1234,69.374 87.1198,84.339 103.5,94 C198.682,150.14 325.682,176.023 404.491,187.366 " fill="none" id="Service-Model" style="stroke: #A80036; stroke-width: 1.0;"/><polygon fill="#A80036" points="417.669,189.191,409.3032,183.9936,412.7163,188.5047,408.2052,191.9179,417.669,189.191" style="stroke: #A80036; stroke-width: 1.0;"/><line style="stroke: #A80036; stroke-width: 1.0;" x1="412.7163" x2="404.7915" y1="188.5047" y2="187.407"/><polygon fill="#A80036" points="52.491,46.022,53.1971,53.1984,60.0931,55.3068,59.387,48.1304,52.491,46.022" style="stroke: #A80036; stroke-width: 1.0;"/><text fill="#000000" font-family="sans-serif" font-size="13" lengthAdjust="spacingAndGlyphs" textLength="56" x="104.5" y="90.4951">instances</text><text fill="#000000" font-family="sans-serif" font-size="13" lengthAdjust="spacingAndGlyphs" textLength="7" x="402.9505" y="184.8508">n</text><!--link Model to StackInstance--><path d="M434.677,281.848 C432.912,293.6834 433.398,305.6698 437.5,317 C440.039,324.0123 444.099,330.72 448.68,336.7811 " fill="none" id="Model-StackInstance" style="stroke: #A80036; stroke-width: 1.0;"/><polygon fill="#A80036" points="457.273,346.9186,454.5051,337.4667,454.0401,343.1044,448.4024,342.6393,457.273,346.9186" style="stroke: #A80036; stroke-width: 1.0;"/><line style="stroke: #A80036; stroke-width: 1.0;" x1="454.0401" x2="448.867" y1="343.1044" y2="337.0017"/><polygon fill="#FFFFFF" points="437.411,269.102,432.2419,274.13,434.895,280.8353,440.0641,275.8073,437.411,269.102" style="stroke: #A80036; stroke-width: 1.0;"/><text fill="#000000" font-family="sans-serif" font-size="13" lengthAdjust="spacingAndGlyphs" textLength="32" x="438.5" y="313.4951">stack</text><text fill="#000000" font-family="sans-serif" font-size="13" lengthAdjust="spacingAndGlyphs" textLength="7" x="443.0066" y="336.2337">1</text><!--link StackInstance to Model--><path d="M477.5,333.6017 C477.5,318.8859 477.5,300.57 477.5,282.193 " fill="none" id="StackInstance-Model" style="stroke: #A80036; stroke-width: 1.0;"/><polygon fill="#A80036" points="477.5,269.021,473.5,278.021,477.5,274.021,481.5,278.021,477.5,269.021" style="stroke: #A80036; stroke-width: 1.0;"/><line style="stroke: #A80036; stroke-width: 1.0;" x1="477.5" x2="477.5" y1="274.021" y2="282.021"/><polygon fill="#A80036" points="477.5,346.9864,481.5,340.9864,477.5,334.9864,473.5,340.9864,477.5,346.9864" style="stroke: #A80036; stroke-width: 1.0;"/><text fill="#000000" font-family="sans-serif" font-size="13" lengthAdjust="spacingAndGlyphs" textLength="47" x="478.5" y="313.4951">services</text><text fill="#000000" font-family="sans-serif" font-size="13" lengthAdjust="spacingAndGlyphs" textLength="7" x="470.1555" y="290.467">n</text><!--link DataChannelInstance to Model--><path d="M227.052,53.026 C247.479,65.512 272.692,80.74 295.5,94 C331.732,115.064 372.441,137.848 406.155,156.482 " fill="none" id="DataChannelInstance-Model" style="stroke: #A80036; stroke-width: 1.0;"/><polygon fill="#A80036" points="417.77,162.891,411.8232,155.0402,413.3924,160.475,407.9576,162.0443,417.77,162.891" style="stroke: #A80036; stroke-width: 1.0;"/><line style="stroke: #A80036; stroke-width: 1.0;" x1="413.3924" x2="406.3875" y1="160.475" y2="156.6105"/><polygon fill="#FFFFFF" points="215.938,46.215,218.9643,52.7603,226.1701,52.4843,223.1438,45.9389,215.938,46.215" style="stroke: #A80036; stroke-width: 1.0;"/><text fill="#000000" font-family="sans-serif" font-size="13" lengthAdjust="spacingAndGlyphs" textLength="103" x="296.5" y="90.4951">transformInstance</text><text fill="#000000" font-family="sans-serif" font-size="13" lengthAdjust="spacingAndGlyphs" textLength="7" x="403.0638" y="155.3455">n</text><!--link InputChannelInstance to Model--><path d="M396.029,57.658 C405.169,73.121 416.85,92.886 428.495,112.588 " fill="none" id="InputChannelInstance-Model" style="stroke: #A80036; stroke-width: 1.0;"/><polygon fill="#A80036" points="435.135,123.822,433.9994,114.0388,432.591,119.5176,427.1123,118.1092,435.135,123.822" style="stroke: #A80036; stroke-width: 1.0;"/><line style="stroke: #A80036; stroke-width: 1.0;" x1="432.591" x2="428.521" y1="119.5176" y2="112.631"/><polygon fill="#FFFFFF" points="389.283,46.244,388.8922,53.4445,395.3886,56.5746,395.7793,49.3741,389.283,46.244" style="stroke: #A80036; stroke-width: 1.0;"/><text fill="#000000" font-family="sans-serif" font-size="13" lengthAdjust="spacingAndGlyphs" textLength="103" x="417.5" y="90.4951">transformInstance</text><text fill="#000000" font-family="sans-serif" font-size="13" lengthAdjust="spacingAndGlyphs" textLength="7" x="423.4052" y="113.023">n</text><!--link OutputChannelInstance to Model--><path d="M558.971,57.658 C549.831,73.121 538.15,92.886 526.505,112.588 " fill="none" id="OutputChannelInstance-Model" style="stroke: #A80036; stroke-width: 1.0;"/><polygon fill="#A80036" points="519.865,123.822,527.8877,118.1092,522.409,119.5176,521.0006,114.0388,519.865,123.822" style="stroke: #A80036; stroke-width: 1.0;"/><line style="stroke: #A80036; stroke-width: 1.0;" x1="522.409" x2="526.479" y1="119.5176" y2="112.631"/><polygon fill="#FFFFFF" points="565.717,46.244,559.2207,49.3741,559.6114,56.5746,566.1078,53.4445,565.717,46.244" style="stroke: #A80036; stroke-width: 1.0;"/><text fill="#000000" font-family="sans-serif" font-size="13" lengthAdjust="spacingAndGlyphs" textLength="103" x="548.5" y="90.4951">transformInstance</text><text fill="#000000" font-family="sans-serif" font-size="13" lengthAdjust="spacingAndGlyphs" textLength="7" x="516.873" y="113.023">n</text><!--link DockerProvisioner to Model--><path d="M725.813,53.316 C706.382,65.835 682.376,81.007 660.5,94 C624.175,115.574 583.091,138.492 549.066,157.082 " fill="none" id="DockerProvisioner-Model" style="stroke: #A80036; stroke-width: 1.0;"/><polygon fill="#A80036" points="537.344,163.467,547.1609,162.6743,541.7348,161.0752,543.334,155.6491,537.344,163.467" style="stroke: #A80036; stroke-width: 1.0;"/><line style="stroke: #A80036; stroke-width: 1.0;" x1="541.7348" x2="548.7605" y1="161.0752" y2="157.2475"/><polygon fill="#FFFFFF" points="736.967,46.098,729.7566,45.9995,726.8924,52.6175,734.1029,52.7159,736.967,46.098" style="stroke: #A80036; stroke-width: 1.0;"/><text fill="#000000" font-family="sans-serif" font-size="13" lengthAdjust="spacingAndGlyphs" textLength="47" x="690.5" y="90.4951">services</text><text fill="#000000" font-family="sans-serif" font-size="13" lengthAdjust="spacingAndGlyphs" textLength="7" x="545.0641" y="155.9917">n</text><!--link ProcessProvisioner to Model--><path d="M876.417,50.557 C791.457,81.427 639.29,136.715 549.455,169.356 " fill="none" id="ProcessProvisioner-Model" style="stroke: #A80036; stroke-width: 1.0;"/><polygon fill="#A80036" points="537.206,173.806,547.031,174.4917,541.9054,172.0983,544.2987,166.9727,537.206,173.806" style="stroke: #A80036; stroke-width: 1.0;"/><line style="stroke: #A80036; stroke-width: 1.0;" x1="541.9054" x2="549.424" y1="172.0983" y2="169.3665"/><polygon fill="#FFFFFF" points="888.727,46.085,881.7218,44.374,877.4481,50.1822,884.4533,51.8932,888.727,46.085" style="stroke: #A80036; stroke-width: 1.0;"/><text fill="#000000" font-family="sans-serif" font-size="13" lengthAdjust="spacingAndGlyphs" textLength="47" x="803.5" y="90.4951">services</text><text fill="#000000" font-family="sans-serif" font-size="13" lengthAdjust="spacingAndGlyphs" textLength="7" x="544.9092" y="185.5408">n</text><!--link Provisioner to Model--><path d="M1032.4,44.925 C985.732,58.439 918.489,77.738 859.5,94 C751.94,123.653 626.913,156.583 549.997,176.666 " fill="none" id="Provisioner-Model" style="stroke: #A80036; stroke-width: 1.0;"/><polygon fill="#A80036" points="537.143,180.019,546.8614,181.6166,541.9809,178.7564,544.8412,173.8759,537.143,180.019" style="stroke: #A80036; stroke-width: 1.0;"/><line style="stroke: #A80036; stroke-width: 1.0;" x1="541.9809" x2="549.722" y1="178.7564" y2="176.7375"/><polygon fill="#FFFFFF" points="1044.99,41.274,1038.1121,39.1073,1033.4668,44.6229,1040.3447,46.7895,1044.99,41.274" style="stroke: #A80036; stroke-width: 1.0;"/><text fill="#000000" font-family="sans-serif" font-size="13" lengthAdjust="spacingAndGlyphs" textLength="47" x="924.5" y="90.4951">services</text><text fill="#000000" font-family="sans-serif" font-size="13" lengthAdjust="spacingAndGlyphs" textLength="7" x="544.8386" y="174.561">n</text><!--
@startuml

class "ServiceInstance" as Model {
 string name
 string pid
 string url
 string stdout
 string stderr

 launched()
 provision()
 
}

rectangle "Service" as Service #lightblue {
}

Model o- -> "1" Service : parent


rectangle "StackInstance" as StackInstance #lightblue {
}

Model o- -> "1" StackInstance : stack




    rectangle "Service" as Service #lightgreen {
    }
    
        Service   *- -> "n" Model : "instances"
    
    rectangle "StackInstance" as StackInstance #lightgreen {
    }
    
        StackInstance   *- -> "n" Model : "services"
    
    rectangle "DataChannelInstance" as DataChannelInstance #lightgreen {
    }
    
        DataChannelInstance   o- -> "n" Model : "transformInstance"
    
    rectangle "InputChannelInstance" as InputChannelInstance #lightgreen {
    }
    
        InputChannelInstance   o- -> "n" Model : "transformInstance"
    
    rectangle "OutputChannelInstance" as OutputChannelInstance #lightgreen {
    }
    
        OutputChannelInstance   o- -> "n" Model : "transformInstance"
    
    rectangle "DockerProvisioner" as DockerProvisioner #lightgreen {
    }
    
        DockerProvisioner   o- -> "n" Model : "services"
    
    rectangle "ProcessProvisioner" as ProcessProvisioner #lightgreen {
    }
    
        ProcessProvisioner   o- -> "n" Model : "services"
    
    rectangle "Provisioner" as Provisioner #lightgreen {
    }
    
        Provisioner   o- -> "n" Model : "services"
    

@enduml

PlantUML version 1.2019.05(Sat Apr 20 09:45:36 PDT 2019)
(GPL source distribution)
Java Runtime: Java(TM) SE Runtime Environment
JVM: Java HotSpot(TM) Client VM
Java Version: 1.8.0_271-b09
Operating System: Windows 10
OS Version: 10.0
Default Encoding: Cp1252
Language: en
Country: US
--></g></svg>