<?xml version="1.0" encoding="us-ascii" standalone="no"?><svg xmlns="http://www.w3.org/2000/svg" xmlns:xlink="http://www.w3.org/1999/xlink" contentStyleType="text/css" height="1414px" preserveAspectRatio="none" style="width:286px;height:1414px;background:#FFFFFF;" version="1.1" viewBox="0 0 286 1414" width="286px" zoomAndPan="magnify"><defs/><g><!--cluster ServiceInstance--><g id="cluster_ServiceInstance"><path d="M19.5,7 L229.5,7 A12.5,12.5 0 0 1 242,19.5 L242,29.6094 L7,29.6094 L7,19.5 A12.5,12.5 0 0 1 19.5,7 " fill="#00AAFF" style="stroke:#00AAFF;stroke-width:1.0;"/><rect fill="none" height="1242" rx="12.5" ry="12.5" style="stroke:#181818;stroke-width:0.5;" width="235" x="7" y="7"/><line style="stroke:#181818;stroke-width:0.5;" x1="7" x2="242" y1="29.6094" y2="29.6094"/><text fill="#000000" font-family="sans-serif" font-size="14" lengthAdjust="spacing" textLength="100" x="74.5" y="25.5332">ServiceInstance</text></g><g id="ServiceInstance.Init"><rect fill="#00AAFF" height="50" rx="12.5" ry="12.5" style="stroke:#181818;stroke-width:0.5;" width="50" x="144" y="43"/><line style="stroke:#181818;stroke-width:0.5;" x1="144" x2="194" y1="70.6094" y2="70.6094"/><text fill="#000000" font-family="sans-serif" font-size="14" lengthAdjust="spacing" textLength="18" x="160" y="62.5332">Init</text></g><g id="ServiceInstance.Created"><rect fill="#00AAFF" height="50" rx="12.5" ry="12.5" style="stroke:#181818;stroke-width:0.5;" width="71" x="133.5" y="233"/><line style="stroke:#181818;stroke-width:0.5;" x1="133.5" x2="204.5" y1="260.6094" y2="260.6094"/><text fill="#000000" font-family="sans-serif" font-size="14" lengthAdjust="spacing" textLength="51" x="143.5" y="252.5332">Created</text></g><g id="ServiceInstance.Deploying"><rect fill="#00AAFF" height="50" rx="12.5" ry="12.5" style="stroke:#181818;stroke-width:0.5;" width="83" x="127.5" y="423"/><line style="stroke:#181818;stroke-width:0.5;" x1="127.5" x2="210.5" y1="450.6094" y2="450.6094"/><text fill="#000000" font-family="sans-serif" font-size="14" lengthAdjust="spacing" textLength="63" x="137.5" y="442.5332">Deploying</text></g><g id="ServiceInstance.Deployed"><rect fill="#00AAFF" height="50" rx="12.5" ry="12.5" style="stroke:#181818;stroke-width:0.5;" width="80" x="129" y="613"/><line style="stroke:#181818;stroke-width:0.5;" x1="129" x2="209" y1="640.6094" y2="640.6094"/><text fill="#000000" font-family="sans-serif" font-size="14" lengthAdjust="spacing" textLength="60" x="139" y="632.5332">Deployed</text></g><g id="ServiceInstance.Provisioning"><rect fill="#00AAFF" height="50" rx="12.5" ry="12.5" style="stroke:#181818;stroke-width:0.5;" width="97" x="111.5" y="803"/><line style="stroke:#181818;stroke-width:0.5;" x1="111.5" x2="208.5" y1="830.6094" y2="830.6094"/><text fill="#000000" font-family="sans-serif" font-size="14" lengthAdjust="spacing" textLength="77" x="121.5" y="822.5332">Provisioning</text></g><g id="ServiceInstance.Failed"><rect fill="#00AAFF" height="50" rx="12.5" ry="12.5" style="stroke:#181818;stroke-width:0.5;" width="59" x="28.5" y="993"/><line style="stroke:#181818;stroke-width:0.5;" x1="28.5" x2="87.5" y1="1020.6094" y2="1020.6094"/><text fill="#000000" font-family="sans-serif" font-size="14" lengthAdjust="spacing" textLength="39" x="38.5" y="1012.5332">Failed</text></g><g id="ServiceInstance.Ready"><rect fill="#00AAFF" height="50" rx="12.5" ry="12.5" style="stroke:#181818;stroke-width:0.5;" width="61" x="147.5" y="993"/><line style="stroke:#181818;stroke-width:0.5;" x1="147.5" x2="208.5" y1="1020.6094" y2="1020.6094"/><text fill="#000000" font-family="sans-serif" font-size="14" lengthAdjust="spacing" textLength="41" x="157.5" y="1012.5332">Ready</text></g><g id="ServiceInstance.Killed"><rect fill="#00AAFF" height="50" rx="12.5" ry="12.5" style="stroke:#181818;stroke-width:0.5;" width="54" x="162" y="1183"/><line style="stroke:#181818;stroke-width:0.5;" x1="162" x2="216" y1="1210.6094" y2="1210.6094"/><text fill="#000000" font-family="sans-serif" font-size="14" lengthAdjust="spacing" textLength="34" x="172" y="1202.5332">Killed</text></g><g id="Null"><rect fill="#F1F1F1" height="50" rx="12.5" ry="12.5" style="stroke:#181818;stroke-width:0.5;" width="50" x="214" y="1358"/><line style="stroke:#181818;stroke-width:0.5;" x1="214" x2="264" y1="1385.6094" y2="1385.6094"/><text fill="#000000" font-family="sans-serif" font-size="14" lengthAdjust="spacing" textLength="23" x="227.5" y="1377.5332">Null</text></g><!--link Init to Created--><g id="link_Init_Created"><path d="M169,93.19 C169,129.29 169,190.86 169,226.9 " fill="none" id="Init-to-Created" style="stroke:#000000;stroke-width:1.0;"/><polygon fill="#000000" points="169,232.9,173,223.9,169,227.9,165,223.9,169,232.9" style="stroke:#000000;stroke-width:1.0;"/><text fill="#000000" font-family="sans-serif" font-size="13" lengthAdjust="spacing" textLength="36" x="170" y="168.4951">create</text></g><!--link Created to Deploying--><g id="link_Created_Deploying"><path d="M169,283.19 C169,319.29 169,380.86 169,416.9 " fill="none" id="Created-to-Deploying" style="stroke:#000000;stroke-width:1.0;"/><polygon fill="#000000" points="169,422.9,173,413.9,169,417.9,165,413.9,169,422.9" style="stroke:#000000;stroke-width:1.0;"/><text fill="#000000" font-family="sans-serif" font-size="13" lengthAdjust="spacing" textLength="52" x="170" y="358.4951">launched</text></g><!--link Deploying to Deployed--><g id="link_Deploying_Deployed"><path d="M169,473.19 C169,509.29 169,570.86 169,606.9 " fill="none" id="Deploying-to-Deployed" style="stroke:#000000;stroke-width:1.0;"/><polygon fill="#000000" points="169,612.9,173,603.9,169,607.9,165,603.9,169,612.9" style="stroke:#000000;stroke-width:1.0;"/><text fill="#000000" font-family="sans-serif" font-size="13" lengthAdjust="spacing" textLength="52" x="170" y="548.4951">deployed</text></g><!--link Deployed to Provisioning--><g id="link_Deployed_Provisioning"><path d="M167.84,663.19 C166.11,699.29 163.1677,760.8669 161.4377,796.9069 " fill="none" id="Deployed-to-Provisioning" style="stroke:#000000;stroke-width:1.0;"/><polygon fill="#000000" points="161.15,802.9,165.5769,794.1021,161.3897,797.9058,157.5861,793.7186,161.15,802.9" style="stroke:#000000;stroke-width:1.0;"/><text fill="#000000" font-family="sans-serif" font-size="13" lengthAdjust="spacing" textLength="50" x="165" y="738.4951">provision</text></g><!--link Provisioning to Ready--><g id="link_Provisioning_Ready"><path d="M162.32,853.19 C165.77,889.29 171.6683,950.8873 175.1183,986.9273 " fill="none" id="Provisioning-to-Ready" style="stroke:#000000;stroke-width:1.0;"/><polygon fill="#000000" points="175.69,992.9,178.8142,983.5598,175.2135,987.9228,170.8506,984.3221,175.69,992.9" style="stroke:#000000;stroke-width:1.0;"/><text fill="#000000" font-family="sans-serif" font-size="13" lengthAdjust="spacing" textLength="64" x="170" y="928.4951">provisioned</text></g><!--link Provisioning to Failed--><g id="link_Provisioning_Failed"><path d="M146.87,853.19 C127.29,889.29 93.4909,951.586 73.9409,987.626 " fill="none" id="Provisioning-to-Failed" style="stroke:#000000;stroke-width:1.0;"/><polygon fill="#000000" points="71.08,992.9,78.8874,986.8962,73.4641,988.505,71.8553,983.0817,71.08,992.9" style="stroke:#000000;stroke-width:1.0;"/><text fill="#000000" font-family="sans-serif" font-size="13" lengthAdjust="spacing" textLength="30" x="113" y="928.4951">failed</text></g><!--link Ready to Killed--><g id="link_Ready_Killed"><path d="M179.42,1043.19 C181.53,1079.29 185.1293,1140.8703 187.2393,1176.9103 " fill="none" id="Ready-to-Killed" style="stroke:#000000;stroke-width:1.0;"/><polygon fill="#000000" points="187.59,1182.9,191.0571,1173.6816,187.2978,1177.9085,183.0708,1174.1492,187.59,1182.9" style="stroke:#000000;stroke-width:1.0;"/><text fill="#000000" font-family="sans-serif" font-size="13" lengthAdjust="spacing" textLength="16" x="184" y="1118.4951">kill</text></g><!--link Deployed to Null--><g id="link_Deployed_Null"><path d="M209.02,653.9 C240.48,668.5 279,694.11 279,732 C279,732 279,732 279,1297 C279,1319.02 271.135,1336.4097 260.615,1352.6997 " fill="none" id="Deployed-to-Null" style="stroke:#000000;stroke-width:1.0;"/><polygon fill="#000000" points="257.36,1357.74,265.6027,1352.3495,260.0725,1353.5397,258.8823,1348.0095,257.36,1357.74" style="stroke:#000000;stroke-width:1.0;"/></g><!--link Killed to Null--><g id="link_Killed_Null"><path d="M195.95,1233.05 C205.48,1266.01 220.8237,1319.106 230.3637,1352.106 " fill="none" id="Killed-to-Null" style="stroke:#000000;stroke-width:1.0;"/><polygon fill="#000000" points="232.03,1357.87,233.3732,1348.1132,230.6414,1353.0667,225.6879,1350.3349,232.03,1357.87" style="stroke:#000000;stroke-width:1.0;"/></g><!--SRC=[XP0_2y8m4CNt-nG7dGkTCxWeGX54T1I7cAGQ6jBIVr34xswQjhQHcbw6NExzxX5UMT5Au4KKZMGYrcL5DHCOH16bIO8l03HLMYZMifefdV2Uwzj2c8lxa9t8LTPA_LY7_4Qd8cjaAJEzuhMdKlcTpeBorWSSf5gqC6KJ2Q_1NL6Mti9myys08BCTm3Xni2a7WehMcZq51vYc2x0rvKCxih- -JYm4y_49u2ZEJX_03Exi_-D3eWGJsm3q-mupH4OmDGr05oVWye-FjI6mEyFIale1]--></g></svg>