<?xml version="1.0" encoding="UTF-8" standalone="no"?><svg xmlns="http://www.w3.org/2000/svg" xmlns:xlink="http://www.w3.org/1999/xlink" contentScriptType="application/ecmascript" contentStyleType="text/css" height="1436px" preserveAspectRatio="none" style="width:306px;height:1436px;" version="1.1" viewBox="0 0 306 1436" width="306px" zoomAndPan="magnify"><defs><filter height="300%" id="fppwz6a467goj" width="300%" x="-1" y="-1"><feGaussianBlur result="blurOut" stdDeviation="2.0"/><feColorMatrix in="blurOut" result="blurOut2" type="matrix" values="0 0 0 0 0 0 0 0 0 0 0 0 0 0 0 0 0 0 .4 0"/><feOffset dx="4.0" dy="4.0" in="blurOut2" result="blurOut3"/><feBlend in="SourceGraphic" in2="blurOut3" mode="normal"/></filter></defs><g><!--cluster ServiceInstance--><rect fill="#00AAFF" filter="url(#fppwz6a467goj)" height="1242" rx="12.5" ry="12.5" style="stroke: #A80036; stroke-width: 1.5;" width="235" x="22" y="24"/><rect fill="#FFFFFF" height="1208.3906" rx="12.5" ry="12.5" style="stroke: #FFFFFF; stroke-width: 1.0;" width="229" x="25" y="54.6094"/><line style="stroke: #A80036; stroke-width: 1.5;" x1="22" x2="257" y1="51.6094" y2="51.6094"/><text fill="#000000" font-family="sans-serif" font-size="14" lengthAdjust="spacingAndGlyphs" textLength="100" x="89.5" y="42.5332">ServiceInstance</text><rect fill="#00AAFF" filter="url(#fppwz6a467goj)" height="50" rx="12.5" ry="12.5" style="stroke: #A80036; stroke-width: 1.5;" width="50" x="159" y="60"/><line style="stroke: #A80036; stroke-width: 1.5;" x1="159" x2="209" y1="87.6094" y2="87.6094"/><text fill="#000000" font-family="sans-serif" font-size="14" lengthAdjust="spacingAndGlyphs" textLength="18" x="175" y="79.5332">Init</text><rect fill="#00AAFF" filter="url(#fppwz6a467goj)" height="50" rx="12.5" ry="12.5" style="stroke: #A80036; stroke-width: 1.5;" width="71" x="148.5" y="250"/><line style="stroke: #A80036; stroke-width: 1.5;" x1="148.5" x2="219.5" y1="277.6094" y2="277.6094"/><text fill="#000000" font-family="sans-serif" font-size="14" lengthAdjust="spacingAndGlyphs" textLength="51" x="158.5" y="269.5332">Created</text><rect fill="#00AAFF" filter="url(#fppwz6a467goj)" height="50" rx="12.5" ry="12.5" style="stroke: #A80036; stroke-width: 1.5;" width="83" x="142.5" y="440"/><line style="stroke: #A80036; stroke-width: 1.5;" x1="142.5" x2="225.5" y1="467.6094" y2="467.6094"/><text fill="#000000" font-family="sans-serif" font-size="14" lengthAdjust="spacingAndGlyphs" textLength="63" x="152.5" y="459.5332">Deploying</text><rect fill="#00AAFF" filter="url(#fppwz6a467goj)" height="50" rx="12.5" ry="12.5" style="stroke: #A80036; stroke-width: 1.5;" width="80" x="144" y="630"/><line style="stroke: #A80036; stroke-width: 1.5;" x1="144" x2="224" y1="657.6094" y2="657.6094"/><text fill="#000000" font-family="sans-serif" font-size="14" lengthAdjust="spacingAndGlyphs" textLength="60" x="154" y="649.5332">Deployed</text><rect fill="#00AAFF" filter="url(#fppwz6a467goj)" height="50" rx="12.5" ry="12.5" style="stroke: #A80036; stroke-width: 1.5;" width="97" x="126.5" y="820"/><line style="stroke: #A80036; stroke-width: 1.5;" x1="126.5" x2="223.5" y1="847.6094" y2="847.6094"/><text fill="#000000" font-family="sans-serif" font-size="14" lengthAdjust="spacingAndGlyphs" textLength="77" x="136.5" y="839.5332">Provisioning</text><rect fill="#00AAFF" filter="url(#fppwz6a467goj)" height="50" rx="12.5" ry="12.5" style="stroke: #A80036; stroke-width: 1.5;" width="59" x="43.5" y="1010"/><line style="stroke: #A80036; stroke-width: 1.5;" x1="43.5" x2="102.5" y1="1037.6094" y2="1037.6094"/><text fill="#000000" font-family="sans-serif" font-size="14" lengthAdjust="spacingAndGlyphs" textLength="39" x="53.5" y="1029.5332">Failed</text><rect fill="#00AAFF" filter="url(#fppwz6a467goj)" height="50" rx="12.5" ry="12.5" style="stroke: #A80036; stroke-width: 1.5;" width="61" x="162.5" y="1010"/><line style="stroke: #A80036; stroke-width: 1.5;" x1="162.5" x2="223.5" y1="1037.6094" y2="1037.6094"/><text fill="#000000" font-family="sans-serif" font-size="14" lengthAdjust="spacingAndGlyphs" textLength="41" x="172.5" y="1029.5332">Ready</text><rect fill="#00AAFF" filter="url(#fppwz6a467goj)" height="50" rx="12.5" ry="12.5" style="stroke: #A80036; stroke-width: 1.5;" width="54" x="182" y="1200"/><line style="stroke: #A80036; stroke-width: 1.5;" x1="182" x2="236" y1="1227.6094" y2="1227.6094"/><text fill="#000000" font-family="sans-serif" font-size="14" lengthAdjust="spacingAndGlyphs" textLength="34" x="192" y="1219.5332">Killed</text><rect fill="#FEFECE" filter="url(#fppwz6a467goj)" height="50" rx="12.5" ry="12.5" style="stroke: #A80036; stroke-width: 1.5;" width="50" x="230" y="1375"/><line style="stroke: #A80036; stroke-width: 1.5;" x1="230" x2="280" y1="1402.6094" y2="1402.6094"/><text fill="#000000" font-family="sans-serif" font-size="14" lengthAdjust="spacingAndGlyphs" textLength="23" x="243.5" y="1394.5332">Null</text><!--link Init to Created--><path d="M184,110.19 C184,144.6 184,207.59 184,244.63 " fill="none" id="Init-Created" style="stroke: #000000; stroke-width: 1.0;"/><polygon fill="#000000" points="184,249.9,188,240.9,184,244.9,180,240.9,184,249.9" style="stroke: #000000; stroke-width: 1.0;"/><text fill="#000000" font-family="sans-serif" font-size="13" lengthAdjust="spacingAndGlyphs" textLength="36" x="185" y="185.4951">create</text><!--link Created to Deploying--><path d="M184,300.19 C184,334.6 184,397.59 184,434.63 " fill="none" id="Created-Deploying" style="stroke: #000000; stroke-width: 1.0;"/><polygon fill="#000000" points="184,439.9,188,430.9,184,434.9,180,430.9,184,439.9" style="stroke: #000000; stroke-width: 1.0;"/><text fill="#000000" font-family="sans-serif" font-size="13" lengthAdjust="spacingAndGlyphs" textLength="52" x="185" y="375.4951">launched</text><!--link Deploying to Deployed--><path d="M184,490.193 C184,524.599 184,587.591 184,624.63 " fill="none" id="Deploying-Deployed" style="stroke: #000000; stroke-width: 1.0;"/><polygon fill="#000000" points="184,629.9,188,620.9,184,624.9,180,620.9,184,629.9" style="stroke: #000000; stroke-width: 1.0;"/><text fill="#000000" font-family="sans-serif" font-size="13" lengthAdjust="spacingAndGlyphs" textLength="52" x="185" y="565.4951">deployed</text><!--link Deployed to Provisioning--><path d="M182.842,680.193 C181.195,714.599 178.179,777.591 176.406,814.63 " fill="none" id="Deployed-Provisioning" style="stroke: #000000; stroke-width: 1.0;"/><polygon fill="#000000" points="176.154,819.9,180.5789,811.1011,176.3926,814.9057,172.588,810.7194,176.154,819.9" style="stroke: #000000; stroke-width: 1.0;"/><text fill="#000000" font-family="sans-serif" font-size="13" lengthAdjust="spacingAndGlyphs" textLength="50" x="180" y="755.4951">provision</text><!--link Provisioning to Ready--><path d="M177.316,870.193 C180.611,904.599 186.642,967.591 190.188,1004.63 " fill="none" id="Provisioning-Ready" style="stroke: #000000; stroke-width: 1.0;"/><polygon fill="#000000" points="190.693,1009.9,193.8159,1000.5594,190.2159,1004.9228,185.8524,1001.3228,190.693,1009.9" style="stroke: #000000; stroke-width: 1.0;"/><text fill="#000000" font-family="sans-serif" font-size="13" lengthAdjust="spacingAndGlyphs" textLength="64" x="185" y="945.4951">provisioned</text><!--link Provisioning to Failed--><path d="M161.874,870.193 C143.13,904.74 108.75,968.107 88.6884,1005.084 " fill="none" id="Provisioning-Failed" style="stroke: #000000; stroke-width: 1.0;"/><polygon fill="#000000" points="86.0755,1009.9,93.8832,1003.8966,88.4598,1005.5051,86.8513,1000.0817,86.0755,1009.9" style="stroke: #000000; stroke-width: 1.0;"/><text fill="#000000" font-family="sans-serif" font-size="13" lengthAdjust="spacingAndGlyphs" textLength="30" x="128" y="945.4951">failed</text><!--link Ready to Killed--><path d="M195.059,1060.193 C197.987,1094.599 203.348,1157.591 206.5,1194.63 " fill="none" id="Ready-Killed" style="stroke: #000000; stroke-width: 1.0;"/><polygon fill="#000000" points="206.949,1199.9,210.1736,1190.594,206.5262,1194.9179,202.2023,1191.2705,206.949,1199.9" style="stroke: #000000; stroke-width: 1.0;"/><text fill="#000000" font-family="sans-serif" font-size="13" lengthAdjust="spacingAndGlyphs" textLength="16" x="202" y="1135.4951">kill</text><!--link Deployed to Null--><path d="M224.024,670.899 C255.475,685.498 294,711.113 294,749 C294,749 294,749 294,1314 C294,1334.0351 284.938,1354.505 275.551,1370.3353 " fill="none" id="Deployed-Null" style="stroke: #000000; stroke-width: 1.0;"/><polygon fill="#000000" points="272.902,1374.6731,281.0066,1369.077,275.508,1370.4059,274.1791,1364.9074,272.902,1374.6731" style="stroke: #000000; stroke-width: 1.0;"/><!--link Killed to Null--><path d="M215.396,1250.055 C223.715,1281.34 238.238,1335.9621 247.196,1369.6508 " fill="none" id="Killed-Null" style="stroke: #000000; stroke-width: 1.0;"/><polygon fill="#000000" points="248.584,1374.8712,250.137,1365.1456,247.2992,1370.0391,242.4057,1367.2012,248.584,1374.8712" style="stroke: #000000; stroke-width: 1.0;"/><!--
@startuml



state ServiceInstance #00aaff {

    state Init #00aaff {
    }

    state Created #00aaff {
    }

    state Deploying #00aaff {
    }

    state Deployed #00aaff {
    }

    state Provisioning #00aaff {
    }

    state Failed #00aaff {
    }

    state Ready #00aaff {
    }

    state Killed #00aaff {
    }




Init -[#black]- -> Created : create

Created -[#black]- -> Deploying : launched

Deploying -[#black]- -> Deployed : deployed

Deployed -[#black]- -> Provisioning : provision

Provisioning -[#black]- -> Ready : provisioned

Provisioning -[#black]- -> Failed : failed

Ready -[#black]- -> Killed : kill

}

 
 Deployed -[#black]- -> Null
 
 
 Killed -[#black]- -> Null
 

@enduml

PlantUML version 1.2019.05(Sat Apr 20 09:45:36 PDT 2019)
(GPL source distribution)
Java Runtime: Java(TM) SE Runtime Environment
JVM: Java HotSpot(TM) Client VM
Java Version: 1.8.0_271-b09
Operating System: Windows 10
OS Version: 10.0
Default Encoding: Cp1252
Language: en
Country: US
--></g></svg>