<?xml version="1.0" encoding="UTF-8" standalone="no"?><svg xmlns="http://www.w3.org/2000/svg" xmlns:xlink="http://www.w3.org/1999/xlink" contentScriptType="application/ecmascript" contentStyleType="text/css" height="1262px" preserveAspectRatio="none" style="width:788px;height:1262px;" version="1.1" viewBox="0 0 788 1262" width="788px" zoomAndPan="magnify"><defs><filter height="300%" id="f1jkax0jpfxltu" width="300%" x="-1" y="-1"><feGaussianBlur result="blurOut" stdDeviation="2.0"/><feColorMatrix in="blurOut" result="blurOut2" type="matrix" values="0 0 0 0 0 0 0 0 0 0 0 0 0 0 0 0 0 0 .4 0"/><feOffset dx="4.0" dy="4.0" in="blurOut2" result="blurOut3"/><feBlend in="SourceGraphic" in2="blurOut3" mode="normal"/></filter></defs><g><!--cluster Application Manager--><polygon fill="#00AAFF" filter="url(#f1jkax0jpfxltu)" points="30,73,180,73,187,96.6094,574,96.6094,574,1250,30,1250,30,73" style="stroke: #000000; stroke-width: 1.5;"/><line style="stroke: #000000; stroke-width: 1.5;" x1="30" x2="187" y1="96.6094" y2="96.6094"/><text fill="#000000" font-family="sans-serif" font-size="14" font-weight="bold" lengthAdjust="spacingAndGlyphs" textLength="144" x="34" y="89.5332">Application Manager</text><polygon fill="#AAFFAA" filter="url(#f1jkax0jpfxltu)" points="598,433,752,433,759,456.6094,766,456.6094,766,488.2188,598,488.2188,598,433" style="stroke: #000000; stroke-width: 1.5;"/><line style="stroke: #000000; stroke-width: 1.5;" x1="598" x2="759" y1="456.6094" y2="456.6094"/><text fill="#000000" font-family="sans-serif" font-size="14" font-weight="bold" lengthAdjust="spacingAndGlyphs" textLength="148" x="602" y="449.5332">Service Orchestrator</text><!--class Stack--><rect fill="#FEFECE" filter="url(#f1jkax0jpfxltu)" height="158.6875" id="Stack" style="stroke: #A80036; stroke-width: 1.5;" width="101" x="295.5" y="130.5"/><ellipse cx="328.05" cy="146.5" fill="#ADD1B2" rx="11" ry="11" style="stroke: #A80036; stroke-width: 1.0;"/><path d="M330.8156,142.375 Q330.9719,142.1563 331.1594,142.0469 Q331.3469,141.9375 331.5656,141.9375 Q331.9406,141.9375 332.175,142.1953 Q332.4094,142.4531 332.4094,143.0625 L332.4094,144.5156 Q332.4094,145.125 332.175,145.3906 Q331.9406,145.6563 331.5656,145.6563 Q331.2219,145.6563 331.0188,145.4531 Q330.8156,145.2656 330.7063,144.75 Q330.6594,144.3906 330.4719,144.2031 Q330.1438,143.8281 329.5344,143.6094 Q328.925,143.3906 328.3,143.3906 Q327.5344,143.3906 326.9016,143.7188 Q326.2688,144.0469 325.7766,144.7969 Q325.2844,145.5469 325.2844,146.5781 L325.2844,147.6719 Q325.2844,148.9063 326.175,149.7266 Q327.0656,150.5469 328.6594,150.5469 Q329.5969,150.5469 330.2531,150.2969 Q330.6438,150.1406 331.0656,149.7031 Q331.3313,149.4375 331.4797,149.3594 Q331.6281,149.2813 331.8313,149.2813 Q332.1594,149.2813 332.4172,149.5391 Q332.675,149.7969 332.675,150.1406 Q332.675,150.4844 332.3313,150.8906 Q331.8313,151.4688 331.0344,151.7969 Q329.9563,152.25 328.6594,152.25 Q327.1438,152.25 325.9406,151.625 Q324.9563,151.125 324.2688,150.0547 Q323.5813,148.9844 323.5813,147.7031 L323.5813,146.5469 Q323.5813,145.2188 324.1984,144.0703 Q324.8156,142.9219 325.9094,142.3047 Q327.0031,141.6875 328.2375,141.6875 Q328.9719,141.6875 329.6203,141.8516 Q330.2688,142.0156 330.8156,142.375 Z "/><text fill="#000000" font-family="sans-serif" font-size="12" lengthAdjust="spacingAndGlyphs" textLength="30" x="345.95" y="151.4102">Stack</text><line style="stroke: #A80036; stroke-width: 1.5;" x1="296.5" x2="395.5" y1="162.5" y2="162.5"/><text fill="#000000" font-family="sans-serif" font-size="11" lengthAdjust="spacingAndGlyphs" textLength="56" x="301.5" y="177.9189">string name</text><text fill="#000000" font-family="sans-serif" font-size="11" lengthAdjust="spacingAndGlyphs" textLength="76" x="301.5" y="191.7549">string command</text><text fill="#000000" font-family="sans-serif" font-size="11" lengthAdjust="spacingAndGlyphs" textLength="66" x="301.5" y="205.5908">string version</text><text fill="#000000" font-family="sans-serif" font-size="11" lengthAdjust="spacingAndGlyphs" textLength="48" x="301.5" y="219.4268">json ports</text><text fill="#000000" font-family="sans-serif" font-size="11" lengthAdjust="spacingAndGlyphs" textLength="59" x="301.5" y="233.2627">json expose</text><text fill="#000000" font-family="sans-serif" font-size="11" lengthAdjust="spacingAndGlyphs" textLength="78" x="301.5" y="247.0986">json parameters</text><text fill="#000000" font-family="sans-serif" font-size="11" lengthAdjust="spacingAndGlyphs" textLength="82" x="301.5" y="260.9346">json environment</text><text fill="#000000" font-family="sans-serif" font-size="11" lengthAdjust="spacingAndGlyphs" textLength="89" x="301.5" y="274.7705">ref provisionScript</text><line style="stroke: #A80036; stroke-width: 1.5;" x1="296.5" x2="395.5" y1="281.1875" y2="281.1875"/><!--class ApplicationInstance--><rect fill="#FEFECE" filter="url(#f1jkax0jpfxltu)" height="89.5078" id="ApplicationInstance" style="stroke: #A80036; stroke-width: 1.5;" width="139" x="351.5" y="1136"/><ellipse cx="366.5" cy="1152" fill="#ADD1B2" rx="11" ry="11" style="stroke: #A80036; stroke-width: 1.0;"/><path d="M369.2656,1147.875 Q369.4219,1147.6563 369.6094,1147.5469 Q369.7969,1147.4375 370.0156,1147.4375 Q370.3906,1147.4375 370.625,1147.6953 Q370.8594,1147.9531 370.8594,1148.5625 L370.8594,1150.0156 Q370.8594,1150.625 370.625,1150.8906 Q370.3906,1151.1563 370.0156,1151.1563 Q369.6719,1151.1563 369.4688,1150.9531 Q369.2656,1150.7656 369.1563,1150.25 Q369.1094,1149.8906 368.9219,1149.7031 Q368.5938,1149.3281 367.9844,1149.1094 Q367.375,1148.8906 366.75,1148.8906 Q365.9844,1148.8906 365.3516,1149.2188 Q364.7188,1149.5469 364.2266,1150.2969 Q363.7344,1151.0469 363.7344,1152.0781 L363.7344,1153.1719 Q363.7344,1154.4063 364.625,1155.2266 Q365.5156,1156.0469 367.1094,1156.0469 Q368.0469,1156.0469 368.7031,1155.7969 Q369.0938,1155.6406 369.5156,1155.2031 Q369.7813,1154.9375 369.9297,1154.8594 Q370.0781,1154.7813 370.2813,1154.7813 Q370.6094,1154.7813 370.8672,1155.0391 Q371.125,1155.2969 371.125,1155.6406 Q371.125,1155.9844 370.7813,1156.3906 Q370.2813,1156.9688 369.4844,1157.2969 Q368.4063,1157.75 367.1094,1157.75 Q365.5938,1157.75 364.3906,1157.125 Q363.4063,1156.625 362.7188,1155.5547 Q362.0313,1154.4844 362.0313,1153.2031 L362.0313,1152.0469 Q362.0313,1150.7188 362.6484,1149.5703 Q363.2656,1148.4219 364.3594,1147.8047 Q365.4531,1147.1875 366.6875,1147.1875 Q367.4219,1147.1875 368.0703,1147.3516 Q368.7188,1147.5156 369.2656,1147.875 Z "/><text fill="#000000" font-family="sans-serif" font-size="12" lengthAdjust="spacingAndGlyphs" textLength="107" x="380.5" y="1156.9102">ApplicationInstance</text><line style="stroke: #A80036; stroke-width: 1.5;" x1="352.5" x2="489.5" y1="1168" y2="1168"/><text fill="#000000" font-family="sans-serif" font-size="11" lengthAdjust="spacingAndGlyphs" textLength="56" x="357.5" y="1183.4189">string name</text><text fill="#000000" font-family="sans-serif" font-size="11" lengthAdjust="spacingAndGlyphs" textLength="60" x="357.5" y="1197.2549">string status</text><text fill="#000000" font-family="sans-serif" font-size="11" lengthAdjust="spacingAndGlyphs" textLength="74" x="357.5" y="1211.0908">string message</text><line style="stroke: #A80036; stroke-width: 1.5;" x1="352.5" x2="489.5" y1="1217.5078" y2="1217.5078"/><!--class Application--><rect fill="#FEFECE" filter="url(#f1jkax0jpfxltu)" height="89.5078" id="Application" style="stroke: #A80036; stroke-width: 1.5;" width="92" x="448" y="570"/><ellipse cx="463" cy="586" fill="#ADD1B2" rx="11" ry="11" style="stroke: #A80036; stroke-width: 1.0;"/><path d="M465.7656,581.875 Q465.9219,581.6563 466.1094,581.5469 Q466.2969,581.4375 466.5156,581.4375 Q466.8906,581.4375 467.125,581.6953 Q467.3594,581.9531 467.3594,582.5625 L467.3594,584.0156 Q467.3594,584.625 467.125,584.8906 Q466.8906,585.1563 466.5156,585.1563 Q466.1719,585.1563 465.9688,584.9531 Q465.7656,584.7656 465.6563,584.25 Q465.6094,583.8906 465.4219,583.7031 Q465.0938,583.3281 464.4844,583.1094 Q463.875,582.8906 463.25,582.8906 Q462.4844,582.8906 461.8516,583.2188 Q461.2188,583.5469 460.7266,584.2969 Q460.2344,585.0469 460.2344,586.0781 L460.2344,587.1719 Q460.2344,588.4063 461.125,589.2266 Q462.0156,590.0469 463.6094,590.0469 Q464.5469,590.0469 465.2031,589.7969 Q465.5938,589.6406 466.0156,589.2031 Q466.2813,588.9375 466.4297,588.8594 Q466.5781,588.7813 466.7813,588.7813 Q467.1094,588.7813 467.3672,589.0391 Q467.625,589.2969 467.625,589.6406 Q467.625,589.9844 467.2813,590.3906 Q466.7813,590.9688 465.9844,591.2969 Q464.9063,591.75 463.6094,591.75 Q462.0938,591.75 460.8906,591.125 Q459.9063,590.625 459.2188,589.5547 Q458.5313,588.4844 458.5313,587.2031 L458.5313,586.0469 Q458.5313,584.7188 459.1484,583.5703 Q459.7656,582.4219 460.8594,581.8047 Q461.9531,581.1875 463.1875,581.1875 Q463.9219,581.1875 464.5703,581.3516 Q465.2188,581.5156 465.7656,581.875 Z "/><text fill="#000000" font-family="sans-serif" font-size="12" lengthAdjust="spacingAndGlyphs" textLength="60" x="477" y="590.9102">Application</text><line style="stroke: #A80036; stroke-width: 1.5;" x1="449" x2="539" y1="602" y2="602"/><text fill="#000000" font-family="sans-serif" font-size="11" lengthAdjust="spacingAndGlyphs" textLength="56" x="454" y="617.4189">string name</text><text fill="#000000" font-family="sans-serif" font-size="11" lengthAdjust="spacingAndGlyphs" textLength="66" x="454" y="631.2549">string version</text><text fill="#000000" font-family="sans-serif" font-size="11" lengthAdjust="spacingAndGlyphs" textLength="27" x="454" y="645.0908">ref fn</text><line style="stroke: #A80036; stroke-width: 1.5;" x1="449" x2="539" y1="651.5078" y2="651.5078"/><!--class Service--><rect fill="#FEFECE" filter="url(#f1jkax0jpfxltu)" height="158.6875" id="Service" style="stroke: #A80036; stroke-width: 1.5;" width="101" x="85.5" y="381"/><ellipse cx="113.55" cy="397" fill="#ADD1B2" rx="11" ry="11" style="stroke: #A80036; stroke-width: 1.0;"/><path d="M116.3156,392.875 Q116.4719,392.6563 116.6594,392.5469 Q116.8469,392.4375 117.0656,392.4375 Q117.4406,392.4375 117.675,392.6953 Q117.9094,392.9531 117.9094,393.5625 L117.9094,395.0156 Q117.9094,395.625 117.675,395.8906 Q117.4406,396.1563 117.0656,396.1563 Q116.7219,396.1563 116.5188,395.9531 Q116.3156,395.7656 116.2063,395.25 Q116.1594,394.8906 115.9719,394.7031 Q115.6438,394.3281 115.0344,394.1094 Q114.425,393.8906 113.8,393.8906 Q113.0344,393.8906 112.4016,394.2188 Q111.7688,394.5469 111.2766,395.2969 Q110.7844,396.0469 110.7844,397.0781 L110.7844,398.1719 Q110.7844,399.4063 111.675,400.2266 Q112.5656,401.0469 114.1594,401.0469 Q115.0969,401.0469 115.7531,400.7969 Q116.1438,400.6406 116.5656,400.2031 Q116.8313,399.9375 116.9797,399.8594 Q117.1281,399.7813 117.3313,399.7813 Q117.6594,399.7813 117.9172,400.0391 Q118.175,400.2969 118.175,400.6406 Q118.175,400.9844 117.8313,401.3906 Q117.3313,401.9688 116.5344,402.2969 Q115.4563,402.75 114.1594,402.75 Q112.6438,402.75 111.4406,402.125 Q110.4563,401.625 109.7688,400.5547 Q109.0813,399.4844 109.0813,398.2031 L109.0813,397.0469 Q109.0813,395.7188 109.6984,394.5703 Q110.3156,393.4219 111.4094,392.8047 Q112.5031,392.1875 113.7375,392.1875 Q114.4719,392.1875 115.1203,392.3516 Q115.7688,392.5156 116.3156,392.875 Z "/><text fill="#000000" font-family="sans-serif" font-size="12" lengthAdjust="spacingAndGlyphs" textLength="40" x="130.45" y="401.9102">Service</text><line style="stroke: #A80036; stroke-width: 1.5;" x1="86.5" x2="185.5" y1="413" y2="413"/><text fill="#000000" font-family="sans-serif" font-size="11" lengthAdjust="spacingAndGlyphs" textLength="56" x="91.5" y="428.4189">string name</text><text fill="#000000" font-family="sans-serif" font-size="11" lengthAdjust="spacingAndGlyphs" textLength="76" x="91.5" y="442.2549">string command</text><text fill="#000000" font-family="sans-serif" font-size="11" lengthAdjust="spacingAndGlyphs" textLength="66" x="91.5" y="456.0908">string version</text><text fill="#000000" font-family="sans-serif" font-size="11" lengthAdjust="spacingAndGlyphs" textLength="48" x="91.5" y="469.9268">json ports</text><text fill="#000000" font-family="sans-serif" font-size="11" lengthAdjust="spacingAndGlyphs" textLength="59" x="91.5" y="483.7627">json expose</text><text fill="#000000" font-family="sans-serif" font-size="11" lengthAdjust="spacingAndGlyphs" textLength="78" x="91.5" y="497.5986">json parameters</text><text fill="#000000" font-family="sans-serif" font-size="11" lengthAdjust="spacingAndGlyphs" textLength="82" x="91.5" y="511.4346">json environment</text><text fill="#000000" font-family="sans-serif" font-size="11" lengthAdjust="spacingAndGlyphs" textLength="89" x="91.5" y="525.2705">ref provisionScript</text><line style="stroke: #A80036; stroke-width: 1.5;" x1="86.5" x2="185.5" y1="531.6875" y2="531.6875"/><!--class ServiceInstance--><rect fill="#FEFECE" filter="url(#f1jkax0jpfxltu)" height="144.8516" id="ServiceInstance" style="stroke: #A80036; stroke-width: 1.5;" width="119" x="54.5" y="690"/><ellipse cx="69.5" cy="706" fill="#ADD1B2" rx="11" ry="11" style="stroke: #A80036; stroke-width: 1.0;"/><path d="M72.2656,701.875 Q72.4219,701.6563 72.6094,701.5469 Q72.7969,701.4375 73.0156,701.4375 Q73.3906,701.4375 73.625,701.6953 Q73.8594,701.9531 73.8594,702.5625 L73.8594,704.0156 Q73.8594,704.625 73.625,704.8906 Q73.3906,705.1563 73.0156,705.1563 Q72.6719,705.1563 72.4688,704.9531 Q72.2656,704.7656 72.1563,704.25 Q72.1094,703.8906 71.9219,703.7031 Q71.5938,703.3281 70.9844,703.1094 Q70.375,702.8906 69.75,702.8906 Q68.9844,702.8906 68.3516,703.2188 Q67.7188,703.5469 67.2266,704.2969 Q66.7344,705.0469 66.7344,706.0781 L66.7344,707.1719 Q66.7344,708.4063 67.625,709.2266 Q68.5156,710.0469 70.1094,710.0469 Q71.0469,710.0469 71.7031,709.7969 Q72.0938,709.6406 72.5156,709.2031 Q72.7813,708.9375 72.9297,708.8594 Q73.0781,708.7813 73.2813,708.7813 Q73.6094,708.7813 73.8672,709.0391 Q74.125,709.2969 74.125,709.6406 Q74.125,709.9844 73.7813,710.3906 Q73.2813,710.9688 72.4844,711.2969 Q71.4063,711.75 70.1094,711.75 Q68.5938,711.75 67.3906,711.125 Q66.4063,710.625 65.7188,709.5547 Q65.0313,708.4844 65.0313,707.2031 L65.0313,706.0469 Q65.0313,704.7188 65.6484,703.5703 Q66.2656,702.4219 67.3594,701.8047 Q68.4531,701.1875 69.6875,701.1875 Q70.4219,701.1875 71.0703,701.3516 Q71.7188,701.5156 72.2656,701.875 Z "/><text fill="#000000" font-family="sans-serif" font-size="12" lengthAdjust="spacingAndGlyphs" textLength="87" x="83.5" y="710.9102">ServiceInstance</text><line style="stroke: #A80036; stroke-width: 1.5;" x1="55.5" x2="172.5" y1="722" y2="722"/><text fill="#000000" font-family="sans-serif" font-size="11" lengthAdjust="spacingAndGlyphs" textLength="56" x="60.5" y="737.4189">string name</text><text fill="#000000" font-family="sans-serif" font-size="11" lengthAdjust="spacingAndGlyphs" textLength="44" x="60.5" y="751.2549">string pid</text><text fill="#000000" font-family="sans-serif" font-size="11" lengthAdjust="spacingAndGlyphs" textLength="42" x="60.5" y="765.0908">string url</text><text fill="#000000" font-family="sans-serif" font-size="11" lengthAdjust="spacingAndGlyphs" textLength="60" x="60.5" y="778.9268">string stdout</text><text fill="#000000" font-family="sans-serif" font-size="11" lengthAdjust="spacingAndGlyphs" textLength="59" x="60.5" y="792.7627">string stderr</text><line style="stroke: #A80036; stroke-width: 1.5;" x1="55.5" x2="172.5" y1="799.1797" y2="799.1797"/><text fill="#000000" font-family="sans-serif" font-size="11" lengthAdjust="spacingAndGlyphs" textLength="52" x="60.5" y="814.5986">launched()</text><text fill="#000000" font-family="sans-serif" font-size="11" lengthAdjust="spacingAndGlyphs" textLength="52" x="60.5" y="828.4346">provision()</text><!--class StackInstance--><rect fill="#FEFECE" filter="url(#f1jkax0jpfxltu)" height="144.8516" id="StackInstance" style="stroke: #A80036; stroke-width: 1.5;" width="109" x="189.5" y="913"/><ellipse cx="204.5" cy="929" fill="#ADD1B2" rx="11" ry="11" style="stroke: #A80036; stroke-width: 1.0;"/><path d="M207.2656,924.875 Q207.4219,924.6563 207.6094,924.5469 Q207.7969,924.4375 208.0156,924.4375 Q208.3906,924.4375 208.625,924.6953 Q208.8594,924.9531 208.8594,925.5625 L208.8594,927.0156 Q208.8594,927.625 208.625,927.8906 Q208.3906,928.1563 208.0156,928.1563 Q207.6719,928.1563 207.4688,927.9531 Q207.2656,927.7656 207.1563,927.25 Q207.1094,926.8906 206.9219,926.7031 Q206.5938,926.3281 205.9844,926.1094 Q205.375,925.8906 204.75,925.8906 Q203.9844,925.8906 203.3516,926.2188 Q202.7188,926.5469 202.2266,927.2969 Q201.7344,928.0469 201.7344,929.0781 L201.7344,930.1719 Q201.7344,931.4063 202.625,932.2266 Q203.5156,933.0469 205.1094,933.0469 Q206.0469,933.0469 206.7031,932.7969 Q207.0938,932.6406 207.5156,932.2031 Q207.7813,931.9375 207.9297,931.8594 Q208.0781,931.7813 208.2813,931.7813 Q208.6094,931.7813 208.8672,932.0391 Q209.125,932.2969 209.125,932.6406 Q209.125,932.9844 208.7813,933.3906 Q208.2813,933.9688 207.4844,934.2969 Q206.4063,934.75 205.1094,934.75 Q203.5938,934.75 202.3906,934.125 Q201.4063,933.625 200.7188,932.5547 Q200.0313,931.4844 200.0313,930.2031 L200.0313,929.0469 Q200.0313,927.7188 200.6484,926.5703 Q201.2656,925.4219 202.3594,924.8047 Q203.4531,924.1875 204.6875,924.1875 Q205.4219,924.1875 206.0703,924.3516 Q206.7188,924.5156 207.2656,924.875 Z "/><text fill="#000000" font-family="sans-serif" font-size="12" lengthAdjust="spacingAndGlyphs" textLength="77" x="218.5" y="933.9102">StackInstance</text><line style="stroke: #A80036; stroke-width: 1.5;" x1="190.5" x2="297.5" y1="945" y2="945"/><text fill="#000000" font-family="sans-serif" font-size="11" lengthAdjust="spacingAndGlyphs" textLength="56" x="195.5" y="960.4189">string name</text><text fill="#000000" font-family="sans-serif" font-size="11" lengthAdjust="spacingAndGlyphs" textLength="60" x="195.5" y="974.2549">string stdout</text><text fill="#000000" font-family="sans-serif" font-size="11" lengthAdjust="spacingAndGlyphs" textLength="59" x="195.5" y="988.0908">string stderr</text><text fill="#000000" font-family="sans-serif" font-size="11" lengthAdjust="spacingAndGlyphs" textLength="44" x="195.5" y="1001.9268">string pid</text><text fill="#000000" font-family="sans-serif" font-size="11" lengthAdjust="spacingAndGlyphs" textLength="42" x="195.5" y="1015.7627">string url</text><line style="stroke: #A80036; stroke-width: 1.5;" x1="190.5" x2="297.5" y1="1022.1797" y2="1022.1797"/><text fill="#000000" font-family="sans-serif" font-size="11" lengthAdjust="spacingAndGlyphs" textLength="52" x="195.5" y="1037.5986">launched()</text><text fill="#000000" font-family="sans-serif" font-size="11" lengthAdjust="spacingAndGlyphs" textLength="52" x="195.5" y="1051.4346">provision()</text><!--class i--><rect fill="#FEFECE" filter="url(#f1jkax0jpfxltu)" height="186.3594" id="i" style="stroke: #A80036; stroke-width: 1.5;" width="175" x="70.5" y="117"/><ellipse cx="99.45" cy="133" fill="#B4A7E5" rx="11" ry="11" style="stroke: #A80036; stroke-width: 1.0;"/><path d="M100.4031,129.6406 L100.4031,136.2969 L102.1219,136.2969 Q102.7313,136.2969 102.9969,136.5313 Q103.2625,136.7656 103.2625,137.1563 Q103.2625,137.5313 102.9969,137.7656 Q102.7313,138 102.1219,138 L96.9813,138 Q96.3719,138 96.1063,137.7656 Q95.8406,137.5313 95.8406,137.1406 Q95.8406,136.7656 96.1063,136.5313 Q96.3719,136.2969 96.9813,136.2969 L98.7,136.2969 L98.7,129.6406 L96.9813,129.6406 Q96.3719,129.6406 96.1063,129.4063 Q95.8406,129.1719 95.8406,128.7813 Q95.8406,128.4063 96.1063,128.1719 Q96.3719,127.9375 96.9813,127.9375 L102.1219,127.9375 Q102.7313,127.9375 102.9969,128.1719 Q103.2625,128.4063 103.2625,128.7813 Q103.2625,129.1719 102.9969,129.4063 Q102.7313,129.6406 102.1219,129.6406 L100.4031,129.6406 Z "/><text fill="#000000" font-family="sans-serif" font-size="12" font-style="italic" lengthAdjust="spacingAndGlyphs" textLength="112" x="116.55" y="137.9102">Application Manager</text><line style="stroke: #A80036; stroke-width: 1.5;" x1="71.5" x2="244.5" y1="149" y2="149"/><line style="stroke: #A80036; stroke-width: 1.5;" x1="71.5" x2="244.5" y1="157" y2="157"/><text fill="#000000" font-family="sans-serif" font-size="11" lengthAdjust="spacingAndGlyphs" textLength="157" x="76.5" y="172.4189">/sabr/aml/am/application create()</text><text fill="#000000" font-family="sans-serif" font-size="11" lengthAdjust="spacingAndGlyphs" textLength="157" x="76.5" y="186.2549">/sabr/aml/am/application/create()</text><text fill="#000000" font-family="sans-serif" font-size="11" lengthAdjust="spacingAndGlyphs" textLength="163" x="76.5" y="200.0908">/sabr/aml/am/application/destroy()</text><text fill="#000000" font-family="sans-serif" font-size="11" lengthAdjust="spacingAndGlyphs" textLength="139" x="76.5" y="213.9268">/sabr/aml/am/application/list()</text><text fill="#000000" font-family="sans-serif" font-size="11" lengthAdjust="spacingAndGlyphs" textLength="159" x="76.5" y="227.7627">/sabr/aml/am/application/update()</text><text fill="#000000" font-family="sans-serif" font-size="11" lengthAdjust="spacingAndGlyphs" textLength="155" x="76.5" y="241.5986">/sabr/aml/am/service/deployed()</text><text fill="#000000" font-family="sans-serif" font-size="11" lengthAdjust="spacingAndGlyphs" textLength="122" x="76.5" y="255.4346">/sabr/aml/am/service/kill()</text><text fill="#000000" font-family="sans-serif" font-size="11" lengthAdjust="spacingAndGlyphs" textLength="155" x="76.5" y="269.2705">/sabr/aml/am/service/provision()</text><text fill="#000000" font-family="sans-serif" font-size="11" lengthAdjust="spacingAndGlyphs" textLength="140" x="76.5" y="283.1064">/sabr/aml/am/service/stderr()</text><text fill="#000000" font-family="sans-serif" font-size="11" lengthAdjust="spacingAndGlyphs" textLength="141" x="76.5" y="296.9424">/sabr/aml/am/service/stdout()</text><ellipse cx="113" cy="13" fill="#FEFECE" filter="url(#f1jkax0jpfxltu)" rx="5" ry="5" style="stroke: #A80036; stroke-width: 1.5;"/><text fill="#000000" font-family="sans-serif" font-size="12" lengthAdjust="spacingAndGlyphs" textLength="19" x="103.5" y="30.457">CLI</text><ellipse cx="158" cy="13" fill="#FEFECE" filter="url(#f1jkax0jpfxltu)" rx="5" ry="5" style="stroke: #A80036; stroke-width: 1.5;"/><text fill="#000000" font-family="sans-serif" font-size="12" lengthAdjust="spacingAndGlyphs" textLength="32" x="142" y="30.457">REST</text><ellipse cx="203" cy="13" fill="#FEFECE" filter="url(#f1jkax0jpfxltu)" rx="5" ry="5" style="stroke: #A80036; stroke-width: 1.5;"/><text fill="#000000" font-family="sans-serif" font-size="12" lengthAdjust="spacingAndGlyphs" textLength="25" x="190.5" y="30.457">Web</text><!--link ilol542 to i--><path d="M113.94,18.07 C116.994,31.31 127.005,74.69 136.713,116.76 " fill="none" id="ilol542-i" style="stroke: #A80036; stroke-width: 1.0;"/><!--link ilol545 to i--><path d="M158,18.07 C158,31.31 158,74.69 158,116.76 " fill="none" id="ilol545-i" style="stroke: #A80036; stroke-width: 1.0;"/><!--link ilol548 to i--><path d="M202.06,18.07 C199.006,31.31 188.995,74.69 179.287,116.76 " fill="none" id="ilol548-i" style="stroke: #A80036; stroke-width: 1.0;"/><!--link Application to Stack--><path d="M476.298,557.063 C458.177,499.941 428.556,409.675 399,333 C395.09,322.856 390.825,312.317 386.469,301.871 " fill="none" id="Application-Stack" style="stroke: #A80036; stroke-width: 1.0;"/><polygon fill="#A80036" points="381.329,289.681,381.1404,299.5281,383.2718,294.2881,388.5118,296.4195,381.329,289.681" style="stroke: #A80036; stroke-width: 1.0;"/><line style="stroke: #A80036; stroke-width: 1.0;" x1="383.2718" x2="386.3795" y1="294.2881" y2="301.66"/><polygon fill="#A80036" points="480.318,569.787,482.3242,562.8606,476.7022,558.3447,474.696,565.2711,480.318,569.787" style="stroke: #A80036; stroke-width: 1.0;"/><text fill="#000000" font-family="sans-serif" font-size="13" lengthAdjust="spacingAndGlyphs" textLength="39" x="407" y="347.4951">stacks</text><text fill="#000000" font-family="sans-serif" font-size="13" lengthAdjust="spacingAndGlyphs" textLength="7" x="377.0643" y="310.7397">n</text><!--link Stack to Application--><path d="M396.462,299.427 C397.623,300.648 398.803,301.84 400,303 C419.996,322.377 439.171,310.093 455,333 C500.88,399.394 504.005,495.916 500.311,556.798 " fill="none" id="Stack-Application" style="stroke: #A80036; stroke-width: 1.0;"/><polygon fill="#A80036" points="499.371,569.972,504.0017,561.2797,499.727,564.9847,496.022,560.71,499.371,569.972" style="stroke: #A80036; stroke-width: 1.0;"/><line style="stroke: #A80036; stroke-width: 1.0;" x1="499.727" x2="500.2965" y1="564.9847" y2="557.005"/><polygon fill="#FFFFFF" points="387.904,289.574,388.818,296.7269,395.7723,298.6343,394.8583,291.4814,387.904,289.574" style="stroke: #A80036; stroke-width: 1.0;"/><text fill="#000000" font-family="sans-serif" font-size="13" lengthAdjust="spacingAndGlyphs" textLength="21" x="465" y="347.4951">app</text><text fill="#000000" font-family="sans-serif" font-size="13" lengthAdjust="spacingAndGlyphs" textLength="7" x="492.6692" y="559.083">1</text><!--link Application to ApplicationInstance--><path d="M471.504,672.461 C452.961,722.22 428.125,797.147 418,865 C404.691,954.197 409.772,1059.182 415.074,1122.607 " fill="none" id="Application-ApplicationInstance" style="stroke: #A80036; stroke-width: 1.0;"/><polygon fill="#A80036" points="416.238,1135.874,419.4364,1126.559,415.8012,1130.8931,411.467,1127.2579,416.238,1135.874" style="stroke: #A80036; stroke-width: 1.0;"/><line style="stroke: #A80036; stroke-width: 1.0;" x1="415.8012" x2="415.1025" y1="1130.8931" y2="1122.9235"/><polygon fill="#A80036" points="476.19,660.061,470.3273,664.2596,471.9481,671.2862,477.8108,667.0876,476.19,660.061" style="stroke: #A80036; stroke-width: 1.0;"/><text fill="#000000" font-family="sans-serif" font-size="13" lengthAdjust="spacingAndGlyphs" textLength="56" x="419" y="879.4951">instances</text><text fill="#000000" font-family="sans-serif" font-size="13" lengthAdjust="spacingAndGlyphs" textLength="7" x="407.9729" y="1125.2988">n</text><!--link ApplicationInstance to Application--><path d="M434.874,1122.943 C448.743,1063.438 469.477,967.264 480,883 C488.988,811.028 492.22,727.441 493.374,673.233 " fill="none" id="ApplicationInstance-Application" style="stroke: #A80036; stroke-width: 1.0;"/><polygon fill="#A80036" points="493.625,660.11,489.4536,669.0319,493.5294,665.1091,497.4522,669.1848,493.625,660.11" style="stroke: #A80036; stroke-width: 1.0;"/><line style="stroke: #A80036; stroke-width: 1.0;" x1="493.5294" x2="493.376" y1="665.1091" y2="673.107"/><polygon fill="#FFFFFF" points="431.852,1135.794,437.1193,1130.869,434.5989,1124.1126,429.3317,1129.0377,431.852,1135.794" style="stroke: #A80036; stroke-width: 1.0;"/><text fill="#000000" font-family="sans-serif" font-size="13" lengthAdjust="spacingAndGlyphs" textLength="21" x="483" y="879.4951">app</text><text fill="#000000" font-family="sans-serif" font-size="13" lengthAdjust="spacingAndGlyphs" textLength="7" x="486.0801" y="681.133">1</text><!--link Service to Stack--><path d="M80.3167,382.824 C74.1197,365.211 73.8037,347.437 86,333 C137.49,272.05 193.069,341.416 263,303 C270.854,298.686 278.349,293.339 285.395,287.411 " fill="none" id="Service-Stack" style="stroke: #A80036; stroke-width: 1.0;"/><polygon fill="#A80036" points="295.386,278.362,286.0306,281.4404,291.6806,281.7191,291.4019,287.3691,295.386,278.362" style="stroke: #A80036; stroke-width: 1.0;"/><line style="stroke: #A80036; stroke-width: 1.0;" x1="291.6806" x2="285.751" y1="281.7191" y2="287.089"/><polygon fill="#FFFFFF" points="85.465,394.949,86.8023,387.863,80.7757,383.9032,79.4384,390.9892,85.465,394.949" style="stroke: #A80036; stroke-width: 1.0;"/><text fill="#000000" font-family="sans-serif" font-size="13" lengthAdjust="spacingAndGlyphs" textLength="32" x="87" y="347.4951">stack</text><text fill="#000000" font-family="sans-serif" font-size="13" lengthAdjust="spacingAndGlyphs" textLength="7" x="280.438" y="284.7693">1</text><!--link Stack to Service--><path d="M285.569,285.582 C278.411,292.014 270.845,297.973 263,303 C225.362,327.116 197.605,300.418 167,333 C157.673,342.929 151.02,355.191 146.297,368.138 " fill="none" id="Stack-Service" style="stroke: #A80036; stroke-width: 1.0;"/><polygon fill="#A80036" points="142.337,380.706,148.8561,373.3235,143.8391,375.937,141.2256,370.92,142.337,380.706" style="stroke: #A80036; stroke-width: 1.0;"/><line style="stroke: #A80036; stroke-width: 1.0;" x1="143.8391" x2="146.244" y1="375.937" y2="368.307"/><polygon fill="#A80036" points="295.063,276.56,287.9581,277.793,286.3636,284.8256,293.4685,283.5926,295.063,276.56" style="stroke: #A80036; stroke-width: 1.0;"/><text fill="#000000" font-family="sans-serif" font-size="13" lengthAdjust="spacingAndGlyphs" textLength="47" x="168" y="347.4951">services</text><text fill="#000000" font-family="sans-serif" font-size="13" lengthAdjust="spacingAndGlyphs" textLength="7" x="135.5985" y="370.1382">n</text><!--link Stack to Service--><path d="M286.747,281.116 C258.22,314.873 224.093,355.256 195.53,389.056 " fill="none" id="Stack-Service-1" style="stroke: #A80036; stroke-width: 1.0;"/><polygon fill="#A80036" points="186.857,399.32,195.7213,395.0276,190.0843,395.501,189.6109,389.864,186.857,399.32" style="stroke: #A80036; stroke-width: 1.0;"/><line style="stroke: #A80036; stroke-width: 1.0;" x1="190.0843" x2="195.2475" y1="395.501" y2="389.39"/><polygon fill="#FFFFFF" points="295.433,270.84,288.5052,272.8416,287.6883,280.0062,294.6161,278.0047,295.433,270.84" style="stroke: #A80036; stroke-width: 1.0;"/><text fill="#000000" font-family="sans-serif" font-size="13" lengthAdjust="spacingAndGlyphs" textLength="45" x="242" y="347.4951">children</text><text fill="#000000" font-family="sans-serif" font-size="13" lengthAdjust="spacingAndGlyphs" textLength="7" x="194.501" y="387.1334">n</text><!--link Stack to Service--><path d="M323.029,301.855 C316.101,319.216 307.245,336.48 296,351 C270.172,384.35 231.14,411.105 198.094,429.703 " fill="none" id="Stack-Service-2" style="stroke: #A80036; stroke-width: 1.0;"/><polygon fill="#A80036" points="186.687,435.939,196.5028,435.1328,191.0745,433.5411,192.6662,428.1128,186.687,435.939" style="stroke: #A80036; stroke-width: 1.0;"/><line style="stroke: #A80036; stroke-width: 1.0;" x1="191.0745" x2="198.094" y1="433.5411" y2="429.7035"/><polygon fill="#FFFFFF" points="327.63,289.544,321.7825,293.7638,323.4287,300.7845,329.2762,296.5647,327.63,289.544" style="stroke: #A80036; stroke-width: 1.0;"/><text fill="#000000" font-family="sans-serif" font-size="13" lengthAdjust="spacingAndGlyphs" textLength="36" x="309" y="347.4951">parent</text><text fill="#000000" font-family="sans-serif" font-size="13" lengthAdjust="spacingAndGlyphs" textLength="7" x="194.6457" y="428.7005">1</text><!--link Service to Stack--><path d="M132.305,361.151 C135.36,350.874 140.057,341.205 147,333 C181.396,292.347 217.461,330.603 263,303 C274.589,295.975 285.501,286.836 295.367,277.049 " fill="none" id="Service-Stack-1" style="stroke: #A80036; stroke-width: 1.0;"/><polygon fill="none" points="139.167,362.538,128.372,380.771,125.44,359.786,139.167,362.538" style="stroke: #A80036; stroke-width: 1.0;"/><!--link Service to Service--><path d="M199.93,449.91 C212.531,451.119 221.5,454.649 221.5,460.5 C221.5,466.351 212.531,469.881 199.93,471.09 " fill="none" id="Service-Service" style="stroke: #A80036; stroke-width: 1.0;"/><polygon fill="#A80036" points="186.91,471.538,196.0423,475.2261,191.907,471.366,195.7671,467.2308,186.91,471.538" style="stroke: #A80036; stroke-width: 1.0;"/><line style="stroke: #A80036; stroke-width: 1.0;" x1="191.907" x2="199.9025" y1="471.366" y2="471.091"/><polygon fill="#FFFFFF" points="186.91,449.462,192.7689,453.666,198.9029,449.8748,193.044,445.6708,186.91,449.462" style="stroke: #A80036; stroke-width: 1.0;"/><text fill="#000000" font-family="sans-serif" font-size="13" lengthAdjust="spacingAndGlyphs" textLength="45" x="227.5" y="465.9951">children</text><text fill="#000000" font-family="sans-serif" font-size="13" lengthAdjust="spacingAndGlyphs" textLength="7" x="194.5614" y="469.507">n</text><!--link Service to Service--><path d="M199.882,439.629 C239.288,435.282 278.5,442.239 278.5,460.5 C278.5,478.761 239.288,485.718 199.882,481.371 " fill="none" id="Service-Service-1" style="stroke: #A80036; stroke-width: 1.0;"/><polygon fill="#A80036" points="186.849,479.514,195.1946,484.7439,191.799,480.2195,196.3234,476.8239,186.849,479.514" style="stroke: #A80036; stroke-width: 1.0;"/><line style="stroke: #A80036; stroke-width: 1.0;" x1="191.799" x2="199.719" y1="480.2195" y2="481.3485"/><polygon fill="#FFFFFF" points="186.849,441.486,193.3534,444.5994,198.7289,439.7928,192.2246,436.6794,186.849,441.486" style="stroke: #A80036; stroke-width: 1.0;"/><text fill="#000000" font-family="sans-serif" font-size="13" lengthAdjust="spacingAndGlyphs" textLength="36" x="284.5" y="465.9951">parent</text><text fill="#000000" font-family="sans-serif" font-size="13" lengthAdjust="spacingAndGlyphs" textLength="7" x="194.4918" y="496.8547">1</text><!--link Service to ServiceInstance--><path d="M139.338,553.535 C139.555,587.122 138.635,625.355 135,660 C134.424,665.486 133.686,671.114 132.831,676.771 " fill="none" id="Service-ServiceInstance" style="stroke: #A80036; stroke-width: 1.0;"/><polygon fill="#A80036" points="130.648,689.97,136.0631,681.7434,131.4639,685.037,128.1703,680.4379,130.648,689.97" style="stroke: #A80036; stroke-width: 1.0;"/><line style="stroke: #A80036; stroke-width: 1.0;" x1="131.4639" x2="132.769" y1="685.037" y2="677.1445"/><polygon fill="#A80036" points="139.195,540.425,135.2605,546.4682,139.3256,552.4243,143.26,546.3811,139.195,540.425" style="stroke: #A80036; stroke-width: 1.0;"/><text fill="#000000" font-family="sans-serif" font-size="13" lengthAdjust="spacingAndGlyphs" textLength="56" x="141" y="620.4951">instances</text><text fill="#000000" font-family="sans-serif" font-size="13" lengthAdjust="spacingAndGlyphs" textLength="7" x="125.0039" y="679.1862">n</text><!--link ServiceInstance to Service--><path d="M90.7933,676.672 C84.804,643.245 81.8207,604.635 89,570 C90.1803,564.306 91.6749,558.543 93.3998,552.797 " fill="none" id="ServiceInstance-Service" style="stroke: #A80036; stroke-width: 1.0;"/><polygon fill="#A80036" points="97.5112,540.277,90.903,547.5799,95.9513,545.0274,98.5038,550.0757,97.5112,540.277" style="stroke: #A80036; stroke-width: 1.0;"/><line style="stroke: #A80036; stroke-width: 1.0;" x1="95.9513" x2="93.4552" y1="545.0274" y2="552.6285"/><polygon fill="#FFFFFF" points="93.3205,689.689,96.1039,683.0367,91.0339,677.9089,88.2505,684.5611,93.3205,689.689" style="stroke: #A80036; stroke-width: 1.0;"/><text fill="#000000" font-family="sans-serif" font-size="13" lengthAdjust="spacingAndGlyphs" textLength="36" x="90" y="620.4951">parent</text><text fill="#000000" font-family="sans-serif" font-size="13" lengthAdjust="spacingAndGlyphs" textLength="7" x="87.034" y="561.0686">1</text><!--link ServiceInstance to StackInstance--><path d="M162.816,846.487 C173.379,864.444 184.551,883.437 195.117,901.398 " fill="none" id="ServiceInstance-StackInstance" style="stroke: #A80036; stroke-width: 1.0;"/><polygon fill="#A80036" points="201.782,912.73,200.6667,902.9445,199.2469,908.4203,193.7711,907.0006,201.782,912.73" style="stroke: #A80036; stroke-width: 1.0;"/><line style="stroke: #A80036; stroke-width: 1.0;" x1="199.2469" x2="195.191" y1="908.4203" y2="901.525"/><polygon fill="#FFFFFF" points="156.207,835.252,155.801,842.4517,162.2907,845.5955,162.6967,838.3959,156.207,835.252" style="stroke: #A80036; stroke-width: 1.0;"/><text fill="#000000" font-family="sans-serif" font-size="13" lengthAdjust="spacingAndGlyphs" textLength="32" x="184" y="879.4951">stack</text><text fill="#000000" font-family="sans-serif" font-size="13" lengthAdjust="spacingAndGlyphs" textLength="7" x="190.0673" y="901.9215">1</text><!--link StackInstance to ServiceInstance--><path d="M178.509,947.545 C155.516,930.974 132.156,909.204 119,883 C113.629,872.302 110.423,860.362 108.68,848.283 " fill="none" id="StackInstance-ServiceInstance" style="stroke: #A80036; stroke-width: 1.0;"/><polygon fill="#A80036" points="107.33,835.172,104.2738,844.5347,107.8426,840.1457,112.2317,843.7145,107.33,835.172" style="stroke: #A80036; stroke-width: 1.0;"/><line style="stroke: #A80036; stroke-width: 1.0;" x1="107.8426" x2="108.662" y1="840.1457" y2="848.1035"/><polygon fill="#A80036" points="189.363,955.024,186.6919,948.3259,179.4816,948.2153,182.1527,954.9134,189.363,955.024" style="stroke: #A80036; stroke-width: 1.0;"/><text fill="#000000" font-family="sans-serif" font-size="13" lengthAdjust="spacingAndGlyphs" textLength="47" x="120" y="879.4951">services</text><text fill="#000000" font-family="sans-serif" font-size="13" lengthAdjust="spacingAndGlyphs" textLength="7" x="99.3603" y="856.38">n</text><!--link ServiceInstance to StackInstance--><path d="M96.9713,855.207 C98.1135,864.896 100.6079,874.354 105,883 C122.661,917.766 158.437,943.463 189.27,960.302 " fill="none" id="ServiceInstance-StackInstance-1" style="stroke: #A80036; stroke-width: 1.0;"/><polygon fill="none" points="89.9737,855.389,96.3513,835.181,103.967,854.955,89.9737,855.389" style="stroke: #A80036; stroke-width: 1.0;"/><!--link Stack to StackInstance--><path d="M353.386,303.086 C354.059,319.055 354.369,335.503 354,351 C351.999,435.071 385.248,466.162 345,540 C334.021,560.142 313.841,549.784 303,570 C289.076,595.964 299.227,806.006 294,835 C290.102,856.625 283.73,879.392 276.82,900.456 " fill="none" id="Stack-StackInstance" style="stroke: #A80036; stroke-width: 1.0;"/><polygon fill="#A80036" points="272.586,912.982,279.2573,905.7367,274.1871,908.2453,271.6785,903.175,272.586,912.982" style="stroke: #A80036; stroke-width: 1.0;"/><line style="stroke: #A80036; stroke-width: 1.0;" x1="274.1871" x2="276.7495" y1="908.2453" y2="900.667"/><polygon fill="#A80036" points="352.742,289.817,349.0382,296.0042,353.3249,301.8028,357.0287,295.6156,352.742,289.817" style="stroke: #A80036; stroke-width: 1.0;"/><text fill="#000000" font-family="sans-serif" font-size="13" lengthAdjust="spacingAndGlyphs" textLength="56" x="304" y="620.4951">instances</text><text fill="#000000" font-family="sans-serif" font-size="13" lengthAdjust="spacingAndGlyphs" textLength="7" x="268.173" y="902.1995">n</text><!--link StackInstance to Stack--><path d="M286.515,900.622 C289.145,894.702 291.668,888.788 294,883 C332.868,786.522 349.033,762.78 365,660 C384.035,537.47 366.291,504.993 365,381 C364.778,359.663 365.783,354.263 364,333 C363.17,323.099 362.049,312.779 360.77,302.517 " fill="none" id="StackInstance-Stack" style="stroke: #A80036; stroke-width: 1.0;"/><polygon fill="#A80036" points="359.076,289.585,356.2789,299.0283,359.7254,294.5426,364.2111,297.9892,359.076,289.585" style="stroke: #A80036; stroke-width: 1.0;"/><line style="stroke: #A80036; stroke-width: 1.0;" x1="359.7254" x2="360.7655" y1="294.5426" y2="302.475"/><polygon fill="#FFFFFF" points="280.99,912.744,287.1181,908.9431,285.9665,901.8245,279.8384,905.6254,280.99,912.744" style="stroke: #A80036; stroke-width: 1.0;"/><text fill="#000000" font-family="sans-serif" font-size="13" lengthAdjust="spacingAndGlyphs" textLength="32" x="375" y="620.4951">stack</text><text fill="#000000" font-family="sans-serif" font-size="13" lengthAdjust="spacingAndGlyphs" textLength="7" x="352.8989" y="310.6355">1</text><!--link Stack to Stack--><path d="M409.93,186.31 C422.531,189.01 431.5,196.91 431.5,210 C431.5,223.09 422.531,230.99 409.93,233.69 " fill="none" id="Stack-Stack" style="stroke: #A80036; stroke-width: 1.0;"/><polygon fill="#A80036" points="396.91,234.7,406.1907,237.9966,401.8952,234.3158,405.576,230.0203,396.91,234.7" style="stroke: #A80036; stroke-width: 1.0;"/><line style="stroke: #A80036; stroke-width: 1.0;" x1="401.8952" x2="409.8715" y1="234.3158" y2="233.695"/><polygon fill="#FFFFFF" points="396.91,185.3,402.5849,189.7492,408.8745,186.2221,403.1996,181.7729,396.91,185.3" style="stroke: #A80036; stroke-width: 1.0;"/><text fill="#000000" font-family="sans-serif" font-size="13" lengthAdjust="spacingAndGlyphs" textLength="32" x="437.5" y="215.4951">stack</text><text fill="#000000" font-family="sans-serif" font-size="13" lengthAdjust="spacingAndGlyphs" textLength="7" x="404.5614" y="234.5902">1</text><!--link StackInstance to ApplicationInstance--><path d="M307.406,1055.816 C328.582,1078.967 351.848,1104.402 371.779,1126.191 " fill="none" id="StackInstance-ApplicationInstance" style="stroke: #A80036; stroke-width: 1.0;"/><polygon fill="#A80036" points="380.683,1135.924,377.5602,1126.5833,377.3084,1132.2346,371.6571,1131.9827,380.683,1135.924" style="stroke: #A80036; stroke-width: 1.0;"/><line style="stroke: #A80036; stroke-width: 1.0;" x1="377.3084" x2="371.9085" y1="1132.2346" y2="1126.332"/><polygon fill="#FFFFFF" points="298.55,1046.135,299.648,1053.262,306.6491,1054.9897,305.5511,1047.8626,298.55,1046.135" style="stroke: #A80036; stroke-width: 1.0;"/><text fill="#000000" font-family="sans-serif" font-size="13" lengthAdjust="spacingAndGlyphs" textLength="21" x="350" y="1102.4951">app</text><text fill="#000000" font-family="sans-serif" font-size="13" lengthAdjust="spacingAndGlyphs" textLength="7" x="366.6997" y="1125.0274">1</text><!--link StackInstance to Service--><path d="M247.881,899.634 C249.131,814.071 243.732,679.374 206,570 C202.596,560.132 198.114,550.264 193.059,540.722 " fill="none" id="StackInstance-Service" style="stroke: #A80036; stroke-width: 1.0;"/><polygon fill="#A80036" points="186.643,529.268,187.551,539.0749,189.0863,533.6304,194.5308,535.1657,186.643,529.268" style="stroke: #A80036; stroke-width: 1.0;"/><line style="stroke: #A80036; stroke-width: 1.0;" x1="189.0863" x2="192.996" y1="533.6304" y2="540.6095"/><polygon fill="#FFFFFF" points="247.634,912.673,251.7473,906.7501,247.8621,900.6752,243.7488,906.598,247.634,912.673" style="stroke: #A80036; stroke-width: 1.0;"/><text fill="#000000" font-family="sans-serif" font-size="13" lengthAdjust="spacingAndGlyphs" textLength="36" x="249" y="767.9951">parent</text><text fill="#000000" font-family="sans-serif" font-size="13" lengthAdjust="spacingAndGlyphs" textLength="7" x="194.5953" y="535.7372">1</text><!--link Application Manager to Service Orchestrator--><path d="M574.0762,228.3031 C574.1706,228.5053 574.2658,228.7091 574.3616,228.9143 C574.7449,229.7354 575.1395,230.5806 575.5449,231.4492 C576.3558,233.1862 577.2103,235.0165 578.105,236.9331 C585.2626,252.2656 594.9976,273.1201 605.6538,295.9479 C626.966,341.6035 651.9625,395.1525 667.392,428.206 " fill="none" id="Application Manager-Service Orchestrator" style="stroke: #A80036; stroke-width: 1.0;"/><polygon fill="#A80036" points="669.546,432.821,669.3617,422.9739,667.4302,428.2907,662.1133,426.3592,669.546,432.821" style="stroke: #A80036; stroke-width: 1.0;"/><!--
@startuml


package "Service Orchestrator" #aaffaa {
    }

package "Application Manager" #00aaff {
    
        class Stack {
        }
    
        class ApplicationInstance {
        }
    
        class Application {
        }
    
        class Service {
        }
    
        class ServiceInstance {
        }
    
        class StackInstance {
        }
    }


package "Application Manager" #00aaff {

    interface "Application Manager" as i {
            /sabr/aml/am/application create()
            /sabr/aml/am/application/create()
            /sabr/aml/am/application/destroy()
            /sabr/aml/am/application/list()
            /sabr/aml/am/application/update()
            /sabr/aml/am/service/deployed()
            /sabr/aml/am/service/kill()
            /sabr/aml/am/service/provision()
            /sabr/aml/am/service/stderr()
            /sabr/aml/am/service/stdout()
    
    }
}

CLI ()- - i
REST ()- - i
Web ()- - i

package "Application Manager" #00aaff {
        class "Application" {
                 string name
                 string version
                 ref fn
                    }
                Application *- -> "n" Stack : stacks
                        Application *- -> "n" ApplicationInstance : instances
            
    
    class "ApplicationInstance" {
                 string name
                 string status
                 string message
                    }
                ApplicationInstance o- -> "1" Application : app
            
    
    class "Service" {
                 string name
                 string command
                 string version
                 json ports
                 json expose
                 json parameters
                 json environment
                 ref provisionScript
                    }
                Service o- -> "1" Stack : stack
                        Service o- -> "n" Service : children
                        Service o- -> "1" Service : parent
                        Service *- -> "n" ServiceInstance : instances
            
    
    class "ServiceInstance" {
                 string name
                 string pid
                 string url
                 string stdout
                 string stderr
                             launched()
                     provision()
            }
                ServiceInstance o- -> "1" Service : parent
                        ServiceInstance o- -> "1" StackInstance : stack
            
    
    class "Stack" {
                 string name
                 string command
                 string version
                 json ports
                 json expose
                 json parameters
                 json environment
                 ref provisionScript
                    }
                Stack *- -> "n" Service : services
                        Stack *- -> "n" StackInstance : instances
                        Stack o- -> "1" Application : app
                        Stack o- -> "1" Stack : stack
                        Stack o- -> "n" Service : children
                        Stack o- -> "1" Service : parent
            
    
        Service <|- - Stack
    
    class "StackInstance" {
                 string name
                 string stdout
                 string stderr
                 string pid
                 string url
                             launched()
                     provision()
            }
                StackInstance o- -> "1" ApplicationInstance : app
                        StackInstance o- -> "1" Stack : stack
                        StackInstance *- -> "n" ServiceInstance : services
                        StackInstance o- -> "1" Service : parent
            
    
        ServiceInstance <|- - StackInstance
    

}


    "Application Manager" - -> "Service Orchestrator"


@enduml

PlantUML version 1.2019.05(Sat Apr 20 09:45:36 PDT 2019)
(GPL source distribution)
Java Runtime: Java(TM) SE Runtime Environment
JVM: Java HotSpot(TM) Client VM
Java Version: 1.8.0_271-b09
Operating System: Windows 10
OS Version: 10.0
Default Encoding: Cp1252
Language: en
Country: US
--></g></svg>