<?xml version="1.0" encoding="us-ascii" standalone="no"?><svg xmlns="http://www.w3.org/2000/svg" xmlns:xlink="http://www.w3.org/1999/xlink" contentStyleType="text/css" height="1397px" preserveAspectRatio="none" style="width:749px;height:1397px;background:#FFFFFF;" version="1.1" viewBox="0 0 749 1397" width="749px" zoomAndPan="magnify"><defs/><g><!--cluster Application Manager--><g id="cluster_Application Manager"><path d="M8.5,71 L153.5,71 A3.75,3.75 0 0 1 156,73.5 L163,94.6094 L547.5,94.6094 A2.5,2.5 0 0 1 550,97.1094 L550,1387.5 A2.5,2.5 0 0 1 547.5,1390 L8.5,1390 A2.5,2.5 0 0 1 6,1387.5 L6,73.5 A2.5,2.5 0 0 1 8.5,71 " fill="#00AAFF" style="stroke:#000000;stroke-width:1.5;"/><line style="stroke:#000000;stroke-width:1.5;" x1="6" x2="163" y1="94.6094" y2="94.6094"/><text fill="#000000" font-family="sans-serif" font-size="14" font-weight="bold" lengthAdjust="spacing" textLength="144" x="10" y="87.5332">Application Manager</text></g><path d="M576.5,484 L725.5,484 A3.75,3.75 0 0 1 728,486.5 L735,507.6094 L739.5,507.6094 A2.5,2.5 0 0 1 742,510.1094 L742,536.7188 A2.5,2.5 0 0 1 739.5,539.2188 L576.5,539.2188 A2.5,2.5 0 0 1 574,536.7188 L574,486.5 A2.5,2.5 0 0 1 576.5,484 " fill="#AAFFAA" style="stroke:#181818;stroke-width:0.5;"/><line style="stroke:#181818;stroke-width:0.5;" x1="574" x2="735" y1="507.6094" y2="507.6094"/><text fill="#000000" font-family="sans-serif" font-size="14" font-weight="bold" lengthAdjust="spacing" textLength="148" x="578" y="500.5332">Service Orchestrator</text><!--class Stack--><g id="elem_Stack"><rect codeLine="96" fill="#F1F1F1" height="188.875" id="Stack" rx="2.5" ry="2.5" style="stroke:#181818;stroke-width:0.5;" width="126" x="291" y="132.5"/><ellipse cx="332.55" cy="148.5" fill="#ADD1B2" rx="11" ry="11" style="stroke:#181818;stroke-width:1.0;"/><path d="M335.3156,144.375 Q335.4719,144.1563 335.6594,144.0469 Q335.8469,143.9375 336.0656,143.9375 Q336.4406,143.9375 336.675,144.1953 Q336.9094,144.4531 336.9094,145.0625 L336.9094,146.5156 Q336.9094,147.125 336.675,147.3906 Q336.4406,147.6563 336.0656,147.6563 Q335.7219,147.6563 335.5188,147.4531 Q335.3156,147.2656 335.2063,146.75 Q335.1594,146.3906 334.9719,146.2031 Q334.6438,145.8281 334.0344,145.6094 Q333.425,145.3906 332.8,145.3906 Q332.0344,145.3906 331.4016,145.7188 Q330.7688,146.0469 330.2766,146.7969 Q329.7844,147.5469 329.7844,148.5781 L329.7844,149.6719 Q329.7844,150.9063 330.675,151.7266 Q331.5656,152.5469 333.1594,152.5469 Q334.0969,152.5469 334.7531,152.2969 Q335.1438,152.1406 335.5656,151.7031 Q335.8313,151.4375 335.9797,151.3594 Q336.1281,151.2813 336.3313,151.2813 Q336.6594,151.2813 336.9172,151.5391 Q337.175,151.7969 337.175,152.1406 Q337.175,152.4844 336.8313,152.8906 Q336.3313,153.4688 335.5344,153.7969 Q334.4563,154.25 333.1594,154.25 Q331.6438,154.25 330.4406,153.625 Q329.4563,153.125 328.7688,152.0547 Q328.0813,150.9844 328.0813,149.7031 L328.0813,148.5469 Q328.0813,147.2188 328.6984,146.0703 Q329.3156,144.9219 330.4094,144.3047 Q331.5031,143.6875 332.7375,143.6875 Q333.4719,143.6875 334.1203,143.8516 Q334.7688,144.0156 335.3156,144.375 Z " fill="#000000"/><text fill="#000000" font-family="sans-serif" font-size="14" lengthAdjust="spacing" textLength="35" x="352.45" y="154.2285">Stack</text><line style="stroke:#181818;stroke-width:0.5;" x1="292" x2="416" y1="164.5" y2="164.5"/><text fill="#000000" font-family="sans-serif" font-size="14" lengthAdjust="spacing" textLength="74" x="297" y="183.0332">string name</text><text fill="#000000" font-family="sans-serif" font-size="14" lengthAdjust="spacing" textLength="100" x="297" y="200.6426">string command</text><text fill="#000000" font-family="sans-serif" font-size="14" lengthAdjust="spacing" textLength="85" x="297" y="218.252">string version</text><text fill="#000000" font-family="sans-serif" font-size="14" lengthAdjust="spacing" textLength="62" x="297" y="235.8613">json ports</text><text fill="#000000" font-family="sans-serif" font-size="14" lengthAdjust="spacing" textLength="75" x="297" y="253.4707">json expose</text><text fill="#000000" font-family="sans-serif" font-size="14" lengthAdjust="spacing" textLength="102" x="297" y="271.0801">json parameters</text><text fill="#000000" font-family="sans-serif" font-size="14" lengthAdjust="spacing" textLength="108" x="297" y="288.6895">json environment</text><text fill="#000000" font-family="sans-serif" font-size="14" lengthAdjust="spacing" textLength="114" x="297" y="306.2988">ref provisionScript</text><line style="stroke:#181818;stroke-width:0.5;" x1="292" x2="416" y1="313.375" y2="313.375"/></g><!--class ApplicationInstance--><g id="elem_ApplicationInstance"><rect codeLine="59" fill="#F1F1F1" height="100.8281" id="ApplicationInstance" rx="2.5" ry="2.5" style="stroke:#181818;stroke-width:0.5;" width="154" x="320" y="1265"/><ellipse cx="335" cy="1281" fill="#ADD1B2" rx="11" ry="11" style="stroke:#181818;stroke-width:1.0;"/><path d="M337.7656,1276.875 Q337.9219,1276.6563 338.1094,1276.5469 Q338.2969,1276.4375 338.5156,1276.4375 Q338.8906,1276.4375 339.125,1276.6953 Q339.3594,1276.9531 339.3594,1277.5625 L339.3594,1279.0156 Q339.3594,1279.625 339.125,1279.8906 Q338.8906,1280.1563 338.5156,1280.1563 Q338.1719,1280.1563 337.9688,1279.9531 Q337.7656,1279.7656 337.6563,1279.25 Q337.6094,1278.8906 337.4219,1278.7031 Q337.0938,1278.3281 336.4844,1278.1094 Q335.875,1277.8906 335.25,1277.8906 Q334.4844,1277.8906 333.8516,1278.2188 Q333.2188,1278.5469 332.7266,1279.2969 Q332.2344,1280.0469 332.2344,1281.0781 L332.2344,1282.1719 Q332.2344,1283.4063 333.125,1284.2266 Q334.0156,1285.0469 335.6094,1285.0469 Q336.5469,1285.0469 337.2031,1284.7969 Q337.5938,1284.6406 338.0156,1284.2031 Q338.2813,1283.9375 338.4297,1283.8594 Q338.5781,1283.7813 338.7813,1283.7813 Q339.1094,1283.7813 339.3672,1284.0391 Q339.625,1284.2969 339.625,1284.6406 Q339.625,1284.9844 339.2813,1285.3906 Q338.7813,1285.9688 337.9844,1286.2969 Q336.9063,1286.75 335.6094,1286.75 Q334.0938,1286.75 332.8906,1286.125 Q331.9063,1285.625 331.2188,1284.5547 Q330.5313,1283.4844 330.5313,1282.2031 L330.5313,1281.0469 Q330.5313,1279.7188 331.1484,1278.5703 Q331.7656,1277.4219 332.8594,1276.8047 Q333.9531,1276.1875 335.1875,1276.1875 Q335.9219,1276.1875 336.5703,1276.3516 Q337.2188,1276.5156 337.7656,1276.875 Z " fill="#000000"/><text fill="#000000" font-family="sans-serif" font-size="14" lengthAdjust="spacing" textLength="122" x="349" y="1286.7285">ApplicationInstance</text><line style="stroke:#181818;stroke-width:0.5;" x1="321" x2="473" y1="1297" y2="1297"/><text fill="#000000" font-family="sans-serif" font-size="14" lengthAdjust="spacing" textLength="74" x="326" y="1315.5332">string name</text><text fill="#000000" font-family="sans-serif" font-size="14" lengthAdjust="spacing" textLength="77" x="326" y="1333.1426">string status</text><text fill="#000000" font-family="sans-serif" font-size="14" lengthAdjust="spacing" textLength="96" x="326" y="1350.752">string message</text><line style="stroke:#181818;stroke-width:0.5;" x1="321" x2="473" y1="1357.8281" y2="1357.8281"/></g><!--class Application--><g id="elem_Application"><rect codeLine="50" fill="#F1F1F1" height="100.8281" id="Application" rx="2.5" ry="2.5" style="stroke:#181818;stroke-width:0.5;" width="101" x="416.5" y="636"/><ellipse cx="431.5" cy="652" fill="#ADD1B2" rx="11" ry="11" style="stroke:#181818;stroke-width:1.0;"/><path d="M434.2656,647.875 Q434.4219,647.6563 434.6094,647.5469 Q434.7969,647.4375 435.0156,647.4375 Q435.3906,647.4375 435.625,647.6953 Q435.8594,647.9531 435.8594,648.5625 L435.8594,650.0156 Q435.8594,650.625 435.625,650.8906 Q435.3906,651.1563 435.0156,651.1563 Q434.6719,651.1563 434.4688,650.9531 Q434.2656,650.7656 434.1563,650.25 Q434.1094,649.8906 433.9219,649.7031 Q433.5938,649.3281 432.9844,649.1094 Q432.375,648.8906 431.75,648.8906 Q430.9844,648.8906 430.3516,649.2188 Q429.7188,649.5469 429.2266,650.2969 Q428.7344,651.0469 428.7344,652.0781 L428.7344,653.1719 Q428.7344,654.4063 429.625,655.2266 Q430.5156,656.0469 432.1094,656.0469 Q433.0469,656.0469 433.7031,655.7969 Q434.0938,655.6406 434.5156,655.2031 Q434.7813,654.9375 434.9297,654.8594 Q435.0781,654.7813 435.2813,654.7813 Q435.6094,654.7813 435.8672,655.0391 Q436.125,655.2969 436.125,655.6406 Q436.125,655.9844 435.7813,656.3906 Q435.2813,656.9688 434.4844,657.2969 Q433.4063,657.75 432.1094,657.75 Q430.5938,657.75 429.3906,657.125 Q428.4063,656.625 427.7188,655.5547 Q427.0313,654.4844 427.0313,653.2031 L427.0313,652.0469 Q427.0313,650.7188 427.6484,649.5703 Q428.2656,648.4219 429.3594,647.8047 Q430.4531,647.1875 431.6875,647.1875 Q432.4219,647.1875 433.0703,647.3516 Q433.7188,647.5156 434.2656,647.875 Z " fill="#000000"/><text fill="#000000" font-family="sans-serif" font-size="14" lengthAdjust="spacing" textLength="69" x="445.5" y="657.7285">Application</text><line style="stroke:#181818;stroke-width:0.5;" x1="417.5" x2="516.5" y1="668" y2="668"/><text fill="#000000" font-family="sans-serif" font-size="14" lengthAdjust="spacing" textLength="74" x="422.5" y="686.5332">string name</text><text fill="#000000" font-family="sans-serif" font-size="14" lengthAdjust="spacing" textLength="85" x="422.5" y="704.1426">string version</text><text fill="#000000" font-family="sans-serif" font-size="14" lengthAdjust="spacing" textLength="33" x="422.5" y="721.752">ref fn</text><line style="stroke:#181818;stroke-width:0.5;" x1="417.5" x2="516.5" y1="728.8281" y2="728.8281"/></g><!--class Service--><g id="elem_Service"><rect codeLine="67" fill="#F1F1F1" height="188.875" id="Service" rx="2.5" ry="2.5" style="stroke:#181818;stroke-width:0.5;" width="126" x="37" y="417"/><ellipse cx="73.15" cy="433" fill="#ADD1B2" rx="11" ry="11" style="stroke:#181818;stroke-width:1.0;"/><path d="M75.9156,428.875 Q76.0719,428.6563 76.2594,428.5469 Q76.4469,428.4375 76.6656,428.4375 Q77.0406,428.4375 77.275,428.6953 Q77.5094,428.9531 77.5094,429.5625 L77.5094,431.0156 Q77.5094,431.625 77.275,431.8906 Q77.0406,432.1563 76.6656,432.1563 Q76.3219,432.1563 76.1188,431.9531 Q75.9156,431.7656 75.8063,431.25 Q75.7594,430.8906 75.5719,430.7031 Q75.2438,430.3281 74.6344,430.1094 Q74.025,429.8906 73.4,429.8906 Q72.6344,429.8906 72.0016,430.2188 Q71.3688,430.5469 70.8766,431.2969 Q70.3844,432.0469 70.3844,433.0781 L70.3844,434.1719 Q70.3844,435.4063 71.275,436.2266 Q72.1656,437.0469 73.7594,437.0469 Q74.6969,437.0469 75.3531,436.7969 Q75.7438,436.6406 76.1656,436.2031 Q76.4313,435.9375 76.5797,435.8594 Q76.7281,435.7813 76.9313,435.7813 Q77.2594,435.7813 77.5172,436.0391 Q77.775,436.2969 77.775,436.6406 Q77.775,436.9844 77.4313,437.3906 Q76.9313,437.9688 76.1344,438.2969 Q75.0563,438.75 73.7594,438.75 Q72.2438,438.75 71.0406,438.125 Q70.0563,437.625 69.3688,436.5547 Q68.6813,435.4844 68.6813,434.2031 L68.6813,433.0469 Q68.6813,431.7188 69.2984,430.5703 Q69.9156,429.4219 71.0094,428.8047 Q72.1031,428.1875 73.3375,428.1875 Q74.0719,428.1875 74.7203,428.3516 Q75.3688,428.5156 75.9156,428.875 Z " fill="#000000"/><text fill="#000000" font-family="sans-serif" font-size="14" lengthAdjust="spacing" textLength="47" x="91.85" y="438.7285">Service</text><line style="stroke:#181818;stroke-width:0.5;" x1="38" x2="162" y1="449" y2="449"/><text fill="#000000" font-family="sans-serif" font-size="14" lengthAdjust="spacing" textLength="74" x="43" y="467.5332">string name</text><text fill="#000000" font-family="sans-serif" font-size="14" lengthAdjust="spacing" textLength="100" x="43" y="485.1426">string command</text><text fill="#000000" font-family="sans-serif" font-size="14" lengthAdjust="spacing" textLength="85" x="43" y="502.752">string version</text><text fill="#000000" font-family="sans-serif" font-size="14" lengthAdjust="spacing" textLength="62" x="43" y="520.3613">json ports</text><text fill="#000000" font-family="sans-serif" font-size="14" lengthAdjust="spacing" textLength="75" x="43" y="537.9707">json expose</text><text fill="#000000" font-family="sans-serif" font-size="14" lengthAdjust="spacing" textLength="102" x="43" y="555.5801">json parameters</text><text fill="#000000" font-family="sans-serif" font-size="14" lengthAdjust="spacing" textLength="108" x="43" y="573.1895">json environment</text><text fill="#000000" font-family="sans-serif" font-size="14" lengthAdjust="spacing" textLength="114" x="43" y="590.7988">ref provisionScript</text><line style="stroke:#181818;stroke-width:0.5;" x1="38" x2="162" y1="597.875" y2="597.875"/></g><!--class ServiceInstance--><g id="elem_ServiceInstance"><rect codeLine="83" fill="#F1F1F1" height="171.2656" id="ServiceInstance" rx="2.5" ry="2.5" style="stroke:#181818;stroke-width:0.5;" width="132" x="30" y="767"/><ellipse cx="45" cy="783" fill="#ADD1B2" rx="11" ry="11" style="stroke:#181818;stroke-width:1.0;"/><path d="M47.7656,778.875 Q47.9219,778.6563 48.1094,778.5469 Q48.2969,778.4375 48.5156,778.4375 Q48.8906,778.4375 49.125,778.6953 Q49.3594,778.9531 49.3594,779.5625 L49.3594,781.0156 Q49.3594,781.625 49.125,781.8906 Q48.8906,782.1563 48.5156,782.1563 Q48.1719,782.1563 47.9688,781.9531 Q47.7656,781.7656 47.6563,781.25 Q47.6094,780.8906 47.4219,780.7031 Q47.0938,780.3281 46.4844,780.1094 Q45.875,779.8906 45.25,779.8906 Q44.4844,779.8906 43.8516,780.2188 Q43.2188,780.5469 42.7266,781.2969 Q42.2344,782.0469 42.2344,783.0781 L42.2344,784.1719 Q42.2344,785.4063 43.125,786.2266 Q44.0156,787.0469 45.6094,787.0469 Q46.5469,787.0469 47.2031,786.7969 Q47.5938,786.6406 48.0156,786.2031 Q48.2813,785.9375 48.4297,785.8594 Q48.5781,785.7813 48.7813,785.7813 Q49.1094,785.7813 49.3672,786.0391 Q49.625,786.2969 49.625,786.6406 Q49.625,786.9844 49.2813,787.3906 Q48.7813,787.9688 47.9844,788.2969 Q46.9063,788.75 45.6094,788.75 Q44.0938,788.75 42.8906,788.125 Q41.9063,787.625 41.2188,786.5547 Q40.5313,785.4844 40.5313,784.2031 L40.5313,783.0469 Q40.5313,781.7188 41.1484,780.5703 Q41.7656,779.4219 42.8594,778.8047 Q43.9531,778.1875 45.1875,778.1875 Q45.9219,778.1875 46.5703,778.3516 Q47.2188,778.5156 47.7656,778.875 Z " fill="#000000"/><text fill="#000000" font-family="sans-serif" font-size="14" lengthAdjust="spacing" textLength="100" x="59" y="788.7285">ServiceInstance</text><line style="stroke:#181818;stroke-width:0.5;" x1="31" x2="161" y1="799" y2="799"/><text fill="#000000" font-family="sans-serif" font-size="14" lengthAdjust="spacing" textLength="74" x="36" y="817.5332">string name</text><text fill="#000000" font-family="sans-serif" font-size="14" lengthAdjust="spacing" textLength="58" x="36" y="835.1426">string pid</text><text fill="#000000" font-family="sans-serif" font-size="14" lengthAdjust="spacing" textLength="55" x="36" y="852.752">string url</text><text fill="#000000" font-family="sans-serif" font-size="14" lengthAdjust="spacing" textLength="78" x="36" y="870.3613">string stdout</text><text fill="#000000" font-family="sans-serif" font-size="14" lengthAdjust="spacing" textLength="76" x="36" y="887.9707">string stderr</text><line style="stroke:#181818;stroke-width:0.5;" x1="31" x2="161" y1="895.0469" y2="895.0469"/><text fill="#000000" font-family="sans-serif" font-size="14" lengthAdjust="spacing" textLength="68" x="36" y="913.5801">launched()</text><text fill="#000000" font-family="sans-serif" font-size="14" lengthAdjust="spacing" textLength="67" x="36" y="931.1895">provision()</text></g><!--class StackInstance--><g id="elem_StackInstance"><rect codeLine="116" fill="#F1F1F1" height="171.2656" id="StackInstance" rx="2.5" ry="2.5" style="stroke:#181818;stroke-width:0.5;" width="120" x="172" y="1016"/><ellipse cx="187" cy="1032" fill="#ADD1B2" rx="11" ry="11" style="stroke:#181818;stroke-width:1.0;"/><path d="M189.7656,1027.875 Q189.9219,1027.6563 190.1094,1027.5469 Q190.2969,1027.4375 190.5156,1027.4375 Q190.8906,1027.4375 191.125,1027.6953 Q191.3594,1027.9531 191.3594,1028.5625 L191.3594,1030.0156 Q191.3594,1030.625 191.125,1030.8906 Q190.8906,1031.1563 190.5156,1031.1563 Q190.1719,1031.1563 189.9688,1030.9531 Q189.7656,1030.7656 189.6563,1030.25 Q189.6094,1029.8906 189.4219,1029.7031 Q189.0938,1029.3281 188.4844,1029.1094 Q187.875,1028.8906 187.25,1028.8906 Q186.4844,1028.8906 185.8516,1029.2188 Q185.2188,1029.5469 184.7266,1030.2969 Q184.2344,1031.0469 184.2344,1032.0781 L184.2344,1033.1719 Q184.2344,1034.4063 185.125,1035.2266 Q186.0156,1036.0469 187.6094,1036.0469 Q188.5469,1036.0469 189.2031,1035.7969 Q189.5938,1035.6406 190.0156,1035.2031 Q190.2813,1034.9375 190.4297,1034.8594 Q190.5781,1034.7813 190.7813,1034.7813 Q191.1094,1034.7813 191.3672,1035.0391 Q191.625,1035.2969 191.625,1035.6406 Q191.625,1035.9844 191.2813,1036.3906 Q190.7813,1036.9688 189.9844,1037.2969 Q188.9063,1037.75 187.6094,1037.75 Q186.0938,1037.75 184.8906,1037.125 Q183.9063,1036.625 183.2188,1035.5547 Q182.5313,1034.4844 182.5313,1033.2031 L182.5313,1032.0469 Q182.5313,1030.7188 183.1484,1029.5703 Q183.7656,1028.4219 184.8594,1027.8047 Q185.9531,1027.1875 187.1875,1027.1875 Q187.9219,1027.1875 188.5703,1027.3516 Q189.2188,1027.5156 189.7656,1027.875 Z " fill="#000000"/><text fill="#000000" font-family="sans-serif" font-size="14" lengthAdjust="spacing" textLength="88" x="201" y="1037.7285">StackInstance</text><line style="stroke:#181818;stroke-width:0.5;" x1="173" x2="291" y1="1048" y2="1048"/><text fill="#000000" font-family="sans-serif" font-size="14" lengthAdjust="spacing" textLength="74" x="178" y="1066.5332">string name</text><text fill="#000000" font-family="sans-serif" font-size="14" lengthAdjust="spacing" textLength="78" x="178" y="1084.1426">string stdout</text><text fill="#000000" font-family="sans-serif" font-size="14" lengthAdjust="spacing" textLength="76" x="178" y="1101.752">string stderr</text><text fill="#000000" font-family="sans-serif" font-size="14" lengthAdjust="spacing" textLength="58" x="178" y="1119.3613">string pid</text><text fill="#000000" font-family="sans-serif" font-size="14" lengthAdjust="spacing" textLength="55" x="178" y="1136.9707">string url</text><line style="stroke:#181818;stroke-width:0.5;" x1="173" x2="291" y1="1144.0469" y2="1144.0469"/><text fill="#000000" font-family="sans-serif" font-size="14" lengthAdjust="spacing" textLength="68" x="178" y="1162.5801">launched()</text><text fill="#000000" font-family="sans-serif" font-size="14" lengthAdjust="spacing" textLength="67" x="178" y="1180.1895">provision()</text></g><!--class i--><g id="elem_i"><rect codeLine="30" fill="#F1F1F1" height="224.0938" id="i" rx="2.5" ry="2.5" style="stroke:#181818;stroke-width:0.5;" width="226" x="30" y="115"/><ellipse cx="73.8" cy="131" fill="#B4A7E5" rx="11" ry="11" style="stroke:#181818;stroke-width:1.0;"/><path d="M74.7531,127.6406 L74.7531,134.2969 L76.4719,134.2969 Q77.0813,134.2969 77.3469,134.5313 Q77.6125,134.7656 77.6125,135.1563 Q77.6125,135.5313 77.3469,135.7656 Q77.0813,136 76.4719,136 L71.3313,136 Q70.7219,136 70.4563,135.7656 Q70.1906,135.5313 70.1906,135.1406 Q70.1906,134.7656 70.4563,134.5313 Q70.7219,134.2969 71.3313,134.2969 L73.05,134.2969 L73.05,127.6406 L71.3313,127.6406 Q70.7219,127.6406 70.4563,127.4063 Q70.1906,127.1719 70.1906,126.7813 Q70.1906,126.4063 70.4563,126.1719 Q70.7219,125.9375 71.3313,125.9375 L76.4719,125.9375 Q77.0813,125.9375 77.3469,126.1719 Q77.6125,126.4063 77.6125,126.7813 Q77.6125,127.1719 77.3469,127.4063 Q77.0813,127.6406 76.4719,127.6406 L74.7531,127.6406 Z " fill="#000000"/><text fill="#000000" font-family="sans-serif" font-size="14" font-style="italic" lengthAdjust="spacing" textLength="130" x="94.2" y="136.7285">Application Manager</text><line style="stroke:#181818;stroke-width:0.5;" x1="31" x2="255" y1="147" y2="147"/><line style="stroke:#181818;stroke-width:0.5;" x1="31" x2="255" y1="155" y2="155"/><text fill="#000000" font-family="sans-serif" font-size="14" lengthAdjust="spacing" textLength="207" x="36" y="173.5332">/sabr/aml/am/application create()</text><text fill="#000000" font-family="sans-serif" font-size="14" lengthAdjust="spacing" textLength="207" x="36" y="191.1426">/sabr/aml/am/application/create()</text><text fill="#000000" font-family="sans-serif" font-size="14" lengthAdjust="spacing" textLength="214" x="36" y="208.752">/sabr/aml/am/application/destroy()</text><text fill="#000000" font-family="sans-serif" font-size="14" lengthAdjust="spacing" textLength="184" x="36" y="226.3613">/sabr/aml/am/application/list()</text><text fill="#000000" font-family="sans-serif" font-size="14" lengthAdjust="spacing" textLength="211" x="36" y="243.9707">/sabr/aml/am/application/update()</text><text fill="#000000" font-family="sans-serif" font-size="14" lengthAdjust="spacing" textLength="202" x="36" y="261.5801">/sabr/aml/am/service/deployed()</text><text fill="#000000" font-family="sans-serif" font-size="14" lengthAdjust="spacing" textLength="160" x="36" y="279.1895">/sabr/aml/am/service/kill()</text><text fill="#000000" font-family="sans-serif" font-size="14" lengthAdjust="spacing" textLength="201" x="36" y="296.7988">/sabr/aml/am/service/provision()</text><text fill="#000000" font-family="sans-serif" font-size="14" lengthAdjust="spacing" textLength="181" x="36" y="314.4082">/sabr/aml/am/service/stderr()</text><text fill="#000000" font-family="sans-serif" font-size="14" lengthAdjust="spacing" textLength="183" x="36" y="332.0176">/sabr/aml/am/service/stdout()</text></g><g id="elem_ilol11"><ellipse cx="98" cy="11" fill="#F1F1F1" rx="5" ry="5" style="stroke:#181818;stroke-width:1.5;"/></g><text fill="#000000" font-family="sans-serif" font-size="14" lengthAdjust="spacing" textLength="21" x="87.5" y="30.5332">CLI</text><g id="elem_ilol14"><ellipse cx="143" cy="11" fill="#F1F1F1" rx="5" ry="5" style="stroke:#181818;stroke-width:1.5;"/></g><text fill="#000000" font-family="sans-serif" font-size="14" lengthAdjust="spacing" textLength="37" x="124.5" y="30.5332">REST</text><g id="elem_ilol17"><ellipse cx="188" cy="11" fill="#F1F1F1" rx="5" ry="5" style="stroke:#181818;stroke-width:1.5;"/></g><text fill="#000000" font-family="sans-serif" font-size="14" lengthAdjust="spacing" textLength="29" x="173.5" y="30.5332">Web</text><!--link ilol11 to i--><g id="link_ilol11_i"><path d="M98.86,16.08 C101.6,29.14 110.53,71.57 119.64,114.9 " fill="none" id="ilol11-i" style="stroke:#181818;stroke-width:1.0;"/></g><!--link ilol14 to i--><g id="link_ilol14_i"><path d="M143,16.08 C143,29.14 143,71.57 143,114.9 " fill="none" id="ilol14-i" style="stroke:#181818;stroke-width:1.0;"/></g><!--link ilol17 to i--><g id="link_ilol17_i"><path d="M187.14,16.08 C184.4,29.14 175.47,71.57 166.36,114.9 " fill="none" id="ilol17-i" style="stroke:#181818;stroke-width:1.0;"/></g><!--link Application to Stack--><g id="link_Application_Stack"><path codeLine="55" d="M451.8328,624.08 C433.2728,548.93 402.0786,422.665 378.5786,327.515 " fill="none" id="Application-Stack" style="stroke:#181818;stroke-width:1.0;"/><polygon fill="#181818" points="454.71,635.73,457.1547,628.9459,451.8328,624.08,449.3881,630.8641,454.71,635.73" style="stroke:#181818;stroke-width:1.0;"/><polygon fill="#181818" points="377.14,321.69,375.4146,331.3866,378.3389,326.5441,383.1813,329.4684,377.14,321.69" style="stroke:#181818;stroke-width:1.0;"/><text fill="#000000" font-family="sans-serif" font-size="13" lengthAdjust="spacing" textLength="39" x="392" y="383.4951">stacks</text><text fill="#000000" font-family="sans-serif" font-size="13" lengthAdjust="spacing" textLength="7" x="371.5823" y="342.7439">n</text></g><!--link Stack to Application--><g id="link_Stack_Application"><path codeLine="108" d="M416.5958,331.8842 C420.1958,337.7642 417.51,333.35 421,339 C429.3,352.42 434.96,354.04 440,369 C470.45,459.42 472.2717,566.1734 470.1317,629.7834 " fill="none" id="Stack-Application" style="stroke:#181818;stroke-width:1.0;"/><polygon fill="none" points="410.33,321.65,410.0515,328.8557,416.5958,331.8842,416.8743,324.6785,410.33,321.65" style="stroke:#181818;stroke-width:1.0;"/><polygon fill="#181818" points="469.93,635.78,474.2303,626.9196,470.0981,630.7828,466.2349,626.6506,469.93,635.78" style="stroke:#181818;stroke-width:1.0;"/><text fill="#000000" font-family="sans-serif" font-size="13" lengthAdjust="spacing" textLength="21" x="446" y="383.4951">app</text><text fill="#000000" font-family="sans-serif" font-size="13" lengthAdjust="spacing" textLength="7" x="462.8498" y="625.0544">1</text></g><!--link Application to ApplicationInstance--><g id="link_Application_ApplicationInstance"><path codeLine="56" d="M446.2456,748.5707 C428.1856,804.0507 404.56,885.52 394,968 C380.56,1073.02 386.5459,1191.4288 391.8959,1258.9188 " fill="none" id="Application-ApplicationInstance" style="stroke:#181818;stroke-width:1.0;"/><polygon fill="#181818" points="449.96,737.16,444.2992,741.6272,446.2456,748.5707,451.9063,744.1035,449.96,737.16" style="stroke:#181818;stroke-width:1.0;"/><polygon fill="#181818" points="392.37,1264.9,395.6463,1255.6121,391.9749,1259.9156,387.6713,1256.2442,392.37,1264.9" style="stroke:#181818;stroke-width:1.0;"/><text fill="#000000" font-family="sans-serif" font-size="13" lengthAdjust="spacing" textLength="56" x="395" y="982.4951">instances</text><text fill="#000000" font-family="sans-serif" font-size="13" lengthAdjust="spacing" textLength="7" x="384.2267" y="1254.1913">n</text></g><!--link ApplicationInstance to Application--><g id="link_ApplicationInstance_Application"><path codeLine="64" d="M410.7438,1253.0027 C424.6438,1188.9227 445.27,1085.67 456,986 C465.4,898.73 467.1679,802.38 467.2879,743.04 " fill="none" id="ApplicationInstance-Application" style="stroke:#181818;stroke-width:1.0;"/><polygon fill="none" points="408.2,1264.73,413.381,1259.7143,410.7438,1253.0027,405.5628,1258.0184,408.2,1264.73" style="stroke:#181818;stroke-width:1.0;"/><polygon fill="#181818" points="467.3,737.04,463.2818,746.0319,467.2899,742.04,471.2818,746.0481,467.3,737.04" style="stroke:#181818;stroke-width:1.0;"/><text fill="#000000" font-family="sans-serif" font-size="13" lengthAdjust="spacing" textLength="21" x="458" y="982.4951">app</text><text fill="#000000" font-family="sans-serif" font-size="13" lengthAdjust="spacing" textLength="7" x="459.87" y="758.4366">1</text></g><!--link Service to Stack--><g id="link_Service_Stack"><path codeLine="77" d="M48.6957,405.1305 C45.9157,387.7405 50.16,382.64 62,369 C124.4,297.15 192.55,388.21 274,339 C281.93,334.21 284.985,332.469 291.785,325.899 " fill="none" id="Service-Stack" style="stroke:#181818;stroke-width:1.0;"/><polygon fill="none" points="50.59,416.98,53.5927,410.4238,48.6957,405.1305,45.693,411.6867,50.59,416.98" style="stroke:#181818;stroke-width:1.0;"/><polygon fill="#181818" points="296.1,321.73,286.8482,325.1069,292.5042,325.2042,292.4069,330.8602,296.1,321.73" style="stroke:#181818;stroke-width:1.0;"/><text fill="#000000" font-family="sans-serif" font-size="13" lengthAdjust="spacing" textLength="32" x="63" y="383.4951">stack</text><text fill="#000000" font-family="sans-serif" font-size="13" lengthAdjust="spacing" textLength="7" x="284.5909" y="342.7869">1</text></g><!--link Stack to Service--><g id="link_Stack_Service"><path codeLine="106" d="M286.6253,329.9958 C280.0653,336.5258 281.52,334.01 274,339 C224.23,372.02 186.68,328.27 143,369 C129.2,381.87 121.8046,393.3619 115.3846,411.2719 " fill="none" id="Stack-Service" style="stroke:#181818;stroke-width:1.0;"/><polygon fill="#181818" points="295.13,321.53,288.0557,322.928,286.6253,329.9958,293.6996,328.5978,295.13,321.53" style="stroke:#181818;stroke-width:1.0;"/><polygon fill="#181818" points="113.36,416.92,120.1623,409.7976,115.0472,412.2133,112.6315,407.0981,113.36,416.92" style="stroke:#181818;stroke-width:1.0;"/><text fill="#000000" font-family="sans-serif" font-size="13" lengthAdjust="spacing" textLength="47" x="144" y="383.4951">services</text><text fill="#000000" font-family="sans-serif" font-size="13" lengthAdjust="spacing" textLength="7" x="107.1457" y="406.2598">n</text></g><!--link Stack to Service--><g id="link_Stack_Service"><path codeLine="110" d="M282.9853,329.9223 C277.5553,336.2923 279.72,333.3 274,339 C257.74,355.19 249.24,353.87 232,369 C208.26,389.83 188.2249,410.0267 167.2249,432.8267 " fill="none" id="Stack-Service-1" style="stroke:#181818;stroke-width:1.0;"/><polygon fill="none" points="290.77,320.79,283.8336,322.7613,282.9853,329.9223,289.9218,327.951,290.77,320.79" style="stroke:#181818;stroke-width:1.0;"/><polygon fill="#181818" points="163.16,437.24,172.1995,433.33,166.5474,433.5623,166.3151,427.9102,163.16,437.24" style="stroke:#181818;stroke-width:1.0;"/><text fill="#000000" font-family="sans-serif" font-size="13" lengthAdjust="spacing" textLength="45" x="233" y="383.4951">children</text><text fill="#000000" font-family="sans-serif" font-size="13" lengthAdjust="spacing" textLength="7" x="170.8676" y="425.2514">n</text></g><!--link Stack to Service--><g id="link_Stack_Service"><path codeLine="111" d="M317.5116,332.7177 C307.1616,355.5277 299.04,367.9 283,387 C250.09,426.18 206.9833,455.1733 168.2433,476.7233 " fill="none" id="Stack-Service-2" style="stroke:#181818;stroke-width:1.0;"/><polygon fill="none" points="322.47,321.79,316.3482,325.601,317.5116,332.7177,323.6334,328.9066,322.47,321.79" style="stroke:#181818;stroke-width:1.0;"/><polygon fill="#181818" points="163,479.64,172.8095,478.7605,167.3695,477.2094,168.9205,471.7693,163,479.64" style="stroke:#181818;stroke-width:1.0;"/><text fill="#000000" font-family="sans-serif" font-size="13" lengthAdjust="spacing" textLength="36" x="295" y="383.4951">parent</text><text fill="#000000" font-family="sans-serif" font-size="13" lengthAdjust="spacing" textLength="7" x="171.1047" y="472.3062">1</text></g><!--reverse link Service to Stack--><g id="link_Service_Stack"><path codeLine="114" d="M103.0377,399.4238 C107.0177,381.6238 110.38,382.07 123,369 C170.53,319.78 216.44,375.99 274,339 C281.69,334.06 288.88,328.09 295.54,321.52 " fill="none" id="Service-backto-Stack" style="stroke:#181818;stroke-width:1.0;"/><polygon fill="none" points="99.11,416.99,108.8931,400.733,97.1823,398.1145,99.11,416.99" style="stroke:#181818;stroke-width:1.0;"/></g><!--link Service to Service--><g id="link_Service_Service"><path codeLine="78" d="M175.149,499.2937 C194.669,499.5437 198,503.51 198,511.5 C198,519.49 188.6695,523.5332 169.1495,523.7832 " fill="none" id="Service-Service" style="stroke:#181818;stroke-width:1.0;"/><polygon fill="none" points="163.15,499.14,169.0983,503.2165,175.149,499.2937,169.2007,495.2172,163.15,499.14" style="stroke:#181818;stroke-width:1.0;"/><polygon fill="#181818" points="163.15,523.86,172.2005,527.7444,168.1496,523.796,172.098,519.7451,163.15,523.86" style="stroke:#181818;stroke-width:1.0;"/><text fill="#000000" font-family="sans-serif" font-size="13" lengthAdjust="spacing" textLength="45" x="204" y="516.9951">children</text><text fill="#000000" font-family="sans-serif" font-size="13" lengthAdjust="spacing" textLength="7" x="170.8564" y="521.8868">n</text></g><!--link Service to Service--><g id="link_Service_Service"><path codeLine="79" d="M175.1379,487.2822 C220.0679,480.8222 255,490.04 255,511.5 C255,532.96 214.1289,541.3239 169.1989,534.8639 " fill="none" id="Service-Service-1" style="stroke:#181818;stroke-width:1.0;"/><polygon fill="none" points="163.26,488.99,169.7682,492.0954,175.1379,487.2822,168.6297,484.1768,163.26,488.99" style="stroke:#181818;stroke-width:1.0;"/><polygon fill="#181818" points="163.26,534.01,171.5991,539.2501,168.2091,534.7216,172.7377,531.3316,163.26,534.01" style="stroke:#181818;stroke-width:1.0;"/><text fill="#000000" font-family="sans-serif" font-size="13" lengthAdjust="spacing" textLength="36" x="261" y="516.9951">parent</text><text fill="#000000" font-family="sans-serif" font-size="13" lengthAdjust="spacing" textLength="7" x="170.9791" y="551.0604">1</text></g><!--link Service to ServiceInstance--><g id="link_Service_ServiceInstance"><path codeLine="80" d="M115.5869,618.0153 C116.7169,628.0953 116.33,626.28 117,636 C120.07,680.78 121.07,692.3 117,737 C116.12,746.66 115.7276,750.7875 114.2176,760.7675 " fill="none" id="Service-ServiceInstance" style="stroke:#181818;stroke-width:1.0;"/><polygon fill="#181818" points="114.25,606.09,110.9433,612.4983,115.5869,618.0153,118.8935,611.607,114.25,606.09" style="stroke:#181818;stroke-width:1.0;"/><polygon fill="#181818" points="113.32,766.7,118.6214,758.3997,114.068,761.7563,110.7114,757.2029,113.32,766.7" style="stroke:#181818;stroke-width:1.0;"/><text fill="#000000" font-family="sans-serif" font-size="13" lengthAdjust="spacing" textLength="56" x="121" y="691.9951">instances</text><text fill="#000000" font-family="sans-serif" font-size="13" lengthAdjust="spacing" textLength="7" x="107.5077" y="756.1379">n</text></g><!--link ServiceInstance to Service--><g id="link_ServiceInstance_Service"><path codeLine="92" d="M73.2542,754.9898 C71.4542,744.9898 72.05,746.71 71,737 C66.18,692.37 65.83,680.59 71,636 C72.13,626.26 72.6268,622.0758 74.5168,612.0658 " fill="none" id="ServiceInstance-Service" style="stroke:#181818;stroke-width:1.0;"/><polygon fill="none" points="75.38,766.8,78.2538,760.1863,73.2542,754.9898,70.3803,761.6035,75.38,766.8" style="stroke:#181818;stroke-width:1.0;"/><polygon fill="#181818" points="75.63,606.17,70.0297,614.2716,74.7023,611.0832,77.8908,615.7559,75.63,606.17" style="stroke:#181818;stroke-width:1.0;"/><text fill="#000000" font-family="sans-serif" font-size="13" lengthAdjust="spacing" textLength="36" x="72" y="691.9951">parent</text><text fill="#000000" font-family="sans-serif" font-size="13" lengthAdjust="spacing" textLength="7" x="66.5833" y="627.2224">1</text></g><!--link ServiceInstance to StackInstance--><g id="link_ServiceInstance_StackInstance"><path codeLine="93" d="M148.3972,948.6723 C162.2372,973.8123 168.7155,985.5643 182.5555,1010.6943 " fill="none" id="ServiceInstance-StackInstance" style="stroke:#181818;stroke-width:1.0;"/><polygon fill="none" points="142.61,938.16,141.9995,945.3452,148.3972,948.6723,149.0077,941.4871,142.61,938.16" style="stroke:#181818;stroke-width:1.0;"/><polygon fill="#181818" points="185.45,1015.95,184.6121,1006.1369,183.0379,1011.5703,177.6045,1009.9962,185.45,1015.95" style="stroke:#181818;stroke-width:1.0;"/><text fill="#000000" font-family="sans-serif" font-size="13" lengthAdjust="spacing" textLength="32" x="170" y="982.4951">stack</text><text fill="#000000" font-family="sans-serif" font-size="13" lengthAdjust="spacing" textLength="7" x="173.9924" y="1005.1171">1</text></g><!--link StackInstance to ServiceInstance--><g id="link_StackInstance_ServiceInstance"><path codeLine="127" d="M162.3893,1056.0876 C136.3793,1036.5276 118.07,1017.3 103,986 C95.95,971.37 92.8639,960.7195 91.2039,944.3095 " fill="none" id="StackInstance-ServiceInstance" style="stroke:#181818;stroke-width:1.0;"/><polygon fill="#181818" points="171.98,1063.3,169.5888,1056.4969,162.3893,1056.0876,164.7805,1062.8907,171.98,1063.3" style="stroke:#181818;stroke-width:1.0;"/><polygon fill="#181818" points="90.6,938.34,87.5261,947.6969,91.1032,943.3146,95.4855,946.8917,90.6,938.34" style="stroke:#181818;stroke-width:1.0;"/><text fill="#000000" font-family="sans-serif" font-size="13" lengthAdjust="spacing" textLength="47" x="104" y="982.4951">services</text><text fill="#000000" font-family="sans-serif" font-size="13" lengthAdjust="spacing" textLength="7" x="82.8352" y="959.9032">n</text></g><!--reverse link ServiceInstance to StackInstance--><g id="link_ServiceInstance_StackInstance"><path codeLine="131" d="M79.3516,956.3295 C79.4716,972.7395 81.97,971.36 89,986 C106.28,1021.98 140.99,1050.2 171.88,1069.62 " fill="none" id="ServiceInstance-backto-StackInstance" style="stroke:#181818;stroke-width:1.0;"/><polygon fill="none" points="79.22,938.33,73.3518,956.3734,85.3515,956.2856,79.22,938.33" style="stroke:#181818;stroke-width:1.0;"/></g><!--link Stack to StackInstance--><g id="link_Stack_StackInstance"><path codeLine="107" d="M355.2663,333.85 C354.9963,429.98 349.66,559.71 322,606 C309.48,626.95 287.63,614.54 276,636 C254.62,675.47 272.3,692.26 276,737 C277.11,750.47 279.89,753.53 281,767 C287.27,842.74 292.09,862.81 281,938 C277.19,963.8 271.9123,985.4416 264.3423,1010.2316 " fill="none" id="Stack-StackInstance" style="stroke:#181818;stroke-width:1.0;"/><polygon fill="#181818" points="355.3,321.85,351.2832,327.8387,355.2663,333.85,359.2831,327.8612,355.3,321.85" style="stroke:#181818;stroke-width:1.0;"/><polygon fill="#181818" points="262.59,1015.97,269.0441,1008.5306,264.0503,1011.188,261.3929,1006.1942,262.59,1015.97" style="stroke:#181818;stroke-width:1.0;"/><text fill="#000000" font-family="sans-serif" font-size="13" lengthAdjust="spacing" textLength="56" x="277" y="691.9951">instances</text><text fill="#000000" font-family="sans-serif" font-size="13" lengthAdjust="spacing" textLength="7" x="258.0027" y="1005.1389">n</text></g><!--link StackInstance to Stack--><g id="link_StackInstance_Stack"><path codeLine="126" d="M275.4932,1004.6929 C279.4632,994.7329 278.77,995.79 282,986 C288.85,965.21 288.16,959.35 293,938 C313.22,848.72 324.7,827.57 338,737 C360.65,582.7 357.44,542.85 363,387 C363.75,365.86 363.5489,349.1525 362.4789,327.7025 " fill="none" id="StackInstance-Stack" style="stroke:#181818;stroke-width:1.0;"/><polygon fill="none" points="271.05,1015.84,276.9873,1011.7475,275.4932,1004.6929,269.5559,1008.7854,271.05,1015.84" style="stroke:#181818;stroke-width:1.0;"/><polygon fill="#181818" points="362.18,321.71,358.6334,330.8981,362.4291,326.7038,366.6234,330.4995,362.18,321.71" style="stroke:#181818;stroke-width:1.0;"/><text fill="#000000" font-family="sans-serif" font-size="13" lengthAdjust="spacing" textLength="32" x="351" y="691.9951">stack</text><text fill="#000000" font-family="sans-serif" font-size="13" lengthAdjust="spacing" textLength="7" x="355.5237" y="342.7654">1</text></g><!--link Stack to Stack--><g id="link_Stack_Stack"><path codeLine="109" d="M429.1449,199.2503 C448.6649,199.8203 452,208.84 452,227 C452,245.16 442.6674,254.3549 423.1474,254.9249 " fill="none" id="Stack-Stack" style="stroke:#181818;stroke-width:1.0;"/><polygon fill="none" points="417.15,198.9,423.0307,203.0734,429.1449,199.2503,423.2642,195.0768,417.15,198.9" style="stroke:#181818;stroke-width:1.0;"/><polygon fill="#181818" points="417.15,255.1,426.2629,258.8356,422.1479,254.9541,426.0294,250.839,417.15,255.1" style="stroke:#181818;stroke-width:1.0;"/><text fill="#000000" font-family="sans-serif" font-size="13" lengthAdjust="spacing" textLength="32" x="458" y="232.4951">stack</text><text fill="#000000" font-family="sans-serif" font-size="13" lengthAdjust="spacing" textLength="7" x="424.8564" y="254.9467">1</text></g><!--link StackInstance to ApplicationInstance--><g id="link_StackInstance_ApplicationInstance"><path codeLine="125" d="M299.4101,1189.1101 C321.5201,1217.5201 334.9148,1234.7251 354.6448,1260.0751 " fill="none" id="StackInstance-ApplicationInstance" style="stroke:#181818;stroke-width:1.0;"/><polygon fill="none" points="292.04,1179.64,292.5683,1186.8317,299.4101,1189.1101,298.8817,1181.9184,292.04,1179.64" style="stroke:#181818;stroke-width:1.0;"/><polygon fill="#181818" points="358.33,1264.81,355.9588,1255.2508,355.259,1260.8642,349.6456,1260.1644,358.33,1264.81" style="stroke:#181818;stroke-width:1.0;"/><text fill="#000000" font-family="sans-serif" font-size="13" lengthAdjust="spacing" textLength="21" x="335" y="1231.4951">app</text><text fill="#000000" font-family="sans-serif" font-size="13" lengthAdjust="spacing" textLength="7" x="345.3998" y="1254.0886">1</text></g><!--link StackInstance to Service--><g id="link_StackInstance_Service"><path codeLine="128" d="M236.4391,1003.8624 C238.3391,908.5224 232.64,762.39 186,636 C180.26,620.43 175.262,610.0705 166.202,595.6505 " fill="none" id="StackInstance-Service" style="stroke:#181818;stroke-width:1.0;"/><polygon fill="none" points="236.2,1015.86,240.3188,1009.9409,236.4391,1003.8624,232.3203,1009.7815,236.2,1015.86" style="stroke:#181818;stroke-width:1.0;"/><polygon fill="#181818" points="163.01,590.57,164.4111,600.3187,165.67,594.8037,171.185,596.0627,163.01,590.57" style="stroke:#181818;stroke-width:1.0;"/><text fill="#000000" font-family="sans-serif" font-size="13" lengthAdjust="spacing" textLength="36" x="236" y="857.9951">parent</text><text fill="#000000" font-family="sans-serif" font-size="13" lengthAdjust="spacing" textLength="7" x="171.1159" y="596.7558">1</text></g><!--link Application Manager to Service Orchestrator--><g id="link_Application Manager_Service Orchestrator"><path codeLine="137" d="M550.0851,247.6969 C550.1835,247.9365 550.2827,248.1781 550.3826,248.4214 C550.5824,248.9082 550.7853,249.4024 550.9912,249.9039 C551.4031,250.9069 551.8269,251.9392 552.2623,252.9995 C553.133,255.1202 554.0499,257.3534 555.0094,259.6902 C562.685,278.3841 573.0825,303.7056 584.33,331.0962 C606.825,385.8775 630.4404,443.3849 644.7604,478.2499 " fill="none" id="Application Manager-to-Service Orchestrator" style="stroke:#181818;stroke-width:1.0;"/><polygon fill="#181818" points="647.04,483.8,647.3207,473.9551,645.1404,479.1749,639.9206,476.9946,647.04,483.8" style="stroke:#181818;stroke-width:1.0;"/></g><!--SRC=[xLTDQnin4Btlhn3k9J4O9rTJ2YNq46WfT0izJxHoeaOh2Kbh6jh-zyv-UZ-ajNPfRX7O5j9xqipepKZMG9_XaP5Doio9KqQ-6lh4h3FWbDcGTm378m3vdH1iVvD4j_YFMWjEmN4boHUGE5R2RsvAGWEllif61LXBKeVSPgfUpGFgBNilhGE99iLJBa5R9-DWiGPKZWN16BJeg5K4BXqpHw0XE5Z2UxkKRM_XmUmX5_ZPGuz43GF7hgwZqFjbwAoKYNg9XGjkNIosqDa5GsnzH6Y45kg5PJ7OPov434uRTU8MxOW1MvSnOoAHgcX3q4W3nN7t-PvSNUzsX2VVFgNVs_uFzj1s5oNTMPPzz6OacAhXyN7vI2JaB3XvOgQCn7JUi2CvUiOxtVTRt-xjRlU1RD2YkXuSS2VyjTwLWbnVcJXWvjJTuMBdU4_Zqf9NnmVfhh31wPnPYwUqF4oTLwfo-NRWChgAsJBlP5F3LZj6LPw3p9OBuwT50xKopWRcs2-jB0iHmQ1LM023R7dYHicSIUSNPPUzAJLSkyZGjpT35-w1EeFY7D9AKJS31qAVkCWCav7SspuNe-3rRyJSZdPTdWeZucgrQ1vMIc74JFgKDN5k6ejhC0vL4r18VBACRu2kXQfvK0FJr5jwC9uL1ay4dwgcHrD2tj8tCdshRDrEix2vVCFNovWvEYX_7aqNY2pJCyJ8WjCZBImte-tcD3ryvRRGzt_mEP9svat4-XykqrNLO6qDUgKgCb2GJnSzULtKHw2KnEca8yzS5749ih0cUlNJhN7MKJjKuylNSDNpltEhdRr_KvFa7m00]--></g></svg>