<?xml version="1.0" encoding="us-ascii" standalone="no"?><svg xmlns="http://www.w3.org/2000/svg" xmlns:xlink="http://www.w3.org/1999/xlink" contentStyleType="text/css" height="1141px" preserveAspectRatio="none" style="width:831px;height:1141px;background:#FFFFFF;" version="1.1" viewBox="0 0 831 1141" width="831px" zoomAndPan="magnify"><defs/><g><!--cluster sabr--><g id="cluster_sabr"><path d="M8.5,6 L40.5,6 A3.75,3.75 0 0 1 43,8.5 L50,29.6094 L528.5,29.6094 A2.5,2.5 0 0 1 531,32.1094 L531,1024.5 A2.5,2.5 0 0 1 528.5,1027 L8.5,1027 A2.5,2.5 0 0 1 6,1024.5 L6,8.5 A2.5,2.5 0 0 1 8.5,6 " fill="none" style="stroke:#000000;stroke-width:1.5;"/><line style="stroke:#000000;stroke-width:1.5;" x1="6" x2="50" y1="29.6094" y2="29.6094"/><text fill="#000000" font-family="sans-serif" font-size="14" font-weight="bold" lengthAdjust="spacing" textLength="31" x="10" y="22.5332">sabr</text></g><!--cluster sabraml--><g id="cluster_sabraml"><path d="M32.5,50 L57.5,50 A3.75,3.75 0 0 1 60,52.5 L67,73.6094 L504.5,73.6094 A2.5,2.5 0 0 1 507,76.1094 L507,1000.5 A2.5,2.5 0 0 1 504.5,1003 L32.5,1003 A2.5,2.5 0 0 1 30,1000.5 L30,52.5 A2.5,2.5 0 0 1 32.5,50 " fill="none" style="stroke:#000000;stroke-width:1.5;"/><line style="stroke:#000000;stroke-width:1.5;" x1="30" x2="67" y1="73.6094" y2="73.6094"/><text fill="#000000" font-family="sans-serif" font-size="14" font-weight="bold" lengthAdjust="spacing" textLength="24" x="34" y="66.5332">aml</text></g><!--cluster sabramlam--><g id="cluster_sabramlam"><path d="M64.5,170 L85.5,170 A3.75,3.75 0 0 1 88,172.5 L95,193.6094 L472.5,193.6094 A2.5,2.5 0 0 1 475,196.1094 L475,968.5 A2.5,2.5 0 0 1 472.5,971 L64.5,971 A2.5,2.5 0 0 1 62,968.5 L62,172.5 A2.5,2.5 0 0 1 64.5,170 " fill="#00AAFF" style="stroke:#000000;stroke-width:1.5;"/><line style="stroke:#000000;stroke-width:1.5;" x1="62" x2="95" y1="193.6094" y2="193.6094"/><text fill="#000000" font-family="sans-serif" font-size="14" font-weight="bold" lengthAdjust="spacing" textLength="20" x="66" y="186.5332">am</text></g><!--cluster ManageApplication--><g id="cluster_ManageApplication"><rect fill="#FFFFAA" height="242" rx="2.5" ry="2.5" style="stroke:#181818;stroke-width:1.0;" width="207" x="618" y="208"/><text fill="#000000" font-family="sans-serif" font-size="14" font-weight="bold" lengthAdjust="spacing" textLength="138" x="652.5" y="224.5332">Manage Application</text></g><!--entity sabramlamapplicationcreate--><g id="elem_sabramlamapplicationcreate"><ellipse cx="414" cy="116" fill="#F1F1F1" rx="8" ry="8" style="stroke:#181818;stroke-width:0.5;"/><text fill="#000000" font-family="sans-serif" font-size="14" lengthAdjust="spacing" textLength="40" x="394" y="147.5332">create</text></g><!--entity sabramlamapplication--><g id="elem_sabramlamapplication"><rect fill="#F1F1F1" height="47.6094" rx="2.5" ry="2.5" style="stroke:#181818;stroke-width:0.5;" width="108" x="86" y="268"/><rect fill="#F1F1F1" height="10" style="stroke:#181818;stroke-width:0.5;" width="15" x="174" y="273"/><rect fill="#F1F1F1" height="2" style="stroke:#181818;stroke-width:0.5;" width="4" x="172" y="275"/><rect fill="#F1F1F1" height="2" style="stroke:#181818;stroke-width:0.5;" width="4" x="172" y="279"/><text fill="#000000" font-family="sans-serif" font-size="14" lengthAdjust="spacing" textLength="68" x="101" y="302.5332">application</text></g><!--entity sabramlamapplicationdestroy--><g id="elem_sabramlamapplicationdestroy"><ellipse cx="414" cy="339" fill="#F1F1F1" rx="8" ry="8" style="stroke:#181818;stroke-width:0.5;"/><text fill="#000000" font-family="sans-serif" font-size="14" lengthAdjust="spacing" textLength="47" x="390.5" y="370.5332">destroy</text></g><!--entity sabramlamapplicationlist--><g id="elem_sabramlamapplicationlist"><ellipse cx="414" cy="244" fill="#F1F1F1" rx="8" ry="8" style="stroke:#181818;stroke-width:0.5;"/><text fill="#000000" font-family="sans-serif" font-size="14" lengthAdjust="spacing" textLength="17" x="405.5" y="275.5332">list</text></g><!--entity sabramlamapplicationupdate--><g id="elem_sabramlamapplicationupdate"><ellipse cx="414" cy="434" fill="#F1F1F1" rx="8" ry="8" style="stroke:#181818;stroke-width:0.5;"/><text fill="#000000" font-family="sans-serif" font-size="14" lengthAdjust="spacing" textLength="44" x="392" y="465.5332">update</text></g><!--entity sabramlamservice--><g id="elem_sabramlamservice"><rect fill="#F1F1F1" height="47.6094" rx="2.5" ry="2.5" style="stroke:#181818;stroke-width:0.5;" width="85" x="97.5" y="695"/><rect fill="#F1F1F1" height="10" style="stroke:#181818;stroke-width:0.5;" width="15" x="162.5" y="700"/><rect fill="#F1F1F1" height="2" style="stroke:#181818;stroke-width:0.5;" width="4" x="160.5" y="702"/><rect fill="#F1F1F1" height="2" style="stroke:#181818;stroke-width:0.5;" width="4" x="160.5" y="706"/><text fill="#000000" font-family="sans-serif" font-size="14" lengthAdjust="spacing" textLength="45" x="112.5" y="729.5332">service</text></g><!--entity sabramlamservicedeployed--><g id="elem_sabramlamservicedeployed"><ellipse cx="414" cy="719" fill="#F1F1F1" rx="8" ry="8" style="stroke:#181818;stroke-width:0.5;"/><text fill="#000000" font-family="sans-serif" font-size="14" lengthAdjust="spacing" textLength="58" x="385" y="750.5332">deployed</text></g><!--entity sabramlamservicekill--><g id="elem_sabramlamservicekill"><ellipse cx="414" cy="624" fill="#F1F1F1" rx="8" ry="8" style="stroke:#181818;stroke-width:0.5;"/><text fill="#000000" font-family="sans-serif" font-size="14" lengthAdjust="spacing" textLength="16" x="406" y="655.5332">kill</text></g><!--entity sabramlamserviceprovision--><g id="elem_sabramlamserviceprovision"><ellipse cx="414" cy="529" fill="#F1F1F1" rx="8" ry="8" style="stroke:#181818;stroke-width:0.5;"/><text fill="#000000" font-family="sans-serif" font-size="14" lengthAdjust="spacing" textLength="57" x="385.5" y="560.5332">provision</text></g><!--entity sabramlamservicestderr--><g id="elem_sabramlamservicestderr"><ellipse cx="414" cy="909" fill="#F1F1F1" rx="8" ry="8" style="stroke:#181818;stroke-width:0.5;"/><text fill="#000000" font-family="sans-serif" font-size="14" lengthAdjust="spacing" textLength="37" x="395.5" y="940.5332">stderr</text></g><!--entity sabramlamservicestdout--><g id="elem_sabramlamservicestdout"><ellipse cx="414" cy="814" fill="#F1F1F1" rx="8" ry="8" style="stroke:#181818;stroke-width:0.5;"/><text fill="#000000" font-family="sans-serif" font-size="14" lengthAdjust="spacing" textLength="39" x="394.5" y="845.5332">stdout</text></g><g id="elem_ApplicationDeveloperManageApplicationCreateApplication"><ellipse cx="721.3478" cy="263.8696" fill="#F1F1F1" rx="84.8478" ry="19.3696" style="stroke:#181818;stroke-width:0.5;"/><text fill="#000000" font-family="sans-serif" font-size="14" lengthAdjust="spacing" textLength="126" x="658.3478" y="267.5981">"Create Application"</text></g><line style="stroke:#181818;stroke-width:0.5;" x1="799.4329" x2="779.1459" y1="257.1173" y2="277.4043"/><g id="elem_DevOpsEngineerManageApplicationDestroyApplication"><ellipse cx="721.3923" cy="338.8785" fill="#F1F1F1" rx="87.3923" ry="19.8785" style="stroke:#181818;stroke-width:0.5;"/><text fill="#000000" font-family="sans-serif" font-size="14" lengthAdjust="spacing" textLength="132" x="655.3923" y="342.607">"Destroy Application"</text></g><line style="stroke:#181818;stroke-width:0.5;" x1="801.8191" x2="781.0206" y1="331.9488" y2="352.7473"/><g id="elem_DevOpsEngineerManageApplicationUpdateApplication"><ellipse cx="721.6926" cy="414.0385" fill="#F1F1F1" rx="85.6926" ry="19.5385" style="stroke:#181818;stroke-width:0.5;"/><text fill="#000000" font-family="sans-serif" font-size="14" lengthAdjust="spacing" textLength="128" x="657.6926" y="417.767">"Update Application"</text></g><line style="stroke:#181818;stroke-width:0.5;" x1="800.5551" x2="780.0983" y1="407.2274" y2="427.6842"/><!--entity serviceinstancedeployed--><g id="elem_serviceinstancedeployed"><polygon fill="#F1F1F1" points="574,1057,494,1043,334,1043,254,1057,334,1071,494,1071,574,1057" style="stroke:#181818;stroke-width:0.5;"/><text fill="#000000" font-family="sans-serif" font-size="14" lengthAdjust="spacing" textLength="160" x="334" y="1062.5332">serviceinstance.deployed</text></g><!--entity serviceinstancekilled--><g id="elem_serviceinstancekilled"><polygon fill="#F1F1F1" points="548,1120,481,1106,347,1106,280,1120,347,1134,481,1134,548,1120" style="stroke:#181818;stroke-width:0.5;"/><text fill="#000000" font-family="sans-serif" font-size="14" lengthAdjust="spacing" textLength="134" x="347" y="1125.5332">serviceinstance.killed</text></g><!--link sabramlam to sabramlamapplicationcreate--><g id="link_sabramlam_sabramlamapplicationcreate"><path d="M279.9612,169.837 C280.1647,169.6701 280.3687,169.5036 280.5731,169.3376 C280.9818,169.0056 281.3923,168.6755 281.8045,168.3474 C282.6289,167.6911 283.4601,167.0424 284.2976,166.4014 C285.9726,165.1193 287.6729,163.8675 289.3952,162.6455 C303.1734,152.8691 318.3581,144.9944 333.2288,138.7013 C362.97,126.115 391.455,119.855 404.92,117.36 " fill="none" id="sabramlam-sabramlamapplicationcreate" style="stroke:#181818;stroke-width:1.0;"/></g><!--link sabramlamapplication to sabramlamapplicationcreate--><g id="link_sabramlamapplication_sabramlamapplicationcreate"><path d="M166.66,267.87 C188.78,247.78 222.09,219.14 254,198 C308.38,161.98 380.54,129.88 404.71,119.5 " fill="none" id="sabramlamapplication-sabramlamapplicationcreate" style="stroke:#181818;stroke-width:1.0;"/></g><!--link sabramlamapplication to sabramlamapplicationdestroy--><g id="link_sabramlamapplication_sabramlamapplicationdestroy"><path d="M194.09,301.17 C261.81,312.87 373.87,332.24 404.85,337.59 " fill="none" id="sabramlamapplication-sabramlamapplicationdestroy" style="stroke:#181818;stroke-width:1.0;"/></g><!--link sabramlamapplication to sabramlamapplicationlist--><g id="link_sabramlamapplication_sabramlamapplicationlist"><path d="M194.09,282.63 C261.81,270.68 373.87,250.91 404.85,245.44 " fill="none" id="sabramlamapplication-sabramlamapplicationlist" style="stroke:#181818;stroke-width:1.0;"/></g><!--link sabramlamapplication to sabramlamapplicationupdate--><g id="link_sabramlamapplication_sabramlamapplicationupdate"><path d="M164.04,316.01 C185.53,337.15 219.39,367.38 254,386 C307.58,414.82 380.85,428.74 404.96,432.74 " fill="none" id="sabramlamapplication-sabramlamapplicationupdate" style="stroke:#181818;stroke-width:1.0;"/></g><!--link sabramlamservice to sabramlamservicedeployed--><g id="link_sabramlamservice_sabramlamservicedeployed"><path d="M182.61,719 C248.39,719 372.29,719 404.95,719 " fill="none" id="sabramlamservice-sabramlamservicedeployed" style="stroke:#181818;stroke-width:1.0;"/></g><!--link sabramlamservice to sabramlamservicekill--><g id="link_sabramlamservice_sabramlamservicekill"><path d="M182.67,699.95 C203.81,690.63 230.03,679.6 254,671 C310.9,650.58 381.44,632.04 404.95,626.03 " fill="none" id="sabramlamservice-sabramlamservicekill" style="stroke:#181818;stroke-width:1.0;"/></g><!--link sabramlamservice to sabramlamserviceprovision--><g id="link_sabramlamservice_sabramlamserviceprovision"><path d="M153.69,694.97 C171.76,663.09 207.87,607.2 254,576 C304.31,541.97 379.7,532.11 404.65,529.69 " fill="none" id="sabramlamservice-sabramlamserviceprovision" style="stroke:#181818;stroke-width:1.0;"/></g><!--link sabramlamservice to sabramlamservicestderr--><g id="link_sabramlamservice_sabramlamservicestderr"><path d="M182.65,737.77 C186.74,740.54 190.62,743.61 194,747 C234.45,787.52 209.83,824.57 254,861 C301.16,899.9 379.25,907.29 404.7,908.68 " fill="none" id="sabramlamservice-sabramlamservicestderr" style="stroke:#181818;stroke-width:1.0;"/></g><!--link sabramlamservice to sabramlamservicestdout--><g id="link_sabramlamservice_sabramlamservicestdout"><path d="M182.73,737.54 C203.88,746.64 230.09,757.44 254,766 C311.01,786.4 381.48,805.63 404.97,811.88 " fill="none" id="sabramlamservice-sabramlamservicestdout" style="stroke:#181818;stroke-width:1.0;"/></g><!--reverse link sabramlam to serviceinstancedeployed--><g id="link_sabramlam_serviceinstancedeployed"><path d="M169.985,973.0196 C170.9361,973.3483 166.9488,971.9704 167.9461,972.315 C183.9034,977.8294 205.6669,985.35 229.6787,993.6475 C277.7025,1010.2425 334.72,1029.945 372.27,1042.92 " fill="none" id="sabramlam-backto-serviceinstancedeployed" style="stroke:#181818;stroke-width:1.0;"/><polygon fill="#181818" points="164.3141,971.0599,171.514,977.7801,169.0399,972.693,174.127,970.2188,164.3141,971.0599" style="stroke:#181818;stroke-width:1.0;"/></g><!--reverse link sabramlam to serviceinstancekilled--><g id="link_sabramlam_serviceinstancekilled"><path d="M148.7366,976.381 C149.8355,978.2238 148.8342,976.4691 150.2413,978.7388 C155.8694,987.8175 163.9075,1000.05 173.9125,1013.34 C193.9225,1039.92 221.8,1070.73 254,1089 C273.45,1100.03 296.15,1107.21 318.21,1111.85 " fill="none" id="sabramlam-backto-serviceinstancekilled" style="stroke:#181818;stroke-width:1.0;"/><polygon fill="#181818" points="145.6845,971.2153,146.8189,980.9987,148.2279,975.5201,153.7065,976.9291,145.6845,971.2153" style="stroke:#181818;stroke-width:1.0;"/></g><!--reverse link sabramlamapplicationcreate to ApplicationDeveloperManageApplicationCreateApplication--><g id="link_sabramlamapplicationcreate_ApplicationDeveloperManageApplicationCreateApplication"><path d="M428.5697,122.576 C465.5797,140.506 613.32,212.08 684.2,246.42 " fill="none" id="sabramlamapplicationcreate-backto-ApplicationDeveloperManageApplicationCreateApplication" style="stroke:#181818;stroke-width:1.0;"/><polygon fill="#181818" points="423.17,119.96,429.5256,127.4837,427.6698,122.14,433.0135,120.2841,423.17,119.96" style="stroke:#181818;stroke-width:1.0;"/></g><!--reverse link sabramlamapplicationdestroy to DevOpsEngineerManageApplicationDestroyApplication--><g id="link_sabramlamapplicationdestroy_DevOpsEngineerManageApplicationDestroyApplication"><path d="M429.17,339 C458.82,339 557.04,339 633.76,339 " fill="none" id="sabramlamapplicationdestroy-backto-DevOpsEngineerManageApplicationDestroyApplication" style="stroke:#181818;stroke-width:1.0;"/><polygon fill="#181818" points="423.17,339,432.17,343,428.17,339,432.17,335,423.17,339" style="stroke:#181818;stroke-width:1.0;"/></g><!--reverse link sabramlamapplicationupdate to DevOpsEngineerManageApplicationUpdateApplication--><g id="link_sabramlamapplicationupdate_DevOpsEngineerManageApplicationUpdateApplication"><path d="M429.1572,433.0777 C459.5272,431.0877 562.09,424.37 639.23,419.32 " fill="none" id="sabramlamapplicationupdate-backto-DevOpsEngineerManageApplicationUpdateApplication" style="stroke:#181818;stroke-width:1.0;"/><polygon fill="#181818" points="423.17,433.47,432.4123,436.873,428.1593,433.1431,431.8892,428.8901,423.17,433.47" style="stroke:#181818;stroke-width:1.0;"/></g><!--SRC=[rPR1KeCm48RlF4MclUYXsWVmubYFZYSVO8K5CqsJJ99sT1pVtOIa42YqKASZtLuw-Vzbyoq1bc5kY154qUB3a8mgJ0qLF4aIOaD2keO2oKp3kveHqCJz8Tz99S26LUlslvL8AZPISEJ6gR48cuHGRb3baBfKAHbDmPKZgK8ms3H7kfUJIYABnJ7VZ_sL-pyR8fAQcoBpvH8WpzkWzHvw8Hhm8u7ZNfrcdpnzXjeeyTLh3lee_dtELJI0KMrwdKuSXLucN0NtLcR7ZhsNHx67bF-WrwXsD6tHXCNMSPTCV67MwToBILje4BVDa-PTKyOwNKuOn5aQ9yqebTXHVN3mWxLI1z7MxaaZQvEXKfq-Bms23TQfaugjwIErqb1IPur9F_0J2lioss-5Scs0ftZNV4KqnUgX9r7Kh0-kz8cC_iBkIUikwvNXHLl-C4AwS4Cby8BPphu0TtViiVNXyClHAfddDW3S7OpYPlPKZZcD2zpUkqj4AolS8HCIrS5bVVPZ_7KAyLCVnVxfgiJ-Gw6BT6Jb1v-EbjZjlKhzp0lAiMEF8V6CReHPgsp7UKKkqectSXOOtmYVTqOV_F0nf0tT9P8uVW40]--></g></svg>