<?xml version="1.0" encoding="UTF-8" standalone="no"?><svg xmlns="http://www.w3.org/2000/svg" xmlns:xlink="http://www.w3.org/1999/xlink" contentScriptType="application/ecmascript" contentStyleType="text/css" height="530px" preserveAspectRatio="none" style="width:444px;height:530px;" version="1.1" viewBox="0 0 444 530" width="444px" zoomAndPan="magnify"><defs><filter height="300%" id="fc20g33uexedb" width="300%" x="-1" y="-1"><feGaussianBlur result="blurOut" stdDeviation="2.0"/><feColorMatrix in="blurOut" result="blurOut2" type="matrix" values="0 0 0 0 0 0 0 0 0 0 0 0 0 0 0 0 0 0 .4 0"/><feOffset dx="4.0" dy="4.0" in="blurOut2" result="blurOut3"/><feBlend in="SourceGraphic" in2="blurOut3" mode="normal"/></filter></defs><g><!--cluster Application Manager--><polygon fill="#00AAFF" filter="url(#fc20g33uexedb)" points="82,118,232,118,239,141.6094,325,141.6094,325,400,82,400,82,118" style="stroke: #000000; stroke-width: 1.5;"/><line style="stroke: #000000; stroke-width: 1.5;" x1="82" x2="239" y1="141.6094" y2="141.6094"/><text fill="#000000" font-family="sans-serif" font-size="14" font-weight="bold" lengthAdjust="spacingAndGlyphs" textLength="144" x="86" y="134.5332">Application Manager</text><polygon fill="#AAFFAA" filter="url(#fc20g33uexedb)" points="6,8,160,8,167,31.6094,174,31.6094,174,63.2188,6,63.2188,6,8" style="stroke: #000000; stroke-width: 1.5;"/><line style="stroke: #000000; stroke-width: 1.5;" x1="6" x2="167" y1="31.6094" y2="31.6094"/><text fill="#000000" font-family="sans-serif" font-size="14" font-weight="bold" lengthAdjust="spacingAndGlyphs" textLength="148" x="10" y="24.5332">Service Orchestrator</text><!--class i--><rect fill="#FEFECE" filter="url(#fc20g33uexedb)" height="214.0313" id="i" style="stroke: #A80036; stroke-width: 1.5;" width="175" x="125.5" y="162"/><ellipse cx="154.45" cy="178" fill="#B4A7E5" rx="11" ry="11" style="stroke: #A80036; stroke-width: 1.0;"/><path d="M155.4031,174.6406 L155.4031,181.2969 L157.1219,181.2969 Q157.7313,181.2969 157.9969,181.5313 Q158.2625,181.7656 158.2625,182.1563 Q158.2625,182.5313 157.9969,182.7656 Q157.7313,183 157.1219,183 L151.9813,183 Q151.3719,183 151.1063,182.7656 Q150.8406,182.5313 150.8406,182.1406 Q150.8406,181.7656 151.1063,181.5313 Q151.3719,181.2969 151.9813,181.2969 L153.7,181.2969 L153.7,174.6406 L151.9813,174.6406 Q151.3719,174.6406 151.1063,174.4063 Q150.8406,174.1719 150.8406,173.7813 Q150.8406,173.4063 151.1063,173.1719 Q151.3719,172.9375 151.9813,172.9375 L157.1219,172.9375 Q157.7313,172.9375 157.9969,173.1719 Q158.2625,173.4063 158.2625,173.7813 Q158.2625,174.1719 157.9969,174.4063 Q157.7313,174.6406 157.1219,174.6406 L155.4031,174.6406 Z "/><text fill="#000000" font-family="sans-serif" font-size="12" font-style="italic" lengthAdjust="spacingAndGlyphs" textLength="112" x="171.55" y="182.9102">Application Manager</text><line style="stroke: #A80036; stroke-width: 1.5;" x1="126.5" x2="299.5" y1="194" y2="194"/><text fill="#000000" font-family="sans-serif" font-size="11" lengthAdjust="spacingAndGlyphs" textLength="129" x="131.5" y="209.4189">^serviceinstance.deployed</text><text fill="#000000" font-family="sans-serif" font-size="11" lengthAdjust="spacingAndGlyphs" textLength="108" x="131.5" y="223.2549">^serviceinstance.killed</text><line style="stroke: #A80036; stroke-width: 1.5;" x1="126.5" x2="299.5" y1="229.6719" y2="229.6719"/><text fill="#000000" font-family="sans-serif" font-size="11" lengthAdjust="spacingAndGlyphs" textLength="157" x="131.5" y="245.0908">/sabr/aml/am/application create()</text><text fill="#000000" font-family="sans-serif" font-size="11" lengthAdjust="spacingAndGlyphs" textLength="157" x="131.5" y="258.9268">/sabr/aml/am/application/create()</text><text fill="#000000" font-family="sans-serif" font-size="11" lengthAdjust="spacingAndGlyphs" textLength="163" x="131.5" y="272.7627">/sabr/aml/am/application/destroy()</text><text fill="#000000" font-family="sans-serif" font-size="11" lengthAdjust="spacingAndGlyphs" textLength="139" x="131.5" y="286.5986">/sabr/aml/am/application/list()</text><text fill="#000000" font-family="sans-serif" font-size="11" lengthAdjust="spacingAndGlyphs" textLength="159" x="131.5" y="300.4346">/sabr/aml/am/application/update()</text><text fill="#000000" font-family="sans-serif" font-size="11" lengthAdjust="spacingAndGlyphs" textLength="155" x="131.5" y="314.2705">/sabr/aml/am/service/deployed()</text><text fill="#000000" font-family="sans-serif" font-size="11" lengthAdjust="spacingAndGlyphs" textLength="122" x="131.5" y="328.1064">/sabr/aml/am/service/kill()</text><text fill="#000000" font-family="sans-serif" font-size="11" lengthAdjust="spacingAndGlyphs" textLength="155" x="131.5" y="341.9424">/sabr/aml/am/service/provision()</text><text fill="#000000" font-family="sans-serif" font-size="11" lengthAdjust="spacingAndGlyphs" textLength="140" x="131.5" y="355.7783">/sabr/aml/am/service/stderr()</text><text fill="#000000" font-family="sans-serif" font-size="11" lengthAdjust="spacingAndGlyphs" textLength="141" x="131.5" y="369.6143">/sabr/aml/am/service/stdout()</text><!--entity REST--><ellipse cx="124" cy="485" fill="#FEFECE" filter="url(#fc20g33uexedb)" rx="8" ry="8" style="stroke: #A80036; stroke-width: 2.0;"/><text fill="#000000" font-family="sans-serif" font-size="14" lengthAdjust="spacingAndGlyphs" textLength="37" x="105.5" y="516.5332">REST</text><!--entity Web--><ellipse cx="213" cy="485" fill="#FEFECE" filter="url(#fc20g33uexedb)" rx="8" ry="8" style="stroke: #A80036; stroke-width: 2.0;"/><text fill="#000000" font-family="sans-serif" font-size="14" lengthAdjust="spacingAndGlyphs" textLength="29" x="198.5" y="516.5332">Web</text><!--entity CLI--><ellipse cx="302" cy="485" fill="#FEFECE" filter="url(#fc20g33uexedb)" rx="8" ry="8" style="stroke: #A80036; stroke-width: 2.0;"/><text fill="#000000" font-family="sans-serif" font-size="14" lengthAdjust="spacingAndGlyphs" textLength="21" x="291.5" y="516.5332">CLI</text><!--entity WebSocket--><ellipse cx="396" cy="269" fill="#FEFECE" filter="url(#fc20g33uexedb)" rx="8" ry="8" style="stroke: #A80036; stroke-width: 2.0;"/><text fill="#000000" font-family="sans-serif" font-size="14" lengthAdjust="spacingAndGlyphs" textLength="72" x="360" y="300.5332">WebSocket</text><!--link i to Web--><path d="M213,376.06 C213,417.2591 213,458.6446 213,475.7808 " fill="none" id="i-Web" style="stroke: #A80036; stroke-width: 1.0;"/><!--link i to CLI--><path d="M257.109,376.06 C274.243,417.2591 291.455,458.6446 298.582,475.7808 " fill="none" id="i-CLI" style="stroke: #A80036; stroke-width: 1.0;"/><!--link i to REST--><path d="M168.891,376.06 C151.757,417.2591 134.545,458.6446 127.418,475.7808 " fill="none" id="i-REST" style="stroke: #A80036; stroke-width: 1.0;"/><!--link i to WebSocket--><path d="M300.748,269 C335.422,269 370.816,269 386.967,269 " fill="none" id="i-WebSocket" style="stroke: #A80036; stroke-width: 1.0;"/><polygon fill="#000000" points="325.75,255.6758,319.75,258.6758,325.75,261.6758,325.75,255.6758" style="stroke: #000000; stroke-width: 1.0;"/><text fill="#000000" font-family="sans-serif" font-size="13" lengthAdjust="spacingAndGlyphs" textLength="37" x="331.75" y="262.4951">events</text><!--link Service Orchestrator to Application Manager--><path d="M90,68.143 C90,75.9377 90,84.8384 90,94.455 C90,99.2633 90,104.2505 90,109.3681 C90,111.9268 90,114.5181 90,117.1359 " fill="none" id="Service Orchestrator-Application Manager" style="stroke: #A80036; stroke-width: 1.0;"/><polygon fill="#A80036" points="90,63.056,86,72.056,90,68.056,94,72.056,90,63.056" style="stroke: #A80036; stroke-width: 1.0;"/><!--
@startuml


package "Service Orchestrator" #aaffaa {

}

package "Application Manager" #00aaff {

}


package "Application Manager" #00aaff {

    interface "Application Manager" as i {
            ^serviceinstance.deployed
            ^serviceinstance.killed
    
            /sabr/aml/am/application create()
            /sabr/aml/am/application/create()
            /sabr/aml/am/application/destroy()
            /sabr/aml/am/application/list()
            /sabr/aml/am/application/update()
            /sabr/aml/am/service/deployed()
            /sabr/aml/am/service/kill()
            /sabr/aml/am/service/provision()
            /sabr/aml/am/service/stderr()
            /sabr/aml/am/service/stdout()
    
    }
}

circle REST
circle Web
circle CLI
circle WebSocket

i -down- Web
i -down- CLI
i -down- REST
WebSocket -left- i: events >

package "Application Manager" #00aaff {


}


    "Service Orchestrator" <- - "Application Manager"


@enduml

PlantUML version 1.2019.05(Sat Apr 20 09:45:36 PDT 2019)
(GPL source distribution)
Java Runtime: Java(TM) SE Runtime Environment
JVM: Java HotSpot(TM) Client VM
Java Version: 1.8.0_271-b09
Operating System: Windows 10
OS Version: 10.0
Default Encoding: Cp1252
Language: en
Country: US
--></g></svg>