<?xml version="1.0" encoding="us-ascii" standalone="no"?><svg xmlns="http://www.w3.org/2000/svg" xmlns:xlink="http://www.w3.org/1999/xlink" contentStyleType="text/css" height="568px" preserveAspectRatio="none" style="width:490px;height:568px;background:#FFFFFF;" version="1.1" viewBox="0 0 490 568" width="490px" zoomAndPan="magnify"><defs/><g><!--cluster Application Manager--><g id="cluster_Application Manager"><path d="M84.5,116 L229.5,116 A3.75,3.75 0 0 1 232,118.5 L239,139.6094 L372.5,139.6094 A2.5,2.5 0 0 1 375,142.1094 L375,440.5 A2.5,2.5 0 0 1 372.5,443 L84.5,443 A2.5,2.5 0 0 1 82,440.5 L82,118.5 A2.5,2.5 0 0 1 84.5,116 " fill="#00AAFF" style="stroke:#000000;stroke-width:1.5;"/><line style="stroke:#000000;stroke-width:1.5;" x1="82" x2="239" y1="139.6094" y2="139.6094"/><text fill="#000000" font-family="sans-serif" font-size="14" font-weight="bold" lengthAdjust="spacing" textLength="144" x="86" y="132.5332">Application Manager</text></g><path d="M8.5,6 L157.5,6 A3.75,3.75 0 0 1 160,8.5 L167,29.6094 L171.5,29.6094 A2.5,2.5 0 0 1 174,32.1094 L174,58.7188 A2.5,2.5 0 0 1 171.5,61.2188 L8.5,61.2188 A2.5,2.5 0 0 1 6,58.7188 L6,8.5 A2.5,2.5 0 0 1 8.5,6 " fill="#AAFFAA" style="stroke:#181818;stroke-width:0.5;"/><line style="stroke:#181818;stroke-width:0.5;" x1="6" x2="167" y1="29.6094" y2="29.6094"/><text fill="#000000" font-family="sans-serif" font-size="14" font-weight="bold" lengthAdjust="spacing" textLength="148" x="10" y="22.5332">Service Orchestrator</text><!--class i--><g id="elem_i"><rect codeLine="14" fill="#F1F1F1" height="259.3125" id="i" rx="2.5" ry="2.5" style="stroke:#181818;stroke-width:0.5;" width="226" x="125" y="160"/><ellipse cx="168.8" cy="176" fill="#B4A7E5" rx="11" ry="11" style="stroke:#181818;stroke-width:1.0;"/><path d="M169.7531,172.6406 L169.7531,179.2969 L171.4719,179.2969 Q172.0813,179.2969 172.3469,179.5313 Q172.6125,179.7656 172.6125,180.1563 Q172.6125,180.5313 172.3469,180.7656 Q172.0813,181 171.4719,181 L166.3313,181 Q165.7219,181 165.4563,180.7656 Q165.1906,180.5313 165.1906,180.1406 Q165.1906,179.7656 165.4563,179.5313 Q165.7219,179.2969 166.3313,179.2969 L168.05,179.2969 L168.05,172.6406 L166.3313,172.6406 Q165.7219,172.6406 165.4563,172.4063 Q165.1906,172.1719 165.1906,171.7813 Q165.1906,171.4063 165.4563,171.1719 Q165.7219,170.9375 166.3313,170.9375 L171.4719,170.9375 Q172.0813,170.9375 172.3469,171.1719 Q172.6125,171.4063 172.6125,171.7813 Q172.6125,172.1719 172.3469,172.4063 Q172.0813,172.6406 171.4719,172.6406 L169.7531,172.6406 Z " fill="#000000"/><text fill="#000000" font-family="sans-serif" font-size="14" font-style="italic" lengthAdjust="spacing" textLength="130" x="189.2" y="181.7285">Application Manager</text><line style="stroke:#181818;stroke-width:0.5;" x1="126" x2="350" y1="192" y2="192"/><text fill="#000000" font-family="sans-serif" font-size="14" lengthAdjust="spacing" textLength="165" x="131" y="210.5332">^serviceinstance.deployed</text><text fill="#000000" font-family="sans-serif" font-size="14" lengthAdjust="spacing" textLength="139" x="131" y="228.1426">^serviceinstance.killed</text><line style="stroke:#181818;stroke-width:0.5;" x1="126" x2="350" y1="235.2188" y2="235.2188"/><text fill="#000000" font-family="sans-serif" font-size="14" lengthAdjust="spacing" textLength="207" x="131" y="253.752">/sabr/aml/am/application create()</text><text fill="#000000" font-family="sans-serif" font-size="14" lengthAdjust="spacing" textLength="207" x="131" y="271.3613">/sabr/aml/am/application/create()</text><text fill="#000000" font-family="sans-serif" font-size="14" lengthAdjust="spacing" textLength="214" x="131" y="288.9707">/sabr/aml/am/application/destroy()</text><text fill="#000000" font-family="sans-serif" font-size="14" lengthAdjust="spacing" textLength="184" x="131" y="306.5801">/sabr/aml/am/application/list()</text><text fill="#000000" font-family="sans-serif" font-size="14" lengthAdjust="spacing" textLength="211" x="131" y="324.1895">/sabr/aml/am/application/update()</text><text fill="#000000" font-family="sans-serif" font-size="14" lengthAdjust="spacing" textLength="202" x="131" y="341.7988">/sabr/aml/am/service/deployed()</text><text fill="#000000" font-family="sans-serif" font-size="14" lengthAdjust="spacing" textLength="160" x="131" y="359.4082">/sabr/aml/am/service/kill()</text><text fill="#000000" font-family="sans-serif" font-size="14" lengthAdjust="spacing" textLength="201" x="131" y="377.0176">/sabr/aml/am/service/provision()</text><text fill="#000000" font-family="sans-serif" font-size="14" lengthAdjust="spacing" textLength="181" x="131" y="394.627">/sabr/aml/am/service/stderr()</text><text fill="#000000" font-family="sans-serif" font-size="14" lengthAdjust="spacing" textLength="183" x="131" y="412.2363">/sabr/aml/am/service/stdout()</text></g><!--entity REST--><g id="elem_REST"><ellipse cx="149" cy="528" fill="#F1F1F1" rx="8" ry="8" style="stroke:#181818;stroke-width:0.5;"/><text fill="#000000" font-family="sans-serif" font-size="14" lengthAdjust="spacing" textLength="37" x="130.5" y="559.5332">REST</text></g><!--entity Web--><g id="elem_Web"><ellipse cx="238" cy="528" fill="#F1F1F1" rx="8" ry="8" style="stroke:#181818;stroke-width:0.5;"/><text fill="#000000" font-family="sans-serif" font-size="14" lengthAdjust="spacing" textLength="29" x="223.5" y="559.5332">Web</text></g><!--entity CLI--><g id="elem_CLI"><ellipse cx="327" cy="528" fill="#F1F1F1" rx="8" ry="8" style="stroke:#181818;stroke-width:0.5;"/><text fill="#000000" font-family="sans-serif" font-size="14" lengthAdjust="spacing" textLength="21" x="316.5" y="559.5332">CLI</text></g><!--entity WebSocket--><g id="elem_WebSocket"><ellipse cx="447" cy="289.5" fill="#F1F1F1" rx="8" ry="8" style="stroke:#181818;stroke-width:0.5;"/><text fill="#000000" font-family="sans-serif" font-size="14" lengthAdjust="spacing" textLength="72" x="411" y="321.0332">WebSocket</text></g><!--link i to Web--><g id="link_i_Web"><path codeLine="37" d="M238,419.13 C238,461.6 238,502.27 238,519 " fill="none" id="i-Web" style="stroke:#181818;stroke-width:1.0;"/></g><!--link i to CLI--><g id="link_i_CLI"><path codeLine="38" d="M286.41,419.13 C302.39,461.6 317.69,502.27 323.99,519 " fill="none" id="i-CLI" style="stroke:#181818;stroke-width:1.0;"/></g><!--link i to REST--><g id="link_i_REST"><path codeLine="39" d="M189.59,419.13 C173.61,461.6 158.31,502.27 152.01,519 " fill="none" id="i-REST" style="stroke:#181818;stroke-width:1.0;"/></g><!--link i to WebSocket--><g id="link_i_WebSocket"><path codeLine="40" d="M351.06,289.5 C387.23,289.5 422.02,289.5 437.94,289.5 " fill="none" id="i-WebSocket" style="stroke:#181818;stroke-width:1.0;"/><polygon fill="#000000" points="368.5,277.6758,377.5451,280.6147,377.5451,274.7369,368.5,277.6758" style="stroke:#000000;stroke-width:1.0;"/><text fill="#000000" font-family="sans-serif" font-size="13" lengthAdjust="spacing" textLength="37" x="382.5" y="282.9951">events</text></g><!--reverse link Service Orchestrator to Application Manager--><g id="link_Service Orchestrator_Application Manager"><path codeLine="48" d="M90,67.2 C90,75.225 90,78.7166 90,89.1923 C90,94.4301 90,99.914 90,105.5836 C90,108.4184 90,111.2997 90,114.2198 C90,114.5848 90,114.9505 90,115.3167 " fill="none" id="Service Orchestrator-backto-Application Manager" style="stroke:#181818;stroke-width:1.0;"/><polygon fill="#181818" points="90,61.2,86,70.2,90,66.2,94,70.2,90,61.2" style="stroke:#181818;stroke-width:1.0;"/></g><!--SRC=[bTD1ImGX50Vmkv_YiLtgOBFdY22YGr04JT0jUAjljiUOYheJI-ntRvncXWtQSWL5vQVyUQX7rUAQO55Jw5WHF0RrHZ45J2uiu0InQH3XKuYT47x2rzuRLfZOMNX0s-zbkrncFTfo37rZcoWqg0vnZC2zXRts6hyJiuq9hQ9pJTwuBUc_LSl6ZEO7h2AkGeNlfkyLxcLGWJ3HwLcHhexJEbVQRKkvuPXAxSRhVuACbQcckfNONBqIvuFhEFOvId1Cca8eb6upbM0OTlcjAGxA43pTri_J_8LMq_Jc_cvljtQgfIG4WzJkmyf1pejivyLmttm4fA4cIU0Be8viYd1rn2CVlaGEVE2ZNKhv-oL2V040]--></g></svg>