<?xml version="1.0" encoding="UTF-8" standalone="no"?><svg xmlns="http://www.w3.org/2000/svg" xmlns:xlink="http://www.w3.org/1999/xlink" contentScriptType="application/ecmascript" contentStyleType="text/css" height="250px" preserveAspectRatio="none" style="width:382px;height:250px;" version="1.1" viewBox="0 0 382 250" width="382px" zoomAndPan="magnify"><defs><filter height="300%" id="f1lsmkk32mlqtg" width="300%" x="-1" y="-1"><feGaussianBlur result="blurOut" stdDeviation="2.0"/><feColorMatrix in="blurOut" result="blurOut2" type="matrix" values="0 0 0 0 0 0 0 0 0 0 0 0 0 0 0 0 0 0 .4 0"/><feOffset dx="4.0" dy="4.0" in="blurOut2" result="blurOut3"/><feBlend in="SourceGraphic" in2="blurOut3" mode="normal"/></filter></defs><g><!--cluster Application Manager--><rect fill="#00AAFF" filter="url(#f1lsmkk32mlqtg)" height="157" style="stroke: #000000; stroke-width: 1.5;" width="187" x="184" y="24.5"/><text fill="#000000" font-family="sans-serif" font-size="14" font-weight="bold" lengthAdjust="spacingAndGlyphs" textLength="144" x="205.5" y="41.0332">Application Manager</text><ellipse cx="277.7325" cy="77.7465" fill="#FEFECE" filter="url(#f1lsmkk32mlqtg)" rx="74.2325" ry="17.2465" style="stroke: #A80036; stroke-width: 1.5;"/><text fill="#000000" font-family="sans-serif" font-size="14" lengthAdjust="spacingAndGlyphs" textLength="112" x="221.7325" y="83.0512">IntegrateLearning</text><ellipse cx="277.4182" cy="147.3836" fill="#FEFECE" filter="url(#f1lsmkk32mlqtg)" rx="77.4182" ry="17.8836" style="stroke: #A80036; stroke-width: 1.5;"/><text fill="#000000" font-family="sans-serif" font-size="14" lengthAdjust="spacingAndGlyphs" textLength="120" x="217.4182" y="152.6883">ManageApplication</text><!--entity ApplicationDeveloper--><ellipse cx="73" cy="45" fill="#FEFECE" filter="url(#f1lsmkk32mlqtg)" rx="8" ry="8" style="stroke: #A80036; stroke-width: 2.0;"/><path d="M73,53 L73,80 M60,61 L86,61 M73,80 L60,95 M73,80 L86,95 " fill="none" filter="url(#f1lsmkk32mlqtg)" style="stroke: #A80036; stroke-width: 2.0;"/><text fill="#000000" font-family="sans-serif" font-size="14" lengthAdjust="spacingAndGlyphs" textLength="134" x="6" y="116.5332">ApplicationDeveloper</text><!--entity DevOpsEngineer--><ellipse cx="73" cy="165" fill="#FEFECE" filter="url(#f1lsmkk32mlqtg)" rx="8" ry="8" style="stroke: #A80036; stroke-width: 2.0;"/><path d="M73,173 L73,200 M60,181 L86,181 M73,200 L60,215 M73,200 L86,215 " fill="none" filter="url(#f1lsmkk32mlqtg)" style="stroke: #A80036; stroke-width: 2.0;"/><text fill="#000000" font-family="sans-serif" font-size="14" lengthAdjust="spacingAndGlyphs" textLength="108" x="19" y="236.5332">DevOpsEngineer</text><!--link ApplicationDeveloper to IntegrateLearning--><path d="M140.026,77.5 C158.488,77.5 178.735,77.5 197.85,77.5 " fill="none" id="ApplicationDeveloper-IntegrateLearning" style="stroke: #A80036; stroke-width: 1.0;"/><polygon fill="#A80036" points="203.209,77.5,194.209,73.5,198.209,77.5,194.209,81.5,203.209,77.5" style="stroke: #A80036; stroke-width: 1.0;"/><!--link DevOpsEngineer to ManageApplication--><path d="M127.204,184.3631 C155.341,177.4158 189.922,168.8774 218.714,161.7681 " fill="none" id="DevOpsEngineer-ManageApplication" style="stroke: #A80036; stroke-width: 1.0;"/><polygon fill="#A80036" points="223.651,160.5492,213.9546,158.8232,218.7968,161.7478,215.8722,166.59,223.651,160.5492" style="stroke: #A80036; stroke-width: 1.0;"/><!--link ApplicationDeveloper to ManageApplication--><path d="M140.026,100.324 C168.928,110.315 202.204,121.818 228.663,130.964 " fill="none" id="ApplicationDeveloper-ManageApplication" style="stroke: #A80036; stroke-width: 1.0;"/><polygon fill="#A80036" points="233.521,132.643,226.3214,125.9224,228.7953,131.0097,223.7081,133.4835,233.521,132.643" style="stroke: #A80036; stroke-width: 1.0;"/><!--
@startuml

left to right direction
Actor "ApplicationDeveloper" as ApplicationDeveloper
Actor "DevOpsEngineer" as DevOpsEngineer
Actor "ApplicationDeveloper" as ApplicationDeveloper


rectangle "Application Manager" #00aaff {
usecase "IntegrateLearning" as IntegrateLearning
    ApplicationDeveloper - -> IntegrateLearning
    usecase "ManageApplication" as ManageApplication
    DevOpsEngineer - -> ManageApplication
    ApplicationDeveloper - -> ManageApplication
    }


@enduml

PlantUML version 1.2019.05(Sat Apr 20 09:45:36 PDT 2019)
(GPL source distribution)
Java Runtime: Java(TM) SE Runtime Environment
JVM: Java HotSpot(TM) Client VM
Java Version: 1.8.0_271-b09
Operating System: Windows 10
OS Version: 10.0
Default Encoding: Cp1252
Language: en
Country: US
--></g></svg>