<?xml version="1.0" encoding="UTF-8" standalone="no"?><svg xmlns="http://www.w3.org/2000/svg" xmlns:xlink="http://www.w3.org/1999/xlink" contentScriptType="application/ecmascript" contentStyleType="text/css" height="469px" preserveAspectRatio="none" style="width:604px;height:469px;" version="1.1" viewBox="0 0 604 469" width="604px" zoomAndPan="magnify"><defs><filter height="300%" id="fciczwgzn4gcu" width="300%" x="-1" y="-1"><feGaussianBlur result="blurOut" stdDeviation="2.0"/><feColorMatrix in="blurOut" result="blurOut2" type="matrix" values="0 0 0 0 0 0 0 0 0 0 0 0 0 0 0 0 0 0 .4 0"/><feOffset dx="4.0" dy="4.0" in="blurOut2" result="blurOut3"/><feBlend in="SourceGraphic" in2="blurOut3" mode="normal"/></filter></defs><g><line style="stroke: #A80036; stroke-width: 1.0; stroke-dasharray: 5.0,5.0;" x1="78" x2="78" y1="87.6094" y2="380.7734"/><line style="stroke: #A80036; stroke-width: 1.0; stroke-dasharray: 5.0,5.0;" x1="215" x2="215" y1="87.6094" y2="380.7734"/><line style="stroke: #A80036; stroke-width: 1.0; stroke-dasharray: 5.0,5.0;" x1="355" x2="355" y1="87.6094" y2="380.7734"/><line style="stroke: #A80036; stroke-width: 1.0; stroke-dasharray: 5.0,5.0;" x1="462" x2="462" y1="87.6094" y2="380.7734"/><line style="stroke: #A80036; stroke-width: 1.0; stroke-dasharray: 5.0,5.0;" x1="569" x2="569" y1="87.6094" y2="380.7734"/><text fill="#000000" font-family="sans-serif" font-size="14" lengthAdjust="spacingAndGlyphs" textLength="134" x="8" y="84.5332">ApplicationDeveloper</text><ellipse cx="78" cy="13" fill="#FEFECE" filter="url(#fciczwgzn4gcu)" rx="8" ry="8" style="stroke: #A80036; stroke-width: 2.0;"/><path d="M78,21 L78,48 M65,29 L91,29 M78,48 L65,63 M78,48 L91,63 " fill="none" filter="url(#fciczwgzn4gcu)" style="stroke: #A80036; stroke-width: 2.0;"/><text fill="#000000" font-family="sans-serif" font-size="14" lengthAdjust="spacingAndGlyphs" textLength="134" x="8" y="394.3066">ApplicationDeveloper</text><ellipse cx="78" cy="407.3828" fill="#FEFECE" filter="url(#fciczwgzn4gcu)" rx="8" ry="8" style="stroke: #A80036; stroke-width: 2.0;"/><path d="M78,415.3828 L78,442.3828 M65,423.3828 L91,423.3828 M78,442.3828 L65,457.3828 M78,442.3828 L91,457.3828 " fill="none" filter="url(#fciczwgzn4gcu)" style="stroke: #A80036; stroke-width: 2.0;"/><text fill="#000000" font-family="sans-serif" font-size="14" lengthAdjust="spacingAndGlyphs" textLength="108" x="158" y="84.5332">DevOpsEngineer</text><ellipse cx="215" cy="13" fill="#FEFECE" filter="url(#fciczwgzn4gcu)" rx="8" ry="8" style="stroke: #A80036; stroke-width: 2.0;"/><path d="M215,21 L215,48 M202,29 L228,29 M215,48 L202,63 M215,48 L228,63 " fill="none" filter="url(#fciczwgzn4gcu)" style="stroke: #A80036; stroke-width: 2.0;"/><text fill="#000000" font-family="sans-serif" font-size="14" lengthAdjust="spacingAndGlyphs" textLength="108" x="158" y="394.3066">DevOpsEngineer</text><ellipse cx="215" cy="407.3828" fill="#FEFECE" filter="url(#fciczwgzn4gcu)" rx="8" ry="8" style="stroke: #A80036; stroke-width: 2.0;"/><path d="M215,415.3828 L215,442.3828 M202,423.3828 L228,423.3828 M215,442.3828 L202,457.3828 M215,442.3828 L228,457.3828 " fill="none" filter="url(#fciczwgzn4gcu)" style="stroke: #A80036; stroke-width: 2.0;"/><rect fill="#FEFECE" filter="url(#fciczwgzn4gcu)" height="31.6094" style="stroke: #A80036; stroke-width: 1.5;" width="143" x="282" y="51"/><text fill="#000000" font-family="sans-serif" font-size="14" lengthAdjust="spacingAndGlyphs" textLength="129" x="289" y="72.5332">Application Manager</text><rect fill="#FEFECE" filter="url(#fciczwgzn4gcu)" height="31.6094" style="stroke: #A80036; stroke-width: 1.5;" width="143" x="282" y="379.7734"/><text fill="#000000" font-family="sans-serif" font-size="14" lengthAdjust="spacingAndGlyphs" textLength="129" x="289" y="401.3066">Application Manager</text><rect fill="#FEFECE" filter="url(#fciczwgzn4gcu)" height="31.6094" style="stroke: #A80036; stroke-width: 1.5;" width="33" x="444" y="51"/><text fill="#000000" font-family="sans-serif" font-size="14" lengthAdjust="spacingAndGlyphs" textLength="19" x="451" y="72.5332">bin</text><rect fill="#FEFECE" filter="url(#fciczwgzn4gcu)" height="31.6094" style="stroke: #A80036; stroke-width: 1.5;" width="33" x="444" y="379.7734"/><text fill="#000000" font-family="sans-serif" font-size="14" lengthAdjust="spacingAndGlyphs" textLength="19" x="451" y="401.3066">bin</text><rect fill="#FEFECE" filter="url(#fciczwgzn4gcu)" height="31.6094" style="stroke: #A80036; stroke-width: 1.5;" width="51" x="542" y="51"/><text fill="#000000" font-family="sans-serif" font-size="14" lengthAdjust="spacingAndGlyphs" textLength="37" x="549" y="72.5332">REST</text><rect fill="#FEFECE" filter="url(#fciczwgzn4gcu)" height="31.6094" style="stroke: #A80036; stroke-width: 1.5;" width="51" x="542" y="379.7734"/><text fill="#000000" font-family="sans-serif" font-size="14" lengthAdjust="spacingAndGlyphs" textLength="37" x="549" y="401.3066">REST</text><polygon fill="#A80036" points="343.5,115.9609,353.5,119.9609,343.5,123.9609,347.5,119.9609" style="stroke: #A80036; stroke-width: 1.0;"/><line style="stroke: #A80036; stroke-width: 1.0;" x1="78" x2="349.5" y1="119.9609" y2="119.9609"/><text fill="#000000" font-family="sans-serif" font-size="13" lengthAdjust="spacingAndGlyphs" textLength="103" x="85" y="115.1045">Integrate Learning</text><polygon fill="#A80036" points="450.5,146.3125,460.5,150.3125,450.5,154.3125,454.5,150.3125" style="stroke: #A80036; stroke-width: 1.0;"/><line style="stroke: #A80036; stroke-width: 1.0;" x1="355.5" x2="456.5" y1="150.3125" y2="150.3125"/><text fill="#000000" font-family="sans-serif" font-size="13" lengthAdjust="spacingAndGlyphs" textLength="83" x="362.5" y="145.4561">application list</text><polygon fill="#A80036" points="557.5,176.6641,567.5,180.6641,557.5,184.6641,561.5,180.6641" style="stroke: #A80036; stroke-width: 1.0;"/><line style="stroke: #A80036; stroke-width: 1.0;" x1="462.5" x2="563.5" y1="180.6641" y2="180.6641"/><text fill="#000000" font-family="sans-serif" font-size="13" lengthAdjust="spacingAndGlyphs" textLength="83" x="469.5" y="175.8076">application/list</text><polygon fill="#A80036" points="343.5,207.0156,353.5,211.0156,343.5,215.0156,347.5,211.0156" style="stroke: #A80036; stroke-width: 1.0;"/><line style="stroke: #A80036; stroke-width: 1.0;" x1="78" x2="349.5" y1="211.0156" y2="211.0156"/><text fill="#000000" font-family="sans-serif" font-size="13" lengthAdjust="spacingAndGlyphs" textLength="114" x="85" y="206.1592">Manage Application</text><polygon fill="#A80036" points="450.5,237.3672,460.5,241.3672,450.5,245.3672,454.5,241.3672" style="stroke: #A80036; stroke-width: 1.0;"/><line style="stroke: #A80036; stroke-width: 1.0;" x1="355.5" x2="456.5" y1="241.3672" y2="241.3672"/><text fill="#000000" font-family="sans-serif" font-size="13" lengthAdjust="spacingAndGlyphs" textLength="83" x="362.5" y="236.5107">application list</text><polygon fill="#A80036" points="557.5,267.7188,567.5,271.7188,557.5,275.7188,561.5,271.7188" style="stroke: #A80036; stroke-width: 1.0;"/><line style="stroke: #A80036; stroke-width: 1.0;" x1="462.5" x2="563.5" y1="271.7188" y2="271.7188"/><text fill="#000000" font-family="sans-serif" font-size="13" lengthAdjust="spacingAndGlyphs" textLength="83" x="469.5" y="266.8623">application/list</text><polygon fill="#A80036" points="343.5,298.0703,353.5,302.0703,343.5,306.0703,347.5,302.0703" style="stroke: #A80036; stroke-width: 1.0;"/><line style="stroke: #A80036; stroke-width: 1.0;" x1="215" x2="349.5" y1="302.0703" y2="302.0703"/><text fill="#000000" font-family="sans-serif" font-size="13" lengthAdjust="spacingAndGlyphs" textLength="114" x="222" y="297.2139">Manage Application</text><polygon fill="#A80036" points="450.5,328.4219,460.5,332.4219,450.5,336.4219,454.5,332.4219" style="stroke: #A80036; stroke-width: 1.0;"/><line style="stroke: #A80036; stroke-width: 1.0;" x1="355.5" x2="456.5" y1="332.4219" y2="332.4219"/><text fill="#000000" font-family="sans-serif" font-size="13" lengthAdjust="spacingAndGlyphs" textLength="83" x="362.5" y="327.5654">application list</text><polygon fill="#A80036" points="557.5,358.7734,567.5,362.7734,557.5,366.7734,561.5,362.7734" style="stroke: #A80036; stroke-width: 1.0;"/><line style="stroke: #A80036; stroke-width: 1.0;" x1="462.5" x2="563.5" y1="362.7734" y2="362.7734"/><text fill="#000000" font-family="sans-serif" font-size="13" lengthAdjust="spacingAndGlyphs" textLength="83" x="469.5" y="357.917">application/list</text><!--
@startuml


actor "ApplicationDeveloper" as applicationdeveloper

actor "DevOpsEngineer" as devops




applicationdeveloper -> "Application Manager": Integrate Learning
"Application Manager" -> bin: application list
bin -> REST: application/list

applicationdeveloper -> "Application Manager": Manage Application
"Application Manager" -> bin: application list
bin -> REST: application/list

devops -> "Application Manager": Manage Application
"Application Manager" -> bin: application list
bin -> REST: application/list



@enduml

PlantUML version 1.2019.05(Sat Apr 20 09:45:36 PDT 2019)
(GPL source distribution)
Java Runtime: Java(TM) SE Runtime Environment
JVM: Java HotSpot(TM) 64-Bit Server VM
Java Version: 17.0.7+8-LTS-224
Operating System: Windows 11
OS Version: 10.0
Default Encoding: Cp1252
Language: en
Country: US
--></g></svg>