<?xml version="1.0" encoding="UTF-8" standalone="no"?><svg xmlns="http://www.w3.org/2000/svg" xmlns:xlink="http://www.w3.org/1999/xlink" contentScriptType="application/ecmascript" contentStyleType="text/css" height="340px" preserveAspectRatio="none" style="width:903px;height:340px;" version="1.1" viewBox="0 0 903 340" width="903px" zoomAndPan="magnify"><defs><filter height="300%" id="fcm8bvayxjop0" width="300%" x="-1" y="-1"><feGaussianBlur result="blurOut" stdDeviation="2.0"/><feColorMatrix in="blurOut" result="blurOut2" type="matrix" values="0 0 0 0 0 0 0 0 0 0 0 0 0 0 0 0 0 0 .4 0"/><feOffset dx="4.0" dy="4.0" in="blurOut2" result="blurOut3"/><feBlend in="SourceGraphic" in2="blurOut3" mode="normal"/></filter></defs><g><!--entity Service--><rect fill="#ADD8E6" filter="url(#fcm8bvayxjop0)" height="37.6094" style="stroke: #000000; stroke-width: 1.5;" width="67" x="571.5" y="292"/><text fill="#000000" font-family="sans-serif" font-size="14" lengthAdjust="spacingAndGlyphs" textLength="47" x="581.5" y="316.5332">Service</text><!--entity ChannelCreationPolicy--><rect fill="#90EE90" filter="url(#fcm8bvayxjop0)" height="37.6094" style="stroke: #000000; stroke-width: 1.5;" width="164" x="6" y="292"/><text fill="#000000" font-family="sans-serif" font-size="14" lengthAdjust="spacingAndGlyphs" textLength="144" x="16" y="316.5332">ChannelCreationPolicy</text><!--entity DataChannelInstance--><rect fill="#90EE90" filter="url(#fcm8bvayxjop0)" height="37.6094" style="stroke: #000000; stroke-width: 1.5;" width="156" x="231" y="292"/><text fill="#000000" font-family="sans-serif" font-size="14" lengthAdjust="spacingAndGlyphs" textLength="136" x="241" y="316.5332">DataChannelInstance</text><!--entity DataStream--><rect fill="#90EE90" filter="url(#fcm8bvayxjop0)" height="37.6094" style="stroke: #000000; stroke-width: 1.5;" width="95" x="435.5" y="292"/><text fill="#000000" font-family="sans-serif" font-size="14" lengthAdjust="spacingAndGlyphs" textLength="75" x="445.5" y="316.5332">DataStream</text><!--entity SecurityKey--><rect fill="#ADD8E6" filter="url(#fcm8bvayxjop0)" height="37.6094" style="stroke: #000000; stroke-width: 1.5;" width="95" x="757.5" y="292"/><text fill="#000000" font-family="sans-serif" font-size="14" lengthAdjust="spacingAndGlyphs" textLength="75" x="767.5" y="316.5332">SecurityKey</text><!--entity ChannelActivationItem--><rect fill="#90EE90" filter="url(#fcm8bvayxjop0)" height="37.6094" style="stroke: #000000; stroke-width: 1.5;" width="160" x="56" y="8"/><text fill="#000000" font-family="sans-serif" font-size="14" lengthAdjust="spacingAndGlyphs" textLength="140" x="66" y="32.5332">ChannelActivationItem</text><!--entity InputChannelInstance--><rect fill="#90EE90" filter="url(#fcm8bvayxjop0)" height="37.6094" style="stroke: #000000; stroke-width: 1.5;" width="157" x="251.5" y="8"/><text fill="#000000" font-family="sans-serif" font-size="14" lengthAdjust="spacingAndGlyphs" textLength="137" x="261.5" y="32.5332">InputChannelInstance</text><!--entity OutputChannelInstance--><rect fill="#90EE90" filter="url(#fcm8bvayxjop0)" height="37.6094" style="stroke: #000000; stroke-width: 1.5;" width="169" x="443.5" y="8"/><text fill="#000000" font-family="sans-serif" font-size="14" lengthAdjust="spacingAndGlyphs" textLength="149" x="453.5" y="32.5332">OutputChannelInstance</text><!--entity AdminDataStream--><rect fill="#90EE90" filter="url(#fcm8bvayxjop0)" height="37.6094" style="stroke: #000000; stroke-width: 1.5;" width="134" x="648" y="8"/><text fill="#000000" font-family="sans-serif" font-size="14" lengthAdjust="spacingAndGlyphs" textLength="114" x="658" y="32.5332">AdminDataStream</text><!--class Model--><rect fill="#FEFECE" filter="url(#fcm8bvayxjop0)" height="89.5078" id="Model" style="stroke: #A80036; stroke-width: 1.5;" width="105" x="376.5" y="124"/><ellipse cx="391.5" cy="140" fill="#ADD1B2" rx="11" ry="11" style="stroke: #A80036; stroke-width: 1.0;"/><path d="M394.2656,135.875 Q394.4219,135.6563 394.6094,135.5469 Q394.7969,135.4375 395.0156,135.4375 Q395.3906,135.4375 395.625,135.6953 Q395.8594,135.9531 395.8594,136.5625 L395.8594,138.0156 Q395.8594,138.625 395.625,138.8906 Q395.3906,139.1563 395.0156,139.1563 Q394.6719,139.1563 394.4688,138.9531 Q394.2656,138.7656 394.1563,138.25 Q394.1094,137.8906 393.9219,137.7031 Q393.5938,137.3281 392.9844,137.1094 Q392.375,136.8906 391.75,136.8906 Q390.9844,136.8906 390.3516,137.2188 Q389.7188,137.5469 389.2266,138.2969 Q388.7344,139.0469 388.7344,140.0781 L388.7344,141.1719 Q388.7344,142.4063 389.625,143.2266 Q390.5156,144.0469 392.1094,144.0469 Q393.0469,144.0469 393.7031,143.7969 Q394.0938,143.6406 394.5156,143.2031 Q394.7813,142.9375 394.9297,142.8594 Q395.0781,142.7813 395.2813,142.7813 Q395.6094,142.7813 395.8672,143.0391 Q396.125,143.2969 396.125,143.6406 Q396.125,143.9844 395.7813,144.3906 Q395.2813,144.9688 394.4844,145.2969 Q393.4063,145.75 392.1094,145.75 Q390.5938,145.75 389.3906,145.125 Q388.4063,144.625 387.7188,143.5547 Q387.0313,142.4844 387.0313,141.2031 L387.0313,140.0469 Q387.0313,138.7188 387.6484,137.5703 Q388.2656,136.4219 389.3594,135.8047 Q390.4531,135.1875 391.6875,135.1875 Q392.4219,135.1875 393.0703,135.3516 Q393.7188,135.5156 394.2656,135.875 Z "/><text fill="#000000" font-family="sans-serif" font-size="12" lengthAdjust="spacingAndGlyphs" textLength="73" x="405.5" y="144.9102">DataChannel</text><line style="stroke: #A80036; stroke-width: 1.5;" x1="377.5" x2="480.5" y1="156" y2="156"/><text fill="#000000" font-family="sans-serif" font-size="11" lengthAdjust="spacingAndGlyphs" textLength="56" x="382.5" y="171.4189">string name</text><text fill="#000000" font-family="sans-serif" font-size="11" lengthAdjust="spacingAndGlyphs" textLength="71" x="382.5" y="185.2549">string direction</text><line style="stroke: #A80036; stroke-width: 1.5;" x1="377.5" x2="480.5" y1="191.6719" y2="191.6719"/><text fill="#000000" font-family="sans-serif" font-size="11" lengthAdjust="spacingAndGlyphs" textLength="30" x="382.5" y="207.0908">build()</text><!--link Model to Service--><path d="M492.567,209.139 C508.518,219.827 525.275,231.8343 540,244 C554.045,255.6038 568.387,269.8616 580.014,282.1525 " fill="none" id="Model-Service" style="stroke: #A80036; stroke-width: 1.0;"/><polygon fill="#A80036" points="589.076,291.9127,585.8839,282.5955,585.6741,288.2484,580.0211,288.0386,589.076,291.9127" style="stroke: #A80036; stroke-width: 1.0;"/><line style="stroke: #A80036; stroke-width: 1.0;" x1="585.6741" x2="580.2305" y1="288.2484" y2="282.3857"/><polygon fill="#FFFFFF" points="481.686,201.965,484.4933,208.6072,491.7044,208.5705,488.897,201.9283,481.686,201.965" style="stroke: #A80036; stroke-width: 1.0;"/><text fill="#000000" font-family="sans-serif" font-size="13" lengthAdjust="spacingAndGlyphs" textLength="96" x="560" y="258.4951">transformService</text><text fill="#000000" font-family="sans-serif" font-size="13" lengthAdjust="spacingAndGlyphs" textLength="7" x="576.1274" y="281.226">1</text><!--link Model to ChannelCreationPolicy--><path d="M363.385,174.226 C271.9,181.641 113.243,200.552 78,244 C70.065,253.7823 70.6703,267.1548 73.9945,279.3058 " fill="none" id="Model-ChannelCreationPolicy" style="stroke: #A80036; stroke-width: 1.0;"/><polygon fill="#A80036" points="78.3931,291.7838,79.1733,281.9659,76.7307,287.0682,71.6284,284.6257,78.3931,291.7838" style="stroke: #A80036; stroke-width: 1.0;"/><line style="stroke: #A80036; stroke-width: 1.0;" x1="76.7307" x2="74.0711" y1="287.0682" y2="279.5232"/><polygon fill="#FFFFFF" points="376.373,173.213,370.0804,169.6912,364.4093,174.1453,370.7019,177.667,376.373,173.213" style="stroke: #A80036; stroke-width: 1.0;"/><text fill="#000000" font-family="sans-serif" font-size="13" lengthAdjust="spacingAndGlyphs" textLength="34" x="79" y="258.4951">policy</text><text fill="#000000" font-family="sans-serif" font-size="13" lengthAdjust="spacingAndGlyphs" textLength="7" x="67.3791" y="281.0576">n</text><!--link ChannelCreationPolicy to Model--><path d="M120.1,283.8893 C137.81,270.4926 160.683,254.7717 183,244 C241.379,215.822 312.766,195.787 363.572,183.731 " fill="none" id="ChannelCreationPolicy-Model" style="stroke: #A80036; stroke-width: 1.0;"/><polygon fill="#A80036" points="376.35,180.764,366.6785,178.9031,371.4795,181.8948,368.4878,186.6958,376.35,180.764" style="stroke: #A80036; stroke-width: 1.0;"/><line style="stroke: #A80036; stroke-width: 1.0;" x1="371.4795" x2="363.687" y1="181.8948" y2="183.704"/><polygon fill="#FFFFFF" points="109.792,291.8653,116.9852,291.357,119.2826,284.5217,112.0894,285.03,109.792,291.8653" style="stroke: #A80036; stroke-width: 1.0;"/><text fill="#000000" font-family="sans-serif" font-size="13" lengthAdjust="spacingAndGlyphs" textLength="52" x="184" y="258.4951">channels</text><text fill="#000000" font-family="sans-serif" font-size="13" lengthAdjust="spacingAndGlyphs" textLength="7" x="361.4539" y="178.8478">n</text><!--link Model to DataChannelInstance--><path d="M363.357,178.398 C322.742,187.358 273.616,205.853 248,244 C238.318,258.4186 248.588,272.7766 263.291,284.4006 " fill="none" id="Model-DataChannelInstance" style="stroke: #A80036; stroke-width: 1.0;"/><polygon fill="#A80036" points="273.987,291.9784,268.9552,283.512,269.907,289.0882,264.3308,290.04,273.987,291.9784" style="stroke: #A80036; stroke-width: 1.0;"/><line style="stroke: #A80036; stroke-width: 1.0;" x1="269.907" x2="263.379" y1="289.0882" y2="284.4632"/><polygon fill="#FFFFFF" points="376.204,175.811,369.5323,173.0746,364.4403,178.1806,371.112,180.917,376.204,175.811" style="stroke: #A80036; stroke-width: 1.0;"/><text fill="#000000" font-family="sans-serif" font-size="13" lengthAdjust="spacingAndGlyphs" textLength="56" x="249" y="258.4951">instances</text><text fill="#000000" font-family="sans-serif" font-size="13" lengthAdjust="spacingAndGlyphs" textLength="7" x="254.711" y="280.9787">n</text><!--link DataChannelInstance to Model--><path d="M333.062,281.9276 C347.193,265.4419 365.534,244.0434 382.39,224.378 " fill="none" id="DataChannelInstance-Model" style="stroke: #A80036; stroke-width: 1.0;"/><polygon fill="#A80036" points="391.031,214.297,382.1372,218.5278,387.7773,218.0935,388.2116,223.7337,391.031,214.297" style="stroke: #A80036; stroke-width: 1.0;"/><line style="stroke: #A80036; stroke-width: 1.0;" x1="387.7773" x2="382.571" y1="218.0935" y2="224.167"/><polygon fill="#FFFFFF" points="324.442,291.9841,331.3838,290.0318,332.2516,282.8732,325.3098,284.8254,324.442,291.9841" style="stroke: #A80036; stroke-width: 1.0;"/><text fill="#000000" font-family="sans-serif" font-size="13" lengthAdjust="spacingAndGlyphs" textLength="38" x="367" y="258.4951">design</text><text fill="#000000" font-family="sans-serif" font-size="13" lengthAdjust="spacingAndGlyphs" textLength="7" x="378.4586" y="235.0106">1</text><!--link Model to DataStream--><path d="M419.047,227.423 C419.189,239.2708 421.053,251.3673 426,262 C429.653,269.8517 435.293,276.8791 441.63,282.9764 " fill="none" id="Model-DataStream" style="stroke: #A80036; stroke-width: 1.0;"/><polygon fill="#A80036" points="451.979,291.7771,447.7141,282.8996,448.17,288.538,442.5316,288.9939,451.979,291.7771" style="stroke: #A80036; stroke-width: 1.0;"/><line style="stroke: #A80036; stroke-width: 1.0;" x1="448.17" x2="442.0755" y1="288.538" y2="283.3552"/><polygon fill="#FFFFFF" points="419.545,214.244,415.321,220.0885,419.0913,226.2354,423.3153,220.3909,419.545,214.244" style="stroke: #A80036; stroke-width: 1.0;"/><text fill="#000000" font-family="sans-serif" font-size="13" lengthAdjust="spacingAndGlyphs" textLength="40" x="427" y="258.4951">stream</text><text fill="#000000" font-family="sans-serif" font-size="13" lengthAdjust="spacingAndGlyphs" textLength="7" x="434.4069" y="281.0489">1</text><!--link DataStream to Model--><path d="M480.137,278.702 C478.504,267.5267 475.959,254.9886 472,244 C469.847,238.0238 467.214,231.98 464.322,226.058 " fill="none" id="DataStream-Model" style="stroke: #A80036; stroke-width: 1.0;"/><polygon fill="#A80036" points="458.09,214.133,458.7136,223.9621,460.4059,218.5643,465.8037,220.2566,458.09,214.133" style="stroke: #A80036; stroke-width: 1.0;"/><line style="stroke: #A80036; stroke-width: 1.0;" x1="460.4059" x2="464.1105" y1="218.5643" y2="225.6545"/><polygon fill="#A80036" points="481.753,291.9092,484.9944,285.4676,480.295,279.9981,477.0536,286.4397,481.753,291.9092" style="stroke: #A80036; stroke-width: 1.0;"/><text fill="#000000" font-family="sans-serif" font-size="13" lengthAdjust="spacingAndGlyphs" textLength="52" x="479" y="258.4951">channels</text><text fill="#000000" font-family="sans-serif" font-size="13" lengthAdjust="spacingAndGlyphs" textLength="7" x="454.6886" y="235.1593">n</text><!--link Model to SecurityKey--><path d="M494.409,187.901 C542.246,201.62 608.391,221.901 665,244 C696.8,256.4144 731.517,272.7614 758.423,286.0805 " fill="none" id="Model-SecurityKey" style="stroke: #A80036; stroke-width: 1.0;"/><polygon fill="#A80036" points="770.198,291.962,763.9337,284.3621,765.7249,289.7279,760.3591,291.5191,770.198,291.962" style="stroke: #A80036; stroke-width: 1.0;"/><line style="stroke: #A80036; stroke-width: 1.0;" x1="765.7249" x2="758.568" y1="289.7279" y2="286.1527"/><polygon fill="#FFFFFF" points="481.735,184.296,486.4116,189.7851,493.2771,187.5794,488.6005,182.0904,481.735,184.296" style="stroke: #A80036; stroke-width: 1.0;"/><text fill="#000000" font-family="sans-serif" font-size="13" lengthAdjust="spacingAndGlyphs" textLength="83" x="706" y="258.4951">encryptionKey</text><text fill="#000000" font-family="sans-serif" font-size="13" lengthAdjust="spacingAndGlyphs" textLength="7" x="751.468" y="281.2904">1</text><!--link Model to SecurityKey--><path d="M494.759,174.048 C589.677,181.347 758.099,200.237 798,244 C806.461,253.2797 808.986,266.62 809.097,278.8817 " fill="none" id="Model-SecurityKey-1" style="stroke: #A80036; stroke-width: 1.0;"/><polygon fill="#A80036" points="808.383,291.9933,812.8665,283.2241,808.6549,287.0007,804.8783,282.7891,808.383,291.9933" style="stroke: #A80036; stroke-width: 1.0;"/><line style="stroke: #A80036; stroke-width: 1.0;" x1="808.6549" x2="809.09" y1="287.0007" y2="279.0125"/><polygon fill="#FFFFFF" points="481.594,173.073,487.2823,177.5051,493.5612,173.9591,487.873,169.527,481.594,173.073" style="stroke: #A80036; stroke-width: 1.0;"/><text fill="#000000" font-family="sans-serif" font-size="13" lengthAdjust="spacingAndGlyphs" textLength="83" x="808" y="258.4951">decryptionKey</text><text fill="#000000" font-family="sans-serif" font-size="13" lengthAdjust="spacingAndGlyphs" textLength="7" x="801.3457" y="280.9983">1</text><!--link ChannelActivationItem to Model--><path d="M185.496,51.65 C234.746,75.182 310.561,111.408 364.5,137.181 " fill="none" id="ChannelActivationItem-Model" style="stroke: #A80036; stroke-width: 1.0;"/><polygon fill="#A80036" points="376.342,142.839,369.9464,135.3493,371.8307,140.6831,366.4969,142.5674,376.342,142.839" style="stroke: #A80036; stroke-width: 1.0;"/><line style="stroke: #A80036; stroke-width: 1.0;" x1="371.8307" x2="364.612" y1="140.6831" y2="137.2345"/><polygon fill="#FFFFFF" points="173.705,46.016,177.3944,52.2118,184.5327,51.1892,180.8432,44.9934,173.705,46.016" style="stroke: #A80036; stroke-width: 1.0;"/><text fill="#000000" font-family="sans-serif" font-size="13" lengthAdjust="spacingAndGlyphs" textLength="45" x="275" y="90.4951">channel</text><text fill="#000000" font-family="sans-serif" font-size="13" lengthAdjust="spacingAndGlyphs" textLength="7" x="361.4448" y="135.5896">1</text><!--link InputChannelInstance to Model--><path d="M350.396,56.843 C361.876,73.077 376.594,93.891 390.184,113.109 " fill="none" id="InputChannelInstance-Model" style="stroke: #A80036; stroke-width: 1.0;"/><polygon fill="#A80036" points="397.806,123.887,395.8757,114.2292,394.9192,119.8046,389.3438,118.8481,397.806,123.887" style="stroke: #A80036; stroke-width: 1.0;"/><line style="stroke: #A80036; stroke-width: 1.0;" x1="394.9192" x2="390.3" y1="119.8046" y2="113.273"/><polygon fill="#FFFFFF" points="342.74,46.016,342.9382,53.2244,349.6684,55.8138,349.4701,48.6055,342.74,46.016" style="stroke: #A80036; stroke-width: 1.0;"/><text fill="#000000" font-family="sans-serif" font-size="13" lengthAdjust="spacingAndGlyphs" textLength="38" x="378" y="90.4951">design</text><text fill="#000000" font-family="sans-serif" font-size="13" lengthAdjust="spacingAndGlyphs" textLength="7" x="385.2766" y="112.9845">1</text><!--link OutputChannelInstance to Model--><path d="M507.604,56.843 C496.124,73.077 481.406,93.891 467.816,113.109 " fill="none" id="OutputChannelInstance-Model" style="stroke: #A80036; stroke-width: 1.0;"/><polygon fill="#A80036" points="460.194,123.887,468.6562,118.8481,463.0808,119.8046,462.1243,114.2292,460.194,123.887" style="stroke: #A80036; stroke-width: 1.0;"/><line style="stroke: #A80036; stroke-width: 1.0;" x1="463.0808" x2="467.7" y1="119.8046" y2="113.273"/><polygon fill="#FFFFFF" points="515.26,46.016,508.5299,48.6055,508.3316,55.8138,515.0618,53.2244,515.26,46.016" style="stroke: #A80036; stroke-width: 1.0;"/><text fill="#000000" font-family="sans-serif" font-size="13" lengthAdjust="spacingAndGlyphs" textLength="38" x="495" y="90.4951">design</text><text fill="#000000" font-family="sans-serif" font-size="13" lengthAdjust="spacingAndGlyphs" textLength="7" x="457.6077" y="112.9845">1</text><!--link AdminDataStream to Model--><path d="M666.453,51.764 C618.857,75.063 546.008,110.724 493.552,136.401 " fill="none" id="AdminDataStream-Model" style="stroke: #A80036; stroke-width: 1.0;"/><polygon fill="#A80036" points="481.687,142.209,491.5291,141.8445,486.1778,140.0106,488.0117,134.6593,481.687,142.209" style="stroke: #A80036; stroke-width: 1.0;"/><line style="stroke: #A80036; stroke-width: 1.0;" x1="486.1778" x2="493.3635" y1="140.0106" y2="136.4935"/><polygon fill="#A80036" points="678.196,46.016,671.0484,45.0615,667.4182,51.2922,674.5658,52.2467,678.196,46.016" style="stroke: #A80036; stroke-width: 1.0;"/><text fill="#000000" font-family="sans-serif" font-size="13" lengthAdjust="spacingAndGlyphs" textLength="52" x="616" y="90.4951">channels</text><text fill="#000000" font-family="sans-serif" font-size="13" lengthAdjust="spacingAndGlyphs" textLength="7" x="489.5883" y="134.871">n</text><!--
@startuml

class "DataChannel" as Model {
 string name
 string direction

 build()
 
}

rectangle "Service" as Service #lightblue {
}

Model o- -> "1" Service : transformService


rectangle "ChannelCreationPolicy" as ChannelCreationPolicy #lightblue {
}

Model o- -> "n" ChannelCreationPolicy : policy


rectangle "DataChannelInstance" as DataChannelInstance #lightblue {
}

Model o- -> "n" DataChannelInstance : instances


rectangle "DataStream" as DataStream #lightblue {
}

Model o- -> "1" DataStream : stream


rectangle "SecurityKey" as SecurityKey #lightblue {
}

Model o- -> "1" SecurityKey : encryptionKey


rectangle "SecurityKey" as SecurityKey #lightblue {
}

Model o- -> "1" SecurityKey : decryptionKey




    rectangle "ChannelActivationItem" as ChannelActivationItem #lightgreen {
    }
    
        ChannelActivationItem   o- -> "1" Model : "channel"
    
    rectangle "ChannelCreationPolicy" as ChannelCreationPolicy #lightgreen {
    }
    
        ChannelCreationPolicy   o- -> "n" Model : "channels"
    
    rectangle "DataChannelInstance" as DataChannelInstance #lightgreen {
    }
    
        DataChannelInstance   o- -> "1" Model : "design"
    
    rectangle "DataStream" as DataStream #lightgreen {
    }
    
        DataStream   *- -> "n" Model : "channels"
    
    rectangle "InputChannelInstance" as InputChannelInstance #lightgreen {
    }
    
        InputChannelInstance   o- -> "1" Model : "design"
    
    rectangle "OutputChannelInstance" as OutputChannelInstance #lightgreen {
    }
    
        OutputChannelInstance   o- -> "1" Model : "design"
    
    rectangle "AdminDataStream" as AdminDataStream #lightgreen {
    }
    
        AdminDataStream   *- -> "n" Model : "channels"
    

@enduml

PlantUML version 1.2019.05(Sat Apr 20 09:45:36 PDT 2019)
(GPL source distribution)
Java Runtime: Java(TM) SE Runtime Environment
JVM: Java HotSpot(TM) Client VM
Java Version: 1.8.0_271-b09
Operating System: Windows 10
OS Version: 10.0
Default Encoding: Cp1252
Language: en
Country: US
--></g></svg>