<?xml version="1.0" encoding="us-ascii" standalone="no"?><svg xmlns="http://www.w3.org/2000/svg" xmlns:xlink="http://www.w3.org/1999/xlink" contentStyleType="text/css" height="345px" preserveAspectRatio="none" style="width:897px;height:345px;background:#FFFFFF;" version="1.1" viewBox="0 0 897 345" width="897px" zoomAndPan="magnify"><defs/><g><!--entity Service--><g id="elem_Service"><rect fill="#ADD8E6" height="37.6094" rx="2.5" ry="2.5" style="stroke:#181818;stroke-width:0.5;" width="67" x="572.5" y="302"/><text fill="#000000" font-family="sans-serif" font-size="14" lengthAdjust="spacing" textLength="47" x="582.5" y="326.5332">Service</text></g><!--entity ChannelCreationPolicy--><g id="elem_ChannelCreationPolicy"><rect fill="#90EE90" height="37.6094" rx="2.5" ry="2.5" style="stroke:#181818;stroke-width:0.5;" width="164" x="7" y="302"/><text fill="#000000" font-family="sans-serif" font-size="14" lengthAdjust="spacing" textLength="144" x="17" y="326.5332">ChannelCreationPolicy</text></g><!--entity DataChannelInstance--><g id="elem_DataChannelInstance"><rect fill="#90EE90" height="37.6094" rx="2.5" ry="2.5" style="stroke:#181818;stroke-width:0.5;" width="156" x="232" y="302"/><text fill="#000000" font-family="sans-serif" font-size="14" lengthAdjust="spacing" textLength="136" x="242" y="326.5332">DataChannelInstance</text></g><!--entity DataStream--><g id="elem_DataStream"><rect fill="#90EE90" height="37.6094" rx="2.5" ry="2.5" style="stroke:#181818;stroke-width:0.5;" width="95" x="436.5" y="302"/><text fill="#000000" font-family="sans-serif" font-size="14" lengthAdjust="spacing" textLength="75" x="446.5" y="326.5332">DataStream</text></g><!--entity SecurityKey--><g id="elem_SecurityKey"><rect fill="#ADD8E6" height="37.6094" rx="2.5" ry="2.5" style="stroke:#181818;stroke-width:0.5;" width="95" x="758.5" y="302"/><text fill="#000000" font-family="sans-serif" font-size="14" lengthAdjust="spacing" textLength="75" x="768.5" y="326.5332">SecurityKey</text></g><!--entity ChannelActivationItem--><g id="elem_ChannelActivationItem"><rect fill="#90EE90" height="37.6094" rx="2.5" ry="2.5" style="stroke:#181818;stroke-width:0.5;" width="160" x="57" y="7"/><text fill="#000000" font-family="sans-serif" font-size="14" lengthAdjust="spacing" textLength="140" x="67" y="31.5332">ChannelActivationItem</text></g><!--entity InputChannelInstance--><g id="elem_InputChannelInstance"><rect fill="#90EE90" height="37.6094" rx="2.5" ry="2.5" style="stroke:#181818;stroke-width:0.5;" width="157" x="252.5" y="7"/><text fill="#000000" font-family="sans-serif" font-size="14" lengthAdjust="spacing" textLength="137" x="262.5" y="31.5332">InputChannelInstance</text></g><!--entity OutputChannelInstance--><g id="elem_OutputChannelInstance"><rect fill="#90EE90" height="37.6094" rx="2.5" ry="2.5" style="stroke:#181818;stroke-width:0.5;" width="169" x="444.5" y="7"/><text fill="#000000" font-family="sans-serif" font-size="14" lengthAdjust="spacing" textLength="149" x="454.5" y="31.5332">OutputChannelInstance</text></g><!--entity AdminDataStream--><g id="elem_AdminDataStream"><rect fill="#90EE90" height="37.6094" rx="2.5" ry="2.5" style="stroke:#181818;stroke-width:0.5;" width="134" x="649" y="7"/><text fill="#000000" font-family="sans-serif" font-size="14" lengthAdjust="spacing" textLength="114" x="659" y="31.5332">AdminDataStream</text></g><!--class Model--><g id="elem_Model"><rect codeLine="2" fill="#F1F1F1" height="100.8281" id="Model" rx="2.5" ry="2.5" style="stroke:#181818;stroke-width:0.5;" width="115" x="372.5" y="123"/><ellipse cx="387.5" cy="139" fill="#ADD1B2" rx="11" ry="11" style="stroke:#181818;stroke-width:1.0;"/><path d="M390.2656,134.875 Q390.4219,134.6563 390.6094,134.5469 Q390.7969,134.4375 391.0156,134.4375 Q391.3906,134.4375 391.625,134.6953 Q391.8594,134.9531 391.8594,135.5625 L391.8594,137.0156 Q391.8594,137.625 391.625,137.8906 Q391.3906,138.1563 391.0156,138.1563 Q390.6719,138.1563 390.4688,137.9531 Q390.2656,137.7656 390.1563,137.25 Q390.1094,136.8906 389.9219,136.7031 Q389.5938,136.3281 388.9844,136.1094 Q388.375,135.8906 387.75,135.8906 Q386.9844,135.8906 386.3516,136.2188 Q385.7188,136.5469 385.2266,137.2969 Q384.7344,138.0469 384.7344,139.0781 L384.7344,140.1719 Q384.7344,141.4063 385.625,142.2266 Q386.5156,143.0469 388.1094,143.0469 Q389.0469,143.0469 389.7031,142.7969 Q390.0938,142.6406 390.5156,142.2031 Q390.7813,141.9375 390.9297,141.8594 Q391.0781,141.7813 391.2813,141.7813 Q391.6094,141.7813 391.8672,142.0391 Q392.125,142.2969 392.125,142.6406 Q392.125,142.9844 391.7813,143.3906 Q391.2813,143.9688 390.4844,144.2969 Q389.4063,144.75 388.1094,144.75 Q386.5938,144.75 385.3906,144.125 Q384.4063,143.625 383.7188,142.5547 Q383.0313,141.4844 383.0313,140.2031 L383.0313,139.0469 Q383.0313,137.7188 383.6484,136.5703 Q384.2656,135.4219 385.3594,134.8047 Q386.4531,134.1875 387.6875,134.1875 Q388.4219,134.1875 389.0703,134.3516 Q389.7188,134.5156 390.2656,134.875 Z " fill="#000000"/><text fill="#000000" font-family="sans-serif" font-size="14" lengthAdjust="spacing" textLength="83" x="401.5" y="144.7285">DataChannel</text><line style="stroke:#181818;stroke-width:0.5;" x1="373.5" x2="486.5" y1="155" y2="155"/><text fill="#000000" font-family="sans-serif" font-size="14" lengthAdjust="spacing" textLength="74" x="378.5" y="173.5332">string name</text><text fill="#000000" font-family="sans-serif" font-size="14" lengthAdjust="spacing" textLength="93" x="378.5" y="191.1426">string direction</text><line style="stroke:#181818;stroke-width:0.5;" x1="373.5" x2="486.5" y1="198.2188" y2="198.2188"/><text fill="#000000" font-family="sans-serif" font-size="14" lengthAdjust="spacing" textLength="40" x="378.5" y="216.752">build()</text></g><!--link Model to Service--><g id="link_Model_Service"><path codeLine="13" d="M497.2282,221.0597 C514.2082,233.3597 522.84,240.28 539,254 C556.92,269.22 571.7219,283.8745 584.8819,297.5645 " fill="none" id="Model-Service" style="stroke:#181818;stroke-width:1.0;"/><polygon fill="none" points="487.51,214.02,490.0225,220.7792,497.2282,221.0597,494.7156,214.3004,487.51,214.02" style="stroke:#181818;stroke-width:1.0;"/><polygon fill="#181818" points="589.04,301.89,585.6866,292.6296,585.5749,298.2854,579.9192,298.1737,589.04,301.89" style="stroke:#181818;stroke-width:1.0;"/><text fill="#000000" font-family="sans-serif" font-size="13" lengthAdjust="spacing" textLength="96" x="559" y="268.4951">transformService</text><text fill="#000000" font-family="sans-serif" font-size="13" lengthAdjust="spacing" textLength="7" x="575.7741" y="291.1963">1</text></g><!--link Model to ChannelCreationPolicy--><g id="link_Model_ChannelCreationPolicy"><path codeLine="19" d="M360.3521,180.1466 C270.3621,188.5566 115.07,208.84 79,254 C68.29,267.4 70.9649,281.8473 77.1049,296.3073 " fill="none" id="Model-ChannelCreationPolicy" style="stroke:#181818;stroke-width:1.0;"/><polygon fill="none" points="372.3,179.03,365.9538,175.6057,360.3521,180.1466,366.6982,183.5709,372.3,179.03" style="stroke:#181818;stroke-width:1.0;"/><polygon fill="#181818" points="79.45,301.83,79.6142,291.9825,77.4958,297.2277,72.2506,295.1093,79.45,301.83" style="stroke:#181818;stroke-width:1.0;"/><text fill="#000000" font-family="sans-serif" font-size="13" lengthAdjust="spacing" textLength="34" x="80" y="268.4951">policy</text><text fill="#000000" font-family="sans-serif" font-size="13" lengthAdjust="spacing" textLength="7" x="68.4534" y="291.118">n</text></g><!--link ChannelCreationPolicy to Model--><g id="link_ChannelCreationPolicy_Model"><path codeLine="56" d="M120.685,294.3178 C139.225,279.7878 157.37,267.19 184,254 C245.54,223.52 315.579,202.574 366.649,189.444 " fill="none" id="ChannelCreationPolicy-Model" style="stroke:#181818;stroke-width:1.0;"/><polygon fill="none" points="111.24,301.72,118.4299,301.1673,120.685,294.3178,113.4951,294.8706,111.24,301.72" style="stroke:#181818;stroke-width:1.0;"/><polygon fill="#181818" points="372.46,187.95,362.7475,186.317,367.6175,189.195,364.7395,194.065,372.46,187.95" style="stroke:#181818;stroke-width:1.0;"/><text fill="#000000" font-family="sans-serif" font-size="13" lengthAdjust="spacing" textLength="52" x="185" y="268.4951">channels</text><text fill="#000000" font-family="sans-serif" font-size="13" lengthAdjust="spacing" textLength="7" x="357.6393" y="186.3051">n</text></g><!--link Model to DataChannelInstance--><g id="link_Model_DataChannelInstance"><path codeLine="25" d="M360.6269,185.623 C318.5869,195.153 276.12,212.47 249,254 C237.4,271.77 250.301,286.023 269.671,298.543 " fill="none" id="Model-DataChannelInstance" style="stroke:#181818;stroke-width:1.0;"/><polygon fill="none" points="372.33,182.97,365.5941,180.3955,360.6269,185.623,367.3628,188.1975,372.33,182.97" style="stroke:#181818;stroke-width:1.0;"/><polygon fill="#181818" points="274.71,301.8,269.3228,293.5551,270.5108,299.0858,264.9801,300.2738,274.71,301.8" style="stroke:#181818;stroke-width:1.0;"/><text fill="#000000" font-family="sans-serif" font-size="13" lengthAdjust="spacing" textLength="56" x="250" y="268.4951">instances</text><text fill="#000000" font-family="sans-serif" font-size="13" lengthAdjust="spacing" textLength="7" x="255.8306" y="291.0788">n</text></g><!--link DataChannelInstance to Model--><g id="link_DataChannelInstance_Model"><path codeLine="61" d="M332.5855,292.6126 C348.5455,273.2626 363.0812,255.6278 385.2212,228.7978 " fill="none" id="DataChannelInstance-Model" style="stroke:#181818;stroke-width:1.0;"/><polygon fill="none" points="324.95,301.87,331.8536,299.7865,332.5855,292.6126,325.682,294.6961,324.95,301.87" style="stroke:#181818;stroke-width:1.0;"/><polygon fill="#181818" points="389.04,224.17,380.2265,228.5658,385.8576,228.0265,386.3969,233.6576,389.04,224.17" style="stroke:#181818;stroke-width:1.0;"/><text fill="#000000" font-family="sans-serif" font-size="13" lengthAdjust="spacing" textLength="38" x="364" y="268.4951">design</text><text fill="#000000" font-family="sans-serif" font-size="13" lengthAdjust="spacing" textLength="7" x="376.3436" y="245.2157">1</text></g><!--link Model to DataStream--><g id="link_Model_DataStream"><path codeLine="31" d="M419.1173,236.1044 C418.0773,252.0144 420.18,257.34 427,272 C432.57,283.96 437.9719,290.3809 448.2019,298.1509 " fill="none" id="Model-DataStream" style="stroke:#181818;stroke-width:1.0;"/><polygon fill="none" points="419.9,224.13,415.5171,229.8563,419.1173,236.1044,423.5001,230.3781,419.9,224.13" style="stroke:#181818;stroke-width:1.0;"/><polygon fill="#181818" points="452.98,301.78,448.2323,293.151,448.9983,298.7558,443.3935,299.5218,452.98,301.78" style="stroke:#181818;stroke-width:1.0;"/><text fill="#000000" font-family="sans-serif" font-size="13" lengthAdjust="spacing" textLength="40" x="428" y="268.4951">stream</text><text fill="#000000" font-family="sans-serif" font-size="13" lengthAdjust="spacing" textLength="7" x="435.4083" y="291.0526">1</text></g><!--link DataStream to Model--><g id="link_DataStream_Model"><path codeLine="66" d="M481.3547,290.0258 C479.9347,276.5258 478.39,269.71 473,254 C469.59,244.06 467.7388,239.2187 462.8488,229.5987 " fill="none" id="DataStream-Model" style="stroke:#181818;stroke-width:1.0;"/><polygon fill="#181818" points="482.61,301.96,485.9604,295.5745,481.3547,290.0258,478.0043,296.4114,482.61,301.96" style="stroke:#181818;stroke-width:1.0;"/><polygon fill="#181818" points="460.13,224.25,460.6424,234.0855,462.3957,228.7072,467.774,230.4604,460.13,224.25" style="stroke:#181818;stroke-width:1.0;"/><text fill="#000000" font-family="sans-serif" font-size="13" lengthAdjust="spacing" textLength="52" x="478" y="268.4951">channels</text><text fill="#000000" font-family="sans-serif" font-size="13" lengthAdjust="spacing" textLength="7" x="456.542" y="245.306">n</text></g><!--link Model to SecurityKey--><g id="link_Model_SecurityKey"><path codeLine="37" d="M499.2913,195.8589 C547.0313,210.9589 604.86,230.29 664,254 C700.71,268.72 736.1816,285.3908 764.6016,299.3108 " fill="none" id="Model-SecurityKey" style="stroke:#181818;stroke-width:1.0;"/><polygon fill="none" points="487.85,192.24,492.3644,197.8632,499.2913,195.8589,494.7769,190.2357,487.85,192.24" style="stroke:#181818;stroke-width:1.0;"/><polygon fill="#181818" points="769.99,301.95,763.6669,294.3989,765.4997,299.7507,760.148,301.5834,769.99,301.95" style="stroke:#181818;stroke-width:1.0;"/><text fill="#000000" font-family="sans-serif" font-size="13" lengthAdjust="spacing" textLength="83" x="704" y="268.4951">encryptionKey</text><text fill="#000000" font-family="sans-serif" font-size="13" lengthAdjust="spacing" textLength="7" x="750.8901" y="291.2747">1</text></g><!--link Model to SecurityKey--><g id="link_Model_SecurityKey"><path codeLine="43" d="M499.7967,180.3198 C592.1067,189.0498 754.62,209.9 796,254 C807.9,266.68 809.6406,281.1708 808.7506,295.9508 " fill="none" id="Model-SecurityKey-1" style="stroke:#181818;stroke-width:1.0;"/><polygon fill="none" points="487.85,179.19,493.4467,183.7371,499.7967,180.3198,494.2,175.7727,487.85,179.19" style="stroke:#181818;stroke-width:1.0;"/><polygon fill="#181818" points="808.39,301.94,812.9237,293.1967,808.6905,296.949,804.9382,292.7158,808.39,301.94" style="stroke:#181818;stroke-width:1.0;"/><text fill="#000000" font-family="sans-serif" font-size="13" lengthAdjust="spacing" textLength="83" x="806" y="268.4951">decryptionKey</text><text fill="#000000" font-family="sans-serif" font-size="13" lengthAdjust="spacing" textLength="7" x="801.0501" y="291.2616">1</text></g><!--link ChannelActivationItem to Model--><g id="link_ChannelActivationItem_Model"><path codeLine="51" d="M184.2673,50.4681 C234.1173,75.2281 307.9062,111.8713 366.9262,141.1813 " fill="none" id="ChannelActivationItem-Model" style="stroke:#181818;stroke-width:1.0;"/><polygon fill="none" points="173.52,45.13,177.1143,51.3815,184.2673,50.4681,180.673,44.2166,173.52,45.13" style="stroke:#181818;stroke-width:1.0;"/><polygon fill="#181818" points="372.3,143.85,366.0184,136.2644,367.8218,141.6261,362.4601,143.4295,372.3,143.85" style="stroke:#181818;stroke-width:1.0;"/><text fill="#000000" font-family="sans-serif" font-size="13" lengthAdjust="spacing" textLength="45" x="267" y="89.4951">channel</text><text fill="#000000" font-family="sans-serif" font-size="13" lengthAdjust="spacing" textLength="7" x="357.4588" y="136.5547">1</text></g><!--link InputChannelInstance to Model--><g id="link_InputChannelInstance_Model"><path codeLine="71" d="M350.0884,55.0526 C363.2484,74.4026 374.5654,91.0189 392.8154,117.8489 " fill="none" id="InputChannelInstance-Model" style="stroke:#181818;stroke-width:1.0;"/><polygon fill="none" points="343.34,45.13,343.4067,52.3408,350.0884,55.0526,350.0218,47.8418,343.34,45.13" style="stroke:#181818;stroke-width:1.0;"/><polygon fill="#181818" points="396.19,122.81,394.4355,113.1187,393.3779,118.6758,387.8208,117.6181,396.19,122.81" style="stroke:#181818;stroke-width:1.0;"/><text fill="#000000" font-family="sans-serif" font-size="13" lengthAdjust="spacing" textLength="38" x="376" y="89.4951">design</text><text fill="#000000" font-family="sans-serif" font-size="13" lengthAdjust="spacing" textLength="7" x="383.9433" y="112.0886">1</text></g><!--link OutputChannelInstance to Model--><g id="link_OutputChannelInstance_Model"><path codeLine="76" d="M509.9116,55.0526 C496.7516,74.4026 485.4346,91.0189 467.1846,117.8489 " fill="none" id="OutputChannelInstance-Model" style="stroke:#181818;stroke-width:1.0;"/><polygon fill="none" points="516.66,45.13,509.9782,47.8418,509.9116,55.0526,516.5933,52.3408,516.66,45.13" style="stroke:#181818;stroke-width:1.0;"/><polygon fill="#181818" points="463.81,122.81,472.1792,117.6181,466.6221,118.6758,465.5645,113.1187,463.81,122.81" style="stroke:#181818;stroke-width:1.0;"/><text fill="#000000" font-family="sans-serif" font-size="13" lengthAdjust="spacing" textLength="38" x="495" y="89.4951">design</text><text fill="#000000" font-family="sans-serif" font-size="13" lengthAdjust="spacing" textLength="7" x="461.0723" y="112.0886">1</text></g><!--link AdminDataStream to Model--><g id="link_AdminDataStream_Model"><path codeLine="81" d="M669.6643,50.5708 C621.3643,75.1408 550.6277,111.1293 492.9977,140.4493 " fill="none" id="AdminDataStream-Model" style="stroke:#181818;stroke-width:1.0;"/><polygon fill="#181818" points="680.36,45.13,673.1986,44.2852,669.6643,50.5708,676.8258,51.4156,680.36,45.13" style="stroke:#181818;stroke-width:1.0;"/><polygon fill="#181818" points="487.65,143.17,497.4853,142.6541,492.1064,140.9027,493.8577,135.5238,487.65,143.17" style="stroke:#181818;stroke-width:1.0;"/><text fill="#000000" font-family="sans-serif" font-size="13" lengthAdjust="spacing" textLength="52" x="616" y="89.4951">channels</text><text fill="#000000" font-family="sans-serif" font-size="13" lengthAdjust="spacing" textLength="7" x="495.4848" y="135.7876">n</text></g><!--SRC=[jLF1QiCm3BtxAuHtsGOzx9h3e7INKiO6_GBNqLA3enJRAOJHVv-JcgH9tNfXp0TZoNf-BzABrC9Qu6_2YTLU4A7c82oyLpbg-6PWdL5K08aI-o1N1gLJ5J46krhf_F690JinrgO55Hg1Rz4SbSJkiN261wsAlTlf6ltBllnCKYqMhy1VU5-MWJE2x5Tbof1YewU3pfL1qOhuhBIIJKSKlRbBI_m6A8D3TnXJNxHfJTPdmnT6yYdQ62G35OxscdVhlCAofpk7gPvUL6Rj-Fo1JUOaQwDSiy4cpAgFq_CQIZD0agOvj1tqyJznv3ZcyFxpwzeQI-_EOpVDjSFoqXhZcy1U64HgpUxNgTkxhLrn60m2ptepu3ByFGF-pvPDwvh0OB3NL9UD2vjlw3kYOg1OgtAqgg3RWkuvFK4VQW6UPpPYJOVQnJeHkqXhYQBczkAZTZT4HM_IgkAmkRAMUQbeCgT9BYrb2lZ5n7u0]--></g></svg>