<?xml version="1.0" encoding="UTF-8" standalone="no"?><svg xmlns="http://www.w3.org/2000/svg" xmlns:xlink="http://www.w3.org/1999/xlink" contentScriptType="application/ecmascript" contentStyleType="text/css" height="550px" preserveAspectRatio="none" style="width:337px;height:550px;" version="1.1" viewBox="0 0 337 550" width="337px" zoomAndPan="magnify"><defs><filter height="300%" id="f196ee2hkhwvd8" width="300%" x="-1" y="-1"><feGaussianBlur result="blurOut" stdDeviation="2.0"/><feColorMatrix in="blurOut" result="blurOut2" type="matrix" values="0 0 0 0 0 0 0 0 0 0 0 0 0 0 0 0 0 0 .4 0"/><feOffset dx="4.0" dy="4.0" in="blurOut2" result="blurOut3"/><feBlend in="SourceGraphic" in2="blurOut3" mode="normal"/></filter></defs><g><rect fill="#FFCC88" filter="url(#f196ee2hkhwvd8)" height="531.6094" rx="12.5" ry="12.5" style="stroke: #A80036; stroke-width: 1.5;" width="319" x="6" y="8"/><rect fill="#FFFFFF" height="498" rx="12.5" ry="12.5" style="stroke: #FFFFFF; stroke-width: 1.0;" width="313" x="9" y="38.6094"/><line style="stroke: #A80036; stroke-width: 1.5;" x1="6" x2="325" y1="35.6094" y2="35.6094"/><text fill="#000000" font-family="sans-serif" font-size="14" lengthAdjust="spacingAndGlyphs" textLength="83" x="124" y="27.5332">DataChannel</text><rect fill="#FFCC88" filter="url(#f196ee2hkhwvd8)" height="50" rx="12.5" ry="12.5" style="stroke: #A80036; stroke-width: 1.5;" width="50" x="147" y="48.6094"/><line style="stroke: #A80036; stroke-width: 1.5;" x1="147" x2="197" y1="76.2188" y2="76.2188"/><text fill="#000000" font-family="sans-serif" font-size="14" lengthAdjust="spacingAndGlyphs" textLength="18" x="163" y="68.1426">Init</text><rect fill="#FFCC88" filter="url(#f196ee2hkhwvd8)" height="50" rx="12.5" ry="12.5" style="stroke: #A80036; stroke-width: 1.5;" width="71" x="136.5" y="190.6094"/><line style="stroke: #A80036; stroke-width: 1.5;" x1="136.5" x2="207.5" y1="218.2188" y2="218.2188"/><text fill="#000000" font-family="sans-serif" font-size="14" lengthAdjust="spacingAndGlyphs" textLength="51" x="146.5" y="210.1426">Created</text><rect fill="#FFCC88" filter="url(#f196ee2hkhwvd8)" height="50" rx="12.5" ry="12.5" style="stroke: #A80036; stroke-width: 1.5;" width="75" x="96.5" y="332.6094"/><line style="stroke: #A80036; stroke-width: 1.5;" x1="96.5" x2="171.5" y1="360.2188" y2="360.2188"/><text fill="#000000" font-family="sans-serif" font-size="14" lengthAdjust="spacingAndGlyphs" textLength="55" x="106.5" y="352.1426">Disabled</text><rect fill="#FFCC88" filter="url(#f196ee2hkhwvd8)" height="50" rx="12.5" ry="12.5" style="stroke: #A80036; stroke-width: 1.5;" width="72" x="17" y="474.6094"/><line style="stroke: #A80036; stroke-width: 1.5;" x1="17" x2="89" y1="502.2188" y2="502.2188"/><text fill="#000000" font-family="sans-serif" font-size="14" lengthAdjust="spacingAndGlyphs" textLength="52" x="27" y="494.1426">Enabled</text><rect fill="#FFCC88" filter="url(#f196ee2hkhwvd8)" height="50" rx="12.5" ry="12.5" style="stroke: #A80036; stroke-width: 1.5;" width="85" x="140.5" y="474.6094"/><line style="stroke: #A80036; stroke-width: 1.5;" x1="140.5" x2="225.5" y1="502.2188" y2="502.2188"/><text fill="#000000" font-family="sans-serif" font-size="14" lengthAdjust="spacingAndGlyphs" textLength="65" x="150.5" y="494.1426">Destroyed</text><!--link Init to Created--><path d="M172,98.6764 C172,122.6164 172,159.3894 172,185.0824 " fill="none" id="Init-Created" style="stroke: #000000; stroke-width: 1.0;"/><polygon fill="#000000" points="172,190.3884,176,181.3884,172,185.3884,168,181.3884,172,190.3884" style="stroke: #000000; stroke-width: 1.0;"/><text fill="#000000" font-family="sans-serif" font-size="13" lengthAdjust="spacingAndGlyphs" textLength="36" x="173" y="150.1045">create</text><!--link Created to Disabled--><path d="M165.468,240.6764 C158.942,264.7164 148.905,301.6974 141.927,327.4044 " fill="none" id="Created-Disabled" style="stroke: #000000; stroke-width: 1.0;"/><polygon fill="#000000" points="140.574,332.3884,146.7921,324.7506,141.8839,327.563,139.0715,322.6548,140.574,332.3884" style="stroke: #000000; stroke-width: 1.0;"/><text fill="#000000" font-family="sans-serif" font-size="13" lengthAdjust="spacingAndGlyphs" textLength="41" x="156" y="292.1045">disable</text><!--link Created to Destroyed--><path d="M207.743,233.0544 C227.06,244.6394 247,262.2544 247,285.6094 C247,285.6094 247,285.6094 247,429.6094 C247,445.8972 237.295,459.9627 225.444,471.067 " fill="none" id="Created-Destroyed" style="stroke: #000000; stroke-width: 1.0;"/><polygon fill="#000000" points="221.706,474.4172,231.0779,471.3893,225.4295,471.0801,225.7386,465.4317,221.706,474.4172" style="stroke: #000000; stroke-width: 1.0;"/><text fill="#000000" font-family="sans-serif" font-size="13" lengthAdjust="spacingAndGlyphs" textLength="43" x="248" y="363.1045">destroy</text><!--link Disabled to Enabled--><path d="M96.4931,370.5734 C73.7319,379.9944 46.5399,395.6144 33,419.6094 C24.3047,435.0192 28.8783,454.2268 35.8316,469.8438 " fill="none" id="Disabled-Enabled" style="stroke: #000000; stroke-width: 1.0;"/><polygon fill="#000000" points="38.0538,474.567,37.8415,464.7204,35.9251,470.0427,30.6028,468.1263,38.0538,474.567" style="stroke: #000000; stroke-width: 1.0;"/><text fill="#000000" font-family="sans-serif" font-size="13" lengthAdjust="spacingAndGlyphs" textLength="38" x="34" y="434.1045">enable</text><!--link Disabled to Destroyed--><path d="M142.423,382.6764 C150.838,406.7164 163.781,443.6978 172.778,469.4043 " fill="none" id="Disabled-Destroyed" style="stroke: #000000; stroke-width: 1.0;"/><polygon fill="#000000" points="174.523,474.3881,175.3246,464.5719,172.8709,469.6689,167.7739,467.2152,174.523,474.3881" style="stroke: #000000; stroke-width: 1.0;"/><text fill="#000000" font-family="sans-serif" font-size="13" lengthAdjust="spacingAndGlyphs" textLength="43" x="162" y="434.1045">destroy</text><!--link Enabled to Disabled--><path d="M67.0138,474.3881 C81.0709,450.0917 102.7102,412.6904 117.568,387.0104 " fill="none" id="Enabled-Disabled" style="stroke: #000000; stroke-width: 1.0;"/><polygon fill="#000000" points="120.076,382.6764,112.106,388.4625,117.5716,387.004,119.0302,392.4696,120.076,382.6764" style="stroke: #000000; stroke-width: 1.0;"/><text fill="#000000" font-family="sans-serif" font-size="13" lengthAdjust="spacingAndGlyphs" textLength="41" x="99" y="434.1045">disbale</text><!--
@startuml



state DataChannel #ffcc88 {

    state Init #ffcc88 {
    }

    state Created #ffcc88 {
    }

    state Disabled #ffcc88 {
    }

    state Enabled #ffcc88 {
    }

    state Destroyed #ffcc88 {
    }




Init -[#black]- -> Created : create

Created -[#black]- -> Disabled : disable

Created -[#black]- -> Destroyed : destroy

Disabled -[#black]- -> Enabled : enable

Disabled -[#black]- -> Destroyed : destroy

Enabled -[#black]- -> Disabled : disbale

}


@enduml

PlantUML version 1.2019.05(Sat Apr 20 09:45:36 PDT 2019)
(GPL source distribution)
Java Runtime: Java(TM) SE Runtime Environment
JVM: Java HotSpot(TM) Client VM
Java Version: 1.8.0_271-b09
Operating System: Windows 10
OS Version: 10.0
Default Encoding: Cp1252
Language: en
Country: US
--></g></svg>