<?xml version="1.0" encoding="UTF-8" standalone="no"?><svg xmlns="http://www.w3.org/2000/svg" xmlns:xlink="http://www.w3.org/1999/xlink" contentScriptType="application/ecmascript" contentStyleType="text/css" height="295px" preserveAspectRatio="none" style="width:539px;height:295px;" version="1.1" viewBox="0 0 539 295" width="539px" zoomAndPan="magnify"><defs><filter height="300%" id="f9xjeaj30vmqr" width="300%" x="-1" y="-1"><feGaussianBlur result="blurOut" stdDeviation="2.0"/><feColorMatrix in="blurOut" result="blurOut2" type="matrix" values="0 0 0 0 0 0 0 0 0 0 0 0 0 0 0 0 0 0 .4 0"/><feOffset dx="4.0" dy="4.0" in="blurOut2" result="blurOut3"/><feBlend in="SourceGraphic" in2="blurOut3" mode="normal"/></filter></defs><g><ellipse cx="266.0399" cy="171.208" fill="#FFFF00" filter="url(#f9xjeaj30vmqr)" rx="79.0399" ry="18.208" style="stroke: #A80036; stroke-width: 1.5;"/><text fill="#000000" font-family="sans-serif" font-size="14" lengthAdjust="spacingAndGlyphs" textLength="124" x="204.0399" y="176.5127">Manage Application</text><!--entity DevOpsEngineer--><ellipse cx="186" cy="18" fill="#FEFECE" filter="url(#f9xjeaj30vmqr)" rx="8" ry="8" style="stroke: #A80036; stroke-width: 2.0;"/><path d="M186,26 L186,53 M173,34 L199,34 M186,53 L173,68 M186,53 L199,68 " fill="none" filter="url(#f9xjeaj30vmqr)" style="stroke: #A80036; stroke-width: 2.0;"/><text fill="#000000" font-family="sans-serif" font-size="14" lengthAdjust="spacingAndGlyphs" textLength="112" x="130" y="89.5332">DevOps Engineer</text><!--entity ApplicationDeveloper--><ellipse cx="346" cy="18" fill="#FEFECE" filter="url(#f9xjeaj30vmqr)" rx="8" ry="8" style="stroke: #A80036; stroke-width: 2.0;"/><path d="M346,26 L346,53 M333,34 L359,34 M346,53 L333,68 M346,53 L359,68 " fill="none" filter="url(#f9xjeaj30vmqr)" style="stroke: #A80036; stroke-width: 2.0;"/><text fill="#000000" font-family="sans-serif" font-size="14" lengthAdjust="spacingAndGlyphs" textLength="138" x="277" y="89.5332">Application Developer</text><ellipse cx="80.2325" cy="266.7465" fill="#D3D3D3" filter="url(#f9xjeaj30vmqr)" rx="74.2325" ry="17.2465" style="stroke: #A80036; stroke-width: 1.5;"/><text fill="#000000" font-family="sans-serif" font-size="14" lengthAdjust="spacingAndGlyphs" textLength="112" x="24.2325" y="272.0512">CreateApplication</text><ellipse cx="266.1143" cy="266.7229" fill="#D3D3D3" filter="url(#f9xjeaj30vmqr)" rx="76.6143" ry="17.7229" style="stroke: #A80036; stroke-width: 1.5;"/><text fill="#000000" font-family="sans-serif" font-size="14" lengthAdjust="spacingAndGlyphs" textLength="118" x="207.1143" y="272.0275">DestroyApplication</text><ellipse cx="453.0213" cy="266.4043" fill="#D3D3D3" filter="url(#f9xjeaj30vmqr)" rx="75.0213" ry="17.4043" style="stroke: #A80036; stroke-width: 1.5;"/><text fill="#000000" font-family="sans-serif" font-size="14" lengthAdjust="spacingAndGlyphs" textLength="114" x="396.0213" y="271.7089">UpdateApplication</text><!--link DevOpsEngineer to ManageApplication--><path d="M214.205,93.279 C226.87,112.038 241.267,133.364 251.662,148.762 " fill="none" id="DevOpsEngineer-ManageApplication" style="stroke: #A80036; stroke-width: 1.0;"/><polygon fill="#A80036" points="254.483,152.941,252.7635,143.2434,251.6858,148.7966,246.1326,147.7189,254.483,152.941" style="stroke: #A80036; stroke-width: 1.0;"/><!--link ApplicationDeveloper to ManageApplication--><path d="M317.795,93.279 C305.13,112.038 290.733,133.364 280.338,148.762 " fill="none" id="ApplicationDeveloper-ManageApplication" style="stroke: #A80036; stroke-width: 1.0;"/><polygon fill="#A80036" points="277.517,152.941,285.8674,147.7189,280.3142,148.7966,279.2365,143.2434,277.517,152.941" style="stroke: #A80036; stroke-width: 1.0;"/><!--link ManageApplication to CreateApplication--><path d="M234.868,187.6498 C201.415,204.4663 148.415,231.1084 113.921,248.4482 " fill="none" id="ManageApplication-CreateApplication" style="stroke: #A80036; stroke-width: 1.0;"/><polygon fill="#A80036" points="109.39,250.7258,119.2277,250.2573,113.8573,248.4801,115.6346,243.1097,109.39,250.7258" style="stroke: #A80036; stroke-width: 1.0;"/><!--link ManageApplication to DestroyApplication--><path d="M266,189.1493 C266,204.4011 266,226.7932 266,243.3874 " fill="none" id="ManageApplication-DestroyApplication" style="stroke: #A80036; stroke-width: 1.0;"/><polygon fill="#A80036" points="266,248.774,270,239.774,266,243.774,262,239.774,266,248.774" style="stroke: #A80036; stroke-width: 1.0;"/><!--link ManageApplication to UpdateApplication--><path d="M297.3,187.6498 C330.734,204.3668 383.587,230.7934 418.279,248.1394 " fill="none" id="ManageApplication-UpdateApplication" style="stroke: #A80036; stroke-width: 1.0;"/><polygon fill="#A80036" points="422.838,250.4192,416.5765,242.817,418.3657,248.1834,412.9993,249.9726,422.838,250.4192" style="stroke: #A80036; stroke-width: 1.0;"/><!--
@startuml


usecase "Manage Application" as ManageApplication #yellow

Actor "DevOps Engineer" as DevOpsEngineer

DevOpsEngineer - -> ManageApplication

Actor "Application Developer" as ApplicationDeveloper

ApplicationDeveloper - -> ManageApplication



usecase "CreateApplication" as CreateApplication #lightgrey

ManageApplication - -> CreateApplication

usecase "DestroyApplication" as DestroyApplication #lightgrey

ManageApplication - -> DestroyApplication

usecase "UpdateApplication" as UpdateApplication #lightgrey

ManageApplication - -> UpdateApplication









@enduml

PlantUML version 1.2019.05(Sat Apr 20 09:45:36 PDT 2019)
(GPL source distribution)
Java Runtime: Java(TM) SE Runtime Environment
JVM: Java HotSpot(TM) Client VM
Java Version: 1.8.0_271-b09
Operating System: Windows 10
OS Version: 10.0
Default Encoding: Cp1252
Language: en
Country: US
--></g></svg>