<?xml version="1.0" encoding="UTF-8" standalone="no"?><svg xmlns="http://www.w3.org/2000/svg" xmlns:xlink="http://www.w3.org/1999/xlink" contentScriptType="application/ecmascript" contentStyleType="text/css" height="297px" preserveAspectRatio="none" style="width:758px;height:297px;" version="1.1" viewBox="0 0 758 297" width="758px" zoomAndPan="magnify"><defs><filter height="300%" id="f1kdowelliau0u" width="300%" x="-1" y="-1"><feGaussianBlur result="blurOut" stdDeviation="2.0"/><feColorMatrix in="blurOut" result="blurOut2" type="matrix" values="0 0 0 0 0 0 0 0 0 0 0 0 0 0 0 0 0 0 .4 0"/><feOffset dx="4.0" dy="4.0" in="blurOut2" result="blurOut3"/><feBlend in="SourceGraphic" in2="blurOut3" mode="normal"/></filter></defs><g><rect fill="#00AAFF" height="282.2734" style="stroke: #A80036; stroke-width: 1.0;" width="142" x="230" y="4"/><text fill="#000000" font-family="sans-serif" font-size="13" font-weight="bold" lengthAdjust="spacingAndGlyphs" textLength="132" x="233" y="17.4951">Application Manager</text><rect fill="#AAFFAA" height="282.2734" style="stroke: #A80036; stroke-width: 1.0;" width="140" x="607.5" y="4"/><text fill="#000000" font-family="sans-serif" font-size="13" font-weight="bold" lengthAdjust="spacingAndGlyphs" textLength="130" x="610.5" y="17.4951">Service Orchestrator</text><line style="stroke: #A80036; stroke-width: 1.0; stroke-dasharray: 5.0,5.0;" x1="78" x2="78" y1="87.6094" y2="198.6641"/><line style="stroke: #A80036; stroke-width: 1.0; stroke-dasharray: 5.0,5.0;" x1="191" x2="191" y1="87.6094" y2="198.6641"/><line style="stroke: #A80036; stroke-width: 1.0; stroke-dasharray: 5.0,5.0;" x1="300.5" x2="300.5" y1="87.6094" y2="198.6641"/><line style="stroke: #A80036; stroke-width: 1.0; stroke-dasharray: 5.0,5.0;" x1="677.5" x2="677.5" y1="87.6094" y2="198.6641"/><text fill="#000000" font-family="sans-serif" font-size="14" lengthAdjust="spacingAndGlyphs" textLength="134" x="8" y="84.5332">ApplicationDeveloper</text><ellipse cx="78" cy="13" fill="#FEFECE" filter="url(#f1kdowelliau0u)" rx="8" ry="8" style="stroke: #A80036; stroke-width: 2.0;"/><path d="M78,21 L78,48 M65,29 L91,29 M78,48 L65,63 M78,48 L91,63 " fill="none" filter="url(#f1kdowelliau0u)" style="stroke: #A80036; stroke-width: 2.0;"/><text fill="#000000" font-family="sans-serif" font-size="14" lengthAdjust="spacingAndGlyphs" textLength="134" x="8" y="212.1973">ApplicationDeveloper</text><ellipse cx="78" cy="225.2734" fill="#FEFECE" filter="url(#f1kdowelliau0u)" rx="8" ry="8" style="stroke: #A80036; stroke-width: 2.0;"/><path d="M78,233.2734 L78,260.2734 M65,241.2734 L91,241.2734 M78,260.2734 L65,275.2734 M78,260.2734 L91,275.2734 " fill="none" filter="url(#f1kdowelliau0u)" style="stroke: #A80036; stroke-width: 2.0;"/><text fill="#000000" font-family="sans-serif" font-size="14" lengthAdjust="spacingAndGlyphs" textLength="60" x="158" y="84.5332">EventBus</text><ellipse cx="191" cy="54" fill="#FEFECE" filter="url(#f1kdowelliau0u)" rx="12" ry="12" style="stroke: #A80036; stroke-width: 2.0;"/><line style="stroke: #A80036; stroke-width: 2.0;" x1="179" x2="203" y1="68" y2="68"/><text fill="#000000" font-family="sans-serif" font-size="14" lengthAdjust="spacingAndGlyphs" textLength="60" x="158" y="212.1973">EventBus</text><ellipse cx="191" cy="231.2734" fill="#FEFECE" filter="url(#f1kdowelliau0u)" rx="12" ry="12" style="stroke: #A80036; stroke-width: 2.0;"/><line style="stroke: #A80036; stroke-width: 2.0;" x1="179" x2="203" y1="245.2734" y2="245.2734"/><text fill="#000000" font-family="sans-serif" font-size="14" lengthAdjust="spacingAndGlyphs" textLength="19" x="288.5" y="84.5332">am</text><path d="M280.5,42 L280.5,66 M280.5,54 L297.5,54 " fill="none" filter="url(#f1kdowelliau0u)" style="stroke: #A80036; stroke-width: 2.0;"/><ellipse cx="309.5" cy="54" fill="#FFFFFF" filter="url(#f1kdowelliau0u)" rx="12" ry="12" style="stroke: #A80036; stroke-width: 2.0;"/><text fill="#000000" font-family="sans-serif" font-size="14" lengthAdjust="spacingAndGlyphs" textLength="19" x="288.5" y="212.1973">am</text><path d="M280.5,219.2734 L280.5,243.2734 M280.5,231.2734 L297.5,231.2734 " fill="none" filter="url(#f1kdowelliau0u)" style="stroke: #A80036; stroke-width: 2.0;"/><ellipse cx="309.5" cy="231.2734" fill="#FFFFFF" filter="url(#f1kdowelliau0u)" rx="12" ry="12" style="stroke: #A80036; stroke-width: 2.0;"/><rect fill="#FEFECE" filter="url(#f1kdowelliau0u)" height="31.6094" style="stroke: #A80036; stroke-width: 1.5;" width="84" x="633.5" y="51"/><text fill="#000000" font-family="sans-serif" font-size="14" lengthAdjust="spacingAndGlyphs" textLength="70" x="640.5" y="72.5332">provisioner</text><rect fill="#FEFECE" filter="url(#f1kdowelliau0u)" height="31.6094" style="stroke: #A80036; stroke-width: 1.5;" width="84" x="633.5" y="197.6641"/><text fill="#000000" font-family="sans-serif" font-size="14" lengthAdjust="spacingAndGlyphs" textLength="70" x="640.5" y="219.1973">provisioner</text><polygon fill="#A80036" points="289,115.9609,299,119.9609,289,123.9609,293,119.9609" style="stroke: #A80036; stroke-width: 1.0;"/><line style="stroke: #A80036; stroke-width: 1.0;" x1="78" x2="295" y1="119.9609" y2="119.9609"/><text fill="#000000" font-family="sans-serif" font-size="13" lengthAdjust="spacingAndGlyphs" textLength="106" x="85" y="115.1045">Create Application</text><polygon fill="#A80036" points="665.5,146.3125,675.5,150.3125,665.5,154.3125,669.5,150.3125" style="stroke: #A80036; stroke-width: 1.0;"/><line style="stroke: #A80036; stroke-width: 1.0;" x1="301" x2="671.5" y1="150.3125" y2="150.3125"/><text fill="#000000" font-family="sans-serif" font-size="13" lengthAdjust="spacingAndGlyphs" textLength="288" x="308" y="145.4561">create (name: hello,file: ./templates/application.js)</text><polygon fill="#A80036" points="202,181.6641,192,181.6641,202,185.6641" style="stroke: #A80036; stroke-width: 1.0;"/><line style="stroke: #A80036; stroke-width: 1.0; stroke-dasharray: 2.0,2.0;" x1="191" x2="676.5" y1="180.6641" y2="180.6641"/><text fill="#000000" font-family="sans-serif" font-size="13" lengthAdjust="spacingAndGlyphs" textLength="102" x="208" y="175.8076">application.create</text><!--
@startuml

actor "ApplicationDeveloper"


entity EventBus

box Application Manager #00aaff
    boundary am #white
end box


box Service Orchestrator #aaffaa
            participant provisioner
    end box


"ApplicationDeveloper" -> am: Create Application

    am -> "provisioner": create (name: hello,file: ./templates/application.js)

    "provisioner" - -/ EventBus: application.create



@enduml

PlantUML version 1.2019.05(Sat Apr 20 09:45:36 PDT 2019)
(GPL source distribution)
Java Runtime: Java(TM) SE Runtime Environment
JVM: Java HotSpot(TM) Client VM
Java Version: 1.8.0_271-b09
Operating System: Windows 10
OS Version: 10.0
Default Encoding: Cp1252
Language: en
Country: US
--></g></svg>