<?xml version="1.0" encoding="UTF-8" standalone="no"?><svg xmlns="http://www.w3.org/2000/svg" xmlns:xlink="http://www.w3.org/1999/xlink" contentScriptType="application/ecmascript" contentStyleType="text/css" height="310px" preserveAspectRatio="none" style="width:481px;height:310px;" version="1.1" viewBox="0 0 481 310" width="481px" zoomAndPan="magnify"><defs><filter height="300%" id="f1p3bwiouwr7ia" width="300%" x="-1" y="-1"><feGaussianBlur result="blurOut" stdDeviation="2.0"/><feColorMatrix in="blurOut" result="blurOut2" type="matrix" values="0 0 0 0 0 0 0 0 0 0 0 0 0 0 0 0 0 0 .4 0"/><feOffset dx="4.0" dy="4.0" in="blurOut2" result="blurOut3"/><feBlend in="SourceGraphic" in2="blurOut3" mode="normal"/></filter></defs><g><rect fill="#00AAFF" height="295.2734" style="stroke: #A80036; stroke-width: 1.0;" width="142" x="269.5" y="4"/><text fill="#000000" font-family="sans-serif" font-size="13" font-weight="bold" lengthAdjust="spacingAndGlyphs" textLength="132" x="272.5" y="17.4951">Application Manager</text><line style="stroke: #A80036; stroke-width: 1.0; stroke-dasharray: 5.0,5.0;" x1="65" x2="65" y1="87.6094" y2="211.6641"/><line style="stroke: #A80036; stroke-width: 1.0; stroke-dasharray: 5.0,5.0;" x1="165" x2="165" y1="87.6094" y2="211.6641"/><line style="stroke: #A80036; stroke-width: 1.0; stroke-dasharray: 5.0,5.0;" x1="340" x2="340" y1="87.6094" y2="211.6641"/><text fill="#000000" font-family="sans-serif" font-size="14" lengthAdjust="spacingAndGlyphs" textLength="108" x="8" y="84.5332">DevOpsEngineer</text><ellipse cx="65" cy="13" fill="#FEFECE" filter="url(#f1p3bwiouwr7ia)" rx="8" ry="8" style="stroke: #A80036; stroke-width: 2.0;"/><path d="M65,21 L65,48 M52,29 L78,29 M65,48 L52,63 M65,48 L78,63 " fill="none" filter="url(#f1p3bwiouwr7ia)" style="stroke: #A80036; stroke-width: 2.0;"/><text fill="#000000" font-family="sans-serif" font-size="14" lengthAdjust="spacingAndGlyphs" textLength="108" x="8" y="225.1973">DevOpsEngineer</text><ellipse cx="65" cy="238.2734" fill="#FEFECE" filter="url(#f1p3bwiouwr7ia)" rx="8" ry="8" style="stroke: #A80036; stroke-width: 2.0;"/><path d="M65,246.2734 L65,273.2734 M52,254.2734 L78,254.2734 M65,273.2734 L52,288.2734 M65,273.2734 L78,288.2734 " fill="none" filter="url(#f1p3bwiouwr7ia)" style="stroke: #A80036; stroke-width: 2.0;"/><text fill="#000000" font-family="sans-serif" font-size="14" lengthAdjust="spacingAndGlyphs" textLength="60" x="132" y="84.5332">EventBus</text><ellipse cx="165" cy="54" fill="#FEFECE" filter="url(#f1p3bwiouwr7ia)" rx="12" ry="12" style="stroke: #A80036; stroke-width: 2.0;"/><line style="stroke: #A80036; stroke-width: 2.0;" x1="153" x2="177" y1="68" y2="68"/><text fill="#000000" font-family="sans-serif" font-size="14" lengthAdjust="spacingAndGlyphs" textLength="60" x="132" y="225.1973">EventBus</text><ellipse cx="165" cy="244.2734" fill="#FEFECE" filter="url(#f1p3bwiouwr7ia)" rx="12" ry="12" style="stroke: #A80036; stroke-width: 2.0;"/><line style="stroke: #A80036; stroke-width: 2.0;" x1="153" x2="177" y1="258.2734" y2="258.2734"/><text fill="#000000" font-family="sans-serif" font-size="14" lengthAdjust="spacingAndGlyphs" textLength="19" x="328" y="84.5332">am</text><path d="M320,42 L320,66 M320,54 L337,54 " fill="none" filter="url(#f1p3bwiouwr7ia)" style="stroke: #A80036; stroke-width: 2.0;"/><ellipse cx="349" cy="54" fill="#FFFFFF" filter="url(#f1p3bwiouwr7ia)" rx="12" ry="12" style="stroke: #A80036; stroke-width: 2.0;"/><text fill="#000000" font-family="sans-serif" font-size="14" lengthAdjust="spacingAndGlyphs" textLength="19" x="328" y="225.1973">am</text><path d="M320,232.2734 L320,256.2734 M320,244.2734 L337,244.2734 " fill="none" filter="url(#f1p3bwiouwr7ia)" style="stroke: #A80036; stroke-width: 2.0;"/><ellipse cx="349" cy="244.2734" fill="#FFFFFF" filter="url(#f1p3bwiouwr7ia)" rx="12" ry="12" style="stroke: #A80036; stroke-width: 2.0;"/><polygon fill="#A80036" points="328.5,115.9609,338.5,119.9609,328.5,123.9609,332.5,119.9609" style="stroke: #A80036; stroke-width: 1.0;"/><line style="stroke: #A80036; stroke-width: 1.0;" x1="65" x2="334.5" y1="119.9609" y2="119.9609"/><text fill="#000000" font-family="sans-serif" font-size="13" lengthAdjust="spacingAndGlyphs" textLength="113" x="72" y="115.1045">Destroy Application</text><line style="stroke: #A80036; stroke-width: 1.0;" x1="340.5" x2="382.5" y1="150.3125" y2="150.3125"/><line style="stroke: #A80036; stroke-width: 1.0;" x1="382.5" x2="382.5" y1="150.3125" y2="163.3125"/><line style="stroke: #A80036; stroke-width: 1.0;" x1="341.5" x2="382.5" y1="163.3125" y2="163.3125"/><polygon fill="#A80036" points="351.5,159.3125,341.5,163.3125,351.5,167.3125,347.5,163.3125" style="stroke: #A80036; stroke-width: 1.0;"/><text fill="#000000" font-family="sans-serif" font-size="13" lengthAdjust="spacingAndGlyphs" textLength="122" x="347.5" y="145.4561">destroy (name: hello)</text><polygon fill="#A80036" points="176,194.6641,166,194.6641,176,198.6641" style="stroke: #A80036; stroke-width: 1.0;"/><line style="stroke: #A80036; stroke-width: 1.0; stroke-dasharray: 2.0,2.0;" x1="165" x2="339.5" y1="193.6641" y2="193.6641"/><text fill="#000000" font-family="sans-serif" font-size="13" lengthAdjust="spacingAndGlyphs" textLength="109" x="182" y="188.8076">application.destroy</text><!--
@startuml

actor "DevOpsEngineer"


entity EventBus

box Application Manager #00aaff
    boundary am #white
end box



"DevOpsEngineer" -> am: Destroy Application

    am -> "am": destroy (name: hello)

    "am" - -/ EventBus: application.destroy



@enduml

PlantUML version 1.2019.05(Sat Apr 20 09:45:36 PDT 2019)
(GPL source distribution)
Java Runtime: Java(TM) SE Runtime Environment
JVM: Java HotSpot(TM) Client VM
Java Version: 1.8.0_271-b09
Operating System: Windows 10
OS Version: 10.0
Default Encoding: Cp1252
Language: en
Country: US
--></g></svg>