<?xml version="1.0" encoding="UTF-8" standalone="no"?><svg xmlns="http://www.w3.org/2000/svg" xmlns:xlink="http://www.w3.org/1999/xlink" contentScriptType="application/ecmascript" contentStyleType="text/css" height="297px" preserveAspectRatio="none" style="width:717px;height:297px;" version="1.1" viewBox="0 0 717 297" width="717px" zoomAndPan="magnify"><defs><filter height="300%" id="feg6et0z162b4" width="300%" x="-1" y="-1"><feGaussianBlur result="blurOut" stdDeviation="2.0"/><feColorMatrix in="blurOut" result="blurOut2" type="matrix" values="0 0 0 0 0 0 0 0 0 0 0 0 0 0 0 0 0 0 .4 0"/><feOffset dx="4.0" dy="4.0" in="blurOut2" result="blurOut3"/><feBlend in="SourceGraphic" in2="blurOut3" mode="normal"/></filter></defs><g><rect fill="#00AAFF" height="282.2734" style="stroke: #A80036; stroke-width: 1.0;" width="142" x="204" y="4"/><text fill="#000000" font-family="sans-serif" font-size="13" font-weight="bold" lengthAdjust="spacingAndGlyphs" textLength="132" x="207" y="17.4951">Application Manager</text><rect fill="#00AAFF" height="282.2734" style="stroke: #A80036; stroke-width: 1.0;" width="142" x="564.5" y="4"/><text fill="#000000" font-family="sans-serif" font-size="13" font-weight="bold" lengthAdjust="spacingAndGlyphs" textLength="132" x="567.5" y="17.4951">Application Manager</text><line style="stroke: #A80036; stroke-width: 1.0; stroke-dasharray: 5.0,5.0;" x1="65" x2="65" y1="87.6094" y2="198.6641"/><line style="stroke: #A80036; stroke-width: 1.0; stroke-dasharray: 5.0,5.0;" x1="165" x2="165" y1="87.6094" y2="198.6641"/><line style="stroke: #A80036; stroke-width: 1.0; stroke-dasharray: 5.0,5.0;" x1="274.5" x2="274.5" y1="87.6094" y2="198.6641"/><line style="stroke: #A80036; stroke-width: 1.0; stroke-dasharray: 5.0,5.0;" x1="635.5" x2="635.5" y1="87.6094" y2="198.6641"/><text fill="#000000" font-family="sans-serif" font-size="14" lengthAdjust="spacingAndGlyphs" textLength="108" x="8" y="84.5332">DevOpsEngineer</text><ellipse cx="65" cy="13" fill="#FEFECE" filter="url(#feg6et0z162b4)" rx="8" ry="8" style="stroke: #A80036; stroke-width: 2.0;"/><path d="M65,21 L65,48 M52,29 L78,29 M65,48 L52,63 M65,48 L78,63 " fill="none" filter="url(#feg6et0z162b4)" style="stroke: #A80036; stroke-width: 2.0;"/><text fill="#000000" font-family="sans-serif" font-size="14" lengthAdjust="spacingAndGlyphs" textLength="108" x="8" y="212.1973">DevOpsEngineer</text><ellipse cx="65" cy="225.2734" fill="#FEFECE" filter="url(#feg6et0z162b4)" rx="8" ry="8" style="stroke: #A80036; stroke-width: 2.0;"/><path d="M65,233.2734 L65,260.2734 M52,241.2734 L78,241.2734 M65,260.2734 L52,275.2734 M65,260.2734 L78,275.2734 " fill="none" filter="url(#feg6et0z162b4)" style="stroke: #A80036; stroke-width: 2.0;"/><text fill="#000000" font-family="sans-serif" font-size="14" lengthAdjust="spacingAndGlyphs" textLength="60" x="132" y="84.5332">EventBus</text><ellipse cx="165" cy="54" fill="#FEFECE" filter="url(#feg6et0z162b4)" rx="12" ry="12" style="stroke: #A80036; stroke-width: 2.0;"/><line style="stroke: #A80036; stroke-width: 2.0;" x1="153" x2="177" y1="68" y2="68"/><text fill="#000000" font-family="sans-serif" font-size="14" lengthAdjust="spacingAndGlyphs" textLength="60" x="132" y="212.1973">EventBus</text><ellipse cx="165" cy="231.2734" fill="#FEFECE" filter="url(#feg6et0z162b4)" rx="12" ry="12" style="stroke: #A80036; stroke-width: 2.0;"/><line style="stroke: #A80036; stroke-width: 2.0;" x1="153" x2="177" y1="245.2734" y2="245.2734"/><text fill="#000000" font-family="sans-serif" font-size="14" lengthAdjust="spacingAndGlyphs" textLength="19" x="262.5" y="84.5332">am</text><path d="M254.5,42 L254.5,66 M254.5,54 L271.5,54 " fill="none" filter="url(#feg6et0z162b4)" style="stroke: #A80036; stroke-width: 2.0;"/><ellipse cx="283.5" cy="54" fill="#FFFFFF" filter="url(#feg6et0z162b4)" rx="12" ry="12" style="stroke: #A80036; stroke-width: 2.0;"/><text fill="#000000" font-family="sans-serif" font-size="14" lengthAdjust="spacingAndGlyphs" textLength="19" x="262.5" y="212.1973">am</text><path d="M254.5,219.2734 L254.5,243.2734 M254.5,231.2734 L271.5,231.2734 " fill="none" filter="url(#feg6et0z162b4)" style="stroke: #A80036; stroke-width: 2.0;"/><ellipse cx="283.5" cy="231.2734" fill="#FFFFFF" filter="url(#feg6et0z162b4)" rx="12" ry="12" style="stroke: #A80036; stroke-width: 2.0;"/><rect fill="#FEFECE" filter="url(#feg6et0z162b4)" height="31.6094" style="stroke: #A80036; stroke-width: 1.5;" width="82" x="592.5" y="51"/><text fill="#000000" font-family="sans-serif" font-size="14" lengthAdjust="spacingAndGlyphs" textLength="68" x="599.5" y="72.5332">application</text><rect fill="#FEFECE" filter="url(#feg6et0z162b4)" height="31.6094" style="stroke: #A80036; stroke-width: 1.5;" width="82" x="592.5" y="197.6641"/><text fill="#000000" font-family="sans-serif" font-size="14" lengthAdjust="spacingAndGlyphs" textLength="68" x="599.5" y="219.1973">application</text><polygon fill="#A80036" points="263,115.9609,273,119.9609,263,123.9609,267,119.9609" style="stroke: #A80036; stroke-width: 1.0;"/><line style="stroke: #A80036; stroke-width: 1.0;" x1="65" x2="269" y1="119.9609" y2="119.9609"/><text fill="#000000" font-family="sans-serif" font-size="13" lengthAdjust="spacingAndGlyphs" textLength="109" x="72" y="115.1045">Update Application</text><polygon fill="#A80036" points="623.5,146.3125,633.5,150.3125,623.5,154.3125,627.5,150.3125" style="stroke: #A80036; stroke-width: 1.0;"/><line style="stroke: #A80036; stroke-width: 1.0;" x1="275" x2="629.5" y1="150.3125" y2="150.3125"/><text fill="#000000" font-family="sans-serif" font-size="13" lengthAdjust="spacingAndGlyphs" textLength="270" x="282" y="145.4561">update (name: hello,file: ./templates/world.yml)</text><polygon fill="#A80036" points="176,181.6641,166,181.6641,176,185.6641" style="stroke: #A80036; stroke-width: 1.0;"/><line style="stroke: #A80036; stroke-width: 1.0; stroke-dasharray: 2.0,2.0;" x1="165" x2="634.5" y1="180.6641" y2="180.6641"/><text fill="#000000" font-family="sans-serif" font-size="13" lengthAdjust="spacingAndGlyphs" textLength="105" x="182" y="175.8076">application.update</text><!--
@startuml

actor "DevOpsEngineer"


entity EventBus

box Application Manager #00aaff
    boundary am #white
end box


box Application Manager #00aaff
            participant application
    end box


"DevOpsEngineer" -> am: Update Application

    am -> "application": update (name: hello,file: ./templates/world.yml)

    "application" - -/ EventBus: application.update



@enduml

PlantUML version 1.2019.05(Sat Apr 20 09:45:36 PDT 2019)
(GPL source distribution)
Java Runtime: Java(TM) SE Runtime Environment
JVM: Java HotSpot(TM) Client VM
Java Version: 1.8.0_271-b09
Operating System: Windows 10
OS Version: 10.0
Default Encoding: Cp1252
Language: en
Country: US
--></g></svg>