<?xml version="1.0" encoding="UTF-8" standalone="no"?><svg xmlns="http://www.w3.org/2000/svg" xmlns:xlink="http://www.w3.org/1999/xlink" contentScriptType="application/ecmascript" contentStyleType="text/css" height="237px" preserveAspectRatio="none" style="width:141px;height:237px;" version="1.1" viewBox="0 0 141 237" width="141px" zoomAndPan="magnify"><defs><filter height="300%" id="f16hya6bbao393" width="300%" x="-1" y="-1"><feGaussianBlur result="blurOut" stdDeviation="2.0"/><feColorMatrix in="blurOut" result="blurOut2" type="matrix" values="0 0 0 0 0 0 0 0 0 0 0 0 0 0 0 0 0 0 .4 0"/><feOffset dx="4.0" dy="4.0" in="blurOut2" result="blurOut3"/><feBlend in="SourceGraphic" in2="blurOut3" mode="normal"/></filter></defs><g><!--entity DataStream--><rect fill="#ADD8E6" filter="url(#f16hya6bbao393)" height="37.6094" style="stroke: #000000; stroke-width: 1.5;" width="95" x="20.5" y="189"/><text fill="#000000" font-family="sans-serif" font-size="14" lengthAdjust="spacingAndGlyphs" textLength="75" x="30.5" y="213.5332">DataStream</text><!--class Model--><rect fill="#FEFECE" filter="url(#f16hya6bbao393)" height="103.3438" id="Model" style="stroke: #A80036; stroke-width: 1.5;" width="124" x="6" y="8"/><ellipse cx="21" cy="24" fill="#ADD1B2" rx="11" ry="11" style="stroke: #A80036; stroke-width: 1.0;"/><path d="M23.7656,19.875 Q23.9219,19.6563 24.1094,19.5469 Q24.2969,19.4375 24.5156,19.4375 Q24.8906,19.4375 25.125,19.6953 Q25.3594,19.9531 25.3594,20.5625 L25.3594,22.0156 Q25.3594,22.625 25.125,22.8906 Q24.8906,23.1563 24.5156,23.1563 Q24.1719,23.1563 23.9688,22.9531 Q23.7656,22.7656 23.6563,22.25 Q23.6094,21.8906 23.4219,21.7031 Q23.0938,21.3281 22.4844,21.1094 Q21.875,20.8906 21.25,20.8906 Q20.4844,20.8906 19.8516,21.2188 Q19.2188,21.5469 18.7266,22.2969 Q18.2344,23.0469 18.2344,24.0781 L18.2344,25.1719 Q18.2344,26.4063 19.125,27.2266 Q20.0156,28.0469 21.6094,28.0469 Q22.5469,28.0469 23.2031,27.7969 Q23.5938,27.6406 24.0156,27.2031 Q24.2813,26.9375 24.4297,26.8594 Q24.5781,26.7813 24.7813,26.7813 Q25.1094,26.7813 25.3672,27.0391 Q25.625,27.2969 25.625,27.6406 Q25.625,27.9844 25.2813,28.3906 Q24.7813,28.9688 23.9844,29.2969 Q22.9063,29.75 21.6094,29.75 Q20.0938,29.75 18.8906,29.125 Q17.9063,28.625 17.2188,27.5547 Q16.5313,26.4844 16.5313,25.2031 L16.5313,24.0469 Q16.5313,22.7188 17.1484,21.5703 Q17.7656,20.4219 18.8594,19.8047 Q19.9531,19.1875 21.1875,19.1875 Q21.9219,19.1875 22.5703,19.3516 Q23.2188,19.5156 23.7656,19.875 Z "/><text fill="#000000" font-family="sans-serif" font-size="12" lengthAdjust="spacingAndGlyphs" textLength="92" x="35" y="28.9102">AdminTransform</text><line style="stroke: #A80036; stroke-width: 1.5;" x1="7" x2="129" y1="40" y2="40"/><text fill="#000000" font-family="sans-serif" font-size="11" lengthAdjust="spacingAndGlyphs" textLength="56" x="12" y="55.4189">string name</text><text fill="#000000" font-family="sans-serif" font-size="11" lengthAdjust="spacingAndGlyphs" textLength="33" x="12" y="69.2549">json fn</text><line style="stroke: #A80036; stroke-width: 1.5;" x1="7" x2="129" y1="75.6719" y2="75.6719"/><text fill="#000000" font-family="sans-serif" font-size="11" lengthAdjust="spacingAndGlyphs" textLength="39" x="12" y="91.0908">create()</text><text fill="#000000" font-family="sans-serif" font-size="11" lengthAdjust="spacingAndGlyphs" textLength="48" x="12" y="104.9268">process()</text><!--link Model to DataStream--><path d="M26.8477,123.537 C23.4535,135.259 22.7388,147.4505 27,159 C29.5606,165.9404 33.6214,172.5579 38.2131,178.5403 " fill="none" id="Model-DataStream" style="stroke: #A80036; stroke-width: 1.0;"/><polygon fill="#A80036" points="46.8424,188.5552,43.9979,179.1261,43.5786,184.7674,37.9373,184.3481,46.8424,188.5552" style="stroke: #A80036; stroke-width: 1.0;"/><line style="stroke: #A80036; stroke-width: 1.0;" x1="43.5786" x2="38.3566" y1="184.7674" y2="178.7068"/><polygon fill="#FFFFFF" points="31.4737,111.055,25.6381,115.2912,27.304,122.3073,33.1396,118.071,31.4737,111.055" style="stroke: #A80036; stroke-width: 1.0;"/><text fill="#000000" font-family="sans-serif" font-size="13" lengthAdjust="spacingAndGlyphs" textLength="35" x="28" y="155.4951">inputs</text><text fill="#000000" font-family="sans-serif" font-size="13" lengthAdjust="spacingAndGlyphs" textLength="7" x="32.5992" y="178.0974">n</text><!--link Model to DataStream--><path d="M68,124.548 C68,142.3365 68,160.8603 68,175.8336 " fill="none" id="Model-DataStream-1" style="stroke: #A80036; stroke-width: 1.0;"/><polygon fill="#A80036" points="68,188.9617,72,179.9617,68,183.9617,64,179.9617,68,188.9617" style="stroke: #A80036; stroke-width: 1.0;"/><line style="stroke: #A80036; stroke-width: 1.0;" x1="68" x2="68.0001" y1="183.9617" y2="175.9617"/><polygon fill="#FFFFFF" points="68,111.327,64,117.327,68,123.327,72,117.327,68,111.327" style="stroke: #A80036; stroke-width: 1.0;"/><text fill="#000000" font-family="sans-serif" font-size="13" lengthAdjust="spacingAndGlyphs" textLength="43" x="69" y="155.4951">outputs</text><text fill="#000000" font-family="sans-serif" font-size="13" lengthAdjust="spacingAndGlyphs" textLength="7" x="59.9281" y="178.29">n</text><!--
@startuml

class "AdminTransform" as Model {
 string name
 json fn

 create()
 process()
 
}

rectangle "DataStream" as DataStream #lightblue {
}

Model o- -> "n" DataStream : inputs


rectangle "DataStream" as DataStream #lightblue {
}

Model o- -> "n" DataStream : outputs





@enduml

PlantUML version 1.2019.05(Sat Apr 20 09:45:36 PDT 2019)
(GPL source distribution)
Java Runtime: Java(TM) SE Runtime Environment
JVM: Java HotSpot(TM) Client VM
Java Version: 1.8.0_271-b09
Operating System: Windows 10
OS Version: 10.0
Default Encoding: Cp1252
Language: en
Country: US
--></g></svg>