<?xml version="1.0" encoding="UTF-8" standalone="no"?><svg xmlns="http://www.w3.org/2000/svg" xmlns:xlink="http://www.w3.org/1999/xlink" contentScriptType="application/ecmascript" contentStyleType="text/css" height="409px" preserveAspectRatio="none" style="width:545px;height:409px;" version="1.1" viewBox="0 0 545 409" width="545px" zoomAndPan="magnify"><defs><filter height="300%" id="f1e7jht87lpk2l" width="300%" x="-1" y="-1"><feGaussianBlur result="blurOut" stdDeviation="2.0"/><feColorMatrix in="blurOut" result="blurOut2" type="matrix" values="0 0 0 0 0 0 0 0 0 0 0 0 0 0 0 0 0 0 .4 0"/><feOffset dx="4.0" dy="4.0" in="blurOut2" result="blurOut3"/><feBlend in="SourceGraphic" in2="blurOut3" mode="normal"/></filter></defs><g><!--entity Stack--><rect fill="#90EE90" filter="url(#f1e7jht87lpk2l)" height="37.6094" style="stroke: #000000; stroke-width: 1.5;" width="55" x="118.51" y="8"/><text fill="#000000" font-family="sans-serif" font-size="14" lengthAdjust="spacingAndGlyphs" textLength="35" x="128.51" y="32.5332">Stack</text><!--entity Service--><rect fill="#90EE90" filter="url(#f1e7jht87lpk2l)" height="37.6094" style="stroke: #000000; stroke-width: 1.5;" width="67" x="112.51" y="361"/><text fill="#000000" font-family="sans-serif" font-size="14" lengthAdjust="spacingAndGlyphs" textLength="47" x="122.51" y="385.5332">Service</text><!--entity ServiceInstance--><rect fill="#90EE90" filter="url(#f1e7jht87lpk2l)" height="37.6094" style="stroke: #000000; stroke-width: 1.5;" width="120" x="344.01" y="361"/><text fill="#000000" font-family="sans-serif" font-size="14" lengthAdjust="spacingAndGlyphs" textLength="100" x="354.01" y="385.5332">ServiceInstance</text><!--entity StackInstance--><rect fill="#90EE90" filter="url(#f1e7jht87lpk2l)" height="37.6094" style="stroke: #000000; stroke-width: 1.5;" width="108" x="288.01" y="8"/><text fill="#000000" font-family="sans-serif" font-size="14" lengthAdjust="spacingAndGlyphs" textLength="88" x="298.01" y="32.5332">StackInstance</text><!--entity DataChannel--><rect fill="#90EE90" filter="url(#f1e7jht87lpk2l)" height="37.6094" style="stroke: #000000; stroke-width: 1.5;" width="103" x="431.51" y="8"/><text fill="#000000" font-family="sans-serif" font-size="14" lengthAdjust="spacingAndGlyphs" textLength="83" x="441.51" y="32.5332">DataChannel</text><!--class Model--><rect fill="#FEFECE" filter="url(#f1e7jht87lpk2l)" height="158.6875" id="Model" style="stroke: #A80036; stroke-width: 1.5;" width="101" x="178.51" y="124"/><ellipse cx="206.56" cy="140" fill="#ADD1B2" rx="11" ry="11" style="stroke: #A80036; stroke-width: 1.0;"/><path d="M209.3256,135.875 Q209.4819,135.6563 209.6694,135.5469 Q209.8569,135.4375 210.0756,135.4375 Q210.4506,135.4375 210.685,135.6953 Q210.9194,135.9531 210.9194,136.5625 L210.9194,138.0156 Q210.9194,138.625 210.685,138.8906 Q210.4506,139.1563 210.0756,139.1563 Q209.7319,139.1563 209.5288,138.9531 Q209.3256,138.7656 209.2163,138.25 Q209.1694,137.8906 208.9819,137.7031 Q208.6538,137.3281 208.0444,137.1094 Q207.435,136.8906 206.81,136.8906 Q206.0444,136.8906 205.4116,137.2188 Q204.7788,137.5469 204.2866,138.2969 Q203.7944,139.0469 203.7944,140.0781 L203.7944,141.1719 Q203.7944,142.4063 204.685,143.2266 Q205.5756,144.0469 207.1694,144.0469 Q208.1069,144.0469 208.7631,143.7969 Q209.1538,143.6406 209.5756,143.2031 Q209.8413,142.9375 209.9897,142.8594 Q210.1381,142.7813 210.3413,142.7813 Q210.6694,142.7813 210.9272,143.0391 Q211.185,143.2969 211.185,143.6406 Q211.185,143.9844 210.8413,144.3906 Q210.3413,144.9688 209.5444,145.2969 Q208.4663,145.75 207.1694,145.75 Q205.6538,145.75 204.4506,145.125 Q203.4663,144.625 202.7788,143.5547 Q202.0913,142.4844 202.0913,141.2031 L202.0913,140.0469 Q202.0913,138.7188 202.7084,137.5703 Q203.3256,136.4219 204.4194,135.8047 Q205.5131,135.1875 206.7475,135.1875 Q207.4819,135.1875 208.1303,135.3516 Q208.7788,135.5156 209.3256,135.875 Z "/><text fill="#000000" font-family="sans-serif" font-size="12" lengthAdjust="spacingAndGlyphs" textLength="40" x="223.46" y="144.9102">Service</text><line style="stroke: #A80036; stroke-width: 1.5;" x1="179.51" x2="278.51" y1="156" y2="156"/><text fill="#000000" font-family="sans-serif" font-size="11" lengthAdjust="spacingAndGlyphs" textLength="56" x="184.51" y="171.4189">string name</text><text fill="#000000" font-family="sans-serif" font-size="11" lengthAdjust="spacingAndGlyphs" textLength="76" x="184.51" y="185.2549">string command</text><text fill="#000000" font-family="sans-serif" font-size="11" lengthAdjust="spacingAndGlyphs" textLength="66" x="184.51" y="199.0908">string version</text><text fill="#000000" font-family="sans-serif" font-size="11" lengthAdjust="spacingAndGlyphs" textLength="48" x="184.51" y="212.9268">json ports</text><text fill="#000000" font-family="sans-serif" font-size="11" lengthAdjust="spacingAndGlyphs" textLength="59" x="184.51" y="226.7627">json expose</text><text fill="#000000" font-family="sans-serif" font-size="11" lengthAdjust="spacingAndGlyphs" textLength="78" x="184.51" y="240.5986">json parameters</text><text fill="#000000" font-family="sans-serif" font-size="11" lengthAdjust="spacingAndGlyphs" textLength="82" x="184.51" y="254.4346">json environment</text><text fill="#000000" font-family="sans-serif" font-size="11" lengthAdjust="spacingAndGlyphs" textLength="89" x="184.51" y="268.2705">ref provisionScript</text><line style="stroke: #A80036; stroke-width: 1.5;" x1="179.51" x2="278.51" y1="274.6875" y2="274.6875"/><!--link Model to Stack--><path d="M240.213,110.652 C238.543,98.46 235.094,86.548 229.01,76 C219.598,59.684 202.29,48.414 185.905,40.917 " fill="none" id="Model-Stack" style="stroke: #A80036; stroke-width: 1.0;"/><polygon fill="#A80036" points="173.702,35.898,180.5043,43.0204,178.3262,37.7997,183.547,35.6216,173.702,35.898" style="stroke: #A80036; stroke-width: 1.0;"/><line style="stroke: #A80036; stroke-width: 1.0;" x1="178.3262" x2="185.7245" y1="37.7997" y2="40.842"/><polygon fill="#FFFFFF" points="241.367,123.939,244.8324,117.6152,240.3279,111.9841,236.8625,118.3079,241.367,123.939" style="stroke: #A80036; stroke-width: 1.0;"/><text fill="#000000" font-family="sans-serif" font-size="13" lengthAdjust="spacingAndGlyphs" textLength="32" x="237.01" y="90.4951">stack</text><text fill="#000000" font-family="sans-serif" font-size="13" lengthAdjust="spacingAndGlyphs" textLength="7" x="181.695" y="33.7183">1</text><!--link Stack to Model--><path d="M105.0162,32.233 C57.1271,39.008 -12.732,55.664 11.0098,94 C44.5595,148.173 114.174,176.167 165.755,190.029 " fill="none" id="Stack-Model" style="stroke: #A80036; stroke-width: 1.0;"/><polygon fill="#A80036" points="178.447,193.257,170.7098,187.163,173.6011,192.0252,168.739,194.9165,178.447,193.257" style="stroke: #A80036; stroke-width: 1.0;"/><line style="stroke: #A80036; stroke-width: 1.0;" x1="173.6011" x2="165.848" y1="192.0252" y2="190.053"/><polygon fill="#A80036" points="118.145,30.539,111.6824,27.3398,106.2437,32.0748,112.7063,35.274,118.145,30.539" style="stroke: #A80036; stroke-width: 1.0;"/><text fill="#000000" font-family="sans-serif" font-size="13" lengthAdjust="spacingAndGlyphs" textLength="47" x="12.0098" y="90.4951">services</text><text fill="#000000" font-family="sans-serif" font-size="13" lengthAdjust="spacingAndGlyphs" textLength="7" x="163.5065" y="188.1214">n</text><!--link Stack to Model--><path d="M110.913,55.365 C100.6684,66.768 93.7175,80.486 100.0098,94 C114.168,124.41 141.51,149.34 167.391,167.6 " fill="none" id="Stack-Model-1" style="stroke: #A80036; stroke-width: 1.0;"/><polygon fill="#A80036" points="178.351,175.015,173.138,166.6589,174.2097,172.2133,168.6553,173.285,178.351,175.015" style="stroke: #A80036; stroke-width: 1.0;"/><line style="stroke: #A80036; stroke-width: 1.0;" x1="174.2097" x2="167.5835" y1="172.2133" y2="167.7305"/><polygon fill="#FFFFFF" points="120.514,46.004,113.4256,47.3285,111.9219,54.3811,119.0103,53.0566,120.514,46.004" style="stroke: #A80036; stroke-width: 1.0;"/><text fill="#000000" font-family="sans-serif" font-size="13" lengthAdjust="spacingAndGlyphs" textLength="45" x="101.0098" y="90.4951">children</text><text fill="#000000" font-family="sans-serif" font-size="13" lengthAdjust="spacingAndGlyphs" textLength="7" x="163.3964" y="167.2001">n</text><!--link Stack to Model--><path d="M160.211,57.858 C167.423,73.019 176.61,92.335 185.905,111.877 " fill="none" id="Stack-Model-2" style="stroke: #A80036; stroke-width: 1.0;"/><polygon fill="#A80036" points="191.533,123.707,191.2788,113.8614,189.3851,119.1919,184.0546,117.2981,191.533,123.707" style="stroke: #A80036; stroke-width: 1.0;"/><line style="stroke: #A80036; stroke-width: 1.0;" x1="189.3851" x2="185.9485" y1="119.1919" y2="111.9675"/><polygon fill="#FFFFFF" points="154.58,46.017,153.5447,53.1534,159.734,56.8538,160.7693,49.7174,154.58,46.017" style="stroke: #A80036; stroke-width: 1.0;"/><text fill="#000000" font-family="sans-serif" font-size="13" lengthAdjust="spacingAndGlyphs" textLength="36" x="177.01" y="90.4951">parent</text><text fill="#000000" font-family="sans-serif" font-size="13" lengthAdjust="spacingAndGlyphs" textLength="7" x="180.7554" y="113.1393">1</text><!--link Model to Service--><path d="M240.213,296.348 C238.543,308.5398 235.094,320.4524 229.01,331 C220.692,345.4187 206.208,355.8971 191.644,363.3133 " fill="none" id="Model-Service" style="stroke: #A80036; stroke-width: 1.0;"/><polygon fill="#A80036" points="179.525,368.842,189.3734,368.7457,184.074,366.7667,186.0529,361.4673,179.525,368.842" style="stroke: #A80036; stroke-width: 1.0;"/><line style="stroke: #A80036; stroke-width: 1.0;" x1="184.074" x2="191.3525" y1="366.7667" y2="363.4462"/><polygon fill="#FFFFFF" points="241.367,283.061,236.8625,288.6921,240.3279,295.0159,244.8324,289.3848,241.367,283.061" style="stroke: #A80036; stroke-width: 1.0;"/><text fill="#000000" font-family="sans-serif" font-size="13" lengthAdjust="spacingAndGlyphs" textLength="45" x="237.01" y="327.4951">children</text><text fill="#000000" font-family="sans-serif" font-size="13" lengthAdjust="spacingAndGlyphs" textLength="7" x="187.622" y="362.2275">n</text><!--link Model to Service--><path d="M165.506,218.903 C116.841,233.637 52.9504,261.849 22.0098,313 C1.6488,346.6607 56.1833,364.1063 99.3104,372.4067 " fill="none" id="Model-Service-1" style="stroke: #A80036; stroke-width: 1.0;"/><polygon fill="#A80036" points="112.233,374.6969,104.0691,369.1877,107.3097,373.8244,102.6731,377.065,112.233,374.6969" style="stroke: #A80036; stroke-width: 1.0;"/><line style="stroke: #A80036; stroke-width: 1.0;" x1="107.3097" x2="99.4324" y1="373.8244" y2="372.4282"/><polygon fill="#FFFFFF" points="178.153,215.269,171.2817,213.0815,166.6197,218.5829,173.491,220.7704,178.153,215.269" style="stroke: #A80036; stroke-width: 1.0;"/><text fill="#000000" font-family="sans-serif" font-size="13" lengthAdjust="spacingAndGlyphs" textLength="36" x="23.0098" y="327.4951">parent</text><text fill="#000000" font-family="sans-serif" font-size="13" lengthAdjust="spacingAndGlyphs" textLength="7" x="97.5445" y="369.5248">1</text><!--link Service to Model--><path d="M110.913,351.6352 C100.6684,340.2325 93.7175,326.5143 100.0098,313 C114.168,282.59 141.51,257.66 167.391,239.4 " fill="none" id="Service-Model" style="stroke: #A80036; stroke-width: 1.0;"/><polygon fill="#A80036" points="178.351,231.985,168.6553,233.715,174.2097,234.7867,173.138,240.3411,178.351,231.985" style="stroke: #A80036; stroke-width: 1.0;"/><line style="stroke: #A80036; stroke-width: 1.0;" x1="174.2097" x2="167.5835" y1="234.7867" y2="239.2695"/><polygon fill="#FFFFFF" points="120.514,360.9965,119.0106,353.9439,111.9223,352.619,113.4256,359.6717,120.514,360.9965" style="stroke: #A80036; stroke-width: 1.0;"/><text fill="#000000" font-family="sans-serif" font-size="13" lengthAdjust="spacingAndGlyphs" textLength="45" x="101.0098" y="327.4951">children</text><text fill="#000000" font-family="sans-serif" font-size="13" lengthAdjust="spacingAndGlyphs" textLength="7" x="163.3964" y="232.5376">n</text><!--link Service to Model--><path d="M160.419,348.7053 C167.616,333.575 176.743,314.3864 185.971,294.984 " fill="none" id="Service-Model-1" style="stroke: #A80036; stroke-width: 1.0;"/><polygon fill="#A80036" points="191.637,283.072,184.1586,289.4809,189.4891,287.5871,191.3828,292.9176,191.637,283.072" style="stroke: #A80036; stroke-width: 1.0;"/><line style="stroke: #A80036; stroke-width: 1.0;" x1="189.4891" x2="186.0535" y1="287.5871" y2="294.8115"/><polygon fill="#FFFFFF" points="154.638,360.8602,160.8274,357.16,159.7923,350.0236,153.6029,353.7238,154.638,360.8602" style="stroke: #A80036; stroke-width: 1.0;"/><text fill="#000000" font-family="sans-serif" font-size="13" lengthAdjust="spacingAndGlyphs" textLength="36" x="177.01" y="327.4951">parent</text><text fill="#000000" font-family="sans-serif" font-size="13" lengthAdjust="spacingAndGlyphs" textLength="7" x="181.1245" y="304.1214">1</text><!--link Model to ServiceInstance--><path d="M288.79,267.317 C308.671,287.848 331.081,310.6077 352.01,331 C358.868,337.6824 366.37,344.7449 373.488,351.3367 " fill="none" id="Model-ServiceInstance" style="stroke: #A80036; stroke-width: 1.0;"/><polygon fill="#A80036" points="383.522,360.5585,379.6015,351.5236,379.8404,357.1754,374.1885,357.4142,383.522,360.5585" style="stroke: #A80036; stroke-width: 1.0;"/><line style="stroke: #A80036; stroke-width: 1.0;" x1="379.8404" x2="373.9505" y1="357.1754" y2="351.7619"/><polygon fill="#A80036" points="279.55,257.748,280.8404,264.8427,287.8856,266.3803,286.5953,259.2856,279.55,257.748" style="stroke: #A80036; stroke-width: 1.0;"/><text fill="#000000" font-family="sans-serif" font-size="13" lengthAdjust="spacingAndGlyphs" textLength="56" x="353.01" y="327.4951">instances</text><text fill="#000000" font-family="sans-serif" font-size="13" lengthAdjust="spacingAndGlyphs" textLength="7" x="369.4755" y="350.1017">n</text><!--link ServiceInstance to Model--><path d="M416.628,348.3392 C419.459,336.6464 420.078,323.5943 414.01,313 C387.985,267.567 334.732,239.309 292.016,223.066 " fill="none" id="ServiceInstance-Model" style="stroke: #A80036; stroke-width: 1.0;"/><polygon fill="#A80036" points="279.71,218.602,286.8067,225.4311,284.4104,220.3069,289.5346,217.9105,279.71,218.602" style="stroke: #A80036; stroke-width: 1.0;"/><line style="stroke: #A80036; stroke-width: 1.0;" x1="284.4104" x2="291.9305" y1="220.3069" y2="223.0355"/><polygon fill="#FFFFFF" points="412.73,360.7597,418.3428,356.2324,416.3225,349.3101,410.7097,353.8374,412.73,360.7597" style="stroke: #A80036; stroke-width: 1.0;"/><text fill="#000000" font-family="sans-serif" font-size="13" lengthAdjust="spacingAndGlyphs" textLength="36" x="420.01" y="327.4951">parent</text><text fill="#000000" font-family="sans-serif" font-size="13" lengthAdjust="spacingAndGlyphs" textLength="7" x="287.6706" y="217.189">1</text><!--link StackInstance to Model--><path d="M323.149,57.126 C313.045,72.728 299.996,92.88 286.85,113.18 " fill="none" id="StackInstance-Model" style="stroke: #A80036; stroke-width: 1.0;"/><polygon fill="#A80036" points="279.769,124.115,288.0184,118.7347,282.4867,119.9181,281.3034,114.3864,279.769,124.115" style="stroke: #A80036; stroke-width: 1.0;"/><line style="stroke: #A80036; stroke-width: 1.0;" x1="282.4867" x2="286.835" y1="119.9181" y2="113.203"/><polygon fill="#FFFFFF" points="330.342,46.017,323.7232,48.8791,323.8195,56.0896,330.4383,53.2275,330.342,46.017" style="stroke: #A80036; stroke-width: 1.0;"/><text fill="#000000" font-family="sans-serif" font-size="13" lengthAdjust="spacingAndGlyphs" textLength="36" x="310.01" y="90.4951">parent</text><text fill="#000000" font-family="sans-serif" font-size="13" lengthAdjust="spacingAndGlyphs" textLength="7" x="285.1101" y="113.0408">1</text><!--link DataChannel to Model--><path d="M446.023,53.41 C405.283,81.399 339.111,126.859 290.533,160.233 " fill="none" id="DataChannel-Model" style="stroke: #A80036; stroke-width: 1.0;"/><polygon fill="#A80036" points="279.522,167.798,289.2051,165.9989,283.6432,164.9668,284.6753,159.4049,279.522,167.798" style="stroke: #A80036; stroke-width: 1.0;"/><line style="stroke: #A80036; stroke-width: 1.0;" x1="283.6432" x2="290.2365" y1="164.9668" y2="160.4365"/><polygon fill="#FFFFFF" points="456.784,46.017,449.5736,46.1168,446.8925,52.8109,454.1029,52.7111,456.784,46.017" style="stroke: #A80036; stroke-width: 1.0;"/><text fill="#000000" font-family="sans-serif" font-size="13" lengthAdjust="spacingAndGlyphs" textLength="96" x="409.01" y="90.4951">transformService</text><text fill="#000000" font-family="sans-serif" font-size="13" lengthAdjust="spacingAndGlyphs" textLength="7" x="287.455" y="158.9232">1</text><!--
@startuml

class "Service" as Model {
 string name
 string command
 string version
 json ports
 json expose
 json parameters
 json environment
 ref provisionScript

 
}

rectangle "Stack" as Stack #lightblue {
}

Model o- -> "1" Stack : stack


rectangle "Service" as Service #lightblue {
}

Model o- -> "n" Service : children


rectangle "Service" as Service #lightblue {
}

Model o- -> "1" Service : parent


rectangle "ServiceInstance" as ServiceInstance #lightblue {
}

Model *- -> "n" ServiceInstance : instances




    rectangle "Service" as Service #lightgreen {
    }
    
        Service   o- -> "n" Model : "children"
    
    rectangle "Service" as Service #lightgreen {
    }
    
        Service   o- -> "1" Model : "parent"
    
    rectangle "ServiceInstance" as ServiceInstance #lightgreen {
    }
    
        ServiceInstance   o- -> "1" Model : "parent"
    
    rectangle "Stack" as Stack #lightgreen {
    }
    
        Stack   *- -> "n" Model : "services"
    
    rectangle "Stack" as Stack #lightgreen {
    }
    
        Stack   o- -> "n" Model : "children"
    
    rectangle "Stack" as Stack #lightgreen {
    }
    
        Stack   o- -> "1" Model : "parent"
    
    rectangle "StackInstance" as StackInstance #lightgreen {
    }
    
        StackInstance   o- -> "1" Model : "parent"
    
    rectangle "DataChannel" as DataChannel #lightgreen {
    }
    
        DataChannel   o- -> "1" Model : "transformService"
    

@enduml

PlantUML version 1.2019.05(Sat Apr 20 09:45:36 PDT 2019)
(GPL source distribution)
Java Runtime: Java(TM) SE Runtime Environment
JVM: Java HotSpot(TM) Client VM
Java Version: 1.8.0_271-b09
Operating System: Windows 10
OS Version: 10.0
Default Encoding: Cp1252
Language: en
Country: US
--></g></svg>