<?xml version="1.0" encoding="us-ascii" standalone="no"?><svg xmlns="http://www.w3.org/2000/svg" xmlns:xlink="http://www.w3.org/1999/xlink" contentStyleType="text/css" height="433px" preserveAspectRatio="none" style="width:560px;height:433px;background:#FFFFFF;" version="1.1" viewBox="0 0 560 433" width="560px" zoomAndPan="magnify"><defs/><g><!--entity Stack--><g id="elem_Stack"><rect fill="#90EE90" height="37.6094" rx="2.5" ry="2.5" style="stroke:#181818;stroke-width:0.5;" width="55" x="139.55" y="7"/><text fill="#000000" font-family="sans-serif" font-size="14" lengthAdjust="spacing" textLength="35" x="149.55" y="31.5332">Stack</text></g><!--entity Service--><g id="elem_Service"><rect fill="#90EE90" height="37.6094" rx="2.5" ry="2.5" style="stroke:#181818;stroke-width:0.5;" width="67" x="133.55" y="390"/><text fill="#000000" font-family="sans-serif" font-size="14" lengthAdjust="spacing" textLength="47" x="143.55" y="414.5332">Service</text></g><!--entity ServiceInstance--><g id="elem_ServiceInstance"><rect fill="#90EE90" height="37.6094" rx="2.5" ry="2.5" style="stroke:#181818;stroke-width:0.5;" width="120" x="364.05" y="390"/><text fill="#000000" font-family="sans-serif" font-size="14" lengthAdjust="spacing" textLength="100" x="374.05" y="414.5332">ServiceInstance</text></g><!--entity StackInstance--><g id="elem_StackInstance"><rect fill="#90EE90" height="37.6094" rx="2.5" ry="2.5" style="stroke:#181818;stroke-width:0.5;" width="108" x="308.05" y="7"/><text fill="#000000" font-family="sans-serif" font-size="14" lengthAdjust="spacing" textLength="88" x="318.05" y="31.5332">StackInstance</text></g><!--entity DataChannel--><g id="elem_DataChannel"><rect fill="#90EE90" height="37.6094" rx="2.5" ry="2.5" style="stroke:#181818;stroke-width:0.5;" width="103" x="451.55" y="7"/><text fill="#000000" font-family="sans-serif" font-size="14" lengthAdjust="spacing" textLength="83" x="461.55" y="31.5332">DataChannel</text></g><!--class Model--><g id="elem_Model"><rect codeLine="2" fill="#F1F1F1" height="188.875" id="Model" rx="2.5" ry="2.5" style="stroke:#181818;stroke-width:0.5;" width="126" x="186.05" y="123"/><ellipse cx="222.2" cy="139" fill="#ADD1B2" rx="11" ry="11" style="stroke:#181818;stroke-width:1.0;"/><path d="M224.9656,134.875 Q225.1219,134.6563 225.3094,134.5469 Q225.4969,134.4375 225.7156,134.4375 Q226.0906,134.4375 226.325,134.6953 Q226.5594,134.9531 226.5594,135.5625 L226.5594,137.0156 Q226.5594,137.625 226.325,137.8906 Q226.0906,138.1563 225.7156,138.1563 Q225.3719,138.1563 225.1688,137.9531 Q224.9656,137.7656 224.8563,137.25 Q224.8094,136.8906 224.6219,136.7031 Q224.2938,136.3281 223.6844,136.1094 Q223.075,135.8906 222.45,135.8906 Q221.6844,135.8906 221.0516,136.2188 Q220.4188,136.5469 219.9266,137.2969 Q219.4344,138.0469 219.4344,139.0781 L219.4344,140.1719 Q219.4344,141.4063 220.325,142.2266 Q221.2156,143.0469 222.8094,143.0469 Q223.7469,143.0469 224.4031,142.7969 Q224.7938,142.6406 225.2156,142.2031 Q225.4813,141.9375 225.6297,141.8594 Q225.7781,141.7813 225.9813,141.7813 Q226.3094,141.7813 226.5672,142.0391 Q226.825,142.2969 226.825,142.6406 Q226.825,142.9844 226.4813,143.3906 Q225.9813,143.9688 225.1844,144.2969 Q224.1063,144.75 222.8094,144.75 Q221.2938,144.75 220.0906,144.125 Q219.1063,143.625 218.4188,142.5547 Q217.7313,141.4844 217.7313,140.2031 L217.7313,139.0469 Q217.7313,137.7188 218.3484,136.5703 Q218.9656,135.4219 220.0594,134.8047 Q221.1531,134.1875 222.3875,134.1875 Q223.1219,134.1875 223.7703,134.3516 Q224.4188,134.5156 224.9656,134.875 Z " fill="#000000"/><text fill="#000000" font-family="sans-serif" font-size="14" lengthAdjust="spacing" textLength="47" x="240.9" y="144.7285">Service</text><line style="stroke:#181818;stroke-width:0.5;" x1="187.05" x2="311.05" y1="155" y2="155"/><text fill="#000000" font-family="sans-serif" font-size="14" lengthAdjust="spacing" textLength="74" x="192.05" y="173.5332">string name</text><text fill="#000000" font-family="sans-serif" font-size="14" lengthAdjust="spacing" textLength="100" x="192.05" y="191.1426">string command</text><text fill="#000000" font-family="sans-serif" font-size="14" lengthAdjust="spacing" textLength="85" x="192.05" y="208.752">string version</text><text fill="#000000" font-family="sans-serif" font-size="14" lengthAdjust="spacing" textLength="62" x="192.05" y="226.3613">json ports</text><text fill="#000000" font-family="sans-serif" font-size="14" lengthAdjust="spacing" textLength="75" x="192.05" y="243.9707">json expose</text><text fill="#000000" font-family="sans-serif" font-size="14" lengthAdjust="spacing" textLength="102" x="192.05" y="261.5801">json parameters</text><text fill="#000000" font-family="sans-serif" font-size="14" lengthAdjust="spacing" textLength="108" x="192.05" y="279.1895">json environment</text><text fill="#000000" font-family="sans-serif" font-size="14" lengthAdjust="spacing" textLength="114" x="192.05" y="296.7988">ref provisionScript</text><line style="stroke:#181818;stroke-width:0.5;" x1="187.05" x2="311.05" y1="303.875" y2="303.875"/></g><!--link Model to Stack--><g id="link_Model_Stack"><path codeLine="18" d="M261.5501,110.7545 C260.2801,94.0545 257.29,89.39 249.05,75 C237.48,54.82 219.3921,44.4323 200.4321,37.2623 " fill="none" id="Model-Stack" style="stroke:#181818;stroke-width:1.0;"/><polygon fill="none" points="262.46,122.72,265.9935,116.434,261.5501,110.7545,258.0165,117.0406,262.46,122.72" style="stroke:#181818;stroke-width:1.0;"/><polygon fill="#181818" points="194.82,35.14,201.8233,42.0649,199.4968,36.9086,204.653,34.582,194.82,35.14" style="stroke:#181818;stroke-width:1.0;"/><text fill="#000000" font-family="sans-serif" font-size="13" lengthAdjust="spacing" textLength="32" x="258.05" y="89.4951">stack</text><text fill="#000000" font-family="sans-serif" font-size="13" lengthAdjust="spacing" textLength="7" x="202.4421" y="33.0034">1</text></g><!--link Stack to Model--><g id="link_Stack_Model"><path codeLine="59" d="M127.2827,30.6693 C80.6327,35.8293 6,50.03 31.05,93 C64.12,149.75 128.3302,180.6157 180.1102,197.9457 " fill="none" id="Stack-Model" style="stroke:#181818;stroke-width:1.0;"/><polygon fill="#181818" points="139.21,29.35,132.8066,26.0339,127.2827,30.6693,133.6861,33.9854,139.21,29.35" style="stroke:#181818;stroke-width:1.0;"/><polygon fill="#181818" points="185.8,199.85,178.5348,193.2004,181.0585,198.2631,175.9958,200.7868,185.8,199.85" style="stroke:#181818;stroke-width:1.0;"/><text fill="#000000" font-family="sans-serif" font-size="13" lengthAdjust="spacing" textLength="47" x="32.05" y="89.4951">services</text><text fill="#000000" font-family="sans-serif" font-size="13" lengthAdjust="spacing" textLength="7" x="171.082" y="194.4069">n</text></g><!--link Stack to Model--><g id="link_Stack_Model"><path codeLine="64" d="M132.0159,52.8577 C117.3659,65.4377 112.48,75.28 120.05,93 C133.75,125.08 155.6917,148.9918 181.1717,170.0118 " fill="none" id="Stack-Model-1" style="stroke:#181818;stroke-width:1.0;"/><polygon fill="none" points="141.12,45.04,133.9621,45.9142,132.0159,52.8577,139.1739,51.9835,141.12,45.04" style="stroke:#181818;stroke-width:1.0;"/><polygon fill="#181818" points="185.8,173.83,181.403,165.0172,181.9431,170.6482,176.312,171.1883,185.8,173.83" style="stroke:#181818;stroke-width:1.0;"/><text fill="#000000" font-family="sans-serif" font-size="13" lengthAdjust="spacing" textLength="45" x="121.05" y="89.4951">children</text><text fill="#000000" font-family="sans-serif" font-size="13" lengthAdjust="spacing" textLength="7" x="171.082" y="165.3783">n</text></g><!--link Stack to Model--><g id="link_Stack_Model"><path codeLine="69" d="M179.6776,56.1823 C187.6176,74.5223 193.3474,87.7833 206.1674,117.4133 " fill="none" id="Stack-Model-2" style="stroke:#181818;stroke-width:1.0;"/><polygon fill="none" points="174.91,45.17,173.623,52.2653,179.6776,56.1823,180.9645,49.0869,174.91,45.17" style="stroke:#181818;stroke-width:1.0;"/><polygon fill="#181818" points="208.55,122.92,208.6473,113.0716,206.5645,118.3311,201.305,116.2484,208.55,122.92" style="stroke:#181818;stroke-width:1.0;"/><text fill="#000000" font-family="sans-serif" font-size="13" lengthAdjust="spacing" textLength="36" x="195.05" y="89.4951">parent</text><text fill="#000000" font-family="sans-serif" font-size="13" lengthAdjust="spacing" textLength="7" x="198.0438" y="112.2598">1</text></g><!--link Model to Service--><g id="link_Model_Service"><path codeLine="24" d="M261.5501,324.2455 C260.2801,340.9455 257.29,345.61 249.05,360 C238.63,378.17 223.8956,387.8155 206.1256,395.2455 " fill="none" id="Model-Service" style="stroke:#181818;stroke-width:1.0;"/><polygon fill="none" points="262.46,312.28,258.0165,317.9594,261.5501,324.2455,265.9935,318.566,262.46,312.28" style="stroke:#181818;stroke-width:1.0;"/><polygon fill="#181818" points="200.59,397.56,210.4364,397.7786,205.203,395.6312,207.3504,390.3978,200.59,397.56" style="stroke:#181818;stroke-width:1.0;"/><text fill="#000000" font-family="sans-serif" font-size="13" lengthAdjust="spacing" textLength="45" x="258.05" y="356.4951">children</text><text fill="#000000" font-family="sans-serif" font-size="13" lengthAdjust="spacing" textLength="7" x="208.6925" y="390.8838">n</text></g><!--link Model to Service--><g id="link_Model_Service"><path codeLine="30" d="M174.6892,241.3136 C125.7892,259.4536 72.63,288.14 42.05,342 C20.48,379.99 83.412,396.1336 127.372,403.0036 " fill="none" id="Model-Service-1" style="stroke:#181818;stroke-width:1.0;"/><polygon fill="none" points="185.94,237.14,178.9234,235.4765,174.6892,241.3136,181.7058,242.9771,185.94,237.14" style="stroke:#181818;stroke-width:1.0;"/><polygon fill="#181818" points="133.3,403.93,125.0255,398.5883,128.36,403.158,123.7903,406.4924,133.3,403.93" style="stroke:#181818;stroke-width:1.0;"/><text fill="#000000" font-family="sans-serif" font-size="13" lengthAdjust="spacing" textLength="36" x="43.05" y="356.4951">parent</text><text fill="#000000" font-family="sans-serif" font-size="13" lengthAdjust="spacing" textLength="7" x="118.6172" y="398.806">1</text></g><!--link Service to Model--><g id="link_Service_Model"><path codeLine="44" d="M132.0159,382.1423 C117.3659,369.5623 112.48,359.72 120.05,342 C133.75,309.92 155.6917,286.0082 181.1717,264.9882 " fill="none" id="Service-Model" style="stroke:#181818;stroke-width:1.0;"/><polygon fill="none" points="141.12,389.96,139.1739,383.0165,132.0159,382.1423,133.9621,389.0858,141.12,389.96" style="stroke:#181818;stroke-width:1.0;"/><polygon fill="#181818" points="185.8,261.17,176.312,263.8117,181.9431,264.3518,181.403,269.9828,185.8,261.17" style="stroke:#181818;stroke-width:1.0;"/><text fill="#000000" font-family="sans-serif" font-size="13" lengthAdjust="spacing" textLength="45" x="121.05" y="356.4951">children</text><text fill="#000000" font-family="sans-serif" font-size="13" lengthAdjust="spacing" textLength="7" x="171.082" y="262.817">n</text></g><!--link Service to Model--><g id="link_Service_Model"><path codeLine="49" d="M179.6369,378.8974 C187.5669,360.5774 193.3172,347.2966 206.1472,317.6466 " fill="none" id="Service-Model-1" style="stroke:#181818;stroke-width:1.0;"/><polygon fill="none" points="174.87,389.91,180.9243,385.9927,179.6369,378.8974,173.5826,382.8147,174.87,389.91" style="stroke:#181818;stroke-width:1.0;"/><polygon fill="#181818" points="208.53,312.14,201.2848,318.8113,206.5444,316.7288,208.6269,321.9884,208.53,312.14" style="stroke:#181818;stroke-width:1.0;"/><text fill="#000000" font-family="sans-serif" font-size="13" lengthAdjust="spacing" textLength="36" x="195.05" y="356.4951">parent</text><text fill="#000000" font-family="sans-serif" font-size="13" lengthAdjust="spacing" textLength="7" x="198.1597" y="333.5117">1</text></g><!--link Model to ServiceInstance--><g id="link_Model_ServiceInstance"><path codeLine="36" d="M320.2001,303.4774 C338.9501,325.1074 351.98,339.33 372.05,360 C381.97,370.23 389.1232,377.0229 398.8532,385.7929 " fill="none" id="Model-ServiceInstance" style="stroke:#181818;stroke-width:1.0;"/><polygon fill="#181818" points="312.34,294.41,313.2476,301.5638,320.2001,303.4774,319.2925,296.3237,312.34,294.41" style="stroke:#181818;stroke-width:1.0;"/><polygon fill="#181818" points="403.31,389.81,399.3028,380.8132,399.596,386.4624,393.9467,386.7556,403.31,389.81" style="stroke:#181818;stroke-width:1.0;"/><text fill="#000000" font-family="sans-serif" font-size="13" lengthAdjust="spacing" textLength="56" x="373.05" y="356.4951">instances</text><text fill="#000000" font-family="sans-serif" font-size="13" lengthAdjust="spacing" textLength="7" x="388.8865" y="379.0918">n</text></g><!--link ServiceInstance to Model--><g id="link_ServiceInstance_Model"><path codeLine="54" d="M436.7284,378.6484 C441.9084,364.7784 441.97,356.82 434.05,342 C408.46,294.15 360.6849,264.1287 317.8749,244.5187 " fill="none" id="ServiceInstance-Model" style="stroke:#181818;stroke-width:1.0;"/><polygon fill="none" points="432.53,389.89,438.3764,385.6687,436.7284,378.6484,430.882,382.8697,432.53,389.89" style="stroke:#181818;stroke-width:1.0;"/><polygon fill="#181818" points="312.42,242.02,318.9366,249.4047,316.9658,244.1023,322.2682,242.1315,312.42,242.02" style="stroke:#181818;stroke-width:1.0;"/><text fill="#000000" font-family="sans-serif" font-size="13" lengthAdjust="spacing" textLength="36" x="440.05" y="356.4951">parent</text><text fill="#000000" font-family="sans-serif" font-size="13" lengthAdjust="spacing" textLength="7" x="320.1518" y="241.4528">1</text></g><!--link StackInstance to Model--><g id="link_StackInstance_Model"><path codeLine="74" d="M345.0625,55.4757 C334.1225,73.8157 325.5932,88.1368 307.9232,117.7668 " fill="none" id="StackInstance-Model" style="stroke:#181818;stroke-width:1.0;"/><polygon fill="none" points="351.21,45.17,344.701,48.2737,345.0625,55.4757,351.5715,52.372,351.21,45.17" style="stroke:#181818;stroke-width:1.0;"/><polygon fill="#181818" points="304.85,122.92,312.8952,117.2389,307.411,118.6256,306.0242,113.1414,304.85,122.92" style="stroke:#181818;stroke-width:1.0;"/><text fill="#000000" font-family="sans-serif" font-size="13" lengthAdjust="spacing" textLength="36" x="333.05" y="89.4951">parent</text><text fill="#000000" font-family="sans-serif" font-size="13" lengthAdjust="spacing" textLength="7" x="302.0177" y="112.2598">1</text></g><!--link DataChannel to Model--><g id="link_DataChannel_Model"><path codeLine="79" d="M469.0727,52.3469 C431.0827,80.6969 370.899,125.592 317.019,165.792 " fill="none" id="DataChannel-Model" style="stroke:#181818;stroke-width:1.0;"/><polygon fill="none" points="478.69,45.17,471.4891,45.5527,469.0727,52.3469,476.2737,51.9642,478.69,45.17" style="stroke:#181818;stroke-width:1.0;"/><polygon fill="#181818" points="312.21,169.38,321.8155,167.204,316.2175,166.39,317.0315,160.792,312.21,169.38" style="stroke:#181818;stroke-width:1.0;"/><text fill="#000000" font-family="sans-serif" font-size="13" lengthAdjust="spacing" textLength="96" x="436.05" y="89.4951">transformService</text><text fill="#000000" font-family="sans-serif" font-size="13" lengthAdjust="spacing" textLength="7" x="319.9176" y="160.4138">1</text></g><!--SRC=[hLCzRyCW4Dtv5IUwLShWrKENTkdGAR-0u8jDYm_he5QbAl-z-Dkkt2HkSWC-uF7Uumvhgxm7kKUkZKO9oiERoz32jm0Vs50Ef4eS9zgLfQ9idDV8tZWIyEuTGUKu-3x7hyfv73OKHvOGmSCkrOOTbKX10ECHAdQrQQZscaqLX01n4e9H1qMvnMWnAFtH6cmpUB0cByB1VcBq6g6TRRVRFO5CP0zAey_u5KkcsMNx_2mRoH6MWYwCpHZfDifaJXcBqvHXZV2LedzQ4WzhVmWy_l8ymbCmVUf54n3ZgYlaZ4ZDWuXnQiTsQ680mbIgpaKASgYKd8xSMowPoNLLF2jsHJKlYuy7DfjOVS3d15iOJ1qTPNndnTzPQ7CFRnFQLBXbx-OhLyh-ksylAgZdGX6XRSLdyylIS_2QS615_kYu7Fw7xlWF]--></g></svg>