<?xml version="1.0" encoding="UTF-8" standalone="no"?><svg xmlns="http://www.w3.org/2000/svg" xmlns:xlink="http://www.w3.org/1999/xlink" contentScriptType="application/ecmascript" contentStyleType="text/css" height="685px" preserveAspectRatio="none" style="width:374px;height:685px;" version="1.1" viewBox="0 0 374 685" width="374px" zoomAndPan="magnify"><defs><filter height="300%" id="fd60d1jpmlioj" width="300%" x="-1" y="-1"><feGaussianBlur result="blurOut" stdDeviation="2.0"/><feColorMatrix in="blurOut" result="blurOut2" type="matrix" values="0 0 0 0 0 0 0 0 0 0 0 0 0 0 0 0 0 0 .4 0"/><feOffset dx="4.0" dy="4.0" in="blurOut2" result="blurOut3"/><feBlend in="SourceGraphic" in2="blurOut3" mode="normal"/></filter></defs><g><!--cluster Common Physical Layer--><polygon fill="#BBBBBB" filter="url(#fd60d1jpmlioj)" points="45.5,84,215.5,84,222.5,107.6094,352.5,107.6094,352.5,673,45.5,673,45.5,84" style="stroke: #000000; stroke-width: 1.5;"/><line style="stroke: #000000; stroke-width: 1.5;" x1="45.5" x2="222.5" y1="107.6094" y2="107.6094"/><text fill="#000000" font-family="sans-serif" font-size="14" font-weight="bold" lengthAdjust="spacingAndGlyphs" textLength="164" x="49.5" y="100.5332">Common Physical Layer</text><!--cluster bin--><polygon fill="#FFFFFF" filter="url(#fd60d1jpmlioj)" points="89.5,128,117.5,128,124.5,151.6094,191.5,151.6094,191.5,218,89.5,218,89.5,128" style="stroke: #000000; stroke-width: 1.5;"/><line style="stroke: #000000; stroke-width: 1.5;" x1="89.5" x2="124.5" y1="151.6094" y2="151.6094"/><text fill="#000000" font-family="sans-serif" font-size="14" font-weight="bold" lengthAdjust="spacingAndGlyphs" textLength="22" x="93.5" y="144.5332">bin</text><!--cluster deploy--><polygon fill="#FFFFFF" filter="url(#fd60d1jpmlioj)" points="69.5,324,122.5,324,129.5,347.6094,292.5,347.6094,292.5,431,69.5,431,69.5,324" style="stroke: #000000; stroke-width: 1.5;"/><line style="stroke: #000000; stroke-width: 1.5;" x1="69.5" x2="129.5" y1="347.6094" y2="347.6094"/><text fill="#000000" font-family="sans-serif" font-size="14" font-weight="bold" lengthAdjust="spacingAndGlyphs" textLength="47" x="73.5" y="340.5332">deploy</text><!--cluster images--><polygon fill="#FFFFFF" filter="url(#fd60d1jpmlioj)" points="69.5,455,125.5,455,132.5,478.6094,328.5,478.6094,328.5,649,69.5,649,69.5,455" style="stroke: #000000; stroke-width: 1.5;"/><line style="stroke: #000000; stroke-width: 1.5;" x1="69.5" x2="132.5" y1="478.6094" y2="478.6094"/><text fill="#000000" font-family="sans-serif" font-size="14" font-weight="bold" lengthAdjust="spacingAndGlyphs" textLength="50" x="73.5" y="471.5332">images</text><!--entity REST--><rect fill="#FEFECE" filter="url(#fd60d1jpmlioj)" height="37.6094" style="stroke: #A80036; stroke-width: 1.5;" width="69" x="106" y="262"/><rect fill="#FEFECE" height="5" style="stroke: #A80036; stroke-width: 1.5;" width="10" x="101" y="267"/><rect fill="#FEFECE" height="5" style="stroke: #A80036; stroke-width: 1.5;" width="10" x="101" y="289.6094"/><text fill="#000000" font-family="sans-serif" font-size="14" lengthAdjust="spacingAndGlyphs" textLength="49" x="116" y="286.5332">express</text><!--entity socket--><rect fill="#FEFECE" filter="url(#fd60d1jpmlioj)" height="37.6094" style="stroke: #A80036; stroke-width: 1.5;" width="76" x="215.5" y="164"/><rect fill="#FEFECE" height="5" style="stroke: #A80036; stroke-width: 1.5;" width="10" x="210.5" y="169"/><rect fill="#FEFECE" height="5" style="stroke: #A80036; stroke-width: 1.5;" width="10" x="210.5" y="191.6094"/><text fill="#000000" font-family="sans-serif" font-size="14" lengthAdjust="spacingAndGlyphs" textLength="56" x="225.5" y="188.5332">socket.io</text><!--entity binName--><rect fill="#FEFECE" filter="url(#fd60d1jpmlioj)" height="37.6094" style="stroke: #A80036; stroke-width: 1.5;" width="70" x="105.5" y="164"/><rect fill="#FEFECE" height="5" style="stroke: #A80036; stroke-width: 1.5;" width="10" x="100.5" y="169"/><rect fill="#FEFECE" height="5" style="stroke: #A80036; stroke-width: 1.5;" width="10" x="100.5" y="191.6094"/><text fill="#000000" font-family="sans-serif" font-size="14" lengthAdjust="spacingAndGlyphs" textLength="50" x="115.5" y="188.5332">sabr cpl</text><!--entity sabr_cpl_container--><polygon fill="#FEFECE" filter="url(#fd60d1jpmlioj)" points="85.5,360,85.5,415.2188,195.5,415.2188,195.5,370,185.5,360,85.5,360" style="stroke: #000000; stroke-width: 1.5;"/><path d="M185.5,360 L185.5,370 L195.5,370 " fill="#FEFECE" style="stroke: #000000; stroke-width: 1.5;"/><text fill="#000000" font-family="sans-serif" font-size="14" lengthAdjust="spacingAndGlyphs" textLength="90" x="95.5" y="384.5332">node server.js</text><text fill="#000000" font-family="sans-serif" font-size="14" lengthAdjust="spacingAndGlyphs" textLength="0" x="99.5" y="402.1426"/><!--entity web_container--><polygon fill="#FEFECE" filter="url(#fd60d1jpmlioj)" points="231,368.5,231,406.1094,276,406.1094,276,378.5,266,368.5,231,368.5" style="stroke: #000000; stroke-width: 1.5;"/><path d="M266,368.5 L266,378.5 L276,378.5 " fill="#FEFECE" style="stroke: #000000; stroke-width: 1.5;"/><text fill="#000000" font-family="sans-serif" font-size="14" lengthAdjust="spacingAndGlyphs" textLength="25" x="241" y="393.0332">web</text><!--entity sabr_cplimage--><rect fill="#FEFECE" filter="url(#fd60d1jpmlioj)" height="33.6094" style="stroke: #000000; stroke-width: 1.5;" width="70" x="89.5" y="496.5"/><rect fill="#FEFECE" height="33.6094" style="stroke: #000000; stroke-width: 1.5;" width="70" x="85.5" y="492.5"/><text fill="#000000" font-family="sans-serif" font-size="14" lengthAdjust="spacingAndGlyphs" textLength="54" x="93.5" y="515.0332">sabr_cpl</text><!--entity ailtireswarm--><rect fill="#FEFECE" filter="url(#fd60d1jpmlioj)" height="40.6094" style="stroke: #000000; stroke-width: 1.5;" width="108" x="85.5" y="592"/><polygon fill="#FEFECE" points="176.5,597,176.5,611,188.5,611,188.5,603,182.5,597,176.5,597" style="stroke: #000000; stroke-width: 1.5;"/><line style="stroke: #000000; stroke-width: 1.5;" x1="182.5" x2="182.5" y1="597" y2="603"/><line style="stroke: #000000; stroke-width: 1.5;" x1="188.5" x2="182.5" y1="603" y2="603"/><text fill="#000000" font-family="sans-serif" font-size="14" lengthAdjust="spacingAndGlyphs" textLength="78" x="95.5" y="619.5332">ailtire:swarm</text><!--entity sabr_cpl_web--><rect fill="#FEFECE" filter="url(#fd60d1jpmlioj)" height="40.6094" style="stroke: #000000; stroke-width: 1.5;" width="117" x="195" y="491"/><polygon fill="#FEFECE" points="295,496,295,510,307,510,307,502,301,496,295,496" style="stroke: #000000; stroke-width: 1.5;"/><line style="stroke: #000000; stroke-width: 1.5;" x1="301" x2="301" y1="496" y2="502"/><line style="stroke: #000000; stroke-width: 1.5;" x1="307" x2="301" y1="502" y2="502"/><text fill="#000000" font-family="sans-serif" font-size="14" lengthAdjust="spacingAndGlyphs" textLength="87" x="205" y="518.5332">sabr_cpl_web</text><!--entity CLI--><ellipse cx="140.5" cy="38" fill="#FEFECE" filter="url(#fd60d1jpmlioj)" rx="8" ry="8" style="stroke: #A80036; stroke-width: 2.0;"/><text fill="#000000" font-family="sans-serif" font-size="14" lengthAdjust="spacingAndGlyphs" textLength="21" x="130" y="69.5332">CLI</text><!--entity Web--><ellipse cx="20.5" cy="281" fill="#FEFECE" filter="url(#fd60d1jpmlioj)" rx="8" ry="8" style="stroke: #A80036; stroke-width: 2.0;"/><text fill="#000000" font-family="sans-serif" font-size="14" lengthAdjust="spacingAndGlyphs" textLength="29" x="6" y="312.5332">Web</text><!--entity WebSocket--><ellipse cx="253.5" cy="38" fill="#FEFECE" filter="url(#fd60d1jpmlioj)" rx="8" ry="8" style="stroke: #A80036; stroke-width: 2.0;"/><text fill="#000000" font-family="sans-serif" font-size="14" lengthAdjust="spacingAndGlyphs" textLength="72" x="217.5" y="69.5332">WebSocket</text><!--link binName to REST--><path d="M140.5,202.057 C140.5,217.513 140.5,239.865 140.5,256.673 " fill="none" id="binName-REST" style="stroke: #A80036; stroke-width: 1.0;"/><polygon fill="#A80036" points="140.5,261.698,144.5,252.698,140.5,256.698,136.5,252.698,140.5,261.698" style="stroke: #A80036; stroke-width: 1.0;"/><!--link REST to sabr_cpl_container--><path d="M140.5,300.203 C140.5,315.147 140.5,336.673 140.5,354.487 " fill="none" id="REST-sabr_cpl_container" style="stroke: #A80036; stroke-width: 1.0;"/><polygon fill="#A80036" points="140.5,359.885,144.5,350.885,140.5,354.885,136.5,350.885,140.5,359.885" style="stroke: #A80036; stroke-width: 1.0;"/><!--link REST to web_container--><path d="M175.305,293.443 C188.04,298.844 201.909,306.278 212.5,316 C226.745,329.075 237.459,348.262 244.356,363.32 " fill="none" id="REST-web_container" style="stroke: #A80036; stroke-width: 1.0;"/><polygon fill="#A80036" points="246.548,368.253,246.55,358.4041,244.5182,363.6835,239.2388,361.6518,246.548,368.253" style="stroke: #A80036; stroke-width: 1.0;"/><!--link socket to web_container--><path d="M253.5,202.328 C253.5,239.225 253.5,322.407 253.5,363.138 " fill="none" id="socket-web_container" style="stroke: #A80036; stroke-width: 1.0;"/><polygon fill="#A80036" points="253.5,368.36,257.5,359.36,253.5,363.36,249.5,359.36,253.5,368.36" style="stroke: #A80036; stroke-width: 1.0;"/><!--link sabr_cplimage to ailtireswarm--><path d="M129.008,550.398 C131.429,564.499 134.079,579.932 136.11,591.7594 " fill="none" id="sabr_cplimage-ailtireswarm" style="stroke: #A80036; stroke-width: 1.0;"/><polygon fill="none" points="122.104,551.554,125.618,530.658,135.902,549.185,122.104,551.554" style="stroke: #A80036; stroke-width: 1.0;"/><!--link sabr_cpl_container to sabr_cplimage--><path d="M136.55,415.273 C133.363,436.871 128.928,466.931 125.899,487.465 " fill="none" id="sabr_cpl_container-sabr_cplimage" style="stroke: #A80036; stroke-width: 1.0;"/><polygon fill="#A80036" points="125.16,492.469,130.4313,484.1495,125.8901,487.5226,122.5171,482.9814,125.16,492.469" style="stroke: #A80036; stroke-width: 1.0;"/><!--link web_container to sabr_cpl_web--><path d="M253.5,406.502 C253.5,427.453 253.5,462.173 253.5,485.676 " fill="none" id="web_container-sabr_cpl_web" style="stroke: #A80036; stroke-width: 1.0;"/><polygon fill="#A80036" points="253.5,490.805,257.5,481.805,253.5,485.805,249.5,481.805,253.5,490.805" style="stroke: #A80036; stroke-width: 1.0;"/><!--link CLI to binName--><path d="M140.5,47.098 C140.5,69.432 140.5,132.318 140.5,163.705 " fill="none" id="CLI-binName" style="stroke: #A80036; stroke-width: 1.0;"/><text fill="#000000" font-family="sans-serif" font-size="13" lengthAdjust="spacingAndGlyphs" textLength="46" x="77.3125" y="45.4688">sabr cpl</text><!--link Web to REST--><path d="M29.875,281 C55.2266,281 80.5781,281 105.9297,281 " fill="none" id="Web-REST" style="stroke: #A80036; stroke-width: 1.0;"/><text fill="#000000" font-family="sans-serif" font-size="13" lengthAdjust="spacingAndGlyphs" textLength="50" x="37.3945" y="276.7836">/sabr/cpl</text><!--link WebSocket to socket--><path d="M253.5,47.098 C253.5,69.432 253.5,132.318 253.5,163.705 " fill="none" id="WebSocket-socket" style="stroke: #A80036; stroke-width: 1.0;"/><text fill="#000000" font-family="sans-serif" font-size="13" lengthAdjust="spacingAndGlyphs" textLength="50" x="186.3125" y="45.4688">.sabr.cpl</text><!--
@startuml
  interface CLI
  interface Web
  interface WebSocket
package "Common Physical Layer" #bbbbbb {
  component express as REST
  component socket.io as socket
  folder bin #ffffff {
    component " sabr cpl" as binName
  }
  binName - -> REST

  folder deploy #ffffff {
      file "node server.js\n" as sabr_cpl_container
      REST - -> sabr_cpl_container

  
    file "web" as web_container
    REST - -> web_container
    socket - - -> web_container
  
  }
  folder images #ffffff {
    collections "sabr_cpl" as sabr_cplimage
    artifact "ailtire:swarm" as ailtireswarm
    sabr_cplimage <|- - ailtireswarm
    sabr_cpl_container - -> sabr_cplimage

  
      artifact "sabr_cpl_web" as sabr_cpl_web
      web_container - -> sabr_cpl_web
    
  }
}
CLI " sabr cpl" - - binName
Web "/sabr/cpl" - REST
WebSocket ".sabr.cpl" - - socket

@enduml

PlantUML version 1.2019.05(Sat Apr 20 09:45:36 PDT 2019)
(GPL source distribution)
Java Runtime: Java(TM) SE Runtime Environment
JVM: Java HotSpot(TM) Client VM
Java Version: 1.8.0_271-b09
Operating System: Windows 10
OS Version: 10.0
Default Encoding: Cp1252
Language: en
Country: US
--></g></svg>