<?xml version="1.0" encoding="UTF-8" standalone="no"?><svg xmlns="http://www.w3.org/2000/svg" xmlns:xlink="http://www.w3.org/1999/xlink" contentScriptType="application/ecmascript" contentStyleType="text/css" height="340px" preserveAspectRatio="none" style="width:681px;height:340px;" version="1.1" viewBox="0 0 681 340" width="681px" zoomAndPan="magnify"><defs><filter height="300%" id="f12r87pwucg0uj" width="300%" x="-1" y="-1"><feGaussianBlur result="blurOut" stdDeviation="2.0"/><feColorMatrix in="blurOut" result="blurOut2" type="matrix" values="0 0 0 0 0 0 0 0 0 0 0 0 0 0 0 0 0 0 .4 0"/><feOffset dx="4.0" dy="4.0" in="blurOut2" result="blurOut3"/><feBlend in="SourceGraphic" in2="blurOut3" mode="normal"/></filter></defs><g><!--entity DataStream--><rect fill="#90EE90" filter="url(#f12r87pwucg0uj)" height="37.6094" style="stroke: #000000; stroke-width: 1.5;" width="95" x="6" y="8"/><text fill="#000000" font-family="sans-serif" font-size="14" lengthAdjust="spacingAndGlyphs" textLength="75" x="16" y="32.5332">DataStream</text><!--entity SABundleInstance--><rect fill="#ADD8E6" filter="url(#f12r87pwucg0uj)" height="37.6094" style="stroke: #000000; stroke-width: 1.5;" width="135" x="249" y="292"/><text fill="#000000" font-family="sans-serif" font-size="14" lengthAdjust="spacingAndGlyphs" textLength="115" x="259" y="316.5332">SABundleInstance</text><!--entity DataChannelInstance--><rect fill="#90EE90" filter="url(#f12r87pwucg0uj)" height="37.6094" style="stroke: #000000; stroke-width: 1.5;" width="156" x="57.5" y="292"/><text fill="#000000" font-family="sans-serif" font-size="14" lengthAdjust="spacingAndGlyphs" textLength="136" x="67.5" y="316.5332">DataChannelInstance</text><!--entity DataTransformInstance--><rect fill="#ADD8E6" filter="url(#f12r87pwucg0uj)" height="37.6094" style="stroke: #000000; stroke-width: 1.5;" width="168" x="419.5" y="292"/><text fill="#000000" font-family="sans-serif" font-size="14" lengthAdjust="spacingAndGlyphs" textLength="148" x="429.5" y="316.5332">DataTransformInstance</text><!--entity InputChannelInstance--><rect fill="#90EE90" filter="url(#f12r87pwucg0uj)" height="37.6094" style="stroke: #000000; stroke-width: 1.5;" width="157" x="140" y="8"/><text fill="#000000" font-family="sans-serif" font-size="14" lengthAdjust="spacingAndGlyphs" textLength="137" x="150" y="32.5332">InputChannelInstance</text><!--entity OutputChannelInstance--><rect fill="#90EE90" filter="url(#f12r87pwucg0uj)" height="37.6094" style="stroke: #000000; stroke-width: 1.5;" width="169" x="332" y="8"/><text fill="#000000" font-family="sans-serif" font-size="14" lengthAdjust="spacingAndGlyphs" textLength="149" x="342" y="32.5332">OutputChannelInstance</text><!--entity AdminDataStream--><rect fill="#90EE90" filter="url(#f12r87pwucg0uj)" height="37.6094" style="stroke: #000000; stroke-width: 1.5;" width="134" x="536.5" y="8"/><text fill="#000000" font-family="sans-serif" font-size="14" lengthAdjust="spacingAndGlyphs" textLength="114" x="546.5" y="32.5332">AdminDataStream</text><!--class Model--><rect fill="#FEFECE" filter="url(#f12r87pwucg0uj)" height="89.5078" id="Model" style="stroke: #A80036; stroke-width: 1.5;" width="145" x="150" y="124"/><ellipse cx="165" cy="140" fill="#ADD1B2" rx="11" ry="11" style="stroke: #A80036; stroke-width: 1.0;"/><path d="M167.7656,135.875 Q167.9219,135.6563 168.1094,135.5469 Q168.2969,135.4375 168.5156,135.4375 Q168.8906,135.4375 169.125,135.6953 Q169.3594,135.9531 169.3594,136.5625 L169.3594,138.0156 Q169.3594,138.625 169.125,138.8906 Q168.8906,139.1563 168.5156,139.1563 Q168.1719,139.1563 167.9688,138.9531 Q167.7656,138.7656 167.6563,138.25 Q167.6094,137.8906 167.4219,137.7031 Q167.0938,137.3281 166.4844,137.1094 Q165.875,136.8906 165.25,136.8906 Q164.4844,136.8906 163.8516,137.2188 Q163.2188,137.5469 162.7266,138.2969 Q162.2344,139.0469 162.2344,140.0781 L162.2344,141.1719 Q162.2344,142.4063 163.125,143.2266 Q164.0156,144.0469 165.6094,144.0469 Q166.5469,144.0469 167.2031,143.7969 Q167.5938,143.6406 168.0156,143.2031 Q168.2813,142.9375 168.4297,142.8594 Q168.5781,142.7813 168.7813,142.7813 Q169.1094,142.7813 169.3672,143.0391 Q169.625,143.2969 169.625,143.6406 Q169.625,143.9844 169.2813,144.3906 Q168.7813,144.9688 167.9844,145.2969 Q166.9063,145.75 165.6094,145.75 Q164.0938,145.75 162.8906,145.125 Q161.9063,144.625 161.2188,143.5547 Q160.5313,142.4844 160.5313,141.2031 L160.5313,140.0469 Q160.5313,138.7188 161.1484,137.5703 Q161.7656,136.4219 162.8594,135.8047 Q163.9531,135.1875 165.1875,135.1875 Q165.9219,135.1875 166.5703,135.3516 Q167.2188,135.5156 167.7656,135.875 Z "/><text fill="#000000" font-family="sans-serif" font-size="12" lengthAdjust="spacingAndGlyphs" textLength="113" x="179" y="144.9102">DataStreamInstance</text><line style="stroke: #A80036; stroke-width: 1.5;" x1="151" x2="294" y1="156" y2="156"/><text fill="#000000" font-family="sans-serif" font-size="11" lengthAdjust="spacingAndGlyphs" textLength="56" x="156" y="171.4189">string name</text><text fill="#000000" font-family="sans-serif" font-size="11" lengthAdjust="spacingAndGlyphs" textLength="71" x="156" y="185.2549">string direction</text><line style="stroke: #A80036; stroke-width: 1.5;" x1="151" x2="294" y1="191.6719" y2="191.6719"/><text fill="#000000" font-family="sans-serif" font-size="11" lengthAdjust="spacingAndGlyphs" textLength="40" x="156" y="207.0908">deploy()</text><!--link Model to DataStream--><path d="M159.042,115.431 C133.921,94.621 106.15,71.616 85.4028,54.428 " fill="none" id="Model-DataStream" style="stroke: #A80036; stroke-width: 1.0;"/><polygon fill="#A80036" points="75.2478,46.016,79.6269,54.8378,79.0983,49.2057,84.7304,48.677,75.2478,46.016" style="stroke: #A80036; stroke-width: 1.0;"/><line style="stroke: #A80036; stroke-width: 1.0;" x1="79.0983" x2="85.259" y1="49.2057" y2="54.309"/><polygon fill="#FFFFFF" points="169.249,123.887,167.18,116.9791,160.0077,116.2321,162.0767,123.14,169.249,123.887" style="stroke: #A80036; stroke-width: 1.0;"/><text fill="#000000" font-family="sans-serif" font-size="13" lengthAdjust="spacingAndGlyphs" textLength="36" x="134.5" y="90.4951">parent</text><text fill="#000000" font-family="sans-serif" font-size="13" lengthAdjust="spacingAndGlyphs" textLength="7" x="73.38" y="67.2137">1</text><!--link DataStream to Model--><path d="M42.8435,58.685 C40.6306,70.573 40.7105,83.757 47.5,94 C67.701,124.475 103.2149,142.433 136.995,152.999 " fill="none" id="DataStream-Model" style="stroke: #A80036; stroke-width: 1.0;"/><polygon fill="#A80036" points="149.821,156.698,142.282,150.3605,145.0168,155.3124,140.065,158.0472,149.821,156.698" style="stroke: #A80036; stroke-width: 1.0;"/><line style="stroke: #A80036; stroke-width: 1.0;" x1="145.0168" x2="137.33" y1="155.3124" y2="153.096"/><polygon fill="#A80036" points="46.0808,46.039,40.7177,50.8594,43.1045,57.6641,48.4677,52.8436,46.0808,46.039" style="stroke: #A80036; stroke-width: 1.0;"/><text fill="#000000" font-family="sans-serif" font-size="13" lengthAdjust="spacingAndGlyphs" textLength="56" x="48.5" y="90.4951">instances</text><text fill="#000000" font-family="sans-serif" font-size="13" lengthAdjust="spacingAndGlyphs" textLength="7" x="134.965" y="152.143">n</text><!--link Model to SABundleInstance--><path d="M259.659,225.343 C272.473,244.4281 286.309,265.0353 297.122,281.1396 " fill="none" id="Model-SABundleInstance" style="stroke: #A80036; stroke-width: 1.0;"/><polygon fill="#A80036" points="304.404,291.9841,302.7079,282.2824,301.6168,287.833,296.0662,286.7419,304.404,291.9841" style="stroke: #A80036; stroke-width: 1.0;"/><line style="stroke: #A80036; stroke-width: 1.0;" x1="301.6168" x2="297.1565" y1="287.833" y2="281.1912"/><polygon fill="#FFFFFF" points="252.242,214.297,252.266,221.5081,258.9315,224.2594,258.9076,217.0484,252.242,214.297" style="stroke: #A80036; stroke-width: 1.0;"/><text fill="#000000" font-family="sans-serif" font-size="13" lengthAdjust="spacingAndGlyphs" textLength="38" x="284.5" y="258.4951">bundle</text><text fill="#000000" font-family="sans-serif" font-size="13" lengthAdjust="spacingAndGlyphs" textLength="7" x="292.4328" y="280.9862">1</text><!--link Model to DataChannelInstance--><path d="M202.649,226.396 C197.259,238.6007 190.846,251.1037 183.5,262 C178.658,269.1823 172.64,276.1971 166.519,282.5486 " fill="none" id="Model-DataChannelInstance" style="stroke: #A80036; stroke-width: 1.0;"/><polygon fill="#A80036" points="156.973,291.9122,166.1992,288.4659,160.5426,288.4111,160.5974,282.7545,156.973,291.9122" style="stroke: #A80036; stroke-width: 1.0;"/><line style="stroke: #A80036; stroke-width: 1.0;" x1="160.5426" x2="166.254" y1="288.4111" y2="282.8092"/><polygon fill="#A80036" points="207.693,214.361,201.6845,218.3483,203.0541,225.4281,209.0626,221.4408,207.693,214.361" style="stroke: #A80036; stroke-width: 1.0;"/><text fill="#000000" font-family="sans-serif" font-size="13" lengthAdjust="spacingAndGlyphs" textLength="52" x="194.5" y="258.4951">channels</text><text fill="#000000" font-family="sans-serif" font-size="13" lengthAdjust="spacingAndGlyphs" textLength="7" x="155.4772" y="281.2253">n</text><!--link Model to DataChannelInstance--><path d="M136.881,186.149 C104.475,196.875 70.7846,214.642 51.5,244 C40.6049,260.5863 53.4921,274.8376 72.1843,285.8081 " fill="none" id="Model-DataChannelInstance-1" style="stroke: #A80036; stroke-width: 1.0;"/><polygon fill="#A80036" points="83.725,291.8812,77.6232,284.1502,79.3003,289.5528,73.8977,291.2298,83.725,291.8812" style="stroke: #A80036; stroke-width: 1.0;"/><line style="stroke: #A80036; stroke-width: 1.0;" x1="79.3003" x2="72.2206" y1="289.5528" y2="285.8272"/><polygon fill="#FFFFFF" points="149.681,182.239,142.7743,180.166,138.2043,185.7441,145.111,187.8171,149.681,182.239" style="stroke: #A80036; stroke-width: 1.0;"/><text fill="#000000" font-family="sans-serif" font-size="13" lengthAdjust="spacingAndGlyphs" textLength="44" x="52.5" y="258.4951">policies</text><text fill="#000000" font-family="sans-serif" font-size="13" lengthAdjust="spacingAndGlyphs" textLength="7" x="59.797" y="281.1848">n</text><!--link DataChannelInstance to Model--><path d="M128.82,278.7016 C127.838,267.3071 128.516,254.6251 133.5,244 C136.835,236.8906 141.225,230.2273 146.271,224.04 " fill="none" id="DataChannelInstance-Model" style="stroke: #A80036; stroke-width: 1.0;"/><polygon fill="#A80036" points="155.312,214.081,146.3012,218.0567,151.9515,217.7833,152.2249,223.4335,155.312,214.081" style="stroke: #A80036; stroke-width: 1.0;"/><line style="stroke: #A80036; stroke-width: 1.0;" x1="151.9515" x2="146.574" y1="217.7833" y2="223.706"/><polygon fill="#FFFFFF" points="130.661,291.7371,133.7823,285.2365,128.9823,279.8551,125.861,286.3557,130.661,291.7371" style="stroke: #A80036; stroke-width: 1.0;"/><text fill="#000000" font-family="sans-serif" font-size="13" lengthAdjust="spacingAndGlyphs" textLength="40" x="134.5" y="258.4951">stream</text><text fill="#000000" font-family="sans-serif" font-size="13" lengthAdjust="spacingAndGlyphs" textLength="7" x="138.3715" y="235.1">1</text><!--link Model to DataTransformInstance--><path d="M307.113,212.156 C355.63,236.3281 414.77,265.7927 455.395,286.0329 " fill="none" id="Model-DataTransformInstance" style="stroke: #A80036; stroke-width: 1.0;"/><polygon fill="#A80036" points="467.116,291.8726,460.8441,284.2789,462.6407,289.6429,457.2767,291.4395,467.116,291.8726" style="stroke: #A80036; stroke-width: 1.0;"/><line style="stroke: #A80036; stroke-width: 1.0;" x1="462.6407" x2="455.48" y1="289.6429" y2="286.0753"/><polygon fill="#FFFFFF" points="295.23,206.236,298.8166,212.4919,305.9708,211.5873,302.3841,205.3314,295.23,206.236" style="stroke: #A80036; stroke-width: 1.0;"/><text fill="#000000" font-family="sans-serif" font-size="13" lengthAdjust="spacingAndGlyphs" textLength="61" x="406.5" y="258.4951">transforms</text><text fill="#000000" font-family="sans-serif" font-size="13" lengthAdjust="spacingAndGlyphs" textLength="7" x="447.9015" y="281.1736">n</text><!--link InputChannelInstance to Model--><path d="M219.387,59.048 C219.821,74.236 220.357,93.012 220.862,110.675 " fill="none" id="InputChannelInstance-Model" style="stroke: #A80036; stroke-width: 1.0;"/><polygon fill="#A80036" points="221.24,123.887,224.9812,114.7764,221.0971,118.889,216.9845,115.005,221.24,123.887" style="stroke: #A80036; stroke-width: 1.0;"/><line style="stroke: #A80036; stroke-width: 1.0;" x1="221.0971" x2="220.868" y1="118.889" y2="110.892"/><polygon fill="#FFFFFF" points="219.015,46.016,215.1881,52.1278,219.3579,58.0111,223.1848,51.8993,219.015,46.016" style="stroke: #A80036; stroke-width: 1.0;"/><text fill="#000000" font-family="sans-serif" font-size="13" lengthAdjust="spacingAndGlyphs" textLength="40" x="221.5" y="90.4951">stream</text><text fill="#000000" font-family="sans-serif" font-size="13" lengthAdjust="spacingAndGlyphs" textLength="7" x="213.4814" y="112.9845">1</text><!--link OutputChannelInstance to Model--><path d="M380.971,53.64 C356.768,71.106 323.881,94.839 294.338,116.158 " fill="none" id="OutputChannelInstance-Model" style="stroke: #A80036; stroke-width: 1.0;"/><polygon fill="#A80036" points="283.628,123.887,293.2668,121.864,287.6825,120.9611,288.5854,115.3768,283.628,123.887" style="stroke: #A80036; stroke-width: 1.0;"/><line style="stroke: #A80036; stroke-width: 1.0;" x1="287.6825" x2="294.1695" y1="120.9611" y2="116.2795"/><polygon fill="#FFFFFF" points="391.535,46.016,384.3289,46.2835,381.8042,53.0382,389.0103,52.7707,391.535,46.016" style="stroke: #A80036; stroke-width: 1.0;"/><text fill="#000000" font-family="sans-serif" font-size="13" lengthAdjust="spacingAndGlyphs" textLength="40" x="349.5" y="90.4951">stream</text><text fill="#000000" font-family="sans-serif" font-size="13" lengthAdjust="spacingAndGlyphs" textLength="7" x="285.8125" y="112.9845">1</text><!--link AdminDataStream to Model--><path d="M541.968,50.61 C478.397,73.97 378.702,110.603 307.598,136.73 " fill="none" id="AdminDataStream-Model" style="stroke: #A80036; stroke-width: 1.0;"/><polygon fill="#A80036" points="295.114,141.318,304.9414,141.9682,299.8071,139.5934,302.182,134.4591,295.114,141.318" style="stroke: #A80036; stroke-width: 1.0;"/><line style="stroke: #A80036; stroke-width: 1.0;" x1="299.8071" x2="307.3155" y1="139.5934" y2="136.834"/><polygon fill="#A80036" points="554.471,46.016,547.4595,44.331,543.2074,50.1551,550.2189,51.8401,554.471,46.016" style="stroke: #A80036; stroke-width: 1.0;"/><text fill="#000000" font-family="sans-serif" font-size="13" lengthAdjust="spacingAndGlyphs" textLength="56" x="470.5" y="90.4951">instances</text><text fill="#000000" font-family="sans-serif" font-size="13" lengthAdjust="spacingAndGlyphs" textLength="7" x="302.9633" y="135.1769">n</text><!--
@startuml

class "DataStreamInstance" as Model {
 string name
 string direction

 deploy()
 
}

rectangle "DataStream" as DataStream #lightblue {
}

Model o- -> "1" DataStream : parent


rectangle "SABundleInstance" as SABundleInstance #lightblue {
}

Model o- -> "1" SABundleInstance : bundle


rectangle "DataChannelInstance" as DataChannelInstance #lightblue {
}

Model *- -> "n" DataChannelInstance : channels


rectangle "DataChannelInstance" as DataChannelInstance #lightblue {
}

Model o- -> "n" DataChannelInstance : policies


rectangle "DataTransformInstance" as DataTransformInstance #lightblue {
}

Model o- -> "n" DataTransformInstance : transforms




    rectangle "DataChannelInstance" as DataChannelInstance #lightgreen {
    }
    
        DataChannelInstance   o- -> "1" Model : "stream"
    
    rectangle "DataStream" as DataStream #lightgreen {
    }
    
        DataStream   *- -> "n" Model : "instances"
    
    rectangle "InputChannelInstance" as InputChannelInstance #lightgreen {
    }
    
        InputChannelInstance   o- -> "1" Model : "stream"
    
    rectangle "OutputChannelInstance" as OutputChannelInstance #lightgreen {
    }
    
        OutputChannelInstance   o- -> "1" Model : "stream"
    
    rectangle "AdminDataStream" as AdminDataStream #lightgreen {
    }
    
        AdminDataStream   *- -> "n" Model : "instances"
    

@enduml

PlantUML version 1.2019.05(Sat Apr 20 09:45:36 PDT 2019)
(GPL source distribution)
Java Runtime: Java(TM) SE Runtime Environment
JVM: Java HotSpot(TM) Client VM
Java Version: 1.8.0_271-b09
Operating System: Windows 10
OS Version: 10.0
Default Encoding: Cp1252
Language: en
Country: US
--></g></svg>