<?xml version="1.0" encoding="us-ascii" standalone="no"?><svg xmlns="http://www.w3.org/2000/svg" xmlns:xlink="http://www.w3.org/1999/xlink" contentStyleType="text/css" height="345px" preserveAspectRatio="none" style="width:677px;height:345px;background:#FFFFFF;" version="1.1" viewBox="0 0 677 345" width="677px" zoomAndPan="magnify"><defs/><g><!--entity DataStream--><g id="elem_DataStream"><rect fill="#90EE90" height="37.6094" rx="2.5" ry="2.5" style="stroke:#181818;stroke-width:0.5;" width="95" x="7" y="7"/><text fill="#000000" font-family="sans-serif" font-size="14" lengthAdjust="spacing" textLength="75" x="17" y="31.5332">DataStream</text></g><!--entity SABundleInstance--><g id="elem_SABundleInstance"><rect fill="#ADD8E6" height="37.6094" rx="2.5" ry="2.5" style="stroke:#181818;stroke-width:0.5;" width="135" x="250" y="302"/><text fill="#000000" font-family="sans-serif" font-size="14" lengthAdjust="spacing" textLength="115" x="260" y="326.5332">SABundleInstance</text></g><!--entity DataChannelInstance--><g id="elem_DataChannelInstance"><rect fill="#90EE90" height="37.6094" rx="2.5" ry="2.5" style="stroke:#181818;stroke-width:0.5;" width="156" x="58.5" y="302"/><text fill="#000000" font-family="sans-serif" font-size="14" lengthAdjust="spacing" textLength="136" x="68.5" y="326.5332">DataChannelInstance</text></g><!--entity DataTransformInstance--><g id="elem_DataTransformInstance"><rect fill="#ADD8E6" height="37.6094" rx="2.5" ry="2.5" style="stroke:#181818;stroke-width:0.5;" width="168" x="420.5" y="302"/><text fill="#000000" font-family="sans-serif" font-size="14" lengthAdjust="spacing" textLength="148" x="430.5" y="326.5332">DataTransformInstance</text></g><!--entity InputChannelInstance--><g id="elem_InputChannelInstance"><rect fill="#90EE90" height="37.6094" rx="2.5" ry="2.5" style="stroke:#181818;stroke-width:0.5;" width="157" x="141" y="7"/><text fill="#000000" font-family="sans-serif" font-size="14" lengthAdjust="spacing" textLength="137" x="151" y="31.5332">InputChannelInstance</text></g><!--entity OutputChannelInstance--><g id="elem_OutputChannelInstance"><rect fill="#90EE90" height="37.6094" rx="2.5" ry="2.5" style="stroke:#181818;stroke-width:0.5;" width="169" x="333" y="7"/><text fill="#000000" font-family="sans-serif" font-size="14" lengthAdjust="spacing" textLength="149" x="343" y="31.5332">OutputChannelInstance</text></g><!--entity AdminDataStream--><g id="elem_AdminDataStream"><rect fill="#90EE90" height="37.6094" rx="2.5" ry="2.5" style="stroke:#181818;stroke-width:0.5;" width="134" x="537.5" y="7"/><text fill="#000000" font-family="sans-serif" font-size="14" lengthAdjust="spacing" textLength="114" x="547.5" y="31.5332">AdminDataStream</text></g><!--class Model--><g id="elem_Model"><rect codeLine="2" fill="#F1F1F1" height="100.8281" id="Model" rx="2.5" ry="2.5" style="stroke:#181818;stroke-width:0.5;" width="160" x="143.5" y="123"/><ellipse cx="158.5" cy="139" fill="#ADD1B2" rx="11" ry="11" style="stroke:#181818;stroke-width:1.0;"/><path d="M161.2656,134.875 Q161.4219,134.6563 161.6094,134.5469 Q161.7969,134.4375 162.0156,134.4375 Q162.3906,134.4375 162.625,134.6953 Q162.8594,134.9531 162.8594,135.5625 L162.8594,137.0156 Q162.8594,137.625 162.625,137.8906 Q162.3906,138.1563 162.0156,138.1563 Q161.6719,138.1563 161.4688,137.9531 Q161.2656,137.7656 161.1563,137.25 Q161.1094,136.8906 160.9219,136.7031 Q160.5938,136.3281 159.9844,136.1094 Q159.375,135.8906 158.75,135.8906 Q157.9844,135.8906 157.3516,136.2188 Q156.7188,136.5469 156.2266,137.2969 Q155.7344,138.0469 155.7344,139.0781 L155.7344,140.1719 Q155.7344,141.4063 156.625,142.2266 Q157.5156,143.0469 159.1094,143.0469 Q160.0469,143.0469 160.7031,142.7969 Q161.0938,142.6406 161.5156,142.2031 Q161.7813,141.9375 161.9297,141.8594 Q162.0781,141.7813 162.2813,141.7813 Q162.6094,141.7813 162.8672,142.0391 Q163.125,142.2969 163.125,142.6406 Q163.125,142.9844 162.7813,143.3906 Q162.2813,143.9688 161.4844,144.2969 Q160.4063,144.75 159.1094,144.75 Q157.5938,144.75 156.3906,144.125 Q155.4063,143.625 154.7188,142.5547 Q154.0313,141.4844 154.0313,140.2031 L154.0313,139.0469 Q154.0313,137.7188 154.6484,136.5703 Q155.2656,135.4219 156.3594,134.8047 Q157.4531,134.1875 158.6875,134.1875 Q159.4219,134.1875 160.0703,134.3516 Q160.7188,134.5156 161.2656,134.875 Z " fill="#000000"/><text fill="#000000" font-family="sans-serif" font-size="14" lengthAdjust="spacing" textLength="128" x="172.5" y="144.7285">DataStreamInstance</text><line style="stroke:#181818;stroke-width:0.5;" x1="144.5" x2="302.5" y1="155" y2="155"/><text fill="#000000" font-family="sans-serif" font-size="14" lengthAdjust="spacing" textLength="74" x="149.5" y="173.5332">string name</text><text fill="#000000" font-family="sans-serif" font-size="14" lengthAdjust="spacing" textLength="93" x="149.5" y="191.1426">string direction</text><line style="stroke:#181818;stroke-width:0.5;" x1="144.5" x2="302.5" y1="198.2188" y2="198.2188"/><text fill="#000000" font-family="sans-serif" font-size="14" lengthAdjust="spacing" textLength="52" x="149.5" y="216.752">deploy()</text></g><!--link Model to DataStream--><g id="link_Model_DataStream"><path codeLine="13" d="M156.6865,114.9801 C125.5265,88.1501 102.5874,68.3942 80.1074,49.0442 " fill="none" id="Model-DataStream" style="stroke:#181818;stroke-width:1.0;"/><polygon fill="none" points="165.78,122.81,163.8432,115.8639,156.6865,114.9801,158.6233,121.9262,165.78,122.81" style="stroke:#181818;stroke-width:1.0;"/><polygon fill="#181818" points="75.56,45.13,79.7716,54.0329,79.3495,48.3919,84.9906,47.9698,75.56,45.13" style="stroke:#181818;stroke-width:1.0;"/><text fill="#000000" font-family="sans-serif" font-size="13" lengthAdjust="spacing" textLength="36" x="130.5" y="89.4951">parent</text><text fill="#000000" font-family="sans-serif" font-size="13" lengthAdjust="spacing" textLength="7" x="73.2793" y="66.016">1</text></g><!--link DataStream to Model--><g id="link_DataStream_Model"><path codeLine="50" d="M43.4803,56.7042 C39.0203,70.8442 39.4,78.88 48.5,93 C69.64,125.82 102.2992,143.4098 137.7392,154.8298 " fill="none" id="DataStream-Model" style="stroke:#181818;stroke-width:1.0;"/><polygon fill="#181818" points="47.09,45.26,41.4704,49.7789,43.4803,56.7042,49.0999,52.1853,47.09,45.26" style="stroke:#181818;stroke-width:1.0;"/><polygon fill="#181818" points="143.45,156.67,136.1106,150.1024,138.691,155.1365,133.6569,157.7169,143.45,156.67" style="stroke:#181818;stroke-width:1.0;"/><text fill="#000000" font-family="sans-serif" font-size="13" lengthAdjust="spacing" textLength="56" x="49.5" y="89.4951">instances</text><text fill="#000000" font-family="sans-serif" font-size="13" lengthAdjust="spacing" textLength="7" x="128.4866" y="151.8235">n</text></g><!--link Model to SABundleInstance--><g id="link_Model_SABundleInstance"><path codeLine="19" d="M262.1036,234.2484 C279.4436,261.0784 290.0224,277.4813 302.5324,296.8313 " fill="none" id="Model-SABundleInstance" style="stroke:#181818;stroke-width:1.0;"/><polygon fill="none" points="255.59,224.17,255.4873,231.3804,262.1036,234.2484,262.2062,227.038,255.59,224.17" style="stroke:#181818;stroke-width:1.0;"/><polygon fill="#181818" points="305.79,301.87,304.2628,292.1403,303.0754,297.6711,297.5445,296.4837,305.79,301.87" style="stroke:#181818;stroke-width:1.0;"/><text fill="#000000" font-family="sans-serif" font-size="13" lengthAdjust="spacing" textLength="38" x="285.5" y="268.4951">bundle</text><text fill="#000000" font-family="sans-serif" font-size="13" lengthAdjust="spacing" textLength="7" x="294.1319" y="291.1702">1</text></g><!--link Model to DataChannelInstance--><g id="link_Model_DataChannelInstance"><path codeLine="25" d="M203.8551,235.2427 C197.7551,251.2427 194.13,257.39 184.5,272 C177.23,283.02 171.5399,289.5006 162.4799,297.9006 " fill="none" id="Model-DataChannelInstance" style="stroke:#181818;stroke-width:1.0;"/><polygon fill="#181818" points="208.13,224.03,202.255,228.2114,203.8551,235.2427,209.7302,231.0613,208.13,224.03" style="stroke:#181818;stroke-width:1.0;"/><polygon fill="#181818" points="158.08,301.98,167.3994,298.7942,161.7466,298.5805,161.9602,292.9277,158.08,301.98" style="stroke:#181818;stroke-width:1.0;"/><text fill="#000000" font-family="sans-serif" font-size="13" lengthAdjust="spacing" textLength="52" x="196.5" y="268.4951">channels</text><text fill="#000000" font-family="sans-serif" font-size="13" lengthAdjust="spacing" textLength="7" x="156.843" y="290.9808">n</text></g><!--link Model to DataChannelInstance--><g id="link_Model_DataChannelInstance"><path codeLine="31" d="M132.0869,195.2576 C97.9469,206.8476 72.75,222.26 52.5,254 C39.78,273.94 55.1553,287.8052 79.2253,299.2952 " fill="none" id="Model-DataChannelInstance-1" style="stroke:#181818;stroke-width:1.0;"/><polygon fill="none" points="143.45,191.4,136.4826,189.5411,132.0869,195.2576,139.0543,197.1165,143.45,191.4" style="stroke:#181818;stroke-width:1.0;"/><polygon fill="#181818" points="84.64,301.88,78.2411,294.3931,80.1277,299.726,74.7948,301.6127,84.64,301.88" style="stroke:#181818;stroke-width:1.0;"/><text fill="#000000" font-family="sans-serif" font-size="13" lengthAdjust="spacing" textLength="44" x="53.5" y="268.4951">policies</text><text fill="#000000" font-family="sans-serif" font-size="13" lengthAdjust="spacing" textLength="7" x="60.686" y="291.1833">n</text></g><!--link DataChannelInstance to Model--><g id="link_DataChannelInstance_Model"><path codeLine="45" d="M129.5954,290.0161 C127.0154,276.2761 127.76,269.07 134.5,254 C139.32,243.22 142.3712,237.7372 150.4812,228.8272 " fill="none" id="DataChannelInstance-Model" style="stroke:#181818;stroke-width:1.0;"/><polygon fill="none" points="131.81,301.81,134.634,295.1749,129.5954,290.0161,126.7714,296.6512,131.81,301.81" style="stroke:#181818;stroke-width:1.0;"/><polygon fill="#181818" points="154.52,224.39,145.5037,228.3532,151.1544,228.0876,151.42,233.7382,154.52,224.39" style="stroke:#181818;stroke-width:1.0;"/><text fill="#000000" font-family="sans-serif" font-size="13" lengthAdjust="spacing" textLength="40" x="135.5" y="268.4951">stream</text><text fill="#000000" font-family="sans-serif" font-size="13" lengthAdjust="spacing" textLength="7" x="138.2335" y="245.4639">1</text></g><!--link Model to DataTransformInstance--><g id="link_Model_DataTransformInstance"><path codeLine="37" d="M314.3063,221.5176 C369.1363,249.9076 423.1222,277.8605 464.3422,299.2105 " fill="none" id="Model-DataTransformInstance" style="stroke:#181818;stroke-width:1.0;"/><polygon fill="none" points="303.65,216,307.1389,222.3109,314.3063,221.5176,310.8173,215.2067,303.65,216" style="stroke:#181818;stroke-width:1.0;"/><polygon fill="#181818" points="469.67,301.97,463.518,294.2789,465.2302,299.6704,459.8387,301.3826,469.67,301.97" style="stroke:#181818;stroke-width:1.0;"/><text fill="#000000" font-family="sans-serif" font-size="13" lengthAdjust="spacing" textLength="61" x="407.5" y="268.4951">transforms</text><text fill="#000000" font-family="sans-serif" font-size="13" lengthAdjust="spacing" textLength="7" x="450.9314" y="291.3008">n</text></g><!--link InputChannelInstance to Model--><g id="link_InputChannelInstance_Model"><path codeLine="55" d="M220.3286,57.1255 C220.8586,76.4755 221.2368,89.9822 221.9668,116.8122 " fill="none" id="InputChannelInstance-Model" style="stroke:#181818;stroke-width:1.0;"/><polygon fill="none" points="220,45.13,216.1658,51.2373,220.3286,57.1255,224.1628,51.0182,220,45.13" style="stroke:#181818;stroke-width:1.0;"/><polygon fill="#181818" points="222.13,122.81,225.8837,113.7045,221.994,117.8118,217.8867,113.9221,222.13,122.81" style="stroke:#181818;stroke-width:1.0;"/><text fill="#000000" font-family="sans-serif" font-size="13" lengthAdjust="spacing" textLength="40" x="222.5" y="89.4951">stream</text><text fill="#000000" font-family="sans-serif" font-size="13" lengthAdjust="spacing" textLength="7" x="214.4452" y="112.0886">1</text></g><!--link OutputChannelInstance to Model--><g id="link_OutputChannelInstance_Model"><path codeLine="60" d="M383.72,52.33 C357.92,71.68 330.3303,92.3804 294.5503,119.2104 " fill="none" id="OutputChannelInstance-Model" style="stroke:#181818;stroke-width:1.0;"/><polygon fill="none" points="393.32,45.13,386.12,45.53,383.72,52.33,390.92,51.93,393.32,45.13" style="stroke:#181818;stroke-width:1.0;"/><polygon fill="#181818" points="289.75,122.81,299.3502,120.6109,293.7503,119.8104,294.5508,114.2104,289.75,122.81" style="stroke:#181818;stroke-width:1.0;"/><text fill="#000000" font-family="sans-serif" font-size="13" lengthAdjust="spacing" textLength="40" x="350.5" y="89.4951">stream</text><text fill="#000000" font-family="sans-serif" font-size="13" lengthAdjust="spacing" textLength="7" x="291.5742" y="112.0886">1</text></g><!--link AdminDataStream to Model--><g id="link_AdminDataStream_Model"><path codeLine="65" d="M545.8098,49.4116 C482.3698,73.6416 385.8952,110.4794 309.1452,139.7894 " fill="none" id="AdminDataStream-Model" style="stroke:#181818;stroke-width:1.0;"/><polygon fill="#181818" points="557.02,45.13,549.9877,43.5341,545.8098,49.4116,552.8421,51.0075,557.02,45.13" style="stroke:#181818;stroke-width:1.0;"/><polygon fill="#181818" points="303.54,141.93,313.3748,142.4559,308.211,140.1462,310.5207,134.9824,303.54,141.93" style="stroke:#181818;stroke-width:1.0;"/><text fill="#000000" font-family="sans-serif" font-size="13" lengthAdjust="spacing" textLength="56" x="471.5" y="89.4951">instances</text><text fill="#000000" font-family="sans-serif" font-size="13" lengthAdjust="spacing" textLength="7" x="311.5024" y="135.6785">n</text></g><!--SRC=[hPAnJiCm48PtFyN9B83KWJK3Ke6b0s8eBt1rZjIISuviPq2exuwJbAP9ND88F5ZoR__t_RPF6VGUv0i6t0P7M6xO1sH54j33gyt9m9S07vpc0XXBEYroxKW5RLa8oAaozlFsJe0u2D7eo8MXyy9jmNu9DqON-x0pDKL0D7KikrezWdoGvoSpgD0H1p6el5q_rPmR6WGUYtEKoVaCTgqW9hTutYCpcG4keLyWthT4babB1gfJ_7zZxU_OoXgjD2MmxmxPVrXNJi2JdMlGKrC6uKThyB67ulZJtGj7n4spnd5evtPgHie4VHTqWJEGlklKthoWasVmnxFGTyA9ge-HV1gyuQeEgQT8RSo7IRgMFiPR7Iw4IkxCfqhRbiPQvwNcqKUDjFaeOyCrN_OD]--></g></svg>