<?xml version="1.0" encoding="us-ascii" standalone="no"?><svg xmlns="http://www.w3.org/2000/svg" xmlns:xlink="http://www.w3.org/1999/xlink" contentStyleType="text/css" height="538px" preserveAspectRatio="none" style="width:312px;height:538px;background:#FFFFFF;" version="1.1" viewBox="0 0 312 538" width="312px" zoomAndPan="magnify"><defs/><g><path d="M19.5,7 L286.5,7 A12.5,12.5 0 0 1 299,19.5 L299,34.6094 L7,34.6094 L7,19.5 A12.5,12.5 0 0 1 19.5,7 " fill="#FFCC88" style="stroke:#FFCC88;stroke-width:1.0;"/><rect fill="none" height="525.6094" rx="12.5" ry="12.5" style="stroke:#181818;stroke-width:0.5;" width="292" x="7" y="7"/><line style="stroke:#181818;stroke-width:0.5;" x1="7" x2="299" y1="34.6094" y2="34.6094"/><text fill="#000000" font-family="sans-serif" font-size="14" lengthAdjust="spacing" textLength="128" x="89" y="26.5332">DataStreamInstance</text><g id="DataStreamInstance.Init"><rect fill="#FFCC88" height="50" rx="12.5" ry="12.5" style="stroke:#181818;stroke-width:0.5;" width="50" x="183" y="46.6094"/><line style="stroke:#181818;stroke-width:0.5;" x1="183" x2="233" y1="74.2188" y2="74.2188"/><text fill="#000000" font-family="sans-serif" font-size="14" lengthAdjust="spacing" textLength="18" x="199" y="66.1426">Init</text></g><g id="DataStreamInstance.Created"><rect fill="#FFCC88" height="50" rx="12.5" ry="12.5" style="stroke:#181818;stroke-width:0.5;" width="71" x="172.5" y="188.6094"/><line style="stroke:#181818;stroke-width:0.5;" x1="172.5" x2="243.5" y1="216.2188" y2="216.2188"/><text fill="#000000" font-family="sans-serif" font-size="14" lengthAdjust="spacing" textLength="51" x="182.5" y="208.1426">Created</text></g><g id="DataStreamInstance.Disabled"><rect fill="#FFCC88" height="50" rx="12.5" ry="12.5" style="stroke:#181818;stroke-width:0.5;" width="75" x="94.5" y="330.6094"/><line style="stroke:#181818;stroke-width:0.5;" x1="94.5" x2="169.5" y1="358.2188" y2="358.2188"/><text fill="#000000" font-family="sans-serif" font-size="14" lengthAdjust="spacing" textLength="55" x="104.5" y="350.1426">Disabled</text></g><g id="DataStreamInstance.Enabled"><rect fill="#FFCC88" height="50" rx="12.5" ry="12.5" style="stroke:#181818;stroke-width:0.5;" width="72" x="19" y="472.6094"/><line style="stroke:#181818;stroke-width:0.5;" x1="19" x2="91" y1="500.2188" y2="500.2188"/><text fill="#000000" font-family="sans-serif" font-size="14" lengthAdjust="spacing" textLength="52" x="29" y="492.1426">Enabled</text></g><g id="DataStreamInstance.Destroyed"><rect fill="#FFCC88" height="50" rx="12.5" ry="12.5" style="stroke:#181818;stroke-width:0.5;" width="85" x="166.5" y="472.6094"/><line style="stroke:#181818;stroke-width:0.5;" x1="166.5" x2="251.5" y1="500.2188" y2="500.2188"/><text fill="#000000" font-family="sans-serif" font-size="14" lengthAdjust="spacing" textLength="65" x="176.5" y="492.1426">Destroyed</text></g><!--link Init to Created--><g id="link_Init_Created"><path d="M208,96.6794 C208,122.3194 208,156.6894 208,182.3894 " fill="none" id="Init-to-Created" style="stroke:#000000;stroke-width:1.0;"/><polygon fill="#000000" points="208,188.3894,212,179.3894,208,183.3894,204,179.3894,208,188.3894" style="stroke:#000000;stroke-width:1.0;"/><text fill="#000000" font-family="sans-serif" font-size="13" lengthAdjust="spacing" textLength="38" x="209" y="148.1045">deploy</text></g><!--link Created to Disabled--><g id="link_Created_Disabled"><path d="M194.94,238.6794 C181.01,264.3194 161.9623,299.4161 148.0123,325.1161 " fill="none" id="Created-to-Disabled" style="stroke:#000000;stroke-width:1.0;"/><polygon fill="#000000" points="145.15,330.3894,152.959,324.3877,147.5353,325.995,145.928,320.5713,145.15,330.3894" style="stroke:#000000;stroke-width:1.0;"/><text fill="#000000" font-family="sans-serif" font-size="13" lengthAdjust="spacing" textLength="41" x="175" y="290.1045">disable</text></g><!--link Created to Destroyed--><g id="link_Created_Destroyed"><path d="M228.45,238.8494 C237.01,251.3894 245,267.4294 245,283.6094 C245,283.6094 245,283.6094 245,427.6094 C245,443.8194 240.4164,455.0059 232.0164,467.6159 " fill="none" id="Created-to-Destroyed" style="stroke:#000000;stroke-width:1.0;"/><polygon fill="#000000" points="228.69,472.6094,237.0086,467.3367,231.462,468.4481,230.3505,462.9015,228.69,472.6094" style="stroke:#000000;stroke-width:1.0;"/><text fill="#000000" font-family="sans-serif" font-size="13" lengthAdjust="spacing" textLength="43" x="246" y="361.1045">destroy</text></g><!--link Disabled to Enabled--><g id="link_Disabled_Enabled"><path d="M94.49,368.5694 C71.73,377.9994 44.54,393.6094 31,417.6094 C21.35,434.7094 25.9618,450.908 35.0718,467.128 " fill="none" id="Disabled-to-Enabled" style="stroke:#000000;stroke-width:1.0;"/><polygon fill="#000000" points="38.01,472.3594,37.0903,462.5536,35.5615,467.9999,30.1151,466.4712,38.01,472.3594" style="stroke:#000000;stroke-width:1.0;"/><text fill="#000000" font-family="sans-serif" font-size="13" lengthAdjust="spacing" textLength="38" x="32" y="432.1045">enable</text></g><!--link Disabled to Destroyed--><g id="link_Disabled_Destroyed"><path d="M145.24,380.6794 C159.34,406.3194 178.6477,441.4325 192.7877,467.1325 " fill="none" id="Disabled-to-Destroyed" style="stroke:#000000;stroke-width:1.0;"/><polygon fill="#000000" points="195.68,472.3894,194.8461,462.5759,193.2698,468.0087,187.837,466.4323,195.68,472.3894" style="stroke:#000000;stroke-width:1.0;"/><text fill="#000000" font-family="sans-serif" font-size="13" lengthAdjust="spacing" textLength="43" x="176" y="432.1045">destroy</text></g><!--link Enabled to Disabled--><g id="link_Enabled_Disabled"><path d="M68.32,472.3894 C82.46,446.6894 101.7688,411.5768 115.8688,385.9368 " fill="none" id="Enabled-to-Disabled" style="stroke:#000000;stroke-width:1.0;"/><polygon fill="#000000" points="118.76,380.6794,110.9182,386.6381,116.3507,385.0606,117.9282,390.493,118.76,380.6794" style="stroke:#000000;stroke-width:1.0;"/><text fill="#000000" font-family="sans-serif" font-size="13" lengthAdjust="spacing" textLength="41" x="99" y="432.1045">disbale</text></g><!--SRC=[XO-n3iCW34HtlW8fCtkKeKlfaBbZrS4GHufAIHMyH5N_lK04IYHAFLc-v_FP4H1o2GHNMX2UlNK4LYDlnb7hjkLlnhWl5xdUJhHJWl3PwsTlGJZK43avKARENEnVHAAZPLvBaA-OKzmQPK0_xaASShAE3_WoyyfOcXomdCvpM_iBpFU3O-mPozi7D7tJSRIROvahMgRbIae5mTC__WK0]--></g></svg>