<?xml version="1.0" encoding="UTF-8" standalone="no"?><svg xmlns="http://www.w3.org/2000/svg" xmlns:xlink="http://www.w3.org/1999/xlink" contentScriptType="application/ecmascript" contentStyleType="text/css" height="411px" preserveAspectRatio="none" style="width:628px;height:411px;" version="1.1" viewBox="0 0 628 411" width="628px" zoomAndPan="magnify"><defs><filter height="300%" id="f1bjhcm22c6j11" width="300%" x="-1" y="-1"><feGaussianBlur result="blurOut" stdDeviation="2.0"/><feColorMatrix in="blurOut" result="blurOut2" type="matrix" values="0 0 0 0 0 0 0 0 0 0 0 0 0 0 0 0 0 0 .4 0"/><feOffset dx="4.0" dy="4.0" in="blurOut2" result="blurOut3"/><feBlend in="SourceGraphic" in2="blurOut3" mode="normal"/></filter></defs><g><!--cluster sabr_sml_so--><polygon fill="#AAFFAA" filter="url(#f1bjhcm22c6j11)" points="22,24,116,24,123,47.6094,606,47.6094,606,250,22,250,22,24" style="stroke: #000000; stroke-width: 1.5;"/><line style="stroke: #000000; stroke-width: 1.5;" x1="22" x2="123" y1="47.6094" y2="47.6094"/><text fill="#000000" font-family="sans-serif" font-size="14" font-weight="bold" lengthAdjust="spacingAndGlyphs" textLength="88" x="26" y="40.5332">sabr_sml_so</text><!--entity parentnet--><path d="M86.5,143 L142.5,143 C147.5,143 147.5,156.8047 147.5,156.8047 C147.5,156.8047 147.5,170.6094 142.5,170.6094 L86.5,170.6094 C81.5,170.6094 81.5,156.8047 81.5,156.8047 C81.5,156.8047 81.5,143 86.5,143 " fill="#000000" filter="url(#f1bjhcm22c6j11)" style="stroke: #A80036; stroke-width: 1.5;"/><path d="M142.5,143 C137.5,143 137.5,156.8047 137.5,156.8047 C137.5,170.6094 142.5,170.6094 142.5,170.6094 " fill="none" style="stroke: #A80036; stroke-width: 1.5;"/><text fill="#FFFFFF" font-family="sans-serif" font-size="14" font-weight="bold" lengthAdjust="spacingAndGlyphs" textLength="46" x="86.5" y="162.5332">parent</text><!--entity childrennet--><path d="M80.5,206 L148.5,206 C153.5,206 153.5,219.8047 153.5,219.8047 C153.5,219.8047 153.5,233.6094 148.5,233.6094 L80.5,233.6094 C75.5,233.6094 75.5,219.8047 75.5,219.8047 C75.5,219.8047 75.5,206 80.5,206 " fill="#0000FF" filter="url(#f1bjhcm22c6j11)" style="stroke: #A80036; stroke-width: 1.5;"/><path d="M148.5,206 C143.5,206 143.5,219.8047 143.5,219.8047 C143.5,233.6094 148.5,233.6094 148.5,233.6094 " fill="none" style="stroke: #A80036; stroke-width: 1.5;"/><text fill="#FFFFFF" font-family="sans-serif" font-size="14" font-weight="bold" lengthAdjust="spacingAndGlyphs" textLength="58" x="80.5" y="225.5332">children</text><!--entity siblingsnet--><path d="M256,119 L321,119 C326,119 326,132.8047 326,132.8047 C326,132.8047 326,146.6094 321,146.6094 L256,146.6094 C251,146.6094 251,132.8047 251,132.8047 C251,132.8047 251,119 256,119 " fill="#FF0000" filter="url(#f1bjhcm22c6j11)" style="stroke: #A80036; stroke-width: 1.5;"/><path d="M321,119 C316,119 316,132.8047 316,132.8047 C316,146.6094 321,146.6094 321,146.6094 " fill="none" style="stroke: #A80036; stroke-width: 1.5;"/><text fill="#FFFFFF" font-family="sans-serif" font-size="14" font-weight="bold" lengthAdjust="spacingAndGlyphs" textLength="55" x="256" y="138.5332">siblings</text><!--entity sabr_sml_so_webService--><polygon fill="#FEFECE" filter="url(#f1bjhcm22c6j11)" points="38,70,48,60,191,60,191,97.6094,181,107.6094,38,107.6094,38,70" style="stroke: #000000; stroke-width: 1.5;"/><line style="stroke: #000000; stroke-width: 1.5;" x1="181" x2="190" y1="70" y2="61"/><line style="stroke: #000000; stroke-width: 1.5;" x1="38" x2="181" y1="70" y2="70"/><line style="stroke: #000000; stroke-width: 1.5;" x1="181" x2="181" y1="70" y2="107.6094"/><text fill="#000000" font-family="sans-serif" font-size="14" lengthAdjust="spacingAndGlyphs" textLength="113" x="53" y="94.5332">sabr_sml_so_web</text><!--entity sabr_sml_so_webimage--><rect fill="#FEFECE" filter="url(#f1bjhcm22c6j11)" height="40.6094" style="stroke: #000000; stroke-width: 1.5;" width="143" x="447" y="62.5"/><polygon fill="#FEFECE" points="573,67.5,573,81.5,585,81.5,585,73.5,579,67.5,573,67.5" style="stroke: #000000; stroke-width: 1.5;"/><line style="stroke: #000000; stroke-width: 1.5;" x1="579" x2="579" y1="67.5" y2="73.5"/><line style="stroke: #000000; stroke-width: 1.5;" x1="585" x2="579" y1="73.5" y2="73.5"/><text fill="#000000" font-family="sans-serif" font-size="14" lengthAdjust="spacingAndGlyphs" textLength="113" x="457" y="90.0332">sabr_sml_so_web</text><!--entity parent--><path d="M268,270 L268,294 M268,282 L285,282 " fill="none" filter="url(#f1bjhcm22c6j11)" style="stroke: #A80036; stroke-width: 2.0;"/><ellipse cx="297" cy="282" fill="#000000" filter="url(#f1bjhcm22c6j11)" rx="12" ry="12" style="stroke: #A80036; stroke-width: 2.0;"/><text fill="#000000" font-family="sans-serif" font-size="14" lengthAdjust="spacingAndGlyphs" textLength="41" x="268" y="312.5332">parent</text><!--entity children--><ellipse cx="288.5" cy="367" fill="#0000FF" filter="url(#f1bjhcm22c6j11)" rx="12" ry="12" style="stroke: #A80036; stroke-width: 2.0;"/><line style="stroke: #A80036; stroke-width: 2.0;" x1="276.5" x2="300.5" y1="381" y2="381"/><text fill="#000000" font-family="sans-serif" font-size="14" lengthAdjust="spacingAndGlyphs" textLength="50" x="263.5" y="397.5332">children</text><!--link parentnet to parent--><path d="M147.86,167.351 C161.815,172.643 177.904,179.905 191,189 C199.485,194.892 239.038,237.698 264.799,265.952 " fill="none" id="parentnet-parent" style="stroke: #000000; stroke-width: 1.0;"/><!--link childrennet to children--><path d="M131.067,234.119 C161.168,261.42 227.535,321.6134 263.389,354.1318 " fill="none" id="childrennet-children" style="stroke: #0000FF; stroke-width: 1.0;"/><!--link sabr_sml_so_webService to siblingsnet--><path d="M191.192,105.563 C211.921,111.469 233.461,117.605 250.901,122.573 " fill="none" id="sabr_sml_so_webService-siblingsnet" style="stroke: #FF0000; stroke-width: 1.0;"/><!--link sabr_sml_so_webService to sabr_sml_so_webimage--><path d="M191.113,83.812 C264.576,83.629 375.246,83.354 446.941,83.176 " fill="none" id="sabr_sml_so_webService-sabr_sml_so_webimage" style="stroke: #A80036; stroke-width: 1.0; stroke-dasharray: 7.0,7.0;"/><!--
@startuml

left to right direction


boundary parent #black


entity children #blue




package "sabr_sml_so" #aaffaa {
    queue parentnet #black [
            <b><color:white>parent</color></b>
    ]
    
    parentnet -[#black]- parent
    
    queue childrennet #blue [
            <b><color:white>children</color></b>
    ]
    
    childrennet -[#blue]- children
    
    queue siblingsnet #red [
            <b><color:white>siblings</color></b>
    ]
    

node "sabr_sml_so_web" as sabr_sml_so_webService


        artifact "sabr_sml_so_web" as sabr_sml_so_webimage
    
}

sabr_sml_so_webService -[#red]- siblingsnet
sabr_sml_so_webService .... sabr_sml_so_webimage


@enduml

PlantUML version 1.2019.05(Sat Apr 20 09:45:36 PDT 2019)
(GPL source distribution)
Java Runtime: Java(TM) SE Runtime Environment
JVM: Java HotSpot(TM) Client VM
Java Version: 1.8.0_271-b09
Operating System: Windows 10
OS Version: 10.0
Default Encoding: Cp1252
Language: en
Country: US
--></g></svg>