<?xml version="1.0" encoding="us-ascii" standalone="no"?><svg xmlns="http://www.w3.org/2000/svg" xmlns:xlink="http://www.w3.org/1999/xlink" contentStyleType="text/css" height="676px" preserveAspectRatio="none" style="width:411px;height:676px;background:#FFFFFF;" version="1.1" viewBox="0 0 411 676" width="411px" zoomAndPan="magnify"><defs/><g><!--cluster Service Orchestrator--><g id="cluster_Service Orchestrator"><path d="M48,60 L197,60 A3.75,3.75 0 0 1 199.5,62.5 L206.5,83.6094 L402,83.6094 A2.5,2.5 0 0 1 404.5,86.1094 L404.5,666.5 A2.5,2.5 0 0 1 402,669 L48,669 A2.5,2.5 0 0 1 45.5,666.5 L45.5,62.5 A2.5,2.5 0 0 1 48,60 " fill="#AAFFAA" style="stroke:#000000;stroke-width:1.5;"/><line style="stroke:#000000;stroke-width:1.5;" x1="45.5" x2="206.5" y1="83.6094" y2="83.6094"/><text fill="#000000" font-family="sans-serif" font-size="14" font-weight="bold" lengthAdjust="spacing" textLength="148" x="49.5" y="76.5332">Service Orchestrator</text></g><!--cluster bin--><g id="cluster_bin"><path d="M72,104 L95,104 A3.75,3.75 0 0 1 97.5,106.5 L104.5,127.6094 L215,127.6094 A2.5,2.5 0 0 1 217.5,130.1094 L217.5,201.5 A2.5,2.5 0 0 1 215,204 L72,204 A2.5,2.5 0 0 1 69.5,201.5 L69.5,106.5 A2.5,2.5 0 0 1 72,104 " fill="#FFFFFF" style="stroke:#000000;stroke-width:1.5;"/><line style="stroke:#000000;stroke-width:1.5;" x1="69.5" x2="104.5" y1="127.6094" y2="127.6094"/><text fill="#000000" font-family="sans-serif" font-size="14" font-weight="bold" lengthAdjust="spacing" textLength="22" x="73.5" y="120.5332">bin</text></g><!--cluster deploy--><g id="cluster_deploy"><path d="M75,320 L123,320 A3.75,3.75 0 0 1 125.5,322.5 L132.5,343.6094 L293,343.6094 A2.5,2.5 0 0 1 295.5,346.1094 L295.5,424.5 A2.5,2.5 0 0 1 293,427 L75,427 A2.5,2.5 0 0 1 72.5,424.5 L72.5,322.5 A2.5,2.5 0 0 1 75,320 " fill="#FFFFFF" style="stroke:#000000;stroke-width:1.5;"/><line style="stroke:#000000;stroke-width:1.5;" x1="72.5" x2="132.5" y1="343.6094" y2="343.6094"/><text fill="#000000" font-family="sans-serif" font-size="14" font-weight="bold" lengthAdjust="spacing" textLength="47" x="76.5" y="336.5332">deploy</text></g><!--cluster images--><g id="cluster_images"><path d="M72,451 L123,451 A3.75,3.75 0 0 1 125.5,453.5 L132.5,474.6094 L378,474.6094 A2.5,2.5 0 0 1 380.5,477.1094 L380.5,642.5 A2.5,2.5 0 0 1 378,645 L72,645 A2.5,2.5 0 0 1 69.5,642.5 L69.5,453.5 A2.5,2.5 0 0 1 72,451 " fill="#FFFFFF" style="stroke:#000000;stroke-width:1.5;"/><line style="stroke:#000000;stroke-width:1.5;" x1="69.5" x2="132.5" y1="474.6094" y2="474.6094"/><text fill="#000000" font-family="sans-serif" font-size="14" font-weight="bold" lengthAdjust="spacing" textLength="50" x="73.5" y="467.5332">images</text></g><!--entity REST--><g id="elem_REST"><rect fill="#F1F1F1" height="47.6094" rx="2.5" ry="2.5" style="stroke:#181818;stroke-width:0.5;" width="89" x="99" y="248"/><rect fill="#F1F1F1" height="10" style="stroke:#181818;stroke-width:0.5;" width="15" x="168" y="253"/><rect fill="#F1F1F1" height="2" style="stroke:#181818;stroke-width:0.5;" width="4" x="166" y="255"/><rect fill="#F1F1F1" height="2" style="stroke:#181818;stroke-width:0.5;" width="4" x="166" y="259"/><text fill="#000000" font-family="sans-serif" font-size="14" lengthAdjust="spacing" textLength="49" x="114" y="282.5332">express</text></g><!--entity socket--><g id="elem_socket"><rect fill="#F1F1F1" height="47.6094" rx="2.5" ry="2.5" style="stroke:#181818;stroke-width:0.5;" width="96" x="236.5" y="140"/><rect fill="#F1F1F1" height="10" style="stroke:#181818;stroke-width:0.5;" width="15" x="312.5" y="145"/><rect fill="#F1F1F1" height="2" style="stroke:#181818;stroke-width:0.5;" width="4" x="310.5" y="147"/><rect fill="#F1F1F1" height="2" style="stroke:#181818;stroke-width:0.5;" width="4" x="310.5" y="151"/><text fill="#000000" font-family="sans-serif" font-size="14" lengthAdjust="spacing" textLength="56" x="251.5" y="174.5332">socket.io</text></g><!--entity binName--><g id="elem_binName"><rect fill="#F1F1F1" height="47.6094" rx="2.5" ry="2.5" style="stroke:#181818;stroke-width:0.5;" width="116" x="85.5" y="140"/><rect fill="#F1F1F1" height="10" style="stroke:#181818;stroke-width:0.5;" width="15" x="181.5" y="145"/><rect fill="#F1F1F1" height="2" style="stroke:#181818;stroke-width:0.5;" width="4" x="179.5" y="147"/><rect fill="#F1F1F1" height="2" style="stroke:#181818;stroke-width:0.5;" width="4" x="179.5" y="151"/><text fill="#000000" font-family="sans-serif" font-size="14" lengthAdjust="spacing" textLength="72" x="104.5" y="174.5332">sabr sml so</text></g><!--entity sabr_sml_so_container--><g id="elem_sabr_sml_so_container"><path d="M88.5,358.5 L88.5,408.7188 A2.5,2.5 0 0 0 91,411.2188 L196,411.2188 A2.5,2.5 0 0 0 198.5,408.7188 L198.5,366 L188.5,356 L91,356 A2.5,2.5 0 0 0 88.5,358.5 " fill="#F1F1F1" style="stroke:#181818;stroke-width:0.5;"/><path d="M188.5,356 L188.5,363.5 A2.5,2.5 0 0 0 191,366 L198.5,366 " fill="#F1F1F1" style="stroke:#181818;stroke-width:0.5;"/><text fill="#000000" font-family="sans-serif" font-size="14" lengthAdjust="spacing" textLength="90" x="98.5" y="380.5332">node server.js</text><text fill="#000000" font-family="sans-serif" font-size="14" lengthAdjust="spacing" textLength="4" x="98.5" y="398.1426">&#160;</text></g><!--entity web_container--><g id="elem_web_container"><path d="M234,367 L234,399.6094 A2.5,2.5 0 0 0 236.5,402.1094 L276.5,402.1094 A2.5,2.5 0 0 0 279,399.6094 L279,374.5 L269,364.5 L236.5,364.5 A2.5,2.5 0 0 0 234,367 " fill="#F1F1F1" style="stroke:#181818;stroke-width:0.5;"/><path d="M269,364.5 L269,372 A2.5,2.5 0 0 0 271.5,374.5 L279,374.5 " fill="#F1F1F1" style="stroke:#181818;stroke-width:0.5;"/><text fill="#000000" font-family="sans-serif" font-size="14" lengthAdjust="spacing" textLength="25" x="244" y="389.0332">web</text></g><!--entity sabr_sml_soimage--><g id="elem_sabr_sml_soimage"><rect fill="#F1F1F1" height="33.6094" rx="2.5" ry="2.5" style="stroke:#181818;stroke-width:0.5;" width="96" x="89.5" y="492.5"/><rect fill="#F1F1F1" height="33.6094" rx="2.5" ry="2.5" style="stroke:#181818;stroke-width:0.5;" width="96" x="85.5" y="488.5"/><text fill="#000000" font-family="sans-serif" font-size="14" lengthAdjust="spacing" textLength="80" x="93.5" y="511.0332">sabr_sml_so</text></g><!--entity ailtireswarm--><g id="elem_ailtireswarm"><rect fill="#F1F1F1" height="40.6094" rx="2.5" ry="2.5" style="stroke:#181818;stroke-width:0.5;" width="108" x="85.5" y="588"/><polygon fill="#F1F1F1" points="176.5,593,176.5,607,188.5,607,188.5,599,182.5,593,176.5,593" style="stroke:#181818;stroke-width:0.5;"/><line style="stroke:#181818;stroke-width:0.5;" x1="182.5" x2="182.5" y1="593" y2="599"/><line style="stroke:#181818;stroke-width:0.5;" x1="188.5" x2="182.5" y1="599" y2="599"/><text fill="#000000" font-family="sans-serif" font-size="14" lengthAdjust="spacing" textLength="78" x="95.5" y="615.5332">ailtire:swarm</text></g><!--entity sabr_sml_so_web--><g id="elem_sabr_sml_so_web"><rect fill="#F1F1F1" height="40.6094" rx="2.5" ry="2.5" style="stroke:#181818;stroke-width:0.5;" width="143" x="221" y="487"/><polygon fill="#F1F1F1" points="347,492,347,506,359,506,359,498,353,492,347,492" style="stroke:#181818;stroke-width:0.5;"/><line style="stroke:#181818;stroke-width:0.5;" x1="353" x2="353" y1="492" y2="498"/><line style="stroke:#181818;stroke-width:0.5;" x1="359" x2="353" y1="498" y2="498"/><text fill="#000000" font-family="sans-serif" font-size="14" lengthAdjust="spacing" textLength="113" x="231" y="514.5332">sabr_sml_so_web</text></g><!--entity CLI--><g id="elem_CLI"><ellipse cx="143.5" cy="14" fill="#F1F1F1" rx="8" ry="8" style="stroke:#181818;stroke-width:0.5;"/><text fill="#000000" font-family="sans-serif" font-size="14" lengthAdjust="spacing" textLength="21" x="133" y="45.5332">CLI</text></g><!--entity Web--><g id="elem_Web"><ellipse cx="20.5" cy="272" fill="#F1F1F1" rx="8" ry="8" style="stroke:#181818;stroke-width:0.5;"/><text fill="#000000" font-family="sans-serif" font-size="14" lengthAdjust="spacing" textLength="29" x="6" y="303.5332">Web</text></g><!--entity WebSocket--><g id="elem_WebSocket"><ellipse cx="284.5" cy="14" fill="#F1F1F1" rx="8" ry="8" style="stroke:#181818;stroke-width:0.5;"/><text fill="#000000" font-family="sans-serif" font-size="14" lengthAdjust="spacing" textLength="72" x="248.5" y="45.5332">WebSocket</text></g><!--link binName to REST--><g id="link_binName_REST"><path d="M143.5,188 C143.5,205.66 143.5,223.94 143.5,241.68 " fill="none" id="binName-to-REST" style="stroke:#181818;stroke-width:1.0;"/><polygon fill="#181818" points="143.5,247.68,147.5,238.68,143.5,242.68,139.5,238.68,143.5,247.68" style="stroke:#181818;stroke-width:1.0;"/></g><!--link REST to sabr_sml_so_container--><g id="link_REST_sabr_sml_so_container"><path d="M143.5,296.22 C143.5,313.67 143.5,331.61 143.5,349.84 " fill="none" id="REST-to-sabr_sml_so_container" style="stroke:#181818;stroke-width:1.0;"/><polygon fill="#181818" points="143.5,355.84,147.5,346.84,143.5,350.84,139.5,346.84,143.5,355.84" style="stroke:#181818;stroke-width:1.0;"/></g><!--link REST to web_container--><g id="link_REST_web_container"><path d="M188.28,291.79 C198.31,297.33 208.37,304.08 216.5,312 C231.82,326.93 240.696,343.4711 247.286,358.9211 " fill="none" id="REST-to-web_container" style="stroke:#181818;stroke-width:1.0;"/><polygon fill="#181818" points="249.64,364.44,249.7882,354.5923,247.6783,359.8409,242.4297,357.731,249.64,364.44" style="stroke:#181818;stroke-width:1.0;"/></g><!--link socket to web_container--><g id="link_socket_web_container"><path d="M281.5,188.28 C275.89,231.89 264.6556,319.109 259.5956,358.439 " fill="none" id="socket-to-web_container" style="stroke:#181818;stroke-width:1.0;"/><polygon fill="#181818" points="258.83,364.39,263.9457,355.974,259.468,359.4309,256.0111,354.9532,258.83,364.39" style="stroke:#181818;stroke-width:1.0;"/></g><!--reverse link sabr_sml_soimage to ailtireswarm--><g id="link_sabr_sml_soimage_ailtireswarm"><path d="M136.9577,544.6453 C137.6577,561.9453 137.98,569.95 138.7,587.76 " fill="none" id="sabr_sml_soimage-backto-ailtireswarm" style="stroke:#181818;stroke-width:1.0;"/><polygon fill="none" points="136.23,526.66,130.9626,544.8879,142.9528,544.4027,136.23,526.66" style="stroke:#181818;stroke-width:1.0;"/></g><!--link sabr_sml_so_container to sabr_sml_soimage--><g id="link_sabr_sml_so_container_sabr_sml_soimage"><path d="M141.74,411.27 C140.21,434.7 138.4137,462.1029 137.0737,482.4829 " fill="none" id="sabr_sml_so_container-to-sabr_sml_soimage" style="stroke:#181818;stroke-width:1.0;"/><polygon fill="#181818" points="136.68,488.47,141.2619,479.7518,137.008,483.4808,133.2791,479.227,136.68,488.47" style="stroke:#181818;stroke-width:1.0;"/></g><!--link web_container to sabr_sml_so_web--><g id="link_web_container_sabr_sml_so_web"><path d="M261.81,402.5 C268.46,425.04 278.1115,457.7454 284.9915,481.0554 " fill="none" id="web_container-to-sabr_sml_so_web" style="stroke:#181818;stroke-width:1.0;"/><polygon fill="#181818" points="286.69,486.81,287.9787,477.0458,285.2746,482.0145,280.3059,479.3105,286.69,486.81" style="stroke:#181818;stroke-width:1.0;"/></g><!--link CLI to binName--><g id="link_CLI_binName"><path d="M143.5,23.38 C143.5,45.52 143.5,106.15 143.5,139.77 " fill="none" id="CLI-binName" style="stroke:#181818;stroke-width:1.0;"/><text fill="#000000" font-family="sans-serif" font-size="13" lengthAdjust="spacing" textLength="68" x="58.85" y="21.5947">sabr sml so</text></g><!--link Web to REST--><g id="link_Web_REST"><path d="M29.63,272 C52.61,272 75.59,272 98.57,272 " fill="none" id="Web-REST" style="stroke:#181818;stroke-width:1.0;"/><text fill="#000000" font-family="sans-serif" font-size="13" lengthAdjust="spacing" textLength="72" x="37.7993" y="263.7135">/sabr/sml/so</text></g><!--link WebSocket to socket--><g id="link_WebSocket_socket"><path d="M284.5,23.38 C284.5,45.52 284.5,106.15 284.5,139.77 " fill="none" id="WebSocket-socket" style="stroke:#181818;stroke-width:1.0;"/><text fill="#000000" font-family="sans-serif" font-size="13" lengthAdjust="spacing" textLength="72" x="195.85" y="21.5947">.sabr.sml.so</text></g><!--SRC=[VLF1QiCm3BtdAuHxJdeVOvUnms1ii0ns6HJ5LJQtZXriisvi_VSfZjEcRbaW1FdfFKdF2e0oWLoBak3suRw0MVnAJHxNLcuf53tABRuJY9hSfsBeoSaFyi5Xi4x00h5j4U67wT9slJLa0j1NxyXxG0_FT_NB2UQZRgNiW8u1uwtLQtBGA0EBDZvHSauKuB5nu3lDD36mEViHE-AyFRyfWhAy6QiUPTVKQ_kTAJEgD0zcx9h0ytJager_Cr5wABNYKYjlLzAQWCgGIxH1F5QvdCHPnL5zHqqKv6ycT90vXqPR6Bo0fcdJPAhZo_5ddcbDCYXhF8XPa_baaHmPw8BYYsUJKUcW75tv7Rek4j99F1YxonJW-hSi_qqx3f3xDhOmMJPlP4wVJCpE4kV4eREBcVAYR_k2Dp_V96v-sYJUUn3B0Lqokepek4o7Fm94DU0LurLYfot-0m00]--></g></svg>