<?xml version="1.0" encoding="UTF-8" standalone="no"?><svg xmlns="http://www.w3.org/2000/svg" xmlns:xlink="http://www.w3.org/1999/xlink" contentScriptType="application/ecmascript" contentStyleType="text/css" height="685px" preserveAspectRatio="none" style="width:426px;height:685px;" version="1.1" viewBox="0 0 426 685" width="426px" zoomAndPan="magnify"><defs><filter height="300%" id="fskhkg3knqu4s" width="300%" x="-1" y="-1"><feGaussianBlur result="blurOut" stdDeviation="2.0"/><feColorMatrix in="blurOut" result="blurOut2" type="matrix" values="0 0 0 0 0 0 0 0 0 0 0 0 0 0 0 0 0 0 .4 0"/><feOffset dx="4.0" dy="4.0" in="blurOut2" result="blurOut3"/><feBlend in="SourceGraphic" in2="blurOut3" mode="normal"/></filter></defs><g><!--cluster Service Orchestrator--><polygon fill="#AAFFAA" filter="url(#fskhkg3knqu4s)" points="45.5,84,199.5,84,206.5,107.6094,404.5,107.6094,404.5,673,45.5,673,45.5,84" style="stroke: #000000; stroke-width: 1.5;"/><line style="stroke: #000000; stroke-width: 1.5;" x1="45.5" x2="206.5" y1="107.6094" y2="107.6094"/><text fill="#000000" font-family="sans-serif" font-size="14" font-weight="bold" lengthAdjust="spacingAndGlyphs" textLength="148" x="49.5" y="100.5332">Service Orchestrator</text><!--cluster bin--><polygon fill="#FFFFFF" filter="url(#fskhkg3knqu4s)" points="74.5,128,102.5,128,109.5,151.6094,198.5,151.6094,198.5,218,74.5,218,74.5,128" style="stroke: #000000; stroke-width: 1.5;"/><line style="stroke: #000000; stroke-width: 1.5;" x1="74.5" x2="109.5" y1="151.6094" y2="151.6094"/><text fill="#000000" font-family="sans-serif" font-size="14" font-weight="bold" lengthAdjust="spacingAndGlyphs" textLength="22" x="78.5" y="144.5332">bin</text><!--cluster deploy--><polygon fill="#FFFFFF" filter="url(#fskhkg3knqu4s)" points="69.5,324,122.5,324,129.5,347.6094,292.5,347.6094,292.5,431,69.5,431,69.5,324" style="stroke: #000000; stroke-width: 1.5;"/><line style="stroke: #000000; stroke-width: 1.5;" x1="69.5" x2="129.5" y1="347.6094" y2="347.6094"/><text fill="#000000" font-family="sans-serif" font-size="14" font-weight="bold" lengthAdjust="spacingAndGlyphs" textLength="47" x="73.5" y="340.5332">deploy</text><!--cluster images--><polygon fill="#FFFFFF" filter="url(#fskhkg3knqu4s)" points="69.5,455,125.5,455,132.5,478.6094,380.5,478.6094,380.5,649,69.5,649,69.5,455" style="stroke: #000000; stroke-width: 1.5;"/><line style="stroke: #000000; stroke-width: 1.5;" x1="69.5" x2="132.5" y1="478.6094" y2="478.6094"/><text fill="#000000" font-family="sans-serif" font-size="14" font-weight="bold" lengthAdjust="spacingAndGlyphs" textLength="50" x="73.5" y="471.5332">images</text><!--entity REST--><rect fill="#FEFECE" filter="url(#fskhkg3knqu4s)" height="37.6094" style="stroke: #A80036; stroke-width: 1.5;" width="69" x="103" y="262"/><rect fill="#FEFECE" height="5" style="stroke: #A80036; stroke-width: 1.5;" width="10" x="98" y="267"/><rect fill="#FEFECE" height="5" style="stroke: #A80036; stroke-width: 1.5;" width="10" x="98" y="289.6094"/><text fill="#000000" font-family="sans-serif" font-size="14" lengthAdjust="spacingAndGlyphs" textLength="49" x="113" y="286.5332">express</text><!--entity socket--><rect fill="#FEFECE" filter="url(#fskhkg3knqu4s)" height="37.6094" style="stroke: #A80036; stroke-width: 1.5;" width="76" x="217.5" y="164"/><rect fill="#FEFECE" height="5" style="stroke: #A80036; stroke-width: 1.5;" width="10" x="212.5" y="169"/><rect fill="#FEFECE" height="5" style="stroke: #A80036; stroke-width: 1.5;" width="10" x="212.5" y="191.6094"/><text fill="#000000" font-family="sans-serif" font-size="14" lengthAdjust="spacingAndGlyphs" textLength="56" x="227.5" y="188.5332">socket.io</text><!--entity binName--><rect fill="#FEFECE" filter="url(#fskhkg3knqu4s)" height="37.6094" style="stroke: #A80036; stroke-width: 1.5;" width="92" x="90.5" y="164"/><rect fill="#FEFECE" height="5" style="stroke: #A80036; stroke-width: 1.5;" width="10" x="85.5" y="169"/><rect fill="#FEFECE" height="5" style="stroke: #A80036; stroke-width: 1.5;" width="10" x="85.5" y="191.6094"/><text fill="#000000" font-family="sans-serif" font-size="14" lengthAdjust="spacingAndGlyphs" textLength="72" x="100.5" y="188.5332">sabr sml so</text><!--entity sabr_sml_so_container--><polygon fill="#FEFECE" filter="url(#fskhkg3knqu4s)" points="85.5,360,85.5,415.2188,195.5,415.2188,195.5,370,185.5,360,85.5,360" style="stroke: #000000; stroke-width: 1.5;"/><path d="M185.5,360 L185.5,370 L195.5,370 " fill="#FEFECE" style="stroke: #000000; stroke-width: 1.5;"/><text fill="#000000" font-family="sans-serif" font-size="14" lengthAdjust="spacingAndGlyphs" textLength="90" x="95.5" y="384.5332">node server.js</text><text fill="#000000" font-family="sans-serif" font-size="14" lengthAdjust="spacingAndGlyphs" textLength="0" x="99.5" y="402.1426"/><!--entity web_container--><polygon fill="#FEFECE" filter="url(#fskhkg3knqu4s)" points="231,368.5,231,406.1094,276,406.1094,276,378.5,266,368.5,231,368.5" style="stroke: #000000; stroke-width: 1.5;"/><path d="M266,368.5 L266,378.5 L276,378.5 " fill="#FEFECE" style="stroke: #000000; stroke-width: 1.5;"/><text fill="#000000" font-family="sans-serif" font-size="14" lengthAdjust="spacingAndGlyphs" textLength="25" x="241" y="393.0332">web</text><!--entity sabr_sml_soimage--><rect fill="#FEFECE" filter="url(#fskhkg3knqu4s)" height="33.6094" style="stroke: #000000; stroke-width: 1.5;" width="96" x="89.5" y="496.5"/><rect fill="#FEFECE" height="33.6094" style="stroke: #000000; stroke-width: 1.5;" width="96" x="85.5" y="492.5"/><text fill="#000000" font-family="sans-serif" font-size="14" lengthAdjust="spacingAndGlyphs" textLength="80" x="93.5" y="515.0332">sabr_sml_so</text><!--entity ailtireswarm--><rect fill="#FEFECE" filter="url(#fskhkg3knqu4s)" height="40.6094" style="stroke: #000000; stroke-width: 1.5;" width="108" x="85.5" y="592"/><polygon fill="#FEFECE" points="176.5,597,176.5,611,188.5,611,188.5,603,182.5,597,176.5,597" style="stroke: #000000; stroke-width: 1.5;"/><line style="stroke: #000000; stroke-width: 1.5;" x1="182.5" x2="182.5" y1="597" y2="603"/><line style="stroke: #000000; stroke-width: 1.5;" x1="188.5" x2="182.5" y1="603" y2="603"/><text fill="#000000" font-family="sans-serif" font-size="14" lengthAdjust="spacingAndGlyphs" textLength="78" x="95.5" y="619.5332">ailtire:swarm</text><!--entity sabr_sml_so_web--><rect fill="#FEFECE" filter="url(#fskhkg3knqu4s)" height="40.6094" style="stroke: #000000; stroke-width: 1.5;" width="143" x="221" y="491"/><polygon fill="#FEFECE" points="347,496,347,510,359,510,359,502,353,496,347,496" style="stroke: #000000; stroke-width: 1.5;"/><line style="stroke: #000000; stroke-width: 1.5;" x1="353" x2="353" y1="496" y2="502"/><line style="stroke: #000000; stroke-width: 1.5;" x1="359" x2="353" y1="502" y2="502"/><text fill="#000000" font-family="sans-serif" font-size="14" lengthAdjust="spacingAndGlyphs" textLength="113" x="231" y="518.5332">sabr_sml_so_web</text><!--entity CLI--><ellipse cx="136.5" cy="38" fill="#FEFECE" filter="url(#fskhkg3knqu4s)" rx="8" ry="8" style="stroke: #A80036; stroke-width: 2.0;"/><text fill="#000000" font-family="sans-serif" font-size="14" lengthAdjust="spacingAndGlyphs" textLength="21" x="126" y="69.5332">CLI</text><!--entity Web--><ellipse cx="20.5" cy="281" fill="#FEFECE" filter="url(#fskhkg3knqu4s)" rx="8" ry="8" style="stroke: #A80036; stroke-width: 2.0;"/><text fill="#000000" font-family="sans-serif" font-size="14" lengthAdjust="spacingAndGlyphs" textLength="29" x="6" y="312.5332">Web</text><!--entity WebSocket--><ellipse cx="255.5" cy="38" fill="#FEFECE" filter="url(#fskhkg3knqu4s)" rx="8" ry="8" style="stroke: #A80036; stroke-width: 2.0;"/><text fill="#000000" font-family="sans-serif" font-size="14" lengthAdjust="spacingAndGlyphs" textLength="72" x="219.5" y="69.5332">WebSocket</text><!--link binName to REST--><path d="M136.688,202.057 C136.849,217.513 137.082,239.865 137.257,256.673 " fill="none" id="binName-REST" style="stroke: #A80036; stroke-width: 1.0;"/><polygon fill="#A80036" points="137.309,261.698,141.2162,252.6573,137.2576,256.6983,133.2166,252.7396,137.309,261.698" style="stroke: #A80036; stroke-width: 1.0;"/><!--link REST to sabr_sml_so_container--><path d="M138.023,300.203 C138.452,315.147 139.07,336.673 139.581,354.487 " fill="none" id="REST-sabr_sml_so_container" style="stroke: #A80036; stroke-width: 1.0;"/><polygon fill="#A80036" points="139.736,359.885,143.4747,350.7733,139.5917,354.8871,135.478,351.0042,139.736,359.885" style="stroke: #A80036; stroke-width: 1.0;"/><!--link REST to web_container--><path d="M172.231,292.572 C185.906,297.979 201.044,305.648 212.5,316 C226.94,329.049 237.694,348.411 244.557,363.545 " fill="none" id="REST-web_container" style="stroke: #A80036; stroke-width: 1.0;"/><polygon fill="#A80036" points="246.735,368.499,246.7761,358.6502,244.7234,363.9215,239.4521,361.8688,246.735,368.499" style="stroke: #A80036; stroke-width: 1.0;"/><!--link socket to web_container--><path d="M255.319,202.328 C254.955,239.225 254.133,322.407 253.731,363.138 " fill="none" id="socket-web_container" style="stroke: #A80036; stroke-width: 1.0;"/><polygon fill="#A80036" points="253.679,368.36,257.7662,359.3993,253.7276,363.3602,249.7666,359.3216,253.679,368.36" style="stroke: #A80036; stroke-width: 1.0;"/><!--link sabr_sml_soimage to ailtireswarm--><path d="M137.051,550.896 C137.616,564.862 138.23,580.071 138.702,591.7594 " fill="none" id="sabr_sml_soimage-ailtireswarm" style="stroke: #A80036; stroke-width: 1.0;"/><polygon fill="none" points="130.047,550.924,136.234,530.658,144.035,550.359,130.047,550.924" style="stroke: #A80036; stroke-width: 1.0;"/><!--link sabr_sml_so_container to sabr_sml_soimage--><path d="M139.403,415.273 C138.518,436.871 137.286,466.931 136.444,487.465 " fill="none" id="sabr_sml_so_container-sabr_sml_soimage" style="stroke: #A80036; stroke-width: 1.0;"/><polygon fill="#A80036" points="136.239,492.469,140.6059,483.6412,136.4447,487.4732,132.6127,483.312,136.239,492.469" style="stroke: #A80036; stroke-width: 1.0;"/><!--link web_container to sabr_sml_so_web--><path d="M259.255,406.502 C265.98,427.541 277.145,462.465 284.659,485.972 " fill="none" id="web_container-sabr_sml_so_web" style="stroke: #A80036; stroke-width: 1.0;"/><polygon fill="#A80036" points="286.204,490.805,287.2731,481.0143,284.6813,486.0425,279.6531,483.4507,286.204,490.805" style="stroke: #A80036; stroke-width: 1.0;"/><!--link CLI to binName--><path d="M136.5,47.098 C136.5,69.432 136.5,132.318 136.5,163.705 " fill="none" id="CLI-binName" style="stroke: #A80036; stroke-width: 1.0;"/><text fill="#000000" font-family="sans-serif" font-size="13" lengthAdjust="spacingAndGlyphs" textLength="68" x="51.85" y="45.1822">sabr sml so</text><!--link Web to REST--><path d="M29.6406,281 C54.0775,281 78.5144,281 102.9513,281 " fill="none" id="Web-REST" style="stroke: #A80036; stroke-width: 1.0;"/><text fill="#000000" font-family="sans-serif" font-size="13" lengthAdjust="spacingAndGlyphs" textLength="72" x="37.7003" y="274.5407">/sabr/sml/so</text><!--link WebSocket to socket--><path d="M255.5,47.098 C255.5,69.432 255.5,132.318 255.5,163.705 " fill="none" id="WebSocket-socket" style="stroke: #A80036; stroke-width: 1.0;"/><text fill="#000000" font-family="sans-serif" font-size="13" lengthAdjust="spacingAndGlyphs" textLength="72" x="166.85" y="45.1822">.sabr.sml.so</text><!--
@startuml
  interface CLI
  interface Web
  interface WebSocket
package "Service Orchestrator" #aaffaa {
  component express as REST
  component socket.io as socket
  folder bin #ffffff {
    component " sabr sml so" as binName
  }
  binName - -> REST

  folder deploy #ffffff {
      file "node server.js\n" as sabr_sml_so_container
      REST - -> sabr_sml_so_container

  
    file "web" as web_container
    REST - -> web_container
    socket - - -> web_container
  
  }
  folder images #ffffff {
    collections "sabr_sml_so" as sabr_sml_soimage
    artifact "ailtire:swarm" as ailtireswarm
    sabr_sml_soimage <|- - ailtireswarm
    sabr_sml_so_container - -> sabr_sml_soimage

  
      artifact "sabr_sml_so_web" as sabr_sml_so_web
      web_container - -> sabr_sml_so_web
    
  }
}
CLI " sabr sml so" - - binName
Web "/sabr/sml/so" - REST
WebSocket ".sabr.sml.so" - - socket

@enduml

PlantUML version 1.2019.05(Sat Apr 20 09:45:36 PDT 2019)
(GPL source distribution)
Java Runtime: Java(TM) SE Runtime Environment
JVM: Java HotSpot(TM) Client VM
Java Version: 1.8.0_271-b09
Operating System: Windows 10
OS Version: 10.0
Default Encoding: Cp1252
Language: en
Country: US
--></g></svg>