<?xml version="1.0" encoding="UTF-8" standalone="no"?><svg xmlns="http://www.w3.org/2000/svg" xmlns:xlink="http://www.w3.org/1999/xlink" contentScriptType="application/ecmascript" contentStyleType="text/css" height="182px" preserveAspectRatio="none" style="width:242px;height:182px;" version="1.1" viewBox="0 0 242 182" width="242px" zoomAndPan="magnify"><defs><filter height="300%" id="fwgq28gsmtvfq" width="300%" x="-1" y="-1"><feGaussianBlur result="blurOut" stdDeviation="2.0"/><feColorMatrix in="blurOut" result="blurOut2" type="matrix" values="0 0 0 0 0 0 0 0 0 0 0 0 0 0 0 0 0 0 .4 0"/><feOffset dx="4.0" dy="4.0" in="blurOut2" result="blurOut3"/><feBlend in="SourceGraphic" in2="blurOut3" mode="normal"/></filter></defs><g><!--cluster Edge Security Controller--><polygon fill="#FFCCCC" filter="url(#fwgq28gsmtvfq)" points="22,42,200,42,207,65.6094,220,65.6094,220,170,22,170,22,42" style="stroke: #000000; stroke-width: 1.5;"/><line style="stroke: #000000; stroke-width: 1.5;" x1="22" x2="207" y1="65.6094" y2="65.6094"/><text fill="#000000" font-family="sans-serif" font-size="14" font-weight="bold" lengthAdjust="spacingAndGlyphs" textLength="172" x="26" y="58.5332">Edge Security Controller</text><!--class i--><rect fill="#FEFECE" filter="url(#fwgq28gsmtvfq)" height="75.6719" id="i" style="stroke: #A80036; stroke-width: 1.5;" width="165" x="38.5" y="78"/><ellipse cx="53.5" cy="94" fill="#B4A7E5" rx="11" ry="11" style="stroke: #A80036; stroke-width: 1.0;"/><path d="M54.4531,90.6406 L54.4531,97.2969 L56.1719,97.2969 Q56.7813,97.2969 57.0469,97.5313 Q57.3125,97.7656 57.3125,98.1563 Q57.3125,98.5313 57.0469,98.7656 Q56.7813,99 56.1719,99 L51.0313,99 Q50.4219,99 50.1563,98.7656 Q49.8906,98.5313 49.8906,98.1406 Q49.8906,97.7656 50.1563,97.5313 Q50.4219,97.2969 51.0313,97.2969 L52.75,97.2969 L52.75,90.6406 L51.0313,90.6406 Q50.4219,90.6406 50.1563,90.4063 Q49.8906,90.1719 49.8906,89.7813 Q49.8906,89.4063 50.1563,89.1719 Q50.4219,88.9375 51.0313,88.9375 L56.1719,88.9375 Q56.7813,88.9375 57.0469,89.1719 Q57.3125,89.4063 57.3125,89.7813 Q57.3125,90.1719 57.0469,90.4063 Q56.7813,90.6406 56.1719,90.6406 L54.4531,90.6406 Z "/><text fill="#000000" font-family="sans-serif" font-size="12" font-style="italic" lengthAdjust="spacingAndGlyphs" textLength="133" x="67.5" y="98.9102">Edge Security Controller</text><line style="stroke: #A80036; stroke-width: 1.5;" x1="39.5" x2="202.5" y1="110" y2="110"/><line style="stroke: #A80036; stroke-width: 1.5;" x1="39.5" x2="202.5" y1="118" y2="118"/><text fill="#000000" font-family="sans-serif" font-size="11" lengthAdjust="spacingAndGlyphs" textLength="139" x="44.5" y="133.4189">/sabr/sa/esc/bundle/deploy()</text><text fill="#000000" font-family="sans-serif" font-size="11" lengthAdjust="spacingAndGlyphs" textLength="117" x="44.5" y="147.2549">/sabr/sa/esc/key/store()</text><ellipse cx="76" cy="13" fill="#FEFECE" filter="url(#fwgq28gsmtvfq)" rx="5" ry="5" style="stroke: #A80036; stroke-width: 1.5;"/><text fill="#000000" font-family="sans-serif" font-size="12" lengthAdjust="spacingAndGlyphs" textLength="19" x="66.5" y="30.457">CLI</text><ellipse cx="121" cy="13" fill="#FEFECE" filter="url(#fwgq28gsmtvfq)" rx="5" ry="5" style="stroke: #A80036; stroke-width: 1.5;"/><text fill="#000000" font-family="sans-serif" font-size="12" lengthAdjust="spacingAndGlyphs" textLength="32" x="105" y="30.457">REST</text><ellipse cx="166" cy="13" fill="#FEFECE" filter="url(#fwgq28gsmtvfq)" rx="5" ry="5" style="stroke: #A80036; stroke-width: 1.5;"/><text fill="#000000" font-family="sans-serif" font-size="12" lengthAdjust="spacingAndGlyphs" textLength="25" x="153.5" y="30.457">Web</text><!--link ilol4573 to i--><path d="M77.7091,17.836 C82.108,27.709 94.1969,54.842 104.4852,77.934 " fill="none" id="ilol4573-i" style="stroke: #A80036; stroke-width: 1.0;"/><!--link ilol4576 to i--><path d="M121,18.34 C121,28.61 121,55.248 121,77.965 " fill="none" id="ilol4576-i" style="stroke: #A80036; stroke-width: 1.0;"/><!--link ilol4579 to i--><path d="M164.291,17.836 C159.892,27.709 147.803,54.842 137.515,77.934 " fill="none" id="ilol4579-i" style="stroke: #A80036; stroke-width: 1.0;"/><!--
@startuml



package "Edge Security Controller" #ffcccc {

    interface "Edge Security Controller" as i {
            /sabr/sa/esc/bundle/deploy()
            /sabr/sa/esc/key/store()
    
    }
}

CLI ()- - i
REST ()- - i
Web ()- - i

package "Edge Security Controller" #ffcccc {
    
}



@enduml

PlantUML version 1.2019.05(Sat Apr 20 09:45:36 PDT 2019)
(GPL source distribution)
Java Runtime: Java(TM) SE Runtime Environment
JVM: Java HotSpot(TM) Client VM
Java Version: 1.8.0_271-b09
Operating System: Windows 10
OS Version: 10.0
Default Encoding: Cp1252
Language: en
Country: US
--></g></svg>