<?xml version="1.0" encoding="us-ascii" standalone="no"?><svg xmlns="http://www.w3.org/2000/svg" xmlns:xlink="http://www.w3.org/1999/xlink" contentStyleType="text/css" height="182px" preserveAspectRatio="none" style="width:237px;height:182px;background:#FFFFFF;" version="1.1" viewBox="0 0 237 182" width="237px" zoomAndPan="magnify"><defs/><g><!--cluster Edge Security Controller--><g id="cluster_Edge Security Controller"><path d="M8.5,40 L181.5,40 A3.75,3.75 0 0 1 184,42.5 L191,63.6094 L227.5,63.6094 A2.5,2.5 0 0 1 230,66.1094 L230,172.5 A2.5,2.5 0 0 1 227.5,175 L8.5,175 A2.5,2.5 0 0 1 6,172.5 L6,42.5 A2.5,2.5 0 0 1 8.5,40 " fill="#FFCCCC" style="stroke:#000000;stroke-width:1.5;"/><line style="stroke:#000000;stroke-width:1.5;" x1="6" x2="191" y1="63.6094" y2="63.6094"/><text fill="#000000" font-family="sans-serif" font-size="14" font-weight="bold" lengthAdjust="spacing" textLength="172" x="10" y="56.5332">Edge Security Controller</text></g><!--class i--><g id="elem_i"><rect codeLine="6" fill="#F1F1F1" height="83.2188" id="i" rx="2.5" ry="2.5" style="stroke:#181818;stroke-width:0.5;" width="192" x="22" y="76"/><ellipse cx="39.7" cy="92" fill="#B4A7E5" rx="11" ry="11" style="stroke:#181818;stroke-width:1.0;"/><path d="M40.6531,88.6406 L40.6531,95.2969 L42.3719,95.2969 Q42.9813,95.2969 43.2469,95.5313 Q43.5125,95.7656 43.5125,96.1563 Q43.5125,96.5313 43.2469,96.7656 Q42.9813,97 42.3719,97 L37.2313,97 Q36.6219,97 36.3563,96.7656 Q36.0906,96.5313 36.0906,96.1406 Q36.0906,95.7656 36.3563,95.5313 Q36.6219,95.2969 37.2313,95.2969 L38.95,95.2969 L38.95,88.6406 L37.2313,88.6406 Q36.6219,88.6406 36.3563,88.4063 Q36.0906,88.1719 36.0906,87.7813 Q36.0906,87.4063 36.3563,87.1719 Q36.6219,86.9375 37.2313,86.9375 L42.3719,86.9375 Q42.9813,86.9375 43.2469,87.1719 Q43.5125,87.4063 43.5125,87.7813 Q43.5125,88.1719 43.2469,88.4063 Q42.9813,88.6406 42.3719,88.6406 L40.6531,88.6406 Z " fill="#000000"/><text fill="#000000" font-family="sans-serif" font-size="14" font-style="italic" lengthAdjust="spacing" textLength="154" x="54.3" y="97.7285">Edge Security Controller</text><line style="stroke:#181818;stroke-width:0.5;" x1="23" x2="213" y1="108" y2="108"/><line style="stroke:#181818;stroke-width:0.5;" x1="23" x2="213" y1="116" y2="116"/><text fill="#000000" font-family="sans-serif" font-size="14" lengthAdjust="spacing" textLength="180" x="28" y="134.5332">/sabr/sa/esc/bundle/deploy()</text><text fill="#000000" font-family="sans-serif" font-size="14" lengthAdjust="spacing" textLength="149" x="28" y="152.1426">/sabr/sa/esc/key/store()</text></g><g id="elem_ilol4"><ellipse cx="73" cy="11" fill="#F1F1F1" rx="5" ry="5" style="stroke:#181818;stroke-width:1.5;"/></g><text fill="#000000" font-family="sans-serif" font-size="14" lengthAdjust="spacing" textLength="21" x="62.5" y="30.5332">CLI</text><g id="elem_ilol7"><ellipse cx="118" cy="11" fill="#F1F1F1" rx="5" ry="5" style="stroke:#181818;stroke-width:1.5;"/></g><text fill="#000000" font-family="sans-serif" font-size="14" lengthAdjust="spacing" textLength="37" x="99.5" y="30.5332">REST</text><g id="elem_ilol10"><ellipse cx="163" cy="11" fill="#F1F1F1" rx="5" ry="5" style="stroke:#181818;stroke-width:1.5;"/></g><text fill="#000000" font-family="sans-serif" font-size="14" lengthAdjust="spacing" textLength="29" x="148.5" y="30.5332">Web</text><!--link ilol4 to i--><g id="link_ilol4_i"><path d="M74.71,15.97 C78.96,25.85 90.41,52.43 100.47,75.78 " fill="none" id="ilol4-i" style="stroke:#181818;stroke-width:1.0;"/></g><!--link ilol7 to i--><g id="link_ilol7_i"><path d="M118,16.49 C118,26.76 118,52.87 118,75.84 " fill="none" id="ilol7-i" style="stroke:#181818;stroke-width:1.0;"/></g><!--link ilol10 to i--><g id="link_ilol10_i"><path d="M161.29,15.97 C157.04,25.85 145.59,52.43 135.53,75.78 " fill="none" id="ilol10-i" style="stroke:#181818;stroke-width:1.0;"/></g><!--SRC=[bO-z2iCm48FtUueZNP8X-252XaAdfj3PF-TYOknmTWPJykureO4kBLJ3XmP9e4NgMJu8cz5KJgHNThdW44Fcw3rnWoThTHK-0R3AXKnifVxPaGbTBU27H9AAAmGbBTGQZ2TXQF6njDttu4n5f1oPtg4T6sm0m-MCRTVtwE0wJhV3tqaT5fP_pkthTHTU]--></g></svg>