<?xml version="1.0" encoding="us-ascii" standalone="no"?><svg xmlns="http://www.w3.org/2000/svg" xmlns:xlink="http://www.w3.org/1999/xlink" contentStyleType="text/css" height="356px" preserveAspectRatio="none" style="width:342px;height:356px;background:#FFFFFF;" version="1.1" viewBox="0 0 342 356" width="342px" zoomAndPan="magnify"><defs/><g><!--cluster sabr--><g id="cluster_sabr"><path d="M8.5,6 L40.5,6 A3.75,3.75 0 0 1 43,8.5 L50,29.6094 L332.5,29.6094 A2.5,2.5 0 0 1 335,32.1094 L335,346.5 A2.5,2.5 0 0 1 332.5,349 L8.5,349 A2.5,2.5 0 0 1 6,346.5 L6,8.5 A2.5,2.5 0 0 1 8.5,6 " fill="none" style="stroke:#000000;stroke-width:1.5;"/><line style="stroke:#000000;stroke-width:1.5;" x1="6" x2="50" y1="29.6094" y2="29.6094"/><text fill="#000000" font-family="sans-serif" font-size="14" font-weight="bold" lengthAdjust="spacing" textLength="31" x="10" y="22.5332">sabr</text></g><!--cluster sabrsa--><g id="cluster_sabrsa"><path d="M32.5,50 L49.5,50 A3.75,3.75 0 0 1 52,52.5 L59,73.6094 L308.5,73.6094 A2.5,2.5 0 0 1 311,76.1094 L311,322.5 A2.5,2.5 0 0 1 308.5,325 L32.5,325 A2.5,2.5 0 0 1 30,322.5 L30,52.5 A2.5,2.5 0 0 1 32.5,50 " fill="none" style="stroke:#000000;stroke-width:1.5;"/><line style="stroke:#000000;stroke-width:1.5;" x1="30" x2="59" y1="73.6094" y2="73.6094"/><text fill="#000000" font-family="sans-serif" font-size="14" font-weight="bold" lengthAdjust="spacing" textLength="16" x="34" y="66.5332">sa</text></g><!--cluster sabrsaesc--><g id="cluster_sabrsaesc"><path d="M56.5,94 L82.5,94 A3.75,3.75 0 0 1 85,96.5 L92,117.6094 L284.5,117.6094 A2.5,2.5 0 0 1 287,120.1094 L287,298.5 A2.5,2.5 0 0 1 284.5,301 L56.5,301 A2.5,2.5 0 0 1 54,298.5 L54,96.5 A2.5,2.5 0 0 1 56.5,94 " fill="#FFCCCC" style="stroke:#000000;stroke-width:1.5;"/><line style="stroke:#000000;stroke-width:1.5;" x1="54" x2="92" y1="117.6094" y2="117.6094"/><text fill="#000000" font-family="sans-serif" font-size="14" font-weight="bold" lengthAdjust="spacing" textLength="25" x="58" y="110.5332">esc</text></g><!--entity sabrsaescbundle--><g id="elem_sabrsaescbundle"><rect fill="#F1F1F1" height="47.6094" rx="2.5" ry="2.5" style="stroke:#181818;stroke-width:0.5;" width="83" x="70" y="136"/><rect fill="#F1F1F1" height="10" style="stroke:#181818;stroke-width:0.5;" width="15" x="133" y="141"/><rect fill="#F1F1F1" height="2" style="stroke:#181818;stroke-width:0.5;" width="4" x="131" y="143"/><rect fill="#F1F1F1" height="2" style="stroke:#181818;stroke-width:0.5;" width="4" x="131" y="147"/><text fill="#000000" font-family="sans-serif" font-size="14" lengthAdjust="spacing" textLength="43" x="85" y="170.5332">bundle</text></g><!--entity sabrsaescbundledeploy--><g id="elem_sabrsaescbundledeploy"><ellipse cx="242" cy="160" fill="#F1F1F1" rx="8" ry="8" style="stroke:#181818;stroke-width:0.5;"/><text fill="#000000" font-family="sans-serif" font-size="14" lengthAdjust="spacing" textLength="42" x="221" y="191.5332">deploy</text></g><!--entity sabrsaesckey--><g id="elem_sabrsaesckey"><rect fill="#F1F1F1" height="47.6094" rx="2.5" ry="2.5" style="stroke:#181818;stroke-width:0.5;" width="62" x="80.5" y="231"/><rect fill="#F1F1F1" height="10" style="stroke:#181818;stroke-width:0.5;" width="15" x="122.5" y="236"/><rect fill="#F1F1F1" height="2" style="stroke:#181818;stroke-width:0.5;" width="4" x="120.5" y="238"/><rect fill="#F1F1F1" height="2" style="stroke:#181818;stroke-width:0.5;" width="4" x="120.5" y="242"/><text fill="#000000" font-family="sans-serif" font-size="14" lengthAdjust="spacing" textLength="22" x="95.5" y="265.5332">key</text></g><!--entity sabrsaesckeystore--><g id="elem_sabrsaesckeystore"><ellipse cx="242" cy="255" fill="#F1F1F1" rx="8" ry="8" style="stroke:#181818;stroke-width:0.5;"/><text fill="#000000" font-family="sans-serif" font-size="14" lengthAdjust="spacing" textLength="32" x="226" y="286.5332">store</text></g><!--link sabrsaescbundle to sabrsaescbundledeploy--><g id="link_sabrsaescbundle_sabrsaescbundledeploy"><path d="M153.16,160 C181.39,160 216.69,160 232.57,160 " fill="none" id="sabrsaescbundle-sabrsaescbundledeploy" style="stroke:#181818;stroke-width:1.0;"/></g><!--link sabrsaesckey to sabrsaesckeystore--><g id="link_sabrsaesckey_sabrsaesckeystore"><path d="M142.63,255 C172.15,255 215.22,255 232.93,255 " fill="none" id="sabrsaesckey-sabrsaesckeystore" style="stroke:#181818;stroke-width:1.0;"/></g><!--SRC=[lOz13i8W44NtSueVNFTG58PAsWA1SM6CTnVRf86gMuSDlFyouI_i11AH_NGLM9_PY8-1Y50dQJFhYQ6A7hE2BdXVyA0cE73HRS35D4bzuUASgLCbcBYc63W8r7WBTk5UtHd11-7ijAdhBASbthzfUq8dYc7u8JwtizNxLyUPJp-le6jN96R-K3PABUbQ7KRRg9yN]--></g></svg>