<?xml version="1.0" encoding="UTF-8" standalone="no"?><svg xmlns="http://www.w3.org/2000/svg" xmlns:xlink="http://www.w3.org/1999/xlink" contentScriptType="application/ecmascript" contentStyleType="text/css" height="274px" preserveAspectRatio="none" style="width:348px;height:274px;" version="1.1" viewBox="0 0 348 274" width="348px" zoomAndPan="magnify"><defs><filter height="300%" id="f1qh21fso0w02" width="300%" x="-1" y="-1"><feGaussianBlur result="blurOut" stdDeviation="2.0"/><feColorMatrix in="blurOut" result="blurOut2" type="matrix" values="0 0 0 0 0 0 0 0 0 0 0 0 0 0 0 0 0 0 .4 0"/><feOffset dx="4.0" dy="4.0" in="blurOut2" result="blurOut3"/><feBlend in="SourceGraphic" in2="blurOut3" mode="normal"/></filter></defs><g><!--cluster Edge Security Controller--><polygon fill="#FFCCCC" filter="url(#f1qh21fso0w02)" points="23,24,201,24,208,47.6094,221,47.6094,221,152,23,152,23,24" style="stroke: #000000; stroke-width: 1.5;"/><line style="stroke: #000000; stroke-width: 1.5;" x1="23" x2="208" y1="47.6094" y2="47.6094"/><text fill="#000000" font-family="sans-serif" font-size="14" font-weight="bold" lengthAdjust="spacingAndGlyphs" textLength="172" x="27" y="40.5332">Edge Security Controller</text><!--class i--><rect fill="#FEFECE" filter="url(#f1qh21fso0w02)" height="75.6719" id="i" style="stroke: #A80036; stroke-width: 1.5;" width="165" x="39.5" y="60"/><ellipse cx="54.5" cy="76" fill="#B4A7E5" rx="11" ry="11" style="stroke: #A80036; stroke-width: 1.0;"/><path d="M55.4531,72.6406 L55.4531,79.2969 L57.1719,79.2969 Q57.7813,79.2969 58.0469,79.5313 Q58.3125,79.7656 58.3125,80.1563 Q58.3125,80.5313 58.0469,80.7656 Q57.7813,81 57.1719,81 L52.0313,81 Q51.4219,81 51.1563,80.7656 Q50.8906,80.5313 50.8906,80.1406 Q50.8906,79.7656 51.1563,79.5313 Q51.4219,79.2969 52.0313,79.2969 L53.75,79.2969 L53.75,72.6406 L52.0313,72.6406 Q51.4219,72.6406 51.1563,72.4063 Q50.8906,72.1719 50.8906,71.7813 Q50.8906,71.4063 51.1563,71.1719 Q51.4219,70.9375 52.0313,70.9375 L57.1719,70.9375 Q57.7813,70.9375 58.0469,71.1719 Q58.3125,71.4063 58.3125,71.7813 Q58.3125,72.1719 58.0469,72.4063 Q57.7813,72.6406 57.1719,72.6406 L55.4531,72.6406 Z "/><text fill="#000000" font-family="sans-serif" font-size="12" font-style="italic" lengthAdjust="spacingAndGlyphs" textLength="133" x="68.5" y="80.9102">Edge Security Controller</text><line style="stroke: #A80036; stroke-width: 1.5;" x1="40.5" x2="203.5" y1="92" y2="92"/><line style="stroke: #A80036; stroke-width: 1.5;" x1="40.5" x2="203.5" y1="100" y2="100"/><text fill="#000000" font-family="sans-serif" font-size="11" lengthAdjust="spacingAndGlyphs" textLength="139" x="45.5" y="115.4189">/sabr/sa/esc/bundle/deploy()</text><text fill="#000000" font-family="sans-serif" font-size="11" lengthAdjust="spacingAndGlyphs" textLength="117" x="45.5" y="129.2549">/sabr/sa/esc/key/store()</text><!--entity REST--><ellipse cx="33" cy="229" fill="#FEFECE" filter="url(#f1qh21fso0w02)" rx="8" ry="8" style="stroke: #A80036; stroke-width: 2.0;"/><text fill="#000000" font-family="sans-serif" font-size="14" lengthAdjust="spacingAndGlyphs" textLength="37" x="14.5" y="260.5332">REST</text><!--entity Web--><ellipse cx="122" cy="229" fill="#FEFECE" filter="url(#f1qh21fso0w02)" rx="8" ry="8" style="stroke: #A80036; stroke-width: 2.0;"/><text fill="#000000" font-family="sans-serif" font-size="14" lengthAdjust="spacingAndGlyphs" textLength="29" x="107.5" y="260.5332">Web</text><!--entity CLI--><ellipse cx="211" cy="229" fill="#FEFECE" filter="url(#f1qh21fso0w02)" rx="8" ry="8" style="stroke: #A80036; stroke-width: 2.0;"/><text fill="#000000" font-family="sans-serif" font-size="14" lengthAdjust="spacingAndGlyphs" textLength="21" x="200.5" y="260.5332">CLI</text><!--entity WebSocket--><ellipse cx="300" cy="98" fill="#FEFECE" filter="url(#f1qh21fso0w02)" rx="8" ry="8" style="stroke: #A80036; stroke-width: 2.0;"/><text fill="#000000" font-family="sans-serif" font-size="14" lengthAdjust="spacingAndGlyphs" textLength="72" x="264" y="129.5332">WebSocket</text><!--link i to Web--><path d="M122,136.312 C122,165.3326 122,203.3409 122,219.8065 " fill="none" id="i-Web" style="stroke: #A80036; stroke-width: 1.0;"/><!--link i to CLI--><path d="M147.742,136.312 C167.764,165.3326 193.987,203.3409 205.347,219.8065 " fill="none" id="i-CLI" style="stroke: #A80036; stroke-width: 1.0;"/><!--link i to REST--><path d="M96.2575,136.312 C76.2357,165.3326 50.0129,203.3409 38.6529,219.8065 " fill="none" id="i-REST" style="stroke: #A80036; stroke-width: 1.0;"/><!--link i to WebSocket--><path d="M204.747,98 C239.065,98 274.629,98 290.894,98 " fill="none" id="i-WebSocket" style="stroke: #A80036; stroke-width: 1.0;"/><polygon fill="#000000" points="229.75,84.6758,223.75,87.6758,229.75,90.6758,229.75,84.6758" style="stroke: #000000; stroke-width: 1.0;"/><text fill="#000000" font-family="sans-serif" font-size="13" lengthAdjust="spacingAndGlyphs" textLength="37" x="235.75" y="91.4951">events</text><!--
@startuml



package "Edge Security Controller" #ffcccc {

    interface "Edge Security Controller" as i {
    
            /sabr/sa/esc/bundle/deploy()
            /sabr/sa/esc/key/store()
    
    }
}

circle REST
circle Web
circle CLI
circle WebSocket

i -down- Web
i -down- CLI
i -down- REST
WebSocket -left- i: events >

package "Edge Security Controller" #ffcccc {


}



@enduml

PlantUML version 1.2019.05(Sat Apr 20 09:45:36 PDT 2019)
(GPL source distribution)
Java Runtime: Java(TM) SE Runtime Environment
JVM: Java HotSpot(TM) Client VM
Java Version: 1.8.0_271-b09
Operating System: Windows 10
OS Version: 10.0
Default Encoding: Cp1252
Language: en
Country: US
--></g></svg>