<?xml version="1.0" encoding="UTF-8" standalone="no"?><svg xmlns="http://www.w3.org/2000/svg" xmlns:xlink="http://www.w3.org/1999/xlink" contentScriptType="application/ecmascript" contentStyleType="text/css" height="251px" preserveAspectRatio="none" style="width:999px;height:251px;" version="1.1" viewBox="0 0 999 251" width="999px" zoomAndPan="magnify"><defs><filter height="300%" id="f1cmmx202x4uax" width="300%" x="-1" y="-1"><feGaussianBlur result="blurOut" stdDeviation="2.0"/><feColorMatrix in="blurOut" result="blurOut2" type="matrix" values="0 0 0 0 0 0 0 0 0 0 0 0 0 0 0 0 0 0 .4 0"/><feOffset dx="4.0" dy="4.0" in="blurOut2" result="blurOut3"/><feBlend in="SourceGraphic" in2="blurOut3" mode="normal"/></filter></defs><g><!--entity ChannelCreationPolicy--><rect fill="#ADD8E6" filter="url(#f1cmmx202x4uax)" height="37.6094" style="stroke: #000000; stroke-width: 1.5;" width="164" x="6" y="203"/><text fill="#000000" font-family="sans-serif" font-size="14" lengthAdjust="spacingAndGlyphs" textLength="144" x="16" y="227.5332">ChannelCreationPolicy</text><!--entity DataChannel--><rect fill="#ADD8E6" filter="url(#f1cmmx202x4uax)" height="37.6094" style="stroke: #000000; stroke-width: 1.5;" width="103" x="205.5" y="203"/><text fill="#000000" font-family="sans-serif" font-size="14" lengthAdjust="spacingAndGlyphs" textLength="83" x="215.5" y="227.5332">DataChannel</text><!--entity DataStreamInstance--><rect fill="#ADD8E6" filter="url(#f1cmmx202x4uax)" height="37.6094" style="stroke: #000000; stroke-width: 1.5;" width="148" x="344" y="203"/><text fill="#000000" font-family="sans-serif" font-size="14" lengthAdjust="spacingAndGlyphs" textLength="128" x="354" y="227.5332">DataStreamInstance</text><!--entity DataTransform--><rect fill="#ADD8E6" filter="url(#f1cmmx202x4uax)" height="37.6094" style="stroke: #000000; stroke-width: 1.5;" width="115" x="527.5" y="203"/><text fill="#000000" font-family="sans-serif" font-size="14" lengthAdjust="spacingAndGlyphs" textLength="95" x="537.5" y="227.5332">DataTransform</text><!--entity SABundle--><rect fill="#ADD8E6" filter="url(#f1cmmx202x4uax)" height="37.6094" style="stroke: #000000; stroke-width: 1.5;" width="82" x="681" y="203"/><text fill="#000000" font-family="sans-serif" font-size="14" lengthAdjust="spacingAndGlyphs" textLength="62" x="691" y="227.5332">SABundle</text><!--entity SecurityKey--><rect fill="#ADD8E6" filter="url(#f1cmmx202x4uax)" height="37.6094" style="stroke: #000000; stroke-width: 1.5;" width="95" x="848.5" y="203"/><text fill="#000000" font-family="sans-serif" font-size="14" lengthAdjust="spacingAndGlyphs" textLength="75" x="858.5" y="227.5332">SecurityKey</text><!--class Model--><rect fill="#FEFECE" filter="url(#f1cmmx202x4uax)" height="117.1797" id="Model" style="stroke: #A80036; stroke-width: 1.5;" width="133" x="500.5" y="8"/><ellipse cx="515.5" cy="24" fill="#ADD1B2" rx="11" ry="11" style="stroke: #A80036; stroke-width: 1.0;"/><path d="M518.2656,19.875 Q518.4219,19.6563 518.6094,19.5469 Q518.7969,19.4375 519.0156,19.4375 Q519.3906,19.4375 519.625,19.6953 Q519.8594,19.9531 519.8594,20.5625 L519.8594,22.0156 Q519.8594,22.625 519.625,22.8906 Q519.3906,23.1563 519.0156,23.1563 Q518.6719,23.1563 518.4688,22.9531 Q518.2656,22.7656 518.1563,22.25 Q518.1094,21.8906 517.9219,21.7031 Q517.5938,21.3281 516.9844,21.1094 Q516.375,20.8906 515.75,20.8906 Q514.9844,20.8906 514.3516,21.2188 Q513.7188,21.5469 513.2266,22.2969 Q512.7344,23.0469 512.7344,24.0781 L512.7344,25.1719 Q512.7344,26.4063 513.625,27.2266 Q514.5156,28.0469 516.1094,28.0469 Q517.0469,28.0469 517.7031,27.7969 Q518.0938,27.6406 518.5156,27.2031 Q518.7813,26.9375 518.9297,26.8594 Q519.0781,26.7813 519.2813,26.7813 Q519.6094,26.7813 519.8672,27.0391 Q520.125,27.2969 520.125,27.6406 Q520.125,27.9844 519.7813,28.3906 Q519.2813,28.9688 518.4844,29.2969 Q517.4063,29.75 516.1094,29.75 Q514.5938,29.75 513.3906,29.125 Q512.4063,28.625 511.7188,27.5547 Q511.0313,26.4844 511.0313,25.2031 L511.0313,24.0469 Q511.0313,22.7188 511.6484,21.5703 Q512.2656,20.4219 513.3594,19.8047 Q514.4531,19.1875 515.6875,19.1875 Q516.4219,19.1875 517.0703,19.3516 Q517.7188,19.5156 518.2656,19.875 Z "/><text fill="#000000" font-family="sans-serif" font-size="12" lengthAdjust="spacingAndGlyphs" textLength="101" x="529.5" y="28.9102">AdminDataStream</text><line style="stroke: #A80036; stroke-width: 1.5;" x1="501.5" x2="632.5" y1="40" y2="40"/><text fill="#000000" font-family="sans-serif" font-size="11" lengthAdjust="spacingAndGlyphs" textLength="56" x="506.5" y="55.4189">string name</text><line style="stroke: #A80036; stroke-width: 1.5;" x1="501.5" x2="632.5" y1="61.8359" y2="61.8359"/><text fill="#000000" font-family="sans-serif" font-size="11" lengthAdjust="spacingAndGlyphs" textLength="39" x="506.5" y="77.2549">create()</text><text fill="#000000" font-family="sans-serif" font-size="11" lengthAdjust="spacingAndGlyphs" textLength="52" x="506.5" y="91.0908">provision()</text><text fill="#000000" font-family="sans-serif" font-size="11" lengthAdjust="spacingAndGlyphs" textLength="89" x="506.5" y="104.9268">addKeysToStore()</text><text fill="#000000" font-family="sans-serif" font-size="11" lengthAdjust="spacingAndGlyphs" textLength="30" x="506.5" y="118.7627">build()</text><!--link Model to ChannelCreationPolicy--><path d="M487.682,91.738 C431.323,109.073 353.901,133.114 286,155 C241.751,169.2626 192.12,185.8074 153.617,198.7641 " fill="none" id="Model-ChannelCreationPolicy" style="stroke: #A80036; stroke-width: 1.0;"/><polygon fill="#A80036" points="141.269,202.9246,151.0751,203.8412,146.0072,201.3279,148.5204,196.26,141.269,202.9246" style="stroke: #A80036; stroke-width: 1.0;"/><line style="stroke: #A80036; stroke-width: 1.0;" x1="146.0072" x2="153.589" y1="201.3279" y2="198.7736"/><polygon fill="#FFFFFF" points="500.455,87.813,493.5447,85.752,488.9844,91.338,495.8947,93.399,500.455,87.813" style="stroke: #A80036; stroke-width: 1.0;"/><text fill="#000000" font-family="sans-serif" font-size="13" lengthAdjust="spacingAndGlyphs" textLength="44" x="287" y="169.4951">policies</text><text fill="#000000" font-family="sans-serif" font-size="13" lengthAdjust="spacingAndGlyphs" textLength="7" x="149.5108" y="192.2415">n</text><!--link Model to DataChannel--><path d="M487.982,100.83 C452.182,116.472 409.557,135.856 372,155 C347.082,167.7017 319.912,183.2135 298.241,196.0068 " fill="none" id="Model-DataChannel" style="stroke: #A80036; stroke-width: 1.0;"/><polygon fill="#A80036" points="286.817,202.7995,296.5971,201.6378,291.1146,200.2441,292.5084,194.7616,286.817,202.7995" style="stroke: #A80036; stroke-width: 1.0;"/><line style="stroke: #A80036; stroke-width: 1.0;" x1="291.1146" x2="297.9905" y1="200.2441" y2="196.1556"/><polygon fill="#A80036" points="500.34,95.46,493.243,94.1821,489.3339,100.2417,496.4308,101.5196,500.34,95.46" style="stroke: #A80036; stroke-width: 1.0;"/><text fill="#000000" font-family="sans-serif" font-size="13" lengthAdjust="spacingAndGlyphs" textLength="52" x="373" y="169.4951">channels</text><text fill="#000000" font-family="sans-serif" font-size="13" lengthAdjust="spacingAndGlyphs" textLength="7" x="287.8766" y="192.0781">n</text><!--link Model to DataStreamInstance--><path d="M489.259,111.665 C472.332,124.007 455.708,138.598 443,155 C435.039,165.2744 429.383,178.3663 425.489,190.1766 " fill="none" id="Model-DataStreamInstance" style="stroke: #A80036; stroke-width: 1.0;"/><polygon fill="#A80036" points="421.812,202.7477,428.1779,195.2327,423.2157,197.9488,420.4996,192.9867,421.812,202.7477" style="stroke: #A80036; stroke-width: 1.0;"/><line style="stroke: #A80036; stroke-width: 1.0;" x1="423.2157" x2="425.462" y1="197.9488" y2="190.2706"/><polygon fill="#A80036" points="500.389,103.883,493.1797,104.0426,490.5541,110.7587,497.7635,110.5991,500.389,103.883" style="stroke: #A80036; stroke-width: 1.0;"/><text fill="#000000" font-family="sans-serif" font-size="13" lengthAdjust="spacingAndGlyphs" textLength="56" x="444" y="169.4951">instances</text><text fill="#000000" font-family="sans-serif" font-size="13" lengthAdjust="spacingAndGlyphs" textLength="7" x="414.9076" y="192.0104">n</text><!--link Model to DataTransform--><path d="M510.787,137.44 C507.048,149.3447 506.875,161.5555 513,173 C517.682,181.7493 524.742,189.1792 532.64,195.3881 " fill="none" id="Model-DataTransform" style="stroke: #A80036; stroke-width: 1.0;"/><polygon fill="#A80036" points="543.377,202.8553,538.2722,194.4326,539.2722,200.0004,533.7044,201.0003,543.377,202.8553" style="stroke: #A80036; stroke-width: 1.0;"/><line style="stroke: #A80036; stroke-width: 1.0;" x1="539.2722" x2="532.705" y1="200.0004" y2="195.4328"/><polygon fill="#FFFFFF" points="515.86,125.191,509.8691,129.2046,511.2697,136.2784,517.2606,132.2648,515.86,125.191" style="stroke: #A80036; stroke-width: 1.0;"/><text fill="#000000" font-family="sans-serif" font-size="13" lengthAdjust="spacingAndGlyphs" textLength="61" x="514" y="169.4951">transforms</text><text fill="#000000" font-family="sans-serif" font-size="13" lengthAdjust="spacingAndGlyphs" textLength="7" x="522.5581" y="192.151">n</text><!--link Model to SABundle--><path d="M590.766,137.237 C597.459,150.2295 605.783,162.8811 616,173 C630.589,187.4495 650.303,197.9917 668.773,205.4515 " fill="none" id="Model-SABundle" style="stroke: #A80036; stroke-width: 1.0;"/><polygon fill="#A80036" points="680.972,210.0259,673.9493,203.1207,676.2903,208.2704,671.1406,210.6114,680.972,210.0259" style="stroke: #A80036; stroke-width: 1.0;"/><line style="stroke: #A80036; stroke-width: 1.0;" x1="676.2903" x2="668.7995" y1="208.2704" y2="205.4615"/><polygon fill="#FFFFFF" points="585.069,125.272,584.0369,132.4089,590.2278,136.1065,591.2599,128.9697,585.069,125.272" style="stroke: #A80036; stroke-width: 1.0;"/><text fill="#000000" font-family="sans-serif" font-size="13" lengthAdjust="spacingAndGlyphs" textLength="64" x="617" y="169.4951">consumers</text><text fill="#000000" font-family="sans-serif" font-size="13" lengthAdjust="spacingAndGlyphs" textLength="7" x="666.0405" y="204.0292">n</text><!--link Model to SABundle--><path d="M644.467,116.764 C659.281,128.229 673.917,141.1695 686,155 C695.305,165.6509 703.183,179.1101 709.174,191.092 " fill="none" id="Model-SABundle-1" style="stroke: #A80036; stroke-width: 1.0;"/><polygon fill="#A80036" points="714.716,202.8638,714.5019,193.0173,712.5865,198.34,707.2638,196.4245,714.716,202.8638" style="stroke: #A80036; stroke-width: 1.0;"/><line style="stroke: #A80036; stroke-width: 1.0;" x1="712.5865" x2="709.179" y1="198.34" y2="191.102"/><polygon fill="#FFFFFF" points="633.682,108.684,636.0857,115.4827,643.286,115.8787,640.8822,109.08,633.682,108.684" style="stroke: #A80036; stroke-width: 1.0;"/><text fill="#000000" font-family="sans-serif" font-size="13" lengthAdjust="spacingAndGlyphs" textLength="57" x="700" y="169.4951">producers</text><text fill="#000000" font-family="sans-serif" font-size="13" lengthAdjust="spacingAndGlyphs" textLength="7" x="704.4134" y="192.1621">n</text><!--link Model to SecurityKey--><path d="M645.903,100.996 C682.627,116.891 726.769,136.434 766,155 C794.214,168.3524 825.413,184.1561 850.173,196.951 " fill="none" id="Model-SecurityKey" style="stroke: #A80036; stroke-width: 1.0;"/><polygon fill="#A80036" points="861.77,202.9665,855.6226,195.2717,857.3316,200.6643,851.939,202.3732,861.77,202.9665" style="stroke: #A80036; stroke-width: 1.0;"/><line style="stroke: #A80036; stroke-width: 1.0;" x1="857.3316" x2="850.23" y1="200.6643" y2="196.9804"/><polygon fill="#FFFFFF" points="633.751,95.752,637.6748,101.8021,644.7686,100.5072,640.8449,94.457,633.751,95.752" style="stroke: #A80036; stroke-width: 1.0;"/><text fill="#000000" font-family="sans-serif" font-size="13" lengthAdjust="spacingAndGlyphs" textLength="83" x="804" y="169.4951">encryptionKey</text><text fill="#000000" font-family="sans-serif" font-size="13" lengthAdjust="spacingAndGlyphs" textLength="7" x="843.2152" y="192.2963">1</text><!--link Model to SecurityKey--><path d="M646.73,77.539 C734.068,90.365 865.804,115.724 896,155 C903.51,164.7682 904.711,177.975 903.578,190.0084 " fill="none" id="Model-SecurityKey-1" style="stroke: #A80036; stroke-width: 1.0;"/><polygon fill="#A80036" points="901.519,202.8498,906.8933,194.5965,902.3105,197.9128,898.9942,193.3301,901.519,202.8498" style="stroke: #A80036; stroke-width: 1.0;"/><line style="stroke: #A80036; stroke-width: 1.0;" x1="902.3105" x2="903.577" y1="197.9128" y2="190.0138"/><polygon fill="#FFFFFF" points="633.65,75.662,639.0212,80.4734,645.5284,77.3659,640.1572,72.5545,633.65,75.662" style="stroke: #A80036; stroke-width: 1.0;"/><text fill="#000000" font-family="sans-serif" font-size="13" lengthAdjust="spacingAndGlyphs" textLength="83" x="904" y="169.4951">decryptionKey</text><text fill="#000000" font-family="sans-serif" font-size="13" lengthAdjust="spacingAndGlyphs" textLength="7" x="895.1373" y="192.1438">1</text><!--
@startuml

class "AdminDataStream" as Model {
 string name

 create()
 provision()
 addKeysToStore()
 build()
 
}

rectangle "ChannelCreationPolicy" as ChannelCreationPolicy #lightblue {
}

Model o- -> "n" ChannelCreationPolicy : policies


rectangle "DataChannel" as DataChannel #lightblue {
}

Model *- -> "n" DataChannel : channels


rectangle "DataStreamInstance" as DataStreamInstance #lightblue {
}

Model *- -> "n" DataStreamInstance : instances


rectangle "DataTransform" as DataTransform #lightblue {
}

Model o- -> "n" DataTransform : transforms


rectangle "SABundle" as SABundle #lightblue {
}

Model o- -> "n" SABundle : consumers


rectangle "SABundle" as SABundle #lightblue {
}

Model o- -> "n" SABundle : producers


rectangle "SecurityKey" as SecurityKey #lightblue {
}

Model o- -> "1" SecurityKey : encryptionKey


rectangle "SecurityKey" as SecurityKey #lightblue {
}

Model o- -> "1" SecurityKey : decryptionKey





@enduml

PlantUML version 1.2019.05(Sat Apr 20 09:45:36 PDT 2019)
(GPL source distribution)
Java Runtime: Java(TM) SE Runtime Environment
JVM: Java HotSpot(TM) Client VM
Java Version: 1.8.0_271-b09
Operating System: Windows 10
OS Version: 10.0
Default Encoding: Cp1252
Language: en
Country: US
--></g></svg>