<?xml version="1.0" encoding="us-ascii" standalone="no"?><svg xmlns="http://www.w3.org/2000/svg" xmlns:xlink="http://www.w3.org/1999/xlink" contentStyleType="text/css" height="264px" preserveAspectRatio="none" style="width:992px;height:264px;background:#FFFFFF;" version="1.1" viewBox="0 0 992 264" width="992px" zoomAndPan="magnify"><defs/><g><!--entity ChannelCreationPolicy--><g id="elem_ChannelCreationPolicy"><rect fill="#ADD8E6" height="37.6094" rx="2.5" ry="2.5" style="stroke:#181818;stroke-width:0.5;" width="164" x="7" y="221"/><text fill="#000000" font-family="sans-serif" font-size="14" lengthAdjust="spacing" textLength="144" x="17" y="245.5332">ChannelCreationPolicy</text></g><!--entity DataChannel--><g id="elem_DataChannel"><rect fill="#ADD8E6" height="37.6094" rx="2.5" ry="2.5" style="stroke:#181818;stroke-width:0.5;" width="103" x="206.5" y="221"/><text fill="#000000" font-family="sans-serif" font-size="14" lengthAdjust="spacing" textLength="83" x="216.5" y="245.5332">DataChannel</text></g><!--entity DataStreamInstance--><g id="elem_DataStreamInstance"><rect fill="#ADD8E6" height="37.6094" rx="2.5" ry="2.5" style="stroke:#181818;stroke-width:0.5;" width="148" x="345" y="221"/><text fill="#000000" font-family="sans-serif" font-size="14" lengthAdjust="spacing" textLength="128" x="355" y="245.5332">DataStreamInstance</text></g><!--entity DataTransform--><g id="elem_DataTransform"><rect fill="#ADD8E6" height="37.6094" rx="2.5" ry="2.5" style="stroke:#181818;stroke-width:0.5;" width="115" x="528.5" y="221"/><text fill="#000000" font-family="sans-serif" font-size="14" lengthAdjust="spacing" textLength="95" x="538.5" y="245.5332">DataTransform</text></g><!--entity SABundle--><g id="elem_SABundle"><rect fill="#ADD8E6" height="37.6094" rx="2.5" ry="2.5" style="stroke:#181818;stroke-width:0.5;" width="82" x="682" y="221"/><text fill="#000000" font-family="sans-serif" font-size="14" lengthAdjust="spacing" textLength="62" x="692" y="245.5332">SABundle</text></g><!--entity SecurityKey--><g id="elem_SecurityKey"><rect fill="#ADD8E6" height="37.6094" rx="2.5" ry="2.5" style="stroke:#181818;stroke-width:0.5;" width="95" x="852.5" y="221"/><text fill="#000000" font-family="sans-serif" font-size="14" lengthAdjust="spacing" textLength="75" x="862.5" y="245.5332">SecurityKey</text></g><!--class Model--><g id="elem_Model"><rect codeLine="2" fill="#F1F1F1" height="136.0469" id="Model" rx="2.5" ry="2.5" style="stroke:#181818;stroke-width:0.5;" width="146" x="495" y="7"/><ellipse cx="510" cy="23" fill="#ADD1B2" rx="11" ry="11" style="stroke:#181818;stroke-width:1.0;"/><path d="M512.7656,18.875 Q512.9219,18.6563 513.1094,18.5469 Q513.2969,18.4375 513.5156,18.4375 Q513.8906,18.4375 514.125,18.6953 Q514.3594,18.9531 514.3594,19.5625 L514.3594,21.0156 Q514.3594,21.625 514.125,21.8906 Q513.8906,22.1563 513.5156,22.1563 Q513.1719,22.1563 512.9688,21.9531 Q512.7656,21.7656 512.6563,21.25 Q512.6094,20.8906 512.4219,20.7031 Q512.0938,20.3281 511.4844,20.1094 Q510.875,19.8906 510.25,19.8906 Q509.4844,19.8906 508.8516,20.2188 Q508.2188,20.5469 507.7266,21.2969 Q507.2344,22.0469 507.2344,23.0781 L507.2344,24.1719 Q507.2344,25.4063 508.125,26.2266 Q509.0156,27.0469 510.6094,27.0469 Q511.5469,27.0469 512.2031,26.7969 Q512.5938,26.6406 513.0156,26.2031 Q513.2813,25.9375 513.4297,25.8594 Q513.5781,25.7813 513.7813,25.7813 Q514.1094,25.7813 514.3672,26.0391 Q514.625,26.2969 514.625,26.6406 Q514.625,26.9844 514.2813,27.3906 Q513.7813,27.9688 512.9844,28.2969 Q511.9063,28.75 510.6094,28.75 Q509.0938,28.75 507.8906,28.125 Q506.9063,27.625 506.2188,26.5547 Q505.5313,25.4844 505.5313,24.2031 L505.5313,23.0469 Q505.5313,21.7188 506.1484,20.5703 Q506.7656,19.4219 507.8594,18.8047 Q508.9531,18.1875 510.1875,18.1875 Q510.9219,18.1875 511.5703,18.3516 Q512.2188,18.5156 512.7656,18.875 Z " fill="#000000"/><text fill="#000000" font-family="sans-serif" font-size="14" lengthAdjust="spacing" textLength="114" x="524" y="28.7285">AdminDataStream</text><line style="stroke:#181818;stroke-width:0.5;" x1="496" x2="640" y1="39" y2="39"/><text fill="#000000" font-family="sans-serif" font-size="14" lengthAdjust="spacing" textLength="74" x="501" y="57.5332">string name</text><line style="stroke:#181818;stroke-width:0.5;" x1="496" x2="640" y1="64.6094" y2="64.6094"/><text fill="#000000" font-family="sans-serif" font-size="14" lengthAdjust="spacing" textLength="50" x="501" y="83.1426">create()</text><text fill="#000000" font-family="sans-serif" font-size="14" lengthAdjust="spacing" textLength="67" x="501" y="100.752">provision()</text><text fill="#000000" font-family="sans-serif" font-size="14" lengthAdjust="spacing" textLength="116" x="501" y="118.3613">addKeysToStore()</text><text fill="#000000" font-family="sans-serif" font-size="14" lengthAdjust="spacing" textLength="40" x="501" y="135.9707">build()</text></g><!--link Model to ChannelCreationPolicy--><g id="link_Model_ChannelCreationPolicy"><path codeLine="15" d="M483.6298,104.7061 C386.3398,137.8161 233.5301,189.817 147.6401,219.047 " fill="none" id="Model-ChannelCreationPolicy" style="stroke:#181818;stroke-width:1.0;"/><polygon fill="none" points="494.99,100.84,488.0212,98.9863,483.6298,104.7061,490.5986,106.5598,494.99,100.84" style="stroke:#181818;stroke-width:1.0;"/><polygon fill="#181818" points="141.96,220.98,151.7688,221.8672,146.6934,219.3691,149.1914,214.2937,141.96,220.98" style="stroke:#181818;stroke-width:1.0;"/><text fill="#000000" font-family="sans-serif" font-size="13" lengthAdjust="spacing" textLength="44" x="273" y="187.4951">policies</text><text fill="#000000" font-family="sans-serif" font-size="13" lengthAdjust="spacing" textLength="7" x="150.7254" y="209.9808">n</text></g><!--link Model to DataChannel--><g id="link_Model_DataChannel"><path codeLine="21" d="M483.9993,116.4103 C447.1993,134.4003 412.84,151.68 373,173 C343.98,188.53 316.6607,204.2564 293.6407,217.8064 " fill="none" id="Model-DataChannel" style="stroke:#181818;stroke-width:1.0;"/><polygon fill="#181818" points="494.78,111.14,487.6329,110.1815,483.9993,116.4103,491.1464,117.3687,494.78,111.14" style="stroke:#181818;stroke-width:1.0;"/><polygon fill="#181818" points="288.47,220.85,298.2552,219.7318,292.7789,218.3137,294.197,212.8375,288.47,220.85" style="stroke:#181818;stroke-width:1.0;"/><text fill="#000000" font-family="sans-serif" font-size="13" lengthAdjust="spacing" textLength="52" x="374" y="187.4951">channels</text><text fill="#000000" font-family="sans-serif" font-size="13" lengthAdjust="spacing" textLength="7" x="289.7296" y="210.1441">n</text></g><!--link Model to DataStreamInstance--><g id="link_Model_DataStreamInstance"><path codeLine="27" d="M485.2355,130.11 C466.8255,144.5 457.85,154.18 444,173 C433.4,187.41 428.3073,201.0529 424.5573,215.1029 " fill="none" id="Model-DataStreamInstance" style="stroke:#181818;stroke-width:1.0;"/><polygon fill="#181818" points="494.69,122.72,487.4994,123.2635,485.2355,130.11,492.4261,129.5665,494.69,122.72" style="stroke:#181818;stroke-width:1.0;"/><polygon fill="#181818" points="423.01,220.9,429.1956,213.2359,424.2994,216.0691,421.4662,211.1729,423.01,220.9" style="stroke:#181818;stroke-width:1.0;"/><text fill="#000000" font-family="sans-serif" font-size="13" lengthAdjust="spacing" textLength="56" x="445" y="187.4951">instances</text><text fill="#000000" font-family="sans-serif" font-size="13" lengthAdjust="spacing" textLength="7" x="416.1662" y="210.2094">n</text></g><!--link Model to DataTransform--><g id="link_Model_DataTransform"><path codeLine="33" d="M509.7331,154.2504 C503.1431,170.1004 505.83,175.73 514,191 C520.73,203.58 527.288,210.2826 539.278,217.7026 " fill="none" id="Model-DataTransform" style="stroke:#181818;stroke-width:1.0;"/><polygon fill="none" points="514.34,143.17,508.343,147.1746,509.7331,154.2504,515.73,150.2459,514.34,143.17" style="stroke:#181818;stroke-width:1.0;"/><polygon fill="#181818" points="544.38,220.86,538.8319,212.7225,540.1283,218.2288,534.622,219.5253,544.38,220.86" style="stroke:#181818;stroke-width:1.0;"/><text fill="#000000" font-family="sans-serif" font-size="13" lengthAdjust="spacing" textLength="61" x="515" y="187.4951">transforms</text><text fill="#000000" font-family="sans-serif" font-size="13" lengthAdjust="spacing" textLength="7" x="523.562" y="210.1571">n</text></g><!--link Model to SABundle--><g id="link_Model_SABundle"><path codeLine="39" d="M591.5443,154.178 C598.8243,171.348 603.95,177.66 617,191 C634.58,208.98 654.4652,218.8815 676.0752,226.3015 " fill="none" id="Model-SABundle" style="stroke:#181818;stroke-width:1.0;"/><polygon fill="none" points="586.86,143.13,585.5195,150.2154,591.5443,154.178,592.8848,147.0926,586.86,143.13" style="stroke:#181818;stroke-width:1.0;"/><polygon fill="#181818" points="681.75,228.25,674.5368,221.5441,677.021,226.6263,671.9388,229.1105,681.75,228.25" style="stroke:#181818;stroke-width:1.0;"/><text fill="#000000" font-family="sans-serif" font-size="13" lengthAdjust="spacing" textLength="64" x="618" y="187.4951">consumers</text><text fill="#000000" font-family="sans-serif" font-size="13" lengthAdjust="spacing" textLength="7" x="667.0586" y="222.4144">n</text></g><!--link Model to SABundle--><g id="link_Model_SABundle"><path codeLine="45" d="M650.2314,135.6989 C666.4914,149.2389 673.63,156.9 687,173 C699.09,187.56 706.5542,201.3391 712.9042,215.2891 " fill="none" id="Model-SABundle-1" style="stroke:#181818;stroke-width:1.0;"/><polygon fill="none" points="641.01,128.02,643.0611,134.9332,650.2314,135.6989,648.1803,128.7856,641.01,128.02" style="stroke:#181818;stroke-width:1.0;"/><polygon fill="#181818" points="715.39,220.75,715.3019,210.9015,713.3185,216.1993,708.0208,214.2159,715.39,220.75" style="stroke:#181818;stroke-width:1.0;"/><text fill="#000000" font-family="sans-serif" font-size="13" lengthAdjust="spacing" textLength="57" x="700" y="187.4951">producers</text><text fill="#000000" font-family="sans-serif" font-size="13" lengthAdjust="spacing" textLength="7" x="704.9876" y="210.0135">n</text></g><!--link Model to SecurityKey--><g id="link_Model_SecurityKey"><path codeLine="51" d="M652.1372,117.1675 C689.4672,135.4475 724.77,152.75 766,173 C798.94,189.18 831.0179,204.9879 857.9479,218.2579 " fill="none" id="Model-SecurityKey" style="stroke:#181818;stroke-width:1.0;"/><polygon fill="none" points="641.36,111.89,644.9895,118.1211,652.1372,117.1675,648.5078,110.9363,641.36,111.89" style="stroke:#181818;stroke-width:1.0;"/><polygon fill="#181818" points="863.33,220.91,857.0249,213.3439,858.8449,218.7,853.4889,220.52,863.33,220.91" style="stroke:#181818;stroke-width:1.0;"/><text fill="#000000" font-family="sans-serif" font-size="13" lengthAdjust="spacing" textLength="83" x="800" y="187.4951">encryptionKey</text><text fill="#000000" font-family="sans-serif" font-size="13" lengthAdjust="spacing" textLength="7" x="844.0279" y="210.2225">1</text></g><!--link Model to SecurityKey--><g id="link_Model_SecurityKey"><path codeLine="57" d="M652.9047,90.56 C738.1347,106.53 859.7,134.67 892,173 C903.08,186.15 904.4578,200.3699 903.2678,214.9599 " fill="none" id="Model-SecurityKey-1" style="stroke:#181818;stroke-width:1.0;"/><polygon fill="none" points="641.11,88.35,646.2707,93.3866,652.9047,90.56,647.744,85.5234,641.11,88.35" style="stroke:#181818;stroke-width:1.0;"/><polygon fill="#181818" points="902.78,220.94,907.4984,212.295,903.1865,215.9565,899.5249,211.6446,902.78,220.94" style="stroke:#181818;stroke-width:1.0;"/><text fill="#000000" font-family="sans-serif" font-size="13" lengthAdjust="spacing" textLength="83" x="901" y="187.4951">decryptionKey</text><text fill="#000000" font-family="sans-serif" font-size="13" lengthAdjust="spacing" textLength="7" x="895.5595" y="210.2616">1</text></g><!--SRC=[jPBFJiCm3CRlUGehN01fXrrxG1hZCY6aITqBP8df8gLEbJz85UBTITgrhADZ7E1cEv-_dsDP6k4zy9MgDJs98ChWKDGSX8SNgz30EmCVdAOAIDJ86CWa27Xxnw1nzarxRIadGgbdRFtEbi6wxdaVjL4vO1-CEPH1K6KG-FeWYD2iiqzgtbgZPTiHPr_WnkZg4FOcOXecMVLpsSNY0JZn2qq5D3dGwDa4dlzuxEYG9_a5qFq0EfKM8FjenhvVuOPyAaeSATFoRs1d7GNeOpW3tJb1_jMwUkIDbMiBd8eB24DyXYbNZv6KwNyq9DVCHrtQc2KVQtH_R9kkK4NvtHPbT3gqwIXxvw_yH_CbdqWBG9AkRV9ffVoV60gd3CO-0G00]--></g></svg>