<?xml version="1.0" encoding="UTF-8" standalone="no"?><svg xmlns="http://www.w3.org/2000/svg" xmlns:xlink="http://www.w3.org/1999/xlink" contentScriptType="application/ecmascript" contentStyleType="text/css" height="315px" preserveAspectRatio="none" style="width:878px;height:315px;" version="1.1" viewBox="0 0 878 315" width="878px" zoomAndPan="magnify"><defs><filter height="300%" id="fbc584rao98f6" width="300%" x="-1" y="-1"><feGaussianBlur result="blurOut" stdDeviation="2.0"/><feColorMatrix in="blurOut" result="blurOut2" type="matrix" values="0 0 0 0 0 0 0 0 0 0 0 0 0 0 0 0 0 0 .4 0"/><feOffset dx="4.0" dy="4.0" in="blurOut2" result="blurOut3"/><feBlend in="SourceGraphic" in2="blurOut3" mode="normal"/></filter></defs><g><ellipse cx="429.1143" cy="171.7229" fill="#FFFF00" filter="url(#fbc584rao98f6)" rx="76.6143" ry="17.7229" style="stroke: #A80036; stroke-width: 1.5;"/><text fill="#000000" font-family="sans-serif" font-size="14" lengthAdjust="spacingAndGlyphs" textLength="118" x="370.1143" y="177.0275">Develop Capability</text><!--entity ApplicationDeveloper--><ellipse cx="429" cy="18" fill="#FEFECE" filter="url(#fbc584rao98f6)" rx="8" ry="8" style="stroke: #A80036; stroke-width: 2.0;"/><path d="M429,26 L429,53 M416,34 L442,34 M429,53 L416,68 M429,53 L442,68 " fill="none" filter="url(#fbc584rao98f6)" style="stroke: #A80036; stroke-width: 2.0;"/><text fill="#000000" font-family="sans-serif" font-size="14" lengthAdjust="spacingAndGlyphs" textLength="138" x="360" y="89.5332">Application Developer</text><ellipse cx="73.0337" cy="285.3067" fill="#D3D3D3" filter="url(#fbc584rao98f6)" rx="67.0337" ry="15.8067" style="stroke: #A80036; stroke-width: 1.5;"/><text fill="#000000" font-family="sans-serif" font-size="14" lengthAdjust="spacingAndGlyphs" textLength="93" x="26.5337" y="290.6114">BuildCapability</text><ellipse cx="247.0151" cy="285.703" fill="#D3D3D3" filter="url(#fbc584rao98f6)" rx="71.5151" ry="16.703" style="stroke: #A80036; stroke-width: 1.5;"/><text fill="#000000" font-family="sans-serif" font-size="14" lengthAdjust="spacingAndGlyphs" textLength="105" x="194.5151" y="291.0077">CreateCapability</text><ellipse cx="429.0213" cy="285.4043" fill="#D3D3D3" filter="url(#fbc584rao98f6)" rx="75.0213" ry="17.4043" style="stroke: #A80036; stroke-width: 1.5;"/><text fill="#000000" font-family="sans-serif" font-size="14" lengthAdjust="spacingAndGlyphs" textLength="114" x="372.0213" y="290.7089">ReleaseCapability</text><ellipse cx="604.9529" cy="285.5906" fill="#D3D3D3" filter="url(#fbc584rao98f6)" rx="65.9529" ry="15.5906" style="stroke: #A80036; stroke-width: 1.5;"/><text fill="#000000" font-family="sans-serif" font-size="14" lengthAdjust="spacingAndGlyphs" textLength="90" x="559.9529" y="290.8953">TestCapability</text><ellipse cx="787.1792" cy="285.5358" fill="#FFFFE0" filter="url(#fbc584rao98f6)" rx="80.6792" ry="18.5358" style="stroke: #A80036; stroke-width: 1.5;"/><text fill="#000000" font-family="sans-serif" font-size="14" lengthAdjust="spacingAndGlyphs" textLength="128" x="723.1792" y="290.8405">Manage Capabilities</text><!--link ApplicationDeveloper to DevelopCapability--><path d="M429,93.12 C429,111.908 429,133.318 429,148.847 " fill="none" id="ApplicationDeveloper-DevelopCapability" style="stroke: #A80036; stroke-width: 1.0;"/><polygon fill="#A80036" points="429,153.875,433,144.875,429,148.875,425,144.875,429,153.875" style="stroke: #A80036; stroke-width: 1.0;"/><!--link DevelopCapability to BuildCapability--><path d="M386.058,186.01 C317.702,207.5151 184.881,249.3013 116.301,270.8773 " fill="none" id="DevelopCapability-BuildCapability" style="stroke: #A80036; stroke-width: 1.0;"/><polygon fill="#A80036" points="111.476,272.3953,121.2615,273.511,116.2457,270.8953,118.8614,265.8795,111.476,272.3953" style="stroke: #A80036; stroke-width: 1.0;"/><!--link DevelopCapability to CreateCapability--><path d="M403.694,188.073 C370.042,208.7817 310.727,245.2833 275.525,266.9463 " fill="none" id="DevelopCapability-CreateCapability" style="stroke: #A80036; stroke-width: 1.0;"/><polygon fill="#A80036" points="270.934,269.7716,280.6954,268.4622,275.1925,267.1515,276.5032,261.6485,270.934,269.7716" style="stroke: #A80036; stroke-width: 1.0;"/><!--link DevelopCapability to ReleaseCapability--><path d="M429,189.026 C429,208.5471 429,241.089 429,262.6702 " fill="none" id="DevelopCapability-ReleaseCapability" style="stroke: #A80036; stroke-width: 1.0;"/><polygon fill="#A80036" points="429,267.9062,433,258.9062,429,262.9062,425,258.9062,429,267.9062" style="stroke: #A80036; stroke-width: 1.0;"/><!--link DevelopCapability to TestCapability--><path d="M453.843,188.309 C486.943,209.3726 545.237,246.4692 578.941,267.9169 " fill="none" id="DevelopCapability-TestCapability" style="stroke: #A80036; stroke-width: 1.0;"/><polygon fill="#A80036" points="583.327,270.7083,577.8834,262.5005,579.1093,268.023,573.5869,269.2488,583.327,270.7083" style="stroke: #A80036; stroke-width: 1.0;"/><!--link DevelopCapability to ManageCapabilities--><path d="M477.072,187.539 C546.384,209.2236 673.503,248.9926 741.406,270.2361 " fill="none" id="DevelopCapability-ManageCapabilities" style="stroke: #A80036; stroke-width: 1.0;"/><polygon fill="#A80036" points="472.183,186.01,479.578,192.5149,476.9549,187.503,481.9668,184.8799,472.183,186.01" style="stroke: #A80036; stroke-width: 1.0;"/><text fill="#000000" font-family="sans-serif" font-size="13" lengthAdjust="spacingAndGlyphs" textLength="46" x="630" y="233.4951">extends</text><!--
@startuml


usecase "Develop Capability" as DevelopCapability #yellow

Actor "Application Developer" as ApplicationDeveloper

ApplicationDeveloper - -> DevelopCapability



usecase "BuildCapability" as BuildCapability #lightgrey

DevelopCapability - -> BuildCapability

usecase "CreateCapability" as CreateCapability #lightgrey

DevelopCapability - -> CreateCapability

usecase "ReleaseCapability" as ReleaseCapability #lightgrey

DevelopCapability - -> ReleaseCapability

usecase "TestCapability" as TestCapability #lightgrey

DevelopCapability - -> TestCapability



usecase "Manage Capabilities" as ManageCapabilities #lightyellow

DevelopCapability <- - ManageCapabilities : extends







@enduml

PlantUML version 1.2019.05(Sat Apr 20 09:45:36 PDT 2019)
(GPL source distribution)
Java Runtime: Java(TM) SE Runtime Environment
JVM: Java HotSpot(TM) Client VM
Java Version: 1.8.0_271-b09
Operating System: Windows 10
OS Version: 10.0
Default Encoding: Cp1252
Language: en
Country: US
--></g></svg>