<?xml version="1.0" encoding="UTF-8" standalone="no"?><svg xmlns="http://www.w3.org/2000/svg" xmlns:xlink="http://www.w3.org/1999/xlink" contentScriptType="application/ecmascript" contentStyleType="text/css" height="357px" preserveAspectRatio="none" style="width:772px;height:357px;" version="1.1" viewBox="0 0 772 357" width="772px" zoomAndPan="magnify"><defs><filter height="300%" id="f1rx4trmkdnknx" width="300%" x="-1" y="-1"><feGaussianBlur result="blurOut" stdDeviation="2.0"/><feColorMatrix in="blurOut" result="blurOut2" type="matrix" values="0 0 0 0 0 0 0 0 0 0 0 0 0 0 0 0 0 0 .4 0"/><feOffset dx="4.0" dy="4.0" in="blurOut2" result="blurOut3"/><feBlend in="SourceGraphic" in2="blurOut3" mode="normal"/></filter></defs><g><rect fill="#00AAFF" height="342.9766" style="stroke: #A80036; stroke-width: 1.0;" width="134" x="204" y="4"/><text fill="#000000" font-family="sans-serif" font-size="13" font-weight="bold" lengthAdjust="spacingAndGlyphs" textLength="124" x="207" y="17.4951">Capability Manager</text><rect fill="#00AAFF" height="342.9766" style="stroke: #A80036; stroke-width: 1.0;" width="134" x="627" y="4"/><text fill="#000000" font-family="sans-serif" font-size="13" font-weight="bold" lengthAdjust="spacingAndGlyphs" textLength="124" x="630" y="17.4951">Capability Manager</text><line style="stroke: #A80036; stroke-width: 1.0; stroke-dasharray: 5.0,5.0;" x1="65" x2="65" y1="87.6094" y2="259.3672"/><line style="stroke: #A80036; stroke-width: 1.0; stroke-dasharray: 5.0,5.0;" x1="165" x2="165" y1="87.6094" y2="259.3672"/><line style="stroke: #A80036; stroke-width: 1.0; stroke-dasharray: 5.0,5.0;" x1="270.5" x2="270.5" y1="87.6094" y2="259.3672"/><line style="stroke: #A80036; stroke-width: 1.0; stroke-dasharray: 5.0,5.0;" x1="693.5" x2="693.5" y1="87.6094" y2="259.3672"/><text fill="#000000" font-family="sans-serif" font-size="14" lengthAdjust="spacingAndGlyphs" textLength="108" x="8" y="84.5332">DevOpsEngineer</text><ellipse cx="65" cy="13" fill="#FEFECE" filter="url(#f1rx4trmkdnknx)" rx="8" ry="8" style="stroke: #A80036; stroke-width: 2.0;"/><path d="M65,21 L65,48 M52,29 L78,29 M65,48 L52,63 M65,48 L78,63 " fill="none" filter="url(#f1rx4trmkdnknx)" style="stroke: #A80036; stroke-width: 2.0;"/><text fill="#000000" font-family="sans-serif" font-size="14" lengthAdjust="spacingAndGlyphs" textLength="108" x="8" y="272.9004">DevOpsEngineer</text><ellipse cx="65" cy="285.9766" fill="#FEFECE" filter="url(#f1rx4trmkdnknx)" rx="8" ry="8" style="stroke: #A80036; stroke-width: 2.0;"/><path d="M65,293.9766 L65,320.9766 M52,301.9766 L78,301.9766 M65,320.9766 L52,335.9766 M65,320.9766 L78,335.9766 " fill="none" filter="url(#f1rx4trmkdnknx)" style="stroke: #A80036; stroke-width: 2.0;"/><text fill="#000000" font-family="sans-serif" font-size="14" lengthAdjust="spacingAndGlyphs" textLength="60" x="132" y="84.5332">EventBus</text><ellipse cx="165" cy="54" fill="#FEFECE" filter="url(#f1rx4trmkdnknx)" rx="12" ry="12" style="stroke: #A80036; stroke-width: 2.0;"/><line style="stroke: #A80036; stroke-width: 2.0;" x1="153" x2="177" y1="68" y2="68"/><text fill="#000000" font-family="sans-serif" font-size="14" lengthAdjust="spacingAndGlyphs" textLength="60" x="132" y="272.9004">EventBus</text><ellipse cx="165" cy="291.9766" fill="#FEFECE" filter="url(#f1rx4trmkdnknx)" rx="12" ry="12" style="stroke: #A80036; stroke-width: 2.0;"/><line style="stroke: #A80036; stroke-width: 2.0;" x1="153" x2="177" y1="305.9766" y2="305.9766"/><text fill="#000000" font-family="sans-serif" font-size="14" lengthAdjust="spacingAndGlyphs" textLength="18" x="259" y="84.5332">cm</text><path d="M250.5,42 L250.5,66 M250.5,54 L267.5,54 " fill="none" filter="url(#f1rx4trmkdnknx)" style="stroke: #A80036; stroke-width: 2.0;"/><ellipse cx="279.5" cy="54" fill="#FFFFFF" filter="url(#f1rx4trmkdnknx)" rx="12" ry="12" style="stroke: #A80036; stroke-width: 2.0;"/><text fill="#000000" font-family="sans-serif" font-size="14" lengthAdjust="spacingAndGlyphs" textLength="18" x="259" y="272.9004">cm</text><path d="M250.5,279.9766 L250.5,303.9766 M250.5,291.9766 L267.5,291.9766 " fill="none" filter="url(#f1rx4trmkdnknx)" style="stroke: #A80036; stroke-width: 2.0;"/><ellipse cx="279.5" cy="291.9766" fill="#FFFFFF" filter="url(#f1rx4trmkdnknx)" rx="12" ry="12" style="stroke: #A80036; stroke-width: 2.0;"/><rect fill="#FEFECE" filter="url(#f1rx4trmkdnknx)" height="31.6094" style="stroke: #A80036; stroke-width: 1.5;" width="73" x="655.5" y="51"/><text fill="#000000" font-family="sans-serif" font-size="14" lengthAdjust="spacingAndGlyphs" textLength="59" x="662.5" y="72.5332">capability</text><rect fill="#FEFECE" filter="url(#f1rx4trmkdnknx)" height="31.6094" style="stroke: #A80036; stroke-width: 1.5;" width="73" x="655.5" y="258.3672"/><text fill="#000000" font-family="sans-serif" font-size="14" lengthAdjust="spacingAndGlyphs" textLength="59" x="662.5" y="279.9004">capability</text><polygon fill="#A80036" points="259,115.9609,269,119.9609,259,123.9609,263,119.9609" style="stroke: #A80036; stroke-width: 1.0;"/><line style="stroke: #A80036; stroke-width: 1.0;" x1="65" x2="265" y1="119.9609" y2="119.9609"/><text fill="#000000" font-family="sans-serif" font-size="13" lengthAdjust="spacingAndGlyphs" textLength="99" x="72" y="115.1045">Create Capability</text><polygon fill="#A80036" points="682,146.3125,692,150.3125,682,154.3125,686,150.3125" style="stroke: #A80036; stroke-width: 1.0;"/><line style="stroke: #A80036; stroke-width: 1.0;" x1="271" x2="688" y1="150.3125" y2="150.3125"/><text fill="#000000" font-family="sans-serif" font-size="13" lengthAdjust="spacingAndGlyphs" textLength="336" x="278" y="145.4561">create (name: myCapability1,file: ./templates/capability.js)</text><polygon fill="#A80036" points="176,181.6641,166,181.6641,176,185.6641" style="stroke: #A80036; stroke-width: 1.0;"/><line style="stroke: #A80036; stroke-width: 1.0; stroke-dasharray: 2.0,2.0;" x1="165" x2="693" y1="180.6641" y2="180.6641"/><text fill="#000000" font-family="sans-serif" font-size="13" lengthAdjust="spacingAndGlyphs" textLength="95" x="182" y="175.8076">capability.create</text><polygon fill="#A80036" points="682,207.0156,692,211.0156,682,215.0156,686,211.0156" style="stroke: #A80036; stroke-width: 1.0;"/><line style="stroke: #A80036; stroke-width: 1.0;" x1="271" x2="688" y1="211.0156" y2="211.0156"/><text fill="#000000" font-family="sans-serif" font-size="13" lengthAdjust="spacingAndGlyphs" textLength="336" x="278" y="206.1592">create (name: myCapability2,file: ./templates/capability.js)</text><polygon fill="#A80036" points="176,242.3672,166,242.3672,176,246.3672" style="stroke: #A80036; stroke-width: 1.0;"/><line style="stroke: #A80036; stroke-width: 1.0; stroke-dasharray: 2.0,2.0;" x1="165" x2="693" y1="241.3672" y2="241.3672"/><text fill="#000000" font-family="sans-serif" font-size="13" lengthAdjust="spacingAndGlyphs" textLength="95" x="182" y="236.5107">capability.create</text><!--
@startuml

actor "DevOpsEngineer"


entity EventBus

box Capability Manager #00aaff
    boundary cm #white
end box


box Capability Manager #00aaff
            participant capability
    end box


"DevOpsEngineer" -> cm: Create Capability

    cm -> "capability": create (name: myCapability1,file: ./templates/capability.js)

    "capability" - -/ EventBus: capability.create

    cm -> "capability": create (name: myCapability2,file: ./templates/capability.js)

    "capability" - -/ EventBus: capability.create



@enduml

PlantUML version 1.2019.05(Sat Apr 20 09:45:36 PDT 2019)
(GPL source distribution)
Java Runtime: Java(TM) SE Runtime Environment
JVM: Java HotSpot(TM) 64-Bit Server VM
Java Version: 17.0.7+8-LTS-224
Operating System: Windows 11
OS Version: 10.0
Default Encoding: Cp1252
Language: en
Country: US
--></g></svg>