<?xml version="1.0" encoding="UTF-8" standalone="no"?><svg xmlns="http://www.w3.org/2000/svg" xmlns:xlink="http://www.w3.org/1999/xlink" contentScriptType="application/ecmascript" contentStyleType="text/css" height="418px" preserveAspectRatio="none" style="width:918px;height:418px;" version="1.1" viewBox="0 0 918 418" width="918px" zoomAndPan="magnify"><defs><filter height="300%" id="f1vxjlkcve6yqv" width="300%" x="-1" y="-1"><feGaussianBlur result="blurOut" stdDeviation="2.0"/><feColorMatrix in="blurOut" result="blurOut2" type="matrix" values="0 0 0 0 0 0 0 0 0 0 0 0 0 0 0 0 0 0 .4 0"/><feOffset dx="4.0" dy="4.0" in="blurOut2" result="blurOut3"/><feBlend in="SourceGraphic" in2="blurOut3" mode="normal"/></filter></defs><g><rect fill="#00AAFF" height="403.6797" style="stroke: #A80036; stroke-width: 1.0;" width="134" x="204" y="4"/><text fill="#000000" font-family="sans-serif" font-size="13" font-weight="bold" lengthAdjust="spacingAndGlyphs" textLength="124" x="207" y="17.4951">Capability Manager</text><rect fill="#00AAFF" height="403.6797" style="stroke: #A80036; stroke-width: 1.0;" width="134" x="634" y="4"/><text fill="#000000" font-family="sans-serif" font-size="13" font-weight="bold" lengthAdjust="spacingAndGlyphs" textLength="124" x="637" y="17.4951">Capability Manager</text><line style="stroke: #A80036; stroke-width: 1.0; stroke-dasharray: 5.0,5.0;" x1="65" x2="65" y1="87.6094" y2="320.0703"/><line style="stroke: #A80036; stroke-width: 1.0; stroke-dasharray: 5.0,5.0;" x1="165" x2="165" y1="87.6094" y2="320.0703"/><line style="stroke: #A80036; stroke-width: 1.0; stroke-dasharray: 5.0,5.0;" x1="270.5" x2="270.5" y1="87.6094" y2="320.0703"/><line style="stroke: #A80036; stroke-width: 1.0; stroke-dasharray: 5.0,5.0;" x1="700.5" x2="700.5" y1="87.6094" y2="320.0703"/><line style="stroke: #A80036; stroke-width: 1.0; stroke-dasharray: 5.0,5.0;" x1="842" x2="842" y1="87.6094" y2="320.0703"/><text fill="#000000" font-family="sans-serif" font-size="14" lengthAdjust="spacingAndGlyphs" textLength="108" x="8" y="84.5332">DevOpsEngineer</text><ellipse cx="65" cy="13" fill="#FEFECE" filter="url(#f1vxjlkcve6yqv)" rx="8" ry="8" style="stroke: #A80036; stroke-width: 2.0;"/><path d="M65,21 L65,48 M52,29 L78,29 M65,48 L52,63 M65,48 L78,63 " fill="none" filter="url(#f1vxjlkcve6yqv)" style="stroke: #A80036; stroke-width: 2.0;"/><text fill="#000000" font-family="sans-serif" font-size="14" lengthAdjust="spacingAndGlyphs" textLength="108" x="8" y="333.6035">DevOpsEngineer</text><ellipse cx="65" cy="346.6797" fill="#FEFECE" filter="url(#f1vxjlkcve6yqv)" rx="8" ry="8" style="stroke: #A80036; stroke-width: 2.0;"/><path d="M65,354.6797 L65,381.6797 M52,362.6797 L78,362.6797 M65,381.6797 L52,396.6797 M65,381.6797 L78,396.6797 " fill="none" filter="url(#f1vxjlkcve6yqv)" style="stroke: #A80036; stroke-width: 2.0;"/><text fill="#000000" font-family="sans-serif" font-size="14" lengthAdjust="spacingAndGlyphs" textLength="60" x="132" y="84.5332">EventBus</text><ellipse cx="165" cy="54" fill="#FEFECE" filter="url(#f1vxjlkcve6yqv)" rx="12" ry="12" style="stroke: #A80036; stroke-width: 2.0;"/><line style="stroke: #A80036; stroke-width: 2.0;" x1="153" x2="177" y1="68" y2="68"/><text fill="#000000" font-family="sans-serif" font-size="14" lengthAdjust="spacingAndGlyphs" textLength="60" x="132" y="333.6035">EventBus</text><ellipse cx="165" cy="352.6797" fill="#FEFECE" filter="url(#f1vxjlkcve6yqv)" rx="12" ry="12" style="stroke: #A80036; stroke-width: 2.0;"/><line style="stroke: #A80036; stroke-width: 2.0;" x1="153" x2="177" y1="366.6797" y2="366.6797"/><text fill="#000000" font-family="sans-serif" font-size="14" lengthAdjust="spacingAndGlyphs" textLength="18" x="259" y="84.5332">cm</text><path d="M250.5,42 L250.5,66 M250.5,54 L267.5,54 " fill="none" filter="url(#f1vxjlkcve6yqv)" style="stroke: #A80036; stroke-width: 2.0;"/><ellipse cx="279.5" cy="54" fill="#FFFFFF" filter="url(#f1vxjlkcve6yqv)" rx="12" ry="12" style="stroke: #A80036; stroke-width: 2.0;"/><text fill="#000000" font-family="sans-serif" font-size="14" lengthAdjust="spacingAndGlyphs" textLength="18" x="259" y="333.6035">cm</text><path d="M250.5,340.6797 L250.5,364.6797 M250.5,352.6797 L267.5,352.6797 " fill="none" filter="url(#f1vxjlkcve6yqv)" style="stroke: #A80036; stroke-width: 2.0;"/><ellipse cx="279.5" cy="352.6797" fill="#FFFFFF" filter="url(#f1vxjlkcve6yqv)" rx="12" ry="12" style="stroke: #A80036; stroke-width: 2.0;"/><rect fill="#FEFECE" filter="url(#f1vxjlkcve6yqv)" height="31.6094" style="stroke: #A80036; stroke-width: 1.5;" width="73" x="662.5" y="51"/><text fill="#000000" font-family="sans-serif" font-size="14" lengthAdjust="spacingAndGlyphs" textLength="59" x="669.5" y="72.5332">capability</text><rect fill="#FEFECE" filter="url(#f1vxjlkcve6yqv)" height="31.6094" style="stroke: #A80036; stroke-width: 1.5;" width="73" x="662.5" y="319.0703"/><text fill="#000000" font-family="sans-serif" font-size="14" lengthAdjust="spacingAndGlyphs" textLength="59" x="669.5" y="340.6035">capability</text><rect fill="#FEFECE" filter="url(#f1vxjlkcve6yqv)" height="31.6094" style="stroke: #A80036; stroke-width: 1.5;" width="133" x="774" y="51"/><text fill="#000000" font-family="sans-serif" font-size="14" lengthAdjust="spacingAndGlyphs" textLength="119" x="781" y="72.5332">capability manager</text><rect fill="#FEFECE" filter="url(#f1vxjlkcve6yqv)" height="31.6094" style="stroke: #A80036; stroke-width: 1.5;" width="133" x="774" y="319.0703"/><text fill="#000000" font-family="sans-serif" font-size="14" lengthAdjust="spacingAndGlyphs" textLength="119" x="781" y="340.6035">capability manager</text><polygon fill="#A80036" points="259,115.9609,269,119.9609,259,123.9609,263,119.9609" style="stroke: #A80036; stroke-width: 1.0;"/><line style="stroke: #A80036; stroke-width: 1.0;" x1="65" x2="265" y1="119.9609" y2="119.9609"/><text fill="#000000" font-family="sans-serif" font-size="13" lengthAdjust="spacingAndGlyphs" textLength="86" x="72" y="115.1045">Test Capability</text><polygon fill="#A80036" points="689,146.3125,699,150.3125,689,154.3125,693,150.3125" style="stroke: #A80036; stroke-width: 1.0;"/><line style="stroke: #A80036; stroke-width: 1.0;" x1="271" x2="695" y1="150.3125" y2="150.3125"/><text fill="#000000" font-family="sans-serif" font-size="13" lengthAdjust="spacingAndGlyphs" textLength="343" x="278" y="145.4561">create (name: myCapabilityT1,file: ./templates/capability.js)</text><polygon fill="#A80036" points="176,181.6641,166,181.6641,176,185.6641" style="stroke: #A80036; stroke-width: 1.0;"/><line style="stroke: #A80036; stroke-width: 1.0; stroke-dasharray: 2.0,2.0;" x1="165" x2="700" y1="180.6641" y2="180.6641"/><text fill="#000000" font-family="sans-serif" font-size="13" lengthAdjust="spacingAndGlyphs" textLength="95" x="182" y="175.8076">capability.create</text><polygon fill="#A80036" points="830.5,207.0156,840.5,211.0156,830.5,215.0156,834.5,211.0156" style="stroke: #A80036; stroke-width: 1.0;"/><line style="stroke: #A80036; stroke-width: 1.0;" x1="271" x2="836.5" y1="211.0156" y2="211.0156"/><text fill="#000000" font-family="sans-serif" font-size="13" lengthAdjust="spacingAndGlyphs" textLength="168" x="278" y="206.1592">build (name: myCapabilityT1)</text><polygon fill="#A80036" points="176,242.3672,166,242.3672,176,246.3672" style="stroke: #A80036; stroke-width: 1.0;"/><line style="stroke: #A80036; stroke-width: 1.0; stroke-dasharray: 2.0,2.0;" x1="165" x2="841.5" y1="241.3672" y2="241.3672"/><text fill="#000000" font-family="sans-serif" font-size="13" lengthAdjust="spacingAndGlyphs" textLength="86" x="182" y="236.5107">capability.build</text><polygon fill="#A80036" points="830.5,267.7188,840.5,271.7188,830.5,275.7188,834.5,271.7188" style="stroke: #A80036; stroke-width: 1.0;"/><line style="stroke: #A80036; stroke-width: 1.0;" x1="271" x2="836.5" y1="271.7188" y2="271.7188"/><text fill="#000000" font-family="sans-serif" font-size="13" lengthAdjust="spacingAndGlyphs" textLength="163" x="278" y="266.8623">test (name: myCapabilityT1)</text><polygon fill="#A80036" points="176,303.0703,166,303.0703,176,307.0703" style="stroke: #A80036; stroke-width: 1.0;"/><line style="stroke: #A80036; stroke-width: 1.0; stroke-dasharray: 2.0,2.0;" x1="165" x2="841.5" y1="302.0703" y2="302.0703"/><text fill="#000000" font-family="sans-serif" font-size="13" lengthAdjust="spacingAndGlyphs" textLength="81" x="182" y="297.2139">capability.test</text><!--
@startuml

actor "DevOpsEngineer"


entity EventBus

box Capability Manager #00aaff
    boundary cm #white
end box


box Capability Manager #00aaff
            participant capability
    end box


"DevOpsEngineer" -> cm: Test Capability

    cm -> "capability": create (name: myCapabilityT1,file: ./templates/capability.js)

    "capability" - -/ EventBus: capability.create

    cm -> "capability manager": build (name: myCapabilityT1)

    "capability manager" - -/ EventBus: capability.build

    cm -> "capability manager": test (name: myCapabilityT1)

    "capability manager" - -/ EventBus: capability.test



@enduml

PlantUML version 1.2019.05(Sat Apr 20 09:45:36 PDT 2019)
(GPL source distribution)
Java Runtime: Java(TM) SE Runtime Environment
JVM: Java HotSpot(TM) Client VM
Java Version: 1.8.0_271-b09
Operating System: Windows 10
OS Version: 10.0
Default Encoding: Cp1252
Language: en
Country: US
--></g></svg>