<?xml version="1.0" encoding="us-ascii" standalone="no"?><svg xmlns="http://www.w3.org/2000/svg" xmlns:xlink="http://www.w3.org/1999/xlink" contentStyleType="text/css" height="401px" preserveAspectRatio="none" style="width:912px;height:401px;background:#FFFFFF;" version="1.1" viewBox="0 0 912 401" width="912px" zoomAndPan="magnify"><defs/><g><rect fill="#00AAFF" height="389.6797" style="stroke:#181818;stroke-width:0.5;" width="134" x="201" y="6"/><text fill="#000000" font-family="sans-serif" font-size="13" font-weight="bold" lengthAdjust="spacing" textLength="124" x="204" y="19.4951">Capability Manager</text><rect fill="#00AAFF" height="389.6797" style="stroke:#181818;stroke-width:0.5;" width="134" x="633" y="6"/><text fill="#000000" font-family="sans-serif" font-size="13" font-weight="bold" lengthAdjust="spacing" textLength="124" x="636" y="19.4951">Capability Manager</text><line style="stroke:#181818;stroke-width:0.5;stroke-dasharray:5.0,5.0;" x1="62" x2="62" y1="82.6094" y2="315.0703"/><line style="stroke:#181818;stroke-width:0.5;stroke-dasharray:5.0,5.0;" x1="162" x2="162" y1="82.6094" y2="315.0703"/><line style="stroke:#181818;stroke-width:0.5;stroke-dasharray:5.0,5.0;" x1="267.5" x2="267.5" y1="82.6094" y2="315.0703"/><line style="stroke:#181818;stroke-width:0.5;stroke-dasharray:5.0,5.0;" x1="699.5" x2="699.5" y1="82.6094" y2="315.0703"/><line style="stroke:#181818;stroke-width:0.5;stroke-dasharray:5.0,5.0;" x1="839" x2="839" y1="82.6094" y2="315.0703"/><text fill="#000000" font-family="sans-serif" font-size="14" lengthAdjust="spacing" textLength="108" x="5" y="79.5332">DevOpsEngineer</text><ellipse cx="62" cy="13.5" fill="#E2E2F0" rx="8" ry="8" style="stroke:#181818;stroke-width:0.5;"/><path d="M62,21.5 L62,48.5 M49,29.5 L75,29.5 M62,48.5 L49,63.5 M62,48.5 L75,63.5 " fill="none" style="stroke:#181818;stroke-width:0.5;"/><text fill="#000000" font-family="sans-serif" font-size="14" lengthAdjust="spacing" textLength="108" x="5" y="328.6035">DevOpsEngineer</text><ellipse cx="62" cy="340.1797" fill="#E2E2F0" rx="8" ry="8" style="stroke:#181818;stroke-width:0.5;"/><path d="M62,348.1797 L62,375.1797 M49,356.1797 L75,356.1797 M62,375.1797 L49,390.1797 M62,375.1797 L75,390.1797 " fill="none" style="stroke:#181818;stroke-width:0.5;"/><text fill="#000000" font-family="sans-serif" font-size="14" lengthAdjust="spacing" textLength="60" x="129" y="79.5332">EventBus</text><ellipse cx="162" cy="49" fill="#E2E2F0" rx="12" ry="12" style="stroke:#181818;stroke-width:0.5;"/><line style="stroke:#181818;stroke-width:0.5;" x1="150" x2="174" y1="63" y2="63"/><text fill="#000000" font-family="sans-serif" font-size="14" lengthAdjust="spacing" textLength="60" x="129" y="328.6035">EventBus</text><ellipse cx="162" cy="347.6797" fill="#E2E2F0" rx="12" ry="12" style="stroke:#181818;stroke-width:0.5;"/><line style="stroke:#181818;stroke-width:0.5;" x1="150" x2="174" y1="361.6797" y2="361.6797"/><text fill="#000000" font-family="sans-serif" font-size="14" lengthAdjust="spacing" textLength="18" x="256" y="79.5332">cm</text><path d="M247.5,37 L247.5,61 M247.5,49 L264.5,49 " fill="none" style="stroke:#181818;stroke-width:0.5;"/><ellipse cx="276.5" cy="49" fill="#FFFFFF" rx="12" ry="12" style="stroke:#181818;stroke-width:0.5;"/><text fill="#000000" font-family="sans-serif" font-size="14" lengthAdjust="spacing" textLength="18" x="256" y="328.6035">cm</text><path d="M247.5,335.6797 L247.5,359.6797 M247.5,347.6797 L264.5,347.6797 " fill="none" style="stroke:#181818;stroke-width:0.5;"/><ellipse cx="276.5" cy="347.6797" fill="#FFFFFF" rx="12" ry="12" style="stroke:#181818;stroke-width:0.5;"/><rect fill="#E2E2F0" height="31.6094" rx="2.5" ry="2.5" style="stroke:#181818;stroke-width:0.5;" width="73" x="663.5" y="50"/><text fill="#000000" font-family="sans-serif" font-size="14" lengthAdjust="spacing" textLength="59" x="670.5" y="71.5332">capability</text><rect fill="#E2E2F0" height="31.6094" rx="2.5" ry="2.5" style="stroke:#181818;stroke-width:0.5;" width="73" x="663.5" y="314.0703"/><text fill="#000000" font-family="sans-serif" font-size="14" lengthAdjust="spacing" textLength="59" x="670.5" y="335.6035">capability</text><rect fill="#E2E2F0" height="31.6094" rx="2.5" ry="2.5" style="stroke:#181818;stroke-width:0.5;" width="133" x="773" y="50"/><text fill="#000000" font-family="sans-serif" font-size="14" lengthAdjust="spacing" textLength="119" x="780" y="71.5332">capability manager</text><rect fill="#E2E2F0" height="31.6094" rx="2.5" ry="2.5" style="stroke:#181818;stroke-width:0.5;" width="133" x="773" y="314.0703"/><text fill="#000000" font-family="sans-serif" font-size="14" lengthAdjust="spacing" textLength="119" x="780" y="335.6035">capability manager</text><polygon fill="#181818" points="256,110.9609,266,114.9609,256,118.9609,260,114.9609" style="stroke:#181818;stroke-width:1.0;"/><line style="stroke:#181818;stroke-width:1.0;" x1="62" x2="262" y1="114.9609" y2="114.9609"/><text fill="#000000" font-family="sans-serif" font-size="13" lengthAdjust="spacing" textLength="86" x="69" y="110.1045">Test Capability</text><polygon fill="#181818" points="688,141.3125,698,145.3125,688,149.3125,692,145.3125" style="stroke:#181818;stroke-width:1.0;"/><line style="stroke:#181818;stroke-width:1.0;" x1="268" x2="694" y1="145.3125" y2="145.3125"/><text fill="#000000" font-family="sans-serif" font-size="13" lengthAdjust="spacing" textLength="343" x="275" y="140.4561">create (name: myCapabilityT1,file: ./templates/capability.js)</text><polygon fill="#181818" points="173,176.6641,163,176.6641,173,180.6641" style="stroke:#181818;stroke-width:1.0;"/><line style="stroke:#181818;stroke-width:1.0;stroke-dasharray:2.0,2.0;" x1="162" x2="699" y1="175.6641" y2="175.6641"/><text fill="#000000" font-family="sans-serif" font-size="13" lengthAdjust="spacing" textLength="95" x="179" y="170.8076">capability.create</text><polygon fill="#181818" points="827.5,202.0156,837.5,206.0156,827.5,210.0156,831.5,206.0156" style="stroke:#181818;stroke-width:1.0;"/><line style="stroke:#181818;stroke-width:1.0;" x1="268" x2="833.5" y1="206.0156" y2="206.0156"/><text fill="#000000" font-family="sans-serif" font-size="13" lengthAdjust="spacing" textLength="168" x="275" y="201.1592">build (name: myCapabilityT1)</text><polygon fill="#181818" points="173,237.3672,163,237.3672,173,241.3672" style="stroke:#181818;stroke-width:1.0;"/><line style="stroke:#181818;stroke-width:1.0;stroke-dasharray:2.0,2.0;" x1="162" x2="838.5" y1="236.3672" y2="236.3672"/><text fill="#000000" font-family="sans-serif" font-size="13" lengthAdjust="spacing" textLength="86" x="179" y="231.5107">capability.build</text><polygon fill="#181818" points="827.5,262.7188,837.5,266.7188,827.5,270.7188,831.5,266.7188" style="stroke:#181818;stroke-width:1.0;"/><line style="stroke:#181818;stroke-width:1.0;" x1="268" x2="833.5" y1="266.7188" y2="266.7188"/><text fill="#000000" font-family="sans-serif" font-size="13" lengthAdjust="spacing" textLength="163" x="275" y="261.8623">test (name: myCapabilityT1)</text><polygon fill="#181818" points="173,298.0703,163,298.0703,173,302.0703" style="stroke:#181818;stroke-width:1.0;"/><line style="stroke:#181818;stroke-width:1.0;stroke-dasharray:2.0,2.0;" x1="162" x2="838.5" y1="297.0703" y2="297.0703"/><text fill="#000000" font-family="sans-serif" font-size="13" lengthAdjust="spacing" textLength="81" x="179" y="292.2139">capability.test</text><!--SRC=[hP71JiCm38RlUGghku14st7jWGDZHxJBNi1DtH7Kf57YRklRuxQYhO093lWKsVx_xvU3cji0oGkT3pxktSauef0efSYnuHxsPtayTr6fiht23ZsMfXa6h-ZmH04ssorYNIkGAjlELHXwq1OsbpV393QLjA_gJ_hFyXZOQEFHCUXPCguiVbypG_eat0AE57a5KgDC0iauMSoI0dGWP88xXvOAiFsYEJu-rAQHPfOpMT_8MimNRVOUxoVRjI6aQJwVgrZbpYRGZI1WfqD8eB8pJVLpdk-yMNURE_hzZkNXOFz77UpaUpu0]--></g></svg>