<?xml version="1.0" encoding="us-ascii" standalone="no"?><svg xmlns="http://www.w3.org/2000/svg" xmlns:xlink="http://www.w3.org/1999/xlink" contentStyleType="text/css" height="147px" preserveAspectRatio="none" style="width:171px;height:147px;background:#FFFFFF;" version="1.1" viewBox="0 0 171 147" width="171px" zoomAndPan="magnify"><defs/><g><!--cluster Identity Aspect--><g id="cluster_Identity Aspect"><path d="M8.5,40 L113.5,40 A3.75,3.75 0 0 1 116,42.5 L123,63.6094 L161.5,63.6094 A2.5,2.5 0 0 1 164,66.1094 L164,137.5 A2.5,2.5 0 0 1 161.5,140 L8.5,140 A2.5,2.5 0 0 1 6,137.5 L6,42.5 A2.5,2.5 0 0 1 8.5,40 " fill="#FFBBBB" style="stroke:#000000;stroke-width:1.5;"/><line style="stroke:#000000;stroke-width:1.5;" x1="6" x2="123" y1="63.6094" y2="63.6094"/><text fill="#000000" font-family="sans-serif" font-size="14" font-weight="bold" lengthAdjust="spacing" textLength="104" x="10" y="56.5332">Identity Aspect</text></g><!--class i--><g id="elem_i"><rect codeLine="6" fill="#F1F1F1" height="48" id="i" rx="2.5" ry="2.5" style="stroke:#181818;stroke-width:0.5;" width="125" x="22.5" y="76"/><ellipse cx="37.5" cy="92" fill="#B4A7E5" rx="11" ry="11" style="stroke:#181818;stroke-width:1.0;"/><path d="M38.4531,88.6406 L38.4531,95.2969 L40.1719,95.2969 Q40.7813,95.2969 41.0469,95.5313 Q41.3125,95.7656 41.3125,96.1563 Q41.3125,96.5313 41.0469,96.7656 Q40.7813,97 40.1719,97 L35.0313,97 Q34.4219,97 34.1563,96.7656 Q33.8906,96.5313 33.8906,96.1406 Q33.8906,95.7656 34.1563,95.5313 Q34.4219,95.2969 35.0313,95.2969 L36.75,95.2969 L36.75,88.6406 L35.0313,88.6406 Q34.4219,88.6406 34.1563,88.4063 Q33.8906,88.1719 33.8906,87.7813 Q33.8906,87.4063 34.1563,87.1719 Q34.4219,86.9375 35.0313,86.9375 L40.1719,86.9375 Q40.7813,86.9375 41.0469,87.1719 Q41.3125,87.4063 41.3125,87.7813 Q41.3125,88.1719 41.0469,88.4063 Q40.7813,88.6406 40.1719,88.6406 L38.4531,88.6406 Z " fill="#000000"/><text fill="#000000" font-family="sans-serif" font-size="14" font-style="italic" lengthAdjust="spacing" textLength="93" x="51.5" y="97.7285">Identity Aspect</text><line style="stroke:#181818;stroke-width:0.5;" x1="23.5" x2="146.5" y1="108" y2="108"/><line style="stroke:#181818;stroke-width:0.5;" x1="23.5" x2="146.5" y1="116" y2="116"/></g><g id="elem_ilol4"><ellipse cx="40" cy="11" fill="#F1F1F1" rx="5" ry="5" style="stroke:#181818;stroke-width:1.5;"/></g><text fill="#000000" font-family="sans-serif" font-size="14" lengthAdjust="spacing" textLength="21" x="29.5" y="30.5332">CLI</text><g id="elem_ilol7"><ellipse cx="85" cy="11" fill="#F1F1F1" rx="5" ry="5" style="stroke:#181818;stroke-width:1.5;"/></g><text fill="#000000" font-family="sans-serif" font-size="14" lengthAdjust="spacing" textLength="37" x="66.5" y="30.5332">REST</text><g id="elem_ilol10"><ellipse cx="130" cy="11" fill="#F1F1F1" rx="5" ry="5" style="stroke:#181818;stroke-width:1.5;"/></g><text fill="#000000" font-family="sans-serif" font-size="14" lengthAdjust="spacing" textLength="29" x="115.5" y="30.5332">Web</text><!--link ilol4 to i--><g id="link_ilol4_i"><path d="M41.93,15.74 C47.22,25.95 62.22,54.95 73.03,75.86 " fill="none" id="ilol4-i" style="stroke:#181818;stroke-width:1.0;"/></g><!--link ilol7 to i--><g id="link_ilol7_i"><path d="M85,16.2 C85,26.79 85,55.22 85,75.81 " fill="none" id="ilol7-i" style="stroke:#181818;stroke-width:1.0;"/></g><!--link ilol10 to i--><g id="link_ilol10_i"><path d="M128.07,15.74 C122.78,25.95 107.78,54.95 96.97,75.86 " fill="none" id="ilol10-i" style="stroke:#181818;stroke-width:1.0;"/></g><!--SRC=[AqXCpavCJrLGyan9pIl9BAbKS2mkI4qkKL9GJajB0WA5QYuk1I38p2j9BKfBJCQcDB5O8HEe3gGCJDHorN9nEVjuAcXewkegP785kGQ7mDZXgKam9bS14PQ33GKQnmK0]--></g></svg>