<?xml version="1.0" encoding="UTF-8" standalone="no"?><svg xmlns="http://www.w3.org/2000/svg" xmlns:xlink="http://www.w3.org/1999/xlink" contentScriptType="application/ecmascript" contentStyleType="text/css" height="246px" preserveAspectRatio="none" style="width:322px;height:246px;" version="1.1" viewBox="0 0 322 246" width="322px" zoomAndPan="magnify"><defs><filter height="300%" id="fxfz9yyi6atx6" width="300%" x="-1" y="-1"><feGaussianBlur result="blurOut" stdDeviation="2.0"/><feColorMatrix in="blurOut" result="blurOut2" type="matrix" values="0 0 0 0 0 0 0 0 0 0 0 0 0 0 0 0 0 0 .4 0"/><feOffset dx="4.0" dy="4.0" in="blurOut2" result="blurOut3"/><feBlend in="SourceGraphic" in2="blurOut3" mode="normal"/></filter></defs><g><!--cluster Identity Aspect--><polygon fill="#FFBBBB" filter="url(#fxfz9yyi6atx6)" points="50,24,160,24,167,47.6094,194,47.6094,194,124,50,124,50,24" style="stroke: #000000; stroke-width: 1.5;"/><line style="stroke: #000000; stroke-width: 1.5;" x1="50" x2="167" y1="47.6094" y2="47.6094"/><text fill="#000000" font-family="sans-serif" font-size="14" font-weight="bold" lengthAdjust="spacingAndGlyphs" textLength="104" x="54" y="40.5332">Identity Aspect</text><!--class i--><rect fill="#FEFECE" filter="url(#fxfz9yyi6atx6)" height="48" id="i" style="stroke: #A80036; stroke-width: 1.5;" width="112" x="66" y="60"/><ellipse cx="81" cy="76" fill="#B4A7E5" rx="11" ry="11" style="stroke: #A80036; stroke-width: 1.0;"/><path d="M81.9531,72.6406 L81.9531,79.2969 L83.6719,79.2969 Q84.2813,79.2969 84.5469,79.5313 Q84.8125,79.7656 84.8125,80.1563 Q84.8125,80.5313 84.5469,80.7656 Q84.2813,81 83.6719,81 L78.5313,81 Q77.9219,81 77.6563,80.7656 Q77.3906,80.5313 77.3906,80.1406 Q77.3906,79.7656 77.6563,79.5313 Q77.9219,79.2969 78.5313,79.2969 L80.25,79.2969 L80.25,72.6406 L78.5313,72.6406 Q77.9219,72.6406 77.6563,72.4063 Q77.3906,72.1719 77.3906,71.7813 Q77.3906,71.4063 77.6563,71.1719 Q77.9219,70.9375 78.5313,70.9375 L83.6719,70.9375 Q84.2813,70.9375 84.5469,71.1719 Q84.8125,71.4063 84.8125,71.7813 Q84.8125,72.1719 84.5469,72.4063 Q84.2813,72.6406 83.6719,72.6406 L81.9531,72.6406 Z "/><text fill="#000000" font-family="sans-serif" font-size="12" font-style="italic" lengthAdjust="spacingAndGlyphs" textLength="80" x="95" y="80.9102">Identity Aspect</text><line style="stroke: #A80036; stroke-width: 1.5;" x1="67" x2="177" y1="92" y2="92"/><line style="stroke: #A80036; stroke-width: 1.5;" x1="67" x2="177" y1="100" y2="100"/><!--entity REST--><ellipse cx="33" cy="201" fill="#FEFECE" filter="url(#fxfz9yyi6atx6)" rx="8" ry="8" style="stroke: #A80036; stroke-width: 2.0;"/><text fill="#000000" font-family="sans-serif" font-size="14" lengthAdjust="spacingAndGlyphs" textLength="37" x="14.5" y="232.5332">REST</text><!--entity Web--><ellipse cx="122" cy="201" fill="#FEFECE" filter="url(#fxfz9yyi6atx6)" rx="8" ry="8" style="stroke: #A80036; stroke-width: 2.0;"/><text fill="#000000" font-family="sans-serif" font-size="14" lengthAdjust="spacingAndGlyphs" textLength="29" x="107.5" y="232.5332">Web</text><!--entity CLI--><ellipse cx="211" cy="201" fill="#FEFECE" filter="url(#fxfz9yyi6atx6)" rx="8" ry="8" style="stroke: #A80036; stroke-width: 2.0;"/><text fill="#000000" font-family="sans-serif" font-size="14" lengthAdjust="spacingAndGlyphs" textLength="21" x="200.5" y="232.5332">CLI</text><!--entity WebSocket--><ellipse cx="274" cy="84" fill="#FEFECE" filter="url(#fxfz9yyi6atx6)" rx="8" ry="8" style="stroke: #A80036; stroke-width: 2.0;"/><text fill="#000000" font-family="sans-serif" font-size="14" lengthAdjust="spacingAndGlyphs" textLength="72" x="238" y="115.5332">WebSocket</text><!--link i to Web--><path d="M122,108.272 C122,134.1308 122,174.5106 122,191.7497 " fill="none" id="i-Web" style="stroke: #A80036; stroke-width: 1.0;"/><!--link i to CLI--><path d="M140.01,108.272 C160.023,134.1308 191.273,174.5106 204.615,191.7497 " fill="none" id="i-CLI" style="stroke: #A80036; stroke-width: 1.0;"/><!--link i to REST--><path d="M103.9895,108.272 C83.977,134.1308 52.7266,174.5106 39.385,191.7497 " fill="none" id="i-REST" style="stroke: #A80036; stroke-width: 1.0;"/><!--link i to WebSocket--><path d="M178.167,84 C210.473,84 247.918,84 264.851,84 " fill="none" id="i-WebSocket" style="stroke: #A80036; stroke-width: 1.0;"/><polygon fill="#000000" points="203.5,70.6758,197.5,73.6758,203.5,76.6758,203.5,70.6758" style="stroke: #000000; stroke-width: 1.0;"/><text fill="#000000" font-family="sans-serif" font-size="13" lengthAdjust="spacingAndGlyphs" textLength="37" x="209.5" y="77.4951">events</text><!--
@startuml



package "Identity Aspect" #ffbbbb {

    interface "Identity Aspect" as i {
    
    
    }
}

circle REST
circle Web
circle CLI
circle WebSocket

i -down- Web
i -down- CLI
i -down- REST
WebSocket -left- i: events >

package "Identity Aspect" #ffbbbb {


}



@enduml

PlantUML version 1.2019.05(Sat Apr 20 09:45:36 PDT 2019)
(GPL source distribution)
Java Runtime: Java(TM) SE Runtime Environment
JVM: Java HotSpot(TM) Client VM
Java Version: 1.8.0_271-b09
Operating System: Windows 10
OS Version: 10.0
Default Encoding: Cp1252
Language: en
Country: US
--></g></svg>