<?xml version="1.0" encoding="us-ascii" standalone="no"?><svg xmlns="http://www.w3.org/2000/svg" xmlns:xlink="http://www.w3.org/1999/xlink" contentStyleType="text/css" height="223px" preserveAspectRatio="none" style="width:314px;height:223px;background:#FFFFFF;" version="1.1" viewBox="0 0 314 223" width="314px" zoomAndPan="magnify"><defs/><g><!--cluster Identity Aspect--><g id="cluster_Identity Aspect"><path d="M37,6 L142,6 A3.75,3.75 0 0 1 144.5,8.5 L151.5,29.6094 L190,29.6094 A2.5,2.5 0 0 1 192.5,32.1094 L192.5,103.5 A2.5,2.5 0 0 1 190,106 L37,106 A2.5,2.5 0 0 1 34.5,103.5 L34.5,8.5 A2.5,2.5 0 0 1 37,6 " fill="#FFBBBB" style="stroke:#000000;stroke-width:1.5;"/><line style="stroke:#000000;stroke-width:1.5;" x1="34.5" x2="151.5" y1="29.6094" y2="29.6094"/><text fill="#000000" font-family="sans-serif" font-size="14" font-weight="bold" lengthAdjust="spacing" textLength="104" x="38.5" y="22.5332">Identity Aspect</text></g><!--class i--><g id="elem_i"><rect codeLine="6" fill="#F1F1F1" height="48" id="i" rx="2.5" ry="2.5" style="stroke:#181818;stroke-width:0.5;" width="125" x="51" y="42"/><ellipse cx="66" cy="58" fill="#B4A7E5" rx="11" ry="11" style="stroke:#181818;stroke-width:1.0;"/><path d="M66.9531,54.6406 L66.9531,61.2969 L68.6719,61.2969 Q69.2813,61.2969 69.5469,61.5313 Q69.8125,61.7656 69.8125,62.1563 Q69.8125,62.5313 69.5469,62.7656 Q69.2813,63 68.6719,63 L63.5313,63 Q62.9219,63 62.6563,62.7656 Q62.3906,62.5313 62.3906,62.1406 Q62.3906,61.7656 62.6563,61.5313 Q62.9219,61.2969 63.5313,61.2969 L65.25,61.2969 L65.25,54.6406 L63.5313,54.6406 Q62.9219,54.6406 62.6563,54.4063 Q62.3906,54.1719 62.3906,53.7813 Q62.3906,53.4063 62.6563,53.1719 Q62.9219,52.9375 63.5313,52.9375 L68.6719,52.9375 Q69.2813,52.9375 69.5469,53.1719 Q69.8125,53.4063 69.8125,53.7813 Q69.8125,54.1719 69.5469,54.4063 Q69.2813,54.6406 68.6719,54.6406 L66.9531,54.6406 Z " fill="#000000"/><text fill="#000000" font-family="sans-serif" font-size="14" font-style="italic" lengthAdjust="spacing" textLength="93" x="80" y="63.7285">Identity Aspect</text><line style="stroke:#181818;stroke-width:0.5;" x1="52" x2="175" y1="74" y2="74"/><line style="stroke:#181818;stroke-width:0.5;" x1="52" x2="175" y1="82" y2="82"/></g><!--entity REST--><g id="elem_REST"><ellipse cx="24.5" cy="183" fill="#F1F1F1" rx="8" ry="8" style="stroke:#181818;stroke-width:0.5;"/><text fill="#000000" font-family="sans-serif" font-size="14" lengthAdjust="spacing" textLength="37" x="6" y="214.5332">REST</text></g><!--entity Web--><g id="elem_Web"><ellipse cx="113.5" cy="183" fill="#F1F1F1" rx="8" ry="8" style="stroke:#181818;stroke-width:0.5;"/><text fill="#000000" font-family="sans-serif" font-size="14" lengthAdjust="spacing" textLength="29" x="99" y="214.5332">Web</text></g><!--entity CLI--><g id="elem_CLI"><ellipse cx="202.5" cy="183" fill="#F1F1F1" rx="8" ry="8" style="stroke:#181818;stroke-width:0.5;"/><text fill="#000000" font-family="sans-serif" font-size="14" lengthAdjust="spacing" textLength="21" x="192" y="214.5332">CLI</text></g><!--entity WebSocket--><g id="elem_WebSocket"><ellipse cx="271.5" cy="66" fill="#F1F1F1" rx="8" ry="8" style="stroke:#181818;stroke-width:0.5;"/><text fill="#000000" font-family="sans-serif" font-size="14" lengthAdjust="spacing" textLength="72" x="235.5" y="97.5332">WebSocket</text></g><!--link i to Web--><g id="link_i_Web"><path codeLine="17" d="M113.5,90.27 C113.5,116.13 113.5,156.51 113.5,173.75 " fill="none" id="i-Web" style="stroke:#181818;stroke-width:1.0;"/></g><!--link i to CLI--><g id="link_i_CLI"><path codeLine="18" d="M131.51,90.27 C151.52,116.13 182.77,156.51 196.11,173.75 " fill="none" id="i-CLI" style="stroke:#181818;stroke-width:1.0;"/></g><!--link i to REST--><g id="link_i_REST"><path codeLine="19" d="M95.49,90.27 C75.48,116.13 44.23,156.51 30.89,173.75 " fill="none" id="i-REST" style="stroke:#181818;stroke-width:1.0;"/></g><!--link i to WebSocket--><g id="link_i_WebSocket"><path codeLine="20" d="M176.4,66 C209.1,66 245.65,66 262.32,66 " fill="none" id="i-WebSocket" style="stroke:#181818;stroke-width:1.0;"/><polygon fill="#000000" points="193.25,54.1758,202.2951,57.1147,202.2951,51.2369,193.25,54.1758" style="stroke:#000000;stroke-width:1.0;"/><text fill="#000000" font-family="sans-serif" font-size="13" lengthAdjust="spacing" textLength="37" x="207.25" y="59.4951">events</text></g><!--SRC=[ZO-n2i9038RtF4Meyxs0Wo3YK72oWlCrpKbekHwze8ZqtRqhz7HmC4Fu__0b_0cMUdjZhEgElOe-SHy3arQuSQvDXIy0J2LUUNAMVg4seYGkOvysmmn0Cj70U3usbrLVkLtbuLH_JPkHUbO0GTED3syMifZC5hFSAoje1dPgKBR8znGjuWuW_FDOZWXl]--></g></svg>