<?xml version="1.0" encoding="UTF-8" standalone="no"?><svg xmlns="http://www.w3.org/2000/svg" xmlns:xlink="http://www.w3.org/1999/xlink" contentScriptType="application/ecmascript" contentStyleType="text/css" height="196px" preserveAspectRatio="none" style="width:180px;height:196px;" version="1.1" viewBox="0 0 180 196" width="180px" zoomAndPan="magnify"><defs><filter height="300%" id="fkhwnhx0gkcwu" width="300%" x="-1" y="-1"><feGaussianBlur result="blurOut" stdDeviation="2.0"/><feColorMatrix in="blurOut" result="blurOut2" type="matrix" values="0 0 0 0 0 0 0 0 0 0 0 0 0 0 0 0 0 0 .4 0"/><feOffset dx="4.0" dy="4.0" in="blurOut2" result="blurOut3"/><feBlend in="SourceGraphic" in2="blurOut3" mode="normal"/></filter></defs><g><!--entity Build--><rect fill="#ADD8E6" filter="url(#fkhwnhx0gkcwu)" height="37.6094" style="stroke: #000000; stroke-width: 1.5;" width="51" x="6" y="148"/><text fill="#000000" font-family="sans-serif" font-size="14" lengthAdjust="spacingAndGlyphs" textLength="31" x="16" y="172.5332">Build</text><!--entity BuildRun--><rect fill="#ADD8E6" filter="url(#fkhwnhx0gkcwu)" height="37.6094" style="stroke: #000000; stroke-width: 1.5;" width="77" x="92" y="148"/><text fill="#000000" font-family="sans-serif" font-size="14" lengthAdjust="spacingAndGlyphs" textLength="57" x="102" y="172.5332">BuildRun</text><!--class Model--><rect fill="#FEFECE" filter="url(#fkhwnhx0gkcwu)" height="61.8359" id="Model" style="stroke: #A80036; stroke-width: 1.5;" width="101" x="30" y="8"/><ellipse cx="45" cy="24" fill="#ADD1B2" rx="11" ry="11" style="stroke: #A80036; stroke-width: 1.0;"/><path d="M47.7656,19.875 Q47.9219,19.6563 48.1094,19.5469 Q48.2969,19.4375 48.5156,19.4375 Q48.8906,19.4375 49.125,19.6953 Q49.3594,19.9531 49.3594,20.5625 L49.3594,22.0156 Q49.3594,22.625 49.125,22.8906 Q48.8906,23.1563 48.5156,23.1563 Q48.1719,23.1563 47.9688,22.9531 Q47.7656,22.7656 47.6563,22.25 Q47.6094,21.8906 47.4219,21.7031 Q47.0938,21.3281 46.4844,21.1094 Q45.875,20.8906 45.25,20.8906 Q44.4844,20.8906 43.8516,21.2188 Q43.2188,21.5469 42.7266,22.2969 Q42.2344,23.0469 42.2344,24.0781 L42.2344,25.1719 Q42.2344,26.4063 43.125,27.2266 Q44.0156,28.0469 45.6094,28.0469 Q46.5469,28.0469 47.2031,27.7969 Q47.5938,27.6406 48.0156,27.2031 Q48.2813,26.9375 48.4297,26.8594 Q48.5781,26.7813 48.7813,26.7813 Q49.1094,26.7813 49.3672,27.0391 Q49.625,27.2969 49.625,27.6406 Q49.625,27.9844 49.2813,28.3906 Q48.7813,28.9688 47.9844,29.2969 Q46.9063,29.75 45.6094,29.75 Q44.0938,29.75 42.8906,29.125 Q41.9063,28.625 41.2188,27.5547 Q40.5313,26.4844 40.5313,25.2031 L40.5313,24.0469 Q40.5313,22.7188 41.1484,21.5703 Q41.7656,20.4219 42.8594,19.8047 Q43.9531,19.1875 45.1875,19.1875 Q45.9219,19.1875 46.5703,19.3516 Q47.2188,19.5156 47.7656,19.875 Z "/><text fill="#000000" font-family="sans-serif" font-size="12" lengthAdjust="spacingAndGlyphs" textLength="69" x="59" y="28.9102">Environment</text><line style="stroke: #A80036; stroke-width: 1.5;" x1="31" x2="130" y1="40" y2="40"/><text fill="#000000" font-family="sans-serif" font-size="11" lengthAdjust="spacingAndGlyphs" textLength="56" x="36" y="55.4189">string name</text><line style="stroke: #A80036; stroke-width: 1.5;" x1="31" x2="130" y1="61.8359" y2="61.8359"/><!--link Model to Build--><path d="M59.1644,82.042 C56.4365,88.0063 53.7985,94.1129 51.5,100 C47.104,111.2593 43.0649,123.9021 39.7849,135.0863 " fill="none" id="Model-Build" style="stroke: #A80036; stroke-width: 1.0;"/><polygon fill="#A80036" points="36.1874,147.8142,42.4846,140.2415,37.5474,143.0027,34.7862,138.0655,36.1874,147.8142" style="stroke: #A80036; stroke-width: 1.0;"/><line style="stroke: #A80036; stroke-width: 1.0;" x1="37.5474" x2="39.7233" y1="143.0027" y2="135.3043"/><polygon fill="#FFFFFF" points="64.8103,70.115,58.6276,73.8263,59.6755,80.9609,65.8582,77.2496,64.8103,70.115" style="stroke: #A80036; stroke-width: 1.0;"/><text fill="#000000" font-family="sans-serif" font-size="13" lengthAdjust="spacingAndGlyphs" textLength="34" x="52.5" y="114.4951">builds</text><text fill="#000000" font-family="sans-serif" font-size="13" lengthAdjust="spacingAndGlyphs" textLength="7" x="29.551" y="137.0973">n</text><!--link Model to BuildRun--><path d="M97.3224,82.392 C104.2162,99.7649 112.042,119.4869 118.362,135.4117 " fill="none" id="Model-BuildRun" style="stroke: #A80036; stroke-width: 1.0;"/><polygon fill="#A80036" points="123.262,147.7606,123.6602,137.9198,121.4177,143.1132,116.2243,140.8707,123.262,147.7606" style="stroke: #A80036; stroke-width: 1.0;"/><line style="stroke: #A80036; stroke-width: 1.0;" x1="121.4177" x2="118.467" y1="143.1132" y2="135.6771"/><polygon fill="#FFFFFF" points="92.4762,70.18,90.9717,77.2324,96.9029,81.3337,98.4074,74.2813,92.4762,70.18" style="stroke: #A80036; stroke-width: 1.0;"/><text fill="#000000" font-family="sans-serif" font-size="13" lengthAdjust="spacingAndGlyphs" textLength="25" x="111.5" y="114.4951">runs</text><text fill="#000000" font-family="sans-serif" font-size="13" lengthAdjust="spacingAndGlyphs" textLength="7" x="112.9735" y="137.0273">n</text><!--
@startuml

class "Environment" as Model {
 string name

 
}

rectangle "Build" as Build #lightblue {
}

Model o- -> "n" Build : builds


rectangle "BuildRun" as BuildRun #lightblue {
}

Model o- -> "n" BuildRun : runs





@enduml

PlantUML version 1.2019.05(Sat Apr 20 09:45:36 PDT 2019)
(GPL source distribution)
Java Runtime: Java(TM) SE Runtime Environment
JVM: Java HotSpot(TM) Client VM
Java Version: 1.8.0_271-b09
Operating System: Windows 10
OS Version: 10.0
Default Encoding: Cp1252
Language: en
Country: US
--></g></svg>