<?xml version="1.0" encoding="us-ascii" standalone="no"?><svg xmlns="http://www.w3.org/2000/svg" xmlns:xlink="http://www.w3.org/1999/xlink" contentStyleType="text/css" height="434px" preserveAspectRatio="none" style="width:711px;height:434px;background:#FFFFFF;" version="1.1" viewBox="0 0 711 434" width="711px" zoomAndPan="magnify"><defs/><g><!--cluster sabr_diml_dsmStack--><g id="cluster_sabr_diml_dsmStack"><rect fill="#FFCC88" height="115" rx="2.5" ry="2.5" style="stroke:#181818;stroke-width:1.0;" width="121" x="580" y="7"/><text fill="#000000" font-family="sans-serif" font-size="14" font-weight="bold" lengthAdjust="spacing" textLength="105" x="588" y="23.5332">sabr_diml_dsm</text></g><!--cluster sabr_diml_sabmStack--><g id="cluster_sabr_diml_sabmStack"><rect fill="#FFCC88" height="115" rx="2.5" ry="2.5" style="stroke:#181818;stroke-width:1.0;" width="129" x="576" y="183"/><text fill="#000000" font-family="sans-serif" font-size="14" font-weight="bold" lengthAdjust="spacing" textLength="113" x="584" y="199.5332">sabr_diml_sabm</text></g><!--cluster sabr_diml--><g id="cluster_sabr_diml"><path d="M8.5,54 L77.5,54 A3.75,3.75 0 0 1 80,56.5 L87,77.6094 L541.5,77.6094 A2.5,2.5 0 0 1 544,80.1094 L544,360.5 A2.5,2.5 0 0 1 541.5,363 L8.5,363 A2.5,2.5 0 0 1 6,360.5 L6,56.5 A2.5,2.5 0 0 1 8.5,54 " fill="#FFCC88" style="stroke:#000000;stroke-width:1.5;"/><line style="stroke:#000000;stroke-width:1.5;" x1="6" x2="87" y1="77.6094" y2="77.6094"/><text fill="#000000" font-family="sans-serif" font-size="14" font-weight="bold" lengthAdjust="spacing" textLength="68" x="10" y="70.5332">sabr_diml</text></g><!--entity sabr_diml_dsmStacksnet--><g id="elem_sabr_diml_dsmStacksnet"><path d="M612,51 L668,51 C673,51 673,64.8047 673,64.8047 C673,64.8047 673,78.6094 668,78.6094 L612,78.6094 C607,78.6094 607,64.8047 607,64.8047 C607,64.8047 607,51 612,51 " fill="#0000FF" style="stroke:#181818;stroke-width:0.5;"/><path d="M668,51 C663,51 663,64.8047 663,64.8047 C663,78.6094 668,78.6094 668,78.6094 " fill="none" style="stroke:#181818;stroke-width:0.5;"/><text fill="#FFFFFF" font-family="sans-serif" font-size="14" font-weight="bold" lengthAdjust="spacing" textLength="46" x="612" y="70.5332">parent</text></g><!--entity sabr_diml_sabmStacksnet--><g id="elem_sabr_diml_sabmStacksnet"><path d="M612,227 L668,227 C673,227 673,240.8047 673,240.8047 C673,240.8047 673,254.6094 668,254.6094 L612,254.6094 C607,254.6094 607,240.8047 607,240.8047 C607,240.8047 607,227 612,227 " fill="#0000FF" style="stroke:#181818;stroke-width:0.5;"/><path d="M668,227 C663,227 663,240.8047 663,240.8047 C663,254.6094 668,254.6094 668,254.6094 " fill="none" style="stroke:#181818;stroke-width:0.5;"/><text fill="#FFFFFF" font-family="sans-serif" font-size="14" font-weight="bold" lengthAdjust="spacing" textLength="46" x="612" y="246.5332">parent</text></g><!--entity parentnet--><g id="elem_parentnet"><path d="M31.5,319 L87.5,319 C92.5,319 92.5,332.8047 92.5,332.8047 C92.5,332.8047 92.5,346.6094 87.5,346.6094 L31.5,346.6094 C26.5,346.6094 26.5,332.8047 26.5,332.8047 C26.5,332.8047 26.5,319 31.5,319 " fill="#000000" style="stroke:#181818;stroke-width:0.5;"/><path d="M87.5,319 C82.5,319 82.5,332.8047 82.5,332.8047 C82.5,346.6094 87.5,346.6094 87.5,346.6094 " fill="none" style="stroke:#181818;stroke-width:0.5;"/><text fill="#FFFFFF" font-family="sans-serif" font-size="14" font-weight="bold" lengthAdjust="spacing" textLength="46" x="31.5" y="338.5332">parent</text></g><!--entity childrennet--><g id="elem_childrennet"><path d="M162,226 L230,226 C235,226 235,239.8047 235,239.8047 C235,239.8047 235,253.6094 230,253.6094 L162,253.6094 C157,253.6094 157,239.8047 157,239.8047 C157,239.8047 157,226 162,226 " fill="#0000FF" style="stroke:#181818;stroke-width:0.5;"/><path d="M230,226 C225,226 225,239.8047 225,239.8047 C225,253.6094 230,253.6094 230,253.6094 " fill="none" style="stroke:#181818;stroke-width:0.5;"/><text fill="#FFFFFF" font-family="sans-serif" font-size="14" font-weight="bold" lengthAdjust="spacing" textLength="58" x="162" y="245.5332">children</text></g><!--entity siblingsnet--><g id="elem_siblingsnet"><path d="M27,173 L92,173 C97,173 97,186.8047 97,186.8047 C97,186.8047 97,200.6094 92,200.6094 L27,200.6094 C22,200.6094 22,186.8047 22,186.8047 C22,186.8047 22,173 27,173 " fill="#FF0000" style="stroke:#181818;stroke-width:0.5;"/><path d="M92,173 C87,173 87,186.8047 87,186.8047 C87,200.6094 92,200.6094 92,200.6094 " fill="none" style="stroke:#181818;stroke-width:0.5;"/><text fill="#FFFFFF" font-family="sans-serif" font-size="14" font-weight="bold" lengthAdjust="spacing" textLength="55" x="27" y="192.5332">siblings</text></g><!--entity dsmService--><g id="elem_dsmService"><polygon fill="#F1F1F1" points="26.5,100,36.5,90,92.5,90,92.5,127.6094,82.5,137.6094,26.5,137.6094,26.5,100" style="stroke:#181818;stroke-width:0.5;"/><line style="stroke:#181818;stroke-width:0.5;" x1="82.5" x2="92.5" y1="100" y2="90"/><line style="stroke:#181818;stroke-width:0.5;" x1="26.5" x2="82.5" y1="100" y2="100"/><line style="stroke:#181818;stroke-width:0.5;" x1="82.5" x2="82.5" y1="100" y2="137.6094"/><text fill="#000000" font-family="sans-serif" font-size="14" lengthAdjust="spacing" textLength="26" x="41.5" y="124.5332">dsm</text></g><!--entity sabmService--><g id="elem_sabmService"><polygon fill="#F1F1F1" points="22.5,246,32.5,236,96.5,236,96.5,273.6094,86.5,283.6094,22.5,283.6094,22.5,246" style="stroke:#181818;stroke-width:0.5;"/><line style="stroke:#181818;stroke-width:0.5;" x1="86.5" x2="96.5" y1="246" y2="236"/><line style="stroke:#181818;stroke-width:0.5;" x1="22.5" x2="86.5" y1="246" y2="246"/><line style="stroke:#181818;stroke-width:0.5;" x1="86.5" x2="86.5" y1="246" y2="283.6094"/><text fill="#000000" font-family="sans-serif" font-size="14" lengthAdjust="spacing" textLength="34" x="37.5" y="270.5332">sabm</text></g><!--entity sabr_diml_dsmimage--><g id="elem_sabr_diml_dsmimage"><rect fill="#F1F1F1" height="33.6094" rx="2.5" ry="2.5" style="stroke:#181818;stroke-width:0.5;" width="111" x="413" y="99"/><rect fill="#F1F1F1" height="33.6094" rx="2.5" ry="2.5" style="stroke:#181818;stroke-width:0.5;" width="111" x="409" y="95"/><text fill="#000000" font-family="sans-serif" font-size="14" lengthAdjust="spacing" textLength="95" x="417" y="117.5332">sabr_diml_dsm</text></g><!--entity sabr_diml_sabmimage--><g id="elem_sabr_diml_sabmimage"><rect fill="#F1F1F1" height="33.6094" rx="2.5" ry="2.5" style="stroke:#181818;stroke-width:0.5;" width="119" x="409" y="275"/><rect fill="#F1F1F1" height="33.6094" rx="2.5" ry="2.5" style="stroke:#181818;stroke-width:0.5;" width="119" x="405" y="271"/><text fill="#000000" font-family="sans-serif" font-size="14" lengthAdjust="spacing" textLength="103" x="413" y="293.5332">sabr_diml_sabm</text></g><!--entity parent--><g id="elem_parent"><path d="M175.5,383 L175.5,407 M175.5,395 L192.5,395 " fill="none" style="stroke:#181818;stroke-width:0.5;"/><ellipse cx="204.5" cy="395" fill="#000000" rx="12" ry="12" style="stroke:#181818;stroke-width:0.5;"/><text fill="#000000" font-family="sans-serif" font-size="14" lengthAdjust="spacing" textLength="41" x="175.5" y="425.5332">parent</text></g><!--entity children--><g id="elem_children"><ellipse cx="320" cy="395" fill="#0000FF" rx="12" ry="12" style="stroke:#181818;stroke-width:0.5;"/><line style="stroke:#181818;stroke-width:0.5;" x1="308" x2="332" y1="409" y2="409"/><text fill="#000000" font-family="sans-serif" font-size="14" lengthAdjust="spacing" textLength="50" x="295" y="425.5332">children</text></g><!--link parentnet to parent--><g id="link_parentnet_parent"><path d="M87.07,347.03 C111.57,359.96 147.61,378.98 171.19,391.43 " fill="none" id="parentnet-parent" style="stroke:#000000;stroke-width:1.0;"/></g><!--link childrennet to children--><g id="link_childrennet_children"><path d="M207.61,254.27 C228.31,282.09 274.3,343.91 300.25,378.79 " fill="none" id="childrennet-children" style="stroke:#0000FF;stroke-width:1.0;"/></g><!--link dsmService to childrennet--><g id="link_dsmService_childrennet"><path d="M86.43,138.29 C114.22,164.32 157.37,204.75 180,225.94 " fill="none" id="dsmService-childrennet" style="stroke:#0000FF;stroke-width:1.0;"/></g><!--link sabmService to childrennet--><g id="link_sabmService_childrennet"><path d="M96.54,254.64 C115.22,251.86 138.02,248.47 156.97,245.65 " fill="none" id="sabmService-childrennet" style="stroke:#0000FF;stroke-width:1.0;"/></g><!--link dsmService to sabr_diml_dsmimage--><g id="link_dsmService_sabr_diml_dsmimage"><path d="M92.62,114 C161.19,114 322.65,114 408.89,114 " fill="none" id="dsmService-sabr_diml_dsmimage" style="stroke:#181818;stroke-width:1.0;stroke-dasharray:7.0,7.0;"/></g><!--link sabmService to sabr_diml_sabmimage--><g id="link_sabmService_sabr_diml_sabmimage"><path d="M96.66,264.57 C114.75,266.75 137.01,269.25 157,271 C242.93,278.54 342.58,284.1 404.84,287.2 " fill="none" id="sabmService-sabr_diml_sabmimage" style="stroke:#181818;stroke-width:1.0;stroke-dasharray:7.0,7.0;"/></g><!--link sabr_diml_dsmimage to sabr_diml_dsmStack--><g id="link_sabr_diml_dsmimage_sabr_diml_dsmStack"><path d="M524.13,114 C536.4225,114 549.6219,114 562.5372,114 C565.766,114 568.9771,114 572.1518,114 C573.7392,114 575.3174,114 576.8843,114 C577.6677,114 578.4483,114 579.2257,114 C579.42,114 573.6142,114 573.8082,114 " fill="none" id="sabr_diml_dsmimage-to-sabr_diml_dsmStack" style="stroke:#181818;stroke-width:1.0;"/><polygon fill="#181818" points="579.8082,114,570.8082,110,574.8082,114,570.8082,118,579.8082,114" style="stroke:#181818;stroke-width:1.0;"/></g><!--link sabr_diml_sabmimage to sabr_diml_sabmStack--><g id="link_sabr_diml_sabmimage_sabr_diml_sabmStack"><path d="M528.45,290 C540.58,290 553.435,290 565.9236,290 C569.0457,290 572.145,290 575.2043,290 C575.3955,290 569.5865,290 569.7774,290 " fill="none" id="sabr_diml_sabmimage-to-sabr_diml_sabmStack" style="stroke:#181818;stroke-width:1.0;"/><polygon fill="#181818" points="575.7774,290,566.7774,286,570.7774,290,566.7774,294,575.7774,290" style="stroke:#181818;stroke-width:1.0;"/></g><!--SRC=[fLDDRuCm3BtdLrZqp7gj9iIVsB6ggf0O6Ys4BeHErRJ_FeUKZxAmRfeF4TZFxpsCex5qu1gmgZevaCgYSAenZB6YwOpazWfdRj4us1IQYrSgq8joLn0dfILLVA53ndmdDvL6I5fUsADKjJxAjaw0jt2NUN5419ko56AtWmy656yTTXY1jGPTK81z3_IH5Nac6jtOv_UJSfW7Xzcsp-NPjiXxw85znbtHqzAMJ_t6ruZxhp6ACz7mQkuiYQe7bfkUjpW9_adKd_qn4QRxG7b8Rya95BI7lnpxsfZuWFz9VixP6-YGz8Viqa6h2grC5UPjKJumCC3N333JI1hvi9X-pz1UbC1RORuROsbK94uTRaZxSCrLJJ_tpkjAzyewJlr-NIQZaPdHR1YR6Lw1p3YUA69svoGBpEI9VM-4DCqZrpVOZt0iyEEr2WrV]--></g></svg>