<?xml version="1.0" encoding="UTF-8" standalone="no"?><svg xmlns="http://www.w3.org/2000/svg" xmlns:xlink="http://www.w3.org/1999/xlink" contentScriptType="application/ecmascript" contentStyleType="text/css" height="464px" preserveAspectRatio="none" style="width:732px;height:464px;" version="1.1" viewBox="0 0 732 464" width="732px" zoomAndPan="magnify"><defs><filter height="300%" id="f1mpbjm3842pec" width="300%" x="-1" y="-1"><feGaussianBlur result="blurOut" stdDeviation="2.0"/><feColorMatrix in="blurOut" result="blurOut2" type="matrix" values="0 0 0 0 0 0 0 0 0 0 0 0 0 0 0 0 0 0 .4 0"/><feOffset dx="4.0" dy="4.0" in="blurOut2" result="blurOut3"/><feBlend in="SourceGraphic" in2="blurOut3" mode="normal"/></filter></defs><g><!--cluster sabr_diml_dsmStack--><rect fill="#FFCC88" filter="url(#f1mpbjm3842pec)" height="115" style="stroke: #000000; stroke-width: 1.5;" width="121" x="596" y="32"/><text fill="#000000" font-family="sans-serif" font-size="14" font-weight="bold" lengthAdjust="spacingAndGlyphs" textLength="105" x="604" y="48.5332">sabr_diml_dsm</text><!--cluster sabr_diml_sabmStack--><rect fill="#FFCC88" filter="url(#f1mpbjm3842pec)" height="115" style="stroke: #000000; stroke-width: 1.5;" width="129" x="592" y="207"/><text fill="#000000" font-family="sans-serif" font-size="14" font-weight="bold" lengthAdjust="spacingAndGlyphs" textLength="113" x="600" y="223.5332">sabr_diml_sabm</text><!--cluster sabr_diml--><polygon fill="#FFCC88" filter="url(#f1mpbjm3842pec)" points="22,79,96,79,103,102.6094,560,102.6094,560,388,22,388,22,79" style="stroke: #000000; stroke-width: 1.5;"/><line style="stroke: #000000; stroke-width: 1.5;" x1="22" x2="103" y1="102.6094" y2="102.6094"/><text fill="#000000" font-family="sans-serif" font-size="14" font-weight="bold" lengthAdjust="spacingAndGlyphs" textLength="68" x="26" y="95.5332">sabr_diml</text><!--entity sabr_diml_dsmStacksnet--><path d="M628,76 L684,76 C689,76 689,89.8047 689,89.8047 C689,89.8047 689,103.6094 684,103.6094 L628,103.6094 C623,103.6094 623,89.8047 623,89.8047 C623,89.8047 623,76 628,76 " fill="#0000FF" filter="url(#f1mpbjm3842pec)" style="stroke: #A80036; stroke-width: 1.5;"/><path d="M684,76 C679,76 679,89.8047 679,89.8047 C679,103.6094 684,103.6094 684,103.6094 " fill="none" style="stroke: #A80036; stroke-width: 1.5;"/><text fill="#FFFFFF" font-family="sans-serif" font-size="14" font-weight="bold" lengthAdjust="spacingAndGlyphs" textLength="46" x="628" y="95.5332">parent</text><!--entity sabr_diml_sabmStacksnet--><path d="M628,251 L684,251 C689,251 689,264.8047 689,264.8047 C689,264.8047 689,278.6094 684,278.6094 L628,278.6094 C623,278.6094 623,264.8047 623,264.8047 C623,264.8047 623,251 628,251 " fill="#0000FF" filter="url(#f1mpbjm3842pec)" style="stroke: #A80036; stroke-width: 1.5;"/><path d="M684,251 C679,251 679,264.8047 679,264.8047 C679,278.6094 684,278.6094 684,278.6094 " fill="none" style="stroke: #A80036; stroke-width: 1.5;"/><text fill="#FFFFFF" font-family="sans-serif" font-size="14" font-weight="bold" lengthAdjust="spacingAndGlyphs" textLength="46" x="628" y="270.5332">parent</text><!--entity parentnet--><path d="M47.5,344 L103.5,344 C108.5,344 108.5,357.8047 108.5,357.8047 C108.5,357.8047 108.5,371.6094 103.5,371.6094 L47.5,371.6094 C42.5,371.6094 42.5,357.8047 42.5,357.8047 C42.5,357.8047 42.5,344 47.5,344 " fill="#000000" filter="url(#f1mpbjm3842pec)" style="stroke: #A80036; stroke-width: 1.5;"/><path d="M103.5,344 C98.5,344 98.5,357.8047 98.5,357.8047 C98.5,371.6094 103.5,371.6094 103.5,371.6094 " fill="none" style="stroke: #A80036; stroke-width: 1.5;"/><text fill="#FFFFFF" font-family="sans-serif" font-size="14" font-weight="bold" lengthAdjust="spacingAndGlyphs" textLength="46" x="47.5" y="363.5332">parent</text><!--entity childrennet--><path d="M178,250 L246,250 C251,250 251,263.8047 251,263.8047 C251,263.8047 251,277.6094 246,277.6094 L178,277.6094 C173,277.6094 173,263.8047 173,263.8047 C173,263.8047 173,250 178,250 " fill="#0000FF" filter="url(#f1mpbjm3842pec)" style="stroke: #A80036; stroke-width: 1.5;"/><path d="M246,250 C241,250 241,263.8047 241,263.8047 C241,277.6094 246,277.6094 246,277.6094 " fill="none" style="stroke: #A80036; stroke-width: 1.5;"/><text fill="#FFFFFF" font-family="sans-serif" font-size="14" font-weight="bold" lengthAdjust="spacingAndGlyphs" textLength="58" x="178" y="269.5332">children</text><!--entity siblingsnet--><path d="M43,198 L108,198 C113,198 113,211.8047 113,211.8047 C113,211.8047 113,225.6094 108,225.6094 L43,225.6094 C38,225.6094 38,211.8047 38,211.8047 C38,211.8047 38,198 43,198 " fill="#FF0000" filter="url(#f1mpbjm3842pec)" style="stroke: #A80036; stroke-width: 1.5;"/><path d="M108,198 C103,198 103,211.8047 103,211.8047 C103,225.6094 108,225.6094 108,225.6094 " fill="none" style="stroke: #A80036; stroke-width: 1.5;"/><text fill="#FFFFFF" font-family="sans-serif" font-size="14" font-weight="bold" lengthAdjust="spacingAndGlyphs" textLength="55" x="43" y="217.5332">siblings</text><!--entity dsmService--><polygon fill="#FEFECE" filter="url(#f1mpbjm3842pec)" points="42.5,125,52.5,115,108.5,115,108.5,152.6094,98.5,162.6094,42.5,162.6094,42.5,125" style="stroke: #000000; stroke-width: 1.5;"/><line style="stroke: #000000; stroke-width: 1.5;" x1="98.5" x2="107.5" y1="125" y2="116"/><line style="stroke: #000000; stroke-width: 1.5;" x1="42.5" x2="98.5" y1="125" y2="125"/><line style="stroke: #000000; stroke-width: 1.5;" x1="98.5" x2="98.5" y1="125" y2="162.6094"/><text fill="#000000" font-family="sans-serif" font-size="14" lengthAdjust="spacingAndGlyphs" textLength="26" x="57.5" y="149.5332">dsm</text><!--entity sabmService--><polygon fill="#FEFECE" filter="url(#f1mpbjm3842pec)" points="38.5,271,48.5,261,112.5,261,112.5,298.6094,102.5,308.6094,38.5,308.6094,38.5,271" style="stroke: #000000; stroke-width: 1.5;"/><line style="stroke: #000000; stroke-width: 1.5;" x1="102.5" x2="111.5" y1="271" y2="262"/><line style="stroke: #000000; stroke-width: 1.5;" x1="38.5" x2="102.5" y1="271" y2="271"/><line style="stroke: #000000; stroke-width: 1.5;" x1="102.5" x2="102.5" y1="271" y2="308.6094"/><text fill="#000000" font-family="sans-serif" font-size="14" lengthAdjust="spacingAndGlyphs" textLength="34" x="53.5" y="295.5332">sabm</text><!--entity sabr_diml_dsmimage--><rect fill="#FEFECE" filter="url(#f1mpbjm3842pec)" height="33.6094" style="stroke: #000000; stroke-width: 1.5;" width="111" x="429" y="124"/><rect fill="#FEFECE" height="33.6094" style="stroke: #000000; stroke-width: 1.5;" width="111" x="425" y="120"/><text fill="#000000" font-family="sans-serif" font-size="14" lengthAdjust="spacingAndGlyphs" textLength="95" x="433" y="142.5332">sabr_diml_dsm</text><!--entity sabr_diml_sabmimage--><rect fill="#FEFECE" filter="url(#f1mpbjm3842pec)" height="33.6094" style="stroke: #000000; stroke-width: 1.5;" width="119" x="425" y="299"/><rect fill="#FEFECE" height="33.6094" style="stroke: #000000; stroke-width: 1.5;" width="119" x="421" y="295"/><text fill="#000000" font-family="sans-serif" font-size="14" lengthAdjust="spacingAndGlyphs" textLength="103" x="429" y="317.5332">sabr_diml_sabm</text><!--entity parent--><path d="M191.5,408 L191.5,432 M191.5,420 L208.5,420 " fill="none" filter="url(#f1mpbjm3842pec)" style="stroke: #A80036; stroke-width: 2.0;"/><ellipse cx="220.5" cy="420" fill="#000000" filter="url(#f1mpbjm3842pec)" rx="12" ry="12" style="stroke: #A80036; stroke-width: 2.0;"/><text fill="#000000" font-family="sans-serif" font-size="14" lengthAdjust="spacingAndGlyphs" textLength="41" x="191.5" y="450.5332">parent</text><!--entity children--><ellipse cx="336" cy="420" fill="#0000FF" filter="url(#f1mpbjm3842pec)" rx="12" ry="12" style="stroke: #A80036; stroke-width: 2.0;"/><line style="stroke: #A80036; stroke-width: 2.0;" x1="324" x2="348" y1="434" y2="434"/><text fill="#000000" font-family="sans-serif" font-size="14" lengthAdjust="spacingAndGlyphs" textLength="50" x="311" y="450.5332">children</text><!--link parentnet to parent--><path d="M103.0729,372.0273 C127.571,384.9595 163.606,403.9814 187.186,416.4293 " fill="none" id="parentnet-parent" style="stroke: #000000; stroke-width: 1.0;"/><!--link childrennet to children--><path d="M223.402,278.068 C244.031,305.968 290.373,368.6432 316.384,403.8222 " fill="none" id="childrennet-children" style="stroke: #0000FF; stroke-width: 1.0;"/><!--link dsmService to childrennet--><path d="M102.433,163.101 C130.067,188.783 172.897,228.588 195.62,249.707 " fill="none" id="dsmService-childrennet" style="stroke: #0000FF; stroke-width: 1.0;"/><!--link sabmService to childrennet--><path d="M112.544,279.372 C131.219,276.457 154.019,272.897 172.975,269.937 " fill="none" id="sabmService-childrennet" style="stroke: #0000FF; stroke-width: 1.0;"/><!--link dsmService to sabr_diml_dsmimage--><path d="M108.618,139 C177.187,139 338.654,139 424.888,139 " fill="none" id="dsmService-sabr_diml_dsmimage" style="stroke: #A80036; stroke-width: 1.0; stroke-dasharray: 7.0,7.0;"/><!--link sabmService to sabr_diml_sabmimage--><path d="M112.654,289.6 C130.751,291.781 153.008,294.279 173,296 C258.925,303.398 358.58,308.603 420.843,311.451 " fill="none" id="sabmService-sabr_diml_sabmimage" style="stroke: #A80036; stroke-width: 1.0; stroke-dasharray: 7.0,7.0;"/><!--link sabr_diml_dsmimage to sabr_diml_dsmStack--><path d="M540.131,139 C552.4243,139 565.6236,139 578.5386,139 C581.7674,139 584.9784,139 588.153,139 C589.7403,139 591.3185,139 592.8853,139 C593.6687,139 594.4492,139 595.2266,139 C595.421,139 595.6151,139 595.8091,139 " fill="none" id="sabr_diml_dsmimage-sabr_diml_dsmStack" style="stroke: #A80036; stroke-width: 1.0;"/><polygon fill="#A80036" points="595.8091,139,586.8091,135,590.8091,139,586.8091,143,595.8091,139" style="stroke: #A80036; stroke-width: 1.0;"/><!--link sabr_diml_sabmimage to sabr_diml_sabmStack--><path d="M544.447,314 C556.578,314 569.4336,314 581.9225,314 C585.0448,314 588.1441,314 591.2034,314 C591.3946,314 591.5857,314 591.7766,314 " fill="none" id="sabr_diml_sabmimage-sabr_diml_sabmStack" style="stroke: #A80036; stroke-width: 1.0;"/><polygon fill="#A80036" points="591.7766,314,582.7766,310,586.7766,314,582.7766,318,591.7766,314" style="stroke: #A80036; stroke-width: 1.0;"/><!--
@startuml

left to right direction


boundary parent #black


entity children #blue

rectangle "sabr_diml_dsm" as sabr_diml_dsmStack #ffcc88 {
    queue sabr_diml_dsmStacksnet #blue [
        <b><color:white>parent</color></b>
    ]
}
rectangle "sabr_diml_sabm" as sabr_diml_sabmStack #ffcc88 {
    queue sabr_diml_sabmStacksnet #blue [
        <b><color:white>parent</color></b>
    ]
}



package "sabr_diml" #ffcc88 {
    queue parentnet #black [
            <b><color:white>parent</color></b>
    ]
    
    parentnet -[#black]- parent
    
    queue childrennet #blue [
            <b><color:white>children</color></b>
    ]
    
    childrennet -[#blue]- children
    
    queue siblingsnet #red [
            <b><color:white>siblings</color></b>
    ]
    

node "dsm" as dsmService
node "sabm" as sabmService

        collections "sabr_diml_dsm" as sabr_diml_dsmimage
            collections "sabr_diml_sabm" as sabr_diml_sabmimage
    
}

dsmService -[#blue]- childrennet

sabmService -[#blue]- childrennet
dsmService .... sabr_diml_dsmimage
sabmService .... sabr_diml_sabmimage

sabr_diml_dsmimage - -> sabr_diml_dsmStack
    
sabr_diml_sabmimage - -> sabr_diml_sabmStack
    

@enduml

PlantUML version 1.2019.05(Sat Apr 20 09:45:36 PDT 2019)
(GPL source distribution)
Java Runtime: Java(TM) SE Runtime Environment
JVM: Java HotSpot(TM) Client VM
Java Version: 1.8.0_271-b09
Operating System: Windows 10
OS Version: 10.0
Default Encoding: Cp1252
Language: en
Country: US
--></g></svg>