<?xml version="1.0" encoding="UTF-8" standalone="no"?><svg xmlns="http://www.w3.org/2000/svg" xmlns:xlink="http://www.w3.org/1999/xlink" contentScriptType="application/ecmascript" contentStyleType="text/css" height="314px" preserveAspectRatio="none" style="width:711px;height:314px;" version="1.1" viewBox="0 0 711 314" width="711px" zoomAndPan="magnify"><defs><filter height="300%" id="fyoxy27w38ee2" width="300%" x="-1" y="-1"><feGaussianBlur result="blurOut" stdDeviation="2.0"/><feColorMatrix in="blurOut" result="blurOut2" type="matrix" values="0 0 0 0 0 0 0 0 0 0 0 0 0 0 0 0 0 0 .4 0"/><feOffset dx="4.0" dy="4.0" in="blurOut2" result="blurOut3"/><feBlend in="SourceGraphic" in2="blurOut3" mode="normal"/></filter></defs><g><ellipse cx="352.1792" cy="172.5358" fill="#FFFF00" filter="url(#fyoxy27w38ee2)" rx="80.6792" ry="18.5358" style="stroke: #A80036; stroke-width: 1.5;"/><text fill="#000000" font-family="sans-serif" font-size="14" lengthAdjust="spacingAndGlyphs" textLength="128" x="288.1792" y="177.8405">Manage Capabilities</text><!--entity DevOpsEngineer--><ellipse cx="285" cy="18" fill="#FEFECE" filter="url(#fyoxy27w38ee2)" rx="8" ry="8" style="stroke: #A80036; stroke-width: 2.0;"/><path d="M285,26 L285,53 M272,34 L298,34 M285,53 L272,68 M285,53 L298,68 " fill="none" filter="url(#fyoxy27w38ee2)" style="stroke: #A80036; stroke-width: 2.0;"/><text fill="#000000" font-family="sans-serif" font-size="14" lengthAdjust="spacingAndGlyphs" textLength="112" x="229" y="89.5332">DevOps Engineer</text><!--entity ITOperations--><ellipse cx="419" cy="18" fill="#FEFECE" filter="url(#fyoxy27w38ee2)" rx="8" ry="8" style="stroke: #A80036; stroke-width: 2.0;"/><path d="M419,26 L419,53 M406,34 L432,34 M419,53 L406,68 M419,53 L432,68 " fill="none" filter="url(#fyoxy27w38ee2)" style="stroke: #A80036; stroke-width: 2.0;"/><text fill="#000000" font-family="sans-serif" font-size="14" lengthAdjust="spacingAndGlyphs" textLength="86" x="376" y="89.5332">IT Operations</text><ellipse cx="77.8989" cy="286.2798" fill="#FFFFE0" filter="url(#fyoxy27w38ee2)" rx="71.8989" ry="16.7798" style="stroke: #A80036; stroke-width: 1.5;"/><text fill="#000000" font-family="sans-serif" font-size="14" lengthAdjust="spacingAndGlyphs" textLength="106" x="24.8989" y="291.5845">DeployCapability</text><ellipse cx="260.0213" cy="286.4043" fill="#FFFFE0" filter="url(#fyoxy27w38ee2)" rx="75.0213" ry="17.4043" style="stroke: #A80036; stroke-width: 1.5;"/><text fill="#000000" font-family="sans-serif" font-size="14" lengthAdjust="spacingAndGlyphs" textLength="114" x="203.0213" y="291.7089">DevelopCapability</text><ellipse cx="445.0213" cy="286.4043" fill="#FFFFE0" filter="url(#fyoxy27w38ee2)" rx="75.0213" ry="17.4043" style="stroke: #A80036; stroke-width: 1.5;"/><text fill="#000000" font-family="sans-serif" font-size="14" lengthAdjust="spacingAndGlyphs" textLength="114" x="388.0213" y="291.7089">RemoveCapability</text><ellipse cx="627.7843" cy="286.3569" fill="#FFFFE0" filter="url(#fyoxy27w38ee2)" rx="72.2843" ry="16.8569" style="stroke: #A80036; stroke-width: 1.5;"/><text fill="#000000" font-family="sans-serif" font-size="14" lengthAdjust="spacingAndGlyphs" textLength="107" x="574.2843" y="291.6615">UpdateCapability</text><!--link DevOpsEngineer to ManageCapabilities--><path d="M308.245,93.133 C318.795,112.028 330.846,133.612 339.626,149.338 " fill="none" id="DevOpsEngineer-ManageCapabilities" style="stroke: #A80036; stroke-width: 1.0;"/><polygon fill="#A80036" points="342.241,154.021,341.3467,144.2128,339.8038,149.6552,334.3614,148.1123,342.241,154.021" style="stroke: #A80036; stroke-width: 1.0;"/><!--link ITOperations to ManageCapabilities--><path d="M395.755,93.133 C385.205,112.028 373.154,133.612 364.374,149.338 " fill="none" id="ITOperations-ManageCapabilities" style="stroke: #A80036; stroke-width: 1.0;"/><polygon fill="#A80036" points="361.759,154.021,369.6386,148.1123,364.1962,149.6552,362.6533,144.2128,361.759,154.021" style="stroke: #A80036; stroke-width: 1.0;"/><!--link ManageCapabilities to DeployCapability--><path d="M314.189,188.956 C262.317,210.1588 169.554,248.0763 117.043,269.5407 " fill="none" id="ManageCapabilities-DeployCapability" style="stroke: #A80036; stroke-width: 1.0;"/><polygon fill="#A80036" points="112.401,271.4383,122.2453,271.7364,117.0294,269.5468,119.219,264.3309,112.401,271.4383" style="stroke: #A80036; stroke-width: 1.0;"/><text fill="#000000" font-family="sans-serif" font-size="13" lengthAdjust="spacingAndGlyphs" textLength="46" x="233" y="235.4951">extends</text><!--link ManageCapabilities to DevelopCapability--><path d="M337.625,191 C321.137,211.072 294.143,243.9341 276.727,265.1365 " fill="none" id="ManageCapabilities-DevelopCapability" style="stroke: #A80036; stroke-width: 1.0;"/><polygon fill="#A80036" points="273.378,269.2142,282.1812,264.7979,276.5514,265.3503,275.999,259.7205,273.378,269.2142" style="stroke: #A80036; stroke-width: 1.0;"/><text fill="#000000" font-family="sans-serif" font-size="13" lengthAdjust="spacingAndGlyphs" textLength="46" x="313" y="235.4951">extends</text><!--link ManageCapabilities to RemoveCapability--><path d="M366.531,191 C383.198,211.072 410.485,243.9341 428.091,265.1365 " fill="none" id="ManageCapabilities-RemoveCapability" style="stroke: #A80036; stroke-width: 1.0;"/><polygon fill="#A80036" points="431.477,269.2142,428.8052,259.7347,428.283,265.3674,422.6503,264.8451,431.477,269.2142" style="stroke: #A80036; stroke-width: 1.0;"/><text fill="#000000" font-family="sans-serif" font-size="13" lengthAdjust="spacingAndGlyphs" textLength="46" x="406" y="235.4951">extends</text><!--link ManageCapabilities to UpdateCapability--><path d="M389.798,188.838 C441.963,210.0067 535.573,247.9933 588.581,269.5038 " fill="none" id="ManageCapabilities-UpdateCapability" style="stroke: #A80036; stroke-width: 1.0;"/><polygon fill="#A80036" points="593.267,271.4055,586.4314,264.315,588.6339,269.5255,583.4234,271.728,593.267,271.4055" style="stroke: #A80036; stroke-width: 1.0;"/><text fill="#000000" font-family="sans-serif" font-size="13" lengthAdjust="spacingAndGlyphs" textLength="46" x="508" y="235.4951">extends</text><!--
@startuml


usecase "Manage Capabilities" as ManageCapabilities #yellow

Actor "DevOps Engineer" as DevOpsEngineer

DevOpsEngineer - -> ManageCapabilities

Actor "IT Operations" as ITOperations

ITOperations - -> ManageCapabilities







usecase "DeployCapability" as DeployCapability #lightyellow

ManageCapabilities - -> DeployCapability : extends

usecase "DevelopCapability" as DevelopCapability #lightyellow

ManageCapabilities - -> DevelopCapability : extends

usecase "RemoveCapability" as RemoveCapability #lightyellow

ManageCapabilities - -> RemoveCapability : extends

usecase "UpdateCapability" as UpdateCapability #lightyellow

ManageCapabilities - -> UpdateCapability : extends





@enduml

PlantUML version 1.2019.05(Sat Apr 20 09:45:36 PDT 2019)
(GPL source distribution)
Java Runtime: Java(TM) SE Runtime Environment
JVM: Java HotSpot(TM) Client VM
Java Version: 1.8.0_271-b09
Operating System: Windows 10
OS Version: 10.0
Default Encoding: Cp1252
Language: en
Country: US
--></g></svg>