<?xml version="1.0" encoding="us-ascii" standalone="no"?><svg xmlns="http://www.w3.org/2000/svg" xmlns:xlink="http://www.w3.org/1999/xlink" contentStyleType="text/css" height="304px" preserveAspectRatio="none" style="width:744px;height:304px;background:#FFFFFF;" version="1.1" viewBox="0 0 744 304" width="744px" zoomAndPan="magnify"><defs/><g><g id="elem_ManageCapabilities"><ellipse cx="371.6926" cy="164.0385" fill="#FFFF00" rx="85.6926" ry="19.5385" style="stroke:#181818;stroke-width:0.5;"/><text fill="#000000" font-family="sans-serif" font-size="14" lengthAdjust="spacing" textLength="128" x="307.6926" y="167.767">Manage Capabilities</text></g><!--entity DevOpsEngineer--><g id="elem_DevOpsEngineer"><ellipse cx="304.5" cy="14" fill="#F1F1F1" rx="8" ry="8" style="stroke:#181818;stroke-width:0.5;"/><path d="M304.5,22 L304.5,49 M291.5,30 L317.5,30 M304.5,49 L291.5,64 M304.5,49 L317.5,64 " fill="none" style="stroke:#181818;stroke-width:0.5;"/><text fill="#000000" font-family="sans-serif" font-size="14" lengthAdjust="spacing" textLength="112" x="248.5" y="80.0332">DevOps Engineer</text></g><!--entity ITOperations--><g id="elem_ITOperations"><ellipse cx="438.5" cy="14" fill="#F1F1F1" rx="8" ry="8" style="stroke:#181818;stroke-width:0.5;"/><path d="M438.5,22 L438.5,49 M425.5,30 L451.5,30 M438.5,49 L425.5,64 M438.5,49 L451.5,64 " fill="none" style="stroke:#181818;stroke-width:0.5;"/><text fill="#000000" font-family="sans-serif" font-size="14" lengthAdjust="spacing" textLength="86" x="395.5" y="80.0332">IT Operations</text></g><g id="elem_DeployCapability"><ellipse cx="82.7363" cy="280.2473" fill="#FFFFE0" rx="76.7363" ry="17.7473" style="stroke:#181818;stroke-width:0.5;"/><text fill="#000000" font-family="sans-serif" font-size="14" lengthAdjust="spacing" textLength="106" x="27.2006" y="284.6555">DeployCapability</text></g><g id="elem_DevelopCapability"><ellipse cx="274.3789" cy="279.8758" fill="#FFFFE0" rx="79.8789" ry="18.3758" style="stroke:#181818;stroke-width:0.5;"/><text fill="#000000" font-family="sans-serif" font-size="14" lengthAdjust="spacing" textLength="114" x="216.3373" y="283.9024">DevelopCapability</text></g><g id="elem_RemoveCapability"><ellipse cx="469.3789" cy="279.8758" fill="#FFFFE0" rx="79.8789" ry="18.3758" style="stroke:#181818;stroke-width:0.5;"/><text fill="#000000" font-family="sans-serif" font-size="14" lengthAdjust="spacing" textLength="114" x="411.3373" y="283.9024">RemoveCapability</text></g><g id="elem_UpdateCapability"><ellipse cx="661.6203" cy="279.8241" fill="#FFFFE0" rx="77.1203" ry="17.8241" style="stroke:#181818;stroke-width:0.5;"/><text fill="#000000" font-family="sans-serif" font-size="14" lengthAdjust="spacing" textLength="107" x="605.7783" y="284.1856">UpdateCapability</text></g><!--link DevOpsEngineer to ManageCapabilities--><g id="link_DevOpsEngineer_ManageCapabilities"><path d="M326.25,83.65 C337.87,104.02 348.6673,122.9582 357.9473,139.2282 " fill="none" id="DevOpsEngineer-to-ManageCapabilities" style="stroke:#181818;stroke-width:1.0;"/><polygon fill="#181818" points="360.92,144.44,359.9355,134.6405,358.4428,140.0968,352.9864,138.6041,360.92,144.44" style="stroke:#181818;stroke-width:1.0;"/></g><!--link ITOperations to ManageCapabilities--><g id="link_ITOperations_ManageCapabilities"><path d="M416.75,83.65 C405.13,104.02 394.3327,122.9582 385.0527,139.2282 " fill="none" id="ITOperations-to-ManageCapabilities" style="stroke:#181818;stroke-width:1.0;"/><polygon fill="#181818" points="382.08,144.44,390.0136,138.6041,384.5572,140.0968,383.0645,134.6405,382.08,144.44" style="stroke:#181818;stroke-width:1.0;"/></g><!--link ManageCapabilities to DeployCapability--><g id="link_ManageCapabilities_DeployCapability"><path d="M330.4,181.21 C273.99,203.47 179.0012,240.9277 124.9212,262.2677 " fill="none" id="ManageCapabilities-to-DeployCapability" style="stroke:#181818;stroke-width:1.0;"/><polygon fill="#181818" points="119.34,264.47,129.18,264.8873,123.991,262.6347,126.2436,257.4457,119.34,264.47" style="stroke:#181818;stroke-width:1.0;"/><text fill="#000000" font-family="sans-serif" font-size="13" lengthAdjust="spacing" textLength="46" x="245.5" y="227.9951">extends</text></g><!--link ManageCapabilities to DevelopCapability--><g id="link_ManageCapabilities_DevelopCapability"><path d="M355.92,183.32 C337.6,204.84 311.318,235.7302 293.298,256.9102 " fill="none" id="ManageCapabilities-to-DevelopCapability" style="stroke:#181818;stroke-width:1.0;"/><polygon fill="#181818" points="289.41,261.48,298.2886,257.2173,292.65,257.6718,292.1955,252.0332,289.41,261.48" style="stroke:#181818;stroke-width:1.0;"/><text fill="#000000" font-family="sans-serif" font-size="13" lengthAdjust="spacing" textLength="46" x="330.5" y="227.9951">extends</text></g><!--link ManageCapabilities to RemoveCapability--><g id="link_ManageCapabilities_RemoveCapability"><path d="M387.25,183.32 C405.75,204.84 432.3184,235.7504 450.5284,256.9304 " fill="none" id="ManageCapabilities-to-RemoveCapability" style="stroke:#181818;stroke-width:1.0;"/><polygon fill="#181818" points="454.44,261.48,451.6056,252.0478,451.1803,257.6886,445.5395,257.2633,454.44,261.48" style="stroke:#181818;stroke-width:1.0;"/><text fill="#000000" font-family="sans-serif" font-size="13" lengthAdjust="spacing" textLength="46" x="426.5" y="227.9951">extends</text></g><!--link ManageCapabilities to UpdateCapability--><g id="link_ManageCapabilities_UpdateCapability"><path d="M412.74,181.21 C469.04,203.34 563.5657,240.5055 618.0457,261.9155 " fill="none" id="ManageCapabilities-to-UpdateCapability" style="stroke:#181818;stroke-width:1.0;"/><polygon fill="#181818" points="623.63,264.11,616.7166,257.0953,618.9765,262.2812,613.7906,264.541,623.63,264.11" style="stroke:#181818;stroke-width:1.0;"/><text fill="#000000" font-family="sans-serif" font-size="13" lengthAdjust="spacing" textLength="46" x="534.5" y="227.9951">extends</text></g><!--SRC=[ZO_F3e8m38VlUue6pho01nCZ7ZWO4eCFKA719NDRs41vU_zC43PCwArV-klNjePAD0JH4INM17lKUE62Mquc0ZJW-1H3t9CGwixOhhIgWIYbBjS63hBcagZvn1mR46Fp7f9akx1vt9WLa6jgq78btHbPyGECJRk_krormuCfQQ7wSQJ_dZc740jUN-tmuCBpRrkGsW0zBCdAp7mT2QK3eKVN6ltOal94DzMHP_JXEc6GMlATTONMz_bmdIz8JNolUW80]--></g></svg>