<?xml version="1.0" encoding="UTF-8" standalone="no"?><svg xmlns="http://www.w3.org/2000/svg" xmlns:xlink="http://www.w3.org/1999/xlink" contentScriptType="application/ecmascript" contentStyleType="text/css" height="279px" preserveAspectRatio="none" style="width:913px;height:279px;" version="1.1" viewBox="0 0 913 279" width="913px" zoomAndPan="magnify"><defs><filter height="300%" id="f2wwq8w5li7o7" width="300%" x="-1" y="-1"><feGaussianBlur result="blurOut" stdDeviation="2.0"/><feColorMatrix in="blurOut" result="blurOut2" type="matrix" values="0 0 0 0 0 0 0 0 0 0 0 0 0 0 0 0 0 0 .4 0"/><feOffset dx="4.0" dy="4.0" in="blurOut2" result="blurOut3"/><feBlend in="SourceGraphic" in2="blurOut3" mode="normal"/></filter></defs><g><!--entity DataStream--><rect fill="#ADD8E6" filter="url(#f2wwq8w5li7o7)" height="37.6094" style="stroke: #000000; stroke-width: 1.5;" width="95" x="610.758" y="231"/><text fill="#000000" font-family="sans-serif" font-size="14" lengthAdjust="spacingAndGlyphs" textLength="75" x="620.758" y="255.5332">DataStream</text><!--entity SABundleInstance--><rect fill="#90EE90" filter="url(#f2wwq8w5li7o7)" height="37.6094" style="stroke: #000000; stroke-width: 1.5;" width="135" x="69.7576" y="231"/><text fill="#000000" font-family="sans-serif" font-size="14" lengthAdjust="spacingAndGlyphs" textLength="115" x="79.7576" y="255.5332">SABundleInstance</text><!--entity DataChannelInstance--><rect fill="#ADD8E6" filter="url(#f2wwq8w5li7o7)" height="37.6094" style="stroke: #000000; stroke-width: 1.5;" width="156" x="746.258" y="231"/><text fill="#000000" font-family="sans-serif" font-size="14" lengthAdjust="spacingAndGlyphs" textLength="136" x="756.258" y="255.5332">DataChannelInstance</text><!--entity DataTransformInstance--><rect fill="#90EE90" filter="url(#f2wwq8w5li7o7)" height="37.6094" style="stroke: #000000; stroke-width: 1.5;" width="168" x="396.258" y="231"/><text fill="#000000" font-family="sans-serif" font-size="14" lengthAdjust="spacingAndGlyphs" textLength="148" x="406.258" y="255.5332">DataTransformInstance</text><!--class Model--><rect fill="#FEFECE" filter="url(#f2wwq8w5li7o7)" height="144.8516" id="Model" style="stroke: #A80036; stroke-width: 1.5;" width="155" x="392.758" y="8"/><ellipse cx="407.758" cy="24" fill="#ADD1B2" rx="11" ry="11" style="stroke: #A80036; stroke-width: 1.0;"/><path d="M410.5236,19.875 Q410.6799,19.6563 410.8674,19.5469 Q411.0549,19.4375 411.2736,19.4375 Q411.6486,19.4375 411.883,19.6953 Q412.1174,19.9531 412.1174,20.5625 L412.1174,22.0156 Q412.1174,22.625 411.883,22.8906 Q411.6486,23.1563 411.2736,23.1563 Q410.9299,23.1563 410.7268,22.9531 Q410.5236,22.7656 410.4143,22.25 Q410.3674,21.8906 410.1799,21.7031 Q409.8518,21.3281 409.2424,21.1094 Q408.633,20.8906 408.008,20.8906 Q407.2424,20.8906 406.6096,21.2188 Q405.9768,21.5469 405.4846,22.2969 Q404.9924,23.0469 404.9924,24.0781 L404.9924,25.1719 Q404.9924,26.4063 405.883,27.2266 Q406.7736,28.0469 408.3674,28.0469 Q409.3049,28.0469 409.9611,27.7969 Q410.3518,27.6406 410.7736,27.2031 Q411.0393,26.9375 411.1877,26.8594 Q411.3361,26.7813 411.5393,26.7813 Q411.8674,26.7813 412.1252,27.0391 Q412.383,27.2969 412.383,27.6406 Q412.383,27.9844 412.0393,28.3906 Q411.5393,28.9688 410.7424,29.2969 Q409.6643,29.75 408.3674,29.75 Q406.8518,29.75 405.6486,29.125 Q404.6643,28.625 403.9768,27.5547 Q403.2893,26.4844 403.2893,25.2031 L403.2893,24.0469 Q403.2893,22.7188 403.9064,21.5703 Q404.5236,20.4219 405.6174,19.8047 Q406.7111,19.1875 407.9455,19.1875 Q408.6799,19.1875 409.3283,19.3516 Q409.9768,19.5156 410.5236,19.875 Z "/><text fill="#000000" font-family="sans-serif" font-size="12" lengthAdjust="spacingAndGlyphs" textLength="123" x="421.758" y="28.9102">OutputStreamInstance</text><line style="stroke: #A80036; stroke-width: 1.5;" x1="393.758" x2="546.758" y1="40" y2="40"/><text fill="#000000" font-family="sans-serif" font-size="11" lengthAdjust="spacingAndGlyphs" textLength="61" x="398.758" y="55.4189">ref producer</text><text fill="#000000" font-family="sans-serif" font-size="11" lengthAdjust="spacingAndGlyphs" textLength="56" x="398.758" y="69.2549">string name</text><text fill="#000000" font-family="sans-serif" font-size="11" lengthAdjust="spacingAndGlyphs" textLength="71" x="398.758" y="83.0908">string direction</text><line style="stroke: #A80036; stroke-width: 1.5;" x1="393.758" x2="546.758" y1="89.5078" y2="89.5078"/><text fill="#000000" font-family="sans-serif" font-size="11" lengthAdjust="spacingAndGlyphs" textLength="40" x="398.758" y="104.9268">deploy()</text><text fill="#000000" font-family="sans-serif" font-size="11" lengthAdjust="spacingAndGlyphs" textLength="52" x="398.758" y="118.7627">provision()</text><text fill="#000000" font-family="sans-serif" font-size="11" lengthAdjust="spacingAndGlyphs" textLength="32" x="398.758" y="132.5986">send()</text><text fill="#000000" font-family="sans-serif" font-size="11" lengthAdjust="spacingAndGlyphs" textLength="60" x="398.758" y="146.4346">sendBatch()</text><!--link Model to DataStream--><path d="M558.086,154.59 C569.018,164.037 579.964,173.6707 590.258,183 C603.781,195.2563 618.354,209.2843 630.527,221.2469 " fill="none" id="Model-DataStream" style="stroke: #A80036; stroke-width: 1.0;"/><polygon fill="#A80036" points="640.112,230.7255,636.5247,221.5532,636.5566,227.2099,630.8998,227.2418,640.112,230.7255" style="stroke: #A80036; stroke-width: 1.0;"/><line style="stroke: #A80036; stroke-width: 1.0;" x1="636.5566" x2="630.868" y1="227.2099" y2="221.5845"/><polygon fill="#FFFFFF" points="548.07,145.981,550.0121,152.9257,557.1695,153.804,555.2274,146.8593,548.07,145.981" style="stroke: #A80036; stroke-width: 1.0;"/><text fill="#000000" font-family="sans-serif" font-size="13" lengthAdjust="spacingAndGlyphs" textLength="36" x="611.258" y="197.4951">parent</text><text fill="#000000" font-family="sans-serif" font-size="13" lengthAdjust="spacingAndGlyphs" textLength="7" x="626.4829" y="219.9814">1</text><!--link Model to SABundleInstance--><path d="M379.445,88.452 C259.299,99.753 57.4027,126.755 12.2576,183 C-6.7592,206.6926 21.8478,222.9048 56.4656,233.3308 " fill="none" id="Model-SABundleInstance" style="stroke: #A80036; stroke-width: 1.0;"/><polygon fill="#A80036" points="69.4145,236.9133,61.807,230.6583,64.5955,235.5801,59.6738,238.3686,69.4145,236.9133" style="stroke: #A80036; stroke-width: 1.0;"/><line style="stroke: #A80036; stroke-width: 1.0;" x1="64.5955" x2="56.8851" y1="235.5801" y2="233.4468"/><polygon fill="#FFFFFF" points="392.6,87.247,386.2602,83.8109,380.65,88.3415,386.9898,91.7776,392.6,87.247" style="stroke: #A80036; stroke-width: 1.0;"/><text fill="#000000" font-family="sans-serif" font-size="13" lengthAdjust="spacingAndGlyphs" textLength="38" x="13.2576" y="197.4951">bundle</text><text fill="#000000" font-family="sans-serif" font-size="13" lengthAdjust="spacingAndGlyphs" textLength="7" x="54.6113" y="232.1426">1</text><!--link SABundleInstance to Model--><path d="M101.8434,221.8134 C90.349,209.7104 82.7348,195.4172 92.2576,183 C127.019,137.673 279.165,108.103 379.514,93.145 " fill="none" id="SABundleInstance-Model" style="stroke: #A80036; stroke-width: 1.0;"/><polygon fill="#A80036" points="392.397,91.262,382.9131,88.6056,387.4496,91.9851,384.0701,96.5215,392.397,91.262" style="stroke: #A80036; stroke-width: 1.0;"/><line style="stroke: #A80036; stroke-width: 1.0;" x1="387.4496" x2="379.534" y1="91.9851" y2="93.142"/><polygon fill="#FFFFFF" points="111.64,230.9726,109.9888,223.9531,102.8742,222.7774,104.5254,229.7969,111.64,230.9726" style="stroke: #A80036; stroke-width: 1.0;"/><text fill="#000000" font-family="sans-serif" font-size="13" lengthAdjust="spacingAndGlyphs" textLength="43" x="93.2576" y="197.4951">outputs</text><text fill="#000000" font-family="sans-serif" font-size="13" lengthAdjust="spacingAndGlyphs" textLength="7" x="377.6423" y="89.0442">n</text><!--link SABundleInstance to Model--><path d="M149.822,218.9662 C156.39,206.3677 165.534,192.4745 177.258,183 C235.598,135.851 317.233,109.957 379.52,96.15 " fill="none" id="SABundleInstance-Model-1" style="stroke: #A80036; stroke-width: 1.0;"/><polygon fill="#A80036" points="392.502,93.383,382.8661,91.346,387.6117,94.4248,384.533,99.1704,392.502,93.383" style="stroke: #A80036; stroke-width: 1.0;"/><line style="stroke: #A80036; stroke-width: 1.0;" x1="387.6117" x2="379.788" y1="94.4248" y2="96.093"/><polygon fill="#FFFFFF" points="144.112,230.9216,150.3071,227.231,149.2832,220.093,143.088,223.7836,144.112,230.9216" style="stroke: #A80036; stroke-width: 1.0;"/><text fill="#000000" font-family="sans-serif" font-size="13" lengthAdjust="spacingAndGlyphs" textLength="108" x="178.258" y="197.4951">learningOutStream</text><text fill="#000000" font-family="sans-serif" font-size="13" lengthAdjust="spacingAndGlyphs" textLength="7" x="377.7573" y="108.8924">1</text><!--link SABundleInstance to Model--><path d="M217.284,228.8004 C241.596,221.4143 268.015,212.0959 291.258,201 C322.068,186.2915 353.688,166.859 381.614,147.949 " fill="none" id="SABundleInstance-Model-2" style="stroke: #A80036; stroke-width: 1.0;"/><polygon fill="#A80036" points="392.529,140.458,382.845,142.2524,388.4064,143.2872,387.3717,148.8486,392.529,140.458" style="stroke: #A80036; stroke-width: 1.0;"/><line style="stroke: #A80036; stroke-width: 1.0;" x1="388.4064" x2="381.8105" y1="143.2872" y2="147.8145"/><polygon fill="#FFFFFF" points="204.79,232.4858,211.6766,234.6245,216.2996,229.0902,209.4129,226.9515,204.79,232.4858" style="stroke: #A80036; stroke-width: 1.0;"/><text fill="#000000" font-family="sans-serif" font-size="13" lengthAdjust="spacingAndGlyphs" textLength="98" x="324.258" y="197.4951">adminOutStream</text><text fill="#000000" font-family="sans-serif" font-size="13" lengthAdjust="spacingAndGlyphs" textLength="7" x="377.7869" y="142.9292">1</text><!--link Model to DataChannelInstance--><path d="M559.871,123.902 C627.7,155.996 718.386,198.9051 773.988,225.2142 " fill="none" id="Model-DataChannelInstance" style="stroke: #A80036; stroke-width: 1.0;"/><polygon fill="#A80036" points="785.977,230.8868,779.5532,223.4212,781.4576,228.7479,776.1309,230.6523,785.977,230.8868" style="stroke: #A80036; stroke-width: 1.0;"/><line style="stroke: #A80036; stroke-width: 1.0;" x1="781.4576" x2="774.2255" y1="228.7479" y2="225.3266"/><polygon fill="#A80036" points="547.944,118.259,551.6569,124.4408,558.7912,123.3912,555.0783,117.2094,547.944,118.259" style="stroke: #A80036; stroke-width: 1.0;"/><text fill="#000000" font-family="sans-serif" font-size="13" lengthAdjust="spacingAndGlyphs" textLength="52" x="721.258" y="197.4951">channels</text><text fill="#000000" font-family="sans-serif" font-size="13" lengthAdjust="spacingAndGlyphs" textLength="7" x="766.1816" y="220.1921">n</text><!--link Model to DataChannelInstance--><path d="M561.044,94.149 C627.812,107.208 717.783,133.034 782.258,183 C794.335,192.3595 803.908,206.2388 810.846,218.8578 " fill="none" id="Model-DataChannelInstance-1" style="stroke: #A80036; stroke-width: 1.0;"/><polygon fill="#A80036" points="816.901,230.8427,816.4128,221.006,814.6463,226.3799,809.2723,224.6134,816.901,230.8427" style="stroke: #A80036; stroke-width: 1.0;"/><line style="stroke: #A80036; stroke-width: 1.0;" x1="814.6463" x2="811.039" y1="226.3799" y2="219.2393"/><polygon fill="#FFFFFF" points="548.014,91.705,553.1735,96.7428,559.8082,93.9177,554.6487,88.88,548.014,91.705" style="stroke: #A80036; stroke-width: 1.0;"/><text fill="#000000" font-family="sans-serif" font-size="13" lengthAdjust="spacingAndGlyphs" textLength="44" x="800.258" y="197.4951">policies</text><text fill="#000000" font-family="sans-serif" font-size="13" lengthAdjust="spacingAndGlyphs" textLength="7" x="806.576" y="220.1345">n</text><!--link Model to DataTransformInstance--><path d="M464.836,166.225 C465.046,177.9378 465.766,189.7899 467.258,201 C468.013,206.6805 469.251,212.6421 470.67,218.3572 " fill="none" id="Model-DataTransformInstance" style="stroke: #A80036; stroke-width: 1.0;"/><polygon fill="#A80036" points="474.169,230.9969,475.6234,221.256,472.8353,226.1781,467.9133,223.3899,474.169,230.9969" style="stroke: #A80036; stroke-width: 1.0;"/><line style="stroke: #A80036; stroke-width: 1.0;" x1="472.8353" x2="470.7005" y1="226.1781" y2="218.468"/><polygon fill="#FFFFFF" points="464.801,153.101,460.8168,159.1115,464.8326,165.101,468.8168,159.0904,464.801,153.101" style="stroke: #A80036; stroke-width: 1.0;"/><text fill="#000000" font-family="sans-serif" font-size="13" lengthAdjust="spacingAndGlyphs" textLength="61" x="468.258" y="197.4951">transforms</text><text fill="#000000" font-family="sans-serif" font-size="13" lengthAdjust="spacingAndGlyphs" textLength="7" x="464.1125" y="220.0031">n</text><!--link DataTransformInstance to Model--><path d="M519.131,222.0175 C525.275,215.8667 530.751,208.8095 534.258,201 C537.535,193.7021 536.478,190.6856 534.258,183 C532.524,176.9991 530.318,171.0115 527.775,165.116 " fill="none" id="DataTransformInstance-Model" style="stroke: #A80036; stroke-width: 1.0;"/><polygon fill="#A80036" points="522.123,153.171,522.3554,163.0171,524.261,157.6909,529.5872,159.5964,522.123,153.171" style="stroke: #A80036; stroke-width: 1.0;"/><line style="stroke: #A80036; stroke-width: 1.0;" x1="524.261" x2="527.683" y1="157.6909" y2="164.9225"/><polygon fill="#FFFFFF" points="509.11,230.915,516.2525,229.9223,518.0832,222.9475,510.9408,223.9402,509.11,230.915" style="stroke: #A80036; stroke-width: 1.0;"/><text fill="#000000" font-family="sans-serif" font-size="13" lengthAdjust="spacingAndGlyphs" textLength="43" x="538.258" y="197.4951">outputs</text><text fill="#000000" font-family="sans-serif" font-size="13" lengthAdjust="spacingAndGlyphs" textLength="7" x="519.7328" y="174.3789">n</text><!--
@startuml

class "OutputStreamInstance" as Model {
 ref producer
 string name
 string direction

 deploy()
 provision()
 send()
 sendBatch()
 
}

rectangle "DataStream" as DataStream #lightblue {
}

Model o- -> "1" DataStream : parent


rectangle "SABundleInstance" as SABundleInstance #lightblue {
}

Model o- -> "1" SABundleInstance : bundle


rectangle "DataChannelInstance" as DataChannelInstance #lightblue {
}

Model *- -> "n" DataChannelInstance : channels


rectangle "DataChannelInstance" as DataChannelInstance #lightblue {
}

Model o- -> "n" DataChannelInstance : policies


rectangle "DataTransformInstance" as DataTransformInstance #lightblue {
}

Model o- -> "n" DataTransformInstance : transforms




    rectangle "DataTransformInstance" as DataTransformInstance #lightgreen {
    }
    
        DataTransformInstance   o- -> "n" Model : "outputs"
    
    rectangle "SABundleInstance" as SABundleInstance #lightgreen {
    }
    
        SABundleInstance   o- -> "n" Model : "outputs"
    
    rectangle "SABundleInstance" as SABundleInstance #lightgreen {
    }
    
        SABundleInstance   o- -> "1" Model : "learningOutStream"
    
    rectangle "SABundleInstance" as SABundleInstance #lightgreen {
    }
    
        SABundleInstance   o- -> "1" Model : "adminOutStream"
    

@enduml

PlantUML version 1.2019.05(Sat Apr 20 09:45:36 PDT 2019)
(GPL source distribution)
Java Runtime: Java(TM) SE Runtime Environment
JVM: Java HotSpot(TM) Client VM
Java Version: 1.8.0_271-b09
Operating System: Windows 10
OS Version: 10.0
Default Encoding: Cp1252
Language: en
Country: US
--></g></svg>