<?xml version="1.0" encoding="us-ascii" standalone="no"?><svg xmlns="http://www.w3.org/2000/svg" xmlns:xlink="http://www.w3.org/1999/xlink" contentStyleType="text/css" height="299px" preserveAspectRatio="none" style="width:923px;height:299px;background:#FFFFFF;" version="1.1" viewBox="0 0 923 299" width="923px" zoomAndPan="magnify"><defs/><g><!--entity DataStream--><g id="elem_DataStream"><rect fill="#ADD8E6" height="37.6094" rx="2.5" ry="2.5" style="stroke:#181818;stroke-width:0.5;" width="95" x="625.7" y="256"/><text fill="#000000" font-family="sans-serif" font-size="14" lengthAdjust="spacing" textLength="75" x="635.7" y="280.5332">DataStream</text></g><!--entity SABundleInstance--><g id="elem_SABundleInstance"><rect fill="#90EE90" height="37.6094" rx="2.5" ry="2.5" style="stroke:#181818;stroke-width:0.5;" width="135" x="85.7" y="256"/><text fill="#000000" font-family="sans-serif" font-size="14" lengthAdjust="spacing" textLength="115" x="95.7" y="280.5332">SABundleInstance</text></g><!--entity DataChannelInstance--><g id="elem_DataChannelInstance"><rect fill="#ADD8E6" height="37.6094" rx="2.5" ry="2.5" style="stroke:#181818;stroke-width:0.5;" width="156" x="761.2" y="256"/><text fill="#000000" font-family="sans-serif" font-size="14" lengthAdjust="spacing" textLength="136" x="771.2" y="280.5332">DataChannelInstance</text></g><!--entity DataTransformInstance--><g id="elem_DataTransformInstance"><rect fill="#90EE90" height="37.6094" rx="2.5" ry="2.5" style="stroke:#181818;stroke-width:0.5;" width="168" x="411.2" y="256"/><text fill="#000000" font-family="sans-serif" font-size="14" lengthAdjust="spacing" textLength="148" x="421.2" y="280.5332">DataTransformInstance</text></g><!--class Model--><g id="elem_Model"><rect codeLine="2" fill="#F1F1F1" height="171.2656" id="Model" rx="2.5" ry="2.5" style="stroke:#181818;stroke-width:0.5;" width="173" x="398.7" y="7"/><ellipse cx="413.7" cy="23" fill="#ADD1B2" rx="11" ry="11" style="stroke:#181818;stroke-width:1.0;"/><path d="M416.4656,18.875 Q416.6219,18.6563 416.8094,18.5469 Q416.9969,18.4375 417.2156,18.4375 Q417.5906,18.4375 417.825,18.6953 Q418.0594,18.9531 418.0594,19.5625 L418.0594,21.0156 Q418.0594,21.625 417.825,21.8906 Q417.5906,22.1563 417.2156,22.1563 Q416.8719,22.1563 416.6688,21.9531 Q416.4656,21.7656 416.3563,21.25 Q416.3094,20.8906 416.1219,20.7031 Q415.7938,20.3281 415.1844,20.1094 Q414.575,19.8906 413.95,19.8906 Q413.1844,19.8906 412.5516,20.2188 Q411.9188,20.5469 411.4266,21.2969 Q410.9344,22.0469 410.9344,23.0781 L410.9344,24.1719 Q410.9344,25.4063 411.825,26.2266 Q412.7156,27.0469 414.3094,27.0469 Q415.2469,27.0469 415.9031,26.7969 Q416.2938,26.6406 416.7156,26.2031 Q416.9813,25.9375 417.1297,25.8594 Q417.2781,25.7813 417.4813,25.7813 Q417.8094,25.7813 418.0672,26.0391 Q418.325,26.2969 418.325,26.6406 Q418.325,26.9844 417.9813,27.3906 Q417.4813,27.9688 416.6844,28.2969 Q415.6063,28.75 414.3094,28.75 Q412.7938,28.75 411.5906,28.125 Q410.6063,27.625 409.9188,26.5547 Q409.2313,25.4844 409.2313,24.2031 L409.2313,23.0469 Q409.2313,21.7188 409.8484,20.5703 Q410.4656,19.4219 411.5594,18.8047 Q412.6531,18.1875 413.8875,18.1875 Q414.6219,18.1875 415.2703,18.3516 Q415.9188,18.5156 416.4656,18.875 Z " fill="#000000"/><text fill="#000000" font-family="sans-serif" font-size="14" lengthAdjust="spacing" textLength="141" x="427.7" y="28.7285">OutputStreamInstance</text><line style="stroke:#181818;stroke-width:0.5;" x1="399.7" x2="570.7" y1="39" y2="39"/><text fill="#000000" font-family="sans-serif" font-size="14" lengthAdjust="spacing" textLength="78" x="404.7" y="57.5332">ref producer</text><text fill="#000000" font-family="sans-serif" font-size="14" lengthAdjust="spacing" textLength="74" x="404.7" y="75.1426">string name</text><text fill="#000000" font-family="sans-serif" font-size="14" lengthAdjust="spacing" textLength="93" x="404.7" y="92.752">string direction</text><line style="stroke:#181818;stroke-width:0.5;" x1="399.7" x2="570.7" y1="99.8281" y2="99.8281"/><text fill="#000000" font-family="sans-serif" font-size="14" lengthAdjust="spacing" textLength="52" x="404.7" y="118.3613">deploy()</text><text fill="#000000" font-family="sans-serif" font-size="14" lengthAdjust="spacing" textLength="67" x="404.7" y="135.9707">provision()</text><text fill="#000000" font-family="sans-serif" font-size="14" lengthAdjust="spacing" textLength="41" x="404.7" y="153.5801">send()</text><text fill="#000000" font-family="sans-serif" font-size="14" lengthAdjust="spacing" textLength="77" x="404.7" y="171.1895">sendBatch()</text></g><!--link Model to DataStream--><g id="link_Model_DataStream"><path codeLine="17" d="M580.4784,184.2682 C591.7184,195.0282 594.41,197.62 605.2,208 C621.92,224.09 636.5525,238.2829 650.1825,251.5629 " fill="none" id="Model-DataStream" style="stroke:#181818;stroke-width:1.0;"/><polygon fill="none" points="571.81,175.97,573.3781,183.0085,580.4784,184.2682,578.9102,177.2296,571.81,175.97" style="stroke:#181818;stroke-width:1.0;"/><polygon fill="#181818" points="654.48,255.75,650.8252,246.6044,650.8988,252.2607,645.2424,252.3343,654.48,255.75" style="stroke:#181818;stroke-width:1.0;"/><text fill="#000000" font-family="sans-serif" font-size="13" lengthAdjust="spacing" textLength="36" x="623.2" y="222.4951">parent</text><text fill="#000000" font-family="sans-serif" font-size="13" lengthAdjust="spacing" textLength="7" x="640.6751" y="245.0135">1</text></g><!--link Model to SABundleInstance--><g id="link_Model_SABundleInstance"><path codeLine="23" d="M386.6678,104.0386 C266.9378,118.5986 72.41,150.1 27.2,208 C6,235.15 39.4973,250.8623 79.6773,260.8523 " fill="none" id="Model-SABundleInstance" style="stroke:#181818;stroke-width:1.0;"/><polygon fill="none" points="398.58,102.59,392.141,99.3436,386.6678,104.0386,393.1067,107.2851,398.58,102.59" style="stroke:#181818;stroke-width:1.0;"/><polygon fill="#181818" points="85.5,262.3,77.7311,256.2466,80.6477,261.0936,75.8008,264.0103,85.5,262.3" style="stroke:#181818;stroke-width:1.0;"/><text fill="#000000" font-family="sans-serif" font-size="13" lengthAdjust="spacing" textLength="38" x="28.2" y="222.4951">bundle</text><text fill="#000000" font-family="sans-serif" font-size="13" lengthAdjust="spacing" textLength="7" x="70.7125" y="257.5716">1</text></g><!--link SABundleInstance to Model--><g id="link_SABundleInstance_Model"><path codeLine="54" d="M117.701,248.2002 C101.601,234.8202 95.38,223.93 107.2,208 C142.03,161.05 292.237,126.9243 392.627,108.6543 " fill="none" id="SABundleInstance-Model" style="stroke:#181818;stroke-width:1.0;"/><polygon fill="none" points="126.93,255.87,124.8721,248.9588,117.701,248.2002,119.7589,255.1114,126.93,255.87" style="stroke:#181818;stroke-width:1.0;"/><polygon fill="#181818" points="398.53,107.58,388.9592,105.2561,393.6108,108.4752,390.3916,113.1268,398.53,107.58" style="stroke:#181818;stroke-width:1.0;"/><text fill="#000000" font-family="sans-serif" font-size="13" lengthAdjust="spacing" textLength="43" x="108.2" y="222.4951">outputs</text><text fill="#000000" font-family="sans-serif" font-size="13" lengthAdjust="spacing" textLength="7" x="383.781" y="105.6872">n</text></g><!--link SABundleInstance to Model--><g id="link_SABundleInstance_Model"><path codeLine="59" d="M164.7815,244.7608 C171.1115,230.0808 177.1,220.85 192.2,208 C251.48,157.58 329.7459,129.3307 392.6459,112.8507 " fill="none" id="SABundleInstance-Model-1" style="stroke:#181818;stroke-width:1.0;"/><polygon fill="none" points="160.03,255.78,166.0788,251.8542,164.7815,244.7608,158.7327,248.6866,160.03,255.78" style="stroke:#181818;stroke-width:1.0;"/><polygon fill="#181818" points="398.45,111.33,388.7301,109.7416,393.6133,112.5972,390.7577,117.4804,398.45,111.33" style="stroke:#181818;stroke-width:1.0;"/><text fill="#000000" font-family="sans-serif" font-size="13" lengthAdjust="spacing" textLength="108" x="193.2" y="222.4951">learningOutStream</text><text fill="#000000" font-family="sans-serif" font-size="13" lengthAdjust="spacing" textLength="7" x="383.6941" y="127.1345">1</text></g><!--link SABundleInstance to Model--><g id="link_SABundleInstance_Model"><path codeLine="64" d="M232.541,254.6928 C259.821,246.9228 279.53,239.57 306.2,226 C338.08,209.78 365.5002,191.6036 393.6402,170.3736 " fill="none" id="SABundleInstance-Model-2" style="stroke:#181818;stroke-width:1.0;"/><polygon fill="none" points="221,257.98,227.8662,260.1834,232.541,254.6928,225.6748,252.4894,221,257.98" style="stroke:#181818;stroke-width:1.0;"/><polygon fill="#181818" points="398.43,166.76,388.8363,168.9872,394.4385,169.7713,393.6544,175.3736,398.43,166.76" style="stroke:#181818;stroke-width:1.0;"/><text fill="#000000" font-family="sans-serif" font-size="13" lengthAdjust="spacing" textLength="98" x="339.2" y="222.4951">adminOutStream</text><text fill="#000000" font-family="sans-serif" font-size="13" lengthAdjust="spacing" textLength="7" x="383.6724" y="169.953">1</text></g><!--link Model to DataChannelInstance--><g id="link_Model_DataChannelInstance"><path codeLine="29" d="M582.4906,143.1108 C657.0006,181.1008 744.6847,225.8046 798.4247,253.2046 " fill="none" id="Model-DataChannelInstance" style="stroke:#181818;stroke-width:1.0;"/><polygon fill="#181818" points="571.8,137.66,575.3284,143.9489,582.4906,143.1108,578.9622,136.8218,571.8,137.66" style="stroke:#181818;stroke-width:1.0;"/><polygon fill="#181818" points="803.77,255.93,797.5689,248.2784,799.3156,253.6589,793.9351,255.4055,803.77,255.93" style="stroke:#181818;stroke-width:1.0;"/><text fill="#000000" font-family="sans-serif" font-size="13" lengthAdjust="spacing" textLength="52" x="746.2" y="222.4951">channels</text><text fill="#000000" font-family="sans-serif" font-size="13" lengthAdjust="spacing" textLength="7" x="784.8477" y="245.2486">n</text></g><!--link Model to DataChannelInstance--><g id="link_Model_DataChannelInstance"><path codeLine="35" d="M583.7326,108.5253 C654.0526,122.7253 740.21,149.54 806.2,208 C820.59,220.74 827.5612,235.5118 832.4312,250.2818 " fill="none" id="Model-DataChannelInstance-1" style="stroke:#181818;stroke-width:1.0;"/><polygon fill="none" points="571.97,106.15,577.0595,111.2585,583.7326,108.5253,578.643,103.4168,571.97,106.15" style="stroke:#181818;stroke-width:1.0;"/><polygon fill="#181818" points="834.31,255.98,835.2906,246.1801,832.7443,251.2315,827.6929,248.6852,834.31,255.98" style="stroke:#181818;stroke-width:1.0;"/><text fill="#000000" font-family="sans-serif" font-size="13" lengthAdjust="spacing" textLength="44" x="821.2" y="222.4951">policies</text><text fill="#000000" font-family="sans-serif" font-size="13" lengthAdjust="spacing" textLength="7" x="824.6357" y="244.9808">n</text></g><!--link Model to DataTransformInstance--><g id="link_Model_DataTransformInstance"><path codeLine="41" d="M479.39,190.18 C479.39,206.12 480.15,210.6 482.2,226 C483.54,236.1 484.67,241.3479 487.37,250.2579 " fill="none" id="Model-DataTransformInstance" style="stroke:#181818;stroke-width:1.0;"/><polygon fill="none" points="479.39,178.18,475.39,184.18,479.39,190.18,483.39,184.18,479.39,178.18" style="stroke:#181818;stroke-width:1.0;"/><polygon fill="#181818" points="489.11,256,490.328,246.2268,487.66,251.2149,482.6718,248.5468,489.11,256" style="stroke:#181818;stroke-width:1.0;"/><text fill="#000000" font-family="sans-serif" font-size="13" lengthAdjust="spacing" textLength="61" x="483.2" y="222.4951">transforms</text><text fill="#000000" font-family="sans-serif" font-size="13" lengthAdjust="spacing" textLength="7" x="479.0532" y="245.0072">n</text></g><!--link DataTransformInstance to Model--><g id="link_DataTransformInstance_Model"><path codeLine="49" d="M533.4445,248.4438 C543.3345,240.5838 543.86,237.9 549.2,226 C552.48,218.7 551.22,215.74 549.2,208 C546.59,197.97 545.3023,193.3793 540.9823,183.5893 " fill="none" id="DataTransformInstance-Model" style="stroke:#181818;stroke-width:1.0;"/><polygon fill="none" points="524.05,255.91,531.236,255.3084,533.4445,248.4438,526.2585,249.0454,524.05,255.91" style="stroke:#181818;stroke-width:1.0;"/><polygon fill="#181818" points="538.56,178.1,538.5338,187.9488,540.5785,182.6744,545.8529,184.7191,538.56,178.1" style="stroke:#181818;stroke-width:1.0;"/><text fill="#000000" font-family="sans-serif" font-size="13" lengthAdjust="spacing" textLength="43" x="553.2" y="222.4951">outputs</text><text fill="#000000" font-family="sans-serif" font-size="13" lengthAdjust="spacing" textLength="7" x="535.8448" y="199.6426">n</text></g><!--SRC=[pPInJiCm48PtFyN9B83KeMi690eB0-fGNk1gNnDBpZco7II4-kxOYKBQ9XG4I723e_lZF_zdwM9bCGIGwpOsRTn4JrW_S8Z8YYHWW4UdoSAh04yxQBpJhI8l84Hlk0J6cjuRRJofQ1mB0PeQwrukhqJsF9kGrDm4OZqyLnXLbHkn5o8xaKjB8EynOW_I0OmjN5XJLd5hMqf0oTIpkSNY1kHI7kuie45F7CNHbpUtgvQrfQC3degVfKps5x3j134vnLs5p6IFucRq3nAlkqIMivO2LA-4tuvrvsCRPuqoD1Fxv973plbw4ZnvyvNegQc0E6WvFarPgXz3b9w8yu2dsdThj-IQjy78sMCN85tt-mGv-hyvTcTe9ev_1x8y0B64djEji1vkbRz7GbqRFkLv0m00]--></g></svg>