<?xml version="1.0" encoding="us-ascii" standalone="no"?><svg xmlns="http://www.w3.org/2000/svg" xmlns:xlink="http://www.w3.org/1999/xlink" contentStyleType="text/css" height="1065px" preserveAspectRatio="none" style="width:300px;height:1065px;background:#FFFFFF;" version="1.1" viewBox="0 0 300 1065" width="300px" zoomAndPan="magnify"><defs/><g><!--cluster OutputStreamInstance--><g id="cluster_OutputStreamInstance"><path d="M19.5,7 L214.5,7 A12.5,12.5 0 0 1 227,19.5 L227,29.6094 L7,29.6094 L7,19.5 A12.5,12.5 0 0 1 19.5,7 " fill="#FFCC88" style="stroke:#FFCC88;stroke-width:1.0;"/><rect fill="none" height="1052" rx="12.5" ry="12.5" style="stroke:#181818;stroke-width:0.5;" width="220" x="7" y="7"/><line style="stroke:#181818;stroke-width:0.5;" x1="7" x2="227" y1="29.6094" y2="29.6094"/><text fill="#000000" font-family="sans-serif" font-size="14" lengthAdjust="spacing" textLength="141" x="46.5" y="25.5332">OutputStreamInstance</text></g><g id="OutputStreamInstance.Init"><rect fill="#FFCC88" height="50" rx="12.5" ry="12.5" style="stroke:#181818;stroke-width:0.5;" width="50" x="132" y="43"/><line style="stroke:#181818;stroke-width:0.5;" x1="132" x2="182" y1="70.6094" y2="70.6094"/><text fill="#000000" font-family="sans-serif" font-size="14" lengthAdjust="spacing" textLength="18" x="148" y="62.5332">Init</text></g><g id="OutputStreamInstance.Created"><rect fill="#FFCC88" height="50" rx="12.5" ry="12.5" style="stroke:#181818;stroke-width:0.5;" width="71" x="121.5" y="233"/><line style="stroke:#181818;stroke-width:0.5;" x1="121.5" x2="192.5" y1="260.6094" y2="260.6094"/><text fill="#000000" font-family="sans-serif" font-size="14" lengthAdjust="spacing" textLength="51" x="131.5" y="252.5332">Created</text></g><g id="OutputStreamInstance.Provisioned"><rect fill="#FFCC88" height="50" rx="12.5" ry="12.5" style="stroke:#181818;stroke-width:0.5;" width="94" x="110" y="423"/><line style="stroke:#181818;stroke-width:0.5;" x1="110" x2="204" y1="450.6094" y2="450.6094"/><text fill="#000000" font-family="sans-serif" font-size="14" lengthAdjust="spacing" textLength="74" x="120" y="442.5332">Provisioned</text></g><g id="OutputStreamInstance.Deploying"><rect fill="#FFCC88" height="50" rx="12.5" ry="12.5" style="stroke:#181818;stroke-width:0.5;" width="83" x="115.5" y="613"/><line style="stroke:#181818;stroke-width:0.5;" x1="115.5" x2="198.5" y1="640.6094" y2="640.6094"/><text fill="#000000" font-family="sans-serif" font-size="14" lengthAdjust="spacing" textLength="63" x="125.5" y="632.5332">Deploying</text></g><g id="OutputStreamInstance.Enabled"><rect fill="#FFCC88" height="50" rx="12.5" ry="12.5" style="stroke:#181818;stroke-width:0.5;" width="72" x="128" y="803"/><line style="stroke:#181818;stroke-width:0.5;" x1="128" x2="200" y1="830.6094" y2="830.6094"/><text fill="#000000" font-family="sans-serif" font-size="14" lengthAdjust="spacing" textLength="52" x="138" y="822.5332">Enabled</text></g><g id="OutputStreamInstance.Disabled"><rect fill="#FFCC88" height="50" rx="12.5" ry="12.5" style="stroke:#181818;stroke-width:0.5;" width="75" x="78.5" y="993"/><line style="stroke:#181818;stroke-width:0.5;" x1="78.5" x2="153.5" y1="1020.6094" y2="1020.6094"/><text fill="#000000" font-family="sans-serif" font-size="14" lengthAdjust="spacing" textLength="55" x="88.5" y="1012.5332">Disabled</text></g><g id="Null"><rect fill="#F1F1F1" height="50" rx="12.5" ry="12.5" style="stroke:#181818;stroke-width:0.5;" width="50" x="243" y="993"/><line style="stroke:#181818;stroke-width:0.5;" x1="243" x2="293" y1="1020.6094" y2="1020.6094"/><text fill="#000000" font-family="sans-serif" font-size="14" lengthAdjust="spacing" textLength="23" x="256.5" y="1012.5332">Null</text></g><!--link Init to Created--><g id="link_Init_Created"><path d="M157,93.19 C157,129.29 157,190.86 157,226.9 " fill="none" id="Init-to-Created" style="stroke:#000000;stroke-width:1.0;"/><polygon fill="#000000" points="157,232.9,161,223.9,157,227.9,153,223.9,157,232.9" style="stroke:#000000;stroke-width:1.0;"/><text fill="#000000" font-family="sans-serif" font-size="13" lengthAdjust="spacing" textLength="36" x="158" y="168.4951">create</text></g><!--link Created to Provisioned--><g id="link_Created_Provisioned"><path d="M157,283.19 C157,319.29 157,380.86 157,416.9 " fill="none" id="Created-to-Provisioned" style="stroke:#000000;stroke-width:1.0;"/><polygon fill="#000000" points="157,422.9,161,413.9,157,417.9,153,413.9,157,422.9" style="stroke:#000000;stroke-width:1.0;"/><text fill="#000000" font-family="sans-serif" font-size="13" lengthAdjust="spacing" textLength="50" x="158" y="358.4951">provision</text></g><!--link Provisioned to Deploying--><g id="link_Provisioned_Deploying"><path d="M157,473.19 C157,509.29 157,570.86 157,606.9 " fill="none" id="Provisioned-to-Deploying" style="stroke:#000000;stroke-width:1.0;"/><polygon fill="#000000" points="157,612.9,161,603.9,157,607.9,153,603.9,157,612.9" style="stroke:#000000;stroke-width:1.0;"/><text fill="#000000" font-family="sans-serif" font-size="13" lengthAdjust="spacing" textLength="38" x="158" y="548.4951">deploy</text></g><!--link Deploying to Enabled--><g id="link_Deploying_Enabled"><path d="M157.9,663.19 C159.24,699.29 161.5371,760.8641 162.8771,796.9041 " fill="none" id="Deploying-to-Enabled" style="stroke:#000000;stroke-width:1.0;"/><polygon fill="#000000" points="163.1,802.9,166.7628,793.7576,162.9142,797.9035,158.7684,794.0548,163.1,802.9" style="stroke:#000000;stroke-width:1.0;"/><text fill="#000000" font-family="sans-serif" font-size="13" lengthAdjust="spacing" textLength="52" x="161" y="738.4951">deployed</text></g><!--link Enabled to Disabled--><g id="link_Enabled_Disabled"><path d="M131.98,853.14 C114.49,868.42 94.5,889.81 85,914 C74.62,940.42 84.4915,966.583 96.6715,987.693 " fill="none" id="Enabled-to-Disabled" style="stroke:#000000;stroke-width:1.0;"/><polygon fill="#000000" points="99.67,992.89,98.6368,983.0955,97.1712,988.5592,91.7075,987.0935,99.67,992.89" style="stroke:#000000;stroke-width:1.0;"/><text fill="#000000" font-family="sans-serif" font-size="13" lengthAdjust="spacing" textLength="41" x="86" y="928.4951">disable</text></g><!--link Disabled to Enabled--><g id="link_Disabled_Enabled"><path d="M122.15,992.9 C131.36,956.86 147.1268,895.1038 156.3368,859.0038 " fill="none" id="Disabled-to-Enabled" style="stroke:#000000;stroke-width:1.0;"/><polygon fill="#000000" points="157.82,853.19,151.7193,860.9218,156.584,858.0348,159.471,862.8995,157.82,853.19" style="stroke:#000000;stroke-width:1.0;"/><text fill="#000000" font-family="sans-serif" font-size="13" lengthAdjust="spacing" textLength="38" x="142" y="928.4951">enable</text></g><!--link Enabled to Null--><g id="link_Enabled_Null"><path d="M177.38,853.19 C197.35,889.29 231.8253,951.61 251.7653,987.65 " fill="none" id="Enabled-to-Null" style="stroke:#000000;stroke-width:1.0;"/><polygon fill="#000000" points="254.67,992.9,253.813,983.0885,252.2494,988.525,246.8129,986.9614,254.67,992.9" style="stroke:#000000;stroke-width:1.0;"/></g><!--SRC=[XP0n3u8m48Nt-nMNCBCJ1XTrO54JH-9GIZ6DjH1wc1ZZVxUKLDf4yARhUrzVyiuG8u77WRg1pjGBTY-q8QQvmAHfECyoV06W7UF8GaiAdD5uX_xMHf2erv1JtpwaaQrUntQYK-rJwkiQjDUiKdzof5bWxBWwQPbKYl7R9Kqttm8vShS1U2N2mX8vTlu541hHZxbFZhNR0MOjGdqh3ueQm6jnfkzcoMcrcLvRY1HwuiOZ0VwCFGnAMVC3]--></g></svg>