<?xml version="1.0" encoding="UTF-8" standalone="no"?><svg xmlns="http://www.w3.org/2000/svg" xmlns:xlink="http://www.w3.org/1999/xlink" contentScriptType="application/ecmascript" contentStyleType="text/css" height="1087px" preserveAspectRatio="none" style="width:320px;height:1087px;" version="1.1" viewBox="0 0 320 1087" width="320px" zoomAndPan="magnify"><defs><filter height="300%" id="f1jbn2ml7nmemp" width="300%" x="-1" y="-1"><feGaussianBlur result="blurOut" stdDeviation="2.0"/><feColorMatrix in="blurOut" result="blurOut2" type="matrix" values="0 0 0 0 0 0 0 0 0 0 0 0 0 0 0 0 0 0 .4 0"/><feOffset dx="4.0" dy="4.0" in="blurOut2" result="blurOut3"/><feBlend in="SourceGraphic" in2="blurOut3" mode="normal"/></filter></defs><g><!--cluster OutputStreamInstance--><rect fill="#FFCC88" filter="url(#f1jbn2ml7nmemp)" height="1052" rx="12.5" ry="12.5" style="stroke: #A80036; stroke-width: 1.5;" width="220" x="22" y="24"/><rect fill="#FFFFFF" height="1018.3906" rx="12.5" ry="12.5" style="stroke: #FFFFFF; stroke-width: 1.0;" width="214" x="25" y="54.6094"/><line style="stroke: #A80036; stroke-width: 1.5;" x1="22" x2="242" y1="51.6094" y2="51.6094"/><text fill="#000000" font-family="sans-serif" font-size="14" lengthAdjust="spacingAndGlyphs" textLength="141" x="61.5" y="42.5332">OutputStreamInstance</text><rect fill="#FFCC88" filter="url(#f1jbn2ml7nmemp)" height="50" rx="12.5" ry="12.5" style="stroke: #A80036; stroke-width: 1.5;" width="50" x="147" y="60"/><line style="stroke: #A80036; stroke-width: 1.5;" x1="147" x2="197" y1="87.6094" y2="87.6094"/><text fill="#000000" font-family="sans-serif" font-size="14" lengthAdjust="spacingAndGlyphs" textLength="18" x="163" y="79.5332">Init</text><rect fill="#FFCC88" filter="url(#f1jbn2ml7nmemp)" height="50" rx="12.5" ry="12.5" style="stroke: #A80036; stroke-width: 1.5;" width="71" x="136.5" y="250"/><line style="stroke: #A80036; stroke-width: 1.5;" x1="136.5" x2="207.5" y1="277.6094" y2="277.6094"/><text fill="#000000" font-family="sans-serif" font-size="14" lengthAdjust="spacingAndGlyphs" textLength="51" x="146.5" y="269.5332">Created</text><rect fill="#FFCC88" filter="url(#f1jbn2ml7nmemp)" height="50" rx="12.5" ry="12.5" style="stroke: #A80036; stroke-width: 1.5;" width="94" x="125" y="440"/><line style="stroke: #A80036; stroke-width: 1.5;" x1="125" x2="219" y1="467.6094" y2="467.6094"/><text fill="#000000" font-family="sans-serif" font-size="14" lengthAdjust="spacingAndGlyphs" textLength="74" x="135" y="459.5332">Provisioned</text><rect fill="#FFCC88" filter="url(#f1jbn2ml7nmemp)" height="50" rx="12.5" ry="12.5" style="stroke: #A80036; stroke-width: 1.5;" width="83" x="130.5" y="630"/><line style="stroke: #A80036; stroke-width: 1.5;" x1="130.5" x2="213.5" y1="657.6094" y2="657.6094"/><text fill="#000000" font-family="sans-serif" font-size="14" lengthAdjust="spacingAndGlyphs" textLength="63" x="140.5" y="649.5332">Deploying</text><rect fill="#FFCC88" filter="url(#f1jbn2ml7nmemp)" height="50" rx="12.5" ry="12.5" style="stroke: #A80036; stroke-width: 1.5;" width="72" x="143" y="820"/><line style="stroke: #A80036; stroke-width: 1.5;" x1="143" x2="215" y1="847.6094" y2="847.6094"/><text fill="#000000" font-family="sans-serif" font-size="14" lengthAdjust="spacingAndGlyphs" textLength="52" x="153" y="839.5332">Enabled</text><rect fill="#FFCC88" filter="url(#f1jbn2ml7nmemp)" height="50" rx="12.5" ry="12.5" style="stroke: #A80036; stroke-width: 1.5;" width="75" x="92.5" y="1010"/><line style="stroke: #A80036; stroke-width: 1.5;" x1="92.5" x2="167.5" y1="1037.6094" y2="1037.6094"/><text fill="#000000" font-family="sans-serif" font-size="14" lengthAdjust="spacingAndGlyphs" textLength="55" x="102.5" y="1029.5332">Disabled</text><rect fill="#FEFECE" filter="url(#f1jbn2ml7nmemp)" height="50" rx="12.5" ry="12.5" style="stroke: #A80036; stroke-width: 1.5;" width="50" x="258" y="1010"/><line style="stroke: #A80036; stroke-width: 1.5;" x1="258" x2="308" y1="1037.6094" y2="1037.6094"/><text fill="#000000" font-family="sans-serif" font-size="14" lengthAdjust="spacingAndGlyphs" textLength="23" x="271.5" y="1029.5332">Null</text><!--link Init to Created--><path d="M172,110.193 C172,144.599 172,207.591 172,244.63 " fill="none" id="Init-Created" style="stroke: #000000; stroke-width: 1.0;"/><polygon fill="#000000" points="172,249.9,176,240.9,172,244.9,168,240.9,172,249.9" style="stroke: #000000; stroke-width: 1.0;"/><text fill="#000000" font-family="sans-serif" font-size="13" lengthAdjust="spacingAndGlyphs" textLength="36" x="173" y="185.4951">create</text><!--link Created to Provisioned--><path d="M172,300.193 C172,334.599 172,397.591 172,434.63 " fill="none" id="Created-Provisioned" style="stroke: #000000; stroke-width: 1.0;"/><polygon fill="#000000" points="172,439.9,176,430.9,172,434.9,168,430.9,172,439.9" style="stroke: #000000; stroke-width: 1.0;"/><text fill="#000000" font-family="sans-serif" font-size="13" lengthAdjust="spacingAndGlyphs" textLength="50" x="173" y="375.4951">provision</text><!--link Provisioned to Deploying--><path d="M172,490.193 C172,524.599 172,587.591 172,624.63 " fill="none" id="Provisioned-Deploying" style="stroke: #000000; stroke-width: 1.0;"/><polygon fill="#000000" points="172,629.9,176,620.9,172,624.9,168,620.9,172,629.9" style="stroke: #000000; stroke-width: 1.0;"/><text fill="#000000" font-family="sans-serif" font-size="13" lengthAdjust="spacingAndGlyphs" textLength="38" x="173" y="565.4951">deploy</text><!--link Deploying to Enabled--><path d="M172.901,680.193 C174.182,714.599 176.527,777.591 177.906,814.63 " fill="none" id="Deploying-Enabled" style="stroke: #000000; stroke-width: 1.0;"/><polygon fill="#000000" points="178.103,819.9,181.7633,810.7566,177.9158,814.9035,173.7689,811.056,178.103,819.9" style="stroke: #000000; stroke-width: 1.0;"/><text fill="#000000" font-family="sans-serif" font-size="13" lengthAdjust="spacingAndGlyphs" textLength="52" x="176" y="755.4951">deployed</text><!--link Enabled to Disabled--><path d="M146.981,870.143 C129.49,885.417 109.505,906.812 100,931 C90.3742,955.496 100.5165,984.333 111.536,1005.2546 " fill="none" id="Enabled-Disabled" style="stroke: #000000; stroke-width: 1.0;"/><polygon fill="#000000" points="114.043,1009.8603,113.2544,1000.0431,111.653,1005.4685,106.2276,1003.8671,114.043,1009.8603" style="stroke: #000000; stroke-width: 1.0;"/><text fill="#000000" font-family="sans-serif" font-size="13" lengthAdjust="spacingAndGlyphs" textLength="41" x="101" y="945.4951">disable</text><!--link Disabled to Enabled--><path d="M136.281,1009.9 C145.236,975.545 161.653,912.556 171.319,875.47 " fill="none" id="Disabled-Enabled" style="stroke: #000000; stroke-width: 1.0;"/><polygon fill="#000000" points="172.694,870.193,166.5529,877.8928,171.4326,875.0313,174.2942,879.911,172.694,870.193" style="stroke: #000000; stroke-width: 1.0;"/><text fill="#000000" font-family="sans-serif" font-size="13" lengthAdjust="spacingAndGlyphs" textLength="38" x="157" y="945.4951">enable</text><!--link Enabled to Null--><path d="M192.383,870.193 C211.495,904.74 246.549,968.107 267.004,1005.0841 " fill="none" id="Enabled-Null" style="stroke: #000000; stroke-width: 1.0;"/><polygon fill="#000000" points="269.668,1009.9,268.8119,1000.0884,267.2478,1005.5248,261.8115,1003.9607,269.668,1009.9" style="stroke: #000000; stroke-width: 1.0;"/><!--
@startuml



state OutputStreamInstance #ffcc88 {

    state Init #ffcc88 {
    }

    state Created #ffcc88 {
    }

    state Provisioned #ffcc88 {
    }

    state Deploying #ffcc88 {
    }

    state Enabled #ffcc88 {
    }

    state Disabled #ffcc88 {
    }




Init -[#black]- -> Created : create

Created -[#black]- -> Provisioned : provision

Provisioned -[#black]- -> Deploying : deploy

Deploying -[#black]- -> Enabled : deployed

Enabled -[#black]- -> Disabled : disable

Disabled -[#black]- -> Enabled : enable

}

 
 Enabled -[#black]- -> Null
 

@enduml

PlantUML version 1.2019.05(Sat Apr 20 09:45:36 PDT 2019)
(GPL source distribution)
Java Runtime: Java(TM) SE Runtime Environment
JVM: Java HotSpot(TM) Client VM
Java Version: 1.8.0_271-b09
Operating System: Windows 10
OS Version: 10.0
Default Encoding: Cp1252
Language: en
Country: US
--></g></svg>