<?xml version="1.0" encoding="us-ascii" standalone="no"?><svg xmlns="http://www.w3.org/2000/svg" xmlns:xlink="http://www.w3.org/1999/xlink" contentStyleType="text/css" height="314px" preserveAspectRatio="none" style="width:386px;height:314px;background:#FFFFFF;" version="1.1" viewBox="0 0 386 314" width="386px" zoomAndPan="magnify"><defs/><g><!--cluster DevSecOpsManager--><g id="cluster_DevSecOpsManager"><path d="M8.5,63 L153.5,63 A3.75,3.75 0 0 1 156,65.5 L163,86.6094 L376.5,86.6094 A2.5,2.5 0 0 1 379,89.1094 L379,304.5 A2.5,2.5 0 0 1 376.5,307 L8.5,307 A2.5,2.5 0 0 1 6,304.5 L6,65.5 A2.5,2.5 0 0 1 8.5,63 " fill="#00AAFF" style="stroke:#000000;stroke-width:1.5;"/><line style="stroke:#000000;stroke-width:1.5;" x1="6" x2="163" y1="86.6094" y2="86.6094"/><text fill="#000000" font-family="sans-serif" font-size="14" font-weight="bold" lengthAdjust="spacing" textLength="144" x="10" y="79.5332">DevSecOpsManager</text></g><!--class i--><g id="elem_i"><rect codeLine="6" fill="#F1F1F1" height="65.6094" id="i" rx="2.5" ry="2.5" style="stroke:#181818;stroke-width:0.5;" width="194" x="169" y="99"/><ellipse cx="197.95" cy="115" fill="#B4A7E5" rx="11" ry="11" style="stroke:#181818;stroke-width:1.0;"/><path d="M198.9031,111.6406 L198.9031,118.2969 L200.6219,118.2969 Q201.2313,118.2969 201.4969,118.5313 Q201.7625,118.7656 201.7625,119.1563 Q201.7625,119.5313 201.4969,119.7656 Q201.2313,120 200.6219,120 L195.4813,120 Q194.8719,120 194.6063,119.7656 Q194.3406,119.5313 194.3406,119.1406 Q194.3406,118.7656 194.6063,118.5313 Q194.8719,118.2969 195.4813,118.2969 L197.2,118.2969 L197.2,111.6406 L195.4813,111.6406 Q194.8719,111.6406 194.6063,111.4063 Q194.3406,111.1719 194.3406,110.7813 Q194.3406,110.4063 194.6063,110.1719 Q194.8719,109.9375 195.4813,109.9375 L200.6219,109.9375 Q201.2313,109.9375 201.4969,110.1719 Q201.7625,110.4063 201.7625,110.7813 Q201.7625,111.1719 201.4969,111.4063 Q201.2313,111.6406 200.6219,111.6406 L198.9031,111.6406 Z " fill="#000000"/><text fill="#000000" font-family="sans-serif" font-size="14" font-style="italic" lengthAdjust="spacing" textLength="131" x="215.05" y="120.7285">DevSecOpsManager</text><line style="stroke:#181818;stroke-width:0.5;" x1="170" x2="362" y1="131" y2="131"/><line style="stroke:#181818;stroke-width:0.5;" x1="170" x2="362" y1="139" y2="139"/><text fill="#000000" font-family="sans-serif" font-size="14" lengthAdjust="spacing" textLength="182" x="175" y="157.5332">/sabr/aml/dsom/data/create()</text></g><!--class Environment--><g id="elem_Environment"><rect codeLine="17" fill="#F1F1F1" height="65.6094" id="Environment" rx="2.5" ry="2.5" style="stroke:#181818;stroke-width:0.5;" width="111" x="22.5" y="99"/><ellipse cx="37.5" cy="115" fill="#ADD1B2" rx="11" ry="11" style="stroke:#181818;stroke-width:1.0;"/><path d="M40.2656,110.875 Q40.4219,110.6563 40.6094,110.5469 Q40.7969,110.4375 41.0156,110.4375 Q41.3906,110.4375 41.625,110.6953 Q41.8594,110.9531 41.8594,111.5625 L41.8594,113.0156 Q41.8594,113.625 41.625,113.8906 Q41.3906,114.1563 41.0156,114.1563 Q40.6719,114.1563 40.4688,113.9531 Q40.2656,113.7656 40.1563,113.25 Q40.1094,112.8906 39.9219,112.7031 Q39.5938,112.3281 38.9844,112.1094 Q38.375,111.8906 37.75,111.8906 Q36.9844,111.8906 36.3516,112.2188 Q35.7188,112.5469 35.2266,113.2969 Q34.7344,114.0469 34.7344,115.0781 L34.7344,116.1719 Q34.7344,117.4063 35.625,118.2266 Q36.5156,119.0469 38.1094,119.0469 Q39.0469,119.0469 39.7031,118.7969 Q40.0938,118.6406 40.5156,118.2031 Q40.7813,117.9375 40.9297,117.8594 Q41.0781,117.7813 41.2813,117.7813 Q41.6094,117.7813 41.8672,118.0391 Q42.125,118.2969 42.125,118.6406 Q42.125,118.9844 41.7813,119.3906 Q41.2813,119.9688 40.4844,120.2969 Q39.4063,120.75 38.1094,120.75 Q36.5938,120.75 35.3906,120.125 Q34.4063,119.625 33.7188,118.5547 Q33.0313,117.4844 33.0313,116.2031 L33.0313,115.0469 Q33.0313,113.7188 33.6484,112.5703 Q34.2656,111.4219 35.3594,110.8047 Q36.4531,110.1875 37.6875,110.1875 Q38.4219,110.1875 39.0703,110.3516 Q39.7188,110.5156 40.2656,110.875 Z " fill="#000000"/><text fill="#000000" font-family="sans-serif" font-size="14" lengthAdjust="spacing" textLength="79" x="51.5" y="120.7285">Environment</text><line style="stroke:#181818;stroke-width:0.5;" x1="23.5" x2="132.5" y1="131" y2="131"/><text fill="#000000" font-family="sans-serif" font-size="14" lengthAdjust="spacing" textLength="68" x="28.5" y="149.5332">string attr1</text><line style="stroke:#181818;stroke-width:0.5;" x1="23.5" x2="132.5" y1="156.6094" y2="156.6094"/></g><!--class ModelName--><g id="elem_ModelName"><rect fill="#F1F1F1" height="48" id="ModelName" rx="2.5" ry="2.5" style="stroke:#181818;stroke-width:0.5;" width="106" x="25" y="243"/><ellipse cx="40" cy="259" fill="#ADD1B2" rx="11" ry="11" style="stroke:#181818;stroke-width:1.0;"/><path d="M42.7656,254.875 Q42.9219,254.6563 43.1094,254.5469 Q43.2969,254.4375 43.5156,254.4375 Q43.8906,254.4375 44.125,254.6953 Q44.3594,254.9531 44.3594,255.5625 L44.3594,257.0156 Q44.3594,257.625 44.125,257.8906 Q43.8906,258.1563 43.5156,258.1563 Q43.1719,258.1563 42.9688,257.9531 Q42.7656,257.7656 42.6563,257.25 Q42.6094,256.8906 42.4219,256.7031 Q42.0938,256.3281 41.4844,256.1094 Q40.875,255.8906 40.25,255.8906 Q39.4844,255.8906 38.8516,256.2188 Q38.2188,256.5469 37.7266,257.2969 Q37.2344,258.0469 37.2344,259.0781 L37.2344,260.1719 Q37.2344,261.4063 38.125,262.2266 Q39.0156,263.0469 40.6094,263.0469 Q41.5469,263.0469 42.2031,262.7969 Q42.5938,262.6406 43.0156,262.2031 Q43.2813,261.9375 43.4297,261.8594 Q43.5781,261.7813 43.7813,261.7813 Q44.1094,261.7813 44.3672,262.0391 Q44.625,262.2969 44.625,262.6406 Q44.625,262.9844 44.2813,263.3906 Q43.7813,263.9688 42.9844,264.2969 Q41.9063,264.75 40.6094,264.75 Q39.0938,264.75 37.8906,264.125 Q36.9063,263.625 36.2188,262.5547 Q35.5313,261.4844 35.5313,260.2031 L35.5313,259.0469 Q35.5313,257.7188 36.1484,256.5703 Q36.7656,255.4219 37.8594,254.8047 Q38.9531,254.1875 40.1875,254.1875 Q40.9219,254.1875 41.5703,254.3516 Q42.2188,254.5156 42.7656,254.875 Z " fill="#000000"/><text fill="#000000" font-family="sans-serif" font-size="14" lengthAdjust="spacing" textLength="74" x="54" y="264.7285">ModelName</text><line style="stroke:#181818;stroke-width:0.5;" x1="26" x2="130" y1="275" y2="275"/><line style="stroke:#181818;stroke-width:0.5;" x1="26" x2="130" y1="283" y2="283"/></g><g id="elem_ilol4"><ellipse cx="221" cy="11" fill="#F1F1F1" rx="5" ry="5" style="stroke:#181818;stroke-width:1.5;"/></g><text fill="#000000" font-family="sans-serif" font-size="14" lengthAdjust="spacing" textLength="21" x="210.5" y="30.5332">CLI</text><g id="elem_ilol7"><ellipse cx="266" cy="11" fill="#F1F1F1" rx="5" ry="5" style="stroke:#181818;stroke-width:1.5;"/></g><text fill="#000000" font-family="sans-serif" font-size="14" lengthAdjust="spacing" textLength="37" x="247.5" y="30.5332">REST</text><g id="elem_ilol10"><ellipse cx="311" cy="11" fill="#F1F1F1" rx="5" ry="5" style="stroke:#181818;stroke-width:1.5;"/></g><text fill="#000000" font-family="sans-serif" font-size="14" lengthAdjust="spacing" textLength="29" x="296.5" y="30.5332">Web</text><!--link ilol4 to i--><g id="link_ilol4_i"><path d="M222.5,15.96 C227.32,28.7 242.76,69.54 253.87,98.93 " fill="none" id="ilol4-i" style="stroke:#181818;stroke-width:1.0;"/></g><!--link ilol7 to i--><g id="link_ilol7_i"><path d="M266,16.24 C266,29.28 266,69.71 266,98.9 " fill="none" id="ilol7-i" style="stroke:#181818;stroke-width:1.0;"/></g><!--link ilol10 to i--><g id="link_ilol10_i"><path d="M309.5,15.96 C304.68,28.7 289.24,69.54 278.13,98.93 " fill="none" id="ilol10-i" style="stroke:#181818;stroke-width:1.0;"/></g><!--link Environment to ModelName--><g id="link_Environment_ModelName"><path codeLine="20" d="M78,177.2 C78,201.18 78,215.37 78,236.85 " fill="none" id="Environment-ModelName" style="stroke:#181818;stroke-width:1.0;"/><polygon fill="none" points="78,165.2,74,171.2,78,177.2,82,171.2,78,165.2" style="stroke:#181818;stroke-width:1.0;"/><polygon fill="#181818" points="78,242.85,82,233.85,78,237.85,74,233.85,78,242.85" style="stroke:#181818;stroke-width:1.0;"/><text fill="#000000" font-family="sans-serif" font-size="13" lengthAdjust="spacing" textLength="42" x="79" y="209.4951">assoc1</text><text fill="#000000" font-family="sans-serif" font-size="13" lengthAdjust="spacing" textLength="7" x="70.1031" y="232.1517">1</text></g><!--SRC=[ZL2n3e8m4Dtx5PUwm40AguEBEfY89cBYV9I3D49BseR5yEyYXWJHmJTSNkvUthsx5kKTAmA-eouZUMvTYdfeM0whE4OiItWm1WEKzcHBb3-rw40DGfX1ECojmAOMXJEDAD2Za9RGKn2Emh7qh6TiUpn044OHA7RPPzU9toYVA6l_oJcjbZKw1tolEsMDRaXxlWWtmdchT0NelKs-fsEuPMTc2IQADi0J3gafg3vXGx0U7k6C_7Hx7_kwapq1]--></g></svg>