<?xml version="1.0" encoding="UTF-8" standalone="no"?><svg xmlns="http://www.w3.org/2000/svg" xmlns:xlink="http://www.w3.org/1999/xlink" contentScriptType="application/ecmascript" contentStyleType="text/css" height="610px" preserveAspectRatio="none" style="width:546px;height:610px;" version="1.1" viewBox="0 0 546 610" width="546px" zoomAndPan="magnify"><defs><filter height="300%" id="f1mk4tnlt8mqc5" width="300%" x="-1" y="-1"><feGaussianBlur result="blurOut" stdDeviation="2.0"/><feColorMatrix in="blurOut" result="blurOut2" type="matrix" values="0 0 0 0 0 0 0 0 0 0 0 0 0 0 0 0 0 0 .4 0"/><feOffset dx="4.0" dy="4.0" in="blurOut2" result="blurOut3"/><feBlend in="SourceGraphic" in2="blurOut3" mode="normal"/></filter></defs><g><!--cluster DevSecOpsManager--><polygon fill="#00AAFF" filter="url(#f1mk4tnlt8mqc5)" points="22,65,172,65,179,88.6094,524,88.6094,524,598,22,598,22,65" style="stroke: #000000; stroke-width: 1.5;"/><line style="stroke: #000000; stroke-width: 1.5;" x1="22" x2="179" y1="88.6094" y2="88.6094"/><text fill="#000000" font-family="sans-serif" font-size="14" font-weight="bold" lengthAdjust="spacingAndGlyphs" textLength="144" x="26" y="81.5332">DevSecOpsManager</text><!--class BuildInstance--><rect fill="#FEFECE" filter="url(#f1mk4tnlt8mqc5)" height="61.8359" id="BuildInstance" style="stroke: #A80036; stroke-width: 1.5;" width="107" x="400.5" y="149.5"/><ellipse cx="415.5" cy="165.5" fill="#ADD1B2" rx="11" ry="11" style="stroke: #A80036; stroke-width: 1.0;"/><path d="M418.2656,161.375 Q418.4219,161.1563 418.6094,161.0469 Q418.7969,160.9375 419.0156,160.9375 Q419.3906,160.9375 419.625,161.1953 Q419.8594,161.4531 419.8594,162.0625 L419.8594,163.5156 Q419.8594,164.125 419.625,164.3906 Q419.3906,164.6563 419.0156,164.6563 Q418.6719,164.6563 418.4688,164.4531 Q418.2656,164.2656 418.1563,163.75 Q418.1094,163.3906 417.9219,163.2031 Q417.5938,162.8281 416.9844,162.6094 Q416.375,162.3906 415.75,162.3906 Q414.9844,162.3906 414.3516,162.7188 Q413.7188,163.0469 413.2266,163.7969 Q412.7344,164.5469 412.7344,165.5781 L412.7344,166.6719 Q412.7344,167.9063 413.625,168.7266 Q414.5156,169.5469 416.1094,169.5469 Q417.0469,169.5469 417.7031,169.2969 Q418.0938,169.1406 418.5156,168.7031 Q418.7813,168.4375 418.9297,168.3594 Q419.0781,168.2813 419.2813,168.2813 Q419.6094,168.2813 419.8672,168.5391 Q420.125,168.7969 420.125,169.1406 Q420.125,169.4844 419.7813,169.8906 Q419.2813,170.4688 418.4844,170.7969 Q417.4063,171.25 416.1094,171.25 Q414.5938,171.25 413.3906,170.625 Q412.4063,170.125 411.7188,169.0547 Q411.0313,167.9844 411.0313,166.7031 L411.0313,165.5469 Q411.0313,164.2188 411.6484,163.0703 Q412.2656,161.9219 413.3594,161.3047 Q414.4531,160.6875 415.6875,160.6875 Q416.4219,160.6875 417.0703,160.8516 Q417.7188,161.0156 418.2656,161.375 Z "/><text fill="#000000" font-family="sans-serif" font-size="12" lengthAdjust="spacingAndGlyphs" textLength="75" x="429.5" y="170.4102">BuildInstance</text><line style="stroke: #A80036; stroke-width: 1.5;" x1="401.5" x2="506.5" y1="181.5" y2="181.5"/><text fill="#000000" font-family="sans-serif" font-size="11" lengthAdjust="spacingAndGlyphs" textLength="66" x="406.5" y="196.9189">string version</text><line style="stroke: #A80036; stroke-width: 1.5;" x1="401.5" x2="506.5" y1="203.3359" y2="203.3359"/><!--class Build--><rect fill="#FEFECE" filter="url(#f1mk4tnlt8mqc5)" height="61.8359" id="Build" style="stroke: #A80036; stroke-width: 1.5;" width="68" x="147" y="352"/><ellipse cx="165.6" cy="368" fill="#ADD1B2" rx="11" ry="11" style="stroke: #A80036; stroke-width: 1.0;"/><path d="M168.3656,363.875 Q168.5219,363.6563 168.7094,363.5469 Q168.8969,363.4375 169.1156,363.4375 Q169.4906,363.4375 169.725,363.6953 Q169.9594,363.9531 169.9594,364.5625 L169.9594,366.0156 Q169.9594,366.625 169.725,366.8906 Q169.4906,367.1563 169.1156,367.1563 Q168.7719,367.1563 168.5688,366.9531 Q168.3656,366.7656 168.2563,366.25 Q168.2094,365.8906 168.0219,365.7031 Q167.6938,365.3281 167.0844,365.1094 Q166.475,364.8906 165.85,364.8906 Q165.0844,364.8906 164.4516,365.2188 Q163.8188,365.5469 163.3266,366.2969 Q162.8344,367.0469 162.8344,368.0781 L162.8344,369.1719 Q162.8344,370.4063 163.725,371.2266 Q164.6156,372.0469 166.2094,372.0469 Q167.1469,372.0469 167.8031,371.7969 Q168.1938,371.6406 168.6156,371.2031 Q168.8813,370.9375 169.0297,370.8594 Q169.1781,370.7813 169.3813,370.7813 Q169.7094,370.7813 169.9672,371.0391 Q170.225,371.2969 170.225,371.6406 Q170.225,371.9844 169.8813,372.3906 Q169.3813,372.9688 168.5844,373.2969 Q167.5063,373.75 166.2094,373.75 Q164.6938,373.75 163.4906,373.125 Q162.5063,372.625 161.8188,371.5547 Q161.1313,370.4844 161.1313,369.2031 L161.1313,368.0469 Q161.1313,366.7188 161.7484,365.5703 Q162.3656,364.4219 163.4594,363.8047 Q164.5531,363.1875 165.7875,363.1875 Q166.5219,363.1875 167.1703,363.3516 Q167.8188,363.5156 168.3656,363.875 Z "/><text fill="#000000" font-family="sans-serif" font-size="12" lengthAdjust="spacingAndGlyphs" textLength="28" x="180.4" y="372.9102">Build</text><line style="stroke: #A80036; stroke-width: 1.5;" x1="148" x2="214" y1="384" y2="384"/><text fill="#000000" font-family="sans-serif" font-size="11" lengthAdjust="spacingAndGlyphs" textLength="56" x="153" y="399.4189">string name</text><line style="stroke: #A80036; stroke-width: 1.5;" x1="148" x2="214" y1="405.8359" y2="405.8359"/><!--class BuildRun--><rect fill="#FEFECE" filter="url(#f1mk4tnlt8mqc5)" height="89.5078" id="BuildRun" style="stroke: #A80036; stroke-width: 1.5;" width="83" x="364.5" y="338"/><ellipse cx="379.5" cy="354" fill="#ADD1B2" rx="11" ry="11" style="stroke: #A80036; stroke-width: 1.0;"/><path d="M382.2656,349.875 Q382.4219,349.6563 382.6094,349.5469 Q382.7969,349.4375 383.0156,349.4375 Q383.3906,349.4375 383.625,349.6953 Q383.8594,349.9531 383.8594,350.5625 L383.8594,352.0156 Q383.8594,352.625 383.625,352.8906 Q383.3906,353.1563 383.0156,353.1563 Q382.6719,353.1563 382.4688,352.9531 Q382.2656,352.7656 382.1563,352.25 Q382.1094,351.8906 381.9219,351.7031 Q381.5938,351.3281 380.9844,351.1094 Q380.375,350.8906 379.75,350.8906 Q378.9844,350.8906 378.3516,351.2188 Q377.7188,351.5469 377.2266,352.2969 Q376.7344,353.0469 376.7344,354.0781 L376.7344,355.1719 Q376.7344,356.4063 377.625,357.2266 Q378.5156,358.0469 380.1094,358.0469 Q381.0469,358.0469 381.7031,357.7969 Q382.0938,357.6406 382.5156,357.2031 Q382.7813,356.9375 382.9297,356.8594 Q383.0781,356.7813 383.2813,356.7813 Q383.6094,356.7813 383.8672,357.0391 Q384.125,357.2969 384.125,357.6406 Q384.125,357.9844 383.7813,358.3906 Q383.2813,358.9688 382.4844,359.2969 Q381.4063,359.75 380.1094,359.75 Q378.5938,359.75 377.3906,359.125 Q376.4063,358.625 375.7188,357.5547 Q375.0313,356.4844 375.0313,355.2031 L375.0313,354.0469 Q375.0313,352.7188 375.6484,351.5703 Q376.2656,350.4219 377.3594,349.8047 Q378.4531,349.1875 379.6875,349.1875 Q380.4219,349.1875 381.0703,349.3516 Q381.7188,349.5156 382.2656,349.875 Z "/><text fill="#000000" font-family="sans-serif" font-size="12" lengthAdjust="spacingAndGlyphs" textLength="51" x="393.5" y="358.9102">BuildRun</text><line style="stroke: #A80036; stroke-width: 1.5;" x1="365.5" x2="446.5" y1="370" y2="370"/><text fill="#000000" font-family="sans-serif" font-size="11" lengthAdjust="spacingAndGlyphs" textLength="56" x="370.5" y="385.4189">string name</text><text fill="#000000" font-family="sans-serif" font-size="11" lengthAdjust="spacingAndGlyphs" textLength="68" x="370.5" y="399.2549">date startTime</text><text fill="#000000" font-family="sans-serif" font-size="11" lengthAdjust="spacingAndGlyphs" textLength="64" x="370.5" y="413.0908">date endTime</text><line style="stroke: #A80036; stroke-width: 1.5;" x1="365.5" x2="446.5" y1="419.5078" y2="419.5078"/><!--class BuildLog--><rect fill="#FEFECE" filter="url(#f1mk4tnlt8mqc5)" height="75.6719" id="BuildLog" style="stroke: #A80036; stroke-width: 1.5;" width="81" x="365.5" y="506"/><ellipse cx="380.5" cy="522" fill="#ADD1B2" rx="11" ry="11" style="stroke: #A80036; stroke-width: 1.0;"/><path d="M383.2656,517.875 Q383.4219,517.6563 383.6094,517.5469 Q383.7969,517.4375 384.0156,517.4375 Q384.3906,517.4375 384.625,517.6953 Q384.8594,517.9531 384.8594,518.5625 L384.8594,520.0156 Q384.8594,520.625 384.625,520.8906 Q384.3906,521.1563 384.0156,521.1563 Q383.6719,521.1563 383.4688,520.9531 Q383.2656,520.7656 383.1563,520.25 Q383.1094,519.8906 382.9219,519.7031 Q382.5938,519.3281 381.9844,519.1094 Q381.375,518.8906 380.75,518.8906 Q379.9844,518.8906 379.3516,519.2188 Q378.7188,519.5469 378.2266,520.2969 Q377.7344,521.0469 377.7344,522.0781 L377.7344,523.1719 Q377.7344,524.4063 378.625,525.2266 Q379.5156,526.0469 381.1094,526.0469 Q382.0469,526.0469 382.7031,525.7969 Q383.0938,525.6406 383.5156,525.2031 Q383.7813,524.9375 383.9297,524.8594 Q384.0781,524.7813 384.2813,524.7813 Q384.6094,524.7813 384.8672,525.0391 Q385.125,525.2969 385.125,525.6406 Q385.125,525.9844 384.7813,526.3906 Q384.2813,526.9688 383.4844,527.2969 Q382.4063,527.75 381.1094,527.75 Q379.5938,527.75 378.3906,527.125 Q377.4063,526.625 376.7188,525.5547 Q376.0313,524.4844 376.0313,523.2031 L376.0313,522.0469 Q376.0313,520.7188 376.6484,519.5703 Q377.2656,518.4219 378.3594,517.8047 Q379.4531,517.1875 380.6875,517.1875 Q381.4219,517.1875 382.0703,517.3516 Q382.7188,517.5156 383.2656,517.875 Z "/><text fill="#000000" font-family="sans-serif" font-size="12" lengthAdjust="spacingAndGlyphs" textLength="49" x="394.5" y="526.9102">BuildLog</text><line style="stroke: #A80036; stroke-width: 1.5;" x1="366.5" x2="445.5" y1="538" y2="538"/><text fill="#000000" font-family="sans-serif" font-size="11" lengthAdjust="spacingAndGlyphs" textLength="56" x="371.5" y="553.4189">string name</text><text fill="#000000" font-family="sans-serif" font-size="11" lengthAdjust="spacingAndGlyphs" textLength="60" x="371.5" y="567.2549">string output</text><line style="stroke: #A80036; stroke-width: 1.5;" x1="366.5" x2="445.5" y1="573.6719" y2="573.6719"/><!--class i--><rect fill="#FEFECE" filter="url(#f1mk4tnlt8mqc5)" height="158.6875" id="i" style="stroke: #A80036; stroke-width: 1.5;" width="191" x="174.5" y="101"/><ellipse cx="210.2" cy="117" fill="#B4A7E5" rx="11" ry="11" style="stroke: #A80036; stroke-width: 1.0;"/><path d="M211.1531,113.6406 L211.1531,120.2969 L212.8719,120.2969 Q213.4813,120.2969 213.7469,120.5313 Q214.0125,120.7656 214.0125,121.1563 Q214.0125,121.5313 213.7469,121.7656 Q213.4813,122 212.8719,122 L207.7313,122 Q207.1219,122 206.8563,121.7656 Q206.5906,121.5313 206.5906,121.1406 Q206.5906,120.7656 206.8563,120.5313 Q207.1219,120.2969 207.7313,120.2969 L209.45,120.2969 L209.45,113.6406 L207.7313,113.6406 Q207.1219,113.6406 206.8563,113.4063 Q206.5906,113.1719 206.5906,112.7813 Q206.5906,112.4063 206.8563,112.1719 Q207.1219,111.9375 207.7313,111.9375 L212.8719,111.9375 Q213.4813,111.9375 213.7469,112.1719 Q214.0125,112.4063 214.0125,112.7813 Q214.0125,113.1719 213.7469,113.4063 Q213.4813,113.6406 212.8719,113.6406 L211.1531,113.6406 Z "/><text fill="#000000" font-family="sans-serif" font-size="12" font-style="italic" lengthAdjust="spacingAndGlyphs" textLength="113" x="228.8" y="121.9102">DevSecOpsManager</text><line style="stroke: #A80036; stroke-width: 1.5;" x1="175.5" x2="364.5" y1="133" y2="133"/><line style="stroke: #A80036; stroke-width: 1.5;" x1="175.5" x2="364.5" y1="141" y2="141"/><text fill="#000000" font-family="sans-serif" font-size="11" lengthAdjust="spacingAndGlyphs" textLength="140" x="180.5" y="156.4189">/sabr/aml/dsom/build create()</text><text fill="#000000" font-family="sans-serif" font-size="11" lengthAdjust="spacingAndGlyphs" textLength="141" x="180.5" y="170.2549">/sabr/aml/dsom/build launch()</text><text fill="#000000" font-family="sans-serif" font-size="11" lengthAdjust="spacingAndGlyphs" textLength="122" x="180.5" y="184.0908">/sabr/aml/dsom/build list()</text><text fill="#000000" font-family="sans-serif" font-size="11" lengthAdjust="spacingAndGlyphs" textLength="144" x="180.5" y="197.9268">/sabr/aml/dsom/build monitor()</text><text fill="#000000" font-family="sans-serif" font-size="11" lengthAdjust="spacingAndGlyphs" textLength="141" x="180.5" y="211.7627">/sabr/aml/dsom/build restart()</text><text fill="#000000" font-family="sans-serif" font-size="11" lengthAdjust="spacingAndGlyphs" textLength="141" x="180.5" y="225.5986">/sabr/aml/dsom/build/cancel()</text><text fill="#000000" font-family="sans-serif" font-size="11" lengthAdjust="spacingAndGlyphs" textLength="177" x="180.5" y="239.4346">/sabr/aml/dsom/environment/create()</text><text fill="#000000" font-family="sans-serif" font-size="11" lengthAdjust="spacingAndGlyphs" textLength="179" x="180.5" y="253.2705">/sabr/aml/dsom/environment/update()</text><!--class Environment--><rect fill="#FEFECE" filter="url(#f1mk4tnlt8mqc5)" height="61.8359" id="Environment" style="stroke: #A80036; stroke-width: 1.5;" width="101" x="38.5" y="149.5"/><ellipse cx="53.5" cy="165.5" fill="#ADD1B2" rx="11" ry="11" style="stroke: #A80036; stroke-width: 1.0;"/><path d="M56.2656,161.375 Q56.4219,161.1563 56.6094,161.0469 Q56.7969,160.9375 57.0156,160.9375 Q57.3906,160.9375 57.625,161.1953 Q57.8594,161.4531 57.8594,162.0625 L57.8594,163.5156 Q57.8594,164.125 57.625,164.3906 Q57.3906,164.6563 57.0156,164.6563 Q56.6719,164.6563 56.4688,164.4531 Q56.2656,164.2656 56.1563,163.75 Q56.1094,163.3906 55.9219,163.2031 Q55.5938,162.8281 54.9844,162.6094 Q54.375,162.3906 53.75,162.3906 Q52.9844,162.3906 52.3516,162.7188 Q51.7188,163.0469 51.2266,163.7969 Q50.7344,164.5469 50.7344,165.5781 L50.7344,166.6719 Q50.7344,167.9063 51.625,168.7266 Q52.5156,169.5469 54.1094,169.5469 Q55.0469,169.5469 55.7031,169.2969 Q56.0938,169.1406 56.5156,168.7031 Q56.7813,168.4375 56.9297,168.3594 Q57.0781,168.2813 57.2813,168.2813 Q57.6094,168.2813 57.8672,168.5391 Q58.125,168.7969 58.125,169.1406 Q58.125,169.4844 57.7813,169.8906 Q57.2813,170.4688 56.4844,170.7969 Q55.4063,171.25 54.1094,171.25 Q52.5938,171.25 51.3906,170.625 Q50.4063,170.125 49.7188,169.0547 Q49.0313,167.9844 49.0313,166.7031 L49.0313,165.5469 Q49.0313,164.2188 49.6484,163.0703 Q50.2656,161.9219 51.3594,161.3047 Q52.4531,160.6875 53.6875,160.6875 Q54.4219,160.6875 55.0703,160.8516 Q55.7188,161.0156 56.2656,161.375 Z "/><text fill="#000000" font-family="sans-serif" font-size="12" lengthAdjust="spacingAndGlyphs" textLength="69" x="67.5" y="170.4102">Environment</text><line style="stroke: #A80036; stroke-width: 1.5;" x1="39.5" x2="138.5" y1="181.5" y2="181.5"/><text fill="#000000" font-family="sans-serif" font-size="11" lengthAdjust="spacingAndGlyphs" textLength="56" x="44.5" y="196.9189">string name</text><line style="stroke: #A80036; stroke-width: 1.5;" x1="39.5" x2="138.5" y1="203.3359" y2="203.3359"/><ellipse cx="225" cy="13" fill="#FEFECE" filter="url(#f1mk4tnlt8mqc5)" rx="5" ry="5" style="stroke: #A80036; stroke-width: 1.5;"/><text fill="#000000" font-family="sans-serif" font-size="12" lengthAdjust="spacingAndGlyphs" textLength="19" x="215.5" y="30.457">CLI</text><ellipse cx="270" cy="13" fill="#FEFECE" filter="url(#f1mk4tnlt8mqc5)" rx="5" ry="5" style="stroke: #A80036; stroke-width: 1.5;"/><text fill="#000000" font-family="sans-serif" font-size="12" lengthAdjust="spacingAndGlyphs" textLength="32" x="254" y="30.457">REST</text><ellipse cx="315" cy="13" fill="#FEFECE" filter="url(#f1mk4tnlt8mqc5)" rx="5" ry="5" style="stroke: #A80036; stroke-width: 1.5;"/><text fill="#000000" font-family="sans-serif" font-size="12" lengthAdjust="spacingAndGlyphs" textLength="25" x="302.5" y="30.457">Web</text><!--link ilol1358 to i--><path d="M226.112,18.091 C229.347,29.988 239.125,65.949 248.633,100.915 " fill="none" id="ilol1358-i" style="stroke: #A80036; stroke-width: 1.0;"/><!--link ilol1361 to i--><path d="M270,18.091 C270,29.988 270,65.949 270,100.915 " fill="none" id="ilol1361-i" style="stroke: #A80036; stroke-width: 1.0;"/><!--link ilol1364 to i--><path d="M313.888,18.091 C310.653,29.988 300.875,65.949 291.367,100.915 " fill="none" id="ilol1364-i" style="stroke: #A80036; stroke-width: 1.0;"/><!--link Build to BuildInstance--><path d="M167.877,338.699 C165.47,321.689 166.647,303.135 178,290 C238.213,220.334 301.771,303.37 383,260 C399.793,251.034 414.621,236.47 426.325,222.307 " fill="none" id="Build-BuildInstance" style="stroke: #A80036; stroke-width: 1.0;"/><polygon fill="#A80036" points="434.647,211.653,425.9546,216.2835,431.5692,215.5934,432.2592,221.208,434.647,211.653" style="stroke: #A80036; stroke-width: 1.0;"/><line style="stroke: #A80036; stroke-width: 1.0;" x1="431.5692" x2="426.644" y1="215.5934" y2="221.898"/><polygon fill="#A80036" points="170.377,351.581,173.1604,344.9287,168.0903,339.8009,165.307,346.4532,170.377,351.581" style="stroke: #A80036; stroke-width: 1.0;"/><text fill="#000000" font-family="sans-serif" font-size="13" lengthAdjust="spacingAndGlyphs" textLength="47" x="179" y="304.4951">versions</text><text fill="#000000" font-family="sans-serif" font-size="13" lengthAdjust="spacingAndGlyphs" textLength="7" x="431.5259" y="232.9071">n</text><!--link BuildInstance to Build--><path d="M421.511,221.905 C410.073,234.858 396.65,248.748 383,260 C333.694,300.646 269.486,337.051 226.837,359.294 " fill="none" id="BuildInstance-Build" style="stroke: #A80036; stroke-width: 1.0;"/><polygon fill="#A80036" points="215.141,365.321,224.9735,364.7534,219.5854,363.0304,221.3085,357.6423,215.141,365.321" style="stroke: #A80036; stroke-width: 1.0;"/><line style="stroke: #A80036; stroke-width: 1.0;" x1="219.5854" x2="226.6975" y1="363.0304" y2="359.3655"/><polygon fill="#FFFFFF" points="430.224,211.786,423.2777,213.7222,422.3932,220.8788,429.3396,218.9427,430.224,211.786" style="stroke: #A80036; stroke-width: 1.0;"/><text fill="#000000" font-family="sans-serif" font-size="13" lengthAdjust="spacingAndGlyphs" textLength="27" x="343" y="304.4951">build</text><text fill="#000000" font-family="sans-serif" font-size="13" lengthAdjust="spacingAndGlyphs" textLength="7" x="222.9045" y="357.573">1</text><!--link BuildInstance to BuildRun--><path d="M450.505,224.533 C447.847,249.252 443.354,280.711 436,308 C434.457,313.726 432.591,319.605 430.555,325.426 " fill="none" id="BuildInstance-BuildRun" style="stroke: #A80036; stroke-width: 1.0;"/><polygon fill="#A80036" points="425.881,337.994,432.7673,330.9528,427.6239,333.3076,425.2691,328.1642,425.881,337.994" style="stroke: #A80036; stroke-width: 1.0;"/><line style="stroke: #A80036; stroke-width: 1.0;" x1="427.6239" x2="430.4125" y1="333.3076" y2="325.809"/><polygon fill="#A80036" points="451.799,211.563,447.2234,217.1365,450.6082,223.5038,455.1839,217.9303,451.799,211.563" style="stroke: #A80036; stroke-width: 1.0;"/><text fill="#000000" font-family="sans-serif" font-size="13" lengthAdjust="spacingAndGlyphs" textLength="25" x="442" y="304.4951">runs</text><text fill="#000000" font-family="sans-serif" font-size="13" lengthAdjust="spacingAndGlyphs" textLength="7" x="421.4917" y="327.1085">n</text><!--link BuildRun to BuildInstance--><path d="M396.164,324.36 C395.728,312.874 396.377,300.974 399,290 C404.595,266.586 416.112,242.512 427.168,223.007 " fill="none" id="BuildRun-BuildInstance" style="stroke: #A80036; stroke-width: 1.0;"/><polygon fill="#A80036" points="433.755,211.796,425.747,217.5293,431.2221,216.1069,432.6445,221.582,433.755,211.796" style="stroke: #A80036; stroke-width: 1.0;"/><line style="stroke: #A80036; stroke-width: 1.0;" x1="431.2221" x2="427.17" y1="216.1069" y2="223.005"/><polygon fill="#FFFFFF" points="397.122,337.572,400.6777,331.2985,396.2543,325.6034,392.6986,331.8769,397.122,337.572" style="stroke: #A80036; stroke-width: 1.0;"/><text fill="#000000" font-family="sans-serif" font-size="13" lengthAdjust="spacingAndGlyphs" textLength="27" x="400" y="304.4951">build</text><text fill="#000000" font-family="sans-serif" font-size="13" lengthAdjust="spacingAndGlyphs" textLength="7" x="422.2286" y="232.8311">1</text><!--link BuildRun to BuildLog--><path d="M406,441.324 C406,458.138 406,476.391 406,492.73 " fill="none" id="BuildRun-BuildLog" style="stroke: #A80036; stroke-width: 1.0;"/><polygon fill="#A80036" points="406,505.932,410,496.932,406,500.932,402,496.932,406,505.932" style="stroke: #A80036; stroke-width: 1.0;"/><line style="stroke: #A80036; stroke-width: 1.0;" x1="406" x2="406" y1="500.932" y2="492.932"/><polygon fill="#A80036" points="406,428.29,402,434.29,406,440.29,410,434.29,406,428.29" style="stroke: #A80036; stroke-width: 1.0;"/><text fill="#000000" font-family="sans-serif" font-size="13" lengthAdjust="spacingAndGlyphs" textLength="24" x="407" y="472.4951">logs</text><text fill="#000000" font-family="sans-serif" font-size="13" lengthAdjust="spacingAndGlyphs" textLength="7" x="398.3766" y="495.2818">n</text><!--link Environment to Build--><path d="M86.0835,224.762 C86.1141,250.219 89.2825,282.347 102,308 C110.048,324.235 123.241,338.738 136.561,350.511 " fill="none" id="Environment-Build" style="stroke: #A80036; stroke-width: 1.0;"/><polygon fill="#A80036" points="146.689,358.964,142.3435,350.1257,142.8507,355.7597,137.2166,356.267,146.689,358.964" style="stroke: #A80036; stroke-width: 1.0;"/><line style="stroke: #A80036; stroke-width: 1.0;" x1="142.8507" x2="136.709" y1="355.7597" y2="350.634"/><polygon fill="#FFFFFF" points="86.3338,211.758,82.2192,217.68,86.103,223.7558,90.2177,217.8338,86.3338,211.758" style="stroke: #A80036; stroke-width: 1.0;"/><text fill="#000000" font-family="sans-serif" font-size="13" lengthAdjust="spacingAndGlyphs" textLength="34" x="103" y="304.4951">builds</text><text fill="#000000" font-family="sans-serif" font-size="13" lengthAdjust="spacingAndGlyphs" textLength="7" x="131.8905" y="349.9049">n</text><!--link Environment to BuildRun--><path d="M118.1,222.289 C129.124,235.624 142.537,249.652 157,260 C185.862,280.651 198.81,275.058 231,290 C272.497,309.262 318.221,333.405 352.522,352.126 " fill="none" id="Environment-BuildRun" style="stroke: #A80036; stroke-width: 1.0;"/><polygon fill="#A80036" points="364.152,358.504,358.1843,350.669,359.768,356.0997,354.3374,357.6834,364.152,358.504" style="stroke: #A80036; stroke-width: 1.0;"/><line style="stroke: #A80036; stroke-width: 1.0;" x1="359.768" x2="352.754" y1="356.0997" y2="352.2525"/><polygon fill="#FFFFFF" points="109.796,211.827,110.3927,219.0134,117.2558,221.2266,116.6591,214.0402,109.796,211.827" style="stroke: #A80036; stroke-width: 1.0;"/><text fill="#000000" font-family="sans-serif" font-size="13" lengthAdjust="spacingAndGlyphs" textLength="25" x="267" y="304.4951">runs</text><text fill="#000000" font-family="sans-serif" font-size="13" lengthAdjust="spacingAndGlyphs" textLength="7" x="349.6412" y="350.6868">n</text><!--
@startuml


package "DevSecOpsManager" #00aaff {
    
        class BuildInstance {
        }
    
        class Build {
        }
    
        class BuildRun {
        }
    
        class BuildLog {
        }
    }


package "DevSecOpsManager" #00aaff {

    interface "DevSecOpsManager" as i {
            /sabr/aml/dsom/build create()
            /sabr/aml/dsom/build launch()
            /sabr/aml/dsom/build list()
            /sabr/aml/dsom/build monitor()
            /sabr/aml/dsom/build restart()
            /sabr/aml/dsom/build/cancel()
            /sabr/aml/dsom/environment/create()
            /sabr/aml/dsom/environment/update()
    
    }
}

CLI ()- - i
REST ()- - i
Web ()- - i

package "DevSecOpsManager" #00aaff {
        class "Build" {
                 string name
                    }
                Build *- -> "n" BuildInstance : versions
            
    
    class "BuildInstance" {
                 string version
                    }
                BuildInstance o- -> "1" Build : build
                        BuildInstance *- -> "n" BuildRun : runs
            
    
    class "BuildLog" {
                 string name
                 string output
                    }
    
    
    class "BuildRun" {
                 string name
                 date startTime
                 date endTime
                    }
                BuildRun o- -> "1" BuildInstance : build
                        BuildRun *- -> "n" BuildLog : logs
            
    
    class "Environment" {
                 string name
                    }
                Environment o- -> "n" Build : builds
                        Environment o- -> "n" BuildRun : runs
            
    

}



@enduml

PlantUML version 1.2019.05(Sat Apr 20 09:45:36 PDT 2019)
(GPL source distribution)
Java Runtime: Java(TM) SE Runtime Environment
JVM: Java HotSpot(TM) Client VM
Java Version: 1.8.0_271-b09
Operating System: Windows 10
OS Version: 10.0
Default Encoding: Cp1252
Language: en
Country: US
--></g></svg>