<?xml version="1.0" encoding="us-ascii" standalone="no"?><svg xmlns="http://www.w3.org/2000/svg" xmlns:xlink="http://www.w3.org/1999/xlink" contentStyleType="text/css" height="347px" preserveAspectRatio="none" style="width:168px;height:347px;background:#FFFFFF;" version="1.1" viewBox="0 0 168 347" width="168px" zoomAndPan="magnify"><defs/><g><path d="M32,142.5 L130,142.5 A12.5,12.5 0 0 1 142.5,155 L142.5,170.1094 L19.5,170.1094 L19.5,155 A12.5,12.5 0 0 1 32,142.5 " fill="#00AAFF" style="stroke:#00AAFF;stroke-width:1.0;"/><rect fill="none" height="198.8281" rx="12.5" ry="12.5" style="stroke:#181818;stroke-width:0.5;" width="123" x="19.5" y="142.5"/><line style="stroke:#181818;stroke-width:0.5;" x1="19.5" x2="142.5" y1="170.1094" y2="170.1094"/><text fill="#000000" font-family="sans-serif" font-size="14" lengthAdjust="spacing" textLength="22" x="70" y="162.0332">aml</text><path d="M44,182.1094 L121,182.1094 A12.5,12.5 0 0 1 133.5,194.6094 L133.5,209.7188 L31.5,209.7188 L31.5,194.6094 A12.5,12.5 0 0 1 44,182.1094 " fill="#00AAFF" style="stroke:#00AAFF;stroke-width:1.0;"/><rect fill="none" height="149.2188" rx="12.5" ry="12.5" style="stroke:#181818;stroke-width:0.5;" width="102" x="31.5" y="182.1094"/><line style="stroke:#181818;stroke-width:0.5;" x1="31.5" x2="133.5" y1="209.7188" y2="209.7188"/><text fill="#000000" font-family="sans-serif" font-size="14" lengthAdjust="spacing" textLength="34" x="65.5" y="201.6426">dsom</text><path d="M56,221.7188 L112,221.7188 A12.5,12.5 0 0 1 124.5,234.2188 L124.5,249.3281 L43.5,249.3281 L43.5,234.2188 A12.5,12.5 0 0 1 56,221.7188 " fill="#00AAFF" style="stroke:#00AAFF;stroke-width:1.0;"/><rect fill="none" height="99.6094" rx="12.5" ry="12.5" style="stroke:#181818;stroke-width:0.5;" width="81" x="43.5" y="221.7188"/><line style="stroke:#181818;stroke-width:0.5;" x1="43.5" x2="124.5" y1="249.3281" y2="249.3281"/><text fill="#000000" font-family="sans-serif" font-size="14" lengthAdjust="spacing" textLength="28" x="70" y="241.252">data</text><g id="aml.amldsom.amldsomdata.amldsomdatacreate"><rect fill="#00AAFF" height="50" rx="12.5" ry="12.5" style="stroke:#181818;stroke-width:0.5;" width="60" x="55.5" y="261.3281"/><line style="stroke:#181818;stroke-width:0.5;" x1="55.5" x2="115.5" y1="288.9375" y2="288.9375"/><text fill="#000000" font-family="sans-serif" font-size="14" lengthAdjust="spacing" textLength="40" x="65.5" y="280.8613">create</text></g><path d="M19.5,7 L142.5,7 A12.5,12.5 0 0 1 155,19.5 L155,34.6094 L7,34.6094 L7,19.5 A12.5,12.5 0 0 1 19.5,7 " fill="#00AAFF" style="stroke:#00AAFF;stroke-width:1.0;"/><rect fill="none" height="99.6094" rx="12.5" ry="12.5" style="stroke:#181818;stroke-width:0.5;" width="148" x="7" y="7"/><line style="stroke:#181818;stroke-width:0.5;" x1="7" x2="155" y1="34.6094" y2="34.6094"/><text fill="#000000" font-family="sans-serif" font-size="14" lengthAdjust="spacing" textLength="56" x="53" y="26.5332">amldsom</text><g id="pstatename.dsomfunction"><rect fill="#F1F1F1" height="50" rx="12.5" ry="12.5" style="stroke:#181818;stroke-width:0.5;" width="127" x="19" y="46.6094"/><line style="stroke:#181818;stroke-width:0.5;" x1="19" x2="146" y1="74.2188" y2="74.2188"/><text fill="#000000" font-family="sans-serif" font-size="14" lengthAdjust="spacing" textLength="107" x="29" y="66.1426">Custom Function</text></g><!--SRC=[fP313SCW34NlJF6LBf0TAdKFAp4jKe0Ad5FLtMi8L2WzrXnilf-_31jRWKGaTty8LfTu4HU3CIOB2MCYlqsW3Csup3EHjNZrvfgZxzrI3yHRpsZoHPzL2-HveA7HsEkUHPrkUwYRr9aoR9lGwEgF5d_ksWaI6ebo_wMMn9hFtA6Utd_yWSO7]--></g></svg>