<?xml version="1.0" encoding="UTF-8" standalone="no"?><svg xmlns="http://www.w3.org/2000/svg" xmlns:xlink="http://www.w3.org/1999/xlink" contentScriptType="application/ecmascript" contentStyleType="text/css" height="357px" preserveAspectRatio="none" style="width:373px;height:357px;" version="1.1" viewBox="0 0 373 357" width="373px" zoomAndPan="magnify"><defs><filter height="300%" id="f18mhnweyye5bh" width="300%" x="-1" y="-1"><feGaussianBlur result="blurOut" stdDeviation="2.0"/><feColorMatrix in="blurOut" result="blurOut2" type="matrix" values="0 0 0 0 0 0 0 0 0 0 0 0 0 0 0 0 0 0 .4 0"/><feOffset dx="4.0" dy="4.0" in="blurOut2" result="blurOut3"/><feBlend in="SourceGraphic" in2="blurOut3" mode="normal"/></filter></defs><g><!--cluster DevSecOpsManager--><polygon fill="#00AAFF" filter="url(#f18mhnweyye5bh)" points="22,24,172,24,179,47.6094,246,47.6094,246,235,22,235,22,24" style="stroke: #000000; stroke-width: 1.5;"/><line style="stroke: #000000; stroke-width: 1.5;" x1="22" x2="179" y1="47.6094" y2="47.6094"/><text fill="#000000" font-family="sans-serif" font-size="14" font-weight="bold" lengthAdjust="spacingAndGlyphs" textLength="144" x="26" y="40.5332">DevSecOpsManager</text><!--class i--><rect fill="#FEFECE" filter="url(#f18mhnweyye5bh)" height="158.6875" id="i" style="stroke: #A80036; stroke-width: 1.5;" width="191" x="38.5" y="60"/><ellipse cx="74.2" cy="76" fill="#B4A7E5" rx="11" ry="11" style="stroke: #A80036; stroke-width: 1.0;"/><path d="M75.1531,72.6406 L75.1531,79.2969 L76.8719,79.2969 Q77.4813,79.2969 77.7469,79.5313 Q78.0125,79.7656 78.0125,80.1563 Q78.0125,80.5313 77.7469,80.7656 Q77.4813,81 76.8719,81 L71.7313,81 Q71.1219,81 70.8563,80.7656 Q70.5906,80.5313 70.5906,80.1406 Q70.5906,79.7656 70.8563,79.5313 Q71.1219,79.2969 71.7313,79.2969 L73.45,79.2969 L73.45,72.6406 L71.7313,72.6406 Q71.1219,72.6406 70.8563,72.4063 Q70.5906,72.1719 70.5906,71.7813 Q70.5906,71.4063 70.8563,71.1719 Q71.1219,70.9375 71.7313,70.9375 L76.8719,70.9375 Q77.4813,70.9375 77.7469,71.1719 Q78.0125,71.4063 78.0125,71.7813 Q78.0125,72.1719 77.7469,72.4063 Q77.4813,72.6406 76.8719,72.6406 L75.1531,72.6406 Z "/><text fill="#000000" font-family="sans-serif" font-size="12" font-style="italic" lengthAdjust="spacingAndGlyphs" textLength="113" x="92.8" y="80.9102">DevSecOpsManager</text><line style="stroke: #A80036; stroke-width: 1.5;" x1="39.5" x2="228.5" y1="92" y2="92"/><line style="stroke: #A80036; stroke-width: 1.5;" x1="39.5" x2="228.5" y1="100" y2="100"/><text fill="#000000" font-family="sans-serif" font-size="11" lengthAdjust="spacingAndGlyphs" textLength="140" x="44.5" y="115.4189">/sabr/aml/dsom/build create()</text><text fill="#000000" font-family="sans-serif" font-size="11" lengthAdjust="spacingAndGlyphs" textLength="141" x="44.5" y="129.2549">/sabr/aml/dsom/build launch()</text><text fill="#000000" font-family="sans-serif" font-size="11" lengthAdjust="spacingAndGlyphs" textLength="122" x="44.5" y="143.0908">/sabr/aml/dsom/build list()</text><text fill="#000000" font-family="sans-serif" font-size="11" lengthAdjust="spacingAndGlyphs" textLength="144" x="44.5" y="156.9268">/sabr/aml/dsom/build monitor()</text><text fill="#000000" font-family="sans-serif" font-size="11" lengthAdjust="spacingAndGlyphs" textLength="141" x="44.5" y="170.7627">/sabr/aml/dsom/build restart()</text><text fill="#000000" font-family="sans-serif" font-size="11" lengthAdjust="spacingAndGlyphs" textLength="141" x="44.5" y="184.5986">/sabr/aml/dsom/build/cancel()</text><text fill="#000000" font-family="sans-serif" font-size="11" lengthAdjust="spacingAndGlyphs" textLength="177" x="44.5" y="198.4346">/sabr/aml/dsom/environment/create()</text><text fill="#000000" font-family="sans-serif" font-size="11" lengthAdjust="spacingAndGlyphs" textLength="179" x="44.5" y="212.2705">/sabr/aml/dsom/environment/update()</text><!--entity REST--><ellipse cx="45" cy="312" fill="#FEFECE" filter="url(#f18mhnweyye5bh)" rx="8" ry="8" style="stroke: #A80036; stroke-width: 2.0;"/><text fill="#000000" font-family="sans-serif" font-size="14" lengthAdjust="spacingAndGlyphs" textLength="37" x="26.5" y="343.5332">REST</text><!--entity Web--><ellipse cx="134" cy="312" fill="#FEFECE" filter="url(#f18mhnweyye5bh)" rx="8" ry="8" style="stroke: #A80036; stroke-width: 2.0;"/><text fill="#000000" font-family="sans-serif" font-size="14" lengthAdjust="spacingAndGlyphs" textLength="29" x="119.5" y="343.5332">Web</text><!--entity CLI--><ellipse cx="223" cy="312" fill="#FEFECE" filter="url(#f18mhnweyye5bh)" rx="8" ry="8" style="stroke: #A80036; stroke-width: 2.0;"/><text fill="#000000" font-family="sans-serif" font-size="14" lengthAdjust="spacingAndGlyphs" textLength="21" x="212.5" y="343.5332">CLI</text><!--entity WebSocket--><ellipse cx="325" cy="139.5" fill="#FEFECE" filter="url(#f18mhnweyye5bh)" rx="8" ry="8" style="stroke: #A80036; stroke-width: 2.0;"/><text fill="#000000" font-family="sans-serif" font-size="14" lengthAdjust="spacingAndGlyphs" textLength="72" x="289" y="171.0332">WebSocket</text><!--link i to Web--><path d="M134,219.262 C134,252.7675 134,287.6174 134,302.9482 " fill="none" id="i-Web" style="stroke: #A80036; stroke-width: 1.0;"/><!--link i to CLI--><path d="M175.113,219.262 C192.603,252.7675 210.794,287.6174 218.797,302.9482 " fill="none" id="i-CLI" style="stroke: #A80036; stroke-width: 1.0;"/><!--link i to REST--><path d="M92.8867,219.262 C75.397,252.7675 57.2056,287.6174 49.203,302.9482 " fill="none" id="i-REST" style="stroke: #A80036; stroke-width: 1.0;"/><!--link i to WebSocket--><path d="M229.78,139.5 C264.778,139.5 299.725,139.5 315.822,139.5 " fill="none" id="i-WebSocket" style="stroke: #A80036; stroke-width: 1.0;"/><polygon fill="#000000" points="254.75,126.1758,248.75,129.1758,254.75,132.1758,254.75,126.1758" style="stroke: #000000; stroke-width: 1.0;"/><text fill="#000000" font-family="sans-serif" font-size="13" lengthAdjust="spacingAndGlyphs" textLength="37" x="260.75" y="132.9951">events</text><!--
@startuml


package "DevSecOpsManager" #00aaff {

}


package "DevSecOpsManager" #00aaff {

    interface "DevSecOpsManager" as i {
    
            /sabr/aml/dsom/build create()
            /sabr/aml/dsom/build launch()
            /sabr/aml/dsom/build list()
            /sabr/aml/dsom/build monitor()
            /sabr/aml/dsom/build restart()
            /sabr/aml/dsom/build/cancel()
            /sabr/aml/dsom/environment/create()
            /sabr/aml/dsom/environment/update()
    
    }
}

circle REST
circle Web
circle CLI
circle WebSocket

i -down- Web
i -down- CLI
i -down- REST
WebSocket -left- i: events >

package "DevSecOpsManager" #00aaff {


}



@enduml

PlantUML version 1.2019.05(Sat Apr 20 09:45:36 PDT 2019)
(GPL source distribution)
Java Runtime: Java(TM) SE Runtime Environment
JVM: Java HotSpot(TM) Client VM
Java Version: 1.8.0_271-b09
Operating System: Windows 10
OS Version: 10.0
Default Encoding: Cp1252
Language: en
Country: US
--></g></svg>