<?xml version="1.0" encoding="UTF-8" standalone="no"?><svg xmlns="http://www.w3.org/2000/svg" xmlns:xlink="http://www.w3.org/1999/xlink" contentScriptType="application/ecmascript" contentStyleType="text/css" height="224px" preserveAspectRatio="none" style="width:370px;height:224px;" version="1.1" viewBox="0 0 370 224" width="370px" zoomAndPan="magnify"><defs><filter height="300%" id="fbr7ra91sb4qc" width="300%" x="-1" y="-1"><feGaussianBlur result="blurOut" stdDeviation="2.0"/><feColorMatrix in="blurOut" result="blurOut2" type="matrix" values="0 0 0 0 0 0 0 0 0 0 0 0 0 0 0 0 0 0 .4 0"/><feOffset dx="4.0" dy="4.0" in="blurOut2" result="blurOut3"/><feBlend in="SourceGraphic" in2="blurOut3" mode="normal"/></filter></defs><g><!--cluster DevSecOpsManager--><rect fill="#00AAFF" filter="url(#fbr7ra91sb4qc)" height="158" style="stroke: #000000; stroke-width: 1.5;" width="201" x="158" y="24.5"/><text fill="#000000" font-family="sans-serif" font-size="14" font-weight="bold" lengthAdjust="spacingAndGlyphs" textLength="144" x="186.5" y="41.0332">DevSecOpsManager</text><ellipse cx="258.5964" cy="76.5193" fill="#FEFECE" filter="url(#fbr7ra91sb4qc)" rx="65.5964" ry="15.5193" style="stroke: #A80036; stroke-width: 1.5;"/><text fill="#000000" font-family="sans-serif" font-size="14" lengthAdjust="spacingAndGlyphs" textLength="89" x="214.0964" y="81.824">ManageBuilds</text><ellipse cx="258.4267" cy="146.2853" fill="#FEFECE" filter="url(#fbr7ra91sb4qc)" rx="84.4267" ry="19.2853" style="stroke: #A80036; stroke-width: 1.5;"/><text fill="#000000" font-family="sans-serif" font-size="14" lengthAdjust="spacingAndGlyphs" textLength="137" x="189.9267" y="151.59">ManageEnvironments</text><!--entity Actor--><ellipse cx="60" cy="19" fill="#FEFECE" filter="url(#fbr7ra91sb4qc)" rx="8" ry="8" style="stroke: #A80036; stroke-width: 2.0;"/><path d="M60,27 L60,54 M47,35 L73,35 M60,54 L47,69 M60,54 L73,69 " fill="none" filter="url(#fbr7ra91sb4qc)" style="stroke: #A80036; stroke-width: 2.0;"/><text fill="#000000" font-family="sans-serif" font-size="14" lengthAdjust="spacingAndGlyphs" textLength="33" x="43.5" y="90.5332">Actor</text><!--entity DevOpsEngineer--><ellipse cx="60" cy="139" fill="#FEFECE" filter="url(#fbr7ra91sb4qc)" rx="8" ry="8" style="stroke: #A80036; stroke-width: 2.0;"/><path d="M60,147 L60,174 M47,155 L73,155 M60,174 L47,189 M60,174 L73,189 " fill="none" filter="url(#fbr7ra91sb4qc)" style="stroke: #A80036; stroke-width: 2.0;"/><text fill="#000000" font-family="sans-serif" font-size="14" lengthAdjust="spacingAndGlyphs" textLength="108" x="6" y="210.5332">DevOpsEngineer</text><!--link Actor to ManageBuilds--><path d="M76.7483,53.504 C102.2149,56.744 153.78,63.304 195.34,68.592 " fill="none" id="Actor-ManageBuilds" style="stroke: #A80036; stroke-width: 1.0;"/><polygon fill="#A80036" points="200.356,69.23,191.9332,64.1255,195.396,68.5986,190.9229,72.0614,200.356,69.23" style="stroke: #A80036; stroke-width: 1.0;"/><!--link DevOpsEngineer to ManageEnvironments--><path d="M114.176,164.7346 C134.063,162.2044 157.097,159.274 178.803,156.5124 " fill="none" id="DevOpsEngineer-ManageEnvironments" style="stroke: #A80036; stroke-width: 1.0;"/><polygon fill="#A80036" points="183.996,155.8517,174.5637,153.0176,179.0359,156.4817,175.5717,160.9539,183.996,155.8517" style="stroke: #A80036; stroke-width: 1.0;"/><!--
@startuml

left to right direction
Actor "Actor" as Actor
Actor "DevOpsEngineer" as DevOpsEngineer


rectangle "DevSecOpsManager" #00aaff {
usecase "ManageBuilds" as ManageBuilds
    Actor - -> ManageBuilds
    usecase "ManageEnvironments" as ManageEnvironments
    DevOpsEngineer - -> ManageEnvironments
    }


@enduml

PlantUML version 1.2019.05(Sat Apr 20 09:45:36 PDT 2019)
(GPL source distribution)
Java Runtime: Java(TM) SE Runtime Environment
JVM: Java HotSpot(TM) Client VM
Java Version: 1.8.0_271-b09
Operating System: Windows 10
OS Version: 10.0
Default Encoding: Cp1252
Language: en
Country: US
--></g></svg>