<?xml version="1.0" encoding="UTF-8" standalone="no"?><svg xmlns="http://www.w3.org/2000/svg" xmlns:xlink="http://www.w3.org/1999/xlink" contentScriptType="application/ecmascript" contentStyleType="text/css" height="287px" preserveAspectRatio="none" style="width:444px;height:287px;" version="1.1" viewBox="0 0 444 287" width="444px" zoomAndPan="magnify"><defs><filter height="300%" id="f1hywbm0pgn3px" width="300%" x="-1" y="-1"><feGaussianBlur result="blurOut" stdDeviation="2.0"/><feColorMatrix in="blurOut" result="blurOut2" type="matrix" values="0 0 0 0 0 0 0 0 0 0 0 0 0 0 0 0 0 0 .4 0"/><feOffset dx="4.0" dy="4.0" in="blurOut2" result="blurOut3"/><feBlend in="SourceGraphic" in2="blurOut3" mode="normal"/></filter></defs><g><line style="stroke: #A80036; stroke-width: 1.0; stroke-dasharray: 5.0,5.0;" x1="65" x2="65" y1="87.6094" y2="198.6641"/><line style="stroke: #A80036; stroke-width: 1.0; stroke-dasharray: 5.0,5.0;" x1="216.5" x2="216.5" y1="87.6094" y2="198.6641"/><line style="stroke: #A80036; stroke-width: 1.0; stroke-dasharray: 5.0,5.0;" x1="319.5" x2="319.5" y1="87.6094" y2="198.6641"/><line style="stroke: #A80036; stroke-width: 1.0; stroke-dasharray: 5.0,5.0;" x1="409.5" x2="409.5" y1="87.6094" y2="198.6641"/><text fill="#000000" font-family="sans-serif" font-size="14" lengthAdjust="spacingAndGlyphs" textLength="108" x="8" y="84.5332">DevOpsEngineer</text><ellipse cx="65" cy="13" fill="#FEFECE" filter="url(#f1hywbm0pgn3px)" rx="8" ry="8" style="stroke: #A80036; stroke-width: 2.0;"/><path d="M65,21 L65,48 M52,29 L78,29 M65,48 L52,63 M65,48 L78,63 " fill="none" filter="url(#f1hywbm0pgn3px)" style="stroke: #A80036; stroke-width: 2.0;"/><text fill="#000000" font-family="sans-serif" font-size="14" lengthAdjust="spacingAndGlyphs" textLength="108" x="8" y="212.1973">DevOpsEngineer</text><ellipse cx="65" cy="225.2734" fill="#FEFECE" filter="url(#f1hywbm0pgn3px)" rx="8" ry="8" style="stroke: #A80036; stroke-width: 2.0;"/><path d="M65,233.2734 L65,260.2734 M52,241.2734 L78,241.2734 M65,260.2734 L52,275.2734 M65,260.2734 L78,275.2734 " fill="none" filter="url(#f1hywbm0pgn3px)" style="stroke: #A80036; stroke-width: 2.0;"/><rect fill="#FEFECE" filter="url(#f1hywbm0pgn3px)" height="31.6094" style="stroke: #A80036; stroke-width: 1.5;" width="145" x="142.5" y="51"/><text fill="#000000" font-family="sans-serif" font-size="14" lengthAdjust="spacingAndGlyphs" textLength="131" x="149.5" y="72.5332">DevSecOpsManager</text><rect fill="#FEFECE" filter="url(#f1hywbm0pgn3px)" height="31.6094" style="stroke: #A80036; stroke-width: 1.5;" width="145" x="142.5" y="197.6641"/><text fill="#000000" font-family="sans-serif" font-size="14" lengthAdjust="spacingAndGlyphs" textLength="131" x="149.5" y="219.1973">DevSecOpsManager</text><rect fill="#FEFECE" filter="url(#f1hywbm0pgn3px)" height="31.6094" style="stroke: #A80036; stroke-width: 1.5;" width="33" x="301.5" y="51"/><text fill="#000000" font-family="sans-serif" font-size="14" lengthAdjust="spacingAndGlyphs" textLength="19" x="308.5" y="72.5332">bin</text><rect fill="#FEFECE" filter="url(#f1hywbm0pgn3px)" height="31.6094" style="stroke: #A80036; stroke-width: 1.5;" width="33" x="301.5" y="197.6641"/><text fill="#000000" font-family="sans-serif" font-size="14" lengthAdjust="spacingAndGlyphs" textLength="19" x="308.5" y="219.1973">bin</text><rect fill="#FEFECE" filter="url(#f1hywbm0pgn3px)" height="31.6094" style="stroke: #A80036; stroke-width: 1.5;" width="51" x="382.5" y="51"/><text fill="#000000" font-family="sans-serif" font-size="14" lengthAdjust="spacingAndGlyphs" textLength="37" x="389.5" y="72.5332">REST</text><rect fill="#FEFECE" filter="url(#f1hywbm0pgn3px)" height="31.6094" style="stroke: #A80036; stroke-width: 1.5;" width="51" x="382.5" y="197.6641"/><text fill="#000000" font-family="sans-serif" font-size="14" lengthAdjust="spacingAndGlyphs" textLength="37" x="389.5" y="219.1973">REST</text><polygon fill="#A80036" points="205,115.9609,215,119.9609,205,123.9609,209,119.9609" style="stroke: #A80036; stroke-width: 1.0;"/><line style="stroke: #A80036; stroke-width: 1.0;" x1="65" x2="211" y1="119.9609" y2="119.9609"/><text fill="#000000" font-family="sans-serif" font-size="13" lengthAdjust="spacingAndGlyphs" textLength="128" x="72" y="115.1045">Manage Environments</text><polygon fill="#A80036" points="308,146.3125,318,150.3125,308,154.3125,312,150.3125" style="stroke: #A80036; stroke-width: 1.0;"/><line style="stroke: #A80036; stroke-width: 1.0;" x1="217" x2="314" y1="150.3125" y2="150.3125"/><text fill="#000000" font-family="sans-serif" font-size="13" lengthAdjust="spacingAndGlyphs" textLength="66" x="224" y="145.4561">data govern</text><polygon fill="#A80036" points="398,176.6641,408,180.6641,398,184.6641,402,180.6641" style="stroke: #A80036; stroke-width: 1.0;"/><line style="stroke: #A80036; stroke-width: 1.0;" x1="320" x2="404" y1="180.6641" y2="180.6641"/><text fill="#000000" font-family="sans-serif" font-size="13" lengthAdjust="spacingAndGlyphs" textLength="66" x="327" y="175.8076">data/govern</text><!--
@startuml


actor "DevOpsEngineer" as devops




devops -> "DevSecOpsManager": Manage Environments
"DevSecOpsManager" -> bin: data govern
bin -> REST: data/govern



@enduml

PlantUML version 1.2019.05(Sat Apr 20 09:45:36 PDT 2019)
(GPL source distribution)
Java Runtime: Java(TM) SE Runtime Environment
JVM: Java HotSpot(TM) 64-Bit Server VM
Java Version: 17.0.7+8-LTS-224
Operating System: Windows 11
OS Version: 10.0
Default Encoding: Cp1252
Language: en
Country: US
--></g></svg>