<?xml version="1.0" encoding="UTF-8" standalone="no"?><svg xmlns="http://www.w3.org/2000/svg" xmlns:xlink="http://www.w3.org/1999/xlink" contentScriptType="application/ecmascript" contentStyleType="text/css" height="378px" preserveAspectRatio="none" style="width:495px;height:378px;" version="1.1" viewBox="0 0 495 378" width="495px" zoomAndPan="magnify"><defs><filter height="300%" id="f1hhyywn2b0zv5" width="300%" x="-1" y="-1"><feGaussianBlur result="blurOut" stdDeviation="2.0"/><feColorMatrix in="blurOut" result="blurOut2" type="matrix" values="0 0 0 0 0 0 0 0 0 0 0 0 0 0 0 0 0 0 .4 0"/><feOffset dx="4.0" dy="4.0" in="blurOut2" result="blurOut3"/><feBlend in="SourceGraphic" in2="blurOut3" mode="normal"/></filter></defs><g><line style="stroke: #A80036; stroke-width: 1.0; stroke-dasharray: 5.0,5.0;" x1="27" x2="27" y1="87.6094" y2="289.7188"/><line style="stroke: #A80036; stroke-width: 1.0; stroke-dasharray: 5.0,5.0;" x1="114" x2="114" y1="87.6094" y2="289.7188"/><line style="stroke: #A80036; stroke-width: 1.0; stroke-dasharray: 5.0,5.0;" x1="265.5" x2="265.5" y1="87.6094" y2="289.7188"/><line style="stroke: #A80036; stroke-width: 1.0; stroke-dasharray: 5.0,5.0;" x1="368.5" x2="368.5" y1="87.6094" y2="289.7188"/><line style="stroke: #A80036; stroke-width: 1.0; stroke-dasharray: 5.0,5.0;" x1="460.5" x2="460.5" y1="87.6094" y2="289.7188"/><text fill="#000000" font-family="sans-serif" font-size="14" lengthAdjust="spacingAndGlyphs" textLength="33" x="8" y="84.5332">Actor</text><ellipse cx="27.5" cy="13" fill="#FEFECE" filter="url(#f1hhyywn2b0zv5)" rx="8" ry="8" style="stroke: #A80036; stroke-width: 2.0;"/><path d="M27.5,21 L27.5,48 M14.5,29 L40.5,29 M27.5,48 L14.5,63 M27.5,48 L40.5,63 " fill="none" filter="url(#f1hhyywn2b0zv5)" style="stroke: #A80036; stroke-width: 2.0;"/><text fill="#000000" font-family="sans-serif" font-size="14" lengthAdjust="spacingAndGlyphs" textLength="33" x="8" y="303.252">Actor</text><ellipse cx="27.5" cy="316.3281" fill="#FEFECE" filter="url(#f1hhyywn2b0zv5)" rx="8" ry="8" style="stroke: #A80036; stroke-width: 2.0;"/><path d="M27.5,324.3281 L27.5,351.3281 M14.5,332.3281 L40.5,332.3281 M27.5,351.3281 L14.5,366.3281 M27.5,351.3281 L40.5,366.3281 " fill="none" filter="url(#f1hhyywn2b0zv5)" style="stroke: #A80036; stroke-width: 2.0;"/><text fill="#000000" font-family="sans-serif" font-size="14" lengthAdjust="spacingAndGlyphs" textLength="108" x="57" y="84.5332">DevOpsEngineer</text><ellipse cx="114" cy="13" fill="#FEFECE" filter="url(#f1hhyywn2b0zv5)" rx="8" ry="8" style="stroke: #A80036; stroke-width: 2.0;"/><path d="M114,21 L114,48 M101,29 L127,29 M114,48 L101,63 M114,48 L127,63 " fill="none" filter="url(#f1hhyywn2b0zv5)" style="stroke: #A80036; stroke-width: 2.0;"/><text fill="#000000" font-family="sans-serif" font-size="14" lengthAdjust="spacingAndGlyphs" textLength="108" x="57" y="303.252">DevOpsEngineer</text><ellipse cx="114" cy="316.3281" fill="#FEFECE" filter="url(#f1hhyywn2b0zv5)" rx="8" ry="8" style="stroke: #A80036; stroke-width: 2.0;"/><path d="M114,324.3281 L114,351.3281 M101,332.3281 L127,332.3281 M114,351.3281 L101,366.3281 M114,351.3281 L127,366.3281 " fill="none" filter="url(#f1hhyywn2b0zv5)" style="stroke: #A80036; stroke-width: 2.0;"/><rect fill="#FEFECE" filter="url(#f1hhyywn2b0zv5)" height="31.6094" style="stroke: #A80036; stroke-width: 1.5;" width="145" x="191.5" y="51"/><text fill="#000000" font-family="sans-serif" font-size="14" lengthAdjust="spacingAndGlyphs" textLength="131" x="198.5" y="72.5332">DevSecOpsManager</text><rect fill="#FEFECE" filter="url(#f1hhyywn2b0zv5)" height="31.6094" style="stroke: #A80036; stroke-width: 1.5;" width="145" x="191.5" y="288.7188"/><text fill="#000000" font-family="sans-serif" font-size="14" lengthAdjust="spacingAndGlyphs" textLength="131" x="198.5" y="310.252">DevSecOpsManager</text><rect fill="#FEFECE" filter="url(#f1hhyywn2b0zv5)" height="31.6094" style="stroke: #A80036; stroke-width: 1.5;" width="33" x="350.5" y="51"/><text fill="#000000" font-family="sans-serif" font-size="14" lengthAdjust="spacingAndGlyphs" textLength="19" x="357.5" y="72.5332">bin</text><rect fill="#FEFECE" filter="url(#f1hhyywn2b0zv5)" height="31.6094" style="stroke: #A80036; stroke-width: 1.5;" width="33" x="350.5" y="288.7188"/><text fill="#000000" font-family="sans-serif" font-size="14" lengthAdjust="spacingAndGlyphs" textLength="19" x="357.5" y="310.252">bin</text><rect fill="#FEFECE" filter="url(#f1hhyywn2b0zv5)" height="31.6094" style="stroke: #A80036; stroke-width: 1.5;" width="51" x="433.5" y="51"/><text fill="#000000" font-family="sans-serif" font-size="14" lengthAdjust="spacingAndGlyphs" textLength="37" x="440.5" y="72.5332">REST</text><rect fill="#FEFECE" filter="url(#f1hhyywn2b0zv5)" height="31.6094" style="stroke: #A80036; stroke-width: 1.5;" width="51" x="433.5" y="288.7188"/><text fill="#000000" font-family="sans-serif" font-size="14" lengthAdjust="spacingAndGlyphs" textLength="37" x="440.5" y="310.252">REST</text><polygon fill="#A80036" points="254,115.9609,264,119.9609,254,123.9609,258,119.9609" style="stroke: #A80036; stroke-width: 1.0;"/><line style="stroke: #A80036; stroke-width: 1.0;" x1="27.5" x2="260" y1="119.9609" y2="119.9609"/><text fill="#000000" font-family="sans-serif" font-size="13" lengthAdjust="spacingAndGlyphs" textLength="86" x="34.5" y="115.1045">Manage Builds</text><polygon fill="#A80036" points="357,146.3125,367,150.3125,357,154.3125,361,150.3125" style="stroke: #A80036; stroke-width: 1.0;"/><line style="stroke: #A80036; stroke-width: 1.0;" x1="266" x2="363" y1="150.3125" y2="150.3125"/><text fill="#000000" font-family="sans-serif" font-size="13" lengthAdjust="spacingAndGlyphs" textLength="66" x="273" y="145.4561">data govern</text><polygon fill="#A80036" points="449,176.6641,459,180.6641,449,184.6641,453,180.6641" style="stroke: #A80036; stroke-width: 1.0;"/><line style="stroke: #A80036; stroke-width: 1.0;" x1="369" x2="455" y1="180.6641" y2="180.6641"/><text fill="#000000" font-family="sans-serif" font-size="13" lengthAdjust="spacingAndGlyphs" textLength="66" x="376" y="175.8076">data/govern</text><polygon fill="#A80036" points="254,207.0156,264,211.0156,254,215.0156,258,211.0156" style="stroke: #A80036; stroke-width: 1.0;"/><line style="stroke: #A80036; stroke-width: 1.0;" x1="114" x2="260" y1="211.0156" y2="211.0156"/><text fill="#000000" font-family="sans-serif" font-size="13" lengthAdjust="spacingAndGlyphs" textLength="128" x="121" y="206.1592">Manage Environments</text><polygon fill="#A80036" points="357,237.3672,367,241.3672,357,245.3672,361,241.3672" style="stroke: #A80036; stroke-width: 1.0;"/><line style="stroke: #A80036; stroke-width: 1.0;" x1="266" x2="363" y1="241.3672" y2="241.3672"/><text fill="#000000" font-family="sans-serif" font-size="13" lengthAdjust="spacingAndGlyphs" textLength="68" x="273" y="236.5107">build govern</text><polygon fill="#A80036" points="449,267.7188,459,271.7188,449,275.7188,453,271.7188" style="stroke: #A80036; stroke-width: 1.0;"/><line style="stroke: #A80036; stroke-width: 1.0;" x1="369" x2="455" y1="271.7188" y2="271.7188"/><text fill="#000000" font-family="sans-serif" font-size="13" lengthAdjust="spacingAndGlyphs" textLength="68" x="376" y="266.8623">build/govern</text><!--
@startuml


actor "Actor" as actor

actor "DevOpsEngineer" as devops




actor -> "DevSecOpsManager": Manage Builds
"DevSecOpsManager" -> bin: data govern
bin -> REST: data/govern

devops -> "DevSecOpsManager": Manage Environments
"DevSecOpsManager" -> bin: build govern
bin -> REST: build/govern



@enduml

PlantUML version 1.2019.05(Sat Apr 20 09:45:36 PDT 2019)
(GPL source distribution)
Java Runtime: Java(TM) SE Runtime Environment
JVM: Java HotSpot(TM) Client VM
Java Version: 1.8.0_271-b09
Operating System: Windows 10
OS Version: 10.0
Default Encoding: Cp1252
Language: en
Country: US
--></g></svg>