<?xml version="1.0" encoding="us-ascii" standalone="no"?><svg xmlns="http://www.w3.org/2000/svg" xmlns:xlink="http://www.w3.org/1999/xlink" contentStyleType="text/css" height="990px" preserveAspectRatio="none" style="width:660px;height:990px;background:#FFFFFF;" version="1.1" viewBox="0 0 660 990" width="660px" zoomAndPan="magnify"><defs/><g><!--cluster diml--><g id="cluster_diml"><path d="M19.5,7 L255.5,7 A12.5,12.5 0 0 1 268,19.5 L268,29.6094 L7,29.6094 L7,19.5 A12.5,12.5 0 0 1 19.5,7 " fill="#FFCC88" style="stroke:#FFCC88;stroke-width:1.0;"/><rect fill="none" height="862" rx="12.5" ry="12.5" style="stroke:#181818;stroke-width:0.5;" width="261" x="7" y="7"/><line style="stroke:#181818;stroke-width:0.5;" x1="7" x2="268" y1="29.6094" y2="29.6094"/><text fill="#000000" font-family="sans-serif" font-size="14" lengthAdjust="spacing" textLength="25" x="125" y="25.5332">diml</text></g><!--cluster dimldsm--><g id="cluster_dimldsm"><path d="M43.5,51 L231.5,51 A12.5,12.5 0 0 1 244,63.5 L244,73.6094 L31,73.6094 L31,63.5 A12.5,12.5 0 0 1 43.5,51 " fill="#FFCC88" style="stroke:#FFCC88;stroke-width:1.0;"/><rect fill="none" height="794" rx="12.5" ry="12.5" style="stroke:#181818;stroke-width:0.5;" width="213" x="31" y="51"/><line style="stroke:#181818;stroke-width:0.5;" x1="31" x2="244" y1="73.6094" y2="73.6094"/><text fill="#000000" font-family="sans-serif" font-size="14" lengthAdjust="spacing" textLength="26" x="124.5" y="69.5332">dsm</text></g><!--cluster dimldsminputchannelinstance--><g id="cluster_dimldsminputchannelinstance"><path d="M73.5,95 L201.5,95 A12.5,12.5 0 0 1 214,107.5 L214,117.6094 L61,117.6094 L61,107.5 A12.5,12.5 0 0 1 73.5,95 " fill="#FFCC88" style="stroke:#FFCC88;stroke-width:1.0;"/><rect fill="none" height="102" rx="12.5" ry="12.5" style="stroke:#181818;stroke-width:0.5;" width="153" x="61" y="95"/><line style="stroke:#181818;stroke-width:0.5;" x1="61" x2="214" y1="117.6094" y2="117.6094"/><text fill="#000000" font-family="sans-serif" font-size="14" lengthAdjust="spacing" textLength="137" x="69" y="113.5332">InputChannelInstance</text></g><!--cluster dimldsminputstreaminstance--><g id="cluster_dimldsminputstreaminstance"><path d="M77.5,221 L197.5,221 A12.5,12.5 0 0 1 210,233.5 L210,243.6094 L65,243.6094 L65,233.5 A12.5,12.5 0 0 1 77.5,221 " fill="#FFCC88" style="stroke:#FFCC88;stroke-width:1.0;"/><rect fill="none" height="102" rx="12.5" ry="12.5" style="stroke:#181818;stroke-width:0.5;" width="145" x="65" y="221"/><line style="stroke:#181818;stroke-width:0.5;" x1="65" x2="210" y1="243.6094" y2="243.6094"/><text fill="#000000" font-family="sans-serif" font-size="14" lengthAdjust="spacing" textLength="129" x="73" y="239.5332">InputStreamInstance</text></g><!--cluster dimldsmoutputchannelinstance--><g id="cluster_dimldsmoutputchannelinstance"><path d="M67.5,347 L207.5,347 A12.5,12.5 0 0 1 220,359.5 L220,369.6094 L55,369.6094 L55,359.5 A12.5,12.5 0 0 1 67.5,347 " fill="#FFCC88" style="stroke:#FFCC88;stroke-width:1.0;"/><rect fill="none" height="102" rx="12.5" ry="12.5" style="stroke:#181818;stroke-width:0.5;" width="165" x="55" y="347"/><line style="stroke:#181818;stroke-width:0.5;" x1="55" x2="220" y1="369.6094" y2="369.6094"/><text fill="#000000" font-family="sans-serif" font-size="14" lengthAdjust="spacing" textLength="149" x="63" y="365.5332">OutputChannelInstance</text></g><!--cluster dimldsmoutputstreaminstance--><g id="cluster_dimldsmoutputstreaminstance"><path d="M71.5,473 L203.5,473 A12.5,12.5 0 0 1 216,485.5 L216,495.6094 L59,495.6094 L59,485.5 A12.5,12.5 0 0 1 71.5,473 " fill="#FFCC88" style="stroke:#FFCC88;stroke-width:1.0;"/><rect fill="none" height="102" rx="12.5" ry="12.5" style="stroke:#181818;stroke-width:0.5;" width="157" x="59" y="473"/><line style="stroke:#181818;stroke-width:0.5;" x1="59" x2="216" y1="495.6094" y2="495.6094"/><text fill="#000000" font-family="sans-serif" font-size="14" lengthAdjust="spacing" textLength="141" x="67" y="491.5332">OutputStreamInstance</text></g><!--cluster sabr--><g id="cluster_sabr"><path d="M405,97 L634,97 A12.5,12.5 0 0 1 646.5,109.5 L646.5,119.6094 L392.5,119.6094 L392.5,109.5 A12.5,12.5 0 0 1 405,97 " fill="#BBAAFF" style="stroke:#BBAAFF;stroke-width:1.0;"/><rect fill="none" height="432" rx="12.5" ry="12.5" style="stroke:#181818;stroke-width:0.5;" width="254" x="392.5" y="97"/><line style="stroke:#181818;stroke-width:0.5;" x1="392.5" x2="646.5" y1="119.6094" y2="119.6094"/><text fill="#000000" font-family="sans-serif" font-size="14" lengthAdjust="spacing" textLength="28" x="505.5" y="115.5332">sabr</text></g><!--cluster sabrdiml--><g id="cluster_sabrdiml"><path d="M429,141 L610,141 A12.5,12.5 0 0 1 622.5,153.5 L622.5,163.6094 L416.5,163.6094 L416.5,153.5 A12.5,12.5 0 0 1 429,141 " fill="#FFCC88" style="stroke:#FFCC88;stroke-width:1.0;"/><rect fill="none" height="364" rx="12.5" ry="12.5" style="stroke:#181818;stroke-width:0.5;" width="206" x="416.5" y="141"/><line style="stroke:#181818;stroke-width:0.5;" x1="416.5" x2="622.5" y1="163.6094" y2="163.6094"/><text fill="#000000" font-family="sans-serif" font-size="14" lengthAdjust="spacing" textLength="25" x="507" y="159.5332">diml</text></g><!--cluster sabrdimldsm--><g id="cluster_sabrdimldsm"><path d="M453,185 L586,185 A12.5,12.5 0 0 1 598.5,197.5 L598.5,207.6094 L440.5,207.6094 L440.5,197.5 A12.5,12.5 0 0 1 453,185 " fill="#FFCC88" style="stroke:#FFCC88;stroke-width:1.0;"/><rect fill="none" height="296" rx="12.5" ry="12.5" style="stroke:#181818;stroke-width:0.5;" width="158" x="440.5" y="185"/><line style="stroke:#181818;stroke-width:0.5;" x1="440.5" x2="598.5" y1="207.6094" y2="207.6094"/><text fill="#000000" font-family="sans-serif" font-size="14" lengthAdjust="spacing" textLength="26" x="506.5" y="203.5332">dsm</text></g><!--cluster sabrdimldsmchannel--><g id="cluster_sabrdimldsmchannel"><path d="M477,229 L562,229 A12.5,12.5 0 0 1 574.5,241.5 L574.5,251.6094 L464.5,251.6094 L464.5,241.5 A12.5,12.5 0 0 1 477,229 " fill="#FFCC88" style="stroke:#FFCC88;stroke-width:1.0;"/><rect fill="none" height="102" rx="12.5" ry="12.5" style="stroke:#181818;stroke-width:0.5;" width="110" x="464.5" y="229"/><line style="stroke:#181818;stroke-width:0.5;" x1="464.5" x2="574.5" y1="251.6094" y2="251.6094"/><text fill="#000000" font-family="sans-serif" font-size="14" lengthAdjust="spacing" textLength="50" x="494.5" y="247.5332">channel</text></g><!--cluster sabrdimldsmstream--><g id="cluster_sabrdimldsmstream"><path d="M477,355 L562,355 A12.5,12.5 0 0 1 574.5,367.5 L574.5,377.6094 L464.5,377.6094 L464.5,367.5 A12.5,12.5 0 0 1 477,355 " fill="#FFCC88" style="stroke:#FFCC88;stroke-width:1.0;"/><rect fill="none" height="102" rx="12.5" ry="12.5" style="stroke:#181818;stroke-width:0.5;" width="110" x="464.5" y="355"/><line style="stroke:#181818;stroke-width:0.5;" x1="464.5" x2="574.5" y1="377.6094" y2="377.6094"/><text fill="#000000" font-family="sans-serif" font-size="14" lengthAdjust="spacing" textLength="43" x="498" y="373.5332">stream</text></g><path d="M100.5,594 L174.5,594 A12.5,12.5 0 0 1 187,606.5 L187,621.6094 L88,621.6094 L88,606.5 A12.5,12.5 0 0 1 100.5,594 " fill="#FFCC88" style="stroke:#FFCC88;stroke-width:1.0;"/><rect fill="none" height="99.6094" rx="12.5" ry="12.5" style="stroke:#181818;stroke-width:0.5;" width="99" x="88" y="594"/><line style="stroke:#181818;stroke-width:0.5;" x1="88" x2="187" y1="621.6094" y2="621.6094"/><text fill="#000000" font-family="sans-serif" font-size="14" lengthAdjust="spacing" textLength="50" x="112.5" y="613.5332">channel</text><g id="diml.dimldsm.dimldsmchannel.dimldsmchanneldeployed"><rect fill="#FFCC88" height="50" rx="12.5" ry="12.5" style="stroke:#181818;stroke-width:0.5;" width="78" x="100" y="633.6094"/><line style="stroke:#181818;stroke-width:0.5;" x1="100" x2="178" y1="661.2188" y2="661.2188"/><text fill="#000000" font-family="sans-serif" font-size="14" lengthAdjust="spacing" textLength="58" x="110" y="653.1426">deployed</text></g><path d="M100.5,729 L174.5,729 A12.5,12.5 0 0 1 187,741.5 L187,756.6094 L88,756.6094 L88,741.5 A12.5,12.5 0 0 1 100.5,729 " fill="#FFCC88" style="stroke:#FFCC88;stroke-width:1.0;"/><rect fill="none" height="99.6094" rx="12.5" ry="12.5" style="stroke:#181818;stroke-width:0.5;" width="99" x="88" y="729"/><line style="stroke:#181818;stroke-width:0.5;" x1="88" x2="187" y1="756.6094" y2="756.6094"/><text fill="#000000" font-family="sans-serif" font-size="14" lengthAdjust="spacing" textLength="43" x="116" y="748.5332">stream</text><g id="diml.dimldsm.dimldsmstream.dimldsmstreamdeployed"><rect fill="#FFCC88" height="50" rx="12.5" ry="12.5" style="stroke:#181818;stroke-width:0.5;" width="78" x="100" y="768.6094"/><line style="stroke:#181818;stroke-width:0.5;" x1="100" x2="178" y1="796.2188" y2="796.2188"/><text fill="#000000" font-family="sans-serif" font-size="14" lengthAdjust="spacing" textLength="58" x="110" y="788.1426">deployed</text></g><g id="diml.dimldsm.dimldsminputchannelinstance.dimldsminputchannelinstanceenabled"><rect fill="#FFCC88" height="50" rx="12.5" ry="12.5" style="stroke:#181818;stroke-width:0.5;" width="71" x="102" y="131"/><line style="stroke:#181818;stroke-width:0.5;" x1="102" x2="173" y1="158.6094" y2="158.6094"/><text fill="#000000" font-family="sans-serif" font-size="14" lengthAdjust="spacing" textLength="51" x="112" y="150.5332">enabled</text></g><g id="diml.dimldsm.dimldsminputstreaminstance.dimldsminputstreaminstanceenabled"><rect fill="#FFCC88" height="50" rx="12.5" ry="12.5" style="stroke:#181818;stroke-width:0.5;" width="71" x="102" y="257"/><line style="stroke:#181818;stroke-width:0.5;" x1="102" x2="173" y1="284.6094" y2="284.6094"/><text fill="#000000" font-family="sans-serif" font-size="14" lengthAdjust="spacing" textLength="51" x="112" y="276.5332">enabled</text></g><g id="diml.dimldsm.dimldsmoutputchannelinstance.dimldsmoutputchannelinstanceenabled"><rect fill="#FFCC88" height="50" rx="12.5" ry="12.5" style="stroke:#181818;stroke-width:0.5;" width="71" x="102" y="383"/><line style="stroke:#181818;stroke-width:0.5;" x1="102" x2="173" y1="410.6094" y2="410.6094"/><text fill="#000000" font-family="sans-serif" font-size="14" lengthAdjust="spacing" textLength="51" x="112" y="402.5332">enabled</text></g><g id="diml.dimldsm.dimldsmoutputstreaminstance.dimldsmoutputstreaminstanceenabled"><rect fill="#FFCC88" height="50" rx="12.5" ry="12.5" style="stroke:#181818;stroke-width:0.5;" width="71" x="102" y="509"/><line style="stroke:#181818;stroke-width:0.5;" x1="102" x2="173" y1="536.6094" y2="536.6094"/><text fill="#000000" font-family="sans-serif" font-size="14" lengthAdjust="spacing" textLength="51" x="112" y="528.5332">enabled</text></g><g id="sabr.sabrdiml.sabrdimldsm.sabrdimldsmchannel.sabrdimldsmchanneldeployed"><rect fill="#FFCC88" height="50" rx="12.5" ry="12.5" style="stroke:#181818;stroke-width:0.5;" width="78" x="480.5" y="265"/><line style="stroke:#181818;stroke-width:0.5;" x1="480.5" x2="558.5" y1="292.6094" y2="292.6094"/><text fill="#000000" font-family="sans-serif" font-size="14" lengthAdjust="spacing" textLength="58" x="490.5" y="284.5332">deployed</text></g><g id="sabr.sabrdiml.sabrdimldsm.sabrdimldsmstream.sabrdimldsmstreamdeployed"><rect fill="#FFCC88" height="50" rx="12.5" ry="12.5" style="stroke:#181818;stroke-width:0.5;" width="78" x="480.5" y="391"/><line style="stroke:#181818;stroke-width:0.5;" x1="480.5" x2="558.5" y1="418.6094" y2="418.6094"/><text fill="#000000" font-family="sans-serif" font-size="14" lengthAdjust="spacing" textLength="58" x="490.5" y="410.5332">deployed</text></g><path d="M76,885 L199,885 A12.5,12.5 0 0 1 211.5,897.5 L211.5,912.6094 L63.5,912.6094 L63.5,897.5 A12.5,12.5 0 0 1 76,885 " fill="#FFCC88" style="stroke:#FFCC88;stroke-width:1.0;"/><rect fill="none" height="99.6094" rx="12.5" ry="12.5" style="stroke:#181818;stroke-width:0.5;" width="148" x="63.5" y="885"/><line style="stroke:#181818;stroke-width:0.5;" x1="63.5" x2="211.5" y1="912.6094" y2="912.6094"/><text fill="#000000" font-family="sans-serif" font-size="14" lengthAdjust="spacing" textLength="51" x="112" y="904.5332">dimldsm</text><g id="pstatename.dsmfunction"><rect fill="#F1F1F1" height="50" rx="12.5" ry="12.5" style="stroke:#181818;stroke-width:0.5;" width="127" x="75.5" y="924.6094"/><line style="stroke:#181818;stroke-width:0.5;" x1="75.5" x2="202.5" y1="952.2188" y2="952.2188"/><text fill="#000000" font-family="sans-serif" font-size="14" lengthAdjust="spacing" textLength="107" x="85.5" y="944.1426">Custom Function</text></g><!--link dimldsminputchannelinstanceenabled to sabrdimldsmchanneldeployed--><g id="link_dimldsminputchannelinstanceenabled_sabrdimldsmchanneldeployed"><path d="M173.23,168.25 C244.41,193.35 400.7015,248.4647 474.6915,274.5547 " fill="none" id="dimldsminputchannelinstanceenabled-to-sabrdimldsmchanneldeployed" style="stroke:#181818;stroke-width:1.0;"/><polygon fill="#181818" points="480.35,276.55,473.1924,269.7847,475.6346,274.8873,470.532,277.3294,480.35,276.55" style="stroke:#181818;stroke-width:1.0;"/></g><!--link dimldsminputstreaminstanceenabled to sabrdimldsmstreamdeployed--><g id="link_dimldsminputstreaminstanceenabled_sabrdimldsmstreamdeployed"><path d="M173.23,294.25 C244.41,319.35 400.7015,374.4647 474.6915,400.5547 " fill="none" id="dimldsminputstreaminstanceenabled-to-sabrdimldsmstreamdeployed" style="stroke:#181818;stroke-width:1.0;"/><polygon fill="#181818" points="480.35,402.55,473.1924,395.7847,475.6346,400.8873,470.532,403.3294,480.35,402.55" style="stroke:#181818;stroke-width:1.0;"/></g><!--link dimldsmoutputchannelinstanceenabled to sabrdimldsmchanneldeployed--><g id="link_dimldsmoutputchannelinstanceenabled_sabrdimldsmchanneldeployed"><path d="M173.23,397.22 C244.41,375.11 400.6298,326.5989 474.6198,303.6289 " fill="none" id="dimldsmoutputchannelinstanceenabled-to-sabrdimldsmchanneldeployed" style="stroke:#181818;stroke-width:1.0;"/><polygon fill="#181818" points="480.35,301.85,470.5687,300.6983,475.5748,303.3324,472.9406,308.3385,480.35,301.85" style="stroke:#181818;stroke-width:1.0;"/></g><!--link dimldsmoutputstreaminstanceenabled to sabrdimldsmstreamdeployed--><g id="link_dimldsmoutputstreaminstanceenabled_sabrdimldsmstreamdeployed"><path d="M173.23,523.22 C244.41,501.11 400.6298,452.5989 474.6198,429.6289 " fill="none" id="dimldsmoutputstreaminstanceenabled-to-sabrdimldsmstreamdeployed" style="stroke:#181818;stroke-width:1.0;"/><polygon fill="#181818" points="480.35,427.85,470.5687,426.6983,475.5748,429.3324,472.9406,434.3385,480.35,427.85" style="stroke:#181818;stroke-width:1.0;"/></g><!--SRC=[vLInRiCW4Dtz5QTazfwfIwHAcJhq2x0D3H9Wo-2XYlhlnO0jY0d5Rg9MhRrWxjtJtVExOvWeK2tqzEsieA4zhXLjHL4KKY65OTTGpdQ098m7s1DIruS3NEQmv7DKdpt0Xtu3bWdQcJk1EFRGe1-7FGvIjHoU1s5AiVII4_Vjm8OUtFFTMXsWFYCXCFD1xYf2XZlMlkCc0fv2Ls9OGUvSibGzHW76tkGLRB79UkzUyKbqWpfQfKv2NueQ-nbqZ3ibgOilMRH_AXOs4qjqi5XdKrk-zIIgUaCv7c1VLGWHulKsjJw6q-rFY2zzvW7plBPCIFm_rsU6GcLPFYMuDSrZdF1gB7ZJ2DQXwtqGvlrE6tYpw-6ovdU1N-U1k3hN5WYP7-60bq6bbq5h05ksGJGprmU-O4cY7vWQgzdjiR7rRfYRME9smJPRhFWlItdkCn3nBw-WUCUhGfy0]--></g></svg>