<?xml version="1.0" encoding="UTF-8" standalone="no"?><svg xmlns="http://www.w3.org/2000/svg" xmlns:xlink="http://www.w3.org/1999/xlink" contentScriptType="application/ecmascript" contentStyleType="text/css" height="1030px" preserveAspectRatio="none" style="width:669px;height:1030px;" version="1.1" viewBox="0 0 669 1030" width="669px" zoomAndPan="magnify"><defs><filter height="300%" id="f8q7doin2u6ky" width="300%" x="-1" y="-1"><feGaussianBlur result="blurOut" stdDeviation="2.0"/><feColorMatrix in="blurOut" result="blurOut2" type="matrix" values="0 0 0 0 0 0 0 0 0 0 0 0 0 0 0 0 0 0 .4 0"/><feOffset dx="4.0" dy="4.0" in="blurOut2" result="blurOut3"/><feBlend in="SourceGraphic" in2="blurOut3" mode="normal"/></filter></defs><g><!--cluster diml--><rect fill="#FFCC88" filter="url(#f8q7doin2u6ky)" height="874" rx="12.5" ry="12.5" style="stroke: #A80036; stroke-width: 1.5;" width="261" x="14" y="24"/><rect fill="#FFFFFF" height="840.3906" rx="12.5" ry="12.5" style="stroke: #FFFFFF; stroke-width: 1.0;" width="255" x="17" y="54.6094"/><line style="stroke: #A80036; stroke-width: 1.5;" x1="14" x2="275" y1="51.6094" y2="51.6094"/><text fill="#000000" font-family="sans-serif" font-size="14" lengthAdjust="spacingAndGlyphs" textLength="25" x="132" y="42.5332">diml</text><!--cluster dimldsm--><rect fill="#FFCC88" filter="url(#f8q7doin2u6ky)" height="806" rx="12.5" ry="12.5" style="stroke: #A80036; stroke-width: 1.5;" width="213" x="38" y="68"/><rect fill="#FFFFFF" height="772.3906" rx="12.5" ry="12.5" style="stroke: #FFFFFF; stroke-width: 1.0;" width="207" x="41" y="98.6094"/><line style="stroke: #A80036; stroke-width: 1.5;" x1="38" x2="251" y1="95.6094" y2="95.6094"/><text fill="#000000" font-family="sans-serif" font-size="14" lengthAdjust="spacingAndGlyphs" textLength="26" x="131.5" y="86.5332">dsm</text><!--cluster dimldsminputchannelinstance--><rect fill="#FFCC88" filter="url(#f8q7doin2u6ky)" height="102" rx="12.5" ry="12.5" style="stroke: #A80036; stroke-width: 1.5;" width="153" x="68" y="112"/><rect fill="#FFFFFF" height="68.3906" rx="12.5" ry="12.5" style="stroke: #FFFFFF; stroke-width: 1.0;" width="147" x="71" y="142.6094"/><line style="stroke: #A80036; stroke-width: 1.5;" x1="68" x2="221" y1="139.6094" y2="139.6094"/><text fill="#000000" font-family="sans-serif" font-size="14" lengthAdjust="spacingAndGlyphs" textLength="137" x="76" y="130.5332">InputChannelInstance</text><!--cluster dimldsminputstreaminstance--><rect fill="#FFCC88" filter="url(#f8q7doin2u6ky)" height="102" rx="12.5" ry="12.5" style="stroke: #A80036; stroke-width: 1.5;" width="145" x="72" y="238"/><rect fill="#FFFFFF" height="68.3906" rx="12.5" ry="12.5" style="stroke: #FFFFFF; stroke-width: 1.0;" width="139" x="75" y="268.6094"/><line style="stroke: #A80036; stroke-width: 1.5;" x1="72" x2="217" y1="265.6094" y2="265.6094"/><text fill="#000000" font-family="sans-serif" font-size="14" lengthAdjust="spacingAndGlyphs" textLength="129" x="80" y="256.5332">InputStreamInstance</text><!--cluster dimldsmoutputchannelinstance--><rect fill="#FFCC88" filter="url(#f8q7doin2u6ky)" height="102" rx="12.5" ry="12.5" style="stroke: #A80036; stroke-width: 1.5;" width="165" x="62" y="364"/><rect fill="#FFFFFF" height="68.3906" rx="12.5" ry="12.5" style="stroke: #FFFFFF; stroke-width: 1.0;" width="159" x="65" y="394.6094"/><line style="stroke: #A80036; stroke-width: 1.5;" x1="62" x2="227" y1="391.6094" y2="391.6094"/><text fill="#000000" font-family="sans-serif" font-size="14" lengthAdjust="spacingAndGlyphs" textLength="149" x="70" y="382.5332">OutputChannelInstance</text><!--cluster dimldsmoutputstreaminstance--><rect fill="#FFCC88" filter="url(#f8q7doin2u6ky)" height="102" rx="12.5" ry="12.5" style="stroke: #A80036; stroke-width: 1.5;" width="157" x="66" y="490"/><rect fill="#FFFFFF" height="68.3906" rx="12.5" ry="12.5" style="stroke: #FFFFFF; stroke-width: 1.0;" width="151" x="69" y="520.6094"/><line style="stroke: #A80036; stroke-width: 1.5;" x1="66" x2="223" y1="517.6094" y2="517.6094"/><text fill="#000000" font-family="sans-serif" font-size="14" lengthAdjust="spacingAndGlyphs" textLength="141" x="74" y="508.5332">OutputStreamInstance</text><!--cluster sabr--><rect fill="#BBAAFF" filter="url(#f8q7doin2u6ky)" height="432" rx="12.5" ry="12.5" style="stroke: #A80036; stroke-width: 1.5;" width="254" x="403" y="127"/><rect fill="#FFFFFF" height="398.3906" rx="12.5" ry="12.5" style="stroke: #FFFFFF; stroke-width: 1.0;" width="248" x="406" y="157.6094"/><line style="stroke: #A80036; stroke-width: 1.5;" x1="403" x2="657" y1="154.6094" y2="154.6094"/><text fill="#000000" font-family="sans-serif" font-size="14" lengthAdjust="spacingAndGlyphs" textLength="28" x="516" y="145.5332">sabr</text><!--cluster sabrdiml--><rect fill="#FFCC88" filter="url(#f8q7doin2u6ky)" height="364" rx="12.5" ry="12.5" style="stroke: #A80036; stroke-width: 1.5;" width="206" x="427" y="171"/><rect fill="#FFFFFF" height="330.3906" rx="12.5" ry="12.5" style="stroke: #FFFFFF; stroke-width: 1.0;" width="200" x="430" y="201.6094"/><line style="stroke: #A80036; stroke-width: 1.5;" x1="427" x2="633" y1="198.6094" y2="198.6094"/><text fill="#000000" font-family="sans-serif" font-size="14" lengthAdjust="spacingAndGlyphs" textLength="25" x="517.5" y="189.5332">diml</text><!--cluster sabrdimldsm--><rect fill="#FFCC88" filter="url(#f8q7doin2u6ky)" height="296" rx="12.5" ry="12.5" style="stroke: #A80036; stroke-width: 1.5;" width="158" x="451" y="215"/><rect fill="#FFFFFF" height="262.3906" rx="12.5" ry="12.5" style="stroke: #FFFFFF; stroke-width: 1.0;" width="152" x="454" y="245.6094"/><line style="stroke: #A80036; stroke-width: 1.5;" x1="451" x2="609" y1="242.6094" y2="242.6094"/><text fill="#000000" font-family="sans-serif" font-size="14" lengthAdjust="spacingAndGlyphs" textLength="26" x="517" y="233.5332">dsm</text><!--cluster sabrdimldsmchannel--><rect fill="#FFCC88" filter="url(#f8q7doin2u6ky)" height="102" rx="12.5" ry="12.5" style="stroke: #A80036; stroke-width: 1.5;" width="110" x="475" y="259"/><rect fill="#FFFFFF" height="68.3906" rx="12.5" ry="12.5" style="stroke: #FFFFFF; stroke-width: 1.0;" width="104" x="478" y="289.6094"/><line style="stroke: #A80036; stroke-width: 1.5;" x1="475" x2="585" y1="286.6094" y2="286.6094"/><text fill="#000000" font-family="sans-serif" font-size="14" lengthAdjust="spacingAndGlyphs" textLength="50" x="505" y="277.5332">channel</text><!--cluster sabrdimldsmstream--><rect fill="#FFCC88" filter="url(#f8q7doin2u6ky)" height="102" rx="12.5" ry="12.5" style="stroke: #A80036; stroke-width: 1.5;" width="110" x="475" y="385"/><rect fill="#FFFFFF" height="68.3906" rx="12.5" ry="12.5" style="stroke: #FFFFFF; stroke-width: 1.0;" width="104" x="478" y="415.6094"/><line style="stroke: #A80036; stroke-width: 1.5;" x1="475" x2="585" y1="412.6094" y2="412.6094"/><text fill="#000000" font-family="sans-serif" font-size="14" lengthAdjust="spacingAndGlyphs" textLength="43" x="508.5" y="403.5332">stream</text><rect fill="#FFCC88" filter="url(#f8q7doin2u6ky)" height="105.6094" rx="12.5" ry="12.5" style="stroke: #A80036; stroke-width: 1.5;" width="122" x="83.5" y="611"/><rect fill="#FFFFFF" height="72" rx="12.5" ry="12.5" style="stroke: #FFFFFF; stroke-width: 1.0;" width="116" x="86.5" y="641.6094"/><line style="stroke: #A80036; stroke-width: 1.5;" x1="83.5" x2="205.5" y1="638.6094" y2="638.6094"/><text fill="#000000" font-family="sans-serif" font-size="14" lengthAdjust="spacingAndGlyphs" textLength="50" x="119.5" y="630.5332">channel</text><rect fill="#FFCC88" filter="url(#f8q7doin2u6ky)" height="50" rx="12.5" ry="12.5" style="stroke: #A80036; stroke-width: 1.5;" width="78" x="94.5" y="651.6094"/><line style="stroke: #A80036; stroke-width: 1.5;" x1="94.5" x2="172.5" y1="679.2188" y2="679.2188"/><text fill="#000000" font-family="sans-serif" font-size="14" lengthAdjust="spacingAndGlyphs" textLength="58" x="104.5" y="671.1426">deployed</text><rect fill="#FFCC88" filter="url(#f8q7doin2u6ky)" height="105.6094" rx="12.5" ry="12.5" style="stroke: #A80036; stroke-width: 1.5;" width="122" x="83.5" y="752"/><rect fill="#FFFFFF" height="72" rx="12.5" ry="12.5" style="stroke: #FFFFFF; stroke-width: 1.0;" width="116" x="86.5" y="782.6094"/><line style="stroke: #A80036; stroke-width: 1.5;" x1="83.5" x2="205.5" y1="779.6094" y2="779.6094"/><text fill="#000000" font-family="sans-serif" font-size="14" lengthAdjust="spacingAndGlyphs" textLength="43" x="123" y="771.5332">stream</text><rect fill="#FFCC88" filter="url(#f8q7doin2u6ky)" height="50" rx="12.5" ry="12.5" style="stroke: #A80036; stroke-width: 1.5;" width="78" x="94.5" y="792.6094"/><line style="stroke: #A80036; stroke-width: 1.5;" x1="94.5" x2="172.5" y1="820.2188" y2="820.2188"/><text fill="#000000" font-family="sans-serif" font-size="14" lengthAdjust="spacingAndGlyphs" textLength="58" x="104.5" y="812.1426">deployed</text><rect fill="#FFCC88" filter="url(#f8q7doin2u6ky)" height="50" rx="12.5" ry="12.5" style="stroke: #A80036; stroke-width: 1.5;" width="71" x="109" y="148"/><line style="stroke: #A80036; stroke-width: 1.5;" x1="109" x2="180" y1="175.6094" y2="175.6094"/><text fill="#000000" font-family="sans-serif" font-size="14" lengthAdjust="spacingAndGlyphs" textLength="51" x="119" y="167.5332">enabled</text><rect fill="#FFCC88" filter="url(#f8q7doin2u6ky)" height="50" rx="12.5" ry="12.5" style="stroke: #A80036; stroke-width: 1.5;" width="71" x="109" y="274"/><line style="stroke: #A80036; stroke-width: 1.5;" x1="109" x2="180" y1="301.6094" y2="301.6094"/><text fill="#000000" font-family="sans-serif" font-size="14" lengthAdjust="spacingAndGlyphs" textLength="51" x="119" y="293.5332">enabled</text><rect fill="#FFCC88" filter="url(#f8q7doin2u6ky)" height="50" rx="12.5" ry="12.5" style="stroke: #A80036; stroke-width: 1.5;" width="71" x="109" y="400"/><line style="stroke: #A80036; stroke-width: 1.5;" x1="109" x2="180" y1="427.6094" y2="427.6094"/><text fill="#000000" font-family="sans-serif" font-size="14" lengthAdjust="spacingAndGlyphs" textLength="51" x="119" y="419.5332">enabled</text><rect fill="#FFCC88" filter="url(#f8q7doin2u6ky)" height="50" rx="12.5" ry="12.5" style="stroke: #A80036; stroke-width: 1.5;" width="71" x="109" y="526"/><line style="stroke: #A80036; stroke-width: 1.5;" x1="109" x2="180" y1="553.6094" y2="553.6094"/><text fill="#000000" font-family="sans-serif" font-size="14" lengthAdjust="spacingAndGlyphs" textLength="51" x="119" y="545.5332">enabled</text><rect fill="#FFCC88" filter="url(#f8q7doin2u6ky)" height="50" rx="12.5" ry="12.5" style="stroke: #A80036; stroke-width: 1.5;" width="78" x="491" y="295"/><line style="stroke: #A80036; stroke-width: 1.5;" x1="491" x2="569" y1="322.6094" y2="322.6094"/><text fill="#000000" font-family="sans-serif" font-size="14" lengthAdjust="spacingAndGlyphs" textLength="58" x="501" y="314.5332">deployed</text><rect fill="#FFCC88" filter="url(#f8q7doin2u6ky)" height="50" rx="12.5" ry="12.5" style="stroke: #A80036; stroke-width: 1.5;" width="78" x="491" y="421"/><line style="stroke: #A80036; stroke-width: 1.5;" x1="491" x2="569" y1="448.6094" y2="448.6094"/><text fill="#000000" font-family="sans-serif" font-size="14" lengthAdjust="spacingAndGlyphs" textLength="58" x="501" y="440.5332">deployed</text><rect fill="#FFCC88" filter="url(#f8q7doin2u6ky)" height="105.6094" rx="12.5" ry="12.5" style="stroke: #A80036; stroke-width: 1.5;" width="171" x="59" y="914"/><rect fill="#FFFFFF" height="72" rx="12.5" ry="12.5" style="stroke: #FFFFFF; stroke-width: 1.0;" width="165" x="62" y="944.6094"/><line style="stroke: #A80036; stroke-width: 1.5;" x1="59" x2="230" y1="941.6094" y2="941.6094"/><text fill="#000000" font-family="sans-serif" font-size="14" lengthAdjust="spacingAndGlyphs" textLength="51" x="119" y="933.5332">dimldsm</text><rect fill="#FEFECE" filter="url(#f8q7doin2u6ky)" height="50" rx="12.5" ry="12.5" style="stroke: #A80036; stroke-width: 1.5;" width="127" x="70" y="954.6094"/><line style="stroke: #A80036; stroke-width: 1.5;" x1="70" x2="197" y1="982.2188" y2="982.2188"/><text fill="#000000" font-family="sans-serif" font-size="14" lengthAdjust="spacingAndGlyphs" textLength="107" x="80" y="974.1426">Custom Function</text><!--link dimldsminputchannelinstanceenabled to sabrdimldsmchanneldeployed--><path d="M180.209,186.305 C250.482,213.241 409.408,274.159 486.06,303.541 " fill="none" id="dimldsminputchannelinstanceenabled-sabrdimldsmchanneldeployed" style="stroke: #A80036; stroke-width: 1.0;"/><polygon fill="#A80036" points="490.988,305.43,484.0165,298.4731,486.3194,303.64,481.1525,305.9429,490.988,305.43" style="stroke: #A80036; stroke-width: 1.0;"/><!--link dimldsminputstreaminstanceenabled to sabrdimldsmstreamdeployed--><path d="M180.209,312.305 C250.482,339.241 409.408,400.159 486.06,429.541 " fill="none" id="dimldsminputstreaminstanceenabled-sabrdimldsmstreamdeployed" style="stroke: #A80036; stroke-width: 1.0;"/><polygon fill="#A80036" points="490.988,431.43,484.0165,424.4731,486.3194,429.64,481.1525,431.9429,490.988,431.43" style="stroke: #A80036; stroke-width: 1.0;"/><!--link dimldsmoutputchannelinstanceenabled to sabrdimldsmchanneldeployed--><path d="M180.209,415.497 C250.482,396.257 409.408,352.744 486.06,331.757 " fill="none" id="dimldsmoutputchannelinstanceenabled-sabrdimldsmchanneldeployed" style="stroke: #A80036; stroke-width: 1.0;"/><polygon fill="#A80036" points="490.988,330.407,481.2513,328.9248,486.1654,331.7269,483.3632,336.641,490.988,330.407" style="stroke: #A80036; stroke-width: 1.0;"/><!--link dimldsmoutputstreaminstanceenabled to sabrdimldsmstreamdeployed--><path d="M180.209,541.497 C250.482,522.257 409.408,478.744 486.06,457.757 " fill="none" id="dimldsmoutputstreaminstanceenabled-sabrdimldsmstreamdeployed" style="stroke: #A80036; stroke-width: 1.0;"/><polygon fill="#A80036" points="490.988,456.407,481.2513,454.9248,486.1654,457.7269,483.3632,462.641,490.988,456.407" style="stroke: #A80036; stroke-width: 1.0;"/><!--
@startuml
left to right direction


state "diml" as diml #ffcc88 {
state "dsm" as dimldsm #ffcc88 {
}
}


state "dimldsm" as pstatename #ffcc88 {
    state "Custom Function" as dsmfunction {
    }
}

        state "diml" as diml #ffcc88 {
state "dsm" as dimldsm #ffcc88 {
state "channel" as dimldsmchannel #ffcc88 {
state "deployed" as dimldsmchanneldeployed #ffcc88 {
}
}
}
}


        state "diml" as diml #ffcc88 {
state "dsm" as dimldsm #ffcc88 {
state "stream" as dimldsmstream #ffcc88 {
state "deployed" as dimldsmstreamdeployed #ffcc88 {
}
}
}
}




        state "diml" as diml #ffcc88 {
state "dsm" as dimldsm #ffcc88 {
state "InputChannelInstance" as dimldsminputchannelinstance #ffcc88 {
state "enabled" as dimldsminputchannelinstanceenabled #ffcc88 {
}
}
}
}

        
    state "sabr" as sabr #bbaaff {
state "diml" as sabrdiml #ffcc88 {
state "dsm" as sabrdimldsm #ffcc88 {
state "channel" as sabrdimldsmchannel #ffcc88 {
state "deployed" as sabrdimldsmchanneldeployed #ffcc88 {
}
}
}
}
}

    dimldsminputchannelinstanceenabled - - -> sabrdimldsmchanneldeployed
  

        state "diml" as diml #ffcc88 {
state "dsm" as dimldsm #ffcc88 {
state "InputStreamInstance" as dimldsminputstreaminstance #ffcc88 {
state "enabled" as dimldsminputstreaminstanceenabled #ffcc88 {
}
}
}
}

        
    state "sabr" as sabr #bbaaff {
state "diml" as sabrdiml #ffcc88 {
state "dsm" as sabrdimldsm #ffcc88 {
state "stream" as sabrdimldsmstream #ffcc88 {
state "deployed" as sabrdimldsmstreamdeployed #ffcc88 {
}
}
}
}
}

    dimldsminputstreaminstanceenabled - - -> sabrdimldsmstreamdeployed
  

        state "diml" as diml #ffcc88 {
state "dsm" as dimldsm #ffcc88 {
state "OutputChannelInstance" as dimldsmoutputchannelinstance #ffcc88 {
state "enabled" as dimldsmoutputchannelinstanceenabled #ffcc88 {
}
}
}
}

        
    
    dimldsmoutputchannelinstanceenabled - - -> sabrdimldsmchanneldeployed
  

        state "diml" as diml #ffcc88 {
state "dsm" as dimldsm #ffcc88 {
state "OutputStreamInstance" as dimldsmoutputstreaminstance #ffcc88 {
state "enabled" as dimldsmoutputstreaminstanceenabled #ffcc88 {
}
}
}
}

        
    
    dimldsmoutputstreaminstanceenabled - - -> sabrdimldsmstreamdeployed
  


    
    state "sabr" as sabr #bbaaff {
state "diml" as sabrdiml #ffcc88 {
state "dsm" as sabrdimldsm #ffcc88 {
state "channel" as sabrdimldsmchannel #ffcc88 {
state "deployed" as sabrdimldsmchanneldeployed #ffcc88 {
}
}
}
}
}

        
       
    
    state "sabr" as sabr #bbaaff {
state "diml" as sabrdiml #ffcc88 {
state "dsm" as sabrdimldsm #ffcc88 {
state "stream" as sabrdimldsmstream #ffcc88 {
state "deployed" as sabrdimldsmstreamdeployed #ffcc88 {
}
}
}
}
}

        
       
    
    
        
       
    
    
        
       

@enduml

PlantUML version 1.2019.05(Sat Apr 20 09:45:36 PDT 2019)
(GPL source distribution)
Java Runtime: Java(TM) SE Runtime Environment
JVM: Java HotSpot(TM) Client VM
Java Version: 1.8.0_271-b09
Operating System: Windows 10
OS Version: 10.0
Default Encoding: Cp1252
Language: en
Country: US
--></g></svg>