<?xml version="1.0" encoding="us-ascii" standalone="no"?><svg xmlns="http://www.w3.org/2000/svg" xmlns:xlink="http://www.w3.org/1999/xlink" contentStyleType="text/css" height="356px" preserveAspectRatio="none" style="width:787px;height:356px;background:#FFFFFF;" version="1.1" viewBox="0 0 787 356" width="787px" zoomAndPan="magnify"><defs/><g><!--cluster sabr--><g id="cluster_sabr"><path d="M8.5,6 L40.5,6 A3.75,3.75 0 0 1 43,8.5 L50,29.6094 L355.5,29.6094 A2.5,2.5 0 0 1 358,32.1094 L358,346.5 A2.5,2.5 0 0 1 355.5,349 L8.5,349 A2.5,2.5 0 0 1 6,346.5 L6,8.5 A2.5,2.5 0 0 1 8.5,6 " fill="none" style="stroke:#000000;stroke-width:1.5;"/><line style="stroke:#000000;stroke-width:1.5;" x1="6" x2="50" y1="29.6094" y2="29.6094"/><text fill="#000000" font-family="sans-serif" font-size="14" font-weight="bold" lengthAdjust="spacing" textLength="31" x="10" y="22.5332">sabr</text></g><!--cluster sabrdiml--><g id="cluster_sabrdiml"><path d="M32.5,50 L62.5,50 A3.75,3.75 0 0 1 65,52.5 L72,73.6094 L331.5,73.6094 A2.5,2.5 0 0 1 334,76.1094 L334,322.5 A2.5,2.5 0 0 1 331.5,325 L32.5,325 A2.5,2.5 0 0 1 30,322.5 L30,52.5 A2.5,2.5 0 0 1 32.5,50 " fill="none" style="stroke:#000000;stroke-width:1.5;"/><line style="stroke:#000000;stroke-width:1.5;" x1="30" x2="72" y1="73.6094" y2="73.6094"/><text fill="#000000" font-family="sans-serif" font-size="14" font-weight="bold" lengthAdjust="spacing" textLength="29" x="34" y="66.5332">diml</text></g><!--cluster sabrdimldsm--><g id="cluster_sabrdimldsm"><path d="M56.5,94 L86.5,94 A3.75,3.75 0 0 1 89,96.5 L96,117.6094 L307.5,117.6094 A2.5,2.5 0 0 1 310,120.1094 L310,298.5 A2.5,2.5 0 0 1 307.5,301 L56.5,301 A2.5,2.5 0 0 1 54,298.5 L54,96.5 A2.5,2.5 0 0 1 56.5,94 " fill="#FFCC88" style="stroke:#000000;stroke-width:1.5;"/><line style="stroke:#000000;stroke-width:1.5;" x1="54" x2="96" y1="117.6094" y2="117.6094"/><text fill="#000000" font-family="sans-serif" font-size="14" font-weight="bold" lengthAdjust="spacing" textLength="29" x="58" y="110.5332">dsm</text></g><!--entity sabrdimldsmchannel--><g id="elem_sabrdimldsmchannel"><rect fill="#F1F1F1" height="47.6094" rx="2.5" ry="2.5" style="stroke:#181818;stroke-width:0.5;" width="90" x="70" y="136"/><rect fill="#F1F1F1" height="10" style="stroke:#181818;stroke-width:0.5;" width="15" x="140" y="141"/><rect fill="#F1F1F1" height="2" style="stroke:#181818;stroke-width:0.5;" width="4" x="138" y="143"/><rect fill="#F1F1F1" height="2" style="stroke:#181818;stroke-width:0.5;" width="4" x="138" y="147"/><text fill="#000000" font-family="sans-serif" font-size="14" lengthAdjust="spacing" textLength="50" x="85" y="170.5332">channel</text></g><!--entity sabrdimldsmchanneldeployed--><g id="elem_sabrdimldsmchanneldeployed"><ellipse cx="257" cy="160" fill="#F1F1F1" rx="8" ry="8" style="stroke:#181818;stroke-width:0.5;"/><text fill="#000000" font-family="sans-serif" font-size="14" lengthAdjust="spacing" textLength="58" x="228" y="191.5332">deployed</text></g><!--entity sabrdimldsmstream--><g id="elem_sabrdimldsmstream"><rect fill="#F1F1F1" height="47.6094" rx="2.5" ry="2.5" style="stroke:#181818;stroke-width:0.5;" width="83" x="73.5" y="231"/><rect fill="#F1F1F1" height="10" style="stroke:#181818;stroke-width:0.5;" width="15" x="136.5" y="236"/><rect fill="#F1F1F1" height="2" style="stroke:#181818;stroke-width:0.5;" width="4" x="134.5" y="238"/><rect fill="#F1F1F1" height="2" style="stroke:#181818;stroke-width:0.5;" width="4" x="134.5" y="242"/><text fill="#000000" font-family="sans-serif" font-size="14" lengthAdjust="spacing" textLength="43" x="88.5" y="265.5332">stream</text></g><!--entity sabrdimldsmstreamdeployed--><g id="elem_sabrdimldsmstreamdeployed"><ellipse cx="257" cy="255" fill="#F1F1F1" rx="8" ry="8" style="stroke:#181818;stroke-width:0.5;"/><text fill="#000000" font-family="sans-serif" font-size="14" lengthAdjust="spacing" textLength="58" x="228" y="286.5332">deployed</text></g><!--entity inputchannelinstanceenabled--><g id="elem_inputchannelinstanceenabled"><polygon fill="#F1F1F1" points="761,105,666.5,91,477.5,91,383,105,477.5,119,666.5,119,761,105" style="stroke:#181818;stroke-width:0.5;"/><text fill="#000000" font-family="sans-serif" font-size="14" lengthAdjust="spacing" textLength="189" x="477.5" y="110.5332">inputchannelinstance.enabled</text></g><!--entity inputstreaminstanceenabled--><g id="elem_inputstreaminstanceenabled"><polygon fill="#F1F1F1" points="754,247,663,233,481,233,390,247,481,261,663,261,754,247" style="stroke:#181818;stroke-width:0.5;"/><text fill="#000000" font-family="sans-serif" font-size="14" lengthAdjust="spacing" textLength="182" x="481" y="252.5332">inputstreaminstance.enabled</text></g><!--entity outputchannelinstanceenabled--><g id="elem_outputchannelinstanceenabled"><polygon fill="#F1F1F1" points="770,168,671,154,473,154,374,168,473,182,671,182,770,168" style="stroke:#181818;stroke-width:0.5;"/><text fill="#000000" font-family="sans-serif" font-size="14" lengthAdjust="spacing" textLength="198" x="473" y="173.5332">outputchannelinstance.enabled</text></g><!--entity outputstreaminstanceenabled--><g id="elem_outputstreaminstanceenabled"><polygon fill="#F1F1F1" points="763,310,667.5,296,476.5,296,381,310,476.5,324,667.5,324,763,310" style="stroke:#181818;stroke-width:0.5;"/><text fill="#000000" font-family="sans-serif" font-size="14" lengthAdjust="spacing" textLength="191" x="476.5" y="315.5332">outputstreaminstance.enabled</text></g><!--link sabrdimldsmchannel to sabrdimldsmchanneldeployed--><g id="link_sabrdimldsmchannel_sabrdimldsmchanneldeployed"><path d="M160.3,160 C191.7,160 231.12,160 247.87,160 " fill="none" id="sabrdimldsmchannel-sabrdimldsmchanneldeployed" style="stroke:#181818;stroke-width:1.0;"/></g><!--link sabrdimldsmstream to sabrdimldsmstreamdeployed--><g id="link_sabrdimldsmstream_sabrdimldsmstreamdeployed"><path d="M156.87,255 C188.83,255 230.65,255 247.96,255 " fill="none" id="sabrdimldsmstream-sabrdimldsmstreamdeployed" style="stroke:#181818;stroke-width:1.0;"/></g><!--reverse link sabrdimldsmchanneldeployed to inputchannelinstanceenabled--><g id="link_sabrdimldsmchanneldeployed_inputchannelinstanceenabled"><path d="M271.9868,156.8771 C290.8668,152.6771 333.33,143.4 374,136 C407.38,129.92 444.07,123.96 476.65,118.91 " fill="none" id="sabrdimldsmchanneldeployed-backto-inputchannelinstanceenabled" style="stroke:#181818;stroke-width:1.0;"/><polygon fill="#181818" points="266.13,158.18,275.7838,160.1302,271.0107,157.0943,274.0466,152.3211,266.13,158.18" style="stroke:#181818;stroke-width:1.0;"/></g><!--reverse link sabrdimldsmstreamdeployed to inputstreaminstanceenabled--><g id="link_sabrdimldsmstreamdeployed_inputstreaminstanceenabled"><path d="M272.0481,254.6374 C294.0581,254.0774 351.83,252.6 415.41,250.98 " fill="none" id="sabrdimldsmstreamdeployed-backto-inputstreaminstanceenabled" style="stroke:#181818;stroke-width:1.0;"/><polygon fill="#181818" points="266.05,254.79,275.1488,258.5598,271.0484,254.6628,274.9453,250.5624,266.05,254.79" style="stroke:#181818;stroke-width:1.0;"/></g><!--reverse link sabrdimldsmchanneldeployed to outputchannelinstanceenabled--><g id="link_sabrdimldsmchanneldeployed_outputchannelinstanceenabled"><path d="M272.0481,160.3609 C292.7181,160.8809 344.22,162.2 403.8,163.73 " fill="none" id="sabrdimldsmchanneldeployed-backto-outputchannelinstanceenabled" style="stroke:#181818;stroke-width:1.0;"/><polygon fill="#181818" points="266.05,160.21,274.9466,164.4351,271.0484,160.3357,275.1478,156.4376,266.05,160.21" style="stroke:#181818;stroke-width:1.0;"/></g><!--reverse link sabrdimldsmstreamdeployed to outputstreaminstanceenabled--><g id="link_sabrdimldsmstreamdeployed_outputstreaminstanceenabled"><path d="M271.9868,258.1229 C290.8668,262.3229 333.33,271.6 374,279 C407.21,285.05 443.7,290.98 476.15,296.02 " fill="none" id="sabrdimldsmstreamdeployed-backto-outputstreaminstanceenabled" style="stroke:#181818;stroke-width:1.0;"/><polygon fill="#181818" points="266.13,256.82,274.0466,262.6789,271.0107,257.9057,275.7838,254.8698,266.13,256.82" style="stroke:#181818;stroke-width:1.0;"/></g><!--SRC=[lL3BRiCW4Bpp5Ildx9npwCziyDf6nOi56wbLrN-FNt4AVZMNB1TWXc5cB9K2ui2RgXOeZ2Sjnh5I2hffKNzYHP05lFeCC42_WHyr0uLfx0pqXmWCJOHrPpYLfTQNIqS3xPhMCR50fcja9fkofsi5XeLyYReNfTQwRoesk0zOBI78yxq7lyCQShytV11Fk22Fj_-AFbBNaez84ZoX_yrTqnTMZY4ptDvaQiXm46HDPsAyskdxDSA43rBzR9SD7vsb8ud4pMXxsqoCxtY9yp-jR0iydRYR71IpodYncKEDrD1EDsk4ryevKb3nt040]--></g></svg>