<?xml version="1.0" encoding="UTF-8" standalone="no"?><svg xmlns="http://www.w3.org/2000/svg" xmlns:xlink="http://www.w3.org/1999/xlink" contentScriptType="application/ecmascript" contentStyleType="text/css" height="329px" preserveAspectRatio="none" style="width:984px;height:329px;" version="1.1" viewBox="0 0 984 329" width="984px" zoomAndPan="magnify"><defs><filter height="300%" id="fcvcwksb4xyie" width="300%" x="-1" y="-1"><feGaussianBlur result="blurOut" stdDeviation="2.0"/><feColorMatrix in="blurOut" result="blurOut2" type="matrix" values="0 0 0 0 0 0 0 0 0 0 0 0 0 0 0 0 0 0 .4 0"/><feOffset dx="4.0" dy="4.0" in="blurOut2" result="blurOut3"/><feBlend in="SourceGraphic" in2="blurOut3" mode="normal"/></filter></defs><g><!--cluster Data Stream Manager--><polygon fill="#FFCC88" filter="url(#fcvcwksb4xyie)" points="22,24,178,24,185,47.6094,232,47.6094,232,207,22,207,22,24" style="stroke: #000000; stroke-width: 1.5;"/><line style="stroke: #000000; stroke-width: 1.5;" x1="22" x2="185" y1="47.6094" y2="47.6094"/><text fill="#000000" font-family="sans-serif" font-size="14" font-weight="bold" lengthAdjust="spacingAndGlyphs" textLength="150" x="26" y="40.5332">Data Stream Manager</text><!--class i--><rect fill="#FEFECE" filter="url(#fcvcwksb4xyie)" height="131.0156" id="i" style="stroke: #A80036; stroke-width: 1.5;" width="177" x="38.5" y="60"/><ellipse cx="64.75" cy="76" fill="#B4A7E5" rx="11" ry="11" style="stroke: #A80036; stroke-width: 1.0;"/><path d="M65.7031,72.6406 L65.7031,79.2969 L67.4219,79.2969 Q68.0313,79.2969 68.2969,79.5313 Q68.5625,79.7656 68.5625,80.1563 Q68.5625,80.5313 68.2969,80.7656 Q68.0313,81 67.4219,81 L62.2813,81 Q61.6719,81 61.4063,80.7656 Q61.1406,80.5313 61.1406,80.1406 Q61.1406,79.7656 61.4063,79.5313 Q61.6719,79.2969 62.2813,79.2969 L64,79.2969 L64,72.6406 L62.2813,72.6406 Q61.6719,72.6406 61.4063,72.4063 Q61.1406,72.1719 61.1406,71.7813 Q61.1406,71.4063 61.4063,71.1719 Q61.6719,70.9375 62.2813,70.9375 L67.4219,70.9375 Q68.0313,70.9375 68.2969,71.1719 Q68.5625,71.4063 68.5625,71.7813 Q68.5625,72.1719 68.2969,72.4063 Q68.0313,72.6406 67.4219,72.6406 L65.7031,72.6406 Z "/><text fill="#000000" font-family="sans-serif" font-size="12" font-style="italic" lengthAdjust="spacingAndGlyphs" textLength="120" x="81.25" y="80.9102">Data Stream Manager</text><line style="stroke: #A80036; stroke-width: 1.5;" x1="39.5" x2="214.5" y1="92" y2="92"/><text fill="#000000" font-family="sans-serif" font-size="11" lengthAdjust="spacingAndGlyphs" textLength="148" x="44.5" y="107.4189">^inputchannelinstance.enabled</text><text fill="#000000" font-family="sans-serif" font-size="11" lengthAdjust="spacingAndGlyphs" textLength="143" x="44.5" y="121.2549">^inputstreaminstance.enabled</text><text fill="#000000" font-family="sans-serif" font-size="11" lengthAdjust="spacingAndGlyphs" textLength="155" x="44.5" y="135.0908">^outputchannelinstance.enabled</text><text fill="#000000" font-family="sans-serif" font-size="11" lengthAdjust="spacingAndGlyphs" textLength="150" x="44.5" y="148.9268">^outputstreaminstance.enabled</text><line style="stroke: #A80036; stroke-width: 1.5;" x1="39.5" x2="214.5" y1="155.3438" y2="155.3438"/><text fill="#000000" font-family="sans-serif" font-size="11" lengthAdjust="spacingAndGlyphs" textLength="165" x="44.5" y="170.7627">/sabr/diml/dsm/channel/deployed()</text><text fill="#000000" font-family="sans-serif" font-size="11" lengthAdjust="spacingAndGlyphs" textLength="160" x="44.5" y="184.5986">/sabr/diml/dsm/stream/deployed()</text><polygon fill="#FFCC88" filter="url(#fcvcwksb4xyie)" points="355,98,585,98,592,121.6094,599,121.6094,599,153.2188,355,153.2188,355,98" style="stroke: #000000; stroke-width: 1.5;"/><line style="stroke: #000000; stroke-width: 1.5;" x1="355" x2="592" y1="121.6094" y2="121.6094"/><text fill="#000000" font-family="sans-serif" font-size="14" font-weight="bold" lengthAdjust="spacingAndGlyphs" textLength="224" x="359" y="114.5332">Sentient Agent Bundle Manager</text><polygon fill="#00AAFF" filter="url(#fcvcwksb4xyie)" points="634,98,784,98,791,121.6094,798,121.6094,798,153.2188,634,153.2188,634,98" style="stroke: #000000; stroke-width: 1.5;"/><line style="stroke: #000000; stroke-width: 1.5;" x1="634" x2="791" y1="121.6094" y2="121.6094"/><text fill="#000000" font-family="sans-serif" font-size="14" font-weight="bold" lengthAdjust="spacingAndGlyphs" textLength="144" x="638" y="114.5332">Application Manager</text><polygon fill="#FFC0CB" filter="url(#fcvcwksb4xyie)" points="833.5,98,948.5,98,955.5,121.6094,962.5,121.6094,962.5,153.2188,833.5,153.2188,833.5,98" style="stroke: #000000; stroke-width: 1.5;"/><line style="stroke: #000000; stroke-width: 1.5;" x1="833.5" x2="955.5" y1="121.6094" y2="121.6094"/><text fill="#000000" font-family="sans-serif" font-size="14" font-weight="bold" lengthAdjust="spacingAndGlyphs" textLength="109" x="837.5" y="114.5332">Security Aspect</text><!--entity REST--><ellipse cx="38" cy="284" fill="#FEFECE" filter="url(#fcvcwksb4xyie)" rx="8" ry="8" style="stroke: #A80036; stroke-width: 2.0;"/><text fill="#000000" font-family="sans-serif" font-size="14" lengthAdjust="spacingAndGlyphs" textLength="37" x="19.5" y="315.5332">REST</text><!--entity Web--><ellipse cx="127" cy="284" fill="#FEFECE" filter="url(#fcvcwksb4xyie)" rx="8" ry="8" style="stroke: #A80036; stroke-width: 2.0;"/><text fill="#000000" font-family="sans-serif" font-size="14" lengthAdjust="spacingAndGlyphs" textLength="29" x="112.5" y="315.5332">Web</text><!--entity CLI--><ellipse cx="216" cy="284" fill="#FEFECE" filter="url(#fcvcwksb4xyie)" rx="8" ry="8" style="stroke: #A80036; stroke-width: 2.0;"/><text fill="#000000" font-family="sans-serif" font-size="14" lengthAdjust="spacingAndGlyphs" textLength="21" x="205.5" y="315.5332">CLI</text><!--entity WebSocket--><ellipse cx="311" cy="125.5" fill="#FEFECE" filter="url(#fcvcwksb4xyie)" rx="8" ry="8" style="stroke: #A80036; stroke-width: 2.0;"/><text fill="#000000" font-family="sans-serif" font-size="14" lengthAdjust="spacingAndGlyphs" textLength="72" x="275" y="157.0332">WebSocket</text><!--link i to Web--><path d="M127,191.058 C127,223.3904 127,258.9415 127,274.6964 " fill="none" id="i-Web" style="stroke: #A80036; stroke-width: 1.0;"/><!--link i to CLI--><path d="M163.714,191.058 C182.101,223.3904 202.318,258.9415 211.278,274.6964 " fill="none" id="i-CLI" style="stroke: #A80036; stroke-width: 1.0;"/><!--link i to REST--><path d="M90.2865,191.058 C71.8994,223.3904 51.6818,258.9415 42.7222,274.6964 " fill="none" id="i-REST" style="stroke: #A80036; stroke-width: 1.0;"/><!--link i to WebSocket--><path d="M215.766,125.5 C250.504,125.5 285.857,125.5 301.983,125.5 " fill="none" id="i-WebSocket" style="stroke: #A80036; stroke-width: 1.0;"/><polygon fill="#000000" points="240.75,112.1758,234.75,115.1758,240.75,118.1758,240.75,112.1758" style="stroke: #000000; stroke-width: 1.0;"/><text fill="#000000" font-family="sans-serif" font-size="13" lengthAdjust="spacingAndGlyphs" textLength="37" x="246.75" y="118.9951">events</text><!--
@startuml


package "Data Stream Manager" #ffcc88 {

}

package "Sentient Agent Bundle Manager" #ffcc88 {

}

package "Application Manager" #00aaff {

}

package "Security Aspect" #pink {

}


package "Data Stream Manager" #ffcc88 {

    interface "Data Stream Manager" as i {
            ^inputchannelinstance.enabled
            ^inputstreaminstance.enabled
            ^outputchannelinstance.enabled
            ^outputstreaminstance.enabled
    
            /sabr/diml/dsm/channel/deployed()
            /sabr/diml/dsm/stream/deployed()
    
    }
}

circle REST
circle Web
circle CLI
circle WebSocket

i -down- Web
i -down- CLI
i -down- REST
WebSocket -left- i: events >

package "Data Stream Manager" #ffcc88 {


}



@enduml

PlantUML version 1.2019.05(Sat Apr 20 09:45:36 PDT 2019)
(GPL source distribution)
Java Runtime: Java(TM) SE Runtime Environment
JVM: Java HotSpot(TM) Client VM
Java Version: 1.8.0_271-b09
Operating System: Windows 10
OS Version: 10.0
Default Encoding: Cp1252
Language: en
Country: US
--></g></svg>