<?xml version="1.0" encoding="us-ascii" standalone="no"?><svg xmlns="http://www.w3.org/2000/svg" xmlns:xlink="http://www.w3.org/1999/xlink" contentStyleType="text/css" height="195px" preserveAspectRatio="none" style="width:265px;height:195px;background:#FFFFFF;" version="1.1" viewBox="0 0 265 195" width="265px" zoomAndPan="magnify"><defs/><g><!--entity SABundle--><g id="elem_SABundle"><rect fill="#90EE90" height="37.6094" rx="2.5" ry="2.5" style="stroke:#181818;stroke-width:0.5;" width="82" x="7" y="7"/><text fill="#000000" font-family="sans-serif" font-size="14" lengthAdjust="spacing" textLength="62" x="17" y="31.5332">SABundle</text></g><!--entity SABundleInstance--><g id="elem_SABundleInstance"><rect fill="#90EE90" height="37.6094" rx="2.5" ry="2.5" style="stroke:#181818;stroke-width:0.5;" width="135" x="124.5" y="7"/><text fill="#000000" font-family="sans-serif" font-size="14" lengthAdjust="spacing" textLength="115" x="134.5" y="31.5332">SABundleInstance</text></g><!--class Model--><g id="elem_Model"><rect codeLine="2" fill="#F1F1F1" height="65.6094" id="Model" rx="2.5" ry="2.5" style="stroke:#181818;stroke-width:0.5;" width="86" x="77" y="123"/><ellipse cx="93.8" cy="139" fill="#ADD1B2" rx="11" ry="11" style="stroke:#181818;stroke-width:1.0;"/><path d="M96.5656,134.875 Q96.7219,134.6563 96.9094,134.5469 Q97.0969,134.4375 97.3156,134.4375 Q97.6906,134.4375 97.925,134.6953 Q98.1594,134.9531 98.1594,135.5625 L98.1594,137.0156 Q98.1594,137.625 97.925,137.8906 Q97.6906,138.1563 97.3156,138.1563 Q96.9719,138.1563 96.7688,137.9531 Q96.5656,137.7656 96.4563,137.25 Q96.4094,136.8906 96.2219,136.7031 Q95.8938,136.3281 95.2844,136.1094 Q94.675,135.8906 94.05,135.8906 Q93.2844,135.8906 92.6516,136.2188 Q92.0188,136.5469 91.5266,137.2969 Q91.0344,138.0469 91.0344,139.0781 L91.0344,140.1719 Q91.0344,141.4063 91.925,142.2266 Q92.8156,143.0469 94.4094,143.0469 Q95.3469,143.0469 96.0031,142.7969 Q96.3938,142.6406 96.8156,142.2031 Q97.0813,141.9375 97.2297,141.8594 Q97.3781,141.7813 97.5813,141.7813 Q97.9094,141.7813 98.1672,142.0391 Q98.425,142.2969 98.425,142.6406 Q98.425,142.9844 98.0813,143.3906 Q97.5813,143.9688 96.7844,144.2969 Q95.7063,144.75 94.4094,144.75 Q92.8938,144.75 91.6906,144.125 Q90.7063,143.625 90.0188,142.5547 Q89.3313,141.4844 89.3313,140.2031 L89.3313,139.0469 Q89.3313,137.7188 89.9484,136.5703 Q90.5656,135.4219 91.6594,134.8047 Q92.7531,134.1875 93.9875,134.1875 Q94.7219,134.1875 95.3703,134.3516 Q96.0188,134.5156 96.5656,134.875 Z " fill="#000000"/><text fill="#000000" font-family="sans-serif" font-size="14" lengthAdjust="spacing" textLength="50" x="108.2" y="144.7285">AIModel</text><line style="stroke:#181818;stroke-width:0.5;" x1="78" x2="162" y1="155" y2="155"/><text fill="#000000" font-family="sans-serif" font-size="14" lengthAdjust="spacing" textLength="74" x="83" y="173.5332">string name</text><line style="stroke:#181818;stroke-width:0.5;" x1="78" x2="162" y1="180.6094" y2="180.6094"/></g><!--link SABundle to Model--><g id="link_SABundle_Model"><path codeLine="13" d="M64.0444,55.5282 C75.4044,75.7182 85.1889,93.1103 99.0289,117.7203 " fill="none" id="SABundle-Model" style="stroke:#181818;stroke-width:1.0;"/><polygon fill="none" points="58.16,45.07,57.6161,52.2606,64.0444,55.5282,64.5883,48.3377,58.16,45.07" style="stroke:#181818;stroke-width:1.0;"/><polygon fill="#181818" points="101.97,122.95,101.0449,113.1447,99.5191,118.5919,94.0719,117.0661,101.97,122.95" style="stroke:#181818;stroke-width:1.0;"/><text fill="#000000" font-family="sans-serif" font-size="13" lengthAdjust="spacing" textLength="52" x="85" y="89.4951">aimodels</text><text fill="#000000" font-family="sans-serif" font-size="13" lengthAdjust="spacing" textLength="7" x="90.5294" y="112.0551">n</text></g><!--link SABundleInstance to Model--><g id="link_SABundleInstance_Model"><path codeLine="18" d="M175.9556,55.5282 C164.5956,75.7182 154.8111,93.1103 140.9711,117.7203 " fill="none" id="SABundleInstance-Model" style="stroke:#181818;stroke-width:1.0;"/><polygon fill="none" points="181.84,45.07,175.4117,48.3377,175.9556,55.5282,182.3839,52.2606,181.84,45.07" style="stroke:#181818;stroke-width:1.0;"/><polygon fill="#181818" points="138.03,122.95,145.9281,117.0661,140.4809,118.5919,138.9551,113.1447,138.03,122.95" style="stroke:#181818;stroke-width:1.0;"/><text fill="#000000" font-family="sans-serif" font-size="13" lengthAdjust="spacing" textLength="52" x="165" y="89.4951">aimodels</text><text fill="#000000" font-family="sans-serif" font-size="13" lengthAdjust="spacing" textLength="7" x="134.0268" y="112.0551">n</text></g><!--SRC=[ZKun2iCm3DpzYaEPyu4EXNJBaAalC8vm3Ou2bZkL_BssQL8A7NB38HqwtRbeLK73EAqpHu9Lj0al0yqfY8VOXOs1sKm12XAxRCL71js7srFcoCsuB-XYy8_i4xFKFmLRuqOLnoMmzlqL9FI9lO1iMEgezFNyIHn5Y-H-atVnV8F3SQB96m00]--></g></svg>