<?xml version="1.0" encoding="UTF-8" standalone="no"?><svg xmlns="http://www.w3.org/2000/svg" xmlns:xlink="http://www.w3.org/1999/xlink" contentScriptType="application/ecmascript" contentStyleType="text/css" height="196px" preserveAspectRatio="none" style="width:269px;height:196px;" version="1.1" viewBox="0 0 269 196" width="269px" zoomAndPan="magnify"><defs><filter height="300%" id="f1xpms06d5aj1f" width="300%" x="-1" y="-1"><feGaussianBlur result="blurOut" stdDeviation="2.0"/><feColorMatrix in="blurOut" result="blurOut2" type="matrix" values="0 0 0 0 0 0 0 0 0 0 0 0 0 0 0 0 0 0 .4 0"/><feOffset dx="4.0" dy="4.0" in="blurOut2" result="blurOut3"/><feBlend in="SourceGraphic" in2="blurOut3" mode="normal"/></filter></defs><g><!--entity SABundle--><rect fill="#90EE90" filter="url(#f1xpms06d5aj1f)" height="37.6094" style="stroke: #000000; stroke-width: 1.5;" width="82" x="6" y="8"/><text fill="#000000" font-family="sans-serif" font-size="14" lengthAdjust="spacingAndGlyphs" textLength="62" x="16" y="32.5332">SABundle</text><!--entity SABundleInstance--><rect fill="#90EE90" filter="url(#f1xpms06d5aj1f)" height="37.6094" style="stroke: #000000; stroke-width: 1.5;" width="135" x="123.5" y="8"/><text fill="#000000" font-family="sans-serif" font-size="14" lengthAdjust="spacingAndGlyphs" textLength="115" x="133.5" y="32.5332">SABundleInstance</text><!--class Model--><rect fill="#FEFECE" filter="url(#f1xpms06d5aj1f)" height="61.8359" id="Model" style="stroke: #A80036; stroke-width: 1.5;" width="75" x="81.5" y="124"/><ellipse cx="96.5" cy="140" fill="#ADD1B2" rx="11" ry="11" style="stroke: #A80036; stroke-width: 1.0;"/><path d="M99.2656,135.875 Q99.4219,135.6563 99.6094,135.5469 Q99.7969,135.4375 100.0156,135.4375 Q100.3906,135.4375 100.625,135.6953 Q100.8594,135.9531 100.8594,136.5625 L100.8594,138.0156 Q100.8594,138.625 100.625,138.8906 Q100.3906,139.1563 100.0156,139.1563 Q99.6719,139.1563 99.4688,138.9531 Q99.2656,138.7656 99.1563,138.25 Q99.1094,137.8906 98.9219,137.7031 Q98.5938,137.3281 97.9844,137.1094 Q97.375,136.8906 96.75,136.8906 Q95.9844,136.8906 95.3516,137.2188 Q94.7188,137.5469 94.2266,138.2969 Q93.7344,139.0469 93.7344,140.0781 L93.7344,141.1719 Q93.7344,142.4063 94.625,143.2266 Q95.5156,144.0469 97.1094,144.0469 Q98.0469,144.0469 98.7031,143.7969 Q99.0938,143.6406 99.5156,143.2031 Q99.7813,142.9375 99.9297,142.8594 Q100.0781,142.7813 100.2813,142.7813 Q100.6094,142.7813 100.8672,143.0391 Q101.125,143.2969 101.125,143.6406 Q101.125,143.9844 100.7813,144.3906 Q100.2813,144.9688 99.4844,145.2969 Q98.4063,145.75 97.1094,145.75 Q95.5938,145.75 94.3906,145.125 Q93.4063,144.625 92.7188,143.5547 Q92.0313,142.4844 92.0313,141.2031 L92.0313,140.0469 Q92.0313,138.7188 92.6484,137.5703 Q93.2656,136.4219 94.3594,135.8047 Q95.4531,135.1875 96.6875,135.1875 Q97.4219,135.1875 98.0703,135.3516 Q98.7188,135.5156 99.2656,135.875 Z "/><text fill="#000000" font-family="sans-serif" font-size="12" lengthAdjust="spacingAndGlyphs" textLength="43" x="110.5" y="144.9102">AIModel</text><line style="stroke: #A80036; stroke-width: 1.5;" x1="82.5" x2="155.5" y1="156" y2="156"/><text fill="#000000" font-family="sans-serif" font-size="11" lengthAdjust="spacingAndGlyphs" textLength="56" x="87.5" y="171.4189">string name</text><line style="stroke: #A80036; stroke-width: 1.5;" x1="82.5" x2="155.5" y1="177.8359" y2="177.8359"/><!--link SABundle to Model--><path d="M63.8834,57.546 C73.233,73.908 85.0057,94.5101 95.2679,112.4688 " fill="none" id="SABundle-Model" style="stroke: #A80036; stroke-width: 1.0;"/><polygon fill="#A80036" points="101.7528,123.8174,100.7605,114.0187,99.2721,119.4762,93.8146,117.9878,101.7528,123.8174" style="stroke: #A80036; stroke-width: 1.0;"/><line style="stroke: #A80036; stroke-width: 1.0;" x1="99.2721" x2="95.3029" y1="119.4762" y2="112.5301"/><polygon fill="#FFFFFF" points="57.3158,46.053,56.8198,53.247,63.2696,56.4718,63.7657,49.2778,57.3158,46.053" style="stroke: #A80036; stroke-width: 1.0;"/><text fill="#000000" font-family="sans-serif" font-size="13" lengthAdjust="spacingAndGlyphs" textLength="52" x="84" y="90.4951">aimodels</text><text fill="#000000" font-family="sans-serif" font-size="13" lengthAdjust="spacingAndGlyphs" textLength="7" x="90.4737" y="113.2843">n</text><!--link SABundleInstance to Model--><path d="M174.117,57.546 C164.767,73.908 152.994,94.5101 142.732,112.4688 " fill="none" id="SABundleInstance-Model" style="stroke: #A80036; stroke-width: 1.0;"/><polygon fill="#A80036" points="136.247,123.8174,144.1852,117.9878,138.7277,119.4762,137.2393,114.0187,136.247,123.8174" style="stroke: #A80036; stroke-width: 1.0;"/><line style="stroke: #A80036; stroke-width: 1.0;" x1="138.7277" x2="142.6975" y1="119.4762" y2="112.5301"/><polygon fill="#FFFFFF" points="180.684,46.053,174.2341,49.2778,174.7302,56.4718,181.18,53.247,180.684,46.053" style="stroke: #A80036; stroke-width: 1.0;"/><text fill="#000000" font-family="sans-serif" font-size="13" lengthAdjust="spacingAndGlyphs" textLength="52" x="165" y="90.4951">aimodels</text><text fill="#000000" font-family="sans-serif" font-size="13" lengthAdjust="spacingAndGlyphs" textLength="7" x="132.0823" y="113.2843">n</text><!--
@startuml

class "AIModel" as Model {
 string name

 
}



    rectangle "SABundle" as SABundle #lightgreen {
    }
    
        SABundle   o- -> "n" Model : "aimodels"
    
    rectangle "SABundleInstance" as SABundleInstance #lightgreen {
    }
    
        SABundleInstance   o- -> "n" Model : "aimodels"
    

@enduml

PlantUML version 1.2019.05(Sat Apr 20 09:45:36 PDT 2019)
(GPL source distribution)
Java Runtime: Java(TM) SE Runtime Environment
JVM: Java HotSpot(TM) Client VM
Java Version: 1.8.0_271-b09
Operating System: Windows 10
OS Version: 10.0
Default Encoding: Cp1252
Language: en
Country: US
--></g></svg>