<?xml version="1.0" encoding="us-ascii" standalone="no"?><svg xmlns="http://www.w3.org/2000/svg" xmlns:xlink="http://www.w3.org/1999/xlink" contentStyleType="text/css" height="526px" preserveAspectRatio="none" style="width:678px;height:526px;background:#FFFFFF;" version="1.1" viewBox="0 0 678 526" width="678px" zoomAndPan="magnify"><defs/><g><!--cluster sabr_aml_amStack--><g id="cluster_sabr_aml_amStack"><rect fill="#00AAFF" height="115" rx="2.5" ry="2.5" style="stroke:#181818;stroke-width:1.0;" width="114" x="558" y="7"/><text fill="#000000" font-family="sans-serif" font-size="14" font-weight="bold" lengthAdjust="spacing" textLength="91" x="569.5" y="23.5332">sabr_aml_am</text></g><!--cluster sabr_aml_cmStack--><g id="cluster_sabr_aml_cmStack"><rect fill="#00AAFF" height="115" rx="2.5" ry="2.5" style="stroke:#181818;stroke-width:1.0;" width="114" x="558" y="162"/><text fill="#000000" font-family="sans-serif" font-size="14" font-weight="bold" lengthAdjust="spacing" textLength="91" x="569.5" y="178.5332">sabr_aml_cm</text></g><!--cluster sabr_aml_lcStack--><g id="cluster_sabr_aml_lcStack"><rect fill="#00AAFF" height="115" rx="2.5" ry="2.5" style="stroke:#181818;stroke-width:1.0;" width="114" x="558" y="317"/><text fill="#000000" font-family="sans-serif" font-size="14" font-weight="bold" lengthAdjust="spacing" textLength="83" x="573.5" y="333.5332">sabr_aml_lc</text></g><!--cluster sabr_aml--><g id="cluster_sabr_aml"><path d="M8.5,63 L72.5,63 A3.75,3.75 0 0 1 75,65.5 L82,86.6094 L523.5,86.6094 A2.5,2.5 0 0 1 526,89.1094 L526,452.5 A2.5,2.5 0 0 1 523.5,455 L8.5,455 A2.5,2.5 0 0 1 6,452.5 L6,65.5 A2.5,2.5 0 0 1 8.5,63 " fill="#00AAFF" style="stroke:#000000;stroke-width:1.5;"/><line style="stroke:#000000;stroke-width:1.5;" x1="6" x2="82" y1="86.6094" y2="86.6094"/><text fill="#000000" font-family="sans-serif" font-size="14" font-weight="bold" lengthAdjust="spacing" textLength="63" x="10" y="79.5332">sabr_aml</text></g><!--entity sabr_aml_amStacksnet--><g id="elem_sabr_aml_amStacksnet"><path d="M587,51 L643,51 C648,51 648,64.8047 648,64.8047 C648,64.8047 648,78.6094 643,78.6094 L587,78.6094 C582,78.6094 582,64.8047 582,64.8047 C582,64.8047 582,51 587,51 " fill="#0000FF" style="stroke:#181818;stroke-width:0.5;"/><path d="M643,51 C638,51 638,64.8047 638,64.8047 C638,78.6094 643,78.6094 643,78.6094 " fill="none" style="stroke:#181818;stroke-width:0.5;"/><text fill="#FFFFFF" font-family="sans-serif" font-size="14" font-weight="bold" lengthAdjust="spacing" textLength="46" x="587" y="70.5332">parent</text></g><!--entity sabr_aml_cmStacksnet--><g id="elem_sabr_aml_cmStacksnet"><path d="M587,206 L643,206 C648,206 648,219.8047 648,219.8047 C648,219.8047 648,233.6094 643,233.6094 L587,233.6094 C582,233.6094 582,219.8047 582,219.8047 C582,219.8047 582,206 587,206 " fill="#0000FF" style="stroke:#181818;stroke-width:0.5;"/><path d="M643,206 C638,206 638,219.8047 638,219.8047 C638,233.6094 643,233.6094 643,233.6094 " fill="none" style="stroke:#181818;stroke-width:0.5;"/><text fill="#FFFFFF" font-family="sans-serif" font-size="14" font-weight="bold" lengthAdjust="spacing" textLength="46" x="587" y="225.5332">parent</text></g><!--entity sabr_aml_lcStacksnet--><g id="elem_sabr_aml_lcStacksnet"><path d="M587,361 L643,361 C648,361 648,374.8047 648,374.8047 C648,374.8047 648,388.6094 643,388.6094 L587,388.6094 C582,388.6094 582,374.8047 582,374.8047 C582,374.8047 582,361 587,361 " fill="#0000FF" style="stroke:#181818;stroke-width:0.5;"/><path d="M643,361 C638,361 638,374.8047 638,374.8047 C638,388.6094 643,388.6094 643,388.6094 " fill="none" style="stroke:#181818;stroke-width:0.5;"/><text fill="#FFFFFF" font-family="sans-serif" font-size="14" font-weight="bold" lengthAdjust="spacing" textLength="46" x="587" y="380.5332">parent</text></g><!--entity parentnet--><g id="elem_parentnet"><path d="M31.5,411 L87.5,411 C92.5,411 92.5,424.8047 92.5,424.8047 C92.5,424.8047 92.5,438.6094 87.5,438.6094 L31.5,438.6094 C26.5,438.6094 26.5,424.8047 26.5,424.8047 C26.5,424.8047 26.5,411 31.5,411 " fill="#000000" style="stroke:#181818;stroke-width:0.5;"/><path d="M87.5,411 C82.5,411 82.5,424.8047 82.5,424.8047 C82.5,438.6094 87.5,438.6094 87.5,438.6094 " fill="none" style="stroke:#181818;stroke-width:0.5;"/><text fill="#FFFFFF" font-family="sans-serif" font-size="14" font-weight="bold" lengthAdjust="spacing" textLength="46" x="31.5" y="430.5332">parent</text></g><!--entity childrennet--><g id="elem_childrennet"><path d="M162,322 L230,322 C235,322 235,335.8047 235,335.8047 C235,335.8047 235,349.6094 230,349.6094 L162,349.6094 C157,349.6094 157,335.8047 157,335.8047 C157,335.8047 157,322 162,322 " fill="#0000FF" style="stroke:#181818;stroke-width:0.5;"/><path d="M230,322 C225,322 225,335.8047 225,335.8047 C225,349.6094 230,349.6094 230,349.6094 " fill="none" style="stroke:#181818;stroke-width:0.5;"/><text fill="#FFFFFF" font-family="sans-serif" font-size="14" font-weight="bold" lengthAdjust="spacing" textLength="58" x="162" y="341.5332">children</text></g><!--entity siblingsnet--><g id="elem_siblingsnet"><path d="M27,182 L92,182 C97,182 97,195.8047 97,195.8047 C97,195.8047 97,209.6094 92,209.6094 L27,209.6094 C22,209.6094 22,195.8047 22,195.8047 C22,195.8047 22,182 27,182 " fill="#FF0000" style="stroke:#181818;stroke-width:0.5;"/><path d="M92,182 C87,182 87,195.8047 87,195.8047 C87,209.6094 92,209.6094 92,209.6094 " fill="none" style="stroke:#181818;stroke-width:0.5;"/><text fill="#FFFFFF" font-family="sans-serif" font-size="14" font-weight="bold" lengthAdjust="spacing" textLength="55" x="27" y="201.5332">siblings</text></g><!--entity amService--><g id="elem_amService"><polygon fill="#F1F1F1" points="30,109,40,99,89,99,89,136.6094,79,146.6094,30,146.6094,30,109" style="stroke:#181818;stroke-width:0.5;"/><line style="stroke:#181818;stroke-width:0.5;" x1="79" x2="89" y1="109" y2="99"/><line style="stroke:#181818;stroke-width:0.5;" x1="30" x2="79" y1="109" y2="109"/><line style="stroke:#181818;stroke-width:0.5;" x1="79" x2="79" y1="109" y2="146.6094"/><text fill="#000000" font-family="sans-serif" font-size="14" lengthAdjust="spacing" textLength="19" x="45" y="133.5332">am</text></g><!--entity cmService--><g id="elem_cmService"><polygon fill="#F1F1F1" points="30.5,255,40.5,245,88.5,245,88.5,282.6094,78.5,292.6094,30.5,292.6094,30.5,255" style="stroke:#181818;stroke-width:0.5;"/><line style="stroke:#181818;stroke-width:0.5;" x1="78.5" x2="88.5" y1="255" y2="245"/><line style="stroke:#181818;stroke-width:0.5;" x1="30.5" x2="78.5" y1="255" y2="255"/><line style="stroke:#181818;stroke-width:0.5;" x1="78.5" x2="78.5" y1="255" y2="292.6094"/><text fill="#000000" font-family="sans-serif" font-size="14" lengthAdjust="spacing" textLength="18" x="45.5" y="279.5332">cm</text></g><!--entity lcService--><g id="elem_lcService"><polygon fill="#F1F1F1" points="34.5,338,44.5,328,84.5,328,84.5,365.6094,74.5,375.6094,34.5,375.6094,34.5,338" style="stroke:#181818;stroke-width:0.5;"/><line style="stroke:#181818;stroke-width:0.5;" x1="74.5" x2="84.5" y1="338" y2="328"/><line style="stroke:#181818;stroke-width:0.5;" x1="34.5" x2="74.5" y1="338" y2="338"/><line style="stroke:#181818;stroke-width:0.5;" x1="74.5" x2="74.5" y1="338" y2="375.6094"/><text fill="#000000" font-family="sans-serif" font-size="14" lengthAdjust="spacing" textLength="10" x="49.5" y="362.5332">lc</text></g><!--entity sabr_aml_amimage--><g id="elem_sabr_aml_amimage"><rect fill="#F1F1F1" height="33.6094" rx="2.5" ry="2.5" style="stroke:#181818;stroke-width:0.5;" width="101" x="409" y="105"/><rect fill="#F1F1F1" height="33.6094" rx="2.5" ry="2.5" style="stroke:#181818;stroke-width:0.5;" width="101" x="405" y="101"/><text fill="#000000" font-family="sans-serif" font-size="14" lengthAdjust="spacing" textLength="85" x="413" y="123.5332">sabr_aml_am</text></g><!--entity sabr_aml_cmimage--><g id="elem_sabr_aml_cmimage"><rect fill="#F1F1F1" height="33.6094" rx="2.5" ry="2.5" style="stroke:#181818;stroke-width:0.5;" width="100" x="409.5" y="254"/><rect fill="#F1F1F1" height="33.6094" rx="2.5" ry="2.5" style="stroke:#181818;stroke-width:0.5;" width="100" x="405.5" y="250"/><text fill="#000000" font-family="sans-serif" font-size="14" lengthAdjust="spacing" textLength="84" x="413.5" y="272.5332">sabr_aml_cm</text></g><!--entity sabr_aml_lcimage--><g id="elem_sabr_aml_lcimage"><rect fill="#F1F1F1" height="33.6094" rx="2.5" ry="2.5" style="stroke:#181818;stroke-width:0.5;" width="92" x="413.5" y="396"/><rect fill="#F1F1F1" height="33.6094" rx="2.5" ry="2.5" style="stroke:#181818;stroke-width:0.5;" width="92" x="409.5" y="392"/><text fill="#000000" font-family="sans-serif" font-size="14" lengthAdjust="spacing" textLength="76" x="417.5" y="414.5332">sabr_aml_lc</text></g><!--entity parent--><g id="elem_parent"><path d="M175.5,475 L175.5,499 M175.5,487 L192.5,487 " fill="none" style="stroke:#181818;stroke-width:0.5;"/><ellipse cx="204.5" cy="487" fill="#000000" rx="12" ry="12" style="stroke:#181818;stroke-width:0.5;"/><text fill="#000000" font-family="sans-serif" font-size="14" lengthAdjust="spacing" textLength="41" x="175.5" y="517.5332">parent</text></g><!--entity children--><g id="elem_children"><ellipse cx="320" cy="487" fill="#0000FF" rx="12" ry="12" style="stroke:#181818;stroke-width:0.5;"/><line style="stroke:#181818;stroke-width:0.5;" x1="308" x2="332" y1="501" y2="501"/><text fill="#000000" font-family="sans-serif" font-size="14" lengthAdjust="spacing" textLength="50" x="295" y="517.5332">children</text></g><!--link parentnet to parent--><g id="link_parentnet_parent"><path d="M87.07,439.03 C111.57,451.96 147.61,470.98 171.19,483.43 " fill="none" id="parentnet-parent" style="stroke:#000000;stroke-width:1.0;"/></g><!--link childrennet to children--><g id="link_childrennet_children"><path d="M207.83,350.2 C228.53,377.35 273.97,436.94 299.89,470.94 " fill="none" id="childrennet-children" style="stroke:#0000FF;stroke-width:1.0;"/></g><!--link amService to childrennet--><g id="link_amService_childrennet"><path d="M83.38,147.02 C88.1,152.43 92.89,158.27 97,164 C136.48,219 173.23,291.21 188.08,321.57 " fill="none" id="amService-childrennet" style="stroke:#0000FF;stroke-width:1.0;"/></g><!--link cmService to childrennet--><g id="link_cmService_childrennet"><path d="M88.7,283.05 C111.65,294.48 143.9,310.54 166.84,321.97 " fill="none" id="cmService-childrennet" style="stroke:#0000FF;stroke-width:1.0;"/></g><!--link lcService to childrennet--><g id="link_lcService_childrennet"><path d="M84.55,349.14 C104.64,346.75 133.67,343.3 156.93,340.53 " fill="none" id="lcService-childrennet" style="stroke:#0000FF;stroke-width:1.0;"/></g><!--link amService to sabr_aml_amimage--><g id="link_amService_sabr_aml_amimage"><path d="M89.3,122.78 C155.69,122.28 320.23,121.03 404.68,120.39 " fill="none" id="amService-sabr_aml_amimage" style="stroke:#181818;stroke-width:1.0;stroke-dasharray:7.0,7.0;"/></g><!--link cmService to sabr_aml_cmimage--><g id="link_cmService_sabr_aml_cmimage"><path d="M88.66,269 C154.84,269 321,269 405.48,269 " fill="none" id="cmService-sabr_aml_cmimage" style="stroke:#181818;stroke-width:1.0;stroke-dasharray:7.0,7.0;"/></g><!--link lcService to sabr_aml_lcimage--><g id="link_lcService_sabr_aml_lcimage"><path d="M84.68,355.82 C104.2,358.88 132.36,363.27 157,367 C246.12,380.47 350.25,395.64 409.28,404.19 " fill="none" id="lcService-sabr_aml_lcimage" style="stroke:#181818;stroke-width:1.0;stroke-dasharray:7.0,7.0;"/></g><!--link sabr_aml_amimage to sabr_aml_amStack--><g id="link_sabr_aml_amimage_sabr_aml_amStack"><path d="M510.28,118 C521.235,117.5775 532.9675,117.125 544.4583,116.6819 C547.331,116.5711 550.1886,116.4609 553.0151,116.3519 C554.4284,116.2974 555.8339,116.2432 557.2297,116.1894 C557.4042,116.1827 551.5829,116.4071 551.7571,116.4004 " fill="none" id="sabr_aml_amimage-to-sabr_aml_amStack" style="stroke:#181818;stroke-width:1.0;"/><polygon fill="#181818" points="557.7526,116.1692,548.6052,112.519,552.7564,116.3619,548.9134,120.513,557.7526,116.1692" style="stroke:#181818;stroke-width:1.0;"/></g><!--link sabr_aml_cmimage to sabr_aml_cmStack--><g id="link_sabr_aml_cmimage_sabr_aml_cmStack"><path d="M509.85,269 C520.995,269 532.9619,269 544.6713,269 C547.5986,269 550.5098,269 553.3881,269 C554.8273,269 550.2582,269 551.6787,269 " fill="none" id="sabr_aml_cmimage-to-sabr_aml_cmStack" style="stroke:#181818;stroke-width:1.0;"/><polygon fill="#181818" points="557.6787,269,548.6787,265,552.6787,269,548.6787,273,557.6787,269" style="stroke:#181818;stroke-width:1.0;"/></g><!--link sabr_aml_lcimage to sabr_aml_lcStack--><g id="link_sabr_aml_lcimage_sabr_aml_lcStack"><path d="M505.58,414.94 C516.8425,415.88 529.1281,416.9063 541.2511,417.9194 C544.2818,418.1727 547.3024,418.4251 550.2943,418.6752 C551.7902,418.8002 553.279,418.9247 554.7583,419.0484 C555.4979,419.1102 556.2352,419.1718 556.9698,419.2332 C557.1534,419.2486 551.3578,418.7641 551.5411,418.7794 " fill="none" id="sabr_aml_lcimage-to-sabr_aml_lcStack" style="stroke:#181818;stroke-width:1.0;"/><polygon fill="#181818" points="557.5202,419.2793,548.8848,414.5434,552.5376,418.8627,548.2183,422.5156,557.5202,419.2793" style="stroke:#181818;stroke-width:1.0;"/></g><!--SRC=[jLJRReCm37tFLrZjCskV9yHFxB6gfc1S6YqDNGYRgcd_FaD2AP1UfccHG8fzSivniD6qS-0giAhSEoYK9NIgCaA8l6fC8Uq9ZjAISR3CjSGtJl16kHFWNkc2CssY8I7QazAKcc1Hozo-oeFcPm6oXelzYsCIMAxNKkvsy2M0rtj33Sr0jI7dkM7JmTgLvbcAbQxiy-TUESgyjtJLnR9qbMSTT2k-etvmuWSVyOF_vqVZs8_61_m4q5_zy3eoZIml32sYofuaoBNs1hrVQRRlxZKG9XjFkKr2S01vxRxBOiN6n7lyBVbBpiv0GwpVHwSEQfLhPKf_tPQAEmPw-3K3mbG5ttYO3EvriXyAAOH3W-8a7Fg4ltm8dosmYFOZMz-SEtNW3pqo7Zyvdv17JyvxUJZPjjkvrCYTyzqAWVS0v_Al00Q59rxpwl5Algznu1_d-qh4b16I99lzjtp1K_8n5AFGe3E6Xcdtq1y0]--></g></svg>