<?xml version="1.0" encoding="UTF-8" standalone="no"?><svg xmlns="http://www.w3.org/2000/svg" xmlns:xlink="http://www.w3.org/1999/xlink" contentScriptType="application/ecmascript" contentStyleType="text/css" height="286px" preserveAspectRatio="none" style="width:913px;height:286px;" version="1.1" viewBox="0 0 913 286" width="913px" zoomAndPan="magnify"><defs><filter height="300%" id="f5zr0088bbvz" width="300%" x="-1" y="-1"><feGaussianBlur result="blurOut" stdDeviation="2.0"/><feColorMatrix in="blurOut" result="blurOut2" type="matrix" values="0 0 0 0 0 0 0 0 0 0 0 0 0 0 0 0 0 0 .4 0"/><feOffset dx="4.0" dy="4.0" in="blurOut2" result="blurOut3"/><feBlend in="SourceGraphic" in2="blurOut3" mode="normal"/></filter></defs><g><ellipse cx="424.1715" cy="168.7343" fill="#FFFF00" filter="url(#f5zr0088bbvz)" rx="66.6715" ry="15.7343" style="stroke: #A80036; stroke-width: 1.5;"/><text fill="#000000" font-family="sans-serif" font-size="14" lengthAdjust="spacingAndGlyphs" textLength="92" x="378.1715" y="174.039">Manage SABR</text><!--entity DevOpsEngineer--><ellipse cx="424" cy="18" fill="#FEFECE" filter="url(#f5zr0088bbvz)" rx="8" ry="8" style="stroke: #A80036; stroke-width: 2.0;"/><path d="M424,26 L424,53 M411,34 L437,34 M424,53 L411,68 M424,53 L437,68 " fill="none" filter="url(#f5zr0088bbvz)" style="stroke: #A80036; stroke-width: 2.0;"/><text fill="#000000" font-family="sans-serif" font-size="14" lengthAdjust="spacingAndGlyphs" textLength="112" x="368" y="89.5332">DevOps Engineer</text><ellipse cx="50.0122" cy="259.4517" fill="#D3D3D3" filter="url(#f5zr0088bbvz)" rx="44.0122" ry="15.4517" style="stroke: #A80036; stroke-width: 1.5;"/><text fill="#000000" font-family="sans-serif" font-size="14" lengthAdjust="spacingAndGlyphs" textLength="58" x="21.0122" y="264.7564">BuildSAB</text><ellipse cx="189.0685" cy="259.4517" fill="#D3D3D3" filter="url(#f5zr0088bbvz)" rx="59.5685" ry="15.4517" style="stroke: #A80036; stroke-width: 1.5;"/><text fill="#000000" font-family="sans-serif" font-size="14" lengthAdjust="spacingAndGlyphs" textLength="80" x="149.0685" y="264.7564">CreateSABR</text><ellipse cx="343.7756" cy="259.4517" fill="#D3D3D3" filter="url(#f5zr0088bbvz)" rx="60.2756" ry="15.4517" style="stroke: #A80036; stroke-width: 1.5;"/><text fill="#000000" font-family="sans-serif" font-size="14" lengthAdjust="spacingAndGlyphs" textLength="81" x="303.2756" y="264.7564">DeploySABR</text><ellipse cx="505.0964" cy="259.5193" fill="#D3D3D3" filter="url(#f5zr0088bbvz)" rx="65.5964" ry="15.5193" style="stroke: #A80036; stroke-width: 1.5;"/><text fill="#000000" font-family="sans-serif" font-size="14" lengthAdjust="spacingAndGlyphs" textLength="89" x="460.5964" y="264.824">DeploySABR2</text><ellipse cx="671.0964" cy="259.5193" fill="#D3D3D3" filter="url(#f5zr0088bbvz)" rx="65.5964" ry="15.5193" style="stroke: #A80036; stroke-width: 1.5;"/><text fill="#000000" font-family="sans-serif" font-size="14" lengthAdjust="spacingAndGlyphs" textLength="89" x="626.5964" y="264.824">DeploySABR3</text><ellipse cx="837.0964" cy="259.5193" fill="#D3D3D3" filter="url(#f5zr0088bbvz)" rx="65.5964" ry="15.5193" style="stroke: #A80036; stroke-width: 1.5;"/><text fill="#000000" font-family="sans-serif" font-size="14" lengthAdjust="spacingAndGlyphs" textLength="89" x="792.5964" y="264.824">DeploySABR4</text><!--link DevOpsEngineer to ManageSABR--><path d="M424,93.051 C424,111.579 424,132.548 424,147.5 " fill="none" id="DevOpsEngineer-ManageSABR" style="stroke: #A80036; stroke-width: 1.0;"/><polygon fill="#A80036" points="424,152.72,428,143.72,424,147.72,420,143.72,424,152.72" style="stroke: #A80036; stroke-width: 1.0;"/><!--link ManageSABR to BuildSAB--><path d="M379.629,180.059 C306.218,197.5283 160.608,232.179 90.1069,248.9558 " fill="none" id="ManageSABR-BuildSAB" style="stroke: #A80036; stroke-width: 1.0;"/><polygon fill="#A80036" points="85.1627,250.1324,94.8442,251.9401,90.0269,248.9748,92.9921,244.1574,85.1627,250.1324" style="stroke: #A80036; stroke-width: 1.0;"/><!--link ManageSABR to CreateSABR--><path d="M390.829,182.0628 C347.371,198.5211 271.386,227.2983 226.076,244.4584 " fill="none" id="ManageSABR-CreateSABR" style="stroke: #A80036; stroke-width: 1.0;"/><polygon fill="#A80036" points="221.248,246.2868,231.0814,246.839,225.9237,244.5155,228.2472,239.3578,221.248,246.2868" style="stroke: #A80036; stroke-width: 1.0;"/><!--link ManageSABR to DeploySABR--><path d="M411.147,183.7994 C397.384,199.1102 375.504,223.4523 360.483,240.1623 " fill="none" id="ManageSABR-DeploySABR" style="stroke: #A80036; stroke-width: 1.0;"/><polygon fill="#A80036" points="356.821,244.2361,365.8124,240.2168,360.1635,240.5176,359.8627,234.8687,356.821,244.2361" style="stroke: #A80036; stroke-width: 1.0;"/><!--link ManageSABR to DeploySABR2--><path d="M437.014,183.7994 C450.949,199.1102 473.103,223.4523 488.311,240.1623 " fill="none" id="ManageSABR-DeploySABR2" style="stroke: #A80036; stroke-width: 1.0;"/><polygon fill="#A80036" points="492.018,244.2361,488.9174,234.888,488.6522,240.5387,483.0015,240.2734,492.018,244.2361" style="stroke: #A80036; stroke-width: 1.0;"/><!--link ManageSABR to DeploySABR3--><path d="M458.344,181.8751 C503.967,198.3142 584.349,227.2776 632.141,244.4983 " fill="none" id="ManageSABR-DeploySABR3" style="stroke: #A80036; stroke-width: 1.0;"/><polygon fill="#A80036" points="636.947,246.23,629.8368,239.4149,632.2433,244.5344,627.1238,246.9409,636.947,246.23" style="stroke: #A80036; stroke-width: 1.0;"/><!--link ManageSABR to DeploySABR4--><path d="M470.974,179.6228 C548.967,196.43 704.587,229.9654 785.483,247.3983 " fill="none" id="ManageSABR-DeploySABR4" style="stroke: #A80036; stroke-width: 1.0;"/><polygon fill="#A80036" points="790.702,248.5229,782.7477,242.7152,785.8144,247.4687,781.0609,250.5354,790.702,248.5229" style="stroke: #A80036; stroke-width: 1.0;"/><!--
@startuml


usecase "Manage SABR" as ManageSABR #yellow

Actor "DevOps Engineer" as DevOpsEngineer

DevOpsEngineer - -> ManageSABR



usecase "BuildSAB" as BuildSAB #lightgrey

ManageSABR - -> BuildSAB

usecase "CreateSABR" as CreateSABR #lightgrey

ManageSABR - -> CreateSABR

usecase "DeploySABR" as DeploySABR #lightgrey

ManageSABR - -> DeploySABR

usecase "DeploySABR2" as DeploySABR2 #lightgrey

ManageSABR - -> DeploySABR2

usecase "DeploySABR3" as DeploySABR3 #lightgrey

ManageSABR - -> DeploySABR3

usecase "DeploySABR4" as DeploySABR4 #lightgrey

ManageSABR - -> DeploySABR4









@enduml

PlantUML version 1.2019.05(Sat Apr 20 09:45:36 PDT 2019)
(GPL source distribution)
Java Runtime: Java(TM) SE Runtime Environment
JVM: Java HotSpot(TM) Client VM
Java Version: 1.8.0_271-b09
Operating System: Windows 10
OS Version: 10.0
Default Encoding: Cp1252
Language: en
Country: US
--></g></svg>