<?xml version="1.0" encoding="us-ascii" standalone="no"?><svg xmlns="http://www.w3.org/2000/svg" xmlns:xlink="http://www.w3.org/1999/xlink" contentStyleType="text/css" height="462px" preserveAspectRatio="none" style="width:855px;height:462px;background:#FFFFFF;" version="1.1" viewBox="0 0 855 462" width="855px" zoomAndPan="magnify"><defs/><g><rect fill="#FFCC88" height="450.3828" style="stroke:#181818;stroke-width:0.5;" width="213" x="227" y="6"/><text fill="#000000" font-family="sans-serif" font-size="13" font-weight="bold" lengthAdjust="spacing" textLength="203" x="230" y="19.4951">Sentient Agent Bundle Manager</text><line style="stroke:#181818;stroke-width:0.5;stroke-dasharray:5.0,5.0;" x1="75" x2="75" y1="82.6094" y2="375.7734"/><line style="stroke:#181818;stroke-width:0.5;stroke-dasharray:5.0,5.0;" x1="188" x2="188" y1="82.6094" y2="375.7734"/><line style="stroke:#181818;stroke-width:0.5;stroke-dasharray:5.0,5.0;" x1="333" x2="333" y1="82.6094" y2="375.7734"/><line style="stroke:#181818;stroke-width:0.5;stroke-dasharray:5.0,5.0;" x1="740.5" x2="740.5" y1="82.6094" y2="375.7734"/><text fill="#000000" font-family="sans-serif" font-size="14" lengthAdjust="spacing" textLength="134" x="5" y="79.5332">ApplicationDeveloper</text><ellipse cx="75" cy="13.5" fill="#E2E2F0" rx="8" ry="8" style="stroke:#181818;stroke-width:0.5;"/><path d="M75,21.5 L75,48.5 M62,29.5 L88,29.5 M75,48.5 L62,63.5 M75,48.5 L88,63.5 " fill="none" style="stroke:#181818;stroke-width:0.5;"/><text fill="#000000" font-family="sans-serif" font-size="14" lengthAdjust="spacing" textLength="134" x="5" y="389.3066">ApplicationDeveloper</text><ellipse cx="75" cy="400.8828" fill="#E2E2F0" rx="8" ry="8" style="stroke:#181818;stroke-width:0.5;"/><path d="M75,408.8828 L75,435.8828 M62,416.8828 L88,416.8828 M75,435.8828 L62,450.8828 M75,435.8828 L88,450.8828 " fill="none" style="stroke:#181818;stroke-width:0.5;"/><text fill="#000000" font-family="sans-serif" font-size="14" lengthAdjust="spacing" textLength="60" x="155" y="79.5332">EventBus</text><ellipse cx="188" cy="49" fill="#E2E2F0" rx="12" ry="12" style="stroke:#181818;stroke-width:0.5;"/><line style="stroke:#181818;stroke-width:0.5;" x1="176" x2="200" y1="63" y2="63"/><text fill="#000000" font-family="sans-serif" font-size="14" lengthAdjust="spacing" textLength="60" x="155" y="389.3066">EventBus</text><ellipse cx="188" cy="408.3828" fill="#E2E2F0" rx="12" ry="12" style="stroke:#181818;stroke-width:0.5;"/><line style="stroke:#181818;stroke-width:0.5;" x1="176" x2="200" y1="422.3828" y2="422.3828"/><text fill="#000000" font-family="sans-serif" font-size="14" lengthAdjust="spacing" textLength="34" x="313.5" y="79.5332">sabm</text><path d="M313,37 L313,61 M313,49 L330,49 " fill="none" style="stroke:#181818;stroke-width:0.5;"/><ellipse cx="342" cy="49" fill="#FFFFFF" rx="12" ry="12" style="stroke:#181818;stroke-width:0.5;"/><text fill="#000000" font-family="sans-serif" font-size="14" lengthAdjust="spacing" textLength="34" x="313.5" y="389.3066">sabm</text><path d="M313,396.3828 L313,420.3828 M313,408.3828 L330,408.3828 " fill="none" style="stroke:#181818;stroke-width:0.5;"/><ellipse cx="342" cy="408.3828" fill="#FFFFFF" rx="12" ry="12" style="stroke:#181818;stroke-width:0.5;"/><rect fill="#E2E2F0" height="31.6094" rx="2.5" ry="2.5" style="stroke:#181818;stroke-width:0.5;" width="218" x="631.5" y="50"/><text fill="#000000" font-family="sans-serif" font-size="14" lengthAdjust="spacing" textLength="204" x="638.5" y="71.5332">sentient agent bundle resources</text><rect fill="#E2E2F0" height="31.6094" rx="2.5" ry="2.5" style="stroke:#181818;stroke-width:0.5;" width="218" x="631.5" y="374.7734"/><text fill="#000000" font-family="sans-serif" font-size="14" lengthAdjust="spacing" textLength="204" x="638.5" y="396.3066">sentient agent bundle resources</text><polygon fill="#181818" points="321.5,110.9609,331.5,114.9609,321.5,118.9609,325.5,114.9609" style="stroke:#181818;stroke-width:1.0;"/><line style="stroke:#181818;stroke-width:1.0;" x1="75" x2="327.5" y1="114.9609" y2="114.9609"/><text fill="#000000" font-family="sans-serif" font-size="13" lengthAdjust="spacing" textLength="78" x="82" y="110.1045">Create SABR</text><polygon fill="#181818" points="728.5,141.3125,738.5,145.3125,728.5,149.3125,732.5,145.3125" style="stroke:#181818;stroke-width:1.0;"/><line style="stroke:#181818;stroke-width:1.0;" x1="333.5" x2="734.5" y1="145.3125" y2="145.3125"/><text fill="#000000" font-family="sans-serif" font-size="13" lengthAdjust="spacing" textLength="305" x="340.5" y="140.4561">create (name: mySABR1,file: ./templates/bundle1.js)</text><polygon fill="#181818" points="199,176.6641,189,176.6641,199,180.6641" style="stroke:#181818;stroke-width:1.0;"/><line style="stroke:#181818;stroke-width:1.0;stroke-dasharray:2.0,2.0;" x1="188" x2="739.5" y1="175.6641" y2="175.6641"/><text fill="#000000" font-family="sans-serif" font-size="13" lengthAdjust="spacing" textLength="78" x="205" y="170.8076">bundle.create</text><polygon fill="#181818" points="728.5,202.0156,738.5,206.0156,728.5,210.0156,732.5,206.0156" style="stroke:#181818;stroke-width:1.0;"/><line style="stroke:#181818;stroke-width:1.0;" x1="333.5" x2="734.5" y1="206.0156" y2="206.0156"/><text fill="#000000" font-family="sans-serif" font-size="13" lengthAdjust="spacing" textLength="305" x="340.5" y="201.1592">create (name: mySABR2,file: ./templates/bundle2.js)</text><polygon fill="#181818" points="199,237.3672,189,237.3672,199,241.3672" style="stroke:#181818;stroke-width:1.0;"/><line style="stroke:#181818;stroke-width:1.0;stroke-dasharray:2.0,2.0;" x1="188" x2="739.5" y1="236.3672" y2="236.3672"/><text fill="#000000" font-family="sans-serif" font-size="13" lengthAdjust="spacing" textLength="78" x="205" y="231.5107">bundle.create</text><polygon fill="#181818" points="728.5,262.7188,738.5,266.7188,728.5,270.7188,732.5,266.7188" style="stroke:#181818;stroke-width:1.0;"/><line style="stroke:#181818;stroke-width:1.0;" x1="333.5" x2="734.5" y1="266.7188" y2="266.7188"/><text fill="#000000" font-family="sans-serif" font-size="13" lengthAdjust="spacing" textLength="305" x="340.5" y="261.8623">create (name: mySABR3,file: ./templates/bundle3.js)</text><polygon fill="#181818" points="199,298.0703,189,298.0703,199,302.0703" style="stroke:#181818;stroke-width:1.0;"/><line style="stroke:#181818;stroke-width:1.0;stroke-dasharray:2.0,2.0;" x1="188" x2="739.5" y1="297.0703" y2="297.0703"/><text fill="#000000" font-family="sans-serif" font-size="13" lengthAdjust="spacing" textLength="78" x="205" y="292.2139">bundle.create</text><polygon fill="#181818" points="728.5,323.4219,738.5,327.4219,728.5,331.4219,732.5,327.4219" style="stroke:#181818;stroke-width:1.0;"/><line style="stroke:#181818;stroke-width:1.0;" x1="333.5" x2="734.5" y1="327.4219" y2="327.4219"/><text fill="#000000" font-family="sans-serif" font-size="13" lengthAdjust="spacing" textLength="305" x="340.5" y="322.5654">create (name: mySABR4,file: ./templates/bundle4.js)</text><polygon fill="#181818" points="199,358.7734,189,358.7734,199,362.7734" style="stroke:#181818;stroke-width:1.0;"/><line style="stroke:#181818;stroke-width:1.0;stroke-dasharray:2.0,2.0;" x1="188" x2="739.5" y1="357.7734" y2="357.7734"/><text fill="#000000" font-family="sans-serif" font-size="13" lengthAdjust="spacing" textLength="78" x="205" y="352.917">bundle.create</text><!--SRC=[pP2zRiCW58LtdkBANbgfjfMV8V9GoMuoTacUu4AkKrSOBC1f_FR5qBHBtIuPWWIwS7JE-GGAfmqaLT_BLg1hjThIcQJkoIICCLAkTIFipdwe1yiOrnSuJAz-GtMQpdfGHqdmYWfFP21j6Y4s6mP-SUqrD2DOv1sa7s-j8vzvzCA5_HMs9wi78yX2oZbYquIu7-Vlm90zXwOINWoX8pXKzPu5Qm3mScAlVHZwUEmprxwa116z3mexAg4Rfv35KzDAVyiBHrqllMwBQ5tax_OnTloR3LbMVFzb-QNdiUyccCjPpEKzOQvcCLVtXBcUnLpV39Dz0W00]--></g></svg>