<?xml version="1.0" encoding="us-ascii" standalone="no"?><svg xmlns="http://www.w3.org/2000/svg" xmlns:xlink="http://www.w3.org/1999/xlink" contentStyleType="text/css" height="340px" preserveAspectRatio="none" style="width:1136px;height:340px;background:#FFFFFF;" version="1.1" viewBox="0 0 1136 340" width="1136px" zoomAndPan="magnify"><defs/><g><rect fill="#FFCC88" height="328.9766" style="stroke:#181818;stroke-width:0.5;" width="213" x="227" y="6"/><text fill="#000000" font-family="sans-serif" font-size="13" font-weight="bold" lengthAdjust="spacing" textLength="203" x="230" y="19.4951">Sentient Agent Bundle Manager</text><rect fill="#FFCC88" height="328.9766" style="stroke:#181818;stroke-width:0.5;" width="213" x="700.5" y="6"/><text fill="#000000" font-family="sans-serif" font-size="13" font-weight="bold" lengthAdjust="spacing" textLength="203" x="703.5" y="19.4951">Sentient Agent Bundle Manager</text><line style="stroke:#181818;stroke-width:0.5;stroke-dasharray:5.0,5.0;" x1="75" x2="75" y1="82.6094" y2="254.3672"/><line style="stroke:#181818;stroke-width:0.5;stroke-dasharray:5.0,5.0;" x1="188" x2="188" y1="82.6094" y2="254.3672"/><line style="stroke:#181818;stroke-width:0.5;stroke-dasharray:5.0,5.0;" x1="333" x2="333" y1="82.6094" y2="254.3672"/><line style="stroke:#181818;stroke-width:0.5;stroke-dasharray:5.0,5.0;" x1="807" x2="807" y1="82.6094" y2="254.3672"/><line style="stroke:#181818;stroke-width:0.5;stroke-dasharray:5.0,5.0;" x1="1024.5" x2="1024.5" y1="82.6094" y2="254.3672"/><text fill="#000000" font-family="sans-serif" font-size="14" lengthAdjust="spacing" textLength="134" x="5" y="79.5332">ApplicationDeveloper</text><ellipse cx="75" cy="13.5" fill="#E2E2F0" rx="8" ry="8" style="stroke:#181818;stroke-width:0.5;"/><path d="M75,21.5 L75,48.5 M62,29.5 L88,29.5 M75,48.5 L62,63.5 M75,48.5 L88,63.5 " fill="none" style="stroke:#181818;stroke-width:0.5;"/><text fill="#000000" font-family="sans-serif" font-size="14" lengthAdjust="spacing" textLength="134" x="5" y="267.9004">ApplicationDeveloper</text><ellipse cx="75" cy="279.4766" fill="#E2E2F0" rx="8" ry="8" style="stroke:#181818;stroke-width:0.5;"/><path d="M75,287.4766 L75,314.4766 M62,295.4766 L88,295.4766 M75,314.4766 L62,329.4766 M75,314.4766 L88,329.4766 " fill="none" style="stroke:#181818;stroke-width:0.5;"/><text fill="#000000" font-family="sans-serif" font-size="14" lengthAdjust="spacing" textLength="60" x="155" y="79.5332">EventBus</text><ellipse cx="188" cy="49" fill="#E2E2F0" rx="12" ry="12" style="stroke:#181818;stroke-width:0.5;"/><line style="stroke:#181818;stroke-width:0.5;" x1="176" x2="200" y1="63" y2="63"/><text fill="#000000" font-family="sans-serif" font-size="14" lengthAdjust="spacing" textLength="60" x="155" y="267.9004">EventBus</text><ellipse cx="188" cy="286.9766" fill="#E2E2F0" rx="12" ry="12" style="stroke:#181818;stroke-width:0.5;"/><line style="stroke:#181818;stroke-width:0.5;" x1="176" x2="200" y1="300.9766" y2="300.9766"/><text fill="#000000" font-family="sans-serif" font-size="14" lengthAdjust="spacing" textLength="34" x="313.5" y="79.5332">sabm</text><path d="M313,37 L313,61 M313,49 L330,49 " fill="none" style="stroke:#181818;stroke-width:0.5;"/><ellipse cx="342" cy="49" fill="#FFFFFF" rx="12" ry="12" style="stroke:#181818;stroke-width:0.5;"/><text fill="#000000" font-family="sans-serif" font-size="14" lengthAdjust="spacing" textLength="34" x="313.5" y="267.9004">sabm</text><path d="M313,274.9766 L313,298.9766 M313,286.9766 L330,286.9766 " fill="none" style="stroke:#181818;stroke-width:0.5;"/><ellipse cx="342" cy="286.9766" fill="#FFFFFF" rx="12" ry="12" style="stroke:#181818;stroke-width:0.5;"/><rect fill="#E2E2F0" height="31.6094" rx="2.5" ry="2.5" style="stroke:#181818;stroke-width:0.5;" width="72" x="771" y="50"/><text fill="#000000" font-family="sans-serif" font-size="14" lengthAdjust="spacing" textLength="58" x="778" y="71.5332">sabundle</text><rect fill="#E2E2F0" height="31.6094" rx="2.5" ry="2.5" style="stroke:#181818;stroke-width:0.5;" width="72" x="771" y="253.3672"/><text fill="#000000" font-family="sans-serif" font-size="14" lengthAdjust="spacing" textLength="58" x="778" y="274.9004">sabundle</text><rect fill="#E2E2F0" height="31.6094" rx="2.5" ry="2.5" style="stroke:#181818;stroke-width:0.5;" width="211" x="919.5" y="50"/><text fill="#000000" font-family="sans-serif" font-size="14" lengthAdjust="spacing" textLength="197" x="926.5" y="71.5332">sentient agent bundle manager</text><rect fill="#E2E2F0" height="31.6094" rx="2.5" ry="2.5" style="stroke:#181818;stroke-width:0.5;" width="211" x="919.5" y="253.3672"/><text fill="#000000" font-family="sans-serif" font-size="14" lengthAdjust="spacing" textLength="197" x="926.5" y="274.9004">sentient agent bundle manager</text><polygon fill="#181818" points="321.5,110.9609,331.5,114.9609,321.5,118.9609,325.5,114.9609" style="stroke:#181818;stroke-width:1.0;"/><line style="stroke:#181818;stroke-width:1.0;" x1="75" x2="327.5" y1="114.9609" y2="114.9609"/><text fill="#000000" font-family="sans-serif" font-size="13" lengthAdjust="spacing" textLength="69" x="82" y="110.1045">Create SAB</text><polygon fill="#181818" points="795,141.3125,805,145.3125,795,149.3125,799,145.3125" style="stroke:#181818;stroke-width:1.0;"/><line style="stroke:#181818;stroke-width:1.0;" x1="333.5" x2="801" y1="145.3125" y2="145.3125"/><text fill="#000000" font-family="sans-serif" font-size="13" lengthAdjust="spacing" textLength="305" x="340.5" y="140.4561">create (name: mySABR1,file: ./templates/bundle1.js)</text><polygon fill="#181818" points="199,176.6641,189,176.6641,199,180.6641" style="stroke:#181818;stroke-width:1.0;"/><line style="stroke:#181818;stroke-width:1.0;stroke-dasharray:2.0,2.0;" x1="188" x2="806" y1="175.6641" y2="175.6641"/><text fill="#000000" font-family="sans-serif" font-size="13" lengthAdjust="spacing" textLength="92" x="205" y="170.8076">sabundle.create</text><polygon fill="#181818" points="1013,202.0156,1023,206.0156,1013,210.0156,1017,206.0156" style="stroke:#181818;stroke-width:1.0;"/><line style="stroke:#181818;stroke-width:1.0;" x1="333.5" x2="1019" y1="206.0156" y2="206.0156"/><text fill="#000000" font-family="sans-serif" font-size="13" lengthAdjust="spacing" textLength="140" x="340.5" y="201.1592">build (name: mySABR1)</text><polygon fill="#181818" points="199,237.3672,189,237.3672,199,241.3672" style="stroke:#181818;stroke-width:1.0;"/><line style="stroke:#181818;stroke-width:1.0;stroke-dasharray:2.0,2.0;" x1="188" x2="1024" y1="236.3672" y2="236.3672"/><text fill="#000000" font-family="sans-serif" font-size="13" lengthAdjust="spacing" textLength="83" x="205" y="231.5107">sabundle.build</text><!--SRC=[bP11RiCW44Ntd6BaR5gfjfLTv4Kbkyqoc-O4OpnEYG0ZZDFuzfs0x4XHMwb8863-F3uVPHWyPBLpMaaCQh3lT24zEFAP489iK666_OKtpJGAqGvNEDvkUK9zkgtDP3jDS42B9_AmwNifTpi1FDg1Q-Xd6B4riFdwL86OsN7XAluBMuP37vHK3bdEtDWG1NVmp_-1_3KQgU3D4mQ2Ozs8s1djSJLRU5a5CccUB1ggmCmi_jY-z4hpgIW36QUvFfQfOLkSn-S4kqCWpyirkserMoJquzDB41Y3I58mAGZsqqvATmzsrXV_xFtDHYHoMjy0]--></g></svg>