<?xml version="1.0" encoding="UTF-8" standalone="no"?><svg xmlns="http://www.w3.org/2000/svg" xmlns:xlink="http://www.w3.org/1999/xlink" contentScriptType="application/ecmascript" contentStyleType="text/css" height="479px" preserveAspectRatio="none" style="width:861px;height:479px;" version="1.1" viewBox="0 0 861 479" width="861px" zoomAndPan="magnify"><defs><filter height="300%" id="f132pumwj9c3em" width="300%" x="-1" y="-1"><feGaussianBlur result="blurOut" stdDeviation="2.0"/><feColorMatrix in="blurOut" result="blurOut2" type="matrix" values="0 0 0 0 0 0 0 0 0 0 0 0 0 0 0 0 0 0 .4 0"/><feOffset dx="4.0" dy="4.0" in="blurOut2" result="blurOut3"/><feBlend in="SourceGraphic" in2="blurOut3" mode="normal"/></filter></defs><g><rect fill="#FFCC88" height="464.3828" style="stroke: #A80036; stroke-width: 1.0;" width="213" x="230" y="4"/><text fill="#000000" font-family="sans-serif" font-size="13" font-weight="bold" lengthAdjust="spacingAndGlyphs" textLength="203" x="233" y="17.4951">Sentient Agent Bundle Manager</text><line style="stroke: #A80036; stroke-width: 1.0; stroke-dasharray: 5.0,5.0;" x1="78" x2="78" y1="87.6094" y2="380.7734"/><line style="stroke: #A80036; stroke-width: 1.0; stroke-dasharray: 5.0,5.0;" x1="191" x2="191" y1="87.6094" y2="380.7734"/><line style="stroke: #A80036; stroke-width: 1.0; stroke-dasharray: 5.0,5.0;" x1="336" x2="336" y1="87.6094" y2="380.7734"/><line style="stroke: #A80036; stroke-width: 1.0; stroke-dasharray: 5.0,5.0;" x1="743.5" x2="743.5" y1="87.6094" y2="380.7734"/><text fill="#000000" font-family="sans-serif" font-size="14" lengthAdjust="spacingAndGlyphs" textLength="134" x="8" y="84.5332">ApplicationDeveloper</text><ellipse cx="78" cy="13" fill="#FEFECE" filter="url(#f132pumwj9c3em)" rx="8" ry="8" style="stroke: #A80036; stroke-width: 2.0;"/><path d="M78,21 L78,48 M65,29 L91,29 M78,48 L65,63 M78,48 L91,63 " fill="none" filter="url(#f132pumwj9c3em)" style="stroke: #A80036; stroke-width: 2.0;"/><text fill="#000000" font-family="sans-serif" font-size="14" lengthAdjust="spacingAndGlyphs" textLength="134" x="8" y="394.3066">ApplicationDeveloper</text><ellipse cx="78" cy="407.3828" fill="#FEFECE" filter="url(#f132pumwj9c3em)" rx="8" ry="8" style="stroke: #A80036; stroke-width: 2.0;"/><path d="M78,415.3828 L78,442.3828 M65,423.3828 L91,423.3828 M78,442.3828 L65,457.3828 M78,442.3828 L91,457.3828 " fill="none" filter="url(#f132pumwj9c3em)" style="stroke: #A80036; stroke-width: 2.0;"/><text fill="#000000" font-family="sans-serif" font-size="14" lengthAdjust="spacingAndGlyphs" textLength="60" x="158" y="84.5332">EventBus</text><ellipse cx="191" cy="54" fill="#FEFECE" filter="url(#f132pumwj9c3em)" rx="12" ry="12" style="stroke: #A80036; stroke-width: 2.0;"/><line style="stroke: #A80036; stroke-width: 2.0;" x1="179" x2="203" y1="68" y2="68"/><text fill="#000000" font-family="sans-serif" font-size="14" lengthAdjust="spacingAndGlyphs" textLength="60" x="158" y="394.3066">EventBus</text><ellipse cx="191" cy="413.3828" fill="#FEFECE" filter="url(#f132pumwj9c3em)" rx="12" ry="12" style="stroke: #A80036; stroke-width: 2.0;"/><line style="stroke: #A80036; stroke-width: 2.0;" x1="179" x2="203" y1="427.3828" y2="427.3828"/><text fill="#000000" font-family="sans-serif" font-size="14" lengthAdjust="spacingAndGlyphs" textLength="34" x="316.5" y="84.5332">sabm</text><path d="M316,42 L316,66 M316,54 L333,54 " fill="none" filter="url(#f132pumwj9c3em)" style="stroke: #A80036; stroke-width: 2.0;"/><ellipse cx="345" cy="54" fill="#FFFFFF" filter="url(#f132pumwj9c3em)" rx="12" ry="12" style="stroke: #A80036; stroke-width: 2.0;"/><text fill="#000000" font-family="sans-serif" font-size="14" lengthAdjust="spacingAndGlyphs" textLength="34" x="316.5" y="394.3066">sabm</text><path d="M316,401.3828 L316,425.3828 M316,413.3828 L333,413.3828 " fill="none" filter="url(#f132pumwj9c3em)" style="stroke: #A80036; stroke-width: 2.0;"/><ellipse cx="345" cy="413.3828" fill="#FFFFFF" filter="url(#f132pumwj9c3em)" rx="12" ry="12" style="stroke: #A80036; stroke-width: 2.0;"/><rect fill="#FEFECE" filter="url(#f132pumwj9c3em)" height="31.6094" style="stroke: #A80036; stroke-width: 1.5;" width="218" x="632.5" y="51"/><text fill="#000000" font-family="sans-serif" font-size="14" lengthAdjust="spacingAndGlyphs" textLength="204" x="639.5" y="72.5332">sentient agent bundle resources</text><rect fill="#FEFECE" filter="url(#f132pumwj9c3em)" height="31.6094" style="stroke: #A80036; stroke-width: 1.5;" width="218" x="632.5" y="379.7734"/><text fill="#000000" font-family="sans-serif" font-size="14" lengthAdjust="spacingAndGlyphs" textLength="204" x="639.5" y="401.3066">sentient agent bundle resources</text><polygon fill="#A80036" points="324.5,115.9609,334.5,119.9609,324.5,123.9609,328.5,119.9609" style="stroke: #A80036; stroke-width: 1.0;"/><line style="stroke: #A80036; stroke-width: 1.0;" x1="78" x2="330.5" y1="119.9609" y2="119.9609"/><text fill="#000000" font-family="sans-serif" font-size="13" lengthAdjust="spacingAndGlyphs" textLength="78" x="85" y="115.1045">Create SABR</text><polygon fill="#A80036" points="731.5,146.3125,741.5,150.3125,731.5,154.3125,735.5,150.3125" style="stroke: #A80036; stroke-width: 1.0;"/><line style="stroke: #A80036; stroke-width: 1.0;" x1="336.5" x2="737.5" y1="150.3125" y2="150.3125"/><text fill="#000000" font-family="sans-serif" font-size="13" lengthAdjust="spacingAndGlyphs" textLength="305" x="343.5" y="145.4561">create (name: mySABR1,file: ./templates/bundle1.js)</text><polygon fill="#A80036" points="202,181.6641,192,181.6641,202,185.6641" style="stroke: #A80036; stroke-width: 1.0;"/><line style="stroke: #A80036; stroke-width: 1.0; stroke-dasharray: 2.0,2.0;" x1="191" x2="742.5" y1="180.6641" y2="180.6641"/><text fill="#000000" font-family="sans-serif" font-size="13" lengthAdjust="spacingAndGlyphs" textLength="78" x="208" y="175.8076">bundle.create</text><polygon fill="#A80036" points="731.5,207.0156,741.5,211.0156,731.5,215.0156,735.5,211.0156" style="stroke: #A80036; stroke-width: 1.0;"/><line style="stroke: #A80036; stroke-width: 1.0;" x1="336.5" x2="737.5" y1="211.0156" y2="211.0156"/><text fill="#000000" font-family="sans-serif" font-size="13" lengthAdjust="spacingAndGlyphs" textLength="305" x="343.5" y="206.1592">create (name: mySABR2,file: ./templates/bundle2.js)</text><polygon fill="#A80036" points="202,242.3672,192,242.3672,202,246.3672" style="stroke: #A80036; stroke-width: 1.0;"/><line style="stroke: #A80036; stroke-width: 1.0; stroke-dasharray: 2.0,2.0;" x1="191" x2="742.5" y1="241.3672" y2="241.3672"/><text fill="#000000" font-family="sans-serif" font-size="13" lengthAdjust="spacingAndGlyphs" textLength="78" x="208" y="236.5107">bundle.create</text><polygon fill="#A80036" points="731.5,267.7188,741.5,271.7188,731.5,275.7188,735.5,271.7188" style="stroke: #A80036; stroke-width: 1.0;"/><line style="stroke: #A80036; stroke-width: 1.0;" x1="336.5" x2="737.5" y1="271.7188" y2="271.7188"/><text fill="#000000" font-family="sans-serif" font-size="13" lengthAdjust="spacingAndGlyphs" textLength="305" x="343.5" y="266.8623">create (name: mySABR3,file: ./templates/bundle3.js)</text><polygon fill="#A80036" points="202,303.0703,192,303.0703,202,307.0703" style="stroke: #A80036; stroke-width: 1.0;"/><line style="stroke: #A80036; stroke-width: 1.0; stroke-dasharray: 2.0,2.0;" x1="191" x2="742.5" y1="302.0703" y2="302.0703"/><text fill="#000000" font-family="sans-serif" font-size="13" lengthAdjust="spacingAndGlyphs" textLength="78" x="208" y="297.2139">bundle.create</text><polygon fill="#A80036" points="731.5,328.4219,741.5,332.4219,731.5,336.4219,735.5,332.4219" style="stroke: #A80036; stroke-width: 1.0;"/><line style="stroke: #A80036; stroke-width: 1.0;" x1="336.5" x2="737.5" y1="332.4219" y2="332.4219"/><text fill="#000000" font-family="sans-serif" font-size="13" lengthAdjust="spacingAndGlyphs" textLength="305" x="343.5" y="327.5654">create (name: mySABR4,file: ./templates/bundle4.js)</text><polygon fill="#A80036" points="202,363.7734,192,363.7734,202,367.7734" style="stroke: #A80036; stroke-width: 1.0;"/><line style="stroke: #A80036; stroke-width: 1.0; stroke-dasharray: 2.0,2.0;" x1="191" x2="742.5" y1="362.7734" y2="362.7734"/><text fill="#000000" font-family="sans-serif" font-size="13" lengthAdjust="spacingAndGlyphs" textLength="78" x="208" y="357.917">bundle.create</text><!--
@startuml

actor "ApplicationDeveloper"


entity EventBus

box Sentient Agent Bundle Manager #ffcc88
    boundary sabm #white
end box


box Sentient Agent Bundle Resources #bbaaff
    end box


"ApplicationDeveloper" -> sabm: Create SABR

    sabm -> "sentient agent bundle resources": create (name: mySABR1,file: ./templates/bundle1.js)

    "sentient agent bundle resources" - -/ EventBus: bundle.create

    sabm -> "sentient agent bundle resources": create (name: mySABR2,file: ./templates/bundle2.js)

    "sentient agent bundle resources" - -/ EventBus: bundle.create

    sabm -> "sentient agent bundle resources": create (name: mySABR3,file: ./templates/bundle3.js)

    "sentient agent bundle resources" - -/ EventBus: bundle.create

    sabm -> "sentient agent bundle resources": create (name: mySABR4,file: ./templates/bundle4.js)

    "sentient agent bundle resources" - -/ EventBus: bundle.create



@enduml

PlantUML version 1.2019.05(Sat Apr 20 09:45:36 PDT 2019)
(GPL source distribution)
Java Runtime: Java(TM) SE Runtime Environment
JVM: Java HotSpot(TM) Client VM
Java Version: 1.8.0_271-b09
Operating System: Windows 10
OS Version: 10.0
Default Encoding: Cp1252
Language: en
Country: US
--></g></svg>