<?xml version="1.0" encoding="UTF-8" standalone="no"?><svg xmlns="http://www.w3.org/2000/svg" xmlns:xlink="http://www.w3.org/1999/xlink" contentScriptType="application/ecmascript" contentStyleType="text/css" height="357px" preserveAspectRatio="none" style="width:1142px;height:357px;" version="1.1" viewBox="0 0 1142 357" width="1142px" zoomAndPan="magnify"><defs><filter height="300%" id="f1g5m7w7u736d3" width="300%" x="-1" y="-1"><feGaussianBlur result="blurOut" stdDeviation="2.0"/><feColorMatrix in="blurOut" result="blurOut2" type="matrix" values="0 0 0 0 0 0 0 0 0 0 0 0 0 0 0 0 0 0 .4 0"/><feOffset dx="4.0" dy="4.0" in="blurOut2" result="blurOut3"/><feBlend in="SourceGraphic" in2="blurOut3" mode="normal"/></filter></defs><g><rect fill="#FFCC88" height="342.9766" style="stroke: #A80036; stroke-width: 1.0;" width="213" x="230" y="4"/><text fill="#000000" font-family="sans-serif" font-size="13" font-weight="bold" lengthAdjust="spacingAndGlyphs" textLength="203" x="233" y="17.4951">Sentient Agent Bundle Manager</text><rect fill="#FFCC88" height="342.9766" style="stroke: #A80036; stroke-width: 1.0;" width="213" x="701.5" y="4"/><text fill="#000000" font-family="sans-serif" font-size="13" font-weight="bold" lengthAdjust="spacingAndGlyphs" textLength="203" x="704.5" y="17.4951">Sentient Agent Bundle Manager</text><line style="stroke: #A80036; stroke-width: 1.0; stroke-dasharray: 5.0,5.0;" x1="78" x2="78" y1="87.6094" y2="259.3672"/><line style="stroke: #A80036; stroke-width: 1.0; stroke-dasharray: 5.0,5.0;" x1="191" x2="191" y1="87.6094" y2="259.3672"/><line style="stroke: #A80036; stroke-width: 1.0; stroke-dasharray: 5.0,5.0;" x1="336" x2="336" y1="87.6094" y2="259.3672"/><line style="stroke: #A80036; stroke-width: 1.0; stroke-dasharray: 5.0,5.0;" x1="808" x2="808" y1="87.6094" y2="259.3672"/><line style="stroke: #A80036; stroke-width: 1.0; stroke-dasharray: 5.0,5.0;" x1="1027.5" x2="1027.5" y1="87.6094" y2="259.3672"/><text fill="#000000" font-family="sans-serif" font-size="14" lengthAdjust="spacingAndGlyphs" textLength="134" x="8" y="84.5332">ApplicationDeveloper</text><ellipse cx="78" cy="13" fill="#FEFECE" filter="url(#f1g5m7w7u736d3)" rx="8" ry="8" style="stroke: #A80036; stroke-width: 2.0;"/><path d="M78,21 L78,48 M65,29 L91,29 M78,48 L65,63 M78,48 L91,63 " fill="none" filter="url(#f1g5m7w7u736d3)" style="stroke: #A80036; stroke-width: 2.0;"/><text fill="#000000" font-family="sans-serif" font-size="14" lengthAdjust="spacingAndGlyphs" textLength="134" x="8" y="272.9004">ApplicationDeveloper</text><ellipse cx="78" cy="285.9766" fill="#FEFECE" filter="url(#f1g5m7w7u736d3)" rx="8" ry="8" style="stroke: #A80036; stroke-width: 2.0;"/><path d="M78,293.9766 L78,320.9766 M65,301.9766 L91,301.9766 M78,320.9766 L65,335.9766 M78,320.9766 L91,335.9766 " fill="none" filter="url(#f1g5m7w7u736d3)" style="stroke: #A80036; stroke-width: 2.0;"/><text fill="#000000" font-family="sans-serif" font-size="14" lengthAdjust="spacingAndGlyphs" textLength="60" x="158" y="84.5332">EventBus</text><ellipse cx="191" cy="54" fill="#FEFECE" filter="url(#f1g5m7w7u736d3)" rx="12" ry="12" style="stroke: #A80036; stroke-width: 2.0;"/><line style="stroke: #A80036; stroke-width: 2.0;" x1="179" x2="203" y1="68" y2="68"/><text fill="#000000" font-family="sans-serif" font-size="14" lengthAdjust="spacingAndGlyphs" textLength="60" x="158" y="272.9004">EventBus</text><ellipse cx="191" cy="291.9766" fill="#FEFECE" filter="url(#f1g5m7w7u736d3)" rx="12" ry="12" style="stroke: #A80036; stroke-width: 2.0;"/><line style="stroke: #A80036; stroke-width: 2.0;" x1="179" x2="203" y1="305.9766" y2="305.9766"/><text fill="#000000" font-family="sans-serif" font-size="14" lengthAdjust="spacingAndGlyphs" textLength="34" x="316.5" y="84.5332">sabm</text><path d="M316,42 L316,66 M316,54 L333,54 " fill="none" filter="url(#f1g5m7w7u736d3)" style="stroke: #A80036; stroke-width: 2.0;"/><ellipse cx="345" cy="54" fill="#FFFFFF" filter="url(#f1g5m7w7u736d3)" rx="12" ry="12" style="stroke: #A80036; stroke-width: 2.0;"/><text fill="#000000" font-family="sans-serif" font-size="14" lengthAdjust="spacingAndGlyphs" textLength="34" x="316.5" y="272.9004">sabm</text><path d="M316,279.9766 L316,303.9766 M316,291.9766 L333,291.9766 " fill="none" filter="url(#f1g5m7w7u736d3)" style="stroke: #A80036; stroke-width: 2.0;"/><ellipse cx="345" cy="291.9766" fill="#FFFFFF" filter="url(#f1g5m7w7u736d3)" rx="12" ry="12" style="stroke: #A80036; stroke-width: 2.0;"/><rect fill="#FEFECE" filter="url(#f1g5m7w7u736d3)" height="31.6094" style="stroke: #A80036; stroke-width: 1.5;" width="72" x="770" y="51"/><text fill="#000000" font-family="sans-serif" font-size="14" lengthAdjust="spacingAndGlyphs" textLength="58" x="777" y="72.5332">sabundle</text><rect fill="#FEFECE" filter="url(#f1g5m7w7u736d3)" height="31.6094" style="stroke: #A80036; stroke-width: 1.5;" width="72" x="770" y="258.3672"/><text fill="#000000" font-family="sans-serif" font-size="14" lengthAdjust="spacingAndGlyphs" textLength="58" x="777" y="279.9004">sabundle</text><rect fill="#FEFECE" filter="url(#f1g5m7w7u736d3)" height="31.6094" style="stroke: #A80036; stroke-width: 1.5;" width="211" x="920.5" y="51"/><text fill="#000000" font-family="sans-serif" font-size="14" lengthAdjust="spacingAndGlyphs" textLength="197" x="927.5" y="72.5332">sentient agent bundle manager</text><rect fill="#FEFECE" filter="url(#f1g5m7w7u736d3)" height="31.6094" style="stroke: #A80036; stroke-width: 1.5;" width="211" x="920.5" y="258.3672"/><text fill="#000000" font-family="sans-serif" font-size="14" lengthAdjust="spacingAndGlyphs" textLength="197" x="927.5" y="279.9004">sentient agent bundle manager</text><polygon fill="#A80036" points="324.5,115.9609,334.5,119.9609,324.5,123.9609,328.5,119.9609" style="stroke: #A80036; stroke-width: 1.0;"/><line style="stroke: #A80036; stroke-width: 1.0;" x1="78" x2="330.5" y1="119.9609" y2="119.9609"/><text fill="#000000" font-family="sans-serif" font-size="13" lengthAdjust="spacingAndGlyphs" textLength="69" x="85" y="115.1045">Create SAB</text><polygon fill="#A80036" points="796,146.3125,806,150.3125,796,154.3125,800,150.3125" style="stroke: #A80036; stroke-width: 1.0;"/><line style="stroke: #A80036; stroke-width: 1.0;" x1="336.5" x2="802" y1="150.3125" y2="150.3125"/><text fill="#000000" font-family="sans-serif" font-size="13" lengthAdjust="spacingAndGlyphs" textLength="305" x="343.5" y="145.4561">create (name: mySABR1,file: ./templates/bundle1.js)</text><polygon fill="#A80036" points="202,181.6641,192,181.6641,202,185.6641" style="stroke: #A80036; stroke-width: 1.0;"/><line style="stroke: #A80036; stroke-width: 1.0; stroke-dasharray: 2.0,2.0;" x1="191" x2="807" y1="180.6641" y2="180.6641"/><text fill="#000000" font-family="sans-serif" font-size="13" lengthAdjust="spacingAndGlyphs" textLength="92" x="208" y="175.8076">sabundle.create</text><polygon fill="#A80036" points="1016,207.0156,1026,211.0156,1016,215.0156,1020,211.0156" style="stroke: #A80036; stroke-width: 1.0;"/><line style="stroke: #A80036; stroke-width: 1.0;" x1="336.5" x2="1022" y1="211.0156" y2="211.0156"/><text fill="#000000" font-family="sans-serif" font-size="13" lengthAdjust="spacingAndGlyphs" textLength="140" x="343.5" y="206.1592">build (name: mySABR1)</text><polygon fill="#A80036" points="202,242.3672,192,242.3672,202,246.3672" style="stroke: #A80036; stroke-width: 1.0;"/><line style="stroke: #A80036; stroke-width: 1.0; stroke-dasharray: 2.0,2.0;" x1="191" x2="1027" y1="241.3672" y2="241.3672"/><text fill="#000000" font-family="sans-serif" font-size="13" lengthAdjust="spacingAndGlyphs" textLength="83" x="208" y="236.5107">sabundle.build</text><!--
@startuml

actor "ApplicationDeveloper"


entity EventBus

box Sentient Agent Bundle Manager #ffcc88
    boundary sabm #white
end box


box Sentient Agent Bundle Manager #ffcc88
            participant sabundle
    end box


"ApplicationDeveloper" -> sabm: Create SAB

    sabm -> "sabundle": create (name: mySABR1,file: ./templates/bundle1.js)

    "sabundle" - -/ EventBus: sabundle.create

    sabm -> "sentient agent bundle manager": build (name: mySABR1)

    "sentient agent bundle manager" - -/ EventBus: sabundle.build



@enduml

PlantUML version 1.2019.05(Sat Apr 20 09:45:36 PDT 2019)
(GPL source distribution)
Java Runtime: Java(TM) SE Runtime Environment
JVM: Java HotSpot(TM) Client VM
Java Version: 1.8.0_271-b09
Operating System: Windows 10
OS Version: 10.0
Default Encoding: Cp1252
Language: en
Country: US
--></g></svg>