<?xml version="1.0" encoding="UTF-8" standalone="no"?><svg xmlns="http://www.w3.org/2000/svg" xmlns:xlink="http://www.w3.org/1999/xlink" contentScriptType="application/ecmascript" contentStyleType="text/css" height="540px" preserveAspectRatio="none" style="width:1060px;height:540px;" version="1.1" viewBox="0 0 1060 540" width="1060px" zoomAndPan="magnify"><defs><filter height="300%" id="f23dwuxtigmz" width="300%" x="-1" y="-1"><feGaussianBlur result="blurOut" stdDeviation="2.0"/><feColorMatrix in="blurOut" result="blurOut2" type="matrix" values="0 0 0 0 0 0 0 0 0 0 0 0 0 0 0 0 0 0 .4 0"/><feOffset dx="4.0" dy="4.0" in="blurOut2" result="blurOut3"/><feBlend in="SourceGraphic" in2="blurOut3" mode="normal"/></filter></defs><g><rect fill="#FFCC88" height="525.0859" style="stroke: #A80036; stroke-width: 1.0;" width="213" x="204" y="4"/><text fill="#000000" font-family="sans-serif" font-size="13" font-weight="bold" lengthAdjust="spacingAndGlyphs" textLength="203" x="207" y="17.4951">Sentient Agent Bundle Manager</text><line style="stroke: #A80036; stroke-width: 1.0; stroke-dasharray: 5.0,5.0;" x1="65" x2="65" y1="87.6094" y2="441.4766"/><line style="stroke: #A80036; stroke-width: 1.0; stroke-dasharray: 5.0,5.0;" x1="165" x2="165" y1="87.6094" y2="441.4766"/><line style="stroke: #A80036; stroke-width: 1.0; stroke-dasharray: 5.0,5.0;" x1="310" x2="310" y1="87.6094" y2="441.4766"/><line style="stroke: #A80036; stroke-width: 1.0; stroke-dasharray: 5.0,5.0;" x1="717.5" x2="717.5" y1="87.6094" y2="441.4766"/><line style="stroke: #A80036; stroke-width: 1.0; stroke-dasharray: 5.0,5.0;" x1="945.5" x2="945.5" y1="87.6094" y2="441.4766"/><text fill="#000000" font-family="sans-serif" font-size="14" lengthAdjust="spacingAndGlyphs" textLength="108" x="8" y="84.5332">DevOpsEngineer</text><ellipse cx="65" cy="13" fill="#FEFECE" filter="url(#f23dwuxtigmz)" rx="8" ry="8" style="stroke: #A80036; stroke-width: 2.0;"/><path d="M65,21 L65,48 M52,29 L78,29 M65,48 L52,63 M65,48 L78,63 " fill="none" filter="url(#f23dwuxtigmz)" style="stroke: #A80036; stroke-width: 2.0;"/><text fill="#000000" font-family="sans-serif" font-size="14" lengthAdjust="spacingAndGlyphs" textLength="108" x="8" y="455.0098">DevOpsEngineer</text><ellipse cx="65" cy="468.0859" fill="#FEFECE" filter="url(#f23dwuxtigmz)" rx="8" ry="8" style="stroke: #A80036; stroke-width: 2.0;"/><path d="M65,476.0859 L65,503.0859 M52,484.0859 L78,484.0859 M65,503.0859 L52,518.0859 M65,503.0859 L78,518.0859 " fill="none" filter="url(#f23dwuxtigmz)" style="stroke: #A80036; stroke-width: 2.0;"/><text fill="#000000" font-family="sans-serif" font-size="14" lengthAdjust="spacingAndGlyphs" textLength="60" x="132" y="84.5332">EventBus</text><ellipse cx="165" cy="54" fill="#FEFECE" filter="url(#f23dwuxtigmz)" rx="12" ry="12" style="stroke: #A80036; stroke-width: 2.0;"/><line style="stroke: #A80036; stroke-width: 2.0;" x1="153" x2="177" y1="68" y2="68"/><text fill="#000000" font-family="sans-serif" font-size="14" lengthAdjust="spacingAndGlyphs" textLength="60" x="132" y="455.0098">EventBus</text><ellipse cx="165" cy="474.0859" fill="#FEFECE" filter="url(#f23dwuxtigmz)" rx="12" ry="12" style="stroke: #A80036; stroke-width: 2.0;"/><line style="stroke: #A80036; stroke-width: 2.0;" x1="153" x2="177" y1="488.0859" y2="488.0859"/><text fill="#000000" font-family="sans-serif" font-size="14" lengthAdjust="spacingAndGlyphs" textLength="34" x="290.5" y="84.5332">sabm</text><path d="M290,42 L290,66 M290,54 L307,54 " fill="none" filter="url(#f23dwuxtigmz)" style="stroke: #A80036; stroke-width: 2.0;"/><ellipse cx="319" cy="54" fill="#FFFFFF" filter="url(#f23dwuxtigmz)" rx="12" ry="12" style="stroke: #A80036; stroke-width: 2.0;"/><text fill="#000000" font-family="sans-serif" font-size="14" lengthAdjust="spacingAndGlyphs" textLength="34" x="290.5" y="455.0098">sabm</text><path d="M290,462.0859 L290,486.0859 M290,474.0859 L307,474.0859 " fill="none" filter="url(#f23dwuxtigmz)" style="stroke: #A80036; stroke-width: 2.0;"/><ellipse cx="319" cy="474.0859" fill="#FFFFFF" filter="url(#f23dwuxtigmz)" rx="12" ry="12" style="stroke: #A80036; stroke-width: 2.0;"/><rect fill="#FEFECE" filter="url(#f23dwuxtigmz)" height="31.6094" style="stroke: #A80036; stroke-width: 1.5;" width="218" x="606.5" y="51"/><text fill="#000000" font-family="sans-serif" font-size="14" lengthAdjust="spacingAndGlyphs" textLength="204" x="613.5" y="72.5332">sentient agent bundle resources</text><rect fill="#FEFECE" filter="url(#f23dwuxtigmz)" height="31.6094" style="stroke: #A80036; stroke-width: 1.5;" width="218" x="606.5" y="440.4766"/><text fill="#000000" font-family="sans-serif" font-size="14" lengthAdjust="spacingAndGlyphs" textLength="204" x="613.5" y="462.0098">sentient agent bundle resources</text><rect fill="#FEFECE" filter="url(#f23dwuxtigmz)" height="31.6094" style="stroke: #A80036; stroke-width: 1.5;" width="211" x="838.5" y="51"/><text fill="#000000" font-family="sans-serif" font-size="14" lengthAdjust="spacingAndGlyphs" textLength="197" x="845.5" y="72.5332">sentient agent bundle manager</text><rect fill="#FEFECE" filter="url(#f23dwuxtigmz)" height="31.6094" style="stroke: #A80036; stroke-width: 1.5;" width="211" x="838.5" y="440.4766"/><text fill="#000000" font-family="sans-serif" font-size="14" lengthAdjust="spacingAndGlyphs" textLength="197" x="845.5" y="462.0098">sentient agent bundle manager</text><polygon fill="#A80036" points="298.5,115.9609,308.5,119.9609,298.5,123.9609,302.5,119.9609" style="stroke: #A80036; stroke-width: 1.0;"/><line style="stroke: #A80036; stroke-width: 1.0;" x1="65" x2="304.5" y1="119.9609" y2="119.9609"/><text fill="#000000" font-family="sans-serif" font-size="13" lengthAdjust="spacingAndGlyphs" textLength="105" x="72" y="115.1045">Deploy SABR four</text><polygon fill="#A80036" points="705.5,146.3125,715.5,150.3125,705.5,154.3125,709.5,150.3125" style="stroke: #A80036; stroke-width: 1.0;"/><line style="stroke: #A80036; stroke-width: 1.0;" x1="310.5" x2="711.5" y1="150.3125" y2="150.3125"/><text fill="#000000" font-family="sans-serif" font-size="13" lengthAdjust="spacingAndGlyphs" textLength="305" x="317.5" y="145.4561">create (name: mySABR3,file: ./templates/bundle3.js)</text><polygon fill="#A80036" points="176,181.6641,166,181.6641,176,185.6641" style="stroke: #A80036; stroke-width: 1.0;"/><line style="stroke: #A80036; stroke-width: 1.0; stroke-dasharray: 2.0,2.0;" x1="165" x2="716.5" y1="180.6641" y2="180.6641"/><text fill="#000000" font-family="sans-serif" font-size="13" lengthAdjust="spacingAndGlyphs" textLength="78" x="182" y="175.8076">bundle.create</text><polygon fill="#A80036" points="705.5,207.0156,715.5,211.0156,705.5,215.0156,709.5,211.0156" style="stroke: #A80036; stroke-width: 1.0;"/><line style="stroke: #A80036; stroke-width: 1.0;" x1="310.5" x2="711.5" y1="211.0156" y2="211.0156"/><text fill="#000000" font-family="sans-serif" font-size="13" lengthAdjust="spacingAndGlyphs" textLength="292" x="317.5" y="206.1592">create (name: historical,file: ./templates/policy1.js)</text><polygon fill="#A80036" points="176,242.3672,166,242.3672,176,246.3672" style="stroke: #A80036; stroke-width: 1.0;"/><line style="stroke: #A80036; stroke-width: 1.0; stroke-dasharray: 2.0,2.0;" x1="165" x2="716.5" y1="241.3672" y2="241.3672"/><text fill="#000000" font-family="sans-serif" font-size="13" lengthAdjust="spacingAndGlyphs" textLength="114" x="182" y="236.5107">streampolicy.create</text><polygon fill="#A80036" points="705.5,267.7188,715.5,271.7188,705.5,275.7188,709.5,271.7188" style="stroke: #A80036; stroke-width: 1.0;"/><line style="stroke: #A80036; stroke-width: 1.0;" x1="310.5" x2="711.5" y1="271.7188" y2="271.7188"/><text fill="#000000" font-family="sans-serif" font-size="13" lengthAdjust="spacingAndGlyphs" textLength="294" x="317.5" y="266.8623">create (name: summary,file: ./templates/policy2.js)</text><polygon fill="#A80036" points="176,303.0703,166,303.0703,176,307.0703" style="stroke: #A80036; stroke-width: 1.0;"/><line style="stroke: #A80036; stroke-width: 1.0; stroke-dasharray: 2.0,2.0;" x1="165" x2="716.5" y1="302.0703" y2="302.0703"/><text fill="#000000" font-family="sans-serif" font-size="13" lengthAdjust="spacingAndGlyphs" textLength="114" x="182" y="297.2139">streampolicy.create</text><polygon fill="#A80036" points="705.5,328.4219,715.5,332.4219,705.5,336.4219,709.5,332.4219" style="stroke: #A80036; stroke-width: 1.0;"/><line style="stroke: #A80036; stroke-width: 1.0;" x1="310.5" x2="711.5" y1="332.4219" y2="332.4219"/><text fill="#000000" font-family="sans-serif" font-size="13" lengthAdjust="spacingAndGlyphs" textLength="286" x="317.5" y="327.5654">create (name: realtime,file: ./templates/policy3.js)</text><polygon fill="#A80036" points="176,363.7734,166,363.7734,176,367.7734" style="stroke: #A80036; stroke-width: 1.0;"/><line style="stroke: #A80036; stroke-width: 1.0; stroke-dasharray: 2.0,2.0;" x1="165" x2="716.5" y1="362.7734" y2="362.7734"/><text fill="#000000" font-family="sans-serif" font-size="13" lengthAdjust="spacingAndGlyphs" textLength="114" x="182" y="357.917">streampolicy.create</text><polygon fill="#A80036" points="934,389.125,944,393.125,934,397.125,938,393.125" style="stroke: #A80036; stroke-width: 1.0;"/><line style="stroke: #A80036; stroke-width: 1.0;" x1="310.5" x2="940" y1="393.125" y2="393.125"/><text fill="#000000" font-family="sans-serif" font-size="13" lengthAdjust="spacingAndGlyphs" textLength="246" x="317.5" y="388.2686">deploy (sabr: mySABR3,policies: realtime)</text><polygon fill="#A80036" points="176,424.4766,166,424.4766,176,428.4766" style="stroke: #A80036; stroke-width: 1.0;"/><line style="stroke: #A80036; stroke-width: 1.0; stroke-dasharray: 2.0,2.0;" x1="165" x2="945" y1="423.4766" y2="423.4766"/><text fill="#000000" font-family="sans-serif" font-size="13" lengthAdjust="spacingAndGlyphs" textLength="80" x="182" y="418.6201">bundle.deploy</text><!--
@startuml

actor "DevOpsEngineer"


entity EventBus

box Sentient Agent Bundle Manager #ffcc88
    boundary sabm #white
end box


box Sentient Agent Bundle Resources #bbaaff
    end box

box Sentient Agent Bundle Manager #ffcc88
    end box


"DevOpsEngineer" -> sabm: Deploy SABR four

    sabm -> "sentient agent bundle resources": create (name: mySABR3,file: ./templates/bundle3.js)

    "sentient agent bundle resources" - -/ EventBus: bundle.create

    sabm -> "sentient agent bundle resources": create (name: historical,file: ./templates/policy1.js)

    "sentient agent bundle resources" - -/ EventBus: streampolicy.create

    sabm -> "sentient agent bundle resources": create (name: summary,file: ./templates/policy2.js)

    "sentient agent bundle resources" - -/ EventBus: streampolicy.create

    sabm -> "sentient agent bundle resources": create (name: realtime,file: ./templates/policy3.js)

    "sentient agent bundle resources" - -/ EventBus: streampolicy.create

    sabm -> "sentient agent bundle manager": deploy (sabr: mySABR3,policies: realtime)

    "sentient agent bundle manager" - -/ EventBus: bundle.deploy



@enduml

PlantUML version 1.2019.05(Sat Apr 20 09:45:36 PDT 2019)
(GPL source distribution)
Java Runtime: Java(TM) SE Runtime Environment
JVM: Java HotSpot(TM) 64-Bit Server VM
Java Version: 17.0.7+8-LTS-224
Operating System: Windows 11
OS Version: 10.0
Default Encoding: Cp1252
Language: en
Country: US
--></g></svg>