<?xml version="1.0" encoding="us-ascii" standalone="no"?><svg xmlns="http://www.w3.org/2000/svg" xmlns:xlink="http://www.w3.org/1999/xlink" contentStyleType="text/css" height="523px" preserveAspectRatio="none" style="width:1050px;height:523px;background:#FFFFFF;" version="1.1" viewBox="0 0 1050 523" width="1050px" zoomAndPan="magnify"><defs/><g><rect fill="#FFCC88" height="511.0859" style="stroke:#181818;stroke-width:0.5;" width="213" x="201" y="6"/><text fill="#000000" font-family="sans-serif" font-size="13" font-weight="bold" lengthAdjust="spacing" textLength="203" x="204" y="19.4951">Sentient Agent Bundle Manager</text><line style="stroke:#181818;stroke-width:0.5;stroke-dasharray:5.0,5.0;" x1="62" x2="62" y1="82.6094" y2="436.4766"/><line style="stroke:#181818;stroke-width:0.5;stroke-dasharray:5.0,5.0;" x1="162" x2="162" y1="82.6094" y2="436.4766"/><line style="stroke:#181818;stroke-width:0.5;stroke-dasharray:5.0,5.0;" x1="307" x2="307" y1="82.6094" y2="436.4766"/><line style="stroke:#181818;stroke-width:0.5;stroke-dasharray:5.0,5.0;" x1="714.5" x2="714.5" y1="82.6094" y2="436.4766"/><line style="stroke:#181818;stroke-width:0.5;stroke-dasharray:5.0,5.0;" x1="938.5" x2="938.5" y1="82.6094" y2="436.4766"/><text fill="#000000" font-family="sans-serif" font-size="14" lengthAdjust="spacing" textLength="108" x="5" y="79.5332">DevOpsEngineer</text><ellipse cx="62" cy="13.5" fill="#E2E2F0" rx="8" ry="8" style="stroke:#181818;stroke-width:0.5;"/><path d="M62,21.5 L62,48.5 M49,29.5 L75,29.5 M62,48.5 L49,63.5 M62,48.5 L75,63.5 " fill="none" style="stroke:#181818;stroke-width:0.5;"/><text fill="#000000" font-family="sans-serif" font-size="14" lengthAdjust="spacing" textLength="108" x="5" y="450.0098">DevOpsEngineer</text><ellipse cx="62" cy="461.5859" fill="#E2E2F0" rx="8" ry="8" style="stroke:#181818;stroke-width:0.5;"/><path d="M62,469.5859 L62,496.5859 M49,477.5859 L75,477.5859 M62,496.5859 L49,511.5859 M62,496.5859 L75,511.5859 " fill="none" style="stroke:#181818;stroke-width:0.5;"/><text fill="#000000" font-family="sans-serif" font-size="14" lengthAdjust="spacing" textLength="60" x="129" y="79.5332">EventBus</text><ellipse cx="162" cy="49" fill="#E2E2F0" rx="12" ry="12" style="stroke:#181818;stroke-width:0.5;"/><line style="stroke:#181818;stroke-width:0.5;" x1="150" x2="174" y1="63" y2="63"/><text fill="#000000" font-family="sans-serif" font-size="14" lengthAdjust="spacing" textLength="60" x="129" y="450.0098">EventBus</text><ellipse cx="162" cy="469.0859" fill="#E2E2F0" rx="12" ry="12" style="stroke:#181818;stroke-width:0.5;"/><line style="stroke:#181818;stroke-width:0.5;" x1="150" x2="174" y1="483.0859" y2="483.0859"/><text fill="#000000" font-family="sans-serif" font-size="14" lengthAdjust="spacing" textLength="34" x="287.5" y="79.5332">sabm</text><path d="M287,37 L287,61 M287,49 L304,49 " fill="none" style="stroke:#181818;stroke-width:0.5;"/><ellipse cx="316" cy="49" fill="#FFFFFF" rx="12" ry="12" style="stroke:#181818;stroke-width:0.5;"/><text fill="#000000" font-family="sans-serif" font-size="14" lengthAdjust="spacing" textLength="34" x="287.5" y="450.0098">sabm</text><path d="M287,457.0859 L287,481.0859 M287,469.0859 L304,469.0859 " fill="none" style="stroke:#181818;stroke-width:0.5;"/><ellipse cx="316" cy="469.0859" fill="#FFFFFF" rx="12" ry="12" style="stroke:#181818;stroke-width:0.5;"/><rect fill="#E2E2F0" height="31.6094" rx="2.5" ry="2.5" style="stroke:#181818;stroke-width:0.5;" width="218" x="605.5" y="50"/><text fill="#000000" font-family="sans-serif" font-size="14" lengthAdjust="spacing" textLength="204" x="612.5" y="71.5332">sentient agent bundle resources</text><rect fill="#E2E2F0" height="31.6094" rx="2.5" ry="2.5" style="stroke:#181818;stroke-width:0.5;" width="218" x="605.5" y="435.4766"/><text fill="#000000" font-family="sans-serif" font-size="14" lengthAdjust="spacing" textLength="204" x="612.5" y="457.0098">sentient agent bundle resources</text><rect fill="#E2E2F0" height="31.6094" rx="2.5" ry="2.5" style="stroke:#181818;stroke-width:0.5;" width="211" x="833.5" y="50"/><text fill="#000000" font-family="sans-serif" font-size="14" lengthAdjust="spacing" textLength="197" x="840.5" y="71.5332">sentient agent bundle manager</text><rect fill="#E2E2F0" height="31.6094" rx="2.5" ry="2.5" style="stroke:#181818;stroke-width:0.5;" width="211" x="833.5" y="435.4766"/><text fill="#000000" font-family="sans-serif" font-size="14" lengthAdjust="spacing" textLength="197" x="840.5" y="457.0098">sentient agent bundle manager</text><polygon fill="#181818" points="295.5,110.9609,305.5,114.9609,295.5,118.9609,299.5,114.9609" style="stroke:#181818;stroke-width:1.0;"/><line style="stroke:#181818;stroke-width:1.0;" x1="62" x2="301.5" y1="114.9609" y2="114.9609"/><text fill="#000000" font-family="sans-serif" font-size="13" lengthAdjust="spacing" textLength="104" x="69" y="110.1045">Deploy SABR two</text><polygon fill="#181818" points="702.5,141.3125,712.5,145.3125,702.5,149.3125,706.5,145.3125" style="stroke:#181818;stroke-width:1.0;"/><line style="stroke:#181818;stroke-width:1.0;" x1="307.5" x2="708.5" y1="145.3125" y2="145.3125"/><text fill="#000000" font-family="sans-serif" font-size="13" lengthAdjust="spacing" textLength="305" x="314.5" y="140.4561">create (name: mySABR2,file: ./templates/bundle2.js)</text><polygon fill="#181818" points="173,176.6641,163,176.6641,173,180.6641" style="stroke:#181818;stroke-width:1.0;"/><line style="stroke:#181818;stroke-width:1.0;stroke-dasharray:2.0,2.0;" x1="162" x2="713.5" y1="175.6641" y2="175.6641"/><text fill="#000000" font-family="sans-serif" font-size="13" lengthAdjust="spacing" textLength="78" x="179" y="170.8076">bundle.create</text><polygon fill="#181818" points="702.5,202.0156,712.5,206.0156,702.5,210.0156,706.5,206.0156" style="stroke:#181818;stroke-width:1.0;"/><line style="stroke:#181818;stroke-width:1.0;" x1="307.5" x2="708.5" y1="206.0156" y2="206.0156"/><text fill="#000000" font-family="sans-serif" font-size="13" lengthAdjust="spacing" textLength="292" x="314.5" y="201.1592">create (name: historical,file: ./templates/policy1.js)</text><polygon fill="#181818" points="173,237.3672,163,237.3672,173,241.3672" style="stroke:#181818;stroke-width:1.0;"/><line style="stroke:#181818;stroke-width:1.0;stroke-dasharray:2.0,2.0;" x1="162" x2="713.5" y1="236.3672" y2="236.3672"/><text fill="#000000" font-family="sans-serif" font-size="13" lengthAdjust="spacing" textLength="114" x="179" y="231.5107">streampolicy.create</text><polygon fill="#181818" points="702.5,262.7188,712.5,266.7188,702.5,270.7188,706.5,266.7188" style="stroke:#181818;stroke-width:1.0;"/><line style="stroke:#181818;stroke-width:1.0;" x1="307.5" x2="708.5" y1="266.7188" y2="266.7188"/><text fill="#000000" font-family="sans-serif" font-size="13" lengthAdjust="spacing" textLength="294" x="314.5" y="261.8623">create (name: summary,file: ./templates/policy2.js)</text><polygon fill="#181818" points="173,298.0703,163,298.0703,173,302.0703" style="stroke:#181818;stroke-width:1.0;"/><line style="stroke:#181818;stroke-width:1.0;stroke-dasharray:2.0,2.0;" x1="162" x2="713.5" y1="297.0703" y2="297.0703"/><text fill="#000000" font-family="sans-serif" font-size="13" lengthAdjust="spacing" textLength="114" x="179" y="292.2139">streampolicy.create</text><polygon fill="#181818" points="702.5,323.4219,712.5,327.4219,702.5,331.4219,706.5,327.4219" style="stroke:#181818;stroke-width:1.0;"/><line style="stroke:#181818;stroke-width:1.0;" x1="307.5" x2="708.5" y1="327.4219" y2="327.4219"/><text fill="#000000" font-family="sans-serif" font-size="13" lengthAdjust="spacing" textLength="286" x="314.5" y="322.5654">create (name: realtime,file: ./templates/policy3.js)</text><polygon fill="#181818" points="173,358.7734,163,358.7734,173,362.7734" style="stroke:#181818;stroke-width:1.0;"/><line style="stroke:#181818;stroke-width:1.0;stroke-dasharray:2.0,2.0;" x1="162" x2="713.5" y1="357.7734" y2="357.7734"/><text fill="#000000" font-family="sans-serif" font-size="13" lengthAdjust="spacing" textLength="114" x="179" y="352.917">streampolicy.create</text><polygon fill="#181818" points="927,384.125,937,388.125,927,392.125,931,388.125" style="stroke:#181818;stroke-width:1.0;"/><line style="stroke:#181818;stroke-width:1.0;" x1="307.5" x2="933" y1="388.125" y2="388.125"/><text fill="#000000" font-family="sans-serif" font-size="13" lengthAdjust="spacing" textLength="246" x="314.5" y="383.2686">deploy (sabr: mySABR2,policies: realtime)</text><polygon fill="#181818" points="173,419.4766,163,419.4766,173,423.4766" style="stroke:#181818;stroke-width:1.0;"/><line style="stroke:#181818;stroke-width:1.0;stroke-dasharray:2.0,2.0;" x1="162" x2="938" y1="418.4766" y2="418.4766"/><text fill="#000000" font-family="sans-serif" font-size="13" lengthAdjust="spacing" textLength="80" x="179" y="413.6201">bundle.deploy</text><!--SRC=[pPFVQiCW5CRlVOf3UjF1ah3ifkHYqD1UZa7x1CQSj0wDGKtRlFrEuzB2Q3lsXp51KO_d-txYaGjlB4GBtBsqRjbiP8De8yOODbxw7fOxcXITOwmq1rWVTwd3V7CSYwwf5C8pR_W6BKpgMeZPZ06rqb2CsnuSBpLCzblfaJGh2XpOBR4LEjDPWGucPSbvNGzofyolKPmDFzuGugS1BOS5jihqi9uNA_1xmuR4WPgEH6xqueDN6Rpi21db82noZp1jkCOST7yKokvhgMYLf1vrgoZkqf2Q9Q_kBdXygWrnd9uU87-F9y7lXvXRwUZTfU3g0cbhb1Jzm_T9dISp7MH-XzTrMbCrNOND_XCiBPIN6g_IFluzhGw_WrYhKEzJIh3dUXqK9Rep_Mt0KUzoZGOF-dPl]--></g></svg>