<?xml version="1.0" encoding="us-ascii" standalone="no"?><svg xmlns="http://www.w3.org/2000/svg" xmlns:xlink="http://www.w3.org/1999/xlink" contentStyleType="text/css" height="309px" preserveAspectRatio="none" style="width:213px;height:309px;background:#FFFFFF;" version="1.1" viewBox="0 0 213 309" width="213px" zoomAndPan="magnify"><defs/><g><g id="elem_ProvideDigitalAssistance"><ellipse cx="106.9506" cy="167.0901" fill="#FFFF00" rx="100.9506" ry="22.5901" style="stroke:#181818;stroke-width:0.5;"/><text fill="#000000" font-family="sans-serif" font-size="14" lengthAdjust="spacing" textLength="163" x="25.4506" y="170.8186">Provide Digital Assistance</text></g><!--entity TacticalOperator--><g id="elem_TacticalOperator"><ellipse cx="107" cy="14" fill="#F1F1F1" rx="8" ry="8" style="stroke:#181818;stroke-width:0.5;"/><path d="M107,22 L107,49 M94,30 L120,30 M107,49 L94,64 M107,49 L120,64 " fill="none" style="stroke:#181818;stroke-width:0.5;"/><text fill="#000000" font-family="sans-serif" font-size="14" lengthAdjust="spacing" textLength="110" x="52" y="80.0332">Tactical Operator</text></g><g id="elem_IntegrateLearning"><ellipse cx="107.0785" cy="285.7157" fill="#FFFFE0" rx="79.0785" ry="18.2157" style="stroke:#181818;stroke-width:0.5;"/><text fill="#000000" font-family="sans-serif" font-size="14" lengthAdjust="spacing" textLength="112" x="49.6751" y="289.8395">IntegrateLearning</text></g><!--link TacticalOperator to ProvideDigitalAssistance--><g id="link_TacticalOperator_ProvideDigitalAssistance"><path d="M107,83.63 C107,103.62 107,121.39 107,138.25 " fill="none" id="TacticalOperator-to-ProvideDigitalAssistance" style="stroke:#181818;stroke-width:1.0;"/><polygon fill="#181818" points="107,144.25,111,135.25,107,139.25,103,135.25,107,144.25" style="stroke:#181818;stroke-width:1.0;"/></g><!--link ProvideDigitalAssistance to IntegrateLearning--><g id="link_ProvideDigitalAssistance_IntegrateLearning"><path d="M107,189.64 C107,212.01 107,240.5 107,261.15 " fill="none" id="ProvideDigitalAssistance-to-IntegrateLearning" style="stroke:#181818;stroke-width:1.0;"/><polygon fill="#181818" points="107,267.15,111,258.15,107,262.15,103,258.15,107,267.15" style="stroke:#181818;stroke-width:1.0;"/><text fill="#000000" font-family="sans-serif" font-size="13" lengthAdjust="spacing" textLength="46" x="108" y="233.9951">extends</text></g><!--SRC=[TOzD2W8n34RtFKNehES2BeG1DuAW2oyGEg46IYjDnf_RMqkBu31PleylBrc470g1lUJqu9dWm9uL0qmYB8hHaGKKQ75BVo4CRmeXFOsPdAOCzefEsPK5vpjbBAZME-tGc7y2uxZVj9WsIx_s69LywT69C4UElbfM58R0_gRznCqdlkvrUGVqKegpLFS7]--></g></svg>