<?xml version="1.0" encoding="us-ascii" standalone="no"?><svg xmlns="http://www.w3.org/2000/svg" xmlns:xlink="http://www.w3.org/1999/xlink" contentStyleType="text/css" height="362px" preserveAspectRatio="none" style="width:516px;height:362px;background:#FFFFFF;" version="1.1" viewBox="0 0 516 362" width="516px" zoomAndPan="magnify"><defs/><g><!--entity InputStreamInstance--><g id="elem_InputStreamInstance"><rect fill="#90EE90" height="37.6094" rx="2.5" ry="2.5" style="stroke:#181818;stroke-width:0.5;" width="149" x="7" y="7"/><text fill="#000000" font-family="sans-serif" font-size="14" lengthAdjust="spacing" textLength="129" x="17" y="31.5332">InputStreamInstance</text></g><!--entity OutputStreamInstance--><g id="elem_OutputStreamInstance"><rect fill="#90EE90" height="37.6094" rx="2.5" ry="2.5" style="stroke:#181818;stroke-width:0.5;" width="161" x="145" y="319"/><text fill="#000000" font-family="sans-serif" font-size="14" lengthAdjust="spacing" textLength="141" x="155" y="343.5332">OutputStreamInstance</text></g><!--entity DataStreamInstance--><g id="elem_DataStreamInstance"><rect fill="#90EE90" height="37.6094" rx="2.5" ry="2.5" style="stroke:#181818;stroke-width:0.5;" width="148" x="191.5" y="7"/><text fill="#000000" font-family="sans-serif" font-size="14" lengthAdjust="spacing" textLength="128" x="201.5" y="31.5332">DataStreamInstance</text></g><!--entity SABundleInstance--><g id="elem_SABundleInstance"><rect fill="#90EE90" height="37.6094" rx="2.5" ry="2.5" style="stroke:#181818;stroke-width:0.5;" width="135" x="375" y="7"/><text fill="#000000" font-family="sans-serif" font-size="14" lengthAdjust="spacing" textLength="115" x="385" y="31.5332">SABundleInstance</text></g><!--class Model--><g id="elem_Model"><rect codeLine="2" fill="#F1F1F1" height="118.4375" id="Model" rx="2.5" ry="2.5" style="stroke:#181818;stroke-width:0.5;" width="180" x="135.5" y="123"/><ellipse cx="150.5" cy="139" fill="#ADD1B2" rx="11" ry="11" style="stroke:#181818;stroke-width:1.0;"/><path d="M153.2656,134.875 Q153.4219,134.6563 153.6094,134.5469 Q153.7969,134.4375 154.0156,134.4375 Q154.3906,134.4375 154.625,134.6953 Q154.8594,134.9531 154.8594,135.5625 L154.8594,137.0156 Q154.8594,137.625 154.625,137.8906 Q154.3906,138.1563 154.0156,138.1563 Q153.6719,138.1563 153.4688,137.9531 Q153.2656,137.7656 153.1563,137.25 Q153.1094,136.8906 152.9219,136.7031 Q152.5938,136.3281 151.9844,136.1094 Q151.375,135.8906 150.75,135.8906 Q149.9844,135.8906 149.3516,136.2188 Q148.7188,136.5469 148.2266,137.2969 Q147.7344,138.0469 147.7344,139.0781 L147.7344,140.1719 Q147.7344,141.4063 148.625,142.2266 Q149.5156,143.0469 151.1094,143.0469 Q152.0469,143.0469 152.7031,142.7969 Q153.0938,142.6406 153.5156,142.2031 Q153.7813,141.9375 153.9297,141.8594 Q154.0781,141.7813 154.2813,141.7813 Q154.6094,141.7813 154.8672,142.0391 Q155.125,142.2969 155.125,142.6406 Q155.125,142.9844 154.7813,143.3906 Q154.2813,143.9688 153.4844,144.2969 Q152.4063,144.75 151.1094,144.75 Q149.5938,144.75 148.3906,144.125 Q147.4063,143.625 146.7188,142.5547 Q146.0313,141.4844 146.0313,140.2031 L146.0313,139.0469 Q146.0313,137.7188 146.6484,136.5703 Q147.2656,135.4219 148.3594,134.8047 Q149.4531,134.1875 150.6875,134.1875 Q151.4219,134.1875 152.0703,134.3516 Q152.7188,134.5156 153.2656,134.875 Z " fill="#000000"/><text fill="#000000" font-family="sans-serif" font-size="14" lengthAdjust="spacing" textLength="148" x="164.5" y="144.7285">DataTransformInstance</text><line style="stroke:#181818;stroke-width:0.5;" x1="136.5" x2="314.5" y1="155" y2="155"/><text fill="#000000" font-family="sans-serif" font-size="14" lengthAdjust="spacing" textLength="74" x="141.5" y="173.5332">string name</text><text fill="#000000" font-family="sans-serif" font-size="14" lengthAdjust="spacing" textLength="85" x="141.5" y="191.1426">string version</text><text fill="#000000" font-family="sans-serif" font-size="14" lengthAdjust="spacing" textLength="42" x="141.5" y="208.752">json fn</text><line style="stroke:#181818;stroke-width:0.5;" x1="136.5" x2="314.5" y1="215.8281" y2="215.8281"/><text fill="#000000" font-family="sans-serif" font-size="14" lengthAdjust="spacing" textLength="31" x="141.5" y="234.3613">run()</text></g><!--link Model to InputStreamInstance--><g id="link_Model_InputStreamInstance"><path codeLine="14" d="M181.2696,113.0007 C169.5296,96.6907 162.86,89.27 148.5,75 C137.33,63.91 128.3635,56.8362 116.0935,48.5562 " fill="none" id="Model-InputStreamInstance" style="stroke:#181818;stroke-width:1.0;"/><polygon fill="none" points="188.28,122.74,188.0212,115.5335,181.2696,113.0007,181.5284,120.2071,188.28,122.74" style="stroke:#181818;stroke-width:1.0;"/><polygon fill="#181818" points="111.12,45.2,116.3428,53.55,115.2646,47.9968,120.8177,46.9186,111.12,45.2" style="stroke:#181818;stroke-width:1.0;"/><text fill="#000000" font-family="sans-serif" font-size="13" lengthAdjust="spacing" textLength="35" x="164.5" y="89.4951">inputs</text><text fill="#000000" font-family="sans-serif" font-size="13" lengthAdjust="spacing" textLength="7" x="111.1398" y="66.1048">n</text></g><!--link InputStreamInstance to Model--><g id="link_InputStreamInstance_Model"><path codeLine="33" d="M72.3006,56.6313 C68.6506,70.6213 69.21,78.43 77.5,93 C90.58,116 107.1057,130.6067 129.9357,143.8067 " fill="none" id="InputStreamInstance-Model" style="stroke:#181818;stroke-width:1.0;"/><polygon fill="none" points="75.33,45.02,69.9449,49.8159,72.3006,56.6313,77.6857,51.8355,75.33,45.02" style="stroke:#181818;stroke-width:1.0;"/><polygon fill="#181818" points="135.13,146.81,129.3408,138.8423,130.8014,144.3073,125.3364,145.768,135.13,146.81" style="stroke:#181818;stroke-width:1.0;"/><text fill="#000000" font-family="sans-serif" font-size="13" lengthAdjust="spacing" textLength="61" x="78.5" y="89.4951">transforms</text><text fill="#000000" font-family="sans-serif" font-size="13" lengthAdjust="spacing" textLength="7" x="120.3564" y="140.7249">n</text></g><!--link Model to OutputStreamInstance--><g id="link_Model_OutputStreamInstance"><path codeLine="20" d="M178.8858,252.1816 C172.4458,267.6816 174.32,273.38 180.5,289 C185.04,300.47 189.392,306.6859 197.962,314.7959 " fill="none" id="Model-OutputStreamInstance" style="stroke:#181818;stroke-width:1.0;"/><polygon fill="none" points="183.49,241.1,177.494,245.106,178.8858,252.1816,184.8817,248.1755,183.49,241.1" style="stroke:#181818;stroke-width:1.0;"/><polygon fill="#181818" points="202.32,318.92,198.5324,309.8286,198.6883,315.4833,193.0336,315.6392,202.32,318.92" style="stroke:#181818;stroke-width:1.0;"/><text fill="#000000" font-family="sans-serif" font-size="13" lengthAdjust="spacing" textLength="43" x="181.5" y="285.4951">outputs</text><text fill="#000000" font-family="sans-serif" font-size="13" lengthAdjust="spacing" textLength="7" x="187.1493" y="308.2355">n</text></g><!--link OutputStreamInstance to Model--><g id="link_OutputStreamInstance_Model"><path codeLine="38" d="M228.4869,306.8412 C229.3169,297.8812 229.09,298.86 229.5,289 C230.15,273.45 230.1532,262.6158 229.5732,247.0358 " fill="none" id="OutputStreamInstance-Model" style="stroke:#181818;stroke-width:1.0;"/><polygon fill="none" points="227.38,318.79,231.9164,313.1845,228.4869,306.8412,223.9505,312.4466,227.38,318.79" style="stroke:#181818;stroke-width:1.0;"/><polygon fill="#181818" points="229.35,241.04,225.6876,250.1826,229.536,246.0365,233.682,249.885,229.35,241.04" style="stroke:#181818;stroke-width:1.0;"/><text fill="#000000" font-family="sans-serif" font-size="13" lengthAdjust="spacing" textLength="61" x="231.5" y="285.4951">transforms</text><text fill="#000000" font-family="sans-serif" font-size="13" lengthAdjust="spacing" textLength="7" x="222.3948" y="263.1191">n</text></g><!--link DataStreamInstance to Model--><g id="link_DataStreamInstance_Model"><path codeLine="28" d="M257.7368,56.8855 C252.7768,76.0055 249.2387,89.6028 242.0787,117.1628 " fill="none" id="DataStreamInstance-Model" style="stroke:#181818;stroke-width:1.0;"/><polygon fill="none" points="260.75,45.27,255.3715,50.0734,257.7368,56.8855,263.1152,52.0822,260.75,45.27" style="stroke:#181818;stroke-width:1.0;"/><polygon fill="#181818" points="240.57,122.97,246.7045,115.265,241.8272,118.1306,238.9616,113.2534,240.57,122.97" style="stroke:#181818;stroke-width:1.0;"/><text fill="#000000" font-family="sans-serif" font-size="13" lengthAdjust="spacing" textLength="61" x="254.5" y="89.4951">transforms</text><text fill="#000000" font-family="sans-serif" font-size="13" lengthAdjust="spacing" textLength="7" x="234.9801" y="112.2906">n</text></g><!--link SABundleInstance to Model--><g id="link_SABundleInstance_Model"><path codeLine="43" d="M406.9729,52.2136 C380.0229,71.3336 350.9929,91.9372 312.1629,119.4972 " fill="none" id="SABundleInstance-Model" style="stroke:#181818;stroke-width:1.0;"/><polygon fill="none" points="416.76,45.27,409.5519,45.4794,406.9729,52.2136,414.181,52.0041,416.76,45.27" style="stroke:#181818;stroke-width:1.0;"/><polygon fill="#181818" points="307.27,122.97,316.9244,121.0228,311.3474,120.076,312.2941,114.499,307.27,122.97" style="stroke:#181818;stroke-width:1.0;"/><text fill="#000000" font-family="sans-serif" font-size="13" lengthAdjust="spacing" textLength="61" x="373.5" y="89.4951">transforms</text><text fill="#000000" font-family="sans-serif" font-size="13" lengthAdjust="spacing" textLength="7" x="309.8092" y="112.2906">n</text></g><!--SRC=[fP5DRW8n38NtFeMLRc311MPH2TGDYweBUe5qCDD1mQdYX0tYxas6tm4BggaNblAYv_SbhfqLGVDce_qCbcNbmsRE4YtNPD0AllibETm1IWmjDyXsG-V3beAqdW7NuXbN380XyMWC27k0G7MUqpX2C-UV51SnaErFLtHySMtp7RzSeXoRnnm8_6JoYeQDQgcmBQf0B_GZHJrLktWMgtegz9rSWlFRSrt5bpzLmk_bOtGJYBZyTAvzrxjMIl7W1Ur0Mg69fmsAkVZ_jOK7J9ff2DIGBJt0Kbr3k1RJMUAbenxJhVYSvyxn9vPV]--></g></svg>