<?xml version="1.0" encoding="UTF-8" standalone="no"?><svg xmlns="http://www.w3.org/2000/svg" xmlns:xlink="http://www.w3.org/1999/xlink" contentScriptType="application/ecmascript" contentStyleType="text/css" height="353px" preserveAspectRatio="none" style="width:520px;height:353px;" version="1.1" viewBox="0 0 520 353" width="520px" zoomAndPan="magnify"><defs><filter height="300%" id="f8ckegf342l21" width="300%" x="-1" y="-1"><feGaussianBlur result="blurOut" stdDeviation="2.0"/><feColorMatrix in="blurOut" result="blurOut2" type="matrix" values="0 0 0 0 0 0 0 0 0 0 0 0 0 0 0 0 0 0 .4 0"/><feOffset dx="4.0" dy="4.0" in="blurOut2" result="blurOut3"/><feBlend in="SourceGraphic" in2="blurOut3" mode="normal"/></filter></defs><g><!--entity InputStreamInstance--><rect fill="#90EE90" filter="url(#f8ckegf342l21)" height="37.6094" style="stroke: #000000; stroke-width: 1.5;" width="149" x="6" y="8"/><text fill="#000000" font-family="sans-serif" font-size="14" lengthAdjust="spacingAndGlyphs" textLength="129" x="16" y="32.5332">InputStreamInstance</text><!--entity OutputStreamInstance--><rect fill="#90EE90" filter="url(#f8ckegf342l21)" height="37.6094" style="stroke: #000000; stroke-width: 1.5;" width="161" x="143" y="305"/><text fill="#000000" font-family="sans-serif" font-size="14" lengthAdjust="spacingAndGlyphs" textLength="141" x="153" y="329.5332">OutputStreamInstance</text><!--entity DataStreamInstance--><rect fill="#90EE90" filter="url(#f8ckegf342l21)" height="37.6094" style="stroke: #000000; stroke-width: 1.5;" width="148" x="190.5" y="8"/><text fill="#000000" font-family="sans-serif" font-size="14" lengthAdjust="spacingAndGlyphs" textLength="128" x="200.5" y="32.5332">DataStreamInstance</text><!--entity SABundleInstance--><rect fill="#90EE90" filter="url(#f8ckegf342l21)" height="37.6094" style="stroke: #000000; stroke-width: 1.5;" width="135" x="374" y="8"/><text fill="#000000" font-family="sans-serif" font-size="14" lengthAdjust="spacingAndGlyphs" textLength="115" x="384" y="32.5332">SABundleInstance</text><!--class Model--><rect fill="#FEFECE" filter="url(#f8ckegf342l21)" height="103.3438" id="Model" style="stroke: #A80036; stroke-width: 1.5;" width="162" x="142.5" y="124"/><ellipse cx="157.5" cy="140" fill="#ADD1B2" rx="11" ry="11" style="stroke: #A80036; stroke-width: 1.0;"/><path d="M160.2656,135.875 Q160.4219,135.6563 160.6094,135.5469 Q160.7969,135.4375 161.0156,135.4375 Q161.3906,135.4375 161.625,135.6953 Q161.8594,135.9531 161.8594,136.5625 L161.8594,138.0156 Q161.8594,138.625 161.625,138.8906 Q161.3906,139.1563 161.0156,139.1563 Q160.6719,139.1563 160.4688,138.9531 Q160.2656,138.7656 160.1563,138.25 Q160.1094,137.8906 159.9219,137.7031 Q159.5938,137.3281 158.9844,137.1094 Q158.375,136.8906 157.75,136.8906 Q156.9844,136.8906 156.3516,137.2188 Q155.7188,137.5469 155.2266,138.2969 Q154.7344,139.0469 154.7344,140.0781 L154.7344,141.1719 Q154.7344,142.4063 155.625,143.2266 Q156.5156,144.0469 158.1094,144.0469 Q159.0469,144.0469 159.7031,143.7969 Q160.0938,143.6406 160.5156,143.2031 Q160.7813,142.9375 160.9297,142.8594 Q161.0781,142.7813 161.2813,142.7813 Q161.6094,142.7813 161.8672,143.0391 Q162.125,143.2969 162.125,143.6406 Q162.125,143.9844 161.7813,144.3906 Q161.2813,144.9688 160.4844,145.2969 Q159.4063,145.75 158.1094,145.75 Q156.5938,145.75 155.3906,145.125 Q154.4063,144.625 153.7188,143.5547 Q153.0313,142.4844 153.0313,141.2031 L153.0313,140.0469 Q153.0313,138.7188 153.6484,137.5703 Q154.2656,136.4219 155.3594,135.8047 Q156.4531,135.1875 157.6875,135.1875 Q158.4219,135.1875 159.0703,135.3516 Q159.7188,135.5156 160.2656,135.875 Z "/><text fill="#000000" font-family="sans-serif" font-size="12" lengthAdjust="spacingAndGlyphs" textLength="130" x="171.5" y="144.9102">DataTransformInstance</text><line style="stroke: #A80036; stroke-width: 1.5;" x1="143.5" x2="303.5" y1="156" y2="156"/><text fill="#000000" font-family="sans-serif" font-size="11" lengthAdjust="spacingAndGlyphs" textLength="56" x="148.5" y="171.4189">string name</text><text fill="#000000" font-family="sans-serif" font-size="11" lengthAdjust="spacingAndGlyphs" textLength="66" x="148.5" y="185.2549">string version</text><text fill="#000000" font-family="sans-serif" font-size="11" lengthAdjust="spacingAndGlyphs" textLength="33" x="148.5" y="199.0908">json fn</text><line style="stroke: #A80036; stroke-width: 1.5;" x1="143.5" x2="303.5" y1="205.5078" y2="205.5078"/><text fill="#000000" font-family="sans-serif" font-size="11" lengthAdjust="spacingAndGlyphs" textLength="24" x="148.5" y="220.9268">run()</text><!--link Model to InputStreamInstance--><path d="M180.162,113.554 C169.775,100.572 158.265,87.363 146.5,76 C138.296,68.076 128.726,60.39 119.46,53.574 " fill="none" id="Model-InputStreamInstance" style="stroke: #A80036; stroke-width: 1.0;"/><polygon fill="#A80036" points="108.821,46.012,113.8393,54.4865,112.8964,48.9088,118.4741,47.9659,108.821,46.012" style="stroke: #A80036; stroke-width: 1.0;"/><line style="stroke: #A80036; stroke-width: 1.0;" x1="112.8964" x2="119.417" y1="48.9088" y2="53.5445"/><polygon fill="#FFFFFF" points="188.234,123.878,187.6891,116.6875,180.8422,114.4249,181.3871,121.6154,188.234,123.878" style="stroke: #A80036; stroke-width: 1.0;"/><text fill="#000000" font-family="sans-serif" font-size="13" lengthAdjust="spacingAndGlyphs" textLength="35" x="164.5" y="90.4951">inputs</text><text fill="#000000" font-family="sans-serif" font-size="13" lengthAdjust="spacingAndGlyphs" textLength="7" x="108.8022" y="67.2086">n</text><!--link InputStreamInstance to Model--><path d="M70.8952,58.994 C69.0684,70.677 69.3384,83.635 75.5,94 C88.1688,115.312 108.674,131.337 130.438,143.239 " fill="none" id="InputStreamInstance-Model" style="stroke: #A80036; stroke-width: 1.0;"/><polygon fill="#A80036" points="142.256,149.263,136.0546,141.6117,137.8015,146.9921,132.4211,148.7389,142.256,149.263" style="stroke: #A80036; stroke-width: 1.0;"/><line style="stroke: #A80036; stroke-width: 1.0;" x1="137.8015" x2="130.6735" y1="146.9921" y2="143.3585"/><polygon fill="#FFFFFF" points="73.7755,46.097,68.5641,51.0811,71.1605,57.8086,76.3719,52.8245,73.7755,46.097" style="stroke: #A80036; stroke-width: 1.0;"/><text fill="#000000" font-family="sans-serif" font-size="13" lengthAdjust="spacingAndGlyphs" textLength="61" x="76.5" y="90.4951">transforms</text><text fill="#000000" font-family="sans-serif" font-size="13" lengthAdjust="spacingAndGlyphs" textLength="7" x="127.4437" y="143.6023">n</text><!--link Model to OutputStreamInstance--><path d="M184.631,239.125 C182.169,245.014 180.058,251.0203 178.5,257 C176.483,264.7416 175.558,267.5606 178.5,275 C181.406,282.3493 186.029,289.2322 191.227,295.3639 " fill="none" id="Model-OutputStreamInstance" style="stroke: #A80036; stroke-width: 1.0;"/><polygon fill="#A80036" points="200.318,304.9237,197.0149,295.6452,196.8726,301.3003,191.2175,301.1579,200.318,304.9237" style="stroke: #A80036; stroke-width: 1.0;"/><line style="stroke: #A80036; stroke-width: 1.0;" x1="196.8726" x2="191.3595" y1="301.3003" y2="295.5033"/><polygon fill="#FFFFFF" points="190.112,227.248,183.9661,231.0199,185.0841,238.1439,191.23,234.3719,190.112,227.248" style="stroke: #A80036; stroke-width: 1.0;"/><text fill="#000000" font-family="sans-serif" font-size="13" lengthAdjust="spacingAndGlyphs" textLength="43" x="179.5" y="271.4951">outputs</text><text fill="#000000" font-family="sans-serif" font-size="13" lengthAdjust="spacingAndGlyphs" textLength="7" x="185.1466" y="294.2403">n</text><!--link OutputStreamInstance to Model--><path d="M226.489,291.6604 C226.91,286.115 227.276,280.3916 227.5,275 C227.965,263.8155 227.932,251.9164 227.624,240.398 " fill="none" id="OutputStreamInstance-Model" style="stroke: #A80036; stroke-width: 1.0;"/><polygon fill="#A80036" points="227.15,227.117,223.474,236.2541,227.3286,232.1138,231.4688,235.9684,227.15,227.117" style="stroke: #A80036; stroke-width: 1.0;"/><line style="stroke: #A80036; stroke-width: 1.0;" x1="227.3286" x2="227.6135" y1="232.1138" y2="240.1085"/><polygon fill="#FFFFFF" points="225.376,304.7879,229.8686,299.1473,226.3899,292.8308,221.8972,298.4714,225.376,304.7879" style="stroke: #A80036; stroke-width: 1.0;"/><text fill="#000000" font-family="sans-serif" font-size="13" lengthAdjust="spacingAndGlyphs" textLength="61" x="229.5" y="271.4951">transforms</text><text fill="#000000" font-family="sans-serif" font-size="13" lengthAdjust="spacingAndGlyphs" textLength="7" x="220.1711" y="248.9963">n</text><!--link DataStreamInstance to Model--><path d="M255.869,58.838 C251.608,74.065 246.303,93.021 241.229,111.153 " fill="none" id="DataStreamInstance-Model" style="stroke: #A80036; stroke-width: 1.0;"/><polygon fill="#A80036" points="237.681,123.83,243.9582,116.2408,239.0283,119.0149,236.2541,114.0851,237.681,123.83" style="stroke: #A80036; stroke-width: 1.0;"/><line style="stroke: #A80036; stroke-width: 1.0;" x1="239.0283" x2="241.1845" y1="119.0149" y2="111.311"/><polygon fill="#FFFFFF" points="259.39,46.258,253.9212,50.9582,256.1564,57.8141,261.6253,53.1139,259.39,46.258" style="stroke: #A80036; stroke-width: 1.0;"/><text fill="#000000" font-family="sans-serif" font-size="13" lengthAdjust="spacingAndGlyphs" textLength="61" x="251.5" y="90.4951">transforms</text><text fill="#000000" font-family="sans-serif" font-size="13" lengthAdjust="spacingAndGlyphs" textLength="7" x="232.1163" y="113.3075">n</text><!--link SABundleInstance to Model--><path d="M403.521,53.523 C377.645,70.912 342.313,94.656 309.8,116.505 " fill="none" id="SABundleInstance-Model" style="stroke: #A80036; stroke-width: 1.0;"/><polygon fill="#A80036" points="298.9,123.83,308.601,122.1298,303.0499,121.041,304.1387,115.49,298.9,123.83" style="stroke: #A80036; stroke-width: 1.0;"/><line style="stroke: #A80036; stroke-width: 1.0;" x1="303.0499" x2="309.69" y1="121.041" y2="116.5785"/><polygon fill="#FFFFFF" points="414.331,46.258,407.1199,46.2848,404.3712,52.9515,411.5823,52.9247,414.331,46.258" style="stroke: #A80036; stroke-width: 1.0;"/><text fill="#000000" font-family="sans-serif" font-size="13" lengthAdjust="spacingAndGlyphs" textLength="61" x="366.5" y="90.4951">transforms</text><text fill="#000000" font-family="sans-serif" font-size="13" lengthAdjust="spacingAndGlyphs" textLength="7" x="301.5616" y="113.3075">n</text><!--
@startuml

class "DataTransformInstance" as Model {
 string name
 string version
 json fn

 run()
 
}

rectangle "InputStreamInstance" as InputStreamInstance #lightblue {
}

Model o- -> "n" InputStreamInstance : inputs


rectangle "OutputStreamInstance" as OutputStreamInstance #lightblue {
}

Model o- -> "n" OutputStreamInstance : outputs




    rectangle "DataStreamInstance" as DataStreamInstance #lightgreen {
    }
    
        DataStreamInstance   o- -> "n" Model : "transforms"
    
    rectangle "InputStreamInstance" as InputStreamInstance #lightgreen {
    }
    
        InputStreamInstance   o- -> "n" Model : "transforms"
    
    rectangle "OutputStreamInstance" as OutputStreamInstance #lightgreen {
    }
    
        OutputStreamInstance   o- -> "n" Model : "transforms"
    
    rectangle "SABundleInstance" as SABundleInstance #lightgreen {
    }
    
        SABundleInstance   o- -> "n" Model : "transforms"
    

@enduml

PlantUML version 1.2019.05(Sat Apr 20 09:45:36 PDT 2019)
(GPL source distribution)
Java Runtime: Java(TM) SE Runtime Environment
JVM: Java HotSpot(TM) Client VM
Java Version: 1.8.0_271-b09
Operating System: Windows 10
OS Version: 10.0
Default Encoding: Cp1252
Language: en
Country: US
--></g></svg>