<?xml version="1.0" encoding="UTF-8" standalone="no"?><svg xmlns="http://www.w3.org/2000/svg" xmlns:xlink="http://www.w3.org/1999/xlink" contentScriptType="application/ecmascript" contentStyleType="text/css" height="340px" preserveAspectRatio="none" style="width:212px;height:340px;" version="1.1" viewBox="0 0 212 340" width="212px" zoomAndPan="magnify"><defs><filter height="300%" id="flku6upiw4ivz" width="300%" x="-1" y="-1"><feGaussianBlur result="blurOut" stdDeviation="2.0"/><feColorMatrix in="blurOut" result="blurOut2" type="matrix" values="0 0 0 0 0 0 0 0 0 0 0 0 0 0 0 0 0 0 .4 0"/><feOffset dx="4.0" dy="4.0" in="blurOut2" result="blurOut3"/><feBlend in="SourceGraphic" in2="blurOut3" mode="normal"/></filter></defs><g><!--entity Stack--><rect fill="#90EE90" filter="url(#flku6upiw4ivz)" height="37.6094" style="stroke: #000000; stroke-width: 1.5;" width="55" x="6.5" y="8"/><text fill="#000000" font-family="sans-serif" font-size="14" lengthAdjust="spacingAndGlyphs" textLength="35" x="16.5" y="32.5332">Stack</text><!--entity ApplicationInstance--><rect fill="#90EE90" filter="url(#flku6upiw4ivz)" height="37.6094" style="stroke: #000000; stroke-width: 1.5;" width="142" x="6" y="292"/><text fill="#000000" font-family="sans-serif" font-size="14" lengthAdjust="spacingAndGlyphs" textLength="122" x="16" y="316.5332">ApplicationInstance</text><!--entity SABundle--><rect fill="#90EE90" filter="url(#flku6upiw4ivz)" height="37.6094" style="stroke: #000000; stroke-width: 1.5;" width="82" x="117" y="8"/><text fill="#000000" font-family="sans-serif" font-size="14" lengthAdjust="spacingAndGlyphs" textLength="62" x="127" y="32.5332">SABundle</text><!--class Model--><rect fill="#FEFECE" filter="url(#flku6upiw4ivz)" height="89.5078" id="Model" style="stroke: #A80036; stroke-width: 1.5;" width="92" x="31" y="124"/><ellipse cx="46" cy="140" fill="#ADD1B2" rx="11" ry="11" style="stroke: #A80036; stroke-width: 1.0;"/><path d="M48.7656,135.875 Q48.9219,135.6563 49.1094,135.5469 Q49.2969,135.4375 49.5156,135.4375 Q49.8906,135.4375 50.125,135.6953 Q50.3594,135.9531 50.3594,136.5625 L50.3594,138.0156 Q50.3594,138.625 50.125,138.8906 Q49.8906,139.1563 49.5156,139.1563 Q49.1719,139.1563 48.9688,138.9531 Q48.7656,138.7656 48.6563,138.25 Q48.6094,137.8906 48.4219,137.7031 Q48.0938,137.3281 47.4844,137.1094 Q46.875,136.8906 46.25,136.8906 Q45.4844,136.8906 44.8516,137.2188 Q44.2188,137.5469 43.7266,138.2969 Q43.2344,139.0469 43.2344,140.0781 L43.2344,141.1719 Q43.2344,142.4063 44.125,143.2266 Q45.0156,144.0469 46.6094,144.0469 Q47.5469,144.0469 48.2031,143.7969 Q48.5938,143.6406 49.0156,143.2031 Q49.2813,142.9375 49.4297,142.8594 Q49.5781,142.7813 49.7813,142.7813 Q50.1094,142.7813 50.3672,143.0391 Q50.625,143.2969 50.625,143.6406 Q50.625,143.9844 50.2813,144.3906 Q49.7813,144.9688 48.9844,145.2969 Q47.9063,145.75 46.6094,145.75 Q45.0938,145.75 43.8906,145.125 Q42.9063,144.625 42.2188,143.5547 Q41.5313,142.4844 41.5313,141.2031 L41.5313,140.0469 Q41.5313,138.7188 42.1484,137.5703 Q42.7656,136.4219 43.8594,135.8047 Q44.9531,135.1875 46.1875,135.1875 Q46.9219,135.1875 47.5703,135.3516 Q48.2188,135.5156 48.7656,135.875 Z "/><text fill="#000000" font-family="sans-serif" font-size="12" lengthAdjust="spacingAndGlyphs" textLength="60" x="60" y="144.9102">Application</text><line style="stroke: #A80036; stroke-width: 1.5;" x1="32" x2="122" y1="156" y2="156"/><text fill="#000000" font-family="sans-serif" font-size="11" lengthAdjust="spacingAndGlyphs" textLength="56" x="37" y="171.4189">string name</text><text fill="#000000" font-family="sans-serif" font-size="11" lengthAdjust="spacingAndGlyphs" textLength="66" x="37" y="185.2549">string version</text><text fill="#000000" font-family="sans-serif" font-size="11" lengthAdjust="spacingAndGlyphs" textLength="27" x="37" y="199.0908">ref fn</text><line style="stroke: #A80036; stroke-width: 1.5;" x1="32" x2="122" y1="205.5078" y2="205.5078"/><!--link Model to Stack--><path d="M59.5941,111.33 C54.0445,93.261 48.117,73.962 43.3653,58.492 " fill="none" id="Model-Stack" style="stroke: #A80036; stroke-width: 1.0;"/><polygon fill="#A80036" points="39.5335,46.016,38.3524,55.7938,41.0016,50.7956,45.9998,53.4448,39.5335,46.016" style="stroke: #A80036; stroke-width: 1.0;"/><line style="stroke: #A80036; stroke-width: 1.0;" x1="41.0016" x2="43.3504" y1="50.7956" y2="58.443"/><polygon fill="#A80036" points="63.451,123.887,65.5129,116.977,59.9275,112.416,57.8656,119.326,63.451,123.887" style="stroke: #A80036; stroke-width: 1.0;"/><text fill="#000000" font-family="sans-serif" font-size="13" lengthAdjust="spacingAndGlyphs" textLength="39" x="56" y="90.4951">stacks</text><text fill="#000000" font-family="sans-serif" font-size="13" lengthAdjust="spacingAndGlyphs" textLength="7" x="33.1054" y="67.2137">n</text><!--link Stack to Model--><path d="M20.0066,58.596 C16.6779,69.876 15.0867,82.664 19,94 C21.2071,100.394 24.2193,106.656 27.7181,112.663 " fill="none" id="Stack-Model" style="stroke: #A80036; stroke-width: 1.0;"/><polygon fill="#A80036" points="34.9627,123.865,33.4338,114.1355,32.2474,119.6666,26.7163,118.4801,34.9627,123.865" style="stroke: #A80036; stroke-width: 1.0;"/><line style="stroke: #A80036; stroke-width: 1.0;" x1="32.2474" x2="27.9032" y1="119.6666" y2="112.949"/><polygon fill="#FFFFFF" points="24.4865,46.224,18.6823,50.5032,20.4,57.5068,26.2042,53.2275,24.4865,46.224" style="stroke: #A80036; stroke-width: 1.0;"/><text fill="#000000" font-family="sans-serif" font-size="13" lengthAdjust="spacingAndGlyphs" textLength="21" x="20" y="90.4951">app</text><text fill="#000000" font-family="sans-serif" font-size="13" lengthAdjust="spacingAndGlyphs" textLength="7" x="20.9898" y="113.2884">1</text><!--link Model to ApplicationInstance--><path d="M32.9187,225.476 C29.7301,231.4817 26.9906,237.705 25,244 C22.588,251.6277 21.7914,254.6716 25,262 C28.3954,269.7551 33.7304,276.8129 39.7147,282.9871 " fill="none" id="Model-ApplicationInstance" style="stroke: #A80036; stroke-width: 1.0;"/><polygon fill="#A80036" points="49.4679,291.9351,45.5403,282.9033,45.7836,288.5549,40.132,288.7982,49.4679,291.9351" style="stroke: #A80036; stroke-width: 1.0;"/><line style="stroke: #A80036; stroke-width: 1.0;" x1="45.7836" x2="39.8886" y1="288.5549" y2="283.1466"/><polygon fill="#A80036" points="39.5256,214.234,33.0372,217.3806,33.4463,224.5801,39.9346,221.4335,39.5256,214.234" style="stroke: #A80036; stroke-width: 1.0;"/><text fill="#000000" font-family="sans-serif" font-size="13" lengthAdjust="spacingAndGlyphs" textLength="56" x="26" y="258.4951">instances</text><text fill="#000000" font-family="sans-serif" font-size="13" lengthAdjust="spacingAndGlyphs" textLength="7" x="32.9643" y="281.2552">n</text><!--link ApplicationInstance to Model--><path d="M84.4691,278.7821 C85.5222,273.2235 86.4369,267.4641 87,262 C88.1483,250.8578 87.9295,238.961 87.003,227.547 " fill="none" id="ApplicationInstance-Model" style="stroke: #A80036; stroke-width: 1.0;"/><polygon fill="#A80036" points="85.6298,214.444,82.5891,223.8117,86.1507,219.4168,90.5456,222.9783,85.6298,214.444" style="stroke: #A80036; stroke-width: 1.0;"/><line style="stroke: #A80036; stroke-width: 1.0;" x1="86.1507" x2="86.9849" y1="219.4168" y2="227.373"/><polygon fill="#FFFFFF" points="81.6871,291.9035,86.8446,286.8636,84.176,280.1644,79.0185,285.2043,81.6871,291.9035" style="stroke: #A80036; stroke-width: 1.0;"/><text fill="#000000" font-family="sans-serif" font-size="13" lengthAdjust="spacingAndGlyphs" textLength="21" x="89" y="258.4951">app</text><text fill="#000000" font-family="sans-serif" font-size="13" lengthAdjust="spacingAndGlyphs" textLength="7" x="79.2871" y="234.8407">1</text><!--link SABundle to Model--><path d="M140.996,57.389 C131.764,73.346 120.042,93.606 109.16,112.415 " fill="none" id="SABundle-Model" style="stroke: #A80036; stroke-width: 1.0;"/><polygon fill="#A80036" points="102.5225,123.887,110.4918,118.1,105.0264,119.5591,103.5673,114.0937,102.5225,123.887" style="stroke: #A80036; stroke-width: 1.0;"/><line style="stroke: #A80036; stroke-width: 1.0;" x1="105.0264" x2="109.0328" y1="119.5591" y2="112.6345"/><polygon fill="#FFFFFF" points="147.576,46.016,141.1089,49.2061,141.5663,56.4027,148.0334,53.2126,147.576,46.016" style="stroke: #A80036; stroke-width: 1.0;"/><text fill="#000000" font-family="sans-serif" font-size="13" lengthAdjust="spacingAndGlyphs" textLength="69" x="131" y="90.4951">applications</text><text fill="#000000" font-family="sans-serif" font-size="13" lengthAdjust="spacingAndGlyphs" textLength="7" x="99.0323" y="112.9845">n</text><!--
@startuml

class "Application" as Model {
 string name
 string version
 ref fn

 
}

rectangle "Stack" as Stack #lightblue {
}

Model *- -> "n" Stack : stacks


rectangle "ApplicationInstance" as ApplicationInstance #lightblue {
}

Model *- -> "n" ApplicationInstance : instances




    rectangle "ApplicationInstance" as ApplicationInstance #lightgreen {
    }
    
        ApplicationInstance   o- -> "1" Model : "app"
    
    rectangle "Stack" as Stack #lightgreen {
    }
    
        Stack   o- -> "1" Model : "app"
    
    rectangle "SABundle" as SABundle #lightgreen {
    }
    
        SABundle   o- -> "n" Model : "applications"
    

@enduml

PlantUML version 1.2019.05(Sat Apr 20 09:45:36 PDT 2019)
(GPL source distribution)
Java Runtime: Java(TM) SE Runtime Environment
JVM: Java HotSpot(TM) Client VM
Java Version: 1.8.0_271-b09
Operating System: Windows 10
OS Version: 10.0
Default Encoding: Cp1252
Language: en
Country: US
--></g></svg>