<?xml version="1.0" encoding="us-ascii" standalone="no"?><svg xmlns="http://www.w3.org/2000/svg" xmlns:xlink="http://www.w3.org/1999/xlink" contentStyleType="text/css" height="345px" preserveAspectRatio="none" style="width:209px;height:345px;background:#FFFFFF;" version="1.1" viewBox="0 0 209 345" width="209px" zoomAndPan="magnify"><defs/><g><!--entity Stack--><g id="elem_Stack"><rect fill="#90EE90" height="37.6094" rx="2.5" ry="2.5" style="stroke:#181818;stroke-width:0.5;" width="55" x="7.5" y="7"/><text fill="#000000" font-family="sans-serif" font-size="14" lengthAdjust="spacing" textLength="35" x="17.5" y="31.5332">Stack</text></g><!--entity ApplicationInstance--><g id="elem_ApplicationInstance"><rect fill="#90EE90" height="37.6094" rx="2.5" ry="2.5" style="stroke:#181818;stroke-width:0.5;" width="142" x="7" y="302"/><text fill="#000000" font-family="sans-serif" font-size="14" lengthAdjust="spacing" textLength="122" x="17" y="326.5332">ApplicationInstance</text></g><!--entity SABundle--><g id="elem_SABundle"><rect fill="#90EE90" height="37.6094" rx="2.5" ry="2.5" style="stroke:#181818;stroke-width:0.5;" width="82" x="118" y="7"/><text fill="#000000" font-family="sans-serif" font-size="14" lengthAdjust="spacing" textLength="62" x="128" y="31.5332">SABundle</text></g><!--class Model--><g id="elem_Model"><rect codeLine="2" fill="#F1F1F1" height="100.8281" id="Model" rx="2.5" ry="2.5" style="stroke:#181818;stroke-width:0.5;" width="101" x="27.5" y="123"/><ellipse cx="42.5" cy="139" fill="#ADD1B2" rx="11" ry="11" style="stroke:#181818;stroke-width:1.0;"/><path d="M45.2656,134.875 Q45.4219,134.6563 45.6094,134.5469 Q45.7969,134.4375 46.0156,134.4375 Q46.3906,134.4375 46.625,134.6953 Q46.8594,134.9531 46.8594,135.5625 L46.8594,137.0156 Q46.8594,137.625 46.625,137.8906 Q46.3906,138.1563 46.0156,138.1563 Q45.6719,138.1563 45.4688,137.9531 Q45.2656,137.7656 45.1563,137.25 Q45.1094,136.8906 44.9219,136.7031 Q44.5938,136.3281 43.9844,136.1094 Q43.375,135.8906 42.75,135.8906 Q41.9844,135.8906 41.3516,136.2188 Q40.7188,136.5469 40.2266,137.2969 Q39.7344,138.0469 39.7344,139.0781 L39.7344,140.1719 Q39.7344,141.4063 40.625,142.2266 Q41.5156,143.0469 43.1094,143.0469 Q44.0469,143.0469 44.7031,142.7969 Q45.0938,142.6406 45.5156,142.2031 Q45.7813,141.9375 45.9297,141.8594 Q46.0781,141.7813 46.2813,141.7813 Q46.6094,141.7813 46.8672,142.0391 Q47.125,142.2969 47.125,142.6406 Q47.125,142.9844 46.7813,143.3906 Q46.2813,143.9688 45.4844,144.2969 Q44.4063,144.75 43.1094,144.75 Q41.5938,144.75 40.3906,144.125 Q39.4063,143.625 38.7188,142.5547 Q38.0313,141.4844 38.0313,140.2031 L38.0313,139.0469 Q38.0313,137.7188 38.6484,136.5703 Q39.2656,135.4219 40.3594,134.8047 Q41.4531,134.1875 42.6875,134.1875 Q43.4219,134.1875 44.0703,134.3516 Q44.7188,134.5156 45.2656,134.875 Z " fill="#000000"/><text fill="#000000" font-family="sans-serif" font-size="14" lengthAdjust="spacing" textLength="69" x="56.5" y="144.7285">Application</text><line style="stroke:#181818;stroke-width:0.5;" x1="28.5" x2="127.5" y1="155" y2="155"/><text fill="#000000" font-family="sans-serif" font-size="14" lengthAdjust="spacing" textLength="74" x="33.5" y="173.5332">string name</text><text fill="#000000" font-family="sans-serif" font-size="14" lengthAdjust="spacing" textLength="85" x="33.5" y="191.1426">string version</text><text fill="#000000" font-family="sans-serif" font-size="14" lengthAdjust="spacing" textLength="33" x="33.5" y="208.752">ref fn</text><line style="stroke:#181818;stroke-width:0.5;" x1="28.5" x2="127.5" y1="215.8281" y2="215.8281"/></g><!--link Model to Stack--><g id="link_Model_Stack"><path codeLine="13" d="M59.9187,111.3021 C51.9887,84.4721 47.7809,70.2339 42.0609,50.8839 " fill="none" id="Model-Stack" style="stroke:#181818;stroke-width:1.0;"/><polygon fill="#181818" points="63.32,122.81,65.4553,115.9223,59.9187,111.3021,57.7834,118.1898,63.32,122.81" style="stroke:#181818;stroke-width:1.0;"/><polygon fill="#181818" points="40.36,45.13,39.0754,54.8947,41.7774,49.9249,46.7472,52.6269,40.36,45.13" style="stroke:#181818;stroke-width:1.0;"/><text fill="#000000" font-family="sans-serif" font-size="13" lengthAdjust="spacing" textLength="39" x="55" y="89.4951">stacks</text><text fill="#000000" font-family="sans-serif" font-size="13" lengthAdjust="spacing" textLength="7" x="33.8599" y="66.016">n</text></g><!--link Stack to Model--><g id="link_Stack_Model"><path codeLine="32" d="M20.9918,56.229 C15.3518,69.619 14.83,77.14 20,93 C23.39,103.4 25.4552,108.5196 31.5252,117.9196 " fill="none" id="Stack-Model" style="stroke:#181818;stroke-width:1.0;"/><polygon fill="none" points="25.65,45.17,19.6346,49.1468,20.9918,56.229,27.0073,52.2522,25.65,45.17" style="stroke:#181818;stroke-width:1.0;"/><polygon fill="#181818" points="34.78,122.96,33.258,113.2294,32.0676,118.7596,26.5375,117.5692,34.78,122.96" style="stroke:#181818;stroke-width:1.0;"/><text fill="#000000" font-family="sans-serif" font-size="13" lengthAdjust="spacing" textLength="21" x="21" y="89.4951">app</text><text fill="#000000" font-family="sans-serif" font-size="13" lengthAdjust="spacing" textLength="7" x="21.21" y="112.2597">1</text></g><!--link Model to ApplicationInstance--><g id="link_Model_ApplicationInstance"><path codeLine="19" d="M33.4025,234.423 C27.8525,243.893 29.06,243.73 26,254 C23.72,261.67 22.79,264.67 26,272 C31.17,283.82 36.2179,290.2064 45.8379,298.1264 " fill="none" id="Model-ApplicationInstance" style="stroke:#181818;stroke-width:1.0;"/><polygon fill="#181818" points="39.47,224.07,32.9852,227.224,33.4025,234.423,39.8873,231.269,39.47,224.07" style="stroke:#181818;stroke-width:1.0;"/><polygon fill="#181818" points="50.47,301.94,46.0642,293.1316,46.6099,298.762,40.9794,299.3077,50.47,301.94" style="stroke:#181818;stroke-width:1.0;"/><text fill="#000000" font-family="sans-serif" font-size="13" lengthAdjust="spacing" textLength="56" x="27" y="268.4951">instances</text><text fill="#000000" font-family="sans-serif" font-size="13" lengthAdjust="spacing" textLength="7" x="33.9671" y="291.2616">n</text></g><!--link ApplicationInstance to Model--><g id="link_ApplicationInstance_Model"><path codeLine="27" d="M85.4122,290.2128 C87.4922,281.2828 86.97,281.99 88,272 C89.6,256.43 89.4315,245.4223 87.7015,230.0623 " fill="none" id="ApplicationInstance-Model" style="stroke:#181818;stroke-width:1.0;"/><polygon fill="none" points="82.69,301.9,87.9468,296.9638,85.4122,290.2128,80.1554,295.149,82.69,301.9" style="stroke:#181818;stroke-width:1.0;"/><polygon fill="#181818" points="87.03,224.1,84.0624,233.4911,87.5896,229.0686,92.0122,232.5958,87.03,224.1" style="stroke:#181818;stroke-width:1.0;"/><text fill="#000000" font-family="sans-serif" font-size="13" lengthAdjust="spacing" textLength="21" x="90" y="268.4951">app</text><text fill="#000000" font-family="sans-serif" font-size="13" lengthAdjust="spacing" textLength="7" x="80.7731" y="245.5047">1</text></g><!--link SABundle to Model--><g id="link_SABundle_Model"><path codeLine="37" d="M143.0699,55.613 C132.2899,74.963 123.519,90.7379 108.579,117.5679 " fill="none" id="SABundle-Model" style="stroke:#181818;stroke-width:1.0;"/><polygon fill="none" points="148.91,45.13,142.4956,48.4248,143.0699,55.613,149.4843,52.3182,148.91,45.13" style="stroke:#181818;stroke-width:1.0;"/><polygon fill="#181818" points="105.66,122.81,113.5332,116.8929,108.0925,118.4416,106.5438,113.0009,105.66,122.81" style="stroke:#181818;stroke-width:1.0;"/><text fill="#000000" font-family="sans-serif" font-size="13" lengthAdjust="spacing" textLength="69" x="132" y="89.4951">applications</text><text fill="#000000" font-family="sans-serif" font-size="13" lengthAdjust="spacing" textLength="7" x="102.0575" y="112.0886">n</text></g><!--SRC=[fP313e8m38RlUufctamuUELWWZSFddo2EGekpaAsuSNmxfO1AWaHZJrqw_Bt_zPggxm7cTMrDLe5Kv44vU5GvMZXBi07PwW4KbTy5ZTqdeK271PGa10WMY4Swg2ej0Zo69I-H9zuWvKrvJcSR8DioTBUVPqaMv3CwqKfs_FfnSJgxMDxOW5fZCOpxqkOkPOKp73jk3m9nr_qqY5IjpYEDkQOkfXh0gZYzpPoM7aAKjMrV7KkhlK3iPVzniXs3UMs7tCilY2DoX56KzWuk1-e3m00]--></g></svg>