<?xml version="1.0" encoding="us-ascii" standalone="no"?><svg xmlns="http://www.w3.org/2000/svg" xmlns:xlink="http://www.w3.org/1999/xlink" contentStyleType="text/css" height="310px" preserveAspectRatio="none" style="width:213px;height:310px;background:#FFFFFF;" version="1.1" viewBox="0 0 213 310" width="213px" zoomAndPan="magnify"><defs/><g><g id="elem_IntegrateLearning"><ellipse cx="107.1887" cy="163.0377" fill="#FFFF00" rx="80.6887" ry="18.5377" style="stroke:#181818;stroke-width:0.5;"/><text fill="#000000" font-family="sans-serif" font-size="14" lengthAdjust="spacing" textLength="116" x="48.5015" y="166.9661">Integrate Learning</text></g><!--entity ApplicationDeveloper--><g id="elem_ApplicationDeveloper"><ellipse cx="107" cy="14" fill="#F1F1F1" rx="8" ry="8" style="stroke:#181818;stroke-width:0.5;"/><path d="M107,22 L107,49 M94,30 L120,30 M107,49 L94,64 M107,49 L120,64 " fill="none" style="stroke:#181818;stroke-width:0.5;"/><text fill="#000000" font-family="sans-serif" font-size="14" lengthAdjust="spacing" textLength="138" x="38" y="80.0332">Application Developer</text></g><g id="elem_ProvideDigitalAssistance"><ellipse cx="106.9506" cy="282.0901" fill="#FFFFE0" rx="100.9506" ry="22.5901" style="stroke:#181818;stroke-width:0.5;"/><text fill="#000000" font-family="sans-serif" font-size="14" lengthAdjust="spacing" textLength="163" x="25.4506" y="285.8186">Provide Digital Assistance</text></g><!--link ApplicationDeveloper to IntegrateLearning--><g id="link_ApplicationDeveloper_IntegrateLearning"><path d="M107,83.65 C107,104.09 107,122.29 107,138.33 " fill="none" id="ApplicationDeveloper-to-IntegrateLearning" style="stroke:#181818;stroke-width:1.0;"/><polygon fill="#181818" points="107,144.33,111,135.33,107,139.33,103,135.33,107,144.33" style="stroke:#181818;stroke-width:1.0;"/></g><!--reverse link IntegrateLearning to ProvideDigitalAssistance--><g id="link_IntegrateLearning_ProvideDigitalAssistance"><path d="M107,187.52 C107,208.3 107,236.95 107,259.38 " fill="none" id="IntegrateLearning-backto-ProvideDigitalAssistance" style="stroke:#181818;stroke-width:1.0;"/><polygon fill="#181818" points="107,181.52,103,190.52,107,186.52,111,190.52,107,181.52" style="stroke:#181818;stroke-width:1.0;"/><text fill="#000000" font-family="sans-serif" font-size="13" lengthAdjust="spacing" textLength="46" x="108" y="225.9951">extends</text></g><!--SRC=[TOz12i8m44NtESNGhdC14Q7GZU32Ampf40T24ZBJQc-lnBOArLd-n-F_6OKS2a5pZag-e19S24law1j0WIrUKsXd2Y7TZUcSfW9DbtDWXyefGayJXPIfLFUBRE2b_KZ1sjE-ojGRruNNaYOU27hsh1YW4s5HZ8vgsu8N-e7G1lOtNLVl7pfQ-ry-03sKuY3lCUO9]--></g></svg>