<?xml version="1.0" encoding="us-ascii" standalone="no"?><svg xmlns="http://www.w3.org/2000/svg" xmlns:xlink="http://www.w3.org/1999/xlink" contentStyleType="text/css" height="213px" preserveAspectRatio="none" style="width:800px;height:213px;background:#FFFFFF;" version="1.1" viewBox="0 0 800 213" width="800px" zoomAndPan="magnify"><defs/><g><!--entity DataStream--><g id="elem_DataStream"><rect fill="#90EE90" height="37.6094" rx="2.5" ry="2.5" style="stroke:#181818;stroke-width:0.5;" width="95" x="21.07" y="7"/><text fill="#000000" font-family="sans-serif" font-size="14" lengthAdjust="spacing" textLength="75" x="31.07" y="31.5332">DataStream</text></g><!--entity ChannelCreationPolicy--><g id="elem_ChannelCreationPolicy"><rect fill="#90EE90" height="37.6094" rx="2.5" ry="2.5" style="stroke:#181818;stroke-width:0.5;" width="164" x="151.57" y="7"/><text fill="#000000" font-family="sans-serif" font-size="14" lengthAdjust="spacing" textLength="144" x="161.57" y="31.5332">ChannelCreationPolicy</text></g><!--entity InputChannelInstance--><g id="elem_InputChannelInstance"><rect fill="#90EE90" height="37.6094" rx="2.5" ry="2.5" style="stroke:#181818;stroke-width:0.5;" width="157" x="351.07" y="7"/><text fill="#000000" font-family="sans-serif" font-size="14" lengthAdjust="spacing" textLength="137" x="361.07" y="31.5332">InputChannelInstance</text></g><!--entity AdminDataStream--><g id="elem_AdminDataStream"><rect fill="#90EE90" height="37.6094" rx="2.5" ry="2.5" style="stroke:#181818;stroke-width:0.5;" width="134" x="543.57" y="7"/><text fill="#000000" font-family="sans-serif" font-size="14" lengthAdjust="spacing" textLength="114" x="553.57" y="31.5332">AdminDataStream</text></g><!--entity SABundle--><g id="elem_SABundle"><rect fill="#90EE90" height="37.6094" rx="2.5" ry="2.5" style="stroke:#181818;stroke-width:0.5;" width="82" x="712.57" y="7"/><text fill="#000000" font-family="sans-serif" font-size="14" lengthAdjust="spacing" textLength="62" x="722.57" y="31.5332">SABundle</text></g><!--class Model--><g id="elem_Model"><rect codeLine="2" fill="#F1F1F1" height="83.2188" id="Model" rx="2.5" ry="2.5" style="stroke:#181818;stroke-width:0.5;" width="127" x="238.07" y="123"/><ellipse cx="253.07" cy="139" fill="#ADD1B2" rx="11" ry="11" style="stroke:#181818;stroke-width:1.0;"/><path d="M255.8356,134.875 Q255.9919,134.6563 256.1794,134.5469 Q256.3669,134.4375 256.5856,134.4375 Q256.9606,134.4375 257.195,134.6953 Q257.4294,134.9531 257.4294,135.5625 L257.4294,137.0156 Q257.4294,137.625 257.195,137.8906 Q256.9606,138.1563 256.5856,138.1563 Q256.2419,138.1563 256.0388,137.9531 Q255.8356,137.7656 255.7263,137.25 Q255.6794,136.8906 255.4919,136.7031 Q255.1638,136.3281 254.5544,136.1094 Q253.945,135.8906 253.32,135.8906 Q252.5544,135.8906 251.9216,136.2188 Q251.2888,136.5469 250.7966,137.2969 Q250.3044,138.0469 250.3044,139.0781 L250.3044,140.1719 Q250.3044,141.4063 251.195,142.2266 Q252.0856,143.0469 253.6794,143.0469 Q254.6169,143.0469 255.2731,142.7969 Q255.6638,142.6406 256.0856,142.2031 Q256.3513,141.9375 256.4997,141.8594 Q256.6481,141.7813 256.8513,141.7813 Q257.1794,141.7813 257.4372,142.0391 Q257.695,142.2969 257.695,142.6406 Q257.695,142.9844 257.3513,143.3906 Q256.8513,143.9688 256.0544,144.2969 Q254.9763,144.75 253.6794,144.75 Q252.1638,144.75 250.9606,144.125 Q249.9763,143.625 249.2888,142.5547 Q248.6013,141.4844 248.6013,140.2031 L248.6013,139.0469 Q248.6013,137.7188 249.2184,136.5703 Q249.8356,135.4219 250.9294,134.8047 Q252.0231,134.1875 253.2575,134.1875 Q253.9919,134.1875 254.6403,134.3516 Q255.2888,134.5156 255.8356,134.875 Z " fill="#000000"/><text fill="#000000" font-family="sans-serif" font-size="14" lengthAdjust="spacing" textLength="95" x="267.07" y="144.7285">DataTransform</text><line style="stroke:#181818;stroke-width:0.5;" x1="239.07" x2="364.07" y1="155" y2="155"/><text fill="#000000" font-family="sans-serif" font-size="14" lengthAdjust="spacing" textLength="74" x="244.07" y="173.5332">string name</text><text fill="#000000" font-family="sans-serif" font-size="14" lengthAdjust="spacing" textLength="42" x="244.07" y="191.1426">json fn</text><line style="stroke:#181818;stroke-width:0.5;" x1="239.07" x2="364.07" y1="198.2188" y2="198.2188"/></g><!--link Model to DataStream--><g id="link_Model_DataStream"><path codeLine="12" d="M226.2762,150.6004 C184.1362,141.0604 141.53,125.8 103.57,93 C88.85,80.28 81.3954,65.4542 76.0654,50.6742 " fill="none" id="Model-DataStream" style="stroke:#181818;stroke-width:1.0;"/><polygon fill="none" points="237.98,153.25,233.0113,148.0239,226.2762,150.6004,231.2449,155.8265,237.98,153.25" style="stroke:#181818;stroke-width:1.0;"/><polygon fill="#181818" points="74.03,45.03,73.3203,54.8533,75.7262,49.7335,80.8459,52.1394,74.03,45.03" style="stroke:#181818;stroke-width:1.0;"/><text fill="#000000" font-family="sans-serif" font-size="13" lengthAdjust="spacing" textLength="35" x="104.57" y="89.4951">inputs</text><text fill="#000000" font-family="sans-serif" font-size="13" lengthAdjust="spacing" textLength="7" x="67.5813" y="66.2317">n</text></g><!--link Model to DataStream--><g id="link_Model_DataStream"><path codeLine="18" d="M227.6159,120.1744 C182.6359,93.8244 139.8475,68.752 104.6875,48.162 " fill="none" id="Model-DataStream-1" style="stroke:#181818;stroke-width:1.0;"/><polygon fill="none" points="237.97,126.24,234.8148,119.7558,227.6159,120.1744,230.7711,126.6586,237.97,126.24" style="stroke:#181818;stroke-width:1.0;"/><polygon fill="#181818" points="99.51,45.13,105.255,53.1297,103.8246,47.6567,109.2976,46.2263,99.51,45.13" style="stroke:#181818;stroke-width:1.0;"/><text fill="#000000" font-family="sans-serif" font-size="13" lengthAdjust="spacing" textLength="43" x="179.57" y="89.4951">outputs</text><text fill="#000000" font-family="sans-serif" font-size="13" lengthAdjust="spacing" textLength="7" x="99.8845" y="66.016">n</text></g><!--link DataStream to Model--><g id="link_DataStream_Model"><path codeLine="36" d="M30.65,52.3324 C13.23,65.6624 6,76.92 18.57,93 C45.27,127.16 156.9376,146.4155 231.8876,155.9155 " fill="none" id="DataStream-Model" style="stroke:#181818;stroke-width:1.0;"/><polygon fill="none" points="40.18,45.04,32.9842,45.5096,30.65,52.3324,37.8458,51.8629,40.18,45.04" style="stroke:#181818;stroke-width:1.0;"/><polygon fill="#181818" points="237.84,156.67,229.4144,151.57,232.8797,156.0413,228.4085,159.5065,237.84,156.67" style="stroke:#181818;stroke-width:1.0;"/><text fill="#000000" font-family="sans-serif" font-size="13" lengthAdjust="spacing" textLength="61" x="19.57" y="89.4951">transforms</text><text fill="#000000" font-family="sans-serif" font-size="13" lengthAdjust="spacing" textLength="7" x="223.0665" y="152.3425">n</text></g><!--link ChannelCreationPolicy to Model--><g id="link_ChannelCreationPolicy_Model"><path codeLine="26" d="M247.4965,56.0765 C253.8765,69.3565 257.57,76.93 265.57,93 C270.41,102.72 272.9653,107.8043 277.9553,117.5943 " fill="none" id="ChannelCreationPolicy-Model" style="stroke:#181818;stroke-width:1.0;"/><polygon fill="none" points="242.3,45.26,241.2927,52.4004,247.4965,56.0765,248.5037,48.9361,242.3,45.26" style="stroke:#181818;stroke-width:1.0;"/><polygon fill="#181818" points="280.68,122.94,280.1567,113.1051,278.4094,118.4853,273.0292,116.738,280.68,122.94" style="stroke:#181818;stroke-width:1.0;"/><text fill="#000000" font-family="sans-serif" font-size="13" lengthAdjust="spacing" textLength="25" x="266.57" y="89.4951">post</text><text fill="#000000" font-family="sans-serif" font-size="13" lengthAdjust="spacing" textLength="7" x="269.6404" y="112.2377">1</text></g><!--link ChannelCreationPolicy to Model--><g id="link_ChannelCreationPolicy_Model"><path codeLine="31" d="M277.9234,52.0547 C288.9634,59.7047 290.12,62.86 296.57,75 C304.22,89.41 306.4205,101.0601 306.3405,116.7901 " fill="none" id="ChannelCreationPolicy-Model-1" style="stroke:#181818;stroke-width:1.0;"/><polygon fill="none" points="268.06,45.22,270.7135,51.9252,277.9234,52.0547,275.2699,45.3495,268.06,45.22" style="stroke:#181818;stroke-width:1.0;"/><polygon fill="#181818" points="306.31,122.79,310.3557,113.8105,306.3354,117.7901,302.3558,113.7698,306.31,122.79" style="stroke:#181818;stroke-width:1.0;"/><text fill="#000000" font-family="sans-serif" font-size="13" lengthAdjust="spacing" textLength="18" x="304.57" y="89.4951">pre</text><text fill="#000000" font-family="sans-serif" font-size="13" lengthAdjust="spacing" textLength="7" x="299.5154" y="112.0629">1</text></g><!--link InputChannelInstance to Model--><g id="link_InputChannelInstance_Model"><path codeLine="41" d="M404.3621,53.8839 C385.8721,73.6039 368.004,92.6531 343.784,118.4831 " fill="none" id="InputChannelInstance-Model" style="stroke:#181818;stroke-width:1.0;"/><polygon fill="none" points="412.57,45.13,405.5481,46.771,404.3621,53.8839,411.384,52.2429,412.57,45.13" style="stroke:#181818;stroke-width:1.0;"/><polygon fill="#181818" points="339.68,122.86,348.754,119.0307,343.1,119.2126,342.9182,113.5587,339.68,122.86" style="stroke:#181818;stroke-width:1.0;"/><text fill="#000000" font-family="sans-serif" font-size="13" lengthAdjust="spacing" textLength="61" x="385.57" y="89.4951">transforms</text><text fill="#000000" font-family="sans-serif" font-size="13" lengthAdjust="spacing" textLength="7" x="338.4123" y="112.1445">n</text></g><!--link AdminDataStream to Model--><g id="link_AdminDataStream_Model"><path codeLine="46" d="M558.563,49.9783 C506.353,73.0383 432.0984,105.8456 370.8384,132.9056 " fill="none" id="AdminDataStream-Model" style="stroke:#181818;stroke-width:1.0;"/><polygon fill="none" points="569.54,45.13,562.4354,43.8952,558.563,49.9783,565.6676,51.2131,569.54,45.13" style="stroke:#181818;stroke-width:1.0;"/><polygon fill="#181818" points="365.35,135.33,375.1988,135.3524,369.9237,133.3097,371.9664,128.0345,365.35,135.33" style="stroke:#181818;stroke-width:1.0;"/><text fill="#000000" font-family="sans-serif" font-size="13" lengthAdjust="spacing" textLength="61" x="503.57" y="89.4951">transforms</text><text fill="#000000" font-family="sans-serif" font-size="13" lengthAdjust="spacing" textLength="7" x="373.1293" y="128.535">n</text></g><!--link SABundle to Model--><g id="link_SABundle_Model"><path codeLine="51" d="M701.3202,47.7202 C665.0902,61.8502 621.87,77.93 573.57,93 C503.02,115.02 426.5471,134.2813 371.1071,147.4713 " fill="none" id="SABundle-Model" style="stroke:#181818;stroke-width:1.0;"/><polygon fill="none" points="712.5,43.36,705.4567,41.8135,701.3202,47.7202,708.3635,49.2667,712.5,43.36" style="stroke:#181818;stroke-width:1.0;"/><polygon fill="#181818" points="365.27,148.86,374.9514,150.6683,370.1342,147.7027,373.0998,142.8855,365.27,148.86" style="stroke:#181818;stroke-width:1.0;"/><text fill="#000000" font-family="sans-serif" font-size="13" lengthAdjust="spacing" textLength="61" x="624.57" y="89.4951">transforms</text><text fill="#000000" font-family="sans-serif" font-size="13" lengthAdjust="spacing" textLength="7" x="373.04" y="161.4794">n</text></g><!--SRC=[pLBDQiCm3BxxAOHtxc7N7WhzkVGm6BGlu2Lgwk78nL8EPVJTvoHk4u9PHc4m7GoMzVrOKk4CC-YT4NCCXlZaGwt1CBpv4XryAM09bYeWKwE2J_O49r8Ar4sfW8KOgXps10S9Q7hqS8KNPwkpVBW68ri4zSH-iLY19ZskN8AbIoEi_e3PDvAee_SO8u7jsH2XsyPAiPxUlRF5jTFAlYJPAY1IsvyOj-xiZZRoC4ZENdNgxHBqnRFe0VnFJ0NCUvgRn0_gereO9lIGbFlgSLvvt-v5-i6UEAOBx3pa7kRTP57F-5gNjQL9MoQvUJTJm3D63kjDGwNhctA_p4i_Ad-b-Gq0]--></g></svg>