<?xml version="1.0" encoding="UTF-8" standalone="no"?><svg xmlns="http://www.w3.org/2000/svg" xmlns:xlink="http://www.w3.org/1999/xlink" contentScriptType="application/ecmascript" contentStyleType="text/css" height="210px" preserveAspectRatio="none" style="width:797px;height:210px;" version="1.1" viewBox="0 0 797 210" width="797px" zoomAndPan="magnify"><defs><filter height="300%" id="f19n4o0zibo7mt" width="300%" x="-1" y="-1"><feGaussianBlur result="blurOut" stdDeviation="2.0"/><feColorMatrix in="blurOut" result="blurOut2" type="matrix" values="0 0 0 0 0 0 0 0 0 0 0 0 0 0 0 0 0 0 .4 0"/><feOffset dx="4.0" dy="4.0" in="blurOut2" result="blurOut3"/><feBlend in="SourceGraphic" in2="blurOut3" mode="normal"/></filter></defs><g><!--entity DataStream--><rect fill="#90EE90" filter="url(#f19n4o0zibo7mt)" height="37.6094" style="stroke: #000000; stroke-width: 1.5;" width="95" x="13.2048" y="8"/><text fill="#000000" font-family="sans-serif" font-size="14" lengthAdjust="spacingAndGlyphs" textLength="75" x="23.2048" y="32.5332">DataStream</text><!--entity ChannelCreationPolicy--><rect fill="#90EE90" filter="url(#f19n4o0zibo7mt)" height="37.6094" style="stroke: #000000; stroke-width: 1.5;" width="164" x="143.705" y="8"/><text fill="#000000" font-family="sans-serif" font-size="14" lengthAdjust="spacingAndGlyphs" textLength="144" x="153.705" y="32.5332">ChannelCreationPolicy</text><!--entity InputChannelInstance--><rect fill="#90EE90" filter="url(#f19n4o0zibo7mt)" height="37.6094" style="stroke: #000000; stroke-width: 1.5;" width="157" x="343.205" y="8"/><text fill="#000000" font-family="sans-serif" font-size="14" lengthAdjust="spacingAndGlyphs" textLength="137" x="353.205" y="32.5332">InputChannelInstance</text><!--entity AdminDataStream--><rect fill="#90EE90" filter="url(#f19n4o0zibo7mt)" height="37.6094" style="stroke: #000000; stroke-width: 1.5;" width="134" x="535.705" y="8"/><text fill="#000000" font-family="sans-serif" font-size="14" lengthAdjust="spacingAndGlyphs" textLength="114" x="545.705" y="32.5332">AdminDataStream</text><!--entity SABundle--><rect fill="#90EE90" filter="url(#f19n4o0zibo7mt)" height="37.6094" style="stroke: #000000; stroke-width: 1.5;" width="82" x="704.705" y="8"/><text fill="#000000" font-family="sans-serif" font-size="14" lengthAdjust="spacingAndGlyphs" textLength="62" x="714.705" y="32.5332">SABundle</text><!--class Model--><rect fill="#FEFECE" filter="url(#f19n4o0zibo7mt)" height="75.6719" id="Model" style="stroke: #A80036; stroke-width: 1.5;" width="115" x="236.205" y="124"/><ellipse cx="251.205" cy="140" fill="#ADD1B2" rx="11" ry="11" style="stroke: #A80036; stroke-width: 1.0;"/><path d="M253.9706,135.875 Q254.1269,135.6563 254.3144,135.5469 Q254.5019,135.4375 254.7206,135.4375 Q255.0956,135.4375 255.33,135.6953 Q255.5644,135.9531 255.5644,136.5625 L255.5644,138.0156 Q255.5644,138.625 255.33,138.8906 Q255.0956,139.1563 254.7206,139.1563 Q254.3769,139.1563 254.1738,138.9531 Q253.9706,138.7656 253.8613,138.25 Q253.8144,137.8906 253.6269,137.7031 Q253.2988,137.3281 252.6894,137.1094 Q252.08,136.8906 251.455,136.8906 Q250.6894,136.8906 250.0566,137.2188 Q249.4238,137.5469 248.9316,138.2969 Q248.4394,139.0469 248.4394,140.0781 L248.4394,141.1719 Q248.4394,142.4063 249.33,143.2266 Q250.2206,144.0469 251.8144,144.0469 Q252.7519,144.0469 253.4081,143.7969 Q253.7988,143.6406 254.2206,143.2031 Q254.4863,142.9375 254.6347,142.8594 Q254.7831,142.7813 254.9863,142.7813 Q255.3144,142.7813 255.5722,143.0391 Q255.83,143.2969 255.83,143.6406 Q255.83,143.9844 255.4863,144.3906 Q254.9863,144.9688 254.1894,145.2969 Q253.1113,145.75 251.8144,145.75 Q250.2988,145.75 249.0956,145.125 Q248.1113,144.625 247.4238,143.5547 Q246.7363,142.4844 246.7363,141.2031 L246.7363,140.0469 Q246.7363,138.7188 247.3534,137.5703 Q247.9706,136.4219 249.0644,135.8047 Q250.1581,135.1875 251.3925,135.1875 Q252.1269,135.1875 252.7753,135.3516 Q253.4238,135.5156 253.9706,135.875 Z "/><text fill="#000000" font-family="sans-serif" font-size="12" lengthAdjust="spacingAndGlyphs" textLength="83" x="265.205" y="144.9102">DataTransform</text><line style="stroke: #A80036; stroke-width: 1.5;" x1="237.205" x2="350.205" y1="156" y2="156"/><text fill="#000000" font-family="sans-serif" font-size="11" lengthAdjust="spacingAndGlyphs" textLength="56" x="242.205" y="171.4189">string name</text><text fill="#000000" font-family="sans-serif" font-size="11" lengthAdjust="spacingAndGlyphs" textLength="33" x="242.205" y="185.2549">json fn</text><line style="stroke: #A80036; stroke-width: 1.5;" x1="237.205" x2="350.205" y1="191.6719" y2="191.6719"/><!--link Model to DataStream--><path d="M223.084,150.4834 C182.092,141.3467 131.626,124.5482 95.7048,94 C84.7055,84.646 76.6538,70.946 71.0661,58.449 " fill="none" id="Model-DataStream" style="stroke: #A80036; stroke-width: 1.0;"/><polygon fill="#A80036" points="66.1149,46.093,65.7497,55.9351,67.9748,50.7342,73.1757,52.9593,66.1149,46.093" style="stroke: #A80036; stroke-width: 1.0;"/><line style="stroke: #A80036; stroke-width: 1.0;" x1="67.9748" x2="70.9507" y1="50.7342" y2="58.1605"/><polygon fill="#FFFFFF" points="236.029,153.1883,230.9738,148.0458,224.2826,150.7342,229.3378,155.8767,236.029,153.1883" style="stroke: #A80036; stroke-width: 1.0;"/><text fill="#000000" font-family="sans-serif" font-size="13" lengthAdjust="spacingAndGlyphs" textLength="35" x="96.7048" y="90.4951">inputs</text><text fill="#000000" font-family="sans-serif" font-size="13" lengthAdjust="spacingAndGlyphs" textLength="7" x="59.6282" y="66.9691">n</text><!--link Model to DataStream--><path d="M224.477,121.4839 C185.425,99.192 137.838,72.029 104.0458,52.74 " fill="none" id="Model-DataStream-1" style="stroke: #A80036; stroke-width: 1.0;"/><polygon fill="#A80036" points="92.6139,46.214,98.4469,54.1497,96.9562,48.6928,102.4131,47.2021,92.6139,46.214" style="stroke: #A80036; stroke-width: 1.0;"/><line style="stroke: #A80036; stroke-width: 1.0;" x1="96.9562" x2="103.9042" y1="48.6928" y2="52.6585"/><polygon fill="#FFFFFF" points="235.771,127.9307,232.543,121.4825,225.3492,121.9821,228.5772,128.4303,235.771,127.9307" style="stroke: #A80036; stroke-width: 1.0;"/><text fill="#000000" font-family="sans-serif" font-size="13" lengthAdjust="spacingAndGlyphs" textLength="43" x="171.705" y="90.4951">outputs</text><text fill="#000000" font-family="sans-serif" font-size="13" lengthAdjust="spacingAndGlyphs" textLength="7" x="93.2488" y="67.1226">n</text><!--link DataStream to Model--><path d="M21.9506,54.798 C9.2131,66.867 0.6143,81.242 10.7048,94 C36.7058,126.8754 148.019,145.2897 223.047,154.1722 " fill="none" id="DataStream-Model" style="stroke: #A80036; stroke-width: 1.0;"/><polygon fill="#A80036" points="236.142,155.6702,227.6548,150.6735,231.1744,155.1021,226.7458,158.6217,236.142,155.6702" style="stroke: #A80036; stroke-width: 1.0;"/><line style="stroke: #A80036; stroke-width: 1.0;" x1="231.1744" x2="223.227" y1="155.1021" y2="154.1928"/><polygon fill="#FFFFFF" points="32.2569,46.083,25.0926,46.9032,23.0942,53.8319,30.2585,53.0117,32.2569,46.083" style="stroke: #A80036; stroke-width: 1.0;"/><text fill="#000000" font-family="sans-serif" font-size="13" lengthAdjust="spacingAndGlyphs" textLength="61" x="11.7048" y="90.4951">transforms</text><text fill="#000000" font-family="sans-serif" font-size="13" lengthAdjust="spacingAndGlyphs" textLength="7" x="221.3183" y="151.3729">n</text><!--link ChannelCreationPolicy to Model--><path d="M239.912,57.972 C245.372,69.311 251.728,82.3 257.705,94 C260.743,99.948 263.986,106.1605 267.234,112.3015 " fill="none" id="ChannelCreationPolicy-Model" style="stroke: #A80036; stroke-width: 1.0;"/><polygon fill="#A80036" points="273.434,123.9338,272.7302,114.1101,271.082,119.5215,265.6706,117.8733,273.434,123.9338" style="stroke: #A80036; stroke-width: 1.0;"/><line style="stroke: #A80036; stroke-width: 1.0;" x1="271.082" x2="267.319" y1="119.5215" y2="112.4618"/><polygon fill="#FFFFFF" points="234.197,46.028,233.1789,53.1669,239.3771,56.8524,240.3952,49.7135,234.197,46.028" style="stroke: #A80036; stroke-width: 1.0;"/><text fill="#000000" font-family="sans-serif" font-size="13" lengthAdjust="spacingAndGlyphs" textLength="25" x="258.705" y="90.4951">post</text><text fill="#000000" font-family="sans-serif" font-size="13" lengthAdjust="spacingAndGlyphs" textLength="7" x="262.1998" y="113.2839">1</text><!--link ChannelCreationPolicy to Model--><path d="M270.879,54.509 C277.961,60.665 284.363,67.845 288.705,76 C294.257,86.428 296.83,98.63 297.742,110.4813 " fill="none" id="ChannelCreationPolicy-Model-1" style="stroke: #A80036; stroke-width: 1.0;"/><polygon fill="#A80036" points="298.138,123.5996,301.8651,114.4832,297.9874,118.6019,293.8687,114.7242,298.138,123.5996" style="stroke: #A80036; stroke-width: 1.0;"/><line style="stroke: #A80036; stroke-width: 1.0;" x1="297.9874" x2="297.746" y1="118.6019" y2="110.6056"/><polygon fill="#FFFFFF" points="260.177,46.228,262.4744,53.0634,269.6675,53.5717,267.3702,46.7363,260.177,46.228" style="stroke: #A80036; stroke-width: 1.0;"/><text fill="#000000" font-family="sans-serif" font-size="13" lengthAdjust="spacingAndGlyphs" textLength="18" x="296.705" y="90.4951">pre</text><text fill="#000000" font-family="sans-serif" font-size="13" lengthAdjust="spacingAndGlyphs" textLength="7" x="291.2984" y="113.1781">1</text><!--link InputChannelInstance to Model--><path d="M394.902,55.85 C378.556,72.835 357.25,94.973 338.407,114.5521 " fill="none" id="InputChannelInstance-Model" style="stroke: #A80036; stroke-width: 1.0;"/><polygon fill="#A80036" points="329.387,123.9245,338.5099,120.2134,332.8541,120.3218,332.7457,114.666,329.387,123.9245" style="stroke: #A80036; stroke-width: 1.0;"/><line style="stroke: #A80036; stroke-width: 1.0;" x1="332.8541" x2="338.4015" y1="120.3218" y2="114.5577"/><polygon fill="#FFFFFF" points="404.175,46.214,397.1324,47.7637,395.8541,54.8606,402.8968,53.3109,404.175,46.214" style="stroke: #A80036; stroke-width: 1.0;"/><text fill="#000000" font-family="sans-serif" font-size="13" lengthAdjust="spacingAndGlyphs" textLength="61" x="374.705" y="90.4951">transforms</text><text fill="#000000" font-family="sans-serif" font-size="13" lengthAdjust="spacingAndGlyphs" textLength="7" x="328.1194" y="113.273">n</text><!--link AdminDataStream to Model--><path d="M548.722,51.235 C497.259,73.386 419.504,106.8532 363.386,131.008 " fill="none" id="AdminDataStream-Model" style="stroke: #A80036; stroke-width: 1.0;"/><polygon fill="#A80036" points="351.401,136.1665,361.2492,136.2832,355.9938,134.1901,358.0869,128.9347,351.401,136.1665" style="stroke: #A80036; stroke-width: 1.0;"/><line style="stroke: #A80036; stroke-width: 1.0;" x1="355.9938" x2="363.3415" y1="134.1901" y2="131.0269"/><polygon fill="#FFFFFF" points="560.71,46.075,553.6173,44.7734,549.6879,50.8199,556.7806,52.1215,560.71,46.075" style="stroke: #A80036; stroke-width: 1.0;"/><text fill="#000000" font-family="sans-serif" font-size="13" lengthAdjust="spacingAndGlyphs" textLength="61" x="486.705" y="90.4951">transforms</text><text fill="#000000" font-family="sans-serif" font-size="13" lengthAdjust="spacingAndGlyphs" textLength="7" x="359.2417" y="129.3702">n</text><!--link SABundle to Model--><path d="M691.695,48.258 C654.114,62.009 602.696,80.14 556.705,94 C492,113.4995 417.247,132.1799 364.013,144.8383 " fill="none" id="SABundle-Model" style="stroke: #A80036; stroke-width: 1.0;"/><polygon fill="#A80036" points="351.302,147.8438,360.9807,149.6665,356.1679,146.6938,359.1407,141.881,351.302,147.8438" style="stroke: #A80036; stroke-width: 1.0;"/><line style="stroke: #A80036; stroke-width: 1.0;" x1="356.1679" x2="363.9535" y1="146.6938" y2="144.8524"/><polygon fill="#FFFFFF" points="704.379,43.591,697.3667,41.9095,693.1175,47.7356,700.1298,49.4172,704.379,43.591" style="stroke: #A80036; stroke-width: 1.0;"/><text fill="#000000" font-family="sans-serif" font-size="13" lengthAdjust="spacingAndGlyphs" textLength="61" x="610.705" y="90.4951">transforms</text><text fill="#000000" font-family="sans-serif" font-size="13" lengthAdjust="spacingAndGlyphs" textLength="7" x="359.1301" y="160.5937">n</text><!--
@startuml

class "DataTransform" as Model {
 string name
 json fn

 
}

rectangle "DataStream" as DataStream #lightblue {
}

Model o- -> "n" DataStream : inputs


rectangle "DataStream" as DataStream #lightblue {
}

Model o- -> "n" DataStream : outputs




    rectangle "ChannelCreationPolicy" as ChannelCreationPolicy #lightgreen {
    }
    
        ChannelCreationPolicy   o- -> "1" Model : "post"
    
    rectangle "ChannelCreationPolicy" as ChannelCreationPolicy #lightgreen {
    }
    
        ChannelCreationPolicy   o- -> "1" Model : "pre"
    
    rectangle "DataStream" as DataStream #lightgreen {
    }
    
        DataStream   o- -> "n" Model : "transforms"
    
    rectangle "InputChannelInstance" as InputChannelInstance #lightgreen {
    }
    
        InputChannelInstance   o- -> "n" Model : "transforms"
    
    rectangle "AdminDataStream" as AdminDataStream #lightgreen {
    }
    
        AdminDataStream   o- -> "n" Model : "transforms"
    
    rectangle "SABundle" as SABundle #lightgreen {
    }
    
        SABundle   o- -> "n" Model : "transforms"
    

@enduml

PlantUML version 1.2019.05(Sat Apr 20 09:45:36 PDT 2019)
(GPL source distribution)
Java Runtime: Java(TM) SE Runtime Environment
JVM: Java HotSpot(TM) Client VM
Java Version: 1.8.0_271-b09
Operating System: Windows 10
OS Version: 10.0
Default Encoding: Cp1252
Language: en
Country: US
--></g></svg>