<?xml version="1.0" encoding="UTF-8" standalone="no"?><svg xmlns="http://www.w3.org/2000/svg" xmlns:xlink="http://www.w3.org/1999/xlink" contentScriptType="application/ecmascript" contentStyleType="text/css" height="279px" preserveAspectRatio="none" style="width:779px;height:279px;" version="1.1" viewBox="0 0 779 279" width="779px" zoomAndPan="magnify"><defs><filter height="300%" id="f12em90ft8d89t" width="300%" x="-1" y="-1"><feGaussianBlur result="blurOut" stdDeviation="2.0"/><feColorMatrix in="blurOut" result="blurOut2" type="matrix" values="0 0 0 0 0 0 0 0 0 0 0 0 0 0 0 0 0 0 .4 0"/><feOffset dx="4.0" dy="4.0" in="blurOut2" result="blurOut3"/><feBlend in="SourceGraphic" in2="blurOut3" mode="normal"/></filter></defs><g><!--entity DataTransform--><rect fill="#ADD8E6" filter="url(#f12em90ft8d89t)" height="37.6094" style="stroke: #000000; stroke-width: 1.5;" width="115" x="6" y="231"/><text fill="#000000" font-family="sans-serif" font-size="14" lengthAdjust="spacingAndGlyphs" textLength="95" x="16" y="255.5332">DataTransform</text><!--entity DataChannel--><rect fill="#ADD8E6" filter="url(#f12em90ft8d89t)" height="37.6094" style="stroke: #000000; stroke-width: 1.5;" width="103" x="156" y="231"/><text fill="#000000" font-family="sans-serif" font-size="14" lengthAdjust="spacingAndGlyphs" textLength="83" x="166" y="255.5332">DataChannel</text><!--entity DataStreamInstance--><rect fill="#ADD8E6" filter="url(#f12em90ft8d89t)" height="37.6094" style="stroke: #000000; stroke-width: 1.5;" width="148" x="294.5" y="231"/><text fill="#000000" font-family="sans-serif" font-size="14" lengthAdjust="spacingAndGlyphs" textLength="128" x="304.5" y="255.5332">DataStreamInstance</text><!--entity ServiceInstance--><rect fill="#ADD8E6" filter="url(#f12em90ft8d89t)" height="37.6094" style="stroke: #000000; stroke-width: 1.5;" width="120" x="477.5" y="231"/><text fill="#000000" font-family="sans-serif" font-size="14" lengthAdjust="spacingAndGlyphs" textLength="100" x="487.5" y="255.5332">ServiceInstance</text><!--entity SABundleInstance--><rect fill="#ADD8E6" filter="url(#f12em90ft8d89t)" height="37.6094" style="stroke: #000000; stroke-width: 1.5;" width="135" x="633" y="231"/><text fill="#000000" font-family="sans-serif" font-size="14" lengthAdjust="spacingAndGlyphs" textLength="115" x="643" y="255.5332">SABundleInstance</text><!--class Model--><rect fill="#FEFECE" filter="url(#f12em90ft8d89t)" height="144.8516" id="Model" style="stroke: #A80036; stroke-width: 1.5;" width="153" x="292" y="8"/><ellipse cx="307" cy="24" fill="#ADD1B2" rx="11" ry="11" style="stroke: #A80036; stroke-width: 1.0;"/><path d="M309.7656,19.875 Q309.9219,19.6563 310.1094,19.5469 Q310.2969,19.4375 310.5156,19.4375 Q310.8906,19.4375 311.125,19.6953 Q311.3594,19.9531 311.3594,20.5625 L311.3594,22.0156 Q311.3594,22.625 311.125,22.8906 Q310.8906,23.1563 310.5156,23.1563 Q310.1719,23.1563 309.9688,22.9531 Q309.7656,22.7656 309.6563,22.25 Q309.6094,21.8906 309.4219,21.7031 Q309.0938,21.3281 308.4844,21.1094 Q307.875,20.8906 307.25,20.8906 Q306.4844,20.8906 305.8516,21.2188 Q305.2188,21.5469 304.7266,22.2969 Q304.2344,23.0469 304.2344,24.0781 L304.2344,25.1719 Q304.2344,26.4063 305.125,27.2266 Q306.0156,28.0469 307.6094,28.0469 Q308.5469,28.0469 309.2031,27.7969 Q309.5938,27.6406 310.0156,27.2031 Q310.2813,26.9375 310.4297,26.8594 Q310.5781,26.7813 310.7813,26.7813 Q311.1094,26.7813 311.3672,27.0391 Q311.625,27.2969 311.625,27.6406 Q311.625,27.9844 311.2813,28.3906 Q310.7813,28.9688 309.9844,29.2969 Q308.9063,29.75 307.6094,29.75 Q306.0938,29.75 304.8906,29.125 Q303.9063,28.625 303.2188,27.5547 Q302.5313,26.4844 302.5313,25.2031 L302.5313,24.0469 Q302.5313,22.7188 303.1484,21.5703 Q303.7656,20.4219 304.8594,19.8047 Q305.9531,19.1875 307.1875,19.1875 Q307.9219,19.1875 308.5703,19.3516 Q309.2188,19.5156 309.7656,19.875 Z "/><text fill="#000000" font-family="sans-serif" font-size="12" lengthAdjust="spacingAndGlyphs" textLength="121" x="321" y="28.9102">InputChannelInstance</text><line style="stroke: #A80036; stroke-width: 1.5;" x1="293" x2="444" y1="40" y2="40"/><text fill="#000000" font-family="sans-serif" font-size="11" lengthAdjust="spacingAndGlyphs" textLength="65" x="298" y="55.4189">ref consumer</text><text fill="#000000" font-family="sans-serif" font-size="11" lengthAdjust="spacingAndGlyphs" textLength="56" x="298" y="69.2549">string name</text><text fill="#000000" font-family="sans-serif" font-size="11" lengthAdjust="spacingAndGlyphs" textLength="71" x="298" y="83.0908">string direction</text><text fill="#000000" font-family="sans-serif" font-size="11" lengthAdjust="spacingAndGlyphs" textLength="74" x="298" y="96.9268">string message</text><line style="stroke: #A80036; stroke-width: 1.5;" x1="293" x2="444" y1="103.3438" y2="103.3438"/><text fill="#000000" font-family="sans-serif" font-size="11" lengthAdjust="spacingAndGlyphs" textLength="39" x="298" y="118.7627">create()</text><text fill="#000000" font-family="sans-serif" font-size="11" lengthAdjust="spacingAndGlyphs" textLength="40" x="298" y="132.5986">deploy()</text><text fill="#000000" font-family="sans-serif" font-size="11" lengthAdjust="spacingAndGlyphs" textLength="34" x="298" y="146.4346">failed()</text><!--link Model to DataTransform--><path d="M280.245,129.968 C223.694,161.025 152.719,200.0026 107.722,224.7144 " fill="none" id="Model-DataTransform" style="stroke: #A80036; stroke-width: 1.0;"/><polygon fill="#A80036" points="96.3094,230.9817,106.1236,230.1559,100.6921,228.575,102.2729,223.1436,96.3094,230.9817" style="stroke: #A80036; stroke-width: 1.0;"/><line style="stroke: #A80036; stroke-width: 1.0;" x1="100.6921" x2="107.704" y1="228.575" y2="224.7239"/><polygon fill="#FFFFFF" points="291.929,123.551,284.7444,122.9336,281.4112,129.3282,288.5958,129.9455,291.929,123.551" style="stroke: #A80036; stroke-width: 1.0;"/><text fill="#000000" font-family="sans-serif" font-size="13" lengthAdjust="spacingAndGlyphs" textLength="61" x="181.5" y="197.4951">transforms</text><text fill="#000000" font-family="sans-serif" font-size="13" lengthAdjust="spacingAndGlyphs" textLength="7" x="98.6518" y="219.983">n</text><!--link Model to DataChannel--><path d="M290.674,162.468 C270.191,183.7776 249.477,205.3282 233.844,221.5922 " fill="none" id="Model-DataChannel" style="stroke: #A80036; stroke-width: 1.0;"/><polygon fill="#A80036" points="224.815,230.9864,233.9356,227.2696,228.2798,227.3816,228.1678,221.7258,224.815,230.9864" style="stroke: #A80036; stroke-width: 1.0;"/><line style="stroke: #A80036; stroke-width: 1.0;" x1="228.2798" x2="233.8235" y1="227.3816" y2="221.6139"/><polygon fill="#FFFFFF" points="299.755,153.021,292.7133,154.575,291.4395,161.6727,298.4812,160.1187,299.755,153.021" style="stroke: #A80036; stroke-width: 1.0;"/><text fill="#000000" font-family="sans-serif" font-size="13" lengthAdjust="spacingAndGlyphs" textLength="38" x="270.5" y="197.4951">design</text><text fill="#000000" font-family="sans-serif" font-size="13" lengthAdjust="spacingAndGlyphs" textLength="7" x="222.2185" y="219.9892">1</text><!--link Model to DataStreamInstance--><path d="M368.5,166.193 C368.5,184.57 368.5,202.8859 368.5,217.6017 " fill="none" id="Model-DataStreamInstance" style="stroke: #A80036; stroke-width: 1.0;"/><polygon fill="#A80036" points="368.5,230.9864,372.5,221.9864,368.5,225.9864,364.5,221.9864,368.5,230.9864" style="stroke: #A80036; stroke-width: 1.0;"/><line style="stroke: #A80036; stroke-width: 1.0;" x1="368.5" x2="368.5" y1="225.9864" y2="217.9864"/><polygon fill="#FFFFFF" points="368.5,153.021,364.5,159.021,368.5,165.021,372.5,159.021,368.5,153.021" style="stroke: #A80036; stroke-width: 1.0;"/><text fill="#000000" font-family="sans-serif" font-size="13" lengthAdjust="spacingAndGlyphs" textLength="40" x="369.5" y="197.4951">stream</text><text fill="#000000" font-family="sans-serif" font-size="13" lengthAdjust="spacingAndGlyphs" textLength="7" x="360.3844" y="219.9892">1</text><!--link Model to ServiceInstance--><path d="M450.193,162.468 C471.694,183.7776 493.437,205.3282 509.847,221.5922 " fill="none" id="Model-ServiceInstance" style="stroke: #A80036; stroke-width: 1.0;"/><polygon fill="#A80036" points="519.325,230.9864,515.7486,221.8098,515.7738,227.4666,510.117,227.4918,519.325,230.9864" style="stroke: #A80036; stroke-width: 1.0;"/><line style="stroke: #A80036; stroke-width: 1.0;" x1="515.7738" x2="510.092" y1="227.4666" y2="221.8351"/><polygon fill="#FFFFFF" points="440.661,153.021,442.1065,160.0857,449.1838,161.4686,447.7383,154.4039,440.661,153.021" style="stroke: #A80036; stroke-width: 1.0;"/><text fill="#000000" font-family="sans-serif" font-size="13" lengthAdjust="spacingAndGlyphs" textLength="103" x="489.5" y="197.4951">transformInstance</text><text fill="#000000" font-family="sans-serif" font-size="13" lengthAdjust="spacingAndGlyphs" textLength="7" x="505.4161" y="219.9892">n</text><!--link Model to SABundleInstance--><path d="M457.347,115.858 C501.562,134.04 555.296,157.794 601.5,183 C623.425,194.9611 646.723,210.3458 665.206,223.2522 " fill="none" id="Model-SABundleInstance" style="stroke: #A80036; stroke-width: 1.0;"/><polygon fill="#A80036" points="676.037,230.9153,671.0003,222.4518,671.9553,228.0274,666.3797,228.9824,676.037,230.9153" style="stroke: #A80036; stroke-width: 1.0;"/><line style="stroke: #A80036; stroke-width: 1.0;" x1="671.9553" x2="665.425" y1="228.0274" y2="223.4069"/><polygon fill="#FFFFFF" points="445.143,110.881,449.1881,116.8507,456.2544,115.4128,452.2093,109.4431,445.143,110.881" style="stroke: #A80036; stroke-width: 1.0;"/><text fill="#000000" font-family="sans-serif" font-size="13" lengthAdjust="spacingAndGlyphs" textLength="38" x="631.5" y="197.4951">bundle</text><text fill="#000000" font-family="sans-serif" font-size="13" lengthAdjust="spacingAndGlyphs" textLength="7" x="660.4733" y="220.2294">1</text><!--
@startuml

class "InputChannelInstance" as Model {
 ref consumer
 string name
 string direction
 string message

 create()
 deploy()
 failed()
 
}

rectangle "DataTransform" as DataTransform #lightblue {
}

Model o- -> "n" DataTransform : transforms


rectangle "DataChannel" as DataChannel #lightblue {
}

Model o- -> "1" DataChannel : design


rectangle "DataStreamInstance" as DataStreamInstance #lightblue {
}

Model o- -> "1" DataStreamInstance : stream


rectangle "ServiceInstance" as ServiceInstance #lightblue {
}

Model o- -> "n" ServiceInstance : transformInstance


rectangle "SABundleInstance" as SABundleInstance #lightblue {
}

Model o- -> "1" SABundleInstance : bundle





@enduml

PlantUML version 1.2019.05(Sat Apr 20 09:45:36 PDT 2019)
(GPL source distribution)
Java Runtime: Java(TM) SE Runtime Environment
JVM: Java HotSpot(TM) Client VM
Java Version: 1.8.0_271-b09
Operating System: Windows 10
OS Version: 10.0
Default Encoding: Cp1252
Language: en
Country: US
--></g></svg>