<?xml version="1.0" encoding="us-ascii" standalone="no"?><svg xmlns="http://www.w3.org/2000/svg" xmlns:xlink="http://www.w3.org/1999/xlink" contentStyleType="text/css" height="299px" preserveAspectRatio="none" style="width:775px;height:299px;background:#FFFFFF;" version="1.1" viewBox="0 0 775 299" width="775px" zoomAndPan="magnify"><defs/><g><!--entity DataTransform--><g id="elem_DataTransform"><rect fill="#ADD8E6" height="37.6094" rx="2.5" ry="2.5" style="stroke:#181818;stroke-width:0.5;" width="115" x="7" y="256"/><text fill="#000000" font-family="sans-serif" font-size="14" lengthAdjust="spacing" textLength="95" x="17" y="280.5332">DataTransform</text></g><!--entity DataChannel--><g id="elem_DataChannel"><rect fill="#ADD8E6" height="37.6094" rx="2.5" ry="2.5" style="stroke:#181818;stroke-width:0.5;" width="103" x="157" y="256"/><text fill="#000000" font-family="sans-serif" font-size="14" lengthAdjust="spacing" textLength="83" x="167" y="280.5332">DataChannel</text></g><!--entity DataStreamInstance--><g id="elem_DataStreamInstance"><rect fill="#ADD8E6" height="37.6094" rx="2.5" ry="2.5" style="stroke:#181818;stroke-width:0.5;" width="148" x="295.5" y="256"/><text fill="#000000" font-family="sans-serif" font-size="14" lengthAdjust="spacing" textLength="128" x="305.5" y="280.5332">DataStreamInstance</text></g><!--entity ServiceInstance--><g id="elem_ServiceInstance"><rect fill="#ADD8E6" height="37.6094" rx="2.5" ry="2.5" style="stroke:#181818;stroke-width:0.5;" width="120" x="478.5" y="256"/><text fill="#000000" font-family="sans-serif" font-size="14" lengthAdjust="spacing" textLength="100" x="488.5" y="280.5332">ServiceInstance</text></g><!--entity SABundleInstance--><g id="elem_SABundleInstance"><rect fill="#ADD8E6" height="37.6094" rx="2.5" ry="2.5" style="stroke:#181818;stroke-width:0.5;" width="135" x="634" y="256"/><text fill="#000000" font-family="sans-serif" font-size="14" lengthAdjust="spacing" textLength="115" x="644" y="280.5332">SABundleInstance</text></g><!--class Model--><g id="elem_Model"><rect codeLine="2" fill="#F1F1F1" height="171.2656" id="Model" rx="2.5" ry="2.5" style="stroke:#181818;stroke-width:0.5;" width="169" x="285" y="7"/><ellipse cx="300" cy="23" fill="#ADD1B2" rx="11" ry="11" style="stroke:#181818;stroke-width:1.0;"/><path d="M302.7656,18.875 Q302.9219,18.6563 303.1094,18.5469 Q303.2969,18.4375 303.5156,18.4375 Q303.8906,18.4375 304.125,18.6953 Q304.3594,18.9531 304.3594,19.5625 L304.3594,21.0156 Q304.3594,21.625 304.125,21.8906 Q303.8906,22.1563 303.5156,22.1563 Q303.1719,22.1563 302.9688,21.9531 Q302.7656,21.7656 302.6563,21.25 Q302.6094,20.8906 302.4219,20.7031 Q302.0938,20.3281 301.4844,20.1094 Q300.875,19.8906 300.25,19.8906 Q299.4844,19.8906 298.8516,20.2188 Q298.2188,20.5469 297.7266,21.2969 Q297.2344,22.0469 297.2344,23.0781 L297.2344,24.1719 Q297.2344,25.4063 298.125,26.2266 Q299.0156,27.0469 300.6094,27.0469 Q301.5469,27.0469 302.2031,26.7969 Q302.5938,26.6406 303.0156,26.2031 Q303.2813,25.9375 303.4297,25.8594 Q303.5781,25.7813 303.7813,25.7813 Q304.1094,25.7813 304.3672,26.0391 Q304.625,26.2969 304.625,26.6406 Q304.625,26.9844 304.2813,27.3906 Q303.7813,27.9688 302.9844,28.2969 Q301.9063,28.75 300.6094,28.75 Q299.0938,28.75 297.8906,28.125 Q296.9063,27.625 296.2188,26.5547 Q295.5313,25.4844 295.5313,24.2031 L295.5313,23.0469 Q295.5313,21.7188 296.1484,20.5703 Q296.7656,19.4219 297.8594,18.8047 Q298.9531,18.1875 300.1875,18.1875 Q300.9219,18.1875 301.5703,18.3516 Q302.2188,18.5156 302.7656,18.875 Z " fill="#000000"/><text fill="#000000" font-family="sans-serif" font-size="14" lengthAdjust="spacing" textLength="137" x="314" y="28.7285">InputChannelInstance</text><line style="stroke:#181818;stroke-width:0.5;" x1="286" x2="453" y1="39" y2="39"/><text fill="#000000" font-family="sans-serif" font-size="14" lengthAdjust="spacing" textLength="83" x="291" y="57.5332">ref consumer</text><text fill="#000000" font-family="sans-serif" font-size="14" lengthAdjust="spacing" textLength="74" x="291" y="75.1426">string name</text><text fill="#000000" font-family="sans-serif" font-size="14" lengthAdjust="spacing" textLength="93" x="291" y="92.752">string direction</text><text fill="#000000" font-family="sans-serif" font-size="14" lengthAdjust="spacing" textLength="96" x="291" y="110.3613">string message</text><line style="stroke:#181818;stroke-width:0.5;" x1="286" x2="453" y1="117.4375" y2="117.4375"/><text fill="#000000" font-family="sans-serif" font-size="14" lengthAdjust="spacing" textLength="50" x="291" y="135.9707">create()</text><text fill="#000000" font-family="sans-serif" font-size="14" lengthAdjust="spacing" textLength="52" x="291" y="153.5801">deploy()</text><text fill="#000000" font-family="sans-serif" font-size="14" lengthAdjust="spacing" textLength="44" x="291" y="171.1895">failed()</text></g><!--link Model to DataTransform--><g id="link_Model_DataTransform"><path codeLine="17" d="M274.6226,149.651 C211.5026,187.001 144.3635,226.7341 100.3635,252.7741 " fill="none" id="Model-DataTransform" style="stroke:#181818;stroke-width:1.0;"/><polygon fill="none" points="284.95,143.54,277.7493,143.153,274.6226,149.651,281.8233,150.038,284.95,143.54" style="stroke:#181818;stroke-width:1.0;"/><polygon fill="#181818" points="95.2,255.83,104.9825,254.6886,99.5029,253.2835,100.908,247.8039,95.2,255.83" style="stroke:#181818;stroke-width:1.0;"/><text fill="#000000" font-family="sans-serif" font-size="13" lengthAdjust="spacing" textLength="61" x="173.5" y="222.4951">transforms</text><text fill="#000000" font-family="sans-serif" font-size="13" lengthAdjust="spacing" textLength="7" x="96.53" y="245.118">n</text></g><!--link Model to DataChannel--><g id="link_Model_DataChannel"><path codeLine="23" d="M285.9628,187.1557 C259.9828,216.2857 245.2934,232.752 228.8134,251.232 " fill="none" id="Model-DataChannel" style="stroke:#181818;stroke-width:1.0;"/><polygon fill="none" points="293.95,178.2,286.9712,180.0154,285.9628,187.1557,292.9416,185.3402,293.95,178.2" style="stroke:#181818;stroke-width:1.0;"/><polygon fill="#181818" points="224.82,255.71,233.7955,251.6552,228.1478,251.9783,227.8247,246.3307,224.82,255.71" style="stroke:#181818;stroke-width:1.0;"/><text fill="#000000" font-family="sans-serif" font-size="13" lengthAdjust="spacing" textLength="38" x="266.5" y="222.4951">design</text><text fill="#000000" font-family="sans-serif" font-size="13" lengthAdjust="spacing" textLength="7" x="221.5859" y="245.2977">1</text></g><!--link Model to DataStreamInstance--><g id="link_Model_DataStreamInstance"><path codeLine="29" d="M369.5,190.2 C369.5,219.33 369.5,231.23 369.5,249.71 " fill="none" id="Model-DataStreamInstance" style="stroke:#181818;stroke-width:1.0;"/><polygon fill="none" points="369.5,178.2,365.5,184.2,369.5,190.2,373.5,184.2,369.5,178.2" style="stroke:#181818;stroke-width:1.0;"/><polygon fill="#181818" points="369.5,255.71,373.5,246.71,369.5,250.71,365.5,246.71,369.5,255.71" style="stroke:#181818;stroke-width:1.0;"/><text fill="#000000" font-family="sans-serif" font-size="13" lengthAdjust="spacing" textLength="40" x="370.5" y="222.4951">stream</text><text fill="#000000" font-family="sans-serif" font-size="13" lengthAdjust="spacing" textLength="7" x="361.4719" y="245.2977">1</text></g><!--link Model to ServiceInstance--><g id="link_Model_ServiceInstance"><path codeLine="35" d="M457.0026,186.9589 C484.2826,216.0889 499.9695,232.8498 517.2695,251.3298 " fill="none" id="Model-ServiceInstance" style="stroke:#181818;stroke-width:1.0;"/><polygon fill="none" points="448.8,178.2,449.9817,185.3136,457.0026,186.9589,455.8209,179.8452,448.8,178.2" style="stroke:#181818;stroke-width:1.0;"/><polygon fill="#181818" points="521.37,255.71,518.1394,246.4061,517.9529,252.0599,512.2991,251.8734,521.37,255.71" style="stroke:#181818;stroke-width:1.0;"/><text fill="#000000" font-family="sans-serif" font-size="13" lengthAdjust="spacing" textLength="103" x="494.5" y="222.4951">transformInstance</text><text fill="#000000" font-family="sans-serif" font-size="13" lengthAdjust="spacing" textLength="7" x="508.3099" y="245.2977">n</text></g><!--link Model to SABundleInstance--><g id="link_Model_SABundleInstance"><path codeLine="41" d="M465.161,135.505 C511.121,156.545 557.47,179.36 606.5,208 C631.65,222.69 653.9558,238.3425 672.7658,252.2525 " fill="none" id="Model-SABundleInstance" style="stroke:#181818;stroke-width:1.0;"/><polygon fill="none" points="454.25,130.51,458.0405,136.6445,465.161,135.505,461.3705,129.3705,454.25,130.51" style="stroke:#181818;stroke-width:1.0;"/><polygon fill="#181818" points="677.59,255.82,672.732,247.2526,673.5698,252.8471,667.9754,253.6849,677.59,255.82" style="stroke:#181818;stroke-width:1.0;"/><text fill="#000000" font-family="sans-serif" font-size="13" lengthAdjust="spacing" textLength="38" x="633.5" y="222.4951">bundle</text><text fill="#000000" font-family="sans-serif" font-size="13" lengthAdjust="spacing" textLength="7" x="662.1957" y="245.1049">1</text></g><!--SRC=[ZP2_JWCn3CRtF8KL5XWwiDw0n9-b0rDv0JVnfP5oJXNda13YtKbAUo8vYPB9_kbpFdys0KL0R_auv-S3CbFOicHaGnfGu3LQ2l2f8D489hBC4oK5afDd1umJBOtrYKpsaHSoaGWwKWfC8inqUwV0qZ74ZrgDw0FPMgalfUeiiWi4-WKplYLa6MEQJbiq16w2TuUy3pELnShepuvnita0pReJ3v0ljQYLpJdoOdBk_xIururqA974Erv_liibzTISSut_OzLD3FM-1RIEEqhltb1Zrx5hb-lblsvtOPtduzFCDdIc7RoMSAKVO7y2ghvl]--></g></svg>