<?xml version="1.0" encoding="UTF-8" standalone="no"?><svg xmlns="http://www.w3.org/2000/svg" xmlns:xlink="http://www.w3.org/1999/xlink" contentScriptType="application/ecmascript" contentStyleType="text/css" height="897px" preserveAspectRatio="none" style="width:323px;height:897px;" version="1.1" viewBox="0 0 323 897" width="323px" zoomAndPan="magnify"><defs><filter height="300%" id="fm0beyqup6qa6" width="300%" x="-1" y="-1"><feGaussianBlur result="blurOut" stdDeviation="2.0"/><feColorMatrix in="blurOut" result="blurOut2" type="matrix" values="0 0 0 0 0 0 0 0 0 0 0 0 0 0 0 0 0 0 .4 0"/><feOffset dx="4.0" dy="4.0" in="blurOut2" result="blurOut3"/><feBlend in="SourceGraphic" in2="blurOut3" mode="normal"/></filter></defs><g><!--cluster InputChannelInstance--><rect fill="#FFCC88" filter="url(#fm0beyqup6qa6)" height="862" rx="12.5" ry="12.5" style="stroke: #A80036; stroke-width: 1.5;" width="223" x="22" y="24"/><rect fill="#FFFFFF" height="828.3906" rx="12.5" ry="12.5" style="stroke: #FFFFFF; stroke-width: 1.0;" width="217" x="25" y="54.6094"/><line style="stroke: #A80036; stroke-width: 1.5;" x1="22" x2="245" y1="51.6094" y2="51.6094"/><text fill="#000000" font-family="sans-serif" font-size="14" lengthAdjust="spacingAndGlyphs" textLength="137" x="65" y="42.5332">InputChannelInstance</text><rect fill="#FFCC88" filter="url(#fm0beyqup6qa6)" height="50" rx="12.5" ry="12.5" style="stroke: #A80036; stroke-width: 1.5;" width="50" x="108" y="60"/><line style="stroke: #A80036; stroke-width: 1.5;" x1="108" x2="158" y1="87.6094" y2="87.6094"/><text fill="#000000" font-family="sans-serif" font-size="14" lengthAdjust="spacingAndGlyphs" textLength="18" x="124" y="79.5332">Init</text><rect fill="#FFCC88" filter="url(#fm0beyqup6qa6)" height="50" rx="12.5" ry="12.5" style="stroke: #A80036; stroke-width: 1.5;" width="71" x="97.5" y="250"/><line style="stroke: #A80036; stroke-width: 1.5;" x1="97.5" x2="168.5" y1="277.6094" y2="277.6094"/><text fill="#000000" font-family="sans-serif" font-size="14" lengthAdjust="spacingAndGlyphs" textLength="51" x="107.5" y="269.5332">Created</text><rect fill="#FFCC88" filter="url(#fm0beyqup6qa6)" height="50" rx="12.5" ry="12.5" style="stroke: #A80036; stroke-width: 1.5;" width="83" x="91.5" y="440"/><line style="stroke: #A80036; stroke-width: 1.5;" x1="91.5" x2="174.5" y1="467.6094" y2="467.6094"/><text fill="#000000" font-family="sans-serif" font-size="14" lengthAdjust="spacingAndGlyphs" textLength="63" x="101.5" y="459.5332">Deploying</text><rect fill="#FFCC88" filter="url(#fm0beyqup6qa6)" height="50" rx="12.5" ry="12.5" style="stroke: #A80036; stroke-width: 1.5;" width="72" x="50" y="630"/><line style="stroke: #A80036; stroke-width: 1.5;" x1="50" x2="122" y1="657.6094" y2="657.6094"/><text fill="#000000" font-family="sans-serif" font-size="14" lengthAdjust="spacingAndGlyphs" textLength="52" x="60" y="649.5332">Enabled</text><rect fill="#FFCC88" filter="url(#fm0beyqup6qa6)" height="50" rx="12.5" ry="12.5" style="stroke: #A80036; stroke-width: 1.5;" width="75" x="94.5" y="820"/><line style="stroke: #A80036; stroke-width: 1.5;" x1="94.5" x2="169.5" y1="847.6094" y2="847.6094"/><text fill="#000000" font-family="sans-serif" font-size="14" lengthAdjust="spacingAndGlyphs" textLength="55" x="104.5" y="839.5332">Disabled</text><rect fill="#FFCC88" filter="url(#fm0beyqup6qa6)" height="50" rx="12.5" ry="12.5" style="stroke: #A80036; stroke-width: 1.5;" width="59" x="167.5" y="630"/><line style="stroke: #A80036; stroke-width: 1.5;" x1="167.5" x2="226.5" y1="657.6094" y2="657.6094"/><text fill="#000000" font-family="sans-serif" font-size="14" lengthAdjust="spacingAndGlyphs" textLength="39" x="177.5" y="649.5332">Failed</text><rect fill="#FEFECE" filter="url(#fm0beyqup6qa6)" height="50" rx="12.5" ry="12.5" style="stroke: #A80036; stroke-width: 1.5;" width="50" x="261" y="820"/><line style="stroke: #A80036; stroke-width: 1.5;" x1="261" x2="311" y1="847.6094" y2="847.6094"/><text fill="#000000" font-family="sans-serif" font-size="14" lengthAdjust="spacingAndGlyphs" textLength="23" x="274.5" y="839.5332">Null</text><!--link Init to Created--><path d="M133,110.193 C133,144.599 133,207.591 133,244.63 " fill="none" id="Init-Created" style="stroke: #000000; stroke-width: 1.0;"/><polygon fill="#000000" points="133,249.9,137,240.9,133,244.9,129,240.9,133,249.9" style="stroke: #000000; stroke-width: 1.0;"/><text fill="#000000" font-family="sans-serif" font-size="13" lengthAdjust="spacingAndGlyphs" textLength="36" x="134" y="185.4951">create</text><!--link Created to Deploying--><path d="M133,300.193 C133,334.599 133,397.591 133,434.63 " fill="none" id="Created-Deploying" style="stroke: #000000; stroke-width: 1.0;"/><polygon fill="#000000" points="133,439.9,137,430.9,133,434.9,129,430.9,133,439.9" style="stroke: #000000; stroke-width: 1.0;"/><text fill="#000000" font-family="sans-serif" font-size="13" lengthAdjust="spacingAndGlyphs" textLength="38" x="134" y="375.4951">deploy</text><!--link Deploying to Enabled--><path d="M121.911,490.048 C114.625,506.801 105.462,529.848 100,551 C93.6774,575.484 90.0819,604.024 88.1222,624.845 " fill="none" id="Deploying-Enabled" style="stroke: #000000; stroke-width: 1.0;"/><polygon fill="#000000" points="87.6586,629.965,92.4548,621.3629,88.11,624.9854,84.4875,620.6406,87.6586,629.965" style="stroke: #000000; stroke-width: 1.0;"/><text fill="#000000" font-family="sans-serif" font-size="13" lengthAdjust="spacingAndGlyphs" textLength="52" x="101" y="565.4951">deployed</text><!--link Deploying to Failed--><path d="M141.236,490.193 C152.997,524.74 174.568,588.107 187.156,625.084 " fill="none" id="Deploying-Failed" style="stroke: #000000; stroke-width: 1.0;"/><polygon fill="#000000" points="188.796,629.9,189.6818,620.0911,187.1845,625.1668,182.1087,622.6695,188.796,629.9" style="stroke: #000000; stroke-width: 1.0;"/><text fill="#000000" font-family="sans-serif" font-size="13" lengthAdjust="spacingAndGlyphs" textLength="30" x="168" y="565.4951">failed</text><!--link Enabled to Disabled--><path d="M88.4992,680.395 C90.9594,701.428 95.3269,732.502 102,759 C106.779,777.979 114.049,798.7 120.235,814.932 " fill="none" id="Enabled-Disabled" style="stroke: #000000; stroke-width: 1.0;"/><polygon fill="#000000" points="122.116,819.8185,122.6163,809.9824,120.32,815.1522,115.1502,812.8559,122.116,819.8185" style="stroke: #000000; stroke-width: 1.0;"/><text fill="#000000" font-family="sans-serif" font-size="13" lengthAdjust="spacingAndGlyphs" textLength="41" x="103" y="755.4951">disable</text><!--link Disabled to Enabled--><path d="M142.414,819.7665 C150.025,798.566 157.637,767.159 149,741 C141.992,719.775 127.411,699.523 114.041,684.114 " fill="none" id="Disabled-Enabled" style="stroke: #000000; stroke-width: 1.0;"/><polygon fill="#000000" points="110.673,680.303,113.6355,689.6958,113.984,684.0496,119.6301,684.3982,110.673,680.303" style="stroke: #000000; stroke-width: 1.0;"/><text fill="#000000" font-family="sans-serif" font-size="13" lengthAdjust="spacingAndGlyphs" textLength="38" x="153" y="755.4951">enable</text><!--link Enabled to Null--><path d="M122.106,679.663 C145.416,695.705 175.794,718.09 200,741 C224.427,764.119 248.655,793.921 265.139,815.5154 " fill="none" id="Enabled-Null" style="stroke: #000000; stroke-width: 1.0;"/><polygon fill="#000000" points="268.331,819.7203,266.0762,810.133,265.3082,815.7375,259.7037,814.9695,268.331,819.7203" style="stroke: #000000; stroke-width: 1.0;"/><!--
@startuml



state InputChannelInstance #ffcc88 {

    state Init #ffcc88 {
    }

    state Created #ffcc88 {
    }

    state Deploying #ffcc88 {
    }

    state Enabled #ffcc88 {
    }

    state Disabled #ffcc88 {
    }

    state Failed #ffcc88 {
    }




Init -[#black]- -> Created : create

Created -[#black]- -> Deploying : deploy

Deploying -[#black]- -> Enabled : deployed

Deploying -[#black]- -> Failed : failed

Enabled -[#black]- -> Disabled : disable

Disabled -[#black]- -> Enabled : enable

}

 
 Enabled -[#black]- -> Null
 

@enduml

PlantUML version 1.2019.05(Sat Apr 20 09:45:36 PDT 2019)
(GPL source distribution)
Java Runtime: Java(TM) SE Runtime Environment
JVM: Java HotSpot(TM) Client VM
Java Version: 1.8.0_271-b09
Operating System: Windows 10
OS Version: 10.0
Default Encoding: Cp1252
Language: en
Country: US
--></g></svg>