<?xml version="1.0" encoding="UTF-8" standalone="no"?><svg xmlns="http://www.w3.org/2000/svg" xmlns:xlink="http://www.w3.org/1999/xlink" contentScriptType="application/ecmascript" contentStyleType="text/css" height="336px" preserveAspectRatio="none" style="width:1981px;height:336px;" version="1.1" viewBox="0 0 1981 336" width="1981px" zoomAndPan="magnify"><defs><filter height="300%" id="f1hunq23phye1t" width="300%" x="-1" y="-1"><feGaussianBlur result="blurOut" stdDeviation="2.0"/><feColorMatrix in="blurOut" result="blurOut2" type="matrix" values="0 0 0 0 0 0 0 0 0 0 0 0 0 0 0 0 0 0 .4 0"/><feOffset dx="4.0" dy="4.0" in="blurOut2" result="blurOut3"/><feBlend in="SourceGraphic" in2="blurOut3" mode="normal"/></filter></defs><g><ellipse cx="1010.8401" cy="171.168" fill="#FFFF00" filter="url(#f1hunq23phye1t)" rx="73.8401" ry="17.168" style="stroke: #A80036; stroke-width: 1.5;"/><text fill="#000000" font-family="sans-serif" font-size="14" lengthAdjust="spacingAndGlyphs" textLength="111" x="955.3401" y="176.4727">Update Capability</text><!--entity DevOpsEngineer--><ellipse cx="1011" cy="18" fill="#FEFECE" filter="url(#f1hunq23phye1t)" rx="8" ry="8" style="stroke: #A80036; stroke-width: 2.0;"/><path d="M1011,26 L1011,53 M998,34 L1024,34 M1011,53 L998,68 M1011,53 L1024,68 " fill="none" filter="url(#f1hunq23phye1t)" style="stroke: #A80036; stroke-width: 2.0;"/><text fill="#000000" font-family="sans-serif" font-size="14" lengthAdjust="spacingAndGlyphs" textLength="112" x="955" y="89.5332">DevOps Engineer</text><ellipse cx="102.0702" cy="296.114" fill="#D3D3D3" filter="url(#f1hunq23phye1t)" rx="96.0702" ry="21.614" style="stroke: #A80036; stroke-width: 1.5;"/><text fill="#000000" font-family="sans-serif" font-size="14" lengthAdjust="spacingAndGlyphs" textLength="164" x="20.0702" y="301.4187">AddaSABRtotheCapability</text><ellipse cx="329.13" cy="296.026" fill="#D3D3D3" filter="url(#f1hunq23phye1t)" rx="95.63" ry="21.526" style="stroke: #A80036; stroke-width: 1.5;"/><text fill="#000000" font-family="sans-serif" font-size="14" lengthAdjust="spacingAndGlyphs" textLength="163" x="247.63" y="301.3307">AddSABRstotheCapability</text><ellipse cx="574.9736" cy="295.9947" fill="#D3D3D3" filter="url(#f1hunq23phye1t)" rx="115.4736" ry="25.4947" style="stroke: #A80036; stroke-width: 1.5;"/><text fill="#000000" font-family="sans-serif" font-size="14" lengthAdjust="spacingAndGlyphs" textLength="207" x="471.4736" y="301.2994">RemoveaSABRfromtheCapability</text><ellipse cx="862.9138" cy="295.8828" fill="#D3D3D3" filter="url(#f1hunq23phye1t)" rx="137.4138" ry="29.8828" style="stroke: #A80036; stroke-width: 1.5;"/><text fill="#000000" font-family="sans-serif" font-size="14" lengthAdjust="spacingAndGlyphs" textLength="254" x="735.9138" y="301.1874">RemovemultipleSABRsfromtheCapability</text><ellipse cx="1158.8414" cy="296.0683" fill="#D3D3D3" filter="url(#f1hunq23phye1t)" rx="123.3414" ry="27.0683" style="stroke: #A80036; stroke-width: 1.5;"/><text fill="#000000" font-family="sans-serif" font-size="14" lengthAdjust="spacingAndGlyphs" textLength="224" x="1046.8414" y="301.373">UpdateConfigurationoftheCapability</text><ellipse cx="1423.8456" cy="296.1691" fill="#D3D3D3" filter="url(#f1hunq23phye1t)" rx="106.3456" ry="23.6691" style="stroke: #A80036; stroke-width: 1.5;"/><text fill="#000000" font-family="sans-serif" font-size="14" lengthAdjust="spacingAndGlyphs" textLength="187" x="1330.3456" y="301.4738">UpdatePoliciesoftheCapability</text><ellipse cx="1670.0397" cy="295.8079" fill="#D3D3D3" filter="url(#f1hunq23phye1t)" rx="104.5397" ry="23.3079" style="stroke: #A80036; stroke-width: 1.5;"/><text fill="#000000" font-family="sans-serif" font-size="14" lengthAdjust="spacingAndGlyphs" textLength="183" x="1578.5397" y="301.1126">UpdateSABRsoftheCapability</text><ellipse cx="1890.1792" cy="296.0358" fill="#FFFFE0" filter="url(#f1hunq23phye1t)" rx="80.6792" ry="18.5358" style="stroke: #A80036; stroke-width: 1.5;"/><text fill="#000000" font-family="sans-serif" font-size="14" lengthAdjust="spacingAndGlyphs" textLength="128" x="1826.1792" y="301.3405">Manage Capabilities</text><!--link DevOpsEngineer to UpdateCapability--><path d="M1011,93.279 C1011,111.913 1011,133.08 1011,148.454 " fill="none" id="DevOpsEngineer-UpdateCapability" style="stroke: #A80036; stroke-width: 1.0;"/><polygon fill="#A80036" points="1011,153.84,1015,144.84,1011,148.84,1007,144.84,1011,153.84" style="stroke: #A80036; stroke-width: 1.0;"/><!--link UpdateCapability to AddaSABRtotheCapability--><path d="M941.375,176.904 C802.492,187.417 481.539,215.379 216,266 C199.365,269.1711 181.546,273.3306 165.055,277.5054 " fill="none" id="UpdateCapability-AddaSABRtotheCapability" style="stroke: #A80036; stroke-width: 1.0;"/><polygon fill="#A80036" points="159.983,278.8005,169.6929,280.4493,164.8275,277.5634,167.7135,272.698,159.983,278.8005" style="stroke: #A80036; stroke-width: 1.0;"/><!--link UpdateCapability to AddSABRstotheCapability--><path d="M949.205,180.4 C844.375,195.053 625.216,227.4333 442,266 C425.835,269.4028 408.5,273.581 392.381,277.6952 " fill="none" id="UpdateCapability-AddSABRstotheCapability" style="stroke: #A80036; stroke-width: 1.0;"/><polygon fill="#A80036" points="387.421,278.969,397.1333,280.6035,392.2637,277.7248,395.1425,272.8552,387.421,278.969" style="stroke: #A80036; stroke-width: 1.0;"/><!--link UpdateCapability to RemoveaSABRfromtheCapability--><path d="M966.389,184.585 C891.549,205.698 739.985,248.456 648.991,274.1264 " fill="none" id="UpdateCapability-RemoveaSABRfromtheCapability" style="stroke: #A80036; stroke-width: 1.0;"/><polygon fill="#A80036" points="644.165,275.4877,653.9132,276.892,648.9769,274.1292,651.7397,269.1929,644.165,275.4877" style="stroke: #A80036; stroke-width: 1.0;"/><!--link UpdateCapability to RemovemultipleSABRsfromtheCapability--><path d="M992.256,187.578 C969.328,206.633 929.959,239.352 900.678,263.6864 " fill="none" id="UpdateCapability-RemovemultipleSABRsfromtheCapability" style="stroke: #A80036; stroke-width: 1.0;"/><polygon fill="#A80036" points="896.798,266.9114,906.2758,264.2334,900.6427,263.7148,901.1613,258.0818,896.798,266.9114" style="stroke: #A80036; stroke-width: 1.0;"/><!--link UpdateCapability to UpdateConfigurationoftheCapability--><path d="M1029.74,187.578 C1053.57,207.375 1095.13,241.9223 1124.7,266.4912 " fill="none" id="UpdateCapability-UpdateConfigurationoftheCapability" style="stroke: #A80036; stroke-width: 1.0;"/><polygon fill="#A80036" points="1128.6,269.7379,1124.2406,260.9064,1124.7567,266.5396,1119.1234,267.0557,1128.6,269.7379" style="stroke: #A80036; stroke-width: 1.0;"/><!--link UpdateCapability to UpdatePoliciesoftheCapability--><path d="M1054.42,184.931 C1126.71,206.46 1272.2,249.7903 1357.49,275.1911 " fill="none" id="UpdateCapability-UpdatePoliciesoftheCapability" style="stroke: #A80036; stroke-width: 1.0;"/><polygon fill="#A80036" points="1362.51,276.6874,1355.0279,270.2829,1357.7184,275.2589,1352.7423,277.9495,1362.51,276.6874" style="stroke: #A80036; stroke-width: 1.0;"/><!--link UpdateCapability to UpdateSABRsoftheCapability--><path d="M1070.42,181.204 C1169.68,196.847 1375.35,230.4032 1548,266 C1563.94,269.2869 1580.98,273.1274 1597.11,276.9179 " fill="none" id="UpdateCapability-UpdateSABRsoftheCapability" style="stroke: #A80036; stroke-width: 1.0;"/><polygon fill="#A80036" points="1602.08,278.092,1594.2329,272.1403,1597.2124,276.9488,1592.4039,279.9284,1602.08,278.092" style="stroke: #A80036; stroke-width: 1.0;"/><!--link UpdateCapability to ManageCapabilities--><path d="M1086.44,176.85 C1226.59,186.792 1536.16,213.141 1792,266 C1810.07,269.7337 1829.63,275.2199 1846.49,280.4185 " fill="none" id="UpdateCapability-ManageCapabilities" style="stroke: #A80036; stroke-width: 1.0;"/><polygon fill="#A80036" points="1081.11,176.474,1089.8014,181.1065,1086.0972,176.831,1090.3727,173.1269,1081.11,176.474" style="stroke: #A80036; stroke-width: 1.0;"/><text fill="#000000" font-family="sans-serif" font-size="13" lengthAdjust="spacingAndGlyphs" textLength="46" x="1623" y="232.4951">extends</text><!--
@startuml


usecase "Update Capability" as UpdateCapability #yellow

Actor "DevOps Engineer" as DevOpsEngineer

DevOpsEngineer - -> UpdateCapability



usecase "AddaSABRtotheCapability" as AddaSABRtotheCapability #lightgrey

UpdateCapability - -> AddaSABRtotheCapability

usecase "AddSABRstotheCapability" as AddSABRstotheCapability #lightgrey

UpdateCapability - -> AddSABRstotheCapability

usecase "RemoveaSABRfromtheCapability" as RemoveaSABRfromtheCapability #lightgrey

UpdateCapability - -> RemoveaSABRfromtheCapability

usecase "RemovemultipleSABRsfromtheCapability" as RemovemultipleSABRsfromtheCapability #lightgrey

UpdateCapability - -> RemovemultipleSABRsfromtheCapability

usecase "UpdateConfigurationoftheCapability" as UpdateConfigurationoftheCapability #lightgrey

UpdateCapability - -> UpdateConfigurationoftheCapability

usecase "UpdatePoliciesoftheCapability" as UpdatePoliciesoftheCapability #lightgrey

UpdateCapability - -> UpdatePoliciesoftheCapability

usecase "UpdateSABRsoftheCapability" as UpdateSABRsoftheCapability #lightgrey

UpdateCapability - -> UpdateSABRsoftheCapability



usecase "Manage Capabilities" as ManageCapabilities #lightyellow

UpdateCapability <- - ManageCapabilities : extends







@enduml

PlantUML version 1.2019.05(Sat Apr 20 09:45:36 PDT 2019)
(GPL source distribution)
Java Runtime: Java(TM) SE Runtime Environment
JVM: Java HotSpot(TM) Client VM
Java Version: 1.8.0_271-b09
Operating System: Windows 10
OS Version: 10.0
Default Encoding: Cp1252
Language: en
Country: US
--></g></svg>