<?xml version="1.0" encoding="UTF-8" standalone="no"?><svg xmlns="http://www.w3.org/2000/svg" xmlns:xlink="http://www.w3.org/1999/xlink" contentScriptType="application/ecmascript" contentStyleType="text/css" height="995px" preserveAspectRatio="none" style="width:1090px;height:995px;" version="1.1" viewBox="0 0 1090 995" width="1090px" zoomAndPan="magnify"><defs><filter height="300%" id="f1vl9plnmiotkf" width="300%" x="-1" y="-1"><feGaussianBlur result="blurOut" stdDeviation="2.0"/><feColorMatrix in="blurOut" result="blurOut2" type="matrix" values="0 0 0 0 0 0 0 0 0 0 0 0 0 0 0 0 0 0 .4 0"/><feOffset dx="4.0" dy="4.0" in="blurOut2" result="blurOut3"/><feBlend in="SourceGraphic" in2="blurOut3" mode="normal"/></filter></defs><g><rect fill="#00AAFF" height="980.3594" style="stroke: #A80036; stroke-width: 1.0;" width="134" x="378.5" y="4"/><text fill="#000000" font-family="sans-serif" font-size="13" font-weight="bold" lengthAdjust="spacingAndGlyphs" textLength="124" x="381.5" y="17.4951">Capability Manager</text><rect fill="#00AAFF" height="980.3594" style="stroke: #A80036; stroke-width: 1.0;" width="134" x="790.5" y="4"/><text fill="#000000" font-family="sans-serif" font-size="13" font-weight="bold" lengthAdjust="spacingAndGlyphs" textLength="124" x="793.5" y="17.4951">Capability Manager</text><line style="stroke: #A80036; stroke-width: 1.0; stroke-dasharray: 5.0,5.0;" x1="78" x2="78" y1="87.6094" y2="896.75"/><line style="stroke: #A80036; stroke-width: 1.0; stroke-dasharray: 5.0,5.0;" x1="215" x2="215" y1="87.6094" y2="896.75"/><line style="stroke: #A80036; stroke-width: 1.0; stroke-dasharray: 5.0,5.0;" x1="315" x2="315" y1="87.6094" y2="896.75"/><line style="stroke: #A80036; stroke-width: 1.0; stroke-dasharray: 5.0,5.0;" x1="445" x2="445" y1="87.6094" y2="896.75"/><line style="stroke: #A80036; stroke-width: 1.0; stroke-dasharray: 5.0,5.0;" x1="857" x2="857" y1="87.6094" y2="896.75"/><line style="stroke: #A80036; stroke-width: 1.0; stroke-dasharray: 5.0,5.0;" x1="1014.5" x2="1014.5" y1="87.6094" y2="896.75"/><text fill="#000000" font-family="sans-serif" font-size="14" lengthAdjust="spacingAndGlyphs" textLength="134" x="8" y="84.5332">ApplicationDeveloper</text><ellipse cx="78" cy="13" fill="#FEFECE" filter="url(#f1vl9plnmiotkf)" rx="8" ry="8" style="stroke: #A80036; stroke-width: 2.0;"/><path d="M78,21 L78,48 M65,29 L91,29 M78,48 L65,63 M78,48 L91,63 " fill="none" filter="url(#f1vl9plnmiotkf)" style="stroke: #A80036; stroke-width: 2.0;"/><text fill="#000000" font-family="sans-serif" font-size="14" lengthAdjust="spacingAndGlyphs" textLength="134" x="8" y="910.2832">ApplicationDeveloper</text><ellipse cx="78" cy="923.3594" fill="#FEFECE" filter="url(#f1vl9plnmiotkf)" rx="8" ry="8" style="stroke: #A80036; stroke-width: 2.0;"/><path d="M78,931.3594 L78,958.3594 M65,939.3594 L91,939.3594 M78,958.3594 L65,973.3594 M78,958.3594 L91,973.3594 " fill="none" filter="url(#f1vl9plnmiotkf)" style="stroke: #A80036; stroke-width: 2.0;"/><text fill="#000000" font-family="sans-serif" font-size="14" lengthAdjust="spacingAndGlyphs" textLength="108" x="158" y="84.5332">DevOpsEngineer</text><ellipse cx="215" cy="13" fill="#FEFECE" filter="url(#f1vl9plnmiotkf)" rx="8" ry="8" style="stroke: #A80036; stroke-width: 2.0;"/><path d="M215,21 L215,48 M202,29 L228,29 M215,48 L202,63 M215,48 L228,63 " fill="none" filter="url(#f1vl9plnmiotkf)" style="stroke: #A80036; stroke-width: 2.0;"/><text fill="#000000" font-family="sans-serif" font-size="14" lengthAdjust="spacingAndGlyphs" textLength="108" x="158" y="910.2832">DevOpsEngineer</text><ellipse cx="215" cy="923.3594" fill="#FEFECE" filter="url(#f1vl9plnmiotkf)" rx="8" ry="8" style="stroke: #A80036; stroke-width: 2.0;"/><path d="M215,931.3594 L215,958.3594 M202,939.3594 L228,939.3594 M215,958.3594 L202,973.3594 M215,958.3594 L228,973.3594 " fill="none" filter="url(#f1vl9plnmiotkf)" style="stroke: #A80036; stroke-width: 2.0;"/><text fill="#000000" font-family="sans-serif" font-size="14" lengthAdjust="spacingAndGlyphs" textLength="60" x="282" y="84.5332">EventBus</text><ellipse cx="315" cy="54" fill="#FEFECE" filter="url(#f1vl9plnmiotkf)" rx="12" ry="12" style="stroke: #A80036; stroke-width: 2.0;"/><line style="stroke: #A80036; stroke-width: 2.0;" x1="303" x2="327" y1="68" y2="68"/><text fill="#000000" font-family="sans-serif" font-size="14" lengthAdjust="spacingAndGlyphs" textLength="60" x="282" y="910.2832">EventBus</text><ellipse cx="315" cy="929.3594" fill="#FEFECE" filter="url(#f1vl9plnmiotkf)" rx="12" ry="12" style="stroke: #A80036; stroke-width: 2.0;"/><line style="stroke: #A80036; stroke-width: 2.0;" x1="303" x2="327" y1="943.3594" y2="943.3594"/><text fill="#000000" font-family="sans-serif" font-size="14" lengthAdjust="spacingAndGlyphs" textLength="18" x="433.5" y="84.5332">cm</text><path d="M425,42 L425,66 M425,54 L442,54 " fill="none" filter="url(#f1vl9plnmiotkf)" style="stroke: #A80036; stroke-width: 2.0;"/><ellipse cx="454" cy="54" fill="#FFFFFF" filter="url(#f1vl9plnmiotkf)" rx="12" ry="12" style="stroke: #A80036; stroke-width: 2.0;"/><text fill="#000000" font-family="sans-serif" font-size="14" lengthAdjust="spacingAndGlyphs" textLength="18" x="433.5" y="910.2832">cm</text><path d="M425,917.3594 L425,941.3594 M425,929.3594 L442,929.3594 " fill="none" filter="url(#f1vl9plnmiotkf)" style="stroke: #A80036; stroke-width: 2.0;"/><ellipse cx="454" cy="929.3594" fill="#FFFFFF" filter="url(#f1vl9plnmiotkf)" rx="12" ry="12" style="stroke: #A80036; stroke-width: 2.0;"/><rect fill="#FEFECE" filter="url(#f1vl9plnmiotkf)" height="31.6094" style="stroke: #A80036; stroke-width: 1.5;" width="73" x="819" y="51"/><text fill="#000000" font-family="sans-serif" font-size="14" lengthAdjust="spacingAndGlyphs" textLength="59" x="826" y="72.5332">capability</text><rect fill="#FEFECE" filter="url(#f1vl9plnmiotkf)" height="31.6094" style="stroke: #A80036; stroke-width: 1.5;" width="73" x="819" y="895.75"/><text fill="#000000" font-family="sans-serif" font-size="14" lengthAdjust="spacingAndGlyphs" textLength="59" x="826" y="917.2832">capability</text><rect fill="#FEFECE" filter="url(#f1vl9plnmiotkf)" height="31.6094" style="stroke: #A80036; stroke-width: 1.5;" width="133" x="946.5" y="51"/><text fill="#000000" font-family="sans-serif" font-size="14" lengthAdjust="spacingAndGlyphs" textLength="119" x="953.5" y="72.5332">capability manager</text><rect fill="#FEFECE" filter="url(#f1vl9plnmiotkf)" height="31.6094" style="stroke: #A80036; stroke-width: 1.5;" width="133" x="946.5" y="895.75"/><text fill="#000000" font-family="sans-serif" font-size="14" lengthAdjust="spacingAndGlyphs" textLength="119" x="953.5" y="917.2832">capability manager</text><polygon fill="#A80036" points="433.5,115.9609,443.5,119.9609,433.5,123.9609,437.5,119.9609" style="stroke: #A80036; stroke-width: 1.0;"/><line style="stroke: #A80036; stroke-width: 1.0;" x1="78" x2="439.5" y1="119.9609" y2="119.9609"/><text fill="#000000" font-family="sans-serif" font-size="13" lengthAdjust="spacingAndGlyphs" textLength="168" x="85" y="115.1045">Add SABRs to the Capability</text><polygon fill="#A80036" points="845.5,146.3125,855.5,150.3125,845.5,154.3125,849.5,150.3125" style="stroke: #A80036; stroke-width: 1.0;"/><line style="stroke: #A80036; stroke-width: 1.0;" x1="445.5" x2="851.5" y1="150.3125" y2="150.3125"/><text fill="#000000" font-family="sans-serif" font-size="13" lengthAdjust="spacingAndGlyphs" textLength="325" x="452.5" y="145.4561">create (name: UpdateCap2,file: ./templates/capability.js)</text><polygon fill="#A80036" points="326,181.6641,316,181.6641,326,185.6641" style="stroke: #A80036; stroke-width: 1.0;"/><line style="stroke: #A80036; stroke-width: 1.0; stroke-dasharray: 2.0,2.0;" x1="315" x2="856.5" y1="180.6641" y2="180.6641"/><text fill="#000000" font-family="sans-serif" font-size="13" lengthAdjust="spacingAndGlyphs" textLength="95" x="332" y="175.8076">capability.create</text><polygon fill="#A80036" points="1003,207.0156,1013,211.0156,1003,215.0156,1007,211.0156" style="stroke: #A80036; stroke-width: 1.0;"/><line style="stroke: #A80036; stroke-width: 1.0;" x1="445.5" x2="1009" y1="211.0156" y2="211.0156"/><text fill="#000000" font-family="sans-serif" font-size="13" lengthAdjust="spacingAndGlyphs" textLength="188" x="452.5" y="206.1592">release (capability: UpdateCap2)</text><polygon fill="#A80036" points="326,242.3672,316,242.3672,326,246.3672" style="stroke: #A80036; stroke-width: 1.0;"/><line style="stroke: #A80036; stroke-width: 1.0; stroke-dasharray: 2.0,2.0;" x1="315" x2="1014" y1="241.3672" y2="241.3672"/><text fill="#000000" font-family="sans-serif" font-size="13" lengthAdjust="spacingAndGlyphs" textLength="101" x="332" y="236.5107">capability.release</text><polygon fill="#A80036" points="1003,267.7188,1013,271.7188,1003,275.7188,1007,271.7188" style="stroke: #A80036; stroke-width: 1.0;"/><line style="stroke: #A80036; stroke-width: 1.0;" x1="445.5" x2="1009" y1="271.7188" y2="271.7188"/><text fill="#000000" font-family="sans-serif" font-size="13" lengthAdjust="spacingAndGlyphs" textLength="184" x="452.5" y="266.8623">deploy (capability: UpdateCap2)</text><polygon fill="#A80036" points="326,303.0703,316,303.0703,326,307.0703" style="stroke: #A80036; stroke-width: 1.0;"/><line style="stroke: #A80036; stroke-width: 1.0; stroke-dasharray: 2.0,2.0;" x1="315" x2="1014" y1="302.0703" y2="302.0703"/><text fill="#000000" font-family="sans-serif" font-size="13" lengthAdjust="spacingAndGlyphs" textLength="97" x="332" y="297.2139">capability.deploy</text><polygon fill="#A80036" points="1003,328.4219,1013,332.4219,1003,336.4219,1007,332.4219" style="stroke: #A80036; stroke-width: 1.0;"/><line style="stroke: #A80036; stroke-width: 1.0;" x1="445.5" x2="1009" y1="332.4219" y2="332.4219"/><text fill="#000000" font-family="sans-serif" font-size="13" lengthAdjust="spacingAndGlyphs" textLength="458" x="452.5" y="327.5654">update (capability: UpdateCap2,file: ./templates/capabilityUpdateAddSABRs.js)</text><polygon fill="#A80036" points="326,363.7734,316,363.7734,326,367.7734" style="stroke: #A80036; stroke-width: 1.0;"/><line style="stroke: #A80036; stroke-width: 1.0; stroke-dasharray: 2.0,2.0;" x1="315" x2="1014" y1="362.7734" y2="362.7734"/><text fill="#000000" font-family="sans-serif" font-size="13" lengthAdjust="spacingAndGlyphs" textLength="98" x="332" y="357.917">capability.update</text><polygon fill="#A80036" points="1003,389.125,1013,393.125,1003,397.125,1007,393.125" style="stroke: #A80036; stroke-width: 1.0;"/><line style="stroke: #A80036; stroke-width: 1.0;" x1="445.5" x2="1009" y1="393.125" y2="393.125"/><text fill="#000000" font-family="sans-serif" font-size="13" lengthAdjust="spacingAndGlyphs" textLength="188" x="452.5" y="388.2686">release (capability: UpdateCap2)</text><polygon fill="#A80036" points="326,424.4766,316,424.4766,326,428.4766" style="stroke: #A80036; stroke-width: 1.0;"/><line style="stroke: #A80036; stroke-width: 1.0; stroke-dasharray: 2.0,2.0;" x1="315" x2="1014" y1="423.4766" y2="423.4766"/><text fill="#000000" font-family="sans-serif" font-size="13" lengthAdjust="spacingAndGlyphs" textLength="101" x="332" y="418.6201">capability.release</text><polygon fill="#A80036" points="1003,449.8281,1013,453.8281,1003,457.8281,1007,453.8281" style="stroke: #A80036; stroke-width: 1.0;"/><line style="stroke: #A80036; stroke-width: 1.0;" x1="445.5" x2="1009" y1="453.8281" y2="453.8281"/><text fill="#000000" font-family="sans-serif" font-size="13" lengthAdjust="spacingAndGlyphs" textLength="184" x="452.5" y="448.9717">deploy (capability: UpdateCap2)</text><polygon fill="#A80036" points="326,485.1797,316,485.1797,326,489.1797" style="stroke: #A80036; stroke-width: 1.0;"/><line style="stroke: #A80036; stroke-width: 1.0; stroke-dasharray: 2.0,2.0;" x1="315" x2="1014" y1="484.1797" y2="484.1797"/><text fill="#000000" font-family="sans-serif" font-size="13" lengthAdjust="spacingAndGlyphs" textLength="97" x="332" y="479.3232">capability.deploy</text><polygon fill="#A80036" points="433.5,510.5313,443.5,514.5313,433.5,518.5313,437.5,514.5313" style="stroke: #A80036; stroke-width: 1.0;"/><line style="stroke: #A80036; stroke-width: 1.0;" x1="215" x2="439.5" y1="514.5313" y2="514.5313"/><text fill="#000000" font-family="sans-serif" font-size="13" lengthAdjust="spacingAndGlyphs" textLength="168" x="222" y="509.6748">Add SABRs to the Capability</text><polygon fill="#A80036" points="845.5,540.8828,855.5,544.8828,845.5,548.8828,849.5,544.8828" style="stroke: #A80036; stroke-width: 1.0;"/><line style="stroke: #A80036; stroke-width: 1.0;" x1="445.5" x2="851.5" y1="544.8828" y2="544.8828"/><text fill="#000000" font-family="sans-serif" font-size="13" lengthAdjust="spacingAndGlyphs" textLength="325" x="452.5" y="540.0264">create (name: UpdateCap2,file: ./templates/capability.js)</text><polygon fill="#A80036" points="326,576.2344,316,576.2344,326,580.2344" style="stroke: #A80036; stroke-width: 1.0;"/><line style="stroke: #A80036; stroke-width: 1.0; stroke-dasharray: 2.0,2.0;" x1="315" x2="856.5" y1="575.2344" y2="575.2344"/><text fill="#000000" font-family="sans-serif" font-size="13" lengthAdjust="spacingAndGlyphs" textLength="95" x="332" y="570.3779">capability.create</text><polygon fill="#A80036" points="1003,601.5859,1013,605.5859,1003,609.5859,1007,605.5859" style="stroke: #A80036; stroke-width: 1.0;"/><line style="stroke: #A80036; stroke-width: 1.0;" x1="445.5" x2="1009" y1="605.5859" y2="605.5859"/><text fill="#000000" font-family="sans-serif" font-size="13" lengthAdjust="spacingAndGlyphs" textLength="188" x="452.5" y="600.7295">release (capability: UpdateCap2)</text><polygon fill="#A80036" points="326,636.9375,316,636.9375,326,640.9375" style="stroke: #A80036; stroke-width: 1.0;"/><line style="stroke: #A80036; stroke-width: 1.0; stroke-dasharray: 2.0,2.0;" x1="315" x2="1014" y1="635.9375" y2="635.9375"/><text fill="#000000" font-family="sans-serif" font-size="13" lengthAdjust="spacingAndGlyphs" textLength="101" x="332" y="631.0811">capability.release</text><polygon fill="#A80036" points="1003,662.2891,1013,666.2891,1003,670.2891,1007,666.2891" style="stroke: #A80036; stroke-width: 1.0;"/><line style="stroke: #A80036; stroke-width: 1.0;" x1="445.5" x2="1009" y1="666.2891" y2="666.2891"/><text fill="#000000" font-family="sans-serif" font-size="13" lengthAdjust="spacingAndGlyphs" textLength="184" x="452.5" y="661.4326">deploy (capability: UpdateCap2)</text><polygon fill="#A80036" points="326,697.6406,316,697.6406,326,701.6406" style="stroke: #A80036; stroke-width: 1.0;"/><line style="stroke: #A80036; stroke-width: 1.0; stroke-dasharray: 2.0,2.0;" x1="315" x2="1014" y1="696.6406" y2="696.6406"/><text fill="#000000" font-family="sans-serif" font-size="13" lengthAdjust="spacingAndGlyphs" textLength="97" x="332" y="691.7842">capability.deploy</text><polygon fill="#A80036" points="1003,722.9922,1013,726.9922,1003,730.9922,1007,726.9922" style="stroke: #A80036; stroke-width: 1.0;"/><line style="stroke: #A80036; stroke-width: 1.0;" x1="445.5" x2="1009" y1="726.9922" y2="726.9922"/><text fill="#000000" font-family="sans-serif" font-size="13" lengthAdjust="spacingAndGlyphs" textLength="458" x="452.5" y="722.1357">update (capability: UpdateCap2,file: ./templates/capabilityUpdateAddSABRs.js)</text><polygon fill="#A80036" points="326,758.3438,316,758.3438,326,762.3438" style="stroke: #A80036; stroke-width: 1.0;"/><line style="stroke: #A80036; stroke-width: 1.0; stroke-dasharray: 2.0,2.0;" x1="315" x2="1014" y1="757.3438" y2="757.3438"/><text fill="#000000" font-family="sans-serif" font-size="13" lengthAdjust="spacingAndGlyphs" textLength="98" x="332" y="752.4873">capability.update</text><polygon fill="#A80036" points="1003,783.6953,1013,787.6953,1003,791.6953,1007,787.6953" style="stroke: #A80036; stroke-width: 1.0;"/><line style="stroke: #A80036; stroke-width: 1.0;" x1="445.5" x2="1009" y1="787.6953" y2="787.6953"/><text fill="#000000" font-family="sans-serif" font-size="13" lengthAdjust="spacingAndGlyphs" textLength="188" x="452.5" y="782.8389">release (capability: UpdateCap2)</text><polygon fill="#A80036" points="326,819.0469,316,819.0469,326,823.0469" style="stroke: #A80036; stroke-width: 1.0;"/><line style="stroke: #A80036; stroke-width: 1.0; stroke-dasharray: 2.0,2.0;" x1="315" x2="1014" y1="818.0469" y2="818.0469"/><text fill="#000000" font-family="sans-serif" font-size="13" lengthAdjust="spacingAndGlyphs" textLength="101" x="332" y="813.1904">capability.release</text><polygon fill="#A80036" points="1003,844.3984,1013,848.3984,1003,852.3984,1007,848.3984" style="stroke: #A80036; stroke-width: 1.0;"/><line style="stroke: #A80036; stroke-width: 1.0;" x1="445.5" x2="1009" y1="848.3984" y2="848.3984"/><text fill="#000000" font-family="sans-serif" font-size="13" lengthAdjust="spacingAndGlyphs" textLength="184" x="452.5" y="843.542">deploy (capability: UpdateCap2)</text><polygon fill="#A80036" points="326,879.75,316,879.75,326,883.75" style="stroke: #A80036; stroke-width: 1.0;"/><line style="stroke: #A80036; stroke-width: 1.0; stroke-dasharray: 2.0,2.0;" x1="315" x2="1014" y1="878.75" y2="878.75"/><text fill="#000000" font-family="sans-serif" font-size="13" lengthAdjust="spacingAndGlyphs" textLength="97" x="332" y="873.8936">capability.deploy</text><!--
@startuml

actor "ApplicationDeveloper"

actor "DevOpsEngineer"


entity EventBus

box Capability Manager #00aaff
    boundary cm #white
end box


box Capability Manager #00aaff
            participant capability
    end box


"ApplicationDeveloper" -> cm: Add SABRs to the Capability

    cm -> "capability": create (name: UpdateCap2,file: ./templates/capability.js)

    "capability" - -/ EventBus: capability.create

    cm -> "capability manager": release (capability: UpdateCap2)

    "capability manager" - -/ EventBus: capability.release

    cm -> "capability manager": deploy (capability: UpdateCap2)

    "capability manager" - -/ EventBus: capability.deploy

    cm -> "capability manager": update (capability: UpdateCap2,file: ./templates/capabilityUpdateAddSABRs.js)

    "capability manager" - -/ EventBus: capability.update

    cm -> "capability manager": release (capability: UpdateCap2)

    "capability manager" - -/ EventBus: capability.release

    cm -> "capability manager": deploy (capability: UpdateCap2)

    "capability manager" - -/ EventBus: capability.deploy


"DevOpsEngineer" -> cm: Add SABRs to the Capability

    cm -> "capability": create (name: UpdateCap2,file: ./templates/capability.js)

    "capability" - -/ EventBus: capability.create

    cm -> "capability manager": release (capability: UpdateCap2)

    "capability manager" - -/ EventBus: capability.release

    cm -> "capability manager": deploy (capability: UpdateCap2)

    "capability manager" - -/ EventBus: capability.deploy

    cm -> "capability manager": update (capability: UpdateCap2,file: ./templates/capabilityUpdateAddSABRs.js)

    "capability manager" - -/ EventBus: capability.update

    cm -> "capability manager": release (capability: UpdateCap2)

    "capability manager" - -/ EventBus: capability.release

    cm -> "capability manager": deploy (capability: UpdateCap2)

    "capability manager" - -/ EventBus: capability.deploy



@enduml

PlantUML version 1.2019.05(Sat Apr 20 09:45:36 PDT 2019)
(GPL source distribution)
Java Runtime: Java(TM) SE Runtime Environment
JVM: Java HotSpot(TM) 64-Bit Server VM
Java Version: 17.0.7+8-LTS-224
Operating System: Windows 11
OS Version: 10.0
Default Encoding: Cp1252
Language: en
Country: US
--></g></svg>