<?xml version="1.0" encoding="us-ascii" standalone="no"?><svg xmlns="http://www.w3.org/2000/svg" xmlns:xlink="http://www.w3.org/1999/xlink" contentStyleType="text/css" height="978px" preserveAspectRatio="none" style="width:1088px;height:978px;background:#FFFFFF;" version="1.1" viewBox="0 0 1088 978" width="1088px" zoomAndPan="magnify"><defs/><g><rect fill="#00AAFF" height="966.3594" style="stroke:#181818;stroke-width:0.5;" width="134" x="375.5" y="6"/><text fill="#000000" font-family="sans-serif" font-size="13" font-weight="bold" lengthAdjust="spacing" textLength="124" x="378.5" y="19.4951">Capability Manager</text><rect fill="#00AAFF" height="966.3594" style="stroke:#181818;stroke-width:0.5;" width="134" x="789.5" y="6"/><text fill="#000000" font-family="sans-serif" font-size="13" font-weight="bold" lengthAdjust="spacing" textLength="124" x="792.5" y="19.4951">Capability Manager</text><line style="stroke:#181818;stroke-width:0.5;stroke-dasharray:5.0,5.0;" x1="75" x2="75" y1="82.6094" y2="891.75"/><line style="stroke:#181818;stroke-width:0.5;stroke-dasharray:5.0,5.0;" x1="212" x2="212" y1="82.6094" y2="891.75"/><line style="stroke:#181818;stroke-width:0.5;stroke-dasharray:5.0,5.0;" x1="312" x2="312" y1="82.6094" y2="891.75"/><line style="stroke:#181818;stroke-width:0.5;stroke-dasharray:5.0,5.0;" x1="442" x2="442" y1="82.6094" y2="891.75"/><line style="stroke:#181818;stroke-width:0.5;stroke-dasharray:5.0,5.0;" x1="856" x2="856" y1="82.6094" y2="891.75"/><line style="stroke:#181818;stroke-width:0.5;stroke-dasharray:5.0,5.0;" x1="1015.5" x2="1015.5" y1="82.6094" y2="891.75"/><text fill="#000000" font-family="sans-serif" font-size="14" lengthAdjust="spacing" textLength="134" x="5" y="79.5332">ApplicationDeveloper</text><ellipse cx="75" cy="13.5" fill="#E2E2F0" rx="8" ry="8" style="stroke:#181818;stroke-width:0.5;"/><path d="M75,21.5 L75,48.5 M62,29.5 L88,29.5 M75,48.5 L62,63.5 M75,48.5 L88,63.5 " fill="none" style="stroke:#181818;stroke-width:0.5;"/><text fill="#000000" font-family="sans-serif" font-size="14" lengthAdjust="spacing" textLength="134" x="5" y="905.2832">ApplicationDeveloper</text><ellipse cx="75" cy="916.8594" fill="#E2E2F0" rx="8" ry="8" style="stroke:#181818;stroke-width:0.5;"/><path d="M75,924.8594 L75,951.8594 M62,932.8594 L88,932.8594 M75,951.8594 L62,966.8594 M75,951.8594 L88,966.8594 " fill="none" style="stroke:#181818;stroke-width:0.5;"/><text fill="#000000" font-family="sans-serif" font-size="14" lengthAdjust="spacing" textLength="108" x="155" y="79.5332">DevOpsEngineer</text><ellipse cx="212" cy="13.5" fill="#E2E2F0" rx="8" ry="8" style="stroke:#181818;stroke-width:0.5;"/><path d="M212,21.5 L212,48.5 M199,29.5 L225,29.5 M212,48.5 L199,63.5 M212,48.5 L225,63.5 " fill="none" style="stroke:#181818;stroke-width:0.5;"/><text fill="#000000" font-family="sans-serif" font-size="14" lengthAdjust="spacing" textLength="108" x="155" y="905.2832">DevOpsEngineer</text><ellipse cx="212" cy="916.8594" fill="#E2E2F0" rx="8" ry="8" style="stroke:#181818;stroke-width:0.5;"/><path d="M212,924.8594 L212,951.8594 M199,932.8594 L225,932.8594 M212,951.8594 L199,966.8594 M212,951.8594 L225,966.8594 " fill="none" style="stroke:#181818;stroke-width:0.5;"/><text fill="#000000" font-family="sans-serif" font-size="14" lengthAdjust="spacing" textLength="60" x="279" y="79.5332">EventBus</text><ellipse cx="312" cy="49" fill="#E2E2F0" rx="12" ry="12" style="stroke:#181818;stroke-width:0.5;"/><line style="stroke:#181818;stroke-width:0.5;" x1="300" x2="324" y1="63" y2="63"/><text fill="#000000" font-family="sans-serif" font-size="14" lengthAdjust="spacing" textLength="60" x="279" y="905.2832">EventBus</text><ellipse cx="312" cy="924.3594" fill="#E2E2F0" rx="12" ry="12" style="stroke:#181818;stroke-width:0.5;"/><line style="stroke:#181818;stroke-width:0.5;" x1="300" x2="324" y1="938.3594" y2="938.3594"/><text fill="#000000" font-family="sans-serif" font-size="14" lengthAdjust="spacing" textLength="18" x="430.5" y="79.5332">cm</text><path d="M422,37 L422,61 M422,49 L439,49 " fill="none" style="stroke:#181818;stroke-width:0.5;"/><ellipse cx="451" cy="49" fill="#FFFFFF" rx="12" ry="12" style="stroke:#181818;stroke-width:0.5;"/><text fill="#000000" font-family="sans-serif" font-size="14" lengthAdjust="spacing" textLength="18" x="430.5" y="905.2832">cm</text><path d="M422,912.3594 L422,936.3594 M422,924.3594 L439,924.3594 " fill="none" style="stroke:#181818;stroke-width:0.5;"/><ellipse cx="451" cy="924.3594" fill="#FFFFFF" rx="12" ry="12" style="stroke:#181818;stroke-width:0.5;"/><rect fill="#E2E2F0" height="31.6094" rx="2.5" ry="2.5" style="stroke:#181818;stroke-width:0.5;" width="73" x="820" y="50"/><text fill="#000000" font-family="sans-serif" font-size="14" lengthAdjust="spacing" textLength="59" x="827" y="71.5332">capability</text><rect fill="#E2E2F0" height="31.6094" rx="2.5" ry="2.5" style="stroke:#181818;stroke-width:0.5;" width="73" x="820" y="890.75"/><text fill="#000000" font-family="sans-serif" font-size="14" lengthAdjust="spacing" textLength="59" x="827" y="912.2832">capability</text><rect fill="#E2E2F0" height="31.6094" rx="2.5" ry="2.5" style="stroke:#181818;stroke-width:0.5;" width="133" x="949.5" y="50"/><text fill="#000000" font-family="sans-serif" font-size="14" lengthAdjust="spacing" textLength="119" x="956.5" y="71.5332">capability manager</text><rect fill="#E2E2F0" height="31.6094" rx="2.5" ry="2.5" style="stroke:#181818;stroke-width:0.5;" width="133" x="949.5" y="890.75"/><text fill="#000000" font-family="sans-serif" font-size="14" lengthAdjust="spacing" textLength="119" x="956.5" y="912.2832">capability manager</text><polygon fill="#181818" points="430.5,110.9609,440.5,114.9609,430.5,118.9609,434.5,114.9609" style="stroke:#181818;stroke-width:1.0;"/><line style="stroke:#181818;stroke-width:1.0;" x1="75" x2="436.5" y1="114.9609" y2="114.9609"/><text fill="#000000" font-family="sans-serif" font-size="13" lengthAdjust="spacing" textLength="168" x="82" y="110.1045">Add SABRs to the Capability</text><polygon fill="#181818" points="844.5,141.3125,854.5,145.3125,844.5,149.3125,848.5,145.3125" style="stroke:#181818;stroke-width:1.0;"/><line style="stroke:#181818;stroke-width:1.0;" x1="442.5" x2="850.5" y1="145.3125" y2="145.3125"/><text fill="#000000" font-family="sans-serif" font-size="13" lengthAdjust="spacing" textLength="325" x="449.5" y="140.4561">create (name: UpdateCap2,file: ./templates/capability.js)</text><polygon fill="#181818" points="323,176.6641,313,176.6641,323,180.6641" style="stroke:#181818;stroke-width:1.0;"/><line style="stroke:#181818;stroke-width:1.0;stroke-dasharray:2.0,2.0;" x1="312" x2="855.5" y1="175.6641" y2="175.6641"/><text fill="#000000" font-family="sans-serif" font-size="13" lengthAdjust="spacing" textLength="95" x="329" y="170.8076">capability.create</text><polygon fill="#181818" points="1004,202.0156,1014,206.0156,1004,210.0156,1008,206.0156" style="stroke:#181818;stroke-width:1.0;"/><line style="stroke:#181818;stroke-width:1.0;" x1="442.5" x2="1010" y1="206.0156" y2="206.0156"/><text fill="#000000" font-family="sans-serif" font-size="13" lengthAdjust="spacing" textLength="188" x="449.5" y="201.1592">release (capability: UpdateCap2)</text><polygon fill="#181818" points="323,237.3672,313,237.3672,323,241.3672" style="stroke:#181818;stroke-width:1.0;"/><line style="stroke:#181818;stroke-width:1.0;stroke-dasharray:2.0,2.0;" x1="312" x2="1015" y1="236.3672" y2="236.3672"/><text fill="#000000" font-family="sans-serif" font-size="13" lengthAdjust="spacing" textLength="101" x="329" y="231.5107">capability.release</text><polygon fill="#181818" points="1004,262.7188,1014,266.7188,1004,270.7188,1008,266.7188" style="stroke:#181818;stroke-width:1.0;"/><line style="stroke:#181818;stroke-width:1.0;" x1="442.5" x2="1010" y1="266.7188" y2="266.7188"/><text fill="#000000" font-family="sans-serif" font-size="13" lengthAdjust="spacing" textLength="184" x="449.5" y="261.8623">deploy (capability: UpdateCap2)</text><polygon fill="#181818" points="323,298.0703,313,298.0703,323,302.0703" style="stroke:#181818;stroke-width:1.0;"/><line style="stroke:#181818;stroke-width:1.0;stroke-dasharray:2.0,2.0;" x1="312" x2="1015" y1="297.0703" y2="297.0703"/><text fill="#000000" font-family="sans-serif" font-size="13" lengthAdjust="spacing" textLength="97" x="329" y="292.2139">capability.deploy</text><polygon fill="#181818" points="1004,323.4219,1014,327.4219,1004,331.4219,1008,327.4219" style="stroke:#181818;stroke-width:1.0;"/><line style="stroke:#181818;stroke-width:1.0;" x1="442.5" x2="1010" y1="327.4219" y2="327.4219"/><text fill="#000000" font-family="sans-serif" font-size="13" lengthAdjust="spacing" textLength="458" x="449.5" y="322.5654">update (capability: UpdateCap2,file: ./templates/capabilityUpdateAddSABRs.js)</text><polygon fill="#181818" points="323,358.7734,313,358.7734,323,362.7734" style="stroke:#181818;stroke-width:1.0;"/><line style="stroke:#181818;stroke-width:1.0;stroke-dasharray:2.0,2.0;" x1="312" x2="1015" y1="357.7734" y2="357.7734"/><text fill="#000000" font-family="sans-serif" font-size="13" lengthAdjust="spacing" textLength="98" x="329" y="352.917">capability.update</text><polygon fill="#181818" points="1004,384.125,1014,388.125,1004,392.125,1008,388.125" style="stroke:#181818;stroke-width:1.0;"/><line style="stroke:#181818;stroke-width:1.0;" x1="442.5" x2="1010" y1="388.125" y2="388.125"/><text fill="#000000" font-family="sans-serif" font-size="13" lengthAdjust="spacing" textLength="188" x="449.5" y="383.2686">release (capability: UpdateCap2)</text><polygon fill="#181818" points="323,419.4766,313,419.4766,323,423.4766" style="stroke:#181818;stroke-width:1.0;"/><line style="stroke:#181818;stroke-width:1.0;stroke-dasharray:2.0,2.0;" x1="312" x2="1015" y1="418.4766" y2="418.4766"/><text fill="#000000" font-family="sans-serif" font-size="13" lengthAdjust="spacing" textLength="101" x="329" y="413.6201">capability.release</text><polygon fill="#181818" points="1004,444.8281,1014,448.8281,1004,452.8281,1008,448.8281" style="stroke:#181818;stroke-width:1.0;"/><line style="stroke:#181818;stroke-width:1.0;" x1="442.5" x2="1010" y1="448.8281" y2="448.8281"/><text fill="#000000" font-family="sans-serif" font-size="13" lengthAdjust="spacing" textLength="184" x="449.5" y="443.9717">deploy (capability: UpdateCap2)</text><polygon fill="#181818" points="323,480.1797,313,480.1797,323,484.1797" style="stroke:#181818;stroke-width:1.0;"/><line style="stroke:#181818;stroke-width:1.0;stroke-dasharray:2.0,2.0;" x1="312" x2="1015" y1="479.1797" y2="479.1797"/><text fill="#000000" font-family="sans-serif" font-size="13" lengthAdjust="spacing" textLength="97" x="329" y="474.3232">capability.deploy</text><polygon fill="#181818" points="430.5,505.5313,440.5,509.5313,430.5,513.5313,434.5,509.5313" style="stroke:#181818;stroke-width:1.0;"/><line style="stroke:#181818;stroke-width:1.0;" x1="212" x2="436.5" y1="509.5313" y2="509.5313"/><text fill="#000000" font-family="sans-serif" font-size="13" lengthAdjust="spacing" textLength="168" x="219" y="504.6748">Add SABRs to the Capability</text><polygon fill="#181818" points="844.5,535.8828,854.5,539.8828,844.5,543.8828,848.5,539.8828" style="stroke:#181818;stroke-width:1.0;"/><line style="stroke:#181818;stroke-width:1.0;" x1="442.5" x2="850.5" y1="539.8828" y2="539.8828"/><text fill="#000000" font-family="sans-serif" font-size="13" lengthAdjust="spacing" textLength="325" x="449.5" y="535.0264">create (name: UpdateCap2,file: ./templates/capability.js)</text><polygon fill="#181818" points="323,571.2344,313,571.2344,323,575.2344" style="stroke:#181818;stroke-width:1.0;"/><line style="stroke:#181818;stroke-width:1.0;stroke-dasharray:2.0,2.0;" x1="312" x2="855.5" y1="570.2344" y2="570.2344"/><text fill="#000000" font-family="sans-serif" font-size="13" lengthAdjust="spacing" textLength="95" x="329" y="565.3779">capability.create</text><polygon fill="#181818" points="1004,596.5859,1014,600.5859,1004,604.5859,1008,600.5859" style="stroke:#181818;stroke-width:1.0;"/><line style="stroke:#181818;stroke-width:1.0;" x1="442.5" x2="1010" y1="600.5859" y2="600.5859"/><text fill="#000000" font-family="sans-serif" font-size="13" lengthAdjust="spacing" textLength="188" x="449.5" y="595.7295">release (capability: UpdateCap2)</text><polygon fill="#181818" points="323,631.9375,313,631.9375,323,635.9375" style="stroke:#181818;stroke-width:1.0;"/><line style="stroke:#181818;stroke-width:1.0;stroke-dasharray:2.0,2.0;" x1="312" x2="1015" y1="630.9375" y2="630.9375"/><text fill="#000000" font-family="sans-serif" font-size="13" lengthAdjust="spacing" textLength="101" x="329" y="626.0811">capability.release</text><polygon fill="#181818" points="1004,657.2891,1014,661.2891,1004,665.2891,1008,661.2891" style="stroke:#181818;stroke-width:1.0;"/><line style="stroke:#181818;stroke-width:1.0;" x1="442.5" x2="1010" y1="661.2891" y2="661.2891"/><text fill="#000000" font-family="sans-serif" font-size="13" lengthAdjust="spacing" textLength="184" x="449.5" y="656.4326">deploy (capability: UpdateCap2)</text><polygon fill="#181818" points="323,692.6406,313,692.6406,323,696.6406" style="stroke:#181818;stroke-width:1.0;"/><line style="stroke:#181818;stroke-width:1.0;stroke-dasharray:2.0,2.0;" x1="312" x2="1015" y1="691.6406" y2="691.6406"/><text fill="#000000" font-family="sans-serif" font-size="13" lengthAdjust="spacing" textLength="97" x="329" y="686.7842">capability.deploy</text><polygon fill="#181818" points="1004,717.9922,1014,721.9922,1004,725.9922,1008,721.9922" style="stroke:#181818;stroke-width:1.0;"/><line style="stroke:#181818;stroke-width:1.0;" x1="442.5" x2="1010" y1="721.9922" y2="721.9922"/><text fill="#000000" font-family="sans-serif" font-size="13" lengthAdjust="spacing" textLength="458" x="449.5" y="717.1357">update (capability: UpdateCap2,file: ./templates/capabilityUpdateAddSABRs.js)</text><polygon fill="#181818" points="323,753.3438,313,753.3438,323,757.3438" style="stroke:#181818;stroke-width:1.0;"/><line style="stroke:#181818;stroke-width:1.0;stroke-dasharray:2.0,2.0;" x1="312" x2="1015" y1="752.3438" y2="752.3438"/><text fill="#000000" font-family="sans-serif" font-size="13" lengthAdjust="spacing" textLength="98" x="329" y="747.4873">capability.update</text><polygon fill="#181818" points="1004,778.6953,1014,782.6953,1004,786.6953,1008,782.6953" style="stroke:#181818;stroke-width:1.0;"/><line style="stroke:#181818;stroke-width:1.0;" x1="442.5" x2="1010" y1="782.6953" y2="782.6953"/><text fill="#000000" font-family="sans-serif" font-size="13" lengthAdjust="spacing" textLength="188" x="449.5" y="777.8389">release (capability: UpdateCap2)</text><polygon fill="#181818" points="323,814.0469,313,814.0469,323,818.0469" style="stroke:#181818;stroke-width:1.0;"/><line style="stroke:#181818;stroke-width:1.0;stroke-dasharray:2.0,2.0;" x1="312" x2="1015" y1="813.0469" y2="813.0469"/><text fill="#000000" font-family="sans-serif" font-size="13" lengthAdjust="spacing" textLength="101" x="329" y="808.1904">capability.release</text><polygon fill="#181818" points="1004,839.3984,1014,843.3984,1004,847.3984,1008,843.3984" style="stroke:#181818;stroke-width:1.0;"/><line style="stroke:#181818;stroke-width:1.0;" x1="442.5" x2="1010" y1="843.3984" y2="843.3984"/><text fill="#000000" font-family="sans-serif" font-size="13" lengthAdjust="spacing" textLength="184" x="449.5" y="838.542">deploy (capability: UpdateCap2)</text><polygon fill="#181818" points="323,874.75,313,874.75,323,878.75" style="stroke:#181818;stroke-width:1.0;"/><line style="stroke:#181818;stroke-width:1.0;stroke-dasharray:2.0,2.0;" x1="312" x2="1015" y1="873.75" y2="873.75"/><text fill="#000000" font-family="sans-serif" font-size="13" lengthAdjust="spacing" textLength="97" x="329" y="868.8936">capability.deploy</text><!--SRC=[xLJ1JiCm3BtdAwpk0X9h9uuz86sm8q82yG5kwsr1QHAbwLZ_7jD0My7A9i6DvfGys- -zn78mzyP1jBHMoHozDFgEzgIC9HS9WI7Aq8EjrdehDRMu8EsbRs2zvysgheJ8p05kqM8crNlW7ZLkoS5iiK3SR0Jmoaoj2tGDv2NCNdVI4zCK31_4MVMVowBpCfSMjOUyAsbJUhxZDuBv3Qkdi2mAU5gk7Ylm1loE1jAY9MABd1hrz54AkIFq11SQIqhXsHPyuhhhgurK3CI9fz8g1gkahujVgij0EII3-Jpf7YyTt28E8YCce0pFmcOSASAAtVJHeQVlcbtjkFO7vsdnWgmopPzg1yhJqdKhCoRzOoj26hU-xVpHnfnXD1ZulmqINt-3QQQccPfcwdSpzGO0]--></g></svg>