<?xml version="1.0" encoding="us-ascii" standalone="no"?><svg xmlns="http://www.w3.org/2000/svg" xmlns:xlink="http://www.w3.org/1999/xlink" contentStyleType="text/css" height="583px" preserveAspectRatio="none" style="width:935px;height:583px;background:#FFFFFF;" version="1.1" viewBox="0 0 935 583" width="935px" zoomAndPan="magnify"><defs/><g><rect fill="#00AAFF" height="571.7891" style="stroke:#181818;stroke-width:0.5;" width="134" x="242.5" y="6"/><text fill="#000000" font-family="sans-serif" font-size="13" font-weight="bold" lengthAdjust="spacing" textLength="124" x="245.5" y="19.4951">Capability Manager</text><rect fill="#00AAFF" height="571.7891" style="stroke:#181818;stroke-width:0.5;" width="134" x="656.5" y="6"/><text fill="#000000" font-family="sans-serif" font-size="13" font-weight="bold" lengthAdjust="spacing" textLength="124" x="659.5" y="19.4951">Capability Manager</text><line style="stroke:#181818;stroke-width:0.5;stroke-dasharray:5.0,5.0;" x1="62" x2="62" y1="82.6094" y2="497.1797"/><line style="stroke:#181818;stroke-width:0.5;stroke-dasharray:5.0,5.0;" x1="162" x2="162" y1="82.6094" y2="497.1797"/><line style="stroke:#181818;stroke-width:0.5;stroke-dasharray:5.0,5.0;" x1="309" x2="309" y1="82.6094" y2="497.1797"/><line style="stroke:#181818;stroke-width:0.5;stroke-dasharray:5.0,5.0;" x1="723" x2="723" y1="82.6094" y2="497.1797"/><line style="stroke:#181818;stroke-width:0.5;stroke-dasharray:5.0,5.0;" x1="862.5" x2="862.5" y1="82.6094" y2="497.1797"/><text fill="#000000" font-family="sans-serif" font-size="14" lengthAdjust="spacing" textLength="108" x="5" y="79.5332">DevOpsEngineer</text><ellipse cx="62" cy="13.5" fill="#E2E2F0" rx="8" ry="8" style="stroke:#181818;stroke-width:0.5;"/><path d="M62,21.5 L62,48.5 M49,29.5 L75,29.5 M62,48.5 L49,63.5 M62,48.5 L75,63.5 " fill="none" style="stroke:#181818;stroke-width:0.5;"/><text fill="#000000" font-family="sans-serif" font-size="14" lengthAdjust="spacing" textLength="108" x="5" y="510.7129">DevOpsEngineer</text><ellipse cx="62" cy="522.2891" fill="#E2E2F0" rx="8" ry="8" style="stroke:#181818;stroke-width:0.5;"/><path d="M62,530.2891 L62,557.2891 M49,538.2891 L75,538.2891 M62,557.2891 L49,572.2891 M62,557.2891 L75,572.2891 " fill="none" style="stroke:#181818;stroke-width:0.5;"/><text fill="#000000" font-family="sans-serif" font-size="14" lengthAdjust="spacing" textLength="60" x="129" y="79.5332">EventBus</text><ellipse cx="162" cy="49" fill="#E2E2F0" rx="12" ry="12" style="stroke:#181818;stroke-width:0.5;"/><line style="stroke:#181818;stroke-width:0.5;" x1="150" x2="174" y1="63" y2="63"/><text fill="#000000" font-family="sans-serif" font-size="14" lengthAdjust="spacing" textLength="60" x="129" y="510.7129">EventBus</text><ellipse cx="162" cy="529.7891" fill="#E2E2F0" rx="12" ry="12" style="stroke:#181818;stroke-width:0.5;"/><line style="stroke:#181818;stroke-width:0.5;" x1="150" x2="174" y1="543.7891" y2="543.7891"/><text fill="#000000" font-family="sans-serif" font-size="14" lengthAdjust="spacing" textLength="18" x="297.5" y="79.5332">cm</text><path d="M289,37 L289,61 M289,49 L306,49 " fill="none" style="stroke:#181818;stroke-width:0.5;"/><ellipse cx="318" cy="49" fill="#FFFFFF" rx="12" ry="12" style="stroke:#181818;stroke-width:0.5;"/><text fill="#000000" font-family="sans-serif" font-size="14" lengthAdjust="spacing" textLength="18" x="297.5" y="510.7129">cm</text><path d="M289,517.7891 L289,541.7891 M289,529.7891 L306,529.7891 " fill="none" style="stroke:#181818;stroke-width:0.5;"/><ellipse cx="318" cy="529.7891" fill="#FFFFFF" rx="12" ry="12" style="stroke:#181818;stroke-width:0.5;"/><rect fill="#E2E2F0" height="31.6094" rx="2.5" ry="2.5" style="stroke:#181818;stroke-width:0.5;" width="73" x="687" y="50"/><text fill="#000000" font-family="sans-serif" font-size="14" lengthAdjust="spacing" textLength="59" x="694" y="71.5332">capability</text><rect fill="#E2E2F0" height="31.6094" rx="2.5" ry="2.5" style="stroke:#181818;stroke-width:0.5;" width="73" x="687" y="496.1797"/><text fill="#000000" font-family="sans-serif" font-size="14" lengthAdjust="spacing" textLength="59" x="694" y="517.7129">capability</text><rect fill="#E2E2F0" height="31.6094" rx="2.5" ry="2.5" style="stroke:#181818;stroke-width:0.5;" width="133" x="796.5" y="50"/><text fill="#000000" font-family="sans-serif" font-size="14" lengthAdjust="spacing" textLength="119" x="803.5" y="71.5332">capability manager</text><rect fill="#E2E2F0" height="31.6094" rx="2.5" ry="2.5" style="stroke:#181818;stroke-width:0.5;" width="133" x="796.5" y="496.1797"/><text fill="#000000" font-family="sans-serif" font-size="14" lengthAdjust="spacing" textLength="119" x="803.5" y="517.7129">capability manager</text><polygon fill="#181818" points="297.5,110.9609,307.5,114.9609,297.5,118.9609,301.5,114.9609" style="stroke:#181818;stroke-width:1.0;"/><line style="stroke:#181818;stroke-width:1.0;" x1="62" x2="303.5" y1="114.9609" y2="114.9609"/><text fill="#000000" font-family="sans-serif" font-size="13" lengthAdjust="spacing" textLength="185" x="69" y="110.1045">Update SABRs of the Capability</text><polygon fill="#181818" points="711.5,141.3125,721.5,145.3125,711.5,149.3125,715.5,145.3125" style="stroke:#181818;stroke-width:1.0;"/><line style="stroke:#181818;stroke-width:1.0;" x1="309.5" x2="717.5" y1="145.3125" y2="145.3125"/><text fill="#000000" font-family="sans-serif" font-size="13" lengthAdjust="spacing" textLength="325" x="316.5" y="140.4561">create (name: UpdateCap7,file: ./templates/capability.js)</text><polygon fill="#181818" points="173,176.6641,163,176.6641,173,180.6641" style="stroke:#181818;stroke-width:1.0;"/><line style="stroke:#181818;stroke-width:1.0;stroke-dasharray:2.0,2.0;" x1="162" x2="722.5" y1="175.6641" y2="175.6641"/><text fill="#000000" font-family="sans-serif" font-size="13" lengthAdjust="spacing" textLength="95" x="179" y="170.8076">capability.create</text><polygon fill="#181818" points="851,202.0156,861,206.0156,851,210.0156,855,206.0156" style="stroke:#181818;stroke-width:1.0;"/><line style="stroke:#181818;stroke-width:1.0;" x1="309.5" x2="857" y1="206.0156" y2="206.0156"/><text fill="#000000" font-family="sans-serif" font-size="13" lengthAdjust="spacing" textLength="188" x="316.5" y="201.1592">release (capability: UpdateCap7)</text><polygon fill="#181818" points="173,237.3672,163,237.3672,173,241.3672" style="stroke:#181818;stroke-width:1.0;"/><line style="stroke:#181818;stroke-width:1.0;stroke-dasharray:2.0,2.0;" x1="162" x2="862" y1="236.3672" y2="236.3672"/><text fill="#000000" font-family="sans-serif" font-size="13" lengthAdjust="spacing" textLength="101" x="179" y="231.5107">capability.release</text><polygon fill="#181818" points="851,262.7188,861,266.7188,851,270.7188,855,266.7188" style="stroke:#181818;stroke-width:1.0;"/><line style="stroke:#181818;stroke-width:1.0;" x1="309.5" x2="857" y1="266.7188" y2="266.7188"/><text fill="#000000" font-family="sans-serif" font-size="13" lengthAdjust="spacing" textLength="184" x="316.5" y="261.8623">deploy (capability: UpdateCap7)</text><polygon fill="#181818" points="173,298.0703,163,298.0703,173,302.0703" style="stroke:#181818;stroke-width:1.0;"/><line style="stroke:#181818;stroke-width:1.0;stroke-dasharray:2.0,2.0;" x1="162" x2="862" y1="297.0703" y2="297.0703"/><text fill="#000000" font-family="sans-serif" font-size="13" lengthAdjust="spacing" textLength="97" x="179" y="292.2139">capability.deploy</text><polygon fill="#181818" points="851,323.4219,861,327.4219,851,331.4219,855,327.4219" style="stroke:#181818;stroke-width:1.0;"/><line style="stroke:#181818;stroke-width:1.0;" x1="309.5" x2="857" y1="327.4219" y2="327.4219"/><text fill="#000000" font-family="sans-serif" font-size="13" lengthAdjust="spacing" textLength="435" x="316.5" y="322.5654">update (capability: UpdateCap7,file: ./templates/capabilityUpdateSABRs.js)</text><polygon fill="#181818" points="173,358.7734,163,358.7734,173,362.7734" style="stroke:#181818;stroke-width:1.0;"/><line style="stroke:#181818;stroke-width:1.0;stroke-dasharray:2.0,2.0;" x1="162" x2="862" y1="357.7734" y2="357.7734"/><text fill="#000000" font-family="sans-serif" font-size="13" lengthAdjust="spacing" textLength="98" x="179" y="352.917">capability.update</text><polygon fill="#181818" points="851,384.125,861,388.125,851,392.125,855,388.125" style="stroke:#181818;stroke-width:1.0;"/><line style="stroke:#181818;stroke-width:1.0;" x1="309.5" x2="857" y1="388.125" y2="388.125"/><text fill="#000000" font-family="sans-serif" font-size="13" lengthAdjust="spacing" textLength="188" x="316.5" y="383.2686">release (capability: UpdateCap7)</text><polygon fill="#181818" points="173,419.4766,163,419.4766,173,423.4766" style="stroke:#181818;stroke-width:1.0;"/><line style="stroke:#181818;stroke-width:1.0;stroke-dasharray:2.0,2.0;" x1="162" x2="862" y1="418.4766" y2="418.4766"/><text fill="#000000" font-family="sans-serif" font-size="13" lengthAdjust="spacing" textLength="101" x="179" y="413.6201">capability.release</text><polygon fill="#181818" points="851,444.8281,861,448.8281,851,452.8281,855,448.8281" style="stroke:#181818;stroke-width:1.0;"/><line style="stroke:#181818;stroke-width:1.0;" x1="309.5" x2="857" y1="448.8281" y2="448.8281"/><text fill="#000000" font-family="sans-serif" font-size="13" lengthAdjust="spacing" textLength="184" x="316.5" y="443.9717">deploy (capability: UpdateCap7)</text><polygon fill="#181818" points="173,480.1797,163,480.1797,173,484.1797" style="stroke:#181818;stroke-width:1.0;"/><line style="stroke:#181818;stroke-width:1.0;stroke-dasharray:2.0,2.0;" x1="162" x2="862" y1="479.1797" y2="479.1797"/><text fill="#000000" font-family="sans-serif" font-size="13" lengthAdjust="spacing" textLength="97" x="179" y="474.3232">capability.deploy</text><!--SRC=[vP71JiCm44Jl_efLUW699BqXvO14eKU41E83DiccDN8SotPAy_TiOvf4G6WFlU5JjDwPD_5WuHiBqIFjderRwutKH3OIGf3sqdUmtl77gdL2vCqU7j1WBjNXuWarRiZ2Ohb4h2e1VFAcrINQ3eeQ5XzRwObjIXxlnLdwup5elIoaGUsX62JzokZtFJF4TypDuCsKw0bUxrSl3feA_9OcND6xS3xUZaRlA8F2qa5tfR6cemlhRcyggNYGf9vgetZeqb6NlBlhO3arWpXEXvVB9h-G1CXC2AZ3ct0OIuhGSPhnTfhf9tFGphE_F4_3IpAgwIxA3fQdqMqeRmRzPnLXhQ_zrrREI1de_xSTyGa0]--></g></svg>