<?xml version="1.0" encoding="UTF-8" standalone="no"?><svg xmlns="http://www.w3.org/2000/svg" xmlns:xlink="http://www.w3.org/1999/xlink" contentScriptType="application/ecmascript" contentStyleType="text/css" height="600px" preserveAspectRatio="none" style="width:941px;height:600px;" version="1.1" viewBox="0 0 941 600" width="941px" zoomAndPan="magnify"><defs><filter height="300%" id="f1av2qqtvoc9zd" width="300%" x="-1" y="-1"><feGaussianBlur result="blurOut" stdDeviation="2.0"/><feColorMatrix in="blurOut" result="blurOut2" type="matrix" values="0 0 0 0 0 0 0 0 0 0 0 0 0 0 0 0 0 0 .4 0"/><feOffset dx="4.0" dy="4.0" in="blurOut2" result="blurOut3"/><feBlend in="SourceGraphic" in2="blurOut3" mode="normal"/></filter></defs><g><rect fill="#00AAFF" height="585.7891" style="stroke: #A80036; stroke-width: 1.0;" width="134" x="245.5" y="4"/><text fill="#000000" font-family="sans-serif" font-size="13" font-weight="bold" lengthAdjust="spacingAndGlyphs" textLength="124" x="248.5" y="17.4951">Capability Manager</text><rect fill="#00AAFF" height="585.7891" style="stroke: #A80036; stroke-width: 1.0;" width="134" x="657.5" y="4"/><text fill="#000000" font-family="sans-serif" font-size="13" font-weight="bold" lengthAdjust="spacingAndGlyphs" textLength="124" x="660.5" y="17.4951">Capability Manager</text><line style="stroke: #A80036; stroke-width: 1.0; stroke-dasharray: 5.0,5.0;" x1="65" x2="65" y1="87.6094" y2="502.1797"/><line style="stroke: #A80036; stroke-width: 1.0; stroke-dasharray: 5.0,5.0;" x1="165" x2="165" y1="87.6094" y2="502.1797"/><line style="stroke: #A80036; stroke-width: 1.0; stroke-dasharray: 5.0,5.0;" x1="312" x2="312" y1="87.6094" y2="502.1797"/><line style="stroke: #A80036; stroke-width: 1.0; stroke-dasharray: 5.0,5.0;" x1="724" x2="724" y1="87.6094" y2="502.1797"/><line style="stroke: #A80036; stroke-width: 1.0; stroke-dasharray: 5.0,5.0;" x1="865.5" x2="865.5" y1="87.6094" y2="502.1797"/><text fill="#000000" font-family="sans-serif" font-size="14" lengthAdjust="spacingAndGlyphs" textLength="108" x="8" y="84.5332">DevOpsEngineer</text><ellipse cx="65" cy="13" fill="#FEFECE" filter="url(#f1av2qqtvoc9zd)" rx="8" ry="8" style="stroke: #A80036; stroke-width: 2.0;"/><path d="M65,21 L65,48 M52,29 L78,29 M65,48 L52,63 M65,48 L78,63 " fill="none" filter="url(#f1av2qqtvoc9zd)" style="stroke: #A80036; stroke-width: 2.0;"/><text fill="#000000" font-family="sans-serif" font-size="14" lengthAdjust="spacingAndGlyphs" textLength="108" x="8" y="515.7129">DevOpsEngineer</text><ellipse cx="65" cy="528.7891" fill="#FEFECE" filter="url(#f1av2qqtvoc9zd)" rx="8" ry="8" style="stroke: #A80036; stroke-width: 2.0;"/><path d="M65,536.7891 L65,563.7891 M52,544.7891 L78,544.7891 M65,563.7891 L52,578.7891 M65,563.7891 L78,578.7891 " fill="none" filter="url(#f1av2qqtvoc9zd)" style="stroke: #A80036; stroke-width: 2.0;"/><text fill="#000000" font-family="sans-serif" font-size="14" lengthAdjust="spacingAndGlyphs" textLength="60" x="132" y="84.5332">EventBus</text><ellipse cx="165" cy="54" fill="#FEFECE" filter="url(#f1av2qqtvoc9zd)" rx="12" ry="12" style="stroke: #A80036; stroke-width: 2.0;"/><line style="stroke: #A80036; stroke-width: 2.0;" x1="153" x2="177" y1="68" y2="68"/><text fill="#000000" font-family="sans-serif" font-size="14" lengthAdjust="spacingAndGlyphs" textLength="60" x="132" y="515.7129">EventBus</text><ellipse cx="165" cy="534.7891" fill="#FEFECE" filter="url(#f1av2qqtvoc9zd)" rx="12" ry="12" style="stroke: #A80036; stroke-width: 2.0;"/><line style="stroke: #A80036; stroke-width: 2.0;" x1="153" x2="177" y1="548.7891" y2="548.7891"/><text fill="#000000" font-family="sans-serif" font-size="14" lengthAdjust="spacingAndGlyphs" textLength="18" x="300.5" y="84.5332">cm</text><path d="M292,42 L292,66 M292,54 L309,54 " fill="none" filter="url(#f1av2qqtvoc9zd)" style="stroke: #A80036; stroke-width: 2.0;"/><ellipse cx="321" cy="54" fill="#FFFFFF" filter="url(#f1av2qqtvoc9zd)" rx="12" ry="12" style="stroke: #A80036; stroke-width: 2.0;"/><text fill="#000000" font-family="sans-serif" font-size="14" lengthAdjust="spacingAndGlyphs" textLength="18" x="300.5" y="515.7129">cm</text><path d="M292,522.7891 L292,546.7891 M292,534.7891 L309,534.7891 " fill="none" filter="url(#f1av2qqtvoc9zd)" style="stroke: #A80036; stroke-width: 2.0;"/><ellipse cx="321" cy="534.7891" fill="#FFFFFF" filter="url(#f1av2qqtvoc9zd)" rx="12" ry="12" style="stroke: #A80036; stroke-width: 2.0;"/><rect fill="#FEFECE" filter="url(#f1av2qqtvoc9zd)" height="31.6094" style="stroke: #A80036; stroke-width: 1.5;" width="73" x="686" y="51"/><text fill="#000000" font-family="sans-serif" font-size="14" lengthAdjust="spacingAndGlyphs" textLength="59" x="693" y="72.5332">capability</text><rect fill="#FEFECE" filter="url(#f1av2qqtvoc9zd)" height="31.6094" style="stroke: #A80036; stroke-width: 1.5;" width="73" x="686" y="501.1797"/><text fill="#000000" font-family="sans-serif" font-size="14" lengthAdjust="spacingAndGlyphs" textLength="59" x="693" y="522.7129">capability</text><rect fill="#FEFECE" filter="url(#f1av2qqtvoc9zd)" height="31.6094" style="stroke: #A80036; stroke-width: 1.5;" width="133" x="797.5" y="51"/><text fill="#000000" font-family="sans-serif" font-size="14" lengthAdjust="spacingAndGlyphs" textLength="119" x="804.5" y="72.5332">capability manager</text><rect fill="#FEFECE" filter="url(#f1av2qqtvoc9zd)" height="31.6094" style="stroke: #A80036; stroke-width: 1.5;" width="133" x="797.5" y="501.1797"/><text fill="#000000" font-family="sans-serif" font-size="14" lengthAdjust="spacingAndGlyphs" textLength="119" x="804.5" y="522.7129">capability manager</text><polygon fill="#A80036" points="300.5,115.9609,310.5,119.9609,300.5,123.9609,304.5,119.9609" style="stroke: #A80036; stroke-width: 1.0;"/><line style="stroke: #A80036; stroke-width: 1.0;" x1="65" x2="306.5" y1="119.9609" y2="119.9609"/><text fill="#000000" font-family="sans-serif" font-size="13" lengthAdjust="spacingAndGlyphs" textLength="185" x="72" y="115.1045">Update SABRs of the Capability</text><polygon fill="#A80036" points="712.5,146.3125,722.5,150.3125,712.5,154.3125,716.5,150.3125" style="stroke: #A80036; stroke-width: 1.0;"/><line style="stroke: #A80036; stroke-width: 1.0;" x1="312.5" x2="718.5" y1="150.3125" y2="150.3125"/><text fill="#000000" font-family="sans-serif" font-size="13" lengthAdjust="spacingAndGlyphs" textLength="325" x="319.5" y="145.4561">create (name: UpdateCap7,file: ./templates/capability.js)</text><polygon fill="#A80036" points="176,181.6641,166,181.6641,176,185.6641" style="stroke: #A80036; stroke-width: 1.0;"/><line style="stroke: #A80036; stroke-width: 1.0; stroke-dasharray: 2.0,2.0;" x1="165" x2="723.5" y1="180.6641" y2="180.6641"/><text fill="#000000" font-family="sans-serif" font-size="13" lengthAdjust="spacingAndGlyphs" textLength="95" x="182" y="175.8076">capability.create</text><polygon fill="#A80036" points="854,207.0156,864,211.0156,854,215.0156,858,211.0156" style="stroke: #A80036; stroke-width: 1.0;"/><line style="stroke: #A80036; stroke-width: 1.0;" x1="312.5" x2="860" y1="211.0156" y2="211.0156"/><text fill="#000000" font-family="sans-serif" font-size="13" lengthAdjust="spacingAndGlyphs" textLength="188" x="319.5" y="206.1592">release (capability: UpdateCap7)</text><polygon fill="#A80036" points="176,242.3672,166,242.3672,176,246.3672" style="stroke: #A80036; stroke-width: 1.0;"/><line style="stroke: #A80036; stroke-width: 1.0; stroke-dasharray: 2.0,2.0;" x1="165" x2="865" y1="241.3672" y2="241.3672"/><text fill="#000000" font-family="sans-serif" font-size="13" lengthAdjust="spacingAndGlyphs" textLength="101" x="182" y="236.5107">capability.release</text><polygon fill="#A80036" points="854,267.7188,864,271.7188,854,275.7188,858,271.7188" style="stroke: #A80036; stroke-width: 1.0;"/><line style="stroke: #A80036; stroke-width: 1.0;" x1="312.5" x2="860" y1="271.7188" y2="271.7188"/><text fill="#000000" font-family="sans-serif" font-size="13" lengthAdjust="spacingAndGlyphs" textLength="184" x="319.5" y="266.8623">deploy (capability: UpdateCap7)</text><polygon fill="#A80036" points="176,303.0703,166,303.0703,176,307.0703" style="stroke: #A80036; stroke-width: 1.0;"/><line style="stroke: #A80036; stroke-width: 1.0; stroke-dasharray: 2.0,2.0;" x1="165" x2="865" y1="302.0703" y2="302.0703"/><text fill="#000000" font-family="sans-serif" font-size="13" lengthAdjust="spacingAndGlyphs" textLength="97" x="182" y="297.2139">capability.deploy</text><polygon fill="#A80036" points="854,328.4219,864,332.4219,854,336.4219,858,332.4219" style="stroke: #A80036; stroke-width: 1.0;"/><line style="stroke: #A80036; stroke-width: 1.0;" x1="312.5" x2="860" y1="332.4219" y2="332.4219"/><text fill="#000000" font-family="sans-serif" font-size="13" lengthAdjust="spacingAndGlyphs" textLength="435" x="319.5" y="327.5654">update (capability: UpdateCap7,file: ./templates/capabilityUpdateSABRs.js)</text><polygon fill="#A80036" points="176,363.7734,166,363.7734,176,367.7734" style="stroke: #A80036; stroke-width: 1.0;"/><line style="stroke: #A80036; stroke-width: 1.0; stroke-dasharray: 2.0,2.0;" x1="165" x2="865" y1="362.7734" y2="362.7734"/><text fill="#000000" font-family="sans-serif" font-size="13" lengthAdjust="spacingAndGlyphs" textLength="98" x="182" y="357.917">capability.update</text><polygon fill="#A80036" points="854,389.125,864,393.125,854,397.125,858,393.125" style="stroke: #A80036; stroke-width: 1.0;"/><line style="stroke: #A80036; stroke-width: 1.0;" x1="312.5" x2="860" y1="393.125" y2="393.125"/><text fill="#000000" font-family="sans-serif" font-size="13" lengthAdjust="spacingAndGlyphs" textLength="188" x="319.5" y="388.2686">release (capability: UpdateCap7)</text><polygon fill="#A80036" points="176,424.4766,166,424.4766,176,428.4766" style="stroke: #A80036; stroke-width: 1.0;"/><line style="stroke: #A80036; stroke-width: 1.0; stroke-dasharray: 2.0,2.0;" x1="165" x2="865" y1="423.4766" y2="423.4766"/><text fill="#000000" font-family="sans-serif" font-size="13" lengthAdjust="spacingAndGlyphs" textLength="101" x="182" y="418.6201">capability.release</text><polygon fill="#A80036" points="854,449.8281,864,453.8281,854,457.8281,858,453.8281" style="stroke: #A80036; stroke-width: 1.0;"/><line style="stroke: #A80036; stroke-width: 1.0;" x1="312.5" x2="860" y1="453.8281" y2="453.8281"/><text fill="#000000" font-family="sans-serif" font-size="13" lengthAdjust="spacingAndGlyphs" textLength="184" x="319.5" y="448.9717">deploy (capability: UpdateCap7)</text><polygon fill="#A80036" points="176,485.1797,166,485.1797,176,489.1797" style="stroke: #A80036; stroke-width: 1.0;"/><line style="stroke: #A80036; stroke-width: 1.0; stroke-dasharray: 2.0,2.0;" x1="165" x2="865" y1="484.1797" y2="484.1797"/><text fill="#000000" font-family="sans-serif" font-size="13" lengthAdjust="spacingAndGlyphs" textLength="97" x="182" y="479.3232">capability.deploy</text><!--
@startuml

actor "DevOpsEngineer"


entity EventBus

box Capability Manager #00aaff
    boundary cm #white
end box


box Capability Manager #00aaff
            participant capability
    end box


"DevOpsEngineer" -> cm: Update SABRs of the Capability

    cm -> "capability": create (name: UpdateCap7,file: ./templates/capability.js)

    "capability" - -/ EventBus: capability.create

    cm -> "capability manager": release (capability: UpdateCap7)

    "capability manager" - -/ EventBus: capability.release

    cm -> "capability manager": deploy (capability: UpdateCap7)

    "capability manager" - -/ EventBus: capability.deploy

    cm -> "capability manager": update (capability: UpdateCap7,file: ./templates/capabilityUpdateSABRs.js)

    "capability manager" - -/ EventBus: capability.update

    cm -> "capability manager": release (capability: UpdateCap7)

    "capability manager" - -/ EventBus: capability.release

    cm -> "capability manager": deploy (capability: UpdateCap7)

    "capability manager" - -/ EventBus: capability.deploy



@enduml

PlantUML version 1.2019.05(Sat Apr 20 09:45:36 PDT 2019)
(GPL source distribution)
Java Runtime: Java(TM) SE Runtime Environment
JVM: Java HotSpot(TM) 64-Bit Server VM
Java Version: 17.0.7+8-LTS-224
Operating System: Windows 11
OS Version: 10.0
Default Encoding: Cp1252
Language: en
Country: US
--></g></svg>