<?xml version="1.0" encoding="us-ascii" standalone="no"?><svg xmlns="http://www.w3.org/2000/svg" xmlns:xlink="http://www.w3.org/1999/xlink" contentStyleType="text/css" height="583px" preserveAspectRatio="none" style="width:967px;height:583px;background:#FFFFFF;" version="1.1" viewBox="0 0 967 583" width="967px" zoomAndPan="magnify"><defs/><g><rect fill="#00AAFF" height="571.7891" style="stroke:#181818;stroke-width:0.5;" width="134" x="274.5" y="6"/><text fill="#000000" font-family="sans-serif" font-size="13" font-weight="bold" lengthAdjust="spacing" textLength="124" x="277.5" y="19.4951">Capability Manager</text><rect fill="#00AAFF" height="571.7891" style="stroke:#181818;stroke-width:0.5;" width="134" x="688.5" y="6"/><text fill="#000000" font-family="sans-serif" font-size="13" font-weight="bold" lengthAdjust="spacing" textLength="124" x="691.5" y="19.4951">Capability Manager</text><line style="stroke:#181818;stroke-width:0.5;stroke-dasharray:5.0,5.0;" x1="62" x2="62" y1="82.6094" y2="497.1797"/><line style="stroke:#181818;stroke-width:0.5;stroke-dasharray:5.0,5.0;" x1="162" x2="162" y1="82.6094" y2="497.1797"/><line style="stroke:#181818;stroke-width:0.5;stroke-dasharray:5.0,5.0;" x1="341" x2="341" y1="82.6094" y2="497.1797"/><line style="stroke:#181818;stroke-width:0.5;stroke-dasharray:5.0,5.0;" x1="755" x2="755" y1="82.6094" y2="497.1797"/><line style="stroke:#181818;stroke-width:0.5;stroke-dasharray:5.0,5.0;" x1="894.5" x2="894.5" y1="82.6094" y2="497.1797"/><text fill="#000000" font-family="sans-serif" font-size="14" lengthAdjust="spacing" textLength="108" x="5" y="79.5332">DevOpsEngineer</text><ellipse cx="62" cy="13.5" fill="#E2E2F0" rx="8" ry="8" style="stroke:#181818;stroke-width:0.5;"/><path d="M62,21.5 L62,48.5 M49,29.5 L75,29.5 M62,48.5 L49,63.5 M62,48.5 L75,63.5 " fill="none" style="stroke:#181818;stroke-width:0.5;"/><text fill="#000000" font-family="sans-serif" font-size="14" lengthAdjust="spacing" textLength="108" x="5" y="510.7129">DevOpsEngineer</text><ellipse cx="62" cy="522.2891" fill="#E2E2F0" rx="8" ry="8" style="stroke:#181818;stroke-width:0.5;"/><path d="M62,530.2891 L62,557.2891 M49,538.2891 L75,538.2891 M62,557.2891 L49,572.2891 M62,557.2891 L75,572.2891 " fill="none" style="stroke:#181818;stroke-width:0.5;"/><text fill="#000000" font-family="sans-serif" font-size="14" lengthAdjust="spacing" textLength="60" x="129" y="79.5332">EventBus</text><ellipse cx="162" cy="49" fill="#E2E2F0" rx="12" ry="12" style="stroke:#181818;stroke-width:0.5;"/><line style="stroke:#181818;stroke-width:0.5;" x1="150" x2="174" y1="63" y2="63"/><text fill="#000000" font-family="sans-serif" font-size="14" lengthAdjust="spacing" textLength="60" x="129" y="510.7129">EventBus</text><ellipse cx="162" cy="529.7891" fill="#E2E2F0" rx="12" ry="12" style="stroke:#181818;stroke-width:0.5;"/><line style="stroke:#181818;stroke-width:0.5;" x1="150" x2="174" y1="543.7891" y2="543.7891"/><text fill="#000000" font-family="sans-serif" font-size="14" lengthAdjust="spacing" textLength="18" x="329.5" y="79.5332">cm</text><path d="M321,37 L321,61 M321,49 L338,49 " fill="none" style="stroke:#181818;stroke-width:0.5;"/><ellipse cx="350" cy="49" fill="#FFFFFF" rx="12" ry="12" style="stroke:#181818;stroke-width:0.5;"/><text fill="#000000" font-family="sans-serif" font-size="14" lengthAdjust="spacing" textLength="18" x="329.5" y="510.7129">cm</text><path d="M321,517.7891 L321,541.7891 M321,529.7891 L338,529.7891 " fill="none" style="stroke:#181818;stroke-width:0.5;"/><ellipse cx="350" cy="529.7891" fill="#FFFFFF" rx="12" ry="12" style="stroke:#181818;stroke-width:0.5;"/><rect fill="#E2E2F0" height="31.6094" rx="2.5" ry="2.5" style="stroke:#181818;stroke-width:0.5;" width="73" x="719" y="50"/><text fill="#000000" font-family="sans-serif" font-size="14" lengthAdjust="spacing" textLength="59" x="726" y="71.5332">capability</text><rect fill="#E2E2F0" height="31.6094" rx="2.5" ry="2.5" style="stroke:#181818;stroke-width:0.5;" width="73" x="719" y="496.1797"/><text fill="#000000" font-family="sans-serif" font-size="14" lengthAdjust="spacing" textLength="59" x="726" y="517.7129">capability</text><rect fill="#E2E2F0" height="31.6094" rx="2.5" ry="2.5" style="stroke:#181818;stroke-width:0.5;" width="133" x="828.5" y="50"/><text fill="#000000" font-family="sans-serif" font-size="14" lengthAdjust="spacing" textLength="119" x="835.5" y="71.5332">capability manager</text><rect fill="#E2E2F0" height="31.6094" rx="2.5" ry="2.5" style="stroke:#181818;stroke-width:0.5;" width="133" x="828.5" y="496.1797"/><text fill="#000000" font-family="sans-serif" font-size="14" lengthAdjust="spacing" textLength="119" x="835.5" y="517.7129">capability manager</text><polygon fill="#181818" points="329.5,110.9609,339.5,114.9609,329.5,118.9609,333.5,114.9609" style="stroke:#181818;stroke-width:1.0;"/><line style="stroke:#181818;stroke-width:1.0;" x1="62" x2="335.5" y1="114.9609" y2="114.9609"/><text fill="#000000" font-family="sans-serif" font-size="13" lengthAdjust="spacing" textLength="217" x="69" y="110.1045">Update Configuration of the Capability</text><polygon fill="#181818" points="743.5,141.3125,753.5,145.3125,743.5,149.3125,747.5,145.3125" style="stroke:#181818;stroke-width:1.0;"/><line style="stroke:#181818;stroke-width:1.0;" x1="341.5" x2="749.5" y1="145.3125" y2="145.3125"/><text fill="#000000" font-family="sans-serif" font-size="13" lengthAdjust="spacing" textLength="325" x="348.5" y="140.4561">create (name: UpdateCap5,file: ./templates/capability.js)</text><polygon fill="#181818" points="173,176.6641,163,176.6641,173,180.6641" style="stroke:#181818;stroke-width:1.0;"/><line style="stroke:#181818;stroke-width:1.0;stroke-dasharray:2.0,2.0;" x1="162" x2="754.5" y1="175.6641" y2="175.6641"/><text fill="#000000" font-family="sans-serif" font-size="13" lengthAdjust="spacing" textLength="95" x="179" y="170.8076">capability.create</text><polygon fill="#181818" points="883,202.0156,893,206.0156,883,210.0156,887,206.0156" style="stroke:#181818;stroke-width:1.0;"/><line style="stroke:#181818;stroke-width:1.0;" x1="341.5" x2="889" y1="206.0156" y2="206.0156"/><text fill="#000000" font-family="sans-serif" font-size="13" lengthAdjust="spacing" textLength="188" x="348.5" y="201.1592">release (capability: UpdateCap5)</text><polygon fill="#181818" points="173,237.3672,163,237.3672,173,241.3672" style="stroke:#181818;stroke-width:1.0;"/><line style="stroke:#181818;stroke-width:1.0;stroke-dasharray:2.0,2.0;" x1="162" x2="894" y1="236.3672" y2="236.3672"/><text fill="#000000" font-family="sans-serif" font-size="13" lengthAdjust="spacing" textLength="101" x="179" y="231.5107">capability.release</text><polygon fill="#181818" points="883,262.7188,893,266.7188,883,270.7188,887,266.7188" style="stroke:#181818;stroke-width:1.0;"/><line style="stroke:#181818;stroke-width:1.0;" x1="341.5" x2="889" y1="266.7188" y2="266.7188"/><text fill="#000000" font-family="sans-serif" font-size="13" lengthAdjust="spacing" textLength="184" x="348.5" y="261.8623">deploy (capability: UpdateCap5)</text><polygon fill="#181818" points="173,298.0703,163,298.0703,173,302.0703" style="stroke:#181818;stroke-width:1.0;"/><line style="stroke:#181818;stroke-width:1.0;stroke-dasharray:2.0,2.0;" x1="162" x2="894" y1="297.0703" y2="297.0703"/><text fill="#000000" font-family="sans-serif" font-size="13" lengthAdjust="spacing" textLength="97" x="179" y="292.2139">capability.deploy</text><polygon fill="#181818" points="883,323.4219,893,327.4219,883,331.4219,887,327.4219" style="stroke:#181818;stroke-width:1.0;"/><line style="stroke:#181818;stroke-width:1.0;" x1="341.5" x2="889" y1="327.4219" y2="327.4219"/><text fill="#000000" font-family="sans-serif" font-size="13" lengthAdjust="spacing" textLength="428" x="348.5" y="322.5654">update (capability: UpdateCap5,file: ./templates/capabilityUpdateConfig.js)</text><polygon fill="#181818" points="173,358.7734,163,358.7734,173,362.7734" style="stroke:#181818;stroke-width:1.0;"/><line style="stroke:#181818;stroke-width:1.0;stroke-dasharray:2.0,2.0;" x1="162" x2="894" y1="357.7734" y2="357.7734"/><text fill="#000000" font-family="sans-serif" font-size="13" lengthAdjust="spacing" textLength="98" x="179" y="352.917">capability.update</text><polygon fill="#181818" points="883,384.125,893,388.125,883,392.125,887,388.125" style="stroke:#181818;stroke-width:1.0;"/><line style="stroke:#181818;stroke-width:1.0;" x1="341.5" x2="889" y1="388.125" y2="388.125"/><text fill="#000000" font-family="sans-serif" font-size="13" lengthAdjust="spacing" textLength="188" x="348.5" y="383.2686">release (capability: UpdateCap5)</text><polygon fill="#181818" points="173,419.4766,163,419.4766,173,423.4766" style="stroke:#181818;stroke-width:1.0;"/><line style="stroke:#181818;stroke-width:1.0;stroke-dasharray:2.0,2.0;" x1="162" x2="894" y1="418.4766" y2="418.4766"/><text fill="#000000" font-family="sans-serif" font-size="13" lengthAdjust="spacing" textLength="101" x="179" y="413.6201">capability.release</text><polygon fill="#181818" points="883,444.8281,893,448.8281,883,452.8281,887,448.8281" style="stroke:#181818;stroke-width:1.0;"/><line style="stroke:#181818;stroke-width:1.0;" x1="341.5" x2="889" y1="448.8281" y2="448.8281"/><text fill="#000000" font-family="sans-serif" font-size="13" lengthAdjust="spacing" textLength="184" x="348.5" y="443.9717">deploy (capability: UpdateCap5)</text><polygon fill="#181818" points="173,480.1797,163,480.1797,173,484.1797" style="stroke:#181818;stroke-width:1.0;"/><line style="stroke:#181818;stroke-width:1.0;stroke-dasharray:2.0,2.0;" x1="162" x2="894" y1="479.1797" y2="479.1797"/><text fill="#000000" font-family="sans-serif" font-size="13" lengthAdjust="spacing" textLength="97" x="179" y="474.3232">capability.deploy</text><!--SRC=[vP6nSeCm44HxVSKDRfAP06xIKAI8xJAJAXzmm86L4P962CVyVSx81YO9iOjqKQKvQVUjj5Xuuo3Qqk7LjZjTIqta8Y44QIzz3xi3RvwxLeZS76635dEfJWSlgB4c1wlr6h6g1F3AJQTBT3qK3Qm-zj8JsvGyFegRz9TbqNbPI8lQGp5AXYkJtzVC43ynDuCtMw8ds1XToRfpwANHO2hmUvhnnU36ELaLJOmeWyBHIN-diQ6B6-iU7ogfU92adXghUDYcaovvR- -3vTmCuZWTVp2RFIK9a8KGq8I_uJ2E567BQQRJUQRlp56xp3vxNeUNP9Nf_vGTBA-Zkr3Y0lhNAixNXlf_hEM6c07_V-iHdm00]--></g></svg>