<?xml version="1.0" encoding="UTF-8" standalone="no"?><svg xmlns="http://www.w3.org/2000/svg" xmlns:xlink="http://www.w3.org/1999/xlink" contentScriptType="application/ecmascript" contentStyleType="text/css" height="777px" preserveAspectRatio="none" style="width:426px;height:777px;" version="1.1" viewBox="0 0 426 777" width="426px" zoomAndPan="magnify"><defs><filter height="300%" id="f11ogj0yuoi222" width="300%" x="-1" y="-1"><feGaussianBlur result="blurOut" stdDeviation="2.0"/><feColorMatrix in="blurOut" result="blurOut2" type="matrix" values="0 0 0 0 0 0 0 0 0 0 0 0 0 0 0 0 0 0 .4 0"/><feOffset dx="4.0" dy="4.0" in="blurOut2" result="blurOut3"/><feBlend in="SourceGraphic" in2="blurOut3" mode="normal"/></filter></defs><g><!--cluster am--><rect fill="#00AAFF" filter="url(#f11ogj0yuoi222)" height="88" style="stroke: #000000; stroke-width: 1.5;" width="190" x="193" y="24"/><text fill="#000000" font-family="sans-serif" font-size="14" font-weight="bold" lengthAdjust="spacingAndGlyphs" textLength="144" x="216" y="40.5332">Application Manager</text><!--cluster cm--><rect fill="#00AAFF" filter="url(#f11ogj0yuoi222)" height="226" style="stroke: #000000; stroke-width: 1.5;" width="185" x="195.5" y="136"/><text fill="#000000" font-family="sans-serif" font-size="14" font-weight="bold" lengthAdjust="spacingAndGlyphs" textLength="134" x="221" y="152.5332">Capability Manager</text><!--cluster dsom--><rect fill="#00AAFF" filter="url(#f11ogj0yuoi222)" height="92" style="stroke: #000000; stroke-width: 1.5;" width="204" x="186" y="386"/><text fill="#000000" font-family="sans-serif" font-size="14" font-weight="bold" lengthAdjust="spacingAndGlyphs" textLength="144" x="216" y="402.5332">DevSecOpsManager</text><!--cluster sabm--><rect fill="#FFCC88" filter="url(#f11ogj0yuoi222)" height="84" style="stroke: #000000; stroke-width: 1.5;" width="240" x="168.5" y="502"/><text fill="#000000" font-family="sans-serif" font-size="14" font-weight="bold" lengthAdjust="spacingAndGlyphs" textLength="224" x="176.5" y="518.5332">Sentient Agent Bundle Manager</text><!--cluster sabr--><rect fill="#BBAAFF" filter="url(#f11ogj0yuoi222)" height="156" style="stroke: #000000; stroke-width: 1.5;" width="254" x="161.5" y="610"/><text fill="#000000" font-family="sans-serif" font-size="14" font-weight="bold" lengthAdjust="spacingAndGlyphs" textLength="238" x="169.5" y="626.5332">Sentient Agent Bundle Resources</text><ellipse cx="288.0399" cy="78.208" fill="#FEFECE" filter="url(#f11ogj0yuoi222)" rx="79.0399" ry="18.208" style="stroke: #A80036; stroke-width: 1.5;"/><text fill="#000000" font-family="sans-serif" font-size="14" lengthAdjust="spacingAndGlyphs" textLength="124" x="226.0399" y="83.5127">Manage Application</text><ellipse cx="287.949" cy="189.0898" fill="#FEFECE" filter="url(#f11ogj0yuoi222)" rx="73.449" ry="17.0898" style="stroke: #A80036; stroke-width: 1.5;"/><text fill="#000000" font-family="sans-serif" font-size="14" lengthAdjust="spacingAndGlyphs" textLength="110" x="232.949" y="194.3945">Deploy Capability</text><ellipse cx="288.1143" cy="259.2229" fill="#FEFECE" filter="url(#f11ogj0yuoi222)" rx="76.6143" ry="17.7229" style="stroke: #A80036; stroke-width: 1.5;"/><text fill="#000000" font-family="sans-serif" font-size="14" lengthAdjust="spacingAndGlyphs" textLength="118" x="229.1143" y="264.5275">Remove Capability</text><ellipse cx="287.8401" cy="329.168" fill="#FEFECE" filter="url(#f11ogj0yuoi222)" rx="73.8401" ry="17.168" style="stroke: #A80036; stroke-width: 1.5;"/><text fill="#000000" font-family="sans-serif" font-size="14" lengthAdjust="spacingAndGlyphs" textLength="111" x="232.3401" y="334.4727">Update Capability</text><ellipse cx="288.1163" cy="442.1233" fill="#FEFECE" filter="url(#f11ogj0yuoi222)" rx="86.1163" ry="19.6233" style="stroke: #A80036; stroke-width: 1.5;"/><text fill="#000000" font-family="sans-serif" font-size="14" lengthAdjust="spacingAndGlyphs" textLength="141" x="217.6163" y="447.4279">Manage Environments</text><ellipse cx="288.1715" cy="554.2343" fill="#FEFECE" filter="url(#f11ogj0yuoi222)" rx="66.6715" ry="15.7343" style="stroke: #A80036; stroke-width: 1.5;"/><text fill="#000000" font-family="sans-serif" font-size="14" lengthAdjust="spacingAndGlyphs" textLength="92" x="242.1715" y="559.539">Manage SABR</text><ellipse cx="288.1792" cy="665.0358" fill="#FEFECE" filter="url(#f11ogj0yuoi222)" rx="80.6792" ry="18.5358" style="stroke: #A80036; stroke-width: 1.5;"/><text fill="#000000" font-family="sans-serif" font-size="14" lengthAdjust="spacingAndGlyphs" textLength="128" x="224.1792" y="670.3405">Manage Capabilities</text><ellipse cx="288.2487" cy="733.9517" fill="#FEFECE" filter="url(#f11ogj0yuoi222)" rx="27.7487" ry="15.4517" style="stroke: #A80036; stroke-width: 1.5;"/><text fill="#000000" font-family="sans-serif" font-size="14" lengthAdjust="spacingAndGlyphs" textLength="35" x="270.7487" y="739.2564">Ships</text><!--entity DevOpsEngineer--><ellipse cx="62" cy="353.5" fill="#FEFECE" filter="url(#f11ogj0yuoi222)" rx="8" ry="8" style="stroke: #A80036; stroke-width: 2.0;"/><path d="M62,361.5 L62,388.5 M49,369.5 L75,369.5 M62,388.5 L49,403.5 M62,388.5 L75,403.5 " fill="none" filter="url(#f11ogj0yuoi222)" style="stroke: #A80036; stroke-width: 2.0;"/><text fill="#000000" font-family="sans-serif" font-size="14" lengthAdjust="spacingAndGlyphs" textLength="112" x="6" y="425.0332">DevOps Engineer</text><!--link DevOpsEngineer to ManageApplication--><path d="M70.9037,343.445 C81.9887,293.665 106.315,211.069 153.5,156 C176.945,128.638 212.508,108.525 241.035,95.582 " fill="none" id="DevOpsEngineer-ManageApplication" style="stroke: #A80036; stroke-width: 1.0;"/><polygon fill="#A80036" points="245.912,93.407,236.0631,93.4176,241.3451,95.4426,239.3201,100.7246,245.912,93.407" style="stroke: #A80036; stroke-width: 1.0;"/><!--link DevOpsEngineer to DeployCapability--><path d="M76.1019,343.446 C89.6514,306.488 114.399,254.276 153.5,224 C171.127,210.352 193.575,202.001 215.011,196.9 " fill="none" id="DevOpsEngineer-DeployCapability" style="stroke: #A80036; stroke-width: 1.0;"/><polygon fill="#A80036" points="220.145,195.735,210.4827,193.8272,215.2691,196.8422,212.2542,201.6286,220.145,195.735" style="stroke: #A80036; stroke-width: 1.0;"/><!--link DevOpsEngineer to RemoveCapability--><path d="M96.0791,343.359 C111.75,325.759 131.786,306.577 153.5,294 C173.161,282.612 196.574,274.858 218.262,269.609 " fill="none" id="DevOpsEngineer-RemoveCapability" style="stroke: #A80036; stroke-width: 1.0;"/><polygon fill="#A80036" points="223.151,268.46,213.4744,266.6259,218.2837,269.6043,215.3053,274.4136,223.151,268.46" style="stroke: #A80036; stroke-width: 1.0;"/><!--link DevOpsEngineer to UpdateCapability--><path d="M118.083,371.983 C153.025,363.092 198.032,351.639 232.801,342.792 " fill="none" id="DevOpsEngineer-UpdateCapability" style="stroke: #A80036; stroke-width: 1.0;"/><polygon fill="#A80036" points="237.855,341.506,228.1466,339.8486,233.0094,342.7388,230.1191,347.6016,237.855,341.506" style="stroke: #A80036; stroke-width: 1.0;"/><!--link DevOpsEngineer to ManageEnvironments--><path d="M118.083,399.771 C150.308,407.827 191.095,418.024 224.517,426.379 " fill="none" id="DevOpsEngineer-ManageEnvironments" style="stroke: #A80036; stroke-width: 1.0;"/><polygon fill="#A80036" points="229.392,427.598,221.6313,421.5341,224.5414,426.385,219.6905,429.2951,229.392,427.598" style="stroke: #A80036; stroke-width: 1.0;"/><!--link DevOpsEngineer to ManageSABR--><path d="M100.4112,428.831 C115.922,445.261 134.674,463.522 153.5,478 C184.876,502.129 224.742,523.825 252.708,537.799 " fill="none" id="DevOpsEngineer-ManageSABR" style="stroke: #A80036; stroke-width: 1.0;"/><polygon fill="#A80036" points="257.438,540.145,251.1518,532.5632,252.9585,537.9238,247.5979,539.7305,257.438,540.145" style="stroke: #A80036; stroke-width: 1.0;"/><!--link DevOpsEngineer to ManageCapabilities--><path d="M74.0991,428.901 C87.1555,472.563 112.422,540.163 153.5,586 C177.712,613.017 213.407,633.475 241.797,646.797 " fill="none" id="DevOpsEngineer-ManageCapabilities" style="stroke: #A80036; stroke-width: 1.0;"/><polygon fill="#A80036" points="246.647,649.037,240.154,641.6316,242.1079,646.9403,236.7992,648.8942,246.647,649.037" style="stroke: #A80036; stroke-width: 1.0;"/><!--link DevOpsEngineer to Ships--><path d="M62.5346,428.672 C64.2219,496.346 77.7891,628.071 153.5,701 C180.726,727.2259 225.345,733.6341 255.425,734.7067 " fill="none" id="DevOpsEngineer-Ships" style="stroke: #A80036; stroke-width: 1.0;"/><polygon fill="#A80036" points="260.493,734.842,251.6037,730.6017,255.4948,734.7077,251.3888,738.5988,260.493,734.842" style="stroke: #A80036; stroke-width: 1.0;"/><!--
@startuml

left to right direction


Actor "DevOps Engineer" as DevOpsEngineer


rectangle "Application Manager" as am #00aaff {
        usecase "Manage Application" as ManageApplication
    DevOpsEngineer - -> ManageApplication

}

rectangle "Capability Manager" as cm #00aaff {
        usecase "Deploy Capability" as DeployCapability
    DevOpsEngineer - -> DeployCapability
    usecase "Remove Capability" as RemoveCapability
    DevOpsEngineer - -> RemoveCapability
    usecase "Update Capability" as UpdateCapability
    DevOpsEngineer - -> UpdateCapability

}

rectangle "DevSecOpsManager" as dsom #00aaff {
        usecase "Manage Environments" as ManageEnvironments
    DevOpsEngineer - -> ManageEnvironments

}

rectangle "Sentient Agent Bundle Manager" as sabm #ffcc88 {
        usecase "Manage SABR" as ManageSABR
    DevOpsEngineer - -> ManageSABR

}

rectangle "Sentient Agent Bundle Resources" as sabr #bbaaff {
        usecase "Manage Capabilities" as ManageCapabilities
    DevOpsEngineer - -> ManageCapabilities
    usecase "Ships" as Ships
    DevOpsEngineer - -> Ships

}


@enduml

PlantUML version 1.2019.05(Sat Apr 20 09:45:36 PDT 2019)
(GPL source distribution)
Java Runtime: Java(TM) SE Runtime Environment
JVM: Java HotSpot(TM) Client VM
Java Version: 1.8.0_271-b09
Operating System: Windows 10
OS Version: 10.0
Default Encoding: Cp1252
Language: en
Country: US
--></g></svg>