<?xml version="1.0" encoding="us-ascii" standalone="no"?><svg xmlns="http://www.w3.org/2000/svg" xmlns:xlink="http://www.w3.org/1999/xlink" contentStyleType="text/css" height="769px" preserveAspectRatio="none" style="width:421px;height:769px;background:#FFFFFF;" version="1.1" viewBox="0 0 421 769" width="421px" zoomAndPan="magnify"><defs/><g><!--cluster am--><g id="cluster_am"><rect fill="#00AAFF" height="90" rx="2.5" ry="2.5" style="stroke:#181818;stroke-width:1.0;" width="223" x="176.5" y="7"/><text fill="#000000" font-family="sans-serif" font-size="14" font-weight="bold" lengthAdjust="spacing" textLength="144" x="184.5" y="23.5332">Application Manager</text></g><!--cluster cm--><g id="cluster_cm"><rect fill="#00AAFF" height="232" rx="2.5" ry="2.5" style="stroke:#181818;stroke-width:1.0;" width="195" x="190" y="121"/><text fill="#000000" font-family="sans-serif" font-size="14" font-weight="bold" lengthAdjust="spacing" textLength="134" x="220.5" y="137.5332">Capability Manager</text></g><!--cluster dsom--><g id="cluster_dsom"><rect fill="#00AAFF" height="94" rx="2.5" ry="2.5" style="stroke:#181818;stroke-width:1.0;" width="215" x="180" y="377"/><text fill="#000000" font-family="sans-serif" font-size="14" font-weight="bold" lengthAdjust="spacing" textLength="144" x="215.5" y="393.5332">DevSecOpsManager</text></g><!--cluster sabm--><g id="cluster_sabm"><rect fill="#FFCC88" height="86" rx="2.5" ry="2.5" style="stroke:#181818;stroke-width:1.0;" width="240" x="168" y="495"/><text fill="#000000" font-family="sans-serif" font-size="14" font-weight="bold" lengthAdjust="spacing" textLength="224" x="176" y="511.5332">Sentient Agent Bundle Manager</text></g><!--cluster sabr--><g id="cluster_sabr"><rect fill="#BBAAFF" height="158" rx="2.5" ry="2.5" style="stroke:#181818;stroke-width:1.0;" width="254" x="161" y="605"/><text fill="#000000" font-family="sans-serif" font-size="14" font-weight="bold" lengthAdjust="spacing" textLength="238" x="169" y="621.5332">Sentient Agent Bundle Resources</text></g><g id="elem_ManageApplication"><ellipse cx="287.5066" cy="62.2013" fill="#F1F1F1" rx="84.0066" ry="19.2013" style="stroke:#181818;stroke-width:0.5;"/><text fill="#000000" font-family="sans-serif" font-size="14" lengthAdjust="spacing" textLength="124" x="225.5066" y="65.9298">Manage Application</text></g><g id="elem_DeployCapability"><ellipse cx="287.2877" cy="175.0575" fill="#F1F1F1" rx="78.2877" ry="18.0575" style="stroke:#181818;stroke-width:0.5;"/><text fill="#000000" font-family="sans-serif" font-size="14" lengthAdjust="spacing" textLength="110" x="230.5149" y="179.2774">Deploy Capability</text></g><g id="elem_RemoveCapability"><ellipse cx="287.5075" cy="247.2015" fill="#F1F1F1" rx="81.5075" ry="18.7015" style="stroke:#181818;stroke-width:0.5;"/><text fill="#000000" font-family="sans-serif" font-size="14" lengthAdjust="spacing" textLength="118" x="228.1675" y="251.0304">Remove Capability</text></g><g id="elem_UpdateCapability"><ellipse cx="287.6819" cy="319.1364" fill="#F1F1F1" rx="78.6819" ry="18.1364" style="stroke:#181818;stroke-width:0.5;"/><text fill="#000000" font-family="sans-serif" font-size="14" lengthAdjust="spacing" textLength="111" x="230.5947" y="323.3083">Update Capability</text></g><g id="elem_ManageEnvironments"><ellipse cx="287.2628" cy="434.1526" fill="#F1F1F1" rx="91.2628" ry="20.6526" style="stroke:#181818;stroke-width:0.5;"/><text fill="#000000" font-family="sans-serif" font-size="14" lengthAdjust="spacing" textLength="141" x="216.7628" y="437.8811">Manage Environments</text></g><g id="elem_ManageSABR"><ellipse cx="287.5677" cy="548.2135" fill="#F1F1F1" rx="71.5677" ry="16.7135" style="stroke:#181818;stroke-width:0.5;"/><text fill="#000000" font-family="sans-serif" font-size="14" lengthAdjust="spacing" textLength="92" x="238.5677" y="552.7301">Manage SABR</text></g><g id="elem_ManageCapabilities"><ellipse cx="287.6926" cy="661.0385" fill="#F1F1F1" rx="85.6926" ry="19.5385" style="stroke:#181818;stroke-width:0.5;"/><text fill="#000000" font-family="sans-serif" font-size="14" lengthAdjust="spacing" textLength="128" x="223.6926" y="664.767">Manage Capabilities</text></g><g id="elem_Ships"><ellipse cx="287.734" cy="730.9517" fill="#F1F1F1" rx="36.234" ry="15.4517" style="stroke:#181818;stroke-width:0.5;"/><text fill="#000000" font-family="sans-serif" font-size="14" lengthAdjust="spacing" textLength="35" x="270.234" y="734.6802">Ships</text></g><!--entity DevOpsEngineer--><g id="elem_DevOpsEngineer"><ellipse cx="62" cy="346.5" fill="#F1F1F1" rx="8" ry="8" style="stroke:#181818;stroke-width:0.5;"/><path d="M62,354.5 L62,381.5 M49,362.5 L75,362.5 M62,381.5 L49,396.5 M62,381.5 L75,396.5 " fill="none" style="stroke:#181818;stroke-width:0.5;"/><text fill="#000000" font-family="sans-serif" font-size="14" lengthAdjust="spacing" textLength="112" x="6" y="412.5332">DevOps Engineer</text></g><!--link DevOpsEngineer to ManageApplication--><g id="link_DevOpsEngineer_ManageApplication"><path d="M69.65,337.83 C79.92,287.4 103.82,199.34 153,141 C177.21,112.28 209.2063,93.8574 238.2963,80.7974 " fill="none" id="DevOpsEngineer-to-ManageApplication" style="stroke:#181818;stroke-width:1.0;"/><polygon fill="#181818" points="243.77,78.34,233.9212,78.377,239.2086,80.3878,237.1978,85.6752,243.77,78.34" style="stroke:#181818;stroke-width:1.0;"/></g><!--link DevOpsEngineer to DeployCapability--><g id="link_DevOpsEngineer_DeployCapability"><path d="M74.23,337.84 C87.13,299.88 111.97,243.42 153,211 C171.08,196.71 188.5408,189.4597 210.5908,184.2497 " fill="none" id="DevOpsEngineer-to-DeployCapability" style="stroke:#181818;stroke-width:1.0;"/><polygon fill="#181818" points="216.43,182.87,206.7514,181.0467,211.564,184.0197,208.591,188.8324,216.43,182.87" style="stroke:#181818;stroke-width:1.0;"/></g><!--link DevOpsEngineer to RemoveCapability--><g id="link_DevOpsEngineer_RemoveCapability"><path d="M92.07,337.78 C108.09,318.71 129.49,296.94 153,283 C173.23,271 191.7091,264.3246 214.0091,258.9146 " fill="none" id="DevOpsEngineer-to-RemoveCapability" style="stroke:#181818;stroke-width:1.0;"/><polygon fill="#181818" points="219.84,257.5,210.1507,255.7346,214.9809,258.6788,212.0368,263.5091,219.84,257.5" style="stroke:#181818;stroke-width:1.0;"/></g><!--link DevOpsEngineer to UpdateCapability--><g id="link_DevOpsEngineer_UpdateCapability"><path d="M118.25,362.66 C153.92,353.4 194.2223,342.9468 229.1423,333.8868 " fill="none" id="DevOpsEngineer-to-UpdateCapability" style="stroke:#181818;stroke-width:1.0;"/><polygon fill="#181818" points="234.95,332.38,225.2339,330.7684,230.1102,333.6357,227.243,338.512,234.95,332.38" style="stroke:#181818;stroke-width:1.0;"/></g><!--link DevOpsEngineer to ManageEnvironments--><g id="link_DevOpsEngineer_ManageEnvironments"><path d="M118.25,391.09 C151.08,399.46 186.936,408.6076 220.586,417.1876 " fill="none" id="DevOpsEngineer-to-ManageEnvironments" style="stroke:#181818;stroke-width:1.0;"/><polygon fill="#181818" points="226.4,418.67,218.6673,412.5704,221.555,417.4346,216.6907,420.3223,226.4,418.67" style="stroke:#181818;stroke-width:1.0;"/></g><!--link DevOpsEngineer to ManageSABR--><g id="link_DevOpsEngineer_ManageSABR"><path d="M95.81,416.08 C111.97,434.01 132.38,454.82 153,471 C185.42,496.43 221.7834,516.4467 249.8834,530.4967 " fill="none" id="DevOpsEngineer-to-ManageSABR" style="stroke:#181818;stroke-width:1.0;"/><polygon fill="#181818" points="255.25,533.18,248.989,525.5774,250.7779,530.9439,245.4113,532.7328,255.25,533.18" style="stroke:#181818;stroke-width:1.0;"/></g><!--link DevOpsEngineer to ManageCapabilities--><g id="link_DevOpsEngineer_ManageCapabilities"><path d="M72.56,416.25 C84.95,460.49 110.22,532.54 153,581 C178.03,609.36 210.1696,628.0998 239.0896,641.5498 " fill="none" id="DevOpsEngineer-to-ManageCapabilities" style="stroke:#181818;stroke-width:1.0;"/><polygon fill="#181818" points="244.53,644.08,238.0562,636.6578,239.9963,641.9715,234.6826,643.9116,244.53,644.08" style="stroke:#181818;stroke-width:1.0;"/></g><!--link DevOpsEngineer to Ships--><g id="link_DevOpsEngineer_Ships"><path d="M62.13,416.07 C62.86,483.55 74.56,621.96 153,698 C179.14,723.34 215.5166,729.9182 245.5066,731.3282 " fill="none" id="DevOpsEngineer-to-Ships" style="stroke:#181818;stroke-width:1.0;"/><polygon fill="#181818" points="251.5,731.61,242.6978,727.1917,246.5055,731.3752,242.3221,735.1829,251.5,731.61" style="stroke:#181818;stroke-width:1.0;"/></g><!--SRC=[ZP7DYeCm58NtFiMbNHUwx6h0JhiS1fHvW6kyse1DGXA5CioxJpJMnf_Q2eeUppdvSbDHOS5AqBoyMCYv9cQv554KnSnA3PiJDT_Am5cKN13f3Q01hzqbvsrJACgAO1ChLN66RGbyeS2op-0LjlizOb70RmJzLHjYQ5pAEo48To4l1sgN72yFkzt7WZ7w6s5zeiACLzpUHbHibUf4gf8tU6JxtRVgGtp6jEWRkXEwoeQctLvztRte6xf_L8vsrktLrzqptsIKBf8ISwbmaBcHxnpmMJHSIt4bOKrmmg6yViGZvmGiTI9tDyHb-ppM8dToI6amSvH5mTZXi4APniSae6i_rwawnriq2HbPQqRcpgDXcsKlfZQS1QTmQg6ypZTp3Yka5wvyP_VshCR_R7Vu3m00]--></g></svg>