<?xml version="1.0" encoding="UTF-8" standalone="no"?><svg xmlns="http://www.w3.org/2000/svg" xmlns:xlink="http://www.w3.org/1999/xlink" contentScriptType="application/ecmascript" contentStyleType="text/css" height="340px" preserveAspectRatio="none" style="width:1251px;height:340px;" version="1.1" viewBox="0 0 1251 340" width="1251px" zoomAndPan="magnify"><defs><filter height="300%" id="f1r2kycha0v702" width="300%" x="-1" y="-1"><feGaussianBlur result="blurOut" stdDeviation="2.0"/><feColorMatrix in="blurOut" result="blurOut2" type="matrix" values="0 0 0 0 0 0 0 0 0 0 0 0 0 0 0 0 0 0 .4 0"/><feOffset dx="4.0" dy="4.0" in="blurOut2" result="blurOut3"/><feBlend in="SourceGraphic" in2="blurOut3" mode="normal"/></filter></defs><g><!--entity SABundle--><rect fill="#90EE90" filter="url(#f1r2kycha0v702)" height="37.6094" style="stroke: #000000; stroke-width: 1.5;" width="82" x="216.625" y="8"/><text fill="#000000" font-family="sans-serif" font-size="14" lengthAdjust="spacingAndGlyphs" textLength="62" x="226.625" y="32.5332">SABundle</text><!--entity InputStreamInstance--><rect fill="#90EE90" filter="url(#f1r2kycha0v702)" height="37.6094" style="stroke: #000000; stroke-width: 1.5;" width="149" x="112.125" y="292"/><text fill="#000000" font-family="sans-serif" font-size="14" lengthAdjust="spacingAndGlyphs" textLength="129" x="122.125" y="316.5332">InputStreamInstance</text><!--entity OutputStreamInstance--><rect fill="#90EE90" filter="url(#f1r2kycha0v702)" height="37.6094" style="stroke: #000000; stroke-width: 1.5;" width="161" x="542.125" y="292"/><text fill="#000000" font-family="sans-serif" font-size="14" lengthAdjust="spacingAndGlyphs" textLength="141" x="552.125" y="316.5332">OutputStreamInstance</text><!--entity StackInstance--><rect fill="#ADD8E6" filter="url(#f1r2kycha0v702)" height="37.6094" style="stroke: #000000; stroke-width: 1.5;" width="108" x="818.625" y="292"/><text fill="#000000" font-family="sans-serif" font-size="14" lengthAdjust="spacingAndGlyphs" textLength="88" x="828.625" y="316.5332">StackInstance</text><!--entity AIModel--><rect fill="#ADD8E6" filter="url(#f1r2kycha0v702)" height="37.6094" style="stroke: #000000; stroke-width: 1.5;" width="70" x="961.625" y="292"/><text fill="#000000" font-family="sans-serif" font-size="14" lengthAdjust="spacingAndGlyphs" textLength="50" x="971.625" y="316.5332">AIModel</text><!--entity DataTransformInstance--><rect fill="#ADD8E6" filter="url(#f1r2kycha0v702)" height="37.6094" style="stroke: #000000; stroke-width: 1.5;" width="168" x="1066.62" y="292"/><text fill="#000000" font-family="sans-serif" font-size="14" lengthAdjust="spacingAndGlyphs" textLength="148" x="1076.62" y="316.5332">DataTransformInstance</text><!--entity CapabilityInstance--><rect fill="#90EE90" filter="url(#f1r2kycha0v702)" height="37.6094" style="stroke: #000000; stroke-width: 1.5;" width="135" x="334.125" y="8"/><text fill="#000000" font-family="sans-serif" font-size="14" lengthAdjust="spacingAndGlyphs" textLength="115" x="344.125" y="32.5332">CapabilityInstance</text><!--entity DataChannelInstance--><rect fill="#90EE90" filter="url(#f1r2kycha0v702)" height="37.6094" style="stroke: #000000; stroke-width: 1.5;" width="156" x="504.625" y="8"/><text fill="#000000" font-family="sans-serif" font-size="14" lengthAdjust="spacingAndGlyphs" textLength="136" x="514.625" y="32.5332">DataChannelInstance</text><!--entity DataStreamInstance--><rect fill="#90EE90" filter="url(#f1r2kycha0v702)" height="37.6094" style="stroke: #000000; stroke-width: 1.5;" width="148" x="695.625" y="8"/><text fill="#000000" font-family="sans-serif" font-size="14" lengthAdjust="spacingAndGlyphs" textLength="128" x="705.625" y="32.5332">DataStreamInstance</text><!--entity InputChannelInstance--><rect fill="#90EE90" filter="url(#f1r2kycha0v702)" height="37.6094" style="stroke: #000000; stroke-width: 1.5;" width="157" x="879.125" y="8"/><text fill="#000000" font-family="sans-serif" font-size="14" lengthAdjust="spacingAndGlyphs" textLength="137" x="889.125" y="32.5332">InputChannelInstance</text><!--entity OutputChannelInstance--><rect fill="#90EE90" filter="url(#f1r2kycha0v702)" height="37.6094" style="stroke: #000000; stroke-width: 1.5;" width="169" x="1071.12" y="8"/><text fill="#000000" font-family="sans-serif" font-size="14" lengthAdjust="spacingAndGlyphs" textLength="149" x="1081.12" y="32.5332">OutputChannelInstance</text><!--class Model--><rect fill="#FEFECE" filter="url(#f1r2kycha0v702)" height="89.5078" id="Model" style="stroke: #A80036; stroke-width: 1.5;" width="133" x="516.125" y="124"/><ellipse cx="531.125" cy="140" fill="#ADD1B2" rx="11" ry="11" style="stroke: #A80036; stroke-width: 1.0;"/><path d="M533.8906,135.875 Q534.0469,135.6563 534.2344,135.5469 Q534.4219,135.4375 534.6406,135.4375 Q535.0156,135.4375 535.25,135.6953 Q535.4844,135.9531 535.4844,136.5625 L535.4844,138.0156 Q535.4844,138.625 535.25,138.8906 Q535.0156,139.1563 534.6406,139.1563 Q534.2969,139.1563 534.0938,138.9531 Q533.8906,138.7656 533.7813,138.25 Q533.7344,137.8906 533.5469,137.7031 Q533.2188,137.3281 532.6094,137.1094 Q532,136.8906 531.375,136.8906 Q530.6094,136.8906 529.9766,137.2188 Q529.3438,137.5469 528.8516,138.2969 Q528.3594,139.0469 528.3594,140.0781 L528.3594,141.1719 Q528.3594,142.4063 529.25,143.2266 Q530.1406,144.0469 531.7344,144.0469 Q532.6719,144.0469 533.3281,143.7969 Q533.7188,143.6406 534.1406,143.2031 Q534.4063,142.9375 534.5547,142.8594 Q534.7031,142.7813 534.9063,142.7813 Q535.2344,142.7813 535.4922,143.0391 Q535.75,143.2969 535.75,143.6406 Q535.75,143.9844 535.4063,144.3906 Q534.9063,144.9688 534.1094,145.2969 Q533.0313,145.75 531.7344,145.75 Q530.2188,145.75 529.0156,145.125 Q528.0313,144.625 527.3438,143.5547 Q526.6563,142.4844 526.6563,141.2031 L526.6563,140.0469 Q526.6563,138.7188 527.2734,137.5703 Q527.8906,136.4219 528.9844,135.8047 Q530.0781,135.1875 531.3125,135.1875 Q532.0469,135.1875 532.6953,135.3516 Q533.3438,135.5156 533.8906,135.875 Z "/><text fill="#000000" font-family="sans-serif" font-size="12" lengthAdjust="spacingAndGlyphs" textLength="101" x="545.125" y="144.9102">SABundleInstance</text><line style="stroke: #A80036; stroke-width: 1.5;" x1="517.125" x2="648.125" y1="156" y2="156"/><text fill="#000000" font-family="sans-serif" font-size="11" lengthAdjust="spacingAndGlyphs" textLength="56" x="522.125" y="171.4189">string name</text><text fill="#000000" font-family="sans-serif" font-size="11" lengthAdjust="spacingAndGlyphs" textLength="52" x="522.125" y="185.2549">string level</text><line style="stroke: #A80036; stroke-width: 1.5;" x1="517.125" x2="648.125" y1="191.6719" y2="191.6719"/><text fill="#000000" font-family="sans-serif" font-size="11" lengthAdjust="spacingAndGlyphs" textLength="40" x="522.125" y="207.0908">deploy()</text><!--link Model to SABundle--><path d="M503.822,134.054 C443.994,108.282 363.344,73.541 310.921,50.958 " fill="none" id="Model-SABundle" style="stroke: #A80036; stroke-width: 1.0;"/><polygon fill="#A80036" points="298.786,45.731,305.4688,52.9657,303.3779,47.7094,308.6342,45.6186,298.786,45.731" style="stroke: #A80036; stroke-width: 1.0;"/><line style="stroke: #A80036; stroke-width: 1.0;" x1="303.3779" x2="310.7255" y1="47.7094" y2="50.874"/><polygon fill="#FFFFFF" points="515.875,139.246,511.9468,133.1988,504.8539,134.4989,508.7821,140.5462,515.875,139.246" style="stroke: #A80036; stroke-width: 1.0;"/><text fill="#000000" font-family="sans-serif" font-size="13" lengthAdjust="spacingAndGlyphs" textLength="36" x="411.625" y="90.4951">parent</text><text fill="#000000" font-family="sans-serif" font-size="13" lengthAdjust="spacingAndGlyphs" textLength="7" x="302.8489" y="67.1874">1</text><!--link SABundle to Model--><path d="M273.361,57.408 C281.666,70.366 292.98,84.724 306.625,94 C365.267,133.867 444.469,152.284 502.989,160.776 " fill="none" id="SABundle-Model" style="stroke: #A80036; stroke-width: 1.0;"/><polygon fill="#A80036" points="515.894,162.538,507.5178,157.3574,510.94,161.8617,506.4357,165.2839,515.894,162.538" style="stroke: #A80036; stroke-width: 1.0;"/><line style="stroke: #A80036; stroke-width: 1.0;" x1="510.94" x2="503.0135" y1="161.8617" y2="160.7795"/><polygon fill="#A80036" points="266.598,46.087,266.2413,53.2893,272.7524,56.3886,273.1091,49.1864,266.598,46.087" style="stroke: #A80036; stroke-width: 1.0;"/><text fill="#000000" font-family="sans-serif" font-size="13" lengthAdjust="spacingAndGlyphs" textLength="56" x="307.625" y="90.4951">instances</text><text fill="#000000" font-family="sans-serif" font-size="13" lengthAdjust="spacingAndGlyphs" textLength="7" x="501.2125" y="158.4975">n</text><!--link Model to InputStreamInstance--><path d="M502.911,178.651 C411.09,189.938 267.255,212.084 223.625,244 C211.618,252.7833 202.993,266.7118 197.108,279.5143 " fill="none" id="Model-InputStreamInstance" style="stroke: #A80036; stroke-width: 1.0;"/><polygon fill="#A80036" points="192.112,291.7092,199.2251,284.8972,194.0074,287.0824,191.8222,281.8646,192.112,291.7092" style="stroke: #A80036; stroke-width: 1.0;"/><line style="stroke: #A80036; stroke-width: 1.0;" x1="194.0074" x2="197.0405" y1="287.0824" y2="279.6794"/><polygon fill="#FFFFFF" points="516.063,177.065,509.6271,173.8125,504.1494,178.5024,510.5853,181.7549,516.063,177.065" style="stroke: #A80036; stroke-width: 1.0;"/><text fill="#000000" font-family="sans-serif" font-size="13" lengthAdjust="spacingAndGlyphs" textLength="35" x="224.625" y="258.4951">inputs</text><text fill="#000000" font-family="sans-serif" font-size="13" lengthAdjust="spacingAndGlyphs" textLength="7" x="185.6957" y="281.2967">n</text><!--link Model to InputStreamInstance--><path d="M503.216,189.286 C451.867,202.629 383.971,221.916 325.625,244 C293.667,256.0957 258.943,272.581 232.196,286.0497 " fill="none" id="Model-InputStreamInstance-1" style="stroke: #A80036; stroke-width: 1.0;"/><polygon fill="#A80036" points="220.506,291.9992,230.3412,291.4814,224.962,289.7311,226.7123,284.3518,220.506,291.9992" style="stroke: #A80036; stroke-width: 1.0;"/><line style="stroke: #A80036; stroke-width: 1.0;" x1="224.962" x2="232.092" y1="289.7311" y2="286.1025"/><polygon fill="#FFFFFF" points="515.898,186.024,509.0907,183.6449,504.2763,189.0135,511.0837,191.3926,515.898,186.024" style="stroke: #A80036; stroke-width: 1.0;"/><text fill="#000000" font-family="sans-serif" font-size="13" lengthAdjust="spacingAndGlyphs" textLength="97" x="326.625" y="258.4951">learningInStream</text><text fill="#000000" font-family="sans-serif" font-size="13" lengthAdjust="spacingAndGlyphs" textLength="7" x="223.1899" y="281.0061">1</text><!--link Model to InputStreamInstance--><path d="M503.064,174.628 C354.357,184.094 46.3533,207.87 14.6246,244 C-15.6748,278.503 42.1051,295.0642 98.7024,302.9561 " fill="none" id="Model-InputStreamInstance-2" style="stroke: #A80036; stroke-width: 1.0;"/><polygon fill="#A80036" points="111.865,304.6469,103.448,299.5328,106.9058,304.0098,102.4287,307.4675,111.865,304.6469" style="stroke: #A80036; stroke-width: 1.0;"/><line style="stroke: #A80036; stroke-width: 1.0;" x1="106.9058" x2="98.9706" y1="304.0098" y2="302.9905"/><polygon fill="#FFFFFF" points="516.081,173.81,509.8418,170.1944,504.1046,174.563,510.3438,178.1786,516.081,173.81" style="stroke: #A80036; stroke-width: 1.0;"/><text fill="#000000" font-family="sans-serif" font-size="13" lengthAdjust="spacingAndGlyphs" textLength="87" x="15.6246" y="258.4951">adminInStream</text><text fill="#000000" font-family="sans-serif" font-size="13" lengthAdjust="spacingAndGlyphs" textLength="7" x="97.1608" y="300.7657">1</text><!--link InputStreamInstance to Model--><path d="M162.248,281.1021 C154.798,268.7119 150.661,254.6676 159.625,244 C202.6,192.853 392.709,177.052 502.886,172.174 " fill="none" id="InputStreamInstance-Model" style="stroke: #A80036; stroke-width: 1.0;"/><polygon fill="#A80036" points="515.911,171.632,506.7522,168.0103,510.9153,171.8402,507.0854,176.0034,515.911,171.632" style="stroke: #A80036; stroke-width: 1.0;"/><line style="stroke: #A80036; stroke-width: 1.0;" x1="510.9153" x2="502.9225" y1="171.8402" y2="172.173"/><polygon fill="#FFFFFF" points="169.741,291.8715,169.5977,284.6618,162.8875,282.0211,163.0308,289.2308,169.741,291.8715" style="stroke: #A80036; stroke-width: 1.0;"/><text fill="#000000" font-family="sans-serif" font-size="13" lengthAdjust="spacingAndGlyphs" textLength="38" x="160.625" y="258.4951">bundle</text><text fill="#000000" font-family="sans-serif" font-size="13" lengthAdjust="spacingAndGlyphs" textLength="7" x="501.2313" y="186.3361">1</text><!--link Model to OutputStreamInstance--><path d="M617.411,226.092 C619.924,231.9785 622.075,238.0054 623.625,244 C626.488,255.0776 626.966,267.5537 626.484,278.6524 " fill="none" id="Model-OutputStreamInstance" style="stroke: #A80036; stroke-width: 1.0;"/><polygon fill="#A80036" points="625.466,291.7651,630.1504,283.1016,625.8529,286.7801,622.1744,282.4826,625.466,291.7651" style="stroke: #A80036; stroke-width: 1.0;"/><line style="stroke: #A80036; stroke-width: 1.0;" x1="625.8529" x2="626.4715" y1="286.7801" y2="278.8041"/><polygon fill="#FFFFFF" points="611.824,214.264,610.7701,221.3977,616.9498,225.1142,618.0036,217.9805,611.824,214.264" style="stroke: #A80036; stroke-width: 1.0;"/><text fill="#000000" font-family="sans-serif" font-size="13" lengthAdjust="spacingAndGlyphs" textLength="43" x="627.625" y="258.4951">outputs</text><text fill="#000000" font-family="sans-serif" font-size="13" lengthAdjust="spacingAndGlyphs" textLength="7" x="618.2642" y="281.0332">n</text><!--link Model to OutputStreamInstance--><path d="M659.129,216.47 C667.365,224.61 674.573,233.7933 679.625,244 C686.849,258.5976 677.936,272.5816 665.172,283.8899 " fill="none" id="Model-OutputStreamInstance-1" style="stroke: #A80036; stroke-width: 1.0;"/><polygon fill="#A80036" points="654.865,291.9816,664.4142,289.5706,658.7979,288.8942,659.4743,283.2779,654.865,291.9816" style="stroke: #A80036; stroke-width: 1.0;"/><line style="stroke: #A80036; stroke-width: 1.0;" x1="658.7979" x2="665.0905" y1="288.8942" y2="283.9541"/><polygon fill="#FFFFFF" points="649.454,207.724,651.223,214.7148,658.3564,215.7706,656.5874,208.7798,649.454,207.724" style="stroke: #A80036; stroke-width: 1.0;"/><text fill="#000000" font-family="sans-serif" font-size="13" lengthAdjust="spacingAndGlyphs" textLength="108" x="683.625" y="258.4951">learningOutStream</text><text fill="#000000" font-family="sans-serif" font-size="13" lengthAdjust="spacingAndGlyphs" textLength="7" x="657.0259" y="280.9829">1</text><!--link Model to OutputStreamInstance--><path d="M503.487,190.109 C458.15,205.58 414.765,229.778 439.625,262 C451.277,277.1026 490.027,288.3817 528.887,296.198 " fill="none" id="Model-OutputStreamInstance-2" style="stroke: #A80036; stroke-width: 1.0;"/><polygon fill="#A80036" points="541.752,298.6655,533.6665,293.0419,536.8415,297.7237,532.1597,300.8987,541.752,298.6655" style="stroke: #A80036; stroke-width: 1.0;"/><line style="stroke: #A80036; stroke-width: 1.0;" x1="536.8415" x2="528.984" y1="297.7237" y2="296.2167"/><polygon fill="#FFFFFF" points="515.955,186.074,509.0148,184.116,504.5381,189.7693,511.4783,191.7273,515.955,186.074" style="stroke: #A80036; stroke-width: 1.0;"/><text fill="#000000" font-family="sans-serif" font-size="13" lengthAdjust="spacingAndGlyphs" textLength="98" x="440.625" y="258.4951">adminOutStream</text><text fill="#000000" font-family="sans-serif" font-size="13" lengthAdjust="spacingAndGlyphs" textLength="7" x="527.2375" y="294.3826">1</text><!--link OutputStreamInstance to Model--><path d="M588.637,282.2163 C583.329,276.1529 578.617,269.3329 575.625,262 C571.227,251.2243 569.89,239.1545 570.23,227.393 " fill="none" id="OutputStreamInstance-Model" style="stroke: #A80036; stroke-width: 1.0;"/><polygon fill="#A80036" points="571.252,214.331,566.562,222.9915,570.8619,219.3158,574.5376,223.6157,571.252,214.331" style="stroke: #A80036; stroke-width: 1.0;"/><line style="stroke: #A80036; stroke-width: 1.0;" x1="570.8619" x2="570.238" y1="219.3158" y2="227.291"/><polygon fill="#FFFFFF" points="597.936,291.6629,596.5774,284.5809,589.5176,283.1112,590.8763,290.1932,597.936,291.6629" style="stroke: #A80036; stroke-width: 1.0;"/><text fill="#000000" font-family="sans-serif" font-size="13" lengthAdjust="spacingAndGlyphs" textLength="38" x="576.625" y="258.4951">bundle</text><text fill="#000000" font-family="sans-serif" font-size="13" lengthAdjust="spacingAndGlyphs" textLength="7" x="562.2534" y="235.0492">1</text><!--link Model to StackInstance--><path d="M662.279,188.471 C705.14,200.474 757.833,218.663 800.625,244 C817.949,254.2581 834.692,269.1983 847.665,282.2708 " fill="none" id="Model-StackInstance" style="stroke: #A80036; stroke-width: 1.0;"/><polygon fill="#A80036" points="856.799,291.7948,853.4567,282.5304,853.3383,288.186,847.6826,288.0676,856.799,291.7948" style="stroke: #A80036; stroke-width: 1.0;"/><line style="stroke: #A80036; stroke-width: 1.0;" x1="853.3383" x2="847.801" y1="288.186" y2="282.412"/><polygon fill="#FFFFFF" points="649.605,185.019,654.3437,190.4545,661.1837,188.1708,656.445,182.7354,649.605,185.019" style="stroke: #A80036; stroke-width: 1.0;"/><text fill="#000000" font-family="sans-serif" font-size="13" lengthAdjust="spacingAndGlyphs" textLength="32" x="825.625" y="258.4951">stack</text><text fill="#000000" font-family="sans-serif" font-size="13" lengthAdjust="spacingAndGlyphs" textLength="7" x="843.8804" y="281.072">n</text><!--link Model to AIModel--><path d="M662.014,185.882 C719.764,198.584 799.298,218.478 866.625,244 C896.829,255.4498 929.225,271.8855 954.122,285.4907 " fill="none" id="Model-AIModel" style="stroke: #A80036; stroke-width: 1.0;"/><polygon fill="#A80036" points="965.699,291.9081,959.7669,284.0462,961.326,289.4839,955.8882,291.0431,965.699,291.9081" style="stroke: #A80036; stroke-width: 1.0;"/><line style="stroke: #A80036; stroke-width: 1.0;" x1="961.326" x2="954.329" y1="289.4839" y2="285.6055"/><polygon fill="#FFFFFF" points="649.3,183.124,654.3157,188.305,661.0273,185.6678,656.0116,180.4868,649.3,183.124" style="stroke: #A80036; stroke-width: 1.0;"/><text fill="#000000" font-family="sans-serif" font-size="13" lengthAdjust="spacingAndGlyphs" textLength="52" x="908.625" y="258.4951">aimodels</text><text fill="#000000" font-family="sans-serif" font-size="13" lengthAdjust="spacingAndGlyphs" textLength="7" x="948.156" y="281.22">n</text><!--link Model to DataTransformInstance--><path d="M662.678,181.456 C741.545,193.64 865.06,215.14 969.625,244 C1012.41,255.809 1059.48,273.1099 1094.89,287.0358 " fill="none" id="Model-DataTransformInstance" style="stroke: #A80036; stroke-width: 1.0;"/><polygon fill="#A80036" points="1107.37,291.9973,1100.4828,284.9569,1102.7233,290.1512,1097.529,292.3916,1107.37,291.9973" style="stroke: #A80036; stroke-width: 1.0;"/><line style="stroke: #A80036; stroke-width: 1.0;" x1="1102.7233" x2="1095.29" y1="290.1512" y2="287.1977"/><polygon fill="#FFFFFF" points="649.451,179.435,654.7783,184.295,661.3134,181.2468,655.9862,176.3868,649.451,179.435" style="stroke: #A80036; stroke-width: 1.0;"/><text fill="#000000" font-family="sans-serif" font-size="13" lengthAdjust="spacingAndGlyphs" textLength="61" x="1025.62" y="258.4951">transforms</text><text fill="#000000" font-family="sans-serif" font-size="13" lengthAdjust="spacingAndGlyphs" textLength="7" x="1085.4684" y="281.0036">n</text><!--link CapabilityInstance to Model--><path d="M435.452,54.165 C457.794,71.446 487.847,94.691 514.971,115.671 " fill="none" id="CapabilityInstance-Model" style="stroke: #A80036; stroke-width: 1.0;"/><polygon fill="#A80036" points="525.593,123.887,520.9217,115.2164,521.6381,120.8277,516.0268,121.5442,525.593,123.887" style="stroke: #A80036; stroke-width: 1.0;"/><line style="stroke: #A80036; stroke-width: 1.0;" x1="521.6381" x2="515.31" y1="120.8277" y2="115.933"/><polygon fill="#FFFFFF" points="424.917,46.016,427.216,52.8508,434.4093,53.3574,432.1103,46.5226,424.917,46.016" style="stroke: #A80036; stroke-width: 1.0;"/><text fill="#000000" font-family="sans-serif" font-size="13" lengthAdjust="spacingAndGlyphs" textLength="45" x="488.625" y="90.4951">bundles</text><text fill="#000000" font-family="sans-serif" font-size="13" lengthAdjust="spacingAndGlyphs" textLength="7" x="508.9457" y="112.9845">n</text><!--link DataChannelInstance to Model--><path d="M582.625,59.048 C582.625,74.236 582.625,93.012 582.625,110.675 " fill="none" id="DataChannelInstance-Model" style="stroke: #A80036; stroke-width: 1.0;"/><polygon fill="#A80036" points="582.625,123.887,586.625,114.887,582.625,118.887,578.625,114.887,582.625,123.887" style="stroke: #A80036; stroke-width: 1.0;"/><line style="stroke: #A80036; stroke-width: 1.0;" x1="582.625" x2="582.625" y1="118.887" y2="110.887"/><polygon fill="#FFFFFF" points="582.625,46.016,578.625,52.016,582.625,58.016,586.625,52.016,582.625,46.016" style="stroke: #A80036; stroke-width: 1.0;"/><text fill="#000000" font-family="sans-serif" font-size="13" lengthAdjust="spacingAndGlyphs" textLength="38" x="583.625" y="90.4951">bundle</text><text fill="#000000" font-family="sans-serif" font-size="13" lengthAdjust="spacingAndGlyphs" textLength="7" x="575.0672" y="112.9845">1</text><!--link DataStreamInstance to Model--><path d="M735.027,53.902 C711.821,71.276 680.447,94.764 652.197,115.913 " fill="none" id="DataStreamInstance-Model" style="stroke: #A80036; stroke-width: 1.0;"/><polygon fill="#A80036" points="641.547,123.887,651.1489,121.6954,645.5496,120.8905,646.3546,115.2912,641.547,123.887" style="stroke: #A80036; stroke-width: 1.0;"/><line style="stroke: #A80036; stroke-width: 1.0;" x1="645.5496" x2="651.9535" y1="120.8905" y2="116.096"/><polygon fill="#FFFFFF" points="745.56,46.016,738.3597,46.4103,735.9543,53.2084,743.1546,52.8141,745.56,46.016" style="stroke: #A80036; stroke-width: 1.0;"/><text fill="#000000" font-family="sans-serif" font-size="13" lengthAdjust="spacingAndGlyphs" textLength="38" x="705.625" y="90.4951">bundle</text><text fill="#000000" font-family="sans-serif" font-size="13" lengthAdjust="spacingAndGlyphs" textLength="7" x="643.3799" y="112.9845">1</text><!--link InputChannelInstance to Model--><path d="M896.787,50.713 C832.774,74.611 731.767,112.32 661.633,138.504 " fill="none" id="InputChannelInstance-Model" style="stroke: #A80036; stroke-width: 1.0;"/><polygon fill="#A80036" points="649.349,143.09,659.1796,143.6892,654.0331,141.3411,656.3813,136.1946,649.349,143.09" style="stroke: #A80036; stroke-width: 1.0;"/><line style="stroke: #A80036; stroke-width: 1.0;" x1="654.0331" x2="661.5275" y1="141.3411" y2="138.5425"/><polygon fill="#FFFFFF" points="909.368,46.016,902.3479,44.3674,898.126,50.2134,905.1462,51.862,909.368,46.016" style="stroke: #A80036; stroke-width: 1.0;"/><text fill="#000000" font-family="sans-serif" font-size="13" lengthAdjust="spacingAndGlyphs" textLength="38" x="826.625" y="90.4951">bundle</text><text fill="#000000" font-family="sans-serif" font-size="13" lengthAdjust="spacingAndGlyphs" textLength="7" x="657.0298" y="136.9224">1</text><!--link OutputChannelInstance to Model--><path d="M1068.98,49.169 C958.597,76.139 769.328,122.383 662.356,148.519 " fill="none" id="OutputChannelInstance-Model" style="stroke: #A80036; stroke-width: 1.0;"/><polygon fill="#A80036" points="649.412,151.682,659.1042,153.4314,654.2691,150.4952,657.2054,145.6601,649.412,151.682" style="stroke: #A80036; stroke-width: 1.0;"/><line style="stroke: #A80036; stroke-width: 1.0;" x1="654.2691" x2="662.04" y1="150.4952" y2="148.596"/><polygon fill="#FFFFFF" points="1081.89,46.016,1075.112,43.5545,1070.2329,48.8643,1077.0109,51.3259,1081.89,46.016" style="stroke: #A80036; stroke-width: 1.0;"/><text fill="#000000" font-family="sans-serif" font-size="13" lengthAdjust="spacingAndGlyphs" textLength="38" x="955.625" y="90.4951">bundle</text><text fill="#000000" font-family="sans-serif" font-size="13" lengthAdjust="spacingAndGlyphs" textLength="7" x="657.0996" y="164.2041">1</text><!--
@startuml

class "SABundleInstance" as Model {
 string name
 string level

 deploy()
 
}

rectangle "SABundle" as SABundle #lightblue {
}

Model o- -> "1" SABundle : parent


rectangle "InputStreamInstance" as InputStreamInstance #lightblue {
}

Model o- -> "n" InputStreamInstance : inputs


rectangle "OutputStreamInstance" as OutputStreamInstance #lightblue {
}

Model o- -> "n" OutputStreamInstance : outputs


rectangle "InputStreamInstance" as InputStreamInstance #lightblue {
}

Model o- -> "1" InputStreamInstance : learningInStream


rectangle "InputStreamInstance" as InputStreamInstance #lightblue {
}

Model o- -> "1" InputStreamInstance : adminInStream


rectangle "OutputStreamInstance" as OutputStreamInstance #lightblue {
}

Model o- -> "1" OutputStreamInstance : learningOutStream


rectangle "OutputStreamInstance" as OutputStreamInstance #lightblue {
}

Model o- -> "1" OutputStreamInstance : adminOutStream


rectangle "StackInstance" as StackInstance #lightblue {
}

Model o- -> "n" StackInstance : stack


rectangle "AIModel" as AIModel #lightblue {
}

Model o- -> "n" AIModel : aimodels


rectangle "DataTransformInstance" as DataTransformInstance #lightblue {
}

Model o- -> "n" DataTransformInstance : transforms




    rectangle "CapabilityInstance" as CapabilityInstance #lightgreen {
    }
    
        CapabilityInstance   o- -> "n" Model : "bundles"
    
    rectangle "DataChannelInstance" as DataChannelInstance #lightgreen {
    }
    
        DataChannelInstance   o- -> "1" Model : "bundle"
    
    rectangle "DataStreamInstance" as DataStreamInstance #lightgreen {
    }
    
        DataStreamInstance   o- -> "1" Model : "bundle"
    
    rectangle "InputChannelInstance" as InputChannelInstance #lightgreen {
    }
    
        InputChannelInstance   o- -> "1" Model : "bundle"
    
    rectangle "InputStreamInstance" as InputStreamInstance #lightgreen {
    }
    
        InputStreamInstance   o- -> "1" Model : "bundle"
    
    rectangle "OutputChannelInstance" as OutputChannelInstance #lightgreen {
    }
    
        OutputChannelInstance   o- -> "1" Model : "bundle"
    
    rectangle "OutputStreamInstance" as OutputStreamInstance #lightgreen {
    }
    
        OutputStreamInstance   o- -> "1" Model : "bundle"
    
    rectangle "SABundle" as SABundle #lightgreen {
    }
    
        SABundle   *- -> "n" Model : "instances"
    

@enduml

PlantUML version 1.2019.05(Sat Apr 20 09:45:36 PDT 2019)
(GPL source distribution)
Java Runtime: Java(TM) SE Runtime Environment
JVM: Java HotSpot(TM) Client VM
Java Version: 1.8.0_271-b09
Operating System: Windows 10
OS Version: 10.0
Default Encoding: Cp1252
Language: en
Country: US
--></g></svg>