<?xml version="1.0" encoding="us-ascii" standalone="no"?><svg xmlns="http://www.w3.org/2000/svg" xmlns:xlink="http://www.w3.org/1999/xlink" contentStyleType="text/css" height="345px" preserveAspectRatio="none" style="width:1269px;height:345px;background:#FFFFFF;" version="1.1" viewBox="0 0 1269 345" width="1269px" zoomAndPan="magnify"><defs/><g><!--entity SABundle--><g id="elem_SABundle"><rect fill="#90EE90" height="37.6094" rx="2.5" ry="2.5" style="stroke:#181818;stroke-width:0.5;" width="82" x="240.48" y="7"/><text fill="#000000" font-family="sans-serif" font-size="14" lengthAdjust="spacing" textLength="62" x="250.48" y="31.5332">SABundle</text></g><!--entity InputStreamInstance--><g id="elem_InputStreamInstance"><rect fill="#90EE90" height="37.6094" rx="2.5" ry="2.5" style="stroke:#181818;stroke-width:0.5;" width="149" x="135.98" y="302"/><text fill="#000000" font-family="sans-serif" font-size="14" lengthAdjust="spacing" textLength="129" x="145.98" y="326.5332">InputStreamInstance</text></g><!--entity OutputStreamInstance--><g id="elem_OutputStreamInstance"><rect fill="#90EE90" height="37.6094" rx="2.5" ry="2.5" style="stroke:#181818;stroke-width:0.5;" width="161" x="565.98" y="302"/><text fill="#000000" font-family="sans-serif" font-size="14" lengthAdjust="spacing" textLength="141" x="575.98" y="326.5332">OutputStreamInstance</text></g><!--entity StackInstance--><g id="elem_StackInstance"><rect fill="#ADD8E6" height="37.6094" rx="2.5" ry="2.5" style="stroke:#181818;stroke-width:0.5;" width="108" x="842.48" y="302"/><text fill="#000000" font-family="sans-serif" font-size="14" lengthAdjust="spacing" textLength="88" x="852.48" y="326.5332">StackInstance</text></g><!--entity AIModel--><g id="elem_AIModel"><rect fill="#ADD8E6" height="37.6094" rx="2.5" ry="2.5" style="stroke:#181818;stroke-width:0.5;" width="70" x="985.48" y="302"/><text fill="#000000" font-family="sans-serif" font-size="14" lengthAdjust="spacing" textLength="50" x="995.48" y="326.5332">AIModel</text></g><!--entity DataTransformInstance--><g id="elem_DataTransformInstance"><rect fill="#ADD8E6" height="37.6094" rx="2.5" ry="2.5" style="stroke:#181818;stroke-width:0.5;" width="168" x="1090.48" y="302"/><text fill="#000000" font-family="sans-serif" font-size="14" lengthAdjust="spacing" textLength="148" x="1100.48" y="326.5332">DataTransformInstance</text></g><!--entity CapabilityInstance--><g id="elem_CapabilityInstance"><rect fill="#90EE90" height="37.6094" rx="2.5" ry="2.5" style="stroke:#181818;stroke-width:0.5;" width="135" x="357.98" y="7"/><text fill="#000000" font-family="sans-serif" font-size="14" lengthAdjust="spacing" textLength="115" x="367.98" y="31.5332">CapabilityInstance</text></g><!--entity DataChannelInstance--><g id="elem_DataChannelInstance"><rect fill="#90EE90" height="37.6094" rx="2.5" ry="2.5" style="stroke:#181818;stroke-width:0.5;" width="156" x="528.48" y="7"/><text fill="#000000" font-family="sans-serif" font-size="14" lengthAdjust="spacing" textLength="136" x="538.48" y="31.5332">DataChannelInstance</text></g><!--entity DataStreamInstance--><g id="elem_DataStreamInstance"><rect fill="#90EE90" height="37.6094" rx="2.5" ry="2.5" style="stroke:#181818;stroke-width:0.5;" width="148" x="719.48" y="7"/><text fill="#000000" font-family="sans-serif" font-size="14" lengthAdjust="spacing" textLength="128" x="729.48" y="31.5332">DataStreamInstance</text></g><!--entity InputChannelInstance--><g id="elem_InputChannelInstance"><rect fill="#90EE90" height="37.6094" rx="2.5" ry="2.5" style="stroke:#181818;stroke-width:0.5;" width="157" x="902.98" y="7"/><text fill="#000000" font-family="sans-serif" font-size="14" lengthAdjust="spacing" textLength="137" x="912.98" y="31.5332">InputChannelInstance</text></g><!--entity OutputChannelInstance--><g id="elem_OutputChannelInstance"><rect fill="#90EE90" height="37.6094" rx="2.5" ry="2.5" style="stroke:#181818;stroke-width:0.5;" width="169" x="1094.98" y="7"/><text fill="#000000" font-family="sans-serif" font-size="14" lengthAdjust="spacing" textLength="149" x="1104.98" y="31.5332">OutputChannelInstance</text></g><!--class Model--><g id="elem_Model"><rect codeLine="2" fill="#F1F1F1" height="100.8281" id="Model" rx="2.5" ry="2.5" style="stroke:#181818;stroke-width:0.5;" width="147" x="532.98" y="123"/><ellipse cx="547.98" cy="139" fill="#ADD1B2" rx="11" ry="11" style="stroke:#181818;stroke-width:1.0;"/><path d="M550.7456,134.875 Q550.9019,134.6563 551.0894,134.5469 Q551.2769,134.4375 551.4956,134.4375 Q551.8706,134.4375 552.105,134.6953 Q552.3394,134.9531 552.3394,135.5625 L552.3394,137.0156 Q552.3394,137.625 552.105,137.8906 Q551.8706,138.1563 551.4956,138.1563 Q551.1519,138.1563 550.9488,137.9531 Q550.7456,137.7656 550.6363,137.25 Q550.5894,136.8906 550.4019,136.7031 Q550.0738,136.3281 549.4644,136.1094 Q548.855,135.8906 548.23,135.8906 Q547.4644,135.8906 546.8316,136.2188 Q546.1988,136.5469 545.7066,137.2969 Q545.2144,138.0469 545.2144,139.0781 L545.2144,140.1719 Q545.2144,141.4063 546.105,142.2266 Q546.9956,143.0469 548.5894,143.0469 Q549.5269,143.0469 550.1831,142.7969 Q550.5738,142.6406 550.9956,142.2031 Q551.2613,141.9375 551.4097,141.8594 Q551.5581,141.7813 551.7613,141.7813 Q552.0894,141.7813 552.3472,142.0391 Q552.605,142.2969 552.605,142.6406 Q552.605,142.9844 552.2613,143.3906 Q551.7613,143.9688 550.9644,144.2969 Q549.8863,144.75 548.5894,144.75 Q547.0738,144.75 545.8706,144.125 Q544.8863,143.625 544.1988,142.5547 Q543.5113,141.4844 543.5113,140.2031 L543.5113,139.0469 Q543.5113,137.7188 544.1284,136.5703 Q544.7456,135.4219 545.8394,134.8047 Q546.9331,134.1875 548.1675,134.1875 Q548.9019,134.1875 549.5503,134.3516 Q550.1988,134.5156 550.7456,134.875 Z " fill="#000000"/><text fill="#000000" font-family="sans-serif" font-size="14" lengthAdjust="spacing" textLength="115" x="561.98" y="144.7285">SABundleInstance</text><line style="stroke:#181818;stroke-width:0.5;" x1="533.98" x2="678.98" y1="155" y2="155"/><text fill="#000000" font-family="sans-serif" font-size="14" lengthAdjust="spacing" textLength="74" x="538.98" y="173.5332">string name</text><text fill="#000000" font-family="sans-serif" font-size="14" lengthAdjust="spacing" textLength="68" x="538.98" y="191.1426">string level</text><line style="stroke:#181818;stroke-width:0.5;" x1="533.98" x2="678.98" y1="198.2188" y2="198.2188"/><text fill="#000000" font-family="sans-serif" font-size="14" lengthAdjust="spacing" textLength="52" x="538.98" y="216.752">deploy()</text></g><!--link Model to SABundle--><g id="link_Model_SABundle"><path codeLine="13" d="M521.9375,134.6466 C456.6475,105.4166 380.1262,71.1617 327.4562,47.5817 " fill="none" id="Model-SABundle" style="stroke:#181818;stroke-width:1.0;"/><polygon fill="none" points="532.89,139.55,529.0482,133.4475,521.9375,134.6466,525.7793,140.7491,532.89,139.55" style="stroke:#181818;stroke-width:1.0;"/><polygon fill="#181818" points="321.98,45.13,328.5599,52.4583,326.5435,47.1731,331.8288,45.1567,321.98,45.13" style="stroke:#181818;stroke-width:1.0;"/><text fill="#000000" font-family="sans-serif" font-size="13" lengthAdjust="spacing" textLength="36" x="426.48" y="89.4951">parent</text><text fill="#000000" font-family="sans-serif" font-size="13" lengthAdjust="spacing" textLength="7" x="324.9238" y="66.016">1</text></g><!--link SABundle to Model--><g id="link_SABundle_Model"><path codeLine="110" d="M296.3798,55.4664 C304.7698,70.4264 312.77,80.72 330.48,93 C391.12,135.05 467.9745,154.1076 527.0145,163.4976 " fill="none" id="SABundle-Model" style="stroke:#181818;stroke-width:1.0;"/><polygon fill="#181818" points="290.51,45,289.9561,52.1898,296.3798,55.4664,296.9337,48.2766,290.51,45" style="stroke:#181818;stroke-width:1.0;"/><polygon fill="#181818" points="532.94,164.44,524.68,159.076,528.0021,163.6546,523.4234,166.9767,532.94,164.44" style="stroke:#181818;stroke-width:1.0;"/><text fill="#000000" font-family="sans-serif" font-size="13" lengthAdjust="spacing" textLength="56" x="331.48" y="89.4951">instances</text><text fill="#000000" font-family="sans-serif" font-size="13" lengthAdjust="spacing" textLength="7" x="517.9953" y="160.2028">n</text></g><!--link Model to InputStreamInstance--><g id="link_Model_InputStreamInstance"><path codeLine="19" d="M521.0109,185.2379 C429.5709,197.7579 292,220.93 247.48,254 C231.56,265.83 223.6033,281.0359 218.0733,296.1359 " fill="none" id="Model-InputStreamInstance" style="stroke:#181818;stroke-width:1.0;"/><polygon fill="none" points="532.9,183.61,526.4128,180.4609,521.0109,185.2379,527.4981,188.387,532.9,183.61" style="stroke:#181818;stroke-width:1.0;"/><polygon fill="#181818" points="216.01,301.77,222.861,294.6945,217.7294,297.0749,215.349,291.9434,216.01,301.77" style="stroke:#181818;stroke-width:1.0;"/><text fill="#000000" font-family="sans-serif" font-size="13" lengthAdjust="spacing" textLength="35" x="248.48" y="268.4951">inputs</text><text fill="#000000" font-family="sans-serif" font-size="13" lengthAdjust="spacing" textLength="7" x="209.6317" y="291.0396">n</text></g><!--link Model to InputStreamInstance--><g id="link_Model_InputStreamInstance"><path codeLine="31" d="M521.4109,197.4687 C469.4909,212.1187 410.18,230.34 349.48,254 C313.01,268.21 278.1064,285.0467 250.3464,299.1867 " fill="none" id="Model-InputStreamInstance-1" style="stroke:#181818;stroke-width:1.0;"/><polygon fill="none" points="532.96,194.21,526.0992,191.9897,521.4109,197.4687,528.2717,199.6891,532.96,194.21" style="stroke:#181818;stroke-width:1.0;"/><polygon fill="#181818" points="245,301.91,254.8351,301.3894,249.4553,299.6406,251.2041,294.2608,245,301.91" style="stroke:#181818;stroke-width:1.0;"/><text fill="#000000" font-family="sans-serif" font-size="13" lengthAdjust="spacing" textLength="97" x="350.48" y="268.4951">learningInStream</text><text fill="#000000" font-family="sans-serif" font-size="13" lengthAdjust="spacing" textLength="7" x="247.4999" y="291.2225">1</text></g><!--link Model to InputStreamInstance--><g id="link_Model_InputStreamInstance"><path codeLine="37" d="M520.8117,180.361 C374.4717,191.011 70.5,217.19 38.48,254 C6,291.35 69.6809,306.9607 129.8409,314.0207 " fill="none" id="Model-InputStreamInstance-2" style="stroke:#181818;stroke-width:1.0;"/><polygon fill="none" points="532.78,179.49,526.5055,175.9361,520.8117,180.361,527.0862,183.915,532.78,179.49" style="stroke:#181818;stroke-width:1.0;"/><polygon fill="#181818" points="135.8,314.72,127.3276,309.6983,130.8341,314.1372,126.3951,317.6438,135.8,314.72" style="stroke:#181818;stroke-width:1.0;"/><text fill="#000000" font-family="sans-serif" font-size="13" lengthAdjust="spacing" textLength="87" x="39.48" y="268.4951">adminInStream</text><text fill="#000000" font-family="sans-serif" font-size="13" lengthAdjust="spacing" textLength="7" x="120.7377" y="310.7808">1</text></g><!--link InputStreamInstance to Model--><g id="link_InputStreamInstance_Model"><path codeLine="95" d="M186.2355,292.4668 C175.0855,278.2468 171.86,268.01 183.48,254 C227.01,201.52 417.4592,183.7913 526.6692,177.7513 " fill="none" id="InputStreamInstance-Model" style="stroke:#181818;stroke-width:1.0;"/><polygon fill="none" points="193.64,301.91,193.0855,294.7202,186.2355,292.4668,186.79,299.6566,193.64,301.91" style="stroke:#181818;stroke-width:1.0;"/><polygon fill="#181818" points="532.66,177.42,523.4528,173.9231,527.6676,177.6961,523.8946,181.9109,532.66,177.42" style="stroke:#181818;stroke-width:1.0;"/><text fill="#000000" font-family="sans-serif" font-size="13" lengthAdjust="spacing" textLength="38" x="184.48" y="268.4951">bundle</text><text fill="#000000" font-family="sans-serif" font-size="13" lengthAdjust="spacing" textLength="7" x="518.0488" y="192.1143">1</text></g><!--link Model to OutputStreamInstance--><g id="link_Model_OutputStreamInstance"><path codeLine="25" d="M641.8009,235.2766 C646.2609,244.7966 645.06,244.04 647.48,254 C651.32,269.81 651.2174,282.4229 649.8074,295.8329 " fill="none" id="Model-OutputStreamInstance" style="stroke:#181818;stroke-width:1.0;"/><polygon fill="none" points="636.71,224.41,635.6332,231.5403,641.8009,235.2766,642.8776,228.1463,636.71,224.41" style="stroke:#181818;stroke-width:1.0;"/><polygon fill="#181818" points="649.18,301.8,654.0992,293.2676,649.7028,296.8274,646.1431,292.4311,649.18,301.8" style="stroke:#181818;stroke-width:1.0;"/><text fill="#000000" font-family="sans-serif" font-size="13" lengthAdjust="spacing" textLength="43" x="651.48" y="268.4951">outputs</text><text fill="#000000" font-family="sans-serif" font-size="13" lengthAdjust="spacing" textLength="7" x="641.935" y="291.0788">n</text></g><!--link Model to OutputStreamInstance--><g id="link_Model_OutputStreamInstance"><path codeLine="43" d="M688.6723,230.6382 C698.1023,240.0082 697.89,242.19 703.48,254 C712.16,272.34 701.021,286.0847 683.781,298.3347 " fill="none" id="Model-OutputStreamInstance-1" style="stroke:#181818;stroke-width:1.0;"/><polygon fill="none" points="680.16,222.18,681.5968,229.2465,688.6723,230.6382,687.2355,223.5716,680.16,222.18" style="stroke:#181818;stroke-width:1.0;"/><polygon fill="#181818" points="678.89,301.81,688.5434,299.8577,682.9658,298.9139,683.9096,293.3363,678.89,301.81" style="stroke:#181818;stroke-width:1.0;"/><text fill="#000000" font-family="sans-serif" font-size="13" lengthAdjust="spacing" textLength="108" x="707.48" y="268.4951">learningOutStream</text><text fill="#000000" font-family="sans-serif" font-size="13" lengthAdjust="spacing" textLength="7" x="680.7437" y="291.0918">1</text></g><!--link Model to OutputStreamInstance--><g id="link_Model_OutputStreamInstance"><path codeLine="49" d="M521.3224,198.6491 C473.9424,215.3491 437.14,237.86 463.48,272 C476.42,288.77 516.8881,299.7494 559.7081,307.5894 " fill="none" id="Model-OutputStreamInstance-2" style="stroke:#181818;stroke-width:1.0;"/><polygon fill="none" points="532.64,194.66,525.6515,192.882,521.3224,198.6491,528.3109,200.4271,532.64,194.66" style="stroke:#181818;stroke-width:1.0;"/><polygon fill="#181818" points="565.61,308.67,557.4776,303.1145,560.6918,307.7695,556.0368,310.9837,565.61,308.67" style="stroke:#181818;stroke-width:1.0;"/><text fill="#000000" font-family="sans-serif" font-size="13" lengthAdjust="spacing" textLength="98" x="464.48" y="268.4951">adminOutStream</text><text fill="#000000" font-family="sans-serif" font-size="13" lengthAdjust="spacing" textLength="7" x="551.0958" y="304.3875">1</text></g><!--link OutputStreamInstance to Model--><g id="link_OutputStreamInstance_Model"><path codeLine="105" d="M612.9299,293.5669 C604.1499,285.5469 604.15,283.45 599.48,272 C593.42,257.15 592.1802,245.9489 593.7902,230.1889 " fill="none" id="OutputStreamInstance-Model" style="stroke:#181818;stroke-width:1.0;"/><polygon fill="none" points="621.79,301.66,620.0577,294.6601,612.9299,293.5669,614.6622,300.5668,621.79,301.66" style="stroke:#181818;stroke-width:1.0;"/><polygon fill="#181818" points="594.4,224.22,589.5061,232.7669,593.8919,229.1941,597.4646,233.5799,594.4,224.22" style="stroke:#181818;stroke-width:1.0;"/><text fill="#000000" font-family="sans-serif" font-size="13" lengthAdjust="spacing" textLength="38" x="600.48" y="268.4951">bundle</text><text fill="#000000" font-family="sans-serif" font-size="13" lengthAdjust="spacing" textLength="7" x="585.4038" y="245.2721">1</text></g><!--link Model to StackInstance--><g id="link_Model_StackInstance"><path codeLine="55" d="M691.6321,196.9342 C735.4821,210.1142 779.63,226.76 824.48,254 C846.07,267.12 862.8207,282.9387 876.4807,297.5387 " fill="none" id="Model-StackInstance" style="stroke:#181818;stroke-width:1.0;"/><polygon fill="none" points="680.14,193.48,684.7347,199.0378,691.6321,196.9342,687.0375,191.3764,680.14,193.48" style="stroke:#181818;stroke-width:1.0;"/><polygon fill="#181818" points="880.58,301.92,877.352,292.6152,877.164,298.2689,871.5102,298.0808,880.58,301.92" style="stroke:#181818;stroke-width:1.0;"/><text fill="#000000" font-family="sans-serif" font-size="13" lengthAdjust="spacing" textLength="32" x="849.48" y="268.4951">stack</text><text fill="#000000" font-family="sans-serif" font-size="13" lengthAdjust="spacing" textLength="7" x="867.6387" y="291.2355">n</text></g><!--link Model to AIModel--><g id="link_Model_AIModel"><path codeLine="61" d="M691.8093,193.6978 C749.9093,207.6278 820.82,226.87 890.48,254 C925.39,267.59 958.1384,284.6101 983.9884,299.0101 " fill="none" id="Model-AIModel" style="stroke:#181818;stroke-width:1.0;"/><polygon fill="none" points="680.14,190.9,685.042,196.1887,691.8093,193.6978,686.9072,188.4091,680.14,190.9" style="stroke:#181818;stroke-width:1.0;"/><polygon fill="#181818" points="989.23,301.93,983.3142,294.0558,984.862,299.4968,979.421,301.0446,989.23,301.93" style="stroke:#181818;stroke-width:1.0;"/><text fill="#000000" font-family="sans-serif" font-size="13" lengthAdjust="spacing" textLength="52" x="931.48" y="268.4951">aimodels</text><text fill="#000000" font-family="sans-serif" font-size="13" lengthAdjust="spacing" textLength="7" x="971.5878" y="291.2486">n</text></g><!--link Model to DataTransformInstance--><g id="link_Model_DataTransformInstance"><path codeLine="67" d="M691.9878,188.4255 C770.2378,201.8255 885.32,223.71 992.48,254 C1040.35,267.53 1088.1199,285.2749 1124.6099,299.6949 " fill="none" id="Model-DataTransformInstance" style="stroke:#181818;stroke-width:1.0;"/><polygon fill="none" points="680.16,186.4,685.3988,191.3553,691.9878,188.4255,686.7491,183.4701,680.16,186.4" style="stroke:#181818;stroke-width:1.0;"/><polygon fill="#181818" points="1130.19,301.9,1123.2899,294.8723,1125.5399,300.0624,1120.3498,302.3124,1130.19,301.9" style="stroke:#181818;stroke-width:1.0;"/><text fill="#000000" font-family="sans-serif" font-size="13" lengthAdjust="spacing" textLength="61" x="1048.48" y="268.4951">transforms</text><text fill="#000000" font-family="sans-serif" font-size="13" lengthAdjust="spacing" textLength="7" x="1108.5543" y="291.2094">n</text></g><!--link CapabilityInstance to Model--><g id="link_CapabilityInstance_Model"><path codeLine="75" d="M457.3926,52.6486 C481.4626,71.9986 506.6134,92.2211 539.9934,119.0511 " fill="none" id="CapabilityInstance-Model" style="stroke:#181818;stroke-width:1.0;"/><polygon fill="none" points="448.04,45.13,450.2101,52.0068,457.3926,52.6486,455.2225,45.7718,448.04,45.13" style="stroke:#181818;stroke-width:1.0;"/><polygon fill="#181818" points="544.67,122.81,540.1611,114.0539,540.7728,119.6776,535.1492,120.2893,544.67,122.81" style="stroke:#181818;stroke-width:1.0;"/><text fill="#000000" font-family="sans-serif" font-size="13" lengthAdjust="spacing" textLength="45" x="506.48" y="89.4951">bundles</text><text fill="#000000" font-family="sans-serif" font-size="13" lengthAdjust="spacing" textLength="7" x="528.4858" y="112.0886">n</text></g><!--link DataChannelInstance to Model--><g id="link_DataChannelInstance_Model"><path codeLine="80" d="M606.48,57.13 C606.48,76.48 606.48,89.98 606.48,116.81 " fill="none" id="DataChannelInstance-Model" style="stroke:#181818;stroke-width:1.0;"/><polygon fill="none" points="606.48,45.13,602.48,51.13,606.48,57.13,610.48,51.13,606.48,45.13" style="stroke:#181818;stroke-width:1.0;"/><polygon fill="#181818" points="606.48,122.81,610.48,113.81,606.48,117.81,602.48,113.81,606.48,122.81" style="stroke:#181818;stroke-width:1.0;"/><text fill="#000000" font-family="sans-serif" font-size="13" lengthAdjust="spacing" textLength="38" x="607.48" y="89.4951">bundle</text><text fill="#000000" font-family="sans-serif" font-size="13" lengthAdjust="spacing" textLength="7" x="598.9878" y="112.0886">1</text></g><!--link DataStreamInstance to Model--><g id="link_DataStreamInstance_Model"><path codeLine="85" d="M760.699,52.4989 C735.829,71.8489 709.5553,92.2953 675.0753,119.1253 " fill="none" id="DataStreamInstance-Model" style="stroke:#181818;stroke-width:1.0;"/><polygon fill="none" points="770.17,45.13,762.9782,45.6574,760.699,52.4989,767.8908,51.9714,770.17,45.13" style="stroke:#181818;stroke-width:1.0;"/><polygon fill="#181818" points="670.34,122.81,679.8994,120.4398,674.2861,119.7394,674.9865,114.1261,670.34,122.81" style="stroke:#181818;stroke-width:1.0;"/><text fill="#000000" font-family="sans-serif" font-size="13" lengthAdjust="spacing" textLength="38" x="729.48" y="89.4951">bundle</text><text fill="#000000" font-family="sans-serif" font-size="13" lengthAdjust="spacing" textLength="7" x="671.8281" y="112.0886">1</text></g><!--link InputChannelInstance to Model--><g id="link_InputChannelInstance_Model"><path codeLine="90" d="M923.5527,49.471 C859.7427,74.231 761.4638,112.3699 685.9138,141.6799 " fill="none" id="InputChannelInstance-Model" style="stroke:#181818;stroke-width:1.0;"/><polygon fill="none" points="934.74,45.13,927.6994,43.5714,923.5527,49.471,930.5933,51.0296,934.74,45.13" style="stroke:#181818;stroke-width:1.0;"/><polygon fill="#181818" points="680.32,143.85,690.1574,144.324,684.9815,142.0416,687.2639,136.8656,680.32,143.85" style="stroke:#181818;stroke-width:1.0;"/><text fill="#000000" font-family="sans-serif" font-size="13" lengthAdjust="spacing" textLength="38" x="850.48" y="89.4951">bundle</text><text fill="#000000" font-family="sans-serif" font-size="13" lengthAdjust="spacing" textLength="7" x="687.9332" y="137.6647">1</text></g><!--link OutputChannelInstance to Model--><g id="link_OutputChannelInstance_Model"><path codeLine="100" d="M1096.7291,48.0132 C987.4791,75.7532 796.8654,124.1532 686.0554,152.2932 " fill="none" id="OutputChannelInstance-Model" style="stroke:#181818;stroke-width:1.0;"/><polygon fill="none" points="1108.36,45.06,1101.5601,42.6596,1096.7291,48.0132,1103.529,50.4136,1108.36,45.06" style="stroke:#181818;stroke-width:1.0;"/><polygon fill="#181818" points="680.24,153.77,689.9477,155.4317,685.0862,152.5393,687.9786,147.6778,680.24,153.77" style="stroke:#181818;stroke-width:1.0;"/><text fill="#000000" font-family="sans-serif" font-size="13" lengthAdjust="spacing" textLength="38" x="978.48" y="89.4951">bundle</text><text fill="#000000" font-family="sans-serif" font-size="13" lengthAdjust="spacing" textLength="7" x="688.2074" y="166.0825">1</text></g><!--SRC=[lLQnReCm4Dtz5IUwj9KoP6MebAOBGvKX_G47hWJL66IRIb6LVwznGgZ94JT96my8t_dTUtxO9rB1jOPeENjkP2OmaTfmcM84NCDhbQ60BmRQg4Bc87c9Xud0JnICGOQrg3Rt3mpObZ65gSNd0lkIhbGtWJjHv6kp4WtQmXQmuwWcaoU8fb6_BeQQAvI6UJKJMJTcQHJoqbDAn4yooOY4n52qKUsJBXf3irA942s9YQ5oOVq_kvsExLOWLz9-p4JkKZUcvrbPI9hxxpoVZdhUxNxHvMulmJammhyqFFtmYBr8wA3vYsDxRUtSPvWb3kDgxzz3LRjbLdfHjc-38_l23NzJNEhtIlckaPaG7GsAmNInbjus8Jj-Y9ZpcgyAKPYDf-0ulAVF5Q9i-vmTM_TqZtOG6EZbTLv4AzUqTDI31vxCrrnA54UE3E9XGHG8-dCsK3GkY3ZNn-7VoHbWpbNZUWFb3vK8Ao9H5sawg_M555rfqgv_K2wHcR0e6dQPhFDwP53KbLQT-kyumNrO2V1uTB-BlPZkXdy3]--></g></svg>