<?xml version="1.0" encoding="UTF-8" standalone="no"?><svg xmlns="http://www.w3.org/2000/svg" xmlns:xlink="http://www.w3.org/1999/xlink" contentScriptType="application/ecmascript" contentStyleType="text/css" height="1087px" preserveAspectRatio="none" style="width:399px;height:1087px;" version="1.1" viewBox="0 0 399 1087" width="399px" zoomAndPan="magnify"><defs><filter height="300%" id="fdlmpgwmkxzwf" width="300%" x="-1" y="-1"><feGaussianBlur result="blurOut" stdDeviation="2.0"/><feColorMatrix in="blurOut" result="blurOut2" type="matrix" values="0 0 0 0 0 0 0 0 0 0 0 0 0 0 0 0 0 0 .4 0"/><feOffset dx="4.0" dy="4.0" in="blurOut2" result="blurOut3"/><feBlend in="SourceGraphic" in2="blurOut3" mode="normal"/></filter></defs><g><!--cluster SABundleInstance--><rect fill="#FFCC88" filter="url(#fdlmpgwmkxzwf)" height="1052" rx="12.5" ry="12.5" style="stroke: #A80036; stroke-width: 1.5;" width="257" x="22" y="24"/><rect fill="#FFFFFF" height="1018.3906" rx="12.5" ry="12.5" style="stroke: #FFFFFF; stroke-width: 1.0;" width="251" x="25" y="54.6094"/><line style="stroke: #A80036; stroke-width: 1.5;" x1="22" x2="279" y1="51.6094" y2="51.6094"/><text fill="#000000" font-family="sans-serif" font-size="14" lengthAdjust="spacingAndGlyphs" textLength="115" x="93" y="42.5332">SABundleInstance</text><rect fill="#FFCC88" filter="url(#fdlmpgwmkxzwf)" height="50" rx="12.5" ry="12.5" style="stroke: #A80036; stroke-width: 1.5;" width="50" x="181" y="60"/><line style="stroke: #A80036; stroke-width: 1.5;" x1="181" x2="231" y1="87.6094" y2="87.6094"/><text fill="#000000" font-family="sans-serif" font-size="14" lengthAdjust="spacingAndGlyphs" textLength="18" x="197" y="79.5332">Init</text><rect fill="#FFCC88" filter="url(#fdlmpgwmkxzwf)" height="50" rx="12.5" ry="12.5" style="stroke: #A80036; stroke-width: 1.5;" width="71" x="170.5" y="250"/><line style="stroke: #A80036; stroke-width: 1.5;" x1="170.5" x2="241.5" y1="277.6094" y2="277.6094"/><text fill="#000000" font-family="sans-serif" font-size="14" lengthAdjust="spacingAndGlyphs" textLength="51" x="180.5" y="269.5332">Created</text><rect fill="#FFCC88" filter="url(#fdlmpgwmkxzwf)" height="50" rx="12.5" ry="12.5" style="stroke: #A80036; stroke-width: 1.5;" width="83" x="112.5" y="440"/><line style="stroke: #A80036; stroke-width: 1.5;" x1="112.5" x2="195.5" y1="467.6094" y2="467.6094"/><text fill="#000000" font-family="sans-serif" font-size="14" lengthAdjust="spacingAndGlyphs" textLength="63" x="122.5" y="459.5332">Deploying</text><rect fill="#FFCC88" filter="url(#fdlmpgwmkxzwf)" height="50" rx="12.5" ry="12.5" style="stroke: #A80036; stroke-width: 1.5;" width="73" x="65.5" y="630"/><line style="stroke: #A80036; stroke-width: 1.5;" x1="65.5" x2="138.5" y1="657.6094" y2="657.6094"/><text fill="#000000" font-family="sans-serif" font-size="14" lengthAdjust="spacingAndGlyphs" textLength="53" x="75.5" y="649.5332">Running</text><rect fill="#FFCC88" filter="url(#fdlmpgwmkxzwf)" height="50" rx="12.5" ry="12.5" style="stroke: #A80036; stroke-width: 1.5;" width="72" x="184" y="820"/><line style="stroke: #A80036; stroke-width: 1.5;" x1="184" x2="256" y1="847.6094" y2="847.6094"/><text fill="#000000" font-family="sans-serif" font-size="14" lengthAdjust="spacingAndGlyphs" textLength="52" x="194" y="839.5332">Enabled</text><rect fill="#FFCC88" filter="url(#fdlmpgwmkxzwf)" height="50" rx="12.5" ry="12.5" style="stroke: #A80036; stroke-width: 1.5;" width="75" x="72.5" y="1010"/><line style="stroke: #A80036; stroke-width: 1.5;" x1="72.5" x2="147.5" y1="1037.6094" y2="1037.6094"/><text fill="#000000" font-family="sans-serif" font-size="14" lengthAdjust="spacingAndGlyphs" textLength="55" x="82.5" y="1029.5332">Disabled</text><rect fill="#FEFECE" filter="url(#fdlmpgwmkxzwf)" height="50" rx="12.5" ry="12.5" style="stroke: #A80036; stroke-width: 1.5;" width="50" x="329" y="1010"/><line style="stroke: #A80036; stroke-width: 1.5;" x1="329" x2="379" y1="1037.6094" y2="1037.6094"/><text fill="#000000" font-family="sans-serif" font-size="14" lengthAdjust="spacingAndGlyphs" textLength="23" x="342.5" y="1029.5332">Null</text><!--link Init to Created--><path d="M206,110.193 C206,144.599 206,207.591 206,244.63 " fill="none" id="Init-Created" style="stroke: #000000; stroke-width: 1.0;"/><polygon fill="#000000" points="206,249.9,210,240.9,206,244.9,202,240.9,206,249.9" style="stroke: #000000; stroke-width: 1.0;"/><text fill="#000000" font-family="sans-serif" font-size="13" lengthAdjust="spacingAndGlyphs" textLength="36" x="207" y="185.4951">create</text><!--link Created to Deploying--><path d="M171.968,300.162 C153.708,315.299 132.958,336.549 123,361 C113.047,385.44 123.528,414.283 134.916,435.221 " fill="none" id="Created-Deploying" style="stroke: #000000; stroke-width: 1.0;"/><polygon fill="#000000" points="137.507,439.83,136.5839,430.0245,135.057,435.4714,129.6101,433.9445,137.507,439.83" style="stroke: #000000; stroke-width: 1.0;"/><text fill="#000000" font-family="sans-serif" font-size="13" lengthAdjust="spacingAndGlyphs" textLength="38" x="124" y="375.4951">deploy</text><!--link Created to Deploying--><path d="M199.308,300.193 C189.792,334.599 172.369,397.591 162.124,434.63 " fill="none" id="Created-Deploying-1" style="stroke: #000000; stroke-width: 1.0;"/><polygon fill="#000000" points="160.666,439.9,166.9221,432.2934,161.9999,435.0812,159.2121,430.159,160.666,439.9" style="stroke: #000000; stroke-width: 1.0;"/><text fill="#000000" font-family="sans-serif" font-size="13" lengthAdjust="spacingAndGlyphs" textLength="55" x="182" y="375.4951">deploying</text><!--link Deploying to Enabled--><path d="M162.755,490.284 C168.574,507.142 176.032,530.218 181,551 C200.893,634.216 201.789,656.05 212,741 C214.98,765.789 217.084,794.074 218.384,814.724 " fill="none" id="Deploying-Enabled" style="stroke: #000000; stroke-width: 1.0;"/><polygon fill="#000000" points="218.698,819.802,222.1375,810.5733,218.3908,814.8114,214.1526,811.0647,218.698,819.802" style="stroke: #000000; stroke-width: 1.0;"/><text fill="#000000" font-family="sans-serif" font-size="13" lengthAdjust="spacingAndGlyphs" textLength="52" x="205" y="660.4951">deployed</text><!--link Deploying to Running--><path d="M147.308,490.193 C137.792,524.599 120.369,587.591 110.124,624.63 " fill="none" id="Deploying-Running" style="stroke: #000000; stroke-width: 1.0;"/><polygon fill="#000000" points="108.666,629.9,114.9221,622.2934,109.9999,625.0812,107.2121,620.159,108.666,629.9" style="stroke: #000000; stroke-width: 1.0;"/><text fill="#000000" font-family="sans-serif" font-size="13" lengthAdjust="spacingAndGlyphs" textLength="42" x="130" y="565.4951">running</text><!--link Running to Enabled--><path d="M117.185,680.193 C138.957,714.881 178.967,778.625 202.134,815.536 " fill="none" id="Running-Enabled" style="stroke: #000000; stroke-width: 1.0;"/><polygon fill="#000000" points="204.873,819.9,203.4788,810.1503,202.2159,815.6644,196.7018,814.4016,204.873,819.9" style="stroke: #000000; stroke-width: 1.0;"/><text fill="#000000" font-family="sans-serif" font-size="13" lengthAdjust="spacingAndGlyphs" textLength="38" x="165" y="755.4951">enable</text><!--link Running to Disabled--><path d="M101.3943,680.309 C100.0871,734.123 97.0365,867.394 96,979 C95.9204,987.567 97.5101,996.6598 99.6442,1004.9326 " fill="none" id="Running-Disabled" style="stroke: #000000; stroke-width: 1.0;"/><polygon fill="#000000" points="101.0333,1009.9655,102.4944,1000.2256,99.7029,1005.1457,94.7828,1002.3543,101.0333,1009.9655" style="stroke: #000000; stroke-width: 1.0;"/><text fill="#000000" font-family="sans-serif" font-size="13" lengthAdjust="spacingAndGlyphs" textLength="41" x="100" y="850.4951">disable</text><!--link Enabled to Disabled--><path d="M205.845,870.193 C185.548,904.881 148.251,968.625 126.655,1005.5355 " fill="none" id="Enabled-Disabled" style="stroke: #000000; stroke-width: 1.0;"/><polygon fill="#000000" points="124.101,1009.9,132.0984,1004.1518,126.6259,1005.5844,125.1934,1000.1119,124.101,1009.9" style="stroke: #000000; stroke-width: 1.0;"/><text fill="#000000" font-family="sans-serif" font-size="13" lengthAdjust="spacingAndGlyphs" textLength="41" x="169" y="945.4951">disable</text><!--link Disabled to Enabled--><path d="M105.1738,1009.7074 C102.0835,987.903 100.6632,955.633 113,931 C127.152,902.743 155.547,880.878 179.532,866.404 " fill="none" id="Disabled-Enabled" style="stroke: #000000; stroke-width: 1.0;"/><polygon fill="#000000" points="183.954,863.787,174.1714,864.9271,179.6507,866.333,178.2449,871.8123,183.954,863.787" style="stroke: #000000; stroke-width: 1.0;"/><text fill="#000000" font-family="sans-serif" font-size="13" lengthAdjust="spacingAndGlyphs" textLength="38" x="114" y="945.4951">enable</text><!--link Created to Null--><path d="M241.76,278.602 C294.509,284.605 387,304.348 387,369 C387,369 387,369 387,941 C387,963.394 378.397,987.165 369.976,1005.0684 " fill="none" id="Created-Null" style="stroke: #000000; stroke-width: 1.0;"/><polygon fill="#000000" points="367.613,1009.9565,375.1314,1003.5946,369.7892,1005.4549,367.9289,1000.1127,367.613,1009.9565" style="stroke: #000000; stroke-width: 1.0;"/><!--link Enabled to Null--><path d="M237.244,870.193 C261.968,904.881 307.403,968.625 333.711,1005.5355 " fill="none" id="Enabled-Null" style="stroke: #000000; stroke-width: 1.0;"/><polygon fill="#000000" points="336.822,1009.9,334.8552,1000.2495,333.9198,1005.8285,328.3408,1004.893,336.822,1009.9" style="stroke: #000000; stroke-width: 1.0;"/><!--
@startuml



state SABundleInstance #ffcc88 {

    state Init #ffcc88 {
    }

    state Created #ffcc88 {
    }

    state Deploying #ffcc88 {
    }

    state Running #ffcc88 {
    }

    state Enabled #ffcc88 {
    }

    state Disabled #ffcc88 {
    }




Init -[#black]- -> Created : create

Created -[#black]- -> Deploying : deploy

Created -[#black]- -> Deploying : deploying

Deploying -[#black]- -> Enabled : deployed

Deploying -[#black]- -> Running : running

Running -[#black]- -> Enabled : enable

Running -[#black]- -> Disabled : disable

Enabled -[#black]- -> Disabled : disable

Disabled -[#black]- -> Enabled : enable

}

 
 Created -[#black]- -> Null
 
 
 Enabled -[#black]- -> Null
 

@enduml

PlantUML version 1.2019.05(Sat Apr 20 09:45:36 PDT 2019)
(GPL source distribution)
Java Runtime: Java(TM) SE Runtime Environment
JVM: Java HotSpot(TM) Client VM
Java Version: 1.8.0_271-b09
Operating System: Windows 10
OS Version: 10.0
Default Encoding: Cp1252
Language: en
Country: US
--></g></svg>