<?xml version="1.0" encoding="us-ascii" standalone="no"?><svg xmlns="http://www.w3.org/2000/svg" xmlns:xlink="http://www.w3.org/1999/xlink" contentStyleType="text/css" height="276px" preserveAspectRatio="none" style="width:163px;height:276px;background:#FFFFFF;" version="1.1" viewBox="0 0 163 276" width="163px" zoomAndPan="magnify"><defs/><g><g id="elem_ManagePolicies"><ellipse cx="81.6002" cy="161.02" fill="#FFFF00" rx="75.6002" ry="17.52" style="stroke:#181818;stroke-width:0.5;"/><text fill="#000000" font-family="sans-serif" font-size="14" lengthAdjust="spacing" textLength="103" x="27.1002" y="165.5366">Manage Policies</text></g><!--entity ITOperations--><g id="elem_ITOperations"><ellipse cx="81.5" cy="14" fill="#F1F1F1" rx="8" ry="8" style="stroke:#181818;stroke-width:0.5;"/><path d="M81.5,22 L81.5,49 M68.5,30 L94.5,30 M81.5,49 L68.5,64 M81.5,49 L94.5,64 " fill="none" style="stroke:#181818;stroke-width:0.5;"/><text fill="#000000" font-family="sans-serif" font-size="14" lengthAdjust="spacing" textLength="86" x="38.5" y="80.0332">IT Operations</text></g><g id="elem_CreatePolicy"><ellipse cx="81.4169" cy="254.3834" fill="#D3D3D3" rx="67.4169" ry="15.8834" style="stroke:#181818;stroke-width:0.5;"/><text fill="#000000" font-family="sans-serif" font-size="14" lengthAdjust="spacing" textLength="80" x="38.4169" y="258.9">CreatePolicy</text></g><!--link ITOperations to ManagePolicies--><g id="link_ITOperations_ManagePolicies"><path d="M81.5,83.63 C81.5,103.92 81.5,121.84 81.5,137.43 " fill="none" id="ITOperations-to-ManagePolicies" style="stroke:#181818;stroke-width:1.0;"/><polygon fill="#181818" points="81.5,143.43,85.5,134.43,81.5,138.43,77.5,134.43,81.5,143.43" style="stroke:#181818;stroke-width:1.0;"/></g><!--link ManagePolicies to CreatePolicy--><g id="link_ManagePolicies_CreatePolicy"><path d="M81.5,178.78 C81.5,195.81 81.5,215.93 81.5,232.34 " fill="none" id="ManagePolicies-to-CreatePolicy" style="stroke:#181818;stroke-width:1.0;"/><polygon fill="#181818" points="81.5,238.34,85.5,229.34,81.5,233.34,77.5,229.34,81.5,238.34" style="stroke:#181818;stroke-width:1.0;"/></g><!--SRC=[NOv12eGm34NtESMdhht2mE3AXSmil40eeHQA7TgAzFQEbcBnx_AIl6IBeZaArCGh6y7NEwkjH0MEAAmYT5cSyplHMoSVeCOPdvy4JjQlPM6SRq3KLkZxryD7_spr_124KsdbIzK2TCwQ9PaWcUZnrEbjPwdc0000]--></g></svg>