<?xml version="1.0" encoding="us-ascii" standalone="no"?><svg xmlns="http://www.w3.org/2000/svg" xmlns:xlink="http://www.w3.org/1999/xlink" contentStyleType="text/css" height="340px" preserveAspectRatio="none" style="width:793px;height:340px;background:#FFFFFF;" version="1.1" viewBox="0 0 793 340" width="793px" zoomAndPan="magnify"><defs/><g><rect fill="#BBAAFF" height="328.9766" style="stroke:#181818;stroke-width:0.5;" width="222" x="180" y="6"/><text fill="#000000" font-family="sans-serif" font-size="13" font-weight="bold" lengthAdjust="spacing" textLength="212" x="183" y="19.4951">Sentient Agent Bundle Resources</text><line style="stroke:#181818;stroke-width:0.5;stroke-dasharray:5.0,5.0;" x1="51" x2="51" y1="82.6094" y2="254.3672"/><line style="stroke:#181818;stroke-width:0.5;stroke-dasharray:5.0,5.0;" x1="141" x2="141" y1="82.6094" y2="254.3672"/><line style="stroke:#181818;stroke-width:0.5;stroke-dasharray:5.0,5.0;" x1="290.5" x2="290.5" y1="82.6094" y2="254.3672"/><line style="stroke:#181818;stroke-width:0.5;stroke-dasharray:5.0,5.0;" x1="678.5" x2="678.5" y1="82.6094" y2="254.3672"/><text fill="#000000" font-family="sans-serif" font-size="14" lengthAdjust="spacing" textLength="87" x="5" y="79.5332">DataEngineer</text><ellipse cx="51.5" cy="13.5" fill="#E2E2F0" rx="8" ry="8" style="stroke:#181818;stroke-width:0.5;"/><path d="M51.5,21.5 L51.5,48.5 M38.5,29.5 L64.5,29.5 M51.5,48.5 L38.5,63.5 M51.5,48.5 L64.5,63.5 " fill="none" style="stroke:#181818;stroke-width:0.5;"/><text fill="#000000" font-family="sans-serif" font-size="14" lengthAdjust="spacing" textLength="87" x="5" y="267.9004">DataEngineer</text><ellipse cx="51.5" cy="279.4766" fill="#E2E2F0" rx="8" ry="8" style="stroke:#181818;stroke-width:0.5;"/><path d="M51.5,287.4766 L51.5,314.4766 M38.5,295.4766 L64.5,295.4766 M51.5,314.4766 L38.5,329.4766 M51.5,314.4766 L64.5,329.4766 " fill="none" style="stroke:#181818;stroke-width:0.5;"/><text fill="#000000" font-family="sans-serif" font-size="14" lengthAdjust="spacing" textLength="60" x="108" y="79.5332">EventBus</text><ellipse cx="141" cy="49" fill="#E2E2F0" rx="12" ry="12" style="stroke:#181818;stroke-width:0.5;"/><line style="stroke:#181818;stroke-width:0.5;" x1="129" x2="153" y1="63" y2="63"/><text fill="#000000" font-family="sans-serif" font-size="14" lengthAdjust="spacing" textLength="60" x="108" y="267.9004">EventBus</text><ellipse cx="141" cy="286.9766" fill="#E2E2F0" rx="12" ry="12" style="stroke:#181818;stroke-width:0.5;"/><line style="stroke:#181818;stroke-width:0.5;" x1="129" x2="153" y1="300.9766" y2="300.9766"/><text fill="#000000" font-family="sans-serif" font-size="14" lengthAdjust="spacing" textLength="28" x="274" y="79.5332">sabr</text><path d="M270.5,37 L270.5,61 M270.5,49 L287.5,49 " fill="none" style="stroke:#181818;stroke-width:0.5;"/><ellipse cx="299.5" cy="49" fill="#FFFFFF" rx="12" ry="12" style="stroke:#181818;stroke-width:0.5;"/><text fill="#000000" font-family="sans-serif" font-size="14" lengthAdjust="spacing" textLength="28" x="274" y="267.9004">sabr</text><path d="M270.5,274.9766 L270.5,298.9766 M270.5,286.9766 L287.5,286.9766 " fill="none" style="stroke:#181818;stroke-width:0.5;"/><ellipse cx="299.5" cy="286.9766" fill="#FFFFFF" rx="12" ry="12" style="stroke:#181818;stroke-width:0.5;"/><rect fill="#E2E2F0" height="31.6094" rx="2.5" ry="2.5" style="stroke:#181818;stroke-width:0.5;" width="218" x="569.5" y="50"/><text fill="#000000" font-family="sans-serif" font-size="14" lengthAdjust="spacing" textLength="204" x="576.5" y="71.5332">sentient agent bundle resources</text><rect fill="#E2E2F0" height="31.6094" rx="2.5" ry="2.5" style="stroke:#181818;stroke-width:0.5;" width="218" x="569.5" y="253.3672"/><text fill="#000000" font-family="sans-serif" font-size="14" lengthAdjust="spacing" textLength="204" x="576.5" y="274.9004">sentient agent bundle resources</text><polygon fill="#181818" points="279,110.9609,289,114.9609,279,118.9609,283,114.9609" style="stroke:#181818;stroke-width:1.0;"/><line style="stroke:#181818;stroke-width:1.0;" x1="51.5" x2="285" y1="114.9609" y2="114.9609"/><text fill="#000000" font-family="sans-serif" font-size="13" lengthAdjust="spacing" textLength="78" x="58.5" y="110.1045">Create Policy</text><polygon fill="#181818" points="666.5,141.3125,676.5,145.3125,666.5,149.3125,670.5,145.3125" style="stroke:#181818;stroke-width:1.0;"/><line style="stroke:#181818;stroke-width:1.0;" x1="291" x2="672.5" y1="145.3125" y2="145.3125"/><text fill="#000000" font-family="sans-serif" font-size="13" lengthAdjust="spacing" textLength="281" x="298" y="140.4561">create (name: policy1,file: ./templates/policy1.js)</text><polygon fill="#181818" points="152,176.6641,142,176.6641,152,180.6641" style="stroke:#181818;stroke-width:1.0;"/><line style="stroke:#181818;stroke-width:1.0;stroke-dasharray:2.0,2.0;" x1="141" x2="677.5" y1="175.6641" y2="175.6641"/><text fill="#000000" font-family="sans-serif" font-size="13" lengthAdjust="spacing" textLength="114" x="158" y="170.8076">streampolicy.create</text><polygon fill="#181818" points="666.5,202.0156,676.5,206.0156,666.5,210.0156,670.5,206.0156" style="stroke:#181818;stroke-width:1.0;"/><line style="stroke:#181818;stroke-width:1.0;" x1="291" x2="672.5" y1="206.0156" y2="206.0156"/><text fill="#000000" font-family="sans-serif" font-size="13" lengthAdjust="spacing" textLength="281" x="298" y="201.1592">create (name: policy2,file: ./templates/policy2.js)</text><polygon fill="#181818" points="152,237.3672,142,237.3672,152,241.3672" style="stroke:#181818;stroke-width:1.0;"/><line style="stroke:#181818;stroke-width:1.0;stroke-dasharray:2.0,2.0;" x1="141" x2="677.5" y1="236.3672" y2="236.3672"/><text fill="#000000" font-family="sans-serif" font-size="13" lengthAdjust="spacing" textLength="114" x="158" y="231.5107">streampolicy.create</text><!--SRC=[hP3DYi8m58NtzoakTJF2j6LSTZ4m_kp5UOARUkj4saIILEtRppNn1nSYWe6492VdV8TG7Qp3R4w15cQZ3RFB081Dq670nLusqzu3A7l4tzEjJFpPdDPfRzOjuugzxLtD7aTA4JKDe0nbHIKte2VbS7Juqu4bTIt24LwFkpdlgsB-7GaLpXnJO5pQLjS3H5D4ouFCNqWKIIgHt8MKLLWdzuUXZYlSnP2lpqQtSYhAmDsk5TsNPwNO-d5YFCt6F2-l_rYX3qBgKaoHg6yfEtbOTlBcil0F]--></g></svg>