<?xml version="1.0" encoding="UTF-8" standalone="no"?><svg xmlns="http://www.w3.org/2000/svg" xmlns:xlink="http://www.w3.org/1999/xlink" contentScriptType="application/ecmascript" contentStyleType="text/css" height="444px" preserveAspectRatio="none" style="width:896px;height:444px;" version="1.1" viewBox="0 0 896 444" width="896px" zoomAndPan="magnify"><defs><filter height="300%" id="fsft21a0hiolq" width="300%" x="-1" y="-1"><feGaussianBlur result="blurOut" stdDeviation="2.0"/><feColorMatrix in="blurOut" result="blurOut2" type="matrix" values="0 0 0 0 0 0 0 0 0 0 0 0 0 0 0 0 0 0 .4 0"/><feOffset dx="4.0" dy="4.0" in="blurOut2" result="blurOut3"/><feBlend in="SourceGraphic" in2="blurOut3" mode="normal"/></filter></defs><g><rect fill="#BBAAFF" height="429.6797" style="stroke: #A80036; stroke-width: 1.0;" width="222" x="279.5" y="4"/><text fill="#000000" font-family="sans-serif" font-size="13" font-weight="bold" lengthAdjust="spacingAndGlyphs" textLength="212" x="282.5" y="17.4951">Sentient Agent Bundle Resources</text><line style="stroke: #A80036; stroke-width: 1.0; stroke-dasharray: 5.0,5.0;" x1="54" x2="54" y1="87.6094" y2="346.0703"/><line style="stroke: #A80036; stroke-width: 1.0; stroke-dasharray: 5.0,5.0;" x1="144" x2="144" y1="87.6094" y2="346.0703"/><line style="stroke: #A80036; stroke-width: 1.0; stroke-dasharray: 5.0,5.0;" x1="390" x2="390" y1="87.6094" y2="346.0703"/><line style="stroke: #A80036; stroke-width: 1.0; stroke-dasharray: 5.0,5.0;" x1="778" x2="778" y1="87.6094" y2="346.0703"/><text fill="#000000" font-family="sans-serif" font-size="14" lengthAdjust="spacingAndGlyphs" textLength="87" x="8" y="84.5332">DataEngineer</text><ellipse cx="54.5" cy="13" fill="#FEFECE" filter="url(#fsft21a0hiolq)" rx="8" ry="8" style="stroke: #A80036; stroke-width: 2.0;"/><path d="M54.5,21 L54.5,48 M41.5,29 L67.5,29 M54.5,48 L41.5,63 M54.5,48 L67.5,63 " fill="none" filter="url(#fsft21a0hiolq)" style="stroke: #A80036; stroke-width: 2.0;"/><text fill="#000000" font-family="sans-serif" font-size="14" lengthAdjust="spacingAndGlyphs" textLength="87" x="8" y="359.6035">DataEngineer</text><ellipse cx="54.5" cy="372.6797" fill="#FEFECE" filter="url(#fsft21a0hiolq)" rx="8" ry="8" style="stroke: #A80036; stroke-width: 2.0;"/><path d="M54.5,380.6797 L54.5,407.6797 M41.5,388.6797 L67.5,388.6797 M54.5,407.6797 L41.5,422.6797 M54.5,407.6797 L67.5,422.6797 " fill="none" filter="url(#fsft21a0hiolq)" style="stroke: #A80036; stroke-width: 2.0;"/><text fill="#000000" font-family="sans-serif" font-size="14" lengthAdjust="spacingAndGlyphs" textLength="60" x="111" y="84.5332">EventBus</text><ellipse cx="144" cy="54" fill="#FEFECE" filter="url(#fsft21a0hiolq)" rx="12" ry="12" style="stroke: #A80036; stroke-width: 2.0;"/><line style="stroke: #A80036; stroke-width: 2.0;" x1="132" x2="156" y1="68" y2="68"/><text fill="#000000" font-family="sans-serif" font-size="14" lengthAdjust="spacingAndGlyphs" textLength="60" x="111" y="359.6035">EventBus</text><ellipse cx="144" cy="378.6797" fill="#FEFECE" filter="url(#fsft21a0hiolq)" rx="12" ry="12" style="stroke: #A80036; stroke-width: 2.0;"/><line style="stroke: #A80036; stroke-width: 2.0;" x1="132" x2="156" y1="392.6797" y2="392.6797"/><text fill="#000000" font-family="sans-serif" font-size="14" lengthAdjust="spacingAndGlyphs" textLength="28" x="373.5" y="84.5332">sabr</text><path d="M370,42 L370,66 M370,54 L387,54 " fill="none" filter="url(#fsft21a0hiolq)" style="stroke: #A80036; stroke-width: 2.0;"/><ellipse cx="399" cy="54" fill="#FFFFFF" filter="url(#fsft21a0hiolq)" rx="12" ry="12" style="stroke: #A80036; stroke-width: 2.0;"/><text fill="#000000" font-family="sans-serif" font-size="14" lengthAdjust="spacingAndGlyphs" textLength="28" x="373.5" y="359.6035">sabr</text><path d="M370,366.6797 L370,390.6797 M370,378.6797 L387,378.6797 " fill="none" filter="url(#fsft21a0hiolq)" style="stroke: #A80036; stroke-width: 2.0;"/><ellipse cx="399" cy="378.6797" fill="#FFFFFF" filter="url(#fsft21a0hiolq)" rx="12" ry="12" style="stroke: #A80036; stroke-width: 2.0;"/><rect fill="#FEFECE" filter="url(#fsft21a0hiolq)" height="31.6094" style="stroke: #A80036; stroke-width: 1.5;" width="218" x="667" y="51"/><text fill="#000000" font-family="sans-serif" font-size="14" lengthAdjust="spacingAndGlyphs" textLength="204" x="674" y="72.5332">sentient agent bundle resources</text><rect fill="#FEFECE" filter="url(#fsft21a0hiolq)" height="31.6094" style="stroke: #A80036; stroke-width: 1.5;" width="218" x="667" y="345.0703"/><text fill="#000000" font-family="sans-serif" font-size="14" lengthAdjust="spacingAndGlyphs" textLength="204" x="674" y="366.6035">sentient agent bundle resources</text><polygon fill="#A80036" points="378.5,115.9609,388.5,119.9609,378.5,123.9609,382.5,119.9609" style="stroke: #A80036; stroke-width: 1.0;"/><line style="stroke: #A80036; stroke-width: 1.0;" x1="54.5" x2="384.5" y1="119.9609" y2="119.9609"/><text fill="#000000" font-family="sans-serif" font-size="13" lengthAdjust="spacingAndGlyphs" textLength="100" x="61.5" y="115.1045">Deactivate Policy</text><polygon fill="#A80036" points="766,146.3125,776,150.3125,766,154.3125,770,150.3125" style="stroke: #A80036; stroke-width: 1.0;"/><line style="stroke: #A80036; stroke-width: 1.0;" x1="390.5" x2="772" y1="150.3125" y2="150.3125"/><text fill="#000000" font-family="sans-serif" font-size="13" lengthAdjust="spacingAndGlyphs" textLength="281" x="397.5" y="145.4561">create (name: policy1,file: ./templates/policy1.js)</text><polygon fill="#A80036" points="155,181.6641,145,181.6641,155,185.6641" style="stroke: #A80036; stroke-width: 1.0;"/><line style="stroke: #A80036; stroke-width: 1.0; stroke-dasharray: 2.0,2.0;" x1="144" x2="777" y1="180.6641" y2="180.6641"/><text fill="#000000" font-family="sans-serif" font-size="13" lengthAdjust="spacingAndGlyphs" textLength="114" x="161" y="175.8076">streampolicy.create</text><line style="stroke: #A80036; stroke-width: 1.0;" x1="390.5" x2="432.5" y1="211.0156" y2="211.0156"/><line style="stroke: #A80036; stroke-width: 1.0;" x1="432.5" x2="432.5" y1="211.0156" y2="224.0156"/><line style="stroke: #A80036; stroke-width: 1.0;" x1="391.5" x2="432.5" y1="224.0156" y2="224.0156"/><polygon fill="#A80036" points="401.5,220.0156,391.5,224.0156,401.5,228.0156,397.5,224.0156" style="stroke: #A80036; stroke-width: 1.0;"/><text fill="#000000" font-family="sans-serif" font-size="13" lengthAdjust="spacingAndGlyphs" textLength="141" x="397.5" y="206.1592">activate` (name: policy2)</text><polygon fill="#A80036" points="155,255.3672,145,255.3672,155,259.3672" style="stroke: #A80036; stroke-width: 1.0;"/><line style="stroke: #A80036; stroke-width: 1.0; stroke-dasharray: 2.0,2.0;" x1="144" x2="389.5" y1="254.3672" y2="254.3672"/><text fill="#000000" font-family="sans-serif" font-size="13" lengthAdjust="spacingAndGlyphs" textLength="126" x="161" y="249.5107">streampolicy.activate`</text><line style="stroke: #A80036; stroke-width: 1.0;" x1="390.5" x2="432.5" y1="284.7188" y2="284.7188"/><line style="stroke: #A80036; stroke-width: 1.0;" x1="432.5" x2="432.5" y1="284.7188" y2="297.7188"/><line style="stroke: #A80036; stroke-width: 1.0;" x1="391.5" x2="432.5" y1="297.7188" y2="297.7188"/><polygon fill="#A80036" points="401.5,293.7188,391.5,297.7188,401.5,301.7188,397.5,297.7188" style="stroke: #A80036; stroke-width: 1.0;"/><text fill="#000000" font-family="sans-serif" font-size="13" lengthAdjust="spacingAndGlyphs" textLength="155" x="397.5" y="279.8623">deactivate` (name: policy2)</text><polygon fill="#A80036" points="155,329.0703,145,329.0703,155,333.0703" style="stroke: #A80036; stroke-width: 1.0;"/><line style="stroke: #A80036; stroke-width: 1.0; stroke-dasharray: 2.0,2.0;" x1="144" x2="389.5" y1="328.0703" y2="328.0703"/><text fill="#000000" font-family="sans-serif" font-size="13" lengthAdjust="spacingAndGlyphs" textLength="140" x="161" y="323.2139">streampolicy.deactivate`</text><!--
@startuml

actor "DataEngineer"


entity EventBus

box Sentient Agent Bundle Resources #bbaaff
    boundary sabr #white
end box


box Sentient Agent Bundle Resources #bbaaff
    end box


"DataEngineer" -> sabr: Deactivate Policy

    sabr -> "sentient agent bundle resources": create (name: policy1,file: ./templates/policy1.js)

    "sentient agent bundle resources" - -/ EventBus: streampolicy.create

    sabr -> "sabr": activate` (name: policy2)

    "sabr" - -/ EventBus: streampolicy.activate`

    sabr -> "sabr": deactivate` (name: policy2)

    "sabr" - -/ EventBus: streampolicy.deactivate`



@enduml

PlantUML version 1.2019.05(Sat Apr 20 09:45:36 PDT 2019)
(GPL source distribution)
Java Runtime: Java(TM) SE Runtime Environment
JVM: Java HotSpot(TM) Client VM
Java Version: 1.8.0_271-b09
Operating System: Windows 10
OS Version: 10.0
Default Encoding: Cp1252
Language: en
Country: US
--></g></svg>