<?xml version="1.0" encoding="UTF-8" standalone="no"?><svg xmlns="http://www.w3.org/2000/svg" xmlns:xlink="http://www.w3.org/1999/xlink" contentScriptType="application/ecmascript" contentStyleType="text/css" height="383px" preserveAspectRatio="none" style="width:670px;height:383px;" version="1.1" viewBox="0 0 670 383" width="670px" zoomAndPan="magnify"><defs><filter height="300%" id="flh3fl2u6aefb" width="300%" x="-1" y="-1"><feGaussianBlur result="blurOut" stdDeviation="2.0"/><feColorMatrix in="blurOut" result="blurOut2" type="matrix" values="0 0 0 0 0 0 0 0 0 0 0 0 0 0 0 0 0 0 .4 0"/><feOffset dx="4.0" dy="4.0" in="blurOut2" result="blurOut3"/><feBlend in="SourceGraphic" in2="blurOut3" mode="normal"/></filter></defs><g><rect fill="#BBAAFF" height="368.9766" style="stroke: #A80036; stroke-width: 1.0;" width="222" x="256.5" y="4"/><text fill="#000000" font-family="sans-serif" font-size="13" font-weight="bold" lengthAdjust="spacingAndGlyphs" textLength="212" x="259.5" y="17.4951">Sentient Agent Bundle Resources</text><line style="stroke: #A80036; stroke-width: 1.0; stroke-dasharray: 5.0,5.0;" x1="54" x2="54" y1="87.6094" y2="285.3672"/><line style="stroke: #A80036; stroke-width: 1.0; stroke-dasharray: 5.0,5.0;" x1="144" x2="144" y1="87.6094" y2="285.3672"/><line style="stroke: #A80036; stroke-width: 1.0; stroke-dasharray: 5.0,5.0;" x1="367" x2="367" y1="87.6094" y2="285.3672"/><text fill="#000000" font-family="sans-serif" font-size="14" lengthAdjust="spacingAndGlyphs" textLength="87" x="8" y="84.5332">DataEngineer</text><ellipse cx="54.5" cy="13" fill="#FEFECE" filter="url(#flh3fl2u6aefb)" rx="8" ry="8" style="stroke: #A80036; stroke-width: 2.0;"/><path d="M54.5,21 L54.5,48 M41.5,29 L67.5,29 M54.5,48 L41.5,63 M54.5,48 L67.5,63 " fill="none" filter="url(#flh3fl2u6aefb)" style="stroke: #A80036; stroke-width: 2.0;"/><text fill="#000000" font-family="sans-serif" font-size="14" lengthAdjust="spacingAndGlyphs" textLength="87" x="8" y="298.9004">DataEngineer</text><ellipse cx="54.5" cy="311.9766" fill="#FEFECE" filter="url(#flh3fl2u6aefb)" rx="8" ry="8" style="stroke: #A80036; stroke-width: 2.0;"/><path d="M54.5,319.9766 L54.5,346.9766 M41.5,327.9766 L67.5,327.9766 M54.5,346.9766 L41.5,361.9766 M54.5,346.9766 L67.5,361.9766 " fill="none" filter="url(#flh3fl2u6aefb)" style="stroke: #A80036; stroke-width: 2.0;"/><text fill="#000000" font-family="sans-serif" font-size="14" lengthAdjust="spacingAndGlyphs" textLength="60" x="111" y="84.5332">EventBus</text><ellipse cx="144" cy="54" fill="#FEFECE" filter="url(#flh3fl2u6aefb)" rx="12" ry="12" style="stroke: #A80036; stroke-width: 2.0;"/><line style="stroke: #A80036; stroke-width: 2.0;" x1="132" x2="156" y1="68" y2="68"/><text fill="#000000" font-family="sans-serif" font-size="14" lengthAdjust="spacingAndGlyphs" textLength="60" x="111" y="298.9004">EventBus</text><ellipse cx="144" cy="317.9766" fill="#FEFECE" filter="url(#flh3fl2u6aefb)" rx="12" ry="12" style="stroke: #A80036; stroke-width: 2.0;"/><line style="stroke: #A80036; stroke-width: 2.0;" x1="132" x2="156" y1="331.9766" y2="331.9766"/><text fill="#000000" font-family="sans-serif" font-size="14" lengthAdjust="spacingAndGlyphs" textLength="28" x="350.5" y="84.5332">sabr</text><path d="M347,42 L347,66 M347,54 L364,54 " fill="none" filter="url(#flh3fl2u6aefb)" style="stroke: #A80036; stroke-width: 2.0;"/><ellipse cx="376" cy="54" fill="#FFFFFF" filter="url(#flh3fl2u6aefb)" rx="12" ry="12" style="stroke: #A80036; stroke-width: 2.0;"/><text fill="#000000" font-family="sans-serif" font-size="14" lengthAdjust="spacingAndGlyphs" textLength="28" x="350.5" y="298.9004">sabr</text><path d="M347,305.9766 L347,329.9766 M347,317.9766 L364,317.9766 " fill="none" filter="url(#flh3fl2u6aefb)" style="stroke: #A80036; stroke-width: 2.0;"/><ellipse cx="376" cy="317.9766" fill="#FFFFFF" filter="url(#flh3fl2u6aefb)" rx="12" ry="12" style="stroke: #A80036; stroke-width: 2.0;"/><polygon fill="#A80036" points="355.5,115.9609,365.5,119.9609,355.5,123.9609,359.5,119.9609" style="stroke: #A80036; stroke-width: 1.0;"/><line style="stroke: #A80036; stroke-width: 1.0;" x1="54.5" x2="361.5" y1="119.9609" y2="119.9609"/><text fill="#000000" font-family="sans-serif" font-size="13" lengthAdjust="spacingAndGlyphs" textLength="132" x="61.5" y="115.1045">Update Channel Policy</text><line style="stroke: #A80036; stroke-width: 1.0;" x1="367.5" x2="409.5" y1="150.3125" y2="150.3125"/><line style="stroke: #A80036; stroke-width: 1.0;" x1="409.5" x2="409.5" y1="150.3125" y2="163.3125"/><line style="stroke: #A80036; stroke-width: 1.0;" x1="368.5" x2="409.5" y1="163.3125" y2="163.3125"/><polygon fill="#A80036" points="378.5,159.3125,368.5,163.3125,378.5,167.3125,374.5,163.3125" style="stroke: #A80036; stroke-width: 1.0;"/><text fill="#000000" font-family="sans-serif" font-size="13" lengthAdjust="spacingAndGlyphs" textLength="284" x="374.5" y="145.4561">update (name: policy1,file: ./templates/policy1.js)</text><polygon fill="#A80036" points="155,194.6641,145,194.6641,155,198.6641" style="stroke: #A80036; stroke-width: 1.0;"/><line style="stroke: #A80036; stroke-width: 1.0; stroke-dasharray: 2.0,2.0;" x1="144" x2="366.5" y1="193.6641" y2="193.6641"/><text fill="#000000" font-family="sans-serif" font-size="13" lengthAdjust="spacingAndGlyphs" textLength="117" x="161" y="188.8076">streampolicy.update</text><line style="stroke: #A80036; stroke-width: 1.0;" x1="367.5" x2="409.5" y1="224.0156" y2="224.0156"/><line style="stroke: #A80036; stroke-width: 1.0;" x1="409.5" x2="409.5" y1="224.0156" y2="237.0156"/><line style="stroke: #A80036; stroke-width: 1.0;" x1="368.5" x2="409.5" y1="237.0156" y2="237.0156"/><polygon fill="#A80036" points="378.5,233.0156,368.5,237.0156,378.5,241.0156,374.5,237.0156" style="stroke: #A80036; stroke-width: 1.0;"/><text fill="#000000" font-family="sans-serif" font-size="13" lengthAdjust="spacingAndGlyphs" textLength="284" x="374.5" y="219.1592">update (name: policy2,file: ./templates/policy2.js)</text><polygon fill="#A80036" points="155,268.3672,145,268.3672,155,272.3672" style="stroke: #A80036; stroke-width: 1.0;"/><line style="stroke: #A80036; stroke-width: 1.0; stroke-dasharray: 2.0,2.0;" x1="144" x2="366.5" y1="267.3672" y2="267.3672"/><text fill="#000000" font-family="sans-serif" font-size="13" lengthAdjust="spacingAndGlyphs" textLength="117" x="161" y="262.5107">streampolicy.update</text><!--
@startuml

actor "DataEngineer"


entity EventBus

box Sentient Agent Bundle Resources #bbaaff
    boundary sabr #white
end box



"DataEngineer" -> sabr: Update Channel Policy

    sabr -> "sabr": update (name: policy1,file: ./templates/policy1.js)

    "sabr" - -/ EventBus: streampolicy.update

    sabr -> "sabr": update (name: policy2,file: ./templates/policy2.js)

    "sabr" - -/ EventBus: streampolicy.update



@enduml

PlantUML version 1.2019.05(Sat Apr 20 09:45:36 PDT 2019)
(GPL source distribution)
Java Runtime: Java(TM) SE Runtime Environment
JVM: Java HotSpot(TM) Client VM
Java Version: 1.8.0_271-b09
Operating System: Windows 10
OS Version: 10.0
Default Encoding: Cp1252
Language: en
Country: US
--></g></svg>