<?xml version="1.0" encoding="UTF-8" standalone="no"?><svg xmlns="http://www.w3.org/2000/svg" xmlns:xlink="http://www.w3.org/1999/xlink" contentScriptType="application/ecmascript" contentStyleType="text/css" height="224px" preserveAspectRatio="none" style="width:262px;height:224px;" version="1.1" viewBox="0 0 262 224" width="262px" zoomAndPan="magnify"><defs><filter height="300%" id="fhit566q1xre7" width="300%" x="-1" y="-1"><feGaussianBlur result="blurOut" stdDeviation="2.0"/><feColorMatrix in="blurOut" result="blurOut2" type="matrix" values="0 0 0 0 0 0 0 0 0 0 0 0 0 0 0 0 0 0 .4 0"/><feOffset dx="4.0" dy="4.0" in="blurOut2" result="blurOut3"/><feBlend in="SourceGraphic" in2="blurOut3" mode="normal"/></filter></defs><g><!--entity Application--><rect fill="#90EE90" filter="url(#fhit566q1xre7)" height="37.6094" style="stroke: #000000; stroke-width: 1.5;" width="89" x="6" y="8"/><text fill="#000000" font-family="sans-serif" font-size="14" lengthAdjust="spacingAndGlyphs" textLength="69" x="16" y="32.5332">Application</text><!--entity StackInstance--><rect fill="#90EE90" filter="url(#fhit566q1xre7)" height="37.6094" style="stroke: #000000; stroke-width: 1.5;" width="108" x="143.5" y="8"/><text fill="#000000" font-family="sans-serif" font-size="14" lengthAdjust="spacingAndGlyphs" textLength="88" x="153.5" y="32.5332">StackInstance</text><!--class Model--><rect fill="#FEFECE" filter="url(#fhit566q1xre7)" height="89.5078" id="Model" style="stroke: #A80036; stroke-width: 1.5;" width="139" x="65" y="124"/><ellipse cx="80" cy="140" fill="#ADD1B2" rx="11" ry="11" style="stroke: #A80036; stroke-width: 1.0;"/><path d="M82.7656,135.875 Q82.9219,135.6563 83.1094,135.5469 Q83.2969,135.4375 83.5156,135.4375 Q83.8906,135.4375 84.125,135.6953 Q84.3594,135.9531 84.3594,136.5625 L84.3594,138.0156 Q84.3594,138.625 84.125,138.8906 Q83.8906,139.1563 83.5156,139.1563 Q83.1719,139.1563 82.9688,138.9531 Q82.7656,138.7656 82.6563,138.25 Q82.6094,137.8906 82.4219,137.7031 Q82.0938,137.3281 81.4844,137.1094 Q80.875,136.8906 80.25,136.8906 Q79.4844,136.8906 78.8516,137.2188 Q78.2188,137.5469 77.7266,138.2969 Q77.2344,139.0469 77.2344,140.0781 L77.2344,141.1719 Q77.2344,142.4063 78.125,143.2266 Q79.0156,144.0469 80.6094,144.0469 Q81.5469,144.0469 82.2031,143.7969 Q82.5938,143.6406 83.0156,143.2031 Q83.2813,142.9375 83.4297,142.8594 Q83.5781,142.7813 83.7813,142.7813 Q84.1094,142.7813 84.3672,143.0391 Q84.625,143.2969 84.625,143.6406 Q84.625,143.9844 84.2813,144.3906 Q83.7813,144.9688 82.9844,145.2969 Q81.9063,145.75 80.6094,145.75 Q79.0938,145.75 77.8906,145.125 Q76.9063,144.625 76.2188,143.5547 Q75.5313,142.4844 75.5313,141.2031 L75.5313,140.0469 Q75.5313,138.7188 76.1484,137.5703 Q76.7656,136.4219 77.8594,135.8047 Q78.9531,135.1875 80.1875,135.1875 Q80.9219,135.1875 81.5703,135.3516 Q82.2188,135.5156 82.7656,135.875 Z "/><text fill="#000000" font-family="sans-serif" font-size="12" lengthAdjust="spacingAndGlyphs" textLength="107" x="94" y="144.9102">ApplicationInstance</text><line style="stroke: #A80036; stroke-width: 1.5;" x1="66" x2="203" y1="156" y2="156"/><text fill="#000000" font-family="sans-serif" font-size="11" lengthAdjust="spacingAndGlyphs" textLength="56" x="71" y="171.4189">string name</text><text fill="#000000" font-family="sans-serif" font-size="11" lengthAdjust="spacingAndGlyphs" textLength="60" x="71" y="185.2549">string status</text><text fill="#000000" font-family="sans-serif" font-size="11" lengthAdjust="spacingAndGlyphs" textLength="74" x="71" y="199.0908">string message</text><line style="stroke: #A80036; stroke-width: 1.5;" x1="66" x2="203" y1="205.5078" y2="205.5078"/><!--link Model to Application--><path d="M114.386,111.778 C109.01,99.564 102.6692,87.013 95.5,76 C91.0287,69.131 85.5289,62.342 79.9283,56.128 " fill="none" id="Model-Application" style="stroke: #A80036; stroke-width: 1.0;"/><polygon fill="#A80036" points="70.5717,46.299,73.8797,55.5757,74.0191,49.9206,79.6742,50.0599,70.5717,46.299" style="stroke: #A80036; stroke-width: 1.0;"/><line style="stroke: #A80036; stroke-width: 1.0;" x1="74.0191" x2="79.5352" y1="49.9206" y2="55.715"/><polygon fill="#FFFFFF" points="119.434,123.8107,120.8008,116.7303,114.7908,112.7454,113.424,119.8258,119.434,123.8107" style="stroke: #A80036; stroke-width: 1.0;"/><text fill="#000000" font-family="sans-serif" font-size="13" lengthAdjust="spacingAndGlyphs" textLength="21" x="106.5" y="90.4951">app</text><text fill="#000000" font-family="sans-serif" font-size="13" lengthAdjust="spacingAndGlyphs" textLength="7" x="68.0253" y="67.2305">1</text><!--link Application to Model--><path d="M31.2399,57.853 C26.2115,69.488 23.6457,82.712 29.5,94 C35.5835,105.73 44.4755,115.9941 54.5501,124.8427 " fill="none" id="Application-Model" style="stroke: #A80036; stroke-width: 1.0;"/><polygon fill="#A80036" points="64.9588,133.2213,60.4562,124.4619,61.0639,130.086,55.4398,130.6937,64.9588,133.2213" style="stroke: #A80036; stroke-width: 1.0;"/><line style="stroke: #A80036; stroke-width: 1.0;" x1="61.0639" x2="54.832" y1="130.086" y2="125.0695"/><polygon fill="#A80036" points="37.3809,46.018,31.067,49.5016,31.8542,56.6696,38.1681,53.186,37.3809,46.018" style="stroke: #A80036; stroke-width: 1.0;"/><text fill="#000000" font-family="sans-serif" font-size="13" lengthAdjust="spacingAndGlyphs" textLength="56" x="30.5" y="90.4951">instances</text><text fill="#000000" font-family="sans-serif" font-size="13" lengthAdjust="spacingAndGlyphs" textLength="7" x="49.9699" y="125.9743">n</text><!--link StackInstance to Model--><path d="M184.028,57.939 C176.939,73.691 168.015,93.523 159.701,111.998 " fill="none" id="StackInstance-Model" style="stroke: #A80036; stroke-width: 1.0;"/><polygon fill="#A80036" points="154.351,123.887,161.6916,117.3208,156.4026,119.3273,154.3961,114.0382,154.351,123.887" style="stroke: #A80036; stroke-width: 1.0;"/><line style="stroke: #A80036; stroke-width: 1.0;" x1="156.4026" x2="159.6855" y1="119.3273" y2="112.032"/><polygon fill="#FFFFFF" points="189.393,46.016,183.2832,49.8461,184.4687,56.9591,190.5786,53.129,189.393,46.016" style="stroke: #A80036; stroke-width: 1.0;"/><text fill="#000000" font-family="sans-serif" font-size="13" lengthAdjust="spacingAndGlyphs" textLength="21" x="176.5" y="90.4951">app</text><text fill="#000000" font-family="sans-serif" font-size="13" lengthAdjust="spacingAndGlyphs" textLength="7" x="149.9569" y="112.9845">1</text><!--
@startuml

class "ApplicationInstance" as Model {
 string name
 string status
 string message

 
}

rectangle "Application" as Application #lightblue {
}

Model o- -> "1" Application : app




    rectangle "Application" as Application #lightgreen {
    }
    
        Application   *- -> "n" Model : "instances"
    
    rectangle "StackInstance" as StackInstance #lightgreen {
    }
    
        StackInstance   o- -> "1" Model : "app"
    

@enduml

PlantUML version 1.2019.05(Sat Apr 20 09:45:36 PDT 2019)
(GPL source distribution)
Java Runtime: Java(TM) SE Runtime Environment
JVM: Java HotSpot(TM) Client VM
Java Version: 1.8.0_271-b09
Operating System: Windows 10
OS Version: 10.0
Default Encoding: Cp1252
Language: en
Country: US
--></g></svg>