<?xml version="1.0" encoding="UTF-8" standalone="no"?><svg xmlns="http://www.w3.org/2000/svg" xmlns:xlink="http://www.w3.org/1999/xlink" contentScriptType="application/ecmascript" contentStyleType="text/css" height="834px" preserveAspectRatio="none" style="width:190px;height:834px;" version="1.1" viewBox="0 0 190 834" width="190px" zoomAndPan="magnify"><defs><filter height="300%" id="f1td6uijwt4tb6" width="300%" x="-1" y="-1"><feGaussianBlur result="blurOut" stdDeviation="2.0"/><feColorMatrix in="blurOut" result="blurOut2" type="matrix" values="0 0 0 0 0 0 0 0 0 0 0 0 0 0 0 0 0 0 .4 0"/><feOffset dx="4.0" dy="4.0" in="blurOut2" result="blurOut3"/><feBlend in="SourceGraphic" in2="blurOut3" mode="normal"/></filter></defs><g><rect fill="#00AAFF" filter="url(#f1td6uijwt4tb6)" height="815.6094" rx="12.5" ry="12.5" style="stroke: #A80036; stroke-width: 1.5;" width="172" x="6" y="8"/><rect fill="#FFFFFF" height="782" rx="12.5" ry="12.5" style="stroke: #FFFFFF; stroke-width: 1.0;" width="166" x="9" y="38.6094"/><line style="stroke: #A80036; stroke-width: 1.5;" x1="6" x2="178" y1="35.6094" y2="35.6094"/><text fill="#000000" font-family="sans-serif" font-size="14" lengthAdjust="spacingAndGlyphs" textLength="122" x="31" y="27.5332">ApplicationInstance</text><rect fill="#00AAFF" filter="url(#f1td6uijwt4tb6)" height="50" rx="12.5" ry="12.5" style="stroke: #A80036; stroke-width: 1.5;" width="50" x="53" y="48.6094"/><line style="stroke: #A80036; stroke-width: 1.5;" x1="53" x2="103" y1="76.2188" y2="76.2188"/><text fill="#000000" font-family="sans-serif" font-size="14" lengthAdjust="spacingAndGlyphs" textLength="18" x="69" y="68.1426">Init</text><rect fill="#00AAFF" filter="url(#f1td6uijwt4tb6)" height="50" rx="12.5" ry="12.5" style="stroke: #A80036; stroke-width: 1.5;" width="80" x="38" y="190.6094"/><line style="stroke: #A80036; stroke-width: 1.5;" x1="38" x2="118" y1="218.2188" y2="218.2188"/><text fill="#000000" font-family="sans-serif" font-size="14" lengthAdjust="spacingAndGlyphs" textLength="60" x="48" y="210.1426">Initializing</text><rect fill="#00AAFF" filter="url(#f1td6uijwt4tb6)" height="50" rx="12.5" ry="12.5" style="stroke: #A80036; stroke-width: 1.5;" width="73" x="41.5" y="332.6094"/><line style="stroke: #A80036; stroke-width: 1.5;" x1="41.5" x2="114.5" y1="360.2188" y2="360.2188"/><text fill="#000000" font-family="sans-serif" font-size="14" lengthAdjust="spacingAndGlyphs" textLength="53" x="51.5" y="352.1426">Running</text><rect fill="#00AAFF" filter="url(#f1td6uijwt4tb6)" height="50" rx="12.5" ry="12.5" style="stroke: #A80036; stroke-width: 1.5;" width="76" x="40" y="474.6094"/><line style="stroke: #A80036; stroke-width: 1.5;" x1="40" x2="116" y1="502.2188" y2="502.2188"/><text fill="#000000" font-family="sans-serif" font-size="14" lengthAdjust="spacingAndGlyphs" textLength="56" x="50" y="494.1426">Stopping</text><rect fill="#00AAFF" filter="url(#f1td6uijwt4tb6)" height="50" rx="12.5" ry="12.5" style="stroke: #A80036; stroke-width: 1.5;" width="73" x="41.5" y="616.6094"/><line style="stroke: #A80036; stroke-width: 1.5;" x1="41.5" x2="114.5" y1="644.2188" y2="644.2188"/><text fill="#000000" font-family="sans-serif" font-size="14" lengthAdjust="spacingAndGlyphs" textLength="53" x="51.5" y="636.1426">Stopped</text><rect fill="#00AAFF" filter="url(#f1td6uijwt4tb6)" height="50" rx="12.5" ry="12.5" style="stroke: #A80036; stroke-width: 1.5;" width="50" x="17" y="758.6094"/><line style="stroke: #A80036; stroke-width: 1.5;" x1="17" x2="67" y1="786.2188" y2="786.2188"/><text fill="#000000" font-family="sans-serif" font-size="14" lengthAdjust="spacingAndGlyphs" textLength="22" x="31" y="778.1426">Exit</text><rect fill="#00AAFF" filter="url(#f1td6uijwt4tb6)" height="50" rx="12.5" ry="12.5" style="stroke: #A80036; stroke-width: 1.5;" width="59" x="85.5" y="758.6094"/><line style="stroke: #A80036; stroke-width: 1.5;" x1="85.5" x2="144.5" y1="786.2188" y2="786.2188"/><text fill="#000000" font-family="sans-serif" font-size="14" lengthAdjust="spacingAndGlyphs" textLength="39" x="95.5" y="778.1426">Failed</text><!--link Init to Initializing--><path d="M78,98.6764 C78,122.6164 78,159.3894 78,185.0824 " fill="none" id="Init-Initializing" style="stroke: #000000; stroke-width: 1.0;"/><polygon fill="#000000" points="78,190.3884,82,181.3884,78,185.3884,74,181.3884,78,190.3884" style="stroke: #000000; stroke-width: 1.0;"/><text fill="#000000" font-family="sans-serif" font-size="13" lengthAdjust="spacingAndGlyphs" textLength="36" x="79" y="150.1045">create</text><!--link Initializing to Running--><path d="M78,240.6764 C78,264.6164 78,301.3894 78,327.0824 " fill="none" id="Initializing-Running" style="stroke: #000000; stroke-width: 1.0;"/><polygon fill="#000000" points="78,332.3884,82,323.3884,78,327.3884,74,323.3884,78,332.3884" style="stroke: #000000; stroke-width: 1.0;"/><text fill="#000000" font-family="sans-serif" font-size="13" lengthAdjust="spacingAndGlyphs" textLength="61" x="79" y="292.1045">provisoned</text><!--link Running to Stopping--><path d="M78,382.6764 C78,406.6164 78,443.3894 78,469.0824 " fill="none" id="Running-Stopping" style="stroke: #000000; stroke-width: 1.0;"/><polygon fill="#000000" points="78,474.3884,82,465.3884,78,469.3884,74,465.3884,78,474.3884" style="stroke: #000000; stroke-width: 1.0;"/><text fill="#000000" font-family="sans-serif" font-size="13" lengthAdjust="spacingAndGlyphs" textLength="16" x="79" y="434.1045">kill</text><!--link Stopping to Stopped--><path d="M78,524.6764 C78,548.6164 78,585.3894 78,611.0824 " fill="none" id="Stopping-Stopped" style="stroke: #000000; stroke-width: 1.0;"/><polygon fill="#000000" points="78,616.3884,82,607.3884,78,611.3884,74,607.3884,78,616.3884" style="stroke: #000000; stroke-width: 1.0;"/><text fill="#000000" font-family="sans-serif" font-size="13" lengthAdjust="spacingAndGlyphs" textLength="46" x="79" y="576.1045">stopped</text><!--link Stopped to Exit--><path d="M71.8114,666.6764 C65.6296,690.7164 56.1201,727.6978 49.5099,753.4043 " fill="none" id="Stopped-Exit" style="stroke: #000000; stroke-width: 1.0;"/><polygon fill="#000000" points="48.2283,758.3881,54.3438,750.6679,49.4736,753.5456,46.5959,748.6754,48.2283,758.3881" style="stroke: #000000; stroke-width: 1.0;"/><text fill="#000000" font-family="sans-serif" font-size="13" lengthAdjust="spacingAndGlyphs" textLength="21" x="63" y="718.1045">exit</text><!--link Stopped to Failed--><path d="M84.3605,666.6764 C90.714,690.7164 100.4877,727.6978 107.2815,753.4043 " fill="none" id="Stopped-Failed" style="stroke: #000000; stroke-width: 1.0;"/><polygon fill="#000000" points="108.5987,758.3881,110.1663,748.6648,107.3211,753.5541,102.4318,750.7089,108.5987,758.3881" style="stroke: #000000; stroke-width: 1.0;"/><text fill="#000000" font-family="sans-serif" font-size="13" lengthAdjust="spacingAndGlyphs" textLength="30" x="100" y="718.1045">failed</text><!--
@startuml



state ApplicationInstance #00aaff {

    state Init #00aaff {
    }

    state Initializing #00aaff {
    }

    state Running #00aaff {
    }

    state Stopping #00aaff {
    }

    state Stopped #00aaff {
    }

    state Exit #00aaff {
    }

    state Failed #00aaff {
    }




Init -[#black]- -> Initializing : create

Initializing -[#black]- -> Running : provisoned

Running -[#black]- -> Stopping : kill

Stopping -[#black]- -> Stopped : stopped

Stopped -[#black]- -> Exit : exit

Stopped -[#black]- -> Failed : failed

}


@enduml

PlantUML version 1.2019.05(Sat Apr 20 09:45:36 PDT 2019)
(GPL source distribution)
Java Runtime: Java(TM) SE Runtime Environment
JVM: Java HotSpot(TM) Client VM
Java Version: 1.8.0_271-b09
Operating System: Windows 10
OS Version: 10.0
Default Encoding: Cp1252
Language: en
Country: US
--></g></svg>