<?xml version="1.0" encoding="us-ascii" standalone="no"?><svg xmlns="http://www.w3.org/2000/svg" xmlns:xlink="http://www.w3.org/1999/xlink" contentStyleType="text/css" height="822px" preserveAspectRatio="none" style="width:169px;height:822px;background:#FFFFFF;" version="1.1" viewBox="0 0 169 822" width="169px" zoomAndPan="magnify"><defs/><g><path d="M19.5,7 L143,7 A12.5,12.5 0 0 1 155.5,19.5 L155.5,34.6094 L7,34.6094 L7,19.5 A12.5,12.5 0 0 1 19.5,7 " fill="#00AAFF" style="stroke:#00AAFF;stroke-width:1.0;"/><rect fill="none" height="809.6094" rx="12.5" ry="12.5" style="stroke:#181818;stroke-width:0.5;" width="148.5" x="7" y="7"/><line style="stroke:#181818;stroke-width:0.5;" x1="7" x2="155.5" y1="34.6094" y2="34.6094"/><text fill="#000000" font-family="sans-serif" font-size="14" lengthAdjust="spacing" textLength="122" x="20.25" y="26.5332">ApplicationInstance</text><g id="ApplicationInstance.Init"><rect fill="#00AAFF" height="50" rx="12.5" ry="12.5" style="stroke:#181818;stroke-width:0.5;" width="50" x="55" y="46.6094"/><line style="stroke:#181818;stroke-width:0.5;" x1="55" x2="105" y1="74.2188" y2="74.2188"/><text fill="#000000" font-family="sans-serif" font-size="14" lengthAdjust="spacing" textLength="18" x="71" y="66.1426">Init</text></g><g id="ApplicationInstance.Initializing"><rect fill="#00AAFF" height="50" rx="12.5" ry="12.5" style="stroke:#181818;stroke-width:0.5;" width="80" x="40" y="188.6094"/><line style="stroke:#181818;stroke-width:0.5;" x1="40" x2="120" y1="216.2188" y2="216.2188"/><text fill="#000000" font-family="sans-serif" font-size="14" lengthAdjust="spacing" textLength="60" x="50" y="208.1426">Initializing</text></g><g id="ApplicationInstance.Running"><rect fill="#00AAFF" height="50" rx="12.5" ry="12.5" style="stroke:#181818;stroke-width:0.5;" width="73" x="43.5" y="330.6094"/><line style="stroke:#181818;stroke-width:0.5;" x1="43.5" x2="116.5" y1="358.2188" y2="358.2188"/><text fill="#000000" font-family="sans-serif" font-size="14" lengthAdjust="spacing" textLength="53" x="53.5" y="350.1426">Running</text></g><g id="ApplicationInstance.Stopping"><rect fill="#00AAFF" height="50" rx="12.5" ry="12.5" style="stroke:#181818;stroke-width:0.5;" width="76" x="42" y="472.6094"/><line style="stroke:#181818;stroke-width:0.5;" x1="42" x2="118" y1="500.2188" y2="500.2188"/><text fill="#000000" font-family="sans-serif" font-size="14" lengthAdjust="spacing" textLength="56" x="52" y="492.1426">Stopping</text></g><g id="ApplicationInstance.Stopped"><rect fill="#00AAFF" height="50" rx="12.5" ry="12.5" style="stroke:#181818;stroke-width:0.5;" width="73" x="43.5" y="614.6094"/><line style="stroke:#181818;stroke-width:0.5;" x1="43.5" x2="116.5" y1="642.2188" y2="642.2188"/><text fill="#000000" font-family="sans-serif" font-size="14" lengthAdjust="spacing" textLength="53" x="53.5" y="634.1426">Stopped</text></g><g id="ApplicationInstance.Exit"><rect fill="#00AAFF" height="50" rx="12.5" ry="12.5" style="stroke:#181818;stroke-width:0.5;" width="50" x="19" y="756.6094"/><line style="stroke:#181818;stroke-width:0.5;" x1="19" x2="69" y1="784.2188" y2="784.2188"/><text fill="#000000" font-family="sans-serif" font-size="14" lengthAdjust="spacing" textLength="22" x="33" y="776.1426">Exit</text></g><g id="ApplicationInstance.Failed"><rect fill="#00AAFF" height="50" rx="12.5" ry="12.5" style="stroke:#181818;stroke-width:0.5;" width="59" x="87.5" y="756.6094"/><line style="stroke:#181818;stroke-width:0.5;" x1="87.5" x2="146.5" y1="784.2188" y2="784.2188"/><text fill="#000000" font-family="sans-serif" font-size="14" lengthAdjust="spacing" textLength="39" x="97.5" y="776.1426">Failed</text></g><!--link Init to Initializing--><g id="link_Init_Initializing"><path d="M80,96.6794 C80,122.3194 80,156.6894 80,182.3894 " fill="none" id="Init-to-Initializing" style="stroke:#000000;stroke-width:1.0;"/><polygon fill="#000000" points="80,188.3894,84,179.3894,80,183.3894,76,179.3894,80,188.3894" style="stroke:#000000;stroke-width:1.0;"/><text fill="#000000" font-family="sans-serif" font-size="13" lengthAdjust="spacing" textLength="36" x="81" y="148.1045">create</text></g><!--link Initializing to Running--><g id="link_Initializing_Running"><path d="M80,238.6794 C80,264.3194 80,298.6894 80,324.3894 " fill="none" id="Initializing-to-Running" style="stroke:#000000;stroke-width:1.0;"/><polygon fill="#000000" points="80,330.3894,84,321.3894,80,325.3894,76,321.3894,80,330.3894" style="stroke:#000000;stroke-width:1.0;"/><text fill="#000000" font-family="sans-serif" font-size="13" lengthAdjust="spacing" textLength="61" x="81" y="290.1045">provisoned</text></g><!--link Running to Stopping--><g id="link_Running_Stopping"><path d="M80,380.6794 C80,406.3194 80,440.6894 80,466.3894 " fill="none" id="Running-to-Stopping" style="stroke:#000000;stroke-width:1.0;"/><polygon fill="#000000" points="80,472.3894,84,463.3894,80,467.3894,76,463.3894,80,472.3894" style="stroke:#000000;stroke-width:1.0;"/><text fill="#000000" font-family="sans-serif" font-size="13" lengthAdjust="spacing" textLength="16" x="81" y="432.1045">kill</text></g><!--link Stopping to Stopped--><g id="link_Stopping_Stopped"><path d="M80,522.6794 C80,548.3194 80,582.6894 80,608.3894 " fill="none" id="Stopping-to-Stopped" style="stroke:#000000;stroke-width:1.0;"/><polygon fill="#000000" points="80,614.3894,84,605.3894,80,609.3894,76,605.3894,80,614.3894" style="stroke:#000000;stroke-width:1.0;"/><text fill="#000000" font-family="sans-serif" font-size="13" lengthAdjust="spacing" textLength="46" x="81" y="574.1045">stopped</text></g><!--link Stopped to Exit--><g id="link_Stopped_Exit"><path d="M73.81,664.6794 C67.22,690.3194 58.3345,724.8785 51.7245,750.5785 " fill="none" id="Stopped-to-Exit" style="stroke:#000000;stroke-width:1.0;"/><polygon fill="#000000" points="50.23,756.3894,56.3457,748.6694,51.4755,751.547,48.5979,746.6767,50.23,756.3894" style="stroke:#000000;stroke-width:1.0;"/><text fill="#000000" font-family="sans-serif" font-size="13" lengthAdjust="spacing" textLength="21" x="65" y="716.1045">exit</text></g><!--link Stopped to Failed--><g id="link_Stopped_Failed"><path d="M86.36,664.6794 C93.14,690.3194 102.2774,724.8884 109.0674,750.5884 " fill="none" id="Stopped-to-Failed" style="stroke:#000000;stroke-width:1.0;"/><polygon fill="#000000" points="110.6,756.3894,112.1684,746.6662,109.3228,751.5552,104.4338,748.7097,110.6,756.3894" style="stroke:#000000;stroke-width:1.0;"/><text fill="#000000" font-family="sans-serif" font-size="13" lengthAdjust="spacing" textLength="30" x="102" y="716.1045">failed</text></g><!--SRC=[ZOyz2y8m48Rt_8g3peNE6GG7XQuwYaDCKpaQBg6D8eh_tJEsnVXHlIN7Uq-EUxgWWe6vznQr2kYef2ueqWQoeb2ghk4Y171r4Im9mzFaFhY-pb5PF2FjfxZLWUW7iWxE-tyOKqqXYzFqnKk5zjC6hYYRRxATLRhPvlairPEWMyCh7k0O9ny6Jmc-TKVi79bAY25DqD5NGeFM2Z46xnWVBFd-sFKWHmaNlIKOVhuGlRc4EZP2iFKD]--></g></svg>