<?xml version="1.0" encoding="UTF-8" standalone="no"?><svg xmlns="http://www.w3.org/2000/svg" xmlns:xlink="http://www.w3.org/1999/xlink" contentScriptType="application/ecmascript" contentStyleType="text/css" height="577px" preserveAspectRatio="none" style="width:590px;height:577px;" version="1.1" viewBox="0 0 590 577" width="590px" zoomAndPan="magnify"><defs><filter height="300%" id="frgdird2pyfrx" width="300%" x="-1" y="-1"><feGaussianBlur result="blurOut" stdDeviation="2.0"/><feColorMatrix in="blurOut" result="blurOut2" type="matrix" values="0 0 0 0 0 0 0 0 0 0 0 0 0 0 0 0 0 0 .4 0"/><feOffset dx="4.0" dy="4.0" in="blurOut2" result="blurOut3"/><feBlend in="SourceGraphic" in2="blurOut3" mode="normal"/></filter></defs><g><!--cluster sabr--><polygon fill="#BBAAFF" filter="url(#frgdird2pyfrx)" points="22,24,59,24,66,47.6094,568,47.6094,568,416,22,416,22,24" style="stroke: #000000; stroke-width: 1.5;"/><line style="stroke: #000000; stroke-width: 1.5;" x1="22" x2="66" y1="47.6094" y2="47.6094"/><text fill="#000000" font-family="sans-serif" font-size="14" font-weight="bold" lengthAdjust="spacingAndGlyphs" textLength="31" x="26" y="40.5332">sabr</text><!--entity parentnet--><path d="M49.5,309 L105.5,309 C110.5,309 110.5,322.8047 110.5,322.8047 C110.5,322.8047 110.5,336.6094 105.5,336.6094 L49.5,336.6094 C44.5,336.6094 44.5,322.8047 44.5,322.8047 C44.5,322.8047 44.5,309 49.5,309 " fill="#000000" filter="url(#frgdird2pyfrx)" style="stroke: #A80036; stroke-width: 1.5;"/><path d="M105.5,309 C100.5,309 100.5,322.8047 100.5,322.8047 C100.5,336.6094 105.5,336.6094 105.5,336.6094 " fill="none" style="stroke: #A80036; stroke-width: 1.5;"/><text fill="#FFFFFF" font-family="sans-serif" font-size="14" font-weight="bold" lengthAdjust="spacingAndGlyphs" textLength="46" x="49.5" y="328.5332">parent</text><!--entity childrennet--><path d="M43.5,372 L111.5,372 C116.5,372 116.5,385.8047 116.5,385.8047 C116.5,385.8047 116.5,399.6094 111.5,399.6094 L43.5,399.6094 C38.5,399.6094 38.5,385.8047 38.5,385.8047 C38.5,385.8047 38.5,372 43.5,372 " fill="#0000FF" filter="url(#frgdird2pyfrx)" style="stroke: #A80036; stroke-width: 1.5;"/><path d="M111.5,372 C106.5,372 106.5,385.8047 106.5,385.8047 C106.5,399.6094 111.5,399.6094 111.5,399.6094 " fill="none" style="stroke: #A80036; stroke-width: 1.5;"/><text fill="#FFFFFF" font-family="sans-serif" font-size="14" font-weight="bold" lengthAdjust="spacingAndGlyphs" textLength="58" x="43.5" y="391.5332">children</text><!--entity siblingsnet--><path d="M182,190 L247,190 C252,190 252,203.8047 252,203.8047 C252,203.8047 252,217.6094 247,217.6094 L182,217.6094 C177,217.6094 177,203.8047 177,203.8047 C177,203.8047 177,190 182,190 " fill="#FF0000" filter="url(#frgdird2pyfrx)" style="stroke: #A80036; stroke-width: 1.5;"/><path d="M247,190 C242,190 242,203.8047 242,203.8047 C242,217.6094 247,217.6094 247,217.6094 " fill="none" style="stroke: #A80036; stroke-width: 1.5;"/><text fill="#FFFFFF" font-family="sans-serif" font-size="14" font-weight="bold" lengthAdjust="spacingAndGlyphs" textLength="55" x="182" y="209.5332">siblings</text><!--entity webService--><polygon fill="#FEFECE" filter="url(#frgdird2pyfrx)" points="45,70,55,60,110,60,110,97.6094,100,107.6094,45,107.6094,45,70" style="stroke: #000000; stroke-width: 1.5;"/><line style="stroke: #000000; stroke-width: 1.5;" x1="100" x2="109" y1="70" y2="61"/><line style="stroke: #000000; stroke-width: 1.5;" x1="45" x2="100" y1="70" y2="70"/><line style="stroke: #000000; stroke-width: 1.5;" x1="100" x2="100" y1="70" y2="107.6094"/><text fill="#000000" font-family="sans-serif" font-size="14" lengthAdjust="spacingAndGlyphs" textLength="25" x="60" y="94.5332">web</text><!--entity pulsarService--><polygon fill="#FEFECE" filter="url(#frgdird2pyfrx)" points="38,153,48,143,117,143,117,180.6094,107,190.6094,38,190.6094,38,153" style="stroke: #000000; stroke-width: 1.5;"/><line style="stroke: #000000; stroke-width: 1.5;" x1="107" x2="116" y1="153" y2="144"/><line style="stroke: #000000; stroke-width: 1.5;" x1="38" x2="107" y1="153" y2="153"/><line style="stroke: #000000; stroke-width: 1.5;" x1="107" x2="107" y1="153" y2="190.6094"/><text fill="#000000" font-family="sans-serif" font-size="14" lengthAdjust="spacingAndGlyphs" textLength="39" x="53" y="177.5332">pulsar</text><!--entity docService--><polygon fill="#FEFECE" filter="url(#frgdird2pyfrx)" points="46,236,56,226,109,226,109,263.6094,99,273.6094,46,273.6094,46,236" style="stroke: #000000; stroke-width: 1.5;"/><line style="stroke: #000000; stroke-width: 1.5;" x1="99" x2="108" y1="236" y2="227"/><line style="stroke: #000000; stroke-width: 1.5;" x1="46" x2="99" y1="236" y2="236"/><line style="stroke: #000000; stroke-width: 1.5;" x1="99" x2="99" y1="236" y2="273.6094"/><text fill="#000000" font-family="sans-serif" font-size="14" lengthAdjust="spacingAndGlyphs" textLength="23" x="61" y="260.5332">doc</text><!--entity sabr_webimage--><rect fill="#FEFECE" filter="url(#frgdird2pyfrx)" height="40.6094" style="stroke: #000000; stroke-width: 1.5;" width="91" x="417" y="61.5"/><polygon fill="#FEFECE" points="491,66.5,491,80.5,503,80.5,503,72.5,497,66.5,491,66.5" style="stroke: #000000; stroke-width: 1.5;"/><line style="stroke: #000000; stroke-width: 1.5;" x1="497" x2="497" y1="66.5" y2="72.5"/><line style="stroke: #000000; stroke-width: 1.5;" x1="503" x2="497" y1="72.5" y2="72.5"/><text fill="#000000" font-family="sans-serif" font-size="14" lengthAdjust="spacingAndGlyphs" textLength="61" x="427" y="89.0332">sabr_web</text><!--entity sabr_pulsarstandaloneimage--><rect fill="#FEFECE" filter="url(#frgdird2pyfrx)" height="40.6094" style="stroke: #000000; stroke-width: 1.5;" width="179" x="373" y="137.5"/><polygon fill="#FEFECE" points="535,142.5,535,156.5,547,156.5,547,148.5,541,142.5,535,142.5" style="stroke: #000000; stroke-width: 1.5;"/><line style="stroke: #000000; stroke-width: 1.5;" x1="541" x2="541" y1="142.5" y2="148.5"/><line style="stroke: #000000; stroke-width: 1.5;" x1="547" x2="541" y1="148.5" y2="148.5"/><text fill="#000000" font-family="sans-serif" font-size="14" lengthAdjust="spacingAndGlyphs" textLength="149" x="383" y="165.0332">sabr_pulsar:standalone</text><!--entity sabr_docimage--><rect fill="#FEFECE" filter="url(#frgdird2pyfrx)" height="40.6094" style="stroke: #000000; stroke-width: 1.5;" width="89" x="418" y="233.5"/><polygon fill="#FEFECE" points="490,238.5,490,252.5,502,252.5,502,244.5,496,238.5,490,238.5" style="stroke: #000000; stroke-width: 1.5;"/><line style="stroke: #000000; stroke-width: 1.5;" x1="496" x2="496" y1="238.5" y2="244.5"/><line style="stroke: #000000; stroke-width: 1.5;" x1="502" x2="496" y1="244.5" y2="244.5"/><text fill="#000000" font-family="sans-serif" font-size="14" lengthAdjust="spacingAndGlyphs" textLength="59" x="428" y="261.0332">sabr_doc</text><!--entity parent--><path d="M194,436 L194,460 M194,448 L211,448 " fill="none" filter="url(#frgdird2pyfrx)" style="stroke: #A80036; stroke-width: 2.0;"/><ellipse cx="223" cy="448" fill="#000000" filter="url(#frgdird2pyfrx)" rx="12" ry="12" style="stroke: #A80036; stroke-width: 2.0;"/><text fill="#000000" font-family="sans-serif" font-size="14" lengthAdjust="spacingAndGlyphs" textLength="41" x="194" y="478.5332">parent</text><!--entity children--><ellipse cx="214.5" cy="533" fill="#0000FF" filter="url(#frgdird2pyfrx)" rx="12" ry="12" style="stroke: #A80036; stroke-width: 2.0;"/><line style="stroke: #A80036; stroke-width: 2.0;" x1="202.5" x2="226.5" y1="547" y2="547"/><text fill="#000000" font-family="sans-serif" font-size="14" lengthAdjust="spacingAndGlyphs" textLength="50" x="189.5" y="563.5332">children</text><!--link parentnet to parent--><path d="M96.5141,337.225 C103.1077,342.624 110.533,348.936 117,355 C143.673,380.013 172.219,410.732 191.286,431.884 " fill="none" id="parentnet-parent" style="stroke: #000000; stroke-width: 1.0;"/><!--link childrennet to children--><path d="M90.6183,400.051 C109.192,421.582 145.825,464.024 177,500 C181.682,505.4025 186.706,511.1911 191.485,516.6912 " fill="none" id="childrennet-children" style="stroke: #0000FF; stroke-width: 1.0;"/><!--link webService to siblingsnet--><path d="M105.8193,108.284 C133.402,132.801 175.058,169.829 197.621,189.885 " fill="none" id="webService-siblingsnet" style="stroke: #FF0000; stroke-width: 1.0;"/><!--link pulsarService to siblingsnet--><path d="M117.186,177.603 C135.885,182.728 158.217,188.848 176.666,193.905 " fill="none" id="pulsarService-siblingsnet" style="stroke: #FF0000; stroke-width: 1.0;"/><!--link docService to siblingsnet--><path d="M109.134,239.562 C129.205,232.723 155.549,223.746 176.747,216.523 " fill="none" id="docService-siblingsnet" style="stroke: #FF0000; stroke-width: 1.0;"/><!--link webService to sabr_webimage--><path d="M110.168,83.835 C178.183,83.479 338.391,82.643 416.756,82.234 " fill="none" id="webService-sabr_webimage" style="stroke: #A80036; stroke-width: 1.0; stroke-dasharray: 7.0,7.0;"/><!--link pulsarService to sabr_pulsarstandaloneimage--><path d="M117.332,166.088 C176.857,164.689 292.226,161.978 372.916,160.082 " fill="none" id="pulsarService-sabr_pulsarstandaloneimage" style="stroke: #A80036; stroke-width: 1.0; stroke-dasharray: 7.0,7.0;"/><!--link docService to sabr_docimage--><path d="M109.195,250.321 C176.915,251.028 339.316,252.724 417.703,253.543 " fill="none" id="docService-sabr_docimage" style="stroke: #A80036; stroke-width: 1.0; stroke-dasharray: 7.0,7.0;"/><!--
@startuml

left to right direction


boundary parent #black


entity children #blue




package "sabr" #bbaaff {
    queue parentnet #black [
            <b><color:white>parent</color></b>
    ]
    
    parentnet -[#black]- parent
    
    queue childrennet #blue [
            <b><color:white>children</color></b>
    ]
    
    childrennet -[#blue]- children
    
    queue siblingsnet #red [
            <b><color:white>siblings</color></b>
    ]
    

node "web" as webService
node "pulsar" as pulsarService
node "doc" as docService


        artifact "sabr_web" as sabr_webimage
    
        artifact "sabr_pulsar:standalone" as sabr_pulsarstandaloneimage
    
        artifact "sabr_doc" as sabr_docimage
    
}

webService -[#red]- siblingsnet

pulsarService -[#red]- siblingsnet

docService -[#red]- siblingsnet
webService .... sabr_webimage
pulsarService .... sabr_pulsarstandaloneimage
docService .... sabr_docimage


@enduml

PlantUML version 1.2019.05(Sat Apr 20 09:45:36 PDT 2019)
(GPL source distribution)
Java Runtime: Java(TM) SE Runtime Environment
JVM: Java HotSpot(TM) Client VM
Java Version: 1.8.0_271-b09
Operating System: Windows 10
OS Version: 10.0
Default Encoding: Cp1252
Language: en
Country: US
--></g></svg>