<?xml version="1.0" encoding="us-ascii" standalone="no"?><svg xmlns="http://www.w3.org/2000/svg" xmlns:xlink="http://www.w3.org/1999/xlink" contentStyleType="text/css" height="554px" preserveAspectRatio="none" style="width:559px;height:554px;background:#FFFFFF;" version="1.1" viewBox="0 0 559 554" width="559px" zoomAndPan="magnify"><defs/><g><!--cluster sabr--><g id="cluster_sabr"><path d="M8.5,6 L40.5,6 A3.75,3.75 0 0 1 43,8.5 L50,29.6094 L549.5,29.6094 A2.5,2.5 0 0 1 552,32.1094 L552,395.5 A2.5,2.5 0 0 1 549.5,398 L8.5,398 A2.5,2.5 0 0 1 6,395.5 L6,8.5 A2.5,2.5 0 0 1 8.5,6 " fill="#BBAAFF" style="stroke:#000000;stroke-width:1.5;"/><line style="stroke:#000000;stroke-width:1.5;" x1="6" x2="50" y1="29.6094" y2="29.6094"/><text fill="#000000" font-family="sans-serif" font-size="14" font-weight="bold" lengthAdjust="spacing" textLength="31" x="10" y="22.5332">sabr</text></g><!--entity parentnet--><g id="elem_parentnet"><path d="M33.5,291 L89.5,291 C94.5,291 94.5,304.8047 94.5,304.8047 C94.5,304.8047 94.5,318.6094 89.5,318.6094 L33.5,318.6094 C28.5,318.6094 28.5,304.8047 28.5,304.8047 C28.5,304.8047 28.5,291 33.5,291 " fill="#000000" style="stroke:#181818;stroke-width:0.5;"/><path d="M89.5,291 C84.5,291 84.5,304.8047 84.5,304.8047 C84.5,318.6094 89.5,318.6094 89.5,318.6094 " fill="none" style="stroke:#181818;stroke-width:0.5;"/><text fill="#FFFFFF" font-family="sans-serif" font-size="14" font-weight="bold" lengthAdjust="spacing" textLength="46" x="33.5" y="310.5332">parent</text></g><!--entity childrennet--><g id="elem_childrennet"><path d="M27.5,354 L95.5,354 C100.5,354 100.5,367.8047 100.5,367.8047 C100.5,367.8047 100.5,381.6094 95.5,381.6094 L27.5,381.6094 C22.5,381.6094 22.5,367.8047 22.5,367.8047 C22.5,367.8047 22.5,354 27.5,354 " fill="#0000FF" style="stroke:#181818;stroke-width:0.5;"/><path d="M95.5,354 C90.5,354 90.5,367.8047 90.5,367.8047 C90.5,381.6094 95.5,381.6094 95.5,381.6094 " fill="none" style="stroke:#181818;stroke-width:0.5;"/><text fill="#FFFFFF" font-family="sans-serif" font-size="14" font-weight="bold" lengthAdjust="spacing" textLength="58" x="27.5" y="373.5332">children</text></g><!--entity siblingsnet--><g id="elem_siblingsnet"><path d="M166,172 L231,172 C236,172 236,185.8047 236,185.8047 C236,185.8047 236,199.6094 231,199.6094 L166,199.6094 C161,199.6094 161,185.8047 161,185.8047 C161,185.8047 161,172 166,172 " fill="#FF0000" style="stroke:#181818;stroke-width:0.5;"/><path d="M231,172 C226,172 226,185.8047 226,185.8047 C226,199.6094 231,199.6094 231,199.6094 " fill="none" style="stroke:#181818;stroke-width:0.5;"/><text fill="#FFFFFF" font-family="sans-serif" font-size="14" font-weight="bold" lengthAdjust="spacing" textLength="55" x="166" y="191.5332">siblings</text></g><!--entity webService--><g id="elem_webService"><polygon fill="#F1F1F1" points="29,52,39,42,94,42,94,79.6094,84,89.6094,29,89.6094,29,52" style="stroke:#181818;stroke-width:0.5;"/><line style="stroke:#181818;stroke-width:0.5;" x1="84" x2="94" y1="52" y2="42"/><line style="stroke:#181818;stroke-width:0.5;" x1="29" x2="84" y1="52" y2="52"/><line style="stroke:#181818;stroke-width:0.5;" x1="84" x2="84" y1="52" y2="89.6094"/><text fill="#000000" font-family="sans-serif" font-size="14" lengthAdjust="spacing" textLength="25" x="44" y="76.5332">web</text></g><!--entity pulsarService--><g id="elem_pulsarService"><polygon fill="#F1F1F1" points="22,135,32,125,101,125,101,162.6094,91,172.6094,22,172.6094,22,135" style="stroke:#181818;stroke-width:0.5;"/><line style="stroke:#181818;stroke-width:0.5;" x1="91" x2="101" y1="135" y2="125"/><line style="stroke:#181818;stroke-width:0.5;" x1="22" x2="91" y1="135" y2="135"/><line style="stroke:#181818;stroke-width:0.5;" x1="91" x2="91" y1="135" y2="172.6094"/><text fill="#000000" font-family="sans-serif" font-size="14" lengthAdjust="spacing" textLength="39" x="37" y="159.5332">pulsar</text></g><!--entity docService--><g id="elem_docService"><polygon fill="#F1F1F1" points="30,218,40,208,93,208,93,245.6094,83,255.6094,30,255.6094,30,218" style="stroke:#181818;stroke-width:0.5;"/><line style="stroke:#181818;stroke-width:0.5;" x1="83" x2="93" y1="218" y2="208"/><line style="stroke:#181818;stroke-width:0.5;" x1="30" x2="83" y1="218" y2="218"/><line style="stroke:#181818;stroke-width:0.5;" x1="83" x2="83" y1="218" y2="255.6094"/><text fill="#000000" font-family="sans-serif" font-size="14" lengthAdjust="spacing" textLength="23" x="45" y="242.5332">doc</text></g><!--entity sabr_webimage--><g id="elem_sabr_webimage"><rect fill="#F1F1F1" height="40.6094" rx="2.5" ry="2.5" style="stroke:#181818;stroke-width:0.5;" width="91" x="401" y="43.5"/><polygon fill="#F1F1F1" points="475,48.5,475,62.5,487,62.5,487,54.5,481,48.5,475,48.5" style="stroke:#181818;stroke-width:0.5;"/><line style="stroke:#181818;stroke-width:0.5;" x1="481" x2="481" y1="48.5" y2="54.5"/><line style="stroke:#181818;stroke-width:0.5;" x1="487" x2="481" y1="54.5" y2="54.5"/><text fill="#000000" font-family="sans-serif" font-size="14" lengthAdjust="spacing" textLength="61" x="411" y="71.0332">sabr_web</text></g><!--entity sabr_pulsarstandaloneimage--><g id="elem_sabr_pulsarstandaloneimage"><rect fill="#F1F1F1" height="40.6094" rx="2.5" ry="2.5" style="stroke:#181818;stroke-width:0.5;" width="179" x="357" y="119.5"/><polygon fill="#F1F1F1" points="519,124.5,519,138.5,531,138.5,531,130.5,525,124.5,519,124.5" style="stroke:#181818;stroke-width:0.5;"/><line style="stroke:#181818;stroke-width:0.5;" x1="525" x2="525" y1="124.5" y2="130.5"/><line style="stroke:#181818;stroke-width:0.5;" x1="531" x2="525" y1="130.5" y2="130.5"/><text fill="#000000" font-family="sans-serif" font-size="14" lengthAdjust="spacing" textLength="149" x="367" y="147.0332">sabr_pulsar:standalone</text></g><!--entity sabr_docimage--><g id="elem_sabr_docimage"><rect fill="#F1F1F1" height="40.6094" rx="2.5" ry="2.5" style="stroke:#181818;stroke-width:0.5;" width="89" x="402" y="215.5"/><polygon fill="#F1F1F1" points="474,220.5,474,234.5,486,234.5,486,226.5,480,220.5,474,220.5" style="stroke:#181818;stroke-width:0.5;"/><line style="stroke:#181818;stroke-width:0.5;" x1="480" x2="480" y1="220.5" y2="226.5"/><line style="stroke:#181818;stroke-width:0.5;" x1="486" x2="480" y1="226.5" y2="226.5"/><text fill="#000000" font-family="sans-serif" font-size="14" lengthAdjust="spacing" textLength="59" x="412" y="243.0332">sabr_doc</text></g><!--entity parent--><g id="elem_parent"><path d="M178,418 L178,442 M178,430 L195,430 " fill="none" style="stroke:#181818;stroke-width:0.5;"/><ellipse cx="207" cy="430" fill="#000000" rx="12" ry="12" style="stroke:#181818;stroke-width:0.5;"/><text fill="#000000" font-family="sans-serif" font-size="14" lengthAdjust="spacing" textLength="41" x="178" y="460.5332">parent</text></g><!--entity children--><g id="elem_children"><ellipse cx="198.5" cy="515" fill="#0000FF" rx="12" ry="12" style="stroke:#181818;stroke-width:0.5;"/><line style="stroke:#181818;stroke-width:0.5;" x1="186.5" x2="210.5" y1="529" y2="529"/><text fill="#000000" font-family="sans-serif" font-size="14" lengthAdjust="spacing" textLength="50" x="173.5" y="545.5332">children</text></g><!--link parentnet to parent--><g id="link_parentnet_parent"><path d="M80.96,319 C87.46,324.16 94.71,330.16 101,336 C115.73,349.67 151.19,388.09 174.78,413.95 " fill="none" id="parentnet-parent" style="stroke:#000000;stroke-width:1.0;"/></g><!--link childrennet to children--><g id="link_childrennet_children"><path d="M74.62,382.05 C93.19,403.58 129.83,446.02 161,482 C165.68,487.4 170.71,493.19 175.48,498.69 " fill="none" id="childrennet-children" style="stroke:#0000FF;stroke-width:1.0;"/></g><!--link webService to siblingsnet--><g id="link_webService_siblingsnet"><path d="M89.82,90.28 C117.4,114.8 159.06,151.83 181.62,171.89 " fill="none" id="webService-siblingsnet" style="stroke:#FF0000;stroke-width:1.0;"/></g><!--link pulsarService to siblingsnet--><g id="link_pulsarService_siblingsnet"><path d="M101.19,159.6 C119.89,164.73 142.22,170.85 160.67,175.9 " fill="none" id="pulsarService-siblingsnet" style="stroke:#FF0000;stroke-width:1.0;"/></g><!--link docService to siblingsnet--><g id="link_docService_siblingsnet"><path d="M93.13,221.56 C113.2,214.72 139.55,205.75 160.75,198.52 " fill="none" id="docService-siblingsnet" style="stroke:#FF0000;stroke-width:1.0;"/></g><!--link webService to sabr_webimage--><g id="link_webService_sabr_webimage"><path d="M94.17,65.83 C162.18,65.48 322.39,64.64 400.76,64.23 " fill="none" id="webService-sabr_webimage" style="stroke:#181818;stroke-width:1.0;stroke-dasharray:7.0,7.0;"/></g><!--link pulsarService to sabr_pulsarstandaloneimage--><g id="link_pulsarService_sabr_pulsarstandaloneimage"><path d="M101.33,148.09 C160.86,146.69 276.23,143.98 356.92,142.08 " fill="none" id="pulsarService-sabr_pulsarstandaloneimage" style="stroke:#181818;stroke-width:1.0;stroke-dasharray:7.0,7.0;"/></g><!--link docService to sabr_docimage--><g id="link_docService_sabr_docimage"><path d="M93.2,232.32 C160.91,233.03 323.32,234.72 401.7,235.54 " fill="none" id="docService-sabr_docimage" style="stroke:#181818;stroke-width:1.0;stroke-dasharray:7.0,7.0;"/></g><!--SRC=[XLBBRiCW4Bpp5IWzfxb7bd-YnoYgUAnjL0ekZqHHrN_l6anm8YVP0pOxmyxiWeOkq62fK_qGg5GEH53M44AuZKOoTw4ZSs02VUEQYIy4SAF2XOf1QOd814GWKun8O3tGZMVSRH3WZ7KT_IKKuoT2XBcOWLAF7X9Oek5j8wosRdyUL80sqvjTohNDZhU9VanhMch1xI6NF6xdP2LbxU9uLiVCS_72VoQ_h9aCH43zahrtu1NNolG-EN0WNnWez4S6YB4Iftq6lg7CK_n-W3if0JCmHksPIrZ-lOMb5Gd3Rm78rGzpGNLCX7oPdqMZRDGtNdHjR-L4LjpxmF0PQMkWdizGHLuNArRBPd7YZv3Q-7G7E5UyWiMeyM4kkt_0gLDO9on4tZ7k9d6hK0dhhIwqAlNQ5la7]--></g></svg>