<?xml version="1.0" encoding="UTF-8" standalone="no"?><svg xmlns="http://www.w3.org/2000/svg" xmlns:xlink="http://www.w3.org/1999/xlink" contentScriptType="application/ecmascript" contentStyleType="text/css" height="685px" preserveAspectRatio="none" style="width:534px;height:685px;" version="1.1" viewBox="0 0 534 685" width="534px" zoomAndPan="magnify"><defs><filter height="300%" id="fvxqkatwd1w2" width="300%" x="-1" y="-1"><feGaussianBlur result="blurOut" stdDeviation="2.0"/><feColorMatrix in="blurOut" result="blurOut2" type="matrix" values="0 0 0 0 0 0 0 0 0 0 0 0 0 0 0 0 0 0 .4 0"/><feOffset dx="4.0" dy="4.0" in="blurOut2" result="blurOut3"/><feBlend in="SourceGraphic" in2="blurOut3" mode="normal"/></filter></defs><g><!--cluster Sentient Agent Bundle Resources--><polygon fill="#BBAAFF" filter="url(#fvxqkatwd1w2)" points="45.5,84,289.5,84,296.5,107.6094,512.5,107.6094,512.5,673,45.5,673,45.5,84" style="stroke: #000000; stroke-width: 1.5;"/><line style="stroke: #000000; stroke-width: 1.5;" x1="45.5" x2="296.5" y1="107.6094" y2="107.6094"/><text fill="#000000" font-family="sans-serif" font-size="14" font-weight="bold" lengthAdjust="spacingAndGlyphs" textLength="238" x="49.5" y="100.5332">Sentient Agent Bundle Resources</text><!--cluster bin--><polygon fill="#FFFFFF" filter="url(#fvxqkatwd1w2)" points="131.5,128,159.5,128,166.5,151.6094,211.5,151.6094,211.5,218,131.5,218,131.5,128" style="stroke: #000000; stroke-width: 1.5;"/><line style="stroke: #000000; stroke-width: 1.5;" x1="131.5" x2="166.5" y1="151.6094" y2="151.6094"/><text fill="#000000" font-family="sans-serif" font-size="14" font-weight="bold" lengthAdjust="spacingAndGlyphs" textLength="22" x="135.5" y="144.5332">bin</text><!--cluster deploy--><polygon fill="#FFFFFF" filter="url(#fvxqkatwd1w2)" points="69.5,324,122.5,324,129.5,347.6094,456.5,347.6094,456.5,431,69.5,431,69.5,324" style="stroke: #000000; stroke-width: 1.5;"/><line style="stroke: #000000; stroke-width: 1.5;" x1="69.5" x2="129.5" y1="347.6094" y2="347.6094"/><text fill="#000000" font-family="sans-serif" font-size="14" font-weight="bold" lengthAdjust="spacingAndGlyphs" textLength="47" x="73.5" y="340.5332">deploy</text><!--cluster images--><polygon fill="#FFFFFF" filter="url(#fvxqkatwd1w2)" points="69.5,455,125.5,455,132.5,478.6094,488.5,478.6094,488.5,649,69.5,649,69.5,455" style="stroke: #000000; stroke-width: 1.5;"/><line style="stroke: #000000; stroke-width: 1.5;" x1="69.5" x2="132.5" y1="478.6094" y2="478.6094"/><text fill="#000000" font-family="sans-serif" font-size="14" font-weight="bold" lengthAdjust="spacingAndGlyphs" textLength="50" x="73.5" y="471.5332">images</text><!--entity REST--><rect fill="#FEFECE" filter="url(#fvxqkatwd1w2)" height="37.6094" style="stroke: #A80036; stroke-width: 1.5;" width="69" x="137" y="262"/><rect fill="#FEFECE" height="5" style="stroke: #A80036; stroke-width: 1.5;" width="10" x="132" y="267"/><rect fill="#FEFECE" height="5" style="stroke: #A80036; stroke-width: 1.5;" width="10" x="132" y="289.6094"/><text fill="#000000" font-family="sans-serif" font-size="14" lengthAdjust="spacingAndGlyphs" textLength="49" x="147" y="286.5332">express</text><!--entity socket--><rect fill="#FEFECE" filter="url(#fvxqkatwd1w2)" height="37.6094" style="stroke: #A80036; stroke-width: 1.5;" width="76" x="271.5" y="164"/><rect fill="#FEFECE" height="5" style="stroke: #A80036; stroke-width: 1.5;" width="10" x="266.5" y="169"/><rect fill="#FEFECE" height="5" style="stroke: #A80036; stroke-width: 1.5;" width="10" x="266.5" y="191.6094"/><text fill="#000000" font-family="sans-serif" font-size="14" lengthAdjust="spacingAndGlyphs" textLength="56" x="281.5" y="188.5332">socket.io</text><!--entity binName--><rect fill="#FEFECE" filter="url(#fvxqkatwd1w2)" height="37.6094" style="stroke: #A80036; stroke-width: 1.5;" width="48" x="147.5" y="164"/><rect fill="#FEFECE" height="5" style="stroke: #A80036; stroke-width: 1.5;" width="10" x="142.5" y="169"/><rect fill="#FEFECE" height="5" style="stroke: #A80036; stroke-width: 1.5;" width="10" x="142.5" y="191.6094"/><text fill="#000000" font-family="sans-serif" font-size="14" lengthAdjust="spacingAndGlyphs" textLength="28" x="157.5" y="188.5332">sabr</text><!--entity sabr_container--><polygon fill="#FEFECE" filter="url(#fvxqkatwd1w2)" points="85.5,360,85.5,415.2188,195.5,415.2188,195.5,370,185.5,360,85.5,360" style="stroke: #000000; stroke-width: 1.5;"/><path d="M185.5,360 L185.5,370 L195.5,370 " fill="#FEFECE" style="stroke: #000000; stroke-width: 1.5;"/><text fill="#000000" font-family="sans-serif" font-size="14" lengthAdjust="spacingAndGlyphs" textLength="90" x="95.5" y="384.5332">node server.js</text><text fill="#000000" font-family="sans-serif" font-size="14" lengthAdjust="spacingAndGlyphs" textLength="0" x="99.5" y="402.1426"/><!--entity sabr_pulsar_container--><polygon fill="#FEFECE" filter="url(#fvxqkatwd1w2)" points="345,368.5,345,406.1094,440,406.1094,440,378.5,430,368.5,345,368.5" style="stroke: #000000; stroke-width: 1.5;"/><path d="M430,368.5 L430,378.5 L440,378.5 " fill="#FEFECE" style="stroke: #000000; stroke-width: 1.5;"/><text fill="#000000" font-family="sans-serif" font-size="14" lengthAdjust="spacingAndGlyphs" textLength="75" x="355" y="393.0332">sabr_pulsar</text><!--entity sabr_doc_container--><polygon fill="#FEFECE" filter="url(#fvxqkatwd1w2)" points="231,368.5,231,406.1094,310,406.1094,310,378.5,300,368.5,231,368.5" style="stroke: #000000; stroke-width: 1.5;"/><path d="M300,368.5 L300,378.5 L310,378.5 " fill="#FEFECE" style="stroke: #000000; stroke-width: 1.5;"/><text fill="#000000" font-family="sans-serif" font-size="14" lengthAdjust="spacingAndGlyphs" textLength="59" x="241" y="393.0332">sabr_doc</text><!--entity sabrimage--><rect fill="#FEFECE" filter="url(#fvxqkatwd1w2)" height="33.6094" style="stroke: #000000; stroke-width: 1.5;" width="44" x="89.5" y="496.5"/><rect fill="#FEFECE" height="33.6094" style="stroke: #000000; stroke-width: 1.5;" width="44" x="85.5" y="492.5"/><text fill="#000000" font-family="sans-serif" font-size="14" lengthAdjust="spacingAndGlyphs" textLength="28" x="93.5" y="515.0332">sabr</text><!--entity ailtireswarm--><rect fill="#FEFECE" filter="url(#fvxqkatwd1w2)" height="40.6094" style="stroke: #000000; stroke-width: 1.5;" width="108" x="85.5" y="592"/><polygon fill="#FEFECE" points="176.5,597,176.5,611,188.5,611,188.5,603,182.5,597,176.5,597" style="stroke: #000000; stroke-width: 1.5;"/><line style="stroke: #000000; stroke-width: 1.5;" x1="182.5" x2="182.5" y1="597" y2="603"/><line style="stroke: #000000; stroke-width: 1.5;" x1="188.5" x2="182.5" y1="603" y2="603"/><text fill="#000000" font-family="sans-serif" font-size="14" lengthAdjust="spacingAndGlyphs" textLength="78" x="95.5" y="619.5332">ailtire:swarm</text><!--entity sabr_pulsar_standalone--><rect fill="#FEFECE" filter="url(#fvxqkatwd1w2)" height="40.6094" style="stroke: #000000; stroke-width: 1.5;" width="179" x="293" y="491"/><polygon fill="#FEFECE" points="455,496,455,510,467,510,467,502,461,496,455,496" style="stroke: #000000; stroke-width: 1.5;"/><line style="stroke: #000000; stroke-width: 1.5;" x1="461" x2="461" y1="496" y2="502"/><line style="stroke: #000000; stroke-width: 1.5;" x1="467" x2="461" y1="502" y2="502"/><text fill="#000000" font-family="sans-serif" font-size="14" lengthAdjust="spacingAndGlyphs" textLength="149" x="303" y="518.5332">sabr_pulsar:standalone</text><!--entity sabr_doc--><rect fill="#FEFECE" filter="url(#fvxqkatwd1w2)" height="40.6094" style="stroke: #000000; stroke-width: 1.5;" width="89" x="169" y="491"/><polygon fill="#FEFECE" points="241,496,241,510,253,510,253,502,247,496,241,496" style="stroke: #000000; stroke-width: 1.5;"/><line style="stroke: #000000; stroke-width: 1.5;" x1="247" x2="247" y1="496" y2="502"/><line style="stroke: #000000; stroke-width: 1.5;" x1="253" x2="247" y1="502" y2="502"/><text fill="#000000" font-family="sans-serif" font-size="14" lengthAdjust="spacingAndGlyphs" textLength="59" x="179" y="518.5332">sabr_doc</text><!--entity CLI--><ellipse cx="171.5" cy="38" fill="#FEFECE" filter="url(#fvxqkatwd1w2)" rx="8" ry="8" style="stroke: #A80036; stroke-width: 2.0;"/><text fill="#000000" font-family="sans-serif" font-size="14" lengthAdjust="spacingAndGlyphs" textLength="21" x="161" y="69.5332">CLI</text><!--entity Web--><ellipse cx="20.5" cy="281" fill="#FEFECE" filter="url(#fvxqkatwd1w2)" rx="8" ry="8" style="stroke: #A80036; stroke-width: 2.0;"/><text fill="#000000" font-family="sans-serif" font-size="14" lengthAdjust="spacingAndGlyphs" textLength="29" x="6" y="312.5332">Web</text><!--entity WebSocket--><ellipse cx="309.5" cy="38" fill="#FEFECE" filter="url(#fvxqkatwd1w2)" rx="8" ry="8" style="stroke: #A80036; stroke-width: 2.0;"/><text fill="#000000" font-family="sans-serif" font-size="14" lengthAdjust="spacingAndGlyphs" textLength="72" x="273.5" y="69.5332">WebSocket</text><!--link binName to REST--><path d="M171.5,202.057 C171.5,217.513 171.5,239.865 171.5,256.673 " fill="none" id="binName-REST" style="stroke: #A80036; stroke-width: 1.0;"/><polygon fill="#A80036" points="171.5,261.698,175.5,252.698,171.5,256.698,167.5,252.698,171.5,261.698" style="stroke: #A80036; stroke-width: 1.0;"/><!--link REST to sabr_container--><path d="M166.1,300.203 C161.629,315.276 155.171,337.045 149.86,354.947 " fill="none" id="REST-sabr_container" style="stroke: #A80036; stroke-width: 1.0;"/><polygon fill="#A80036" points="148.395,359.885,154.7889,352.3938,149.8167,355.0914,147.1191,350.1191,148.395,359.885" style="stroke: #A80036; stroke-width: 1.0;"/><!--link REST to sabr_pulsar_container--><path d="M206.188,283.588 C239.301,286.429 289.619,294.297 327.5,316 C347.966,327.725 365.687,348.066 377.434,363.894 " fill="none" id="REST-sabr_pulsar_container" style="stroke: #A80036; stroke-width: 1.0;"/><polygon fill="#A80036" points="380.586,368.228,378.5256,358.5971,377.6444,364.1849,372.0566,363.3037,380.586,368.228" style="stroke: #A80036; stroke-width: 1.0;"/><!--link socket to sabr_pulsar_container--><path d="M317.012,202.328 C332.197,239.375 366.509,323.087 383.128,363.635 " fill="none" id="socket-sabr_pulsar_container" style="stroke: #A80036; stroke-width: 1.0;"/><polygon fill="#A80036" points="385.065,368.36,385.3518,358.5153,383.1682,363.7337,377.9498,361.5502,385.065,368.36" style="stroke: #A80036; stroke-width: 1.0;"/><!--link REST to sabr_doc_container--><path d="M195.159,300.324 C201.019,305.209 207.149,310.628 212.5,316 C227.502,331.061 242.705,349.692 253.781,364.019 " fill="none" id="REST-sabr_doc_container" style="stroke: #A80036; stroke-width: 1.0;"/><polygon fill="#A80036" points="257.08,368.318,254.7726,358.7432,254.0354,364.3519,248.4268,363.6146,257.08,368.318" style="stroke: #A80036; stroke-width: 1.0;"/><!--link socket to sabr_doc_container--><path d="M305.97,202.328 C298.864,239.225 282.844,322.407 274.999,363.138 " fill="none" id="socket-sabr_doc_container" style="stroke: #A80036; stroke-width: 1.0;"/><polygon fill="#A80036" points="273.994,368.36,279.624,360.279,274.9397,363.4502,271.7684,358.7659,273.994,368.36" style="stroke: #A80036; stroke-width: 1.0;"/><!--link sabrimage to ailtireswarm--><path d="M120.834,549.901 C125.147,564.136 129.892,579.793 133.518,591.7594 " fill="none" id="sabrimage-ailtireswarm" style="stroke: #A80036; stroke-width: 1.0;"/><polygon fill="none" points="114.104,551.829,115.002,530.658,127.502,547.769,114.104,551.829" style="stroke: #A80036; stroke-width: 1.0;"/><!--link sabr_container to sabrimage--><path d="M133.697,415.273 C128.209,436.871 120.571,466.931 115.353,487.465 " fill="none" id="sabr_container-sabrimage" style="stroke: #A80036; stroke-width: 1.0;"/><polygon fill="#A80036" points="114.082,492.469,120.1755,484.7314,115.3135,487.623,112.4219,482.7611,114.082,492.469" style="stroke: #A80036; stroke-width: 1.0;"/><!--link sabr_pulsar_container to sabr_pulsar_standalone--><path d="M391.024,406.502 C389.307,427.453 386.461,462.173 384.535,485.676 " fill="none" id="sabr_pulsar_container-sabr_pulsar_standalone" style="stroke: #A80036; stroke-width: 1.0;"/><polygon fill="#A80036" points="384.114,490.805,388.8361,482.162,384.5226,485.8217,380.8629,481.5082,384.114,490.805" style="stroke: #A80036; stroke-width: 1.0;"/><!--link sabr_doc_container to sabr_doc--><path d="M262.089,406.502 C252.218,427.629 235.806,462.758 224.822,486.266 " fill="none" id="sabr_doc_container-sabr_doc" style="stroke: #A80036; stroke-width: 1.0;"/><polygon fill="#A80036" points="222.702,490.805,230.1347,484.3432,224.8178,486.2747,222.8863,480.9579,222.702,490.805" style="stroke: #A80036; stroke-width: 1.0;"/><!--link CLI to binName--><path d="M171.5,47.098 C171.5,69.432 171.5,132.318 171.5,163.705 " fill="none" id="CLI-binName" style="stroke: #A80036; stroke-width: 1.0;"/><text fill="#000000" font-family="sans-serif" font-size="13" lengthAdjust="spacingAndGlyphs" textLength="25" x="129.4625" y="46.0898">sabr</text><!--link Web to REST--><path d="M29.6426,281 C65.384,281 101.1254,281 136.867,281 " fill="none" id="Web-REST" style="stroke: #A80036; stroke-width: 1.0;"/><text fill="#000000" font-family="sans-serif" font-size="13" lengthAdjust="spacingAndGlyphs" textLength="29" x="37.4742" y="275.9033">/sabr</text><!--link WebSocket to socket--><path d="M309.5,47.098 C309.5,69.432 309.5,132.318 309.5,163.705 " fill="none" id="WebSocket-socket" style="stroke: #A80036; stroke-width: 1.0;"/><text fill="#000000" font-family="sans-serif" font-size="13" lengthAdjust="spacingAndGlyphs" textLength="29" x="263.4625" y="46.0898">.sabr</text><!--
@startuml
  interface CLI
  interface Web
  interface WebSocket
package "Sentient Agent Bundle Resources" #bbaaff {
  component express as REST
  component socket.io as socket
  folder bin #ffffff {
    component " sabr" as binName
  }
  binName - -> REST

  folder deploy #ffffff {
      file "node server.js\n" as sabr_container
      REST - -> sabr_container

  
    file "sabr_pulsar" as sabr_pulsar_container
    REST - -> sabr_pulsar_container
    socket - - -> sabr_pulsar_container
  
    file "sabr_doc" as sabr_doc_container
    REST - -> sabr_doc_container
    socket - - -> sabr_doc_container
  
  }
  folder images #ffffff {
    collections "sabr" as sabrimage
    artifact "ailtire:swarm" as ailtireswarm
    sabrimage <|- - ailtireswarm
    sabr_container - -> sabrimage

  
      artifact "sabr_pulsar:standalone" as sabr_pulsar_standalone
      sabr_pulsar_container - -> sabr_pulsar_standalone
    
      artifact "sabr_doc" as sabr_doc
      sabr_doc_container - -> sabr_doc
    
  }
}
CLI " sabr" - - binName
Web "/sabr" - REST
WebSocket ".sabr" - - socket

@enduml

PlantUML version 1.2019.05(Sat Apr 20 09:45:36 PDT 2019)
(GPL source distribution)
Java Runtime: Java(TM) SE Runtime Environment
JVM: Java HotSpot(TM) Client VM
Java Version: 1.8.0_271-b09
Operating System: Windows 10
OS Version: 10.0
Default Encoding: Cp1252
Language: en
Country: US
--></g></svg>