<?xml version="1.0" encoding="us-ascii" standalone="no"?><svg xmlns="http://www.w3.org/2000/svg" xmlns:xlink="http://www.w3.org/1999/xlink" contentStyleType="text/css" height="674px" preserveAspectRatio="none" style="width:794px;height:674px;background:#FFFFFF;" version="1.1" viewBox="0 0 794 674" width="794px" zoomAndPan="magnify"><defs/><g><!--cluster SABR1--><g id="cluster_SABR1"><rect fill="none" height="543" rx="2.5" ry="2.5" style="stroke:none;stroke-width:1.0;" width="269" x="211.5" y="7"/><path d="M196.5,7 L209,7 A2.5,2.5 0 0 1 211.5,9.5 L211.5,547.5 A2.5,2.5 0 0 0 214,550 L478,550 A2.5,2.5 0 0 0 480.5,547.5 L480.5,9.5 A2.5,2.5 0 0 1 483,7 L495.5,7 " fill="none" style="stroke:#181818;stroke-width:1.0;"/><text fill="#000000" font-family="sans-serif" font-size="14" font-weight="bold" lengthAdjust="spacing" textLength="46" x="323" y="34.5332">SABR1</text><text fill="#000000" font-family="sans-serif" font-size="14" font-weight="bold" lengthAdjust="spacing" textLength="102" x="295" y="52.1426">(Docker Stack)</text></g><!--cluster SM--><g id="cluster_SM"><rect fill="none" height="108" rx="2.5" ry="2.5" style="stroke:#181818;stroke-width:1.0;" width="227" x="236.5" y="214"/><path d="M308.5,214 L308.5,242.2188 L298.5,252.2188 L236.5,252.2188 " fill="none" style="stroke:#181818;stroke-width:1.0;"/><text fill="#000000" font-family="sans-serif" font-size="14" font-weight="bold" lengthAdjust="spacing" textLength="49" x="246" y="229.5332">Stream</text><text fill="#000000" font-family="sans-serif" font-size="14" font-weight="bold" lengthAdjust="spacing" textLength="62" x="239.5" y="247.1426">Manager</text></g><!--cluster MB--><g id="cluster_MB"><rect fill="none" height="271" rx="2.5" ry="2.5" style="stroke:none;stroke-width:1.0;" width="222" x="550.5" y="396"/><path d="M535.5,396 L548,396 A2.5,2.5 0 0 1 550.5,398.5 L550.5,664.5 A2.5,2.5 0 0 0 553,667 L770,667 A2.5,2.5 0 0 0 772.5,664.5 L772.5,398.5 A2.5,2.5 0 0 1 775,396 L787.5,396 " fill="none" style="stroke:#181818;stroke-width:1.0;"/><text fill="#000000" font-family="sans-serif" font-size="14" font-weight="bold" lengthAdjust="spacing" textLength="100" x="611.5" y="423.5332">Apache Pulsar</text><text fill="#000000" font-family="sans-serif" font-size="14" font-weight="bold" lengthAdjust="spacing" textLength="119" x="602" y="441.1426">[$PULSAR_HOST]</text><text fill="#000000" font-family="sans-serif" font-size="14" font-weight="bold" lengthAdjust="spacing" textLength="65" x="629" y="458.752">(Sigma X)</text></g><!--entity TS--><g id="elem_TS"><rect fill="#F1F1F1" height="65.2188" rx="2.5" ry="2.5" style="stroke:#181818;stroke-width:0.5;" width="136" x="270.5" y="69"/><path d="M315.8333,69 L315.8333,74 L308.8333,81 L270.5,81 " fill="none" style="stroke:#181818;stroke-width:0.5;"/><text fill="#000000" font-family="sans-serif" font-size="14" lengthAdjust="spacing" textLength="96" x="285.5" y="103.5332">Transformation</text><text fill="#000000" font-family="sans-serif" font-size="14" lengthAdjust="spacing" textLength="47" x="285.5" y="121.1426">Service</text></g><!--entity AS--><g id="elem_AS"><path d="M232.5,472 C232.5,462 291.5,462 291.5,462 C291.5,462 350.5,462 350.5,472 L350.5,516.2188 C350.5,526.2188 291.5,526.2188 291.5,526.2188 C291.5,526.2188 232.5,526.2188 232.5,516.2188 L232.5,472 " fill="#F1F1F1" style="stroke:#181818;stroke-width:0.5;"/><path d="M232.5,472 C232.5,482 291.5,482 291.5,482 C291.5,482 350.5,482 350.5,472 " fill="none" style="stroke:#181818;stroke-width:0.5;"/><text fill="#000000" font-family="sans-serif" font-size="14" lengthAdjust="spacing" textLength="98" x="242.5" y="500.5332">Temporal Store</text><text fill="#000000" font-family="sans-serif" font-size="14" lengthAdjust="spacing" textLength="65" x="242.5" y="518.1426">AeroSpike</text></g><!--entity C--><g id="elem_C"><rect fill="#F1F1F1" height="33.6094" rx="2.5" ry="2.5" style="stroke:#181818;stroke-width:0.5;" width="78" x="369.5" y="272"/><rect fill="#F1F1F1" height="33.6094" rx="2.5" ry="2.5" style="stroke:#181818;stroke-width:0.5;" width="78" x="365.5" y="268"/><text fill="#000000" font-family="sans-serif" font-size="14" lengthAdjust="spacing" textLength="62" x="373.5" y="290.5332">consumer</text></g><!--entity P--><g id="elem_P"><rect fill="#F1F1F1" height="33.6094" rx="2.5" ry="2.5" style="stroke:#181818;stroke-width:0.5;" width="73" x="257" y="272"/><rect fill="#F1F1F1" height="33.6094" rx="2.5" ry="2.5" style="stroke:#181818;stroke-width:0.5;" width="73" x="253" y="268"/><text fill="#000000" font-family="sans-serif" font-size="14" lengthAdjust="spacing" textLength="57" x="261" y="290.5332">producer</text></g><!--entity Zookeeper--><g id="elem_Zookeeper"><rect fill="#F1F1F1" height="33.6094" rx="2.5" ry="2.5" style="stroke:#181818;stroke-width:0.5;" width="84" x="582.5" y="479"/><rect fill="#F1F1F1" height="33.6094" rx="2.5" ry="2.5" style="stroke:#181818;stroke-width:0.5;" width="84" x="578.5" y="475"/><text fill="#000000" font-family="sans-serif" font-size="14" lengthAdjust="spacing" textLength="68" x="586.5" y="497.5332">Zookeeper</text></g><!--entity Broker--><g id="elem_Broker"><rect fill="#F1F1F1" height="33.6094" rx="2.5" ry="2.5" style="stroke:#181818;stroke-width:0.5;" width="58" x="705.5" y="479"/><rect fill="#F1F1F1" height="33.6094" rx="2.5" ry="2.5" style="stroke:#181818;stroke-width:0.5;" width="58" x="701.5" y="475"/><text fill="#000000" font-family="sans-serif" font-size="14" lengthAdjust="spacing" textLength="42" x="709.5" y="497.5332">Broker</text></g><!--entity Bookie--><g id="elem_Bookie"><rect fill="#F1F1F1" height="33.6094" rx="2.5" ry="2.5" style="stroke:#181818;stroke-width:0.5;" width="59" x="595" y="609"/><rect fill="#F1F1F1" height="33.6094" rx="2.5" ry="2.5" style="stroke:#181818;stroke-width:0.5;" width="59" x="591" y="605"/><text fill="#000000" font-family="sans-serif" font-size="14" lengthAdjust="spacing" textLength="43" x="599" y="627.5332">Bookie</text></g><!--entity admin--><g id="elem_admin"><rect fill="#F1F1F1" height="47.6094" rx="2.5" ry="2.5" style="stroke:#181818;stroke-width:0.5;" width="115" x="7" y="77.5"/><rect fill="#F1F1F1" height="10" style="stroke:#181818;stroke-width:0.5;" width="15" x="102" y="82.5"/><rect fill="#F1F1F1" height="2" style="stroke:#181818;stroke-width:0.5;" width="4" x="100" y="84.5"/><rect fill="#F1F1F1" height="2" style="stroke:#181818;stroke-width:0.5;" width="4" x="100" y="88.5"/><text fill="#000000" font-family="sans-serif" font-size="14" lengthAdjust="spacing" textLength="75" x="22" y="112.0332">SABRadmin</text></g><!--link admin to SABR1--><g id="link_admin_SABR1"><path d="M122.25,101.5 C140.33,101.5 159.5325,101.5 174.8325,101.5 C182.4825,101.5 189.1569,101.5 194.2275,101.5 C194.8613,101.5 195.4701,101.5 196.0526,101.5 C196.1982,101.5 190.3422,101.5 190.4845,101.5 " fill="none" id="admin-to-SABR1" style="stroke:#181818;stroke-width:1.0;stroke-dasharray:7.0,7.0;"/><polygon fill="#181818" points="196.4845,101.5,187.4845,97.5,191.4845,101.5,187.4845,105.5,196.4845,101.5" style="stroke:#181818;stroke-width:1.0;"/><text fill="#000000" font-family="sans-serif" font-size="13" lengthAdjust="spacing" textLength="38" x="144.07" y="78.9951">deploy</text><text fill="#000000" font-family="sans-serif" font-size="13" lengthAdjust="spacing" textLength="46" x="140.07" y="95.3467">manage</text></g><!--link TS to P--><g id="link_TS_P"><path d="M325.56,134.09 C321.97,143.6 318.3,154.13 315.5,164 C305.26,200.14 298.7588,237.5792 295.0688,261.6592 " fill="none" id="TS-to-P" style="stroke:#181818;stroke-width:1.0;"/><polygon fill="#181818" points="294.16,267.59,299.4771,259.2997,294.9174,262.6477,291.5694,258.088,294.16,267.59" style="stroke:#181818;stroke-width:1.0;"/><text fill="#000000" font-family="sans-serif" font-size="13" lengthAdjust="spacing" textLength="28" x="320.5" y="178.4951">send</text><text fill="#000000" font-family="sans-serif" font-size="13" lengthAdjust="spacing" textLength="36" x="316.5" y="194.8467">[3100]</text></g><!--link P to AS--><g id="link_P_AS"><path d="M290.16,306.04 C289.51,315.54 288.82,327.4 288.5,338 C287.21,380.91 288.441,424.5252 289.741,455.8252 " fill="none" id="P-to-AS" style="stroke:#181818;stroke-width:1.0;"/><polygon fill="#181818" points="289.99,461.82,293.6131,452.6618,289.7825,456.8243,285.62,452.9937,289.99,461.82" style="stroke:#181818;stroke-width:1.0;"/><text fill="#000000" font-family="sans-serif" font-size="13" lengthAdjust="spacing" textLength="86" x="289.5" y="352.4951">saveMessages</text><text fill="#000000" font-family="sans-serif" font-size="13" lengthAdjust="spacing" textLength="68" x="298.5" y="368.8467">[3000-3002]</text></g><!--link P to MB--><g id="link_P_MB"><path d="M311.89,306.07 C322.24,314.42 335.38,323.82 348.5,330 C361.76,336.24 367.85,330.58 380.5,338 C398.4,348.5 393.91,362.77 412.5,372 C442.52,386.91 459.99,360.84 487.5,380 C510.135,395.77 524.055,423.39 532.355,447.375 C533.3925,450.3731 534.3422,453.3145 535.2101,456.1687 C535.2644,456.3471 533.5854,450.7809 533.639,450.9586 " fill="none" id="P-to-MB" style="stroke:#181818;stroke-width:1.0;"/><polygon fill="#181818" points="535.3719,456.7029,536.6021,446.9312,533.9278,451.916,528.943,449.2417,535.3719,456.7029" style="stroke:#181818;stroke-width:1.0;"/><text fill="#000000" font-family="sans-serif" font-size="13" lengthAdjust="spacing" textLength="81" x="413.5" y="352.4951">sendMessage</text><text fill="#000000" font-family="sans-serif" font-size="13" lengthAdjust="spacing" textLength="36" x="436" y="368.8467">[6650]</text></g><!--link MB to C--><g id="link_MB_C"><path d="M535.3902,410.2732 C533.4678,401.854 531.1041,393.2977 528.2,384.8709 C522.3919,368.0175 514.4225,351.6825 503.5,338 C489.32,320.23 472.6905,310.3693 453.1005,302.5293 " fill="none" id="MB-to-C" style="stroke:#181818;stroke-width:1.0;"/><polygon fill="#181818" points="447.53,300.3,454.3995,307.3576,452.1721,302.1578,457.3719,299.9303,447.53,300.3" style="stroke:#181818;stroke-width:1.0;"/><text fill="#000000" font-family="sans-serif" font-size="13" lengthAdjust="spacing" textLength="93" x="523.5" y="352.4951">receiveMessage</text><text fill="#000000" font-family="sans-serif" font-size="13" lengthAdjust="spacing" textLength="36" x="552" y="368.8467">[6650]</text></g><!--link C to TS--><g id="link_C_TS"><path d="M399.71,267.69 C388.14,236.46 366.5551,178.196 352.2751,139.666 " fill="none" id="C-to-TS" style="stroke:#181818;stroke-width:1.0;"/><polygon fill="#181818" points="350.19,134.04,349.567,143.8691,351.9276,138.7284,357.0684,141.089,350.19,134.04" style="stroke:#181818;stroke-width:1.0;"/><text fill="#000000" font-family="sans-serif" font-size="13" lengthAdjust="spacing" textLength="40" x="373.5" y="178.4951">receive</text><text fill="#000000" font-family="sans-serif" font-size="13" lengthAdjust="spacing" textLength="36" x="375.5" y="194.8467">[3101]</text></g><!--SRC=[RP5HIyCm58NVyoj24TI7RftY7lOmwEQ33nRBKa6qGwxftLRM92Nf1YBxxzwqtHouG4Euvyl9kRVNcwQftMGuh2lGpKvL0sdKaBxQQDHDM9Imjg0OEvMuY6SBA5IfEJZU7fXhG6vvu9LHhcyUZToYvS9NRmEFjGh_OPpMYloG1va5xLR6AcXAetCjqEvBYIsUYNDID1P1vJe13MkqdM7Ik_abJLMXz3QEpjhj5BrEqFmYKLjJx6H7f2rnQFS26lW2vwCXzMgXeWwCnLp7Q8seosqNBXRim8ujnpN83V9qLpcmkVwuIb-VHRpuV7eHsP968Sgr0lxMJI6PzQ7FumJlncmHQshilpQpf5qKw5A9WK_I_Ol1j1_oX1TOL-OxrwgT5yi43yCfJqbng0iAUJ-AeYLBst8iV1tscA1pX3klHr4KqdPtX2XuTxc7Y1cF7yY31A_FIROeiJpPd8Xv2sJYZ-W2Z9Ri5m00]--></g></svg>