<?xml version="1.0" encoding="UTF-8" standalone="no"?><svg xmlns="http://www.w3.org/2000/svg" xmlns:xlink="http://www.w3.org/1999/xlink" contentScriptType="application/ecmascript" contentStyleType="text/css" height="348px" preserveAspectRatio="none" style="width:298px;height:348px;" version="1.1" viewBox="0 0 298 348" width="298px" zoomAndPan="magnify"><defs><filter height="300%" id="fj81hiucbd0ma" width="300%" x="-1" y="-1"><feGaussianBlur result="blurOut" stdDeviation="2.0"/><feColorMatrix in="blurOut" result="blurOut2" type="matrix" values="0 0 0 0 0 0 0 0 0 0 0 0 0 0 0 0 0 0 .4 0"/><feOffset dx="4.0" dy="4.0" in="blurOut2" result="blurOut3"/><feBlend in="SourceGraphic" in2="blurOut3" mode="normal"/></filter></defs><g><!--cluster Sentient Agent Bundle Resources--><polygon fill="#BBAAFF" filter="url(#fj81hiucbd0ma)" points="22,42,266,42,273,65.6094,276,65.6094,276,336,22,336,22,42" style="stroke: #000000; stroke-width: 1.5;"/><line style="stroke: #000000; stroke-width: 1.5;" x1="22" x2="273" y1="65.6094" y2="65.6094"/><text fill="#000000" font-family="sans-serif" font-size="14" font-weight="bold" lengthAdjust="spacingAndGlyphs" textLength="238" x="26" y="58.5332">Sentient Agent Bundle Resources</text><!--class i--><rect fill="#FEFECE" filter="url(#fj81hiucbd0ma)" height="241.7031" id="i" style="stroke: #A80036; stroke-width: 1.5;" width="216" x="41" y="78"/><ellipse cx="56" cy="94" fill="#B4A7E5" rx="11" ry="11" style="stroke: #A80036; stroke-width: 1.0;"/><path d="M56.9531,90.6406 L56.9531,97.2969 L58.6719,97.2969 Q59.2813,97.2969 59.5469,97.5313 Q59.8125,97.7656 59.8125,98.1563 Q59.8125,98.5313 59.5469,98.7656 Q59.2813,99 58.6719,99 L53.5313,99 Q52.9219,99 52.6563,98.7656 Q52.3906,98.5313 52.3906,98.1406 Q52.3906,97.7656 52.6563,97.5313 Q52.9219,97.2969 53.5313,97.2969 L55.25,97.2969 L55.25,90.6406 L53.5313,90.6406 Q52.9219,90.6406 52.6563,90.4063 Q52.3906,90.1719 52.3906,89.7813 Q52.3906,89.4063 52.6563,89.1719 Q52.9219,88.9375 53.5313,88.9375 L58.6719,88.9375 Q59.2813,88.9375 59.5469,89.1719 Q59.8125,89.4063 59.8125,89.7813 Q59.8125,90.1719 59.5469,90.4063 Q59.2813,90.6406 58.6719,90.6406 L56.9531,90.6406 Z "/><text fill="#000000" font-family="sans-serif" font-size="12" font-style="italic" lengthAdjust="spacingAndGlyphs" textLength="184" x="70" y="98.9102">Sentient Agent Bundle Resources</text><line style="stroke: #A80036; stroke-width: 1.5;" x1="42" x2="256" y1="110" y2="110"/><line style="stroke: #A80036; stroke-width: 1.5;" x1="42" x2="256" y1="118" y2="118"/><text fill="#000000" font-family="sans-serif" font-size="11" lengthAdjust="spacingAndGlyphs" textLength="138" x="47" y="133.4189">/sabr/streampolicy activate()</text><text fill="#000000" font-family="sans-serif" font-size="11" lengthAdjust="spacingAndGlyphs" textLength="131" x="47" y="147.2549">/sabr/streampolicy create()</text><text fill="#000000" font-family="sans-serif" font-size="11" lengthAdjust="spacingAndGlyphs" textLength="150" x="47" y="161.0908">/sabr/streampolicy deactivate()</text><text fill="#000000" font-family="sans-serif" font-size="11" lengthAdjust="spacingAndGlyphs" textLength="133" x="47" y="174.9268">/sabr/streampolicy update()</text><text fill="#000000" font-family="sans-serif" font-size="11" lengthAdjust="spacingAndGlyphs" textLength="121" x="47" y="188.7627">/sabr/application/create()</text><text fill="#000000" font-family="sans-serif" font-size="11" lengthAdjust="spacingAndGlyphs" textLength="93" x="47" y="202.5986">/sabr/bundle/build()</text><text fill="#000000" font-family="sans-serif" font-size="11" lengthAdjust="spacingAndGlyphs" textLength="102" x="47" y="216.4346">/sabr/bundle/create()</text><text fill="#000000" font-family="sans-serif" font-size="11" lengthAdjust="spacingAndGlyphs" textLength="115" x="47" y="230.2705">/sabr/capability/create()</text><text fill="#000000" font-family="sans-serif" font-size="11" lengthAdjust="spacingAndGlyphs" textLength="129" x="47" y="244.1064">/sabr/environment/create()</text><text fill="#000000" font-family="sans-serif" font-size="11" lengthAdjust="spacingAndGlyphs" textLength="108" x="47" y="257.9424">/sabr/pulsar/streams()</text><text fill="#000000" font-family="sans-serif" font-size="11" lengthAdjust="spacingAndGlyphs" textLength="92" x="47" y="271.7783">/sabr/pulsar/topic()</text><text fill="#000000" font-family="sans-serif" font-size="11" lengthAdjust="spacingAndGlyphs" textLength="98" x="47" y="285.6143">/sabr/pulsar/topics()</text><text fill="#000000" font-family="sans-serif" font-size="11" lengthAdjust="spacingAndGlyphs" textLength="105" x="47" y="299.4502">/sabr/sabundle/build()</text><text fill="#000000" font-family="sans-serif" font-size="11" lengthAdjust="spacingAndGlyphs" textLength="131" x="47" y="313.2861">/sabr/streampolicy/create()</text><ellipse cx="104" cy="13" fill="#FEFECE" filter="url(#fj81hiucbd0ma)" rx="5" ry="5" style="stroke: #A80036; stroke-width: 1.5;"/><text fill="#000000" font-family="sans-serif" font-size="12" lengthAdjust="spacingAndGlyphs" textLength="19" x="94.5" y="30.457">CLI</text><ellipse cx="149" cy="13" fill="#FEFECE" filter="url(#fj81hiucbd0ma)" rx="5" ry="5" style="stroke: #A80036; stroke-width: 1.5;"/><text fill="#000000" font-family="sans-serif" font-size="12" lengthAdjust="spacingAndGlyphs" textLength="32" x="133" y="30.457">REST</text><ellipse cx="194" cy="13" fill="#FEFECE" filter="url(#fj81hiucbd0ma)" rx="5" ry="5" style="stroke: #A80036; stroke-width: 1.5;"/><text fill="#000000" font-family="sans-serif" font-size="12" lengthAdjust="spacingAndGlyphs" textLength="25" x="181.5" y="30.457">Web</text><!--link ilol4266 to i--><path d="M105.0244,18.189 C107.275,27.39 112.976,50.701 119.555,77.604 " fill="none" id="ilol4266-i" style="stroke: #A80036; stroke-width: 1.0;"/><!--link ilol4269 to i--><path d="M149,18.189 C149,27.39 149,50.701 149,77.604 " fill="none" id="ilol4269-i" style="stroke: #A80036; stroke-width: 1.0;"/><!--link ilol4272 to i--><path d="M192.976,18.189 C190.725,27.39 185.024,50.701 178.445,77.604 " fill="none" id="ilol4272-i" style="stroke: #A80036; stroke-width: 1.0;"/><!--
@startuml



package "Sentient Agent Bundle Resources" #bbaaff {

    interface "Sentient Agent Bundle Resources" as i {
            /sabr/streampolicy activate()
            /sabr/streampolicy create()
            /sabr/streampolicy deactivate()
            /sabr/streampolicy update()
            /sabr/application/create()
            /sabr/bundle/build()
            /sabr/bundle/create()
            /sabr/capability/create()
            /sabr/environment/create()
            /sabr/pulsar/streams()
            /sabr/pulsar/topic()
            /sabr/pulsar/topics()
            /sabr/sabundle/build()
            /sabr/streampolicy/create()
    
    }
}

CLI ()- - i
REST ()- - i
Web ()- - i

package "Sentient Agent Bundle Resources" #bbaaff {
    
}



@enduml

PlantUML version 1.2019.05(Sat Apr 20 09:45:36 PDT 2019)
(GPL source distribution)
Java Runtime: Java(TM) SE Runtime Environment
JVM: Java HotSpot(TM) Client VM
Java Version: 1.8.0_271-b09
Operating System: Windows 10
OS Version: 10.0
Default Encoding: Cp1252
Language: en
Country: US
--></g></svg>