<?xml version="1.0" encoding="us-ascii" standalone="no"?><svg xmlns="http://www.w3.org/2000/svg" xmlns:xlink="http://www.w3.org/1999/xlink" contentStyleType="text/css" height="394px" preserveAspectRatio="none" style="width:1236px;height:394px;background:#FFFFFF;" version="1.1" viewBox="0 0 1236 394" width="1236px" zoomAndPan="magnify"><defs/><g><!--cluster Private/Public Cloud--><g id="cluster_Private/Public Cloud"><path d="M36.7179,81.9742 C45.2981,70.7121 53.283,71.1758 60.1217,83.6885 C67.5212,71.4863 79.1579,74.3446 85.3482,85.0217 C93.7902,72.0165 103.2183,71.4231 112.136,84.5337 C118.1725,69.4423 129.4255,70.1894 139.2367,80.5079 C147.9234,70.9252 155.4105,71.0593 161.4033,83.2504 C167.2381,68.5376 177.026,70.028 186.3991,79.61 C195.5324,66.0914 207.8317,65.8525 214.6027,81.866 C222.4932,70.6028 229.8647,67.1054 239.5771,79.981 C248.0993,70.4244 257.0477,70.8155 262.4115,83.2592 C271.6088,69.4166 281.1223,69.5467 290.4307,83.1458 C298.0042,70.5113 305.7633,71.8599 314.451,81.9691 C323.3257,68.9876 334.0077,72.9788 339.9788,84.9408 C346.1701,74.178 356.53,74.0182 363.4229,84.1537 C376.0178,72.7663 386.5848,70.3575 395.2778,88.38 C396.3457,87.7999 397.1579,88.5654 397.1193,89.6237 C413.16,96.3776 413.9822,107.9525 399.7578,117.5644 C414.3689,122.052 414.2651,134.5252 404.7761,143.6493 C418.1537,152.1841 420.002,165.5965 404.784,174.1387 C417.9809,179.5069 419.52,187.8687 409.6329,197.9398 C424.0553,205.8533 425.2306,216.8549 412.0682,227.0741 C421.6713,237.73 421.6591,246.4783 407.0156,252.2725 C421.6584,261.8966 419.2046,275.1144 403.3001,280.7535 C415.7779,290.3127 415.5235,301.1031 401.7977,309.2823 C412.6613,316.3873 412.1092,327.6186 399.9917,332.9716 C413.3532,350.1311 408.503,360.997 388.2778,366.38 C390.0211,366.2433 390.669,367.0978 389.9771,368.7255 C382.1026,380.009 373.7622,378.3259 366.8757,367.6845 C361.2541,379.976 350.0755,382.9059 340.5649,372.1179 C334.0581,383.0358 322.885,382.7174 316.0099,372.5468 C306.2707,383.4279 297.095,382.9797 288.6153,371.0353 C282.719,384.3841 275.3028,385.4567 265.8874,374.2989 C257.985,384.5742 248.2577,385.1704 241.1454,373.4117 C232.0202,384.8404 224.2811,383.615 215.3554,373.1764 C208.9615,386.8051 194.7291,387.3101 186.3805,375.3935 C177.1812,385.3355 168.7603,386.1551 162.055,372.7905 C155.1686,384.4944 145.8558,381.861 139.9768,371.77 C131.4186,384.3499 123.1077,382.8658 114.3896,371.944 C106.2977,381.66 94.8706,382.1765 89.6188,368.8861 C82.4246,380.6607 74.0083,381.8323 64.2144,371.9332 C49.6671,383.5681 31.4225,378.3538 27.2778,359.38 C29.1727,359.699 29.205,360.9822 28.3305,362.2997 C18.1992,354.7575 17.5585,342.5739 29.9326,336.4251 C16.8313,329.7357 14.9982,316.9205 26.5496,307.3615 C14.2898,297.4379 11.5402,287.9753 26.8015,278.2902 C14.0196,271.8156 13.6432,264.6998 24.2666,255.6094 C7.105,246.1973 6.9876,236.955 21.9681,225.1199 C8.4508,218.0094 7.8911,209.27 20.6507,200.7396 C6,189.7323 10.961,176.7068 25.0664,169.804 C14.1351,162.4821 14.5314,151.0467 27.81,146.5856 C14.2819,136.8941 14.8502,127.372 27.5318,117.4304 C10.7926,104.9678 17.6591,87.6005 34.2778,81.38 C35.1875,80.3825 36.4025,80.5305 36.7179,81.9742 " fill="#CCFFFF" style="stroke:#181818;stroke-width:1.0;"/><text fill="#000000" font-family="sans-serif" font-size="14" font-weight="bold" lengthAdjust="spacing" textLength="142" x="140.2778" y="100.9132">Private/Public Cloud</text></g><!--cluster Aggregated Edge Node 1--><g id="cluster_Aggregated Edge Node 1"><polygon fill="#ADD8E6" points="427.2778,186.38,437.2778,176.38,811.2778,176.38,811.2778,364.38,801.2778,374.38,427.2778,374.38,427.2778,186.38" style="stroke:#181818;stroke-width:1.0;"/><line style="stroke:#181818;stroke-width:1.0;" x1="801.2778" x2="811.2778" y1="186.38" y2="176.38"/><line style="stroke:#181818;stroke-width:1.0;" x1="427.2778" x2="801.2778" y1="186.38" y2="186.38"/><line style="stroke:#181818;stroke-width:1.0;" x1="801.2778" x2="801.2778" y1="186.38" y2="374.38"/><text fill="#000000" font-family="sans-serif" font-size="14" font-weight="bold" lengthAdjust="spacing" textLength="175" x="527.7778" y="203.9132">Aggregated Edge Node 1</text></g><!--cluster Edge Node 1--><g id="cluster_Edge Node 1"><polygon fill="#B0C4DE" points="835.2778,289.38,845.2778,279.38,1219.2778,279.38,1219.2778,364.38,1209.2778,374.38,835.2778,374.38,835.2778,289.38" style="stroke:#181818;stroke-width:1.0;"/><line style="stroke:#181818;stroke-width:1.0;" x1="1209.2778" x2="1219.2778" y1="289.38" y2="279.38"/><line style="stroke:#181818;stroke-width:1.0;" x1="835.2778" x2="1209.2778" y1="289.38" y2="289.38"/><line style="stroke:#181818;stroke-width:1.0;" x1="1209.2778" x2="1209.2778" y1="289.38" y2="374.38"/><text fill="#000000" font-family="sans-serif" font-size="14" font-weight="bold" lengthAdjust="spacing" textLength="89" x="978.7778" y="306.9132">Edge Node 1</text></g><!--entity WO--><g id="elem_WO"><rect fill="#F1F1F1" height="37.6094" rx="2.5" ry="2.5" style="stroke:#181818;stroke-width:0.5;" width="161" x="223.7778" y="109.38"/><text fill="#000000" font-family="sans-serif" font-size="14" lengthAdjust="spacing" textLength="141" x="233.7778" y="133.9132">Workflow Orchestrator</text></g><!--entity CO--><g id="elem_CO"><rect fill="#F1F1F1" height="37.6094" rx="2.5" ry="2.5" style="stroke:#181818;stroke-width:0.5;" width="166" x="174.2778" y="217.38"/><text fill="#000000" font-family="sans-serif" font-size="14" lengthAdjust="spacing" textLength="146" x="184.2778" y="241.9132">Container Orchestrator</text></g><!--entity C1--><g id="elem_C1"><rect fill="#FFFFFF" height="37.6094" rx="2.5" ry="2.5" style="stroke:#181818;stroke-width:0.5;" width="94" x="35.2778" y="320.38"/><text fill="#000000" font-family="sans-serif" font-size="14" lengthAdjust="spacing" textLength="74" x="45.2778" y="344.9132">Container 1</text></g><!--entity Cr--><g id="elem_Cr"><rect fill="#FFFFFF" height="37.6094" rx="2.5" ry="2.5" style="stroke:#181818;stroke-width:0.5;" width="94" x="164.2778" y="320.38"/><text fill="#000000" font-family="sans-serif" font-size="14" lengthAdjust="spacing" textLength="74" x="174.2778" y="344.9132">Container 2</text></g><!--entity Cn--><g id="elem_Cn"><rect fill="#FFFFFF" height="37.6094" rx="2.5" ry="2.5" style="stroke:#181818;stroke-width:0.5;" width="94" x="293.2778" y="320.38"/><text fill="#000000" font-family="sans-serif" font-size="14" lengthAdjust="spacing" textLength="74" x="303.2778" y="344.9132">Container n</text></g><!--entity AENCO--><g id="elem_AENCO"><rect fill="#F1F1F1" height="37.6094" rx="2.5" ry="2.5" style="stroke:#181818;stroke-width:0.5;" width="166" x="629.2778" y="217.38"/><text fill="#000000" font-family="sans-serif" font-size="14" lengthAdjust="spacing" textLength="146" x="639.2778" y="241.9132">Container Orchestrator</text></g><!--entity AENC1--><g id="elem_AENC1"><rect fill="#FFFFFF" height="37.6094" rx="2.5" ry="2.5" style="stroke:#181818;stroke-width:0.5;" width="94" x="443.2778" y="320.38"/><text fill="#000000" font-family="sans-serif" font-size="14" lengthAdjust="spacing" textLength="74" x="453.2778" y="344.9132">Container 1</text></g><!--entity AENCr--><g id="elem_AENCr"><rect fill="#FFFFFF" height="37.6094" rx="2.5" ry="2.5" style="stroke:#181818;stroke-width:0.5;" width="94" x="572.2778" y="320.38"/><text fill="#000000" font-family="sans-serif" font-size="14" lengthAdjust="spacing" textLength="74" x="582.2778" y="344.9132">Container 2</text></g><!--entity AENCn--><g id="elem_AENCn"><rect fill="#FFFFFF" height="37.6094" rx="2.5" ry="2.5" style="stroke:#181818;stroke-width:0.5;" width="94" x="701.2778" y="320.38"/><text fill="#000000" font-family="sans-serif" font-size="14" lengthAdjust="spacing" textLength="74" x="711.2778" y="344.9132">Container n</text></g><!--entity AEN2--><g id="elem_AEN2"><polygon fill="#ADD8E6" points="420.2778,114.38,430.2778,104.38,620.2778,104.38,620.2778,141.9894,610.2778,151.9894,420.2778,151.9894,420.2778,114.38" style="stroke:#181818;stroke-width:0.5;"/><line style="stroke:#181818;stroke-width:0.5;" x1="610.2778" x2="620.2778" y1="114.38" y2="104.38"/><line style="stroke:#181818;stroke-width:0.5;" x1="420.2778" x2="610.2778" y1="114.38" y2="114.38"/><line style="stroke:#181818;stroke-width:0.5;" x1="610.2778" x2="610.2778" y1="114.38" y2="151.9894"/><text fill="#000000" font-family="sans-serif" font-size="14" lengthAdjust="spacing" textLength="160" x="435.2778" y="138.9132">Aggregated Edge Node 2</text></g><!--entity AEN3--><g id="elem_AEN3"><polygon fill="#ADD8E6" points="655.2778,114.38,665.2778,104.38,855.2778,104.38,855.2778,141.9894,845.2778,151.9894,655.2778,151.9894,655.2778,114.38" style="stroke:#181818;stroke-width:0.5;"/><line style="stroke:#181818;stroke-width:0.5;" x1="845.2778" x2="855.2778" y1="114.38" y2="104.38"/><line style="stroke:#181818;stroke-width:0.5;" x1="655.2778" x2="845.2778" y1="114.38" y2="114.38"/><line style="stroke:#181818;stroke-width:0.5;" x1="845.2778" x2="845.2778" y1="114.38" y2="151.9894"/><text fill="#000000" font-family="sans-serif" font-size="14" lengthAdjust="spacing" textLength="160" x="670.2778" y="138.9132">Aggregated Edge Node n</text></g><!--entity ENC1--><g id="elem_ENC1"><rect fill="#FFFFFF" height="37.6094" rx="2.5" ry="2.5" style="stroke:#181818;stroke-width:0.5;" width="94" x="1109.2778" y="320.38"/><text fill="#000000" font-family="sans-serif" font-size="14" lengthAdjust="spacing" textLength="74" x="1119.2778" y="344.9132">Container 1</text></g><!--entity ENCr--><g id="elem_ENCr"><rect fill="#FFFFFF" height="37.6094" rx="2.5" ry="2.5" style="stroke:#181818;stroke-width:0.5;" width="94" x="980.2778" y="320.38"/><text fill="#000000" font-family="sans-serif" font-size="14" lengthAdjust="spacing" textLength="74" x="990.2778" y="344.9132">Container 2</text></g><!--entity ENCn--><g id="elem_ENCn"><rect fill="#FFFFFF" height="37.6094" rx="2.5" ry="2.5" style="stroke:#181818;stroke-width:0.5;" width="94" x="851.2778" y="320.38"/><text fill="#000000" font-family="sans-serif" font-size="14" lengthAdjust="spacing" textLength="74" x="861.2778" y="344.9132">Container n</text></g><!--entity EN2--><g id="elem_EN2"><polygon fill="#B0C4DE" points="830.2778,222.38,840.2778,212.38,952.2778,212.38,952.2778,249.9894,942.2778,259.9894,830.2778,259.9894,830.2778,222.38" style="stroke:#181818;stroke-width:0.5;"/><line style="stroke:#181818;stroke-width:0.5;" x1="942.2778" x2="952.2778" y1="222.38" y2="212.38"/><line style="stroke:#181818;stroke-width:0.5;" x1="830.2778" x2="942.2778" y1="222.38" y2="222.38"/><line style="stroke:#181818;stroke-width:0.5;" x1="942.2778" x2="942.2778" y1="222.38" y2="259.9894"/><text fill="#000000" font-family="sans-serif" font-size="14" lengthAdjust="spacing" textLength="82" x="845.2778" y="246.9132">Edge Node 2</text></g><!--entity ENn--><g id="elem_ENn"><polygon fill="#B0C4DE" points="987.2778,222.38,997.2778,212.38,1109.2778,212.38,1109.2778,249.9894,1099.2778,259.9894,987.2778,259.9894,987.2778,222.38" style="stroke:#181818;stroke-width:0.5;"/><line style="stroke:#181818;stroke-width:0.5;" x1="1099.2778" x2="1109.2778" y1="222.38" y2="212.38"/><line style="stroke:#181818;stroke-width:0.5;" x1="987.2778" x2="1099.2778" y1="222.38" y2="222.38"/><line style="stroke:#181818;stroke-width:0.5;" x1="1099.2778" x2="1099.2778" y1="222.38" y2="259.9894"/><text fill="#000000" font-family="sans-serif" font-size="14" lengthAdjust="spacing" textLength="82" x="1002.2778" y="246.9132">Edge Node n</text></g><!--link WO to CO--><g id="link_WO_CO"><path d="M296.0878,147.84 C287.4678,167.3 276.3891,192.2647 267.7991,211.6447 " fill="none" id="WO-to-CO" style="stroke:#181818;stroke-width:1.0;"/><polygon fill="#181818" points="265.3678,217.13,272.6716,210.5229,267.3939,212.5589,265.3579,207.2811,265.3678,217.13" style="stroke:#181818;stroke-width:1.0;"/></g><!--link CO to C1--><g id="link_CO_C1"><path d="M181.1278,255.41 C169.3578,259.74 157.6678,265.01 147.2778,271.38 C126.4178,284.17 111.2761,300.489 99.3161,315.569 " fill="none" id="CO-to-C1" style="stroke:#181818;stroke-width:1.0;"/><polygon fill="#181818" points="95.5878,320.27,104.3143,315.7041,98.6947,316.3525,98.0463,310.7329,95.5878,320.27" style="stroke:#181818;stroke-width:1.0;"/></g><!--link CO to Cr--><g id="link_CO_Cr"><path d="M249.0578,255.44 C240.7278,273.71 230.4239,296.3393 222.0739,314.6793 " fill="none" id="CO-to-Cr" style="stroke:#181818;stroke-width:1.0;"/><polygon fill="#181818" points="219.5878,320.14,226.9575,313.6065,221.6596,315.5894,219.6766,310.2915,219.5878,320.14" style="stroke:#181818;stroke-width:1.0;"/></g><!--link CO to Cn--><g id="link_CO_Cn"><path d="M272.1178,255.44 C287.1278,273.71 306.4086,297.1643 321.4786,315.5043 " fill="none" id="CO-to-Cn" style="stroke:#181818;stroke-width:1.0;"/><polygon fill="#181818" points="325.2878,320.14,322.6645,310.6469,322.1134,316.2769,316.4835,315.7259,325.2878,320.14" style="stroke:#181818;stroke-width:1.0;"/></g><!--link AENCO to AENC1--><g id="link_AENCO_AENC1"><path d="M629.1478,246.03 C604.2978,251.03 577.7078,258.92 555.2778,271.38 C533.7378,283.34 518.5166,299.957 506.7266,315.347 " fill="none" id="AENCO-to-AENC1" style="stroke:#181818;stroke-width:1.0;"/><polygon fill="#181818" points="503.0778,320.11,511.7263,315.3981,506.1185,316.1408,505.3757,310.533,503.0778,320.11" style="stroke:#181818;stroke-width:1.0;"/></g><!--link AENCO to AENCr--><g id="link_AENCO_AENCr"><path d="M695.6478,255.44 C678.8278,273.71 657.021,297.3853 640.141,315.7253 " fill="none" id="AENCO-to-AENCr" style="stroke:#181818;stroke-width:1.0;"/><polygon fill="#181818" points="636.0778,320.14,645.1158,316.2268,639.4638,316.4611,639.2295,310.8091,636.0778,320.14" style="stroke:#181818;stroke-width:1.0;"/></g><!--link AENCO to AENCn--><g id="link_AENCO_AENCn"><path d="M718.7178,255.44 C725.2278,273.71 733.2225,296.1486 739.7625,314.4886 " fill="none" id="AENCO-to-AENCn" style="stroke:#181818;stroke-width:1.0;"/><polygon fill="#181818" points="741.7778,320.14,742.5225,310.3193,740.0984,315.4305,734.9872,313.0064,741.7778,320.14" style="stroke:#181818;stroke-width:1.0;"/></g><!--link WO to AENCO--><g id="link_WO_AENCO"><path d="M373.9478,147.48 C449.0578,166.99 562.0905,196.3615 637.0805,215.8415 " fill="none" id="WO-to-AENCO" style="stroke:#181818;stroke-width:1.0;"/><polygon fill="#181818" points="642.8878,217.35,635.1826,211.2157,638.0484,216.0929,633.1712,218.9587,642.8878,217.35" style="stroke:#181818;stroke-width:1.0;"/></g><!--link WO to AEN2--><g id="link_WO_AEN2"><path d="M384.8578,128.38 C396.5778,128.38 402.3078,128.38 414.0378,128.38 " fill="none" id="WO-to-AEN2" style="stroke:#181818;stroke-width:1.0;"/><polygon fill="#181818" points="420.0378,128.38,411.0378,124.38,415.0378,128.38,411.0378,132.38,420.0378,128.38" style="stroke:#181818;stroke-width:1.0;"/></g><!--link WO to AEN3--><g id="link_WO_AEN3"><path d="M320.4678,109.27 C341.0578,86.59 379.0078,50.01 420.7778,35.38 C504.6678,6 535.9278,8.9 620.7778,35.38 C663.8678,48.83 700.8652,77.4282 726.0852,100.2082 " fill="none" id="WO-to-AEN3" style="stroke:#181818;stroke-width:1.0;"/><polygon fill="#181818" points="730.5378,104.23,726.5401,95.229,726.8273,100.8785,721.1777,101.1657,730.5378,104.23" style="stroke:#181818;stroke-width:1.0;"/></g><!--link AENCO to ENC1--><g id="link_AENCO_ENC1"><path d="M783.9878,255.42 C793.7778,257.38 803.7378,259.12 813.2778,260.38 C844.0378,264.45 1063.9978,258.62 1092.2778,271.38 C1115.0078,281.63 1130.2385,299.1066 1141.4385,315.1866 " fill="none" id="AENCO-to-ENC1" style="stroke:#181818;stroke-width:1.0;"/><polygon fill="#181818" points="1144.8678,320.11,1143.0062,310.4387,1142.01,316.0071,1136.4416,315.011,1144.8678,320.11" style="stroke:#181818;stroke-width:1.0;"/></g><!--link AENCO to ENCr--><g id="link_AENCO_ENCr"><path d="M785.3978,255.39 C794.7378,257.29 804.2078,259.02 813.2778,260.38 C846.3278,265.33 933.0478,257.12 963.2778,271.38 C985.8278,282.02 1001.0809,299.4259 1012.3309,315.3859 " fill="none" id="AENCO-to-ENCr" style="stroke:#181818;stroke-width:1.0;"/><polygon fill="#181818" points="1015.7878,320.29,1013.8719,310.6293,1012.9071,316.2032,1007.3331,315.2384,1015.7878,320.29" style="stroke:#181818;stroke-width:1.0;"/></g><!--link AENCO to ENCn--><g id="link_AENCO_ENCn"><path d="M774.8578,255.41 C787.2378,259.93 799.9178,265.27 811.2778,271.38 C836.2978,284.84 857.147,301.3737 873.987,316.1437 " fill="none" id="AENCO-to-ENCn" style="stroke:#181818;stroke-width:1.0;"/><polygon fill="#181818" points="878.4978,320.1,874.3691,311.1583,874.7388,316.8031,869.094,317.1727,878.4978,320.1" style="stroke:#181818;stroke-width:1.0;"/></g><!--link AENCO to EN2--><g id="link_AENCO_EN2"><path d="M795.4878,236.38 C806.9578,236.38 812.4378,236.38 823.9078,236.38 " fill="none" id="AENCO-to-EN2" style="stroke:#181818;stroke-width:1.0;"/><polygon fill="#181818" points="829.9078,236.38,820.9078,232.38,824.9078,236.38,820.9078,240.38,829.9078,236.38" style="stroke:#181818;stroke-width:1.0;"/></g><!--link AENCO to ENn--><g id="link_AENCO_ENn"><path d="M732.0178,217.29 C753.9978,197.7 791.6178,168.91 830.7778,160.38 C857.2678,154.61 926.2878,154.61 952.7778,160.38 C961.1378,162.2 963.0878,163.74 970.2778,168.38 C989.9078,181.04 1005.3559,194.2494 1020.1059,208.2494 " fill="none" id="AENCO-to-ENn" style="stroke:#181818;stroke-width:1.0;"/><polygon fill="#181818" points="1024.4578,212.38,1020.6837,203.2829,1020.8312,208.9379,1015.1763,209.0854,1024.4578,212.38" style="stroke:#181818;stroke-width:1.0;"/></g><!--SRC=[bP7Dhe8m44RtVOe9hCqDk3SnnAsuOurbBEGsRJ8KNTpuxhVbHqKAQ7SpEJFzUff8tHGGdAYwvWP_JirPLXmIrmqWvFnY3_mni8UGcrm9YH1acdulKjyW9LvYRIWtcWB8QyZITpRHokILGfh2oG8STKG4uQsi3Cw3SGVIAgWwKBs2MGgRpMu8alHLDAfeL2bsP-oe2xjwBmIXiDeAE1G2eUtQtA6iH6dEii6fkGKR-yDnNOY3FdNYs4-rE7PafatJFhczqjCZJy_PoPvbkgZgaJ8UA-jMxDhTyTA2H_Jj_8Bj4C7pHRL1b6l_r7d_GliNrkUbUvnxbFV6tnyuv8WzxxopVjnDnvFH8PTQ6rNi7m00]--></g></svg>