<?xml version="1.0" encoding="us-ascii" standalone="no"?><svg xmlns="http://www.w3.org/2000/svg" xmlns:xlink="http://www.w3.org/1999/xlink" contentStyleType="text/css" height="1296px" preserveAspectRatio="none" style="width:244px;height:1296px;background:#FFFFFF;" version="1.1" viewBox="0 0 244 1296" width="244px" zoomAndPan="magnify"><defs/><g><path d="M19.5,1191 L218.5,1191 A12.5,12.5 0 0 1 231,1203.5 L231,1218.6094 L7,1218.6094 L7,1203.5 A12.5,12.5 0 0 1 19.5,1191 " fill="#BBAAFF" style="stroke:#BBAAFF;stroke-width:1.0;"/><rect fill="none" height="99.6094" rx="12.5" ry="12.5" style="stroke:#181818;stroke-width:0.5;" width="224" x="7" y="1191"/><line style="stroke:#181818;stroke-width:0.5;" x1="7" x2="231" y1="1218.6094" y2="1218.6094"/><text fill="#000000" font-family="sans-serif" font-size="14" lengthAdjust="spacing" textLength="204" x="17" y="1210.5332">sentient agent bundle resources</text><g id="pstatename.sabrfunction"><rect fill="#F1F1F1" height="50" rx="12.5" ry="12.5" style="stroke:#181818;stroke-width:0.5;" width="127" x="19" y="1230.6094"/><line style="stroke:#181818;stroke-width:0.5;" x1="19" x2="146" y1="1258.2188" y2="1258.2188"/><text fill="#000000" font-family="sans-serif" font-size="14" lengthAdjust="spacing" textLength="107" x="29" y="1250.1426">Custom Function</text></g><g id="streampolicycreate"><rect fill="#BBAAFF" height="50" rx="12.5" ry="12.5" style="stroke:#181818;stroke-width:0.5;" width="60" x="89" y="1106"/><line style="stroke:#181818;stroke-width:0.5;" x1="89" x2="149" y1="1133.6094" y2="1133.6094"/><text fill="#000000" font-family="sans-serif" font-size="14" lengthAdjust="spacing" textLength="40" x="99" y="1125.5332">create</text></g><path d="M87.5,971 L150.5,971 A12.5,12.5 0 0 1 163,983.5 L163,998.6094 L75,998.6094 L75,983.5 A12.5,12.5 0 0 1 87.5,971 " fill="#BBAAFF" style="stroke:#BBAAFF;stroke-width:1.0;"/><rect fill="none" height="99.6094" rx="12.5" ry="12.5" style="stroke:#181818;stroke-width:0.5;" width="88" x="75" y="971"/><line style="stroke:#181818;stroke-width:0.5;" x1="75" x2="163" y1="998.6094" y2="998.6094"/><text fill="#000000" font-family="sans-serif" font-size="14" lengthAdjust="spacing" textLength="68" x="85" y="990.5332">application</text><g id="application.applicationcreate"><rect fill="#BBAAFF" height="50" rx="12.5" ry="12.5" style="stroke:#181818;stroke-width:0.5;" width="60" x="87" y="1010.6094"/><line style="stroke:#181818;stroke-width:0.5;" x1="87" x2="147" y1="1038.2188" y2="1038.2188"/><text fill="#000000" font-family="sans-serif" font-size="14" lengthAdjust="spacing" textLength="40" x="97" y="1030.1426">create</text></g><path d="M91,768 L147,768 A12.5,12.5 0 0 1 159.5,780.5 L159.5,795.6094 L78.5,795.6094 L78.5,780.5 A12.5,12.5 0 0 1 91,768 " fill="#BBAAFF" style="stroke:#BBAAFF;stroke-width:1.0;"/><rect fill="none" height="167.6094" rx="12.5" ry="12.5" style="stroke:#181818;stroke-width:0.5;" width="81" x="78.5" y="768"/><line style="stroke:#181818;stroke-width:0.5;" x1="78.5" x2="159.5" y1="795.6094" y2="795.6094"/><text fill="#000000" font-family="sans-serif" font-size="14" lengthAdjust="spacing" textLength="43" x="97.5" y="787.5332">bundle</text><g id="bundle.bundlebuild"><rect fill="#BBAAFF" height="50" rx="12.5" ry="12.5" style="stroke:#181818;stroke-width:0.5;" width="50" x="95.5" y="875.6094"/><line style="stroke:#181818;stroke-width:0.5;" x1="95.5" x2="145.5" y1="903.2188" y2="903.2188"/><text fill="#000000" font-family="sans-serif" font-size="14" lengthAdjust="spacing" textLength="30" x="105.5" y="895.1426">build</text></g><g id="bundle.bundlecreate"><rect fill="#BBAAFF" height="50" rx="12.5" ry="12.5" style="stroke:#181818;stroke-width:0.5;" width="60" x="90.5" y="807.6094"/><line style="stroke:#181818;stroke-width:0.5;" x1="90.5" x2="150.5" y1="835.2188" y2="835.2188"/><text fill="#000000" font-family="sans-serif" font-size="14" lengthAdjust="spacing" textLength="40" x="100.5" y="827.1426">create</text></g><path d="M91,633 L147,633 A12.5,12.5 0 0 1 159.5,645.5 L159.5,660.6094 L78.5,660.6094 L78.5,645.5 A12.5,12.5 0 0 1 91,633 " fill="#BBAAFF" style="stroke:#BBAAFF;stroke-width:1.0;"/><rect fill="none" height="99.6094" rx="12.5" ry="12.5" style="stroke:#181818;stroke-width:0.5;" width="81" x="78.5" y="633"/><line style="stroke:#181818;stroke-width:0.5;" x1="78.5" x2="159.5" y1="660.6094" y2="660.6094"/><text fill="#000000" font-family="sans-serif" font-size="14" lengthAdjust="spacing" textLength="59" x="89.5" y="652.5332">capability</text><g id="capability.capabilitycreate"><rect fill="#BBAAFF" height="50" rx="12.5" ry="12.5" style="stroke:#181818;stroke-width:0.5;" width="60" x="90.5" y="672.6094"/><line style="stroke:#181818;stroke-width:0.5;" x1="90.5" x2="150.5" y1="700.2188" y2="700.2188"/><text fill="#000000" font-family="sans-serif" font-size="14" lengthAdjust="spacing" textLength="40" x="100.5" y="692.1426">create</text></g><path d="M82.5,498 L155.5,498 A12.5,12.5 0 0 1 168,510.5 L168,525.6094 L70,525.6094 L70,510.5 A12.5,12.5 0 0 1 82.5,498 " fill="#BBAAFF" style="stroke:#BBAAFF;stroke-width:1.0;"/><rect fill="none" height="99.6094" rx="12.5" ry="12.5" style="stroke:#181818;stroke-width:0.5;" width="98" x="70" y="498"/><line style="stroke:#181818;stroke-width:0.5;" x1="70" x2="168" y1="525.6094" y2="525.6094"/><text fill="#000000" font-family="sans-serif" font-size="14" lengthAdjust="spacing" textLength="78" x="80" y="517.5332">environment</text><g id="environment.environmentcreate"><rect fill="#BBAAFF" height="50" rx="12.5" ry="12.5" style="stroke:#181818;stroke-width:0.5;" width="60" x="82" y="537.6094"/><line style="stroke:#181818;stroke-width:0.5;" x1="82" x2="142" y1="565.2188" y2="565.2188"/><text fill="#000000" font-family="sans-serif" font-size="14" lengthAdjust="spacing" textLength="40" x="92" y="557.1426">create</text></g><path d="M86,227 L152,227 A12.5,12.5 0 0 1 164.5,239.5 L164.5,254.6094 L73.5,254.6094 L73.5,239.5 A12.5,12.5 0 0 1 86,227 " fill="#BBAAFF" style="stroke:#BBAAFF;stroke-width:1.0;"/><rect fill="none" height="235.6094" rx="12.5" ry="12.5" style="stroke:#181818;stroke-width:0.5;" width="91" x="73.5" y="227"/><line style="stroke:#181818;stroke-width:0.5;" x1="73.5" x2="164.5" y1="254.6094" y2="254.6094"/><text fill="#000000" font-family="sans-serif" font-size="14" lengthAdjust="spacing" textLength="39" x="99.5" y="246.5332">pulsar</text><g id="pulsar.pulsarstreams"><rect fill="#BBAAFF" height="50" rx="12.5" ry="12.5" style="stroke:#181818;stroke-width:0.5;" width="70" x="85.5" y="402.6094"/><line style="stroke:#181818;stroke-width:0.5;" x1="85.5" x2="155.5" y1="430.2188" y2="430.2188"/><text fill="#000000" font-family="sans-serif" font-size="14" lengthAdjust="spacing" textLength="50" x="95.5" y="422.1426">streams</text></g><g id="pulsar.pulsartopic"><rect fill="#BBAAFF" height="50" rx="12.5" ry="12.5" style="stroke:#181818;stroke-width:0.5;" width="50" x="95.5" y="334.6094"/><line style="stroke:#181818;stroke-width:0.5;" x1="95.5" x2="145.5" y1="362.2188" y2="362.2188"/><text fill="#000000" font-family="sans-serif" font-size="14" lengthAdjust="spacing" textLength="30" x="105.5" y="354.1426">topic</text></g><g id="pulsar.pulsartopics"><rect fill="#BBAAFF" height="50" rx="12.5" ry="12.5" style="stroke:#181818;stroke-width:0.5;" width="57" x="92" y="266.6094"/><line style="stroke:#181818;stroke-width:0.5;" x1="92" x2="149" y1="294.2188" y2="294.2188"/><text fill="#000000" font-family="sans-serif" font-size="14" lengthAdjust="spacing" textLength="37" x="102" y="286.1426">topics</text></g><path d="M92.5,92 L145.5,92 A12.5,12.5 0 0 1 158,104.5 L158,119.6094 L80,119.6094 L80,104.5 A12.5,12.5 0 0 1 92.5,92 " fill="#BBAAFF" style="stroke:#BBAAFF;stroke-width:1.0;"/><rect fill="none" height="99.6094" rx="12.5" ry="12.5" style="stroke:#181818;stroke-width:0.5;" width="78" x="80" y="92"/><line style="stroke:#181818;stroke-width:0.5;" x1="80" x2="158" y1="119.6094" y2="119.6094"/><text fill="#000000" font-family="sans-serif" font-size="14" lengthAdjust="spacing" textLength="58" x="90" y="111.5332">sabundle</text><g id="sabundle.sabundlebuild"><rect fill="#BBAAFF" height="50" rx="12.5" ry="12.5" style="stroke:#181818;stroke-width:0.5;" width="50" x="92" y="131.6094"/><line style="stroke:#181818;stroke-width:0.5;" x1="92" x2="142" y1="159.2188" y2="159.2188"/><text fill="#000000" font-family="sans-serif" font-size="14" lengthAdjust="spacing" textLength="30" x="102" y="151.1426">build</text></g><g id="streampolicy"><rect fill="#BBAAFF" height="50" rx="12.5" ry="12.5" style="stroke:#181818;stroke-width:0.5;" width="99" x="69.5" y="7"/><line style="stroke:#181818;stroke-width:0.5;" x1="69.5" x2="168.5" y1="34.6094" y2="34.6094"/><text fill="#000000" font-family="sans-serif" font-size="14" lengthAdjust="spacing" textLength="79" x="79.5" y="26.5332">streampolicy</text></g><!--SRC=[hLHTQiCm37xFAKHtbC7k8JjAPt1iOyk3CdBtkRQxYAQaUOWXGHBVZt2aM9eOs4Cqrs-6qKJIRBmRxYSnCi4baMDJ7i3h_Qso6or1fEHpr9GkW0b2nJgS2JwKGfmc-1sWdAxncHFx6Rwog_ALar35gHSwUXcMeGQ2cZWIpi5Res-WIypKwABUoiAwo3phO0W5Yl_s8XV43XO-0lV2veLHkw3AxNUraLVPs54WQdw2hcYxGOvrh36WCjRmhLBNTDTXXHrp8VTZedTp6QBA5_ckZy0TCmhP9enjBckubM_3amIcLqxGPX-C5eYQdwMRdeNVTbpMR1sSHx8taW_CeQ6KMxXPoztF-cP_b_eB6lu0]--></g></svg>