<?xml version="1.0" encoding="us-ascii" standalone="no"?><svg xmlns="http://www.w3.org/2000/svg" xmlns:xlink="http://www.w3.org/1999/xlink" contentStyleType="text/css" height="1098px" preserveAspectRatio="none" style="width:538px;height:1098px;background:#FFFFFF;" version="1.1" viewBox="0 0 538 1098" width="538px" zoomAndPan="magnify"><defs/><g><!--cluster sabr--><g id="cluster_sabr"><path d="M8.5,6 L40.5,6 A3.75,3.75 0 0 1 43,8.5 L50,29.6094 L296.5,29.6094 A2.5,2.5 0 0 1 299,32.1094 L299,899.5 A2.5,2.5 0 0 1 296.5,902 L8.5,902 A2.5,2.5 0 0 1 6,899.5 L6,8.5 A2.5,2.5 0 0 1 8.5,6 " fill="#BBAAFF" style="stroke:#000000;stroke-width:1.5;"/><line style="stroke:#000000;stroke-width:1.5;" x1="6" x2="50" y1="29.6094" y2="29.6094"/><text fill="#000000" font-family="sans-serif" font-size="14" font-weight="bold" lengthAdjust="spacing" textLength="31" x="10" y="22.5332">sabr</text></g><!--cluster DevelopCapability--><g id="cluster_DevelopCapability"><rect fill="#FFFFAA" height="90" rx="2.5" ry="2.5" style="stroke:#181818;stroke-width:1.0;" width="196" x="333.5" y="310"/><text fill="#000000" font-family="sans-serif" font-size="14" font-weight="bold" lengthAdjust="spacing" textLength="131" x="366" y="326.5332">Develop Capability</text></g><!--cluster ManageSABR--><g id="cluster_ManageSABR"><rect fill="#FFFFAA" height="84" rx="2.5" ry="2.5" style="stroke:#181818;stroke-width:1.0;" width="158" x="352.5" y="576"/><text fill="#000000" font-family="sans-serif" font-size="14" font-weight="bold" lengthAdjust="spacing" textLength="98" x="382.5" y="592.5332">Manage SABR</text></g><!--cluster ManagePolicies--><g id="cluster_ManagePolicies"><rect fill="#FFFFAA" height="86" rx="2.5" ry="2.5" style="stroke:#181818;stroke-width:1.0;" width="177" x="343" y="1006"/><text fill="#000000" font-family="sans-serif" font-size="14" font-weight="bold" lengthAdjust="spacing" textLength="115" x="374" y="1022.5332">Manage Policies</text></g><!--cluster Ships--><g id="cluster_Ships"><rect fill="#FFFFAA" height="298" rx="2.5" ry="2.5" style="stroke:#181818;stroke-width:1.0;" width="201" x="331" y="684"/><text fill="#000000" font-family="sans-serif" font-size="14" font-weight="bold" lengthAdjust="spacing" textLength="39" x="412" y="700.5332">Ships</text></g><!--entity sabrapplication--><g id="elem_sabrapplication"><rect fill="#F1F1F1" height="47.6094" rx="2.5" ry="2.5" style="stroke:#181818;stroke-width:0.5;" width="108" x="35.5" y="56"/><rect fill="#F1F1F1" height="10" style="stroke:#181818;stroke-width:0.5;" width="15" x="123.5" y="61"/><rect fill="#F1F1F1" height="2" style="stroke:#181818;stroke-width:0.5;" width="4" x="121.5" y="63"/><rect fill="#F1F1F1" height="2" style="stroke:#181818;stroke-width:0.5;" width="4" x="121.5" y="67"/><text fill="#000000" font-family="sans-serif" font-size="14" lengthAdjust="spacing" textLength="68" x="50.5" y="90.5332">application</text></g><!--entity sabrapplicationcreate--><g id="elem_sabrapplicationcreate"><ellipse cx="242" cy="80" fill="#F1F1F1" rx="8" ry="8" style="stroke:#181818;stroke-width:0.5;"/><text fill="#000000" font-family="sans-serif" font-size="14" lengthAdjust="spacing" textLength="40" x="222" y="111.5332">create</text></g><!--entity sabrbundle--><g id="elem_sabrbundle"><rect fill="#F1F1F1" height="47.6094" rx="2.5" ry="2.5" style="stroke:#181818;stroke-width:0.5;" width="83" x="48" y="199"/><rect fill="#F1F1F1" height="10" style="stroke:#181818;stroke-width:0.5;" width="15" x="111" y="204"/><rect fill="#F1F1F1" height="2" style="stroke:#181818;stroke-width:0.5;" width="4" x="109" y="206"/><rect fill="#F1F1F1" height="2" style="stroke:#181818;stroke-width:0.5;" width="4" x="109" y="210"/><text fill="#000000" font-family="sans-serif" font-size="14" lengthAdjust="spacing" textLength="43" x="63" y="233.5332">bundle</text></g><!--entity sabrbundlebuild--><g id="elem_sabrbundlebuild"><ellipse cx="242" cy="270" fill="#F1F1F1" rx="8" ry="8" style="stroke:#181818;stroke-width:0.5;"/><text fill="#000000" font-family="sans-serif" font-size="14" lengthAdjust="spacing" textLength="30" x="227" y="301.5332">build</text></g><!--entity sabrbundlecreate--><g id="elem_sabrbundlecreate"><ellipse cx="242" cy="175" fill="#F1F1F1" rx="8" ry="8" style="stroke:#181818;stroke-width:0.5;"/><text fill="#000000" font-family="sans-serif" font-size="14" lengthAdjust="spacing" textLength="40" x="222" y="206.5332">create</text></g><!--entity sabrcapability--><g id="elem_sabrcapability"><rect fill="#F1F1F1" height="47.6094" rx="2.5" ry="2.5" style="stroke:#181818;stroke-width:0.5;" width="99" x="40" y="341"/><rect fill="#F1F1F1" height="10" style="stroke:#181818;stroke-width:0.5;" width="15" x="119" y="346"/><rect fill="#F1F1F1" height="2" style="stroke:#181818;stroke-width:0.5;" width="4" x="117" y="348"/><rect fill="#F1F1F1" height="2" style="stroke:#181818;stroke-width:0.5;" width="4" x="117" y="352"/><text fill="#000000" font-family="sans-serif" font-size="14" lengthAdjust="spacing" textLength="59" x="55" y="375.5332">capability</text></g><!--entity sabrcapabilitycreate--><g id="elem_sabrcapabilitycreate"><ellipse cx="242" cy="365" fill="#F1F1F1" rx="8" ry="8" style="stroke:#181818;stroke-width:0.5;"/><text fill="#000000" font-family="sans-serif" font-size="14" lengthAdjust="spacing" textLength="40" x="222" y="396.5332">create</text></g><!--entity sabrenvironment--><g id="elem_sabrenvironment"><rect fill="#F1F1F1" height="47.6094" rx="2.5" ry="2.5" style="stroke:#181818;stroke-width:0.5;" width="118" x="30.5" y="436"/><rect fill="#F1F1F1" height="10" style="stroke:#181818;stroke-width:0.5;" width="15" x="128.5" y="441"/><rect fill="#F1F1F1" height="2" style="stroke:#181818;stroke-width:0.5;" width="4" x="126.5" y="443"/><rect fill="#F1F1F1" height="2" style="stroke:#181818;stroke-width:0.5;" width="4" x="126.5" y="447"/><text fill="#000000" font-family="sans-serif" font-size="14" lengthAdjust="spacing" textLength="78" x="45.5" y="470.5332">environment</text></g><!--entity sabrenvironmentcreate--><g id="elem_sabrenvironmentcreate"><ellipse cx="242" cy="460" fill="#F1F1F1" rx="8" ry="8" style="stroke:#181818;stroke-width:0.5;"/><text fill="#000000" font-family="sans-serif" font-size="14" lengthAdjust="spacing" textLength="40" x="222" y="491.5332">create</text></g><!--entity sabrpulsar--><g id="elem_sabrpulsar"><rect fill="#F1F1F1" height="47.6094" rx="2.5" ry="2.5" style="stroke:#181818;stroke-width:0.5;" width="79" x="50" y="626"/><rect fill="#F1F1F1" height="10" style="stroke:#181818;stroke-width:0.5;" width="15" x="109" y="631"/><rect fill="#F1F1F1" height="2" style="stroke:#181818;stroke-width:0.5;" width="4" x="107" y="633"/><rect fill="#F1F1F1" height="2" style="stroke:#181818;stroke-width:0.5;" width="4" x="107" y="637"/><text fill="#000000" font-family="sans-serif" font-size="14" lengthAdjust="spacing" textLength="39" x="65" y="660.5332">pulsar</text></g><!--entity sabrpulsarstreams--><g id="elem_sabrpulsarstreams"><ellipse cx="242" cy="745" fill="#F1F1F1" rx="8" ry="8" style="stroke:#181818;stroke-width:0.5;"/><text fill="#000000" font-family="sans-serif" font-size="14" lengthAdjust="spacing" textLength="50" x="217" y="776.5332">streams</text></g><!--entity sabrpulsartopic--><g id="elem_sabrpulsartopic"><ellipse cx="242" cy="650" fill="#F1F1F1" rx="8" ry="8" style="stroke:#181818;stroke-width:0.5;"/><text fill="#000000" font-family="sans-serif" font-size="14" lengthAdjust="spacing" textLength="30" x="227" y="681.5332">topic</text></g><!--entity sabrpulsartopics--><g id="elem_sabrpulsartopics"><ellipse cx="242" cy="555" fill="#F1F1F1" rx="8" ry="8" style="stroke:#181818;stroke-width:0.5;"/><text fill="#000000" font-family="sans-serif" font-size="14" lengthAdjust="spacing" textLength="37" x="223.5" y="586.5332">topics</text></g><!--entity sabrsabundle--><g id="elem_sabrsabundle"><rect fill="#F1F1F1" height="47.6094" rx="2.5" ry="2.5" style="stroke:#181818;stroke-width:0.5;" width="98" x="40.5" y="728"/><rect fill="#F1F1F1" height="10" style="stroke:#181818;stroke-width:0.5;" width="15" x="118.5" y="733"/><rect fill="#F1F1F1" height="2" style="stroke:#181818;stroke-width:0.5;" width="4" x="116.5" y="735"/><rect fill="#F1F1F1" height="2" style="stroke:#181818;stroke-width:0.5;" width="4" x="116.5" y="739"/><text fill="#000000" font-family="sans-serif" font-size="14" lengthAdjust="spacing" textLength="58" x="55.5" y="762.5332">sabundle</text></g><!--entity sabrsabundlebuild--><g id="elem_sabrsabundlebuild"><ellipse cx="242" cy="840" fill="#F1F1F1" rx="8" ry="8" style="stroke:#181818;stroke-width:0.5;"/><text fill="#000000" font-family="sans-serif" font-size="14" lengthAdjust="spacing" textLength="30" x="227" y="871.5332">build</text></g><!--entity sabrstreampolicy--><g id="elem_sabrstreampolicy"><rect fill="#F1F1F1" height="47.6094" rx="2.5" ry="2.5" style="stroke:#181818;stroke-width:0.5;" width="119" x="30" y="811"/><rect fill="#F1F1F1" height="10" style="stroke:#181818;stroke-width:0.5;" width="15" x="129" y="816"/><rect fill="#F1F1F1" height="2" style="stroke:#181818;stroke-width:0.5;" width="4" x="127" y="818"/><rect fill="#F1F1F1" height="2" style="stroke:#181818;stroke-width:0.5;" width="4" x="127" y="822"/><text fill="#000000" font-family="sans-serif" font-size="14" lengthAdjust="spacing" textLength="79" x="45" y="845.5332">streampolicy</text></g><g id="elem_DevOpsEngineerDevelopCapabilityCreateCapability"><ellipse cx="431.4202" cy="364.784" fill="#F1F1F1" rx="81.9202" ry="18.784" style="stroke:#181818;stroke-width:0.5;"/><text fill="#000000" font-family="sans-serif" font-size="14" lengthAdjust="spacing" textLength="119" x="371.7512" y="368.5629">"Create Capability"</text></g><line style="stroke:#181818;stroke-width:0.5;" x1="506.8111" x2="487.1124" y1="358.2359" y2="377.9346"/><g id="elem_ApplicationDeveloperManageSABRBuildSAB"><ellipse cx="431.6242" cy="628.1042" fill="#F1F1F1" rx="63.1242" ry="15.6042" style="stroke:#181818;stroke-width:0.5;"/><text fill="#000000" font-family="sans-serif" font-size="14" lengthAdjust="spacing" textLength="72" x="392.6242" y="632.6208">"Build SAB"</text></g><line style="stroke:#181818;stroke-width:0.5;" x1="489.7171" x2="472.9949" y1="622.6645" y2="639.3867"/><g id="elem_DataEngineerManagePoliciesCreatePolicy"><ellipse cx="431.2859" cy="1058.8572" fill="#F1F1F1" rx="72.2859" ry="16.8572" style="stroke:#181818;stroke-width:0.5;"/><text fill="#000000" font-family="sans-serif" font-size="14" lengthAdjust="spacing" textLength="94" x="381.2859" y="1063.3738">"Create Policy"</text></g><line style="stroke:#181818;stroke-width:0.5;" x1="497.8103" x2="480.0464" y1="1052.9808" y2="1070.7446"/><g id="elem_ApplicationDeveloperShipsAISNoContact"><ellipse cx="431.355" cy="738.171" fill="#F1F1F1" rx="76.355" ry="17.671" style="stroke:#181818;stroke-width:0.5;"/><text fill="#000000" font-family="sans-serif" font-size="14" lengthAdjust="spacing" textLength="105" x="376.1233" y="742.6255">"AIS No Contact"</text></g><line style="stroke:#181818;stroke-width:0.5;" x1="501.6241" x2="483.0434" y1="732.0109" y2="750.5916"/><g id="elem_ApplicationDeveloperShipsAISOne"><ellipse cx="431.7356" cy="806.0492" fill="#F1F1F1" rx="55.7356" ry="15.5492" style="stroke:#181818;stroke-width:0.5;"/><text fill="#000000" font-family="sans-serif" font-size="14" lengthAdjust="spacing" textLength="62" x="397.7356" y="810.5658">"AIS One"</text></g><line style="stroke:#181818;stroke-width:0.5;" x1="483.0288" x2="465.7709" y1="800.6287" y2="817.8866"/><g id="elem_ApplicationDeveloperShipsAISSABR"><ellipse cx="431.376" cy="874.0752" fill="#F1F1F1" rx="73.376" ry="17.0752" style="stroke:#181818;stroke-width:0.5;"/><text fill="#000000" font-family="sans-serif" font-size="14" lengthAdjust="spacing" textLength="97" x="379.876" y="878.5918">"Build AIS SAB"</text></g><line style="stroke:#181818;stroke-width:0.5;" x1="498.9036" x2="480.921" y1="868.1228" y2="886.1054"/><g id="elem_ApplicationDeveloperShipsUSVOne"><ellipse cx="431.4267" cy="945.7853" fill="#F1F1F1" rx="84.4267" ry="19.2853" style="stroke:#181818;stroke-width:0.5;"/><text fill="#000000" font-family="sans-serif" font-size="14" lengthAdjust="spacing" textLength="125" x="368.9267" y="949.5139">"USV One Instance"</text></g><line style="stroke:#181818;stroke-width:0.5;" x1="509.1243" x2="488.9219" y1="939.0625" y2="959.2648"/><!--entity sabrstreampolicycreate--><g id="elem_sabrstreampolicycreate"><ellipse cx="242" cy="956" fill="#F1F1F1" rx="8" ry="8" style="stroke:#181818;stroke-width:0.5;"/><text fill="#000000" font-family="sans-serif" font-size="14" lengthAdjust="spacing" textLength="40" x="222" y="987.5332">create</text></g><!--link sabr to sabrstreampolicycreate--><g id="link_sabr_sabrstreampolicycreate"><path d="M110.112,902.0761 C121.2022,906.6453 135.9456,912.7194 151.5338,919.1413 C182.71,931.985 217.265,946.22 232.73,952.59 " fill="none" id="sabr-sabrstreampolicycreate" style="stroke:#181818;stroke-width:1.0;"/></g><!--link sabrapplication to sabrapplicationcreate--><g id="link_sabrapplication_sabrapplicationcreate"><path d="M143.56,80 C176.74,80 216.23,80 232.92,80 " fill="none" id="sabrapplication-sabrapplicationcreate" style="stroke:#181818;stroke-width:1.0;"/></g><!--link sabrbundle to sabrbundlebuild--><g id="link_sabrbundle_sabrbundlebuild"><path d="M131.23,235.72 C166.22,246.65 213.94,261.55 232.82,267.45 " fill="none" id="sabrbundle-sabrbundlebuild" style="stroke:#181818;stroke-width:1.0;"/></g><!--link sabrbundle to sabrbundlecreate--><g id="link_sabrbundle_sabrbundlecreate"><path d="M131.23,210.01 C166.22,198.85 213.94,183.63 232.82,177.61 " fill="none" id="sabrbundle-sabrbundlecreate" style="stroke:#181818;stroke-width:1.0;"/></g><!--link sabrcapability to sabrcapabilitycreate--><g id="link_sabrcapability_sabrcapabilitycreate"><path d="M139.36,365 C173.35,365 215.56,365 232.95,365 " fill="none" id="sabrcapability-sabrcapabilitycreate" style="stroke:#181818;stroke-width:1.0;"/></g><!--link sabrenvironment to sabrenvironmentcreate--><g id="link_sabrenvironment_sabrenvironmentcreate"><path d="M148.69,460 C180.45,460 216.49,460 232.53,460 " fill="none" id="sabrenvironment-sabrenvironmentcreate" style="stroke:#181818;stroke-width:1.0;"/></g><!--link sabrpulsar to sabrpulsarstreams--><g id="link_sabrpulsar_sabrpulsarstreams"><path d="M128.87,674.22 C164.05,696.43 213.53,727.66 232.83,739.84 " fill="none" id="sabrpulsar-sabrpulsarstreams" style="stroke:#181818;stroke-width:1.0;"/></g><!--link sabrpulsar to sabrpulsartopic--><g id="link_sabrpulsar_sabrpulsartopic"><path d="M129.26,650 C164.44,650 213.67,650 232.88,650 " fill="none" id="sabrpulsar-sabrpulsartopic" style="stroke:#181818;stroke-width:1.0;"/></g><!--link sabrpulsar to sabrpulsartopics--><g id="link_sabrpulsar_sabrpulsartopics"><path d="M128.87,625.78 C164.05,603.57 213.53,572.34 232.83,560.16 " fill="none" id="sabrpulsar-sabrpulsartopics" style="stroke:#181818;stroke-width:1.0;"/></g><!--link sabrsabundle to sabrsabundlebuild--><g id="link_sabrsabundle_sabrsabundlebuild"><path d="M131.62,776.05 C166.61,796.5 214.08,824.26 232.87,835.25 " fill="none" id="sabrsabundle-sabrsabundlebuild" style="stroke:#181818;stroke-width:1.0;"/></g><!--link sabrstreampolicy to sabrstreampolicycreate--><g id="link_sabrstreampolicy_sabrstreampolicycreate"><path d="M143.31,859.18 C145.26,860.42 147.17,861.69 149,863 C184.89,888.55 219.22,928.78 233.74,946.77 " fill="none" id="sabrstreampolicy-sabrstreampolicycreate" style="stroke:#181818;stroke-width:1.0;"/></g><!--reverse link sabrcapabilitycreate to DevOpsEngineerDevelopCapabilityCreateCapability--><g id="link_sabrcapabilitycreate_DevOpsEngineerDevelopCapabilityCreateCapability"><path d="M257.06,365 C274.3,365 310.4,365 349.49,365 " fill="none" id="sabrcapabilitycreate-backto-DevOpsEngineerDevelopCapabilityCreateCapability" style="stroke:#181818;stroke-width:1.0;"/><polygon fill="#181818" points="251.06,365,260.06,369,256.06,365,260.06,361,251.06,365" style="stroke:#181818;stroke-width:1.0;"/></g><!--reverse link sabrsabundlebuild to ApplicationDeveloperManageSABRBuildSAB--><g id="link_sabrsabundlebuild_ApplicationDeveloperManageSABRBuildSAB"><path d="M256.6377,835.2666 C272.0677,829.6466 300.1,817.05 315,792 C335.08,758.25 303.38,738.02 323,704 C340.01,674.5 373.64,653.59 398.77,641.27 " fill="none" id="sabrsabundlebuild-backto-ApplicationDeveloperManageSABRBuildSAB" style="stroke:#181818;stroke-width:1.0;"/><polygon fill="#181818" points="251,837.32,260.8255,837.9984,255.6981,835.6088,258.0876,830.4815,251,837.32" style="stroke:#181818;stroke-width:1.0;"/></g><!--reverse link sabrstreampolicycreate to DataEngineerManagePoliciesCreatePolicy--><g id="link_sabrstreampolicycreate_DataEngineerManagePoliciesCreatePolicy"><path d="M256.3185,963.3192 C282.1085,977.4892 358.27,1019.32 402.02,1043.36 " fill="none" id="sabrstreampolicycreate-backto-DataEngineerManagePoliciesCreatePolicy" style="stroke:#181818;stroke-width:1.0;"/><polygon fill="#181818" points="251.06,960.43,257.0217,968.2696,255.4421,962.8377,260.874,961.2582,251.06,960.43" style="stroke:#181818;stroke-width:1.0;"/></g><!--reverse link sabrsabundlebuild to ApplicationDeveloperShipsAISNoContact--><g id="link_sabrsabundlebuild_ApplicationDeveloperShipsAISNoContact"><path d="M256.7239,833.9808 C271.4239,827.3108 296.82,814 315,792 C320.84,784.94 316.26,779.2 323,773 C335.79,761.24 352.58,753.43 369.08,748.24 " fill="none" id="sabrsabundlebuild-backto-ApplicationDeveloperShipsAISNoContact" style="stroke:#181818;stroke-width:1.0;"/><polygon fill="#181818" points="251.26,836.46,261.1086,836.3838,255.8132,834.394,257.803,829.0987,251.26,836.46" style="stroke:#181818;stroke-width:1.0;"/></g><!--reverse link sabrsabundlebuild to ApplicationDeveloperShipsAISOne--><g id="link_sabrsabundlebuild_ApplicationDeveloperShipsAISOne"><path d="M256.9635,837.4683 C279.6035,833.3583 339.19,822.56 384.45,814.35 " fill="none" id="sabrsabundlebuild-backto-ApplicationDeveloperShipsAISOne" style="stroke:#181818;stroke-width:1.0;"/><polygon fill="#181818" points="251.06,838.54,260.6297,840.8681,255.9796,837.6469,259.2008,832.9968,251.06,838.54" style="stroke:#181818;stroke-width:1.0;"/></g><!--reverse link sabrsabundlebuild to ApplicationDeveloperShipsAISSABR--><g id="link_sabrsabundlebuild_ApplicationDeveloperShipsAISSABR"><path d="M256.9634,842.5323 C277.7734,846.3123 328.92,855.58 373.16,863.6 " fill="none" id="sabrsabundlebuild-backto-ApplicationDeveloperShipsAISSABR" style="stroke:#181818;stroke-width:1.0;"/><polygon fill="#181818" points="251.06,841.46,259.2002,847.0041,255.9795,842.3536,260.63,839.1329,251.06,841.46" style="stroke:#181818;stroke-width:1.0;"/></g><!--reverse link sabrsabundlebuild to ApplicationDeveloperShipsUSVOne--><g id="link_sabrsabundlebuild_ApplicationDeveloperShipsUSVOne"><path d="M255.2363,853.0072 C268.8563,867.1872 293.61,891.09 323,908 C339.47,917.48 358.71,925.19 376.32,931.13 " fill="none" id="sabrsabundlebuild-backto-ApplicationDeveloperShipsUSVOne" style="stroke:#181818;stroke-width:1.0;"/><polygon fill="#181818" points="251.08,848.68,254.4297,857.9417,254.5436,852.286,260.1993,852.3999,251.08,848.68" style="stroke:#181818;stroke-width:1.0;"/></g><!--SRC=[jPNDRkCW4CVlF0LAB-sXsXVOIvhsqCEsqKQxzp71ALeNa4qgLQk- -_9XpFW3jnid72mp_1b-Cy1GyT9GesWj3Y-6xaNDcH5A4aAeQqozQYMvD7JLG56lA3JK_H0gfE5r2OpR4LDpiBfAi7VAxB_XdH2FXI7YpFJsDZVi5_OV3UmF7FXWQNfL501bIVyIZ0TQMoVWu3ifilM01un8XX2HDTAEXH-duXP7kQyIGkZs88kZgFO3WRUHr8zWUFI2I8Ey1GLAsHJKqaGnq528IfZtJfbCStH9XGYJCLAEP2UJSlacQYLVRQUJ8jiSAv8XM6IDj6FXoRZwM3MGLA4xSQ-RWQIracI9SFtn2u8PfGKR2Bmj2nL6ButKJ34ryr0B4cM7-bSs6cRgI9IaIX8jNKc6irGJNDadNuEv-v1vDNeFJVu5YSmalcAskNSDvC66kRhdRxnIccxwbQKr9okzAcq3S86XThtQ-6Nm_9jlhOTdtJp8Wv2SroD_OTe65Q-sVQGKJrKa-js6UehlN09-W7JRk5lV_VIHXxxhPaE-SuV1pMX3NQUNi6NXTNBZrVOd5s7lYFdm_iFVV51RTn04Rr1WqVJPVcx3MMtt4Wp4RFVT1FMsFSEP04U7CcpYrvtczcxt8dG8plzbOre_xkYJeXib3J0pislUZLK_gLQxRDEctIsDv5doBuHWLUU1ZuwMO8SRu-3dRqrSqvtpyz1tdfRW_zhzTbcdZxAnKzcdwRVwywGVEVe7]--></g></svg>