<?xml version="1.0" encoding="us-ascii" standalone="no"?><svg xmlns="http://www.w3.org/2000/svg" xmlns:xlink="http://www.w3.org/1999/xlink" contentStyleType="text/css" height="766px" preserveAspectRatio="none" style="width:420px;height:766px;background:#FFFFFF;" version="1.1" viewBox="0 0 420 766" width="420px" zoomAndPan="magnify"><defs/><g><!--cluster Sentient Agent Bundle Resources--><g id="cluster_Sentient Agent Bundle Resources"><rect fill="#BBAAFF" height="521" rx="2.5" ry="2.5" style="stroke:#181818;stroke-width:1.0;" width="254" x="160" y="235.5"/><text fill="#000000" font-family="sans-serif" font-size="14" font-weight="bold" lengthAdjust="spacing" textLength="238" x="168" y="252.0332">Sentient Agent Bundle Resources</text></g><g id="elem_ManageAIModel"><ellipse cx="286.3525" cy="289.3705" fill="#F1F1F1" rx="74.8525" ry="17.3705" style="stroke:#181818;stroke-width:0.5;"/><text fill="#000000" font-family="sans-serif" font-size="14" lengthAdjust="spacing" textLength="101" x="232.8525" y="293.8871">ManageAIModel</text></g><g id="elem_ManageCapabilities"><ellipse cx="286.5066" cy="427.7013" fill="#F1F1F1" rx="84.0066" ry="19.2013" style="stroke:#181818;stroke-width:0.5;"/><text fill="#000000" font-family="sans-serif" font-size="14" lengthAdjust="spacing" textLength="124" x="224.5066" y="431.4298">ManageCapabilities</text></g><g id="elem_ManagePolicies"><ellipse cx="286.6111" cy="498.7222" fill="#F1F1F1" rx="74.1111" ry="17.2222" style="stroke:#181818;stroke-width:0.5;"/><text fill="#000000" font-family="sans-serif" font-size="14" lengthAdjust="spacing" textLength="99" x="234.1111" y="503.2388">ManagePolicies</text></g><g id="elem_ManageSecurity"><ellipse cx="286.7256" cy="568.4451" fill="#F1F1F1" rx="75.2256" ry="17.4451" style="stroke:#181818;stroke-width:0.5;"/><text fill="#000000" font-family="sans-serif" font-size="14" lengthAdjust="spacing" textLength="102" x="232.7256" y="572.9617">ManageSecurity</text></g><g id="elem_ProvideDigitalAssistance"><ellipse cx="286.3945" cy="643.3789" fill="#F1F1F1" rx="97.3945" ry="21.8789" style="stroke:#181818;stroke-width:0.5;"/><text fill="#000000" font-family="sans-serif" font-size="14" lengthAdjust="spacing" textLength="155" x="208.8945" y="647.1074">ProvideDigitalAssistance</text></g><g id="elem_ProvideMissionInsight"><ellipse cx="286.605" cy="720.721" fill="#F1F1F1" rx="89.105" ry="20.221" style="stroke:#181818;stroke-width:0.5;"/><text fill="#000000" font-family="sans-serif" font-size="14" lengthAdjust="spacing" textLength="136" x="218.605" y="724.4495">ProvideMissionInsight</text></g><g id="elem_Ships"><ellipse cx="286.734" cy="357.4517" fill="#F1F1F1" rx="36.234" ry="15.4517" style="stroke:#181818;stroke-width:0.5;"/><text fill="#000000" font-family="sans-serif" font-size="14" lengthAdjust="spacing" textLength="35" x="269.234" y="361.1802">Ships</text></g><!--entity DataEngineer--><g id="elem_DataEngineer"><ellipse cx="61" cy="14" fill="#F1F1F1" rx="8" ry="8" style="stroke:#181818;stroke-width:0.5;"/><path d="M61,22 L61,49 M48,30 L74,30 M61,49 L48,64 M61,49 L74,64 " fill="none" style="stroke:#181818;stroke-width:0.5;"/><text fill="#000000" font-family="sans-serif" font-size="14" lengthAdjust="spacing" textLength="87" x="17.5" y="80.0332">DataEngineer</text></g><!--entity DataScientist--><g id="elem_DataScientist"><ellipse cx="61" cy="127" fill="#F1F1F1" rx="8" ry="8" style="stroke:#181818;stroke-width:0.5;"/><path d="M61,135 L61,162 M48,143 L74,143 M61,162 L48,177 M61,162 L74,177 " fill="none" style="stroke:#181818;stroke-width:0.5;"/><text fill="#000000" font-family="sans-serif" font-size="14" lengthAdjust="spacing" textLength="83" x="19.5" y="193.0332">DataScientist</text></g><!--entity DataAnalyst--><g id="elem_DataAnalyst"><ellipse cx="61" cy="240" fill="#F1F1F1" rx="8" ry="8" style="stroke:#181818;stroke-width:0.5;"/><path d="M61,248 L61,275 M48,256 L74,256 M61,275 L48,290 M61,275 L74,290 " fill="none" style="stroke:#181818;stroke-width:0.5;"/><text fill="#000000" font-family="sans-serif" font-size="14" lengthAdjust="spacing" textLength="76" x="23" y="306.0332">DataAnalyst</text></g><!--entity DevOpsEngineer--><g id="elem_DevOpsEngineer"><ellipse cx="61" cy="353" fill="#F1F1F1" rx="8" ry="8" style="stroke:#181818;stroke-width:0.5;"/><path d="M61,361 L61,388 M48,369 L74,369 M61,388 L48,403 M61,388 L74,403 " fill="none" style="stroke:#181818;stroke-width:0.5;"/><text fill="#000000" font-family="sans-serif" font-size="14" lengthAdjust="spacing" textLength="108" x="7" y="419.0332">DevOpsEngineer</text></g><!--entity ITOperations--><g id="elem_ITOperations"><ellipse cx="61" cy="466" fill="#F1F1F1" rx="8" ry="8" style="stroke:#181818;stroke-width:0.5;"/><path d="M61,474 L61,501 M48,482 L74,482 M61,501 L48,516 M61,501 L74,516 " fill="none" style="stroke:#181818;stroke-width:0.5;"/><text fill="#000000" font-family="sans-serif" font-size="14" lengthAdjust="spacing" textLength="82" x="20" y="532.0332">ITOperations</text></g><!--entity SecurityOperator--><g id="elem_SecurityOperator"><ellipse cx="61" cy="579" fill="#F1F1F1" rx="8" ry="8" style="stroke:#181818;stroke-width:0.5;"/><path d="M61,587 L61,614 M48,595 L74,595 M61,614 L48,629 M61,614 L74,629 " fill="none" style="stroke:#181818;stroke-width:0.5;"/><text fill="#000000" font-family="sans-serif" font-size="14" lengthAdjust="spacing" textLength="108" x="7" y="645.0332">SecurityOperator</text></g><!--entity TacticalOperator--><g id="elem_TacticalOperator"><ellipse cx="61" cy="692" fill="#F1F1F1" rx="8" ry="8" style="stroke:#181818;stroke-width:0.5;"/><path d="M61,700 L61,727 M48,708 L74,708 M61,727 L48,742 M61,727 L74,742 " fill="none" style="stroke:#181818;stroke-width:0.5;"/><text fill="#000000" font-family="sans-serif" font-size="14" lengthAdjust="spacing" textLength="110" x="6" y="758.0332">Tactical Operator</text></g><!--link DataEngineer to ManageAIModel--><g id="link_DataEngineer_ManageAIModel"><path d="M100.24,83.8 C105.56,89.37 110.94,95.06 116,100.5 C174.08,162.95 237.2425,234.4602 266.5525,267.8602 " fill="none" id="DataEngineer-to-ManageAIModel" style="stroke:#181818;stroke-width:1.0;"/><polygon fill="#181818" points="270.51,272.37,267.5802,262.967,267.2121,268.6119,261.5672,268.2437,270.51,272.37" style="stroke:#181818;stroke-width:1.0;"/></g><!--link DataScientist to ManageAIModel--><g id="link_DataScientist_ManageAIModel"><path d="M102.73,181.56 C147.81,208.18 214.033,247.3 252.913,270.25 " fill="none" id="DataScientist-to-ManageAIModel" style="stroke:#181818;stroke-width:1.0;"/><polygon fill="#181818" points="258.08,273.3,252.3628,265.2804,253.7742,270.7584,248.2962,272.1697,258.08,273.3" style="stroke:#181818;stroke-width:1.0;"/></g><!--link DataAnalyst to ManageAIModel--><g id="link_DataAnalyst_ManageAIModel"><path d="M99.16,273.66 C130.81,276.35 171.1816,279.7813 209.7316,283.0613 " fill="none" id="DataAnalyst-to-ManageAIModel" style="stroke:#181818;stroke-width:1.0;"/><polygon fill="#181818" points="215.71,283.57,207.0815,278.8214,210.728,283.1461,206.4033,286.7926,215.71,283.57" style="stroke:#181818;stroke-width:1.0;"/></g><!--link DevOpsEngineer to ManageCapabilities--><g id="link_DevOpsEngineer_ManageCapabilities"><path d="M115.25,393.98 C147.4,400.31 182.663,407.2511 216.443,413.9011 " fill="none" id="DevOpsEngineer-to-ManageCapabilities" style="stroke:#181818;stroke-width:1.0;"/><polygon fill="#181818" points="222.33,415.06,214.2721,409.3969,217.4242,414.0942,212.7269,417.2463,222.33,415.06" style="stroke:#181818;stroke-width:1.0;"/></g><!--link ITOperations to ManageCapabilities--><g id="link_ITOperations_ManageCapabilities"><path d="M102.06,480.95 C117.56,475.17 135.5,468.74 152,463.5 C177.17,455.51 199.5447,449.2561 223.5147,442.9961 " fill="none" id="ITOperations-to-ManageCapabilities" style="stroke:#181818;stroke-width:1.0;"/><polygon fill="#181818" points="229.32,441.48,219.6013,439.884,224.4823,442.7434,221.6228,447.6244,229.32,441.48" style="stroke:#181818;stroke-width:1.0;"/></g><!--link ITOperations to ManagePolicies--><g id="link_ITOperations_ManagePolicies"><path d="M102.22,496.86 C132.76,497.13 169.5902,497.4675 206.1702,497.7875 " fill="none" id="ITOperations-to-ManagePolicies" style="stroke:#181818;stroke-width:1.0;"/><polygon fill="#181818" points="212.17,497.84,203.2053,493.7614,207.1702,497.7963,203.1354,501.7611,212.17,497.84" style="stroke:#181818;stroke-width:1.0;"/></g><!--link SecurityOperator to ManageSecurity--><g id="link_SecurityOperator_ManageSecurity"><path d="M115.25,599.73 C148.82,593.57 186.2987,586.704 220.8687,580.354 " fill="none" id="SecurityOperator-to-ManageSecurity" style="stroke:#181818;stroke-width:1.0;"/><polygon fill="#181818" points="226.77,579.27,217.1954,576.9618,221.8523,580.1733,218.6407,584.8301,226.77,579.27" style="stroke:#181818;stroke-width:1.0;"/></g><!--link TacticalOperator to ProvideDigitalAssistance--><g id="link_TacticalOperator_ProvideDigitalAssistance"><path d="M116.25,696.99 C127.93,691.89 140.28,686.79 152,682.5 C174.56,674.23 193.9787,668.1408 216.3487,661.7808 " fill="none" id="TacticalOperator-to-ProvideDigitalAssistance" style="stroke:#181818;stroke-width:1.0;"/><polygon fill="#181818" points="222.12,660.14,212.3692,658.7537,217.3106,661.5074,214.557,666.4488,222.12,660.14" style="stroke:#181818;stroke-width:1.0;"/></g><!--link TacticalOperator to ProvideMissionInsight--><g id="link_TacticalOperator_ProvideMissionInsight"><path d="M116.1,722.02 C140.52,721.8 163.9902,721.5824 191.4602,721.3424 " fill="none" id="TacticalOperator-to-ProvideMissionInsight" style="stroke:#181818;stroke-width:1.0;"/><polygon fill="#181818" points="197.46,721.29,188.4254,717.3688,192.4602,721.3337,188.4953,725.3685,197.46,721.29" style="stroke:#181818;stroke-width:1.0;"/></g><!--link DevOpsEngineer to Ships--><g id="link_DevOpsEngineer_Ships"><path d="M115.25,377.31 C157.47,372.39 209.2503,366.3746 245.4603,362.1546 " fill="none" id="DevOpsEngineer-to-Ships" style="stroke:#181818;stroke-width:1.0;"/><polygon fill="#181818" points="251.42,361.46,242.0175,358.5287,246.4536,362.0388,242.9435,366.4749,251.42,361.46" style="stroke:#181818;stroke-width:1.0;"/></g><!--SRC=[bPH1RiCW44Ntd0AbwroXajjquKMKgCu59dZiZ8J00XmfgdhtOXoxG6kdZPJ8-VEOF_2H9JQEEyqDjHV7Qp8e76d52k6quPiTE7XJBIb4i-5WUIp4K2K8bIFhPcfMOgnG86yHTFy_8tWzT3OrJAG9B4-73WqCezg0nSA_e0f5RyZTneeUJNDnWa_WJqU0JE1Sp67-9_hnrXaRmW7LIXp6zcVhlxneXz-NNjLUVaUhUoFGR_VfV0Pe6lx1Uei2h5-p1mKj5kLUroY3Gw8mxZznldoxVLv0vd1Nc7ks2qGsrIjqS2P9VbCs6YsMnyR9cKIzVv1ns6jSDiXHInBf49EqrZPXifRJROfQJbB0yziMjKsukUtHw2lLkAEM7CZ2MXy4A871OAaOMkItBrYjhiXDz-JhMfNA3c-Cs36jFBJx1P-zgWjrOmBXQIdvx-8dOry0]--></g></svg>