<?xml version="1.0" encoding="UTF-8" standalone="no"?><svg xmlns="http://www.w3.org/2000/svg" xmlns:xlink="http://www.w3.org/1999/xlink" contentScriptType="application/ecmascript" contentStyleType="text/css" height="823px" preserveAspectRatio="none" style="width:425px;height:823px;" version="1.1" viewBox="0 0 425 823" width="425px" zoomAndPan="magnify"><defs><filter height="300%" id="fbrowhaw6rfl9" width="300%" x="-1" y="-1"><feGaussianBlur result="blurOut" stdDeviation="2.0"/><feColorMatrix in="blurOut" result="blurOut2" type="matrix" values="0 0 0 0 0 0 0 0 0 0 0 0 0 0 0 0 0 0 .4 0"/><feOffset dx="4.0" dy="4.0" in="blurOut2" result="blurOut3"/><feBlend in="SourceGraphic" in2="blurOut3" mode="normal"/></filter></defs><g><!--cluster Sentient Agent Bundle Resources--><rect fill="#BBAAFF" filter="url(#fbrowhaw6rfl9)" height="509" style="stroke: #000000; stroke-width: 1.5;" width="254" x="160" y="281.5"/><text fill="#000000" font-family="sans-serif" font-size="14" font-weight="bold" lengthAdjust="spacingAndGlyphs" textLength="238" x="168" y="298.0332">Sentient Agent Bundle Resources</text><ellipse cx="286.9949" cy="334.399" fill="#FEFECE" filter="url(#fbrowhaw6rfl9)" rx="69.9949" ry="16.399" style="stroke: #A80036; stroke-width: 1.5;"/><text fill="#000000" font-family="sans-serif" font-size="14" lengthAdjust="spacingAndGlyphs" textLength="101" x="236.4949" y="339.7037">ManageAIModel</text><ellipse cx="287.0399" cy="470.708" fill="#FEFECE" filter="url(#fbrowhaw6rfl9)" rx="79.0399" ry="18.208" style="stroke: #A80036; stroke-width: 1.5;"/><text fill="#000000" font-family="sans-serif" font-size="14" lengthAdjust="spacingAndGlyphs" textLength="124" x="225.0399" y="476.0127">ManageCapabilities</text><ellipse cx="287.2443" cy="539.7489" fill="#FEFECE" filter="url(#fbrowhaw6rfl9)" rx="69.2443" ry="16.2489" style="stroke: #A80036; stroke-width: 1.5;"/><text fill="#000000" font-family="sans-serif" font-size="14" lengthAdjust="spacingAndGlyphs" textLength="99" x="237.7443" y="545.0536">ManagePolicies</text><ellipse cx="286.8726" cy="607.4745" fill="#FEFECE" filter="url(#fbrowhaw6rfl9)" rx="70.3726" ry="16.4745" style="stroke: #A80036; stroke-width: 1.5;"/><text fill="#000000" font-family="sans-serif" font-size="14" lengthAdjust="spacingAndGlyphs" textLength="102" x="235.8726" y="612.7792">ManageSecurity</text><ellipse cx="287.1309" cy="680.3262" fill="#FEFECE" filter="url(#fbrowhaw6rfl9)" rx="92.1309" ry="20.8262" style="stroke: #A80036; stroke-width: 1.5;"/><text fill="#000000" font-family="sans-serif" font-size="14" lengthAdjust="spacingAndGlyphs" textLength="155" x="209.6309" y="685.6309">ProvideDigitalAssistance</text><ellipse cx="287.0066" cy="755.7013" fill="#FEFECE" filter="url(#fbrowhaw6rfl9)" rx="84.0066" ry="19.2013" style="stroke: #A80036; stroke-width: 1.5;"/><text fill="#000000" font-family="sans-serif" font-size="14" lengthAdjust="spacingAndGlyphs" textLength="136" x="219.0066" y="761.006">ProvideMissionInsight</text><ellipse cx="287.2487" cy="401.4517" fill="#FEFECE" filter="url(#fbrowhaw6rfl9)" rx="27.7487" ry="15.4517" style="stroke: #A80036; stroke-width: 1.5;"/><text fill="#000000" font-family="sans-serif" font-size="14" lengthAdjust="spacingAndGlyphs" textLength="35" x="269.7487" y="406.7564">Ships</text><!--entity DataEngineer--><ellipse cx="61" cy="18" fill="#FEFECE" filter="url(#fbrowhaw6rfl9)" rx="8" ry="8" style="stroke: #A80036; stroke-width: 2.0;"/><path d="M61,26 L61,53 M48,34 L74,34 M61,53 L48,68 M61,53 L74,68 " fill="none" filter="url(#fbrowhaw6rfl9)" style="stroke: #A80036; stroke-width: 2.0;"/><text fill="#000000" font-family="sans-serif" font-size="14" lengthAdjust="spacingAndGlyphs" textLength="87" x="17.5" y="89.5332">DataEngineer</text><!--entity DataScientist--><ellipse cx="61" cy="138" fill="#FEFECE" filter="url(#fbrowhaw6rfl9)" rx="8" ry="8" style="stroke: #A80036; stroke-width: 2.0;"/><path d="M61,146 L61,173 M48,154 L74,154 M61,173 L48,188 M61,173 L74,188 " fill="none" filter="url(#fbrowhaw6rfl9)" style="stroke: #A80036; stroke-width: 2.0;"/><text fill="#000000" font-family="sans-serif" font-size="14" lengthAdjust="spacingAndGlyphs" textLength="83" x="19.5" y="209.5332">DataScientist</text><!--entity DataAnalyst--><ellipse cx="61" cy="258" fill="#FEFECE" filter="url(#fbrowhaw6rfl9)" rx="8" ry="8" style="stroke: #A80036; stroke-width: 2.0;"/><path d="M61,266 L61,293 M48,274 L74,274 M61,293 L48,308 M61,293 L74,308 " fill="none" filter="url(#fbrowhaw6rfl9)" style="stroke: #A80036; stroke-width: 2.0;"/><text fill="#000000" font-family="sans-serif" font-size="14" lengthAdjust="spacingAndGlyphs" textLength="76" x="23" y="329.5332">DataAnalyst</text><!--entity DevOpsEngineer--><ellipse cx="61" cy="378" fill="#FEFECE" filter="url(#fbrowhaw6rfl9)" rx="8" ry="8" style="stroke: #A80036; stroke-width: 2.0;"/><path d="M61,386 L61,413 M48,394 L74,394 M61,413 L48,428 M61,413 L74,428 " fill="none" filter="url(#fbrowhaw6rfl9)" style="stroke: #A80036; stroke-width: 2.0;"/><text fill="#000000" font-family="sans-serif" font-size="14" lengthAdjust="spacingAndGlyphs" textLength="108" x="7" y="449.5332">DevOpsEngineer</text><!--entity ITOperations--><ellipse cx="61" cy="498" fill="#FEFECE" filter="url(#fbrowhaw6rfl9)" rx="8" ry="8" style="stroke: #A80036; stroke-width: 2.0;"/><path d="M61,506 L61,533 M48,514 L74,514 M61,533 L48,548 M61,533 L74,548 " fill="none" filter="url(#fbrowhaw6rfl9)" style="stroke: #A80036; stroke-width: 2.0;"/><text fill="#000000" font-family="sans-serif" font-size="14" lengthAdjust="spacingAndGlyphs" textLength="82" x="20" y="569.5332">ITOperations</text><!--entity SecurityOperator--><ellipse cx="61" cy="618" fill="#FEFECE" filter="url(#fbrowhaw6rfl9)" rx="8" ry="8" style="stroke: #A80036; stroke-width: 2.0;"/><path d="M61,626 L61,653 M48,634 L74,634 M61,653 L48,668 M61,653 L74,668 " fill="none" filter="url(#fbrowhaw6rfl9)" style="stroke: #A80036; stroke-width: 2.0;"/><text fill="#000000" font-family="sans-serif" font-size="14" lengthAdjust="spacingAndGlyphs" textLength="108" x="7" y="689.5332">SecurityOperator</text><!--entity TacticalOperator--><ellipse cx="61" cy="738" fill="#FEFECE" filter="url(#fbrowhaw6rfl9)" rx="8" ry="8" style="stroke: #A80036; stroke-width: 2.0;"/><path d="M61,746 L61,773 M48,754 L74,754 M61,773 L48,788 M61,773 L74,788 " fill="none" filter="url(#fbrowhaw6rfl9)" style="stroke: #A80036; stroke-width: 2.0;"/><text fill="#000000" font-family="sans-serif" font-size="14" lengthAdjust="spacingAndGlyphs" textLength="110" x="6" y="809.5332">Tactical Operator</text><!--link DataEngineer to ManageAIModel--><path d="M101.0852,93.053 C106.178,98.851 111.266,104.776 116,110.5 C176.19,183.279 242.488,273.976 271.293,313.952 " fill="none" id="DataEngineer-ManageAIModel" style="stroke: #A80036; stroke-width: 1.0;"/><polygon fill="#A80036" points="274.29,318.116,272.2808,308.4743,271.3699,314.0573,265.7869,313.1464,274.29,318.116" style="stroke: #A80036; stroke-width: 1.0;"/><!--link DataScientist to ManageAIModel--><path d="M102.5647,200.199 C148.424,233.775 221.707,287.429 260.302,315.685 " fill="none" id="DataScientist-ManageAIModel" style="stroke: #A80036; stroke-width: 1.0;"/><polygon fill="#A80036" points="264.38,318.671,259.4801,310.1275,260.3453,315.7178,254.755,316.5831,264.38,318.671" style="stroke: #A80036; stroke-width: 1.0;"/><!--link DataAnalyst to ManageAIModel--><path d="M99.2405,297.815 C134.125,304.667 186.817,315.018 227.347,322.979 " fill="none" id="DataAnalyst-ManageAIModel" style="stroke: #A80036; stroke-width: 1.0;"/><polygon fill="#A80036" points="232.73,324.036,224.6686,318.378,227.8236,323.0733,223.1282,326.2283,232.73,324.036" style="stroke: #A80036; stroke-width: 1.0;"/><!--link DevOpsEngineer to ManageCapabilities--><path d="M115.085,424.719 C149.735,434 194.903,446.099 230.103,455.527 " fill="none" id="DevOpsEngineer-ManageCapabilities" style="stroke: #A80036; stroke-width: 1.0;"/><polygon fill="#A80036" points="235.221,456.899,227.5613,450.7079,230.391,455.6062,225.4928,458.4358,235.221,456.899" style="stroke: #A80036; stroke-width: 1.0;"/><!--link ITOperations to ManageCapabilities--><path d="M102.0467,519.773 C137.575,510.257 189.854,496.253 229.608,485.605 " fill="none" id="ITOperations-ManageCapabilities" style="stroke: #A80036; stroke-width: 1.0;"/><polygon fill="#A80036" points="234.884,484.192,225.1558,482.6552,230.054,485.4848,227.2243,490.3831,234.884,484.192" style="stroke: #A80036; stroke-width: 1.0;"/><!--link ITOperations to ManagePolicies--><path d="M102.0467,532.109 C132.872,533.348 176.307,535.093 213.231,536.576 " fill="none" id="ITOperations-ManagePolicies" style="stroke: #A80036; stroke-width: 1.0;"/><polygon fill="#A80036" points="218.629,536.793,209.7962,532.4362,213.633,536.593,209.4762,540.4298,218.629,536.793" style="stroke: #A80036; stroke-width: 1.0;"/><!--link SecurityOperator to ManageSecurity--><path d="M115.085,640.31 C148.625,633.871 192.02,625.541 226.69,618.885 " fill="none" id="SecurityOperator-ManageSecurity" style="stroke: #A80036; stroke-width: 1.0;"/><polygon fill="#A80036" points="231.74,617.916,222.1472,615.685,226.8297,618.8589,223.6558,623.5415,231.74,617.916" style="stroke: #A80036; stroke-width: 1.0;"/><!--link TacticalOperator to ProvideDigitalAssistance--><path d="M116.184,737.1259 C127.756,730.7621 140.087,724.5281 152,719.5 C172.96,710.653 196.572,703.05 218.071,696.967 " fill="none" id="TacticalOperator-ProvideDigitalAssistance" style="stroke: #A80036; stroke-width: 1.0;"/><polygon fill="#A80036" points="222.91,695.613,213.1651,694.1855,218.0949,696.96,215.3203,701.8897,222.91,695.613" style="stroke: #A80036; stroke-width: 1.0;"/><!--link TacticalOperator to ProvideMissionInsight--><path d="M116.224,766.8689 C141.578,765.1711 172.371,763.1091 200.735,761.2097 " fill="none" id="TacticalOperator-ProvideMissionInsight" style="stroke: #A80036; stroke-width: 1.0;"/><polygon fill="#A80036" points="206.001,760.8571,196.7537,757.4678,201.0122,761.1914,197.2886,765.4499,206.001,760.8571" style="stroke: #A80036; stroke-width: 1.0;"/><!--link DevOpsEngineer to Ships--><path d="M115.085,408.367 C158.367,406.628 218.059,404.23 254.236,402.776 " fill="none" id="DevOpsEngineer-Ships" style="stroke: #A80036; stroke-width: 1.0;"/><polygon fill="#A80036" points="259.399,402.569,250.2452,398.9348,254.4031,402.7704,250.5675,406.9283,259.399,402.569" style="stroke: #A80036; stroke-width: 1.0;"/><!--
@startuml

left to right direction
Actor "DataEngineer" as DataEngineer
Actor "DataScientist" as DataScientist
Actor "DataAnalyst" as DataAnalyst
Actor "DevOpsEngineer" as DevOpsEngineer
Actor "ITOperations" as ITOperations
Actor "ITOperations" as ITOperations
Actor "SecurityOperator" as SecurityOperator
Actor "TacticalOperator" as TacticalOperator
Actor "Tactical Operator" as TacticalOperator
Actor "DevOpsEngineer" as DevOpsEngineer


rectangle "Sentient Agent Bundle Resources" #bbaaff {
usecase "ManageAIModel" as ManageAIModel
    DataEngineer - -> ManageAIModel
    DataScientist - -> ManageAIModel
    DataAnalyst - -> ManageAIModel
    usecase "ManageCapabilities" as ManageCapabilities
    DevOpsEngineer - -> ManageCapabilities
    ITOperations - -> ManageCapabilities
    usecase "ManagePolicies" as ManagePolicies
    ITOperations - -> ManagePolicies
    usecase "ManageSecurity" as ManageSecurity
    SecurityOperator - -> ManageSecurity
    usecase "ProvideDigitalAssistance" as ProvideDigitalAssistance
    TacticalOperator - -> ProvideDigitalAssistance
    usecase "ProvideMissionInsight" as ProvideMissionInsight
    TacticalOperator - -> ProvideMissionInsight
    usecase "Ships" as Ships
    DevOpsEngineer - -> Ships
    }


@enduml

PlantUML version 1.2019.05(Sat Apr 20 09:45:36 PDT 2019)
(GPL source distribution)
Java Runtime: Java(TM) SE Runtime Environment
JVM: Java HotSpot(TM) Client VM
Java Version: 1.8.0_271-b09
Operating System: Windows 10
OS Version: 10.0
Default Encoding: Cp1252
Language: en
Country: US
--></g></svg>