<?xml version="1.0" encoding="UTF-8" standalone="no"?><svg xmlns="http://www.w3.org/2000/svg" xmlns:xlink="http://www.w3.org/1999/xlink" contentScriptType="application/ecmascript" contentStyleType="text/css" height="1106px" preserveAspectRatio="none" style="width:1164px;height:1106px;" version="1.1" viewBox="0 0 1164 1106" width="1164px" zoomAndPan="magnify"><defs><filter height="300%" id="fxcf16yodezej" width="300%" x="-1" y="-1"><feGaussianBlur result="blurOut" stdDeviation="2.0"/><feColorMatrix in="blurOut" result="blurOut2" type="matrix" values="0 0 0 0 0 0 0 0 0 0 0 0 0 0 0 0 0 0 .4 0"/><feOffset dx="4.0" dy="4.0" in="blurOut2" result="blurOut3"/><feBlend in="SourceGraphic" in2="blurOut3" mode="normal"/></filter></defs><g><line style="stroke: #A80036; stroke-width: 1.0; stroke-dasharray: 5.0,5.0;" x1="54" x2="54" y1="87.6094" y2="1018.1563"/><line style="stroke: #A80036; stroke-width: 1.0; stroke-dasharray: 5.0,5.0;" x1="155" x2="155" y1="87.6094" y2="1018.1563"/><line style="stroke: #A80036; stroke-width: 1.0; stroke-dasharray: 5.0,5.0;" x1="251" x2="251" y1="87.6094" y2="1018.1563"/><line style="stroke: #A80036; stroke-width: 1.0; stroke-dasharray: 5.0,5.0;" x1="359" x2="359" y1="87.6094" y2="1018.1563"/><line style="stroke: #A80036; stroke-width: 1.0; stroke-dasharray: 5.0,5.0;" x1="470" x2="470" y1="87.6094" y2="1018.1563"/><line style="stroke: #A80036; stroke-width: 1.0; stroke-dasharray: 5.0,5.0;" x1="581" x2="581" y1="87.6094" y2="1018.1563"/><line style="stroke: #A80036; stroke-width: 1.0; stroke-dasharray: 5.0,5.0;" x1="704" x2="704" y1="87.6094" y2="1018.1563"/><line style="stroke: #A80036; stroke-width: 1.0; stroke-dasharray: 5.0,5.0;" x1="885" x2="885" y1="87.6094" y2="1018.1563"/><line style="stroke: #A80036; stroke-width: 1.0; stroke-dasharray: 5.0,5.0;" x1="1029" x2="1029" y1="87.6094" y2="1018.1563"/><line style="stroke: #A80036; stroke-width: 1.0; stroke-dasharray: 5.0,5.0;" x1="1129" x2="1129" y1="87.6094" y2="1018.1563"/><text fill="#000000" font-family="sans-serif" font-size="14" lengthAdjust="spacingAndGlyphs" textLength="87" x="8" y="84.5332">DataEngineer</text><ellipse cx="54.5" cy="13" fill="#FEFECE" filter="url(#fxcf16yodezej)" rx="8" ry="8" style="stroke: #A80036; stroke-width: 2.0;"/><path d="M54.5,21 L54.5,48 M41.5,29 L67.5,29 M54.5,48 L41.5,63 M54.5,48 L67.5,63 " fill="none" filter="url(#fxcf16yodezej)" style="stroke: #A80036; stroke-width: 2.0;"/><text fill="#000000" font-family="sans-serif" font-size="14" lengthAdjust="spacingAndGlyphs" textLength="87" x="8" y="1031.6895">DataEngineer</text><ellipse cx="54.5" cy="1044.7656" fill="#FEFECE" filter="url(#fxcf16yodezej)" rx="8" ry="8" style="stroke: #A80036; stroke-width: 2.0;"/><path d="M54.5,1052.7656 L54.5,1079.7656 M41.5,1060.7656 L67.5,1060.7656 M54.5,1079.7656 L41.5,1094.7656 M54.5,1079.7656 L67.5,1094.7656 " fill="none" filter="url(#fxcf16yodezej)" style="stroke: #A80036; stroke-width: 2.0;"/><text fill="#000000" font-family="sans-serif" font-size="14" lengthAdjust="spacingAndGlyphs" textLength="83" x="111" y="84.5332">DataScientist</text><ellipse cx="155.5" cy="13" fill="#FEFECE" filter="url(#fxcf16yodezej)" rx="8" ry="8" style="stroke: #A80036; stroke-width: 2.0;"/><path d="M155.5,21 L155.5,48 M142.5,29 L168.5,29 M155.5,48 L142.5,63 M155.5,48 L168.5,63 " fill="none" filter="url(#fxcf16yodezej)" style="stroke: #A80036; stroke-width: 2.0;"/><text fill="#000000" font-family="sans-serif" font-size="14" lengthAdjust="spacingAndGlyphs" textLength="83" x="111" y="1031.6895">DataScientist</text><ellipse cx="155.5" cy="1044.7656" fill="#FEFECE" filter="url(#fxcf16yodezej)" rx="8" ry="8" style="stroke: #A80036; stroke-width: 2.0;"/><path d="M155.5,1052.7656 L155.5,1079.7656 M142.5,1060.7656 L168.5,1060.7656 M155.5,1079.7656 L142.5,1094.7656 M155.5,1079.7656 L168.5,1094.7656 " fill="none" filter="url(#fxcf16yodezej)" style="stroke: #A80036; stroke-width: 2.0;"/><text fill="#000000" font-family="sans-serif" font-size="14" lengthAdjust="spacingAndGlyphs" textLength="76" x="210" y="84.5332">DataAnalyst</text><ellipse cx="251" cy="13" fill="#FEFECE" filter="url(#fxcf16yodezej)" rx="8" ry="8" style="stroke: #A80036; stroke-width: 2.0;"/><path d="M251,21 L251,48 M238,29 L264,29 M251,48 L238,63 M251,48 L264,63 " fill="none" filter="url(#fxcf16yodezej)" style="stroke: #A80036; stroke-width: 2.0;"/><text fill="#000000" font-family="sans-serif" font-size="14" lengthAdjust="spacingAndGlyphs" textLength="76" x="210" y="1031.6895">DataAnalyst</text><ellipse cx="251" cy="1044.7656" fill="#FEFECE" filter="url(#fxcf16yodezej)" rx="8" ry="8" style="stroke: #A80036; stroke-width: 2.0;"/><path d="M251,1052.7656 L251,1079.7656 M238,1060.7656 L264,1060.7656 M251,1079.7656 L238,1094.7656 M251,1079.7656 L264,1094.7656 " fill="none" filter="url(#fxcf16yodezej)" style="stroke: #A80036; stroke-width: 2.0;"/><text fill="#000000" font-family="sans-serif" font-size="14" lengthAdjust="spacingAndGlyphs" textLength="108" x="302" y="84.5332">DevOpsEngineer</text><ellipse cx="359" cy="13" fill="#FEFECE" filter="url(#fxcf16yodezej)" rx="8" ry="8" style="stroke: #A80036; stroke-width: 2.0;"/><path d="M359,21 L359,48 M346,29 L372,29 M359,48 L346,63 M359,48 L372,63 " fill="none" filter="url(#fxcf16yodezej)" style="stroke: #A80036; stroke-width: 2.0;"/><text fill="#000000" font-family="sans-serif" font-size="14" lengthAdjust="spacingAndGlyphs" textLength="108" x="302" y="1031.6895">DevOpsEngineer</text><ellipse cx="359" cy="1044.7656" fill="#FEFECE" filter="url(#fxcf16yodezej)" rx="8" ry="8" style="stroke: #A80036; stroke-width: 2.0;"/><path d="M359,1052.7656 L359,1079.7656 M346,1060.7656 L372,1060.7656 M359,1079.7656 L346,1094.7656 M359,1079.7656 L372,1094.7656 " fill="none" filter="url(#fxcf16yodezej)" style="stroke: #A80036; stroke-width: 2.0;"/><text fill="#000000" font-family="sans-serif" font-size="14" lengthAdjust="spacingAndGlyphs" textLength="82" x="426" y="84.5332">ITOperations</text><ellipse cx="470" cy="13" fill="#FEFECE" filter="url(#fxcf16yodezej)" rx="8" ry="8" style="stroke: #A80036; stroke-width: 2.0;"/><path d="M470,21 L470,48 M457,29 L483,29 M470,48 L457,63 M470,48 L483,63 " fill="none" filter="url(#fxcf16yodezej)" style="stroke: #A80036; stroke-width: 2.0;"/><text fill="#000000" font-family="sans-serif" font-size="14" lengthAdjust="spacingAndGlyphs" textLength="82" x="426" y="1031.6895">ITOperations</text><ellipse cx="470" cy="1044.7656" fill="#FEFECE" filter="url(#fxcf16yodezej)" rx="8" ry="8" style="stroke: #A80036; stroke-width: 2.0;"/><path d="M470,1052.7656 L470,1079.7656 M457,1060.7656 L483,1060.7656 M470,1079.7656 L457,1094.7656 M470,1079.7656 L483,1094.7656 " fill="none" filter="url(#fxcf16yodezej)" style="stroke: #A80036; stroke-width: 2.0;"/><text fill="#000000" font-family="sans-serif" font-size="14" lengthAdjust="spacingAndGlyphs" textLength="108" x="524" y="84.5332">SecurityOperator</text><ellipse cx="581" cy="13" fill="#FEFECE" filter="url(#fxcf16yodezej)" rx="8" ry="8" style="stroke: #A80036; stroke-width: 2.0;"/><path d="M581,21 L581,48 M568,29 L594,29 M581,48 L568,63 M581,48 L594,63 " fill="none" filter="url(#fxcf16yodezej)" style="stroke: #A80036; stroke-width: 2.0;"/><text fill="#000000" font-family="sans-serif" font-size="14" lengthAdjust="spacingAndGlyphs" textLength="108" x="524" y="1031.6895">SecurityOperator</text><ellipse cx="581" cy="1044.7656" fill="#FEFECE" filter="url(#fxcf16yodezej)" rx="8" ry="8" style="stroke: #A80036; stroke-width: 2.0;"/><path d="M581,1052.7656 L581,1079.7656 M568,1060.7656 L594,1060.7656 M581,1079.7656 L568,1094.7656 M581,1079.7656 L594,1094.7656 " fill="none" filter="url(#fxcf16yodezej)" style="stroke: #A80036; stroke-width: 2.0;"/><text fill="#000000" font-family="sans-serif" font-size="14" lengthAdjust="spacingAndGlyphs" textLength="106" x="648" y="84.5332">TacticalOperator</text><ellipse cx="704" cy="13" fill="#FEFECE" filter="url(#fxcf16yodezej)" rx="8" ry="8" style="stroke: #A80036; stroke-width: 2.0;"/><path d="M704,21 L704,48 M691,29 L717,29 M704,48 L691,63 M704,48 L717,63 " fill="none" filter="url(#fxcf16yodezej)" style="stroke: #A80036; stroke-width: 2.0;"/><text fill="#000000" font-family="sans-serif" font-size="14" lengthAdjust="spacingAndGlyphs" textLength="106" x="648" y="1031.6895">TacticalOperator</text><ellipse cx="704" cy="1044.7656" fill="#FEFECE" filter="url(#fxcf16yodezej)" rx="8" ry="8" style="stroke: #A80036; stroke-width: 2.0;"/><path d="M704,1052.7656 L704,1079.7656 M691,1060.7656 L717,1060.7656 M704,1079.7656 L691,1094.7656 M704,1079.7656 L717,1094.7656 " fill="none" filter="url(#fxcf16yodezej)" style="stroke: #A80036; stroke-width: 2.0;"/><rect fill="#FEFECE" filter="url(#fxcf16yodezej)" height="31.6094" style="stroke: #A80036; stroke-width: 1.5;" width="227" x="770" y="51"/><text fill="#000000" font-family="sans-serif" font-size="14" lengthAdjust="spacingAndGlyphs" textLength="213" x="777" y="72.5332">Sentient Agent Bundle Resources</text><rect fill="#FEFECE" filter="url(#fxcf16yodezej)" height="31.6094" style="stroke: #A80036; stroke-width: 1.5;" width="227" x="770" y="1017.1563"/><text fill="#000000" font-family="sans-serif" font-size="14" lengthAdjust="spacingAndGlyphs" textLength="213" x="777" y="1038.6895">Sentient Agent Bundle Resources</text><rect fill="#FEFECE" filter="url(#fxcf16yodezej)" height="31.6094" style="stroke: #A80036; stroke-width: 1.5;" width="33" x="1011" y="51"/><text fill="#000000" font-family="sans-serif" font-size="14" lengthAdjust="spacingAndGlyphs" textLength="19" x="1018" y="72.5332">bin</text><rect fill="#FEFECE" filter="url(#fxcf16yodezej)" height="31.6094" style="stroke: #A80036; stroke-width: 1.5;" width="33" x="1011" y="1017.1563"/><text fill="#000000" font-family="sans-serif" font-size="14" lengthAdjust="spacingAndGlyphs" textLength="19" x="1018" y="1038.6895">bin</text><rect fill="#FEFECE" filter="url(#fxcf16yodezej)" height="31.6094" style="stroke: #A80036; stroke-width: 1.5;" width="51" x="1102" y="51"/><text fill="#000000" font-family="sans-serif" font-size="14" lengthAdjust="spacingAndGlyphs" textLength="37" x="1109" y="72.5332">REST</text><rect fill="#FEFECE" filter="url(#fxcf16yodezej)" height="31.6094" style="stroke: #A80036; stroke-width: 1.5;" width="51" x="1102" y="1017.1563"/><text fill="#000000" font-family="sans-serif" font-size="14" lengthAdjust="spacingAndGlyphs" textLength="37" x="1109" y="1038.6895">REST</text><polygon fill="#A80036" points="873.5,115.9609,883.5,119.9609,873.5,123.9609,877.5,119.9609" style="stroke: #A80036; stroke-width: 1.0;"/><line style="stroke: #A80036; stroke-width: 1.0;" x1="54.5" x2="879.5" y1="119.9609" y2="119.9609"/><text fill="#000000" font-family="sans-serif" font-size="13" lengthAdjust="spacingAndGlyphs" textLength="101" x="61.5" y="115.1045">Manage AI Model</text><polygon fill="#A80036" points="1017.5,146.3125,1027.5,150.3125,1017.5,154.3125,1021.5,150.3125" style="stroke: #A80036; stroke-width: 1.0;"/><line style="stroke: #A80036; stroke-width: 1.0;" x1="885.5" x2="1023.5" y1="150.3125" y2="150.3125"/><text fill="#000000" font-family="sans-serif" font-size="13" lengthAdjust="spacingAndGlyphs" textLength="66" x="892.5" y="145.4561">aimodel list</text><polygon fill="#A80036" points="1117.5,176.6641,1127.5,180.6641,1117.5,184.6641,1121.5,180.6641" style="stroke: #A80036; stroke-width: 1.0;"/><line style="stroke: #A80036; stroke-width: 1.0;" x1="1029.5" x2="1123.5" y1="180.6641" y2="180.6641"/><text fill="#000000" font-family="sans-serif" font-size="13" lengthAdjust="spacingAndGlyphs" textLength="66" x="1036.5" y="175.8076">aimodel/list</text><polygon fill="#A80036" points="873.5,207.0156,883.5,211.0156,873.5,215.0156,877.5,211.0156" style="stroke: #A80036; stroke-width: 1.0;"/><line style="stroke: #A80036; stroke-width: 1.0;" x1="155.5" x2="879.5" y1="211.0156" y2="211.0156"/><text fill="#000000" font-family="sans-serif" font-size="13" lengthAdjust="spacingAndGlyphs" textLength="101" x="162.5" y="206.1592">Manage AI Model</text><polygon fill="#A80036" points="1017.5,237.3672,1027.5,241.3672,1017.5,245.3672,1021.5,241.3672" style="stroke: #A80036; stroke-width: 1.0;"/><line style="stroke: #A80036; stroke-width: 1.0;" x1="885.5" x2="1023.5" y1="241.3672" y2="241.3672"/><text fill="#000000" font-family="sans-serif" font-size="13" lengthAdjust="spacingAndGlyphs" textLength="66" x="892.5" y="236.5107">aimodel list</text><polygon fill="#A80036" points="1117.5,267.7188,1127.5,271.7188,1117.5,275.7188,1121.5,271.7188" style="stroke: #A80036; stroke-width: 1.0;"/><line style="stroke: #A80036; stroke-width: 1.0;" x1="1029.5" x2="1123.5" y1="271.7188" y2="271.7188"/><text fill="#000000" font-family="sans-serif" font-size="13" lengthAdjust="spacingAndGlyphs" textLength="66" x="1036.5" y="266.8623">aimodel/list</text><polygon fill="#A80036" points="873.5,298.0703,883.5,302.0703,873.5,306.0703,877.5,302.0703" style="stroke: #A80036; stroke-width: 1.0;"/><line style="stroke: #A80036; stroke-width: 1.0;" x1="251" x2="879.5" y1="302.0703" y2="302.0703"/><text fill="#000000" font-family="sans-serif" font-size="13" lengthAdjust="spacingAndGlyphs" textLength="101" x="258" y="297.2139">Manage AI Model</text><polygon fill="#A80036" points="1017.5,328.4219,1027.5,332.4219,1017.5,336.4219,1021.5,332.4219" style="stroke: #A80036; stroke-width: 1.0;"/><line style="stroke: #A80036; stroke-width: 1.0;" x1="885.5" x2="1023.5" y1="332.4219" y2="332.4219"/><text fill="#000000" font-family="sans-serif" font-size="13" lengthAdjust="spacingAndGlyphs" textLength="66" x="892.5" y="327.5654">aimodel list</text><polygon fill="#A80036" points="1117.5,358.7734,1127.5,362.7734,1117.5,366.7734,1121.5,362.7734" style="stroke: #A80036; stroke-width: 1.0;"/><line style="stroke: #A80036; stroke-width: 1.0;" x1="1029.5" x2="1123.5" y1="362.7734" y2="362.7734"/><text fill="#000000" font-family="sans-serif" font-size="13" lengthAdjust="spacingAndGlyphs" textLength="66" x="1036.5" y="357.917">aimodel/list</text><polygon fill="#A80036" points="873.5,389.125,883.5,393.125,873.5,397.125,877.5,393.125" style="stroke: #A80036; stroke-width: 1.0;"/><line style="stroke: #A80036; stroke-width: 1.0;" x1="359" x2="879.5" y1="393.125" y2="393.125"/><text fill="#000000" font-family="sans-serif" font-size="13" lengthAdjust="spacingAndGlyphs" textLength="117" x="366" y="388.2686">Manage Capabilities</text><polygon fill="#A80036" points="1017.5,419.4766,1027.5,423.4766,1017.5,427.4766,1021.5,423.4766" style="stroke: #A80036; stroke-width: 1.0;"/><line style="stroke: #A80036; stroke-width: 1.0;" x1="885.5" x2="1023.5" y1="423.4766" y2="423.4766"/><text fill="#000000" font-family="sans-serif" font-size="13" lengthAdjust="spacingAndGlyphs" textLength="76" x="892.5" y="418.6201">capability list</text><polygon fill="#A80036" points="1117.5,449.8281,1127.5,453.8281,1117.5,457.8281,1121.5,453.8281" style="stroke: #A80036; stroke-width: 1.0;"/><line style="stroke: #A80036; stroke-width: 1.0;" x1="1029.5" x2="1123.5" y1="453.8281" y2="453.8281"/><text fill="#000000" font-family="sans-serif" font-size="13" lengthAdjust="spacingAndGlyphs" textLength="76" x="1036.5" y="448.9717">capability/list</text><polygon fill="#A80036" points="873.5,480.1797,883.5,484.1797,873.5,488.1797,877.5,484.1797" style="stroke: #A80036; stroke-width: 1.0;"/><line style="stroke: #A80036; stroke-width: 1.0;" x1="359" x2="879.5" y1="484.1797" y2="484.1797"/><text fill="#000000" font-family="sans-serif" font-size="13" lengthAdjust="spacingAndGlyphs" textLength="33" x="366" y="479.3232">Ships</text><polygon fill="#A80036" points="1017.5,510.5313,1027.5,514.5313,1017.5,518.5313,1021.5,514.5313" style="stroke: #A80036; stroke-width: 1.0;"/><line style="stroke: #A80036; stroke-width: 1.0;" x1="885.5" x2="1023.5" y1="514.5313" y2="514.5313"/><text fill="#000000" font-family="sans-serif" font-size="13" lengthAdjust="spacingAndGlyphs" textLength="73" x="892.5" y="509.6748">sabundle list</text><polygon fill="#A80036" points="1117.5,540.8828,1127.5,544.8828,1117.5,548.8828,1121.5,544.8828" style="stroke: #A80036; stroke-width: 1.0;"/><line style="stroke: #A80036; stroke-width: 1.0;" x1="1029.5" x2="1123.5" y1="544.8828" y2="544.8828"/><text fill="#000000" font-family="sans-serif" font-size="13" lengthAdjust="spacingAndGlyphs" textLength="73" x="1036.5" y="540.0264">sabundle/list</text><polygon fill="#A80036" points="873.5,571.2344,883.5,575.2344,873.5,579.2344,877.5,575.2344" style="stroke: #A80036; stroke-width: 1.0;"/><line style="stroke: #A80036; stroke-width: 1.0;" x1="470" x2="879.5" y1="575.2344" y2="575.2344"/><text fill="#000000" font-family="sans-serif" font-size="13" lengthAdjust="spacingAndGlyphs" textLength="117" x="477" y="570.3779">Manage Capabilities</text><polygon fill="#A80036" points="1017.5,601.5859,1027.5,605.5859,1017.5,609.5859,1021.5,605.5859" style="stroke: #A80036; stroke-width: 1.0;"/><line style="stroke: #A80036; stroke-width: 1.0;" x1="885.5" x2="1023.5" y1="605.5859" y2="605.5859"/><text fill="#000000" font-family="sans-serif" font-size="13" lengthAdjust="spacingAndGlyphs" textLength="76" x="892.5" y="600.7295">capability list</text><polygon fill="#A80036" points="1117.5,631.9375,1127.5,635.9375,1117.5,639.9375,1121.5,635.9375" style="stroke: #A80036; stroke-width: 1.0;"/><line style="stroke: #A80036; stroke-width: 1.0;" x1="1029.5" x2="1123.5" y1="635.9375" y2="635.9375"/><text fill="#000000" font-family="sans-serif" font-size="13" lengthAdjust="spacingAndGlyphs" textLength="76" x="1036.5" y="631.0811">capability/list</text><polygon fill="#A80036" points="873.5,662.2891,883.5,666.2891,873.5,670.2891,877.5,666.2891" style="stroke: #A80036; stroke-width: 1.0;"/><line style="stroke: #A80036; stroke-width: 1.0;" x1="470" x2="879.5" y1="666.2891" y2="666.2891"/><text fill="#000000" font-family="sans-serif" font-size="13" lengthAdjust="spacingAndGlyphs" textLength="96" x="477" y="661.4326">Manage Policies</text><polygon fill="#A80036" points="1017.5,692.6406,1027.5,696.6406,1017.5,700.6406,1021.5,696.6406" style="stroke: #A80036; stroke-width: 1.0;"/><line style="stroke: #A80036; stroke-width: 1.0;" x1="885.5" x2="1023.5" y1="696.6406" y2="696.6406"/><text fill="#000000" font-family="sans-serif" font-size="13" lengthAdjust="spacingAndGlyphs" textLength="55" x="892.5" y="691.7842">policy list</text><polygon fill="#A80036" points="1117.5,722.9922,1127.5,726.9922,1117.5,730.9922,1121.5,726.9922" style="stroke: #A80036; stroke-width: 1.0;"/><line style="stroke: #A80036; stroke-width: 1.0;" x1="1029.5" x2="1123.5" y1="726.9922" y2="726.9922"/><text fill="#000000" font-family="sans-serif" font-size="13" lengthAdjust="spacingAndGlyphs" textLength="55" x="1036.5" y="722.1357">policy/list</text><polygon fill="#A80036" points="873.5,753.3438,883.5,757.3438,873.5,761.3438,877.5,757.3438" style="stroke: #A80036; stroke-width: 1.0;"/><line style="stroke: #A80036; stroke-width: 1.0;" x1="581" x2="879.5" y1="757.3438" y2="757.3438"/><text fill="#000000" font-family="sans-serif" font-size="13" lengthAdjust="spacingAndGlyphs" textLength="98" x="588" y="752.4873">Manage Security</text><polygon fill="#A80036" points="1017.5,783.6953,1027.5,787.6953,1017.5,791.6953,1021.5,787.6953" style="stroke: #A80036; stroke-width: 1.0;"/><line style="stroke: #A80036; stroke-width: 1.0;" x1="885.5" x2="1023.5" y1="787.6953" y2="787.6953"/><text fill="#000000" font-family="sans-serif" font-size="13" lengthAdjust="spacingAndGlyphs" textLength="67" x="892.5" y="782.8389">security list</text><polygon fill="#A80036" points="1117.5,814.0469,1127.5,818.0469,1117.5,822.0469,1121.5,818.0469" style="stroke: #A80036; stroke-width: 1.0;"/><line style="stroke: #A80036; stroke-width: 1.0;" x1="1029.5" x2="1123.5" y1="818.0469" y2="818.0469"/><text fill="#000000" font-family="sans-serif" font-size="13" lengthAdjust="spacingAndGlyphs" textLength="67" x="1036.5" y="813.1904">security/list</text><polygon fill="#A80036" points="873.5,844.3984,883.5,848.3984,873.5,852.3984,877.5,848.3984" style="stroke: #A80036; stroke-width: 1.0;"/><line style="stroke: #A80036; stroke-width: 1.0;" x1="704" x2="879.5" y1="848.3984" y2="848.3984"/><text fill="#000000" font-family="sans-serif" font-size="13" lengthAdjust="spacingAndGlyphs" textLength="151" x="711" y="843.542">Provide Digital Assistance</text><polygon fill="#A80036" points="1017.5,874.75,1027.5,878.75,1017.5,882.75,1021.5,878.75" style="stroke: #A80036; stroke-width: 1.0;"/><line style="stroke: #A80036; stroke-width: 1.0;" x1="885.5" x2="1023.5" y1="878.75" y2="878.75"/><text fill="#000000" font-family="sans-serif" font-size="13" lengthAdjust="spacingAndGlyphs" textLength="76" x="892.5" y="873.8936">capability list</text><polygon fill="#A80036" points="1117.5,905.1016,1127.5,909.1016,1117.5,913.1016,1121.5,909.1016" style="stroke: #A80036; stroke-width: 1.0;"/><line style="stroke: #A80036; stroke-width: 1.0;" x1="1029.5" x2="1123.5" y1="909.1016" y2="909.1016"/><text fill="#000000" font-family="sans-serif" font-size="13" lengthAdjust="spacingAndGlyphs" textLength="76" x="1036.5" y="904.2451">capability/list</text><polygon fill="#A80036" points="873.5,935.4531,883.5,939.4531,873.5,943.4531,877.5,939.4531" style="stroke: #A80036; stroke-width: 1.0;"/><line style="stroke: #A80036; stroke-width: 1.0;" x1="704" x2="879.5" y1="939.4531" y2="939.4531"/><text fill="#000000" font-family="sans-serif" font-size="13" lengthAdjust="spacingAndGlyphs" textLength="133" x="711" y="934.5967">Provide Mission Insight</text><polygon fill="#A80036" points="1017.5,965.8047,1027.5,969.8047,1017.5,973.8047,1021.5,969.8047" style="stroke: #A80036; stroke-width: 1.0;"/><line style="stroke: #A80036; stroke-width: 1.0;" x1="885.5" x2="1023.5" y1="969.8047" y2="969.8047"/><text fill="#000000" font-family="sans-serif" font-size="13" lengthAdjust="spacingAndGlyphs" textLength="76" x="892.5" y="964.9482">capability list</text><polygon fill="#A80036" points="1117.5,996.1563,1127.5,1000.1563,1117.5,1004.1563,1121.5,1000.1563" style="stroke: #A80036; stroke-width: 1.0;"/><line style="stroke: #A80036; stroke-width: 1.0;" x1="1029.5" x2="1123.5" y1="1000.1563" y2="1000.1563"/><text fill="#000000" font-family="sans-serif" font-size="13" lengthAdjust="spacingAndGlyphs" textLength="76" x="1036.5" y="995.2998">capability/list</text><!--
@startuml


actor "DataEngineer" as dataengineer

actor "DataScientist" as datascientist

actor "DataAnalyst" as analyst

actor "DevOpsEngineer" as devops

actor "ITOperations" as itops

actor "SecurityOperator" as secops

actor "TacticalOperator" as tacticaloperator




dataengineer -> "Sentient Agent Bundle Resources": Manage AI Model
"Sentient Agent Bundle Resources" -> bin: aimodel list
bin -> REST: aimodel/list

datascientist -> "Sentient Agent Bundle Resources": Manage AI Model
"Sentient Agent Bundle Resources" -> bin: aimodel list
bin -> REST: aimodel/list

analyst -> "Sentient Agent Bundle Resources": Manage AI Model
"Sentient Agent Bundle Resources" -> bin: aimodel list
bin -> REST: aimodel/list

devops -> "Sentient Agent Bundle Resources": Manage Capabilities
"Sentient Agent Bundle Resources" -> bin: capability list
bin -> REST: capability/list

devops -> "Sentient Agent Bundle Resources": Ships
"Sentient Agent Bundle Resources" -> bin: sabundle list
bin -> REST: sabundle/list

itops -> "Sentient Agent Bundle Resources": Manage Capabilities
"Sentient Agent Bundle Resources" -> bin: capability list
bin -> REST: capability/list

itops -> "Sentient Agent Bundle Resources": Manage Policies
"Sentient Agent Bundle Resources" -> bin: policy list
bin -> REST: policy/list

secops -> "Sentient Agent Bundle Resources": Manage Security
"Sentient Agent Bundle Resources" -> bin: security list
bin -> REST: security/list

tacticaloperator -> "Sentient Agent Bundle Resources": Provide Digital Assistance
"Sentient Agent Bundle Resources" -> bin: capability list
bin -> REST: capability/list

tacticaloperator -> "Sentient Agent Bundle Resources": Provide Mission Insight
"Sentient Agent Bundle Resources" -> bin: capability list
bin -> REST: capability/list



@enduml

PlantUML version 1.2019.05(Sat Apr 20 09:45:36 PDT 2019)
(GPL source distribution)
Java Runtime: Java(TM) SE Runtime Environment
JVM: Java HotSpot(TM) Client VM
Java Version: 1.8.0_271-b09
Operating System: Windows 10
OS Version: 10.0
Default Encoding: Cp1252
Language: en
Country: US
--></g></svg>