<?xml version="1.0" encoding="us-ascii" standalone="no"?><svg xmlns="http://www.w3.org/2000/svg" xmlns:xlink="http://www.w3.org/1999/xlink" contentStyleType="text/css" height="1095px" preserveAspectRatio="none" style="width:1152px;height:1095px;background:#FFFFFF;" version="1.1" viewBox="0 0 1152 1095" width="1152px" zoomAndPan="magnify"><defs/><g><line style="stroke:#181818;stroke-width:0.5;stroke-dasharray:5.0,5.0;" x1="51" x2="51" y1="82.6094" y2="1013.1563"/><line style="stroke:#181818;stroke-width:0.5;stroke-dasharray:5.0,5.0;" x1="152" x2="152" y1="82.6094" y2="1013.1563"/><line style="stroke:#181818;stroke-width:0.5;stroke-dasharray:5.0,5.0;" x1="248" x2="248" y1="82.6094" y2="1013.1563"/><line style="stroke:#181818;stroke-width:0.5;stroke-dasharray:5.0,5.0;" x1="356" x2="356" y1="82.6094" y2="1013.1563"/><line style="stroke:#181818;stroke-width:0.5;stroke-dasharray:5.0,5.0;" x1="467" x2="467" y1="82.6094" y2="1013.1563"/><line style="stroke:#181818;stroke-width:0.5;stroke-dasharray:5.0,5.0;" x1="578" x2="578" y1="82.6094" y2="1013.1563"/><line style="stroke:#181818;stroke-width:0.5;stroke-dasharray:5.0,5.0;" x1="701" x2="701" y1="82.6094" y2="1013.1563"/><line style="stroke:#181818;stroke-width:0.5;stroke-dasharray:5.0,5.0;" x1="880" x2="880" y1="82.6094" y2="1013.1563"/><line style="stroke:#181818;stroke-width:0.5;stroke-dasharray:5.0,5.0;" x1="1020" x2="1020" y1="82.6094" y2="1013.1563"/><line style="stroke:#181818;stroke-width:0.5;stroke-dasharray:5.0,5.0;" x1="1120" x2="1120" y1="82.6094" y2="1013.1563"/><text fill="#000000" font-family="sans-serif" font-size="14" lengthAdjust="spacing" textLength="87" x="5" y="79.5332">DataEngineer</text><ellipse cx="51.5" cy="13.5" fill="#E2E2F0" rx="8" ry="8" style="stroke:#181818;stroke-width:0.5;"/><path d="M51.5,21.5 L51.5,48.5 M38.5,29.5 L64.5,29.5 M51.5,48.5 L38.5,63.5 M51.5,48.5 L64.5,63.5 " fill="none" style="stroke:#181818;stroke-width:0.5;"/><text fill="#000000" font-family="sans-serif" font-size="14" lengthAdjust="spacing" textLength="87" x="5" y="1026.6895">DataEngineer</text><ellipse cx="51.5" cy="1038.2656" fill="#E2E2F0" rx="8" ry="8" style="stroke:#181818;stroke-width:0.5;"/><path d="M51.5,1046.2656 L51.5,1073.2656 M38.5,1054.2656 L64.5,1054.2656 M51.5,1073.2656 L38.5,1088.2656 M51.5,1073.2656 L64.5,1088.2656 " fill="none" style="stroke:#181818;stroke-width:0.5;"/><text fill="#000000" font-family="sans-serif" font-size="14" lengthAdjust="spacing" textLength="83" x="108" y="79.5332">DataScientist</text><ellipse cx="152.5" cy="13.5" fill="#E2E2F0" rx="8" ry="8" style="stroke:#181818;stroke-width:0.5;"/><path d="M152.5,21.5 L152.5,48.5 M139.5,29.5 L165.5,29.5 M152.5,48.5 L139.5,63.5 M152.5,48.5 L165.5,63.5 " fill="none" style="stroke:#181818;stroke-width:0.5;"/><text fill="#000000" font-family="sans-serif" font-size="14" lengthAdjust="spacing" textLength="83" x="108" y="1026.6895">DataScientist</text><ellipse cx="152.5" cy="1038.2656" fill="#E2E2F0" rx="8" ry="8" style="stroke:#181818;stroke-width:0.5;"/><path d="M152.5,1046.2656 L152.5,1073.2656 M139.5,1054.2656 L165.5,1054.2656 M152.5,1073.2656 L139.5,1088.2656 M152.5,1073.2656 L165.5,1088.2656 " fill="none" style="stroke:#181818;stroke-width:0.5;"/><text fill="#000000" font-family="sans-serif" font-size="14" lengthAdjust="spacing" textLength="76" x="207" y="79.5332">DataAnalyst</text><ellipse cx="248" cy="13.5" fill="#E2E2F0" rx="8" ry="8" style="stroke:#181818;stroke-width:0.5;"/><path d="M248,21.5 L248,48.5 M235,29.5 L261,29.5 M248,48.5 L235,63.5 M248,48.5 L261,63.5 " fill="none" style="stroke:#181818;stroke-width:0.5;"/><text fill="#000000" font-family="sans-serif" font-size="14" lengthAdjust="spacing" textLength="76" x="207" y="1026.6895">DataAnalyst</text><ellipse cx="248" cy="1038.2656" fill="#E2E2F0" rx="8" ry="8" style="stroke:#181818;stroke-width:0.5;"/><path d="M248,1046.2656 L248,1073.2656 M235,1054.2656 L261,1054.2656 M248,1073.2656 L235,1088.2656 M248,1073.2656 L261,1088.2656 " fill="none" style="stroke:#181818;stroke-width:0.5;"/><text fill="#000000" font-family="sans-serif" font-size="14" lengthAdjust="spacing" textLength="108" x="299" y="79.5332">DevOpsEngineer</text><ellipse cx="356" cy="13.5" fill="#E2E2F0" rx="8" ry="8" style="stroke:#181818;stroke-width:0.5;"/><path d="M356,21.5 L356,48.5 M343,29.5 L369,29.5 M356,48.5 L343,63.5 M356,48.5 L369,63.5 " fill="none" style="stroke:#181818;stroke-width:0.5;"/><text fill="#000000" font-family="sans-serif" font-size="14" lengthAdjust="spacing" textLength="108" x="299" y="1026.6895">DevOpsEngineer</text><ellipse cx="356" cy="1038.2656" fill="#E2E2F0" rx="8" ry="8" style="stroke:#181818;stroke-width:0.5;"/><path d="M356,1046.2656 L356,1073.2656 M343,1054.2656 L369,1054.2656 M356,1073.2656 L343,1088.2656 M356,1073.2656 L369,1088.2656 " fill="none" style="stroke:#181818;stroke-width:0.5;"/><text fill="#000000" font-family="sans-serif" font-size="14" lengthAdjust="spacing" textLength="82" x="423" y="79.5332">ITOperations</text><ellipse cx="467" cy="13.5" fill="#E2E2F0" rx="8" ry="8" style="stroke:#181818;stroke-width:0.5;"/><path d="M467,21.5 L467,48.5 M454,29.5 L480,29.5 M467,48.5 L454,63.5 M467,48.5 L480,63.5 " fill="none" style="stroke:#181818;stroke-width:0.5;"/><text fill="#000000" font-family="sans-serif" font-size="14" lengthAdjust="spacing" textLength="82" x="423" y="1026.6895">ITOperations</text><ellipse cx="467" cy="1038.2656" fill="#E2E2F0" rx="8" ry="8" style="stroke:#181818;stroke-width:0.5;"/><path d="M467,1046.2656 L467,1073.2656 M454,1054.2656 L480,1054.2656 M467,1073.2656 L454,1088.2656 M467,1073.2656 L480,1088.2656 " fill="none" style="stroke:#181818;stroke-width:0.5;"/><text fill="#000000" font-family="sans-serif" font-size="14" lengthAdjust="spacing" textLength="108" x="521" y="79.5332">SecurityOperator</text><ellipse cx="578" cy="13.5" fill="#E2E2F0" rx="8" ry="8" style="stroke:#181818;stroke-width:0.5;"/><path d="M578,21.5 L578,48.5 M565,29.5 L591,29.5 M578,48.5 L565,63.5 M578,48.5 L591,63.5 " fill="none" style="stroke:#181818;stroke-width:0.5;"/><text fill="#000000" font-family="sans-serif" font-size="14" lengthAdjust="spacing" textLength="108" x="521" y="1026.6895">SecurityOperator</text><ellipse cx="578" cy="1038.2656" fill="#E2E2F0" rx="8" ry="8" style="stroke:#181818;stroke-width:0.5;"/><path d="M578,1046.2656 L578,1073.2656 M565,1054.2656 L591,1054.2656 M578,1073.2656 L565,1088.2656 M578,1073.2656 L591,1088.2656 " fill="none" style="stroke:#181818;stroke-width:0.5;"/><text fill="#000000" font-family="sans-serif" font-size="14" lengthAdjust="spacing" textLength="106" x="645" y="79.5332">TacticalOperator</text><ellipse cx="701" cy="13.5" fill="#E2E2F0" rx="8" ry="8" style="stroke:#181818;stroke-width:0.5;"/><path d="M701,21.5 L701,48.5 M688,29.5 L714,29.5 M701,48.5 L688,63.5 M701,48.5 L714,63.5 " fill="none" style="stroke:#181818;stroke-width:0.5;"/><text fill="#000000" font-family="sans-serif" font-size="14" lengthAdjust="spacing" textLength="106" x="645" y="1026.6895">TacticalOperator</text><ellipse cx="701" cy="1038.2656" fill="#E2E2F0" rx="8" ry="8" style="stroke:#181818;stroke-width:0.5;"/><path d="M701,1046.2656 L701,1073.2656 M688,1054.2656 L714,1054.2656 M701,1073.2656 L688,1088.2656 M701,1073.2656 L714,1088.2656 " fill="none" style="stroke:#181818;stroke-width:0.5;"/><rect fill="#E2E2F0" height="31.6094" rx="2.5" ry="2.5" style="stroke:#181818;stroke-width:0.5;" width="227" x="767" y="50"/><text fill="#000000" font-family="sans-serif" font-size="14" lengthAdjust="spacing" textLength="213" x="774" y="71.5332">Sentient Agent Bundle Resources</text><rect fill="#E2E2F0" height="31.6094" rx="2.5" ry="2.5" style="stroke:#181818;stroke-width:0.5;" width="227" x="767" y="1012.1563"/><text fill="#000000" font-family="sans-serif" font-size="14" lengthAdjust="spacing" textLength="213" x="774" y="1033.6895">Sentient Agent Bundle Resources</text><rect fill="#E2E2F0" height="31.6094" rx="2.5" ry="2.5" style="stroke:#181818;stroke-width:0.5;" width="33" x="1004" y="50"/><text fill="#000000" font-family="sans-serif" font-size="14" lengthAdjust="spacing" textLength="19" x="1011" y="71.5332">bin</text><rect fill="#E2E2F0" height="31.6094" rx="2.5" ry="2.5" style="stroke:#181818;stroke-width:0.5;" width="33" x="1004" y="1012.1563"/><text fill="#000000" font-family="sans-serif" font-size="14" lengthAdjust="spacing" textLength="19" x="1011" y="1033.6895">bin</text><rect fill="#E2E2F0" height="31.6094" rx="2.5" ry="2.5" style="stroke:#181818;stroke-width:0.5;" width="51" x="1095" y="50"/><text fill="#000000" font-family="sans-serif" font-size="14" lengthAdjust="spacing" textLength="37" x="1102" y="71.5332">REST</text><rect fill="#E2E2F0" height="31.6094" rx="2.5" ry="2.5" style="stroke:#181818;stroke-width:0.5;" width="51" x="1095" y="1012.1563"/><text fill="#000000" font-family="sans-serif" font-size="14" lengthAdjust="spacing" textLength="37" x="1102" y="1033.6895">REST</text><polygon fill="#181818" points="868.5,110.9609,878.5,114.9609,868.5,118.9609,872.5,114.9609" style="stroke:#181818;stroke-width:1.0;"/><line style="stroke:#181818;stroke-width:1.0;" x1="51.5" x2="874.5" y1="114.9609" y2="114.9609"/><text fill="#000000" font-family="sans-serif" font-size="13" lengthAdjust="spacing" textLength="101" x="58.5" y="110.1045">Manage AI Model</text><polygon fill="#181818" points="1008.5,141.3125,1018.5,145.3125,1008.5,149.3125,1012.5,145.3125" style="stroke:#181818;stroke-width:1.0;"/><line style="stroke:#181818;stroke-width:1.0;" x1="880.5" x2="1014.5" y1="145.3125" y2="145.3125"/><text fill="#000000" font-family="sans-serif" font-size="13" lengthAdjust="spacing" textLength="66" x="887.5" y="140.4561">aimodel list</text><polygon fill="#181818" points="1108.5,171.6641,1118.5,175.6641,1108.5,179.6641,1112.5,175.6641" style="stroke:#181818;stroke-width:1.0;"/><line style="stroke:#181818;stroke-width:1.0;" x1="1020.5" x2="1114.5" y1="175.6641" y2="175.6641"/><text fill="#000000" font-family="sans-serif" font-size="13" lengthAdjust="spacing" textLength="66" x="1027.5" y="170.8076">aimodel/list</text><polygon fill="#181818" points="868.5,202.0156,878.5,206.0156,868.5,210.0156,872.5,206.0156" style="stroke:#181818;stroke-width:1.0;"/><line style="stroke:#181818;stroke-width:1.0;" x1="152.5" x2="874.5" y1="206.0156" y2="206.0156"/><text fill="#000000" font-family="sans-serif" font-size="13" lengthAdjust="spacing" textLength="101" x="159.5" y="201.1592">Manage AI Model</text><polygon fill="#181818" points="1008.5,232.3672,1018.5,236.3672,1008.5,240.3672,1012.5,236.3672" style="stroke:#181818;stroke-width:1.0;"/><line style="stroke:#181818;stroke-width:1.0;" x1="880.5" x2="1014.5" y1="236.3672" y2="236.3672"/><text fill="#000000" font-family="sans-serif" font-size="13" lengthAdjust="spacing" textLength="66" x="887.5" y="231.5107">aimodel list</text><polygon fill="#181818" points="1108.5,262.7188,1118.5,266.7188,1108.5,270.7188,1112.5,266.7188" style="stroke:#181818;stroke-width:1.0;"/><line style="stroke:#181818;stroke-width:1.0;" x1="1020.5" x2="1114.5" y1="266.7188" y2="266.7188"/><text fill="#000000" font-family="sans-serif" font-size="13" lengthAdjust="spacing" textLength="66" x="1027.5" y="261.8623">aimodel/list</text><polygon fill="#181818" points="868.5,293.0703,878.5,297.0703,868.5,301.0703,872.5,297.0703" style="stroke:#181818;stroke-width:1.0;"/><line style="stroke:#181818;stroke-width:1.0;" x1="248" x2="874.5" y1="297.0703" y2="297.0703"/><text fill="#000000" font-family="sans-serif" font-size="13" lengthAdjust="spacing" textLength="101" x="255" y="292.2139">Manage AI Model</text><polygon fill="#181818" points="1008.5,323.4219,1018.5,327.4219,1008.5,331.4219,1012.5,327.4219" style="stroke:#181818;stroke-width:1.0;"/><line style="stroke:#181818;stroke-width:1.0;" x1="880.5" x2="1014.5" y1="327.4219" y2="327.4219"/><text fill="#000000" font-family="sans-serif" font-size="13" lengthAdjust="spacing" textLength="66" x="887.5" y="322.5654">aimodel list</text><polygon fill="#181818" points="1108.5,353.7734,1118.5,357.7734,1108.5,361.7734,1112.5,357.7734" style="stroke:#181818;stroke-width:1.0;"/><line style="stroke:#181818;stroke-width:1.0;" x1="1020.5" x2="1114.5" y1="357.7734" y2="357.7734"/><text fill="#000000" font-family="sans-serif" font-size="13" lengthAdjust="spacing" textLength="66" x="1027.5" y="352.917">aimodel/list</text><polygon fill="#181818" points="868.5,384.125,878.5,388.125,868.5,392.125,872.5,388.125" style="stroke:#181818;stroke-width:1.0;"/><line style="stroke:#181818;stroke-width:1.0;" x1="356" x2="874.5" y1="388.125" y2="388.125"/><text fill="#000000" font-family="sans-serif" font-size="13" lengthAdjust="spacing" textLength="117" x="363" y="383.2686">Manage Capabilities</text><polygon fill="#181818" points="1008.5,414.4766,1018.5,418.4766,1008.5,422.4766,1012.5,418.4766" style="stroke:#181818;stroke-width:1.0;"/><line style="stroke:#181818;stroke-width:1.0;" x1="880.5" x2="1014.5" y1="418.4766" y2="418.4766"/><text fill="#000000" font-family="sans-serif" font-size="13" lengthAdjust="spacing" textLength="76" x="887.5" y="413.6201">capability list</text><polygon fill="#181818" points="1108.5,444.8281,1118.5,448.8281,1108.5,452.8281,1112.5,448.8281" style="stroke:#181818;stroke-width:1.0;"/><line style="stroke:#181818;stroke-width:1.0;" x1="1020.5" x2="1114.5" y1="448.8281" y2="448.8281"/><text fill="#000000" font-family="sans-serif" font-size="13" lengthAdjust="spacing" textLength="76" x="1027.5" y="443.9717">capability/list</text><polygon fill="#181818" points="868.5,475.1797,878.5,479.1797,868.5,483.1797,872.5,479.1797" style="stroke:#181818;stroke-width:1.0;"/><line style="stroke:#181818;stroke-width:1.0;" x1="356" x2="874.5" y1="479.1797" y2="479.1797"/><text fill="#000000" font-family="sans-serif" font-size="13" lengthAdjust="spacing" textLength="33" x="363" y="474.3232">Ships</text><polygon fill="#181818" points="1008.5,505.5313,1018.5,509.5313,1008.5,513.5313,1012.5,509.5313" style="stroke:#181818;stroke-width:1.0;"/><line style="stroke:#181818;stroke-width:1.0;" x1="880.5" x2="1014.5" y1="509.5313" y2="509.5313"/><text fill="#000000" font-family="sans-serif" font-size="13" lengthAdjust="spacing" textLength="73" x="887.5" y="504.6748">sabundle list</text><polygon fill="#181818" points="1108.5,535.8828,1118.5,539.8828,1108.5,543.8828,1112.5,539.8828" style="stroke:#181818;stroke-width:1.0;"/><line style="stroke:#181818;stroke-width:1.0;" x1="1020.5" x2="1114.5" y1="539.8828" y2="539.8828"/><text fill="#000000" font-family="sans-serif" font-size="13" lengthAdjust="spacing" textLength="73" x="1027.5" y="535.0264">sabundle/list</text><polygon fill="#181818" points="868.5,566.2344,878.5,570.2344,868.5,574.2344,872.5,570.2344" style="stroke:#181818;stroke-width:1.0;"/><line style="stroke:#181818;stroke-width:1.0;" x1="467" x2="874.5" y1="570.2344" y2="570.2344"/><text fill="#000000" font-family="sans-serif" font-size="13" lengthAdjust="spacing" textLength="117" x="474" y="565.3779">Manage Capabilities</text><polygon fill="#181818" points="1008.5,596.5859,1018.5,600.5859,1008.5,604.5859,1012.5,600.5859" style="stroke:#181818;stroke-width:1.0;"/><line style="stroke:#181818;stroke-width:1.0;" x1="880.5" x2="1014.5" y1="600.5859" y2="600.5859"/><text fill="#000000" font-family="sans-serif" font-size="13" lengthAdjust="spacing" textLength="76" x="887.5" y="595.7295">capability list</text><polygon fill="#181818" points="1108.5,626.9375,1118.5,630.9375,1108.5,634.9375,1112.5,630.9375" style="stroke:#181818;stroke-width:1.0;"/><line style="stroke:#181818;stroke-width:1.0;" x1="1020.5" x2="1114.5" y1="630.9375" y2="630.9375"/><text fill="#000000" font-family="sans-serif" font-size="13" lengthAdjust="spacing" textLength="76" x="1027.5" y="626.0811">capability/list</text><polygon fill="#181818" points="868.5,657.2891,878.5,661.2891,868.5,665.2891,872.5,661.2891" style="stroke:#181818;stroke-width:1.0;"/><line style="stroke:#181818;stroke-width:1.0;" x1="467" x2="874.5" y1="661.2891" y2="661.2891"/><text fill="#000000" font-family="sans-serif" font-size="13" lengthAdjust="spacing" textLength="96" x="474" y="656.4326">Manage Policies</text><polygon fill="#181818" points="1008.5,687.6406,1018.5,691.6406,1008.5,695.6406,1012.5,691.6406" style="stroke:#181818;stroke-width:1.0;"/><line style="stroke:#181818;stroke-width:1.0;" x1="880.5" x2="1014.5" y1="691.6406" y2="691.6406"/><text fill="#000000" font-family="sans-serif" font-size="13" lengthAdjust="spacing" textLength="55" x="887.5" y="686.7842">policy list</text><polygon fill="#181818" points="1108.5,717.9922,1118.5,721.9922,1108.5,725.9922,1112.5,721.9922" style="stroke:#181818;stroke-width:1.0;"/><line style="stroke:#181818;stroke-width:1.0;" x1="1020.5" x2="1114.5" y1="721.9922" y2="721.9922"/><text fill="#000000" font-family="sans-serif" font-size="13" lengthAdjust="spacing" textLength="55" x="1027.5" y="717.1357">policy/list</text><polygon fill="#181818" points="868.5,748.3438,878.5,752.3438,868.5,756.3438,872.5,752.3438" style="stroke:#181818;stroke-width:1.0;"/><line style="stroke:#181818;stroke-width:1.0;" x1="578" x2="874.5" y1="752.3438" y2="752.3438"/><text fill="#000000" font-family="sans-serif" font-size="13" lengthAdjust="spacing" textLength="98" x="585" y="747.4873">Manage Security</text><polygon fill="#181818" points="1008.5,778.6953,1018.5,782.6953,1008.5,786.6953,1012.5,782.6953" style="stroke:#181818;stroke-width:1.0;"/><line style="stroke:#181818;stroke-width:1.0;" x1="880.5" x2="1014.5" y1="782.6953" y2="782.6953"/><text fill="#000000" font-family="sans-serif" font-size="13" lengthAdjust="spacing" textLength="67" x="887.5" y="777.8389">security list</text><polygon fill="#181818" points="1108.5,809.0469,1118.5,813.0469,1108.5,817.0469,1112.5,813.0469" style="stroke:#181818;stroke-width:1.0;"/><line style="stroke:#181818;stroke-width:1.0;" x1="1020.5" x2="1114.5" y1="813.0469" y2="813.0469"/><text fill="#000000" font-family="sans-serif" font-size="13" lengthAdjust="spacing" textLength="67" x="1027.5" y="808.1904">security/list</text><polygon fill="#181818" points="868.5,839.3984,878.5,843.3984,868.5,847.3984,872.5,843.3984" style="stroke:#181818;stroke-width:1.0;"/><line style="stroke:#181818;stroke-width:1.0;" x1="701" x2="874.5" y1="843.3984" y2="843.3984"/><text fill="#000000" font-family="sans-serif" font-size="13" lengthAdjust="spacing" textLength="151" x="708" y="838.542">Provide Digital Assistance</text><polygon fill="#181818" points="1008.5,869.75,1018.5,873.75,1008.5,877.75,1012.5,873.75" style="stroke:#181818;stroke-width:1.0;"/><line style="stroke:#181818;stroke-width:1.0;" x1="880.5" x2="1014.5" y1="873.75" y2="873.75"/><text fill="#000000" font-family="sans-serif" font-size="13" lengthAdjust="spacing" textLength="76" x="887.5" y="868.8936">capability list</text><polygon fill="#181818" points="1108.5,900.1016,1118.5,904.1016,1108.5,908.1016,1112.5,904.1016" style="stroke:#181818;stroke-width:1.0;"/><line style="stroke:#181818;stroke-width:1.0;" x1="1020.5" x2="1114.5" y1="904.1016" y2="904.1016"/><text fill="#000000" font-family="sans-serif" font-size="13" lengthAdjust="spacing" textLength="76" x="1027.5" y="899.2451">capability/list</text><polygon fill="#181818" points="868.5,930.4531,878.5,934.4531,868.5,938.4531,872.5,934.4531" style="stroke:#181818;stroke-width:1.0;"/><line style="stroke:#181818;stroke-width:1.0;" x1="701" x2="874.5" y1="934.4531" y2="934.4531"/><text fill="#000000" font-family="sans-serif" font-size="13" lengthAdjust="spacing" textLength="133" x="708" y="929.5967">Provide Mission Insight</text><polygon fill="#181818" points="1008.5,960.8047,1018.5,964.8047,1008.5,968.8047,1012.5,964.8047" style="stroke:#181818;stroke-width:1.0;"/><line style="stroke:#181818;stroke-width:1.0;" x1="880.5" x2="1014.5" y1="964.8047" y2="964.8047"/><text fill="#000000" font-family="sans-serif" font-size="13" lengthAdjust="spacing" textLength="76" x="887.5" y="959.9482">capability list</text><polygon fill="#181818" points="1108.5,991.1563,1118.5,995.1563,1108.5,999.1563,1112.5,995.1563" style="stroke:#181818;stroke-width:1.0;"/><line style="stroke:#181818;stroke-width:1.0;" x1="1020.5" x2="1114.5" y1="995.1563" y2="995.1563"/><text fill="#000000" font-family="sans-serif" font-size="13" lengthAdjust="spacing" textLength="76" x="1027.5" y="990.2998">capability/list</text><!--SRC=[pPJFReCm3CRlF8N5VTgzXqbixQ47rAhq1TnWKKjPWd1QgM-_14A1hT96fqf5ue_yVJQ_s11KpZQGBj7XobHiY9eKKA3q0Og19C71LIWcurZSrIPzPEBB3EfBT67tFEXqtjGoVH-TRIrNntg_gQb1nzP8gxCRomMfKyFkqfbiLq98ZJrxVsU5Uk9nCMXZC0d7UAtmyXRA-_Nu4x8gNDzFfjG4En9xQXH9ke3SBwaYoDQGsv9qycjAg7jWim3apv01EZJCHuAmMnNxg_BQAicaiqz35IVvF5rgFvjvE1zOuu4rUxVCG59zskK6rI3U0rOSkPw38dZej9yWlHGnsj_c2Tjp1zVMQbRpcEgGSekd4o9Bjs_CW-ate3b3YoctXXQb2FHza_eZshQnPou9bbonGmsPY2-7Hj73nlXFqfmzeZMmDiBLqJqCC_a2]--></g></svg>