<?xml version="1.0" encoding="us-ascii" standalone="no"?><svg xmlns="http://www.w3.org/2000/svg" xmlns:xlink="http://www.w3.org/1999/xlink" contentStyleType="text/css" height="229px" preserveAspectRatio="none" style="width:158px;height:229px;background:#FFFFFF;" version="1.1" viewBox="0 0 158 229" width="158px" zoomAndPan="magnify"><defs/><g><!--entity SecurityKey--><g id="elem_SecurityKey"><rect fill="#ADD8E6" height="37.6094" rx="2.5" ry="2.5" style="stroke:#181818;stroke-width:0.5;" width="95" x="31.5" y="186"/><text fill="#000000" font-family="sans-serif" font-size="14" lengthAdjust="spacing" textLength="75" x="41.5" y="210.5332">SecurityKey</text></g><!--class Model--><g id="elem_Model"><rect codeLine="2" fill="#F1F1F1" height="100.8281" id="Model" rx="2.5" ry="2.5" style="stroke:#181818;stroke-width:0.5;" width="144" x="7" y="7"/><ellipse cx="46.3" cy="23" fill="#ADD1B2" rx="11" ry="11" style="stroke:#181818;stroke-width:1.0;"/><path d="M49.0656,18.875 Q49.2219,18.6563 49.4094,18.5469 Q49.5969,18.4375 49.8156,18.4375 Q50.1906,18.4375 50.425,18.6953 Q50.6594,18.9531 50.6594,19.5625 L50.6594,21.0156 Q50.6594,21.625 50.425,21.8906 Q50.1906,22.1563 49.8156,22.1563 Q49.4719,22.1563 49.2688,21.9531 Q49.0656,21.7656 48.9563,21.25 Q48.9094,20.8906 48.7219,20.7031 Q48.3938,20.3281 47.7844,20.1094 Q47.175,19.8906 46.55,19.8906 Q45.7844,19.8906 45.1516,20.2188 Q44.5188,20.5469 44.0266,21.2969 Q43.5344,22.0469 43.5344,23.0781 L43.5344,24.1719 Q43.5344,25.4063 44.425,26.2266 Q45.3156,27.0469 46.9094,27.0469 Q47.8469,27.0469 48.5031,26.7969 Q48.8938,26.6406 49.3156,26.2031 Q49.5813,25.9375 49.7297,25.8594 Q49.8781,25.7813 50.0813,25.7813 Q50.4094,25.7813 50.6672,26.0391 Q50.925,26.2969 50.925,26.6406 Q50.925,26.9844 50.5813,27.3906 Q50.0813,27.9688 49.2844,28.2969 Q48.2063,28.75 46.9094,28.75 Q45.3938,28.75 44.1906,28.125 Q43.2063,27.625 42.5188,26.5547 Q41.8313,25.4844 41.8313,24.2031 L41.8313,23.0469 Q41.8313,21.7188 42.4484,20.5703 Q43.0656,19.4219 44.1594,18.8047 Q45.2531,18.1875 46.4875,18.1875 Q47.2219,18.1875 47.8703,18.3516 Q48.5188,18.5156 49.0656,18.875 Z " fill="#000000"/><text fill="#000000" font-family="sans-serif" font-size="14" lengthAdjust="spacing" textLength="58" x="65.7" y="28.7285">KeyStore</text><line style="stroke:#181818;stroke-width:0.5;" x1="8" x2="150" y1="39" y2="39"/><text fill="#000000" font-family="sans-serif" font-size="14" lengthAdjust="spacing" textLength="74" x="13" y="57.5332">string name</text><text fill="#000000" font-family="sans-serif" font-size="14" lengthAdjust="spacing" textLength="132" x="13" y="75.1426">string encryptedData</text><line style="stroke:#181818;stroke-width:0.5;" x1="8" x2="150" y1="82.2188" y2="82.2188"/><text fill="#000000" font-family="sans-serif" font-size="14" lengthAdjust="spacing" textLength="57" x="13" y="100.752">encrypt()</text></g><!--link Model to SecurityKey--><g id="link_Model_SecurityKey"><path codeLine="13" d="M79,120.17 C79,147 79,160.52 79,179.87 " fill="none" id="Model-SecurityKey" style="stroke:#181818;stroke-width:1.0;"/><polygon fill="none" points="79,108.17,75,114.17,79,120.17,83,114.17,79,108.17" style="stroke:#181818;stroke-width:1.0;"/><polygon fill="#181818" points="79,185.87,83,176.87,79,180.87,75,176.87,79,185.87" style="stroke:#181818;stroke-width:1.0;"/><text fill="#000000" font-family="sans-serif" font-size="13" lengthAdjust="spacing" textLength="28" x="80" y="152.4951">keys</text><text fill="#000000" font-family="sans-serif" font-size="13" lengthAdjust="spacing" textLength="7" x="70.9281" y="175.1702">n</text></g><!--SRC=[LOqn3W8n30Hxly8A3HJt0GegEaHrBp2vLOW82N9yHNJYxmGG2BORQNVM9wcLtG5jjA9mB9MFPKBYXRYQnXmuonLVGFRQRePfBoP47rvlYEbEfF0cEIIm6-5dZTQw-wNzOLwb6CvsIZFwJv-zByimxDXbzrVTyWMjqZCF]--></g></svg>