<?xml version="1.0" encoding="UTF-8" standalone="no"?><svg xmlns="http://www.w3.org/2000/svg" xmlns:xlink="http://www.w3.org/1999/xlink" contentScriptType="application/ecmascript" contentStyleType="text/css" height="224px" preserveAspectRatio="none" style="width:130px;height:224px;" version="1.1" viewBox="0 0 130 224" width="130px" zoomAndPan="magnify"><defs><filter height="300%" id="f18z2t8s8z7n5" width="300%" x="-1" y="-1"><feGaussianBlur result="blurOut" stdDeviation="2.0"/><feColorMatrix in="blurOut" result="blurOut2" type="matrix" values="0 0 0 0 0 0 0 0 0 0 0 0 0 0 0 0 0 0 .4 0"/><feOffset dx="4.0" dy="4.0" in="blurOut2" result="blurOut3"/><feBlend in="SourceGraphic" in2="blurOut3" mode="normal"/></filter></defs><g><!--entity SecurityKey--><rect fill="#ADD8E6" filter="url(#f18z2t8s8z7n5)" height="37.6094" style="stroke: #000000; stroke-width: 1.5;" width="95" x="15" y="176"/><text fill="#000000" font-family="sans-serif" font-size="14" lengthAdjust="spacingAndGlyphs" textLength="75" x="25" y="200.5332">SecurityKey</text><!--class Model--><rect fill="#FEFECE" filter="url(#f18z2t8s8z7n5)" height="89.5078" id="Model" style="stroke: #A80036; stroke-width: 1.5;" width="113" x="6" y="8"/><ellipse cx="35.4" cy="24" fill="#ADD1B2" rx="11" ry="11" style="stroke: #A80036; stroke-width: 1.0;"/><path d="M38.1656,19.875 Q38.3219,19.6563 38.5094,19.5469 Q38.6969,19.4375 38.9156,19.4375 Q39.2906,19.4375 39.525,19.6953 Q39.7594,19.9531 39.7594,20.5625 L39.7594,22.0156 Q39.7594,22.625 39.525,22.8906 Q39.2906,23.1563 38.9156,23.1563 Q38.5719,23.1563 38.3688,22.9531 Q38.1656,22.7656 38.0563,22.25 Q38.0094,21.8906 37.8219,21.7031 Q37.4938,21.3281 36.8844,21.1094 Q36.275,20.8906 35.65,20.8906 Q34.8844,20.8906 34.2516,21.2188 Q33.6188,21.5469 33.1266,22.2969 Q32.6344,23.0469 32.6344,24.0781 L32.6344,25.1719 Q32.6344,26.4063 33.525,27.2266 Q34.4156,28.0469 36.0094,28.0469 Q36.9469,28.0469 37.6031,27.7969 Q37.9938,27.6406 38.4156,27.2031 Q38.6813,26.9375 38.8297,26.8594 Q38.9781,26.7813 39.1813,26.7813 Q39.5094,26.7813 39.7672,27.0391 Q40.025,27.2969 40.025,27.6406 Q40.025,27.9844 39.6813,28.3906 Q39.1813,28.9688 38.3844,29.2969 Q37.3063,29.75 36.0094,29.75 Q34.4938,29.75 33.2906,29.125 Q32.3063,28.625 31.6188,27.5547 Q30.9313,26.4844 30.9313,25.2031 L30.9313,24.0469 Q30.9313,22.7188 31.5484,21.5703 Q32.1656,20.4219 33.2594,19.8047 Q34.3531,19.1875 35.5875,19.1875 Q36.3219,19.1875 36.9703,19.3516 Q37.6188,19.5156 38.1656,19.875 Z "/><text fill="#000000" font-family="sans-serif" font-size="12" lengthAdjust="spacingAndGlyphs" textLength="49" x="52.6" y="28.9102">KeyStore</text><line style="stroke: #A80036; stroke-width: 1.5;" x1="7" x2="118" y1="40" y2="40"/><text fill="#000000" font-family="sans-serif" font-size="11" lengthAdjust="spacingAndGlyphs" textLength="56" x="12" y="55.4189">string name</text><text fill="#000000" font-family="sans-serif" font-size="11" lengthAdjust="spacingAndGlyphs" textLength="101" x="12" y="69.2549">string encryptedData</text><line style="stroke: #A80036; stroke-width: 1.5;" x1="7" x2="118" y1="75.6719" y2="75.6719"/><text fill="#000000" font-family="sans-serif" font-size="11" lengthAdjust="spacingAndGlyphs" textLength="45" x="12" y="91.0908">encrypt()</text><!--link Model to SecurityKey--><path d="M62.5,111.603 C62.5,129.1082 62.5,147.6816 62.5,162.7545 " fill="none" id="Model-SecurityKey" style="stroke: #A80036; stroke-width: 1.0;"/><polygon fill="#A80036" points="62.5,175.9841,66.5,166.9841,62.5,170.9841,58.5,166.9841,62.5,175.9841" style="stroke: #A80036; stroke-width: 1.0;"/><line style="stroke: #A80036; stroke-width: 1.0;" x1="62.5" x2="62.5001" y1="170.9841" y2="162.9841"/><polygon fill="#FFFFFF" points="62.5,98.297,58.5,104.297,62.5,110.297,66.5,104.297,62.5,98.297" style="stroke: #A80036; stroke-width: 1.0;"/><text fill="#000000" font-family="sans-serif" font-size="13" lengthAdjust="spacingAndGlyphs" textLength="28" x="63.5" y="142.4951">keys</text><text fill="#000000" font-family="sans-serif" font-size="13" lengthAdjust="spacingAndGlyphs" textLength="7" x="54.3844" y="164.9862">n</text><!--
@startuml

class "KeyStore" as Model {
 string name
 string encryptedData

 encrypt()
 
}

rectangle "SecurityKey" as SecurityKey #lightblue {
}

Model o- -> "n" SecurityKey : keys





@enduml

PlantUML version 1.2019.05(Sat Apr 20 09:45:36 PDT 2019)
(GPL source distribution)
Java Runtime: Java(TM) SE Runtime Environment
JVM: Java HotSpot(TM) Client VM
Java Version: 1.8.0_271-b09
Operating System: Windows 10
OS Version: 10.0
Default Encoding: Cp1252
Language: en
Country: US
--></g></svg>