<?xml version="1.0" encoding="us-ascii" standalone="no"?><svg xmlns="http://www.w3.org/2000/svg" xmlns:xlink="http://www.w3.org/1999/xlink" contentStyleType="text/css" height="989px" preserveAspectRatio="none" style="width:1386px;height:989px;background:#FFFFFF;" version="1.1" viewBox="0 0 1386 989" width="1386px" zoomAndPan="magnify"><defs/><g><!--cluster Bundle--><g id="cluster_Bundle"><polygon fill="none" points="16,16,26,6,454,6,454,334,444,344,16,344,16,16" style="stroke:#181818;stroke-width:1.0;"/><line style="stroke:#181818;stroke-width:1.0;" x1="444" x2="454" y1="16" y2="6"/><line style="stroke:#181818;stroke-width:1.0;" x1="16" x2="444" y1="16" y2="16"/><line style="stroke:#181818;stroke-width:1.0;" x1="444" x2="444" y1="16" y2="344"/><text fill="#000000" font-family="sans-serif" font-size="14" font-weight="bold" lengthAdjust="spacing" textLength="50" x="206" y="33.5332">Bundle</text></g><!--cluster BB--><g id="cluster_BB"><rect fill="#FFFFAA" height="287.5" rx="2.5" ry="2.5" style="stroke:#181818;stroke-width:1.0;" width="248" x="263" y="384"/><rect fill="#FFFFAA" height="10" style="stroke:#181818;stroke-width:1.0;" width="15" x="491" y="389"/><rect fill="#FFFFAA" height="2" style="stroke:#181818;stroke-width:1.0;" width="4" x="489" y="391"/><rect fill="#FFFFAA" height="2" style="stroke:#181818;stroke-width:1.0;" width="4" x="489" y="395"/><text fill="#000000" font-family="sans-serif" font-size="14" font-weight="bold" lengthAdjust="spacing" textLength="86" x="344" y="411.5332">BundleBuild</text></g><!--cluster SC--><g id="cluster_SC"><rect fill="none" height="90" rx="2.5" ry="2.5" style="stroke:#181818;stroke-width:1.0;" width="321" x="554" y="241.5"/><path d="M692,241.5 L692,252.1094 L682,262.1094 L554,262.1094 " fill="none" style="stroke:#181818;stroke-width:1.0;"/><text fill="#000000" font-family="sans-serif" font-size="14" font-weight="bold" lengthAdjust="spacing" textLength="128" x="557" y="257.0332">SecurityController</text></g><!--cluster Device--><g id="cluster_Device"><polygon fill="#DDDDDD" points="543,512.5,553,502.5,1369,502.5,1369,962.5,1359,972.5,543,972.5,543,512.5" style="stroke:#181818;stroke-width:1.0;"/><line style="stroke:#181818;stroke-width:1.0;" x1="1359" x2="1369" y1="512.5" y2="502.5"/><line style="stroke:#181818;stroke-width:1.0;" x1="543" x2="1359" y1="512.5" y2="512.5"/><line style="stroke:#181818;stroke-width:1.0;" x1="1359" x2="1359" y1="512.5" y2="972.5"/><text fill="#000000" font-family="sans-serif" font-size="14" font-weight="bold" lengthAdjust="spacing" textLength="49" x="927.5" y="530.0332">Device</text></g><!--cluster ESC--><g id="cluster_ESC"><rect fill="#FFFFFF" height="118" rx="2.5" ry="2.5" style="stroke:#181818;stroke-width:1.0;" width="332" x="575" y="559.5"/><path d="M749,559.5 L749,570.1094 L739,580.1094 L575,580.1094 " fill="none" style="stroke:#181818;stroke-width:1.0;"/><text fill="#000000" font-family="sans-serif" font-size="14" font-weight="bold" lengthAdjust="spacing" textLength="164" x="578" y="575.0332">EdgeSecurityController</text></g><!--cluster SABR--><g id="cluster_SABR"><rect fill="#FFFFFF" height="223" rx="2.5" ry="2.5" style="stroke:#181818;stroke-width:1.0;" width="762" x="575" y="717.5"/><path d="M623,717.5 L623,728.1094 L613,738.1094 L575,738.1094 " fill="none" style="stroke:#181818;stroke-width:1.0;"/><text fill="#000000" font-family="sans-serif" font-size="14" font-weight="bold" lengthAdjust="spacing" textLength="38" x="578" y="733.0332">SABR</text></g><!--entity image1--><g id="elem_image1"><rect fill="#FFFFAA" height="47.6094" rx="2.5" ry="2.5" style="stroke:#181818;stroke-width:0.5;" width="86" x="67" y="55"/><rect fill="#FFFFAA" height="10" style="stroke:#181818;stroke-width:0.5;" width="15" x="133" y="60"/><rect fill="#FFFFAA" height="2" style="stroke:#181818;stroke-width:0.5;" width="4" x="131" y="62"/><rect fill="#FFFFAA" height="2" style="stroke:#181818;stroke-width:0.5;" width="4" x="131" y="66"/><text fill="#000000" font-family="sans-serif" font-size="14" lengthAdjust="spacing" textLength="46" x="82" y="89.5332">image1</text></g><!--entity image2--><g id="elem_image2"><rect fill="#FFFFAA" height="47.6094" rx="2.5" ry="2.5" style="stroke:#181818;stroke-width:0.5;" width="86" x="188" y="55"/><rect fill="#FFFFAA" height="10" style="stroke:#181818;stroke-width:0.5;" width="15" x="254" y="60"/><rect fill="#FFFFAA" height="2" style="stroke:#181818;stroke-width:0.5;" width="4" x="252" y="62"/><rect fill="#FFFFAA" height="2" style="stroke:#181818;stroke-width:0.5;" width="4" x="252" y="66"/><text fill="#000000" font-family="sans-serif" font-size="14" lengthAdjust="spacing" textLength="46" x="203" y="89.5332">image2</text></g><!--entity image3--><g id="elem_image3"><rect fill="#FFFFAA" height="47.6094" rx="2.5" ry="2.5" style="stroke:#181818;stroke-width:0.5;" width="86" x="309" y="55"/><rect fill="#FFFFAA" height="10" style="stroke:#181818;stroke-width:0.5;" width="15" x="375" y="60"/><rect fill="#FFFFAA" height="2" style="stroke:#181818;stroke-width:0.5;" width="4" x="373" y="62"/><rect fill="#FFFFAA" height="2" style="stroke:#181818;stroke-width:0.5;" width="4" x="373" y="66"/><text fill="#000000" font-family="sans-serif" font-size="14" lengthAdjust="spacing" textLength="46" x="324" y="89.5332">image3</text></g><!--entity streamManager--><g id="elem_streamManager"><rect fill="#FFFFAA" height="47.6094" rx="2.5" ry="2.5" style="stroke:#181818;stroke-width:0.5;" width="139" x="40.5" y="164"/><rect fill="#FFFFAA" height="10" style="stroke:#181818;stroke-width:0.5;" width="15" x="159.5" y="169"/><rect fill="#FFFFAA" height="2" style="stroke:#181818;stroke-width:0.5;" width="4" x="157.5" y="171"/><rect fill="#FFFFAA" height="2" style="stroke:#181818;stroke-width:0.5;" width="4" x="157.5" y="175"/><text fill="#000000" font-family="sans-serif" font-size="14" lengthAdjust="spacing" textLength="99" x="55.5" y="198.5332">streamManager</text></g><!--entity secureVault--><g id="elem_secureVault"><rect fill="#F1F1F1" height="37.6094" rx="35" ry="35" style="stroke:#181818;stroke-width:0.5;" width="95" x="214.5" y="169"/><text fill="#000000" font-family="sans-serif" font-size="14" lengthAdjust="spacing" textLength="75" x="224.5" y="193.5332">secureVault</text></g><!--entity bundle.js--><g id="elem_bundle.js"><path d="M344.5,171.5 L344.5,204.1094 A2.5,2.5 0 0 0 347,206.6094 L419,206.6094 A2.5,2.5 0 0 0 421.5,204.1094 L421.5,179 L411.5,169 L347,169 A2.5,2.5 0 0 0 344.5,171.5 " fill="#F1F1F1" style="stroke:#181818;stroke-width:0.5;"/><path d="M411.5,169 L411.5,176.5 A2.5,2.5 0 0 0 414,179 L421.5,179 " fill="#F1F1F1" style="stroke:#181818;stroke-width:0.5;"/><text fill="#000000" font-family="sans-serif" font-size="14" lengthAdjust="spacing" textLength="57" x="354.5" y="193.5332">bundle.js</text></g><!--entity policy.js--><g id="elem_policy.js"><path d="M75,280 L75,312.6094 A2.5,2.5 0 0 0 77.5,315.1094 L142.5,315.1094 A2.5,2.5 0 0 0 145,312.6094 L145,287.5 L135,277.5 L77.5,277.5 A2.5,2.5 0 0 0 75,280 " fill="#F1F1F1" style="stroke:#181818;stroke-width:0.5;"/><path d="M135,277.5 L135,285 A2.5,2.5 0 0 0 137.5,287.5 L145,287.5 " fill="#F1F1F1" style="stroke:#181818;stroke-width:0.5;"/><text fill="#000000" font-family="sans-serif" font-size="14" lengthAdjust="spacing" textLength="50" x="85" y="302.0332">policy.js</text></g><!--entity ApplicationData--><g id="elem_ApplicationData"><path d="M180.5,283 C180.5,273 240,273 240,273 C240,273 299.5,273 299.5,283 L299.5,309.6094 C299.5,319.6094 240,319.6094 240,319.6094 C240,319.6094 180.5,319.6094 180.5,309.6094 L180.5,283 " fill="#F1F1F1" style="stroke:#181818;stroke-width:0.5;"/><path d="M180.5,283 C180.5,293 240,293 240,293 C240,293 299.5,293 299.5,283 " fill="none" style="stroke:#181818;stroke-width:0.5;"/><text fill="#000000" font-family="sans-serif" font-size="14" lengthAdjust="spacing" textLength="99" x="190.5" y="311.5332">ApplicationData</text></g><!--entity Blob.enc--><g id="elem_Blob.enc"><path d="M287.5,612 L287.5,644.6094 A2.5,2.5 0 0 0 290,647.1094 L360,647.1094 A2.5,2.5 0 0 0 362.5,644.6094 L362.5,619.5 L352.5,609.5 L290,609.5 A2.5,2.5 0 0 0 287.5,612 " fill="#F1F1F1" style="stroke:#181818;stroke-width:0.5;"/><path d="M352.5,609.5 L352.5,617 A2.5,2.5 0 0 0 355,619.5 L362.5,619.5 " fill="#F1F1F1" style="stroke:#181818;stroke-width:0.5;"/><text fill="#000000" font-family="sans-serif" font-size="14" lengthAdjust="spacing" textLength="55" x="297.5" y="634.0332">Blob.enc</text></g><!--entity publicKey--><g id="elem_publicKey"><rect fill="#F1F1F1" height="37.6094" rx="35" ry="35" style="stroke:#181818;stroke-width:0.5;" width="81" x="397.5" y="609.5"/><text fill="#000000" font-family="sans-serif" font-size="14" lengthAdjust="spacing" textLength="61" x="407.5" y="634.0332">publicKey</text></g><!--entity unpack.js--><g id="elem_unpack.js"><ellipse cx="381" cy="444" fill="#F1F1F1" rx="12" ry="12" style="stroke:#181818;stroke-width:0.5;"/><polygon fill="#181818" points="377,432,383,427,381,432,383,437,377,432" style="stroke:#181818;stroke-width:1.0;"/><text fill="#000000" font-family="sans-serif" font-size="14" lengthAdjust="spacing" textLength="60" x="351" y="474.5332">unpack.js</text></g><!--entity ks1--><g id="elem_ks1"><rect fill="#F1F1F1" height="37.6094" rx="35" ry="35" style="stroke:#181818;stroke-width:0.5;" width="124" x="570" y="277.5"/><text fill="#000000" font-family="sans-serif" font-size="14" lengthAdjust="spacing" textLength="104" x="580" y="302.0332">Public Key Store</text></g><!--entity pks1--><g id="elem_pks1"><rect fill="#F1F1F1" height="37.6094" rx="35" ry="35" style="stroke:#181818;stroke-width:0.5;" width="130" x="729" y="277.5"/><text fill="#000000" font-family="sans-serif" font-size="14" lengthAdjust="spacing" textLength="110" x="739" y="302.0332">Private Key Store</text></g><!--entity ks2--><g id="elem_ks2"><rect fill="#F1F1F1" height="37.6094" rx="35" ry="35" style="stroke:#181818;stroke-width:0.5;" width="130" x="734" y="609.5"/><text fill="#000000" font-family="sans-serif" font-size="14" lengthAdjust="spacing" textLength="110" x="744" y="634.0332">Private Key Store</text></g><!--entity dp--><g id="elem_dp"><ellipse cx="649" cy="619.5" fill="#F1F1F1" rx="12" ry="12" style="stroke:#181818;stroke-width:0.5;"/><polygon fill="#181818" points="645,607.5,651,602.5,649,607.5,651,612.5,645,607.5" style="stroke:#181818;stroke-width:1.0;"/><text fill="#000000" font-family="sans-serif" font-size="14" lengthAdjust="spacing" textLength="99" x="599.5" y="650.0332">Deploy Process</text></g><!--entity ms1--><g id="elem_ms1"><rect fill="#F1F1F1" height="47.6094" rx="2.5" ry="2.5" style="stroke:#181818;stroke-width:0.5;" width="116" x="1197" y="761.5"/><path d="M1235.6667,761.5 L1235.6667,766.5 L1228.6667,773.5 L1197,773.5 " fill="none" style="stroke:#181818;stroke-width:0.5;"/><text fill="#000000" font-family="sans-serif" font-size="14" lengthAdjust="spacing" textLength="76" x="1212" y="796.0332">ms1:image1</text></g><!--entity ms2--><g id="elem_ms2"><rect fill="#F1F1F1" height="47.6094" rx="2.5" ry="2.5" style="stroke:#181818;stroke-width:0.5;" width="116" x="1046" y="761.5"/><path d="M1084.6667,761.5 L1084.6667,766.5 L1077.6667,773.5 L1046,773.5 " fill="none" style="stroke:#181818;stroke-width:0.5;"/><text fill="#000000" font-family="sans-serif" font-size="14" lengthAdjust="spacing" textLength="76" x="1061" y="796.0332">ms2:image2</text></g><!--entity ms3--><g id="elem_ms3"><rect fill="#F1F1F1" height="47.6094" rx="2.5" ry="2.5" style="stroke:#181818;stroke-width:0.5;" width="116" x="895" y="761.5"/><path d="M933.6667,761.5 L933.6667,766.5 L926.6667,773.5 L895,773.5 " fill="none" style="stroke:#181818;stroke-width:0.5;"/><text fill="#000000" font-family="sans-serif" font-size="14" lengthAdjust="spacing" textLength="76" x="910" y="796.0332">ms3:image3</text></g><!--entity SM--><g id="elem_SM"><rect fill="#F1F1F1" height="47.6094" rx="2.5" ry="2.5" style="stroke:#181818;stroke-width:0.5;" width="242" x="618" y="761.5"/><path d="M698.6667,761.5 L698.6667,766.5 L691.6667,773.5 L618,773.5 " fill="none" style="stroke:#181818;stroke-width:0.5;"/><text fill="#000000" font-family="sans-serif" font-size="14" lengthAdjust="spacing" textLength="202" x="633" y="796.0332">streamManager:streamManager</text></g><!--entity ad--><g id="elem_ad"><path d="M1044.5,879.5 C1044.5,869.5 1104,869.5 1104,869.5 C1104,869.5 1163.5,869.5 1163.5,879.5 L1163.5,906.1094 C1163.5,916.1094 1104,916.1094 1104,916.1094 C1104,916.1094 1044.5,916.1094 1044.5,906.1094 L1044.5,879.5 " fill="#F1F1F1" style="stroke:#181818;stroke-width:0.5;"/><path d="M1044.5,879.5 C1044.5,889.5 1104,889.5 1104,889.5 C1104,889.5 1163.5,889.5 1163.5,879.5 " fill="none" style="stroke:#181818;stroke-width:0.5;"/><text fill="#000000" font-family="sans-serif" font-size="14" lengthAdjust="spacing" textLength="99" x="1054.5" y="908.0332">ApplicationData</text></g><!--entity b2--><g id="elem_b2"><path d="M618.5,876.5 L618.5,909.1094 A2.5,2.5 0 0 0 621,911.6094 L693,911.6094 A2.5,2.5 0 0 0 695.5,909.1094 L695.5,884 L685.5,874 L621,874 A2.5,2.5 0 0 0 618.5,876.5 " fill="#F1F1F1" style="stroke:#181818;stroke-width:0.5;"/><path d="M685.5,874 L685.5,881.5 A2.5,2.5 0 0 0 688,884 L695.5,884 " fill="#F1F1F1" style="stroke:#181818;stroke-width:0.5;"/><text fill="#000000" font-family="sans-serif" font-size="14" lengthAdjust="spacing" textLength="57" x="628.5" y="898.5332">bundle.js</text></g><!--entity p2--><g id="elem_p2"><path d="M731,876.5 L731,909.1094 A2.5,2.5 0 0 0 733.5,911.6094 L798.5,911.6094 A2.5,2.5 0 0 0 801,909.1094 L801,884 L791,874 L733.5,874 A2.5,2.5 0 0 0 731,876.5 " fill="#F1F1F1" style="stroke:#181818;stroke-width:0.5;"/><path d="M791,874 L791,881.5 A2.5,2.5 0 0 0 793.5,884 L801,884 " fill="#F1F1F1" style="stroke:#181818;stroke-width:0.5;"/><text fill="#000000" font-family="sans-serif" font-size="14" lengthAdjust="spacing" textLength="50" x="741" y="898.5332">policy.js</text></g><!--entity sv--><g id="elem_sv"><rect fill="#F1F1F1" height="37.6094" rx="35" ry="35" style="stroke:#181818;stroke-width:0.5;" width="95" x="836.5" y="874"/><text fill="#000000" font-family="sans-serif" font-size="14" lengthAdjust="spacing" textLength="75" x="846.5" y="898.5332">secureVault</text></g><!--entity KG--><g id="elem_KG"><ellipse cx="711" cy="179" fill="#F1F1F1" rx="12" ry="12" style="stroke:#181818;stroke-width:0.5;"/><polygon fill="#181818" points="707,167,713,162,711,167,713,172,707,167" style="stroke:#181818;stroke-width:1.0;"/><text fill="#000000" font-family="sans-serif" font-size="14" lengthAdjust="spacing" textLength="99" x="661.5" y="209.5332">Key Generation</text></g><!--entity BP--><g id="elem_BP"><ellipse cx="521" cy="179" fill="#F1F1F1" rx="12" ry="12" style="stroke:#181818;stroke-width:0.5;"/><polygon fill="#181818" points="517,167,523,162,521,167,523,172,517,167" style="stroke:#181818;stroke-width:1.0;"/><text fill="#000000" font-family="sans-serif" font-size="14" lengthAdjust="spacing" textLength="86" x="478" y="209.5332">Build Process</text></g><!--entity dpp--><g id="elem_dpp"><ellipse cx="799" cy="435.5" fill="#F1F1F1" rx="12" ry="12" style="stroke:#181818;stroke-width:0.5;"/><polygon fill="#181818" points="795,423.5,801,418.5,799,423.5,801,428.5,795,423.5" style="stroke:#181818;stroke-width:1.0;"/><text fill="#000000" font-family="sans-serif" font-size="14" lengthAdjust="spacing" textLength="105" x="746.5" y="466.0332">Device Provision</text><text fill="#000000" font-family="sans-serif" font-size="14" lengthAdjust="spacing" textLength="51" x="746.5" y="483.6426">Process</text></g><!--reverse link unpack.js to publicKey--><g id="link_unpack.js_publicKey"><path d="M390.8021,483.8205 C402.3621,519.0205 421.73,577.97 432.05,609.39 " fill="none" id="unpack.js-backto-publicKey" style="stroke:#181818;stroke-width:1.0;"/><polygon fill="#181818" points="388.93,478.12,387.9378,487.9188,390.4901,482.8704,395.5384,485.4226,388.93,478.12" style="stroke:#181818;stroke-width:1.0;"/></g><!--link unpack.js to Blob.enc--><g id="link_unpack.js_Blob.enc"><path d="M373.21,478.12 C361.85,513.32 342.8344,572.2605 332.6844,603.6805 " fill="none" id="unpack.js-to-Blob.enc" style="stroke:#181818;stroke-width:1.0;stroke-dasharray:7.0,7.0;"/><polygon fill="#181818" points="330.84,609.39,337.4129,602.0554,332.377,604.6321,329.8003,599.5962,330.84,609.39" style="stroke:#181818;stroke-width:1.0;"/></g><!--link ms1 to ad--><g id="link_ms1_ad"><path d="M1221.86,809.65 C1196.43,827.42 1166.4185,848.3837 1141.1985,866.0037 " fill="none" id="ms1-to-ad" style="stroke:#181818;stroke-width:1.0;"/><polygon fill="#181818" points="1136.28,869.44,1145.9486,867.5645,1140.3788,866.5764,1141.3669,861.0065,1136.28,869.44" style="stroke:#181818;stroke-width:1.0;"/></g><!--link ms2 to ad--><g id="link_ms2_ad"><path d="M1104,809.65 C1104,827.36 1104,845.66 1104,863.26 " fill="none" id="ms2-to-ad" style="stroke:#181818;stroke-width:1.0;"/><polygon fill="#181818" points="1104,869.26,1108,860.26,1104,864.26,1100,860.26,1104,869.26" style="stroke:#181818;stroke-width:1.0;"/></g><!--link ms3 to ad--><g id="link_ms3_ad"><path d="M986.14,809.65 C1011.57,827.42 1041.5815,848.3837 1066.8015,866.0037 " fill="none" id="ms3-to-ad" style="stroke:#181818;stroke-width:1.0;"/><polygon fill="#181818" points="1071.72,869.44,1066.6331,861.0065,1067.6212,866.5764,1062.0514,867.5645,1071.72,869.44" style="stroke:#181818;stroke-width:1.0;"/></g><!--link SM to b2--><g id="link_SM_b2"><path d="M721,809.65 C706.01,828.94 688.6314,851.3022 674.8314,869.0622 " fill="none" id="SM-to-b2" style="stroke:#181818;stroke-width:1.0;"/><polygon fill="#181818" points="671.15,873.8,679.8307,869.1475,674.2179,869.8518,673.5136,864.239,671.15,873.8" style="stroke:#181818;stroke-width:1.0;"/></g><!--link SM to p2--><g id="link_SM_p2"><path d="M744.93,809.65 C749.86,828.94 755.314,850.2269 759.854,867.9869 " fill="none" id="SM-to-p2" style="stroke:#181818;stroke-width:1.0;"/><polygon fill="#181818" points="761.34,873.8,762.9864,864.0897,760.1017,868.9558,755.2356,866.0711,761.34,873.8" style="stroke:#181818;stroke-width:1.0;"/></g><!--link SM to sv--><g id="link_SM_sv"><path d="M770.82,809.65 C797.33,828.94 829.7183,852.51 854.1283,870.27 " fill="none" id="SM-to-sv" style="stroke:#181818;stroke-width:1.0;"/><polygon fill="#181818" points="858.98,873.8,854.0557,865.2706,854.9369,870.8584,849.3491,871.7395,858.98,873.8" style="stroke:#181818;stroke-width:1.0;"/></g><!--link dpp to ESC--><g id="link_dpp_ESC"><path d="M851.62,471.08 C862.51,476.91 872.83,484.55 880,494.5 C888.5925,506.42 894.1062,520.5281 897.5362,535.0255 C899.2512,542.2741 900.4453,549.6201 901.2428,556.8385 C901.2927,557.2897 901.341,557.7403 901.3877,558.1904 C901.4111,558.4155 900.833,552.6706 900.8556,552.8954 " fill="none" id="dpp-to-ESC" style="stroke:#181818;stroke-width:1.0;"/><polygon fill="#181818" points="901.4568,558.8652,904.535,549.5097,900.9558,553.8903,896.5752,550.3112,901.4568,558.8652" style="stroke:#181818;stroke-width:1.0;"/></g><!--link dpp to ks2--><g id="link_dpp_ks2"><path d="M799,486.63 C799,522.95 799,574.34 799,603.39 " fill="none" id="dpp-to-ks2" style="stroke:#181818;stroke-width:1.0;stroke-dasharray:7.0,7.0;"/><polygon fill="#181818" points="799,609.39,803,600.39,799,604.39,795,600.39,799,609.39" style="stroke:#181818;stroke-width:1.0;"/></g><!--link BB to dp--><g id="link_BB_dp"><path d="M511.2656,463.8246 C511.6885,464.3272 512.1255,464.8466 512.5764,465.3825 C514.3799,467.5259 516.4039,469.9313 518.6183,472.563 C527.4759,483.0897 539.3806,497.2369 552.4087,512.7188 C578.465,543.6825 605.1516,575.3943 624.8066,598.7493 " fill="none" id="BB-to-dp" style="stroke:#181818;stroke-width:1.0;"/><polygon fill="#181818" points="628.67,603.34,625.9354,593.8784,625.4505,599.5144,619.8145,599.0296,628.67,603.34" style="stroke:#181818;stroke-width:1.0;"/></g><!--link dp to SABR--><g id="link_dp_SABR"><path d="M630.17,653.6 C620.49,667.04 609.24,684.46 602,701.5 C600.2088,705.7175 598.5727,710.1306 597.0804,714.6302 C596.8939,715.1926 596.7096,715.7564 596.5275,716.3213 C596.4365,716.6038 598.1629,711.1682 598.073,711.4512 " fill="none" id="dp-to-SABR" style="stroke:#181818;stroke-width:1.0;"/><polygon fill="#181818" points="596.2561,717.1695,602.7936,709.8033,597.7702,712.4043,595.1692,707.3808,596.2561,717.1695" style="stroke:#181818;stroke-width:1.0;"/></g><!--link Bundle to BP--><g id="link_Bundle_BP"><path d="M454.0402,91.4745 C454.1044,91.5662 454.169,91.6582 454.2338,91.7508 C454.7527,92.4909 455.2913,93.2592 455.8482,94.0536 C456.9619,95.6424 458.1489,97.3357 459.3978,99.1173 C461.8955,102.6804 464.6406,106.5966 467.5425,110.7362 C479.15,127.295 489.8197,142.5178 500.6347,157.9378 " fill="none" id="Bundle-to-BP" style="stroke:#181818;stroke-width:1.0;"/><polygon fill="#181818" points="504.08,162.85,502.1869,153.1848,501.2089,158.7565,495.6373,157.7785,504.08,162.85" style="stroke:#181818;stroke-width:1.0;"/></g><!--link BP to BB--><g id="link_BP_BB"><path d="M519.34,213.27 C517.145,245.315 513.1525,303.6475 509.6638,354.6275 C509.2277,361 508.7994,367.2576 508.3836,373.3346 C508.1756,376.3732 507.9708,379.3665 507.7696,382.3065 C507.7445,382.674 508.129,377.0547 508.104,377.4205 " fill="none" id="BP-to-BB" style="stroke:#181818;stroke-width:1.0;"/><polygon fill="#181818" points="507.6944,383.4065,512.2995,374.7006,508.0357,378.4182,504.3181,374.1544,507.6944,383.4065" style="stroke:#181818;stroke-width:1.0;"/></g><!--reverse link BP to ks1--><g id="link_BP_ks1"><path d="M550.5201,217.3234 C570.8601,236.8334 594.7,259.72 613.14,277.4 " fill="none" id="BP-backto-ks1" style="stroke:#181818;stroke-width:1.0;stroke-dasharray:7.0,7.0;"/><polygon fill="#181818" points="546.19,213.17,549.9162,222.2868,549.7984,216.6311,555.454,216.5133,546.19,213.17" style="stroke:#181818;stroke-width:1.0;"/></g><!--link KG to ks1--><g id="link_KG_ks1"><path d="M693.07,213.17 C678.6,232.68 662.1138,254.9004 649.0038,272.5804 " fill="none" id="KG-to-ks1" style="stroke:#181818;stroke-width:1.0;"/><polygon fill="#181818" points="645.43,277.4,654.0037,272.5532,648.4081,273.3837,647.5776,267.7881,645.43,277.4" style="stroke:#181818;stroke-width:1.0;"/></g><!--link KG to pks1--><g id="link_KG_pks1"><path d="M729.83,213.17 C745.04,232.68 762.4199,254.9889 776.2099,272.6689 " fill="none" id="KG-to-pks1" style="stroke:#181818;stroke-width:1.0;"/><polygon fill="#181818" points="779.9,277.4,777.5189,267.8433,776.8249,273.4574,771.2108,272.7635,779.9,277.4" style="stroke:#181818;stroke-width:1.0;"/></g><!--link pks1 to dpp--><g id="link_pks1_dpp"><path d="M794.58,315.53 C795.41,340.92 796.7266,381.6531 797.7466,413.2731 " fill="none" id="pks1-to-dpp" style="stroke:#181818;stroke-width:1.0;stroke-dasharray:7.0,7.0;"/><polygon fill="#181818" points="797.94,419.27,801.6477,410.1457,797.7788,414.2726,793.6519,410.4036,797.94,419.27" style="stroke:#181818;stroke-width:1.0;"/></g><!--SRC=[VLHDQ-Cm4BthLuZqq9CTOjz2ATHjoI44GWDxsejYoLbjP5b8SY0i-Uyx-d1i9MaD2JFpdaTlD3D-_cEjCilvN0aYRT-AlExQEVnK9vcq6UNae4cB498TPNXMzP8ADiF4u63YVmZ3Stq3yvOSs08_DV0GyWWiVWBBRq1ZDIFjXaZWw8HZRASXY0shUyr-aLvO7syugDjxaVbVCuPK9tXz7aAKMB8dXk4tfI1EBE_a1yJG1Q7nz5XtrND1G_7Le25UW4zTYMwVCradkbI_XyHhTeuLIQixWNkfI7qSL5mz_99bDs-CM9w_ZaTSq91g1aoyOf9fhzxhMw_GY7lPUAkxcXaJv6yHQg2lqD6TkpPkp- -1BPZsZDrxB6meOxRrgh0xR0UnC0H7ixXXQNuYbjtGbEDD57-m4w-PatJY1ZJ_bbDrLAauRv7tHFq3YgBeJtfWtmZ_1EM-DKrpLy53RKTJ99q1SKfqPvmg0lN3XRrLN-6Am4YFYepMB9PX3Jol3NTq1Oi05X4i4h0CO1d1SW8cAx1ClA1dWtuOQCSW5DqjXell2tIt7RvjFlvWmHneJWw4ud2MlSRKK4tYbHDlj_5EF6pmLE91pelRF9W07u1cUjjDlkiJh9qBGpje8BWUeFWbSZuCThK5ovcLCr_ot0_fUkNnYUbdqltvx73AVm00]--></g></svg>