<?xml version="1.0" encoding="UTF-8" standalone="no"?><svg xmlns="http://www.w3.org/2000/svg" xmlns:xlink="http://www.w3.org/1999/xlink" contentScriptType="application/ecmascript" contentStyleType="text/css" height="1001px" preserveAspectRatio="none" style="width:1385px;height:1001px;" version="1.1" viewBox="0 0 1385 1001" width="1385px" zoomAndPan="magnify"><defs><filter height="300%" id="fh8dq7xlw5mtb" width="300%" x="-1" y="-1"><feGaussianBlur result="blurOut" stdDeviation="2.0"/><feColorMatrix in="blurOut" result="blurOut2" type="matrix" values="0 0 0 0 0 0 0 0 0 0 0 0 0 0 0 0 0 0 .4 0"/><feOffset dx="4.0" dy="4.0" in="blurOut2" result="blurOut3"/><feBlend in="SourceGraphic" in2="blurOut3" mode="normal"/></filter></defs><g><!--cluster Bundle--><polygon fill="#FFFFFF" filter="url(#fh8dq7xlw5mtb)" points="30,42.5,40,32.5,448,32.5,448,350.5,438,360.5,30,360.5,30,42.5" style="stroke: #000000; stroke-width: 1.5;"/><line style="stroke: #000000; stroke-width: 1.5;" x1="438" x2="447" y1="42.5" y2="33.5"/><line style="stroke: #000000; stroke-width: 1.5;" x1="30" x2="438" y1="42.5" y2="42.5"/><line style="stroke: #000000; stroke-width: 1.5;" x1="438" x2="438" y1="42.5" y2="360.5"/><text fill="#000000" font-family="sans-serif" font-size="14" font-weight="bold" lengthAdjust="spacingAndGlyphs" textLength="50" x="210" y="60.0332">Bundle</text><!--cluster BB--><rect fill="#FFFFAA" filter="url(#fh8dq7xlw5mtb)" height="287.5" style="stroke: #000000; stroke-width: 1.5;" width="248" x="257" y="400.5"/><rect fill="#FFFFAA" height="10" style="stroke: #000000; stroke-width: 1.5;" width="15" x="485" y="405.5"/><rect fill="#FFFFAA" height="2" style="stroke: #000000; stroke-width: 1.5;" width="4" x="483" y="407.5"/><rect fill="#FFFFAA" height="2" style="stroke: #000000; stroke-width: 1.5;" width="4" x="483" y="411.5"/><text fill="#000000" font-family="sans-serif" font-size="14" font-weight="bold" lengthAdjust="spacingAndGlyphs" textLength="86" x="338" y="428.0332">BundleBuild</text><!--cluster SC--><rect fill="#FFFFFF" filter="url(#fh8dq7xlw5mtb)" height="90" style="stroke: #000000; stroke-width: 1.5;" width="321" x="544" y="258"/><path d="M682,259 L682,268.6094 L672,278.6094 L544,278.6094 " fill="none" style="stroke: #000000; stroke-width: 1.5;"/><text fill="#000000" font-family="sans-serif" font-size="14" font-weight="bold" lengthAdjust="spacingAndGlyphs" textLength="128" x="547" y="273.5332">SecurityController</text><!--cluster Device--><polygon fill="#DDDDDD" filter="url(#fh8dq7xlw5mtb)" points="537,529,547,519,1363,519,1363,979,1353,989,537,989,537,529" style="stroke: #000000; stroke-width: 1.5;"/><line style="stroke: #000000; stroke-width: 1.5;" x1="1353" x2="1362" y1="529" y2="520"/><line style="stroke: #000000; stroke-width: 1.5;" x1="537" x2="1353" y1="529" y2="529"/><line style="stroke: #000000; stroke-width: 1.5;" x1="1353" x2="1353" y1="529" y2="989"/><text fill="#000000" font-family="sans-serif" font-size="14" font-weight="bold" lengthAdjust="spacingAndGlyphs" textLength="49" x="921.5" y="546.5332">Device</text><!--cluster ESC--><rect fill="#FFFFFF" filter="url(#fh8dq7xlw5mtb)" height="118" style="stroke: #000000; stroke-width: 1.5;" width="332" x="569" y="576"/><path d="M743,577 L743,586.6094 L733,596.6094 L569,596.6094 " fill="none" style="stroke: #000000; stroke-width: 1.5;"/><text fill="#000000" font-family="sans-serif" font-size="14" font-weight="bold" lengthAdjust="spacingAndGlyphs" textLength="164" x="572" y="591.5332">EdgeSecurityController</text><!--cluster SABR--><rect fill="#FFFFFF" filter="url(#fh8dq7xlw5mtb)" height="223" style="stroke: #000000; stroke-width: 1.5;" width="762" x="569" y="734"/><path d="M617,735 L617,744.6094 L607,754.6094 L569,754.6094 " fill="none" style="stroke: #000000; stroke-width: 1.5;"/><text fill="#000000" font-family="sans-serif" font-size="14" font-weight="bold" lengthAdjust="spacingAndGlyphs" textLength="38" x="572" y="749.5332">SABR</text><!--entity image1--><rect fill="#FFFFAA" filter="url(#fh8dq7xlw5mtb)" height="37.6094" style="stroke: #A80036; stroke-width: 1.5;" width="66" x="81" y="81.5"/><rect fill="#FFFFAA" height="5" style="stroke: #A80036; stroke-width: 1.5;" width="10" x="76" y="86.5"/><rect fill="#FFFFAA" height="5" style="stroke: #A80036; stroke-width: 1.5;" width="10" x="76" y="109.1094"/><text fill="#000000" font-family="sans-serif" font-size="14" lengthAdjust="spacingAndGlyphs" textLength="46" x="91" y="106.0332">image1</text><!--entity image2--><rect fill="#FFFFAA" filter="url(#fh8dq7xlw5mtb)" height="37.6094" style="stroke: #A80036; stroke-width: 1.5;" width="66" x="182" y="81.5"/><rect fill="#FFFFAA" height="5" style="stroke: #A80036; stroke-width: 1.5;" width="10" x="177" y="86.5"/><rect fill="#FFFFAA" height="5" style="stroke: #A80036; stroke-width: 1.5;" width="10" x="177" y="109.1094"/><text fill="#000000" font-family="sans-serif" font-size="14" lengthAdjust="spacingAndGlyphs" textLength="46" x="192" y="106.0332">image2</text><!--entity image3--><rect fill="#FFFFAA" filter="url(#fh8dq7xlw5mtb)" height="37.6094" style="stroke: #A80036; stroke-width: 1.5;" width="66" x="283" y="81.5"/><rect fill="#FFFFAA" height="5" style="stroke: #A80036; stroke-width: 1.5;" width="10" x="278" y="86.5"/><rect fill="#FFFFAA" height="5" style="stroke: #A80036; stroke-width: 1.5;" width="10" x="278" y="109.1094"/><text fill="#000000" font-family="sans-serif" font-size="14" lengthAdjust="spacingAndGlyphs" textLength="46" x="293" y="106.0332">image3</text><!--entity streamManager--><rect fill="#FFFFAA" filter="url(#fh8dq7xlw5mtb)" height="37.6094" style="stroke: #A80036; stroke-width: 1.5;" width="119" x="54.5" y="185.5"/><rect fill="#FFFFAA" height="5" style="stroke: #A80036; stroke-width: 1.5;" width="10" x="49.5" y="190.5"/><rect fill="#FFFFAA" height="5" style="stroke: #A80036; stroke-width: 1.5;" width="10" x="49.5" y="213.1094"/><text fill="#000000" font-family="sans-serif" font-size="14" lengthAdjust="spacingAndGlyphs" textLength="99" x="64.5" y="210.0332">streamManager</text><!--entity secureVault--><rect fill="#FEFECE" filter="url(#fh8dq7xlw5mtb)" height="37.6094" rx="35" ry="35" style="stroke: #000000; stroke-width: 1.5;" width="95" x="208.5" y="185.5"/><text fill="#000000" font-family="sans-serif" font-size="14" lengthAdjust="spacingAndGlyphs" textLength="75" x="218.5" y="210.0332">secureVault</text><!--entity bundle.js--><polygon fill="#FEFECE" filter="url(#fh8dq7xlw5mtb)" points="338.5,185.5,338.5,223.1094,415.5,223.1094,415.5,195.5,405.5,185.5,338.5,185.5" style="stroke: #000000; stroke-width: 1.5;"/><path d="M405.5,185.5 L405.5,195.5 L415.5,195.5 " fill="#FEFECE" style="stroke: #000000; stroke-width: 1.5;"/><text fill="#000000" font-family="sans-serif" font-size="14" lengthAdjust="spacingAndGlyphs" textLength="57" x="348.5" y="210.0332">bundle.js</text><!--entity policy.js--><polygon fill="#FEFECE" filter="url(#fh8dq7xlw5mtb)" points="79,294,79,331.6094,149,331.6094,149,304,139,294,79,294" style="stroke: #000000; stroke-width: 1.5;"/><path d="M139,294 L139,304 L149,304 " fill="#FEFECE" style="stroke: #000000; stroke-width: 1.5;"/><text fill="#000000" font-family="sans-serif" font-size="14" lengthAdjust="spacingAndGlyphs" textLength="50" x="89" y="318.5332">policy.js</text><!--entity ApplicationData--><path d="M184.5,299.5 C184.5,289.5 244,289.5 244,289.5 C244,289.5 303.5,289.5 303.5,299.5 L303.5,326.1094 C303.5,336.1094 244,336.1094 244,336.1094 C244,336.1094 184.5,336.1094 184.5,326.1094 L184.5,299.5 " fill="#FEFECE" filter="url(#fh8dq7xlw5mtb)" style="stroke: #000000; stroke-width: 1.5;"/><path d="M184.5,299.5 C184.5,309.5 244,309.5 244,309.5 C244,309.5 303.5,309.5 303.5,299.5 " fill="none" style="stroke: #000000; stroke-width: 1.5;"/><text fill="#000000" font-family="sans-serif" font-size="14" lengthAdjust="spacingAndGlyphs" textLength="99" x="194.5" y="328.0332">ApplicationData</text><!--entity Blob.enc--><polygon fill="#FEFECE" filter="url(#fh8dq7xlw5mtb)" points="281.5,626,281.5,663.6094,356.5,663.6094,356.5,636,346.5,626,281.5,626" style="stroke: #000000; stroke-width: 1.5;"/><path d="M346.5,626 L346.5,636 L356.5,636 " fill="#FEFECE" style="stroke: #000000; stroke-width: 1.5;"/><text fill="#000000" font-family="sans-serif" font-size="14" lengthAdjust="spacingAndGlyphs" textLength="55" x="291.5" y="650.5332">Blob.enc</text><!--entity publicKey--><rect fill="#FEFECE" filter="url(#fh8dq7xlw5mtb)" height="37.6094" rx="35" ry="35" style="stroke: #000000; stroke-width: 1.5;" width="81" x="391.5" y="626"/><text fill="#000000" font-family="sans-serif" font-size="14" lengthAdjust="spacingAndGlyphs" textLength="61" x="401.5" y="650.5332">publicKey</text><!--entity unpack.js--><ellipse cx="375" cy="460.5" fill="#FEFECE" filter="url(#fh8dq7xlw5mtb)" rx="12" ry="12" style="stroke: #A80036; stroke-width: 2.0;"/><polygon fill="#A80036" points="371,448.5,377,443.5,375,448.5,377,453.5,371,448.5" style="stroke: #A80036; stroke-width: 1.0;"/><text fill="#000000" font-family="sans-serif" font-size="14" lengthAdjust="spacingAndGlyphs" textLength="60" x="345" y="491.0332">unpack.js</text><!--entity ks1--><rect fill="#FEFECE" filter="url(#fh8dq7xlw5mtb)" height="37.6094" rx="35" ry="35" style="stroke: #000000; stroke-width: 1.5;" width="124" x="560" y="294"/><text fill="#000000" font-family="sans-serif" font-size="14" lengthAdjust="spacingAndGlyphs" textLength="104" x="570" y="318.5332">Public Key Store</text><!--entity pks1--><rect fill="#FEFECE" filter="url(#fh8dq7xlw5mtb)" height="37.6094" rx="35" ry="35" style="stroke: #000000; stroke-width: 1.5;" width="130" x="719" y="294"/><text fill="#000000" font-family="sans-serif" font-size="14" lengthAdjust="spacingAndGlyphs" textLength="110" x="729" y="318.5332">Private Key Store</text><!--entity ks2--><rect fill="#FEFECE" filter="url(#fh8dq7xlw5mtb)" height="37.6094" rx="35" ry="35" style="stroke: #000000; stroke-width: 1.5;" width="130" x="728" y="626"/><text fill="#000000" font-family="sans-serif" font-size="14" lengthAdjust="spacingAndGlyphs" textLength="110" x="738" y="650.5332">Private Key Store</text><!--entity dp--><ellipse cx="643" cy="636" fill="#FEFECE" filter="url(#fh8dq7xlw5mtb)" rx="12" ry="12" style="stroke: #A80036; stroke-width: 2.0;"/><polygon fill="#A80036" points="639,624,645,619,643,624,645,629,639,624" style="stroke: #A80036; stroke-width: 1.0;"/><text fill="#000000" font-family="sans-serif" font-size="14" lengthAdjust="spacingAndGlyphs" textLength="99" x="593.5" y="666.5332">Deploy Process</text><!--entity ms1--><rect fill="#FEFECE" filter="url(#fh8dq7xlw5mtb)" height="47.6094" style="stroke: #000000; stroke-width: 1.5;" width="116" x="1191" y="778"/><path d="M1229.6667,779 L1229.6667,783 L1222.6667,790 L1191,790 " fill="none" style="stroke: #000000; stroke-width: 1.5;"/><text fill="#000000" font-family="sans-serif" font-size="14" lengthAdjust="spacingAndGlyphs" textLength="76" x="1206" y="812.5332">ms1:image1</text><!--entity ms2--><rect fill="#FEFECE" filter="url(#fh8dq7xlw5mtb)" height="47.6094" style="stroke: #000000; stroke-width: 1.5;" width="116" x="1040" y="778"/><path d="M1078.6667,779 L1078.6667,783 L1071.6667,790 L1040,790 " fill="none" style="stroke: #000000; stroke-width: 1.5;"/><text fill="#000000" font-family="sans-serif" font-size="14" lengthAdjust="spacingAndGlyphs" textLength="76" x="1055" y="812.5332">ms2:image2</text><!--entity ms3--><rect fill="#FEFECE" filter="url(#fh8dq7xlw5mtb)" height="47.6094" style="stroke: #000000; stroke-width: 1.5;" width="116" x="889" y="778"/><path d="M927.6667,779 L927.6667,783 L920.6667,790 L889,790 " fill="none" style="stroke: #000000; stroke-width: 1.5;"/><text fill="#000000" font-family="sans-serif" font-size="14" lengthAdjust="spacingAndGlyphs" textLength="76" x="904" y="812.5332">ms3:image3</text><!--entity SM--><rect fill="#FEFECE" filter="url(#fh8dq7xlw5mtb)" height="47.6094" style="stroke: #000000; stroke-width: 1.5;" width="242" x="612" y="778"/><path d="M692.6667,779 L692.6667,783 L685.6667,790 L612,790 " fill="none" style="stroke: #000000; stroke-width: 1.5;"/><text fill="#000000" font-family="sans-serif" font-size="14" lengthAdjust="spacingAndGlyphs" textLength="202" x="627" y="812.5332">streamManager:streamManager</text><!--entity ad--><path d="M1038.5,896 C1038.5,886 1098,886 1098,886 C1098,886 1157.5,886 1157.5,896 L1157.5,922.6094 C1157.5,932.6094 1098,932.6094 1098,932.6094 C1098,932.6094 1038.5,932.6094 1038.5,922.6094 L1038.5,896 " fill="#FEFECE" filter="url(#fh8dq7xlw5mtb)" style="stroke: #000000; stroke-width: 1.5;"/><path d="M1038.5,896 C1038.5,906 1098,906 1098,906 C1098,906 1157.5,906 1157.5,896 " fill="none" style="stroke: #000000; stroke-width: 1.5;"/><text fill="#000000" font-family="sans-serif" font-size="14" lengthAdjust="spacingAndGlyphs" textLength="99" x="1048.5" y="924.5332">ApplicationData</text><!--entity b2--><polygon fill="#FEFECE" filter="url(#fh8dq7xlw5mtb)" points="612.5,890.5,612.5,928.1094,689.5,928.1094,689.5,900.5,679.5,890.5,612.5,890.5" style="stroke: #000000; stroke-width: 1.5;"/><path d="M679.5,890.5 L679.5,900.5 L689.5,900.5 " fill="#FEFECE" style="stroke: #000000; stroke-width: 1.5;"/><text fill="#000000" font-family="sans-serif" font-size="14" lengthAdjust="spacingAndGlyphs" textLength="57" x="622.5" y="915.0332">bundle.js</text><!--entity p2--><polygon fill="#FEFECE" filter="url(#fh8dq7xlw5mtb)" points="725,890.5,725,928.1094,795,928.1094,795,900.5,785,890.5,725,890.5" style="stroke: #000000; stroke-width: 1.5;"/><path d="M785,890.5 L785,900.5 L795,900.5 " fill="#FEFECE" style="stroke: #000000; stroke-width: 1.5;"/><text fill="#000000" font-family="sans-serif" font-size="14" lengthAdjust="spacingAndGlyphs" textLength="50" x="735" y="915.0332">policy.js</text><!--entity sv--><rect fill="#FEFECE" filter="url(#fh8dq7xlw5mtb)" height="37.6094" rx="35" ry="35" style="stroke: #000000; stroke-width: 1.5;" width="95" x="830.5" y="890.5"/><text fill="#000000" font-family="sans-serif" font-size="14" lengthAdjust="spacingAndGlyphs" textLength="75" x="840.5" y="915.0332">secureVault</text><!--entity KG--><ellipse cx="705" cy="195.5" fill="#FEFECE" filter="url(#fh8dq7xlw5mtb)" rx="12" ry="12" style="stroke: #A80036; stroke-width: 2.0;"/><polygon fill="#A80036" points="701,183.5,707,178.5,705,183.5,707,188.5,701,183.5" style="stroke: #A80036; stroke-width: 1.0;"/><text fill="#000000" font-family="sans-serif" font-size="14" lengthAdjust="spacingAndGlyphs" textLength="99" x="655.5" y="226.0332">Key Generation</text><!--entity BP--><ellipse cx="515" cy="195.5" fill="#FEFECE" filter="url(#fh8dq7xlw5mtb)" rx="12" ry="12" style="stroke: #A80036; stroke-width: 2.0;"/><polygon fill="#A80036" points="511,183.5,517,178.5,515,183.5,517,188.5,511,183.5" style="stroke: #A80036; stroke-width: 1.0;"/><text fill="#000000" font-family="sans-serif" font-size="14" lengthAdjust="spacingAndGlyphs" textLength="86" x="472" y="226.0332">Build Process</text><!--entity dpp--><ellipse cx="793" cy="452" fill="#FEFECE" filter="url(#fh8dq7xlw5mtb)" rx="12" ry="12" style="stroke: #A80036; stroke-width: 2.0;"/><polygon fill="#A80036" points="789,440,795,435,793,440,795,445,789,440" style="stroke: #A80036; stroke-width: 1.0;"/><text fill="#000000" font-family="sans-serif" font-size="14" lengthAdjust="spacingAndGlyphs" textLength="105" x="740.5" y="482.5332">Device Provision</text><text fill="#000000" font-family="sans-serif" font-size="14" lengthAdjust="spacingAndGlyphs" textLength="51" x="740.5" y="500.1426">Process</text><!--link unpack.js to publicKey--><path d="M384.613,499.762 C396.456,535.808 416.211,595.939 426.051,625.893 " fill="none" id="unpack.js-publicKey" style="stroke: #A80036; stroke-width: 1.0;"/><polygon fill="#A80036" points="382.926,494.624,381.9366,504.423,384.4874,499.3739,389.5365,501.9248,382.926,494.624" style="stroke: #A80036; stroke-width: 1.0;"/><!--link unpack.js to Blob.enc--><path d="M367.213,494.624 C356.43,528.033 337.083,587.976 326.47,620.856 " fill="none" id="unpack.js-Blob.enc" style="stroke: #A80036; stroke-width: 1.0; stroke-dasharray: 7.0,7.0;"/><polygon fill="#A80036" points="324.844,625.893,331.4148,618.5565,326.3796,621.1347,323.8015,616.0995,324.844,625.893" style="stroke: #A80036; stroke-width: 1.0;"/><!--link ms1 to ad--><path d="M1215.86,826.152 C1191.82,842.953 1159.29,865.675 1134.5,882.995 " fill="none" id="ms1-ad" style="stroke: #A80036; stroke-width: 1.0;"/><polygon fill="#A80036" points="1130.28,885.945,1139.9506,884.0796,1134.3817,883.0857,1135.3756,877.5168,1130.28,885.945" style="stroke: #A80036; stroke-width: 1.0;"/><!--link ms2 to ad--><path d="M1098,826.152 C1098,842.203 1098,863.66 1098,880.647 " fill="none" id="ms2-ad" style="stroke: #A80036; stroke-width: 1.0;"/><polygon fill="#A80036" points="1098,885.764,1102,876.764,1098,880.764,1094,876.764,1098,885.764" style="stroke: #A80036; stroke-width: 1.0;"/><!--link ms3 to ad--><path d="M980.138,826.152 C1004.183,842.953 1036.71,865.675 1061.5,882.995 " fill="none" id="ms3-ad" style="stroke: #A80036; stroke-width: 1.0;"/><polygon fill="#A80036" points="1065.72,885.945,1060.6244,877.5168,1061.6183,883.0857,1056.0494,884.0796,1065.72,885.945" style="stroke: #A80036; stroke-width: 1.0;"/><!--link SM to b2--><path d="M715.005,826.152 C701.184,843.934 682.207,868.35 668.509,885.973 " fill="none" id="SM-b2" style="stroke: #A80036; stroke-width: 1.0;"/><polygon fill="#A80036" points="665.147,890.299,673.828,885.6471,668.2151,886.351,667.5112,880.7381,665.147,890.299" style="stroke: #A80036; stroke-width: 1.0;"/><!--link SM to p2--><path d="M738.925,826.152 C743.399,843.633 749.513,867.524 754.004,885.071 " fill="none" id="SM-p2" style="stroke: #A80036; stroke-width: 1.0;"/><polygon fill="#A80036" points="755.342,890.299,756.9853,880.5882,754.1021,885.4552,749.2351,882.572,755.342,890.299" style="stroke: #A80036; stroke-width: 1.0;"/><!--link SM to sv--><path d="M764.821,826.152 C789.881,844.386 824.529,869.596 848.868,887.304 " fill="none" id="SM-sv" style="stroke: #A80036; stroke-width: 1.0;"/><polygon fill="#A80036" points="852.985,890.299,848.0592,881.7704,848.9414,887.3581,843.3537,888.2402,852.985,890.299" style="stroke: #A80036; stroke-width: 1.0;"/><!--link dpp to ESC--><path d="M845.623,487.582 C856.509,493.405 866.829,501.051 874,511 C882.592,522.9208 888.1058,537.029 891.5361,551.5262 C893.2513,558.7747 894.4456,566.1205 895.2433,573.3387 C895.2932,573.7899 895.3415,574.2405 895.3883,574.6906 C895.4117,574.9157 895.4347,575.1406 895.4573,575.3653 " fill="none" id="dpp-ESC" style="stroke: #A80036; stroke-width: 1.0;"/><polygon fill="#A80036" points="895.4573,575.3653,898.5352,566.0097,894.9562,570.3905,890.5754,566.8115,895.4573,575.3653" style="stroke: #A80036; stroke-width: 1.0;"/><!--link dpp to ks2--><path d="M793,503.134 C793,537.468 793,590.631 793,620.875 " fill="none" id="dpp-ks2" style="stroke: #A80036; stroke-width: 1.0; stroke-dasharray: 7.0,7.0;"/><polygon fill="#A80036" points="793,625.885,797,616.885,793,620.885,789,616.885,793,625.885" style="stroke: #A80036; stroke-width: 1.0;"/><!--link BB to dp--><path d="M505.1915,480.2345 C505.2939,480.3562 505.3972,480.479 505.5013,480.6027 C505.7096,480.8502 505.9212,481.1016 506.136,481.3569 C507.8551,483.3998 509.785,485.6932 511.8982,488.2044 C520.3509,498.2493 531.7357,511.7784 544.2826,526.6886 C569.3765,556.509 599.119,591.8535 619.351,615.896 " fill="none" id="BB-dp" style="stroke: #A80036; stroke-width: 1.0;"/><polygon fill="#A80036" points="622.671,619.841,619.9379,610.379,619.4521,616.0149,613.8162,615.5292,622.671,619.841" style="stroke: #A80036; stroke-width: 1.0;"/><!--link dp to SABR--><path d="M624.171,670.098 C614.49,683.538 603.237,700.963 596,718 C594.2084,722.2178 592.572,726.6311 591.0797,731.1308 C590.8931,731.6933 590.7088,732.2571 590.5268,732.822 C590.4357,733.1045 590.3453,733.3873 590.2553,733.6703 " fill="none" id="dp-SABR" style="stroke: #A80036; stroke-width: 1.0;"/><polygon fill="#A80036" points="590.2553,733.6703,596.7929,726.3041,591.7694,728.9051,589.1685,723.8816,590.2553,733.6703" style="stroke: #A80036; stroke-width: 1.0;"/><!--link Bundle to BP--><path d="M448.1593,112.5967 C448.4028,112.9279 448.6508,113.2651 448.903,113.6081 C449.9117,114.9799 450.9883,116.4441 452.1234,117.9878 C454.3936,121.0752 456.8975,124.4805 459.5591,128.1004 C470.2057,142.5798 483.3765,160.492 494.209,175.224 " fill="none" id="Bundle-BP" style="stroke: #A80036; stroke-width: 1.0;"/><polygon fill="#A80036" points="497.333,179.473,495.2253,169.8523,494.3715,175.4444,488.7795,174.5907,497.333,179.473" style="stroke: #A80036; stroke-width: 1.0;"/><!--link BP to BB--><path d="M513.339,229.771 C511.1455,261.8165 507.1532,320.149 503.6643,371.1293 C503.2281,377.5018 502.7999,383.7594 502.384,389.8365 C502.176,392.875 501.9711,395.8684 501.7699,398.8085 C501.7448,399.176 501.7197,399.5426 501.6947,399.9085 " fill="none" id="BP-BB" style="stroke: #A80036; stroke-width: 1.0;"/><polygon fill="#A80036" points="501.6947,399.9085,506.2998,391.2026,502.036,394.9201,498.3185,390.6564,501.6947,399.9085" style="stroke: #A80036; stroke-width: 1.0;"/><!--link BP to ks1--><path d="M543.041,233.41 C562.246,252.525 587.159,277.322 603.817,293.902 " fill="none" id="BP-ks1" style="stroke: #A80036; stroke-width: 1.0; stroke-dasharray: 7.0,7.0;"/><polygon fill="#A80036" points="539.28,229.666,542.8378,238.8498,542.8241,233.193,548.4809,233.1792,539.28,229.666" style="stroke: #A80036; stroke-width: 1.0;"/><!--link KG to ks1--><path d="M686.166,229.666 C672.145,247.658 653.144,272.039 639.462,289.594 " fill="none" id="KG-ks1" style="stroke: #A80036; stroke-width: 1.0;"/><polygon fill="#A80036" points="636.105,293.902,644.7926,289.2625,639.1788,289.9584,638.4829,284.3445,636.105,293.902" style="stroke: #A80036; stroke-width: 1.0;"/><!--link KG to pks1--><path d="M722.926,229.666 C736.272,247.658 754.357,272.039 767.379,289.594 " fill="none" id="KG-pks1" style="stroke: #A80036; stroke-width: 1.0;"/><polygon fill="#A80036" points="770.575,293.902,768.4261,284.2904,767.5963,289.8861,762.0006,289.0564,770.575,293.902" style="stroke: #A80036; stroke-width: 1.0;"/><!--link pks1 to dpp--><path d="M785.05,332.025 C786.448,356.029 788.957,399.1 790.784,430.45 " fill="none" id="pks1-dpp" style="stroke: #A80036; stroke-width: 1.0; stroke-dasharray: 7.0,7.0;"/><polygon fill="#A80036" points="791.093,435.768,794.5616,426.5502,790.8016,430.7765,786.5752,427.0164,791.093,435.768" style="stroke: #A80036; stroke-width: 1.0;"/><!--link image1 to image2--><!--link image2 to image3--><!--link image1 to streamManager--><!--link streamManager to secureVault--><!--link secureVault to bundle.js--><!--link streamManager to policy.js--><!--link policy.js to ApplicationData--><!--
@startuml


node "Bundle" as Bundle {
    component image1 #ffffaa
    component image2 #ffffaa
    component image3 #ffffaa
    component streamManager #ffffaa
    storage secureVault
    file bundle.js
    file policy.js
    database ApplicationData
}

component "BundleBuild" as BB #ffffaa {
    file Blob.enc
    storage publicKey
    control unpack.js
    unpack.js <- - publicKey
    unpack.js ..> Blob.enc
}
control "Key Generation" as KG

control "Build Process" as BP

frame "SecurityController" as SC {
    storage "Public Key Store" as ks1
    storage "Private Key Store" as pks1
}
control "Device Provision\nProcess" as dpp

node Device #dddddd {
frame "EdgeSecurityController" as ESC #ffffff {
    storage "Private Key Store" as ks2
    control "Deploy Process" as dp
}
frame "SABR" as SABR #ffffff {
   frame "ms1:image1" as ms1
   frame "ms2:image2" as ms2
   frame "ms3:image3" as ms3
   frame "streamManager:streamManager" as SM
   database ApplicationData as ad
   file bundle.js as b2
   file policy.js as p2
   storage secureVault as sv
   ms1 - -> ad
   ms2 - -> ad
   ms3 - -> ad
   SM - ->  b2
   SM - ->  p2
   SM - ->  sv
}
}

dpp - -> ESC
dpp ..> ks2
BB - -> dp
dp - -> SABR
Bundle - -> BP
BP - - -> BB
BP <.. ks1
KG - -> ks1
KG - -> pks1
pks1 ..> dpp
@enduml

PlantUML version 1.2019.05(Sat Apr 20 09:45:36 PDT 2019)
(GPL source distribution)
Java Runtime: Java(TM) SE Runtime Environment
JVM: Java HotSpot(TM) Client VM
Java Version: 1.8.0_271-b09
Operating System: Windows 10
OS Version: 10.0
Default Encoding: Cp1252
Language: en
Country: US
--></g></svg>