<?xml version="1.0" encoding="us-ascii" standalone="no"?><svg xmlns="http://www.w3.org/2000/svg" xmlns:xlink="http://www.w3.org/1999/xlink" contentStyleType="text/css" height="412px" preserveAspectRatio="none" style="width:690px;height:412px;background:#FFFFFF;" version="1.1" viewBox="0 0 690 412" width="690px" zoomAndPan="magnify"><defs/><g><rect fill="none" height="48.7031" style="stroke:#000000;stroke-width:1.5;" width="428" x="256" y="203.6641"/><line style="stroke:#181818;stroke-width:0.5;stroke-dasharray:5.0,5.0;" x1="45" x2="45" y1="82.6094" y2="330.0703"/><line style="stroke:#181818;stroke-width:0.5;stroke-dasharray:5.0,5.0;" x1="176" x2="176" y1="82.6094" y2="330.0703"/><line style="stroke:#181818;stroke-width:0.5;stroke-dasharray:5.0,5.0;" x1="312" x2="312" y1="82.6094" y2="330.0703"/><line style="stroke:#181818;stroke-width:0.5;stroke-dasharray:5.0,5.0;" x1="410" x2="410" y1="82.6094" y2="330.0703"/><line style="stroke:#181818;stroke-width:0.5;stroke-dasharray:5.0,5.0;" x1="644" x2="644" y1="82.6094" y2="330.0703"/><text fill="#000000" font-family="sans-serif" font-size="14" lengthAdjust="spacing" textLength="75" x="5" y="79.5332">DevSecOps</text><ellipse cx="45.5" cy="13.5" fill="#E2E2F0" rx="8" ry="8" style="stroke:#181818;stroke-width:0.5;"/><path d="M45.5,21.5 L45.5,48.5 M32.5,29.5 L58.5,29.5 M45.5,48.5 L32.5,63.5 M45.5,48.5 L58.5,63.5 " fill="none" style="stroke:#181818;stroke-width:0.5;"/><text fill="#000000" font-family="sans-serif" font-size="14" lengthAdjust="spacing" textLength="75" x="5" y="343.6035">DevSecOps</text><ellipse cx="45.5" cy="355.1797" fill="#E2E2F0" rx="8" ry="8" style="stroke:#181818;stroke-width:0.5;"/><path d="M45.5,363.1797 L45.5,390.1797 M32.5,371.1797 L58.5,371.1797 M45.5,390.1797 L32.5,405.1797 M45.5,390.1797 L58.5,405.1797 " fill="none" style="stroke:#181818;stroke-width:0.5;"/><rect fill="#E2E2F0" height="31.6094" rx="2.5" ry="2.5" style="stroke:#181818;stroke-width:0.5;" width="160" x="96" y="50"/><text fill="#000000" font-family="sans-serif" font-size="14" lengthAdjust="spacing" textLength="146" x="103" y="71.5332">EdgeSecurityController</text><rect fill="#E2E2F0" height="31.6094" rx="2.5" ry="2.5" style="stroke:#181818;stroke-width:0.5;" width="160" x="96" y="329.0703"/><text fill="#000000" font-family="sans-serif" font-size="14" lengthAdjust="spacing" textLength="146" x="103" y="350.6035">EdgeSecurityController</text><rect fill="#E2E2F0" height="31.6094" rx="2.5" ry="2.5" style="stroke:#181818;stroke-width:0.5;" width="93" x="266" y="50"/><text fill="#000000" font-family="sans-serif" font-size="14" lengthAdjust="spacing" textLength="79" x="273" y="71.5332">Bundle Build</text><rect fill="#E2E2F0" height="31.6094" rx="2.5" ry="2.5" style="stroke:#181818;stroke-width:0.5;" width="93" x="266" y="329.0703"/><text fill="#000000" font-family="sans-serif" font-size="14" lengthAdjust="spacing" textLength="79" x="273" y="350.6035">Bundle Build</text><rect fill="#E2E2F0" height="31.6094" rx="2.5" ry="2.5" style="stroke:#181818;stroke-width:0.5;" width="51" x="385" y="50"/><text fill="#000000" font-family="sans-serif" font-size="14" lengthAdjust="spacing" textLength="37" x="392" y="71.5332">SABR</text><rect fill="#E2E2F0" height="31.6094" rx="2.5" ry="2.5" style="stroke:#181818;stroke-width:0.5;" width="51" x="385" y="329.0703"/><text fill="#000000" font-family="sans-serif" font-size="14" lengthAdjust="spacing" textLength="37" x="392" y="350.6035">SABR</text><rect fill="#E2E2F0" height="31.6094" rx="2.5" ry="2.5" style="stroke:#181818;stroke-width:0.5;" width="59" x="615" y="50"/><text fill="#000000" font-family="sans-serif" font-size="14" lengthAdjust="spacing" textLength="45" x="622" y="71.5332">Docker</text><rect fill="#E2E2F0" height="31.6094" rx="2.5" ry="2.5" style="stroke:#181818;stroke-width:0.5;" width="59" x="615" y="329.0703"/><text fill="#000000" font-family="sans-serif" font-size="14" lengthAdjust="spacing" textLength="45" x="622" y="350.6035">Docker</text><polygon fill="#181818" points="164,110.9609,174,114.9609,164,118.9609,168,114.9609" style="stroke:#181818;stroke-width:1.0;"/><line style="stroke:#181818;stroke-width:1.0;" x1="45.5" x2="170" y1="114.9609" y2="114.9609"/><text fill="#000000" font-family="sans-serif" font-size="13" lengthAdjust="spacing" textLength="73" x="52.5" y="110.1045">deploy(SAB)</text><polygon fill="#181818" points="300.5,141.3125,310.5,145.3125,300.5,149.3125,304.5,145.3125" style="stroke:#181818;stroke-width:1.0;"/><line style="stroke:#181818;stroke-width:1.0;" x1="45.5" x2="306.5" y1="145.3125" y2="145.3125"/><text fill="#000000" font-family="sans-serif" font-size="13" lengthAdjust="spacing" textLength="42" x="52.5" y="140.4561">unpack</text><line style="stroke:#181818;stroke-width:1.0;" x1="312.5" x2="354.5" y1="175.6641" y2="175.6641"/><line style="stroke:#181818;stroke-width:1.0;" x1="354.5" x2="354.5" y1="175.6641" y2="188.6641"/><line style="stroke:#181818;stroke-width:1.0;" x1="313.5" x2="354.5" y1="188.6641" y2="188.6641"/><polygon fill="#181818" points="323.5,184.6641,313.5,188.6641,323.5,192.6641,319.5,188.6641" style="stroke:#181818;stroke-width:1.0;"/><text fill="#000000" font-family="sans-serif" font-size="13" lengthAdjust="spacing" textLength="84" x="319.5" y="170.8076">decrypt(iv,key)</text><path d="M256,203.6641 L329,203.6641 L329,212.0156 L319,222.0156 L256,222.0156 L256,203.6641 " fill="#EEEEEE" style="stroke:#000000;stroke-width:1.5;"/><rect fill="none" height="48.7031" style="stroke:#000000;stroke-width:1.5;" width="428" x="256" y="203.6641"/><text fill="#000000" font-family="sans-serif" font-size="13" font-weight="bold" lengthAdjust="spacing" textLength="28" x="271" y="218.1592">loop</text><text fill="#000000" font-family="sans-serif" font-size="11" font-weight="bold" lengthAdjust="spacing" textLength="30" x="344" y="217.083">[*.tar]</text><polygon fill="#181818" points="632.5,240.3672,642.5,244.3672,632.5,248.3672,636.5,244.3672" style="stroke:#181818;stroke-width:1.0;"/><line style="stroke:#181818;stroke-width:1.0;" x1="312.5" x2="638.5" y1="244.3672" y2="244.3672"/><text fill="#000000" font-family="sans-serif" font-size="13" lengthAdjust="spacing" textLength="102" x="319.5" y="239.5107">loadImage(file.tar)</text><polygon fill="#181818" points="398.5,277.7188,408.5,281.7188,398.5,285.7188,402.5,281.7188" style="stroke:#181818;stroke-width:1.0;"/><line style="stroke:#181818;stroke-width:1.0;" x1="312.5" x2="404.5" y1="281.7188" y2="281.7188"/><text fill="#000000" font-family="sans-serif" font-size="13" lengthAdjust="spacing" textLength="38" x="319.5" y="276.8623">deploy</text><polygon fill="#181818" points="632.5,308.0703,642.5,312.0703,632.5,316.0703,636.5,312.0703" style="stroke:#181818;stroke-width:1.0;"/><line style="stroke:#181818;stroke-width:1.0;" x1="410.5" x2="638.5" y1="312.0703" y2="312.0703"/><text fill="#000000" font-family="sans-serif" font-size="13" lengthAdjust="spacing" textLength="210" x="417.5" y="307.2139">stack deploy(docker-compose.yaml)</text><!--SRC=[LOx1Zi8m34Jl-GgBKxjQ-80zh4Gf1qv8z0kinA2eQHovBbB-VXDMHVJccNaQ3rfbWPwU0zbhcW5dw8UhIIZghKyO5SxkGILTn6i-SLJX44WgUHvE6tBNBT45WcxnmUqgCHox3L7qRMFqR4SIOyfJsF_MHlW1HobmRWhSha6vIx34X7OqLRmzHrPoqiO_lqVAhGdC2RuEYh9o_pyA6XZTPS87DNSVg2AjeUX0A17gH-tjFSAyr6V9h6N2Ej6ztBtbAV5CXunJQFy0]--></g></svg>