<?xml version="1.0" encoding="us-ascii" standalone="no"?><svg xmlns="http://www.w3.org/2000/svg" xmlns:xlink="http://www.w3.org/1999/xlink" contentStyleType="text/css" height="1144px" preserveAspectRatio="none" style="width:3237px;height:1144px;background:#FFFFFF;" version="1.1" viewBox="0 0 3237 1144" width="3237px" zoomAndPan="magnify"><defs/><g><!--cluster Data Stream Manager--><g id="cluster_Data Stream Manager"><path d="M881,1021 L1032,1021 A3.75,3.75 0 0 1 1034.5,1023.5 L1041.5,1044.6094 L2012,1044.6094 A2.5,2.5 0 0 1 2014.5,1047.1094 L2014.5,1134.5 A2.5,2.5 0 0 1 2012,1137 L881,1137 A2.5,2.5 0 0 1 878.5,1134.5 L878.5,1023.5 A2.5,2.5 0 0 1 881,1021 " fill="#FFCC88" style="stroke:#000000;stroke-width:1.5;"/><line style="stroke:#000000;stroke-width:1.5;" x1="878.5" x2="1041.5" y1="1044.6094" y2="1044.6094"/><text fill="#000000" font-family="sans-serif" font-size="14" font-weight="bold" lengthAdjust="spacing" textLength="150" x="882.5" y="1037.5332">Data Stream Manager</text></g><!--cluster Security Aspect--><g id="cluster_Security Aspect"><path d="M2289,804 L2399,804 A3.75,3.75 0 0 1 2401.5,806.5 L2408.5,827.6094 L2603,827.6094 A2.5,2.5 0 0 1 2605.5,830.1094 L2605.5,917.5 A2.5,2.5 0 0 1 2603,920 L2289,920 A2.5,2.5 0 0 1 2286.5,917.5 L2286.5,806.5 A2.5,2.5 0 0 1 2289,804 " fill="#FFC0CB" style="stroke:#000000;stroke-width:1.5;"/><line style="stroke:#000000;stroke-width:1.5;" x1="2286.5" x2="2408.5" y1="827.6094" y2="827.6094"/><text fill="#000000" font-family="sans-serif" font-size="14" font-weight="bold" lengthAdjust="spacing" textLength="109" x="2290.5" y="820.5332">Security Aspect</text></g><!--cluster Application Manager--><g id="cluster_Application Manager"><path d="M1823,804 L1968,804 A3.75,3.75 0 0 1 1970.5,806.5 L1977.5,827.6094 L2244,827.6094 A2.5,2.5 0 0 1 2246.5,830.1094 L2246.5,917.5 A2.5,2.5 0 0 1 2244,920 L1823,920 A2.5,2.5 0 0 1 1820.5,917.5 L1820.5,806.5 A2.5,2.5 0 0 1 1823,804 " fill="#00AAFF" style="stroke:#000000;stroke-width:1.5;"/><line style="stroke:#000000;stroke-width:1.5;" x1="1820.5" x2="1977.5" y1="827.6094" y2="827.6094"/><text fill="#000000" font-family="sans-serif" font-size="14" font-weight="bold" lengthAdjust="spacing" textLength="144" x="1824.5" y="820.5332">Application Manager</text></g><!--cluster Learning Corpus--><g id="cluster_Learning Corpus"><path d="M2648,804 L2766,804 A3.75,3.75 0 0 1 2768.5,806.5 L2775.5,827.6094 L2792,827.6094 A2.5,2.5 0 0 1 2794.5,830.1094 L2794.5,917.5 A2.5,2.5 0 0 1 2792,920 L2648,920 A2.5,2.5 0 0 1 2645.5,917.5 L2645.5,806.5 A2.5,2.5 0 0 1 2648,804 " fill="#00AAFF" style="stroke:#000000;stroke-width:1.5;"/><line style="stroke:#000000;stroke-width:1.5;" x1="2645.5" x2="2775.5" y1="827.6094" y2="827.6094"/><text fill="#000000" font-family="sans-serif" font-size="14" font-weight="bold" lengthAdjust="spacing" textLength="117" x="2649.5" y="820.5332">Learning Corpus</text></g><!--cluster Sentient Agent Bundle Manager--><g id="cluster_Sentient Agent Bundle Manager"><path d="M571,71 L796,71 A3.75,3.75 0 0 1 798.5,73.5 L805.5,94.6094 L1217,94.6094 A2.5,2.5 0 0 1 1219.5,97.1094 L1219.5,952.5 A2.5,2.5 0 0 1 1217,955 L571,955 A2.5,2.5 0 0 1 568.5,952.5 L568.5,73.5 A2.5,2.5 0 0 1 571,71 " fill="#FFCC88" style="stroke:#000000;stroke-width:1.5;"/><line style="stroke:#000000;stroke-width:1.5;" x1="568.5" x2="805.5" y1="94.6094" y2="94.6094"/><text fill="#000000" font-family="sans-serif" font-size="14" font-weight="bold" lengthAdjust="spacing" textLength="224" x="572.5" y="87.5332">Sentient Agent Bundle Manager</text></g><!--class ChannelCreationPolicy--><g id="elem_ChannelCreationPolicy"><rect codeLine="5" fill="#F1F1F1" height="48" id="ChannelCreationPolicy" rx="2.5" ry="2.5" style="stroke:#181818;stroke-width:0.5;" width="176" x="1449.5" y="1065"/><ellipse cx="1464.5" cy="1081" fill="#ADD1B2" rx="11" ry="11" style="stroke:#181818;stroke-width:1.0;"/><path d="M1467.2656,1076.875 Q1467.4219,1076.6563 1467.6094,1076.5469 Q1467.7969,1076.4375 1468.0156,1076.4375 Q1468.3906,1076.4375 1468.625,1076.6953 Q1468.8594,1076.9531 1468.8594,1077.5625 L1468.8594,1079.0156 Q1468.8594,1079.625 1468.625,1079.8906 Q1468.3906,1080.1563 1468.0156,1080.1563 Q1467.6719,1080.1563 1467.4688,1079.9531 Q1467.2656,1079.7656 1467.1563,1079.25 Q1467.1094,1078.8906 1466.9219,1078.7031 Q1466.5938,1078.3281 1465.9844,1078.1094 Q1465.375,1077.8906 1464.75,1077.8906 Q1463.9844,1077.8906 1463.3516,1078.2188 Q1462.7188,1078.5469 1462.2266,1079.2969 Q1461.7344,1080.0469 1461.7344,1081.0781 L1461.7344,1082.1719 Q1461.7344,1083.4063 1462.625,1084.2266 Q1463.5156,1085.0469 1465.1094,1085.0469 Q1466.0469,1085.0469 1466.7031,1084.7969 Q1467.0938,1084.6406 1467.5156,1084.2031 Q1467.7813,1083.9375 1467.9297,1083.8594 Q1468.0781,1083.7813 1468.2813,1083.7813 Q1468.6094,1083.7813 1468.8672,1084.0391 Q1469.125,1084.2969 1469.125,1084.6406 Q1469.125,1084.9844 1468.7813,1085.3906 Q1468.2813,1085.9688 1467.4844,1086.2969 Q1466.4063,1086.75 1465.1094,1086.75 Q1463.5938,1086.75 1462.3906,1086.125 Q1461.4063,1085.625 1460.7188,1084.5547 Q1460.0313,1083.4844 1460.0313,1082.2031 L1460.0313,1081.0469 Q1460.0313,1079.7188 1460.6484,1078.5703 Q1461.2656,1077.4219 1462.3594,1076.8047 Q1463.4531,1076.1875 1464.6875,1076.1875 Q1465.4219,1076.1875 1466.0703,1076.3516 Q1466.7188,1076.5156 1467.2656,1076.875 Z " fill="#000000"/><text fill="#000000" font-family="sans-serif" font-size="14" lengthAdjust="spacing" textLength="144" x="1478.5" y="1086.7285">ChannelCreationPolicy</text><line style="stroke:#181818;stroke-width:0.5;" x1="1450.5" x2="1624.5" y1="1097" y2="1097"/><line style="stroke:#181818;stroke-width:0.5;" x1="1450.5" x2="1624.5" y1="1105" y2="1105"/></g><!--class DataChannel--><g id="elem_DataChannel"><rect codeLine="8" fill="#F1F1F1" height="48" id="DataChannel" rx="2.5" ry="2.5" style="stroke:#181818;stroke-width:0.5;" width="115" x="1661" y="1065"/><ellipse cx="1676" cy="1081" fill="#ADD1B2" rx="11" ry="11" style="stroke:#181818;stroke-width:1.0;"/><path d="M1678.7656,1076.875 Q1678.9219,1076.6563 1679.1094,1076.5469 Q1679.2969,1076.4375 1679.5156,1076.4375 Q1679.8906,1076.4375 1680.125,1076.6953 Q1680.3594,1076.9531 1680.3594,1077.5625 L1680.3594,1079.0156 Q1680.3594,1079.625 1680.125,1079.8906 Q1679.8906,1080.1563 1679.5156,1080.1563 Q1679.1719,1080.1563 1678.9688,1079.9531 Q1678.7656,1079.7656 1678.6563,1079.25 Q1678.6094,1078.8906 1678.4219,1078.7031 Q1678.0938,1078.3281 1677.4844,1078.1094 Q1676.875,1077.8906 1676.25,1077.8906 Q1675.4844,1077.8906 1674.8516,1078.2188 Q1674.2188,1078.5469 1673.7266,1079.2969 Q1673.2344,1080.0469 1673.2344,1081.0781 L1673.2344,1082.1719 Q1673.2344,1083.4063 1674.125,1084.2266 Q1675.0156,1085.0469 1676.6094,1085.0469 Q1677.5469,1085.0469 1678.2031,1084.7969 Q1678.5938,1084.6406 1679.0156,1084.2031 Q1679.2813,1083.9375 1679.4297,1083.8594 Q1679.5781,1083.7813 1679.7813,1083.7813 Q1680.1094,1083.7813 1680.3672,1084.0391 Q1680.625,1084.2969 1680.625,1084.6406 Q1680.625,1084.9844 1680.2813,1085.3906 Q1679.7813,1085.9688 1678.9844,1086.2969 Q1677.9063,1086.75 1676.6094,1086.75 Q1675.0938,1086.75 1673.8906,1086.125 Q1672.9063,1085.625 1672.2188,1084.5547 Q1671.5313,1083.4844 1671.5313,1082.2031 L1671.5313,1081.0469 Q1671.5313,1079.7188 1672.1484,1078.5703 Q1672.7656,1077.4219 1673.8594,1076.8047 Q1674.9531,1076.1875 1676.1875,1076.1875 Q1676.9219,1076.1875 1677.5703,1076.3516 Q1678.2188,1076.5156 1678.7656,1076.875 Z " fill="#000000"/><text fill="#000000" font-family="sans-serif" font-size="14" lengthAdjust="spacing" textLength="83" x="1690" y="1086.7285">DataChannel</text><line style="stroke:#181818;stroke-width:0.5;" x1="1662" x2="1775" y1="1097" y2="1097"/><line style="stroke:#181818;stroke-width:0.5;" x1="1662" x2="1775" y1="1105" y2="1105"/></g><!--class DataStreamInstance--><g id="elem_DataStreamInstance"><rect codeLine="11" fill="#F1F1F1" height="48" id="DataStreamInstance" rx="2.5" ry="2.5" style="stroke:#181818;stroke-width:0.5;" width="160" x="1811.5" y="1065"/><ellipse cx="1826.5" cy="1081" fill="#ADD1B2" rx="11" ry="11" style="stroke:#181818;stroke-width:1.0;"/><path d="M1829.2656,1076.875 Q1829.4219,1076.6563 1829.6094,1076.5469 Q1829.7969,1076.4375 1830.0156,1076.4375 Q1830.3906,1076.4375 1830.625,1076.6953 Q1830.8594,1076.9531 1830.8594,1077.5625 L1830.8594,1079.0156 Q1830.8594,1079.625 1830.625,1079.8906 Q1830.3906,1080.1563 1830.0156,1080.1563 Q1829.6719,1080.1563 1829.4688,1079.9531 Q1829.2656,1079.7656 1829.1563,1079.25 Q1829.1094,1078.8906 1828.9219,1078.7031 Q1828.5938,1078.3281 1827.9844,1078.1094 Q1827.375,1077.8906 1826.75,1077.8906 Q1825.9844,1077.8906 1825.3516,1078.2188 Q1824.7188,1078.5469 1824.2266,1079.2969 Q1823.7344,1080.0469 1823.7344,1081.0781 L1823.7344,1082.1719 Q1823.7344,1083.4063 1824.625,1084.2266 Q1825.5156,1085.0469 1827.1094,1085.0469 Q1828.0469,1085.0469 1828.7031,1084.7969 Q1829.0938,1084.6406 1829.5156,1084.2031 Q1829.7813,1083.9375 1829.9297,1083.8594 Q1830.0781,1083.7813 1830.2813,1083.7813 Q1830.6094,1083.7813 1830.8672,1084.0391 Q1831.125,1084.2969 1831.125,1084.6406 Q1831.125,1084.9844 1830.7813,1085.3906 Q1830.2813,1085.9688 1829.4844,1086.2969 Q1828.4063,1086.75 1827.1094,1086.75 Q1825.5938,1086.75 1824.3906,1086.125 Q1823.4063,1085.625 1822.7188,1084.5547 Q1822.0313,1083.4844 1822.0313,1082.2031 L1822.0313,1081.0469 Q1822.0313,1079.7188 1822.6484,1078.5703 Q1823.2656,1077.4219 1824.3594,1076.8047 Q1825.4531,1076.1875 1826.6875,1076.1875 Q1827.4219,1076.1875 1828.0703,1076.3516 Q1828.7188,1076.5156 1829.2656,1076.875 Z " fill="#000000"/><text fill="#000000" font-family="sans-serif" font-size="14" lengthAdjust="spacing" textLength="128" x="1840.5" y="1086.7285">DataStreamInstance</text><line style="stroke:#181818;stroke-width:0.5;" x1="1812.5" x2="1970.5" y1="1097" y2="1097"/><line style="stroke:#181818;stroke-width:0.5;" x1="1812.5" x2="1970.5" y1="1105" y2="1105"/></g><!--class DataStream--><g id="elem_DataStream"><rect codeLine="14" fill="#F1F1F1" height="48" id="DataStream" rx="2.5" ry="2.5" style="stroke:#181818;stroke-width:0.5;" width="107" x="1307" y="1065"/><ellipse cx="1322" cy="1081" fill="#ADD1B2" rx="11" ry="11" style="stroke:#181818;stroke-width:1.0;"/><path d="M1324.7656,1076.875 Q1324.9219,1076.6563 1325.1094,1076.5469 Q1325.2969,1076.4375 1325.5156,1076.4375 Q1325.8906,1076.4375 1326.125,1076.6953 Q1326.3594,1076.9531 1326.3594,1077.5625 L1326.3594,1079.0156 Q1326.3594,1079.625 1326.125,1079.8906 Q1325.8906,1080.1563 1325.5156,1080.1563 Q1325.1719,1080.1563 1324.9688,1079.9531 Q1324.7656,1079.7656 1324.6563,1079.25 Q1324.6094,1078.8906 1324.4219,1078.7031 Q1324.0938,1078.3281 1323.4844,1078.1094 Q1322.875,1077.8906 1322.25,1077.8906 Q1321.4844,1077.8906 1320.8516,1078.2188 Q1320.2188,1078.5469 1319.7266,1079.2969 Q1319.2344,1080.0469 1319.2344,1081.0781 L1319.2344,1082.1719 Q1319.2344,1083.4063 1320.125,1084.2266 Q1321.0156,1085.0469 1322.6094,1085.0469 Q1323.5469,1085.0469 1324.2031,1084.7969 Q1324.5938,1084.6406 1325.0156,1084.2031 Q1325.2813,1083.9375 1325.4297,1083.8594 Q1325.5781,1083.7813 1325.7813,1083.7813 Q1326.1094,1083.7813 1326.3672,1084.0391 Q1326.625,1084.2969 1326.625,1084.6406 Q1326.625,1084.9844 1326.2813,1085.3906 Q1325.7813,1085.9688 1324.9844,1086.2969 Q1323.9063,1086.75 1322.6094,1086.75 Q1321.0938,1086.75 1319.8906,1086.125 Q1318.9063,1085.625 1318.2188,1084.5547 Q1317.5313,1083.4844 1317.5313,1082.2031 L1317.5313,1081.0469 Q1317.5313,1079.7188 1318.1484,1078.5703 Q1318.7656,1077.4219 1319.8594,1076.8047 Q1320.9531,1076.1875 1322.1875,1076.1875 Q1322.9219,1076.1875 1323.5703,1076.3516 Q1324.2188,1076.5156 1324.7656,1076.875 Z " fill="#000000"/><text fill="#000000" font-family="sans-serif" font-size="14" lengthAdjust="spacing" textLength="75" x="1336" y="1086.7285">DataStream</text><line style="stroke:#181818;stroke-width:0.5;" x1="1308" x2="1413" y1="1097" y2="1097"/><line style="stroke:#181818;stroke-width:0.5;" x1="1308" x2="1413" y1="1105" y2="1105"/></g><!--class InputStreamInstance--><g id="elem_InputStreamInstance"><rect codeLine="17" fill="#F1F1F1" height="48" id="InputStreamInstance" rx="2.5" ry="2.5" style="stroke:#181818;stroke-width:0.5;" width="161" x="1111" y="1065"/><ellipse cx="1126" cy="1081" fill="#ADD1B2" rx="11" ry="11" style="stroke:#181818;stroke-width:1.0;"/><path d="M1128.7656,1076.875 Q1128.9219,1076.6563 1129.1094,1076.5469 Q1129.2969,1076.4375 1129.5156,1076.4375 Q1129.8906,1076.4375 1130.125,1076.6953 Q1130.3594,1076.9531 1130.3594,1077.5625 L1130.3594,1079.0156 Q1130.3594,1079.625 1130.125,1079.8906 Q1129.8906,1080.1563 1129.5156,1080.1563 Q1129.1719,1080.1563 1128.9688,1079.9531 Q1128.7656,1079.7656 1128.6563,1079.25 Q1128.6094,1078.8906 1128.4219,1078.7031 Q1128.0938,1078.3281 1127.4844,1078.1094 Q1126.875,1077.8906 1126.25,1077.8906 Q1125.4844,1077.8906 1124.8516,1078.2188 Q1124.2188,1078.5469 1123.7266,1079.2969 Q1123.2344,1080.0469 1123.2344,1081.0781 L1123.2344,1082.1719 Q1123.2344,1083.4063 1124.125,1084.2266 Q1125.0156,1085.0469 1126.6094,1085.0469 Q1127.5469,1085.0469 1128.2031,1084.7969 Q1128.5938,1084.6406 1129.0156,1084.2031 Q1129.2813,1083.9375 1129.4297,1083.8594 Q1129.5781,1083.7813 1129.7813,1083.7813 Q1130.1094,1083.7813 1130.3672,1084.0391 Q1130.625,1084.2969 1130.625,1084.6406 Q1130.625,1084.9844 1130.2813,1085.3906 Q1129.7813,1085.9688 1128.9844,1086.2969 Q1127.9063,1086.75 1126.6094,1086.75 Q1125.0938,1086.75 1123.8906,1086.125 Q1122.9063,1085.625 1122.2188,1084.5547 Q1121.5313,1083.4844 1121.5313,1082.2031 L1121.5313,1081.0469 Q1121.5313,1079.7188 1122.1484,1078.5703 Q1122.7656,1077.4219 1123.8594,1076.8047 Q1124.9531,1076.1875 1126.1875,1076.1875 Q1126.9219,1076.1875 1127.5703,1076.3516 Q1128.2188,1076.5156 1128.7656,1076.875 Z " fill="#000000"/><text fill="#000000" font-family="sans-serif" font-size="14" lengthAdjust="spacing" textLength="129" x="1140" y="1086.7285">InputStreamInstance</text><line style="stroke:#181818;stroke-width:0.5;" x1="1112" x2="1271" y1="1097" y2="1097"/><line style="stroke:#181818;stroke-width:0.5;" x1="1112" x2="1271" y1="1105" y2="1105"/></g><!--class OutputStreamInstance--><g id="elem_OutputStreamInstance"><rect codeLine="20" fill="#F1F1F1" height="48" id="OutputStreamInstance" rx="2.5" ry="2.5" style="stroke:#181818;stroke-width:0.5;" width="173" x="903" y="1065"/><ellipse cx="918" cy="1081" fill="#ADD1B2" rx="11" ry="11" style="stroke:#181818;stroke-width:1.0;"/><path d="M920.7656,1076.875 Q920.9219,1076.6563 921.1094,1076.5469 Q921.2969,1076.4375 921.5156,1076.4375 Q921.8906,1076.4375 922.125,1076.6953 Q922.3594,1076.9531 922.3594,1077.5625 L922.3594,1079.0156 Q922.3594,1079.625 922.125,1079.8906 Q921.8906,1080.1563 921.5156,1080.1563 Q921.1719,1080.1563 920.9688,1079.9531 Q920.7656,1079.7656 920.6563,1079.25 Q920.6094,1078.8906 920.4219,1078.7031 Q920.0938,1078.3281 919.4844,1078.1094 Q918.875,1077.8906 918.25,1077.8906 Q917.4844,1077.8906 916.8516,1078.2188 Q916.2188,1078.5469 915.7266,1079.2969 Q915.2344,1080.0469 915.2344,1081.0781 L915.2344,1082.1719 Q915.2344,1083.4063 916.125,1084.2266 Q917.0156,1085.0469 918.6094,1085.0469 Q919.5469,1085.0469 920.2031,1084.7969 Q920.5938,1084.6406 921.0156,1084.2031 Q921.2813,1083.9375 921.4297,1083.8594 Q921.5781,1083.7813 921.7813,1083.7813 Q922.1094,1083.7813 922.3672,1084.0391 Q922.625,1084.2969 922.625,1084.6406 Q922.625,1084.9844 922.2813,1085.3906 Q921.7813,1085.9688 920.9844,1086.2969 Q919.9063,1086.75 918.6094,1086.75 Q917.0938,1086.75 915.8906,1086.125 Q914.9063,1085.625 914.2188,1084.5547 Q913.5313,1083.4844 913.5313,1082.2031 L913.5313,1081.0469 Q913.5313,1079.7188 914.1484,1078.5703 Q914.7656,1077.4219 915.8594,1076.8047 Q916.9531,1076.1875 918.1875,1076.1875 Q918.9219,1076.1875 919.5703,1076.3516 Q920.2188,1076.5156 920.7656,1076.875 Z " fill="#000000"/><text fill="#000000" font-family="sans-serif" font-size="14" lengthAdjust="spacing" textLength="141" x="932" y="1086.7285">OutputStreamInstance</text><line style="stroke:#181818;stroke-width:0.5;" x1="904" x2="1075" y1="1097" y2="1097"/><line style="stroke:#181818;stroke-width:0.5;" x1="904" x2="1075" y1="1105" y2="1105"/></g><!--class SecurityKey--><g id="elem_SecurityKey"><rect codeLine="26" fill="#F1F1F1" height="48" id="SecurityKey" rx="2.5" ry="2.5" style="stroke:#181818;stroke-width:0.5;" width="107" x="2311" y="848"/><ellipse cx="2326" cy="864" fill="#ADD1B2" rx="11" ry="11" style="stroke:#181818;stroke-width:1.0;"/><path d="M2328.7656,859.875 Q2328.9219,859.6563 2329.1094,859.5469 Q2329.2969,859.4375 2329.5156,859.4375 Q2329.8906,859.4375 2330.125,859.6953 Q2330.3594,859.9531 2330.3594,860.5625 L2330.3594,862.0156 Q2330.3594,862.625 2330.125,862.8906 Q2329.8906,863.1563 2329.5156,863.1563 Q2329.1719,863.1563 2328.9688,862.9531 Q2328.7656,862.7656 2328.6563,862.25 Q2328.6094,861.8906 2328.4219,861.7031 Q2328.0938,861.3281 2327.4844,861.1094 Q2326.875,860.8906 2326.25,860.8906 Q2325.4844,860.8906 2324.8516,861.2188 Q2324.2188,861.5469 2323.7266,862.2969 Q2323.2344,863.0469 2323.2344,864.0781 L2323.2344,865.1719 Q2323.2344,866.4063 2324.125,867.2266 Q2325.0156,868.0469 2326.6094,868.0469 Q2327.5469,868.0469 2328.2031,867.7969 Q2328.5938,867.6406 2329.0156,867.2031 Q2329.2813,866.9375 2329.4297,866.8594 Q2329.5781,866.7813 2329.7813,866.7813 Q2330.1094,866.7813 2330.3672,867.0391 Q2330.625,867.2969 2330.625,867.6406 Q2330.625,867.9844 2330.2813,868.3906 Q2329.7813,868.9688 2328.9844,869.2969 Q2327.9063,869.75 2326.6094,869.75 Q2325.0938,869.75 2323.8906,869.125 Q2322.9063,868.625 2322.2188,867.5547 Q2321.5313,866.4844 2321.5313,865.2031 L2321.5313,864.0469 Q2321.5313,862.7188 2322.1484,861.5703 Q2322.7656,860.4219 2323.8594,859.8047 Q2324.9531,859.1875 2326.1875,859.1875 Q2326.9219,859.1875 2327.5703,859.3516 Q2328.2188,859.5156 2328.7656,859.875 Z " fill="#000000"/><text fill="#000000" font-family="sans-serif" font-size="14" lengthAdjust="spacing" textLength="75" x="2340" y="869.7285">SecurityKey</text><line style="stroke:#181818;stroke-width:0.5;" x1="2312" x2="2417" y1="880" y2="880"/><line style="stroke:#181818;stroke-width:0.5;" x1="2312" x2="2417" y1="888" y2="888"/></g><!--class SecureVault--><g id="elem_SecureVault"><rect codeLine="29" fill="#F1F1F1" height="48" id="SecureVault" rx="2.5" ry="2.5" style="stroke:#181818;stroke-width:0.5;" width="109" x="2453" y="848"/><ellipse cx="2468" cy="864" fill="#ADD1B2" rx="11" ry="11" style="stroke:#181818;stroke-width:1.0;"/><path d="M2470.7656,859.875 Q2470.9219,859.6563 2471.1094,859.5469 Q2471.2969,859.4375 2471.5156,859.4375 Q2471.8906,859.4375 2472.125,859.6953 Q2472.3594,859.9531 2472.3594,860.5625 L2472.3594,862.0156 Q2472.3594,862.625 2472.125,862.8906 Q2471.8906,863.1563 2471.5156,863.1563 Q2471.1719,863.1563 2470.9688,862.9531 Q2470.7656,862.7656 2470.6563,862.25 Q2470.6094,861.8906 2470.4219,861.7031 Q2470.0938,861.3281 2469.4844,861.1094 Q2468.875,860.8906 2468.25,860.8906 Q2467.4844,860.8906 2466.8516,861.2188 Q2466.2188,861.5469 2465.7266,862.2969 Q2465.2344,863.0469 2465.2344,864.0781 L2465.2344,865.1719 Q2465.2344,866.4063 2466.125,867.2266 Q2467.0156,868.0469 2468.6094,868.0469 Q2469.5469,868.0469 2470.2031,867.7969 Q2470.5938,867.6406 2471.0156,867.2031 Q2471.2813,866.9375 2471.4297,866.8594 Q2471.5781,866.7813 2471.7813,866.7813 Q2472.1094,866.7813 2472.3672,867.0391 Q2472.625,867.2969 2472.625,867.6406 Q2472.625,867.9844 2472.2813,868.3906 Q2471.7813,868.9688 2470.9844,869.2969 Q2469.9063,869.75 2468.6094,869.75 Q2467.0938,869.75 2465.8906,869.125 Q2464.9063,868.625 2464.2188,867.5547 Q2463.5313,866.4844 2463.5313,865.2031 L2463.5313,864.0469 Q2463.5313,862.7188 2464.1484,861.5703 Q2464.7656,860.4219 2465.8594,859.8047 Q2466.9531,859.1875 2468.1875,859.1875 Q2468.9219,859.1875 2469.5703,859.3516 Q2470.2188,859.5156 2470.7656,859.875 Z " fill="#000000"/><text fill="#000000" font-family="sans-serif" font-size="14" lengthAdjust="spacing" textLength="77" x="2482" y="869.7285">SecureVault</text><line style="stroke:#181818;stroke-width:0.5;" x1="2454" x2="2561" y1="880" y2="880"/><line style="stroke:#181818;stroke-width:0.5;" x1="2454" x2="2561" y1="888" y2="888"/></g><!--class Application--><g id="elem_Application"><rect codeLine="35" fill="#F1F1F1" height="48" id="Application" rx="2.5" ry="2.5" style="stroke:#181818;stroke-width:0.5;" width="101" x="2000" y="848"/><ellipse cx="2015" cy="864" fill="#ADD1B2" rx="11" ry="11" style="stroke:#181818;stroke-width:1.0;"/><path d="M2017.7656,859.875 Q2017.9219,859.6563 2018.1094,859.5469 Q2018.2969,859.4375 2018.5156,859.4375 Q2018.8906,859.4375 2019.125,859.6953 Q2019.3594,859.9531 2019.3594,860.5625 L2019.3594,862.0156 Q2019.3594,862.625 2019.125,862.8906 Q2018.8906,863.1563 2018.5156,863.1563 Q2018.1719,863.1563 2017.9688,862.9531 Q2017.7656,862.7656 2017.6563,862.25 Q2017.6094,861.8906 2017.4219,861.7031 Q2017.0938,861.3281 2016.4844,861.1094 Q2015.875,860.8906 2015.25,860.8906 Q2014.4844,860.8906 2013.8516,861.2188 Q2013.2188,861.5469 2012.7266,862.2969 Q2012.2344,863.0469 2012.2344,864.0781 L2012.2344,865.1719 Q2012.2344,866.4063 2013.125,867.2266 Q2014.0156,868.0469 2015.6094,868.0469 Q2016.5469,868.0469 2017.2031,867.7969 Q2017.5938,867.6406 2018.0156,867.2031 Q2018.2813,866.9375 2018.4297,866.8594 Q2018.5781,866.7813 2018.7813,866.7813 Q2019.1094,866.7813 2019.3672,867.0391 Q2019.625,867.2969 2019.625,867.6406 Q2019.625,867.9844 2019.2813,868.3906 Q2018.7813,868.9688 2017.9844,869.2969 Q2016.9063,869.75 2015.6094,869.75 Q2014.0938,869.75 2012.8906,869.125 Q2011.9063,868.625 2011.2188,867.5547 Q2010.5313,866.4844 2010.5313,865.2031 L2010.5313,864.0469 Q2010.5313,862.7188 2011.1484,861.5703 Q2011.7656,860.4219 2012.8594,859.8047 Q2013.9531,859.1875 2015.1875,859.1875 Q2015.9219,859.1875 2016.5703,859.3516 Q2017.2188,859.5156 2017.7656,859.875 Z " fill="#000000"/><text fill="#000000" font-family="sans-serif" font-size="14" lengthAdjust="spacing" textLength="69" x="2029" y="869.7285">Application</text><line style="stroke:#181818;stroke-width:0.5;" x1="2001" x2="2100" y1="880" y2="880"/><line style="stroke:#181818;stroke-width:0.5;" x1="2001" x2="2100" y1="888" y2="888"/></g><!--class Stack--><g id="elem_Stack"><rect codeLine="38" fill="#F1F1F1" height="48" id="Stack" rx="2.5" ry="2.5" style="stroke:#181818;stroke-width:0.5;" width="67" x="2136" y="848"/><ellipse cx="2151" cy="864" fill="#ADD1B2" rx="11" ry="11" style="stroke:#181818;stroke-width:1.0;"/><path d="M2153.7656,859.875 Q2153.9219,859.6563 2154.1094,859.5469 Q2154.2969,859.4375 2154.5156,859.4375 Q2154.8906,859.4375 2155.125,859.6953 Q2155.3594,859.9531 2155.3594,860.5625 L2155.3594,862.0156 Q2155.3594,862.625 2155.125,862.8906 Q2154.8906,863.1563 2154.5156,863.1563 Q2154.1719,863.1563 2153.9688,862.9531 Q2153.7656,862.7656 2153.6563,862.25 Q2153.6094,861.8906 2153.4219,861.7031 Q2153.0938,861.3281 2152.4844,861.1094 Q2151.875,860.8906 2151.25,860.8906 Q2150.4844,860.8906 2149.8516,861.2188 Q2149.2188,861.5469 2148.7266,862.2969 Q2148.2344,863.0469 2148.2344,864.0781 L2148.2344,865.1719 Q2148.2344,866.4063 2149.125,867.2266 Q2150.0156,868.0469 2151.6094,868.0469 Q2152.5469,868.0469 2153.2031,867.7969 Q2153.5938,867.6406 2154.0156,867.2031 Q2154.2813,866.9375 2154.4297,866.8594 Q2154.5781,866.7813 2154.7813,866.7813 Q2155.1094,866.7813 2155.3672,867.0391 Q2155.625,867.2969 2155.625,867.6406 Q2155.625,867.9844 2155.2813,868.3906 Q2154.7813,868.9688 2153.9844,869.2969 Q2152.9063,869.75 2151.6094,869.75 Q2150.0938,869.75 2148.8906,869.125 Q2147.9063,868.625 2147.2188,867.5547 Q2146.5313,866.4844 2146.5313,865.2031 L2146.5313,864.0469 Q2146.5313,862.7188 2147.1484,861.5703 Q2147.7656,860.4219 2148.8594,859.8047 Q2149.9531,859.1875 2151.1875,859.1875 Q2151.9219,859.1875 2152.5703,859.3516 Q2153.2188,859.5156 2153.7656,859.875 Z " fill="#000000"/><text fill="#000000" font-family="sans-serif" font-size="14" lengthAdjust="spacing" textLength="35" x="2165" y="869.7285">Stack</text><line style="stroke:#181818;stroke-width:0.5;" x1="2137" x2="2202" y1="880" y2="880"/><line style="stroke:#181818;stroke-width:0.5;" x1="2137" x2="2202" y1="888" y2="888"/></g><!--class StackInstance--><g id="elem_StackInstance"><rect codeLine="41" fill="#F1F1F1" height="48" id="StackInstance" rx="2.5" ry="2.5" style="stroke:#181818;stroke-width:0.5;" width="120" x="1844.5" y="848"/><ellipse cx="1859.5" cy="864" fill="#ADD1B2" rx="11" ry="11" style="stroke:#181818;stroke-width:1.0;"/><path d="M1862.2656,859.875 Q1862.4219,859.6563 1862.6094,859.5469 Q1862.7969,859.4375 1863.0156,859.4375 Q1863.3906,859.4375 1863.625,859.6953 Q1863.8594,859.9531 1863.8594,860.5625 L1863.8594,862.0156 Q1863.8594,862.625 1863.625,862.8906 Q1863.3906,863.1563 1863.0156,863.1563 Q1862.6719,863.1563 1862.4688,862.9531 Q1862.2656,862.7656 1862.1563,862.25 Q1862.1094,861.8906 1861.9219,861.7031 Q1861.5938,861.3281 1860.9844,861.1094 Q1860.375,860.8906 1859.75,860.8906 Q1858.9844,860.8906 1858.3516,861.2188 Q1857.7188,861.5469 1857.2266,862.2969 Q1856.7344,863.0469 1856.7344,864.0781 L1856.7344,865.1719 Q1856.7344,866.4063 1857.625,867.2266 Q1858.5156,868.0469 1860.1094,868.0469 Q1861.0469,868.0469 1861.7031,867.7969 Q1862.0938,867.6406 1862.5156,867.2031 Q1862.7813,866.9375 1862.9297,866.8594 Q1863.0781,866.7813 1863.2813,866.7813 Q1863.6094,866.7813 1863.8672,867.0391 Q1864.125,867.2969 1864.125,867.6406 Q1864.125,867.9844 1863.7813,868.3906 Q1863.2813,868.9688 1862.4844,869.2969 Q1861.4063,869.75 1860.1094,869.75 Q1858.5938,869.75 1857.3906,869.125 Q1856.4063,868.625 1855.7188,867.5547 Q1855.0313,866.4844 1855.0313,865.2031 L1855.0313,864.0469 Q1855.0313,862.7188 1855.6484,861.5703 Q1856.2656,860.4219 1857.3594,859.8047 Q1858.4531,859.1875 1859.6875,859.1875 Q1860.4219,859.1875 1861.0703,859.3516 Q1861.7188,859.5156 1862.2656,859.875 Z " fill="#000000"/><text fill="#000000" font-family="sans-serif" font-size="14" lengthAdjust="spacing" textLength="88" x="1873.5" y="869.7285">StackInstance</text><line style="stroke:#181818;stroke-width:0.5;" x1="1845.5" x2="1963.5" y1="880" y2="880"/><line style="stroke:#181818;stroke-width:0.5;" x1="1845.5" x2="1963.5" y1="888" y2="888"/></g><!--class AIModel--><g id="elem_AIModel"><rect codeLine="47" fill="#F1F1F1" height="48" id="AIModel" rx="2.5" ry="2.5" style="stroke:#181818;stroke-width:0.5;" width="82" x="2669.5" y="848"/><ellipse cx="2684.5" cy="864" fill="#ADD1B2" rx="11" ry="11" style="stroke:#181818;stroke-width:1.0;"/><path d="M2687.2656,859.875 Q2687.4219,859.6563 2687.6094,859.5469 Q2687.7969,859.4375 2688.0156,859.4375 Q2688.3906,859.4375 2688.625,859.6953 Q2688.8594,859.9531 2688.8594,860.5625 L2688.8594,862.0156 Q2688.8594,862.625 2688.625,862.8906 Q2688.3906,863.1563 2688.0156,863.1563 Q2687.6719,863.1563 2687.4688,862.9531 Q2687.2656,862.7656 2687.1563,862.25 Q2687.1094,861.8906 2686.9219,861.7031 Q2686.5938,861.3281 2685.9844,861.1094 Q2685.375,860.8906 2684.75,860.8906 Q2683.9844,860.8906 2683.3516,861.2188 Q2682.7188,861.5469 2682.2266,862.2969 Q2681.7344,863.0469 2681.7344,864.0781 L2681.7344,865.1719 Q2681.7344,866.4063 2682.625,867.2266 Q2683.5156,868.0469 2685.1094,868.0469 Q2686.0469,868.0469 2686.7031,867.7969 Q2687.0938,867.6406 2687.5156,867.2031 Q2687.7813,866.9375 2687.9297,866.8594 Q2688.0781,866.7813 2688.2813,866.7813 Q2688.6094,866.7813 2688.8672,867.0391 Q2689.125,867.2969 2689.125,867.6406 Q2689.125,867.9844 2688.7813,868.3906 Q2688.2813,868.9688 2687.4844,869.2969 Q2686.4063,869.75 2685.1094,869.75 Q2683.5938,869.75 2682.3906,869.125 Q2681.4063,868.625 2680.7188,867.5547 Q2680.0313,866.4844 2680.0313,865.2031 L2680.0313,864.0469 Q2680.0313,862.7188 2680.6484,861.5703 Q2681.2656,860.4219 2682.3594,859.8047 Q2683.4531,859.1875 2684.6875,859.1875 Q2685.4219,859.1875 2686.0703,859.3516 Q2686.7188,859.5156 2687.2656,859.875 Z " fill="#000000"/><text fill="#000000" font-family="sans-serif" font-size="14" lengthAdjust="spacing" textLength="50" x="2698.5" y="869.7285">AIModel</text><line style="stroke:#181818;stroke-width:0.5;" x1="2670.5" x2="2750.5" y1="880" y2="880"/><line style="stroke:#181818;stroke-width:0.5;" x1="2670.5" x2="2750.5" y1="888" y2="888"/></g><!--class DataTransform--><g id="elem_DataTransform"><rect codeLine="121" fill="#F1F1F1" height="83.2188" id="DataTransform" rx="2.5" ry="2.5" style="stroke:#181818;stroke-width:0.5;" width="127" x="593" y="631.5"/><ellipse cx="608" cy="647.5" fill="#ADD1B2" rx="11" ry="11" style="stroke:#181818;stroke-width:1.0;"/><path d="M610.7656,643.375 Q610.9219,643.1563 611.1094,643.0469 Q611.2969,642.9375 611.5156,642.9375 Q611.8906,642.9375 612.125,643.1953 Q612.3594,643.4531 612.3594,644.0625 L612.3594,645.5156 Q612.3594,646.125 612.125,646.3906 Q611.8906,646.6563 611.5156,646.6563 Q611.1719,646.6563 610.9688,646.4531 Q610.7656,646.2656 610.6563,645.75 Q610.6094,645.3906 610.4219,645.2031 Q610.0938,644.8281 609.4844,644.6094 Q608.875,644.3906 608.25,644.3906 Q607.4844,644.3906 606.8516,644.7188 Q606.2188,645.0469 605.7266,645.7969 Q605.2344,646.5469 605.2344,647.5781 L605.2344,648.6719 Q605.2344,649.9063 606.125,650.7266 Q607.0156,651.5469 608.6094,651.5469 Q609.5469,651.5469 610.2031,651.2969 Q610.5938,651.1406 611.0156,650.7031 Q611.2813,650.4375 611.4297,650.3594 Q611.5781,650.2813 611.7813,650.2813 Q612.1094,650.2813 612.3672,650.5391 Q612.625,650.7969 612.625,651.1406 Q612.625,651.4844 612.2813,651.8906 Q611.7813,652.4688 610.9844,652.7969 Q609.9063,653.25 608.6094,653.25 Q607.0938,653.25 605.8906,652.625 Q604.9063,652.125 604.2188,651.0547 Q603.5313,649.9844 603.5313,648.7031 L603.5313,647.5469 Q603.5313,646.2188 604.1484,645.0703 Q604.7656,643.9219 605.8594,643.3047 Q606.9531,642.6875 608.1875,642.6875 Q608.9219,642.6875 609.5703,642.8516 Q610.2188,643.0156 610.7656,643.375 Z " fill="#000000"/><text fill="#000000" font-family="sans-serif" font-size="14" lengthAdjust="spacing" textLength="95" x="622" y="653.2285">DataTransform</text><line style="stroke:#181818;stroke-width:0.5;" x1="594" x2="719" y1="663.5" y2="663.5"/><text fill="#000000" font-family="sans-serif" font-size="14" lengthAdjust="spacing" textLength="74" x="599" y="682.0332">string name</text><text fill="#000000" font-family="sans-serif" font-size="14" lengthAdjust="spacing" textLength="42" x="599" y="699.6426">json fn</text><line style="stroke:#181818;stroke-width:0.5;" x1="594" x2="719" y1="706.7188" y2="706.7188"/></g><!--class SABundle--><g id="elem_SABundle"><rect codeLine="139" fill="#F1F1F1" height="153.6563" id="SABundle" rx="2.5" ry="2.5" style="stroke:#181818;stroke-width:0.5;" width="97" x="1090" y="382"/><ellipse cx="1106.35" cy="398" fill="#ADD1B2" rx="11" ry="11" style="stroke:#181818;stroke-width:1.0;"/><path d="M1109.1156,393.875 Q1109.2719,393.6563 1109.4594,393.5469 Q1109.6469,393.4375 1109.8656,393.4375 Q1110.2406,393.4375 1110.475,393.6953 Q1110.7094,393.9531 1110.7094,394.5625 L1110.7094,396.0156 Q1110.7094,396.625 1110.475,396.8906 Q1110.2406,397.1563 1109.8656,397.1563 Q1109.5219,397.1563 1109.3188,396.9531 Q1109.1156,396.7656 1109.0063,396.25 Q1108.9594,395.8906 1108.7719,395.7031 Q1108.4438,395.3281 1107.8344,395.1094 Q1107.225,394.8906 1106.6,394.8906 Q1105.8344,394.8906 1105.2016,395.2188 Q1104.5688,395.5469 1104.0766,396.2969 Q1103.5844,397.0469 1103.5844,398.0781 L1103.5844,399.1719 Q1103.5844,400.4063 1104.475,401.2266 Q1105.3656,402.0469 1106.9594,402.0469 Q1107.8969,402.0469 1108.5531,401.7969 Q1108.9438,401.6406 1109.3656,401.2031 Q1109.6313,400.9375 1109.7797,400.8594 Q1109.9281,400.7813 1110.1313,400.7813 Q1110.4594,400.7813 1110.7172,401.0391 Q1110.975,401.2969 1110.975,401.6406 Q1110.975,401.9844 1110.6313,402.3906 Q1110.1313,402.9688 1109.3344,403.2969 Q1108.2563,403.75 1106.9594,403.75 Q1105.4438,403.75 1104.2406,403.125 Q1103.2563,402.625 1102.5688,401.5547 Q1101.8813,400.4844 1101.8813,399.2031 L1101.8813,398.0469 Q1101.8813,396.7188 1102.4984,395.5703 Q1103.1156,394.4219 1104.2094,393.8047 Q1105.3031,393.1875 1106.5375,393.1875 Q1107.2719,393.1875 1107.9203,393.3516 Q1108.5688,393.5156 1109.1156,393.875 Z " fill="#000000"/><text fill="#000000" font-family="sans-serif" font-size="14" lengthAdjust="spacing" textLength="62" x="1120.65" y="403.7285">SABundle</text><line style="stroke:#181818;stroke-width:0.5;" x1="1091" x2="1186" y1="414" y2="414"/><text fill="#000000" font-family="sans-serif" font-size="14" lengthAdjust="spacing" textLength="74" x="1096" y="432.5332">string name</text><text fill="#000000" font-family="sans-serif" font-size="14" lengthAdjust="spacing" textLength="85" x="1096" y="450.1426">string version</text><line style="stroke:#181818;stroke-width:0.5;" x1="1091" x2="1186" y1="457.2188" y2="457.2188"/><text fill="#000000" font-family="sans-serif" font-size="14" lengthAdjust="spacing" textLength="40" x="1096" y="475.752">build()</text><text fill="#000000" font-family="sans-serif" font-size="14" lengthAdjust="spacing" textLength="50" x="1096" y="493.3613">create()</text><text fill="#000000" font-family="sans-serif" font-size="14" lengthAdjust="spacing" textLength="52" x="1096" y="510.9707">deploy()</text><text fill="#000000" font-family="sans-serif" font-size="14" lengthAdjust="spacing" textLength="64" x="1096" y="528.5801">toJScript()</text></g><!--class SABundleInstance--><g id="elem_SABundleInstance"><rect codeLine="173" fill="#F1F1F1" height="100.8281" id="SABundleInstance" rx="2.5" ry="2.5" style="stroke:#181818;stroke-width:0.5;" width="147" x="861" y="622.5"/><ellipse cx="876" cy="638.5" fill="#ADD1B2" rx="11" ry="11" style="stroke:#181818;stroke-width:1.0;"/><path d="M878.7656,634.375 Q878.9219,634.1563 879.1094,634.0469 Q879.2969,633.9375 879.5156,633.9375 Q879.8906,633.9375 880.125,634.1953 Q880.3594,634.4531 880.3594,635.0625 L880.3594,636.5156 Q880.3594,637.125 880.125,637.3906 Q879.8906,637.6563 879.5156,637.6563 Q879.1719,637.6563 878.9688,637.4531 Q878.7656,637.2656 878.6563,636.75 Q878.6094,636.3906 878.4219,636.2031 Q878.0938,635.8281 877.4844,635.6094 Q876.875,635.3906 876.25,635.3906 Q875.4844,635.3906 874.8516,635.7188 Q874.2188,636.0469 873.7266,636.7969 Q873.2344,637.5469 873.2344,638.5781 L873.2344,639.6719 Q873.2344,640.9063 874.125,641.7266 Q875.0156,642.5469 876.6094,642.5469 Q877.5469,642.5469 878.2031,642.2969 Q878.5938,642.1406 879.0156,641.7031 Q879.2813,641.4375 879.4297,641.3594 Q879.5781,641.2813 879.7813,641.2813 Q880.1094,641.2813 880.3672,641.5391 Q880.625,641.7969 880.625,642.1406 Q880.625,642.4844 880.2813,642.8906 Q879.7813,643.4688 878.9844,643.7969 Q877.9063,644.25 876.6094,644.25 Q875.0938,644.25 873.8906,643.625 Q872.9063,643.125 872.2188,642.0547 Q871.5313,640.9844 871.5313,639.7031 L871.5313,638.5469 Q871.5313,637.2188 872.1484,636.0703 Q872.7656,634.9219 873.8594,634.3047 Q874.9531,633.6875 876.1875,633.6875 Q876.9219,633.6875 877.5703,633.8516 Q878.2188,634.0156 878.7656,634.375 Z " fill="#000000"/><text fill="#000000" font-family="sans-serif" font-size="14" lengthAdjust="spacing" textLength="115" x="890" y="644.2285">SABundleInstance</text><line style="stroke:#181818;stroke-width:0.5;" x1="862" x2="1007" y1="654.5" y2="654.5"/><text fill="#000000" font-family="sans-serif" font-size="14" lengthAdjust="spacing" textLength="74" x="867" y="673.0332">string name</text><text fill="#000000" font-family="sans-serif" font-size="14" lengthAdjust="spacing" textLength="68" x="867" y="690.6426">string level</text><line style="stroke:#181818;stroke-width:0.5;" x1="862" x2="1007" y1="697.7188" y2="697.7188"/><text fill="#000000" font-family="sans-serif" font-size="14" lengthAdjust="spacing" textLength="52" x="867" y="716.252">deploy()</text></g><!--class SABundleBuild--><g id="elem_SABundleBuild"><rect codeLine="162" fill="#F1F1F1" height="118.4375" id="SABundleBuild" rx="2.5" ry="2.5" style="stroke:#181818;stroke-width:0.5;" width="144" x="1043.5" y="614"/><ellipse cx="1067.05" cy="630" fill="#ADD1B2" rx="11" ry="11" style="stroke:#181818;stroke-width:1.0;"/><path d="M1069.8156,625.875 Q1069.9719,625.6563 1070.1594,625.5469 Q1070.3469,625.4375 1070.5656,625.4375 Q1070.9406,625.4375 1071.175,625.6953 Q1071.4094,625.9531 1071.4094,626.5625 L1071.4094,628.0156 Q1071.4094,628.625 1071.175,628.8906 Q1070.9406,629.1563 1070.5656,629.1563 Q1070.2219,629.1563 1070.0188,628.9531 Q1069.8156,628.7656 1069.7063,628.25 Q1069.6594,627.8906 1069.4719,627.7031 Q1069.1438,627.3281 1068.5344,627.1094 Q1067.925,626.8906 1067.3,626.8906 Q1066.5344,626.8906 1065.9016,627.2188 Q1065.2688,627.5469 1064.7766,628.2969 Q1064.2844,629.0469 1064.2844,630.0781 L1064.2844,631.1719 Q1064.2844,632.4063 1065.175,633.2266 Q1066.0656,634.0469 1067.6594,634.0469 Q1068.5969,634.0469 1069.2531,633.7969 Q1069.6438,633.6406 1070.0656,633.2031 Q1070.3313,632.9375 1070.4797,632.8594 Q1070.6281,632.7813 1070.8313,632.7813 Q1071.1594,632.7813 1071.4172,633.0391 Q1071.675,633.2969 1071.675,633.6406 Q1071.675,633.9844 1071.3313,634.3906 Q1070.8313,634.9688 1070.0344,635.2969 Q1068.9563,635.75 1067.6594,635.75 Q1066.1438,635.75 1064.9406,635.125 Q1063.9563,634.625 1063.2688,633.5547 Q1062.5813,632.4844 1062.5813,631.2031 L1062.5813,630.0469 Q1062.5813,628.7188 1063.1984,627.5703 Q1063.8156,626.4219 1064.9094,625.8047 Q1066.0031,625.1875 1067.2375,625.1875 Q1067.9719,625.1875 1068.6203,625.3516 Q1069.2688,625.5156 1069.8156,625.875 Z " fill="#000000"/><text fill="#000000" font-family="sans-serif" font-size="14" lengthAdjust="spacing" textLength="93" x="1082.95" y="635.7285">SABundleBuild</text><line style="stroke:#181818;stroke-width:0.5;" x1="1044.5" x2="1186.5" y1="646" y2="646"/><text fill="#000000" font-family="sans-serif" font-size="14" lengthAdjust="spacing" textLength="74" x="1049.5" y="664.5332">string name</text><text fill="#000000" font-family="sans-serif" font-size="14" lengthAdjust="spacing" textLength="85" x="1049.5" y="682.1426">string version</text><text fill="#000000" font-family="sans-serif" font-size="14" lengthAdjust="spacing" textLength="132" x="1049.5" y="699.752">string encryptedData</text><line style="stroke:#181818;stroke-width:0.5;" x1="1044.5" x2="1186.5" y1="706.8281" y2="706.8281"/><text fill="#000000" font-family="sans-serif" font-size="14" lengthAdjust="spacing" textLength="57" x="1049.5" y="725.3613">encrypt()</text></g><!--class DataTransformInstance--><g id="elem_DataTransformInstance"><rect codeLine="129" fill="#F1F1F1" height="118.4375" id="DataTransformInstance" rx="2.5" ry="2.5" style="stroke:#181818;stroke-width:0.5;" width="180" x="592.5" y="813"/><ellipse cx="607.5" cy="829" fill="#ADD1B2" rx="11" ry="11" style="stroke:#181818;stroke-width:1.0;"/><path d="M610.2656,824.875 Q610.4219,824.6563 610.6094,824.5469 Q610.7969,824.4375 611.0156,824.4375 Q611.3906,824.4375 611.625,824.6953 Q611.8594,824.9531 611.8594,825.5625 L611.8594,827.0156 Q611.8594,827.625 611.625,827.8906 Q611.3906,828.1563 611.0156,828.1563 Q610.6719,828.1563 610.4688,827.9531 Q610.2656,827.7656 610.1563,827.25 Q610.1094,826.8906 609.9219,826.7031 Q609.5938,826.3281 608.9844,826.1094 Q608.375,825.8906 607.75,825.8906 Q606.9844,825.8906 606.3516,826.2188 Q605.7188,826.5469 605.2266,827.2969 Q604.7344,828.0469 604.7344,829.0781 L604.7344,830.1719 Q604.7344,831.4063 605.625,832.2266 Q606.5156,833.0469 608.1094,833.0469 Q609.0469,833.0469 609.7031,832.7969 Q610.0938,832.6406 610.5156,832.2031 Q610.7813,831.9375 610.9297,831.8594 Q611.0781,831.7813 611.2813,831.7813 Q611.6094,831.7813 611.8672,832.0391 Q612.125,832.2969 612.125,832.6406 Q612.125,832.9844 611.7813,833.3906 Q611.2813,833.9688 610.4844,834.2969 Q609.4063,834.75 608.1094,834.75 Q606.5938,834.75 605.3906,834.125 Q604.4063,833.625 603.7188,832.5547 Q603.0313,831.4844 603.0313,830.2031 L603.0313,829.0469 Q603.0313,827.7188 603.6484,826.5703 Q604.2656,825.4219 605.3594,824.8047 Q606.4531,824.1875 607.6875,824.1875 Q608.4219,824.1875 609.0703,824.3516 Q609.7188,824.5156 610.2656,824.875 Z " fill="#000000"/><text fill="#000000" font-family="sans-serif" font-size="14" lengthAdjust="spacing" textLength="148" x="621.5" y="834.7285">DataTransformInstance</text><line style="stroke:#181818;stroke-width:0.5;" x1="593.5" x2="771.5" y1="845" y2="845"/><text fill="#000000" font-family="sans-serif" font-size="14" lengthAdjust="spacing" textLength="74" x="598.5" y="863.5332">string name</text><text fill="#000000" font-family="sans-serif" font-size="14" lengthAdjust="spacing" textLength="85" x="598.5" y="881.1426">string version</text><text fill="#000000" font-family="sans-serif" font-size="14" lengthAdjust="spacing" textLength="42" x="598.5" y="898.752">json fn</text><line style="stroke:#181818;stroke-width:0.5;" x1="593.5" x2="771.5" y1="905.8281" y2="905.8281"/><text fill="#000000" font-family="sans-serif" font-size="14" lengthAdjust="spacing" textLength="31" x="598.5" y="924.3613">run()</text></g><!--class i--><g id="elem_i"><rect codeLine="72" fill="#F1F1F1" height="188.875" id="i" rx="2.5" ry="2.5" style="stroke:#181818;stroke-width:0.5;" width="278" x="898.5" y="115"/><ellipse cx="933.3" cy="131" fill="#B4A7E5" rx="11" ry="11" style="stroke:#181818;stroke-width:1.0;"/><path d="M934.2531,127.6406 L934.2531,134.2969 L935.9719,134.2969 Q936.5813,134.2969 936.8469,134.5313 Q937.1125,134.7656 937.1125,135.1563 Q937.1125,135.5313 936.8469,135.7656 Q936.5813,136 935.9719,136 L930.8313,136 Q930.2219,136 929.9563,135.7656 Q929.6906,135.5313 929.6906,135.1406 Q929.6906,134.7656 929.9563,134.5313 Q930.2219,134.2969 930.8313,134.2969 L932.55,134.2969 L932.55,127.6406 L930.8313,127.6406 Q930.2219,127.6406 929.9563,127.4063 Q929.6906,127.1719 929.6906,126.7813 Q929.6906,126.4063 929.9563,126.1719 Q930.2219,125.9375 930.8313,125.9375 L935.9719,125.9375 Q936.5813,125.9375 936.8469,126.1719 Q937.1125,126.4063 937.1125,126.7813 Q937.1125,127.1719 936.8469,127.4063 Q936.5813,127.6406 935.9719,127.6406 L934.2531,127.6406 Z " fill="#000000"/><text fill="#000000" font-family="sans-serif" font-size="14" font-style="italic" lengthAdjust="spacing" textLength="202" x="951.7" y="136.7285">Sentient Agent Bundle Manager</text><line style="stroke:#181818;stroke-width:0.5;" x1="899.5" x2="1175.5" y1="147" y2="147"/><line style="stroke:#181818;stroke-width:0.5;" x1="899.5" x2="1175.5" y1="155" y2="155"/><text fill="#000000" font-family="sans-serif" font-size="14" lengthAdjust="spacing" textLength="163" x="904.5" y="173.5332">/sabr/diml/sabm/connect()</text><text fill="#000000" font-family="sans-serif" font-size="14" lengthAdjust="spacing" textLength="266" x="904.5" y="191.1426">/sabr/diml/sabm/bundle/createanddeploy()</text><text fill="#000000" font-family="sans-serif" font-size="14" lengthAdjust="spacing" textLength="202" x="904.5" y="208.752">/sabr/diml/sabm/bundle/deploy()</text><text fill="#000000" font-family="sans-serif" font-size="14" lengthAdjust="spacing" textLength="193" x="904.5" y="226.3613">/sabr/diml/sabm/policy/create()</text><text fill="#000000" font-family="sans-serif" font-size="14" lengthAdjust="spacing" textLength="205" x="904.5" y="243.9707">/sabr/diml/sabm/sabundle/build()</text><text fill="#000000" font-family="sans-serif" font-size="14" lengthAdjust="spacing" textLength="215" x="904.5" y="261.5801">/sabr/diml/sabm/sabundle/create()</text><text fill="#000000" font-family="sans-serif" font-size="14" lengthAdjust="spacing" textLength="217" x="904.5" y="279.1895">/sabr/diml/sabm/sabundle/deploy()</text><text fill="#000000" font-family="sans-serif" font-size="14" lengthAdjust="spacing" textLength="192" x="904.5" y="296.7988">/sabr/diml/sabm/sabundle/list()</text></g><!--class AdminDataStream--><g id="elem_AdminDataStream"><rect codeLine="90" fill="#F1F1F1" height="136.0469" id="AdminDataStream" rx="2.5" ry="2.5" style="stroke:#181818;stroke-width:0.5;" width="146" x="717.5" y="141.5"/><ellipse cx="732.5" cy="157.5" fill="#ADD1B2" rx="11" ry="11" style="stroke:#181818;stroke-width:1.0;"/><path d="M735.2656,153.375 Q735.4219,153.1563 735.6094,153.0469 Q735.7969,152.9375 736.0156,152.9375 Q736.3906,152.9375 736.625,153.1953 Q736.8594,153.4531 736.8594,154.0625 L736.8594,155.5156 Q736.8594,156.125 736.625,156.3906 Q736.3906,156.6563 736.0156,156.6563 Q735.6719,156.6563 735.4688,156.4531 Q735.2656,156.2656 735.1563,155.75 Q735.1094,155.3906 734.9219,155.2031 Q734.5938,154.8281 733.9844,154.6094 Q733.375,154.3906 732.75,154.3906 Q731.9844,154.3906 731.3516,154.7188 Q730.7188,155.0469 730.2266,155.7969 Q729.7344,156.5469 729.7344,157.5781 L729.7344,158.6719 Q729.7344,159.9063 730.625,160.7266 Q731.5156,161.5469 733.1094,161.5469 Q734.0469,161.5469 734.7031,161.2969 Q735.0938,161.1406 735.5156,160.7031 Q735.7813,160.4375 735.9297,160.3594 Q736.0781,160.2813 736.2813,160.2813 Q736.6094,160.2813 736.8672,160.5391 Q737.125,160.7969 737.125,161.1406 Q737.125,161.4844 736.7813,161.8906 Q736.2813,162.4688 735.4844,162.7969 Q734.4063,163.25 733.1094,163.25 Q731.5938,163.25 730.3906,162.625 Q729.4063,162.125 728.7188,161.0547 Q728.0313,159.9844 728.0313,158.7031 L728.0313,157.5469 Q728.0313,156.2188 728.6484,155.0703 Q729.2656,153.9219 730.3594,153.3047 Q731.4531,152.6875 732.6875,152.6875 Q733.4219,152.6875 734.0703,152.8516 Q734.7188,153.0156 735.2656,153.375 Z " fill="#000000"/><text fill="#000000" font-family="sans-serif" font-size="14" lengthAdjust="spacing" textLength="114" x="746.5" y="163.2285">AdminDataStream</text><line style="stroke:#181818;stroke-width:0.5;" x1="718.5" x2="862.5" y1="173.5" y2="173.5"/><text fill="#000000" font-family="sans-serif" font-size="14" lengthAdjust="spacing" textLength="74" x="723.5" y="192.0332">string name</text><line style="stroke:#181818;stroke-width:0.5;" x1="718.5" x2="862.5" y1="199.1094" y2="199.1094"/><text fill="#000000" font-family="sans-serif" font-size="14" lengthAdjust="spacing" textLength="50" x="723.5" y="217.6426">create()</text><text fill="#000000" font-family="sans-serif" font-size="14" lengthAdjust="spacing" textLength="67" x="723.5" y="235.252">provision()</text><text fill="#000000" font-family="sans-serif" font-size="14" lengthAdjust="spacing" textLength="116" x="723.5" y="252.8613">addKeysToStore()</text><text fill="#000000" font-family="sans-serif" font-size="14" lengthAdjust="spacing" textLength="40" x="723.5" y="270.4707">build()</text></g><!--class AdminTransform--><g id="elem_AdminTransform"><rect codeLine="109" fill="#F1F1F1" height="118.4375" id="AdminTransform" rx="2.5" ry="2.5" style="stroke:#181818;stroke-width:0.5;" width="136" x="807.5" y="813"/><ellipse cx="822.5" cy="829" fill="#ADD1B2" rx="11" ry="11" style="stroke:#181818;stroke-width:1.0;"/><path d="M825.2656,824.875 Q825.4219,824.6563 825.6094,824.5469 Q825.7969,824.4375 826.0156,824.4375 Q826.3906,824.4375 826.625,824.6953 Q826.8594,824.9531 826.8594,825.5625 L826.8594,827.0156 Q826.8594,827.625 826.625,827.8906 Q826.3906,828.1563 826.0156,828.1563 Q825.6719,828.1563 825.4688,827.9531 Q825.2656,827.7656 825.1563,827.25 Q825.1094,826.8906 824.9219,826.7031 Q824.5938,826.3281 823.9844,826.1094 Q823.375,825.8906 822.75,825.8906 Q821.9844,825.8906 821.3516,826.2188 Q820.7188,826.5469 820.2266,827.2969 Q819.7344,828.0469 819.7344,829.0781 L819.7344,830.1719 Q819.7344,831.4063 820.625,832.2266 Q821.5156,833.0469 823.1094,833.0469 Q824.0469,833.0469 824.7031,832.7969 Q825.0938,832.6406 825.5156,832.2031 Q825.7813,831.9375 825.9297,831.8594 Q826.0781,831.7813 826.2813,831.7813 Q826.6094,831.7813 826.8672,832.0391 Q827.125,832.2969 827.125,832.6406 Q827.125,832.9844 826.7813,833.3906 Q826.2813,833.9688 825.4844,834.2969 Q824.4063,834.75 823.1094,834.75 Q821.5938,834.75 820.3906,834.125 Q819.4063,833.625 818.7188,832.5547 Q818.0313,831.4844 818.0313,830.2031 L818.0313,829.0469 Q818.0313,827.7188 818.6484,826.5703 Q819.2656,825.4219 820.3594,824.8047 Q821.4531,824.1875 822.6875,824.1875 Q823.4219,824.1875 824.0703,824.3516 Q824.7188,824.5156 825.2656,824.875 Z " fill="#000000"/><text fill="#000000" font-family="sans-serif" font-size="14" lengthAdjust="spacing" textLength="104" x="836.5" y="834.7285">AdminTransform</text><line style="stroke:#181818;stroke-width:0.5;" x1="808.5" x2="942.5" y1="845" y2="845"/><text fill="#000000" font-family="sans-serif" font-size="14" lengthAdjust="spacing" textLength="74" x="813.5" y="863.5332">string name</text><text fill="#000000" font-family="sans-serif" font-size="14" lengthAdjust="spacing" textLength="42" x="813.5" y="881.1426">json fn</text><line style="stroke:#181818;stroke-width:0.5;" x1="808.5" x2="942.5" y1="888.2188" y2="888.2188"/><text fill="#000000" font-family="sans-serif" font-size="14" lengthAdjust="spacing" textLength="50" x="813.5" y="906.752">create()</text><text fill="#000000" font-family="sans-serif" font-size="14" lengthAdjust="spacing" textLength="60" x="813.5" y="924.3613">process()</text></g><!--class Image--><g id="elem_Image"><rect fill="#F1F1F1" height="48" id="Image" rx="2.5" ry="2.5" style="stroke:#181818;stroke-width:0.5;" width="70" x="755.5" y="649"/><ellipse cx="770.5" cy="665" fill="#ADD1B2" rx="11" ry="11" style="stroke:#181818;stroke-width:1.0;"/><path d="M773.2656,660.875 Q773.4219,660.6563 773.6094,660.5469 Q773.7969,660.4375 774.0156,660.4375 Q774.3906,660.4375 774.625,660.6953 Q774.8594,660.9531 774.8594,661.5625 L774.8594,663.0156 Q774.8594,663.625 774.625,663.8906 Q774.3906,664.1563 774.0156,664.1563 Q773.6719,664.1563 773.4688,663.9531 Q773.2656,663.7656 773.1563,663.25 Q773.1094,662.8906 772.9219,662.7031 Q772.5938,662.3281 771.9844,662.1094 Q771.375,661.8906 770.75,661.8906 Q769.9844,661.8906 769.3516,662.2188 Q768.7188,662.5469 768.2266,663.2969 Q767.7344,664.0469 767.7344,665.0781 L767.7344,666.1719 Q767.7344,667.4063 768.625,668.2266 Q769.5156,669.0469 771.1094,669.0469 Q772.0469,669.0469 772.7031,668.7969 Q773.0938,668.6406 773.5156,668.2031 Q773.7813,667.9375 773.9297,667.8594 Q774.0781,667.7813 774.2813,667.7813 Q774.6094,667.7813 774.8672,668.0391 Q775.125,668.2969 775.125,668.6406 Q775.125,668.9844 774.7813,669.3906 Q774.2813,669.9688 773.4844,670.2969 Q772.4063,670.75 771.1094,670.75 Q769.5938,670.75 768.3906,670.125 Q767.4063,669.625 766.7188,668.5547 Q766.0313,667.4844 766.0313,666.2031 L766.0313,665.0469 Q766.0313,663.7188 766.6484,662.5703 Q767.2656,661.4219 768.3594,660.8047 Q769.4531,660.1875 770.6875,660.1875 Q771.4219,660.1875 772.0703,660.3516 Q772.7188,660.5156 773.2656,660.875 Z " fill="#000000"/><text fill="#000000" font-family="sans-serif" font-size="14" lengthAdjust="spacing" textLength="38" x="784.5" y="670.7285">Image</text><line style="stroke:#181818;stroke-width:0.5;" x1="756.5" x2="824.5" y1="681" y2="681"/><line style="stroke:#181818;stroke-width:0.5;" x1="756.5" x2="824.5" y1="689" y2="689"/></g><g id="elem_ilol25"><ellipse cx="992.5" cy="11" fill="#F1F1F1" rx="5" ry="5" style="stroke:#181818;stroke-width:1.5;"/></g><text fill="#000000" font-family="sans-serif" font-size="14" lengthAdjust="spacing" textLength="21" x="982" y="30.5332">CLI</text><g id="elem_ilol28"><ellipse cx="1037.5" cy="11" fill="#F1F1F1" rx="5" ry="5" style="stroke:#181818;stroke-width:1.5;"/></g><text fill="#000000" font-family="sans-serif" font-size="14" lengthAdjust="spacing" textLength="37" x="1019" y="30.5332">REST</text><g id="elem_ilol31"><ellipse cx="1082.5" cy="11" fill="#F1F1F1" rx="5" ry="5" style="stroke:#181818;stroke-width:1.5;"/></g><text fill="#000000" font-family="sans-serif" font-size="14" lengthAdjust="spacing" textLength="29" x="1068" y="30.5332">Web</text><!--link ilol25 to i--><g id="link_ilol25_i"><path d="M993.44,16.1 C996.48,29.36 1006.38,72.61 1016.04,114.76 " fill="none" id="ilol25-i" style="stroke:#181818;stroke-width:1.0;"/></g><!--link ilol28 to i--><g id="link_ilol28_i"><path d="M1037.5,16.1 C1037.5,29.36 1037.5,72.61 1037.5,114.76 " fill="none" id="ilol28-i" style="stroke:#181818;stroke-width:1.0;"/></g><!--link ilol31 to i--><g id="link_ilol31_i"><path d="M1081.56,16.1 C1078.53,29.36 1068.62,72.61 1058.97,114.76 " fill="none" id="ilol31-i" style="stroke:#181818;stroke-width:1.0;"/></g><!--link AdminDataStream to ChannelCreationPolicy--><g id="link_AdminDataStream_ChannelCreationPolicy"><path codeLine="97" d="M851.3668,285.6703 C862.9668,296.3803 867.28,297.81 881.5,304 C950.95,334.22 2169.23,325.55 2244.5,334 C2350.44,345.89 2383.48,335.69 2479.5,382 C2698.33,487.53 2788.61,551.82 2845.5,788 C2864.55,867.07 2901.82,912.31 2845.5,971 C2797,1021.55 2285.54,995.07 2215.5,997 C2183.73,997.88 1673.47,994.43 1643.5,1005 C1609.56,1016.97 1582.2887,1040.2938 1562.6087,1060.3838 " fill="none" id="AdminDataStream-ChannelCreationPolicy" style="stroke:#181818;stroke-width:1.0;"/><polygon fill="none" points="842.55,277.53,844.2449,284.5391,851.3668,285.6703,849.6718,278.6612,842.55,277.53" style="stroke:#181818;stroke-width:1.0;"/><polygon fill="#181818" points="1558.41,1064.67,1567.5655,1061.0399,1561.9089,1061.0982,1561.8506,1055.4417,1558.41,1064.67" style="stroke:#181818;stroke-width:1.0;"/><text fill="#000000" font-family="sans-serif" font-size="13" lengthAdjust="spacing" textLength="44" x="2830.5" y="678.4951">policies</text><text fill="#000000" font-family="sans-serif" font-size="13" lengthAdjust="spacing" textLength="7" x="1564.3599" y="1054.3275">n</text></g><!--link AdminDataStream to DataChannel--><g id="link_AdminDataStream_DataChannel"><path codeLine="98" d="M851.3606,285.6862 C862.9606,296.3862 867.27,297.82 881.5,304 C956.22,336.45 2266.41,326.21 2347.5,334 C2472.31,345.98 2502.3,358.72 2625.5,382 C2790.46,413.17 2995.5,290.12 2995.5,458 C2995.5,458 2995.5,458 2995.5,873 C2995.5,938.48 2945.75,945.35 2885.5,971 C2747.69,1029.67 2699.14,990.43 2549.5,997 C2528.55,997.92 1813.65,996.45 1794.5,1005 C1767.03,1017.27 1748.3993,1039.792 1735.2893,1059.792 " fill="none" id="AdminDataStream-DataChannel" style="stroke:#181818;stroke-width:1.0;"/><polygon fill="#181818" points="842.54,277.55,844.2382,284.5583,851.3606,285.6862,849.6623,278.6779,842.54,277.55" style="stroke:#181818;stroke-width:1.0;"/><polygon fill="#181818" points="1732,1064.81,1740.2793,1059.4759,1734.7411,1060.6283,1733.5886,1055.0901,1732,1064.81" style="stroke:#181818;stroke-width:1.0;"/><text fill="#000000" font-family="sans-serif" font-size="13" lengthAdjust="spacing" textLength="52" x="2996.5" y="678.4951">channels</text><text fill="#000000" font-family="sans-serif" font-size="13" lengthAdjust="spacing" textLength="7" x="1727.5625" y="1054.1015">n</text></g><!--link AdminDataStream to DataStreamInstance--><g id="link_AdminDataStream_DataStreamInstance"><path codeLine="99" d="M851.3543,285.7021 C862.9543,296.3921 867.27,297.83 881.5,304 C960.88,338.42 2352.2,327.98 2438.5,334 C2616.24,346.4 2676.18,304.28 2836.5,382 C2964.65,444.12 3012.47,478.9 3057.5,614 C3085.29,697.35 3022.6,969.97 3021.5,971 C2974.4,1015.36 2796.13,993.77 2731.5,997 C2710.53,998.05 1994.89,996.92 1975.5,1005 C1946.36,1017.15 1925.4569,1039.9027 1910.5769,1059.9427 " fill="none" id="AdminDataStream-DataStreamInstance" style="stroke:#181818;stroke-width:1.0;"/><polygon fill="#181818" points="842.53,277.57,844.2315,284.5775,851.3543,285.7021,849.6529,278.6946,842.53,277.57" style="stroke:#181818;stroke-width:1.0;"/><polygon fill="#181818" points="1907,1064.76,1915.5768,1059.9187,1909.9807,1060.7456,1909.1538,1055.1495,1907,1064.76" style="stroke:#181818;stroke-width:1.0;"/><text fill="#000000" font-family="sans-serif" font-size="13" lengthAdjust="spacing" textLength="56" x="3065.5" y="678.4951">instances</text><text fill="#000000" font-family="sans-serif" font-size="13" lengthAdjust="spacing" textLength="7" x="1903.075" y="1054.0387">n</text></g><!--link AdminDataStream to DataTransform--><g id="link_AdminDataStream_DataTransform"><path codeLine="100" d="M767.6733,289.1339 C739.4333,386.3739 693.0228,546.2279 669.9428,625.7279 " fill="none" id="AdminDataStream-DataTransform" style="stroke:#181818;stroke-width:1.0;"/><polygon fill="none" points="771.02,277.61,765.5054,282.2564,767.6733,289.1339,773.1879,284.4875,771.02,277.61" style="stroke:#181818;stroke-width:1.0;"/><polygon fill="#181818" points="668.27,631.49,674.6206,623.9621,669.664,626.6883,666.9378,621.7317,668.27,631.49" style="stroke:#181818;stroke-width:1.0;"/><text fill="#000000" font-family="sans-serif" font-size="13" lengthAdjust="spacing" textLength="61" x="739.5" y="464.4951">transforms</text><text fill="#000000" font-family="sans-serif" font-size="13" lengthAdjust="spacing" textLength="7" x="662.6397" y="620.796">n</text></g><!--link AdminDataStream to SABundle--><g id="link_AdminDataStream_SABundle"><path codeLine="101" d="M840.9247,287.1812 C859.9847,312.9012 876.94,331.37 903.5,352 C960.77,396.47 1033.9598,425.2372 1084.1798,441.7372 " fill="none" id="AdminDataStream-SABundle" style="stroke:#181818;stroke-width:1.0;"/><polygon fill="none" points="833.78,277.54,834.1386,284.7422,840.9247,287.1812,840.5661,279.979,833.78,277.54" style="stroke:#181818;stroke-width:1.0;"/><polygon fill="#181818" points="1089.88,443.61,1082.5782,437.0006,1085.1298,442.0493,1080.0811,444.6009,1089.88,443.61" style="stroke:#181818;stroke-width:1.0;"/><text fill="#000000" font-family="sans-serif" font-size="13" lengthAdjust="spacing" textLength="64" x="904.5" y="348.4951">consumers</text><text fill="#000000" font-family="sans-serif" font-size="13" lengthAdjust="spacing" textLength="7" x="1074.8991" y="437.5768">n</text></g><!--link AdminDataStream to SABundle--><g id="link_AdminDataStream_SABundle"><path codeLine="102" d="M856.5755,285.8241 C867.0655,295.5841 869.68,296.63 881.5,304 C918.01,326.74 935.35,314.15 973.5,334 C1015.62,355.92 1053.7319,384.5275 1085.1519,410.7275 " fill="none" id="AdminDataStream-SABundle-1" style="stroke:#181818;stroke-width:1.0;"/><polygon fill="none" points="847.79,277.65,849.458,284.6655,856.5755,285.8241,854.9074,278.8086,847.79,277.65" style="stroke:#181818;stroke-width:1.0;"/><polygon fill="#181818" points="1089.76,414.57,1085.4095,405.7341,1085.9199,411.3679,1080.2861,411.8783,1089.76,414.57" style="stroke:#181818;stroke-width:1.0;"/><text fill="#000000" font-family="sans-serif" font-size="13" lengthAdjust="spacing" textLength="57" x="1003.5" y="348.4951">producers</text><text fill="#000000" font-family="sans-serif" font-size="13" lengthAdjust="spacing" textLength="7" x="1075.0873" y="404.4155">n</text></g><!--link AdminDataStream to SecurityKey--><g id="link_AdminDataStream_SecurityKey"><path codeLine="103" d="M851.3771,285.66 C862.9671,296.36 867.28,297.8 881.5,304 C1010.58,360.3 2017.77,281.67 2148.5,334 C2153.87,336.15 2454.16,608.71 2456.5,614 C2477.72,661.96 2480.76,685.5 2456.5,732 C2445.73,752.66 2428.37,744.06 2413.5,762 C2392.19,787.72 2380.0934,818.4743 2372.7234,842.0043 " fill="none" id="AdminDataStream-SecurityKey" style="stroke:#181818;stroke-width:1.0;"/><polygon fill="none" points="842.56,277.52,844.2552,284.529,851.3771,285.66,849.6819,278.651,842.56,277.52" style="stroke:#181818;stroke-width:1.0;"/><polygon fill="#181818" points="2370.93,847.73,2377.4372,840.337,2372.4245,842.9586,2369.8029,837.9458,2370.93,847.73" style="stroke:#181818;stroke-width:1.0;"/><text fill="#000000" font-family="sans-serif" font-size="13" lengthAdjust="spacing" textLength="83" x="2424.5" y="580.4951">encryptionKey</text><text fill="#000000" font-family="sans-serif" font-size="13" lengthAdjust="spacing" textLength="7" x="2364.6808" y="837.001">1</text></g><!--link AdminDataStream to SecurityKey--><g id="link_AdminDataStream_SecurityKey"><path codeLine="104" d="M853.885,285.7814 C864.955,295.9814 868.43,297.22 881.5,304 C956.61,342.97 986.65,316.83 1069.5,334 C1528.15,429.04 1688.49,365.46 2085.5,614 C2154.19,657 2153.24,693.41 2224.5,732 C2265.68,754.3 2291.5,729.81 2325.5,762 C2349.44,784.66 2357.8476,817.0823 2361.4276,841.7323 " fill="none" id="AdminDataStream-SecurityKey-1" style="stroke:#181818;stroke-width:1.0;"/><polygon fill="none" points="845.06,277.65,846.762,284.6574,853.885,285.7814,852.183,278.774,845.06,277.65" style="stroke:#181818;stroke-width:1.0;"/><polygon fill="#181818" points="2362.29,847.67,2364.9549,838.1885,2361.5714,842.7219,2357.038,839.3383,2362.29,847.67" style="stroke:#181818;stroke-width:1.0;"/><text fill="#000000" font-family="sans-serif" font-size="13" lengthAdjust="spacing" textLength="83" x="2032.5" y="580.4951">decryptionKey</text><text fill="#000000" font-family="sans-serif" font-size="13" lengthAdjust="spacing" textLength="7" x="2353.8982" y="837.3275">1</text></g><!--reverse link DataStream to AdminDataStream--><g id="link_DataStream_AdminDataStream"><path codeLine="107" d="M1382.4534,1049.6038 C1394.6934,1029.6838 1405.93,1017.53 1432.5,1005 C1466.94,988.77 2775.92,998.25 2802.5,971 C2859.3,912.78 2837.07,861.62 2802.5,788 C2682.46,532.3 2558.18,523.17 2313.5,382 C2260.16,351.22 2244,345.53 2183.5,334 C2041.36,306.9 1014.16,361.81 881.5,304 C867.28,297.8 854.15,288.22 842.55,277.52 " fill="none" id="DataStream-backto-AdminDataStream" style="stroke:#181818;stroke-width:1.0;"/><polygon fill="none" points="1373.03,1064.94,1387.5655,1052.745,1377.3414,1046.4627,1373.03,1064.94" style="stroke:#181818;stroke-width:1.0;"/></g><!--link AdminTransform to DataStream--><g id="link_AdminTransform_DataStream"><path codeLine="115" d="M932.1448,939.7741 C946.1248,954.1541 953.79,959.98 970.5,971 C997.51,988.81 1006.78,990.62 1038.5,997 C1065.86,1002.5 1264.35,992.93 1289.5,1005 C1315.83,1017.64 1333.0737,1039.9767 1345.1037,1059.8567 " fill="none" id="AdminTransform-DataStream" style="stroke:#181818;stroke-width:1.0;"/><polygon fill="none" points="923.78,931.17,925.0943,938.2603,932.1448,939.7741,930.8304,932.6838,923.78,931.17" style="stroke:#181818;stroke-width:1.0;"/><polygon fill="#181818" points="1348.21,1064.99,1346.9727,1055.2192,1345.6214,1060.7122,1340.1283,1059.3609,1348.21,1064.99" style="stroke:#181818;stroke-width:1.0;"/><text fill="#000000" font-family="sans-serif" font-size="13" lengthAdjust="spacing" textLength="35" x="1039.5" y="993.4951">inputs</text><text fill="#000000" font-family="sans-serif" font-size="13" lengthAdjust="spacing" textLength="7" x="1345.9576" y="1054.3276">n</text></g><!--link AdminTransform to DataStream--><g id="link_AdminTransform_DataStream"><path codeLine="116" d="M926.6441,939.7774 C941.3241,955.4474 950.86,961.82 970.5,971 C992.51,981.28 1056.09,972.56 1079.5,979 C1096.75,983.74 1098.19,992.49 1115.5,997 C1152.96,1006.76 1254.73,988.01 1289.5,1005 C1315.57,1017.74 1332.712,1039.7799 1344.802,1059.5699 " fill="none" id="AdminTransform-DataStream-1" style="stroke:#181818;stroke-width:1.0;"/><polygon fill="none" points="918.44,931.02,919.6229,938.1334,926.6441,939.7774,925.4612,932.664,918.44,931.02" style="stroke:#181818;stroke-width:1.0;"/><polygon fill="#181818" points="1347.93,1064.69,1346.6515,1054.9245,1345.3234,1060.4232,1339.8246,1059.0951,1347.93,1064.69" style="stroke:#181818;stroke-width:1.0;"/><text fill="#000000" font-family="sans-serif" font-size="13" lengthAdjust="spacing" textLength="43" x="1116.5" y="993.4951">outputs</text><text fill="#000000" font-family="sans-serif" font-size="13" lengthAdjust="spacing" textLength="7" x="1317.2268" y="1054.3871">n</text></g><!--reverse link DataTransform to AdminTransform--><g id="link_DataTransform_AdminTransform"><path codeLine="119" d="M719.6972,726.1782 C745.3072,747.5982 763.08,763 790.5,788 C799.19,795.92 808.22,804.43 817.02,812.87 " fill="none" id="DataTransform-backto-AdminTransform" style="stroke:#181818;stroke-width:1.0;"/><polygon fill="none" points="705.89,714.63,715.8478,730.7806,723.5466,721.5758,705.89,714.63" style="stroke:#181818;stroke-width:1.0;"/></g><!--link DataTransform to DataStream--><g id="link_DataTransform_DataStream"><path codeLine="125" d="M717.0423,721.2647 C727.0323,727.8647 727.76,727.41 738.5,732 C858.41,783.24 918.1,715.53 1026.5,788 C1107.56,842.19 1072.6,908.58 1147.5,971 C1150.33,973.36 1204.93,996.09 1208.5,997 C1243.55,1005.97 1257.43,988.27 1289.5,1005 C1315.06,1018.33 1332.1198,1040.0022 1344.3398,1059.5522 " fill="none" id="DataTransform-DataStream" style="stroke:#181818;stroke-width:1.0;"/><polygon fill="none" points="707.03,714.65,709.8312,721.2948,717.0423,721.2647,714.241,714.6199,707.03,714.65" style="stroke:#181818;stroke-width:1.0;"/><polygon fill="#181818" points="1347.52,1064.64,1346.1416,1054.8881,1344.8698,1060.4001,1339.3578,1059.1284,1347.52,1064.64" style="stroke:#181818;stroke-width:1.0;"/><text fill="#000000" font-family="sans-serif" font-size="13" lengthAdjust="spacing" textLength="35" x="1148.5" y="877.4951">inputs</text><text fill="#000000" font-family="sans-serif" font-size="13" lengthAdjust="spacing" textLength="7" x="1336.503" y="1054.2902">n</text></g><!--link DataTransform to DataStream--><g id="link_DataTransform_DataStream"><path codeLine="126" d="M715.3927,721.1441 C725.7927,728.0141 727.08,727.69 738.5,732 C832.78,767.59 1115.23,718.82 1188.5,788 C1248.97,845.09 1177.87,904.28 1227.5,971 C1246.26,996.22 1265.11,985.18 1289.5,1005 C1310.99,1022.46 1327.4812,1042.1842 1340.7612,1060.0542 " fill="none" id="DataTransform-DataStream-1" style="stroke:#181818;stroke-width:1.0;"/><polygon fill="none" points="705.38,714.53,708.1816,721.1746,715.3927,721.1441,712.591,714.4995,705.38,714.53" style="stroke:#181818;stroke-width:1.0;"/><polygon fill="#181818" points="1344.34,1064.87,1342.1823,1055.2604,1341.3576,1060.8568,1335.7612,1060.0322,1344.34,1064.87" style="stroke:#181818;stroke-width:1.0;"/><text fill="#000000" font-family="sans-serif" font-size="13" lengthAdjust="spacing" textLength="43" x="1228.5" y="877.4951">outputs</text><text fill="#000000" font-family="sans-serif" font-size="13" lengthAdjust="spacing" textLength="7" x="1332.3021" y="1054.1768">n</text></g><!--link DataTransformInstance to InputStreamInstance--><g id="link_DataTransformInstance_InputStreamInstance"><path codeLine="135" d="M742.9295,939.3182 C759.4495,954.5982 770.01,961.33 790.5,971 C812.84,981.54 821.25,974.34 845.5,979 C879.17,985.47 886.56,992.19 920.5,997 C958.61,1002.4 1057.68,990.92 1093.5,1005 C1125.46,1017.56 1150.4038,1040.5915 1168.4238,1060.5015 " fill="none" id="DataTransformInstance-InputStreamInstance" style="stroke:#181818;stroke-width:1.0;"/><polygon fill="none" points="734.12,931.17,735.8087,938.1806,742.9295,939.3182,741.2408,932.3076,734.12,931.17" style="stroke:#181818;stroke-width:1.0;"/><polygon fill="#181818" points="1172.45,1064.95,1169.3763,1055.593,1169.0948,1061.2429,1163.445,1060.9614,1172.45,1064.95" style="stroke:#181818;stroke-width:1.0;"/><text fill="#000000" font-family="sans-serif" font-size="13" lengthAdjust="spacing" textLength="35" x="921.5" y="993.4951">inputs</text><text fill="#000000" font-family="sans-serif" font-size="13" lengthAdjust="spacing" textLength="7" x="1168.4653" y="1054.2773">n</text></g><!--link DataTransformInstance to OutputStreamInstance--><g id="link_DataTransformInstance_OutputStreamInstance"><path codeLine="136" d="M735.6339,940.3528 C755.0939,962.8328 771.29,978.46 796.5,997 C835.75,1025.86 880.0329,1046.8424 919.2429,1062.6024 " fill="none" id="DataTransformInstance-OutputStreamInstance" style="stroke:#181818;stroke-width:1.0;"/><polygon fill="none" points="727.78,931.28,728.6827,938.4344,735.6339,940.3528,734.7312,933.1984,727.78,931.28" style="stroke:#181818;stroke-width:1.0;"/><polygon fill="#181818" points="924.81,1064.84,917.9511,1057.7721,920.1707,1062.9753,914.9675,1065.195,924.81,1064.84" style="stroke:#181818;stroke-width:1.0;"/><text fill="#000000" font-family="sans-serif" font-size="13" lengthAdjust="spacing" textLength="43" x="797.5" y="993.4951">outputs</text><text fill="#000000" font-family="sans-serif" font-size="13" lengthAdjust="spacing" textLength="7" x="900.3363" y="1054.1392">n</text></g><!--link SABundle to DataStream--><g id="link_SABundle_DataStream"><path codeLine="147" d="M1196.2715,507.1523 C1261.3215,563.1923 1364.43,665.12 1408.5,788 C1435.96,864.56 1424.24,891.2 1408.5,971 C1401.79,1005.03 1387.8188,1036.2916 1376.0088,1059.3116 " fill="none" id="SABundle-DataStream" style="stroke:#181818;stroke-width:1.0;"/><polygon fill="none" points="1187.18,499.32,1189.115,506.2666,1196.2715,507.1523,1194.3365,500.2056,1187.18,499.32" style="stroke:#181818;stroke-width:1.0;"/><polygon fill="#181818" points="1373.27,1064.65,1380.9372,1058.4682,1375.5523,1060.2013,1373.8192,1054.8165,1373.27,1064.65" style="stroke:#181818;stroke-width:1.0;"/><text fill="#000000" font-family="sans-serif" font-size="13" lengthAdjust="spacing" textLength="35" x="1405.5" y="776.4951">inputs</text><text fill="#000000" font-family="sans-serif" font-size="13" lengthAdjust="spacing" textLength="7" x="1368.5296" y="1054.3027">n</text></g><!--link SABundle to DataStream--><g id="link_SABundle_DataStream"><path codeLine="148" d="M1197.6832,489.1219 C1247.9632,515.4219 1315.8,556.37 1368.5,614 C1419.11,669.33 1430.92,689.35 1449.5,762 C1475.48,863.55 1484.85,907.98 1429.5,997 C1414.43,1021.25 1398.2677,1042.3567 1383.6977,1060.2567 " fill="none" id="SABundle-DataStream-1" style="stroke:#181818;stroke-width:1.0;"/><polygon fill="none" points="1187.05,483.56,1190.5126,489.8854,1197.6832,489.1219,1194.2206,482.7966,1187.05,483.56" style="stroke:#181818;stroke-width:1.0;"/><polygon fill="#181818" points="1379.91,1064.91,1388.6937,1060.4551,1383.0664,1061.0322,1382.4893,1055.4049,1379.91,1064.91" style="stroke:#181818;stroke-width:1.0;"/><text fill="#000000" font-family="sans-serif" font-size="13" lengthAdjust="spacing" textLength="43" x="1454.5" y="776.4951">outputs</text><text fill="#000000" font-family="sans-serif" font-size="13" lengthAdjust="spacing" textLength="7" x="1385.7807" y="1054.2271">n</text></g><!--link SABundle to DataStream--><g id="link_SABundle_DataStream"><path codeLine="149" d="M1198.6329,478.1584 C1262.3329,499.2284 1362.37,540.39 1430.5,614 C1480.73,668.27 1489.13,690.13 1506.5,762 C1520.89,821.49 1605.59,699.1 1483.5,971 C1477.18,985.07 1473.55,988.77 1460.5,997 C1449.55,1003.9 1443.42,998.05 1432.5,1005 C1408.53,1020.27 1391.4726,1040.9381 1378.5626,1059.6881 " fill="none" id="SABundle-DataStream-2" style="stroke:#181818;stroke-width:1.0;"/><polygon fill="none" points="1187.24,474.39,1191.6803,480.0719,1198.6329,478.1584,1194.1926,472.4766,1187.24,474.39" style="stroke:#181818;stroke-width:1.0;"/><polygon fill="#181818" points="1375.16,1064.63,1383.5585,1059.4856,1377.9955,1060.5118,1376.9694,1054.9488,1375.16,1064.63" style="stroke:#181818;stroke-width:1.0;"/><text fill="#000000" font-family="sans-serif" font-size="13" lengthAdjust="spacing" textLength="87" x="1520.5" y="776.4951">learningStream</text><text fill="#000000" font-family="sans-serif" font-size="13" lengthAdjust="spacing" textLength="7" x="1379.5865" y="1054.2778">1</text></g><!--link SABundle to DataStream--><g id="link_SABundle_DataStream"><path codeLine="150" d="M1199.0328,473.4459 C1306.7428,499.9359 1548.7,577.76 1616.5,762 C1643.03,834.07 1740.93,741.43 1541.5,971 C1526.1,988.73 1517.79,989.6 1495.5,997 C1468.71,1005.89 1457.39,991.68 1432.5,1005 C1406.94,1018.68 1389.5969,1040.3244 1377.0869,1059.7644 " fill="none" id="SABundle-DataStream-3" style="stroke:#181818;stroke-width:1.0;"/><polygon fill="none" points="1187.38,470.58,1192.2511,475.8972,1199.0328,473.4459,1194.1617,468.1287,1187.38,470.58" style="stroke:#181818;stroke-width:1.0;"/><polygon fill="#181818" points="1373.84,1064.81,1382.0741,1059.4063,1376.5458,1060.6054,1375.3467,1055.0771,1373.84,1064.81" style="stroke:#181818;stroke-width:1.0;"/><text fill="#000000" font-family="sans-serif" font-size="13" lengthAdjust="spacing" textLength="77" x="1626.5" y="776.4951">adminStream</text><text fill="#000000" font-family="sans-serif" font-size="13" lengthAdjust="spacing" textLength="7" x="1369.3615" y="1054.1015">1</text></g><!--link SABundle to DataTransform--><g id="link_SABundle_DataTransform"><path codeLine="151" d="M1078.2504,474.8774 C1013.5904,491.5574 908.22,521.91 814.5,566 C778.35,583.01 771.71,591.79 738.5,614 C730.24,619.53 726.5122,622.039 718.0622,627.929 " fill="none" id="SABundle-DataTransform" style="stroke:#181818;stroke-width:1.0;"/><polygon fill="none" points="1089.87,471.88,1083.061,469.5055,1078.2504,474.8774,1085.0593,477.2519,1089.87,471.88" style="stroke:#181818;stroke-width:1.0;"/><polygon fill="#181818" points="713.14,631.36,722.8107,629.495,717.2419,628.5008,718.236,622.932,713.14,631.36" style="stroke:#181818;stroke-width:1.0;"/><text fill="#000000" font-family="sans-serif" font-size="13" lengthAdjust="spacing" textLength="61" x="815.5" y="580.4951">transforms</text><text fill="#000000" font-family="sans-serif" font-size="13" lengthAdjust="spacing" textLength="7" x="714.9413" y="620.6445">n</text></g><!--link SABundle to Application--><g id="link_SABundle_Application"><path codeLine="152" d="M1199.1798,462.2045 C1341.0298,468.0545 1738.65,490.72 1845.5,566 C1913.94,614.21 1887.21,662.93 1934.5,732 C1953.02,759.05 1961.45,762.88 1982.5,788 C1999.37,808.13 2014.5056,826.614 2028.0956,843.334 " fill="none" id="SABundle-Application" style="stroke:#181818;stroke-width:1.0;"/><polygon fill="none" points="1187.19,461.71,1193.0201,465.9538,1199.1798,462.2045,1193.3497,457.9606,1187.19,461.71" style="stroke:#181818;stroke-width:1.0;"/><polygon fill="#181818" points="2031.88,847.99,2029.3074,838.4831,2028.7263,844.11,2023.0994,843.5289,2031.88,847.99" style="stroke:#181818;stroke-width:1.0;"/><text fill="#000000" font-family="sans-serif" font-size="13" lengthAdjust="spacing" textLength="69" x="1935.5" y="678.4951">applications</text><text fill="#000000" font-family="sans-serif" font-size="13" lengthAdjust="spacing" textLength="7" x="2019.2118" y="837.3276">n</text></g><!--link SABundle to Stack--><g id="link_SABundle_Stack"><path codeLine="153" d="M1199.2028,461.7842 C1365.3928,467.5242 1894.21,494.79 2009.5,614 C2063.63,669.97 2005.83,729.98 2065.5,780 C2083.76,795.3 2098.64,774.85 2118.5,788 C2139.8,802.1 2151.4459,822.8836 2159.2859,842.1236 " fill="none" id="SABundle-Stack" style="stroke:#181818;stroke-width:1.0;"/><polygon fill="none" points="1187.21,461.37,1193.0684,465.5747,1199.2028,461.7842,1193.3445,457.5795,1187.21,461.37" style="stroke:#181818;stroke-width:1.0;"/><polygon fill="#181818" points="2161.55,847.68,2161.858,837.836,2159.6632,843.0497,2154.4495,840.8548,2161.55,847.68" style="stroke:#181818;stroke-width:1.0;"/><text fill="#000000" font-family="sans-serif" font-size="13" lengthAdjust="spacing" textLength="39" x="2037.5" y="678.4951">stacks</text><text fill="#000000" font-family="sans-serif" font-size="13" lengthAdjust="spacing" textLength="7" x="2151.7591" y="837.34">n</text></g><!--link SABundle to AIModel--><g id="link_SABundle_AIModel"><path codeLine="154" d="M1199.027,462.7184 C1384.917,471.3784 2039.22,505.51 2241.5,566 C2433.66,623.47 2616.596,782.5836 2681.846,843.5536 " fill="none" id="SABundle-AIModel" style="stroke:#181818;stroke-width:1.0;"/><polygon fill="none" points="1187.04,462.16,1192.8474,466.4349,1199.027,462.7184,1193.2196,458.4436,1187.04,462.16" style="stroke:#181818;stroke-width:1.0;"/><polygon fill="#181818" points="2686.23,847.65,2682.385,838.5827,2682.5767,844.2363,2676.9231,844.428,2686.23,847.65" style="stroke:#181818;stroke-width:1.0;"/><text fill="#000000" font-family="sans-serif" font-size="13" lengthAdjust="spacing" textLength="52" x="2547.5" y="678.4951">aimodels</text><text fill="#000000" font-family="sans-serif" font-size="13" lengthAdjust="spacing" textLength="7" x="2672.4611" y="837.3027">n</text></g><!--link SABundle to SABundleInstance--><g id="link_SABundle_SABundleInstance"><path codeLine="155" d="M1081.5787,519.1562 C1049.0487,552.9562 1018.9209,584.2772 986.5409,617.9172 " fill="none" id="SABundle-SABundleInstance" style="stroke:#181818;stroke-width:1.0;"/><polygon fill="#181818" points="1089.9,510.51,1082.8573,512.0593,1081.5787,519.1562,1088.6214,517.6068,1089.9,510.51" style="stroke:#181818;stroke-width:1.0;"/><polygon fill="#181818" points="982.38,622.24,991.5033,618.5297,985.8474,618.6376,985.7395,612.9818,982.38,622.24" style="stroke:#181818;stroke-width:1.0;"/><text fill="#000000" font-family="sans-serif" font-size="13" lengthAdjust="spacing" textLength="56" x="1037.5" y="580.4951">instances</text><text fill="#000000" font-family="sans-serif" font-size="13" lengthAdjust="spacing" textLength="7" x="981.6209" y="611.5088">n</text></g><!--link SABundleInstance to SABundle--><g id="link_SABundleInstance_SABundle"><path codeLine="178" d="M951.7609,610.9237 C958.5109,591.9437 964.15,582.28 977.5,566 C1007.85,529 1049.1946,503.0048 1084.4946,484.8448 " fill="none" id="SABundleInstance-SABundle" style="stroke:#181818;stroke-width:1.0;"/><polygon fill="none" points="947.74,622.23,953.5192,617.9172,951.7609,610.9237,945.9817,615.2365,947.74,622.23" style="stroke:#181818;stroke-width:1.0;"/><polygon fill="#181818" points="1089.83,482.1,1079.9971,482.6602,1085.3839,484.3873,1083.6568,489.7741,1089.83,482.1" style="stroke:#181818;stroke-width:1.0;"/><text fill="#000000" font-family="sans-serif" font-size="13" lengthAdjust="spacing" textLength="36" x="978.5" y="580.4951">parent</text><text fill="#000000" font-family="sans-serif" font-size="13" lengthAdjust="spacing" textLength="7" x="1074.8415" y="481.9605">1</text></g><!--link SABundle to SecureVault--><g id="link_SABundle_SecureVault"><path codeLine="156" d="M1199.2221,462.105 C1397.9921,469.315 2128.86,500.1 2208.5,566 C2267.77,615.04 2202.03,678.71 2257.5,732 C2296.84,769.79 2324.92,744.27 2376.5,762 C2403.6,771.31 2412.44,770.99 2435.5,788 C2458.07,804.65 2474.9238,824.6928 2488.1938,842.8828 " fill="none" id="SABundle-SecureVault" style="stroke:#181818;stroke-width:1.0;"/><polygon fill="#181818" points="1187.23,461.67,1193.0811,465.8849,1199.2221,462.105,1193.3711,457.8901,1187.23,461.67" style="stroke:#181818;stroke-width:1.0;"/><polygon fill="#181818" points="2491.73,847.73,2489.6572,838.1017,2488.7832,843.6906,2483.1943,842.8166,2491.73,847.73" style="stroke:#181818;stroke-width:1.0;"/><text fill="#000000" font-family="sans-serif" font-size="13" lengthAdjust="spacing" textLength="69" x="2258.5" y="678.4951">secureVault</text><text fill="#000000" font-family="sans-serif" font-size="13" lengthAdjust="spacing" textLength="7" x="2479.7921" y="837.001">1</text></g><!--link SABundle to ChannelCreationPolicy--><g id="link_SABundle_ChannelCreationPolicy"><path codeLine="157" d="M1199.1833,462.9899 C1336.3033,472.1499 1713.13,518.66 1859.5,762 C1863.63,768.86 1864.4,773.68 1859.5,780 C1850.79,791.25 1840.8,780.85 1828.5,788 C1763.11,826.02 1615.0858,996.5383 1560.9758,1060.1983 " fill="none" id="SABundle-ChannelCreationPolicy" style="stroke:#181818;stroke-width:1.0;"/><polygon fill="none" points="1187.21,462.19,1192.93,466.581,1199.1833,462.9899,1193.4633,458.5988,1187.21,462.19" style="stroke:#181818;stroke-width:1.0;"/><polygon fill="#181818" points="1557.09,1064.77,1565.9666,1060.5031,1560.3282,1060.9603,1559.871,1055.3219,1557.09,1064.77" style="stroke:#181818;stroke-width:1.0;"/><text fill="#000000" font-family="sans-serif" font-size="13" lengthAdjust="spacing" textLength="44" x="1863.5" y="776.4951">policies</text><text fill="#000000" font-family="sans-serif" font-size="13" lengthAdjust="spacing" textLength="7" x="1554.2131" y="1054.0512">n</text></g><!--link SABundle to SABundleBuild--><g id="link_SABundle_SABundleBuild"><path codeLine="158" d="M1128.9351,548.1699 C1126.1651,573.6899 1125.0659,583.8249 1122.4759,607.7449 " fill="none" id="SABundle-SABundleBuild" style="stroke:#181818;stroke-width:1.0;"/><polygon fill="none" points="1130.23,536.24,1125.6059,541.7733,1128.9351,548.1699,1133.5592,542.6366,1130.23,536.24" style="stroke:#181818;stroke-width:1.0;"/><polygon fill="#181818" points="1121.83,613.71,1126.7756,605.1929,1122.3682,608.7391,1118.8221,604.3317,1121.83,613.71" style="stroke:#181818;stroke-width:1.0;"/><text fill="#000000" font-family="sans-serif" font-size="13" lengthAdjust="spacing" textLength="34" x="1127.5" y="580.4951">builds</text><text fill="#000000" font-family="sans-serif" font-size="13" lengthAdjust="spacing" textLength="7" x="1115.1749" y="602.9989">n</text></g><!--link SABundle to Image--><g id="link_SABundle_Image"><path codeLine="159" d="M1078.6204,481.3567 C1016.3904,504.9667 918.92,547.97 843.5,614 C831.39,624.6 823.1266,633.2219 813.4766,644.3219 " fill="none" id="SABundle-Image" style="stroke:#181818;stroke-width:1.0;"/><polygon fill="none" points="1089.84,477.1,1082.8113,475.4885,1078.6204,481.3567,1085.6491,482.9682,1089.84,477.1" style="stroke:#181818;stroke-width:1.0;"/><polygon fill="#181818" points="809.54,648.85,818.4636,644.6823,812.8205,645.0766,812.4261,639.4335,809.54,648.85" style="stroke:#181818;stroke-width:1.0;"/><text fill="#000000" font-family="sans-serif" font-size="13" lengthAdjust="spacing" textLength="42" x="901.5" y="580.4951">images</text><text fill="#000000" font-family="sans-serif" font-size="13" lengthAdjust="spacing" textLength="7" x="806.5221" y="638.1517">n</text></g><!--link SABundleBuild to SecurityKey--><g id="link_SABundleBuild_SecurityKey"><path codeLine="168" d="M1199.8033,680.5778 C1421.6333,697.9678 2068.07,749.42 2112.5,762 C2129.72,766.87 2131.26,775.24 2148.5,780 C2194.04,792.58 2210.3,771.32 2254.5,788 C2288.75,800.92 2317.0078,823.9093 2337.6978,843.6393 " fill="none" id="SABundleBuild-SecurityKey" style="stroke:#181818;stroke-width:1.0;"/><polygon fill="#181818" points="1187.84,679.64,1193.509,684.0967,1199.8033,680.5778,1194.1343,676.1212,1187.84,679.64" style="stroke:#181818;stroke-width:1.0;"/><polygon fill="#181818" points="2342.04,847.78,2338.2872,838.6742,2338.4215,844.3294,2332.7663,844.4637,2342.04,847.78" style="stroke:#181818;stroke-width:1.0;"/><text fill="#000000" font-family="sans-serif" font-size="13" lengthAdjust="spacing" textLength="66" x="2149.5" y="776.4951">encryptKey</text><text fill="#000000" font-family="sans-serif" font-size="13" lengthAdjust="spacing" textLength="7" x="2328.3878" y="837.0638">1</text></g><!--link SABundleBuild to SecurityKey--><g id="link_SABundleBuild_SecurityKey"><path codeLine="169" d="M1199.5238,680.5316 C1443.9038,699.5616 2214.43,759.69 2220.5,762 C2246.07,771.73 2299.12,814.9522 2333.22,843.9622 " fill="none" id="SABundleBuild-SecurityKey-1" style="stroke:#181818;stroke-width:1.0;"/><polygon fill="#181818" points="1187.56,679.6,1193.2313,684.0537,1199.5238,680.5316,1193.8524,676.0779,1187.56,679.6" style="stroke:#181818;stroke-width:1.0;"/><polygon fill="#181818" points="2337.79,847.85,2333.5269,838.9716,2333.9817,844.6101,2328.3431,845.0649,2337.79,847.85" style="stroke:#181818;stroke-width:1.0;"/><text fill="#000000" font-family="sans-serif" font-size="13" lengthAdjust="spacing" textLength="66" x="2250.5" y="776.4951">decryptKey</text><text fill="#000000" font-family="sans-serif" font-size="13" lengthAdjust="spacing" textLength="7" x="2323.0487" y="837.1517">1</text></g><!--link SABundleBuild to SecurityKey--><g id="link_SABundleBuild_SecurityKey"><path codeLine="170" d="M1199.6009,682.3296 C1344.8409,696.7996 1670.92,729.77 1954.5,762 C2019.9,769.43 2035.93,774.28 2101.5,780 C2135.42,782.96 2222.51,776.35 2254.5,788 C2289.12,800.61 2317.5827,823.9134 2338.2027,843.8134 " fill="none" id="SABundleBuild-SecurityKey-2" style="stroke:#181818;stroke-width:1.0;"/><polygon fill="#181818" points="1187.66,681.14,1193.2339,685.7151,1199.6009,682.3296,1194.027,677.7545,1187.66,681.14" style="stroke:#181818;stroke-width:1.0;"/><polygon fill="#181818" points="2342.52,847.98,2338.8217,838.8519,2338.9222,844.5078,2333.2662,844.6083,2342.52,847.98" style="stroke:#181818;stroke-width:1.0;"/><text fill="#000000" font-family="sans-serif" font-size="13" lengthAdjust="spacing" textLength="8" x="2102.5" y="776.4951">iv</text><text fill="#000000" font-family="sans-serif" font-size="13" lengthAdjust="spacing" textLength="7" x="2337.7845" y="837.315">1</text></g><!--link SABundleInstance to InputStreamInstance--><g id="link_SABundleInstance_InputStreamInstance"><path codeLine="179" d="M949.3266,735.272 C954.0966,755.252 956.78,766.86 961.5,788 C982.22,880.64 934.58,933.91 1005.5,997 C1020.17,1010.05 1075.39,997.41 1093.5,1005 C1124.97,1018.18 1149.7613,1040.8402 1167.8913,1060.4902 " fill="none" id="SABundleInstance-InputStreamInstance" style="stroke:#181818;stroke-width:1.0;"/><polygon fill="none" points="946.54,723.6,944.0426,730.3648,949.3266,735.272,951.8239,728.5071,946.54,723.6" style="stroke:#181818;stroke-width:1.0;"/><polygon fill="#181818" points="1171.96,1064.9,1168.7969,1055.5729,1168.5695,1061.2252,1162.9172,1060.9978,1171.96,1064.9" style="stroke:#181818;stroke-width:1.0;"/><text fill="#000000" font-family="sans-serif" font-size="13" lengthAdjust="spacing" textLength="35" x="982.5" y="877.4951">inputs</text><text fill="#000000" font-family="sans-serif" font-size="13" lengthAdjust="spacing" textLength="7" x="1159.056" y="1054.2145">n</text></g><!--link SABundleInstance to InputStreamInstance--><g id="link_SABundleInstance_InputStreamInstance"><path codeLine="181" d="M1017.6131,728.8466 C1024.0831,732.0666 1019.93,729.62 1026.5,732 C1135.22,771.31 1235.26,681.62 1280.5,788 C1312.34,862.85 1306.49,893.93 1280.5,971 C1267.95,1008.24 1242.517,1038.7618 1220.877,1060.5618 " fill="none" id="SABundleInstance-InputStreamInstance-1" style="stroke:#181818;stroke-width:1.0;"/><polygon fill="none" points="1006.87,723.5,1010.4593,729.7543,1017.6131,728.8466,1014.0237,722.5923,1006.87,723.5" style="stroke:#181818;stroke-width:1.0;"/><polygon fill="#181818" points="1216.65,1064.82,1225.8293,1061.2506,1220.1725,1061.2715,1220.1517,1055.6147,1216.65,1064.82" style="stroke:#181818;stroke-width:1.0;"/><text fill="#000000" font-family="sans-serif" font-size="13" lengthAdjust="spacing" textLength="97" x="1302.5" y="877.4951">learningInStream</text><text fill="#000000" font-family="sans-serif" font-size="13" lengthAdjust="spacing" textLength="7" x="1215.1978" y="1054.114">1</text></g><!--link SABundleInstance to InputStreamInstance--><g id="link_SABundleInstance_InputStreamInstance"><path codeLine="182" d="M851.6646,729.0216 C845.4446,732.1716 849.81,729.61 843.5,732 C768.39,760.4 538.7,726.98 486.5,788 C433.64,849.81 431.71,910.89 486.5,971 C518.14,1005.71 1088.6,1003.13 1093.5,1005 C1125.59,1017.21 1150.5321,1040.3049 1168.5021,1060.3249 " fill="none" id="SABundleInstance-InputStreamInstance-2" style="stroke:#181818;stroke-width:1.0;"/><polygon fill="none" points="862.37,723.6,855.2101,722.7423,851.6646,729.0216,858.8245,729.8793,862.37,723.6" style="stroke:#181818;stroke-width:1.0;"/><polygon fill="#181818" points="1172.51,1064.79,1169.4749,1055.4205,1169.1701,1061.0691,1163.5215,1060.7643,1172.51,1064.79" style="stroke:#181818;stroke-width:1.0;"/><text fill="#000000" font-family="sans-serif" font-size="13" lengthAdjust="spacing" textLength="87" x="487.5" y="877.4951">adminInStream</text><text fill="#000000" font-family="sans-serif" font-size="13" lengthAdjust="spacing" textLength="7" x="1168.5407" y="1054.0763">1</text></g><!--link SABundleInstance to OutputStreamInstance--><g id="link_SABundleInstance_OutputStreamInstance"><path codeLine="180" d="M853.4065,728.8345 C846.6265,732.1445 850.46,729.77 843.5,732 C601.49,809.52 520.24,705.36 272.5,762 C243.37,768.66 227.05,763.12 210.5,788 C165.46,855.72 165.46,903.28 210.5,971 C248.58,1028.26 701.6761,1067.321 896.7361,1081.631 " fill="none" id="SABundleInstance-OutputStreamInstance" style="stroke:#181818;stroke-width:1.0;"/><polygon fill="none" points="864.19,723.57,857.0434,722.6078,853.4065,728.8345,860.5531,729.7968,864.19,723.57" style="stroke:#181818;stroke-width:1.0;"/><polygon fill="#181818" points="902.72,1082.07,894.0368,1077.4222,897.7334,1081.7042,893.4515,1085.4008,902.72,1082.07" style="stroke:#181818;stroke-width:1.0;"/><text fill="#000000" font-family="sans-serif" font-size="13" lengthAdjust="spacing" textLength="43" x="211.5" y="877.4951">outputs</text><text fill="#000000" font-family="sans-serif" font-size="13" lengthAdjust="spacing" textLength="7" x="887.9616" y="1078.2972">n</text></g><!--link SABundleInstance to OutputStreamInstance--><g id="link_SABundleInstance_OutputStreamInstance"><path codeLine="183" d="M853.4172,728.8554 C846.6272,732.1554 850.47,729.79 843.5,732 C760.16,758.45 114.81,721.1 58.5,788 C6.13,850.23 6,908.89 58.5,971 C112.63,1035.03 675.8187,1071.4166 896.6387,1083.3366 " fill="none" id="SABundleInstance-OutputStreamInstance-1" style="stroke:#181818;stroke-width:1.0;"/><polygon fill="none" points="864.21,723.61,857.0651,722.6351,853.4172,728.8554,860.562,729.8303,864.21,723.61" style="stroke:#181818;stroke-width:1.0;"/><polygon fill="#181818" points="902.63,1083.66,893.8587,1079.1807,897.6373,1083.3905,893.4275,1087.1691,902.63,1083.66" style="stroke:#181818;stroke-width:1.0;"/><text fill="#000000" font-family="sans-serif" font-size="13" lengthAdjust="spacing" textLength="108" x="59.5" y="877.4951">learningOutStream</text><text fill="#000000" font-family="sans-serif" font-size="13" lengthAdjust="spacing" textLength="7" x="887.8638" y="1097.3988">1</text></g><!--link SABundleInstance to OutputStreamInstance--><g id="link_SABundleInstance_OutputStreamInstance"><path codeLine="184" d="M853.1117,728.8256 C846.4217,732.1156 850.35,729.72 843.5,732 C733.64,768.54 397.95,697.69 325.5,788 C274.61,851.44 274.61,907.56 325.5,971 C396.37,1059.34 733.4632,1080.7854 896.7732,1086.0854 " fill="none" id="SABundleInstance-OutputStreamInstance-2" style="stroke:#181818;stroke-width:1.0;"/><polygon fill="none" points="863.88,723.53,856.7306,722.5884,853.1117,728.8256,860.2611,729.7672,863.88,723.53" style="stroke:#181818;stroke-width:1.0;"/><polygon fill="#181818" points="902.77,1086.28,893.9045,1081.9902,897.7726,1086.1178,893.645,1089.986,902.77,1086.28" style="stroke:#181818;stroke-width:1.0;"/><text fill="#000000" font-family="sans-serif" font-size="13" lengthAdjust="spacing" textLength="98" x="326.5" y="877.4951">adminOutStream</text><text fill="#000000" font-family="sans-serif" font-size="13" lengthAdjust="spacing" textLength="7" x="888.0159" y="1100.244">1</text></g><!--link SABundleInstance to StackInstance--><g id="link_SABundleInstance_StackInstance"><path codeLine="185" d="M1016.1358,728.7378 C1023.0858,732.0778 1019.38,729.79 1026.5,732 C1188.14,782.17 1631.27,696.92 1787.5,762 C1830.56,779.93 1863.8239,816.5203 1884.1239,842.8203 " fill="none" id="SABundleInstance-StackInstance" style="stroke:#181818;stroke-width:1.0;"/><polygon fill="none" points="1005.32,723.54,1008.9953,729.7442,1016.1358,728.7378,1012.4605,722.5336,1005.32,723.54" style="stroke:#181818;stroke-width:1.0;"/><polygon fill="#181818" points="1887.79,847.57,1885.4573,838.0014,1884.7349,843.6119,1879.1244,842.8895,1887.79,847.57" style="stroke:#181818;stroke-width:1.0;"/><text fill="#000000" font-family="sans-serif" font-size="13" lengthAdjust="spacing" textLength="32" x="1818.5" y="776.4951">stack</text><text fill="#000000" font-family="sans-serif" font-size="13" lengthAdjust="spacing" textLength="7" x="1875.8638" y="837.2032">n</text></g><!--link SABundleInstance to AIModel--><g id="link_SABundleInstance_AIModel"><path codeLine="186" d="M1015.8409,728.7273 C1022.8709,732.0973 1019.27,729.82 1026.5,732 C1164.73,773.67 2181.36,753.84 2325.5,762 C2327.51,762.11 2611.65,787.22 2613.5,788 C2644.75,801.17 2669.2582,823.8156 2687.1682,843.4656 " fill="none" id="SABundleInstance-AIModel" style="stroke:#181818;stroke-width:1.0;"/><polygon fill="none" points="1005.02,723.54,1008.7014,729.7406,1015.8409,728.7273,1012.1595,722.5267,1005.02,723.54" style="stroke:#181818;stroke-width:1.0;"/><polygon fill="#181818" points="2691.21,847.9,2688.1036,838.5538,2687.8419,844.2046,2682.1911,843.9429,2691.21,847.9" style="stroke:#181818;stroke-width:1.0;"/><text fill="#000000" font-family="sans-serif" font-size="13" lengthAdjust="spacing" textLength="52" x="2520.5" y="776.4951">aimodels</text><text fill="#000000" font-family="sans-serif" font-size="13" lengthAdjust="spacing" textLength="7" x="2687.1638" y="837.2145">n</text></g><!--link SABundleInstance to DataTransformInstance--><g id="link_SABundleInstance_DataTransformInstance"><path codeLine="187" d="M861.4564,731.1012 C826.7564,758.2312 797.7869,780.8745 761.5369,809.2145 " fill="none" id="SABundleInstance-DataTransformInstance" style="stroke:#181818;stroke-width:1.0;"/><polygon fill="none" points="870.91,723.71,863.7195,724.2544,861.4564,731.1012,868.647,730.5568,870.91,723.71" style="stroke:#181818;stroke-width:1.0;"/><polygon fill="#181818" points="756.81,812.91,766.364,810.5181,760.7491,809.8305,761.4367,804.2155,756.81,812.91" style="stroke:#181818;stroke-width:1.0;"/><text fill="#000000" font-family="sans-serif" font-size="13" lengthAdjust="spacing" textLength="61" x="816.5" y="776.4951">transforms</text><text fill="#000000" font-family="sans-serif" font-size="13" lengthAdjust="spacing" textLength="7" x="758.44" y="802.2233">n</text></g><!--link Sentient Agent Bundle Manager to Data Stream Manager--><g id="link_Sentient Agent Bundle Manager_Data Stream Manager"><path codeLine="194" d="M1220.7197,210.6568 C1221.8212,210.6761 1223.0185,210.6972 1224.3102,210.7202 C1226.8936,210.7661 1229.8544,210.8194 1233.1802,210.8801 C1246.4836,211.1228 1265.6285,211.4848 1289.8297,211.9754 C1338.232,212.9565 1406.8593,214.4521 1489.4292,216.5373 C1654.5691,220.7078 1875.4794,227.2369 2101.9013,236.7263 C2554.745,255.705 3029.635,286.525 3124.5,334 C3189.34,366.45 3230.5,385.5 3230.5,458 C3230.5,458 3230.5,458 3230.5,873 C3230.5,939.82 3203.33,963.52 3145.5,997 C3090.78,1028.68 2808.0375,1051.3775 2537.9775,1066.1812 C2402.9475,1073.5831 2271.0881,1079.0116 2172.4875,1082.6027 C2123.1872,1084.3982 2082.2016,1085.7344 2053.2916,1086.6283 C2038.8367,1087.0752 2027.4006,1087.4116 2019.4537,1087.6395 C2018.4603,1087.668 2017.5214,1087.6948 2016.638,1087.7199 C2016.1963,1087.7325 2021.766,1087.5749 2021.3522,1087.5866 " fill="none" id="Sentient Agent Bundle Manager-to-Data Stream Manager" style="stroke:#181818;stroke-width:1.0;"/><polygon fill="#181818" points="2015.3546,1087.7563,2024.4641,1091.5002,2020.3526,1087.6149,2024.2379,1083.5034,2015.3546,1087.7563" style="stroke:#181818;stroke-width:1.0;"/></g><!--link Sentient Agent Bundle Manager to Security Aspect--><g id="link_Sentient Agent Bundle Manager_Security Aspect"><path codeLine="196" d="M1220.5989,210.8514 C1222.4332,210.9237 1224.5354,211.007 1226.8969,211.1013 C1236.3426,211.4785 1249.9354,212.0311 1267.1163,212.7555 C1301.4781,214.2043 1350.1921,216.3401 1408.7861,219.1333 C1525.9741,224.7197 1682.6819,232.9356 1843.1313,243.5438 C2164.03,264.76 2499.895,295.545 2564.5,334 C2666.435,394.675 2675.3525,527.31 2658.4563,645.5738 C2650.0081,704.7056 2635.1066,760.2447 2622.152,801.3995 C2618.9134,811.6882 2615.7965,821.0779 2612.9325,829.4 C2611.5005,833.561 2610.1317,837.4552 2608.8426,841.0613 C2608.198,842.8644 2607.5734,844.5955 2606.9707,846.2519 C2606.6693,847.0801 2606.3735,847.8897 2606.0834,848.6803 C2605.9383,849.0756 2607.8693,843.8362 2607.7272,844.2219 " fill="none" id="Sentient Agent Bundle Manager-to-Security Aspect" style="stroke:#181818;stroke-width:1.0;"/><polygon fill="#181818" points="2605.6526,849.8518,2612.5177,842.79,2607.3814,845.1602,2605.0112,840.0239,2605.6526,849.8518" style="stroke:#181818;stroke-width:1.0;"/></g><!--link Sentient Agent Bundle Manager to Application Manager--><g id="link_Sentient Agent Bundle Manager_Application Manager"><path codeLine="198" d="M1220.5776,210.6328 C1222.4072,210.6611 1224.5038,210.6943 1226.8588,210.7325 C1236.2784,210.8855 1249.8299,211.1199 1266.9483,211.4541 C1301.1852,212.1223 1349.6901,213.1894 1407.9445,214.8006 C1524.4534,218.0231 1679.9606,223.4225 1838.3188,232.1625 C2155.035,249.6425 2483.155,280.485 2533.5,334 C2594.12,398.43 2597.74,662.9 2542.5,732 C2538.09,737.52 2300.33,784.01 2294.5,788 C2276.71,800.165 2263.015,820.0175 2253.6225,837.2562 C2251.2744,841.5659 2249.1952,845.7123 2247.3881,849.5343 C2247.1622,850.012 2246.9406,850.4847 2246.7232,850.952 C2246.6689,851.0688 2249.137,845.7412 2249.0832,845.8574 " fill="none" id="Sentient Agent Bundle Manager-to-Application Manager" style="stroke:#181818;stroke-width:1.0;"/><polygon fill="#181818" points="2246.561,851.3015,2253.9737,844.8168,2248.6628,846.7647,2246.7149,841.4538,2246.561,851.3015" style="stroke:#181818;stroke-width:1.0;"/></g><!--link Sentient Agent Bundle Manager to Learning Corpus--><g id="link_Sentient Agent Bundle Manager_Learning Corpus"><path codeLine="200" d="M1219.5222,210.7111 C1220.0494,210.7253 1220.6018,210.7402 1221.1794,210.7557 C1222.3345,210.7869 1223.59,210.8208 1224.9442,210.8575 C1227.6526,210.931 1230.7559,211.0157 1234.2406,211.1114 C1248.1794,211.4945 1268.2216,212.0554 1293.5112,212.7899 C1344.0904,214.2589 1415.6592,216.4223 1501.3703,219.2458 C1672.7925,224.8928 1900.7838,233.1806 2130.565,243.8363 C2590.1275,265.1475 3056.85,295.93 3092.5,334 C3207.76,457.07 2914.81,464.67 2836.5,614 C2809.905,664.72 2797.3775,727.77 2791.5125,778.7263 C2790.7794,785.0958 2790.1504,791.2763 2789.611,797.2202 C2789.4761,798.7062 2789.3469,800.1774 2789.223,801.6331 C2789.1611,802.3609 2789.5928,797.105 2789.5335,797.825 " fill="none" id="Sentient Agent Bundle Manager-to-Learning Corpus" style="stroke:#181818;stroke-width:1.0;"/><polygon fill="#181818" points="2789.0412,803.8048,2793.7662,795.1633,2789.4515,798.8216,2785.7932,794.5069,2789.0412,803.8048" style="stroke:#181818;stroke-width:1.0;"/></g><!--SRC=[hLXRRziW57xFhq3PIrifIljMHTEaDDj3jbQTbcfx9fXqh3POW2D5M__x0DzjRC09KXDId_C1txdY5A8t-8h1_3EK4Emanp01Jv2g__4v-70u87H_3_xEW1hcGmyKGo70vZUa5CSRfI89ezzPJD2f4DNZtQQaboaKVKJp3Msfa90YxA_XajpID9DXuC-PTEkypsPfoUWEeumJUG9haM8a5PifeMzsBalPRzZ9e175Fs4Moz7brscg369Cqp3exIs4XuDz4qqDroQaMiPBo8kgHmmv9VGLR1XFC-7Qv_Q9HHR_QPDF9L5_OFsgFnyo6iNOqx6r6xrmICM1SQSdxTO5jgUShxkLyWyPYICVnwzsFCRu18ACAg4IymD4RaKe06cihCTIm3rVHYI9zInP8gR27ychwr6flG5U8frUCAHHXDEOdVoKl6HJax2A1HoowYD7tcjp-0g7GNjjkfAEYIWPB8ohpBjvt8AhwyK2aDcFBxkNSluBxylfn0YfNMs-ZX92wqmxxnZR326vZcOA4zn_s1nMXggHSdOaGgMZ8G4OHIfZYXUsaumFmjXizjuJxPmBiCNY4vZJ-K2TMm7ZFmIBmHDs4MzAn6OHN06KpoRYT0hIIeLgFlN7OqsyEl6jW2pd4x2glAWEoAZ84ipFGr7E46Ke7ELktggkAu0fugTKcrBzFXSimaDWxJpTGFhuJqLY1xuMRaPPPOlm8FiZL14_q3EZJtcHy0kSscrOtpkDLwhcoM4w5mOp7PXmi5oZr4HN_-lntDAuBCrzfjhRcqIK3yGuJxQ3b-aZd83YuL75fOg1YNx8C-hqCdkBKn5WQ-Z3oEnZMZj-JthBn7LvHbsLpJEwhTr6DIJxkaESfD9fbof3Jt9dXxQDwX7rkuvwN5mh6Zbs0WhK6IGCObejxOCqRsHg8_Ml493yhhPIZgM-WrOlxbbgPPBecOVoJRTo1tKc7PYosXQtNNM4-bV0EIOtS1OkMxUoLHw08G3RH3VVYWlzxPb3p6ANJoJ5yw8Tmf7ssF5qKuXwvuISfPlHDcoi1_F2AJgmit78qSyQPzVA61znF4wqDJaFyzmfNNVjlXboTRzpSdEXaZeC5r1D_Svetr-PyxU-ATiNs9I1Cr07pb_kzxbyTZbei-F9k6NbQ02Q2Z81Pq8XwOFOcxN1mfh7htufOcQkrnrc5Tixy03rxWlV05NRoze0zUxxqzdiFm00]--></g></svg>