<?xml version="1.0" encoding="us-ascii" standalone="no"?><svg xmlns="http://www.w3.org/2000/svg" xmlns:xlink="http://www.w3.org/1999/xlink" contentStyleType="text/css" height="1177px" preserveAspectRatio="none" style="width:357px;height:1177px;background:#FFFFFF;" version="1.1" viewBox="0 0 357 1177" width="357px" zoomAndPan="magnify"><defs/><g><path d="M19.5,142.5 L331.5,142.5 A12.5,12.5 0 0 1 344,155 L344,170.1094 L7,170.1094 L7,155 A12.5,12.5 0 0 1 19.5,142.5 " fill="#FFCC88" style="stroke:#FFCC88;stroke-width:1.0;"/><rect fill="none" height="1029.2188" rx="12.5" ry="12.5" style="stroke:#181818;stroke-width:0.5;" width="337" x="7" y="142.5"/><line style="stroke:#181818;stroke-width:0.5;" x1="7" x2="344" y1="170.1094" y2="170.1094"/><text fill="#000000" font-family="sans-serif" font-size="14" lengthAdjust="spacing" textLength="25" x="163" y="162.0332">diml</text><path d="M31.5,182.1094 L322.5,182.1094 A12.5,12.5 0 0 1 335,194.6094 L335,209.7188 L19,209.7188 L19,194.6094 A12.5,12.5 0 0 1 31.5,182.1094 " fill="#FFCC88" style="stroke:#FFCC88;stroke-width:1.0;"/><rect fill="none" height="979.6094" rx="12.5" ry="12.5" style="stroke:#181818;stroke-width:0.5;" width="316" x="19" y="182.1094"/><line style="stroke:#181818;stroke-width:0.5;" x1="19" x2="335" y1="209.7188" y2="209.7188"/><text fill="#000000" font-family="sans-serif" font-size="14" lengthAdjust="spacing" textLength="34" x="160" y="201.6426">sabm</text><!--cluster dimlsabmsabundleinstance--><g id="cluster_dimlsabmsabundleinstance"><path d="M52,221.7188 L158,221.7188 A12.5,12.5 0 0 1 170.5,234.2188 L170.5,244.3281 L39.5,244.3281 L39.5,234.2188 A12.5,12.5 0 0 1 52,221.7188 " fill="#FFCC88" style="stroke:#FFCC88;stroke-width:1.0;"/><rect fill="none" height="238" rx="12.5" ry="12.5" style="stroke:#181818;stroke-width:0.5;" width="131" x="39.5" y="221.7188"/><line style="stroke:#181818;stroke-width:0.5;" x1="39.5" x2="170.5" y1="244.3281" y2="244.3281"/><text fill="#000000" font-family="sans-serif" font-size="14" lengthAdjust="spacing" textLength="115" x="47.5" y="240.252">SABundleInstance</text></g><g id="diml.dimlsabm.dimlsabmsabundleinstance.dimlsabmsabundleinstancecreated"><rect fill="#FFCC88" height="50" rx="12.5" ry="12.5" style="stroke:#181818;stroke-width:0.5;" width="68" x="70.5" y="257.7188"/><line style="stroke:#181818;stroke-width:0.5;" x1="70.5" x2="138.5" y1="285.3281" y2="285.3281"/><text fill="#000000" font-family="sans-serif" font-size="14" lengthAdjust="spacing" textLength="48" x="80.5" y="277.252">created</text></g><g id="diml.dimlsabm.dimlsabmsabundleinstance.dimlsabmsabundleinstancedeployed"><rect fill="#FFCC88" height="50" rx="12.5" ry="12.5" style="stroke:#181818;stroke-width:0.5;" width="78" x="65.5" y="325.7188"/><line style="stroke:#181818;stroke-width:0.5;" x1="65.5" x2="143.5" y1="353.3281" y2="353.3281"/><text fill="#000000" font-family="sans-serif" font-size="14" lengthAdjust="spacing" textLength="58" x="75.5" y="345.252">deployed</text></g><g id="diml.dimlsabm.dimlsabmsabundleinstance.dimlsabmsabundleinstanceenabled"><rect fill="#FFCC88" height="50" rx="12.5" ry="12.5" style="stroke:#181818;stroke-width:0.5;" width="71" x="69" y="393.7188"/><line style="stroke:#181818;stroke-width:0.5;" x1="69" x2="140" y1="421.3281" y2="421.3281"/><text fill="#000000" font-family="sans-serif" font-size="14" lengthAdjust="spacing" textLength="51" x="79" y="413.252">enabled</text></g><g id="diml.dimlsabm.dimlsabmconnect"><rect fill="#FFCC88" height="50" rx="12.5" ry="12.5" style="stroke:#181818;stroke-width:0.5;" width="70" x="69.5" y="1101.7188"/><line style="stroke:#181818;stroke-width:0.5;" x1="69.5" x2="139.5" y1="1129.3281" y2="1129.3281"/><text fill="#000000" font-family="sans-serif" font-size="14" lengthAdjust="spacing" textLength="50" x="79.5" y="1121.252">connect</text></g><path d="M43.5,915.7188 L165.5,915.7188 A12.5,12.5 0 0 1 178,928.2188 L178,943.3281 L31,943.3281 L31,928.2188 A12.5,12.5 0 0 1 43.5,915.7188 " fill="#FFCC88" style="stroke:#FFCC88;stroke-width:1.0;"/><rect fill="none" height="167.6094" rx="12.5" ry="12.5" style="stroke:#181818;stroke-width:0.5;" width="147" x="31" y="915.7188"/><line style="stroke:#181818;stroke-width:0.5;" x1="31" x2="178" y1="943.3281" y2="943.3281"/><text fill="#000000" font-family="sans-serif" font-size="14" lengthAdjust="spacing" textLength="43" x="83" y="935.252">bundle</text><g id="diml.dimlsabm.dimlsabmbundle.dimlsabmbundlecreateanddeploy"><rect fill="#FFCC88" height="50" rx="12.5" ry="12.5" style="stroke:#181818;stroke-width:0.5;" width="126" x="43" y="1023.3281"/><line style="stroke:#181818;stroke-width:0.5;" x1="43" x2="169" y1="1050.9375" y2="1050.9375"/><text fill="#000000" font-family="sans-serif" font-size="14" lengthAdjust="spacing" textLength="106" x="53" y="1042.8613">createanddeploy</text></g><g id="diml.dimlsabm.dimlsabmbundle.dimlsabmbundledeploy"><rect fill="#FFCC88" height="50" rx="12.5" ry="12.5" style="stroke:#181818;stroke-width:0.5;" width="62" x="75" y="955.3281"/><line style="stroke:#181818;stroke-width:0.5;" x1="75" x2="137" y1="982.9375" y2="982.9375"/><text fill="#000000" font-family="sans-serif" font-size="14" lengthAdjust="spacing" textLength="42" x="85" y="974.8613">deploy</text></g><path d="M76.5,797.7188 L132.5,797.7188 A12.5,12.5 0 0 1 145,810.2188 L145,825.3281 L64,825.3281 L64,810.2188 A12.5,12.5 0 0 1 76.5,797.7188 " fill="#FFCC88" style="stroke:#FFCC88;stroke-width:1.0;"/><rect fill="none" height="99.6094" rx="12.5" ry="12.5" style="stroke:#181818;stroke-width:0.5;" width="81" x="64" y="797.7188"/><line style="stroke:#181818;stroke-width:0.5;" x1="64" x2="145" y1="825.3281" y2="825.3281"/><text fill="#000000" font-family="sans-serif" font-size="14" lengthAdjust="spacing" textLength="36" x="86.5" y="817.252">policy</text><g id="diml.dimlsabm.dimlsabmpolicy.dimlsabmpolicycreate"><rect fill="#FFCC88" height="50" rx="12.5" ry="12.5" style="stroke:#181818;stroke-width:0.5;" width="60" x="76" y="837.3281"/><line style="stroke:#181818;stroke-width:0.5;" x1="76" x2="136" y1="864.9375" y2="864.9375"/><text fill="#000000" font-family="sans-serif" font-size="14" lengthAdjust="spacing" textLength="40" x="86" y="856.8613">create</text></g><path d="M75.5,475.7188 L133.5,475.7188 A12.5,12.5 0 0 1 146,488.2188 L146,503.3281 L63,503.3281 L63,488.2188 A12.5,12.5 0 0 1 75.5,475.7188 " fill="#FFCC88" style="stroke:#FFCC88;stroke-width:1.0;"/><rect fill="none" height="303.6094" rx="12.5" ry="12.5" style="stroke:#181818;stroke-width:0.5;" width="83" x="63" y="475.7188"/><line style="stroke:#181818;stroke-width:0.5;" x1="63" x2="146" y1="503.3281" y2="503.3281"/><text fill="#000000" font-family="sans-serif" font-size="14" lengthAdjust="spacing" textLength="58" x="75.5" y="495.252">sabundle</text><g id="diml.dimlsabm.dimlsabmsabundle.dimlsabmsabundlebuild"><rect fill="#FFCC88" height="50" rx="12.5" ry="12.5" style="stroke:#181818;stroke-width:0.5;" width="50" x="81" y="719.3281"/><line style="stroke:#181818;stroke-width:0.5;" x1="81" x2="131" y1="746.9375" y2="746.9375"/><text fill="#000000" font-family="sans-serif" font-size="14" lengthAdjust="spacing" textLength="30" x="91" y="738.8613">build</text></g><g id="diml.dimlsabm.dimlsabmsabundle.dimlsabmsabundlecreate"><rect fill="#FFCC88" height="50" rx="12.5" ry="12.5" style="stroke:#181818;stroke-width:0.5;" width="60" x="76" y="651.3281"/><line style="stroke:#181818;stroke-width:0.5;" x1="76" x2="136" y1="678.9375" y2="678.9375"/><text fill="#000000" font-family="sans-serif" font-size="14" lengthAdjust="spacing" textLength="40" x="86" y="670.8613">create</text></g><g id="diml.dimlsabm.dimlsabmsabundle.dimlsabmsabundledeploy"><rect fill="#FFCC88" height="50" rx="12.5" ry="12.5" style="stroke:#181818;stroke-width:0.5;" width="62" x="75" y="583.3281"/><line style="stroke:#181818;stroke-width:0.5;" x1="75" x2="137" y1="610.9375" y2="610.9375"/><text fill="#000000" font-family="sans-serif" font-size="14" lengthAdjust="spacing" textLength="42" x="85" y="602.8613">deploy</text></g><g id="diml.dimlsabm.dimlsabmsabundle.dimlsabmsabundlelist"><rect fill="#FFCC88" height="50" rx="12.5" ry="12.5" style="stroke:#181818;stroke-width:0.5;" width="50" x="81" y="515.3281"/><line style="stroke:#181818;stroke-width:0.5;" x1="81" x2="131" y1="542.9375" y2="542.9375"/><text fill="#000000" font-family="sans-serif" font-size="14" lengthAdjust="spacing" textLength="17" x="97.5" y="534.8613">list</text></g><g id="diml.dimlsabm.dimlsabmfunction"><rect fill="#FFCC88" height="50" rx="12.5" ry="12.5" style="stroke:#181818;stroke-width:0.5;" width="75" x="251" y="325.7188"/><line style="stroke:#181818;stroke-width:0.5;" x1="251" x2="326" y1="353.3281" y2="353.3281"/><text fill="#000000" font-family="sans-serif" font-size="14" lengthAdjust="spacing" textLength="55" x="261" y="345.252">Function</text></g><!--link dimlsabmsabundleinstancecreated to dimlsabmfunction--><g id="link_dimlsabmsabundleinstancecreated_dimlsabmfunction"><path d="M138.88,295.1888 C170.59,307.0388 212.5396,322.7086 245.2696,334.9386 " fill="none" id="dimlsabmsabundleinstancecreated-to-dimlsabmfunction" style="stroke:#181818;stroke-width:1.0;"/><polygon fill="#181818" points="250.89,337.0388,243.8594,330.1416,246.2063,335.2886,241.0592,337.6355,250.89,337.0388" style="stroke:#181818;stroke-width:1.0;"/></g><!--link dimlsabmsabundleinstancedeployed to dimlsabmfunction--><g id="link_dimlsabmsabundleinstancedeployed_dimlsabmfunction"><path d="M143.65,350.7188 C175.24,350.7188 213.82,350.7188 244.95,350.7188 " fill="none" id="dimlsabmsabundleinstancedeployed-to-dimlsabmfunction" style="stroke:#181818;stroke-width:1.0;"/><polygon fill="#181818" points="250.95,350.7188,241.95,346.7188,245.95,350.7188,241.95,354.7188,250.95,350.7188" style="stroke:#181818;stroke-width:1.0;"/></g><!--link dimlsabmsabundleinstanceenabled to dimlsabmfunction--><g id="link_dimlsabmsabundleinstanceenabled_dimlsabmfunction"><path d="M140.16,405.7687 C171.82,393.9388 212.8692,378.598 245.1592,366.538 " fill="none" id="dimlsabmsabundleinstanceenabled-to-dimlsabmfunction" style="stroke:#181818;stroke-width:1.0;"/><polygon fill="#181818" points="250.78,364.4388,240.9493,363.8405,246.096,366.1882,243.7484,371.3349,250.78,364.4388" style="stroke:#181818;stroke-width:1.0;"/></g><path d="M114,7 L237,7 A12.5,12.5 0 0 1 249.5,19.5 L249.5,34.6094 L101.5,34.6094 L101.5,19.5 A12.5,12.5 0 0 1 114,7 " fill="#FFCC88" style="stroke:#FFCC88;stroke-width:1.0;"/><rect fill="none" height="99.6094" rx="12.5" ry="12.5" style="stroke:#181818;stroke-width:0.5;" width="148" x="101.5" y="7"/><line style="stroke:#181818;stroke-width:0.5;" x1="101.5" x2="249.5" y1="34.6094" y2="34.6094"/><text fill="#000000" font-family="sans-serif" font-size="14" lengthAdjust="spacing" textLength="59" x="146" y="26.5332">dimlsabm</text><g id="pstatename.sabmfunction"><rect fill="#F1F1F1" height="50" rx="12.5" ry="12.5" style="stroke:#181818;stroke-width:0.5;" width="127" x="113.5" y="46.6094"/><line style="stroke:#181818;stroke-width:0.5;" x1="113.5" x2="240.5" y1="74.2188" y2="74.2188"/><text fill="#000000" font-family="sans-serif" font-size="14" lengthAdjust="spacing" textLength="107" x="123.5" y="66.1426">Custom Function</text></g><!--SRC=[rPR1RiCW38RlF8NLdNFlQT8sQTBEUm82P4CY42NaK4rxzm61A3HEewrTbgM7flPdy_i7YIfHMR06MldsRe7BLZ0hZIQ4T9PQ0GSkQtK0se5_WRkgOknuX8-KxcXPZsd_Ou9yka_MPuIR4DIq5XCSt1FXfxwpfeRdNWSreSONLp4GwR00nETwlH5XHcldGaR5sDbmVhoRBr_scYkHGKC8KTeAzqqrvw9HveJKd14p_NyzmQBmBVKsHacMYnX2IuuZw93OHg-BpXrEGMmxfE8e6pAxr8pudE0TEusSvWHlUPw_gLh9pgAeJw2AVq7pwyDZMFD5ku1ck7OPaqldXL-iYWmsKHg7t7IcxFfAs7Y5pQuIl_QQzg8excUjNEN-TcGuy2jRag3LFRbepjZb_xZZ_lkKQiMSo5pdJMgoR0t96qrVVfZw0W00]--></g></svg>