<?xml version="1.0" encoding="UTF-8" standalone="no"?><svg xmlns="http://www.w3.org/2000/svg" xmlns:xlink="http://www.w3.org/1999/xlink" contentScriptType="application/ecmascript" contentStyleType="text/css" height="590px" preserveAspectRatio="none" style="width:1513px;height:590px;" version="1.1" viewBox="0 0 1513 590" width="1513px" zoomAndPan="magnify"><defs><filter height="300%" id="f1fef0wlwb0w98" width="300%" x="-1" y="-1"><feGaussianBlur result="blurOut" stdDeviation="2.0"/><feColorMatrix in="blurOut" result="blurOut2" type="matrix" values="0 0 0 0 0 0 0 0 0 0 0 0 0 0 0 0 0 0 .4 0"/><feOffset dx="4.0" dy="4.0" in="blurOut2" result="blurOut3"/><feBlend in="SourceGraphic" in2="blurOut3" mode="normal"/></filter></defs><g><line style="stroke: #A80036; stroke-width: 1.0; stroke-dasharray: 5.0,5.0;" x1="78" x2="78" y1="87.6094" y2="502.1797"/><line style="stroke: #A80036; stroke-width: 1.0; stroke-dasharray: 5.0,5.0;" x1="185.5" x2="185.5" y1="87.6094" y2="502.1797"/><line style="stroke: #A80036; stroke-width: 1.0; stroke-dasharray: 5.0,5.0;" x1="263.5" x2="263.5" y1="87.6094" y2="502.1797"/><line style="stroke: #A80036; stroke-width: 1.0; stroke-dasharray: 5.0,5.0;" x1="351.5" x2="351.5" y1="87.6094" y2="502.1797"/><line style="stroke: #A80036; stroke-width: 1.0; stroke-dasharray: 5.0,5.0;" x1="470" x2="470" y1="87.6094" y2="502.1797"/><line style="stroke: #A80036; stroke-width: 1.0; stroke-dasharray: 5.0,5.0;" x1="615.5" x2="615.5" y1="87.6094" y2="502.1797"/><line style="stroke: #A80036; stroke-width: 1.0; stroke-dasharray: 5.0,5.0;" x1="776.5" x2="776.5" y1="87.6094" y2="502.1797"/><line style="stroke: #A80036; stroke-width: 1.0; stroke-dasharray: 5.0,5.0;" x1="1027.5" x2="1027.5" y1="87.6094" y2="502.1797"/><line style="stroke: #A80036; stroke-width: 1.0; stroke-dasharray: 5.0,5.0;" x1="1116.5" x2="1116.5" y1="87.6094" y2="502.1797"/><line style="stroke: #A80036; stroke-width: 1.0; stroke-dasharray: 5.0,5.0;" x1="1257" x2="1257" y1="87.6094" y2="502.1797"/><line style="stroke: #A80036; stroke-width: 1.0; stroke-dasharray: 5.0,5.0;" x1="1353" x2="1353" y1="87.6094" y2="502.1797"/><line style="stroke: #A80036; stroke-width: 1.0; stroke-dasharray: 5.0,5.0;" x1="1462" x2="1462" y1="87.6094" y2="502.1797"/><text fill="#000000" font-family="sans-serif" font-size="14" lengthAdjust="spacingAndGlyphs" textLength="134" x="8" y="84.5332">ApplicationDeveloper</text><ellipse cx="78" cy="13" fill="#FEFECE" filter="url(#f1fef0wlwb0w98)" rx="8" ry="8" style="stroke: #A80036; stroke-width: 2.0;"/><path d="M78,21 L78,48 M65,29 L91,29 M78,48 L65,63 M78,48 L91,63 " fill="none" filter="url(#f1fef0wlwb0w98)" style="stroke: #A80036; stroke-width: 2.0;"/><text fill="#000000" font-family="sans-serif" font-size="14" lengthAdjust="spacingAndGlyphs" textLength="134" x="8" y="515.7129">ApplicationDeveloper</text><ellipse cx="78" cy="528.7891" fill="#FEFECE" filter="url(#f1fef0wlwb0w98)" rx="8" ry="8" style="stroke: #A80036; stroke-width: 2.0;"/><path d="M78,536.7891 L78,563.7891 M65,544.7891 L91,544.7891 M78,563.7891 L65,578.7891 M78,563.7891 L91,578.7891 " fill="none" filter="url(#f1fef0wlwb0w98)" style="stroke: #A80036; stroke-width: 2.0;"/><rect fill="#FEFECE" filter="url(#f1fef0wlwb0w98)" height="31.6094" style="stroke: #A80036; stroke-width: 1.5;" width="51" x="158.5" y="51"/><text fill="#000000" font-family="sans-serif" font-size="14" lengthAdjust="spacingAndGlyphs" textLength="37" x="165.5" y="72.5332">SABR</text><rect fill="#FEFECE" filter="url(#f1fef0wlwb0w98)" height="31.6094" style="stroke: #A80036; stroke-width: 1.5;" width="51" x="158.5" y="501.1797"/><text fill="#000000" font-family="sans-serif" font-size="14" lengthAdjust="spacingAndGlyphs" textLength="37" x="165.5" y="522.7129">SABR</text><rect fill="#FEFECE" filter="url(#f1fef0wlwb0w98)" height="31.6094" style="stroke: #A80036; stroke-width: 1.5;" width="76" x="223.5" y="51"/><text fill="#000000" font-family="sans-serif" font-size="14" lengthAdjust="spacingAndGlyphs" textLength="62" x="230.5" y="72.5332">SABundle</text><rect fill="#FEFECE" filter="url(#f1fef0wlwb0w98)" height="31.6094" style="stroke: #A80036; stroke-width: 1.5;" width="76" x="223.5" y="501.1797"/><text fill="#000000" font-family="sans-serif" font-size="14" lengthAdjust="spacingAndGlyphs" textLength="62" x="230.5" y="522.7129">SABundle</text><rect fill="#FEFECE" filter="url(#f1fef0wlwb0w98)" height="31.6094" style="stroke: #A80036; stroke-width: 1.5;" width="72" x="313.5" y="51"/><text fill="#000000" font-family="sans-serif" font-size="14" lengthAdjust="spacingAndGlyphs" textLength="58" x="320.5" y="72.5332">SABBuild</text><rect fill="#FEFECE" filter="url(#f1fef0wlwb0w98)" height="31.6094" style="stroke: #A80036; stroke-width: 1.5;" width="72" x="313.5" y="501.1797"/><text fill="#000000" font-family="sans-serif" font-size="14" lengthAdjust="spacingAndGlyphs" textLength="58" x="320.5" y="522.7129">SABBuild</text><rect fill="#FEFECE" filter="url(#f1fef0wlwb0w98)" height="31.6094" style="stroke: #A80036; stroke-width: 1.5;" width="59" x="439" y="51"/><text fill="#000000" font-family="sans-serif" font-size="14" lengthAdjust="spacingAndGlyphs" textLength="45" x="446" y="72.5332">Docker</text><rect fill="#FEFECE" filter="url(#f1fef0wlwb0w98)" height="31.6094" style="stroke: #A80036; stroke-width: 1.5;" width="59" x="439" y="501.1797"/><text fill="#000000" font-family="sans-serif" font-size="14" lengthAdjust="spacingAndGlyphs" textLength="45" x="446" y="522.7129">Docker</text><rect fill="#FEFECE" filter="url(#f1fef0wlwb0w98)" height="31.6094" style="stroke: #A80036; stroke-width: 1.5;" width="108" x="559.5" y="51"/><text fill="#000000" font-family="sans-serif" font-size="14" lengthAdjust="spacingAndGlyphs" textLength="94" x="566.5" y="72.5332">SecurityAspect</text><rect fill="#FEFECE" filter="url(#f1fef0wlwb0w98)" height="31.6094" style="stroke: #A80036; stroke-width: 1.5;" width="108" x="559.5" y="501.1797"/><text fill="#000000" font-family="sans-serif" font-size="14" lengthAdjust="spacingAndGlyphs" textLength="94" x="566.5" y="522.7129">SecurityAspect</text><rect fill="#FEFECE" filter="url(#f1fef0wlwb0w98)" height="31.6094" style="stroke: #A80036; stroke-width: 1.5;" width="186" x="681.5" y="51"/><text fill="#000000" font-family="sans-serif" font-size="14" lengthAdjust="spacingAndGlyphs" textLength="172" x="688.5" y="72.5332">EdgeSecurityControlServer</text><rect fill="#FEFECE" filter="url(#f1fef0wlwb0w98)" height="31.6094" style="stroke: #A80036; stroke-width: 1.5;" width="186" x="681.5" y="501.1797"/><text fill="#000000" font-family="sans-serif" font-size="14" lengthAdjust="spacingAndGlyphs" textLength="172" x="688.5" y="522.7129">EdgeSecurityControlServer</text><text fill="#000000" font-family="sans-serif" font-size="14" lengthAdjust="spacingAndGlyphs" textLength="108" x="970.5" y="84.5332">SecurityEngineer</text><ellipse cx="1027.5" cy="13" fill="#FEFECE" filter="url(#f1fef0wlwb0w98)" rx="8" ry="8" style="stroke: #A80036; stroke-width: 2.0;"/><path d="M1027.5,21 L1027.5,48 M1014.5,29 L1040.5,29 M1027.5,48 L1014.5,63 M1027.5,48 L1040.5,63 " fill="none" filter="url(#f1fef0wlwb0w98)" style="stroke: #A80036; stroke-width: 2.0;"/><text fill="#000000" font-family="sans-serif" font-size="14" lengthAdjust="spacingAndGlyphs" textLength="108" x="970.5" y="515.7129">SecurityEngineer</text><ellipse cx="1027.5" cy="528.7891" fill="#FEFECE" filter="url(#f1fef0wlwb0w98)" rx="8" ry="8" style="stroke: #A80036; stroke-width: 2.0;"/><path d="M1027.5,536.7891 L1027.5,563.7891 M1014.5,544.7891 L1040.5,544.7891 M1027.5,563.7891 L1014.5,578.7891 M1027.5,563.7891 L1040.5,578.7891 " fill="none" filter="url(#f1fef0wlwb0w98)" style="stroke: #A80036; stroke-width: 2.0;"/><text fill="#000000" font-family="sans-serif" font-size="14" lengthAdjust="spacingAndGlyphs" textLength="38" x="1094.5" y="84.5332">ITOps</text><ellipse cx="1116.5" cy="13" fill="#FEFECE" filter="url(#f1fef0wlwb0w98)" rx="8" ry="8" style="stroke: #A80036; stroke-width: 2.0;"/><path d="M1116.5,21 L1116.5,48 M1103.5,29 L1129.5,29 M1116.5,48 L1103.5,63 M1116.5,48 L1129.5,63 " fill="none" filter="url(#f1fef0wlwb0w98)" style="stroke: #A80036; stroke-width: 2.0;"/><text fill="#000000" font-family="sans-serif" font-size="14" lengthAdjust="spacingAndGlyphs" textLength="38" x="1094.5" y="515.7129">ITOps</text><ellipse cx="1116.5" cy="528.7891" fill="#FEFECE" filter="url(#f1fef0wlwb0w98)" rx="8" ry="8" style="stroke: #A80036; stroke-width: 2.0;"/><path d="M1116.5,536.7891 L1116.5,563.7891 M1103.5,544.7891 L1129.5,544.7891 M1116.5,563.7891 L1103.5,578.7891 M1116.5,563.7891 L1129.5,578.7891 " fill="none" filter="url(#f1fef0wlwb0w98)" style="stroke: #A80036; stroke-width: 2.0;"/><rect fill="#FEFECE" filter="url(#f1fef0wlwb0w98)" height="31.6094" style="stroke: #A80036; stroke-width: 1.5;" width="57" x="1227" y="51"/><text fill="#000000" font-family="sans-serif" font-size="14" lengthAdjust="spacingAndGlyphs" textLength="43" x="1234" y="72.5332">Device</text><rect fill="#FEFECE" filter="url(#f1fef0wlwb0w98)" height="31.6094" style="stroke: #A80036; stroke-width: 1.5;" width="57" x="1227" y="501.1797"/><text fill="#000000" font-family="sans-serif" font-size="14" lengthAdjust="spacingAndGlyphs" textLength="43" x="1234" y="522.7129">Device</text><rect fill="#FEFECE" filter="url(#f1fef0wlwb0w98)" height="31.6094" style="stroke: #A80036; stroke-width: 1.5;" width="107" x="1298" y="51"/><text fill="#000000" font-family="sans-serif" font-size="14" lengthAdjust="spacingAndGlyphs" textLength="93" x="1305" y="72.5332">SABundleBuild</text><rect fill="#FEFECE" filter="url(#f1fef0wlwb0w98)" height="31.6094" style="stroke: #A80036; stroke-width: 1.5;" width="107" x="1298" y="501.1797"/><text fill="#000000" font-family="sans-serif" font-size="14" lengthAdjust="spacingAndGlyphs" textLength="93" x="1305" y="522.7129">SABundleBuild</text><rect fill="#FEFECE" filter="url(#f1fef0wlwb0w98)" height="31.6094" style="stroke: #A80036; stroke-width: 1.5;" width="83" x="1419" y="51"/><text fill="#000000" font-family="sans-serif" font-size="14" lengthAdjust="spacingAndGlyphs" textLength="69" x="1426" y="72.5332">FileSystem</text><rect fill="#FEFECE" filter="url(#f1fef0wlwb0w98)" height="31.6094" style="stroke: #A80036; stroke-width: 1.5;" width="83" x="1419" y="501.1797"/><text fill="#000000" font-family="sans-serif" font-size="14" lengthAdjust="spacingAndGlyphs" textLength="69" x="1426" y="522.7129">FileSystem</text><polygon fill="#A80036" points="787.5,115.9609,777.5,119.9609,787.5,123.9609,783.5,119.9609" style="stroke: #A80036; stroke-width: 1.0;"/><line style="stroke: #A80036; stroke-width: 1.0;" x1="781.5" x2="1026.5" y1="119.9609" y2="119.9609"/><text fill="#000000" font-family="sans-serif" font-size="13" font-weight="bold" lengthAdjust="spacingAndGlyphs" textLength="7" x="793.5" y="115.1045">1</text><text fill="#000000" font-family="sans-serif" font-size="13" lengthAdjust="spacingAndGlyphs" textLength="216" x="804.5" y="115.1045">Generate Keys for Security Controller</text><polygon fill="#A80036" points="626.5,146.3125,616.5,150.3125,626.5,154.3125,622.5,150.3125" style="stroke: #A80036; stroke-width: 1.0;"/><line style="stroke: #A80036; stroke-width: 1.0;" x1="620.5" x2="1026.5" y1="150.3125" y2="150.3125"/><text fill="#000000" font-family="sans-serif" font-size="13" font-weight="bold" lengthAdjust="spacingAndGlyphs" textLength="7" x="632.5" y="145.4561">2</text><text fill="#000000" font-family="sans-serif" font-size="13" lengthAdjust="spacingAndGlyphs" textLength="151" x="643.5" y="145.4561">Store Public Keys (LDAP)</text><polygon fill="#A80036" points="1245.5,176.6641,1255.5,180.6641,1245.5,184.6641,1249.5,180.6641" style="stroke: #A80036; stroke-width: 1.0;"/><line style="stroke: #A80036; stroke-width: 1.0;" x1="1116.5" x2="1251.5" y1="180.6641" y2="180.6641"/><text fill="#000000" font-family="sans-serif" font-size="13" font-weight="bold" lengthAdjust="spacingAndGlyphs" textLength="7" x="1123.5" y="175.8076">3</text><text fill="#000000" font-family="sans-serif" font-size="13" lengthAdjust="spacingAndGlyphs" textLength="106" x="1134.5" y="175.8076">Provision with Key</text><polygon fill="#A80036" points="174,207.0156,184,211.0156,174,215.0156,178,211.0156" style="stroke: #A80036; stroke-width: 1.0;"/><line style="stroke: #A80036; stroke-width: 1.0;" x1="78" x2="180" y1="211.0156" y2="211.0156"/><text fill="#000000" font-family="sans-serif" font-size="13" font-weight="bold" lengthAdjust="spacingAndGlyphs" textLength="7" x="85" y="206.1592">4</text><text fill="#000000" font-family="sans-serif" font-size="13" lengthAdjust="spacingAndGlyphs" textLength="73" x="96" y="206.1592">Build Bundle</text><polygon fill="#A80036" points="251.5,237.3672,261.5,241.3672,251.5,245.3672,255.5,241.3672" style="stroke: #A80036; stroke-width: 1.0;"/><line style="stroke: #A80036; stroke-width: 1.0;" x1="186" x2="257.5" y1="241.3672" y2="241.3672"/><text fill="#000000" font-family="sans-serif" font-size="13" font-weight="bold" lengthAdjust="spacingAndGlyphs" textLength="7" x="193" y="236.5107">5</text><text fill="#000000" font-family="sans-serif" font-size="13" lengthAdjust="spacingAndGlyphs" textLength="27" x="204" y="236.5107">build</text><polygon fill="#A80036" points="1341.5,267.7188,1351.5,271.7188,1341.5,275.7188,1345.5,271.7188" style="stroke: #A80036; stroke-width: 1.0;"/><line style="stroke: #A80036; stroke-width: 1.0;" x1="263.5" x2="1347.5" y1="271.7188" y2="271.7188"/><text fill="#000000" font-family="sans-serif" font-size="13" font-weight="bold" lengthAdjust="spacingAndGlyphs" textLength="7" x="270.5" y="266.8623">6</text><text fill="#000000" font-family="sans-serif" font-size="13" lengthAdjust="spacingAndGlyphs" textLength="36" x="281.5" y="266.8623">create</text><polygon fill="#A80036" points="1450.5,298.0703,1460.5,302.0703,1450.5,306.0703,1454.5,302.0703" style="stroke: #A80036; stroke-width: 1.0;"/><line style="stroke: #A80036; stroke-width: 1.0;" x1="351.5" x2="1456.5" y1="302.0703" y2="302.0703"/><text fill="#000000" font-family="sans-serif" font-size="13" font-weight="bold" lengthAdjust="spacingAndGlyphs" textLength="18" x="358.5" y="297.2139">3.1</text><text fill="#000000" font-family="sans-serif" font-size="13" lengthAdjust="spacingAndGlyphs" textLength="121" x="380.5" y="297.2139">create build directory</text><polygon fill="#A80036" points="458.5,328.4219,468.5,332.4219,458.5,336.4219,462.5,332.4219" style="stroke: #A80036; stroke-width: 1.0;"/><line style="stroke: #A80036; stroke-width: 1.0;" x1="351.5" x2="464.5" y1="332.4219" y2="332.4219"/><text fill="#000000" font-family="sans-serif" font-size="13" font-weight="bold" lengthAdjust="spacingAndGlyphs" textLength="18" x="358.5" y="327.5654">3.2</text><text fill="#000000" font-family="sans-serif" font-size="13" lengthAdjust="spacingAndGlyphs" textLength="73" x="380.5" y="327.5654">build images</text><polygon fill="#A80036" points="603.5,358.7734,613.5,362.7734,603.5,366.7734,607.5,362.7734" style="stroke: #A80036; stroke-width: 1.0;"/><line style="stroke: #A80036; stroke-width: 1.0;" x1="351.5" x2="609.5" y1="362.7734" y2="362.7734"/><text fill="#000000" font-family="sans-serif" font-size="13" font-weight="bold" lengthAdjust="spacingAndGlyphs" textLength="18" x="358.5" y="357.917">3.3</text><text fill="#000000" font-family="sans-serif" font-size="13" lengthAdjust="spacingAndGlyphs" textLength="192" x="380.5" y="357.917">Get Public Key For Device Types</text><polygon fill="#A80036" points="603.5,389.125,613.5,393.125,603.5,397.125,607.5,393.125" style="stroke: #A80036; stroke-width: 1.0;"/><line style="stroke: #A80036; stroke-width: 1.0;" x1="351.5" x2="609.5" y1="393.125" y2="393.125"/><text fill="#000000" font-family="sans-serif" font-size="13" font-weight="bold" lengthAdjust="spacingAndGlyphs" textLength="18" x="358.5" y="388.2686">3.4</text><text fill="#000000" font-family="sans-serif" font-size="13" lengthAdjust="spacingAndGlyphs" textLength="122" x="380.5" y="388.2686">generate random key</text><polygon fill="#A80036" points="603.5,419.4766,613.5,423.4766,603.5,427.4766,607.5,423.4766" style="stroke: #A80036; stroke-width: 1.0;"/><line style="stroke: #A80036; stroke-width: 1.0;" x1="351.5" x2="609.5" y1="423.4766" y2="423.4766"/><text fill="#000000" font-family="sans-serif" font-size="13" font-weight="bold" lengthAdjust="spacingAndGlyphs" textLength="18" x="358.5" y="418.6201">3.5</text><text fill="#000000" font-family="sans-serif" font-size="13" lengthAdjust="spacingAndGlyphs" textLength="195" x="380.5" y="418.6201">Encrypt Bundle with Random Key</text><polygon fill="#A80036" points="603.5,449.8281,613.5,453.8281,603.5,457.8281,607.5,453.8281" style="stroke: #A80036; stroke-width: 1.0;"/><line style="stroke: #A80036; stroke-width: 1.0;" x1="351.5" x2="609.5" y1="453.8281" y2="453.8281"/><text fill="#000000" font-family="sans-serif" font-size="13" font-weight="bold" lengthAdjust="spacingAndGlyphs" textLength="18" x="358.5" y="448.9717">3.6</text><text fill="#000000" font-family="sans-serif" font-size="13" lengthAdjust="spacingAndGlyphs" textLength="218" x="380.5" y="448.9717">Encrypt Random Key with Public Key</text><polygon fill="#A80036" points="764.5,480.1797,774.5,484.1797,764.5,488.1797,768.5,484.1797" style="stroke: #A80036; stroke-width: 1.0;"/><line style="stroke: #A80036; stroke-width: 1.0;" x1="351.5" x2="770.5" y1="484.1797" y2="484.1797"/><text fill="#000000" font-family="sans-serif" font-size="13" font-weight="bold" lengthAdjust="spacingAndGlyphs" textLength="18" x="358.5" y="479.3232">3.7</text><text fill="#000000" font-family="sans-serif" font-size="13" lengthAdjust="spacingAndGlyphs" textLength="75" x="380.5" y="479.3232">Store Bundle</text><!--
@startuml

autonumber

actor ApplicationDeveloper as Dev
participant SABR
participant SABundle
participant SABBuild as SABB
participant Docker
participant SecurityAspect
participant EdgeSecurityControlServer as ESCS
actor SecurityEngineer
actor ITOps



SecurityEngineer -> ESCS : Generate Keys for Security Controller
SecurityEngineer -> SecurityAspect : Store Public Keys (LDAP)
ITOps -> Device : Provision with Key
Dev -> SABR : Build Bundle
SABR -> SABundle : build
SABundle -> SABundleBuild : create
autonumber 3.1
SABB -> FileSystem : create build directory
SABB -> Docker : build images
SABB -> SecurityAspect : Get Public Key For Device Types
SABB -> SecurityAspect : generate random key
SABB -> SecurityAspect : Encrypt Bundle with Random Key
SABB -> SecurityAspect : Encrypt Random Key with Public Key
SABB -> ESCS : Store Bundle

@enduml

PlantUML version 1.2019.05(Sat Apr 20 09:45:36 PDT 2019)
(GPL source distribution)
Java Runtime: Java(TM) SE Runtime Environment
JVM: Java HotSpot(TM) 64-Bit Server VM
Java Version: 17.0.7+8-LTS-224
Operating System: Windows 11
OS Version: 10.0
Default Encoding: Cp1252
Language: en
Country: US
--></g></svg>