<?xml version="1.0" encoding="us-ascii" standalone="no"?><svg xmlns="http://www.w3.org/2000/svg" xmlns:xlink="http://www.w3.org/1999/xlink" contentStyleType="text/css" height="1161px" preserveAspectRatio="none" style="width:847px;height:1161px;background:#FFFFFF;" version="1.1" viewBox="0 0 847 1161" width="847px" zoomAndPan="magnify"><defs/><g><!--cluster sabr--><g id="cluster_sabr"><path d="M8.5,6 L40.5,6 A3.75,3.75 0 0 1 43,8.5 L50,29.6094 L555.5,29.6094 A2.5,2.5 0 0 1 558,32.1094 L558,929.5 A2.5,2.5 0 0 1 555.5,932 L8.5,932 A2.5,2.5 0 0 1 6,929.5 L6,8.5 A2.5,2.5 0 0 1 8.5,6 " fill="none" style="stroke:#000000;stroke-width:1.5;"/><line style="stroke:#000000;stroke-width:1.5;" x1="6" x2="50" y1="29.6094" y2="29.6094"/><text fill="#000000" font-family="sans-serif" font-size="14" font-weight="bold" lengthAdjust="spacing" textLength="31" x="10" y="22.5332">sabr</text></g><!--cluster sabrdiml--><g id="cluster_sabrdiml"><path d="M32.5,50 L62.5,50 A3.75,3.75 0 0 1 65,52.5 L72,73.6094 L531.5,73.6094 A2.5,2.5 0 0 1 534,76.1094 L534,905.5 A2.5,2.5 0 0 1 531.5,908 L32.5,908 A2.5,2.5 0 0 1 30,905.5 L30,52.5 A2.5,2.5 0 0 1 32.5,50 " fill="none" style="stroke:#000000;stroke-width:1.5;"/><line style="stroke:#000000;stroke-width:1.5;" x1="30" x2="72" y1="73.6094" y2="73.6094"/><text fill="#000000" font-family="sans-serif" font-size="14" font-weight="bold" lengthAdjust="spacing" textLength="29" x="34" y="66.5332">diml</text></g><!--cluster sabrdimlsabm--><g id="cluster_sabrdimlsabm"><path d="M64.5,170 L102.5,170 A3.75,3.75 0 0 1 105,172.5 L112,193.6094 L499.5,193.6094 A2.5,2.5 0 0 1 502,196.1094 L502,873.5 A2.5,2.5 0 0 1 499.5,876 L64.5,876 A2.5,2.5 0 0 1 62,873.5 L62,172.5 A2.5,2.5 0 0 1 64.5,170 " fill="#FFCC88" style="stroke:#000000;stroke-width:1.5;"/><line style="stroke:#000000;stroke-width:1.5;" x1="62" x2="112" y1="193.6094" y2="193.6094"/><text fill="#000000" font-family="sans-serif" font-size="14" font-weight="bold" lengthAdjust="spacing" textLength="37" x="66" y="186.5332">sabm</text></g><!--cluster ManageSABR--><g id="cluster_ManageSABR"><rect fill="#FFFFAA" height="443" rx="2.5" ry="2.5" style="stroke:#181818;stroke-width:1.0;" width="207" x="634" y="390"/><text fill="#000000" font-family="sans-serif" font-size="14" font-weight="bold" lengthAdjust="spacing" textLength="98" x="688.5" y="406.5332">Manage SABR</text></g><!--cluster Ships--><g id="cluster_Ships"><rect fill="#FFFFAA" height="298" rx="2.5" ry="2.5" style="stroke:#181818;stroke-width:1.0;" width="201" x="637" y="857"/><text fill="#000000" font-family="sans-serif" font-size="14" font-weight="bold" lengthAdjust="spacing" textLength="39" x="718" y="873.5332">Ships</text></g><!--entity sabrdimlsabmconnect--><g id="elem_sabrdimlsabmconnect"><ellipse cx="417" cy="116" fill="#F1F1F1" rx="8" ry="8" style="stroke:#181818;stroke-width:0.5;"/><text fill="#000000" font-family="sans-serif" font-size="14" lengthAdjust="spacing" textLength="50" x="392" y="147.5332">connect</text></g><!--entity sabrdimlsabmbundle--><g id="elem_sabrdimlsabmbundle"><rect fill="#F1F1F1" height="47.6094" rx="2.5" ry="2.5" style="stroke:#181818;stroke-width:0.5;" width="83" x="93.5" y="268"/><rect fill="#F1F1F1" height="10" style="stroke:#181818;stroke-width:0.5;" width="15" x="156.5" y="273"/><rect fill="#F1F1F1" height="2" style="stroke:#181818;stroke-width:0.5;" width="4" x="154.5" y="275"/><rect fill="#F1F1F1" height="2" style="stroke:#181818;stroke-width:0.5;" width="4" x="154.5" y="279"/><text fill="#000000" font-family="sans-serif" font-size="14" lengthAdjust="spacing" textLength="43" x="108.5" y="302.5332">bundle</text></g><!--entity sabrdimlsabmbundlecreateanddeploy--><g id="elem_sabrdimlsabmbundlecreateanddeploy"><ellipse cx="417" cy="339" fill="#F1F1F1" rx="8" ry="8" style="stroke:#181818;stroke-width:0.5;"/><text fill="#000000" font-family="sans-serif" font-size="14" lengthAdjust="spacing" textLength="106" x="364" y="370.5332">createanddeploy</text></g><!--entity sabrdimlsabmbundledeploy--><g id="elem_sabrdimlsabmbundledeploy"><ellipse cx="417" cy="244" fill="#F1F1F1" rx="8" ry="8" style="stroke:#181818;stroke-width:0.5;"/><text fill="#000000" font-family="sans-serif" font-size="14" lengthAdjust="spacing" textLength="42" x="396" y="275.5332">deploy</text></g><!--entity sabrdimlsabmpolicy--><g id="elem_sabrdimlsabmpolicy"><rect fill="#F1F1F1" height="47.6094" rx="2.5" ry="2.5" style="stroke:#181818;stroke-width:0.5;" width="76" x="97" y="410"/><rect fill="#F1F1F1" height="10" style="stroke:#181818;stroke-width:0.5;" width="15" x="153" y="415"/><rect fill="#F1F1F1" height="2" style="stroke:#181818;stroke-width:0.5;" width="4" x="151" y="417"/><rect fill="#F1F1F1" height="2" style="stroke:#181818;stroke-width:0.5;" width="4" x="151" y="421"/><text fill="#000000" font-family="sans-serif" font-size="14" lengthAdjust="spacing" textLength="36" x="112" y="444.5332">policy</text></g><!--entity sabrdimlsabmpolicycreate--><g id="elem_sabrdimlsabmpolicycreate"><ellipse cx="417" cy="434" fill="#F1F1F1" rx="8" ry="8" style="stroke:#181818;stroke-width:0.5;"/><text fill="#000000" font-family="sans-serif" font-size="14" lengthAdjust="spacing" textLength="40" x="397" y="465.5332">create</text></g><!--entity sabrdimlsabmsabundle--><g id="elem_sabrdimlsabmsabundle"><rect fill="#F1F1F1" height="47.6094" rx="2.5" ry="2.5" style="stroke:#181818;stroke-width:0.5;" width="98" x="86" y="648"/><rect fill="#F1F1F1" height="10" style="stroke:#181818;stroke-width:0.5;" width="15" x="164" y="653"/><rect fill="#F1F1F1" height="2" style="stroke:#181818;stroke-width:0.5;" width="4" x="162" y="655"/><rect fill="#F1F1F1" height="2" style="stroke:#181818;stroke-width:0.5;" width="4" x="162" y="659"/><text fill="#000000" font-family="sans-serif" font-size="14" lengthAdjust="spacing" textLength="58" x="101" y="682.5332">sabundle</text></g><!--entity sabrdimlsabmsabundlebuild--><g id="elem_sabrdimlsabmsabundlebuild"><ellipse cx="417" cy="814" fill="#F1F1F1" rx="8" ry="8" style="stroke:#181818;stroke-width:0.5;"/><text fill="#000000" font-family="sans-serif" font-size="14" lengthAdjust="spacing" textLength="30" x="402" y="845.5332">build</text></g><!--entity sabrdimlsabmsabundlecreate--><g id="elem_sabrdimlsabmsabundlecreate"><ellipse cx="417" cy="624" fill="#F1F1F1" rx="8" ry="8" style="stroke:#181818;stroke-width:0.5;"/><text fill="#000000" font-family="sans-serif" font-size="14" lengthAdjust="spacing" textLength="40" x="397" y="655.5332">create</text></g><!--entity sabrdimlsabmsabundledeploy--><g id="elem_sabrdimlsabmsabundledeploy"><ellipse cx="417" cy="719" fill="#F1F1F1" rx="8" ry="8" style="stroke:#181818;stroke-width:0.5;"/><text fill="#000000" font-family="sans-serif" font-size="14" lengthAdjust="spacing" textLength="42" x="396" y="750.5332">deploy</text></g><!--entity sabrdimlsabmsabundlelist--><g id="elem_sabrdimlsabmsabundlelist"><ellipse cx="417" cy="529" fill="#F1F1F1" rx="8" ry="8" style="stroke:#181818;stroke-width:0.5;"/><text fill="#000000" font-family="sans-serif" font-size="14" lengthAdjust="spacing" textLength="17" x="408.5" y="560.5332">list</text></g><g id="elem_ApplicationDeveloperManageSABRBuildSAB"><ellipse cx="737.6242" cy="801.1042" fill="#F1F1F1" rx="63.1242" ry="15.6042" style="stroke:#181818;stroke-width:0.5;"/><text fill="#000000" font-family="sans-serif" font-size="14" lengthAdjust="spacing" textLength="72" x="698.6242" y="805.6208">"Build SAB"</text></g><line style="stroke:#181818;stroke-width:0.5;" x1="795.7171" x2="778.9949" y1="795.6645" y2="812.3867"/><g id="elem_ApplicationDeveloperManageSABRCreateSABR"><ellipse cx="737.2859" cy="442.8572" fill="#F1F1F1" rx="72.2859" ry="16.8572" style="stroke:#181818;stroke-width:0.5;"/><text fill="#000000" font-family="sans-serif" font-size="14" lengthAdjust="spacing" textLength="94" x="687.2859" y="447.3738">"Create SABR"</text></g><line style="stroke:#181818;stroke-width:0.5;" x1="803.8103" x2="786.0464" y1="436.9808" y2="454.7446"/><g id="elem_DevOpsEngineerManageSABRDeploySABR"><ellipse cx="737.6476" cy="511.9295" fill="#F1F1F1" rx="72.6476" ry="16.9295" style="stroke:#181818;stroke-width:0.5;"/><text fill="#000000" font-family="sans-serif" font-size="14" lengthAdjust="spacing" textLength="95" x="687.1476" y="516.4461">"Deploy SABR"</text></g><line style="stroke:#181818;stroke-width:0.5;" x1="804.5048" x2="786.6684" y1="506.0279" y2="523.8643"/><g id="elem_DevOpsEngineerManageSABRDeploySABR2"><ellipse cx="737.3351" cy="582.867" fill="#F1F1F1" rx="82.3351" ry="18.867" style="stroke:#181818;stroke-width:0.5;"/><text fill="#000000" font-family="sans-serif" font-size="14" lengthAdjust="spacing" textLength="120" x="677.3351" y="586.5955">"Deploy SABR two"</text></g><line style="stroke:#181818;stroke-width:0.5;" x1="813.1078" x2="793.3258" y1="576.29" y2="596.072"/><g id="elem_DevOpsEngineerManageSABRDeploySABR3"><ellipse cx="737.3923" cy="656.8785" fill="#F1F1F1" rx="87.3923" ry="19.8785" style="stroke:#181818;stroke-width:0.5;"/><text fill="#000000" font-family="sans-serif" font-size="14" lengthAdjust="spacing" textLength="132" x="671.3923" y="660.607">"Deploy SABR three"</text></g><line style="stroke:#181818;stroke-width:0.5;" x1="817.8191" x2="797.0206" y1="649.9488" y2="670.7473"/><g id="elem_DevOpsEngineerManageSABRDeploySABR4"><ellipse cx="737.5066" cy="731.2013" fill="#F1F1F1" rx="84.0066" ry="19.2013" style="stroke:#181818;stroke-width:0.5;"/><text fill="#000000" font-family="sans-serif" font-size="14" lengthAdjust="spacing" textLength="124" x="675.5066" y="734.9298">"Deploy SABR four"</text></g><line style="stroke:#181818;stroke-width:0.5;" x1="814.8174" x2="794.6995" y1="724.5077" y2="744.6256"/><g id="elem_ApplicationDeveloperShipsAISNoContact"><ellipse cx="737.355" cy="911.171" fill="#F1F1F1" rx="76.355" ry="17.671" style="stroke:#181818;stroke-width:0.5;"/><text fill="#000000" font-family="sans-serif" font-size="14" lengthAdjust="spacing" textLength="105" x="682.1233" y="915.6255">"AIS No Contact"</text></g><line style="stroke:#181818;stroke-width:0.5;" x1="807.6241" x2="789.0434" y1="905.0109" y2="923.5916"/><g id="elem_ApplicationDeveloperShipsAISOne"><ellipse cx="737.7356" cy="979.0492" fill="#F1F1F1" rx="55.7356" ry="15.5492" style="stroke:#181818;stroke-width:0.5;"/><text fill="#000000" font-family="sans-serif" font-size="14" lengthAdjust="spacing" textLength="62" x="703.7356" y="983.5658">"AIS One"</text></g><line style="stroke:#181818;stroke-width:0.5;" x1="789.0288" x2="771.7709" y1="973.6287" y2="990.8866"/><g id="elem_ApplicationDeveloperShipsAISSABR"><ellipse cx="737.376" cy="1047.0752" fill="#F1F1F1" rx="73.376" ry="17.0752" style="stroke:#181818;stroke-width:0.5;"/><text fill="#000000" font-family="sans-serif" font-size="14" lengthAdjust="spacing" textLength="97" x="685.876" y="1051.5918">"Build AIS SAB"</text></g><line style="stroke:#181818;stroke-width:0.5;" x1="804.9036" x2="786.921" y1="1041.1228" y2="1059.1054"/><g id="elem_ApplicationDeveloperShipsUSVOne"><ellipse cx="737.4267" cy="1118.7853" fill="#F1F1F1" rx="84.4267" ry="19.2853" style="stroke:#181818;stroke-width:0.5;"/><text fill="#000000" font-family="sans-serif" font-size="14" lengthAdjust="spacing" textLength="125" x="674.9267" y="1122.5139">"USV One Instance"</text></g><line style="stroke:#181818;stroke-width:0.5;" x1="815.1243" x2="794.9219" y1="1112.0625" y2="1132.2648"/><!--entity sabundleinstancecreated--><g id="elem_sabundleinstancecreated"><polygon fill="#F1F1F1" points="580,1025,498.5,1011,335.5,1011,254,1025,335.5,1039,498.5,1039,580,1025" style="stroke:#181818;stroke-width:0.5;"/><text fill="#000000" font-family="sans-serif" font-size="14" lengthAdjust="spacing" textLength="163" x="335.5" y="1030.5332">sabundleinstance.created</text></g><!--entity sabundleinstancedeployed--><g id="elem_sabundleinstancedeployed"><polygon fill="#F1F1F1" points="590,1088,503.5,1074,330.5,1074,244,1088,330.5,1102,503.5,1102,590,1088" style="stroke:#181818;stroke-width:0.5;"/><text fill="#000000" font-family="sans-serif" font-size="14" lengthAdjust="spacing" textLength="173" x="330.5" y="1093.5332">sabundleinstance.deployed</text></g><!--entity sabundleinstanceenabled--><g id="elem_sabundleinstanceenabled"><polygon fill="#F1F1F1" points="583,962,500,948,334,948,251,962,334,976,500,976,583,962" style="stroke:#181818;stroke-width:0.5;"/><text fill="#000000" font-family="sans-serif" font-size="14" lengthAdjust="spacing" textLength="166" x="334" y="967.5332">sabundleinstance.enabled</text></g><!--link sabrdimlsabm to sabrdimlsabmconnect--><g id="link_sabrdimlsabm_sabrdimlsabmconnect"><path d="M271.1642,169.6402 C271.3848,169.4658 271.6059,169.292 271.8274,169.1187 C275.3719,166.3461 279.0381,163.7124 282.7969,161.2111 C297.8319,151.2059 314.3475,143.3194 330.4775,137.1337 C362.7375,124.7625 393.455,119.195 407.7,117.09 " fill="none" id="sabrdimlsabm-sabrdimlsabmconnect" style="stroke:#181818;stroke-width:1.0;"/></g><!--link sabrdimlsabmbundle to sabrdimlsabmbundlecreateanddeploy--><g id="link_sabrdimlsabmbundle_sabrdimlsabmbundlecreateanddeploy"><path d="M176.71,298.83 C243.75,310.09 373.37,331.84 407.56,337.58 " fill="none" id="sabrdimlsabmbundle-sabrdimlsabmbundlecreateanddeploy" style="stroke:#181818;stroke-width:1.0;"/></g><!--link sabrdimlsabmbundle to sabrdimlsabmbundledeploy--><g id="link_sabrdimlsabmbundle_sabrdimlsabmbundledeploy"><path d="M176.71,285.02 C243.75,273.53 373.37,251.31 407.56,245.45 " fill="none" id="sabrdimlsabmbundle-sabrdimlsabmbundledeploy" style="stroke:#181818;stroke-width:1.0;"/></g><!--link sabrdimlsabmpolicy to sabrdimlsabmpolicycreate--><g id="link_sabrdimlsabmpolicy_sabrdimlsabmpolicycreate"><path d="M173.18,434 C239.23,434 373.33,434 407.78,434 " fill="none" id="sabrdimlsabmpolicy-sabrdimlsabmpolicycreate" style="stroke:#181818;stroke-width:1.0;"/></g><!--link sabrdimlsabmsabundle to sabrdimlsabmsabundlebuild--><g id="link_sabrdimlsabmsabundle_sabrdimlsabmsabundlebuild"><path d="M178.86,696.07 C180.63,697.35 182.35,698.66 184,700 C214.81,724.94 210.26,745.19 244,766 C300.21,800.66 381.95,810.87 407.83,813.33 " fill="none" id="sabrdimlsabmsabundle-sabrdimlsabmsabundlebuild" style="stroke:#181818;stroke-width:1.0;"/></g><!--link sabrdimlsabmsabundle to sabrdimlsabmsabundlecreate--><g id="link_sabrdimlsabmsabundle_sabrdimlsabmsabundlecreate"><path d="M184.13,663.75 C252.93,651.95 374.72,631.08 407.62,625.44 " fill="none" id="sabrdimlsabmsabundle-sabrdimlsabmsabundlecreate" style="stroke:#181818;stroke-width:1.0;"/></g><!--link sabrdimlsabmsabundle to sabrdimlsabmsabundledeploy--><g id="link_sabrdimlsabmsabundle_sabrdimlsabmsabundledeploy"><path d="M184.13,680.08 C252.93,691.63 374.72,712.07 407.62,717.59 " fill="none" id="sabrdimlsabmsabundle-sabrdimlsabmsabundledeploy" style="stroke:#181818;stroke-width:1.0;"/></g><!--link sabrdimlsabmsabundle to sabrdimlsabmsabundlelist--><g id="link_sabrdimlsabmsabundle_sabrdimlsabmsabundlelist"><path d="M157.2,647.61 C177.43,625.81 209.81,594.53 244,576 C301.97,544.58 382.55,532.91 407.98,529.87 " fill="none" id="sabrdimlsabmsabundle-sabrdimlsabmsabundlelist" style="stroke:#181818;stroke-width:1.0;"/></g><!--reverse link sabrdimlsabm to sabundleinstancecreated--><g id="link_sabrdimlsabm_sabundleinstancecreated"><path d="M143.3014,881.4169 C144.3317,883.2498 143.3374,881.4 144.6597,883.657 C149.9487,892.6853 157.5262,904.8456 167.02,918.0463 C186.0075,944.4475 212.66,975.01 244,993 C262.83,1003.81 284.57,1011.08 306.11,1015.94 " fill="none" id="sabrdimlsabm-backto-sabundleinstancecreated" style="stroke:#181818;stroke-width:1.0;"/><polygon fill="#181818" points="140.383,876.1744,141.2656,885.9837,142.815,880.5431,148.2555,882.0925,140.383,876.1744" style="stroke:#181818;stroke-width:1.0;"/></g><!--reverse link sabrdimlsabm to sabundleinstancedeployed--><g id="link_sabrdimlsabm_sabundleinstancedeployed"><path d="M139.5912,882.0463 C139.7377,882.5968 138.4641,877.7795 138.626,878.3766 C138.9498,879.5708 139.3047,880.8568 139.6911,882.2283 C140.4638,884.9714 141.3629,888.057 142.3928,891.4364 C146.5125,904.9541 152.7263,923.1731 161.33,942.9813 C178.5375,982.5975 205.305,1028.57 244,1056 C259.36,1066.89 277.37,1074.38 295.85,1079.48 " fill="none" id="sabrdimlsabm-backto-sabundleinstancedeployed" style="stroke:#181818;stroke-width:1.0;"/><polygon fill="#181818" points="138.055,876.2463,136.4927,885.9705,139.3352,881.0796,144.226,883.9221,138.055,876.2463" style="stroke:#181818;stroke-width:1.0;"/></g><!--reverse link sabrdimlsabm to sabundleinstanceenabled--><g id="link_sabrdimlsabm_sabundleinstanceenabled"><path d="M165.6904,877.9692 C166.6696,878.2979 162.7147,876.9704 163.7414,877.315 C180.1691,882.8294 202.5731,890.35 227.2913,898.6475 C276.7275,915.2425 335.42,934.945 374.07,947.92 " fill="none" id="sabrdimlsabm-backto-sabundleinstanceenabled" style="stroke:#181818;stroke-width:1.0;"/><polygon fill="#181818" points="160.0024,876.0599,167.2616,882.716,164.7424,877.651,169.8074,875.1319,160.0024,876.0599" style="stroke:#181818;stroke-width:1.0;"/></g><!--reverse link sabrdimlsabmsabundlebuild to ApplicationDeveloperManageSABRBuildSAB--><g id="link_sabrdimlsabmsabundlebuild_ApplicationDeveloperManageSABRBuildSAB"><path d="M432.185,813.4241 C466.555,812.0141 595.04,806.77 675.25,803.5 " fill="none" id="sabrdimlsabmsabundlebuild-backto-ApplicationDeveloperManageSABRBuildSAB" style="stroke:#181818;stroke-width:1.0;"/><polygon fill="#181818" points="426.19,813.67,435.3464,817.2977,431.1858,813.4651,435.0185,809.3045,426.19,813.67" style="stroke:#181818;stroke-width:1.0;"/></g><!--reverse link sabrdimlsabmsabundlecreate to ApplicationDeveloperManageSABRCreateSABR--><g id="link_sabrdimlsabmsabundlecreate_ApplicationDeveloperManageSABRCreateSABR"><path d="M432.0599,624.2278 C459.0199,624.3978 541.1,621.29 590,576 C624.35,544.19 592.07,509.26 626,477 C639.24,464.41 657.02,456.48 674.46,451.48 " fill="none" id="sabrdimlsabmsabundlecreate-backto-ApplicationDeveloperManageSABRCreateSABR" style="stroke:#181818;stroke-width:1.0;"/><polygon fill="#181818" points="426.06,624.19,435.0346,628.2467,431.0599,624.2215,435.085,620.2468,426.06,624.19" style="stroke:#181818;stroke-width:1.0;"/></g><!--reverse link sabrdimlsabmsabundledeploy to DevOpsEngineerManageSABRDeploySABR--><g id="link_sabrdimlsabmsabundledeploy_DevOpsEngineerManageSABRDeploySABR"><path d="M432.1787,719.4373 C459.5187,720.0173 542.67,717.94 590,671 C631.05,630.29 585.49,587.25 626,546 C638.66,533.11 656.07,525.08 673.34,520.09 " fill="none" id="sabrdimlsabmsabundledeploy-backto-DevOpsEngineerManageSABRDeploySABR" style="stroke:#181818;stroke-width:1.0;"/><polygon fill="#181818" points="426.18,719.31,435.0931,723.5,431.1789,719.416,435.2628,715.5018,426.18,719.31" style="stroke:#181818;stroke-width:1.0;"/></g><!--reverse link sabrdimlsabmsabundledeploy to DevOpsEngineerManageSABRDeploySABR2--><g id="link_sabrdimlsabmsabundledeploy_DevOpsEngineerManageSABRDeploySABR2"><path d="M432.0002,718.3175 C458.0602,716.8275 535.95,709.48 590,671 C612.9,654.7 603.46,635.79 626,619 C640.32,608.33 657.95,600.74 674.88,595.37 " fill="none" id="sabrdimlsabmsabundledeploy-backto-DevOpsEngineerManageSABRDeploySABR2" style="stroke:#181818;stroke-width:1.0;"/><polygon fill="#181818" points="426.01,718.66,435.2237,722.1397,431.0018,718.3746,434.767,714.1528,426.01,718.66" style="stroke:#181818;stroke-width:1.0;"/></g><!--reverse link sabrdimlsabmsabundledeploy to DevOpsEngineerManageSABRDeploySABR3--><g id="link_sabrdimlsabmsabundledeploy_DevOpsEngineerManageSABRDeploySABR3"><path d="M432.0794,716.2632 C465.7694,709.7032 589.75,685.57 670.42,669.86 " fill="none" id="sabrdimlsabmsabundledeploy-backto-DevOpsEngineerManageSABRDeploySABR3" style="stroke:#181818;stroke-width:1.0;"/><polygon fill="#181818" points="426.19,717.41,435.7886,719.6161,431.0978,716.4544,434.2596,711.7636,426.19,717.41" style="stroke:#181818;stroke-width:1.0;"/></g><!--reverse link sabrdimlsabmsabundledeploy to DevOpsEngineerManageSABRDeploySABR4--><g id="link_sabrdimlsabmsabundledeploy_DevOpsEngineerManageSABRDeploySABR4"><path d="M432.1857,719.5361 C463.7357,720.7261 573.62,724.86 654.47,727.91 " fill="none" id="sabrdimlsabmsabundledeploy-backto-DevOpsEngineerManageSABRDeploySABR4" style="stroke:#181818;stroke-width:1.0;"/><polygon fill="#181818" points="426.19,719.31,435.0328,723.6464,431.1864,719.4985,435.3344,715.6521,426.19,719.31" style="stroke:#181818;stroke-width:1.0;"/></g><!--reverse link sabrdimlsabmsabundlebuild to ApplicationDeveloperShipsAISNoContact--><g id="link_sabrdimlsabmsabundlebuild_ApplicationDeveloperShipsAISNoContact"><path d="M431.9302,818.2466 C468.6402,829.4166 613.79,873.63 690.81,897.09 " fill="none" id="sabrdimlsabmsabundlebuild-backto-ApplicationDeveloperShipsAISNoContact" style="stroke:#181818;stroke-width:1.0;"/><polygon fill="#181818" points="426.19,816.5,433.6358,822.9467,430.9735,817.9555,435.9646,815.2931,426.19,816.5" style="stroke:#181818;stroke-width:1.0;"/></g><!--reverse link sabrdimlsabmsabundlebuild to ApplicationDeveloperShipsAISOne--><g id="link_sabrdimlsabmsabundlebuild_ApplicationDeveloperShipsAISOne"><path d="M430.9837,824.0909 C458.0837,844.9609 542.72,908.02 626,946 C647.68,955.89 673.08,963.71 694.06,969.26 " fill="none" id="sabrdimlsabmsabundlebuild-backto-ApplicationDeveloperShipsAISOne" style="stroke:#181818;stroke-width:1.0;"/><polygon fill="#181818" points="426.23,820.43,430.92,829.0905,430.1914,823.4807,435.8012,822.7522,426.23,820.43" style="stroke:#181818;stroke-width:1.0;"/></g><!--reverse link sabrdimlsabmsabundlebuild to ApplicationDeveloperShipsAISSABR--><g id="link_sabrdimlsabmsabundlebuild_ApplicationDeveloperShipsAISSABR"><path d="M431.4955,819.8082 C458.2855,831.5482 540.38,870.55 590,930 C615.51,960.56 596.39,985.4 626,1012 C639.85,1024.44 658.11,1032.46 675.8,1037.63 " fill="none" id="sabrdimlsabmsabundlebuild-backto-ApplicationDeveloperShipsAISSABR" style="stroke:#181818;stroke-width:1.0;"/><polygon fill="#181818" points="426,817.4,432.6377,824.676,430.5796,819.4069,435.8487,817.3487,426,817.4" style="stroke:#181818;stroke-width:1.0;"/></g><!--reverse link sabrdimlsabmsabundlebuild to ApplicationDeveloperShipsUSVOne--><g id="link_sabrdimlsabmsabundlebuild_ApplicationDeveloperShipsUSVOne"><path d="M431.6499,819.048 C459.3299,829.548 545.75,866.01 590,930 C629.49,987.1 579.18,1030.74 626,1082 C637.12,1094.17 652.36,1102.35 667.97,1107.83 " fill="none" id="sabrdimlsabmsabundlebuild-backto-ApplicationDeveloperShipsUSVOne" style="stroke:#181818;stroke-width:1.0;"/><polygon fill="#181818" points="426.04,816.92,433.0362,823.852,430.7149,818.6934,435.8736,816.3721,426.04,816.92" style="stroke:#181818;stroke-width:1.0;"/></g><!--SRC=[rPSxRzim4CTtVWf2NT8XAP1qoD35UGmPcW0rsfscJZ8HcXGakcbH-BkN3ydMYp85Ip1CBnJlVtVyaKTAvf0eh2JEMRfME6OvKCMaG0XXtJ92tqaAE2h8AeymAR3fu7zeRuZPXkyDva4RCPMRJ0eGoZfk6dOpW30J2lA4K1s1IY5qqewe74VrCNnztQlPwP-Ty0cphdjrfum_9Gcbz_SjlDLMn1mwQZVSnCo1A20YZY7Zyg_7fQL2NKLx2VhzTfUm98ChCN81pi-TISvebyODzvI2H-cCg6jeSpVaP-JMfluThmmDzjMMyTWhjLRKPsdJDpqk1j-pzPMsP_EFBS2b5O3dq5VQdcD_R0NEV_J7hG1dXV8gZN4KlNMeiw_X3qcbECoAYK8HGU76bSh-z3MCfSs6g5g3_9lBF-WqaDjjaYTvPHoNlUCra1u4MN5Fzj8sBddR2LMj6Z0VKaIaUkEYxqIOabek7dxO2RXdysZgAKa8CVLKQrVHWxdMZ4Vq-OjnMMIPlks9-JHxWj_0PGRv8OnLwyu-oEvm3BoNfiKQ4NSYiaTRCyubXCtfJI-KpbLb05uhz4I0JxOiwu0wzLjMF8kK2QZdTyenQAxaBLfWqEcXiFgGmM2tiv3TpeQspW62uUvcWRkR2owHspoOxUiiR2xgm5MvNBEii72sv-LQl2pngyIFKYYY_plwBn8RHgjVPQcTvexi3tigqPk001IjcXQY2dZAzDqBoq0ClxIgd6DklJ2AmIil5EFdyfVP1VnIlkQFaMZzjDjH2_WV]--></g></svg>