<?xml version="1.0" encoding="us-ascii" standalone="no"?><svg xmlns="http://www.w3.org/2000/svg" xmlns:xlink="http://www.w3.org/1999/xlink" contentStyleType="text/css" height="551px" preserveAspectRatio="none" style="width:819px;height:551px;background:#FFFFFF;" version="1.1" viewBox="0 0 819 551" width="819px" zoomAndPan="magnify"><defs/><g><!--cluster Sentient Agent Bundle Manager--><g id="cluster_Sentient Agent Bundle Manager"><path d="M361.5,116 L586.5,116 A3.75,3.75 0 0 1 589,118.5 L596,139.6094 L701.5,139.6094 A2.5,2.5 0 0 1 704,142.1094 L704,423.5 A2.5,2.5 0 0 1 701.5,426 L361.5,426 A2.5,2.5 0 0 1 359,423.5 L359,118.5 A2.5,2.5 0 0 1 361.5,116 " fill="#FFCC88" style="stroke:#000000;stroke-width:1.5;"/><line style="stroke:#000000;stroke-width:1.5;" x1="359" x2="596" y1="139.6094" y2="139.6094"/><text fill="#000000" font-family="sans-serif" font-size="14" font-weight="bold" lengthAdjust="spacing" textLength="224" x="363" y="132.5332">Sentient Agent Bundle Manager</text></g><path d="M8.5,6 L159.5,6 A3.75,3.75 0 0 1 162,8.5 L169,29.6094 L173.5,29.6094 A2.5,2.5 0 0 1 176,32.1094 L176,58.7188 A2.5,2.5 0 0 1 173.5,61.2188 L8.5,61.2188 A2.5,2.5 0 0 1 6,58.7188 L6,8.5 A2.5,2.5 0 0 1 8.5,6 " fill="#FFCC88" style="stroke:#181818;stroke-width:0.5;"/><line style="stroke:#181818;stroke-width:0.5;" x1="6" x2="169" y1="29.6094" y2="29.6094"/><text fill="#000000" font-family="sans-serif" font-size="14" font-weight="bold" lengthAdjust="spacing" textLength="150" x="10" y="22.5332">Data Stream Manager</text><path d="M214,6 L324,6 A3.75,3.75 0 0 1 326.5,8.5 L333.5,29.6094 L338,29.6094 A2.5,2.5 0 0 1 340.5,32.1094 L340.5,58.7188 A2.5,2.5 0 0 1 338,61.2188 L214,61.2188 A2.5,2.5 0 0 1 211.5,58.7188 L211.5,8.5 A2.5,2.5 0 0 1 214,6 " fill="#FFC0CB" style="stroke:#181818;stroke-width:0.5;"/><line style="stroke:#181818;stroke-width:0.5;" x1="211.5" x2="333.5" y1="29.6094" y2="29.6094"/><text fill="#000000" font-family="sans-serif" font-size="14" font-weight="bold" lengthAdjust="spacing" textLength="109" x="215.5" y="22.5332">Security Aspect</text><path d="M378.5,6 L523.5,6 A3.75,3.75 0 0 1 526,8.5 L533,29.6094 L537.5,29.6094 A2.5,2.5 0 0 1 540,32.1094 L540,58.7188 A2.5,2.5 0 0 1 537.5,61.2188 L378.5,61.2188 A2.5,2.5 0 0 1 376,58.7188 L376,8.5 A2.5,2.5 0 0 1 378.5,6 " fill="#00AAFF" style="stroke:#181818;stroke-width:0.5;"/><line style="stroke:#181818;stroke-width:0.5;" x1="376" x2="533" y1="29.6094" y2="29.6094"/><text fill="#000000" font-family="sans-serif" font-size="14" font-weight="bold" lengthAdjust="spacing" textLength="144" x="380" y="22.5332">Application Manager</text><path d="M578,6 L696,6 A3.75,3.75 0 0 1 698.5,8.5 L705.5,29.6094 L710,29.6094 A2.5,2.5 0 0 1 712.5,32.1094 L712.5,58.7188 A2.5,2.5 0 0 1 710,61.2188 L578,61.2188 A2.5,2.5 0 0 1 575.5,58.7188 L575.5,8.5 A2.5,2.5 0 0 1 578,6 " fill="#00AAFF" style="stroke:#181818;stroke-width:0.5;"/><line style="stroke:#181818;stroke-width:0.5;" x1="575.5" x2="705.5" y1="29.6094" y2="29.6094"/><text fill="#000000" font-family="sans-serif" font-size="14" font-weight="bold" lengthAdjust="spacing" textLength="117" x="579.5" y="22.5332">Learning Corpus</text><!--class i--><g id="elem_i"><rect codeLine="26" fill="#F1F1F1" height="241.7031" id="i" rx="2.5" ry="2.5" style="stroke:#181818;stroke-width:0.5;" width="278" x="402" y="160"/><ellipse cx="436.8" cy="176" fill="#B4A7E5" rx="11" ry="11" style="stroke:#181818;stroke-width:1.0;"/><path d="M437.7531,172.6406 L437.7531,179.2969 L439.4719,179.2969 Q440.0813,179.2969 440.3469,179.5313 Q440.6125,179.7656 440.6125,180.1563 Q440.6125,180.5313 440.3469,180.7656 Q440.0813,181 439.4719,181 L434.3313,181 Q433.7219,181 433.4563,180.7656 Q433.1906,180.5313 433.1906,180.1406 Q433.1906,179.7656 433.4563,179.5313 Q433.7219,179.2969 434.3313,179.2969 L436.05,179.2969 L436.05,172.6406 L434.3313,172.6406 Q433.7219,172.6406 433.4563,172.4063 Q433.1906,172.1719 433.1906,171.7813 Q433.1906,171.4063 433.4563,171.1719 Q433.7219,170.9375 434.3313,170.9375 L439.4719,170.9375 Q440.0813,170.9375 440.3469,171.1719 Q440.6125,171.4063 440.6125,171.7813 Q440.6125,172.1719 440.3469,172.4063 Q440.0813,172.6406 439.4719,172.6406 L437.7531,172.6406 Z " fill="#000000"/><text fill="#000000" font-family="sans-serif" font-size="14" font-style="italic" lengthAdjust="spacing" textLength="202" x="455.2" y="181.7285">Sentient Agent Bundle Manager</text><line style="stroke:#181818;stroke-width:0.5;" x1="403" x2="679" y1="192" y2="192"/><text fill="#000000" font-family="sans-serif" font-size="14" lengthAdjust="spacing" textLength="168" x="408" y="210.5332">^sabundleinstance.created</text><text fill="#000000" font-family="sans-serif" font-size="14" lengthAdjust="spacing" textLength="178" x="408" y="228.1426">^sabundleinstance.deployed</text><text fill="#000000" font-family="sans-serif" font-size="14" lengthAdjust="spacing" textLength="171" x="408" y="245.752">^sabundleinstance.enabled</text><line style="stroke:#181818;stroke-width:0.5;" x1="403" x2="679" y1="252.8281" y2="252.8281"/><text fill="#000000" font-family="sans-serif" font-size="14" lengthAdjust="spacing" textLength="163" x="408" y="271.3613">/sabr/diml/sabm/connect()</text><text fill="#000000" font-family="sans-serif" font-size="14" lengthAdjust="spacing" textLength="266" x="408" y="288.9707">/sabr/diml/sabm/bundle/createanddeploy()</text><text fill="#000000" font-family="sans-serif" font-size="14" lengthAdjust="spacing" textLength="202" x="408" y="306.5801">/sabr/diml/sabm/bundle/deploy()</text><text fill="#000000" font-family="sans-serif" font-size="14" lengthAdjust="spacing" textLength="193" x="408" y="324.1895">/sabr/diml/sabm/policy/create()</text><text fill="#000000" font-family="sans-serif" font-size="14" lengthAdjust="spacing" textLength="205" x="408" y="341.7988">/sabr/diml/sabm/sabundle/build()</text><text fill="#000000" font-family="sans-serif" font-size="14" lengthAdjust="spacing" textLength="215" x="408" y="359.4082">/sabr/diml/sabm/sabundle/create()</text><text fill="#000000" font-family="sans-serif" font-size="14" lengthAdjust="spacing" textLength="217" x="408" y="377.0176">/sabr/diml/sabm/sabundle/deploy()</text><text fill="#000000" font-family="sans-serif" font-size="14" lengthAdjust="spacing" textLength="192" x="408" y="394.627">/sabr/diml/sabm/sabundle/list()</text></g><!--entity REST--><g id="elem_REST"><ellipse cx="452" cy="511" fill="#F1F1F1" rx="8" ry="8" style="stroke:#181818;stroke-width:0.5;"/><text fill="#000000" font-family="sans-serif" font-size="14" lengthAdjust="spacing" textLength="37" x="433.5" y="542.5332">REST</text></g><!--entity Web--><g id="elem_Web"><ellipse cx="541" cy="511" fill="#F1F1F1" rx="8" ry="8" style="stroke:#181818;stroke-width:0.5;"/><text fill="#000000" font-family="sans-serif" font-size="14" lengthAdjust="spacing" textLength="29" x="526.5" y="542.5332">Web</text></g><!--entity CLI--><g id="elem_CLI"><ellipse cx="630" cy="511" fill="#F1F1F1" rx="8" ry="8" style="stroke:#181818;stroke-width:0.5;"/><text fill="#000000" font-family="sans-serif" font-size="14" lengthAdjust="spacing" textLength="21" x="619.5" y="542.5332">CLI</text></g><!--entity WebSocket--><g id="elem_WebSocket"><ellipse cx="776" cy="281" fill="#F1F1F1" rx="8" ry="8" style="stroke:#181818;stroke-width:0.5;"/><text fill="#000000" font-family="sans-serif" font-size="14" lengthAdjust="spacing" textLength="72" x="740" y="312.5332">WebSocket</text></g><!--link i to Web--><g id="link_i_Web"><path codeLine="48" d="M541,402.01 C541,444.06 541,485.02 541,501.91 " fill="none" id="i-Web" style="stroke:#181818;stroke-width:1.0;"/></g><!--link i to CLI--><g id="link_i_CLI"><path codeLine="49" d="M587.85,402.01 C604.26,444.06 620.25,485.02 626.84,501.91 " fill="none" id="i-CLI" style="stroke:#181818;stroke-width:1.0;"/></g><!--link i to REST--><g id="link_i_REST"><path codeLine="50" d="M494.15,402.01 C477.74,444.06 461.75,485.02 455.16,501.91 " fill="none" id="i-REST" style="stroke:#181818;stroke-width:1.0;"/></g><!--link i to WebSocket--><g id="link_i_WebSocket"><path codeLine="51" d="M680.08,281 C717.14,281 751.24,281 766.93,281 " fill="none" id="i-WebSocket" style="stroke:#181818;stroke-width:1.0;"/><polygon fill="#000000" points="697.5,269.1758,706.5451,272.1147,706.5451,266.2369,697.5,269.1758" style="stroke:#000000;stroke-width:1.0;"/><text fill="#000000" font-family="sans-serif" font-size="13" lengthAdjust="spacing" textLength="37" x="711.5" y="274.4951">events</text></g><!--reverse link Data Stream Manager to Sentient Agent Bundle Manager--><g id="link_Data Stream Manager_Sentient Agent Bundle Manager"><path codeLine="59" d="M125.283,64.9978 C160.408,96.2428 216.115,145.7925 268.1875,192.11 C294.2238,215.2688 318.2306,236.6225 336.0603,252.4822 C344.9752,260.412 352.3457,266.9684 357.6535,271.69 C357.9852,271.9851 358.3089,272.2731 358.6244,272.5537 " fill="none" id="Data Stream Manager-backto-Sentient Agent Bundle Manager" style="stroke:#181818;stroke-width:1.0;"/><polygon fill="#181818" points="120.8,61.01,124.866,69.9804,124.5358,64.3332,130.1831,64.003,120.8,61.01" style="stroke:#181818;stroke-width:1.0;"/></g><!--reverse link Security Aspect to Sentient Agent Bundle Manager--><g id="link_Security Aspect_Sentient Agent Bundle Manager"><path codeLine="61" d="M287.9958,66.8658 C299.6058,98.1808 317.345,146.0375 334.4862,192.2813 C343.0569,215.4031 350.9566,236.7153 356.823,252.542 C357.5563,254.5204 358.2578,256.413 358.9249,258.2127 " fill="none" id="Security Aspect-backto-Sentient Agent Bundle Manager" style="stroke:#181818;stroke-width:1.0;"/><polygon fill="#181818" points="285.91,61.24,285.2881,71.0692,287.6481,65.9282,292.7892,68.2882,285.91,61.24" style="stroke:#181818;stroke-width:1.0;"/></g><!--reverse link Application Manager to Sentient Agent Bundle Manager--><g id="link_Application Manager_Sentient Agent Bundle Manager"><path codeLine="63" d="M414.2902,64.8944 C401.7002,75.4944 393.64,84.93 386,100 C383.7631,104.415 381.7296,108.9681 379.8828,113.6256 C379.6519,114.2077 379.424,114.7916 379.199,115.3769 " fill="none" id="Application Manager-backto-Sentient Agent Bundle Manager" style="stroke:#181818;stroke-width:1.0;"/><polygon fill="#181818" points="418.88,61.03,409.419,63.7667,415.0551,64.2503,414.5715,69.8864,418.88,61.03" style="stroke:#181818;stroke-width:1.0;"/></g><!--reverse link Learning Corpus to Sentient Agent Bundle Manager--><g id="link_Learning Corpus_Sentient Agent Bundle Manager"><path codeLine="65" d="M569.3631,57.8862 C563.5831,59.5462 563.58,59.51 558,61 C555.63,61.63 387.63,98.17 386,100 C359.7,129.595 354.6875,173.6625 356.3787,210.7863 C356.8016,220.0672 357.6434,228.9141 358.6763,236.9925 C358.7408,237.4974 358.8061,237.9993 358.8721,238.4981 C358.9051,238.7475 358.9383,238.9961 358.9716,239.244 " fill="none" id="Learning Corpus-backto-Sentient Agent Bundle Manager" style="stroke:#181818;stroke-width:1.0;"/><polygon fill="#181818" points="575.13,56.23,565.3755,54.8698,570.3243,57.6102,567.5838,62.5589,575.13,56.23" style="stroke:#181818;stroke-width:1.0;"/></g><!--SRC=[dPHHIyCm4CVV-ocE-Q8FjNiS8iASFWZpnGg-2RVaEevbrv1cof1zTzDkBNDpDYwGS0c__-MItCMYMk2SOF207Y7tZd09poXXpGtWeYYK6etWAqasIM9RDYUrSkpNCAuiAHyuox8ufCRM6bRekPGzZyCXOb4SibD29onpc9JEhggJN4xYENGOp-lnVYNQqAbupv51Q2oUN86gNuWLS531NdklSDPGB9L7KNIjmfrwqZsK9clATIz6WZEpetwWMK1TfdbfQckPgL8alCtbrP_Krdks3H55RwE84qMnjWmviDvjqCEsXmqRiD6nyFzSHmNTqOQhzWQROLEdbMAdGXAyFEQlhVr6izQSJ9_sLlDIBSWd2KEgoqz96xARr6mtQVnr4aWD5Ju5lW7w2AbNmTrP-TpKGHtwxmL-cwPztdRoevgFb_xw4SJBZ_w6AEat]--></g></svg>