<?xml version="1.0" encoding="UTF-8" standalone="no"?><svg xmlns="http://www.w3.org/2000/svg" xmlns:xlink="http://www.w3.org/1999/xlink" contentScriptType="application/ecmascript" contentStyleType="text/css" height="516px" preserveAspectRatio="none" style="width:760px;height:516px;" version="1.1" viewBox="0 0 760 516" width="760px" zoomAndPan="magnify"><defs><filter height="300%" id="fpkv8vjcmk13x" width="300%" x="-1" y="-1"><feGaussianBlur result="blurOut" stdDeviation="2.0"/><feColorMatrix in="blurOut" result="blurOut2" type="matrix" values="0 0 0 0 0 0 0 0 0 0 0 0 0 0 0 0 0 0 .4 0"/><feOffset dx="4.0" dy="4.0" in="blurOut2" result="blurOut3"/><feBlend in="SourceGraphic" in2="blurOut3" mode="normal"/></filter></defs><g><!--cluster Sentient Agent Bundle Manager--><polygon fill="#FFCC88" filter="url(#fpkv8vjcmk13x)" points="359,118,589,118,596,141.6094,640,141.6094,640,386,359,386,359,118" style="stroke: #000000; stroke-width: 1.5;"/><line style="stroke: #000000; stroke-width: 1.5;" x1="359" x2="596" y1="141.6094" y2="141.6094"/><text fill="#000000" font-family="sans-serif" font-size="14" font-weight="bold" lengthAdjust="spacingAndGlyphs" textLength="224" x="363" y="134.5332">Sentient Agent Bundle Manager</text><polygon fill="#FFCC88" filter="url(#fpkv8vjcmk13x)" points="6,8,162,8,169,31.6094,176,31.6094,176,63.2188,6,63.2188,6,8" style="stroke: #000000; stroke-width: 1.5;"/><line style="stroke: #000000; stroke-width: 1.5;" x1="6" x2="169" y1="31.6094" y2="31.6094"/><text fill="#000000" font-family="sans-serif" font-size="14" font-weight="bold" lengthAdjust="spacingAndGlyphs" textLength="150" x="10" y="24.5332">Data Stream Manager</text><polygon fill="#FFC0CB" filter="url(#fpkv8vjcmk13x)" points="211.5,8,326.5,8,333.5,31.6094,340.5,31.6094,340.5,63.2188,211.5,63.2188,211.5,8" style="stroke: #000000; stroke-width: 1.5;"/><line style="stroke: #000000; stroke-width: 1.5;" x1="211.5" x2="333.5" y1="31.6094" y2="31.6094"/><text fill="#000000" font-family="sans-serif" font-size="14" font-weight="bold" lengthAdjust="spacingAndGlyphs" textLength="109" x="215.5" y="24.5332">Security Aspect</text><polygon fill="#00AAFF" filter="url(#fpkv8vjcmk13x)" points="376,8,526,8,533,31.6094,540,31.6094,540,63.2188,376,63.2188,376,8" style="stroke: #000000; stroke-width: 1.5;"/><line style="stroke: #000000; stroke-width: 1.5;" x1="376" x2="533" y1="31.6094" y2="31.6094"/><text fill="#000000" font-family="sans-serif" font-size="14" font-weight="bold" lengthAdjust="spacingAndGlyphs" textLength="144" x="380" y="24.5332">Application Manager</text><polygon fill="#00AAFF" filter="url(#fpkv8vjcmk13x)" points="575.5,8,698.5,8,705.5,31.6094,712.5,31.6094,712.5,63.2188,575.5,63.2188,575.5,8" style="stroke: #000000; stroke-width: 1.5;"/><line style="stroke: #000000; stroke-width: 1.5;" x1="575.5" x2="705.5" y1="31.6094" y2="31.6094"/><text fill="#000000" font-family="sans-serif" font-size="14" font-weight="bold" lengthAdjust="spacingAndGlyphs" textLength="117" x="579.5" y="24.5332">Learning Corpus</text><!--class i--><rect fill="#FEFECE" filter="url(#fpkv8vjcmk13x)" height="200.1953" id="i" style="stroke: #A80036; stroke-width: 1.5;" width="214" x="402" y="162"/><ellipse cx="421.05" cy="178" fill="#B4A7E5" rx="11" ry="11" style="stroke: #A80036; stroke-width: 1.0;"/><path d="M422.0031,174.6406 L422.0031,181.2969 L423.7219,181.2969 Q424.3313,181.2969 424.5969,181.5313 Q424.8625,181.7656 424.8625,182.1563 Q424.8625,182.5313 424.5969,182.7656 Q424.3313,183 423.7219,183 L418.5813,183 Q417.9719,183 417.7063,182.7656 Q417.4406,182.5313 417.4406,182.1406 Q417.4406,181.7656 417.7063,181.5313 Q417.9719,181.2969 418.5813,181.2969 L420.3,181.2969 L420.3,174.6406 L418.5813,174.6406 Q417.9719,174.6406 417.7063,174.4063 Q417.4406,174.1719 417.4406,173.7813 Q417.4406,173.4063 417.7063,173.1719 Q417.9719,172.9375 418.5813,172.9375 L423.7219,172.9375 Q424.3313,172.9375 424.5969,173.1719 Q424.8625,173.4063 424.8625,173.7813 Q424.8625,174.1719 424.5969,174.4063 Q424.3313,174.6406 423.7219,174.6406 L422.0031,174.6406 Z "/><text fill="#000000" font-family="sans-serif" font-size="12" font-style="italic" lengthAdjust="spacingAndGlyphs" textLength="173" x="435.95" y="182.9102">Sentient Agent Bundle Manager</text><line style="stroke: #A80036; stroke-width: 1.5;" x1="403" x2="615" y1="194" y2="194"/><text fill="#000000" font-family="sans-serif" font-size="11" lengthAdjust="spacingAndGlyphs" textLength="130" x="408" y="209.4189">^sabundleinstance.created</text><text fill="#000000" font-family="sans-serif" font-size="11" lengthAdjust="spacingAndGlyphs" textLength="137" x="408" y="223.2549">^sabundleinstance.deployed</text><text fill="#000000" font-family="sans-serif" font-size="11" lengthAdjust="spacingAndGlyphs" textLength="131" x="408" y="237.0908">^sabundleinstance.enabled</text><line style="stroke: #A80036; stroke-width: 1.5;" x1="403" x2="615" y1="243.5078" y2="243.5078"/><text fill="#000000" font-family="sans-serif" font-size="11" lengthAdjust="spacingAndGlyphs" textLength="125" x="408" y="258.9268">/sabr/diml/sabm/connect()</text><text fill="#000000" font-family="sans-serif" font-size="11" lengthAdjust="spacingAndGlyphs" textLength="202" x="408" y="272.7627">/sabr/diml/sabm/bundle/createanddeploy()</text><text fill="#000000" font-family="sans-serif" font-size="11" lengthAdjust="spacingAndGlyphs" textLength="153" x="408" y="286.5986">/sabr/diml/sabm/bundle/deploy()</text><text fill="#000000" font-family="sans-serif" font-size="11" lengthAdjust="spacingAndGlyphs" textLength="148" x="408" y="300.4346">/sabr/diml/sabm/policy/create()</text><text fill="#000000" font-family="sans-serif" font-size="11" lengthAdjust="spacingAndGlyphs" textLength="155" x="408" y="314.2705">/sabr/diml/sabm/sabundle/build()</text><text fill="#000000" font-family="sans-serif" font-size="11" lengthAdjust="spacingAndGlyphs" textLength="164" x="408" y="328.1064">/sabr/diml/sabm/sabundle/create()</text><text fill="#000000" font-family="sans-serif" font-size="11" lengthAdjust="spacingAndGlyphs" textLength="165" x="408" y="341.9424">/sabr/diml/sabm/sabundle/deploy()</text><text fill="#000000" font-family="sans-serif" font-size="11" lengthAdjust="spacingAndGlyphs" textLength="146" x="408" y="355.7783">/sabr/diml/sabm/sabundle/list()</text><!--entity REST--><ellipse cx="420" cy="471" fill="#FEFECE" filter="url(#fpkv8vjcmk13x)" rx="8" ry="8" style="stroke: #A80036; stroke-width: 2.0;"/><text fill="#000000" font-family="sans-serif" font-size="14" lengthAdjust="spacingAndGlyphs" textLength="37" x="401.5" y="502.5332">REST</text><!--entity Web--><ellipse cx="509" cy="471" fill="#FEFECE" filter="url(#fpkv8vjcmk13x)" rx="8" ry="8" style="stroke: #A80036; stroke-width: 2.0;"/><text fill="#000000" font-family="sans-serif" font-size="14" lengthAdjust="spacingAndGlyphs" textLength="29" x="494.5" y="502.5332">Web</text><!--entity CLI--><ellipse cx="598" cy="471" fill="#FEFECE" filter="url(#fpkv8vjcmk13x)" rx="8" ry="8" style="stroke: #A80036; stroke-width: 2.0;"/><text fill="#000000" font-family="sans-serif" font-size="14" lengthAdjust="spacingAndGlyphs" textLength="21" x="587.5" y="502.5332">CLI</text><!--entity WebSocket--><ellipse cx="712" cy="262" fill="#FEFECE" filter="url(#fpkv8vjcmk13x)" rx="8" ry="8" style="stroke: #A80036; stroke-width: 2.0;"/><text fill="#000000" font-family="sans-serif" font-size="14" lengthAdjust="spacingAndGlyphs" textLength="72" x="676" y="293.5332">WebSocket</text><!--link i to Web--><path d="M509,362.256 C509,403.1375 509,444.9035 509,461.9835 " fill="none" id="i-Web" style="stroke: #A80036; stroke-width: 1.0;"/><!--link i to CLI--><path d="M551.675,362.256 C569.252,403.1375 587.21,444.9035 594.553,461.9835 " fill="none" id="i-CLI" style="stroke: #A80036; stroke-width: 1.0;"/><!--link i to REST--><path d="M466.325,362.256 C448.748,403.1375 430.79,444.9035 423.447,461.9835 " fill="none" id="i-REST" style="stroke: #A80036; stroke-width: 1.0;"/><!--link i to WebSocket--><path d="M616.147,262 C651.984,262 686.88,262 702.889,262 " fill="none" id="i-WebSocket" style="stroke: #A80036; stroke-width: 1.0;"/><polygon fill="#000000" points="641.5,248.6758,635.5,251.6758,641.5,254.6758,641.5,248.6758" style="stroke: #000000; stroke-width: 1.0;"/><text fill="#000000" font-family="sans-serif" font-size="13" lengthAdjust="spacingAndGlyphs" textLength="37" x="647.5" y="255.4951">events</text><!--link Data Stream Manager to Sentient Agent Bundle Manager--><path d="M127.626,66.291 C164.562,96.3355 223.105,143.9548 273.0488,184.5793 C298.0206,204.8915 320.8427,223.4551 337.7392,237.1988 C346.1874,244.0706 353.1542,249.7375 358.1677,253.8155 C358.3244,253.9429 358.4791,254.0688 358.632,254.1931 " fill="none" id="Data Stream Manager-Sentient Agent Bundle Manager" style="stroke: #A80036; stroke-width: 1.0;"/><polygon fill="#A80036" points="123.745,63.135,128.2017,71.9178,127.6234,66.2906,133.2506,65.7123,123.745,63.135" style="stroke: #A80036; stroke-width: 1.0;"/><!--link Security Aspect to Sentient Agent Bundle Manager--><path d="M288.811,68.104 C301.1445,98.5315 320.267,145.7077 336.5134,185.7884 C344.6366,205.8287 352.0407,224.0951 357.5177,237.607 C357.86,238.4515 358.1948,239.2775 358.5218,240.0841 C358.6035,240.2858 358.6848,240.4862 358.7655,240.6854 " fill="none" id="Security Aspect-Sentient Agent Bundle Manager" style="stroke: #A80036; stroke-width: 1.0;"/><polygon fill="#A80036" points="286.796,63.135,286.4711,72.9785,288.6749,67.7686,293.8848,69.9723,286.796,63.135" style="stroke: #A80036; stroke-width: 1.0;"/><!--link Application Manager to Sentient Agent Bundle Manager--><path d="M415.168,66.404 C403.895,76.413 392.954,88.504 386,102 C383.9944,105.8923 382.1637,109.9074 380.494,114.0156 C380.0765,115.0427 379.6691,116.0755 379.2716,117.1137 C379.1722,117.3733 379.0734,117.6332 378.9753,117.8934 " fill="none" id="Application Manager-Sentient Agent Bundle Manager" style="stroke: #A80036; stroke-width: 1.0;"/><polygon fill="#A80036" points="418.999,63.09,409.5756,65.9533,415.2177,66.3613,414.8097,72.0035,418.999,63.09" style="stroke: #A80036; stroke-width: 1.0;"/><!--link Learning Corpus to Sentient Agent Bundle Manager--><path d="M570.364,59.329 C565.852,60.604 561.37,61.838 557,63 C554.646,63.626 387.629,100.189 386,102 C362.569,128.038 357.6002,166.9623 358.596,199.7803 C358.6582,201.8314 358.7438,203.8586 358.8495,205.8574 C358.876,206.3571 358.9037,206.855 358.9326,207.3511 C358.9471,207.5991 358.9619,207.8467 358.9769,208.0938 " fill="none" id="Learning Corpus-Sentient Agent Bundle Manager" style="stroke: #A80036; stroke-width: 1.0;"/><polygon fill="#A80036" points="575.27,57.931,565.5184,56.5501,570.4614,59.301,567.7105,64.244,575.27,57.931" style="stroke: #A80036; stroke-width: 1.0;"/><!--
@startuml


package "Data Stream Manager" #ffcc88 {

}

package "Security Aspect" #pink {

}

package "Application Manager" #00aaff {

}

package "Learning Corpus" #00aaff {

}

package "Sentient Agent Bundle Manager" #ffcc88 {

}


package "Sentient Agent Bundle Manager" #ffcc88 {

    interface "Sentient Agent Bundle Manager" as i {
            ^sabundleinstance.created
            ^sabundleinstance.deployed
            ^sabundleinstance.enabled
    
            /sabr/diml/sabm/connect()
            /sabr/diml/sabm/bundle/createanddeploy()
            /sabr/diml/sabm/bundle/deploy()
            /sabr/diml/sabm/policy/create()
            /sabr/diml/sabm/sabundle/build()
            /sabr/diml/sabm/sabundle/create()
            /sabr/diml/sabm/sabundle/deploy()
            /sabr/diml/sabm/sabundle/list()
    
    }
}

circle REST
circle Web
circle CLI
circle WebSocket

i -down- Web
i -down- CLI
i -down- REST
WebSocket -left- i: events >

package "Sentient Agent Bundle Manager" #ffcc88 {


}


    "Data Stream Manager" <- - "Sentient Agent Bundle Manager"

    "Security Aspect" <- - "Sentient Agent Bundle Manager"

    "Application Manager" <- - "Sentient Agent Bundle Manager"

    "Learning Corpus" <- - "Sentient Agent Bundle Manager"


@enduml

PlantUML version 1.2019.05(Sat Apr 20 09:45:36 PDT 2019)
(GPL source distribution)
Java Runtime: Java(TM) SE Runtime Environment
JVM: Java HotSpot(TM) Client VM
Java Version: 1.8.0_271-b09
Operating System: Windows 10
OS Version: 10.0
Default Encoding: Cp1252
Language: en
Country: US
--></g></svg>