<?xml version="1.0" encoding="UTF-8" standalone="no"?><svg xmlns="http://www.w3.org/2000/svg" xmlns:xlink="http://www.w3.org/1999/xlink" contentScriptType="application/ecmascript" contentStyleType="text/css" height="287px" preserveAspectRatio="none" style="width:511px;height:287px;" version="1.1" viewBox="0 0 511 287" width="511px" zoomAndPan="magnify"><defs><filter height="300%" id="figizxex77qf9" width="300%" x="-1" y="-1"><feGaussianBlur result="blurOut" stdDeviation="2.0"/><feColorMatrix in="blurOut" result="blurOut2" type="matrix" values="0 0 0 0 0 0 0 0 0 0 0 0 0 0 0 0 0 0 .4 0"/><feOffset dx="4.0" dy="4.0" in="blurOut2" result="blurOut3"/><feBlend in="SourceGraphic" in2="blurOut3" mode="normal"/></filter></defs><g><line style="stroke: #A80036; stroke-width: 1.0; stroke-dasharray: 5.0,5.0;" x1="65" x2="65" y1="87.6094" y2="198.6641"/><line style="stroke: #A80036; stroke-width: 1.0; stroke-dasharray: 5.0,5.0;" x1="241" x2="241" y1="87.6094" y2="198.6641"/><line style="stroke: #A80036; stroke-width: 1.0; stroke-dasharray: 5.0,5.0;" x1="379" x2="379" y1="87.6094" y2="198.6641"/><line style="stroke: #A80036; stroke-width: 1.0; stroke-dasharray: 5.0,5.0;" x1="476" x2="476" y1="87.6094" y2="198.6641"/><text fill="#000000" font-family="sans-serif" font-size="14" lengthAdjust="spacingAndGlyphs" textLength="108" x="8" y="84.5332">DevOpsEngineer</text><ellipse cx="65" cy="13" fill="#FEFECE" filter="url(#figizxex77qf9)" rx="8" ry="8" style="stroke: #A80036; stroke-width: 2.0;"/><path d="M65,21 L65,48 M52,29 L78,29 M65,48 L52,63 M65,48 L78,63 " fill="none" filter="url(#figizxex77qf9)" style="stroke: #A80036; stroke-width: 2.0;"/><text fill="#000000" font-family="sans-serif" font-size="14" lengthAdjust="spacingAndGlyphs" textLength="108" x="8" y="212.1973">DevOpsEngineer</text><ellipse cx="65" cy="225.2734" fill="#FEFECE" filter="url(#figizxex77qf9)" rx="8" ry="8" style="stroke: #A80036; stroke-width: 2.0;"/><path d="M65,233.2734 L65,260.2734 M52,241.2734 L78,241.2734 M65,260.2734 L52,275.2734 M65,260.2734 L78,275.2734 " fill="none" filter="url(#figizxex77qf9)" style="stroke: #A80036; stroke-width: 2.0;"/><rect fill="#FEFECE" filter="url(#figizxex77qf9)" height="31.6094" style="stroke: #A80036; stroke-width: 1.5;" width="215" x="132" y="51"/><text fill="#000000" font-family="sans-serif" font-size="14" lengthAdjust="spacingAndGlyphs" textLength="201" x="139" y="72.5332">Sentient Agent Bundle Manager</text><rect fill="#FEFECE" filter="url(#figizxex77qf9)" height="31.6094" style="stroke: #A80036; stroke-width: 1.5;" width="215" x="132" y="197.6641"/><text fill="#000000" font-family="sans-serif" font-size="14" lengthAdjust="spacingAndGlyphs" textLength="201" x="139" y="219.1973">Sentient Agent Bundle Manager</text><rect fill="#FEFECE" filter="url(#figizxex77qf9)" height="31.6094" style="stroke: #A80036; stroke-width: 1.5;" width="33" x="361" y="51"/><text fill="#000000" font-family="sans-serif" font-size="14" lengthAdjust="spacingAndGlyphs" textLength="19" x="368" y="72.5332">bin</text><rect fill="#FEFECE" filter="url(#figizxex77qf9)" height="31.6094" style="stroke: #A80036; stroke-width: 1.5;" width="33" x="361" y="197.6641"/><text fill="#000000" font-family="sans-serif" font-size="14" lengthAdjust="spacingAndGlyphs" textLength="19" x="368" y="219.1973">bin</text><rect fill="#FEFECE" filter="url(#figizxex77qf9)" height="31.6094" style="stroke: #A80036; stroke-width: 1.5;" width="51" x="449" y="51"/><text fill="#000000" font-family="sans-serif" font-size="14" lengthAdjust="spacingAndGlyphs" textLength="37" x="456" y="72.5332">REST</text><rect fill="#FEFECE" filter="url(#figizxex77qf9)" height="31.6094" style="stroke: #A80036; stroke-width: 1.5;" width="51" x="449" y="197.6641"/><text fill="#000000" font-family="sans-serif" font-size="14" lengthAdjust="spacingAndGlyphs" textLength="37" x="456" y="219.1973">REST</text><polygon fill="#A80036" points="229.5,115.9609,239.5,119.9609,229.5,123.9609,233.5,119.9609" style="stroke: #A80036; stroke-width: 1.0;"/><line style="stroke: #A80036; stroke-width: 1.0;" x1="65" x2="235.5" y1="119.9609" y2="119.9609"/><text fill="#000000" font-family="sans-serif" font-size="13" lengthAdjust="spacingAndGlyphs" textLength="86" x="72" y="115.1045">Manage SABR</text><polygon fill="#A80036" points="367.5,146.3125,377.5,150.3125,367.5,154.3125,371.5,150.3125" style="stroke: #A80036; stroke-width: 1.0;"/><line style="stroke: #A80036; stroke-width: 1.0;" x1="241.5" x2="373.5" y1="150.3125" y2="150.3125"/><text fill="#000000" font-family="sans-serif" font-size="13" lengthAdjust="spacingAndGlyphs" textLength="73" x="248.5" y="145.4561">sabundle list</text><polygon fill="#A80036" points="464.5,176.6641,474.5,180.6641,464.5,184.6641,468.5,180.6641" style="stroke: #A80036; stroke-width: 1.0;"/><line style="stroke: #A80036; stroke-width: 1.0;" x1="379.5" x2="470.5" y1="180.6641" y2="180.6641"/><text fill="#000000" font-family="sans-serif" font-size="13" lengthAdjust="spacingAndGlyphs" textLength="73" x="386.5" y="175.8076">sabundle/list</text><!--
@startuml


actor "DevOpsEngineer" as devops




devops -> "Sentient Agent Bundle Manager": Manage SABR
"Sentient Agent Bundle Manager" -> bin: sabundle list
bin -> REST: sabundle/list



@enduml

PlantUML version 1.2019.05(Sat Apr 20 09:45:36 PDT 2019)
(GPL source distribution)
Java Runtime: Java(TM) SE Runtime Environment
JVM: Java HotSpot(TM) 64-Bit Server VM
Java Version: 17.0.7+8-LTS-224
Operating System: Windows 11
OS Version: 10.0
Default Encoding: Cp1252
Language: en
Country: US
--></g></svg>