<?xml version="1.0" encoding="us-ascii" standalone="no"?><svg xmlns="http://www.w3.org/2000/svg" xmlns:xlink="http://www.w3.org/1999/xlink" contentStyleType="text/css" height="676px" preserveAspectRatio="none" style="width:345px;height:676px;background:#FFFFFF;" version="1.1" viewBox="0 0 345 676" width="345px" zoomAndPan="magnify"><defs/><g><!--cluster Identity Aspect--><g id="cluster_Identity Aspect"><path d="M48,60 L153,60 A3.75,3.75 0 0 1 155.5,62.5 L162.5,83.6094 L336,83.6094 A2.5,2.5 0 0 1 338.5,86.1094 L338.5,666.5 A2.5,2.5 0 0 1 336,669 L48,669 A2.5,2.5 0 0 1 45.5,666.5 L45.5,62.5 A2.5,2.5 0 0 1 48,60 " fill="#FFBBBB" style="stroke:#000000;stroke-width:1.5;"/><line style="stroke:#000000;stroke-width:1.5;" x1="45.5" x2="162.5" y1="83.6094" y2="83.6094"/><text fill="#000000" font-family="sans-serif" font-size="14" font-weight="bold" lengthAdjust="spacing" textLength="104" x="49.5" y="76.5332">Identity Aspect</text></g><!--cluster bin--><g id="cluster_bin"><path d="M77,104 L100,104 A3.75,3.75 0 0 1 102.5,106.5 L109.5,127.6094 L192,127.6094 A2.5,2.5 0 0 1 194.5,130.1094 L194.5,201.5 A2.5,2.5 0 0 1 192,204 L77,204 A2.5,2.5 0 0 1 74.5,201.5 L74.5,106.5 A2.5,2.5 0 0 1 77,104 " fill="#FFFFFF" style="stroke:#000000;stroke-width:1.5;"/><line style="stroke:#000000;stroke-width:1.5;" x1="74.5" x2="109.5" y1="127.6094" y2="127.6094"/><text fill="#000000" font-family="sans-serif" font-size="14" font-weight="bold" lengthAdjust="spacing" textLength="22" x="78.5" y="120.5332">bin</text></g><!--cluster deploy--><g id="cluster_deploy"><path d="M72,320 L120,320 A3.75,3.75 0 0 1 122.5,322.5 L129.5,343.6094 L290,343.6094 A2.5,2.5 0 0 1 292.5,346.1094 L292.5,424.5 A2.5,2.5 0 0 1 290,427 L72,427 A2.5,2.5 0 0 1 69.5,424.5 L69.5,322.5 A2.5,2.5 0 0 1 72,320 " fill="#FFFFFF" style="stroke:#000000;stroke-width:1.5;"/><line style="stroke:#000000;stroke-width:1.5;" x1="69.5" x2="129.5" y1="343.6094" y2="343.6094"/><text fill="#000000" font-family="sans-serif" font-size="14" font-weight="bold" lengthAdjust="spacing" textLength="47" x="73.5" y="336.5332">deploy</text></g><!--cluster images--><g id="cluster_images"><path d="M72,451 L123,451 A3.75,3.75 0 0 1 125.5,453.5 L132.5,474.6094 L312,474.6094 A2.5,2.5 0 0 1 314.5,477.1094 L314.5,642.5 A2.5,2.5 0 0 1 312,645 L72,645 A2.5,2.5 0 0 1 69.5,642.5 L69.5,453.5 A2.5,2.5 0 0 1 72,451 " fill="#FFFFFF" style="stroke:#000000;stroke-width:1.5;"/><line style="stroke:#000000;stroke-width:1.5;" x1="69.5" x2="132.5" y1="474.6094" y2="474.6094"/><text fill="#000000" font-family="sans-serif" font-size="14" font-weight="bold" lengthAdjust="spacing" textLength="50" x="73.5" y="467.5332">images</text></g><!--entity REST--><g id="elem_REST"><rect fill="#F1F1F1" height="47.6094" rx="2.5" ry="2.5" style="stroke:#181818;stroke-width:0.5;" width="89" x="93" y="248"/><rect fill="#F1F1F1" height="10" style="stroke:#181818;stroke-width:0.5;" width="15" x="162" y="253"/><rect fill="#F1F1F1" height="2" style="stroke:#181818;stroke-width:0.5;" width="4" x="160" y="255"/><rect fill="#F1F1F1" height="2" style="stroke:#181818;stroke-width:0.5;" width="4" x="160" y="259"/><text fill="#000000" font-family="sans-serif" font-size="14" lengthAdjust="spacing" textLength="49" x="108" y="282.5332">express</text></g><!--entity socket--><g id="elem_socket"><rect fill="#F1F1F1" height="47.6094" rx="2.5" ry="2.5" style="stroke:#181818;stroke-width:0.5;" width="96" x="213.5" y="140"/><rect fill="#F1F1F1" height="10" style="stroke:#181818;stroke-width:0.5;" width="15" x="289.5" y="145"/><rect fill="#F1F1F1" height="2" style="stroke:#181818;stroke-width:0.5;" width="4" x="287.5" y="147"/><rect fill="#F1F1F1" height="2" style="stroke:#181818;stroke-width:0.5;" width="4" x="287.5" y="151"/><text fill="#000000" font-family="sans-serif" font-size="14" lengthAdjust="spacing" textLength="56" x="228.5" y="174.5332">socket.io</text></g><!--entity binName--><g id="elem_binName"><rect fill="#F1F1F1" height="47.6094" rx="2.5" ry="2.5" style="stroke:#181818;stroke-width:0.5;" width="87" x="91" y="140"/><rect fill="#F1F1F1" height="10" style="stroke:#181818;stroke-width:0.5;" width="15" x="158" y="145"/><rect fill="#F1F1F1" height="2" style="stroke:#181818;stroke-width:0.5;" width="4" x="156" y="147"/><rect fill="#F1F1F1" height="2" style="stroke:#181818;stroke-width:0.5;" width="4" x="156" y="151"/><text fill="#000000" font-family="sans-serif" font-size="14" lengthAdjust="spacing" textLength="43" x="110" y="174.5332">sabr ia</text></g><!--entity sabr_ia_container--><g id="elem_sabr_ia_container"><path d="M85.5,358.5 L85.5,408.7188 A2.5,2.5 0 0 0 88,411.2188 L193,411.2188 A2.5,2.5 0 0 0 195.5,408.7188 L195.5,366 L185.5,356 L88,356 A2.5,2.5 0 0 0 85.5,358.5 " fill="#F1F1F1" style="stroke:#181818;stroke-width:0.5;"/><path d="M185.5,356 L185.5,363.5 A2.5,2.5 0 0 0 188,366 L195.5,366 " fill="#F1F1F1" style="stroke:#181818;stroke-width:0.5;"/><text fill="#000000" font-family="sans-serif" font-size="14" lengthAdjust="spacing" textLength="90" x="95.5" y="380.5332">node server.js</text><text fill="#000000" font-family="sans-serif" font-size="14" lengthAdjust="spacing" textLength="4" x="95.5" y="398.1426">&#160;</text></g><!--entity web_container--><g id="elem_web_container"><path d="M231,367 L231,399.6094 A2.5,2.5 0 0 0 233.5,402.1094 L273.5,402.1094 A2.5,2.5 0 0 0 276,399.6094 L276,374.5 L266,364.5 L233.5,364.5 A2.5,2.5 0 0 0 231,367 " fill="#F1F1F1" style="stroke:#181818;stroke-width:0.5;"/><path d="M266,364.5 L266,372 A2.5,2.5 0 0 0 268.5,374.5 L276,374.5 " fill="#F1F1F1" style="stroke:#181818;stroke-width:0.5;"/><text fill="#000000" font-family="sans-serif" font-size="14" lengthAdjust="spacing" textLength="25" x="241" y="389.0332">web</text></g><!--entity sabr_iaimage--><g id="elem_sabr_iaimage"><rect fill="#F1F1F1" height="33.6094" rx="2.5" ry="2.5" style="stroke:#181818;stroke-width:0.5;" width="63" x="90" y="492.5"/><rect fill="#F1F1F1" height="33.6094" rx="2.5" ry="2.5" style="stroke:#181818;stroke-width:0.5;" width="63" x="86" y="488.5"/><text fill="#000000" font-family="sans-serif" font-size="14" lengthAdjust="spacing" textLength="47" x="94" y="511.0332">sabr_ia</text></g><!--entity ailtireswarm--><g id="elem_ailtireswarm"><rect fill="#F1F1F1" height="40.6094" rx="2.5" ry="2.5" style="stroke:#181818;stroke-width:0.5;" width="108" x="85.5" y="588"/><polygon fill="#F1F1F1" points="176.5,593,176.5,607,188.5,607,188.5,599,182.5,593,176.5,593" style="stroke:#181818;stroke-width:0.5;"/><line style="stroke:#181818;stroke-width:0.5;" x1="182.5" x2="182.5" y1="593" y2="599"/><line style="stroke:#181818;stroke-width:0.5;" x1="188.5" x2="182.5" y1="599" y2="599"/><text fill="#000000" font-family="sans-serif" font-size="14" lengthAdjust="spacing" textLength="78" x="95.5" y="615.5332">ailtire:swarm</text></g><!--entity sabr_ia_web--><g id="elem_sabr_ia_web"><rect fill="#F1F1F1" height="40.6094" rx="2.5" ry="2.5" style="stroke:#181818;stroke-width:0.5;" width="110" x="188.5" y="487"/><polygon fill="#F1F1F1" points="281.5,492,281.5,506,293.5,506,293.5,498,287.5,492,281.5,492" style="stroke:#181818;stroke-width:0.5;"/><line style="stroke:#181818;stroke-width:0.5;" x1="287.5" x2="287.5" y1="492" y2="498"/><line style="stroke:#181818;stroke-width:0.5;" x1="293.5" x2="287.5" y1="498" y2="498"/><text fill="#000000" font-family="sans-serif" font-size="14" lengthAdjust="spacing" textLength="80" x="198.5" y="514.5332">sabr_ia_web</text></g><!--entity CLI--><g id="elem_CLI"><ellipse cx="134.5" cy="14" fill="#F1F1F1" rx="8" ry="8" style="stroke:#181818;stroke-width:0.5;"/><text fill="#000000" font-family="sans-serif" font-size="14" lengthAdjust="spacing" textLength="21" x="124" y="45.5332">CLI</text></g><!--entity Web--><g id="elem_Web"><ellipse cx="20.5" cy="272" fill="#F1F1F1" rx="8" ry="8" style="stroke:#181818;stroke-width:0.5;"/><text fill="#000000" font-family="sans-serif" font-size="14" lengthAdjust="spacing" textLength="29" x="6" y="303.5332">Web</text></g><!--entity WebSocket--><g id="elem_WebSocket"><ellipse cx="261.5" cy="14" fill="#F1F1F1" rx="8" ry="8" style="stroke:#181818;stroke-width:0.5;"/><text fill="#000000" font-family="sans-serif" font-size="14" lengthAdjust="spacing" textLength="72" x="225.5" y="45.5332">WebSocket</text></g><!--link binName to REST--><g id="link_binName_REST"><path d="M135.15,188 C135.65,205.66 136.171,223.9424 136.671,241.6824 " fill="none" id="binName-to-REST" style="stroke:#181818;stroke-width:1.0;"/><polygon fill="#181818" points="136.84,247.68,140.5848,238.5709,136.6991,242.682,132.588,238.7963,136.84,247.68" style="stroke:#181818;stroke-width:1.0;"/></g><!--link REST to sabr_ia_container--><g id="link_REST_sabr_ia_container"><path d="M138.14,296.22 C138.61,313.67 139.1055,331.6123 139.6055,349.8423 " fill="none" id="REST-to-sabr_ia_container" style="stroke:#181818;stroke-width:1.0;"/><polygon fill="#181818" points="139.77,355.84,143.5217,346.7337,139.6329,350.8419,135.5248,346.9531,139.77,355.84" style="stroke:#181818;stroke-width:1.0;"/></g><!--link REST to web_container--><g id="link_REST_web_container"><path d="M182.15,290.48 C193.23,296.22 204.51,303.38 213.5,312 C228.94,326.8 237.8145,343.3532 244.3645,358.8532 " fill="none" id="REST-to-web_container" style="stroke:#181818;stroke-width:1.0;"/><polygon fill="#181818" points="246.7,364.38,246.8813,354.5328,244.7537,359.7743,239.5122,357.6468,246.7,364.38" style="stroke:#181818;stroke-width:1.0;"/></g><!--link socket to web_container--><g id="link_socket_web_container"><path d="M260.64,188.28 C259.04,231.89 255.8295,319.064 254.3895,358.394 " fill="none" id="socket-to-web_container" style="stroke:#181818;stroke-width:1.0;"/><polygon fill="#181818" points="254.17,364.39,258.4966,355.5424,254.3529,359.3933,250.502,355.2497,254.17,364.39" style="stroke:#181818;stroke-width:1.0;"/></g><!--reverse link sabr_iaimage to ailtireswarm--><g id="link_sabr_iaimage_ailtireswarm"><path d="M126.7295,544.3045 C130.2195,561.6045 131.91,569.95 135.51,587.76 " fill="none" id="sabr_iaimage-backto-ailtireswarm" style="stroke:#181818;stroke-width:1.0;"/><polygon fill="none" points="123.17,526.66,120.848,545.491,132.611,543.118,123.17,526.66" style="stroke:#181818;stroke-width:1.0;"/></g><!--link sabr_ia_container to sabr_iaimage--><g id="link_sabr_ia_container_sabr_iaimage"><path d="M135.89,411.27 C131.86,434.7 127.1284,462.1771 123.6184,482.5571 " fill="none" id="sabr_ia_container-to-sabr_iaimage" style="stroke:#181818;stroke-width:1.0;"/><polygon fill="#181818" points="122.6,488.47,128.0695,480.2795,123.4486,483.5425,120.1856,478.9217,122.6,488.47" style="stroke:#181818;stroke-width:1.0;"/></g><!--link web_container to sabr_ia_web--><g id="link_web_container_sabr_ia_web"><path d="M252.02,402.5 C250.18,425.04 247.51,457.52 245.6,480.83 " fill="none" id="web_container-to-sabr_ia_web" style="stroke:#181818;stroke-width:1.0;"/><polygon fill="#181818" points="245.11,486.81,249.8316,478.1667,245.5183,481.8267,241.8583,477.5134,245.11,486.81" style="stroke:#181818;stroke-width:1.0;"/></g><!--link CLI to binName--><g id="link_CLI_binName"><path d="M134.5,23.38 C134.5,45.52 134.5,106.15 134.5,139.77 " fill="none" id="CLI-binName" style="stroke:#181818;stroke-width:1.0;"/><text fill="#000000" font-family="sans-serif" font-size="13" lengthAdjust="spacing" textLength="39" x="78.5688" y="22.1003">sabr ia</text></g><!--link Web to REST--><g id="link_Web_REST"><path d="M29.64,272 C50.71,272 71.77,272 92.84,272 " fill="none" id="Web-REST" style="stroke:#181818;stroke-width:1.0;"/><text fill="#000000" font-family="sans-serif" font-size="13" lengthAdjust="spacing" textLength="43" x="37.4915" y="267.4902">/sabr/ia</text></g><!--link WebSocket to socket--><g id="link_WebSocket_socket"><path d="M261.5,23.38 C261.5,45.52 261.5,106.15 261.5,139.77 " fill="none" id="WebSocket-socket" style="stroke:#181818;stroke-width:1.0;"/><text fill="#000000" font-family="sans-serif" font-size="13" lengthAdjust="spacing" textLength="43" x="201.5688" y="22.1003">.sabr.ia</text></g><!--SRC=[TLB1IiGm4BttAuPuRlSk8eXuM10Fhk15MD9sAkEsIKc2wwBxxqxIT9ks6YXbyjwycNaP058EJIChXFl7RGP9_8hbCjxfwe0kwsLraEy8ObkZSkHES6Txh9o0gwOf-S0tPrQwwxLY0k1NRz1Qa1QU7tOlCym6oOAqHuU0yKQtDHeeINb9Vu9acYZ0oj80IU4pcVaaEsJEcRyOGPxV3XKdoHhxLfyMgenIo_CeNIDOD9zeYW_xfeAqBxCdkQ-qSf8KcfZYXKE5DO4PsQHwn388yNyXSf5OGuCL3Fw1nYdZHDJnMzYLJstBBq9QMH2nmNIQa1IOqZZYzsL39RME35xRepHT8CURS35qbMJ3pK-U_qkP6auz6igEzgJ5nxJHh2IEt9aBC-D7Jl3bdF4Yfzl1JOxRmIiCOkEHJK26vRWiDeZ2OqNCYjlu2m00]--></g></svg>