<?xml version="1.0" encoding="UTF-8" standalone="no"?><svg xmlns="http://www.w3.org/2000/svg" xmlns:xlink="http://www.w3.org/1999/xlink" contentScriptType="application/ecmascript" contentStyleType="text/css" height="640px" preserveAspectRatio="none" style="width:781px;height:640px;" version="1.1" viewBox="0 0 781 640" width="781px" zoomAndPan="magnify"><defs><filter height="300%" id="fod8o2tr3e3dh" width="300%" x="-1" y="-1"><feGaussianBlur result="blurOut" stdDeviation="2.0"/><feColorMatrix in="blurOut" result="blurOut2" type="matrix" values="0 0 0 0 0 0 0 0 0 0 0 0 0 0 0 0 0 0 .4 0"/><feOffset dx="4.0" dy="4.0" in="blurOut2" result="blurOut3"/><feBlend in="SourceGraphic" in2="blurOut3" mode="normal"/></filter></defs><g><!--cluster ITOperations--><polygon fill="#FFFFCC" filter="url(#fod8o2tr3e3dh)" points="232,24,328,24,335,47.6094,344,47.6094,344,145,232,145,232,24" style="stroke: #000000; stroke-width: 1.5;"/><line style="stroke: #000000; stroke-width: 1.5;" x1="232" x2="335" y1="47.6094" y2="47.6094"/><text fill="#000000" font-family="sans-serif" font-size="14" font-weight="bold" lengthAdjust="spacingAndGlyphs" textLength="90" x="236" y="40.5332">ITOperations</text><!--cluster Common Physical Layer--><polygon fill="#BBBBBB" filter="url(#fod8o2tr3e3dh)" points="92,178,262,178,269,201.6094,428,201.6094,428,265,92,265,92,178" style="stroke: #000000; stroke-width: 1.5;"/><line style="stroke: #000000; stroke-width: 1.5;" x1="92" x2="269" y1="201.6094" y2="201.6094"/><text fill="#000000" font-family="sans-serif" font-size="14" font-weight="bold" lengthAdjust="spacingAndGlyphs" textLength="164" x="96" y="194.5332">Common Physical Layer</text><!--cluster DevOps Engineer--><polygon fill="#FFFFCC" filter="url(#fod8o2tr3e3dh)" points="551,178,681,178,688,201.6094,691,201.6094,691,265,551,265,551,178" style="stroke: #000000; stroke-width: 1.5;"/><line style="stroke: #000000; stroke-width: 1.5;" x1="551" x2="688" y1="201.6094" y2="201.6094"/><text fill="#000000" font-family="sans-serif" font-size="14" font-weight="bold" lengthAdjust="spacingAndGlyphs" textLength="124" x="555" y="194.5332">DevOps Engineer</text><!--cluster Security Aspect--><polygon fill="#FFFFFF" filter="url(#fod8o2tr3e3dh)" points="22,298,137,298,144,321.6094,394,321.6094,394,385,22,385,22,298" style="stroke: #000000; stroke-width: 1.5;"/><line style="stroke: #000000; stroke-width: 1.5;" x1="22" x2="144" y1="321.6094" y2="321.6094"/><text fill="#000000" font-family="sans-serif" font-size="14" font-weight="bold" lengthAdjust="spacingAndGlyphs" textLength="109" x="26" y="314.5332">Security Aspect</text><!--cluster Capability Manager--><polygon fill="#00AAFF" filter="url(#fod8o2tr3e3dh)" points="418,298,558,298,565,321.6094,759,321.6094,759,628,418,628,418,298" style="stroke: #000000; stroke-width: 1.5;"/><line style="stroke: #000000; stroke-width: 1.5;" x1="418" x2="565" y1="321.6094" y2="321.6094"/><text fill="#000000" font-family="sans-serif" font-size="14" font-weight="bold" lengthAdjust="spacingAndGlyphs" textLength="134" x="422" y="314.5332">Capability Manager</text><ellipse cx="288" cy="70" fill="#000000" filter="url(#fod8o2tr3e3dh)" rx="10" ry="10" style="stroke: none; stroke-width: 1.0;"/><rect fill="#000000" filter="url(#fod8o2tr3e3dh)" height="8" style="stroke: none; stroke-width: 1.0;" width="80" x="248" y="121"/><rect fill="#FEFECE" filter="url(#fod8o2tr3e3dh)" height="35.0938" rx="12.5" ry="12.5" style="stroke: #A80036; stroke-width: 1.5;" width="121" x="108.5" y="214"/><text fill="#000000" font-family="sans-serif" font-size="12" lengthAdjust="spacingAndGlyphs" textLength="101" x="118.5" y="236.457">Attested Hardware</text><rect fill="#FEFECE" filter="url(#fod8o2tr3e3dh)" height="35.0938" rx="12.5" ry="12.5" style="stroke: #A80036; stroke-width: 1.5;" width="162" x="250" y="214"/><text fill="#000000" font-family="sans-serif" font-size="12" lengthAdjust="spacingAndGlyphs" textLength="142" x="260" y="236.457">Deploy Attested Hardware</text><rect fill="#FEFECE" filter="url(#fod8o2tr3e3dh)" height="35.0938" rx="12.5" ry="12.5" style="stroke: #A80036; stroke-width: 1.5;" width="76" x="583" y="214"/><text fill="#000000" font-family="sans-serif" font-size="12" lengthAdjust="spacingAndGlyphs" textLength="56" x="593" y="236.457">Start Build</text><rect fill="#FEFECE" filter="url(#fod8o2tr3e3dh)" height="35.0938" rx="12.5" ry="12.5" style="stroke: #A80036; stroke-width: 1.5;" width="158" x="38" y="334"/><text fill="#000000" font-family="sans-serif" font-size="12" lengthAdjust="spacingAndGlyphs" textLength="138" x="48" y="356.457">Generate Hardware Keys</text><rect fill="#FEFECE" filter="url(#fod8o2tr3e3dh)" height="35.0938" rx="12.5" ry="12.5" style="stroke: #A80036; stroke-width: 1.5;" width="161" x="216.5" y="334"/><text fill="#000000" font-family="sans-serif" font-size="12" lengthAdjust="spacingAndGlyphs" textLength="141" x="226.5" y="356.457">Generate Attestation Keys</text><rect fill="#FEFECE" filter="url(#fod8o2tr3e3dh)" height="35.0938" rx="12.5" ry="12.5" style="stroke: #A80036; stroke-width: 1.5;" width="165" x="434.5" y="577"/><text fill="#000000" font-family="sans-serif" font-size="12" lengthAdjust="spacingAndGlyphs" textLength="145" x="444.5" y="599.457">Deploy Capability Release</text><rect fill="#FEFECE" filter="url(#fod8o2tr3e3dh)" height="35.0938" rx="12.5" ry="12.5" style="stroke: #A80036; stroke-width: 1.5;" width="105" x="600.5" y="334"/><text fill="#000000" font-family="sans-serif" font-size="12" lengthAdjust="spacingAndGlyphs" textLength="85" x="610.5" y="356.457">Build Capability</text><rect fill="#FEFECE" filter="url(#fod8o2tr3e3dh)" height="35.0938" rx="12.5" ry="12.5" style="stroke: #A80036; stroke-width: 1.5;" width="128" x="452" y="334"/><text fill="#000000" font-family="sans-serif" font-size="12" lengthAdjust="spacingAndGlyphs" textLength="108" x="462" y="356.457">Provision Capability</text><rect fill="#FEFECE" filter="url(#fod8o2tr3e3dh)" height="35.0938" rx="12.5" ry="12.5" style="stroke: #A80036; stroke-width: 1.5;" width="107" x="463.5" y="422"/><text fill="#000000" font-family="sans-serif" font-size="12" lengthAdjust="spacingAndGlyphs" textLength="87" x="473.5" y="444.457">Attest Capability</text><polygon fill="#FEFECE" filter="url(#fod8o2tr3e3dh)" points="517,498,529,510,517,522,505,510,517,498" style="stroke: #A80036; stroke-width: 1.5;"/><rect fill="#FEFECE" filter="url(#fod8o2tr3e3dh)" height="35.0938" rx="12.5" ry="12.5" style="stroke: #A80036; stroke-width: 1.5;" width="123" x="619.5" y="577"/><text fill="#000000" font-family="sans-serif" font-size="12" lengthAdjust="spacingAndGlyphs" textLength="103" x="629.5" y="599.457">Failed Deployment</text><!--link start to F1--><path d="M288,80.232 C288,90.253 288,106.108 288,115.734 " fill="none" id="start-F1" style="stroke: #A80036; stroke-width: 1.0;"/><polygon fill="#A80036" points="288,120.814,292,111.814,288,115.814,284,111.814,288,120.814" style="stroke: #A80036; stroke-width: 1.0;"/><!--link F1 to Attested Hardware--><path d="M284.567,129.015 C271.146,140.801 221.507,184.391 191.827,210.455 " fill="none" id="F1-Attested Hardware" style="stroke: #A80036; stroke-width: 1.0;"/><polygon fill="#A80036" points="187.955,213.855,197.3573,210.9231,191.7124,210.5562,192.0793,204.9113,187.955,213.855" style="stroke: #A80036; stroke-width: 1.0;"/><!--link F1 to Start Build--><path d="M297.607,129.015 C338.511,141.851 499.636,192.414 577.89,216.971 " fill="none" id="F1-Start Build" style="stroke: #A80036; stroke-width: 1.0;"/><polygon fill="#A80036" points="582.922,218.551,575.5329,212.0394,578.1515,217.0537,573.1372,219.6723,582.922,218.551" style="stroke: #A80036; stroke-width: 1.0;"/><!--link Attested Hardware to Generate Hardware Keys--><path d="M161.66,249.156 C152.408,270.152 136.492,306.269 126.37,329.237 " fill="none" id="Attested Hardware-Generate Hardware Keys" style="stroke: #A80036; stroke-width: 1.0;"/><polygon fill="#A80036" points="124.303,333.928,131.5943,327.3071,126.3204,329.3531,124.2744,324.0792,124.303,333.928" style="stroke: #A80036; stroke-width: 1.0;"/><!--link Generate Hardware Keys to Deploy Attested Hardware--><path d="M139.382,333.754 C156.991,320.962 182.411,303.322 206,290 C220.906,281.582 258.306,264.565 288.338,251.217 " fill="none" id="Generate Hardware Keys-Deploy Attested Hardware" style="stroke: #A80036; stroke-width: 1.0;"/><polygon fill="#A80036" points="293.09,249.109,283.2411,249.1044,288.52,251.1376,286.4869,256.4164,293.09,249.109" style="stroke: #A80036; stroke-width: 1.0;"/><!--link Deploy Attested Hardware to Deploy Capability Release--><path d="M355.118,249.035 C381.777,269.48 421,306.958 421,350.5 C421,350.5 421,350.5 421,511 C421,539.963 446.445,560.9707 471.135,574.5376 " fill="none" id="Deploy Attested Hardware-Deploy Capability Release" style="stroke: #A80036; stroke-width: 1.0;"/><polygon fill="#A80036" points="475.73,576.9845,469.666,569.2238,471.3167,574.6345,465.906,576.2851,475.73,576.9845" style="stroke: #A80036; stroke-width: 1.0;"/><!--link Start Build to Build Capability--><path d="M625.517,249.156 C631.187,270.064 640.923,305.967 647.155,328.948 " fill="none" id="Start Build-Build Capability" style="stroke: #A80036; stroke-width: 1.0;"/><polygon fill="#A80036" points="648.506,333.928,650.0111,324.1948,647.1974,329.1023,642.29,326.2886,648.506,333.928" style="stroke: #A80036; stroke-width: 1.0;"/><!--link Build Capability to Generate Attestation Keys--><path d="M641.264,333.765 C628.566,316.425 606.534,291.253 580,281.5 C548.922,270.076 463.157,273.607 431,281.5 C392.205,291.022 352.177,313.964 326.093,331.003 " fill="none" id="Build Capability-Generate Attestation Keys" style="stroke: #A80036; stroke-width: 1.0;"/><polygon fill="#A80036" points="321.709,333.897,331.4238,332.2775,325.882,331.1426,327.0168,325.6008,321.709,333.897" style="stroke: #A80036; stroke-width: 1.0;"/><!--link Generate Attestation Keys to Provision Capability--><path d="M377.842,351.5 C400.754,351.5 423.667,351.5 446.579,351.5 " fill="none" id="Generate Attestation Keys-Provision Capability" style="stroke: #A80036; stroke-width: 1.0;"/><polygon fill="#A80036" points="451.778,351.5,442.778,347.5,446.778,351.5,442.778,355.5,451.778,351.5" style="stroke: #A80036; stroke-width: 1.0;"/><!--link Provision Capability to Attest Capability--><path d="M516.193,369.082 C516.351,382.645 516.575,401.933 516.747,416.737 " fill="none" id="Provision Capability-Attest Capability" style="stroke: #A80036; stroke-width: 1.0;"/><polygon fill="#A80036" points="516.808,421.969,520.7023,412.9228,516.7494,416.9693,512.7028,413.0165,516.808,421.969" style="stroke: #A80036; stroke-width: 1.0;"/><!--link Attest Capability to #5883--><path d="M517,457.082 C517,467.872 517,481.883 517,492.63 " fill="none" id="Attest Capability-#5883" style="stroke: #A80036; stroke-width: 1.0;"/><polygon fill="#A80036" points="517,497.918,521,488.918,517,492.918,513,488.918,517,497.918" style="stroke: #A80036; stroke-width: 1.0;"/><text fill="#000000" font-family="sans-serif" font-size="11" lengthAdjust="spacingAndGlyphs" textLength="84" x="412.525" y="487.482">Attestation match</text><!--link #5883 to Deploy Capability Release--><path d="M517,522.126 C517,534.771 517,555.7201 517,571.6601 " fill="none" id="#5883-Deploy Capability Release" style="stroke: #A80036; stroke-width: 1.0;"/><polygon fill="#A80036" points="517,576.8545,521,567.8545,517,571.8545,513,567.8545,517,576.8545" style="stroke: #A80036; stroke-width: 1.0;"/><text fill="#000000" font-family="sans-serif" font-size="11" lengthAdjust="spacingAndGlyphs" textLength="19" x="518" y="554.4189">true</text><!--link #5883 to Failed Deployment--><path d="M524.473,514.759 C545.127,525.149 604.056,554.7935 643.422,574.5964 " fill="none" id="#5883-Failed Deployment" style="stroke: #A80036; stroke-width: 1.0;"/><polygon fill="#A80036" points="648.122,576.9606,641.8798,569.3426,643.6554,574.7135,638.2844,576.4891,648.122,576.9606" style="stroke: #A80036; stroke-width: 1.0;"/><text fill="#000000" font-family="sans-serif" font-size="11" lengthAdjust="spacingAndGlyphs" textLength="24" x="604" y="554.4189">false</text><!--
@startuml
partition "ITOperations" #ffffcc {
(*) - -> ===F1===
}

partition "Common Physical Layer" #bbbbbb {
===F1=== - -> "Attested Hardware"
}

partition "DevOps Engineer" #ffffcc {
===F1=== - -> "Start Build"
}
partition "Security Aspect" pink {
"Attested Hardware" - -> "Generate Hardware Keys"
}
partition "Common Physical Layer" #bbbbbb {
"Generate Hardware Keys" - -> "Deploy Attested Hardware"
}
partition "Capability Manager" #00aaff {
"Deploy Attested Hardware" - -> "Deploy Capability Release"
}
partition "Capability Manager" #00aaff {
"Start Build" - -> "Build Capability"
}
partition "Security Aspect" pink {
"Build Capability" - -> "Generate Attestation Keys"
}
partition "Capability Manager" #00aaff {
"Generate Attestation Keys" - -> "Provision Capability"
}
partition "Capability Manager" #00aaff {
"Provision Capability" - -> "Attest Capability"
}
partition "Capability Manager" #00aaff {
"Attest Capability" - -> if "Attestation match" then
}
partition "Capability Manager" #00aaff {
else
- -> [true] "Deploy Capability Release"
}
partition "Capability Manager" #00aaff {
else
- -> [false] "Failed Deployment"
}

@enduml

PlantUML version 1.2019.05(Sat Apr 20 09:45:36 PDT 2019)
(GPL source distribution)
Java Runtime: Java(TM) SE Runtime Environment
JVM: Java HotSpot(TM) Client VM
Java Version: 1.8.0_271-b09
Operating System: Windows 10
OS Version: 10.0
Default Encoding: Cp1252
Language: en
Country: US
--></g></svg>