<?xml version="1.0" encoding="us-ascii" standalone="no"?><svg xmlns="http://www.w3.org/2000/svg" xmlns:xlink="http://www.w3.org/1999/xlink" contentStyleType="text/css" height="617px" preserveAspectRatio="none" style="width:734px;height:617px;background:#FFFFFF;" version="1.1" viewBox="0 0 734 617" width="734px" zoomAndPan="magnify"><defs/><g><!--cluster ITOperations--><g id="cluster_ITOperations"><polygon fill="#FFFFCC" points="192,6,288,6,295,29.6094,304,29.6094,304,127,192,127,192,6" style="stroke:#000000;stroke-width:1.5;"/><line style="stroke:#000000;stroke-width:1.5;" x1="192" x2="295" y1="29.6094" y2="29.6094"/><text fill="#000000" font-family="sans-serif" font-size="14" font-weight="bold" lengthAdjust="spacing" textLength="90" x="196" y="22.5332">ITOperations</text></g><!--cluster Common Physical Layer--><g id="cluster_Common Physical Layer"><polygon fill="#BBBBBB" points="16,280,186,280,193,303.6094,352,303.6094,352,367,16,367,16,280" style="stroke:#000000;stroke-width:1.5;"/><line style="stroke:#000000;stroke-width:1.5;" x1="16" x2="193" y1="303.6094" y2="303.6094"/><text fill="#000000" font-family="sans-serif" font-size="14" font-weight="bold" lengthAdjust="spacing" textLength="164" x="20" y="296.5332">Common Physical Layer</text></g><!--cluster DevOps Engineer--><g id="cluster_DevOps Engineer"><polygon fill="#FFFFCC" points="553,160,683,160,690,183.6094,693,183.6094,693,247,553,247,553,160" style="stroke:#000000;stroke-width:1.5;"/><line style="stroke:#000000;stroke-width:1.5;" x1="553" x2="690" y1="183.6094" y2="183.6094"/><text fill="#000000" font-family="sans-serif" font-size="14" font-weight="bold" lengthAdjust="spacing" textLength="124" x="557" y="176.5332">DevOps Engineer</text></g><!--cluster Security Aspect--><g id="cluster_Security Aspect"><polygon fill="none" points="157,160,272,160,279,183.6094,529,183.6094,529,247,157,247,157,160" style="stroke:#000000;stroke-width:1.5;"/><line style="stroke:#000000;stroke-width:1.5;" x1="157" x2="279" y1="183.6094" y2="183.6094"/><text fill="#000000" font-family="sans-serif" font-size="14" font-weight="bold" lengthAdjust="spacing" textLength="109" x="161" y="176.5332">Security Aspect</text></g><!--cluster Capability Manager--><g id="cluster_Capability Manager"><polygon fill="#00AAFF" points="376,280,516,280,523,303.6094,717,303.6094,717,610,376,610,376,280" style="stroke:#000000;stroke-width:1.5;"/><line style="stroke:#000000;stroke-width:1.5;" x1="376" x2="523" y1="303.6094" y2="303.6094"/><text fill="#000000" font-family="sans-serif" font-size="14" font-weight="bold" lengthAdjust="spacing" textLength="134" x="380" y="296.5332">Capability Manager</text></g><ellipse cx="248" cy="52" fill="#222222" rx="10" ry="10" style="stroke:#222222;stroke-width:1.0;"/><rect fill="#555555" height="8" style="stroke:none;stroke-width:1.0;" width="80" x="208" y="103"/><rect fill="#F1F1F1" height="35.0938" rx="12.5" ry="12.5" style="stroke:#181818;stroke-width:0.5;" width="121" x="32.5" y="316"/><text fill="#000000" font-family="sans-serif" font-size="12" lengthAdjust="spacing" textLength="101" x="42.5" y="338.457">Attested Hardware</text><rect fill="#F1F1F1" height="35.0938" rx="12.5" ry="12.5" style="stroke:#181818;stroke-width:0.5;" width="162" x="174" y="316"/><text fill="#000000" font-family="sans-serif" font-size="12" lengthAdjust="spacing" textLength="142" x="184" y="338.457">Deploy Attested Hardware</text><rect fill="#F1F1F1" height="35.0938" rx="12.5" ry="12.5" style="stroke:#181818;stroke-width:0.5;" width="76" x="569" y="196"/><text fill="#000000" font-family="sans-serif" font-size="12" lengthAdjust="spacing" textLength="56" x="579" y="218.457">Start Build</text><rect fill="#F1F1F1" height="35.0938" rx="12.5" ry="12.5" style="stroke:#181818;stroke-width:0.5;" width="158" x="173" y="196"/><text fill="#000000" font-family="sans-serif" font-size="12" lengthAdjust="spacing" textLength="138" x="183" y="218.457">Generate Hardware Keys</text><rect fill="#F1F1F1" height="35.0938" rx="12.5" ry="12.5" style="stroke:#181818;stroke-width:0.5;" width="161" x="351.5" y="196"/><text fill="#000000" font-family="sans-serif" font-size="12" lengthAdjust="spacing" textLength="141" x="361.5" y="218.457">Generate Attestation Keys</text><rect fill="#F1F1F1" height="35.0938" rx="12.5" ry="12.5" style="stroke:#181818;stroke-width:0.5;" width="165" x="392.5" y="559"/><text fill="#000000" font-family="sans-serif" font-size="12" lengthAdjust="spacing" textLength="145" x="402.5" y="581.457">Deploy Capability Release</text><rect fill="#F1F1F1" height="35.0938" rx="12.5" ry="12.5" style="stroke:#181818;stroke-width:0.5;" width="105" x="545.5" y="316"/><text fill="#000000" font-family="sans-serif" font-size="12" lengthAdjust="spacing" textLength="85" x="555.5" y="338.457">Build Capability</text><rect fill="#F1F1F1" height="35.0938" rx="12.5" ry="12.5" style="stroke:#181818;stroke-width:0.5;" width="128" x="393" y="316"/><text fill="#000000" font-family="sans-serif" font-size="12" lengthAdjust="spacing" textLength="108" x="403" y="338.457">Provision Capability</text><rect fill="#F1F1F1" height="35.0938" rx="12.5" ry="12.5" style="stroke:#181818;stroke-width:0.5;" width="107" x="410.5" y="404"/><text fill="#000000" font-family="sans-serif" font-size="12" lengthAdjust="spacing" textLength="87" x="420.5" y="426.457">Attest Capability</text><g id="elem_#28"><polygon fill="#F1F1F1" points="475,480,487,492,475,504,463,492,475,480" style="stroke:#181818;stroke-width:0.5;"/></g><rect fill="#F1F1F1" height="35.0938" rx="12.5" ry="12.5" style="stroke:#181818;stroke-width:0.5;" width="123" x="577.5" y="559"/><text fill="#000000" font-family="sans-serif" font-size="12" lengthAdjust="spacing" textLength="103" x="587.5" y="581.457">Failed Deployment</text><!--link start to F1--><g id="link_start_F1"><path d="M248,62.23 C248,74.33 248,88.94 248,96.81 " fill="none" id="start-to-F1" style="stroke:#181818;stroke-width:1.0;"/><polygon fill="#181818" points="248,102.81,252,93.81,248,97.81,244,93.81,248,102.81" style="stroke:#181818;stroke-width:1.0;"/></g><!--link F1 to Attested Hardware--><g id="link_F1_Attested Hardware"><path d="M235.71,111.02 C216.87,116.25 180.88,128.73 160,152 C116.02,201.01 100.9142,275.5426 95.8942,310.0326 " fill="none" id="F1-to-Attested Hardware" style="stroke:#181818;stroke-width:1.0;"/><polygon fill="#181818" points="95.03,315.97,100.2846,307.64,95.7502,311.0221,92.368,306.4877,95.03,315.97" style="stroke:#181818;stroke-width:1.0;"/></g><!--link F1 to Start Build--><g id="link_F1_Start Build"><path d="M288.32,108.38 C343.92,110.22 446.31,118.38 526,152 C550.58,162.37 570.0961,177.7077 585.4961,191.7477 " fill="none" id="F1-to-Start Build" style="stroke:#181818;stroke-width:1.0;"/><polygon fill="#181818" points="589.93,195.79,585.974,186.7706,586.2351,192.4214,580.5843,192.6824,589.93,195.79" style="stroke:#181818;stroke-width:1.0;"/></g><!--link Attested Hardware to Generate Hardware Keys--><g id="link_Attested Hardware_Generate Hardware Keys"><path d="M111.16,315.91 C125.2,303.37 145.33,285.97 164,272 C183.73,257.24 202.0309,245.2382 219.7409,234.1782 " fill="none" id="Attested Hardware-to-Generate Hardware Keys" style="stroke:#181818;stroke-width:1.0;"/><polygon fill="#181818" points="224.83,231,215.0775,232.3745,220.5891,233.6485,219.3151,239.16,224.83,231" style="stroke:#181818;stroke-width:1.0;"/></g><!--link Generate Hardware Keys to Deploy Attested Hardware--><g id="link_Generate Hardware Keys_Deploy Attested Hardware"><path d="M252.42,231.16 C253,253.65 253.8577,287.4819 254.4277,309.9319 " fill="none" id="Generate Hardware Keys-to-Deploy Attested Hardware" style="stroke:#181818;stroke-width:1.0;"/><polygon fill="#181818" points="254.58,315.93,258.3503,306.8314,254.4531,310.9316,250.3529,307.0344,254.58,315.93" style="stroke:#181818;stroke-width:1.0;"/></g><!--link Deploy Attested Hardware to Deploy Capability Release--><g id="link_Deploy Attested Hardware_Deploy Capability Release"><path d="M270.12,351.06 C310.31,395.09 415.4149,510.2286 455.7249,554.3886 " fill="none" id="Deploy Attested Hardware-to-Deploy Capability Release" style="stroke:#181818;stroke-width:1.0;"/><polygon fill="#181818" points="459.77,558.82,456.6567,549.4762,456.3991,555.1272,450.7481,554.8696,459.77,558.82" style="stroke:#181818;stroke-width:1.0;"/></g><!--link Start Build to Build Capability--><g id="link_Start Build_Build Capability"><path d="M605.73,231.16 C604.01,253.65 601.4383,287.4975 599.7183,309.9475 " fill="none" id="Start Build-to-Build Capability" style="stroke:#181818;stroke-width:1.0;"/><polygon fill="#181818" points="599.26,315.93,603.9358,307.2619,599.642,310.9446,595.9592,306.6507,599.26,315.93" style="stroke:#181818;stroke-width:1.0;"/></g><!--link Build Capability to Generate Attestation Keys--><g id="link_Build Capability_Generate Attestation Keys"><path d="M581.49,315.8 C568.41,303.02 549.36,285.39 531,272 C509.81,256.54 489.4328,244.5746 469.5428,233.8646 " fill="none" id="Build Capability-to-Generate Attestation Keys" style="stroke:#181818;stroke-width:1.0;"/><polygon fill="#181818" points="464.26,231.02,470.2878,238.8088,468.6624,233.3905,474.0806,231.765,464.26,231.02" style="stroke:#181818;stroke-width:1.0;"/></g><!--link Generate Attestation Keys to Provision Capability--><g id="link_Generate Attestation Keys_Provision Capability"><path d="M435.53,231.16 C440.29,253.65 447.4855,287.6105 452.2455,310.0605 " fill="none" id="Generate Attestation Keys-to-Provision Capability" style="stroke:#181818;stroke-width:1.0;"/><polygon fill="#181818" points="453.49,315.93,455.5363,306.2961,452.4529,311.0387,447.7102,307.9554,453.49,315.93" style="stroke:#181818;stroke-width:1.0;"/></g><!--link Provision Capability to Attest Capability--><g id="link_Provision Capability_Attest Capability"><path d="M458.35,351.08 C459.59,366.31 460.9364,382.7795 462.1664,397.9895 " fill="none" id="Provision Capability-to-Attest Capability" style="stroke:#181818;stroke-width:1.0;"/><polygon fill="#181818" points="462.65,403.97,465.9115,394.6769,462.247,398.9863,457.9376,395.3217,462.65,403.97" style="stroke:#181818;stroke-width:1.0;"/></g><!--link Attest Capability to #28--><g id="link_Attest Capability_#28"><path d="M466.66,439.08 C468.77,452.23 470.6951,464.2365 472.4651,475.2165 " fill="none" id="Attest Capability-to-#28" style="stroke:#181818;stroke-width:1.0;"/><polygon fill="#181818" points="473.42,481.14,475.9367,471.6181,472.6243,476.2037,468.0387,472.8913,473.42,481.14" style="stroke:#181818;stroke-width:1.0;"/><text fill="#000000" font-family="sans-serif" font-size="11" lengthAdjust="spacing" textLength="84" x="371.4433" y="472.5704">Attestation match</text></g><!--link #28 to Deploy Capability Release--><g id="link_#28_Deploy Capability Release"><path d="M475,504.13 C475,518.2 475,536.56 475,552.85 " fill="none" id="#28-to-Deploy Capability Release" style="stroke:#181818;stroke-width:1.0;"/><polygon fill="#181818" points="475,558.85,479,549.85,475,553.85,471,549.85,475,558.85" style="stroke:#181818;stroke-width:1.0;"/><text fill="#000000" font-family="sans-serif" font-size="11" lengthAdjust="spacing" textLength="19" x="476" y="536.4189">true</text></g><!--link #28 to Failed Deployment--><g id="link_#28_Failed Deployment"><path d="M482.47,496.76 C503.97,507.57 561.5497,536.5441 600.7597,556.2641 " fill="none" id="#28-to-Failed Deployment" style="stroke:#181818;stroke-width:1.0;"/><polygon fill="#181818" points="606.12,558.96,599.8768,551.3427,601.6531,556.7135,596.2824,558.4897,606.12,558.96" style="stroke:#181818;stroke-width:1.0;"/><text fill="#000000" font-family="sans-serif" font-size="11" lengthAdjust="spacing" textLength="24" x="562" y="536.4189">false</text></g><!--SRC=[hPBTIiD048NlynH3l56XK1yWGhLMHQN5UYTUJDD9ixZPBBlRIX3VtVsXRPecrefxiNzmlZDd68dACCDA0V7zorYIGlVGCPnaTgKfV4QdvsVGwrr2aYIZ2xj5Nr4ajxBhiYZiESahpLBay8WLAQkV-MNrQvs7n0DZI1kQmnsg-GSgYXky8Qt6KiEDM311dhIfP9SqDLO4Lql6vuvHGqmfNIfcAXXeIQc9GJBnRlKjvW5rIy8bfyq_F52b6zI3GRimmMD8afUsfBRyTHUKE6FSLV-40XVUejz7p39dqKdPCQb1deaJwYDTwgqDO7-lSN_RyJrTe-4XY1-wrfx_N6St9jXCLBbYsdrsLdx0ePLGd-G_a_Vb7ikoDJcaAT2aUGmc9t4CdhYcoF5UZLhIstzDnXQReRrQxWWPjtCOy0K9utZV]--></g></svg>