<?xml version="1.0" encoding="us-ascii" standalone="no"?><svg xmlns="http://www.w3.org/2000/svg" xmlns:xlink="http://www.w3.org/1999/xlink" contentStyleType="text/css" height="175px" preserveAspectRatio="none" style="width:265px;height:175px;background:#FFFFFF;" version="1.1" viewBox="0 0 265 175" width="265px" zoomAndPan="magnify"><defs/><g><!--cluster SentientAgentBundleManager--><g id="cluster_SentientAgentBundleManager"><polygon fill="#FFCC88" points="16,6,234,6,241,29.6094,248,29.6094,248,168,16,168,16,6" style="stroke:#000000;stroke-width:1.5;"/><line style="stroke:#000000;stroke-width:1.5;" x1="16" x2="241" y1="29.6094" y2="29.6094"/><text fill="#000000" font-family="sans-serif" font-size="14" font-weight="bold" lengthAdjust="spacing" textLength="212" x="20" y="22.5332">SentientAgentBundleManager</text></g><ellipse cx="222" cy="59.5" fill="#222222" rx="10" ry="10" style="stroke:#222222;stroke-width:1.0;"/><rect fill="#F1F1F1" height="35.0938" rx="12.5" ry="12.5" style="stroke:#181818;stroke-width:0.5;" width="74" x="116" y="117"/><text fill="#000000" font-family="sans-serif" font-size="12" lengthAdjust="spacing" textLength="54" x="126" y="139.457">Build SAB</text><rect fill="#F1F1F1" height="35.0938" rx="12.5" ry="12.5" style="stroke:#181818;stroke-width:0.5;" width="160" x="32" y="42"/><text fill="#000000" font-family="sans-serif" font-size="12" lengthAdjust="spacing" textLength="140" x="42" y="64.457">Create Build Environment</text><!--link start to Build SAB--><g id="link_start_Build SAB"><path d="M215.63,67.24 C205.09,78.39 187.8215,96.6595 172.9915,112.3495 " fill="none" id="start-to-Build SAB" style="stroke:#181818;stroke-width:1.0;"/><polygon fill="#181818" points="168.87,116.71,177.9592,112.9169,172.3045,113.0763,172.1452,107.4217,168.87,116.71" style="stroke:#181818;stroke-width:1.0;"/></g><!--link Create Build Environment to Build SAB--><g id="link_Create Build Environment_Build SAB"><path d="M121.3,77.06 C127.97,88.93 133.9616,99.6088 140.6516,111.5188 " fill="none" id="Create Build Environment-to-Build SAB" style="stroke:#181818;stroke-width:1.0;"/><polygon fill="#181818" points="143.59,116.75,142.6698,106.9442,141.1413,112.3907,135.6949,110.8621,143.59,116.75" style="stroke:#181818;stroke-width:1.0;"/></g><!--SRC=[AqWiAiaioSpFKr0AJiqhoGHYntGWuLIQbvAJwfkObvYUMgIae9oMbfniOQ5GpQMXfQcWgskdeEHKcfcJeX3iwAJ4LSjLGAenIiv5gOabgGeGKrppoZABylDoWJgKi9WE0000]--></g></svg>