<?xml version="1.0" encoding="UTF-8" standalone="no"?><svg xmlns="http://www.w3.org/2000/svg" xmlns:xlink="http://www.w3.org/1999/xlink" contentScriptType="application/ecmascript" contentStyleType="text/css" height="198px" preserveAspectRatio="none" style="width:276px;height:198px;" version="1.1" viewBox="0 0 276 198" width="276px" zoomAndPan="magnify"><defs><filter height="300%" id="f6r2zs7dsb5xb" width="300%" x="-1" y="-1"><feGaussianBlur result="blurOut" stdDeviation="2.0"/><feColorMatrix in="blurOut" result="blurOut2" type="matrix" values="0 0 0 0 0 0 0 0 0 0 0 0 0 0 0 0 0 0 .4 0"/><feOffset dx="4.0" dy="4.0" in="blurOut2" result="blurOut3"/><feBlend in="SourceGraphic" in2="blurOut3" mode="normal"/></filter></defs><g><!--cluster SentientAgentBundleManager--><polygon fill="#FFCC88" filter="url(#f6r2zs7dsb5xb)" points="22,24,240,24,247,47.6094,254,47.6094,254,186,22,186,22,24" style="stroke: #000000; stroke-width: 1.5;"/><line style="stroke: #000000; stroke-width: 1.5;" x1="22" x2="247" y1="47.6094" y2="47.6094"/><text fill="#000000" font-family="sans-serif" font-size="14" font-weight="bold" lengthAdjust="spacingAndGlyphs" textLength="212" x="26" y="40.5332">SentientAgentBundleManager</text><ellipse cx="228" cy="77.5" fill="#000000" filter="url(#f6r2zs7dsb5xb)" rx="10" ry="10" style="stroke: none; stroke-width: 1.0;"/><rect fill="#FEFECE" filter="url(#f6r2zs7dsb5xb)" height="35.0938" rx="12.5" ry="12.5" style="stroke: #A80036; stroke-width: 1.5;" width="74" x="122" y="135"/><text fill="#000000" font-family="sans-serif" font-size="12" lengthAdjust="spacingAndGlyphs" textLength="54" x="132" y="157.457">Build SAB</text><rect fill="#FEFECE" filter="url(#f6r2zs7dsb5xb)" height="35.0938" rx="12.5" ry="12.5" style="stroke: #A80036; stroke-width: 1.5;" width="160" x="38" y="60"/><text fill="#000000" font-family="sans-serif" font-size="12" lengthAdjust="spacingAndGlyphs" textLength="140" x="48" y="82.457">Create Build Environment</text><!--link start to Build SAB--><path d="M221.632,85.237 C211.913,95.519 192.978,115.5519 178.461,130.9111 " fill="none" id="start-Build SAB" style="stroke: #A80036; stroke-width: 1.0;"/><polygon fill="#A80036" points="174.873,134.7065,183.9619,130.9128,178.3073,131.0725,178.1475,125.4179,174.873,134.7065" style="stroke: #A80036; stroke-width: 1.0;"/><!--link Create Build Environment to Build SAB--><path d="M127.304,95.065 C133.133,105.4447 140.706,118.9274 146.987,130.1114 " fill="none" id="Create Build Environment-Build SAB" style="stroke: #A80036; stroke-width: 1.0;"/><polygon fill="#A80036" points="149.591,134.748,148.6719,124.9421,147.1428,130.3884,141.6965,128.8593,149.591,134.748" style="stroke: #A80036; stroke-width: 1.0;"/><!--
@startuml
partition "SentientAgentBundleManager" #ffcc88 {
(*) - -> "Build SAB"
}
partition "SentientAgentBundleManager" #ffcc88 {
"Create Build Environment" - -> "Build SAB"
}

@enduml

PlantUML version 1.2019.05(Sat Apr 20 09:45:36 PDT 2019)
(GPL source distribution)
Java Runtime: Java(TM) SE Runtime Environment
JVM: Java HotSpot(TM) Client VM
Java Version: 1.8.0_271-b09
Operating System: Windows 10
OS Version: 10.0
Default Encoding: Cp1252
Language: en
Country: US
--></g></svg>