<?xml version="1.0" encoding="UTF-8" standalone="no"?><svg xmlns="http://www.w3.org/2000/svg" xmlns:xlink="http://www.w3.org/1999/xlink" contentScriptType="application/ecmascript" contentStyleType="text/css" height="503px" preserveAspectRatio="none" style="width:536px;height:503px;" version="1.1" viewBox="0 0 536 503" width="536px" zoomAndPan="magnify"><defs><filter height="300%" id="f1ibyt4d2tnsi4" width="300%" x="-1" y="-1"><feGaussianBlur result="blurOut" stdDeviation="2.0"/><feColorMatrix in="blurOut" result="blurOut2" type="matrix" values="0 0 0 0 0 0 0 0 0 0 0 0 0 0 0 0 0 0 .4 0"/><feOffset dx="4.0" dy="4.0" in="blurOut2" result="blurOut3"/><feBlend in="SourceGraphic" in2="blurOut3" mode="normal"/></filter></defs><g><!--cluster IdentityAspect--><polygon fill="#FFBBBB" filter="url(#f1ibyt4d2tnsi4)" points="120,24,226,24,233,47.6094,292,47.6094,292,237,120,237,120,24" style="stroke: #000000; stroke-width: 1.5;"/><line style="stroke: #000000; stroke-width: 1.5;" x1="120" x2="233" y1="47.6094" y2="47.6094"/><text fill="#000000" font-family="sans-serif" font-size="14" font-weight="bold" lengthAdjust="spacingAndGlyphs" textLength="100" x="124" y="40.5332">IdentityAspect</text><!--cluster SecurityAspect--><polygon fill="#FFFFFF" filter="url(#f1ibyt4d2tnsi4)" points="22,284,133,284,140,307.6094,260,307.6094,260,371,22,371,22,284" style="stroke: #000000; stroke-width: 1.5;"/><line style="stroke: #000000; stroke-width: 1.5;" x1="22" x2="140" y1="307.6094" y2="307.6094"/><text fill="#000000" font-family="sans-serif" font-size="14" font-weight="bold" lengthAdjust="spacingAndGlyphs" textLength="105" x="26" y="300.5332">SecurityAspect</text><!--cluster SoftwareDefinedInfrastructure--><polygon fill="#FFFFFF" filter="url(#f1ibyt4d2tnsi4)" points="284,284,504,284,511,307.6094,514,307.6094,514,371,284,371,284,284" style="stroke: #000000; stroke-width: 1.5;"/><line style="stroke: #000000; stroke-width: 1.5;" x1="284" x2="511" y1="307.6094" y2="307.6094"/><text fill="#000000" font-family="sans-serif" font-size="14" font-weight="bold" lengthAdjust="spacingAndGlyphs" textLength="214" x="288" y="300.5332">SoftwareDefinedInfrastructure</text><!--cluster None--><polygon fill="#DDDDDD" filter="url(#f1ibyt4d2tnsi4)" points="48,404,91,404,98,427.6094,234,427.6094,234,491,48,491,48,404" style="stroke: #000000; stroke-width: 1.5;"/><line style="stroke: #000000; stroke-width: 1.5;" x1="48" x2="98" y1="427.6094" y2="427.6094"/><text fill="#000000" font-family="sans-serif" font-size="14" font-weight="bold" lengthAdjust="spacingAndGlyphs" textLength="37" x="52" y="420.5332">None</text><ellipse cx="206" cy="70" fill="#000000" filter="url(#f1ibyt4d2tnsi4)" rx="10" ry="10" style="stroke: none; stroke-width: 1.0;"/><rect fill="#FEFECE" filter="url(#f1ibyt4d2tnsi4)" height="35.0938" rx="12.5" ry="12.5" style="stroke: #A80036; stroke-width: 1.5;" width="139" x="136.5" y="121"/><text fill="#000000" font-family="sans-serif" font-size="12" lengthAdjust="spacingAndGlyphs" textLength="119" x="146.5" y="143.457">Attest Device Process</text><polygon fill="#FEFECE" filter="url(#f1ibyt4d2tnsi4)" points="206,197,218,209,206,221,194,209,206,197" style="stroke: #A80036; stroke-width: 1.5;"/><rect fill="#FEFECE" filter="url(#f1ibyt4d2tnsi4)" height="35.0938" rx="12.5" ry="12.5" style="stroke: #A80036; stroke-width: 1.5;" width="206" x="38" y="320"/><text fill="#000000" font-family="sans-serif" font-size="12" lengthAdjust="spacingAndGlyphs" textLength="186" x="48" y="342.457">Provision Edge Security Controller</text><rect fill="#FEFECE" filter="url(#f1ibyt4d2tnsi4)" height="35.0938" rx="12.5" ry="12.5" style="stroke: #A80036; stroke-width: 1.5;" width="115" x="300.5" y="320"/><text fill="#000000" font-family="sans-serif" font-size="12" lengthAdjust="spacingAndGlyphs" textLength="95" x="310.5" y="342.457">Reject the Device</text><rect fill="#FEFECE" filter="url(#f1ibyt4d2tnsi4)" height="35.0938" rx="12.5" ry="12.5" style="stroke: #A80036; stroke-width: 1.5;" width="154" x="64" y="440"/><text fill="#000000" font-family="sans-serif" font-size="12" lengthAdjust="spacingAndGlyphs" textLength="134" x="74" y="462.457">Store SABR Private Keys</text><!--link start to Attest Device Process--><path d="M206,80.247 C206,89.427 206,103.836 206,115.901 " fill="none" id="start-Attest Device Process" style="stroke: #A80036; stroke-width: 1.0;"/><polygon fill="#A80036" points="206,120.907,210,111.907,206,115.907,202,111.907,206,120.907" style="stroke: #A80036; stroke-width: 1.0;"/><!--link Attest Device Process to #5789--><path d="M206,156.082 C206,166.872 206,180.883 206,191.63 " fill="none" id="Attest Device Process-#5789" style="stroke: #A80036; stroke-width: 1.0;"/><polygon fill="#A80036" points="206,196.918,210,187.918,206,191.918,202,187.918,206,196.918" style="stroke: #A80036; stroke-width: 1.0;"/><text fill="#000000" font-family="sans-serif" font-size="11" lengthAdjust="spacingAndGlyphs" textLength="84" x="101.525" y="186.482">Device is Trusted</text><!--link #5789 to Provision Edge Security Controller--><path d="M202.129,217.534 C192.466,236.339 167.001,285.899 152.164,314.773 " fill="none" id="#5789-Provision Edge Security Controller" style="stroke: #A80036; stroke-width: 1.0;"/><polygon fill="#A80036" points="149.701,319.567,157.3712,313.389,151.9855,315.1194,150.2551,309.7337,149.701,319.567" style="stroke: #A80036; stroke-width: 1.0;"/><text fill="#000000" font-family="sans-serif" font-size="11" lengthAdjust="spacingAndGlyphs" textLength="20" x="184" y="265.4189">Yes</text><!--link #5789 to Reject the Device--><path d="M212.147,215.116 C232.428,231.994 297.968,286.539 333.894,316.438 " fill="none" id="#5789-Reject the Device" style="stroke: #A80036; stroke-width: 1.0;"/><polygon fill="#A80036" points="338.124,319.958,333.7656,311.126,334.281,316.7593,328.6477,317.2748,338.124,319.958" style="stroke: #A80036; stroke-width: 1.0;"/><text fill="#000000" font-family="sans-serif" font-size="11" lengthAdjust="spacingAndGlyphs" textLength="13" x="273" y="265.4189">No</text><!--link Provision Edge Security Controller to Store SABR Private Keys--><path d="M141,355.156 C141,375.976 141,411.6651 141,434.6576 " fill="none" id="Provision Edge Security Controller-Store SABR Private Keys" style="stroke: #A80036; stroke-width: 1.0;"/><polygon fill="#A80036" points="141,439.9285,145,430.9285,141,434.9285,137,430.9285,141,439.9285" style="stroke: #A80036; stroke-width: 1.0;"/><!--
@startuml
partition "IdentityAspect" #ffbbbb {
(*) - -> "Attest Device Process"
}
partition "IdentityAspect" #ffbbbb {
"Attest Device Process" - -> if "Device is Trusted" then
}
partition "SecurityAspect" pink {
else
- -> [Yes] "Provision Edge Security Controller"
}
partition "SoftwareDefinedInfrastructure" lightyellow {
else
- -> [No] "Reject the Device"
}
partition "None" #dddddd {
"Provision Edge Security Controller" - -> "Store SABR Private Keys"
}

@enduml

PlantUML version 1.2019.05(Sat Apr 20 09:45:36 PDT 2019)
(GPL source distribution)
Java Runtime: Java(TM) SE Runtime Environment
JVM: Java HotSpot(TM) Client VM
Java Version: 1.8.0_271-b09
Operating System: Windows 10
OS Version: 10.0
Default Encoding: Cp1252
Language: en
Country: US
--></g></svg>