<?xml version="1.0" encoding="us-ascii" standalone="no"?><svg xmlns="http://www.w3.org/2000/svg" xmlns:xlink="http://www.w3.org/1999/xlink" contentStyleType="text/css" height="480px" preserveAspectRatio="none" style="width:525px;height:480px;background:#FFFFFF;" version="1.1" viewBox="0 0 525 480" width="525px" zoomAndPan="magnify"><defs/><g><!--cluster IdentityAspect--><g id="cluster_IdentityAspect"><polygon fill="#FFBBBB" points="178,6,284,6,291,29.6094,350,29.6094,350,219,178,219,178,6" style="stroke:#000000;stroke-width:1.5;"/><line style="stroke:#000000;stroke-width:1.5;" x1="178" x2="291" y1="29.6094" y2="29.6094"/><text fill="#000000" font-family="sans-serif" font-size="14" font-weight="bold" lengthAdjust="spacing" textLength="100" x="182" y="22.5332">IdentityAspect</text></g><!--cluster SecurityAspect--><g id="cluster_SecurityAspect"><polygon fill="none" points="16,266,127,266,134,289.6094,254,289.6094,254,353,16,353,16,266" style="stroke:#000000;stroke-width:1.5;"/><line style="stroke:#000000;stroke-width:1.5;" x1="16" x2="134" y1="289.6094" y2="289.6094"/><text fill="#000000" font-family="sans-serif" font-size="14" font-weight="bold" lengthAdjust="spacing" textLength="105" x="20" y="282.5332">SecurityAspect</text></g><!--cluster SoftwareDefinedInfrastructure--><g id="cluster_SoftwareDefinedInfrastructure"><polygon fill="none" points="278,266,498,266,505,289.6094,508,289.6094,508,353,278,353,278,266" style="stroke:#000000;stroke-width:1.5;"/><line style="stroke:#000000;stroke-width:1.5;" x1="278" x2="505" y1="289.6094" y2="289.6094"/><text fill="#000000" font-family="sans-serif" font-size="14" font-weight="bold" lengthAdjust="spacing" textLength="214" x="282" y="282.5332">SoftwareDefinedInfrastructure</text></g><!--cluster None--><g id="cluster_None"><polygon fill="#DDDDDD" points="42,386,85,386,92,409.6094,228,409.6094,228,473,42,473,42,386" style="stroke:#000000;stroke-width:1.5;"/><line style="stroke:#000000;stroke-width:1.5;" x1="42" x2="92" y1="409.6094" y2="409.6094"/><text fill="#000000" font-family="sans-serif" font-size="14" font-weight="bold" lengthAdjust="spacing" textLength="37" x="46" y="402.5332">None</text></g><ellipse cx="264" cy="52" fill="#222222" rx="10" ry="10" style="stroke:#222222;stroke-width:1.0;"/><rect fill="#F1F1F1" height="35.0938" rx="12.5" ry="12.5" style="stroke:#181818;stroke-width:0.5;" width="139" x="194.5" y="103"/><text fill="#000000" font-family="sans-serif" font-size="12" lengthAdjust="spacing" textLength="119" x="204.5" y="125.457">Attest Device Process</text><g id="elem_#6"><polygon fill="#F1F1F1" points="264,179,276,191,264,203,252,191,264,179" style="stroke:#181818;stroke-width:0.5;"/></g><rect fill="#F1F1F1" height="35.0938" rx="12.5" ry="12.5" style="stroke:#181818;stroke-width:0.5;" width="206" x="32" y="302"/><text fill="#000000" font-family="sans-serif" font-size="12" lengthAdjust="spacing" textLength="186" x="42" y="324.457">Provision Edge Security Controller</text><rect fill="#F1F1F1" height="35.0938" rx="12.5" ry="12.5" style="stroke:#181818;stroke-width:0.5;" width="115" x="294.5" y="302"/><text fill="#000000" font-family="sans-serif" font-size="12" lengthAdjust="spacing" textLength="95" x="304.5" y="324.457">Reject the Device</text><rect fill="#F1F1F1" height="35.0938" rx="12.5" ry="12.5" style="stroke:#181818;stroke-width:0.5;" width="154" x="58" y="422"/><text fill="#000000" font-family="sans-serif" font-size="12" lengthAdjust="spacing" textLength="134" x="68" y="444.457">Store SABR Private Keys</text><!--link start to Attest Device Process--><g id="link_start_Attest Device Process"><path d="M264,62.25 C264,72.74 264,84.06 264,96.91 " fill="none" id="start-to-Attest Device Process" style="stroke:#181818;stroke-width:1.0;"/><polygon fill="#181818" points="264,102.91,268,93.91,264,97.91,260,93.91,264,102.91" style="stroke:#181818;stroke-width:1.0;"/></g><!--link Attest Device Process to #6--><g id="link_Attest Device Process_#6"><path d="M264,138.08 C264,150.75 264,161.87 264,172.92 " fill="none" id="Attest Device Process-to-#6" style="stroke:#181818;stroke-width:1.0;"/><polygon fill="#181818" points="264,178.92,268,169.92,264,173.92,260,169.92,264,178.92" style="stroke:#181818;stroke-width:1.0;"/><text fill="#000000" font-family="sans-serif" font-size="11" lengthAdjust="spacing" textLength="84" x="159.525" y="168.485">Device is Trusted</text></g><!--link #6 to Provision Edge Security Controller--><g id="link_#6_Provision Edge Security Controller"><path d="M258.12,197.76 C239.49,216.03 185.5443,268.9394 156.3443,297.5694 " fill="none" id="#6-to-Provision Edge Security Controller" style="stroke:#181818;stroke-width:1.0;"/><polygon fill="#181818" points="152.06,301.77,161.2868,298.3252,155.6302,298.2695,155.686,292.6129,152.06,301.77" style="stroke:#181818;stroke-width:1.0;"/><text fill="#000000" font-family="sans-serif" font-size="11" lengthAdjust="spacing" textLength="20" x="219" y="247.4189">Yes</text></g><!--link #6 to Reject the Device--><g id="link_#6_Reject the Device"><path d="M268.73,198.8 C282.15,218.1 317.3426,268.6852 336.9126,296.8052 " fill="none" id="#6-to-Reject the Device" style="stroke:#181818;stroke-width:1.0;"/><polygon fill="#181818" points="340.34,301.73,338.4821,292.058,337.4839,297.626,331.9158,296.6278,340.34,301.73" style="stroke:#181818;stroke-width:1.0;"/><text fill="#000000" font-family="sans-serif" font-size="11" lengthAdjust="spacing" textLength="13" x="303" y="247.4189">No</text></g><!--link Provision Edge Security Controller to Store SABR Private Keys--><g id="link_Provision Edge Security Controller_Store SABR Private Keys"><path d="M135,337.16 C135,359.65 135,393.48 135,415.93 " fill="none" id="Provision Edge Security Controller-to-Store SABR Private Keys" style="stroke:#181818;stroke-width:1.0;"/><polygon fill="#181818" points="135,421.93,139,412.93,135,416.93,131,412.93,135,421.93" style="stroke:#181818;stroke-width:1.0;"/></g><!--SRC=[ZP11IyD048Nl-HN3zg92_q8XMW-bK4hZHSH3tBnjHvVTC3j92U9_TnChs8BGEGqpl6_UlBOMPUKOoAmQXDmFPMfXrT3CkRTSz5dStDtIVBuWKweYAItHimLj9LgaP8glehq6yuzyGhCZSvfpeYVfag8nf0U4Stm5syaVVClX8xFX4ueHzFACz4ecmtjEe-AnsOD-LVGGWqhq7d9XkufEZxLW2SS1pIeugPDAPxKJ6FAyF-W0x-FnxDecvcCxl6SlezdJRnViJGmPCMkc6eEumjrFu9L6oVloVfVZuhvMq1h35Fat]--></g></svg>