<?xml version="1.0" encoding="UTF-8" standalone="no"?><svg xmlns="http://www.w3.org/2000/svg" xmlns:xlink="http://www.w3.org/1999/xlink" contentScriptType="application/ecmascript" contentStyleType="text/css" height="489px" preserveAspectRatio="none" style="width:572px;height:489px;" version="1.1" viewBox="0 0 572 489" width="572px" zoomAndPan="magnify"><defs><filter height="300%" id="flsf96ivnmb47" width="300%" x="-1" y="-1"><feGaussianBlur result="blurOut" stdDeviation="2.0"/><feColorMatrix in="blurOut" result="blurOut2" type="matrix" values="0 0 0 0 0 0 0 0 0 0 0 0 0 0 0 0 0 0 .4 0"/><feOffset dx="4.0" dy="4.0" in="blurOut2" result="blurOut3"/><feBlend in="SourceGraphic" in2="blurOut3" mode="normal"/></filter></defs><g><!--cluster ApplicationDeveloper--><polygon fill="#FFFFCC" filter="url(#flsf96ivnmb47)" points="216,24,374,24,381,47.6094,384,47.6094,384,144,216,144,216,24" style="stroke: #000000; stroke-width: 1.5;"/><line style="stroke: #000000; stroke-width: 1.5;" x1="216" x2="381" y1="47.6094" y2="47.6094"/><text fill="#000000" font-family="sans-serif" font-size="14" font-weight="bold" lengthAdjust="spacingAndGlyphs" textLength="152" x="220" y="40.5332">ApplicationDeveloper</text><!--cluster SentientAgentBundleManager--><polygon fill="#FFCC88" filter="url(#flsf96ivnmb47)" points="22,279,240,279,247,302.6094,296,302.6094,296,366,22,366,22,279" style="stroke: #000000; stroke-width: 1.5;"/><line style="stroke: #000000; stroke-width: 1.5;" x1="22" x2="247" y1="302.6094" y2="302.6094"/><text fill="#000000" font-family="sans-serif" font-size="14" font-weight="bold" lengthAdjust="spacingAndGlyphs" textLength="212" x="26" y="295.5332">SentientAgentBundleManager</text><!--cluster SecurityAspect--><polygon fill="#FFFFFF" filter="url(#flsf96ivnmb47)" points="285,168,396,168,403,191.6094,517,191.6094,517,255,285,255,285,168" style="stroke: #000000; stroke-width: 1.5;"/><line style="stroke: #000000; stroke-width: 1.5;" x1="285" x2="403" y1="191.6094" y2="191.6094"/><text fill="#000000" font-family="sans-serif" font-size="14" font-weight="bold" lengthAdjust="spacingAndGlyphs" textLength="105" x="289" y="184.5332">SecurityAspect</text><!--cluster ServiceOrchestrator--><polygon fill="#AAFFAA" filter="url(#flsf96ivnmb47)" points="111,390,261,390,268,413.6094,317,413.6094,317,477,111,477,111,390" style="stroke: #000000; stroke-width: 1.5;"/><line style="stroke: #000000; stroke-width: 1.5;" x1="111" x2="268" y1="413.6094" y2="413.6094"/><text fill="#000000" font-family="sans-serif" font-size="14" font-weight="bold" lengthAdjust="spacingAndGlyphs" textLength="144" x="115" y="406.5332">ServiceOrchestrator</text><!--cluster SoftwareDefinedInfrastructure--><polygon fill="#FFFFFF" filter="url(#flsf96ivnmb47)" points="320,279,540,279,547,302.6094,550,302.6094,550,366,320,366,320,279" style="stroke: #000000; stroke-width: 1.5;"/><line style="stroke: #000000; stroke-width: 1.5;" x1="320" x2="547" y1="302.6094" y2="302.6094"/><text fill="#000000" font-family="sans-serif" font-size="14" font-weight="bold" lengthAdjust="spacingAndGlyphs" textLength="214" x="324" y="295.5332">SoftwareDefinedInfrastructure</text><ellipse cx="300" cy="70" fill="#000000" filter="url(#flsf96ivnmb47)" rx="10" ry="10" style="stroke: none; stroke-width: 1.0;"/><rect fill="#000000" filter="url(#flsf96ivnmb47)" height="8" style="stroke: none; stroke-width: 1.0;" width="80" x="260" y="120"/><rect fill="#FEFECE" filter="url(#flsf96ivnmb47)" height="35.0938" rx="12.5" ry="12.5" style="stroke: #A80036; stroke-width: 1.5;" width="132" x="148" y="315"/><text fill="#000000" font-family="sans-serif" font-size="12" lengthAdjust="spacingAndGlyphs" textLength="112" x="158" y="337.457">Build SABR Process</text><rect fill="#FEFECE" filter="url(#flsf96ivnmb47)" height="35.0938" rx="12.5" ry="12.5" style="stroke: #A80036; stroke-width: 1.5;" width="90" x="38" y="315"/><text fill="#000000" font-family="sans-serif" font-size="12" lengthAdjust="spacingAndGlyphs" textLength="70" x="48" y="337.457">DeploySABR</text><rect fill="#FEFECE" filter="url(#flsf96ivnmb47)" height="35.0938" rx="12.5" ry="12.5" style="stroke: #A80036; stroke-width: 1.5;" width="199" x="301.5" y="204"/><text fill="#000000" font-family="sans-serif" font-size="12" lengthAdjust="spacingAndGlyphs" textLength="179" x="311.5" y="226.457">Security Key Generation Process</text><rect fill="#FEFECE" filter="url(#flsf96ivnmb47)" height="35.0938" rx="12.5" ry="12.5" style="stroke: #A80036; stroke-width: 1.5;" width="173" x="127.5" y="426"/><text fill="#000000" font-family="sans-serif" font-size="12" lengthAdjust="spacingAndGlyphs" textLength="153" x="137.5" y="448.457">Deploy SABR Build Process</text><rect fill="#FEFECE" filter="url(#flsf96ivnmb47)" height="35.0938" rx="12.5" ry="12.5" style="stroke: #A80036; stroke-width: 1.5;" width="160" x="336" y="315"/><text fill="#000000" font-family="sans-serif" font-size="12" lengthAdjust="spacingAndGlyphs" textLength="140" x="346" y="337.457">Device Provision Process</text><!--link start to F1--><path d="M300,80.058 C300,89.797 300,105.153 300,114.621 " fill="none" id="start-F1" style="stroke: #A80036; stroke-width: 1.0;"/><polygon fill="#A80036" points="300,119.874,304,110.874,300,114.874,296,110.874,300,119.874" style="stroke: #A80036; stroke-width: 1.0;"/><!--link F1 to Build SABR Process--><path d="M298.649,128.244 C290.055,148.88 242.73,262.514 222.825,310.309 " fill="none" id="F1-Build SABR Process" style="stroke: #A80036; stroke-width: 1.0;"/><polygon fill="#A80036" points="220.874,314.994,228.0274,308.2243,222.7968,310.3785,220.6426,305.1479,220.874,314.994" style="stroke: #A80036; stroke-width: 1.0;"/><!--link F1 to Security Key Generation Process--><path d="M303.36,128.177 C314.992,139.176 354.195,176.244 379.247,199.931 " fill="none" id="F1-Security Key Generation Process" style="stroke: #A80036; stroke-width: 1.0;"/><polygon fill="#A80036" points="383.139,203.612,379.3486,194.5218,379.5063,200.1764,373.8516,200.3341,383.139,203.612" style="stroke: #A80036; stroke-width: 1.0;"/><!--link Build SABR Process to Deploy SABR Build Process--><path d="M214,350.055 C214,368.941 214,399.8972 214,420.7258 " fill="none" id="Build SABR Process-Deploy SABR Build Process" style="stroke: #A80036; stroke-width: 1.0;"/><polygon fill="#A80036" points="214,425.7895,218,416.7895,214,420.7895,210,416.7895,214,425.7895" style="stroke: #A80036; stroke-width: 1.0;"/><!--link Security Key Generation Process to Device Provision Process--><path d="M403.278,239.055 C405.877,257.941 410.137,288.897 413.004,309.726 " fill="none" id="Security Key Generation Process-Device Provision Process" style="stroke: #A80036; stroke-width: 1.0;"/><polygon fill="#A80036" points="413.7,314.789,416.436,305.3278,413.0185,309.8357,408.5106,306.4182,413.7,314.789" style="stroke: #A80036; stroke-width: 1.0;"/><!--link Device Provision Process to Deploy SABR Build Process--><path d="M385.321,350.055 C348.731,369.799 287.696,402.7331 249.215,423.4981 " fill="none" id="Device Provision Process-Deploy SABR Build Process" style="stroke: #A80036; stroke-width: 1.0;"/><polygon fill="#A80036" points="244.637,425.9684,254.457,425.2149,249.0373,423.5941,250.6581,418.1744,244.637,425.9684" style="stroke: #A80036; stroke-width: 1.0;"/><!--link Deploy SABR Build Process to DeploySABR--><path d="M193.917,425.7895 C170.463,406.2747 131.709,374.028 106.775,353.282 " fill="none" id="Deploy SABR Build Process-DeploySABR" style="stroke: #A80036; stroke-width: 1.0;"/><polygon fill="#A80036" points="102.8961,350.055,107.2551,358.8867,106.7393,353.2534,112.3726,352.7376,102.8961,350.055" style="stroke: #A80036; stroke-width: 1.0;"/><!--
@startuml
partition "ApplicationDeveloper" #ffffcc {
(*) - -> ===F1===
}

partition "SentientAgentBundleManager" #ffcc88 {
===F1=== - -> "Build SABR Process"
}

partition "SecurityAspect" pink {
===F1=== - -> "Security Key Generation Process"
}
partition "ServiceOrchestrator" #aaffaa {
"Build SABR Process" - -> "Deploy SABR Build Process"
}
partition "SoftwareDefinedInfrastructure" lightyellow {
"Security Key Generation Process" - -> "Device Provision Process"
}
partition "ServiceOrchestrator" #aaffaa {
"Device Provision Process" - -> "Deploy SABR Build Process"
}
partition "SentientAgentBundleManager" #ffcc88 {
"Deploy SABR Build Process" - -> "DeploySABR"
}

@enduml

PlantUML version 1.2019.05(Sat Apr 20 09:45:36 PDT 2019)
(GPL source distribution)
Java Runtime: Java(TM) SE Runtime Environment
JVM: Java HotSpot(TM) Client VM
Java Version: 1.8.0_271-b09
Operating System: Windows 10
OS Version: 10.0
Default Encoding: Cp1252
Language: en
Country: US
--></g></svg>