<?xml version="1.0" encoding="us-ascii" standalone="no"?><svg xmlns="http://www.w3.org/2000/svg" xmlns:xlink="http://www.w3.org/1999/xlink" contentStyleType="text/css" height="466px" preserveAspectRatio="none" style="width:561px;height:466px;background:#FFFFFF;" version="1.1" viewBox="0 0 561 466" width="561px" zoomAndPan="magnify"><defs/><g><!--cluster ApplicationDeveloper--><g id="cluster_ApplicationDeveloper"><polygon fill="#FFFFCC" points="225,6,383,6,390,29.6094,393,29.6094,393,126,225,126,225,6" style="stroke:#000000;stroke-width:1.5;"/><line style="stroke:#000000;stroke-width:1.5;" x1="225" x2="390" y1="29.6094" y2="29.6094"/><text fill="#000000" font-family="sans-serif" font-size="14" font-weight="bold" lengthAdjust="spacing" textLength="152" x="229" y="22.5332">ApplicationDeveloper</text></g><!--cluster SentientAgentBundleManager--><g id="cluster_SentientAgentBundleManager"><polygon fill="#FFCC88" points="16,261,234,261,241,284.6094,290,284.6094,290,348,16,348,16,261" style="stroke:#000000;stroke-width:1.5;"/><line style="stroke:#000000;stroke-width:1.5;" x1="16" x2="241" y1="284.6094" y2="284.6094"/><text fill="#000000" font-family="sans-serif" font-size="14" font-weight="bold" lengthAdjust="spacing" textLength="212" x="20" y="277.5332">SentientAgentBundleManager</text></g><!--cluster SecurityAspect--><g id="cluster_SecurityAspect"><polygon fill="none" points="279,150,390,150,397,173.6094,511,173.6094,511,237,279,237,279,150" style="stroke:#000000;stroke-width:1.5;"/><line style="stroke:#000000;stroke-width:1.5;" x1="279" x2="397" y1="173.6094" y2="173.6094"/><text fill="#000000" font-family="sans-serif" font-size="14" font-weight="bold" lengthAdjust="spacing" textLength="105" x="283" y="166.5332">SecurityAspect</text></g><!--cluster ServiceOrchestrator--><g id="cluster_ServiceOrchestrator"><polygon fill="#AAFFAA" points="105,372,255,372,262,395.6094,311,395.6094,311,459,105,459,105,372" style="stroke:#000000;stroke-width:1.5;"/><line style="stroke:#000000;stroke-width:1.5;" x1="105" x2="262" y1="395.6094" y2="395.6094"/><text fill="#000000" font-family="sans-serif" font-size="14" font-weight="bold" lengthAdjust="spacing" textLength="144" x="109" y="388.5332">ServiceOrchestrator</text></g><!--cluster SoftwareDefinedInfrastructure--><g id="cluster_SoftwareDefinedInfrastructure"><polygon fill="none" points="314,261,534,261,541,284.6094,544,284.6094,544,348,314,348,314,261" style="stroke:#000000;stroke-width:1.5;"/><line style="stroke:#000000;stroke-width:1.5;" x1="314" x2="541" y1="284.6094" y2="284.6094"/><text fill="#000000" font-family="sans-serif" font-size="14" font-weight="bold" lengthAdjust="spacing" textLength="214" x="318" y="277.5332">SoftwareDefinedInfrastructure</text></g><ellipse cx="309" cy="52" fill="#222222" rx="10" ry="10" style="stroke:#222222;stroke-width:1.0;"/><rect fill="#555555" height="8" style="stroke:none;stroke-width:1.0;" width="80" x="269" y="102"/><rect fill="#F1F1F1" height="35.0938" rx="12.5" ry="12.5" style="stroke:#181818;stroke-width:0.5;" width="132" x="142" y="297"/><text fill="#000000" font-family="sans-serif" font-size="12" lengthAdjust="spacing" textLength="112" x="152" y="319.457">Build SABR Process</text><rect fill="#F1F1F1" height="35.0938" rx="12.5" ry="12.5" style="stroke:#181818;stroke-width:0.5;" width="90" x="32" y="297"/><text fill="#000000" font-family="sans-serif" font-size="12" lengthAdjust="spacing" textLength="70" x="42" y="319.457">DeploySABR</text><rect fill="#F1F1F1" height="35.0938" rx="12.5" ry="12.5" style="stroke:#181818;stroke-width:0.5;" width="199" x="295.5" y="186"/><text fill="#000000" font-family="sans-serif" font-size="12" lengthAdjust="spacing" textLength="179" x="305.5" y="208.457">Security Key Generation Process</text><rect fill="#F1F1F1" height="35.0938" rx="12.5" ry="12.5" style="stroke:#181818;stroke-width:0.5;" width="173" x="121.5" y="408"/><text fill="#000000" font-family="sans-serif" font-size="12" lengthAdjust="spacing" textLength="153" x="131.5" y="430.457">Deploy SABR Build Process</text><rect fill="#F1F1F1" height="35.0938" rx="12.5" ry="12.5" style="stroke:#181818;stroke-width:0.5;" width="160" x="330" y="297"/><text fill="#000000" font-family="sans-serif" font-size="12" lengthAdjust="spacing" textLength="140" x="340" y="319.457">Device Provision Process</text><!--link start to F1--><g id="link_start_F1"><path d="M309,62.06 C309,73.93 309,88.15 309,95.87 " fill="none" id="start-to-F1" style="stroke:#181818;stroke-width:1.0;"/><polygon fill="#181818" points="309,101.87,313,92.87,309,96.87,305,92.87,309,101.87" style="stroke:#181818;stroke-width:1.0;"/></g><!--link F1 to Build SABR Process--><g id="link_F1_Build SABR Process"><path d="M306.18,110.09 C300.93,115.96 289.48,129.3 282,142 C250.41,195.65 226.5501,259.6227 215.6101,291.0927 " fill="none" id="F1-to-Build SABR Process" style="stroke:#181818;stroke-width:1.0;"/><polygon fill="#181818" points="213.64,296.76,220.3734,289.5724,215.2818,292.0372,212.817,286.9456,213.64,296.76" style="stroke:#181818;stroke-width:1.0;"/></g><!--link F1 to Security Key Generation Process--><g id="link_F1_Security Key Generation Process"><path d="M311.86,110.18 C322.3,121.76 354.7759,157.8205 375.7759,181.1505 " fill="none" id="F1-to-Security Key Generation Process" style="stroke:#181818;stroke-width:1.0;"/><polygon fill="#181818" points="379.79,185.61,376.7418,176.2447,376.4449,181.8938,370.7959,181.5969,379.79,185.61" style="stroke:#181818;stroke-width:1.0;"/></g><!--link Build SABR Process to Deploy SABR Build Process--><g id="link_Build SABR Process_Deploy SABR Build Process"><path d="M208,332.05 C208,352.54 208,381.23 208,401.79 " fill="none" id="Build SABR Process-to-Deploy SABR Build Process" style="stroke:#181818;stroke-width:1.0;"/><polygon fill="#181818" points="208,407.79,212,398.79,208,402.79,204,398.79,208,407.79" style="stroke:#181818;stroke-width:1.0;"/></g><!--link Security Key Generation Process to Device Provision Process--><g id="link_Security Key Generation Process_Device Provision Process"><path d="M397.28,221.05 C400.1,241.54 404.0518,270.286 406.8818,290.846 " fill="none" id="Security Key Generation Process-to-Device Provision Process" style="stroke:#181818;stroke-width:1.0;"/><polygon fill="#181818" points="407.7,296.79,410.4354,287.3286,407.0182,291.8367,402.5101,288.4195,407.7,296.79" style="stroke:#181818;stroke-width:1.0;"/></g><!--link Device Provision Process to Deploy SABR Build Process--><g id="link_Device Provision Process_Deploy SABR Build Process"><path d="M379.32,332.05 C341.24,352.6 281.9698,384.5799 243.9198,405.1199 " fill="none" id="Device Provision Process-to-Deploy SABR Build Process" style="stroke:#181818;stroke-width:1.0;"/><polygon fill="#181818" points="238.64,407.97,248.4599,407.2147,243.0399,405.5949,244.6597,400.1749,238.64,407.97" style="stroke:#181818;stroke-width:1.0;"/></g><!--link Deploy SABR Build Process to DeploySABR--><g id="link_Deploy SABR Build Process_DeploySABR"><path d="M187.92,407.79 C163.21,387.23 126.1318,356.3782 101.5118,335.8882 " fill="none" id="Deploy SABR Build Process-to-DeploySABR" style="stroke:#181818;stroke-width:1.0;"/><polygon fill="#181818" points="96.9,332.05,101.2589,340.8818,100.7432,335.2485,106.3764,334.7327,96.9,332.05" style="stroke:#181818;stroke-width:1.0;"/></g><!--SRC=[dP7FQiCm3CRlUGhXNRP13xtraa52s1XbRAnFO1Gv5JEsiPsKCFRkivk5TNJTdneia2Nzla_OIHyviZKWAkSqeyn9GmDfwyWBk53f8C9hSNbz1Ol53PHbURjCeNWh2lSvlY4JETsgIw7kJQlfGHhPVK0GLwi4cOVt957th5lOLFKpF7cB588uecBlEOvLS8HHW6FpSeIPcs1D8zoH8R_Vuf3v1Ua7HdhqkAKGKwlD3gLKIig4_ixK9DEGqtQSAbFJ2G6huavwQaYneVRUA2-JK8-nzoH0SxUD8sbjTrdkD_EpTlQS7mSEv-zs4lFF3V_qrp_W3kLoEVFV0G00]--></g></svg>