<?xml version="1.0" encoding="us-ascii" standalone="no"?><svg xmlns="http://www.w3.org/2000/svg" xmlns:xlink="http://www.w3.org/1999/xlink" contentStyleType="text/css" height="283px" preserveAspectRatio="none" style="width:307px;height:283px;background:#FFFFFF;" version="1.1" viewBox="0 0 307 283" width="307px" zoomAndPan="magnify"><defs/><g><!--cluster SecurityAspect--><g id="cluster_SecurityAspect"><polygon fill="none" points="16,6,127,6,134,29.6094,290,29.6094,290,276,16,276,16,6" style="stroke:#000000;stroke-width:1.5;"/><line style="stroke:#000000;stroke-width:1.5;" x1="16" x2="134" y1="29.6094" y2="29.6094"/><text fill="#000000" font-family="sans-serif" font-size="14" font-weight="bold" lengthAdjust="spacing" textLength="105" x="20" y="22.5332">SecurityAspect</text></g><ellipse cx="153" cy="52" fill="#222222" rx="10" ry="10" style="stroke:#222222;stroke-width:1.0;"/><rect fill="#F1F1F1" height="35.0938" rx="12.5" ry="12.5" style="stroke:#181818;stroke-width:0.5;" width="146" x="80" y="102"/><text fill="#000000" font-family="sans-serif" font-size="12" lengthAdjust="spacing" textLength="126" x="90" y="124.457">Generate RSA Key Pair</text><rect fill="#555555" height="8" style="stroke:none;stroke-width:1.0;" width="80" x="113" y="177"/><rect fill="#F1F1F1" height="35.0938" rx="12.5" ry="12.5" style="stroke:#181818;stroke-width:0.5;" width="109" x="32.5" y="225"/><text fill="#000000" font-family="sans-serif" font-size="12" lengthAdjust="spacing" textLength="89" x="42.5" y="247.457">Store Public Key</text><rect fill="#F1F1F1" height="35.0938" rx="12.5" ry="12.5" style="stroke:#181818;stroke-width:0.5;" width="112" x="162" y="225"/><text fill="#000000" font-family="sans-serif" font-size="12" lengthAdjust="spacing" textLength="92" x="172" y="247.457">Store Private Key</text><!--link start to Generate RSA Key Pair--><g id="link_start_Generate RSA Key Pair"><path d="M153,62.11 C153,72.37 153,83.27 153,95.9 " fill="none" id="start-to-Generate RSA Key Pair" style="stroke:#181818;stroke-width:1.0;"/><polygon fill="#181818" points="153,101.9,157,92.9,153,96.9,149,92.9,153,101.9" style="stroke:#181818;stroke-width:1.0;"/></g><!--link Generate RSA Key Pair to F2--><g id="link_Generate RSA Key Pair_F2"><path d="M153,137.07 C153,150.83 153,163.29 153,170.71 " fill="none" id="Generate RSA Key Pair-to-F2" style="stroke:#181818;stroke-width:1.0;"/><polygon fill="#181818" points="153,176.71,157,167.71,153,171.71,149,167.71,153,176.71" style="stroke:#181818;stroke-width:1.0;"/></g><!--link F2 to Store Public Key--><g id="link_F2_Store Public Key"><path d="M149.45,185.2 C141.31,192.54 125.2754,206.9914 109.9754,220.7914 " fill="none" id="F2-to-Store Public Key" style="stroke:#181818;stroke-width:1.0;"/><polygon fill="#181818" points="105.52,224.81,114.8822,221.7524,109.2328,221.4612,109.5241,215.8118,105.52,224.81" style="stroke:#181818;stroke-width:1.0;"/></g><!--link F2 to Store Private Key--><g id="link_F2_Store Private Key"><path d="M156.49,185.2 C164.51,192.54 180.265,206.9579 195.335,220.7579 " fill="none" id="F2-to-Store Private Key" style="stroke:#181818;stroke-width:1.0;"/><polygon fill="#181818" points="199.76,224.81,195.8239,215.7819,196.0725,221.4333,190.4211,221.6819,199.76,224.81" style="stroke:#181818;stroke-width:1.0;"/></g><!--SRC=[AqWiAiaioSpFKr0AJaqkBSeigNGiBaXDBb5IACZCorQevjBGqbJGrRLJK79FpKijIYn9LGWATbJmJgrK24ZCB5BYgkKg86W63hrWSsrjRTsCW0JG829CWgc6E2cu9ByeLI6WD2adCnbah185XXHbbe4S23K50000]--></g></svg>