<?xml version="1.0" encoding="UTF-8" standalone="no"?><svg xmlns="http://www.w3.org/2000/svg" xmlns:xlink="http://www.w3.org/1999/xlink" contentScriptType="application/ecmascript" contentStyleType="text/css" height="640px" preserveAspectRatio="none" style="width:781px;height:640px;" version="1.1" viewBox="0 0 781 640" width="781px" zoomAndPan="magnify"><defs><filter height="300%" id="f1qhbk96nh2ojh" width="300%" x="-1" y="-1"><feGaussianBlur result="blurOut" stdDeviation="2.0"/><feColorMatrix in="blurOut" result="blurOut2" type="matrix" values="0 0 0 0 0 0 0 0 0 0 0 0 0 0 0 0 0 0 .4 0"/><feOffset dx="4.0" dy="4.0" in="blurOut2" result="blurOut3"/><feBlend in="SourceGraphic" in2="blurOut3" mode="normal"/></filter></defs><g><!--cluster ITOperations--><polygon fill="#FFFFCC" filter="url(#f1qhbk96nh2ojh)" points="206,24,302,24,309,47.6094,318,47.6094,318,145,206,145,206,24" style="stroke: #000000; stroke-width: 1.5;"/><line style="stroke: #000000; stroke-width: 1.5;" x1="206" x2="309" y1="47.6094" y2="47.6094"/><text fill="#000000" font-family="sans-serif" font-size="14" font-weight="bold" lengthAdjust="spacingAndGlyphs" textLength="90" x="210" y="40.5332">ITOperations</text><!--cluster Common Physical Layer--><polygon fill="#BBBBBB" filter="url(#f1qhbk96nh2ojh)" points="102,178,272,178,279,201.6094,424,201.6094,424,265,102,265,102,178" style="stroke: #000000; stroke-width: 1.5;"/><line style="stroke: #000000; stroke-width: 1.5;" x1="102" x2="279" y1="201.6094" y2="201.6094"/><text fill="#000000" font-family="sans-serif" font-size="14" font-weight="bold" lengthAdjust="spacingAndGlyphs" textLength="164" x="106" y="194.5332">Common Physical Layer</text><!--cluster DevOps Engineer--><polygon fill="#FFFFCC" filter="url(#f1qhbk96nh2ojh)" points="549,178,679,178,686,201.6094,689,201.6094,689,265,549,265,549,178" style="stroke: #000000; stroke-width: 1.5;"/><line style="stroke: #000000; stroke-width: 1.5;" x1="549" x2="686" y1="201.6094" y2="201.6094"/><text fill="#000000" font-family="sans-serif" font-size="14" font-weight="bold" lengthAdjust="spacingAndGlyphs" textLength="124" x="553" y="194.5332">DevOps Engineer</text><!--cluster Security Aspect--><polygon fill="#FFFFFF" filter="url(#f1qhbk96nh2ojh)" points="22,298,137,298,144,321.6094,394,321.6094,394,385,22,385,22,298" style="stroke: #000000; stroke-width: 1.5;"/><line style="stroke: #000000; stroke-width: 1.5;" x1="22" x2="144" y1="321.6094" y2="321.6094"/><text fill="#000000" font-family="sans-serif" font-size="14" font-weight="bold" lengthAdjust="spacingAndGlyphs" textLength="109" x="26" y="314.5332">Security Aspect</text><!--cluster Capability Manager--><polygon fill="#00AAFF" filter="url(#f1qhbk96nh2ojh)" points="418,298,558,298,565,321.6094,759,321.6094,759,628,418,628,418,298" style="stroke: #000000; stroke-width: 1.5;"/><line style="stroke: #000000; stroke-width: 1.5;" x1="418" x2="565" y1="321.6094" y2="321.6094"/><text fill="#000000" font-family="sans-serif" font-size="14" font-weight="bold" lengthAdjust="spacingAndGlyphs" textLength="134" x="422" y="314.5332">Capability Manager</text><ellipse cx="262" cy="70" fill="#000000" filter="url(#f1qhbk96nh2ojh)" rx="10" ry="10" style="stroke: none; stroke-width: 1.0;"/><rect fill="#000000" filter="url(#f1qhbk96nh2ojh)" height="8" style="stroke: none; stroke-width: 1.0;" width="80" x="222" y="121"/><rect fill="#FEFECE" filter="url(#f1qhbk96nh2ojh)" height="35.0938" rx="12.5" ry="12.5" style="stroke: #A80036; stroke-width: 1.5;" width="107" x="118.5" y="214"/><text fill="#000000" font-family="sans-serif" font-size="12" lengthAdjust="spacingAndGlyphs" textLength="87" x="128.5" y="236.457">Attest Hardware</text><rect fill="#FEFECE" filter="url(#f1qhbk96nh2ojh)" height="35.0938" rx="12.5" ry="12.5" style="stroke: #A80036; stroke-width: 1.5;" width="162" x="246" y="214"/><text fill="#000000" font-family="sans-serif" font-size="12" lengthAdjust="spacingAndGlyphs" textLength="142" x="256" y="236.457">Deploy Attested Hardware</text><rect fill="#FEFECE" filter="url(#f1qhbk96nh2ojh)" height="35.0938" rx="12.5" ry="12.5" style="stroke: #A80036; stroke-width: 1.5;" width="83" x="577.5" y="214"/><text fill="#000000" font-family="sans-serif" font-size="12" lengthAdjust="spacingAndGlyphs" textLength="63" x="587.5" y="236.457">Build SABR</text><rect fill="#FEFECE" filter="url(#f1qhbk96nh2ojh)" height="35.0938" rx="12.5" ry="12.5" style="stroke: #A80036; stroke-width: 1.5;" width="158" x="38" y="334"/><text fill="#000000" font-family="sans-serif" font-size="12" lengthAdjust="spacingAndGlyphs" textLength="138" x="48" y="356.457">Generate Hardware Keys</text><rect fill="#FEFECE" filter="url(#f1qhbk96nh2ojh)" height="35.0938" rx="12.5" ry="12.5" style="stroke: #A80036; stroke-width: 1.5;" width="161" x="216.5" y="334"/><text fill="#000000" font-family="sans-serif" font-size="12" lengthAdjust="spacingAndGlyphs" textLength="141" x="226.5" y="356.457">Generate Attestation Keys</text><rect fill="#FEFECE" filter="url(#f1qhbk96nh2ojh)" height="35.0938" rx="12.5" ry="12.5" style="stroke: #A80036; stroke-width: 1.5;" width="165" x="434.5" y="577"/><text fill="#000000" font-family="sans-serif" font-size="12" lengthAdjust="spacingAndGlyphs" textLength="145" x="444.5" y="599.457">Deploy Capability Release</text><rect fill="#FEFECE" filter="url(#f1qhbk96nh2ojh)" height="35.0938" rx="12.5" ry="12.5" style="stroke: #A80036; stroke-width: 1.5;" width="105" x="600.5" y="334"/><text fill="#000000" font-family="sans-serif" font-size="12" lengthAdjust="spacingAndGlyphs" textLength="85" x="610.5" y="356.457">Build Capability</text><rect fill="#FEFECE" filter="url(#f1qhbk96nh2ojh)" height="35.0938" rx="12.5" ry="12.5" style="stroke: #A80036; stroke-width: 1.5;" width="128" x="452" y="334"/><text fill="#000000" font-family="sans-serif" font-size="12" lengthAdjust="spacingAndGlyphs" textLength="108" x="462" y="356.457">Provision Capability</text><rect fill="#FEFECE" filter="url(#f1qhbk96nh2ojh)" height="35.0938" rx="12.5" ry="12.5" style="stroke: #A80036; stroke-width: 1.5;" width="107" x="463.5" y="422"/><text fill="#000000" font-family="sans-serif" font-size="12" lengthAdjust="spacingAndGlyphs" textLength="87" x="473.5" y="444.457">Attest Capability</text><polygon fill="#FEFECE" filter="url(#f1qhbk96nh2ojh)" points="517,498,529,510,517,522,505,510,517,498" style="stroke: #A80036; stroke-width: 1.5;"/><rect fill="#FEFECE" filter="url(#f1qhbk96nh2ojh)" height="35.0938" rx="12.5" ry="12.5" style="stroke: #A80036; stroke-width: 1.5;" width="123" x="619.5" y="577"/><text fill="#000000" font-family="sans-serif" font-size="12" lengthAdjust="spacingAndGlyphs" textLength="103" x="629.5" y="599.457">Failed Deployment</text><!--link start to F1--><path d="M262,80.232 C262,90.253 262,106.108 262,115.734 " fill="none" id="start-F1" style="stroke: #A80036; stroke-width: 1.0;"/><polygon fill="#A80036" points="262,120.814,266,111.814,262,115.814,258,111.814,262,120.814" style="stroke: #A80036; stroke-width: 1.0;"/><!--link F1 to Attest Hardware--><path d="M259.404,129.015 C249.336,140.704 212.322,183.681 189.816,209.813 " fill="none" id="F1-Attest Hardware" style="stroke: #A80036; stroke-width: 1.0;"/><polygon fill="#A80036" points="186.335,213.855,195.2391,209.6458,189.5979,210.0664,189.1773,204.4252,186.335,213.855" style="stroke: #A80036; stroke-width: 1.0;"/><!--link F1 to Build SABR--><path d="M273.601,129.097 C299.891,136.14 366,153.99 421,170 C473.067,185.156 532.531,203.46 572.591,215.938 " fill="none" id="F1-Build SABR" style="stroke: #A80036; stroke-width: 1.0;"/><polygon fill="#A80036" points="577.378,217.431,569.9771,210.9328,572.6048,215.9423,567.5952,218.5699,577.378,217.431" style="stroke: #A80036; stroke-width: 1.0;"/><!--link Attest Hardware to Generate Hardware Keys--><path d="M164.236,249.156 C154.45,270.152 137.616,306.269 126.911,329.237 " fill="none" id="Attest Hardware-Generate Hardware Keys" style="stroke: #A80036; stroke-width: 1.0;"/><polygon fill="#A80036" points="124.724,333.928,132.1518,327.4606,126.8364,329.3961,124.9008,324.0807,124.724,333.928" style="stroke: #A80036; stroke-width: 1.0;"/><!--link Generate Hardware Keys to Deploy Attested Hardware--><path d="M139.429,333.837 C157.064,321.089 182.494,303.468 206,290 C231.068,275.637 260.297,261.674 283.748,251.105 " fill="none" id="Generate Hardware Keys-Deploy Attested Hardware" style="stroke: #A80036; stroke-width: 1.0;"/><polygon fill="#A80036" points="288.358,249.038,278.5092,249.0711,283.7958,251.0841,281.7829,256.3707,288.358,249.038" style="stroke: #A80036; stroke-width: 1.0;"/><!--link Deploy Attested Hardware to Deploy Capability Release--><path d="M352.686,249.146 C380.518,269.43 421,306.498 421,350.5 C421,350.5 421,350.5 421,511 C421,539.963 446.445,560.9707 471.135,574.5376 " fill="none" id="Deploy Attested Hardware-Deploy Capability Release" style="stroke: #A80036; stroke-width: 1.0;"/><polygon fill="#A80036" points="475.73,576.9845,469.666,569.2238,471.3167,574.6345,465.906,576.2851,475.73,576.9845" style="stroke: #A80036; stroke-width: 1.0;"/><!--link Build SABR to Build Capability--><path d="M623.799,249.156 C629.824,270.064 640.168,305.967 646.79,328.948 " fill="none" id="Build SABR-Build Capability" style="stroke: #A80036; stroke-width: 1.0;"/><polygon fill="#A80036" points="648.225,333.928,649.5768,324.1724,646.8406,329.1235,641.8895,326.3873,648.225,333.928" style="stroke: #A80036; stroke-width: 1.0;"/><!--link Build Capability to Generate Attestation Keys--><path d="M641.264,333.765 C628.566,316.425 606.534,291.253 580,281.5 C548.922,270.076 463.157,273.607 431,281.5 C392.205,291.022 352.177,313.964 326.093,331.003 " fill="none" id="Build Capability-Generate Attestation Keys" style="stroke: #A80036; stroke-width: 1.0;"/><polygon fill="#A80036" points="321.709,333.897,331.4238,332.2775,325.882,331.1426,327.0168,325.6008,321.709,333.897" style="stroke: #A80036; stroke-width: 1.0;"/><!--link Generate Attestation Keys to Provision Capability--><path d="M377.842,351.5 C400.754,351.5 423.667,351.5 446.579,351.5 " fill="none" id="Generate Attestation Keys-Provision Capability" style="stroke: #A80036; stroke-width: 1.0;"/><polygon fill="#A80036" points="451.778,351.5,442.778,347.5,446.778,351.5,442.778,355.5,451.778,351.5" style="stroke: #A80036; stroke-width: 1.0;"/><!--link Provision Capability to Attest Capability--><path d="M516.193,369.082 C516.351,382.645 516.575,401.933 516.747,416.737 " fill="none" id="Provision Capability-Attest Capability" style="stroke: #A80036; stroke-width: 1.0;"/><polygon fill="#A80036" points="516.808,421.969,520.7023,412.9228,516.7494,416.9693,512.7028,413.0165,516.808,421.969" style="stroke: #A80036; stroke-width: 1.0;"/><!--link Attest Capability to #5935--><path d="M517,457.082 C517,467.872 517,481.883 517,492.63 " fill="none" id="Attest Capability-#5935" style="stroke: #A80036; stroke-width: 1.0;"/><polygon fill="#A80036" points="517,497.918,521,488.918,517,492.918,513,488.918,517,497.918" style="stroke: #A80036; stroke-width: 1.0;"/><text fill="#000000" font-family="sans-serif" font-size="11" lengthAdjust="spacingAndGlyphs" textLength="84" x="412.525" y="487.482">Attestation match</text><!--link #5935 to Deploy Capability Release--><path d="M517,522.126 C517,534.771 517,555.7201 517,571.6601 " fill="none" id="#5935-Deploy Capability Release" style="stroke: #A80036; stroke-width: 1.0;"/><polygon fill="#A80036" points="517,576.8545,521,567.8545,517,571.8545,513,567.8545,517,576.8545" style="stroke: #A80036; stroke-width: 1.0;"/><text fill="#000000" font-family="sans-serif" font-size="11" lengthAdjust="spacingAndGlyphs" textLength="19" x="518" y="554.4189">true</text><!--link #5935 to Failed Deployment--><path d="M524.473,514.759 C545.127,525.149 604.056,554.7935 643.422,574.5964 " fill="none" id="#5935-Failed Deployment" style="stroke: #A80036; stroke-width: 1.0;"/><polygon fill="#A80036" points="648.122,576.9606,641.8798,569.3426,643.6554,574.7135,638.2844,576.4891,648.122,576.9606" style="stroke: #A80036; stroke-width: 1.0;"/><text fill="#000000" font-family="sans-serif" font-size="11" lengthAdjust="spacingAndGlyphs" textLength="24" x="604" y="554.4189">false</text><!--
@startuml
partition "ITOperations" #ffffcc {
(*) - -> ===F1===
}

partition "Common Physical Layer" #bbbbbb {
===F1=== - -> "Attest Hardware"
}

partition "DevOps Engineer" #ffffcc {
===F1=== - -> "Build SABR"
}
partition "Security Aspect" pink {
"Attest Hardware" - -> "Generate Hardware Keys"
}
partition "Common Physical Layer" #bbbbbb {
"Generate Hardware Keys" - -> "Deploy Attested Hardware"
}
partition "Capability Manager" #00aaff {
"Deploy Attested Hardware" - -> "Deploy Capability Release"
}
partition "Capability Manager" #00aaff {
"Build SABR" - -> "Build Capability"
}
partition "Security Aspect" pink {
"Build Capability" - -> "Generate Attestation Keys"
}
partition "Capability Manager" #00aaff {
"Generate Attestation Keys" - -> "Provision Capability"
}
partition "Capability Manager" #00aaff {
"Provision Capability" - -> "Attest Capability"
}
partition "Capability Manager" #00aaff {
"Attest Capability" - -> if "Attestation match" then
}
partition "Capability Manager" #00aaff {
else
- -> [true] "Deploy Capability Release"
}
partition "Capability Manager" #00aaff {
else
- -> [false] "Failed Deployment"
}

@enduml

PlantUML version 1.2019.05(Sat Apr 20 09:45:36 PDT 2019)
(GPL source distribution)
Java Runtime: Java(TM) SE Runtime Environment
JVM: Java HotSpot(TM) Client VM
Java Version: 1.8.0_271-b09
Operating System: Windows 10
OS Version: 10.0
Default Encoding: Cp1252
Language: en
Country: US
--></g></svg>