<?xml version="1.0" encoding="us-ascii" standalone="no"?><svg xmlns="http://www.w3.org/2000/svg" xmlns:xlink="http://www.w3.org/1999/xlink" contentStyleType="text/css" height="617px" preserveAspectRatio="none" style="width:720px;height:617px;background:#FFFFFF;" version="1.1" viewBox="0 0 720 617" width="720px" zoomAndPan="magnify"><defs/><g><!--cluster ITOperations--><g id="cluster_ITOperations"><polygon fill="#FFFFCC" points="177,6,273,6,280,29.6094,289,29.6094,289,127,177,127,177,6" style="stroke:#000000;stroke-width:1.5;"/><line style="stroke:#000000;stroke-width:1.5;" x1="177" x2="280" y1="29.6094" y2="29.6094"/><text fill="#000000" font-family="sans-serif" font-size="14" font-weight="bold" lengthAdjust="spacing" textLength="90" x="181" y="22.5332">ITOperations</text></g><!--cluster Common Physical Layer--><g id="cluster_Common Physical Layer"><polygon fill="#BBBBBB" points="16,280,186,280,193,303.6094,338,303.6094,338,367,16,367,16,280" style="stroke:#000000;stroke-width:1.5;"/><line style="stroke:#000000;stroke-width:1.5;" x1="16" x2="193" y1="303.6094" y2="303.6094"/><text fill="#000000" font-family="sans-serif" font-size="14" font-weight="bold" lengthAdjust="spacing" textLength="164" x="20" y="296.5332">Common Physical Layer</text></g><!--cluster DevOps Engineer--><g id="cluster_DevOps Engineer"><polygon fill="#FFFFCC" points="532,160,662,160,669,183.6094,672,183.6094,672,247,532,247,532,160" style="stroke:#000000;stroke-width:1.5;"/><line style="stroke:#000000;stroke-width:1.5;" x1="532" x2="669" y1="183.6094" y2="183.6094"/><text fill="#000000" font-family="sans-serif" font-size="14" font-weight="bold" lengthAdjust="spacing" textLength="124" x="536" y="176.5332">DevOps Engineer</text></g><!--cluster Security Aspect--><g id="cluster_Security Aspect"><polygon fill="none" points="136,160,251,160,258,183.6094,508,183.6094,508,247,136,247,136,160" style="stroke:#000000;stroke-width:1.5;"/><line style="stroke:#000000;stroke-width:1.5;" x1="136" x2="258" y1="183.6094" y2="183.6094"/><text fill="#000000" font-family="sans-serif" font-size="14" font-weight="bold" lengthAdjust="spacing" textLength="109" x="140" y="176.5332">Security Aspect</text></g><!--cluster Capability Manager--><g id="cluster_Capability Manager"><polygon fill="#00AAFF" points="362,280,502,280,509,303.6094,703,303.6094,703,610,362,610,362,280" style="stroke:#000000;stroke-width:1.5;"/><line style="stroke:#000000;stroke-width:1.5;" x1="362" x2="509" y1="303.6094" y2="303.6094"/><text fill="#000000" font-family="sans-serif" font-size="14" font-weight="bold" lengthAdjust="spacing" textLength="134" x="366" y="296.5332">Capability Manager</text></g><ellipse cx="233" cy="52" fill="#222222" rx="10" ry="10" style="stroke:#222222;stroke-width:1.0;"/><rect fill="#555555" height="8" style="stroke:none;stroke-width:1.0;" width="80" x="193" y="103"/><rect fill="#F1F1F1" height="35.0938" rx="12.5" ry="12.5" style="stroke:#181818;stroke-width:0.5;" width="107" x="32.5" y="316"/><text fill="#000000" font-family="sans-serif" font-size="12" lengthAdjust="spacing" textLength="87" x="42.5" y="338.457">Attest Hardware</text><rect fill="#F1F1F1" height="35.0938" rx="12.5" ry="12.5" style="stroke:#181818;stroke-width:0.5;" width="162" x="160" y="316"/><text fill="#000000" font-family="sans-serif" font-size="12" lengthAdjust="spacing" textLength="142" x="170" y="338.457">Deploy Attested Hardware</text><rect fill="#F1F1F1" height="35.0938" rx="12.5" ry="12.5" style="stroke:#181818;stroke-width:0.5;" width="83" x="548.5" y="196"/><text fill="#000000" font-family="sans-serif" font-size="12" lengthAdjust="spacing" textLength="63" x="558.5" y="218.457">Build SABR</text><rect fill="#F1F1F1" height="35.0938" rx="12.5" ry="12.5" style="stroke:#181818;stroke-width:0.5;" width="158" x="152" y="196"/><text fill="#000000" font-family="sans-serif" font-size="12" lengthAdjust="spacing" textLength="138" x="162" y="218.457">Generate Hardware Keys</text><rect fill="#F1F1F1" height="35.0938" rx="12.5" ry="12.5" style="stroke:#181818;stroke-width:0.5;" width="161" x="330.5" y="196"/><text fill="#000000" font-family="sans-serif" font-size="12" lengthAdjust="spacing" textLength="141" x="340.5" y="218.457">Generate Attestation Keys</text><rect fill="#F1F1F1" height="35.0938" rx="12.5" ry="12.5" style="stroke:#181818;stroke-width:0.5;" width="165" x="378.5" y="559"/><text fill="#000000" font-family="sans-serif" font-size="12" lengthAdjust="spacing" textLength="145" x="388.5" y="581.457">Deploy Capability Release</text><rect fill="#F1F1F1" height="35.0938" rx="12.5" ry="12.5" style="stroke:#181818;stroke-width:0.5;" width="105" x="529.5" y="316"/><text fill="#000000" font-family="sans-serif" font-size="12" lengthAdjust="spacing" textLength="85" x="539.5" y="338.457">Build Capability</text><rect fill="#F1F1F1" height="35.0938" rx="12.5" ry="12.5" style="stroke:#181818;stroke-width:0.5;" width="128" x="380" y="316"/><text fill="#000000" font-family="sans-serif" font-size="12" lengthAdjust="spacing" textLength="108" x="390" y="338.457">Provision Capability</text><rect fill="#F1F1F1" height="35.0938" rx="12.5" ry="12.5" style="stroke:#181818;stroke-width:0.5;" width="107" x="400.5" y="404"/><text fill="#000000" font-family="sans-serif" font-size="12" lengthAdjust="spacing" textLength="87" x="410.5" y="426.457">Attest Capability</text><g id="elem_#28"><polygon fill="#F1F1F1" points="461,480,473,492,461,504,449,492,461,480" style="stroke:#181818;stroke-width:0.5;"/></g><rect fill="#F1F1F1" height="35.0938" rx="12.5" ry="12.5" style="stroke:#181818;stroke-width:0.5;" width="123" x="563.5" y="559"/><text fill="#000000" font-family="sans-serif" font-size="12" lengthAdjust="spacing" textLength="103" x="573.5" y="581.457">Failed Deployment</text><!--link start to F1--><g id="link_start_F1"><path d="M233,62.23 C233,74.33 233,88.94 233,96.81 " fill="none" id="start-to-F1" style="stroke:#181818;stroke-width:1.0;"/><polygon fill="#181818" points="233,102.81,237,93.81,233,97.81,229,93.81,233,102.81" style="stroke:#181818;stroke-width:1.0;"/></g><!--link F1 to Attest Hardware--><g id="link_F1_Attest Hardware"><path d="M217.6,111.07 C196.76,116.03 159.77,127.8 139,152 C97.1,200.82 88.6174,275.3984 86.7874,309.9484 " fill="none" id="F1-to-Attest Hardware" style="stroke:#181818;stroke-width:1.0;"/><polygon fill="#181818" points="86.47,315.94,90.9404,307.1642,86.7345,310.947,82.9516,306.741,86.47,315.94" style="stroke:#181818;stroke-width:1.0;"/></g><!--link F1 to Build SABR--><g id="link_F1_Build SABR"><path d="M273.27,108.84 C327.76,111.22 427.11,120.03 505,152 C530.47,162.45 551.1145,177.9035 567.3745,191.9135 " fill="none" id="F1-to-Build SABR" style="stroke:#181818;stroke-width:1.0;"/><polygon fill="#181818" points="571.92,195.83,567.7128,186.925,568.1321,192.5663,562.4908,192.9856,571.92,195.83" style="stroke:#181818;stroke-width:1.0;"/></g><!--link Attest Hardware to Generate Hardware Keys--><g id="link_Attest Hardware_Generate Hardware Keys"><path d="M102.26,315.91 C114.86,303.37 132.98,285.97 150,272 C167.86,257.34 184.2508,245.6326 200.5508,234.6026 " fill="none" id="Attest Hardware-to-Generate Hardware Keys" style="stroke:#181818;stroke-width:1.0;"/><polygon fill="#181818" points="205.52,231.24,195.8245,232.9711,201.379,234.0422,200.3079,239.5967,205.52,231.24" style="stroke:#181818;stroke-width:1.0;"/></g><!--link Generate Hardware Keys to Deploy Attested Hardware--><g id="link_Generate Hardware Keys_Deploy Attested Hardware"><path d="M232.41,231.16 C234.32,253.65 237.1814,287.5016 239.0914,309.9516 " fill="none" id="Generate Hardware Keys-to-Deploy Attested Hardware" style="stroke:#181818;stroke-width:1.0;"/><polygon fill="#181818" points="239.6,315.93,242.8227,306.6233,239.1761,310.948,234.8515,307.3015,239.6,315.93" style="stroke:#181818;stroke-width:1.0;"/></g><!--link Deploy Attested Hardware to Deploy Capability Release--><g id="link_Deploy Attested Hardware_Deploy Capability Release"><path d="M256.12,351.06 C296.31,395.09 401.4149,510.2286 441.7249,554.3886 " fill="none" id="Deploy Attested Hardware-to-Deploy Capability Release" style="stroke:#181818;stroke-width:1.0;"/><polygon fill="#181818" points="445.77,558.82,442.6567,549.4762,442.3991,555.1272,436.7481,554.8696,445.77,558.82" style="stroke:#181818;stroke-width:1.0;"/></g><!--link Build SABR to Build Capability--><g id="link_Build SABR_Build Capability"><path d="M588.87,231.16 C587.35,253.65 585.058,287.4939 583.528,309.9439 " fill="none" id="Build SABR-to-Build Capability" style="stroke:#181818;stroke-width:1.0;"/><polygon fill="#181818" points="583.12,315.93,587.7227,307.2228,583.46,310.9416,579.7412,306.6789,583.12,315.93" style="stroke:#181818;stroke-width:1.0;"/></g><!--link Build Capability to Generate Attestation Keys--><g id="link_Build Capability_Generate Attestation Keys"><path d="M566.73,315.83 C554.37,302.91 536.1,285.06 518,272 C495.94,256.08 474.3301,244.2357 452.9801,233.7957 " fill="none" id="Build Capability-to-Generate Attestation Keys" style="stroke:#181818;stroke-width:1.0;"/><polygon fill="#181818" points="447.59,231.16,453.918,238.707,452.0817,233.3564,457.4323,231.5202,447.59,231.16" style="stroke:#181818;stroke-width:1.0;"/></g><!--link Generate Attestation Keys to Provision Capability--><g id="link_Generate Attestation Keys_Provision Capability"><path d="M415.66,231.16 C421.95,253.65 431.4737,287.7018 437.7537,310.1518 " fill="none" id="Generate Attestation Keys-to-Provision Capability" style="stroke:#181818;stroke-width:1.0;"/><polygon fill="#181818" points="439.37,315.93,440.7976,306.1852,438.023,311.1148,433.0934,308.3403,439.37,315.93" style="stroke:#181818;stroke-width:1.0;"/></g><!--link Provision Capability to Attest Capability--><g id="link_Provision Capability_Attest Capability"><path d="M445.93,351.08 C447.7,366.31 449.6165,382.8002 451.3865,398.0102 " fill="none" id="Provision Capability-to-Attest Capability" style="stroke:#181818;stroke-width:1.0;"/><polygon fill="#181818" points="452.08,403.97,455.0129,394.568,451.502,399.0035,447.0665,395.4927,452.08,403.97" style="stroke:#181818;stroke-width:1.0;"/></g><!--link Attest Capability to #28--><g id="link_Attest Capability_#28"><path d="M455.69,439.08 C457.02,452.07 458.2233,463.7508 459.3433,474.7708 " fill="none" id="Attest Capability-to-#28" style="stroke:#181818;stroke-width:1.0;"/><polygon fill="#181818" points="459.95,480.74,463.0195,471.3817,459.4444,475.7656,455.0605,472.1906,459.95,480.74" style="stroke:#181818;stroke-width:1.0;"/><text fill="#000000" font-family="sans-serif" font-size="11" lengthAdjust="spacing" textLength="84" x="357.1156" y="471.5718">Attestation match</text></g><!--link #28 to Deploy Capability Release--><g id="link_#28_Deploy Capability Release"><path d="M461,504.13 C461,518.2 461,536.56 461,552.85 " fill="none" id="#28-to-Deploy Capability Release" style="stroke:#181818;stroke-width:1.0;"/><polygon fill="#181818" points="461,558.85,465,549.85,461,553.85,457,549.85,461,558.85" style="stroke:#181818;stroke-width:1.0;"/><text fill="#000000" font-family="sans-serif" font-size="11" lengthAdjust="spacing" textLength="19" x="462" y="536.4189">true</text></g><!--link #28 to Failed Deployment--><g id="link_#28_Failed Deployment"><path d="M468.47,496.76 C489.97,507.57 547.5497,536.5441 586.7597,556.2641 " fill="none" id="#28-to-Failed Deployment" style="stroke:#181818;stroke-width:1.0;"/><polygon fill="#181818" points="592.12,558.96,585.8768,551.3427,587.6531,556.7135,582.2824,558.4897,592.12,558.96" style="stroke:#181818;stroke-width:1.0;"/><text fill="#000000" font-family="sans-serif" font-size="11" lengthAdjust="spacing" textLength="24" x="548" y="536.4189">false</text></g><!--SRC=[hP9VIyCm5CNV-oakzKM5mVm05JhdL5GsDj_4XxlkTWkcQKZIIH6_kqdAjdPTdHFpq3-1ypld7gv4PPXXkO3muMKiIQ7xqI6SfVOa2Nm6vvSNqEjTGnH5eolx2Bw2GEvaDtcMsVTaLMgM88SdB4bP_TmVgz_eF2ICZI5ju1xLuWCLXNkq8Qt7KiEjM391dhFDqUGC2iONC8i7KuUe4MQK58gP4c8jAJ4XI2RUhRpbN77kIBYXQNiFZrJgFURH6RimbSUG9Czj81-05etXwoueSSwuo_wC0fVUejz7J5DdqKbfcDGWK-A4-aINMg_redUgtzRTqktrNStXr-rWvJ_7xCPKDXELhvbsbvt9ZpWS93Hs-A_ajjnZMReXLzDaQ99L26P5uXGySKs1uxqQLT3RVot63fkY_RJS4J9krx32PoICutq3]--></g></svg>