<?xml version="1.0" encoding="UTF-8" standalone="no"?><svg xmlns="http://www.w3.org/2000/svg" xmlns:xlink="http://www.w3.org/1999/xlink" contentScriptType="application/ecmascript" contentStyleType="text/css" height="306px" preserveAspectRatio="none" style="width:318px;height:306px;" version="1.1" viewBox="0 0 318 306" width="318px" zoomAndPan="magnify"><defs><filter height="300%" id="fvjs4zhv4gdhq" width="300%" x="-1" y="-1"><feGaussianBlur result="blurOut" stdDeviation="2.0"/><feColorMatrix in="blurOut" result="blurOut2" type="matrix" values="0 0 0 0 0 0 0 0 0 0 0 0 0 0 0 0 0 0 .4 0"/><feOffset dx="4.0" dy="4.0" in="blurOut2" result="blurOut3"/><feBlend in="SourceGraphic" in2="blurOut3" mode="normal"/></filter></defs><g><!--cluster SecurityAspect--><polygon fill="#FFFFFF" filter="url(#fvjs4zhv4gdhq)" points="22,24,133,24,140,47.6094,296,47.6094,296,294,22,294,22,24" style="stroke: #000000; stroke-width: 1.5;"/><line style="stroke: #000000; stroke-width: 1.5;" x1="22" x2="140" y1="47.6094" y2="47.6094"/><text fill="#000000" font-family="sans-serif" font-size="14" font-weight="bold" lengthAdjust="spacingAndGlyphs" textLength="105" x="26" y="40.5332">SecurityAspect</text><ellipse cx="159" cy="70" fill="#000000" filter="url(#fvjs4zhv4gdhq)" rx="10" ry="10" style="stroke: none; stroke-width: 1.0;"/><rect fill="#FEFECE" filter="url(#fvjs4zhv4gdhq)" height="35.0938" rx="12.5" ry="12.5" style="stroke: #A80036; stroke-width: 1.5;" width="146" x="86" y="120"/><text fill="#000000" font-family="sans-serif" font-size="12" lengthAdjust="spacingAndGlyphs" textLength="126" x="96" y="142.457">Generate RSA Key Pair</text><rect fill="#000000" filter="url(#fvjs4zhv4gdhq)" height="8" style="stroke: none; stroke-width: 1.0;" width="80" x="119" y="195"/><rect fill="#FEFECE" filter="url(#fvjs4zhv4gdhq)" height="35.0938" rx="12.5" ry="12.5" style="stroke: #A80036; stroke-width: 1.5;" width="109" x="38.5" y="243"/><text fill="#000000" font-family="sans-serif" font-size="12" lengthAdjust="spacingAndGlyphs" textLength="89" x="48.5" y="265.457">Store Public Key</text><rect fill="#FEFECE" filter="url(#fvjs4zhv4gdhq)" height="35.0938" rx="12.5" ry="12.5" style="stroke: #A80036; stroke-width: 1.5;" width="112" x="168" y="243"/><text fill="#000000" font-family="sans-serif" font-size="12" lengthAdjust="spacingAndGlyphs" textLength="92" x="178" y="265.457">Store Private Key</text><!--link start to Generate RSA Key Pair--><path d="M159,80.107 C159,89.009 159,102.899 159,114.666 " fill="none" id="start-Generate RSA Key Pair" style="stroke: #A80036; stroke-width: 1.0;"/><polygon fill="#A80036" points="159,119.898,163,110.898,159,114.898,155,110.898,159,119.898" style="stroke: #A80036; stroke-width: 1.0;"/><!--link Generate RSA Key Pair to F2--><path d="M159,155.074 C159,166.249 159,180.533 159,189.477 " fill="none" id="Generate RSA Key Pair-F2" style="stroke: #A80036; stroke-width: 1.0;"/><polygon fill="#A80036" points="159,194.711,163,185.711,159,189.711,155,185.711,159,194.711" style="stroke: #A80036; stroke-width: 1.0;"/><!--link F2 to Store Public Key--><path d="M155.452,203.199 C148.011,209.906 130.252,225.9167 115.566,239.1564 " fill="none" id="F2-Store Public Key" style="stroke: #A80036; stroke-width: 1.0;"/><polygon fill="#A80036" points="111.516,242.8072,120.8786,239.7508,115.2293,239.4589,115.5213,233.8096,111.516,242.8072" style="stroke: #A80036; stroke-width: 1.0;"/><!--link F2 to Store Private Key--><path d="M162.495,203.199 C169.822,209.906 187.312,225.9167 201.776,239.1564 " fill="none" id="F2-Store Private Key" style="stroke: #A80036; stroke-width: 1.0;"/><polygon fill="#A80036" points="205.764,242.8072,201.8276,233.7792,202.0764,239.4306,196.425,239.6793,205.764,242.8072" style="stroke: #A80036; stroke-width: 1.0;"/><!--
@startuml
partition "SecurityAspect" pink {
(*) - -> "Generate RSA Key Pair"
}
partition "SecurityAspect" pink {
"Generate RSA Key Pair" - -> ===F2===
}

partition "SecurityAspect" pink {
===F2=== - -> "Store Public Key"
}

partition "SecurityAspect" pink {
===F2=== - -> "Store Private Key"
}

@enduml

PlantUML version 1.2019.05(Sat Apr 20 09:45:36 PDT 2019)
(GPL source distribution)
Java Runtime: Java(TM) SE Runtime Environment
JVM: Java HotSpot(TM) Client VM
Java Version: 1.8.0_271-b09
Operating System: Windows 10
OS Version: 10.0
Default Encoding: Cp1252
Language: en
Country: US
--></g></svg>