<?xml version="1.0" encoding="us-ascii" standalone="no"?><svg xmlns="http://www.w3.org/2000/svg" xmlns:xlink="http://www.w3.org/1999/xlink" contentStyleType="text/css" height="676px" preserveAspectRatio="none" style="width:403px;height:676px;background:#FFFFFF;" version="1.1" viewBox="0 0 403 676" width="403px" zoomAndPan="magnify"><defs/><g><!--cluster Learning Corpus--><g id="cluster_Learning Corpus"><path d="M48,60 L166,60 A3.75,3.75 0 0 1 168.5,62.5 L175.5,83.6094 L394,83.6094 A2.5,2.5 0 0 1 396.5,86.1094 L396.5,666.5 A2.5,2.5 0 0 1 394,669 L48,669 A2.5,2.5 0 0 1 45.5,666.5 L45.5,62.5 A2.5,2.5 0 0 1 48,60 " fill="#00AAFF" style="stroke:#000000;stroke-width:1.5;"/><line style="stroke:#000000;stroke-width:1.5;" x1="45.5" x2="175.5" y1="83.6094" y2="83.6094"/><text fill="#000000" font-family="sans-serif" font-size="14" font-weight="bold" lengthAdjust="spacing" textLength="117" x="49.5" y="76.5332">Learning Corpus</text></g><!--cluster bin--><g id="cluster_bin"><path d="M72,104 L95,104 A3.75,3.75 0 0 1 97.5,106.5 L104.5,127.6094 L211,127.6094 A2.5,2.5 0 0 1 213.5,130.1094 L213.5,201.5 A2.5,2.5 0 0 1 211,204 L72,204 A2.5,2.5 0 0 1 69.5,201.5 L69.5,106.5 A2.5,2.5 0 0 1 72,104 " fill="#FFFFFF" style="stroke:#000000;stroke-width:1.5;"/><line style="stroke:#000000;stroke-width:1.5;" x1="69.5" x2="104.5" y1="127.6094" y2="127.6094"/><text fill="#000000" font-family="sans-serif" font-size="14" font-weight="bold" lengthAdjust="spacing" textLength="22" x="73.5" y="120.5332">bin</text></g><!--cluster deploy--><g id="cluster_deploy"><path d="M73,320 L121,320 A3.75,3.75 0 0 1 123.5,322.5 L130.5,343.6094 L291,343.6094 A2.5,2.5 0 0 1 293.5,346.1094 L293.5,424.5 A2.5,2.5 0 0 1 291,427 L73,427 A2.5,2.5 0 0 1 70.5,424.5 L70.5,322.5 A2.5,2.5 0 0 1 73,320 " fill="#FFFFFF" style="stroke:#000000;stroke-width:1.5;"/><line style="stroke:#000000;stroke-width:1.5;" x1="70.5" x2="130.5" y1="343.6094" y2="343.6094"/><text fill="#000000" font-family="sans-serif" font-size="14" font-weight="bold" lengthAdjust="spacing" textLength="47" x="74.5" y="336.5332">deploy</text></g><!--cluster images--><g id="cluster_images"><path d="M72,451 L123,451 A3.75,3.75 0 0 1 125.5,453.5 L132.5,474.6094 L370,474.6094 A2.5,2.5 0 0 1 372.5,477.1094 L372.5,642.5 A2.5,2.5 0 0 1 370,645 L72,645 A2.5,2.5 0 0 1 69.5,642.5 L69.5,453.5 A2.5,2.5 0 0 1 72,451 " fill="#FFFFFF" style="stroke:#000000;stroke-width:1.5;"/><line style="stroke:#000000;stroke-width:1.5;" x1="69.5" x2="132.5" y1="474.6094" y2="474.6094"/><text fill="#000000" font-family="sans-serif" font-size="14" font-weight="bold" lengthAdjust="spacing" textLength="50" x="73.5" y="467.5332">images</text></g><!--entity REST--><g id="elem_REST"><rect fill="#F1F1F1" height="47.6094" rx="2.5" ry="2.5" style="stroke:#181818;stroke-width:0.5;" width="89" x="97" y="248"/><rect fill="#F1F1F1" height="10" style="stroke:#181818;stroke-width:0.5;" width="15" x="166" y="253"/><rect fill="#F1F1F1" height="2" style="stroke:#181818;stroke-width:0.5;" width="4" x="164" y="255"/><rect fill="#F1F1F1" height="2" style="stroke:#181818;stroke-width:0.5;" width="4" x="164" y="259"/><text fill="#000000" font-family="sans-serif" font-size="14" lengthAdjust="spacing" textLength="49" x="112" y="282.5332">express</text></g><!--entity socket--><g id="elem_socket"><rect fill="#F1F1F1" height="47.6094" rx="2.5" ry="2.5" style="stroke:#181818;stroke-width:0.5;" width="96" x="232.5" y="140"/><rect fill="#F1F1F1" height="10" style="stroke:#181818;stroke-width:0.5;" width="15" x="308.5" y="145"/><rect fill="#F1F1F1" height="2" style="stroke:#181818;stroke-width:0.5;" width="4" x="306.5" y="147"/><rect fill="#F1F1F1" height="2" style="stroke:#181818;stroke-width:0.5;" width="4" x="306.5" y="151"/><text fill="#000000" font-family="sans-serif" font-size="14" lengthAdjust="spacing" textLength="56" x="247.5" y="174.5332">socket.io</text></g><!--entity binName--><g id="elem_binName"><rect fill="#F1F1F1" height="47.6094" rx="2.5" ry="2.5" style="stroke:#181818;stroke-width:0.5;" width="112" x="85.5" y="140"/><rect fill="#F1F1F1" height="10" style="stroke:#181818;stroke-width:0.5;" width="15" x="177.5" y="145"/><rect fill="#F1F1F1" height="2" style="stroke:#181818;stroke-width:0.5;" width="4" x="175.5" y="147"/><rect fill="#F1F1F1" height="2" style="stroke:#181818;stroke-width:0.5;" width="4" x="175.5" y="151"/><text fill="#000000" font-family="sans-serif" font-size="14" lengthAdjust="spacing" textLength="68" x="104.5" y="174.5332">sabr aml lc</text></g><!--entity sabr_aml_lc_container--><g id="elem_sabr_aml_lc_container"><path d="M86.5,358.5 L86.5,408.7188 A2.5,2.5 0 0 0 89,411.2188 L194,411.2188 A2.5,2.5 0 0 0 196.5,408.7188 L196.5,366 L186.5,356 L89,356 A2.5,2.5 0 0 0 86.5,358.5 " fill="#F1F1F1" style="stroke:#181818;stroke-width:0.5;"/><path d="M186.5,356 L186.5,363.5 A2.5,2.5 0 0 0 189,366 L196.5,366 " fill="#F1F1F1" style="stroke:#181818;stroke-width:0.5;"/><text fill="#000000" font-family="sans-serif" font-size="14" lengthAdjust="spacing" textLength="90" x="96.5" y="380.5332">node server.js</text><text fill="#000000" font-family="sans-serif" font-size="14" lengthAdjust="spacing" textLength="4" x="96.5" y="398.1426">&#160;</text></g><!--entity web_container--><g id="elem_web_container"><path d="M232,367 L232,399.6094 A2.5,2.5 0 0 0 234.5,402.1094 L274.5,402.1094 A2.5,2.5 0 0 0 277,399.6094 L277,374.5 L267,364.5 L234.5,364.5 A2.5,2.5 0 0 0 232,367 " fill="#F1F1F1" style="stroke:#181818;stroke-width:0.5;"/><path d="M267,364.5 L267,372 A2.5,2.5 0 0 0 269.5,374.5 L277,374.5 " fill="#F1F1F1" style="stroke:#181818;stroke-width:0.5;"/><text fill="#000000" font-family="sans-serif" font-size="14" lengthAdjust="spacing" textLength="25" x="242" y="389.0332">web</text></g><!--entity sabr_aml_lcimage--><g id="elem_sabr_aml_lcimage"><rect fill="#F1F1F1" height="33.6094" rx="2.5" ry="2.5" style="stroke:#181818;stroke-width:0.5;" width="92" x="89.5" y="492.5"/><rect fill="#F1F1F1" height="33.6094" rx="2.5" ry="2.5" style="stroke:#181818;stroke-width:0.5;" width="92" x="85.5" y="488.5"/><text fill="#000000" font-family="sans-serif" font-size="14" lengthAdjust="spacing" textLength="76" x="93.5" y="511.0332">sabr_aml_lc</text></g><!--entity ailtireswarm--><g id="elem_ailtireswarm"><rect fill="#F1F1F1" height="40.6094" rx="2.5" ry="2.5" style="stroke:#181818;stroke-width:0.5;" width="108" x="85.5" y="588"/><polygon fill="#F1F1F1" points="176.5,593,176.5,607,188.5,607,188.5,599,182.5,593,176.5,593" style="stroke:#181818;stroke-width:0.5;"/><line style="stroke:#181818;stroke-width:0.5;" x1="182.5" x2="182.5" y1="593" y2="599"/><line style="stroke:#181818;stroke-width:0.5;" x1="188.5" x2="182.5" y1="599" y2="599"/><text fill="#000000" font-family="sans-serif" font-size="14" lengthAdjust="spacing" textLength="78" x="95.5" y="615.5332">ailtire:swarm</text></g><!--entity sabr_aml_lc_web--><g id="elem_sabr_aml_lc_web"><rect fill="#F1F1F1" height="40.6094" rx="2.5" ry="2.5" style="stroke:#181818;stroke-width:0.5;" width="139" x="217" y="487"/><polygon fill="#F1F1F1" points="339,492,339,506,351,506,351,498,345,492,339,492" style="stroke:#181818;stroke-width:0.5;"/><line style="stroke:#181818;stroke-width:0.5;" x1="345" x2="345" y1="492" y2="498"/><line style="stroke:#181818;stroke-width:0.5;" x1="351" x2="345" y1="498" y2="498"/><text fill="#000000" font-family="sans-serif" font-size="14" lengthAdjust="spacing" textLength="109" x="227" y="514.5332">sabr_aml_lc_web</text></g><!--entity CLI--><g id="elem_CLI"><ellipse cx="141.5" cy="14" fill="#F1F1F1" rx="8" ry="8" style="stroke:#181818;stroke-width:0.5;"/><text fill="#000000" font-family="sans-serif" font-size="14" lengthAdjust="spacing" textLength="21" x="131" y="45.5332">CLI</text></g><!--entity Web--><g id="elem_Web"><ellipse cx="20.5" cy="272" fill="#F1F1F1" rx="8" ry="8" style="stroke:#181818;stroke-width:0.5;"/><text fill="#000000" font-family="sans-serif" font-size="14" lengthAdjust="spacing" textLength="29" x="6" y="303.5332">Web</text></g><!--entity WebSocket--><g id="elem_WebSocket"><ellipse cx="280.5" cy="14" fill="#F1F1F1" rx="8" ry="8" style="stroke:#181818;stroke-width:0.5;"/><text fill="#000000" font-family="sans-serif" font-size="14" lengthAdjust="spacing" textLength="72" x="244.5" y="45.5332">WebSocket</text></g><!--link binName to REST--><g id="link_binName_REST"><path d="M141.5,188 C141.5,205.66 141.5,223.94 141.5,241.68 " fill="none" id="binName-to-REST" style="stroke:#181818;stroke-width:1.0;"/><polygon fill="#181818" points="141.5,247.68,145.5,238.68,141.5,242.68,137.5,238.68,141.5,247.68" style="stroke:#181818;stroke-width:1.0;"/></g><!--link REST to sabr_aml_lc_container--><g id="link_REST_sabr_aml_lc_container"><path d="M141.5,296.22 C141.5,313.67 141.5,331.61 141.5,349.84 " fill="none" id="REST-to-sabr_aml_lc_container" style="stroke:#181818;stroke-width:1.0;"/><polygon fill="#181818" points="141.5,355.84,145.5,346.84,141.5,350.84,137.5,346.84,141.5,355.84" style="stroke:#181818;stroke-width:1.0;"/></g><!--link REST to web_container--><g id="link_REST_web_container"><path d="M186.28,291.79 C196.31,297.33 206.37,304.08 214.5,312 C229.82,326.93 238.696,343.4711 245.286,358.9211 " fill="none" id="REST-to-web_container" style="stroke:#181818;stroke-width:1.0;"/><polygon fill="#181818" points="247.64,364.44,247.7882,354.5923,245.6783,359.8409,240.4297,357.731,247.64,364.44" style="stroke:#181818;stroke-width:1.0;"/></g><!--link socket to web_container--><g id="link_socket_web_container"><path d="M277.72,188.28 C272.5,231.89 262.0819,319.1024 257.3819,358.4324 " fill="none" id="socket-to-web_container" style="stroke:#181818;stroke-width:1.0;"/><polygon fill="#181818" points="256.67,364.39,261.7097,355.9282,257.2633,359.4253,253.7662,354.979,256.67,364.39" style="stroke:#181818;stroke-width:1.0;"/></g><!--reverse link sabr_aml_lcimage to ailtireswarm--><g id="link_sabr_aml_lcimage_ailtireswarm"><path d="M135.6905,544.6269 C136.7405,561.9269 137.22,569.95 138.3,587.76 " fill="none" id="sabr_aml_lcimage-backto-ailtireswarm" style="stroke:#181818;stroke-width:1.0;"/><polygon fill="none" points="134.6,526.66,129.7015,544.9904,141.6795,544.2634,134.6,526.66" style="stroke:#181818;stroke-width:1.0;"/></g><!--link sabr_aml_lc_container to sabr_aml_lcimage--><g id="link_sabr_aml_lc_container_sabr_aml_lcimage"><path d="M139.74,411.27 C138.21,434.7 136.4137,462.1029 135.0737,482.4829 " fill="none" id="sabr_aml_lc_container-to-sabr_aml_lcimage" style="stroke:#181818;stroke-width:1.0;"/><polygon fill="#181818" points="134.68,488.47,139.2619,479.7518,135.008,483.4808,131.2791,479.227,134.68,488.47" style="stroke:#181818;stroke-width:1.0;"/></g><!--link web_container to sabr_aml_lc_web--><g id="link_web_container_sabr_aml_lc_web"><path d="M259.22,402.5 C265.13,425.04 273.6987,457.6961 279.8087,481.0061 " fill="none" id="web_container-to-sabr_aml_lc_web" style="stroke:#181818;stroke-width:1.0;"/><polygon fill="#181818" points="281.33,486.81,282.9173,477.0899,280.0622,481.9734,275.1787,479.1183,281.33,486.81" style="stroke:#181818;stroke-width:1.0;"/></g><!--link CLI to binName--><g id="link_CLI_binName"><path d="M141.5,23.38 C141.5,45.52 141.5,106.15 141.5,139.77 " fill="none" id="CLI-binName" style="stroke:#181818;stroke-width:1.0;"/><text fill="#000000" font-family="sans-serif" font-size="13" lengthAdjust="spacing" textLength="64" x="60.925" y="21.6336">sabr aml lc</text></g><!--link Web to REST--><g id="link_Web_REST"><path d="M29.95,272 C52.18,272 74.4,272 96.62,272 " fill="none" id="Web-REST" style="stroke:#181818;stroke-width:1.0;"/><text fill="#000000" font-family="sans-serif" font-size="13" lengthAdjust="spacing" textLength="68" x="37.7939" y="264.3687">/sabr/aml/lc</text></g><!--link WebSocket to socket--><g id="link_WebSocket_socket"><path d="M280.5,23.38 C280.5,45.52 280.5,106.15 280.5,139.77 " fill="none" id="WebSocket-socket" style="stroke:#181818;stroke-width:1.0;"/><text fill="#000000" font-family="sans-serif" font-size="13" lengthAdjust="spacing" textLength="68" x="195.925" y="21.6336">.sabr.aml.lc</text></g><!--SRC=[VLF1QiCm3BtdAuHxJjhp6BkK7GPZXtMmow0ehbAyEdQmlNLZwxzFSPmsTSi28SXFxqbwLW2K2UGQb0JBnuS29l4hrNcyid97eUXGxd1B81u9dL5c2qlhkWylOBPO83OD_31JshQpXam0-keSUG_euVb-zNA6-IXPATkZGy1uO_M67DJAmAo9JvIS4WLuh1rWgq5BqRCv-mbRuhm3loc2ihmRgfvaDzHf-vqfCweqpsJiXi2J-oHNlVit4wNxKcikjTPoBQq9g0ovHEl5OvNhIPnLdDJtL4T1_cP2HvbBQB25mIjecZPDfbg-5t_XcTOaWxB6WvWqcKyMoP61BYY-SpOPbGxAqOtVesiZ8Pt4Ww6xJ05kVylotxJJ0BblGmkZPTD6flJHnEmiSSuSkhYOCI_wTYXuwVDDukR7JUAL1p7lqJcZyuWEotJy6K1KFLunNYLssk8_]--></g></svg>