<?xml version="1.0" encoding="UTF-8" standalone="no"?><svg xmlns="http://www.w3.org/2000/svg" xmlns:xlink="http://www.w3.org/1999/xlink" contentScriptType="application/ecmascript" contentStyleType="text/css" height="685px" preserveAspectRatio="none" style="width:418px;height:685px;" version="1.1" viewBox="0 0 418 685" width="418px" zoomAndPan="magnify"><defs><filter height="300%" id="f1pdahass293qp" width="300%" x="-1" y="-1"><feGaussianBlur result="blurOut" stdDeviation="2.0"/><feColorMatrix in="blurOut" result="blurOut2" type="matrix" values="0 0 0 0 0 0 0 0 0 0 0 0 0 0 0 0 0 0 .4 0"/><feOffset dx="4.0" dy="4.0" in="blurOut2" result="blurOut3"/><feBlend in="SourceGraphic" in2="blurOut3" mode="normal"/></filter></defs><g><!--cluster Learning Corpus--><polygon fill="#00AAFF" filter="url(#f1pdahass293qp)" points="45.5,84,168.5,84,175.5,107.6094,396.5,107.6094,396.5,673,45.5,673,45.5,84" style="stroke: #000000; stroke-width: 1.5;"/><line style="stroke: #000000; stroke-width: 1.5;" x1="45.5" x2="175.5" y1="107.6094" y2="107.6094"/><text fill="#000000" font-family="sans-serif" font-size="14" font-weight="bold" lengthAdjust="spacingAndGlyphs" textLength="117" x="49.5" y="100.5332">Learning Corpus</text><!--cluster bin--><polygon fill="#FFFFFF" filter="url(#f1pdahass293qp)" points="78.5,128,106.5,128,113.5,151.6094,198.5,151.6094,198.5,218,78.5,218,78.5,128" style="stroke: #000000; stroke-width: 1.5;"/><line style="stroke: #000000; stroke-width: 1.5;" x1="78.5" x2="113.5" y1="151.6094" y2="151.6094"/><text fill="#000000" font-family="sans-serif" font-size="14" font-weight="bold" lengthAdjust="spacingAndGlyphs" textLength="22" x="82.5" y="144.5332">bin</text><!--cluster deploy--><polygon fill="#FFFFFF" filter="url(#f1pdahass293qp)" points="69.5,324,122.5,324,129.5,347.6094,292.5,347.6094,292.5,431,69.5,431,69.5,324" style="stroke: #000000; stroke-width: 1.5;"/><line style="stroke: #000000; stroke-width: 1.5;" x1="69.5" x2="129.5" y1="347.6094" y2="347.6094"/><text fill="#000000" font-family="sans-serif" font-size="14" font-weight="bold" lengthAdjust="spacingAndGlyphs" textLength="47" x="73.5" y="340.5332">deploy</text><!--cluster images--><polygon fill="#FFFFFF" filter="url(#f1pdahass293qp)" points="69.5,455,125.5,455,132.5,478.6094,372.5,478.6094,372.5,649,69.5,649,69.5,455" style="stroke: #000000; stroke-width: 1.5;"/><line style="stroke: #000000; stroke-width: 1.5;" x1="69.5" x2="132.5" y1="478.6094" y2="478.6094"/><text fill="#000000" font-family="sans-serif" font-size="14" font-weight="bold" lengthAdjust="spacingAndGlyphs" textLength="50" x="73.5" y="471.5332">images</text><!--entity REST--><rect fill="#FEFECE" filter="url(#f1pdahass293qp)" height="37.6094" style="stroke: #A80036; stroke-width: 1.5;" width="69" x="104" y="262"/><rect fill="#FEFECE" height="5" style="stroke: #A80036; stroke-width: 1.5;" width="10" x="99" y="267"/><rect fill="#FEFECE" height="5" style="stroke: #A80036; stroke-width: 1.5;" width="10" x="99" y="289.6094"/><text fill="#000000" font-family="sans-serif" font-size="14" lengthAdjust="spacingAndGlyphs" textLength="49" x="114" y="286.5332">express</text><!--entity socket--><rect fill="#FEFECE" filter="url(#f1pdahass293qp)" height="37.6094" style="stroke: #A80036; stroke-width: 1.5;" width="76" x="217.5" y="164"/><rect fill="#FEFECE" height="5" style="stroke: #A80036; stroke-width: 1.5;" width="10" x="212.5" y="169"/><rect fill="#FEFECE" height="5" style="stroke: #A80036; stroke-width: 1.5;" width="10" x="212.5" y="191.6094"/><text fill="#000000" font-family="sans-serif" font-size="14" lengthAdjust="spacingAndGlyphs" textLength="56" x="227.5" y="188.5332">socket.io</text><!--entity binName--><rect fill="#FEFECE" filter="url(#f1pdahass293qp)" height="37.6094" style="stroke: #A80036; stroke-width: 1.5;" width="88" x="94.5" y="164"/><rect fill="#FEFECE" height="5" style="stroke: #A80036; stroke-width: 1.5;" width="10" x="89.5" y="169"/><rect fill="#FEFECE" height="5" style="stroke: #A80036; stroke-width: 1.5;" width="10" x="89.5" y="191.6094"/><text fill="#000000" font-family="sans-serif" font-size="14" lengthAdjust="spacingAndGlyphs" textLength="68" x="104.5" y="188.5332">sabr aml lc</text><!--entity sabr_aml_lc_container--><polygon fill="#FEFECE" filter="url(#f1pdahass293qp)" points="85.5,360,85.5,415.2188,195.5,415.2188,195.5,370,185.5,360,85.5,360" style="stroke: #000000; stroke-width: 1.5;"/><path d="M185.5,360 L185.5,370 L195.5,370 " fill="#FEFECE" style="stroke: #000000; stroke-width: 1.5;"/><text fill="#000000" font-family="sans-serif" font-size="14" lengthAdjust="spacingAndGlyphs" textLength="90" x="95.5" y="384.5332">node server.js</text><text fill="#000000" font-family="sans-serif" font-size="14" lengthAdjust="spacingAndGlyphs" textLength="0" x="99.5" y="402.1426"/><!--entity web_container--><polygon fill="#FEFECE" filter="url(#f1pdahass293qp)" points="231,368.5,231,406.1094,276,406.1094,276,378.5,266,368.5,231,368.5" style="stroke: #000000; stroke-width: 1.5;"/><path d="M266,368.5 L266,378.5 L276,378.5 " fill="#FEFECE" style="stroke: #000000; stroke-width: 1.5;"/><text fill="#000000" font-family="sans-serif" font-size="14" lengthAdjust="spacingAndGlyphs" textLength="25" x="241" y="393.0332">web</text><!--entity sabr_aml_lcimage--><rect fill="#FEFECE" filter="url(#f1pdahass293qp)" height="33.6094" style="stroke: #000000; stroke-width: 1.5;" width="92" x="89.5" y="496.5"/><rect fill="#FEFECE" height="33.6094" style="stroke: #000000; stroke-width: 1.5;" width="92" x="85.5" y="492.5"/><text fill="#000000" font-family="sans-serif" font-size="14" lengthAdjust="spacingAndGlyphs" textLength="76" x="93.5" y="515.0332">sabr_aml_lc</text><!--entity ailtireswarm--><rect fill="#FEFECE" filter="url(#f1pdahass293qp)" height="40.6094" style="stroke: #000000; stroke-width: 1.5;" width="108" x="85.5" y="592"/><polygon fill="#FEFECE" points="176.5,597,176.5,611,188.5,611,188.5,603,182.5,597,176.5,597" style="stroke: #000000; stroke-width: 1.5;"/><line style="stroke: #000000; stroke-width: 1.5;" x1="182.5" x2="182.5" y1="597" y2="603"/><line style="stroke: #000000; stroke-width: 1.5;" x1="188.5" x2="182.5" y1="603" y2="603"/><text fill="#000000" font-family="sans-serif" font-size="14" lengthAdjust="spacingAndGlyphs" textLength="78" x="95.5" y="619.5332">ailtire:swarm</text><!--entity sabr_aml_lc_web--><rect fill="#FEFECE" filter="url(#f1pdahass293qp)" height="40.6094" style="stroke: #000000; stroke-width: 1.5;" width="139" x="217" y="491"/><polygon fill="#FEFECE" points="339,496,339,510,351,510,351,502,345,496,339,496" style="stroke: #000000; stroke-width: 1.5;"/><line style="stroke: #000000; stroke-width: 1.5;" x1="345" x2="345" y1="496" y2="502"/><line style="stroke: #000000; stroke-width: 1.5;" x1="351" x2="345" y1="502" y2="502"/><text fill="#000000" font-family="sans-serif" font-size="14" lengthAdjust="spacingAndGlyphs" textLength="109" x="227" y="518.5332">sabr_aml_lc_web</text><!--entity CLI--><ellipse cx="138.5" cy="38" fill="#FEFECE" filter="url(#f1pdahass293qp)" rx="8" ry="8" style="stroke: #A80036; stroke-width: 2.0;"/><text fill="#000000" font-family="sans-serif" font-size="14" lengthAdjust="spacingAndGlyphs" textLength="21" x="128" y="69.5332">CLI</text><!--entity Web--><ellipse cx="20.5" cy="281" fill="#FEFECE" filter="url(#f1pdahass293qp)" rx="8" ry="8" style="stroke: #A80036; stroke-width: 2.0;"/><text fill="#000000" font-family="sans-serif" font-size="14" lengthAdjust="spacingAndGlyphs" textLength="29" x="6" y="312.5332">Web</text><!--entity WebSocket--><ellipse cx="255.5" cy="38" fill="#FEFECE" filter="url(#f1pdahass293qp)" rx="8" ry="8" style="stroke: #A80036; stroke-width: 2.0;"/><text fill="#000000" font-family="sans-serif" font-size="14" lengthAdjust="spacingAndGlyphs" textLength="72" x="219.5" y="69.5332">WebSocket</text><!--link binName to REST--><path d="M138.5,202.057 C138.5,217.513 138.5,239.865 138.5,256.673 " fill="none" id="binName-REST" style="stroke: #A80036; stroke-width: 1.0;"/><polygon fill="#A80036" points="138.5,261.698,142.5,252.698,138.5,256.698,134.5,252.698,138.5,261.698" style="stroke: #A80036; stroke-width: 1.0;"/><!--link REST to sabr_aml_lc_container--><path d="M138.848,300.203 C139.134,315.147 139.546,336.673 139.887,354.487 " fill="none" id="REST-sabr_aml_lc_container" style="stroke: #A80036; stroke-width: 1.0;"/><polygon fill="#A80036" points="139.991,359.885,143.818,350.8101,139.8953,354.8859,135.8195,350.9632,139.991,359.885" style="stroke: #A80036; stroke-width: 1.0;"/><!--link REST to web_container--><path d="M173.143,292.809 C186.537,298.22 201.302,305.829 212.5,316 C226.813,329 237.523,348.192 244.401,363.271 " fill="none" id="REST-web_container" style="stroke: #A80036; stroke-width: 1.0;"/><polygon fill="#A80036" points="246.586,368.212,246.6057,358.3632,244.5645,363.6389,239.2887,361.5976,246.586,368.212" style="stroke: #A80036; stroke-width: 1.0;"/><!--link socket to web_container--><path d="M255.319,202.328 C254.955,239.225 254.133,322.407 253.731,363.138 " fill="none" id="socket-web_container" style="stroke: #A80036; stroke-width: 1.0;"/><polygon fill="#A80036" points="253.679,368.36,257.7662,359.3993,253.7276,363.3602,249.7666,359.3216,253.679,368.36" style="stroke: #A80036; stroke-width: 1.0;"/><!--link sabr_aml_lcimage to ailtireswarm--><path d="M135.827,550.896 C136.673,564.862 137.595,580.071 138.304,591.7594 " fill="none" id="sabr_aml_lcimage-ailtireswarm" style="stroke: #A80036; stroke-width: 1.0;"/><polygon fill="none" points="128.823,551.045,134.6,530.658,142.798,550.198,128.823,551.045" style="stroke: #A80036; stroke-width: 1.0;"/><!--link sabr_aml_lc_container to sabr_aml_lcimage--><path d="M138.964,415.273 C137.725,436.871 136,466.931 134.822,487.465 " fill="none" id="sabr_aml_lc_container-sabr_aml_lcimage" style="stroke: #A80036; stroke-width: 1.0;"/><polygon fill="#A80036" points="134.535,492.469,139.0428,483.7123,134.8207,487.4772,131.0559,483.2551,134.535,492.469" style="stroke: #A80036; stroke-width: 1.0;"/><!--link web_container to sabr_aml_lc_web--><path d="M258.369,406.502 C264.06,427.541 273.507,462.465 279.865,485.972 " fill="none" id="web_container-sabr_aml_lc_web" style="stroke: #A80036; stroke-width: 1.0;"/><polygon fill="#A80036" points="281.173,490.805,282.6835,481.0727,279.8671,485.9786,274.9612,483.1621,281.173,490.805" style="stroke: #A80036; stroke-width: 1.0;"/><!--link CLI to binName--><path d="M138.5,47.098 C138.5,69.432 138.5,132.318 138.5,163.705 " fill="none" id="CLI-binName" style="stroke: #A80036; stroke-width: 1.0;"/><text fill="#000000" font-family="sans-serif" font-size="13" lengthAdjust="spacingAndGlyphs" textLength="64" x="57.925" y="45.2141">sabr aml lc</text><!--link Web to REST--><path d="M29.7188,281 C54.3645,281 79.0103,281 103.656,281 " fill="none" id="Web-REST" style="stroke: #A80036; stroke-width: 1.0;"/><text fill="#000000" font-family="sans-serif" font-size="13" lengthAdjust="spacingAndGlyphs" textLength="68" x="37.5552" y="276.4656">/sabr/aml/lc</text><!--link WebSocket to socket--><path d="M255.5,47.098 C255.5,69.432 255.5,132.318 255.5,163.705 " fill="none" id="WebSocket-socket" style="stroke: #A80036; stroke-width: 1.0;"/><text fill="#000000" font-family="sans-serif" font-size="13" lengthAdjust="spacingAndGlyphs" textLength="68" x="170.925" y="45.2141">.sabr.aml.lc</text><!--
@startuml
  interface CLI
  interface Web
  interface WebSocket
package "Learning Corpus" #00aaff {
  component express as REST
  component socket.io as socket
  folder bin #ffffff {
    component " sabr aml lc" as binName
  }
  binName - -> REST

  folder deploy #ffffff {
      file "node server.js\n" as sabr_aml_lc_container
      REST - -> sabr_aml_lc_container

  
    file "web" as web_container
    REST - -> web_container
    socket - - -> web_container
  
  }
  folder images #ffffff {
    collections "sabr_aml_lc" as sabr_aml_lcimage
    artifact "ailtire:swarm" as ailtireswarm
    sabr_aml_lcimage <|- - ailtireswarm
    sabr_aml_lc_container - -> sabr_aml_lcimage

  
      artifact "sabr_aml_lc_web" as sabr_aml_lc_web
      web_container - -> sabr_aml_lc_web
    
  }
}
CLI " sabr aml lc" - - binName
Web "/sabr/aml/lc" - REST
WebSocket ".sabr.aml.lc" - - socket

@enduml

PlantUML version 1.2019.05(Sat Apr 20 09:45:36 PDT 2019)
(GPL source distribution)
Java Runtime: Java(TM) SE Runtime Environment
JVM: Java HotSpot(TM) Client VM
Java Version: 1.8.0_271-b09
Operating System: Windows 10
OS Version: 10.0
Default Encoding: Cp1252
Language: en
Country: US
--></g></svg>