<?xml version="1.0" encoding="us-ascii" standalone="no"?><svg xmlns="http://www.w3.org/2000/svg" xmlns:xlink="http://www.w3.org/1999/xlink" contentStyleType="text/css" height="1576px" preserveAspectRatio="none" style="width:569px;height:1576px;background:#FFFFFF;" version="1.1" viewBox="0 0 569 1576" width="569px" zoomAndPan="magnify"><defs/><g><!--cluster aml--><g id="cluster_aml"><rect fill="#00AAFF" height="527" rx="2.5" ry="2.5" style="stroke:#181818;stroke-width:1.0;" width="231" x="290.5" y="93.5"/><text fill="#000000" font-family="sans-serif" font-size="14" font-weight="bold" lengthAdjust="spacing" textLength="215" x="298.5" y="110.0332">Application Management Layer</text></g><!--cluster sabr--><g id="cluster_sabr"><rect fill="#BBAAFF" height="528" rx="2.5" ry="2.5" style="stroke:#181818;stroke-width:1.0;" width="254" x="279" y="785.5"/><text fill="#000000" font-family="sans-serif" font-size="14" font-weight="bold" lengthAdjust="spacing" textLength="238" x="287" y="802.0332">Sentient Agent Bundle Resources</text></g><!--cluster diml--><g id="cluster_diml"><rect fill="#FFCC88" height="86" rx="2.5" ry="2.5" style="stroke:#181818;stroke-width:1.0;" width="315" x="248.5" y="644.5"/><text fill="#000000" font-family="sans-serif" font-size="14" font-weight="bold" lengthAdjust="spacing" textLength="299" x="256.5" y="661.0332">Distributed Information Management Layer</text></g><g id="elem_IntegrateLearning"><ellipse cx="406.1887" cy="220.5377" fill="#F1F1F1" rx="80.6887" ry="18.5377" style="stroke:#181818;stroke-width:0.5;"/><text fill="#000000" font-family="sans-serif" font-size="14" lengthAdjust="spacing" textLength="116" x="347.5015" y="224.4661">Integrate Learning</text></g><g id="elem_ManageApplication"><ellipse cx="406.0066" cy="293.7013" fill="#F1F1F1" rx="84.0066" ry="19.2013" style="stroke:#181818;stroke-width:0.5;"/><text fill="#000000" font-family="sans-serif" font-size="14" lengthAdjust="spacing" textLength="124" x="344.0066" y="297.4298">Manage Application</text></g><g id="elem_DevelopCapability"><ellipse cx="406.0075" cy="148.7015" fill="#F1F1F1" rx="81.5075" ry="18.7015" style="stroke:#181818;stroke-width:0.5;"/><text fill="#000000" font-family="sans-serif" font-size="14" lengthAdjust="spacing" textLength="118" x="346.6675" y="152.5304">Develop Capability</text></g><g id="elem_DeployCapability"><ellipse cx="405.7877" cy="365.5575" fill="#F1F1F1" rx="78.2877" ry="18.0575" style="stroke:#181818;stroke-width:0.5;"/><text fill="#000000" font-family="sans-serif" font-size="14" lengthAdjust="spacing" textLength="110" x="349.0149" y="369.7774">Deploy Capability</text></g><g id="elem_RemoveCapability"><ellipse cx="406.0075" cy="437.7015" fill="#F1F1F1" rx="81.5075" ry="18.7015" style="stroke:#181818;stroke-width:0.5;"/><text fill="#000000" font-family="sans-serif" font-size="14" lengthAdjust="spacing" textLength="118" x="346.6675" y="441.5304">Remove Capability</text></g><g id="elem_UpdateCapability"><ellipse cx="406.1819" cy="509.6364" fill="#F1F1F1" rx="78.6819" ry="18.1364" style="stroke:#181818;stroke-width:0.5;"/><text fill="#000000" font-family="sans-serif" font-size="14" lengthAdjust="spacing" textLength="111" x="349.0947" y="513.8083">Update Capability</text></g><g id="elem_ManageEnvironments"><ellipse cx="405.7628" cy="583.6526" fill="#F1F1F1" rx="91.2628" ry="20.6526" style="stroke:#181818;stroke-width:0.5;"/><text fill="#000000" font-family="sans-serif" font-size="14" lengthAdjust="spacing" textLength="141" x="335.2628" y="587.3811">Manage Environments</text></g><g id="elem_ManageAIModel"><ellipse cx="405.896" cy="1050.4792" fill="#F1F1F1" rx="77.896" ry="17.9792" style="stroke:#181818;stroke-width:0.5;"/><text fill="#000000" font-family="sans-serif" font-size="14" lengthAdjust="spacing" textLength="109" x="349.4355" y="1054.7466">Manage AI Model</text></g><g id="elem_ManageCapabilities"><ellipse cx="406.1926" cy="907.5385" fill="#F1F1F1" rx="85.6926" ry="19.5385" style="stroke:#181818;stroke-width:0.5;"/><text fill="#000000" font-family="sans-serif" font-size="14" lengthAdjust="spacing" textLength="128" x="342.1926" y="911.267">Manage Capabilities</text></g><g id="elem_Ships"><ellipse cx="406.234" cy="837.4517" fill="#F1F1F1" rx="36.234" ry="15.4517" style="stroke:#181818;stroke-width:0.5;"/><text fill="#000000" font-family="sans-serif" font-size="14" lengthAdjust="spacing" textLength="35" x="388.734" y="841.1802">Ships</text></g><g id="elem_ManagePolicies"><ellipse cx="406.1002" cy="979.52" fill="#F1F1F1" rx="75.6002" ry="17.52" style="stroke:#181818;stroke-width:0.5;"/><text fill="#000000" font-family="sans-serif" font-size="14" lengthAdjust="spacing" textLength="103" x="351.6002" y="984.0366">Manage Policies</text></g><g id="elem_ManageSecurity"><ellipse cx="406.2363" cy="1121.7473" fill="#F1F1F1" rx="76.7363" ry="17.7473" style="stroke:#181818;stroke-width:0.5;"/><text fill="#000000" font-family="sans-serif" font-size="14" lengthAdjust="spacing" textLength="106" x="350.7006" y="1126.1555">Manage Security</text></g><g id="elem_ProvideDigitalAssistance"><ellipse cx="405.9506" cy="1274.5901" fill="#F1F1F1" rx="100.9506" ry="22.5901" style="stroke:#181818;stroke-width:0.5;"/><text fill="#000000" font-family="sans-serif" font-size="14" lengthAdjust="spacing" textLength="163" x="324.4506" y="1278.3186">Provide Digital Assistance</text></g><g id="elem_ProvideMissionInsight"><ellipse cx="406.066" cy="1195.4132" fill="#F1F1F1" rx="92.566" ry="20.9132" style="stroke:#181818;stroke-width:0.5;"/><text fill="#000000" font-family="sans-serif" font-size="14" lengthAdjust="spacing" textLength="144" x="334.066" y="1199.1417">Provide Mission Insight</text></g><g id="elem_ManageSABR"><ellipse cx="406.0677" cy="697.7135" fill="#F1F1F1" rx="71.5677" ry="16.7135" style="stroke:#181818;stroke-width:0.5;"/><text fill="#000000" font-family="sans-serif" font-size="14" lengthAdjust="spacing" textLength="92" x="357.0677" y="702.2301">Manage SABR</text></g><!--entity Actor--><g id="elem_Actor"><ellipse cx="75" cy="1502" fill="#F1F1F1" rx="8" ry="8" style="stroke:#181818;stroke-width:0.5;"/><path d="M75,1510 L75,1537 M62,1518 L88,1518 M75,1537 L62,1552 M75,1537 L88,1552 " fill="none" style="stroke:#181818;stroke-width:0.5;"/><text fill="#000000" font-family="sans-serif" font-size="14" lengthAdjust="spacing" textLength="33" x="58.5" y="1568.0332">Actor</text></g><!--entity ApplicationDeveloper--><g id="elem_ApplicationDeveloper"><ellipse cx="75" cy="127" fill="#F1F1F1" rx="8" ry="8" style="stroke:#181818;stroke-width:0.5;"/><path d="M75,135 L75,162 M62,143 L88,143 M75,162 L62,177 M75,162 L88,177 " fill="none" style="stroke:#181818;stroke-width:0.5;"/><text fill="#000000" font-family="sans-serif" font-size="14" lengthAdjust="spacing" textLength="138" x="6" y="193.0332">Application Developer</text></g><!--entity DataAnalyst--><g id="elem_DataAnalyst"><ellipse cx="75" cy="937" fill="#F1F1F1" rx="8" ry="8" style="stroke:#181818;stroke-width:0.5;"/><path d="M75,945 L75,972 M62,953 L88,953 M75,972 L62,987 M75,972 L88,987 " fill="none" style="stroke:#181818;stroke-width:0.5;"/><text fill="#000000" font-family="sans-serif" font-size="14" lengthAdjust="spacing" textLength="80" x="35" y="1003.0332">Data Analyst</text></g><!--entity DataEngineer--><g id="elem_DataEngineer"><ellipse cx="75" cy="1050" fill="#F1F1F1" rx="8" ry="8" style="stroke:#181818;stroke-width:0.5;"/><path d="M75,1058 L75,1085 M62,1066 L88,1066 M75,1085 L62,1100 M75,1085 L88,1100 " fill="none" style="stroke:#181818;stroke-width:0.5;"/><text fill="#000000" font-family="sans-serif" font-size="14" lengthAdjust="spacing" textLength="87" x="31.5" y="1116.0332">DataEngineer</text></g><!--entity DataScientist--><g id="elem_DataScientist"><ellipse cx="75" cy="1163" fill="#F1F1F1" rx="8" ry="8" style="stroke:#181818;stroke-width:0.5;"/><path d="M75,1171 L75,1198 M62,1179 L88,1179 M75,1198 L62,1213 M75,1198 L88,1213 " fill="none" style="stroke:#181818;stroke-width:0.5;"/><text fill="#000000" font-family="sans-serif" font-size="14" lengthAdjust="spacing" textLength="87" x="31.5" y="1229.0332">Data Scientist</text></g><!--entity DataSteward--><g id="elem_DataSteward"><ellipse cx="75" cy="14" fill="#F1F1F1" rx="8" ry="8" style="stroke:#181818;stroke-width:0.5;"/><path d="M75,22 L75,49 M62,30 L88,30 M75,49 L62,64 M75,49 L88,64 " fill="none" style="stroke:#181818;stroke-width:0.5;"/><text fill="#000000" font-family="sans-serif" font-size="14" lengthAdjust="spacing" textLength="85" x="32.5" y="80.0332">Data Steward</text></g><!--entity DevOpsEngineer--><g id="elem_DevOpsEngineer"><ellipse cx="75" cy="518" fill="#F1F1F1" rx="8" ry="8" style="stroke:#181818;stroke-width:0.5;"/><path d="M75,526 L75,553 M62,534 L88,534 M75,553 L62,568 M75,553 L88,568 " fill="none" style="stroke:#181818;stroke-width:0.5;"/><text fill="#000000" font-family="sans-serif" font-size="14" lengthAdjust="spacing" textLength="112" x="19" y="584.0332">DevOps Engineer</text></g><!--entity ITOperations--><g id="elem_ITOperations"><ellipse cx="75" cy="824" fill="#F1F1F1" rx="8" ry="8" style="stroke:#181818;stroke-width:0.5;"/><path d="M75,832 L75,859 M62,840 L88,840 M75,859 L62,874 M75,859 L88,874 " fill="none" style="stroke:#181818;stroke-width:0.5;"/><text fill="#000000" font-family="sans-serif" font-size="14" lengthAdjust="spacing" textLength="86" x="32" y="890.0332">IT Operations</text></g><!--entity SecurityOperator--><g id="elem_SecurityOperator"><ellipse cx="75" cy="1276" fill="#F1F1F1" rx="8" ry="8" style="stroke:#181818;stroke-width:0.5;"/><path d="M75,1284 L75,1311 M62,1292 L88,1292 M75,1311 L62,1326 M75,1311 L88,1326 " fill="none" style="stroke:#181818;stroke-width:0.5;"/><text fill="#000000" font-family="sans-serif" font-size="14" lengthAdjust="spacing" textLength="112" x="19" y="1342.0332">Security Operator</text></g><!--entity TacticalOperator--><g id="elem_TacticalOperator"><ellipse cx="75" cy="1389" fill="#F1F1F1" rx="8" ry="8" style="stroke:#181818;stroke-width:0.5;"/><path d="M75,1397 L75,1424 M62,1405 L88,1405 M75,1424 L62,1439 M75,1424 L88,1439 " fill="none" style="stroke:#181818;stroke-width:0.5;"/><text fill="#000000" font-family="sans-serif" font-size="14" lengthAdjust="spacing" textLength="110" x="20" y="1455.0332">Tactical Operator</text></g><!--link ApplicationDeveloper to IntegrateLearning--><g id="link_ApplicationDeveloper_IntegrateLearning"><path d="M144.17,170.55 C202.89,181.8 281.007,196.7619 337.687,207.6119 " fill="none" id="ApplicationDeveloper-to-IntegrateLearning" style="stroke:#181818;stroke-width:1.0;"/><polygon fill="#181818" points="343.58,208.74,335.4925,203.1192,338.6692,207.7999,333.9885,210.9766,343.58,208.74" style="stroke:#181818;stroke-width:1.0;"/></g><!--link DevOpsEngineer to ManageApplication--><g id="link_DevOpsEngineer_ManageApplication"><path d="M94.39,509.25 C119.91,459.32 170.89,374.22 240.5,329.5 C265.71,313.3 291.1987,305.338 319.7787,300.368 " fill="none" id="DevOpsEngineer-to-ManageApplication" style="stroke:#181818;stroke-width:1.0;"/><polygon fill="#181818" points="325.69,299.34,316.1378,296.9411,320.7639,300.1966,317.5084,304.8228,325.69,299.34" style="stroke:#181818;stroke-width:1.0;"/></g><!--link ApplicationDeveloper to ManageApplication--><g id="link_ApplicationDeveloper_ManageApplication"><path d="M130.76,196.55 C161.7,217.02 201.83,240.99 240.5,256.5 C270.66,268.6 299.7006,276.0133 329.5906,281.8333 " fill="none" id="ApplicationDeveloper-to-ManageApplication" style="stroke:#181818;stroke-width:1.0;"/><polygon fill="#181818" points="335.48,282.98,327.4104,277.3336,330.5722,282.0244,325.8814,285.1861,335.48,282.98" style="stroke:#181818;stroke-width:1.0;"/></g><!--link ApplicationDeveloper to DevelopCapability--><g id="link_ApplicationDeveloper_DevelopCapability"><path d="M144.03,141.05 C163.3,137.11 184.37,133.47 204,131.5 C250,126.88 296.0592,130.6995 335.6392,136.2995 " fill="none" id="ApplicationDeveloper-to-DevelopCapability" style="stroke:#181818;stroke-width:1.0;"/><polygon fill="#181818" points="341.58,137.14,333.2291,131.9186,336.6293,136.4395,332.1084,139.8397,341.58,137.14" style="stroke:#181818;stroke-width:1.0;"/></g><!--link DevOpsEngineer to DeployCapability--><g id="link_DevOpsEngineer_DeployCapability"><path d="M109.12,509.21 C139.75,475.46 188.32,428.16 240.5,401.5 C269.4,386.74 298.2462,379.0235 328.3562,373.8635 " fill="none" id="DevOpsEngineer-to-DeployCapability" style="stroke:#181818;stroke-width:1.0;"/><polygon fill="#181818" points="334.27,372.85,324.7237,370.4277,329.3418,373.6945,326.075,378.3127,334.27,372.85" style="stroke:#181818;stroke-width:1.0;"/></g><!--link DevOpsEngineer to RemoveCapability--><g id="link_DevOpsEngineer_RemoveCapability"><path d="M131.15,519.79 C162.54,504.36 202.98,486 240.5,473.5 C272.67,462.78 303.581,455.5286 334.191,449.5586 " fill="none" id="DevOpsEngineer-to-RemoveCapability" style="stroke:#181818;stroke-width:1.0;"/><polygon fill="#181818" points="340.08,448.41,330.4807,446.2068,335.1725,449.3671,332.0121,454.0589,340.08,448.41" style="stroke:#181818;stroke-width:1.0;"/></g><!--link DevOpsEngineer to UpdateCapability--><g id="link_DevOpsEngineer_UpdateCapability"><path d="M131.07,541.97 C187.41,535.29 269.1317,525.606 330.0617,518.386 " fill="none" id="DevOpsEngineer-to-UpdateCapability" style="stroke:#181818;stroke-width:1.0;"/><polygon fill="#181818" points="336.02,517.68,326.6118,514.7669,331.0547,518.2684,327.5532,522.7113,336.02,517.68" style="stroke:#181818;stroke-width:1.0;"/></g><!--link DataEngineer to ManageAIModel--><g id="link_DataEngineer_ManageAIModel"><path d="M118.67,1076.61 C173.01,1071.65 261.7047,1063.5644 327.2347,1057.5944 " fill="none" id="DataEngineer-to-ManageAIModel" style="stroke:#181818;stroke-width:1.0;"/><polygon fill="#181818" points="333.21,1057.05,323.8842,1053.883,328.2306,1057.5036,324.61,1061.8501,333.21,1057.05" style="stroke:#181818;stroke-width:1.0;"/></g><!--link DataScientist to ManageAIModel--><g id="link_DataScientist_ManageAIModel"><path d="M118.59,1159.59 C150.46,1135.83 196.02,1105.1 240.5,1086.5 C271.38,1073.59 301.6457,1066.0872 332.1857,1060.5672 " fill="none" id="DataScientist-to-ManageAIModel" style="stroke:#181818;stroke-width:1.0;"/><polygon fill="#181818" points="338.09,1059.5,328.522,1057.1646,333.1697,1060.3893,329.945,1065.037,338.09,1059.5" style="stroke:#181818;stroke-width:1.0;"/></g><!--link DataAnalyst to ManageAIModel--><g id="link_DataAnalyst_ManageAIModel"><path d="M115.03,979.4 C148.25,989.35 197.3,1003.61 240.5,1014.5 C275.65,1023.36 309.4784,1030.8454 341.0584,1037.4854 " fill="none" id="DataAnalyst-to-ManageAIModel" style="stroke:#181818;stroke-width:1.0;"/><polygon fill="#181818" points="346.93,1038.72,338.9456,1032.9537,342.037,1037.6912,337.2995,1040.7826,346.93,1038.72" style="stroke:#181818;stroke-width:1.0;"/></g><!--link DevOpsEngineer to ManageCapabilities--><g id="link_DevOpsEngineer_ManageCapabilities"><path d="M84.51,587.63 C101.53,656.18 146.51,797.58 240.5,870.5 C263.74,888.53 288.1809,897.0698 316.4709,902.0498 " fill="none" id="DevOpsEngineer-to-ManageCapabilities" style="stroke:#181818;stroke-width:1.0;"/><polygon fill="#181818" points="322.38,903.09,314.2098,897.5903,317.4557,902.2232,312.8228,905.4691,322.38,903.09" style="stroke:#181818;stroke-width:1.0;"/></g><!--link ITOperations to ManageCapabilities--><g id="link_ITOperations_ManageCapabilities"><path d="M118,861.27 C172.92,870.11 263.9264,884.7758 329.7964,895.3858 " fill="none" id="ITOperations-to-ManageCapabilities" style="stroke:#181818;stroke-width:1.0;"/><polygon fill="#181818" points="335.72,896.34,327.4706,890.9597,330.7836,895.5449,326.1984,898.8579,335.72,896.34" style="stroke:#181818;stroke-width:1.0;"/></g><!--link DevOpsEngineer to Ships--><g id="link_DevOpsEngineer_Ships"><path d="M106.47,587.79 C137.68,626.61 188.82,686.41 240.5,730.5 C287.28,770.41 344.6251,804.3161 377.4751,822.5661 " fill="none" id="DevOpsEngineer-to-Ships" style="stroke:#181818;stroke-width:1.0;"/><polygon fill="#181818" points="382.72,825.48,376.7952,817.6126,378.3492,823.0518,372.91,824.6058,382.72,825.48" style="stroke:#181818;stroke-width:1.0;"/></g><!--link ITOperations to ManagePolicies--><g id="link_ITOperations_ManagePolicies"><path d="M118.01,881.96 C150.32,901.94 196.7,928.26 240.5,944.5 C272.8,956.48 304.3738,963.7929 335.3838,969.3429 " fill="none" id="ITOperations-to-ManagePolicies" style="stroke:#181818;stroke-width:1.0;"/><polygon fill="#181818" points="341.29,970.4,333.1355,964.877,336.3682,969.5191,331.7261,972.7519,341.29,970.4" style="stroke:#181818;stroke-width:1.0;"/></g><!--link SecurityOperator to ManageSecurity--><g id="link_SecurityOperator_ManageSecurity"><path d="M124.32,1267.49 C131,1261.87 137.72,1256.1 144,1250.5 C188.47,1210.87 187.98,1185.59 240.5,1157.5 C269.37,1142.06 298.5508,1134.2113 328.8908,1129.1813 " fill="none" id="SecurityOperator-to-ManageSecurity" style="stroke:#181818;stroke-width:1.0;"/><polygon fill="#181818" points="334.81,1128.2,325.277,1125.7259,329.8773,1129.0178,326.5854,1133.6181,334.81,1128.2" style="stroke:#181818;stroke-width:1.0;"/></g><!--link TacticalOperator to ProvideDigitalAssistance--><g id="link_TacticalOperator_ProvideDigitalAssistance"><path d="M130.25,1402.3 C153.52,1394.48 180.86,1384.7 205,1374.5 C262.75,1350.11 321.9542,1319.5291 361.6842,1298.1891 " fill="none" id="TacticalOperator-to-ProvideDigitalAssistance" style="stroke:#181818;stroke-width:1.0;"/><polygon fill="#181818" points="366.97,1295.35,357.1486,1296.0848,362.5652,1297.7159,360.9341,1303.1325,366.97,1295.35" style="stroke:#181818;stroke-width:1.0;"/></g><!--link TacticalOperator to ProvideMissionInsight--><g id="link_TacticalOperator_ProvideMissionInsight"><path d="M126.26,1380.45 C132.44,1374.98 138.51,1369.25 144,1363.5 C193.43,1311.7 180.64,1273.78 240.5,1234.5 C264.3,1218.88 287.8136,1210.7114 315.1236,1205.0814 " fill="none" id="TacticalOperator-to-ProvideMissionInsight" style="stroke:#181818;stroke-width:1.0;"/><polygon fill="#181818" points="321,1203.87,311.3777,1201.7695,316.103,1204.8795,312.993,1209.6048,321,1203.87" style="stroke:#181818;stroke-width:1.0;"/></g><!--link DevOpsEngineer to ManageEnvironments--><g id="link_DevOpsEngineer_ManageEnvironments"><path d="M131.07,554.36 C183.48,559.93 257.0438,567.7543 316.9238,574.1343 " fill="none" id="DevOpsEngineer-to-ManageEnvironments" style="stroke:#181818;stroke-width:1.0;"/><polygon fill="#181818" points="322.89,574.77,314.3644,569.839,317.9181,574.2403,313.5169,577.794,322.89,574.77" style="stroke:#181818;stroke-width:1.0;"/></g><!--link DevOpsEngineer to ManageSABR--><g id="link_DevOpsEngineer_ManageSABR"><path d="M131.07,573.44 C200.21,604.75 311.1044,654.9746 367.2744,680.4146 " fill="none" id="DevOpsEngineer-to-ManageSABR" style="stroke:#181818;stroke-width:1.0;"/><polygon fill="#181818" points="372.74,682.89,366.1919,675.5332,368.1854,680.8272,362.8914,682.8206,372.74,682.89" style="stroke:#181818;stroke-width:1.0;"/></g><!--SRC=[jLPDR-8m4BtdLrZTCrAFFI6bIm-HYbe1-mECCqaj1Jko3Ikqsl- -_efZvmE2rEK0oVDxVZFZoOG6AeKKHuBMNmgLL01HbBCioudY0ZtPdoU49R9NFTws3INOSD46Bj3m5ZolNmaBGRR12gESuUOgbMKRmDydf3TMKmP-onX8jzeJ2apHQBE038WAVcDHzZHttvFWyj5AbDfQR6HS7D27pibcA2snEFH0eEs1d0LLLq_sLUpG3Wpq0zQ59xX9wHtQqxFC715cTGFfAMmnmpMSTFBe7Lzz2lZK8FJZ-HdZga9_CkG_Pma4Ixr1mHJKUcT0xu05ewns2NLmXrfba4yTCLgjLkiPOH07NnTil97rTN24fhxfWJZ7QSd2S6-8ix_VMsdlZ7xY5XzferkWwp43z-YYIgzdTED2Rw1j-7NiQj0vqr6PrzE2iTiEJlm2GpU7Fk0sAHYx_MfBqxa3DuS-u3OfcEg1lHaivjJpsdo_dbcfuHr8VXO4t2YG-2Xq7noFSttGTNw1jho49cxxmYA3UAFHb_HiH1u9mWnShF0Z-2v_c4Qe6lNvEpo6bpx28qsYYqViCbK8TVz5MnUSlReVJq-RpVkJwySopRc3iaLn9-nPc-vj4TbqK6epVAt4LebYRFKf-8MMW3Qqfag_Vt8fTUTWHi2w-cM_sY-c_iFtbFE_gPsFP4irKy_PWadphoGEmo_vbGTYc13-bp7l3-wDNQZWp8ZZ7edXktDfHZ8LzaONLj3ZMK6fgrPnSRgHGabj3bL5oClBZHps-UikRZnzk_HP3jmGx3y0]--></g></svg>