<?xml version="1.0" encoding="UTF-8" standalone="no"?><svg xmlns="http://www.w3.org/2000/svg" xmlns:xlink="http://www.w3.org/1999/xlink" contentScriptType="application/ecmascript" contentStyleType="text/css" height="408px" preserveAspectRatio="none" style="width:310px;height:408px;" version="1.1" viewBox="0 0 310 408" width="310px" zoomAndPan="magnify"><defs><filter height="300%" id="fde6x8nmwzylf" width="300%" x="-1" y="-1"><feGaussianBlur result="blurOut" stdDeviation="2.0"/><feColorMatrix in="blurOut" result="blurOut2" type="matrix" values="0 0 0 0 0 0 0 0 0 0 0 0 0 0 0 0 0 0 .4 0"/><feOffset dx="4.0" dy="4.0" in="blurOut2" result="blurOut3"/><feBlend in="SourceGraphic" in2="blurOut3" mode="normal"/></filter></defs><g><rect fill="#FFCC88" filter="url(#fde6x8nmwzylf)" height="389.6094" rx="12.5" ry="12.5" style="stroke: #A80036; stroke-width: 1.5;" width="292" x="6" y="8"/><rect fill="#FFFFFF" height="356" rx="12.5" ry="12.5" style="stroke: #FFFFFF; stroke-width: 1.0;" width="286" x="9" y="38.6094"/><line style="stroke: #A80036; stroke-width: 1.5;" x1="6" x2="298" y1="35.6094" y2="35.6094"/><text fill="#000000" font-family="sans-serif" font-size="14" lengthAdjust="spacingAndGlyphs" textLength="151" x="76.5" y="27.5332">ChannelActivationPolicy</text><rect fill="#FFCC88" filter="url(#fde6x8nmwzylf)" height="50" rx="12.5" ry="12.5" style="stroke: #A80036; stroke-width: 1.5;" width="50" x="102.5" y="48.6094"/><line style="stroke: #A80036; stroke-width: 1.5;" x1="102.5" x2="152.5" y1="76.2188" y2="76.2188"/><text fill="#000000" font-family="sans-serif" font-size="14" lengthAdjust="spacingAndGlyphs" textLength="18" x="118.5" y="68.1426">Init</text><rect fill="#FFCC88" filter="url(#fde6x8nmwzylf)" height="50" rx="12.5" ry="12.5" style="stroke: #A80036; stroke-width: 1.5;" width="72" x="91.5" y="190.6094"/><line style="stroke: #A80036; stroke-width: 1.5;" x1="91.5" x2="163.5" y1="218.2188" y2="218.2188"/><text fill="#000000" font-family="sans-serif" font-size="14" lengthAdjust="spacingAndGlyphs" textLength="52" x="101.5" y="210.1426">Enabled</text><rect fill="#FFCC88" filter="url(#fde6x8nmwzylf)" height="50" rx="12.5" ry="12.5" style="stroke: #A80036; stroke-width: 1.5;" width="67" x="17" y="332.6094"/><line style="stroke: #A80036; stroke-width: 1.5;" x1="17" x2="84" y1="360.2188" y2="360.2188"/><text fill="#000000" font-family="sans-serif" font-size="14" lengthAdjust="spacingAndGlyphs" textLength="47" x="27" y="352.1426">Disable</text><rect fill="#FFCC88" filter="url(#fde6x8nmwzylf)" height="50" rx="12.5" ry="12.5" style="stroke: #A80036; stroke-width: 1.5;" width="58" x="139.5" y="332.6094"/><line style="stroke: #A80036; stroke-width: 1.5;" x1="139.5" x2="197.5" y1="360.2188" y2="360.2188"/><text fill="#000000" font-family="sans-serif" font-size="14" lengthAdjust="spacingAndGlyphs" textLength="38" x="149.5" y="352.1426">Active</text><!--link Init to Enabled--><path d="M127.5,98.6764 C127.5,122.6164 127.5,159.3894 127.5,185.0824 " fill="none" id="Init-Enabled" style="stroke: #000000; stroke-width: 1.0;"/><polygon fill="#000000" points="127.5,190.3884,131.5,181.3884,127.5,185.3884,123.5,181.3884,127.5,190.3884" style="stroke: #000000; stroke-width: 1.0;"/><text fill="#000000" font-family="sans-serif" font-size="13" lengthAdjust="spacingAndGlyphs" textLength="36" x="128.5" y="150.1045">create</text><!--link Enabled to Active--><path d="M134.548,240.6764 C141.589,264.7164 152.419,301.6978 159.947,327.4043 " fill="none" id="Enabled-Active" style="stroke: #000000; stroke-width: 1.0;"/><polygon fill="#000000" points="161.407,332.3881,162.716,322.6266,160.0016,327.5896,155.0386,324.8752,161.407,332.3881" style="stroke: #000000; stroke-width: 1.0;"/><text fill="#000000" font-family="sans-serif" font-size="13" lengthAdjust="spacingAndGlyphs" textLength="44" x="151.5" y="292.1045">activate</text><!--link Enabled to Disable--><path d="M114.2632,240.6764 C100.986,264.8164 80.5318,302.0062 66.3864,327.725 " fill="none" id="Enabled-Disable" style="stroke: #000000; stroke-width: 1.0;"/><polygon fill="#000000" points="63.8217,332.3881,71.6639,326.4299,66.2314,328.007,64.6543,322.5745,63.8217,332.3881" style="stroke: #000000; stroke-width: 1.0;"/><text fill="#000000" font-family="sans-serif" font-size="13" lengthAdjust="spacingAndGlyphs" textLength="41" x="94.5" y="292.1045">disable</text><!--link Disable to Enabled--><path d="M40.9525,332.5159 C36.0538,316.1675 32.7553,294.5332 41.5,277.6094 C51.1831,258.8694 69.5742,244.6404 86.8718,234.6584 " fill="none" id="Disable-Enabled" style="stroke: #000000; stroke-width: 1.0;"/><polygon fill="#000000" points="91.2399,232.2124,81.4329,233.1197,86.8773,234.6553,85.3417,240.0998,91.2399,232.2124" style="stroke: #000000; stroke-width: 1.0;"/><text fill="#000000" font-family="sans-serif" font-size="13" lengthAdjust="spacingAndGlyphs" textLength="38" x="42.5" y="292.1045">enable</text><!--link Active to Enabled--><path d="M188.86,332.475 C199.6,316.6856 208.961,295.706 200.5,277.6094 C193.524,262.6894 180.905,250.1364 168.098,240.3704 " fill="none" id="Active-Enabled" style="stroke: #000000; stroke-width: 1.0;"/><polygon fill="#000000" points="163.756,237.1664,168.6227,245.7288,167.7792,240.1352,173.3728,239.2917,163.756,237.1664" style="stroke: #000000; stroke-width: 1.0;"/><text fill="#000000" font-family="sans-serif" font-size="13" lengthAdjust="spacingAndGlyphs" textLength="58" x="205.5" y="292.1045">deactivate</text><!--
@startuml



state ChannelActivationPolicy #ffcc88 {

    state Init #ffcc88 {
    }

    state Enabled #ffcc88 {
    }

    state Disable #ffcc88 {
    }

    state Active #ffcc88 {
    }




Init -[#black]- -> Enabled : create

Enabled -[#black]- -> Active : activate

Enabled -[#black]- -> Disable : disable

Disable -[#black]- -> Enabled : enable

Active -[#black]- -> Enabled : deactivate

}


@enduml

PlantUML version 1.2019.05(Sat Apr 20 09:45:36 PDT 2019)
(GPL source distribution)
Java Runtime: Java(TM) SE Runtime Environment
JVM: Java HotSpot(TM) Client VM
Java Version: 1.8.0_271-b09
Operating System: Windows 10
OS Version: 10.0
Default Encoding: Cp1252
Language: en
Country: US
--></g></svg>