<?xml version="1.0" encoding="us-ascii" standalone="no"?><svg xmlns="http://www.w3.org/2000/svg" xmlns:xlink="http://www.w3.org/1999/xlink" contentStyleType="text/css" height="504px" preserveAspectRatio="none" style="width:1268px;height:504px;background:#FFFFFF;" version="1.1" viewBox="0 0 1268 504" width="1268px" zoomAndPan="magnify"><defs/><g><!--cluster Application Developer--><g id="cluster_Application Developer"><polygon fill="#D3D3D3" points="16,57.5,251,57.5,258,81.1094,261,81.1094,261,212,16,212,16,57.5" style="stroke:#000000;stroke-width:1.5;"/><line style="stroke:#000000;stroke-width:1.5;" x1="16" x2="258" y1="81.1094" y2="81.1094"/><text fill="#000000" font-family="sans-serif" font-size="14" font-weight="bold" lengthAdjust="spacing" textLength="156" x="20" y="74.0332">Application Developer</text></g><!--cluster Application Management Layer--><g id="cluster_Application Management Layer"><polygon fill="#ADD8E6" points="285,6,506,6,513,29.6094,1251,29.6094,1251,311,285,311,285,6" style="stroke:#000000;stroke-width:1.5;"/><line style="stroke:#000000;stroke-width:1.5;" x1="285" x2="513" y1="29.6094" y2="29.6094"/><text fill="#000000" font-family="sans-serif" font-size="14" font-weight="bold" lengthAdjust="spacing" textLength="215" x="289" y="22.5332">Application Management Layer</text></g><!--cluster Workflow Services--><g id="cluster_Workflow Services"><polygon fill="#FFFFFF" points="309,50,446,50,453,73.6094,1227,73.6094,1227,287,309,287,309,50" style="stroke:#000000;stroke-width:1.5;"/><line style="stroke:#000000;stroke-width:1.5;" x1="309" x2="453" y1="73.6094" y2="73.6094"/><text fill="#000000" font-family="sans-serif" font-size="14" font-weight="bold" lengthAdjust="spacing" textLength="131" x="313" y="66.5332">Workflow Services</text></g><!--cluster Service Management Layer--><g id="cluster_Service Management Layer"><polygon fill="#90EE90" points="431,335,628,335,635,358.6094,1190,358.6094,1190,497,431,497,431,335" style="stroke:#000000;stroke-width:1.5;"/><line style="stroke:#000000;stroke-width:1.5;" x1="431" x2="635" y1="358.6094" y2="358.6094"/><text fill="#000000" font-family="sans-serif" font-size="14" font-weight="bold" lengthAdjust="spacing" textLength="191" x="435" y="351.5332">Service Management Layer</text></g><ellipse cx="185" cy="103.5" fill="#222222" rx="10" ry="10" style="stroke:#222222;stroke-width:1.0;"/><rect fill="#F1F1F1" height="35.0938" rx="12.5" ry="12.5" style="stroke:#181818;stroke-width:0.5;" width="119" x="125.5" y="161"/><text fill="#000000" font-family="sans-serif" font-size="12" lengthAdjust="spacing" textLength="99" x="135.5" y="183.457">Define Application</text><rect fill="#F1F1F1" height="35.0938" rx="12.5" ry="12.5" style="stroke:#181818;stroke-width:0.5;" width="120" x="325" y="161"/><text fill="#000000" font-family="sans-serif" font-size="12" lengthAdjust="spacing" textLength="100" x="335" y="183.457">Create Application</text><rect fill="#F1F1F1" height="35.0938" rx="12.5" ry="12.5" style="stroke:#181818;stroke-width:0.5;" width="121" x="465.5" y="161"/><text fill="#000000" font-family="sans-serif" font-size="12" lengthAdjust="spacing" textLength="101" x="475.5" y="183.457">Deploy Application</text><rect fill="#F1F1F1" height="35.0938" rx="12.5" ry="12.5" style="stroke:#181818;stroke-width:0.5;" width="123" x="606.5" y="161"/><text fill="#000000" font-family="sans-serif" font-size="12" lengthAdjust="spacing" textLength="103" x="616.5" y="183.457">Update Application</text><rect fill="#F1F1F1" height="35.0938" rx="12.5" ry="12.5" style="stroke:#181818;stroke-width:0.5;" width="115" x="749.5" y="161"/><text fill="#000000" font-family="sans-serif" font-size="12" lengthAdjust="spacing" textLength="95" x="759.5" y="183.457">Sleep Application</text><rect fill="#F1F1F1" height="35.0938" rx="12.5" ry="12.5" style="stroke:#181818;stroke-width:0.5;" width="138" x="885" y="161"/><text fill="#000000" font-family="sans-serif" font-size="12" lengthAdjust="spacing" textLength="118" x="895" y="183.457">Shutdown Application</text><rect fill="#F1F1F1" height="35.0938" rx="12.5" ry="12.5" style="stroke:#181818;stroke-width:0.5;" width="125" x="1043.5" y="161"/><text fill="#000000" font-family="sans-serif" font-size="12" lengthAdjust="spacing" textLength="105" x="1053.5" y="183.457">Destroy Application</text><ellipse cx="1200" cy="178.5" fill="none" rx="11" ry="11" style="stroke:#222222;stroke-width:1.0;"/><ellipse cx="1200" cy="178.5" fill="#222222" rx="6" ry="6" style="stroke:#222222;stroke-width:1.0;"/><rect fill="#D3D3D3" height="35.0938" rx="12.5" ry="12.5" style="stroke:#181818;stroke-width:0.5;" width="113" x="469.5" y="86"/><text fill="#000000" font-family="sans-serif" font-size="12" lengthAdjust="spacing" textLength="93" x="479.5" y="108.457">Deploy Workload</text><rect fill="#F1F1F1" height="35.0938" rx="12.5" ry="12.5" style="stroke:#181818;stroke-width:0.5;" width="123" x="325.5" y="236"/><text fill="#000000" font-family="sans-serif" font-size="12" lengthAdjust="spacing" textLength="103" x="335.5" y="258.457">Monitor Application</text><rect fill="#F1F1F1" height="35.0938" rx="12.5" ry="12.5" style="stroke:#181818;stroke-width:0.5;" width="143" x="468.5" y="236"/><text fill="#000000" font-family="sans-serif" font-size="12" lengthAdjust="spacing" textLength="123" x="478.5" y="258.457">Rebalance Application</text><rect fill="#F1F1F1" height="35.0938" rx="12.5" ry="12.5" style="stroke:#181818;stroke-width:0.5;" width="120" x="632" y="236"/><text fill="#000000" font-family="sans-serif" font-size="12" lengthAdjust="spacing" textLength="100" x="642" y="258.457">Debug Application</text><rect fill="#D3D3D3" height="35.0938" rx="12.5" ry="12.5" style="stroke:#181818;stroke-width:0.5;" width="100" x="571" y="371"/><text fill="#000000" font-family="sans-serif" font-size="12" lengthAdjust="spacing" textLength="80" x="581" y="393.457">Create Service</text><rect fill="#D3D3D3" height="35.0938" rx="12.5" ry="12.5" style="stroke:#181818;stroke-width:0.5;" width="101" x="570.5" y="446"/><text fill="#000000" font-family="sans-serif" font-size="12" lengthAdjust="spacing" textLength="81" x="580.5" y="468.457">Deploy Service</text><rect fill="#D3D3D3" height="35.0938" rx="12.5" ry="12.5" style="stroke:#181818;stroke-width:0.5;" width="103" x="691.5" y="371"/><text fill="#000000" font-family="sans-serif" font-size="12" lengthAdjust="spacing" textLength="83" x="701.5" y="393.457">Update Service</text><rect fill="#D3D3D3" height="35.0938" rx="12.5" ry="12.5" style="stroke:#181818;stroke-width:0.5;" width="95" x="814.5" y="371"/><text fill="#000000" font-family="sans-serif" font-size="12" lengthAdjust="spacing" textLength="75" x="824.5" y="393.457">Sleep Service</text><rect fill="#D3D3D3" height="35.0938" rx="12.5" ry="12.5" style="stroke:#181818;stroke-width:0.5;" width="118" x="930" y="371"/><text fill="#000000" font-family="sans-serif" font-size="12" lengthAdjust="spacing" textLength="98" x="940" y="393.457">Shutdown Service</text><rect fill="#D3D3D3" height="35.0938" rx="12.5" ry="12.5" style="stroke:#181818;stroke-width:0.5;" width="105" x="1068.5" y="371"/><text fill="#000000" font-family="sans-serif" font-size="12" lengthAdjust="spacing" textLength="85" x="1078.5" y="393.457">Destroy Service</text><rect fill="#D3D3D3" height="35.0938" rx="12.5" ry="12.5" style="stroke:#181818;stroke-width:0.5;" width="103" x="447.5" y="371"/><text fill="#000000" font-family="sans-serif" font-size="12" lengthAdjust="spacing" textLength="83" x="457.5" y="393.457">Monitor Service</text><!--link start to Define Application--><g id="link_start_Define Application"><path d="M185,113.75 C185,125.56 185,140.23 185,154.83 " fill="none" id="start-to-Define Application" style="stroke:#181818;stroke-width:1.0;"/><polygon fill="#181818" points="185,160.83,189,151.83,185,155.83,181,151.83,185,160.83" style="stroke:#181818;stroke-width:1.0;"/></g><!--link Define Application to Create Application--><g id="link_Define Application_Create Application"><path d="M244.77,178.5 C271.42,178.5 292.08,178.5 318.74,178.5 " fill="none" id="Define Application-to-Create Application" style="stroke:#181818;stroke-width:1.0;"/><polygon fill="#181818" points="324.74,178.5,315.74,174.5,319.74,178.5,315.74,182.5,324.74,178.5" style="stroke:#181818;stroke-width:1.0;"/></g><!--link Create Application to Deploy Application--><g id="link_Create Application_Deploy Application"><path d="M445.04,178.5 C451.78,178.5 452.53,178.5 459.28,178.5 " fill="none" id="Create Application-to-Deploy Application" style="stroke:#181818;stroke-width:1.0;"/><polygon fill="#181818" points="465.28,178.5,456.28,174.5,460.28,178.5,456.28,182.5,465.28,178.5" style="stroke:#181818;stroke-width:1.0;"/></g><!--link Deploy Application to Update Application--><g id="link_Deploy Application_Update Application"><path d="M586.74,178.5 C593.3,178.5 593.86,178.5 600.42,178.5 " fill="none" id="Deploy Application-to-Update Application" style="stroke:#181818;stroke-width:1.0;"/><polygon fill="#181818" points="606.42,178.5,597.42,174.5,601.42,178.5,597.42,182.5,606.42,178.5" style="stroke:#181818;stroke-width:1.0;"/></g><!--link Update Application to Sleep Application--><g id="link_Update Application_Sleep Application"><path d="M729.63,178.5 C736.18,178.5 736.72,178.5 743.27,178.5 " fill="none" id="Update Application-to-Sleep Application" style="stroke:#181818;stroke-width:1.0;"/><polygon fill="#181818" points="749.27,178.5,740.27,174.5,744.27,178.5,740.27,182.5,749.27,178.5" style="stroke:#181818;stroke-width:1.0;"/></g><!--link Sleep Application to Shutdown Application--><g id="link_Sleep Application_Shutdown Application"><path d="M864.71,178.5 C871.45,178.5 872.2,178.5 878.94,178.5 " fill="none" id="Sleep Application-to-Shutdown Application" style="stroke:#181818;stroke-width:1.0;"/><polygon fill="#181818" points="884.94,178.5,875.94,174.5,879.94,178.5,875.94,182.5,884.94,178.5" style="stroke:#181818;stroke-width:1.0;"/></g><!--link Shutdown Application to Destroy Application--><g id="link_Shutdown Application_Destroy Application"><path d="M1023.17,178.5 C1029.86,178.5 1030.55,178.5 1037.23,178.5 " fill="none" id="Shutdown Application-to-Destroy Application" style="stroke:#181818;stroke-width:1.0;"/><polygon fill="#181818" points="1043.23,178.5,1034.23,174.5,1038.23,178.5,1034.23,182.5,1043.23,178.5" style="stroke:#181818;stroke-width:1.0;"/></g><!--link Destroy Application to end--><g id="link_Destroy Application_end"><path d="M1168.79,178.5 C1175.45,178.5 1176.12,178.5 1182.78,178.5 " fill="none" id="Destroy Application-to-end" style="stroke:#181818;stroke-width:1.0;"/><polygon fill="#181818" points="1188.78,178.5,1179.78,174.5,1183.78,178.5,1179.78,182.5,1188.78,178.5" style="stroke:#181818;stroke-width:1.0;"/></g><!--link Deploy Workload to Deploy Application--><g id="link_Deploy Workload_Deploy Application"><path d="M526,121.06 C526,132.93 526,142.84 526,154.75 " fill="none" id="Deploy Workload-to-Deploy Application" style="stroke:#181818;stroke-width:1.0;"/><polygon fill="#181818" points="526,160.75,530,151.75,526,155.75,522,151.75,526,160.75" style="stroke:#181818;stroke-width:1.0;"/></g><!--link Deploy Application to Monitor Application--><g id="link_Deploy Application_Monitor Application"><path d="M497.93,196.14 C484.98,203.65 469.33,212.5 455,220 C444.68,225.4 438.7345,228.3848 428.3045,233.3648 " fill="none" id="Deploy Application-to-Monitor Application" style="stroke:#181818;stroke-width:1.0;"/><polygon fill="#181818" points="422.89,235.95,432.7352,235.6818,427.4021,233.7956,429.2882,228.4625,422.89,235.95" style="stroke:#181818;stroke-width:1.0;"/></g><!--link Deploy Application to Rebalance Application--><g id="link_Deploy Application_Rebalance Application"><path d="M529.18,196.06 C531.45,207.93 533.3671,217.9479 535.6571,229.8579 " fill="none" id="Deploy Application-to-Rebalance Application" style="stroke:#181818;stroke-width:1.0;"/><polygon fill="#181818" points="536.79,235.75,539.0187,226.1566,535.8459,230.8399,531.1626,227.6672,536.79,235.75" style="stroke:#181818;stroke-width:1.0;"/></g><!--link Deploy Application to Debug Application--><g id="link_Deploy Application_Debug Application"><path d="M551.94,196.16 C564.86,204.02 580.91,213.16 596,220 C608.98,225.88 617.6831,229.3576 631.2731,234.0076 " fill="none" id="Deploy Application-to-Debug Application" style="stroke:#181818;stroke-width:1.0;"/><polygon fill="#181818" points="636.95,235.95,629.7296,229.2518,632.2193,234.3313,627.1397,236.821,636.95,235.95" style="stroke:#181818;stroke-width:1.0;"/></g><!--link Deploy Application to Create Service--><g id="link_Deploy Application_Create Service"><path d="M548.79,196.05 C561.93,204.7 579.15,214.6 596,220 C631.29,231.32 737.08,208.57 762,236 C786.8,263.31 786.77,291.66 762,319 C749.85,332.4 697.33,319.23 681,327 C660.56,336.72 646.7205,351.6304 636.0005,365.9204 " fill="none" id="Deploy Application-to-Create Service" style="stroke:#181818;stroke-width:1.0;"/><polygon fill="#181818" points="632.4,370.72,641.0005,365.921,635.4004,366.7203,634.6011,361.1202,632.4,370.72" style="stroke:#181818;stroke-width:1.0;"/></g><!--link Create Service to Deploy Service--><g id="link_Create Service_Deploy Service"><path d="M621,406.06 C621,417.93 621,427.84 621,439.75 " fill="none" id="Create Service-to-Deploy Service" style="stroke:#181818;stroke-width:1.0;"/><polygon fill="#181818" points="621,445.75,625,436.75,621,440.75,617,436.75,621,445.75" style="stroke:#181818;stroke-width:1.0;"/></g><!--link Update Application to Update Service--><g id="link_Update Application_Update Service"><path d="M693.89,196.12 C707.26,204.17 724.07,213.48 740,220 C765.14,230.29 782.49,214.42 799,236 C821.41,265.3 811.39,284.26 799,319 C791.72,339.4 779.7843,353.9403 766.6543,366.6303 " fill="none" id="Update Application-to-Update Service" style="stroke:#181818;stroke-width:1.0;"/><polygon fill="#181818" points="762.34,370.8,771.5913,367.4216,765.9353,367.3252,766.0316,361.6692,762.34,370.8" style="stroke:#181818;stroke-width:1.0;"/></g><!--link Sleep Application to Sleep Service--><g id="link_Sleep Application_Sleep Service"><path d="M819.66,196.4 C827.08,207.18 835.96,221.75 841,236 C857.55,282.82 860.9666,336.082 861.6966,364.622 " fill="none" id="Sleep Application-to-Sleep Service" style="stroke:#181818;stroke-width:1.0;"/><polygon fill="#181818" points="861.85,370.62,865.6186,361.5207,861.7222,365.6216,857.6212,361.7252,861.85,370.62" style="stroke:#181818;stroke-width:1.0;"/></g><!--link Shutdown Application to Shutdown Service--><g id="link_Shutdown Application_Shutdown Service"><path d="M956.81,196.17 C963.36,235.12 978.6138,325.8133 985.1838,364.8333 " fill="none" id="Shutdown Application-to-Shutdown Service" style="stroke:#181818;stroke-width:1.0;"/><polygon fill="#181818" points="986.18,370.75,988.6301,361.2108,985.3498,365.8194,980.7412,362.5391,986.18,370.75" style="stroke:#181818;stroke-width:1.0;"/></g><!--link Destroy Application to Destroy Service--><g id="link_Destroy Application_Destroy Service"><path d="M1107.2,196.17 C1110.01,235.12 1116.549,325.7455 1119.359,364.7655 " fill="none" id="Destroy Application-to-Destroy Service" style="stroke:#181818;stroke-width:1.0;"/><polygon fill="#181818" points="1119.79,370.75,1123.1332,361.4859,1119.4309,365.7629,1115.1539,362.0606,1119.79,370.75" style="stroke:#181818;stroke-width:1.0;"/></g><!--link Monitor Application to Monitor Service--><g id="link_Monitor Application_Monitor Service"><path d="M400.96,271.08 C422.42,296.56 459.4357,340.5101 481.0057,366.1301 " fill="none" id="Monitor Application-to-Monitor Service" style="stroke:#181818;stroke-width:1.0;"/><polygon fill="#181818" points="484.87,370.72,482.1334,361.259,481.6497,366.8951,476.0136,366.4114,484.87,370.72" style="stroke:#181818;stroke-width:1.0;"/></g><!--SRC=[bP91RiCW44NtFiN8tRILSeLALRriDesghiVs1ADIG0J7iYBVFNO0bIHWAUpipnl-p7oDndBBbOJoNMl16xnyL7GaeJIP4fu4Pvrb1aSu5J2VvzSNs6pUeAnepoL1n9N5L1GwNNAB4XdzaRJmYUD_vLhqv2j7v8yoltkX1jYHEVA63lFreUCsN5rEoW0inZuCeRqn5Y1dN0irvlLltQxoEq6aL-IkjwqQv9g1WpKh3kOHnrrUt2uJ4GhRgus4HUJxIOcEsYh9hJAFObzKeq3PqADWHNNFxg5fpaoqUB_lR5oO8P8-1FctV09yiNXa3hpLup5ceKGi7EY5B7YV5yUv_taibIDF1YaBfo8MsdHA5aq5upeoANGw0m00]--></g></svg>