<?xml version="1.0" encoding="us-ascii" standalone="no"?><svg xmlns="http://www.w3.org/2000/svg" xmlns:xlink="http://www.w3.org/1999/xlink" contentStyleType="text/css" height="487px" preserveAspectRatio="none" style="width:1062px;height:487px;background:#FFFFFF;" version="1.1" viewBox="0 0 1062 487" width="1062px" zoomAndPan="magnify"><defs/><g><!--cluster Application Management Layer--><g id="cluster_Application Management Layer"><rect fill="#ADD8E6" height="381" rx="2.5" ry="2.5" style="stroke:#181818;stroke-width:1.0;" width="702" x="119" y="13.61"/><text fill="#000000" font-family="sans-serif" font-size="14" font-weight="bold" lengthAdjust="spacing" textLength="215" x="362.5" y="30.1432">Application Management Layer</text></g><!--cluster Service Management Layer--><g id="cluster_Service Management Layer"><rect fill="#90EE90" height="381" rx="2.5" ry="2.5" style="stroke:#181818;stroke-width:1.0;" width="207" x="849" y="48.61"/><text fill="#000000" font-family="sans-serif" font-size="14" font-weight="bold" lengthAdjust="spacing" textLength="191" x="857" y="65.1432">Service Management Layer</text></g><g id="elem_MA"><ellipse cx="378.2254" cy="168.5134" fill="#FFFFFF" rx="65.2254" ry="27.9034" style="stroke:#181818;stroke-width:0.5;"/><text fill="#000000" font-family="sans-serif" font-size="14" lengthAdjust="spacing" textLength="51" x="352.7254" y="163.4372">Manage</text><text fill="#000000" font-family="sans-serif" font-size="14" lengthAdjust="spacing" textLength="76" x="340.2254" y="181.0466">Applications</text></g><g id="elem_MW"><ellipse cx="193.8614" cy="173.5134" fill="#FFFFFF" rx="58.8614" ry="27.9034" style="stroke:#181818;stroke-width:0.5;"/><text fill="#000000" font-family="sans-serif" font-size="14" lengthAdjust="spacing" textLength="51" x="168.3614" y="168.4372">Manage</text><text fill="#000000" font-family="sans-serif" font-size="14" lengthAdjust="spacing" textLength="67" x="160.3614" y="186.0466">Workloads</text></g><g id="elem_MM"><ellipse cx="563.5477" cy="168.5134" fill="#FFFFFF" rx="47.5477" ry="27.9034" style="stroke:#181818;stroke-width:0.5;"/><text fill="#000000" font-family="sans-serif" font-size="14" lengthAdjust="spacing" textLength="51" x="538.0477" y="163.4372">Manage</text><text fill="#000000" font-family="sans-serif" font-size="14" lengthAdjust="spacing" textLength="45" x="541.0477" y="181.0466">Models</text></g><g id="elem_UC2"><ellipse cx="563.2756" cy="259.5134" fill="#D3D3D3" rx="60.2756" ry="27.9034" style="stroke:#181818;stroke-width:0.5;"/><text fill="#000000" font-family="sans-serif" font-size="14" lengthAdjust="spacing" textLength="44" x="541.2756" y="254.4372">Deploy</text><text fill="#000000" font-family="sans-serif" font-size="14" lengthAdjust="spacing" textLength="69" x="528.7756" y="272.0466">Application</text></g><g id="elem_UC7"><ellipse cx="744.598" cy="213.5134" fill="#D3D3D3" rx="42.598" ry="27.9034" style="stroke:#181818;stroke-width:0.5;"/><text fill="#000000" font-family="sans-serif" font-size="14" lengthAdjust="spacing" textLength="44" x="722.598" y="208.4372">Deploy</text><text fill="#000000" font-family="sans-serif" font-size="14" lengthAdjust="spacing" textLength="38" x="725.598" y="226.0466">Model</text></g><g id="elem_UC4"><ellipse cx="563.2756" cy="77.5134" fill="#D3D3D3" rx="60.2756" ry="27.9034" style="stroke:#181818;stroke-width:0.5;"/><text fill="#000000" font-family="sans-serif" font-size="14" lengthAdjust="spacing" textLength="45" x="540.7756" y="72.4372">Update</text><text fill="#000000" font-family="sans-serif" font-size="14" lengthAdjust="spacing" textLength="69" x="528.7756" y="90.0466">Application</text></g><g id="elem_UC5"><ellipse cx="744.3051" cy="122.5134" fill="#D3D3D3" rx="43.3051" ry="27.9034" style="stroke:#181818;stroke-width:0.5;"/><text fill="#000000" font-family="sans-serif" font-size="14" lengthAdjust="spacing" textLength="45" x="721.8051" y="117.4372">Update</text><text fill="#000000" font-family="sans-serif" font-size="14" lengthAdjust="spacing" textLength="38" x="725.3051" y="135.0466">Model</text></g><g id="elem_UC11"><ellipse cx="193.9117" cy="80.5134" fill="#D3D3D3" rx="53.9117" ry="27.9034" style="stroke:#181818;stroke-width:0.5;"/><text fill="#000000" font-family="sans-serif" font-size="14" lengthAdjust="spacing" textLength="45" x="171.4117" y="75.4372">Update</text><text fill="#000000" font-family="sans-serif" font-size="14" lengthAdjust="spacing" textLength="60" x="163.9117" y="93.0466">Workload</text></g><g id="elem_UC12"><ellipse cx="377.9117" cy="259.5134" fill="#D3D3D3" rx="53.9117" ry="27.9034" style="stroke:#181818;stroke-width:0.5;"/><text fill="#000000" font-family="sans-serif" font-size="14" lengthAdjust="spacing" textLength="44" x="355.9117" y="254.4372">Deploy</text><text fill="#000000" font-family="sans-serif" font-size="14" lengthAdjust="spacing" textLength="60" x="347.9117" y="272.0466">Workload</text></g><g id="elem_UC9"><ellipse cx="744.2756" cy="304.5134" fill="#D3D3D3" rx="60.2756" ry="27.9034" style="stroke:#181818;stroke-width:0.5;"/><text fill="#000000" font-family="sans-serif" font-size="14" lengthAdjust="spacing" textLength="47" x="720.7756" y="299.4372">Monitor</text><text fill="#000000" font-family="sans-serif" font-size="14" lengthAdjust="spacing" textLength="69" x="709.7756" y="317.0466">Application</text></g><g id="elem_UC13"><ellipse cx="563.4117" cy="350.5134" fill="#D3D3D3" rx="53.9117" ry="27.9034" style="stroke:#181818;stroke-width:0.5;"/><text fill="#000000" font-family="sans-serif" font-size="14" lengthAdjust="spacing" textLength="47" x="539.9117" y="345.4372">Monitor</text><text fill="#000000" font-family="sans-serif" font-size="14" lengthAdjust="spacing" textLength="60" x="533.4117" y="363.0466">Workload</text></g><g id="elem_MS"><ellipse cx="952.669" cy="294.5134" fill="#FFFFFF" rx="49.669" ry="27.9034" style="stroke:#181818;stroke-width:0.5;"/><text fill="#000000" font-family="sans-serif" font-size="14" lengthAdjust="spacing" textLength="51" x="927.169" y="289.4372">Manage</text><text fill="#000000" font-family="sans-serif" font-size="14" lengthAdjust="spacing" textLength="54" x="925.669" y="307.0466">Services</text></g><g id="elem_UC3"><ellipse cx="952.7193" cy="385.5134" fill="#D3D3D3" rx="44.7193" ry="27.9034" style="stroke:#181818;stroke-width:0.5;"/><text fill="#000000" font-family="sans-serif" font-size="14" lengthAdjust="spacing" textLength="44" x="930.7193" y="380.4372">Deploy</text><text fill="#000000" font-family="sans-serif" font-size="14" lengthAdjust="spacing" textLength="47" x="929.2193" y="398.0466">Service</text></g><g id="elem_UC6"><ellipse cx="952.7193" cy="112.5134" fill="#D3D3D3" rx="44.7193" ry="27.9034" style="stroke:#181818;stroke-width:0.5;"/><text fill="#000000" font-family="sans-serif" font-size="14" lengthAdjust="spacing" textLength="45" x="930.2193" y="107.4372">Update</text><text fill="#000000" font-family="sans-serif" font-size="14" lengthAdjust="spacing" textLength="47" x="929.2193" y="125.0466">Service</text></g><g id="elem_UC8"><ellipse cx="952.7193" cy="203.5134" fill="#D3D3D3" rx="44.7193" ry="27.9034" style="stroke:#181818;stroke-width:0.5;"/><text fill="#000000" font-family="sans-serif" font-size="14" lengthAdjust="spacing" textLength="47" x="929.2193" y="198.4372">Monitor</text><text fill="#000000" font-family="sans-serif" font-size="14" lengthAdjust="spacing" textLength="47" x="929.2193" y="216.0466">Service</text></g><!--entity User--><g id="elem_User"><ellipse cx="40.5" cy="266.61" fill="#F1F1F1" rx="8" ry="8" style="stroke:#181818;stroke-width:0.5;"/><path d="M40.5,274.61 L40.5,301.61 M27.5,282.61 L53.5,282.61 M40.5,301.61 L27.5,316.61 M40.5,301.61 L53.5,316.61 " fill="none" style="stroke:#181818;stroke-width:0.5;"/><text fill="#000000" font-family="sans-serif" font-size="14" lengthAdjust="spacing" textLength="69" x="6" y="332.6432">Application</text><text fill="#000000" font-family="sans-serif" font-size="14" lengthAdjust="spacing" textLength="65" x="6" y="350.2526">Developer</text></g><!--link User to MS--><g id="link_User_MS"><path d="M69.4,353.18 C80.54,368.48 94.64,384.16 111,394.61 C213.3,459.95 255.61,456.61 377,456.61 C377,456.61 377,456.61 564.5,456.61 C685.24,456.61 744.28,480.64 829,394.61 C846.55,376.78 824.89,358.75 841,339.61 C857.14,320.43 876.928,310.9682 899.408,304.5882 " fill="none" id="User-to-MS" style="stroke:#181818;stroke-width:1.0;"/><polygon fill="#181818" points="905.18,302.95,895.4298,301.5592,900.37,304.3151,897.614,309.2553,905.18,302.95" style="stroke:#181818;stroke-width:1.0;"/></g><!--link User to MA--><g id="link_User_MA"><path d="M75.21,291.85 C135.44,267.25 256.1054,217.9786 324.6854,189.9686 " fill="none" id="User-to-MA" style="stroke:#181818;stroke-width:1.0;"/><polygon fill="#181818" points="330.24,187.7,320.3957,187.3999,325.6112,189.5905,323.4206,194.806,330.24,187.7" style="stroke:#181818;stroke-width:1.0;"/></g><!--link User to MW--><g id="link_User_MW"><path d="M75.34,268.13 C86.32,256.64 98.82,244.23 111,233.61 C126.15,220.39 139.1661,210.4972 154.3861,199.7672 " fill="none" id="User-to-MW" style="stroke:#181818;stroke-width:1.0;"/><polygon fill="#181818" points="159.29,196.31,149.6294,198.2265,155.2034,199.191,154.239,204.765,159.29,196.31" style="stroke:#181818;stroke-width:1.0;"/></g><!--link User to MM--><g id="link_User_MM"><path d="M75.01,315.5 C147.36,334.84 321.41,370.28 443,304.61 C485.63,281.59 469.87,248.95 503,213.61 C511.33,204.73 516.7348,199.8662 526.3548,192.7562 " fill="none" id="User-to-MM" style="stroke:#181818;stroke-width:1.0;"/><polygon fill="#181818" points="531.18,189.19,521.5648,191.3225,527.159,192.1618,526.3197,197.7561,531.18,189.19" style="stroke:#181818;stroke-width:1.0;"/></g><!--link MA to MS--><g id="link_MA_MS"><path d="M394,141.27 C413.93,108.14 452.56,53.99 503,31.61 C552.16,9.8 570.54,25.81 624,31.61 C716.74,41.67 768.04,6 829,76.61 C854.04,105.61 818.64,217.49 841,248.61 C855.85,269.28 876.0022,279.1185 899.0222,285.4085 " fill="none" id="MA-to-MS" style="stroke:#181818;stroke-width:1.0;stroke-dasharray:7.0,7.0;"/><polygon fill="#181818" points="904.81,286.99,897.1826,280.7592,899.9868,285.6721,895.0739,288.4763,904.81,286.99" style="stroke:#181818;stroke-width:1.0;"/></g><!--link MA to MM--><g id="link_MA_MM"><path d="M443.18,168.61 C467.16,168.61 487.9,168.61 509.99,168.61 " fill="none" id="MA-to-MM" style="stroke:#181818;stroke-width:1.0;stroke-dasharray:7.0,7.0;"/><polygon fill="#181818" points="515.99,168.61,506.99,164.61,510.99,168.61,506.99,172.61,515.99,168.61" style="stroke:#181818;stroke-width:1.0;"/></g><!--link MM to UC7--><g id="link_MM_UC7"><path d="M607.37,179.39 C636.96,186.82 670.1411,195.1671 698.8211,202.3771 " fill="none" id="MM-to-UC7" style="stroke:#181818;stroke-width:1.0;stroke-dasharray:7.0,7.0;"/><polygon fill="#181818" points="704.64,203.84,696.8868,197.7664,699.7909,202.621,694.9364,205.525,704.64,203.84" style="stroke:#181818;stroke-width:1.0;"/></g><!--link MM to UC5--><g id="link_MM_UC5"><path d="M607.37,157.59 C636.65,150.07 669.3386,141.6625 697.9186,134.3225 " fill="none" id="MM-to-UC5" style="stroke:#181818;stroke-width:1.0;stroke-dasharray:7.0,7.0;"/><polygon fill="#181818" points="703.73,132.83,694.0179,131.1945,698.8872,134.0738,696.0079,138.943,703.73,132.83" style="stroke:#181818;stroke-width:1.0;"/></g><!--link UC2 to UC9--><g id="link_UC2_UC9"><path d="M617.24,272.87 C640.44,278.7 661.8109,284.0777 685.0109,289.9077 " fill="none" id="UC2-to-UC9" style="stroke:#181818;stroke-width:1.0;stroke-dasharray:7.0,7.0;"/><polygon fill="#181818" points="690.83,291.37,683.0762,285.2972,685.9808,290.1514,681.1265,293.0559,690.83,291.37" style="stroke:#181818;stroke-width:1.0;"/></g><!--link MA to UC4--><g id="link_MA_UC4"><path d="M421.56,147.5 C451.63,132.59 486.3251,115.3866 516.0551,100.6366 " fill="none" id="MA-to-UC4" style="stroke:#181818;stroke-width:1.0;stroke-dasharray:7.0,7.0;"/><polygon fill="#181818" points="521.43,97.97,511.59,98.3867,516.951,100.1922,515.1455,105.5532,521.43,97.97" style="stroke:#181818;stroke-width:1.0;"/></g><!--link UC12 to UC13--><g id="link_UC12_UC13"><path d="M417.92,278.91 C449.16,294.4 487.4341,313.3854 518.5841,328.8254 " fill="none" id="UC12-to-UC13" style="stroke:#181818;stroke-width:1.0;stroke-dasharray:7.0,7.0;"/><polygon fill="#181818" points="523.96,331.49,517.6726,323.9092,519.4801,329.2695,514.1198,331.077,523.96,331.49" style="stroke:#181818;stroke-width:1.0;"/></g><!--link UC13 to UC9--><g id="link_UC13_UC9"><path d="M612.47,338.28 C636.8,332.03 660.5989,325.9136 685.4989,319.5136 " fill="none" id="UC13-to-UC9" style="stroke:#181818;stroke-width:1.0;stroke-dasharray:7.0,7.0;"/><polygon fill="#181818" points="691.31,318.02,681.5976,316.3864,686.4674,319.2647,683.5891,324.1345,691.31,318.02" style="stroke:#181818;stroke-width:1.0;"/></g><!--link UC9 to UC8--><g id="link_UC9_UC8"><path d="M786.35,284.12 C800.23,276.64 815.61,267.76 829,258.61 C834.73,254.69 835.05,252.18 841,248.61 C863.46,235.12 885.0621,225.9951 906.8721,218.1751 " fill="none" id="UC9-to-UC8" style="stroke:#181818;stroke-width:1.0;stroke-dasharray:7.0,7.0;"/><polygon fill="#181818" points="912.52,216.15,902.6981,215.4223,907.8134,217.8376,905.3982,222.9529,912.52,216.15" style="stroke:#181818;stroke-width:1.0;"/></g><!--link MW to MA--><g id="link_MW_MA"><path d="M253.09,172.01 C272.12,171.49 287.3823,171.0764 306.8423,170.5364 " fill="none" id="MW-to-MA" style="stroke:#181818;stroke-width:1.0;stroke-dasharray:7.0,7.0;"/><polygon fill="#181818" points="312.84,170.37,303.7325,166.6212,307.8419,170.5087,303.9544,174.6181,312.84,170.37" style="stroke:#181818;stroke-width:1.0;"/></g><!--link MW to UC11--><g id="link_MW_UC11"><path d="M194,145.27 C194,133.06 194,126.86 194,114.65 " fill="none" id="MW-to-UC11" style="stroke:#181818;stroke-width:1.0;stroke-dasharray:7.0,7.0;"/><polygon fill="#181818" points="194,108.65,190,117.65,194,113.65,198,117.65,194,108.65" style="stroke:#181818;stroke-width:1.0;"/></g><!--link MW to UC12--><g id="link_MW_UC12"><path d="M236.75,193.34 C267.08,207.67 302.435,224.377 332.195,238.437 " fill="none" id="MW-to-UC12" style="stroke:#181818;stroke-width:1.0;stroke-dasharray:7.0,7.0;"/><polygon fill="#181818" points="337.62,241,331.1912,233.5388,333.0991,238.8641,327.7738,240.7721,337.62,241" style="stroke:#181818;stroke-width:1.0;"/></g><!--link UC12 to UC2--><g id="link_UC12_UC2"><path d="M432.08,259.61 C454.2,259.61 473.99,259.61 496.77,259.61 " fill="none" id="UC12-to-UC2" style="stroke:#181818;stroke-width:1.0;stroke-dasharray:7.0,7.0;"/><polygon fill="#181818" points="502.77,259.61,493.77,255.61,497.77,259.61,493.77,263.61,502.77,259.61" style="stroke:#181818;stroke-width:1.0;"/></g><!--link UC11 to UC4--><g id="link_UC11_UC4"><path d="M248.05,80.18 C315.63,79.62 426.1202,78.7184 496.7602,78.1484 " fill="none" id="UC11-to-UC4" style="stroke:#181818;stroke-width:1.0;stroke-dasharray:7.0,7.0;"/><polygon fill="#181818" points="502.76,78.1,493.728,74.1727,497.7602,78.1403,493.7926,82.1725,502.76,78.1" style="stroke:#181818;stroke-width:1.0;"/></g><!--link UC2 to UC7--><g id="link_UC2_UC7"><path d="M616.76,246.18 C644.82,238.97 673.0288,231.7135 698.7488,225.1035 " fill="none" id="UC2-to-UC7" style="stroke:#181818;stroke-width:1.0;stroke-dasharray:7.0,7.0;"/><polygon fill="#181818" points="704.56,223.61,694.8476,221.9761,699.7174,224.8545,696.8389,229.7243,704.56,223.61" style="stroke:#181818;stroke-width:1.0;"/></g><!--link MA to UC2--><g id="link_MA_UC2"><path d="M421.56,189.71 C451.63,204.63 486.3244,221.8348 516.0544,236.5748 " fill="none" id="MA-to-UC2" style="stroke:#181818;stroke-width:1.0;stroke-dasharray:7.0,7.0;"/><polygon fill="#181818" points="521.43,239.24,515.1434,231.6585,516.9504,237.019,511.5898,238.8259,521.43,239.24" style="stroke:#181818;stroke-width:1.0;"/></g><!--link UC2 to UC3--><g id="link_UC2_UC3"><path d="M595.99,283.4 C631.18,309.98 683.36,349.35 684,349.61 C758.34,380.14 847.1302,385.866 901.6002,386.356 " fill="none" id="UC2-to-UC3" style="stroke:#181818;stroke-width:1.0;stroke-dasharray:7.0,7.0;"/><polygon fill="#181818" points="907.6,386.41,898.6363,382.3292,902.6002,386.365,898.5644,390.3289,907.6,386.41" style="stroke:#181818;stroke-width:1.0;"/></g><!--link UC4 to UC6--><g id="link_UC4_UC6"><path d="M623.15,72.5 C676.98,68.96 758.78,66.5 829,76.61 C858.07,80.79 884.1938,88.3457 908.1038,96.5357 " fill="none" id="UC4-to-UC6" style="stroke:#181818;stroke-width:1.0;stroke-dasharray:7.0,7.0;"/><polygon fill="#181818" points="913.78,98.48,906.5618,91.7794,909.0498,96.8597,903.9694,99.3477,913.78,98.48" style="stroke:#181818;stroke-width:1.0;"/></g><!--link UC4 to UC5--><g id="link_UC4_UC5"><path d="M617.24,90.87 C644.88,97.81 672.3509,104.7278 697.8209,111.1278 " fill="none" id="UC4-to-UC5" style="stroke:#181818;stroke-width:1.0;stroke-dasharray:7.0,7.0;"/><polygon fill="#181818" points="703.64,112.59,695.8861,106.5173,698.7907,111.3715,693.9365,114.2761,703.64,112.59" style="stroke:#181818;stroke-width:1.0;"/></g><!--SRC=[ZPFBRi8m44NtynKZkWOfuL5WKIc5PRD2Y0qRAnb2LDUE79SALVnxRISfDkALrOrrxZmyOquxZLgYAekznhnKbEbI2W2MQQbmdbGLBpDcpxPYIGVYiY8rHrRZkYO5O0rC59omvx6OCi4A-YAXyOCTIVNmXTiKx_oRy1VGVCQ_O3LXcjXelSQn5LwKshX-zgMcaDy4_4QgJovPVWDE0pYLEV7hv7eHEtH95PV7e8wk-4AnuuNdDV2uy7VeaQFNLSuqFPjX77WUPOYY0EykvvuZRFi9nwovKYbAioBFjX4DGzVLF2T_dLQa3cL6DrUfK4JYSfTMmRZR4BS6FWmwR-4xFKo2kttCJyEMhnbE060V4lRxRwPwJoUUtdWw1VDW1WD7TygSfKwPXJpBCTYTRlIiOyqIWXjwynCDmSsce-nq6pq5yz1SzCGfHqTd6RTXx8_J4Vw7Zy_5T5bZxzZc7BLwukan_040]--></g></svg>