<?xml version="1.0" encoding="us-ascii" standalone="no"?><svg xmlns="http://www.w3.org/2000/svg" xmlns:xlink="http://www.w3.org/1999/xlink" contentStyleType="text/css" height="551px" preserveAspectRatio="none" style="width:818px;height:551px;background:#FFFFFF;" version="1.1" viewBox="0 0 818 551" width="818px" zoomAndPan="magnify"><defs/><g><rect fill="none" height="22.6406" style="stroke:none;stroke-width:1.0;" width="785.5" x="15" y="12.4551"/><ellipse cx="107.5" cy="50.0957" fill="#222222" rx="10" ry="10" style="stroke:#222222;stroke-width:1.0;"/><line style="stroke:#000000;stroke-width:1.5;" x1="15" x2="15" y1="12.4551" y2="539.752"/><rect fill="#E6E6FA" height="527.2969" style="stroke:#E6E6FA;stroke-width:1.0;" width="348" x="199" y="12.4551"/><rect fill="#555555" height="6" rx="2.5" ry="2.5" style="stroke:#555555;stroke-width:1.0;" width="338" x="205" y="80.0957"/><rect fill="#F1F1F1" height="35.0938" rx="12.5" ry="12.5" style="stroke:#181818;stroke-width:0.5;" width="153" x="219.5" y="106.0957"/><text fill="#000000" font-family="sans-serif" font-size="12" lengthAdjust="spacing" textLength="133" x="229.5" y="128.5527">Create Application Stack</text><rect fill="#F1F1F1" height="35.0938" rx="12.5" ry="12.5" style="stroke:#181818;stroke-width:0.5;" width="150" x="221" y="161.1895"/><text fill="#000000" font-family="sans-serif" font-size="12" lengthAdjust="spacing" textLength="130" x="231" y="183.6465">Modify Application Stack</text><rect fill="#F1F1F1" height="35.0938" rx="12.5" ry="12.5" style="stroke:#181818;stroke-width:0.5;" width="158" x="217" y="216.2832"/><text fill="#000000" font-family="sans-serif" font-size="12" lengthAdjust="spacing" textLength="138" x="227" y="238.7402">Version Application Stack</text><rect fill="#F1F1F1" height="35.0938" rx="12.5" ry="12.5" style="stroke:#181818;stroke-width:0.5;" width="133" x="395.5" y="106.0957"/><text fill="#000000" font-family="sans-serif" font-size="12" lengthAdjust="spacing" textLength="113" x="405.5" y="128.5527">Create Service Stack</text><rect fill="#F1F1F1" height="35.0938" rx="12.5" ry="12.5" style="stroke:#181818;stroke-width:0.5;" width="130" x="397" y="161.1895"/><text fill="#000000" font-family="sans-serif" font-size="12" lengthAdjust="spacing" textLength="110" x="407" y="183.6465">Modify Service Stack</text><rect fill="#F1F1F1" height="35.0938" rx="12.5" ry="12.5" style="stroke:#181818;stroke-width:0.5;" width="138" x="393" y="216.2832"/><text fill="#000000" font-family="sans-serif" font-size="12" lengthAdjust="spacing" textLength="118" x="403" y="238.7402">Version Service Stack</text><rect fill="#555555" height="6" rx="2.5" ry="2.5" style="stroke:#555555;stroke-width:1.0;" width="338" x="205" y="271.377"/><line style="stroke:#000000;stroke-width:1.5;" x1="199" x2="199" y1="12.4551" y2="539.752"/><rect fill="#ADD8E6" height="527.2969" style="stroke:#ADD8E6;stroke-width:1.0;" width="252" x="547" y="12.4551"/><rect fill="#F1F1F1" height="35.0938" rx="12.5" ry="12.5" style="stroke:#181818;stroke-width:0.5;" width="140" x="604" y="297.377"/><text fill="#000000" font-family="sans-serif" font-size="12" lengthAdjust="spacing" textLength="120" x="614" y="319.834">Test Application Stack</text><rect fill="#F1F1F1" height="35.0938" rx="12.5" ry="12.5" style="stroke:#181818;stroke-width:0.5;" width="137" x="605.5" y="352.4707"/><text fill="#000000" font-family="sans-serif" font-size="12" lengthAdjust="spacing" textLength="117" x="615.5" y="374.9277">Create an Application</text><rect fill="#F1F1F1" height="35.0938" rx="12.5" ry="12.5" style="stroke:#181818;stroke-width:0.5;" width="242" x="553" y="407.5645"/><text fill="#000000" font-family="sans-serif" font-size="12" lengthAdjust="spacing" textLength="222" x="563" y="430.0215">Launch an Application in an environment</text><rect fill="#F1F1F1" height="35.0938" rx="12.5" ry="12.5" style="stroke:#181818;stroke-width:0.5;" width="174" x="587" y="462.6582"/><text fill="#000000" font-family="sans-serif" font-size="12" lengthAdjust="spacing" textLength="154" x="597" y="485.1152">Kill Application and Services</text><ellipse cx="674" cy="528.752" fill="none" rx="11" ry="11" style="stroke:#222222;stroke-width:1.0;"/><ellipse cx="674" cy="528.752" fill="#222222" rx="6" ry="6" style="stroke:#222222;stroke-width:1.0;"/><line style="stroke:#000000;stroke-width:1.5;" x1="547" x2="547" y1="12.4551" y2="539.752"/><line style="stroke:#000000;stroke-width:1.5;" x1="799" x2="799" y1="12.4551" y2="539.752"/><line style="stroke:#181818;stroke-width:1.0;" x1="296" x2="296" y1="141.1895" y2="161.1895"/><polygon fill="#181818" points="292,151.1895,296,161.1895,300,151.1895,296,155.1895" style="stroke:#181818;stroke-width:1.0;"/><line style="stroke:#181818;stroke-width:1.0;" x1="296" x2="296" y1="196.2832" y2="216.2832"/><polygon fill="#181818" points="292,206.2832,296,216.2832,300,206.2832,296,210.2832" style="stroke:#181818;stroke-width:1.0;"/><line style="stroke:#181818;stroke-width:1.0;" x1="462" x2="462" y1="141.1895" y2="161.1895"/><polygon fill="#181818" points="458,151.1895,462,161.1895,466,151.1895,462,155.1895" style="stroke:#181818;stroke-width:1.0;"/><line style="stroke:#181818;stroke-width:1.0;" x1="462" x2="462" y1="196.2832" y2="216.2832"/><polygon fill="#181818" points="458,206.2832,462,216.2832,466,206.2832,462,210.2832" style="stroke:#181818;stroke-width:1.0;"/><line style="stroke:#181818;stroke-width:1.0;" x1="296" x2="296" y1="86.0957" y2="106.0957"/><polygon fill="#181818" points="292,96.0957,296,106.0957,300,96.0957,296,100.0957" style="stroke:#181818;stroke-width:1.0;"/><line style="stroke:#181818;stroke-width:1.0;" x1="462" x2="462" y1="86.0957" y2="106.0957"/><polygon fill="#181818" points="458,96.0957,462,106.0957,466,96.0957,462,100.0957" style="stroke:#181818;stroke-width:1.0;"/><line style="stroke:#181818;stroke-width:1.0;" x1="296" x2="296" y1="251.377" y2="271.377"/><polygon fill="#181818" points="292,261.377,296,271.377,300,261.377,296,265.377" style="stroke:#181818;stroke-width:1.0;"/><line style="stroke:#181818;stroke-width:1.0;" x1="462" x2="462" y1="251.377" y2="271.377"/><polygon fill="#181818" points="458,261.377,462,271.377,466,261.377,462,265.377" style="stroke:#181818;stroke-width:1.0;"/><line style="stroke:#181818;stroke-width:1.0;" x1="674" x2="674" y1="332.4707" y2="352.4707"/><polygon fill="#181818" points="670,342.4707,674,352.4707,678,342.4707,674,346.4707" style="stroke:#181818;stroke-width:1.0;"/><line style="stroke:#181818;stroke-width:1.0;" x1="674" x2="674" y1="387.5645" y2="407.5645"/><polygon fill="#181818" points="670,397.5645,674,407.5645,678,397.5645,674,401.5645" style="stroke:#181818;stroke-width:1.0;"/><line style="stroke:#181818;stroke-width:1.0;" x1="674" x2="674" y1="442.6582" y2="462.6582"/><polygon fill="#181818" points="670,452.6582,674,462.6582,678,452.6582,674,456.6582" style="stroke:#181818;stroke-width:1.0;"/><line style="stroke:#181818;stroke-width:1.0;" x1="674" x2="674" y1="497.752" y2="517.752"/><polygon fill="#181818" points="670,507.752,674,517.752,678,507.752,674,511.752" style="stroke:#181818;stroke-width:1.0;"/><line style="stroke:#181818;stroke-width:1.0;" x1="107.5" x2="107.5" y1="60.0957" y2="65.0957"/><line style="stroke:#181818;stroke-width:1.0;" x1="107.5" x2="379" y1="65.0957" y2="65.0957"/><line style="stroke:#181818;stroke-width:1.0;" x1="379" x2="379" y1="65.0957" y2="80.0957"/><polygon fill="#181818" points="375,70.0957,379,80.0957,383,70.0957,379,74.0957" style="stroke:#181818;stroke-width:1.0;"/><line style="stroke:#181818;stroke-width:1.0;" x1="379" x2="379" y1="277.377" y2="282.377"/><line style="stroke:#181818;stroke-width:1.0;" x1="379" x2="674" y1="282.377" y2="282.377"/><line style="stroke:#181818;stroke-width:1.0;" x1="674" x2="674" y1="282.377" y2="297.377"/><polygon fill="#181818" points="670,287.377,674,297.377,678,287.377,674,291.377" style="stroke:#181818;stroke-width:1.0;"/><text fill="#000000" font-family="sans-serif" font-size="18" lengthAdjust="spacing" textLength="174" x="20" y="31.1406">Application Developer</text><text fill="#000000" font-family="sans-serif" font-size="18" lengthAdjust="spacing" textLength="80" x="333" y="31.1406">edgemere</text><text fill="#000000" font-family="sans-serif" font-size="18" lengthAdjust="spacing" textLength="163" x="591.5" y="31.1406">Application Manager</text><!--SRC=[RP313e8m38RlUmeItm9EHc_A2UEzmWyqZ8wCGMAoXtSpOe1mxDVkxzVvyp1eBicnaUIA6TeCi5wDZgnJ_gHfXbI1e6hGmyAhsjXEfHSBSaZMpmj7PPUfD3SLr-_3rXDsZFL1ByOcr13BFxo0dRd4FdYFbz0T_mO6-NW5DwrxwGb-lJWdeIOUcpumkaFVdmXjZ0E_qoHbk-C9IoIGcQsH7kB2v8srtWoHL8lfc8L_DeFw0000]--></g></svg>