<?xml version="1.0" encoding="us-ascii" standalone="no"?><svg xmlns="http://www.w3.org/2000/svg" xmlns:xlink="http://www.w3.org/1999/xlink" contentStyleType="text/css" height="676px" preserveAspectRatio="none" style="width:373px;height:676px;background:#FFFFFF;" version="1.1" viewBox="0 0 373 676" width="373px" zoomAndPan="magnify"><defs/><g><!--cluster Distributed Information Management Layer--><g id="cluster_Distributed Information Management Layer"><path d="M48,60 L348,60 A3.75,3.75 0 0 1 350.5,62.5 L357.5,83.6094 L364,83.6094 A2.5,2.5 0 0 1 366.5,86.1094 L366.5,666.5 A2.5,2.5 0 0 1 364,669 L48,669 A2.5,2.5 0 0 1 45.5,666.5 L45.5,62.5 A2.5,2.5 0 0 1 48,60 " fill="#FFCC88" style="stroke:#000000;stroke-width:1.5;"/><line style="stroke:#000000;stroke-width:1.5;" x1="45.5" x2="357.5" y1="83.6094" y2="83.6094"/><text fill="#000000" font-family="sans-serif" font-size="14" font-weight="bold" lengthAdjust="spacing" textLength="299" x="49.5" y="76.5332">Distributed Information Management Layer</text></g><!--cluster bin--><g id="cluster_bin"><path d="M74,104 L97,104 A3.75,3.75 0 0 1 99.5,106.5 L106.5,127.6094 L203,127.6094 A2.5,2.5 0 0 1 205.5,130.1094 L205.5,201.5 A2.5,2.5 0 0 1 203,204 L74,204 A2.5,2.5 0 0 1 71.5,201.5 L71.5,106.5 A2.5,2.5 0 0 1 74,104 " fill="#FFFFFF" style="stroke:#000000;stroke-width:1.5;"/><line style="stroke:#000000;stroke-width:1.5;" x1="71.5" x2="106.5" y1="127.6094" y2="127.6094"/><text fill="#000000" font-family="sans-serif" font-size="14" font-weight="bold" lengthAdjust="spacing" textLength="22" x="75.5" y="120.5332">bin</text></g><!--cluster deploy--><g id="cluster_deploy"><path d="M72,320 L120,320 A3.75,3.75 0 0 1 122.5,322.5 L129.5,343.6094 L290,343.6094 A2.5,2.5 0 0 1 292.5,346.1094 L292.5,424.5 A2.5,2.5 0 0 1 290,427 L72,427 A2.5,2.5 0 0 1 69.5,424.5 L69.5,322.5 A2.5,2.5 0 0 1 72,320 " fill="#FFFFFF" style="stroke:#000000;stroke-width:1.5;"/><line style="stroke:#000000;stroke-width:1.5;" x1="69.5" x2="129.5" y1="343.6094" y2="343.6094"/><text fill="#000000" font-family="sans-serif" font-size="14" font-weight="bold" lengthAdjust="spacing" textLength="47" x="73.5" y="336.5332">deploy</text></g><!--cluster images--><g id="cluster_images"><path d="M72,451 L123,451 A3.75,3.75 0 0 1 125.5,453.5 L132.5,474.6094 L340,474.6094 A2.5,2.5 0 0 1 342.5,477.1094 L342.5,642.5 A2.5,2.5 0 0 1 340,645 L72,645 A2.5,2.5 0 0 1 69.5,642.5 L69.5,453.5 A2.5,2.5 0 0 1 72,451 " fill="#FFFFFF" style="stroke:#000000;stroke-width:1.5;"/><line style="stroke:#000000;stroke-width:1.5;" x1="69.5" x2="132.5" y1="474.6094" y2="474.6094"/><text fill="#000000" font-family="sans-serif" font-size="14" font-weight="bold" lengthAdjust="spacing" textLength="50" x="73.5" y="467.5332">images</text></g><!--entity REST--><g id="elem_REST"><rect fill="#F1F1F1" height="47.6094" rx="2.5" ry="2.5" style="stroke:#181818;stroke-width:0.5;" width="89" x="95" y="248"/><rect fill="#F1F1F1" height="10" style="stroke:#181818;stroke-width:0.5;" width="15" x="164" y="253"/><rect fill="#F1F1F1" height="2" style="stroke:#181818;stroke-width:0.5;" width="4" x="162" y="255"/><rect fill="#F1F1F1" height="2" style="stroke:#181818;stroke-width:0.5;" width="4" x="162" y="259"/><text fill="#000000" font-family="sans-serif" font-size="14" lengthAdjust="spacing" textLength="49" x="110" y="282.5332">express</text></g><!--entity socket--><g id="elem_socket"><rect fill="#F1F1F1" height="47.6094" rx="2.5" ry="2.5" style="stroke:#181818;stroke-width:0.5;" width="96" x="224.5" y="140"/><rect fill="#F1F1F1" height="10" style="stroke:#181818;stroke-width:0.5;" width="15" x="300.5" y="145"/><rect fill="#F1F1F1" height="2" style="stroke:#181818;stroke-width:0.5;" width="4" x="298.5" y="147"/><rect fill="#F1F1F1" height="2" style="stroke:#181818;stroke-width:0.5;" width="4" x="298.5" y="151"/><text fill="#000000" font-family="sans-serif" font-size="14" lengthAdjust="spacing" textLength="56" x="239.5" y="174.5332">socket.io</text></g><!--entity binName--><g id="elem_binName"><rect fill="#F1F1F1" height="47.6094" rx="2.5" ry="2.5" style="stroke:#181818;stroke-width:0.5;" width="101" x="88" y="140"/><rect fill="#F1F1F1" height="10" style="stroke:#181818;stroke-width:0.5;" width="15" x="169" y="145"/><rect fill="#F1F1F1" height="2" style="stroke:#181818;stroke-width:0.5;" width="4" x="167" y="147"/><rect fill="#F1F1F1" height="2" style="stroke:#181818;stroke-width:0.5;" width="4" x="167" y="151"/><text fill="#000000" font-family="sans-serif" font-size="14" lengthAdjust="spacing" textLength="57" x="107" y="174.5332">sabr diml</text></g><!--entity sabr_diml_container--><g id="elem_sabr_diml_container"><path d="M85.5,358.5 L85.5,408.7188 A2.5,2.5 0 0 0 88,411.2188 L193,411.2188 A2.5,2.5 0 0 0 195.5,408.7188 L195.5,366 L185.5,356 L88,356 A2.5,2.5 0 0 0 85.5,358.5 " fill="#F1F1F1" style="stroke:#181818;stroke-width:0.5;"/><path d="M185.5,356 L185.5,363.5 A2.5,2.5 0 0 0 188,366 L195.5,366 " fill="#F1F1F1" style="stroke:#181818;stroke-width:0.5;"/><text fill="#000000" font-family="sans-serif" font-size="14" lengthAdjust="spacing" textLength="90" x="95.5" y="380.5332">node server.js</text><text fill="#000000" font-family="sans-serif" font-size="14" lengthAdjust="spacing" textLength="4" x="95.5" y="398.1426">&#160;</text></g><!--entity web_container--><g id="elem_web_container"><path d="M231,367 L231,399.6094 A2.5,2.5 0 0 0 233.5,402.1094 L273.5,402.1094 A2.5,2.5 0 0 0 276,399.6094 L276,374.5 L266,364.5 L233.5,364.5 A2.5,2.5 0 0 0 231,367 " fill="#F1F1F1" style="stroke:#181818;stroke-width:0.5;"/><path d="M266,364.5 L266,372 A2.5,2.5 0 0 0 268.5,374.5 L276,374.5 " fill="#F1F1F1" style="stroke:#181818;stroke-width:0.5;"/><text fill="#000000" font-family="sans-serif" font-size="14" lengthAdjust="spacing" textLength="25" x="241" y="389.0332">web</text></g><!--entity sabr_dimlimage--><g id="elem_sabr_dimlimage"><rect fill="#F1F1F1" height="33.6094" rx="2.5" ry="2.5" style="stroke:#181818;stroke-width:0.5;" width="77" x="90" y="492.5"/><rect fill="#F1F1F1" height="33.6094" rx="2.5" ry="2.5" style="stroke:#181818;stroke-width:0.5;" width="77" x="86" y="488.5"/><text fill="#000000" font-family="sans-serif" font-size="14" lengthAdjust="spacing" textLength="61" x="94" y="511.0332">sabr_diml</text></g><!--entity ailtireswarm--><g id="elem_ailtireswarm"><rect fill="#F1F1F1" height="40.6094" rx="2.5" ry="2.5" style="stroke:#181818;stroke-width:0.5;" width="108" x="85.5" y="588"/><polygon fill="#F1F1F1" points="176.5,593,176.5,607,188.5,607,188.5,599,182.5,593,176.5,593" style="stroke:#181818;stroke-width:0.5;"/><line style="stroke:#181818;stroke-width:0.5;" x1="182.5" x2="182.5" y1="593" y2="599"/><line style="stroke:#181818;stroke-width:0.5;" x1="188.5" x2="182.5" y1="599" y2="599"/><text fill="#000000" font-family="sans-serif" font-size="14" lengthAdjust="spacing" textLength="78" x="95.5" y="615.5332">ailtire:swarm</text></g><!--entity sabr_diml_web--><g id="elem_sabr_diml_web"><rect fill="#F1F1F1" height="40.6094" rx="2.5" ry="2.5" style="stroke:#181818;stroke-width:0.5;" width="124" x="202.5" y="487"/><polygon fill="#F1F1F1" points="309.5,492,309.5,506,321.5,506,321.5,498,315.5,492,309.5,492" style="stroke:#181818;stroke-width:0.5;"/><line style="stroke:#181818;stroke-width:0.5;" x1="315.5" x2="315.5" y1="492" y2="498"/><line style="stroke:#181818;stroke-width:0.5;" x1="321.5" x2="315.5" y1="498" y2="498"/><text fill="#000000" font-family="sans-serif" font-size="14" lengthAdjust="spacing" textLength="94" x="212.5" y="514.5332">sabr_diml_web</text></g><!--entity CLI--><g id="elem_CLI"><ellipse cx="138.5" cy="14" fill="#F1F1F1" rx="8" ry="8" style="stroke:#181818;stroke-width:0.5;"/><text fill="#000000" font-family="sans-serif" font-size="14" lengthAdjust="spacing" textLength="21" x="128" y="45.5332">CLI</text></g><!--entity Web--><g id="elem_Web"><ellipse cx="20.5" cy="272" fill="#F1F1F1" rx="8" ry="8" style="stroke:#181818;stroke-width:0.5;"/><text fill="#000000" font-family="sans-serif" font-size="14" lengthAdjust="spacing" textLength="29" x="6" y="303.5332">Web</text></g><!--entity WebSocket--><g id="elem_WebSocket"><ellipse cx="272.5" cy="14" fill="#F1F1F1" rx="8" ry="8" style="stroke:#181818;stroke-width:0.5;"/><text fill="#000000" font-family="sans-serif" font-size="14" lengthAdjust="spacing" textLength="72" x="236.5" y="45.5332">WebSocket</text></g><!--link binName to REST--><g id="link_binName_REST"><path d="M138.72,188 C138.88,205.66 139.0525,223.9403 139.2225,241.6803 " fill="none" id="binName-to-REST" style="stroke:#181818;stroke-width:1.0;"/><polygon fill="#181818" points="139.28,247.68,143.1936,238.6421,139.2321,242.6802,135.1939,238.7187,139.28,247.68" style="stroke:#181818;stroke-width:1.0;"/></g><!--link REST to sabr_diml_container--><g id="link_REST_sabr_diml_container"><path d="M139.71,296.22 C139.87,313.67 140.0341,331.6103 140.2041,349.8403 " fill="none" id="REST-to-sabr_diml_container" style="stroke:#181818;stroke-width:1.0;"/><polygon fill="#181818" points="140.26,355.84,144.1759,346.8031,140.2134,350.8402,136.1762,346.8777,140.26,355.84" style="stroke:#181818;stroke-width:1.0;"/></g><!--link REST to web_container--><g id="link_REST_web_container"><path d="M184.12,291.28 C194.54,296.9 205.05,303.81 213.5,312 C228.86,326.89 237.7316,343.4287 244.3116,358.8987 " fill="none" id="REST-to-web_container" style="stroke:#181818;stroke-width:1.0;"/><polygon fill="#181818" points="246.66,364.42,246.8182,354.5724,244.703,359.8189,239.4565,357.7037,246.66,364.42" style="stroke:#181818;stroke-width:1.0;"/></g><!--link socket to web_container--><g id="link_socket_web_container"><path d="M270.47,188.28 C266.66,231.89 259.0428,319.0828 255.6028,358.4128 " fill="none" id="socket-to-web_container" style="stroke:#181818;stroke-width:1.0;"/><polygon fill="#181818" points="255.08,364.39,259.849,355.7728,255.5157,359.409,251.8794,355.0757,255.08,364.39" style="stroke:#181818;stroke-width:1.0;"/></g><!--reverse link sabr_dimlimage to ailtireswarm--><g id="link_sabr_dimlimage_ailtireswarm"><path d="M131.2319,544.5057 C133.5119,561.8057 134.57,569.95 136.91,587.76 " fill="none" id="sabr_dimlimage-backto-ailtireswarm" style="stroke:#181818;stroke-width:1.0;"/><polygon fill="none" points="128.88,526.66,125.2834,545.2897,137.1805,543.7217,128.88,526.66" style="stroke:#181818;stroke-width:1.0;"/></g><!--link sabr_diml_container to sabr_dimlimage--><g id="link_sabr_diml_container_sabr_dimlimage"><path d="M137.43,411.27 C134.74,434.7 131.5944,462.1292 129.2544,482.5092 " fill="none" id="sabr_diml_container-to-sabr_dimlimage" style="stroke:#181818;stroke-width:1.0;"/><polygon fill="#181818" points="128.57,488.47,133.5705,479.985,129.1403,483.5026,125.6227,479.0725,128.57,488.47" style="stroke:#181818;stroke-width:1.0;"/></g><!--link web_container to sabr_diml_web--><g id="link_web_container_sabr_diml_web"><path d="M255.12,402.5 C257.16,425.04 260.0816,457.5242 262.1816,480.8342 " fill="none" id="web_container-to-sabr_diml_web" style="stroke:#181818;stroke-width:1.0;"/><polygon fill="#181818" points="262.72,486.81,265.8963,477.4874,262.2714,481.8302,257.9286,478.2052,262.72,486.81" style="stroke:#181818;stroke-width:1.0;"/></g><!--link CLI to binName--><g id="link_CLI_binName"><path d="M138.5,23.38 C138.5,45.52 138.5,106.15 138.5,139.77 " fill="none" id="CLI-binName" style="stroke:#181818;stroke-width:1.0;"/><text fill="#000000" font-family="sans-serif" font-size="13" lengthAdjust="spacing" textLength="53" x="68.7563" y="21.7891">sabr diml</text></g><!--link Web to REST--><g id="link_Web_REST"><path d="M29.8,272 C51.51,272 73.22,272 94.93,272 " fill="none" id="Web-REST" style="stroke:#181818;stroke-width:1.0;"/><text fill="#000000" font-family="sans-serif" font-size="13" lengthAdjust="spacing" textLength="57" x="37.5963" y="267.8814">/sabr/diml</text></g><!--link WebSocket to socket--><g id="link_WebSocket_socket"><path d="M272.5,23.38 C272.5,45.52 272.5,106.15 272.5,139.77 " fill="none" id="WebSocket-socket" style="stroke:#181818;stroke-width:1.0;"/><text fill="#000000" font-family="sans-serif" font-size="13" lengthAdjust="spacing" textLength="57" x="198.7563" y="21.7891">.sabr.diml</text></g><!--SRC=[VLF1JiCm3BttAwnmRdUT4E8272OD3Wo92zAKfYuAQvCg2Om9zkyuQTektKIbgdBUyxFzuW98vT3KN23ShLSPdCIlMCxZZHOxT5d7nOw_8x1xQPsHvQV32bQgrgRbJce5ZrmHtg9oiEO7D0okwbg8vH9-I5BejjFAW_ZT6RGMk8NdXyrBWjbGgv3Qetr0UAsR2WsKKdb9_mJ9qqG6bfS6AjaspESIzuctIAmZlJ62FB_jQqwY5NQDFinq2PKDZQfqXM3HVA4fFkoR2jA-qDONsWgj79SAJKpoqg769GfniabvZsKGe-zCPXGvXtf32Bo0nadZLBAbgx1dRZKD2dzN5jZOOZfJI0niRfoa5I1hkMoSD7XjzzoqWHvFma7VMP8FDxzv_WzfQZnrgoy-67NQmfGw69USH7xYoUmY1bRmwPZHtgSxGmqFEqCx3spXiKN4-gKP_mLWXKUBCJDkwXy0]--></g></svg>