<?xml version="1.0" encoding="us-ascii" standalone="no"?><svg xmlns="http://www.w3.org/2000/svg" xmlns:xlink="http://www.w3.org/1999/xlink" contentStyleType="text/css" height="415px" preserveAspectRatio="none" style="width:533px;height:415px;background:#FFFFFF;" version="1.1" viewBox="0 0 533 415" width="533px" zoomAndPan="magnify"><defs/><g><!--entity ApplicationInstance--><g id="elem_ApplicationInstance"><rect fill="#ADD8E6" height="37.6094" rx="2.5" ry="2.5" style="stroke:#181818;stroke-width:0.5;" width="142" x="283.23" y="372"/><text fill="#000000" font-family="sans-serif" font-size="14" lengthAdjust="spacing" textLength="122" x="293.23" y="396.5332">ApplicationInstance</text></g><!--entity Stack--><g id="elem_Stack"><rect fill="#90EE90" height="37.6094" rx="2.5" ry="2.5" style="stroke:#181818;stroke-width:0.5;" width="55" x="14.73" y="372"/><text fill="#000000" font-family="sans-serif" font-size="14" lengthAdjust="spacing" textLength="35" x="24.73" y="396.5332">Stack</text></g><!--entity ServiceInstance--><g id="elem_ServiceInstance"><rect fill="#90EE90" height="37.6094" rx="2.5" ry="2.5" style="stroke:#181818;stroke-width:0.5;" width="120" x="128.23" y="372"/><text fill="#000000" font-family="sans-serif" font-size="14" lengthAdjust="spacing" textLength="100" x="138.23" y="396.5332">ServiceInstance</text></g><!--entity Service--><g id="elem_Service"><rect fill="#ADD8E6" height="37.6094" rx="2.5" ry="2.5" style="stroke:#181818;stroke-width:0.5;" width="67" x="460.73" y="372"/><text fill="#000000" font-family="sans-serif" font-size="14" lengthAdjust="spacing" textLength="47" x="470.73" y="396.5332">Service</text></g><!--entity SABundleInstance--><g id="elem_SABundleInstance"><rect fill="#90EE90" height="37.6094" rx="2.5" ry="2.5" style="stroke:#181818;stroke-width:0.5;" width="135" x="166.73" y="7"/><text fill="#000000" font-family="sans-serif" font-size="14" lengthAdjust="spacing" textLength="115" x="176.73" y="31.5332">SABundleInstance</text></g><!--class Model--><g id="elem_Model"><rect codeLine="2" fill="#F1F1F1" height="171.2656" id="Model" rx="2.5" ry="2.5" style="stroke:#181818;stroke-width:0.5;" width="120" x="174.23" y="123"/><ellipse cx="189.23" cy="139" fill="#ADD1B2" rx="11" ry="11" style="stroke:#181818;stroke-width:1.0;"/><path d="M191.9956,134.875 Q192.1519,134.6563 192.3394,134.5469 Q192.5269,134.4375 192.7456,134.4375 Q193.1206,134.4375 193.355,134.6953 Q193.5894,134.9531 193.5894,135.5625 L193.5894,137.0156 Q193.5894,137.625 193.355,137.8906 Q193.1206,138.1563 192.7456,138.1563 Q192.4019,138.1563 192.1988,137.9531 Q191.9956,137.7656 191.8863,137.25 Q191.8394,136.8906 191.6519,136.7031 Q191.3238,136.3281 190.7144,136.1094 Q190.105,135.8906 189.48,135.8906 Q188.7144,135.8906 188.0816,136.2188 Q187.4488,136.5469 186.9566,137.2969 Q186.4644,138.0469 186.4644,139.0781 L186.4644,140.1719 Q186.4644,141.4063 187.355,142.2266 Q188.2456,143.0469 189.8394,143.0469 Q190.7769,143.0469 191.4331,142.7969 Q191.8238,142.6406 192.2456,142.2031 Q192.5113,141.9375 192.6597,141.8594 Q192.8081,141.7813 193.0113,141.7813 Q193.3394,141.7813 193.5972,142.0391 Q193.855,142.2969 193.855,142.6406 Q193.855,142.9844 193.5113,143.3906 Q193.0113,143.9688 192.2144,144.2969 Q191.1363,144.75 189.8394,144.75 Q188.3238,144.75 187.1206,144.125 Q186.1363,143.625 185.4488,142.5547 Q184.7613,141.4844 184.7613,140.2031 L184.7613,139.0469 Q184.7613,137.7188 185.3784,136.5703 Q185.9956,135.4219 187.0894,134.8047 Q188.1831,134.1875 189.4175,134.1875 Q190.1519,134.1875 190.8003,134.3516 Q191.4488,134.5156 191.9956,134.875 Z " fill="#000000"/><text fill="#000000" font-family="sans-serif" font-size="14" lengthAdjust="spacing" textLength="88" x="203.23" y="144.7285">StackInstance</text><line style="stroke:#181818;stroke-width:0.5;" x1="175.23" x2="293.23" y1="155" y2="155"/><text fill="#000000" font-family="sans-serif" font-size="14" lengthAdjust="spacing" textLength="74" x="180.23" y="173.5332">string name</text><text fill="#000000" font-family="sans-serif" font-size="14" lengthAdjust="spacing" textLength="78" x="180.23" y="191.1426">string stdout</text><text fill="#000000" font-family="sans-serif" font-size="14" lengthAdjust="spacing" textLength="76" x="180.23" y="208.752">string stderr</text><text fill="#000000" font-family="sans-serif" font-size="14" lengthAdjust="spacing" textLength="58" x="180.23" y="226.3613">string pid</text><text fill="#000000" font-family="sans-serif" font-size="14" lengthAdjust="spacing" textLength="55" x="180.23" y="243.9707">string url</text><line style="stroke:#181818;stroke-width:0.5;" x1="175.23" x2="293.23" y1="251.0469" y2="251.0469"/><text fill="#000000" font-family="sans-serif" font-size="14" lengthAdjust="spacing" textLength="68" x="180.23" y="269.5801">launched()</text><text fill="#000000" font-family="sans-serif" font-size="14" lengthAdjust="spacing" textLength="67" x="180.23" y="287.1895">provision()</text></g><!--link Model to ApplicationInstance--><g id="link_Model_ApplicationInstance"><path codeLine="17" d="M297.1845,304.1925 C316.5545,333.3225 326.4693,348.2327 338.7493,366.7127 " fill="none" id="Model-ApplicationInstance" style="stroke:#181818;stroke-width:1.0;"/><polygon fill="none" points="290.54,294.2,290.5314,301.4111,297.1845,304.1925,297.1931,296.9814,290.54,294.2" style="stroke:#181818;stroke-width:1.0;"/><polygon fill="#181818" points="342.07,371.71,340.4205,362.0003,339.3027,367.5456,333.7574,366.4279,342.07,371.71" style="stroke:#181818;stroke-width:1.0;"/><text fill="#000000" font-family="sans-serif" font-size="13" lengthAdjust="spacing" textLength="21" x="323.23" y="338.4951">app</text><text fill="#000000" font-family="sans-serif" font-size="13" lengthAdjust="spacing" textLength="7" x="330.4699" y="361.2977">1</text></g><!--link Model to Stack--><g id="link_Model_Stack"><path codeLine="23" d="M162.6491,225.8476 C110.4491,240.7176 49.51,267.39 15.23,324 C6,339.25 12.1022,353.4283 22.3522,367.1083 " fill="none" id="Model-Stack" style="stroke:#181818;stroke-width:1.0;"/><polygon fill="none" points="174.19,222.56,167.3237,220.3568,162.6491,225.8476,169.5154,228.0508,174.19,222.56" style="stroke:#181818;stroke-width:1.0;"/><polygon fill="#181818" points="25.95,371.91,23.7545,362.309,22.9519,367.9086,17.3522,367.106,25.95,371.91" style="stroke:#181818;stroke-width:1.0;"/><text fill="#000000" font-family="sans-serif" font-size="13" lengthAdjust="spacing" textLength="32" x="16.23" y="338.4951">stack</text><text fill="#000000" font-family="sans-serif" font-size="13" lengthAdjust="spacing" textLength="7" x="12.8924" y="361.2225">1</text></g><!--link Stack to Model--><g id="link_Stack_Model"><path codeLine="48" d="M70.2028,363.7103 C96.2728,339.2003 130.9284,306.6196 169.6384,270.2296 " fill="none" id="Stack-Model" style="stroke:#181818;stroke-width:1.0;"/><polygon fill="#181818" points="61.46,371.93,68.5713,370.7344,70.2028,363.7103,63.0915,364.9059,61.46,371.93" style="stroke:#181818;stroke-width:1.0;"/><polygon fill="#181818" points="174.01,266.12,164.7128,269.37,170.367,269.5447,170.1923,275.1988,174.01,266.12" style="stroke:#181818;stroke-width:1.0;"/><text fill="#000000" font-family="sans-serif" font-size="13" lengthAdjust="spacing" textLength="56" x="111.23" y="338.4951">instances</text><text fill="#000000" font-family="sans-serif" font-size="13" lengthAdjust="spacing" textLength="7" x="159.2441" y="269.6678">n</text></g><!--link Model to ServiceInstance--><g id="link_Model_ServiceInstance"><path codeLine="29" d="M191.5256,305.4176 C188.2256,315.3476 189.19,314.09 187.23,324 C185.68,331.85 187.15,334 187.23,342 C187.34,351.83 187.4263,356.8015 187.6263,365.7715 " fill="none" id="Model-ServiceInstance" style="stroke:#181818;stroke-width:1.0;"/><polygon fill="#181818" points="195.31,294.03,189.6219,298.4623,191.5256,305.4176,197.2137,300.9853,195.31,294.03" style="stroke:#181818;stroke-width:1.0;"/><polygon fill="#181818" points="187.76,371.77,191.5584,362.6831,187.6485,366.7712,183.5604,362.8614,187.76,371.77" style="stroke:#181818;stroke-width:1.0;"/><text fill="#000000" font-family="sans-serif" font-size="13" lengthAdjust="spacing" textLength="47" x="188.23" y="338.4951">services</text><text fill="#000000" font-family="sans-serif" font-size="13" lengthAdjust="spacing" textLength="7" x="179.5442" y="361.0396">n</text></g><!--link ServiceInstance to Model--><g id="link_ServiceInstance_Model"><path codeLine="43" d="M225.0243,364.3129 C234.6443,356.3929 235.06,353.82 240.23,342 C246.7,327.23 249.1102,316.6396 249.3002,300.3096 " fill="none" id="ServiceInstance-Model" style="stroke:#181818;stroke-width:1.0;"/><polygon fill="none" points="215.76,371.94,222.9345,371.2145,225.0243,364.3129,217.8498,365.0383,215.76,371.94" style="stroke:#181818;stroke-width:1.0;"/><polygon fill="#181818" points="249.37,294.31,245.2656,303.2629,249.3118,299.3097,253.265,303.3559,249.37,294.31" style="stroke:#181818;stroke-width:1.0;"/><text fill="#000000" font-family="sans-serif" font-size="13" lengthAdjust="spacing" textLength="32" x="247.23" y="338.4951">stack</text><text fill="#000000" font-family="sans-serif" font-size="13" lengthAdjust="spacing" textLength="7" x="243.3703" y="315.8706">1</text></g><!--link Model to Service--><g id="link_Model_Service"><path codeLine="35" d="M304.3969,258.2041 C359.2969,296.3241 422.9611,340.5286 463.2411,368.4886 " fill="none" id="Model-Service" style="stroke:#181818;stroke-width:1.0;"/><polygon fill="none" points="294.54,251.36,297.187,258.0677,304.3969,258.2041,301.7498,251.4965,294.54,251.36" style="stroke:#181818;stroke-width:1.0;"/><polygon fill="#181818" points="468.17,371.91,463.0575,363.492,464.0626,369.0589,458.4957,370.0639,468.17,371.91" style="stroke:#181818;stroke-width:1.0;"/><text fill="#000000" font-family="sans-serif" font-size="13" lengthAdjust="spacing" textLength="36" x="426.23" y="338.4951">parent</text><text fill="#000000" font-family="sans-serif" font-size="13" lengthAdjust="spacing" textLength="7" x="452.1172" y="361.2225">1</text></g><!--link SABundleInstance to Model--><g id="link_SABundleInstance_Model"><path codeLine="53" d="M234.23,57.3 C234.23,75.76 234.23,87.63 234.23,116.73 " fill="none" id="SABundleInstance-Model" style="stroke:#181818;stroke-width:1.0;"/><polygon fill="none" points="234.23,45.3,230.23,51.3,234.23,57.3,238.23,51.3,234.23,45.3" style="stroke:#181818;stroke-width:1.0;"/><polygon fill="#181818" points="234.23,122.73,238.23,113.73,234.23,117.73,230.23,113.73,234.23,122.73" style="stroke:#181818;stroke-width:1.0;"/><text fill="#000000" font-family="sans-serif" font-size="13" lengthAdjust="spacing" textLength="32" x="235.23" y="89.4951">stack</text><text fill="#000000" font-family="sans-serif" font-size="13" lengthAdjust="spacing" textLength="7" x="226.9292" y="112.1705">n</text></g><!--SRC=[dLAzRiCW4DvvYXDTqaePkdg8b6mTElK9A9mSL78WVh9KUVTYdDWniUkgDm1tt7q_sDA8481_H26_tYX4GH8vY03lLg61RmOXUaqja3ZXa8IeR8htANe_f4whuPoyOGoCI2IFg3RF39otPnsqfIvX5yOyoapR6WI-TyveAMA-dOYPgSEJqUqnVfg4MMM6wGNRxNO7_9NFZZGWd6CJncAyS9JJ6chVr6HtUQ-Gq9-rn8dkghQ0_bBGYJ-qPvw-4cQfxYbMXL_R6d328qNM1UJubuFM8rBtS-IubBKiNTG3C6he9JN0o-lnSMxrU_p6LzfWVCI1HLybX0Mc_I6HCfNTglW7_dhYPfWM3Fy0]--></g></svg>