<?xml version="1.0" encoding="UTF-8" standalone="no"?><svg xmlns="http://www.w3.org/2000/svg" xmlns:xlink="http://www.w3.org/1999/xlink" contentScriptType="application/ecmascript" contentStyleType="text/css" height="395px" preserveAspectRatio="none" style="width:540px;height:395px;" version="1.1" viewBox="0 0 540 395" width="540px" zoomAndPan="magnify"><defs><filter height="300%" id="fnxjsran49q0w" width="300%" x="-1" y="-1"><feGaussianBlur result="blurOut" stdDeviation="2.0"/><feColorMatrix in="blurOut" result="blurOut2" type="matrix" values="0 0 0 0 0 0 0 0 0 0 0 0 0 0 0 0 0 0 .4 0"/><feOffset dx="4.0" dy="4.0" in="blurOut2" result="blurOut3"/><feBlend in="SourceGraphic" in2="blurOut3" mode="normal"/></filter></defs><g><!--entity ApplicationInstance--><rect fill="#ADD8E6" filter="url(#fnxjsran49q0w)" height="37.6094" style="stroke: #000000; stroke-width: 1.5;" width="142" x="285.4922" y="347"/><text fill="#000000" font-family="sans-serif" font-size="14" lengthAdjust="spacingAndGlyphs" textLength="122" x="295.4922" y="371.5332">ApplicationInstance</text><!--entity Stack--><rect fill="#90EE90" filter="url(#fnxjsran49q0w)" height="37.6094" style="stroke: #000000; stroke-width: 1.5;" width="55" x="16.9922" y="347"/><text fill="#000000" font-family="sans-serif" font-size="14" lengthAdjust="spacingAndGlyphs" textLength="35" x="26.9922" y="371.5332">Stack</text><!--entity ServiceInstance--><rect fill="#90EE90" filter="url(#fnxjsran49q0w)" height="37.6094" style="stroke: #000000; stroke-width: 1.5;" width="120" x="130.4922" y="347"/><text fill="#000000" font-family="sans-serif" font-size="14" lengthAdjust="spacingAndGlyphs" textLength="100" x="140.4922" y="371.5332">ServiceInstance</text><!--entity Service--><rect fill="#ADD8E6" filter="url(#fnxjsran49q0w)" height="37.6094" style="stroke: #000000; stroke-width: 1.5;" width="67" x="462.9922" y="347"/><text fill="#000000" font-family="sans-serif" font-size="14" lengthAdjust="spacingAndGlyphs" textLength="47" x="472.9922" y="371.5332">Service</text><!--entity SABundleInstance--><rect fill="#90EE90" filter="url(#fnxjsran49q0w)" height="37.6094" style="stroke: #000000; stroke-width: 1.5;" width="135" x="168.9922" y="8"/><text fill="#000000" font-family="sans-serif" font-size="14" lengthAdjust="spacingAndGlyphs" textLength="115" x="178.9922" y="32.5332">SABundleInstance</text><!--class Model--><rect fill="#FEFECE" filter="url(#fnxjsran49q0w)" height="144.8516" id="Model" style="stroke: #A80036; stroke-width: 1.5;" width="109" x="181.9922" y="124"/><ellipse cx="196.9922" cy="140" fill="#ADD1B2" rx="11" ry="11" style="stroke: #A80036; stroke-width: 1.0;"/><path d="M199.7579,135.875 Q199.9141,135.6563 200.1016,135.5469 Q200.2891,135.4375 200.5079,135.4375 Q200.8829,135.4375 201.1172,135.6953 Q201.3516,135.9531 201.3516,136.5625 L201.3516,138.0156 Q201.3516,138.625 201.1172,138.8906 Q200.8829,139.1563 200.5079,139.1563 Q200.1641,139.1563 199.961,138.9531 Q199.7579,138.7656 199.6485,138.25 Q199.6016,137.8906 199.4141,137.7031 Q199.086,137.3281 198.4766,137.1094 Q197.8672,136.8906 197.2422,136.8906 Q196.4766,136.8906 195.8438,137.2188 Q195.211,137.5469 194.7188,138.2969 Q194.2266,139.0469 194.2266,140.0781 L194.2266,141.1719 Q194.2266,142.4063 195.1172,143.2266 Q196.0079,144.0469 197.6016,144.0469 Q198.5391,144.0469 199.1954,143.7969 Q199.586,143.6406 200.0079,143.2031 Q200.2735,142.9375 200.4219,142.8594 Q200.5704,142.7813 200.7735,142.7813 Q201.1016,142.7813 201.3594,143.0391 Q201.6172,143.2969 201.6172,143.6406 Q201.6172,143.9844 201.2735,144.3906 Q200.7735,144.9688 199.9766,145.2969 Q198.8985,145.75 197.6016,145.75 Q196.086,145.75 194.8829,145.125 Q193.8985,144.625 193.211,143.5547 Q192.5235,142.4844 192.5235,141.2031 L192.5235,140.0469 Q192.5235,138.7188 193.1407,137.5703 Q193.7579,136.4219 194.8516,135.8047 Q195.9454,135.1875 197.1797,135.1875 Q197.9141,135.1875 198.5626,135.3516 Q199.211,135.5156 199.7579,135.875 Z "/><text fill="#000000" font-family="sans-serif" font-size="12" lengthAdjust="spacingAndGlyphs" textLength="77" x="210.9922" y="144.9102">StackInstance</text><line style="stroke: #A80036; stroke-width: 1.5;" x1="182.9922" x2="289.9922" y1="156" y2="156"/><text fill="#000000" font-family="sans-serif" font-size="11" lengthAdjust="spacingAndGlyphs" textLength="56" x="187.9922" y="171.4189">string name</text><text fill="#000000" font-family="sans-serif" font-size="11" lengthAdjust="spacingAndGlyphs" textLength="60" x="187.9922" y="185.2549">string stdout</text><text fill="#000000" font-family="sans-serif" font-size="11" lengthAdjust="spacingAndGlyphs" textLength="59" x="187.9922" y="199.0908">string stderr</text><text fill="#000000" font-family="sans-serif" font-size="11" lengthAdjust="spacingAndGlyphs" textLength="44" x="187.9922" y="212.9268">string pid</text><text fill="#000000" font-family="sans-serif" font-size="11" lengthAdjust="spacingAndGlyphs" textLength="42" x="187.9922" y="226.7627">string url</text><line style="stroke: #A80036; stroke-width: 1.5;" x1="182.9922" x2="289.9922" y1="233.1797" y2="233.1797"/><text fill="#000000" font-family="sans-serif" font-size="11" lengthAdjust="spacingAndGlyphs" textLength="52" x="187.9922" y="248.5986">launched()</text><text fill="#000000" font-family="sans-serif" font-size="11" lengthAdjust="spacingAndGlyphs" textLength="52" x="187.9922" y="262.4346">provision()</text><!--link Model to ApplicationInstance--><path d="M295.4692,279.822 C310.0492,300.1732 324.7092,320.6367 336.0052,336.404 " fill="none" id="Model-ApplicationInstance" style="stroke: #A80036; stroke-width: 1.0;"/><polygon fill="#A80036" points="343.5872,346.9864,341.5971,337.3407,340.6752,342.9219,335.094,342,343.5872,346.9864" style="stroke: #A80036; stroke-width: 1.0;"/><line style="stroke: #A80036; stroke-width: 1.0;" x1="340.6752" x2="336.0157" y1="342.9219" y2="336.4185"/><polygon fill="#FFFFFF" points="287.7312,269.021,287.9739,276.228,294.7198,278.776,294.4772,271.569,287.7312,269.021" style="stroke: #A80036; stroke-width: 1.0;"/><text fill="#000000" font-family="sans-serif" font-size="13" lengthAdjust="spacingAndGlyphs" textLength="21" x="322.4922" y="313.4951">app</text><text fill="#000000" font-family="sans-serif" font-size="13" lengthAdjust="spacingAndGlyphs" textLength="7" x="331.3581" y="335.9892">1</text><!--link Model to Stack--><path d="M168.9432,208.868 C117.6902,221.419 50.5898,247.181 17.4922,299 C10.2951,310.2682 13.976,323.7754 20.6375,335.627 " fill="none" id="Model-Stack" style="stroke: #A80036; stroke-width: 1.0;"/><polygon fill="#A80036" points="28,346.7825,26.381,337.0676,25.2459,342.6094,19.7041,341.4743,28,346.7825" style="stroke: #A80036; stroke-width: 1.0;"/><line style="stroke: #A80036; stroke-width: 1.0;" x1="25.2459" x2="20.8391" y1="342.6094" y2="335.9325"/><polygon fill="#FFFFFF" points="181.9342,205.882,175.1908,203.3273,170.239,208.5694,176.9824,211.1241,181.9342,205.882" style="stroke: #A80036; stroke-width: 1.0;"/><text fill="#000000" font-family="sans-serif" font-size="13" lengthAdjust="spacingAndGlyphs" textLength="32" x="18.4922" y="313.4951">stack</text><text fill="#000000" font-family="sans-serif" font-size="13" lengthAdjust="spacingAndGlyphs" textLength="7" x="14.8774" y="336.0559">1</text><!--link Stack to Model--><path d="M75.4118,338.0258 C101.3388,315.4073 139.2342,282.348 171.7552,253.976 " fill="none" id="Stack-Model" style="stroke: #A80036; stroke-width: 1.0;"/><polygon fill="#A80036" points="181.9862,245.051,172.5745,247.9526,178.2183,248.3377,177.8332,253.9814,181.9862,245.051" style="stroke: #A80036; stroke-width: 1.0;"/><line style="stroke: #A80036; stroke-width: 1.0;" x1="178.2183" x2="172.1902" y1="248.3377" y2="253.597"/><polygon fill="#A80036" points="65.4222,346.7407,72.5731,345.8105,74.4648,338.852,67.3139,339.7821,65.4222,346.7407" style="stroke: #A80036; stroke-width: 1.0;"/><text fill="#000000" font-family="sans-serif" font-size="13" lengthAdjust="spacingAndGlyphs" textLength="56" x="119.4922" y="313.4951">instances</text><text fill="#000000" font-family="sans-serif" font-size="13" lengthAdjust="spacingAndGlyphs" textLength="7" x="166.8291" y="248.2838">n</text><!--link Model to ServiceInstance--><path d="M194.2732,281.642 C192.3882,287.4262 190.7602,293.244 189.4922,299 C187.0302,310.1738 186.6412,322.6711 187.0822,333.7598 " fill="none" id="Model-ServiceInstance" style="stroke: #A80036; stroke-width: 1.0;"/><polygon fill="#A80036" points="187.9912,346.8466,191.3579,337.591,187.6448,341.8586,183.3772,338.1454,187.9912,346.8466" style="stroke: #A80036; stroke-width: 1.0;"/><line style="stroke: #A80036; stroke-width: 1.0;" x1="187.6448" x2="187.0902" y1="341.8586" y2="333.8778"/><polygon fill="#A80036" points="198.7692,269.07,192.9825,273.3727,194.7285,280.3692,200.5153,276.0665,198.7692,269.07" style="stroke: #A80036; stroke-width: 1.0;"/><text fill="#000000" font-family="sans-serif" font-size="13" lengthAdjust="spacingAndGlyphs" textLength="47" x="190.4922" y="313.4951">services</text><text fill="#000000" font-family="sans-serif" font-size="13" lengthAdjust="spacingAndGlyphs" textLength="7" x="179.1534" y="336.1396">n</text><!--link ServiceInstance to Model--><path d="M227.7772,337.9871 C233.7622,331.8129 239.0972,324.7551 242.4922,317 C247.1832,306.2852 249.5202,294.5025 250.3122,282.64 " fill="none" id="ServiceInstance-Model" style="stroke: #A80036; stroke-width: 1.0;"/><polygon fill="#A80036" points="250.5932,269.266,246.4062,278.1805,250.4888,274.2649,254.4045,278.3476,250.5932,269.266" style="stroke: #A80036; stroke-width: 1.0;"/><line style="stroke: #A80036; stroke-width: 1.0;" x1="250.4888" x2="250.3202" y1="274.2649" y2="282.263"/><polygon fill="#FFFFFF" points="218.0242,346.9351,225.1496,345.8263,226.8666,338.8226,219.7413,339.9314,218.0242,346.9351" style="stroke: #A80036; stroke-width: 1.0;"/><text fill="#000000" font-family="sans-serif" font-size="13" lengthAdjust="spacingAndGlyphs" textLength="32" x="249.4922" y="313.4951">stack</text><text fill="#000000" font-family="sans-serif" font-size="13" lengthAdjust="spacingAndGlyphs" textLength="7" x="244.5705" y="290.2298">1</text><!--link Model to Service--><path d="M302.1302,239.786 C351.0702,271.314 416.2852,313.3285 457.3362,339.7747 " fill="none" id="Model-Service" style="stroke: #A80036; stroke-width: 1.0;"/><polygon fill="#A80036" points="468.4942,346.9627,463.0944,338.7261,464.2909,344.255,458.762,345.4515,468.4942,346.9627" style="stroke: #A80036; stroke-width: 1.0;"/><line style="stroke: #A80036; stroke-width: 1.0;" x1="464.2909" x2="457.5652" y1="344.255" y2="339.9222"/><polygon fill="#FFFFFF" points="290.9962,232.613,293.8741,239.225,301.0843,239.1116,298.2065,232.4996,290.9962,232.613" style="stroke: #A80036; stroke-width: 1.0;"/><text fill="#000000" font-family="sans-serif" font-size="13" lengthAdjust="spacingAndGlyphs" textLength="36" x="421.4922" y="313.4951">parent</text><text fill="#000000" font-family="sans-serif" font-size="13" lengthAdjust="spacingAndGlyphs" textLength="7" x="451.848" y="336.2913">1</text><!--link SABundleInstance to Model--><path d="M236.4922,59.258 C236.4922,73.989 236.4922,92.351 236.4922,110.775 " fill="none" id="SABundleInstance-Model" style="stroke: #A80036; stroke-width: 1.0;"/><polygon fill="#A80036" points="236.4922,123.822,240.4922,114.822,236.4922,118.822,232.4922,114.822,236.4922,123.822" style="stroke: #A80036; stroke-width: 1.0;"/><line style="stroke: #A80036; stroke-width: 1.0;" x1="236.4922" x2="236.4922" y1="118.822" y2="110.822"/><polygon fill="#FFFFFF" points="236.4922,46.244,232.4922,52.244,236.4922,58.244,240.4922,52.244,236.4922,46.244" style="stroke: #A80036; stroke-width: 1.0;"/><text fill="#000000" font-family="sans-serif" font-size="13" lengthAdjust="spacingAndGlyphs" textLength="32" x="237.4922" y="90.4951">stack</text><text fill="#000000" font-family="sans-serif" font-size="13" lengthAdjust="spacingAndGlyphs" textLength="7" x="229.1313" y="113.023">n</text><!--
@startuml

class "StackInstance" as Model {
 string name
 string stdout
 string stderr
 string pid
 string url

 launched()
 provision()
 
}

rectangle "ApplicationInstance" as ApplicationInstance #lightblue {
}

Model o- -> "1" ApplicationInstance : app


rectangle "Stack" as Stack #lightblue {
}

Model o- -> "1" Stack : stack


rectangle "ServiceInstance" as ServiceInstance #lightblue {
}

Model *- -> "n" ServiceInstance : services


rectangle "Service" as Service #lightblue {
}

Model o- -> "1" Service : parent




    rectangle "ServiceInstance" as ServiceInstance #lightgreen {
    }
    
        ServiceInstance   o- -> "1" Model : "stack"
    
    rectangle "Stack" as Stack #lightgreen {
    }
    
        Stack   *- -> "n" Model : "instances"
    
    rectangle "SABundleInstance" as SABundleInstance #lightgreen {
    }
    
        SABundleInstance   o- -> "n" Model : "stack"
    

@enduml

PlantUML version 1.2019.05(Sat Apr 20 09:45:36 PDT 2019)
(GPL source distribution)
Java Runtime: Java(TM) SE Runtime Environment
JVM: Java HotSpot(TM) Client VM
Java Version: 1.8.0_271-b09
Operating System: Windows 10
OS Version: 10.0
Default Encoding: Cp1252
Language: en
Country: US
--></g></svg>