<?xml version="1.0" encoding="us-ascii" standalone="no"?><svg xmlns="http://www.w3.org/2000/svg" xmlns:xlink="http://www.w3.org/1999/xlink" contentStyleType="text/css" height="254px" preserveAspectRatio="none" style="width:743px;height:254px;background:#FFFFFF;" version="1.1" viewBox="0 0 743 254" width="743px" zoomAndPan="magnify"><defs/><g><path d="M19.5,7 L717,7 A12.5,12.5 0 0 1 729.5,19.5 L729.5,34.6094 L7,34.6094 L7,19.5 A12.5,12.5 0 0 1 19.5,7 " fill="#00AAFF" style="stroke:#00AAFF;stroke-width:1.0;"/><rect fill="none" height="241.6094" rx="12.5" ry="12.5" style="stroke:#181818;stroke-width:0.5;" width="722.5" x="7" y="7"/><line style="stroke:#181818;stroke-width:0.5;" x1="7" x2="729.5" y1="34.6094" y2="34.6094"/><text fill="#000000" font-family="sans-serif" font-size="14" lengthAdjust="spacing" textLength="88" x="324.25" y="26.5332">StackInstance</text><g id="StackInstance.Init"><rect fill="#00AAFF" height="50" rx="12.5" ry="12.5" style="stroke:#181818;stroke-width:0.5;" width="50" x="35.5" y="46.6094"/><line style="stroke:#181818;stroke-width:0.5;" x1="35.5" x2="85.5" y1="74.2188" y2="74.2188"/><text fill="#000000" font-family="sans-serif" font-size="14" lengthAdjust="spacing" textLength="18" x="51.5" y="66.1426">Init</text></g><g id="StackInstance.Deploying"><rect fill="#00AAFF" height="50" rx="12.5" ry="12.5" style="stroke:#181818;stroke-width:0.5;" width="83" x="19" y="188.6094"/><line style="stroke:#181818;stroke-width:0.5;" x1="19" x2="102" y1="216.2188" y2="216.2188"/><text fill="#000000" font-family="sans-serif" font-size="14" lengthAdjust="spacing" textLength="63" x="29" y="208.1426">Deploying</text></g><g id="StackInstance.Deployed"><rect fill="#00AAFF" height="50" rx="12.5" ry="12.5" style="stroke:#181818;stroke-width:0.5;" width="80" x="103.5" y="46.6094"/><line style="stroke:#181818;stroke-width:0.5;" x1="103.5" x2="183.5" y1="74.2188" y2="74.2188"/><text fill="#000000" font-family="sans-serif" font-size="14" lengthAdjust="spacing" textLength="60" x="113.5" y="66.1426">Deployed</text></g><g id="StackInstance.Provisioning"><rect fill="#00AAFF" height="50" rx="12.5" ry="12.5" style="stroke:#181818;stroke-width:0.5;" width="97" x="202" y="46.6094"/><line style="stroke:#181818;stroke-width:0.5;" x1="202" x2="299" y1="74.2188" y2="74.2188"/><text fill="#000000" font-family="sans-serif" font-size="14" lengthAdjust="spacing" textLength="77" x="212" y="66.1426">Provisioning</text></g><g id="StackInstance.Running"><rect fill="#00AAFF" height="50" rx="12.5" ry="12.5" style="stroke:#181818;stroke-width:0.5;" width="73" x="317" y="46.6094"/><line style="stroke:#181818;stroke-width:0.5;" x1="317" x2="390" y1="74.2188" y2="74.2188"/><text fill="#000000" font-family="sans-serif" font-size="14" lengthAdjust="spacing" textLength="53" x="327" y="66.1426">Running</text></g><g id="StackInstance.Killing"><rect fill="#00AAFF" height="50" rx="12.5" ry="12.5" style="stroke:#181818;stroke-width:0.5;" width="57" x="408" y="46.6094"/><line style="stroke:#181818;stroke-width:0.5;" x1="408" x2="465" y1="74.2188" y2="74.2188"/><text fill="#000000" font-family="sans-serif" font-size="14" lengthAdjust="spacing" textLength="37" x="418" y="66.1426">Killing</text></g><g id="StackInstance.Failed"><rect fill="#00AAFF" height="50" rx="12.5" ry="12.5" style="stroke:#181818;stroke-width:0.5;" width="59" x="483" y="46.6094"/><line style="stroke:#181818;stroke-width:0.5;" x1="483" x2="542" y1="74.2188" y2="74.2188"/><text fill="#000000" font-family="sans-serif" font-size="14" lengthAdjust="spacing" textLength="39" x="493" y="66.1426">Failed</text></g><g id="StackInstance.Completed"><rect fill="#00AAFF" height="50" rx="12.5" ry="12.5" style="stroke:#181818;stroke-width:0.5;" width="88" x="560.5" y="46.6094"/><line style="stroke:#181818;stroke-width:0.5;" x1="560.5" x2="648.5" y1="74.2188" y2="74.2188"/><text fill="#000000" font-family="sans-serif" font-size="14" lengthAdjust="spacing" textLength="68" x="570.5" y="66.1426">Completed</text></g><g id="StackInstance.Killed"><rect fill="#00AAFF" height="50" rx="12.5" ry="12.5" style="stroke:#181818;stroke-width:0.5;" width="54" x="666.5" y="46.6094"/><line style="stroke:#181818;stroke-width:0.5;" x1="666.5" x2="720.5" y1="74.2188" y2="74.2188"/><text fill="#000000" font-family="sans-serif" font-size="14" lengthAdjust="spacing" textLength="34" x="676.5" y="66.1426">Killed</text></g><!--link Init to Deploying--><g id="link_Init_Deploying"><path d="M60.5,96.6794 C60.5,122.3194 60.5,156.6894 60.5,182.3894 " fill="none" id="Init-to-Deploying" style="stroke:#000000;stroke-width:1.0;"/><polygon fill="#000000" points="60.5,188.3894,64.5,179.3894,60.5,183.3894,56.5,179.3894,60.5,188.3894" style="stroke:#000000;stroke-width:1.0;"/><text fill="#000000" font-family="sans-serif" font-size="13" lengthAdjust="spacing" textLength="36" x="61.5" y="148.1045">create</text></g><!--SRC=[Aov9B4bL22v9JCxsp2ikISnBJbLGDZ18J4nBKwZcub80WcAm4i-yp18a6P14BRAyIsf1JdvbPbuwOKMfAVZK11JbbsKMP-Rd4J0hg3IFa1Blp9mS0ahS4ZDpyBl7EJ-t82Ur1ByYa4tOL001EE1qevMJSe1X7AkhQuSKL5OAoKMfGFrSN42r0000]--></g></svg>