<?xml version="1.0" encoding="UTF-8" standalone="no"?><svg xmlns="http://www.w3.org/2000/svg" xmlns:xlink="http://www.w3.org/1999/xlink" contentScriptType="application/ecmascript" contentStyleType="text/css" height="266px" preserveAspectRatio="none" style="width:764px;height:266px;" version="1.1" viewBox="0 0 764 266" width="764px" zoomAndPan="magnify"><defs><filter height="300%" id="f167oxvz63x0b7" width="300%" x="-1" y="-1"><feGaussianBlur result="blurOut" stdDeviation="2.0"/><feColorMatrix in="blurOut" result="blurOut2" type="matrix" values="0 0 0 0 0 0 0 0 0 0 0 0 0 0 0 0 0 0 .4 0"/><feOffset dx="4.0" dy="4.0" in="blurOut2" result="blurOut3"/><feBlend in="SourceGraphic" in2="blurOut3" mode="normal"/></filter></defs><g><rect fill="#00AAFF" filter="url(#f167oxvz63x0b7)" height="247.6094" rx="12.5" ry="12.5" style="stroke: #A80036; stroke-width: 1.5;" width="746" x="6" y="8"/><rect fill="#FFFFFF" height="214" rx="12.5" ry="12.5" style="stroke: #FFFFFF; stroke-width: 1.0;" width="740" x="9" y="38.6094"/><line style="stroke: #A80036; stroke-width: 1.5;" x1="6" x2="752" y1="35.6094" y2="35.6094"/><text fill="#000000" font-family="sans-serif" font-size="14" lengthAdjust="spacingAndGlyphs" textLength="88" x="335" y="27.5332">StackInstance</text><rect fill="#00AAFF" filter="url(#f167oxvz63x0b7)" height="50" rx="12.5" ry="12.5" style="stroke: #A80036; stroke-width: 1.5;" width="50" x="33.5" y="48.6094"/><line style="stroke: #A80036; stroke-width: 1.5;" x1="33.5" x2="83.5" y1="76.2188" y2="76.2188"/><text fill="#000000" font-family="sans-serif" font-size="14" lengthAdjust="spacingAndGlyphs" textLength="18" x="49.5" y="68.1426">Init</text><rect fill="#00AAFF" filter="url(#f167oxvz63x0b7)" height="50" rx="12.5" ry="12.5" style="stroke: #A80036; stroke-width: 1.5;" width="83" x="17" y="190.6094"/><line style="stroke: #A80036; stroke-width: 1.5;" x1="17" x2="100" y1="218.2188" y2="218.2188"/><text fill="#000000" font-family="sans-serif" font-size="14" lengthAdjust="spacingAndGlyphs" textLength="63" x="27" y="210.1426">Deploying</text><rect fill="#00AAFF" filter="url(#f167oxvz63x0b7)" height="50" rx="12.5" ry="12.5" style="stroke: #A80036; stroke-width: 1.5;" width="80" x="101.5" y="48.6094"/><line style="stroke: #A80036; stroke-width: 1.5;" x1="101.5" x2="181.5" y1="76.2188" y2="76.2188"/><text fill="#000000" font-family="sans-serif" font-size="14" lengthAdjust="spacingAndGlyphs" textLength="60" x="111.5" y="68.1426">Deployed</text><rect fill="#00AAFF" filter="url(#f167oxvz63x0b7)" height="50" rx="12.5" ry="12.5" style="stroke: #A80036; stroke-width: 1.5;" width="97" x="200" y="48.6094"/><line style="stroke: #A80036; stroke-width: 1.5;" x1="200" x2="297" y1="76.2188" y2="76.2188"/><text fill="#000000" font-family="sans-serif" font-size="14" lengthAdjust="spacingAndGlyphs" textLength="77" x="210" y="68.1426">Provisioning</text><rect fill="#00AAFF" filter="url(#f167oxvz63x0b7)" height="50" rx="12.5" ry="12.5" style="stroke: #A80036; stroke-width: 1.5;" width="73" x="315" y="48.6094"/><line style="stroke: #A80036; stroke-width: 1.5;" x1="315" x2="388" y1="76.2188" y2="76.2188"/><text fill="#000000" font-family="sans-serif" font-size="14" lengthAdjust="spacingAndGlyphs" textLength="53" x="325" y="68.1426">Running</text><rect fill="#00AAFF" filter="url(#f167oxvz63x0b7)" height="50" rx="12.5" ry="12.5" style="stroke: #A80036; stroke-width: 1.5;" width="57" x="406" y="48.6094"/><line style="stroke: #A80036; stroke-width: 1.5;" x1="406" x2="463" y1="76.2188" y2="76.2188"/><text fill="#000000" font-family="sans-serif" font-size="14" lengthAdjust="spacingAndGlyphs" textLength="37" x="416" y="68.1426">Killing</text><rect fill="#00AAFF" filter="url(#f167oxvz63x0b7)" height="50" rx="12.5" ry="12.5" style="stroke: #A80036; stroke-width: 1.5;" width="59" x="481" y="48.6094"/><line style="stroke: #A80036; stroke-width: 1.5;" x1="481" x2="540" y1="76.2188" y2="76.2188"/><text fill="#000000" font-family="sans-serif" font-size="14" lengthAdjust="spacingAndGlyphs" textLength="39" x="491" y="68.1426">Failed</text><rect fill="#00AAFF" filter="url(#f167oxvz63x0b7)" height="50" rx="12.5" ry="12.5" style="stroke: #A80036; stroke-width: 1.5;" width="88" x="558.5" y="48.6094"/><line style="stroke: #A80036; stroke-width: 1.5;" x1="558.5" x2="646.5" y1="76.2188" y2="76.2188"/><text fill="#000000" font-family="sans-serif" font-size="14" lengthAdjust="spacingAndGlyphs" textLength="68" x="568.5" y="68.1426">Completed</text><rect fill="#00AAFF" filter="url(#f167oxvz63x0b7)" height="50" rx="12.5" ry="12.5" style="stroke: #A80036; stroke-width: 1.5;" width="54" x="664.5" y="48.6094"/><line style="stroke: #A80036; stroke-width: 1.5;" x1="664.5" x2="718.5" y1="76.2188" y2="76.2188"/><text fill="#000000" font-family="sans-serif" font-size="14" lengthAdjust="spacingAndGlyphs" textLength="34" x="674.5" y="68.1426">Killed</text><!--link Init to Deploying--><path d="M58.5,98.6764 C58.5,122.6164 58.5,159.3899 58.5,185.0824 " fill="none" id="Init-Deploying" style="stroke: #000000; stroke-width: 1.0;"/><polygon fill="#000000" points="58.5,190.3881,62.5,181.3881,58.5,185.3881,54.5,181.3881,58.5,190.3881" style="stroke: #000000; stroke-width: 1.0;"/><text fill="#000000" font-family="sans-serif" font-size="13" lengthAdjust="spacingAndGlyphs" textLength="36" x="59.5" y="150.1045">create</text><!--
@startuml



state StackInstance #00aaff {

    state Init #00aaff {
    }

    state Deploying #00aaff {
    }

    state Deployed #00aaff {
    }

    state Provisioning #00aaff {
    }

    state Running #00aaff {
    }

    state Killing #00aaff {
    }

    state Failed #00aaff {
    }

    state Completed #00aaff {
    }

    state Killed #00aaff {
    }




Init -[#black]- -> Deploying : create

}


@enduml

PlantUML version 1.2019.05(Sat Apr 20 09:45:36 PDT 2019)
(GPL source distribution)
Java Runtime: Java(TM) SE Runtime Environment
JVM: Java HotSpot(TM) Client VM
Java Version: 1.8.0_271-b09
Operating System: Windows 10
OS Version: 10.0
Default Encoding: Cp1252
Language: en
Country: US
--></g></svg>