<?xml version="1.0" encoding="UTF-8" standalone="no"?><svg xmlns="http://www.w3.org/2000/svg" xmlns:xlink="http://www.w3.org/1999/xlink" contentScriptType="application/ecmascript" contentStyleType="text/css" height="265px" preserveAspectRatio="none" style="width:468px;height:265px;" version="1.1" viewBox="0 0 468 265" width="468px" zoomAndPan="magnify"><defs><filter height="300%" id="f15zcm8geoy42p" width="300%" x="-1" y="-1"><feGaussianBlur result="blurOut" stdDeviation="2.0"/><feColorMatrix in="blurOut" result="blurOut2" type="matrix" values="0 0 0 0 0 0 0 0 0 0 0 0 0 0 0 0 0 0 .4 0"/><feOffset dx="4.0" dy="4.0" in="blurOut2" result="blurOut3"/><feBlend in="SourceGraphic" in2="blurOut3" mode="normal"/></filter></defs><g><!--entity ChannelCreationPolicy--><rect fill="#ADD8E6" filter="url(#f15zcm8geoy42p)" height="37.6094" style="stroke: #000000; stroke-width: 1.5;" width="164" x="176.5" y="217"/><text fill="#000000" font-family="sans-serif" font-size="14" lengthAdjust="spacingAndGlyphs" textLength="144" x="186.5" y="241.5332">ChannelCreationPolicy</text><!--entity SABundle--><rect fill="#ADD8E6" filter="url(#f15zcm8geoy42p)" height="37.6094" style="stroke: #000000; stroke-width: 1.5;" width="82" x="375.5" y="217"/><text fill="#000000" font-family="sans-serif" font-size="14" lengthAdjust="spacingAndGlyphs" textLength="62" x="385.5" y="241.5332">SABundle</text><!--entity CapabilityInstance--><rect fill="#90EE90" filter="url(#f15zcm8geoy42p)" height="37.6094" style="stroke: #000000; stroke-width: 1.5;" width="135" x="6" y="217"/><text fill="#000000" font-family="sans-serif" font-size="14" lengthAdjust="spacingAndGlyphs" textLength="115" x="16" y="241.5332">CapabilityInstance</text><!--class Model--><rect fill="#FEFECE" filter="url(#f15zcm8geoy42p)" height="131.0156" id="Model" style="stroke: #A80036; stroke-width: 1.5;" width="86" x="177.5" y="8"/><ellipse cx="192.5" cy="24" fill="#ADD1B2" rx="11" ry="11" style="stroke: #A80036; stroke-width: 1.0;"/><path d="M195.2656,19.875 Q195.4219,19.6563 195.6094,19.5469 Q195.7969,19.4375 196.0156,19.4375 Q196.3906,19.4375 196.625,19.6953 Q196.8594,19.9531 196.8594,20.5625 L196.8594,22.0156 Q196.8594,22.625 196.625,22.8906 Q196.3906,23.1563 196.0156,23.1563 Q195.6719,23.1563 195.4688,22.9531 Q195.2656,22.7656 195.1563,22.25 Q195.1094,21.8906 194.9219,21.7031 Q194.5938,21.3281 193.9844,21.1094 Q193.375,20.8906 192.75,20.8906 Q191.9844,20.8906 191.3516,21.2188 Q190.7188,21.5469 190.2266,22.2969 Q189.7344,23.0469 189.7344,24.0781 L189.7344,25.1719 Q189.7344,26.4063 190.625,27.2266 Q191.5156,28.0469 193.1094,28.0469 Q194.0469,28.0469 194.7031,27.7969 Q195.0938,27.6406 195.5156,27.2031 Q195.7813,26.9375 195.9297,26.8594 Q196.0781,26.7813 196.2813,26.7813 Q196.6094,26.7813 196.8672,27.0391 Q197.125,27.2969 197.125,27.6406 Q197.125,27.9844 196.7813,28.3906 Q196.2813,28.9688 195.4844,29.2969 Q194.4063,29.75 193.1094,29.75 Q191.5938,29.75 190.3906,29.125 Q189.4063,28.625 188.7188,27.5547 Q188.0313,26.4844 188.0313,25.2031 L188.0313,24.0469 Q188.0313,22.7188 188.6484,21.5703 Q189.2656,20.4219 190.3594,19.8047 Q191.4531,19.1875 192.6875,19.1875 Q193.4219,19.1875 194.0703,19.3516 Q194.7188,19.5156 195.2656,19.875 Z "/><text fill="#000000" font-family="sans-serif" font-size="12" lengthAdjust="spacingAndGlyphs" textLength="54" x="206.5" y="28.9102">Capability</text><line style="stroke: #A80036; stroke-width: 1.5;" x1="178.5" x2="262.5" y1="40" y2="40"/><text fill="#000000" font-family="sans-serif" font-size="11" lengthAdjust="spacingAndGlyphs" textLength="56" x="183.5" y="55.4189">string name</text><line style="stroke: #A80036; stroke-width: 1.5;" x1="178.5" x2="262.5" y1="61.8359" y2="61.8359"/><text fill="#000000" font-family="sans-serif" font-size="11" lengthAdjust="spacingAndGlyphs" textLength="30" x="183.5" y="77.2549">build()</text><text fill="#000000" font-family="sans-serif" font-size="11" lengthAdjust="spacingAndGlyphs" textLength="39" x="183.5" y="91.0908">create()</text><text fill="#000000" font-family="sans-serif" font-size="11" lengthAdjust="spacingAndGlyphs" textLength="40" x="183.5" y="104.9268">deploy()</text><text fill="#000000" font-family="sans-serif" font-size="11" lengthAdjust="spacingAndGlyphs" textLength="44" x="183.5" y="118.7627">release()</text><text fill="#000000" font-family="sans-serif" font-size="11" lengthAdjust="spacingAndGlyphs" textLength="26" x="183.5" y="132.5986">test()</text><!--link Model to ChannelCreationPolicy--><path d="M238.909,152.253 C243.24,170.5448 247.611,189.0096 251.123,203.8413 " fill="none" id="Model-ChannelCreationPolicy" style="stroke: #A80036; stroke-width: 1.0;"/><polygon fill="#A80036" points="254.197,216.824,256.0158,207.1445,253.045,211.9585,248.231,208.9877,254.197,216.824" style="stroke: #A80036; stroke-width: 1.0;"/><line style="stroke: #A80036; stroke-width: 1.0;" x1="253.045" x2="251.2015" y1="211.9585" y2="204.1737"/><polygon fill="#FFFFFF" points="235.847,139.319,233.3366,146.079,238.6111,150.9963,241.1215,144.2363,235.847,139.319" style="stroke: #A80036; stroke-width: 1.0;"/><text fill="#000000" font-family="sans-serif" font-size="13" lengthAdjust="spacingAndGlyphs" textLength="44" x="247.5" y="183.4951">policies</text><text fill="#000000" font-family="sans-serif" font-size="13" lengthAdjust="spacingAndGlyphs" textLength="7" x="244.8073" y="206.1101">n</text><!--link Model to SABundle--><path d="M273.817,118.16 C309.118,147.067 354.262,184.0351 384.216,208.5635 " fill="none" id="Model-SABundle" style="stroke: #A80036; stroke-width: 1.0;"/><polygon fill="#A80036" points="394.518,216.9995,390.0894,208.2025,390.6497,213.8315,385.0206,214.3918,394.518,216.9995" style="stroke: #A80036; stroke-width: 1.0;"/><line style="stroke: #A80036; stroke-width: 1.0;" x1="390.6497" x2="384.46" y1="213.8315" y2="208.7632"/><polygon fill="#FFFFFF" points="263.513,109.722,265.6208,116.6182,272.7971,117.3249,270.6894,110.4288,263.513,109.722" style="stroke: #A80036; stroke-width: 1.0;"/><text fill="#000000" font-family="sans-serif" font-size="13" lengthAdjust="spacingAndGlyphs" textLength="45" x="354.5" y="183.4951">bundles</text><text fill="#000000" font-family="sans-serif" font-size="13" lengthAdjust="spacingAndGlyphs" textLength="7" x="379.3956" y="206.0065">n</text><!--link Model to CapabilityInstance--><path d="M165.452,96.422 C134.383,111.848 97.9806,135.722 78.5,169 C72.4743,179.2935 70.5129,192.0899 70.3107,203.6674 " fill="none" id="Model-CapabilityInstance" style="stroke: #A80036; stroke-width: 1.0;"/><polygon fill="#A80036" points="70.7815,216.9347,74.4597,207.7985,70.6041,211.9378,66.4648,208.0823,70.7815,216.9347" style="stroke: #A80036; stroke-width: 1.0;"/><line style="stroke: #A80036; stroke-width: 1.0;" x1="70.6041" x2="70.3204" y1="211.9378" y2="203.9429"/><polygon fill="#A80036" points="177.491,90.723,170.3565,89.6747,166.6448,95.8573,173.7793,96.9055,177.491,90.723" style="stroke: #A80036; stroke-width: 1.0;"/><text fill="#000000" font-family="sans-serif" font-size="13" lengthAdjust="spacingAndGlyphs" textLength="56" x="79.5" y="183.4951">instances</text><text fill="#000000" font-family="sans-serif" font-size="13" lengthAdjust="spacingAndGlyphs" textLength="7" x="61.8771" y="206.2547">n</text><!--link CapabilityInstance to Model--><path d="M113.832,209.3913 C123.071,202.6556 132.515,195.0136 140.5,187 C151.779,175.6809 162.61,162.6265 172.461,149.509 " fill="none" id="CapabilityInstance-Model" style="stroke: #A80036; stroke-width: 1.0;"/><polygon fill="#A80036" points="180.14,139.007,171.5986,143.9106,177.1886,143.043,178.0562,148.6329,180.14,139.007" style="stroke: #A80036; stroke-width: 1.0;"/><line style="stroke: #A80036; stroke-width: 1.0;" x1="177.1886" x2="172.467" y1="143.043" y2="149.5"/><polygon fill="#FFFFFF" points="103.1789,216.85,110.3881,216.6849,113.0085,209.9668,105.7993,210.1318,103.1789,216.85" style="stroke: #A80036; stroke-width: 1.0;"/><text fill="#000000" font-family="sans-serif" font-size="13" lengthAdjust="spacingAndGlyphs" textLength="34" x="157.5" y="183.4951">owner</text><text fill="#000000" font-family="sans-serif" font-size="13" lengthAdjust="spacingAndGlyphs" textLength="7" x="168.3428" y="160.5603">1</text><!--
@startuml

class "Capability" as Model {
 string name

 build()
 create()
 deploy()
 release()
 test()
 
}

rectangle "ChannelCreationPolicy" as ChannelCreationPolicy #lightblue {
}

Model o- -> "n" ChannelCreationPolicy : policies


rectangle "SABundle" as SABundle #lightblue {
}

Model o- -> "n" SABundle : bundles


rectangle "CapabilityInstance" as CapabilityInstance #lightblue {
}

Model *- -> "n" CapabilityInstance : instances




    rectangle "CapabilityInstance" as CapabilityInstance #lightgreen {
    }
    
        CapabilityInstance   o- -> "1" Model : "owner"
    

@enduml

PlantUML version 1.2019.05(Sat Apr 20 09:45:36 PDT 2019)
(GPL source distribution)
Java Runtime: Java(TM) SE Runtime Environment
JVM: Java HotSpot(TM) Client VM
Java Version: 1.8.0_271-b09
Operating System: Windows 10
OS Version: 10.0
Default Encoding: Cp1252
Language: en
Country: US
--></g></svg>