<?xml version="1.0" encoding="us-ascii" standalone="no"?><svg xmlns="http://www.w3.org/2000/svg" xmlns:xlink="http://www.w3.org/1999/xlink" contentStyleType="text/css" height="282px" preserveAspectRatio="none" style="width:464px;height:282px;background:#FFFFFF;" version="1.1" viewBox="0 0 464 282" width="464px" zoomAndPan="magnify"><defs/><g><!--entity ChannelCreationPolicy--><g id="elem_ChannelCreationPolicy"><rect fill="#ADD8E6" height="37.6094" rx="2.5" ry="2.5" style="stroke:#181818;stroke-width:0.5;" width="164" x="177.5" y="239"/><text fill="#000000" font-family="sans-serif" font-size="14" lengthAdjust="spacing" textLength="144" x="187.5" y="263.5332">ChannelCreationPolicy</text></g><!--entity SABundle--><g id="elem_SABundle"><rect fill="#ADD8E6" height="37.6094" rx="2.5" ry="2.5" style="stroke:#181818;stroke-width:0.5;" width="82" x="376.5" y="239"/><text fill="#000000" font-family="sans-serif" font-size="14" lengthAdjust="spacing" textLength="62" x="386.5" y="263.5332">SABundle</text></g><!--entity CapabilityInstance--><g id="elem_CapabilityInstance"><rect fill="#90EE90" height="37.6094" rx="2.5" ry="2.5" style="stroke:#181818;stroke-width:0.5;" width="135" x="7" y="239"/><text fill="#000000" font-family="sans-serif" font-size="14" lengthAdjust="spacing" textLength="115" x="17" y="263.5332">CapabilityInstance</text></g><!--class Model--><g id="elem_Model"><rect codeLine="2" fill="#F1F1F1" height="153.6563" id="Model" rx="2.5" ry="2.5" style="stroke:#181818;stroke-width:0.5;" width="94" x="171.5" y="7"/><ellipse cx="186.5" cy="23" fill="#ADD1B2" rx="11" ry="11" style="stroke:#181818;stroke-width:1.0;"/><path d="M189.2656,18.875 Q189.4219,18.6563 189.6094,18.5469 Q189.7969,18.4375 190.0156,18.4375 Q190.3906,18.4375 190.625,18.6953 Q190.8594,18.9531 190.8594,19.5625 L190.8594,21.0156 Q190.8594,21.625 190.625,21.8906 Q190.3906,22.1563 190.0156,22.1563 Q189.6719,22.1563 189.4688,21.9531 Q189.2656,21.7656 189.1563,21.25 Q189.1094,20.8906 188.9219,20.7031 Q188.5938,20.3281 187.9844,20.1094 Q187.375,19.8906 186.75,19.8906 Q185.9844,19.8906 185.3516,20.2188 Q184.7188,20.5469 184.2266,21.2969 Q183.7344,22.0469 183.7344,23.0781 L183.7344,24.1719 Q183.7344,25.4063 184.625,26.2266 Q185.5156,27.0469 187.1094,27.0469 Q188.0469,27.0469 188.7031,26.7969 Q189.0938,26.6406 189.5156,26.2031 Q189.7813,25.9375 189.9297,25.8594 Q190.0781,25.7813 190.2813,25.7813 Q190.6094,25.7813 190.8672,26.0391 Q191.125,26.2969 191.125,26.6406 Q191.125,26.9844 190.7813,27.3906 Q190.2813,27.9688 189.4844,28.2969 Q188.4063,28.75 187.1094,28.75 Q185.5938,28.75 184.3906,28.125 Q183.4063,27.625 182.7188,26.5547 Q182.0313,25.4844 182.0313,24.2031 L182.0313,23.0469 Q182.0313,21.7188 182.6484,20.5703 Q183.2656,19.4219 184.3594,18.8047 Q185.4531,18.1875 186.6875,18.1875 Q187.4219,18.1875 188.0703,18.3516 Q188.7188,18.5156 189.2656,18.875 Z " fill="#000000"/><text fill="#000000" font-family="sans-serif" font-size="14" lengthAdjust="spacing" textLength="62" x="200.5" y="28.7285">Capability</text><line style="stroke:#181818;stroke-width:0.5;" x1="172.5" x2="264.5" y1="39" y2="39"/><text fill="#000000" font-family="sans-serif" font-size="14" lengthAdjust="spacing" textLength="74" x="177.5" y="57.5332">string name</text><line style="stroke:#181818;stroke-width:0.5;" x1="172.5" x2="264.5" y1="64.6094" y2="64.6094"/><text fill="#000000" font-family="sans-serif" font-size="14" lengthAdjust="spacing" textLength="40" x="177.5" y="83.1426">build()</text><text fill="#000000" font-family="sans-serif" font-size="14" lengthAdjust="spacing" textLength="50" x="177.5" y="100.752">create()</text><text fill="#000000" font-family="sans-serif" font-size="14" lengthAdjust="spacing" textLength="52" x="177.5" y="118.3613">deploy()</text><text fill="#000000" font-family="sans-serif" font-size="14" lengthAdjust="spacing" textLength="57" x="177.5" y="135.9707">release()</text><text fill="#000000" font-family="sans-serif" font-size="14" lengthAdjust="spacing" textLength="33" x="177.5" y="153.5801">test()</text></g><!--link Model to ChannelCreationPolicy--><g id="link_Model_ChannelCreationPolicy"><path codeLine="16" d="M239.4442,172.8625 C246.3042,201.6225 249.3267,214.344 253.7767,232.984 " fill="none" id="Model-ChannelCreationPolicy" style="stroke:#181818;stroke-width:1.0;"/><polygon fill="none" points="236.66,161.19,234.1613,167.9543,239.4442,172.8625,241.9429,166.0982,236.66,161.19" style="stroke:#181818;stroke-width:1.0;"/><polygon fill="#181818" points="255.17,238.82,256.9708,229.1372,254.009,233.9567,249.1895,230.9948,255.17,238.82" style="stroke:#181818;stroke-width:1.0;"/><text fill="#000000" font-family="sans-serif" font-size="13" lengthAdjust="spacing" textLength="44" x="247.5" y="205.4951">policies</text><text fill="#000000" font-family="sans-serif" font-size="13" lengthAdjust="spacing" textLength="7" x="245.7721" y="228.1049">n</text></g><!--link Model to SABundle--><g id="link_Model_SABundle"><path codeLine="22" d="M274.7389,133.6069 C316.2289,169.4669 361.0806,208.2365 391.9606,234.9265 " fill="none" id="Model-SABundle" style="stroke:#181818;stroke-width:1.0;"/><polygon fill="none" points="265.66,125.76,267.5838,132.7097,274.7389,133.6069,272.8151,126.6572,265.66,125.76" style="stroke:#181818;stroke-width:1.0;"/><polygon fill="#181818" points="396.5,238.85,392.3065,229.9385,392.7172,235.5804,387.0752,235.9911,396.5,238.85" style="stroke:#181818;stroke-width:1.0;"/><text fill="#000000" font-family="sans-serif" font-size="13" lengthAdjust="spacing" textLength="45" x="359.5" y="205.4951">bundles</text><text fill="#000000" font-family="sans-serif" font-size="13" lengthAdjust="spacing" textLength="7" x="381.9969" y="228.1441">n</text></g><!--link Model to CapabilityInstance--><g id="link_Model_CapabilityInstance"><path codeLine="28" d="M160.7722,113.4552 C128.9822,131.3452 99.77,153.66 79.5,191 C71.55,205.64 70.5615,218.886 71.5815,232.806 " fill="none" id="Model-CapabilityInstance" style="stroke:#181818;stroke-width:1.0;"/><polygon fill="#181818" points="171.23,107.57,164.0394,107.0267,160.7722,113.4552,167.9628,113.9985,171.23,107.57" style="stroke:#181818;stroke-width:1.0;"/><polygon fill="#181818" points="72.02,238.79,75.3516,229.5217,71.6546,233.8034,67.373,230.1064,72.02,238.79" style="stroke:#181818;stroke-width:1.0;"/><text fill="#000000" font-family="sans-serif" font-size="13" lengthAdjust="spacing" textLength="56" x="80.5" y="205.4951">instances</text><text fill="#000000" font-family="sans-serif" font-size="13" lengthAdjust="spacing" textLength="7" x="63.1886" y="228.0657">n</text></g><!--link CapabilityInstance to Model--><g id="link_CapabilityInstance_Model"><path codeLine="36" d="M114.8396,232.2961 C127.0896,224.1161 130.84,220.39 141.5,209 C154.83,194.76 163.8762,182.914 174.5362,166.254 " fill="none" id="CapabilityInstance-Model" style="stroke:#181818;stroke-width:1.0;"/><polygon fill="none" points="104.86,238.96,112.0711,238.9546,114.8396,232.2961,107.6285,232.3015,104.86,238.96" style="stroke:#181818;stroke-width:1.0;"/><polygon fill="#181818" points="177.77,161.2,169.55,166.6251,175.0752,165.4116,176.2886,170.9368,177.77,161.2" style="stroke:#181818;stroke-width:1.0;"/><text fill="#000000" font-family="sans-serif" font-size="13" lengthAdjust="spacing" textLength="34" x="155.5" y="205.4951">owner</text><text fill="#000000" font-family="sans-serif" font-size="13" lengthAdjust="spacing" textLength="7" x="166.969" y="182.0469">1</text></g><!--SRC=[fLAnQWCn3Dtz5S9PsaA6hZSKsamT2eLyWSudBW9LFcmV8PJyUwoxQqgRX0xL83_BVdgIx22OC_WD3jYoS3bum0nliIE1JmUv9DOU53_8EMX7bkxkta58X8KCTJH8F1XA98Hv2XRAnLPtT2vHAAYzK1NPeIh9niWSzJqAXrdlwWciXFjTQMMaMafDDLSLr-idyEfla1eO331bzqDy-_moQYSqwNrj_f8utsjgxmP-9VqUswlc6Wnp-ilm3Q67So-NZ0PuWIPQfr_j7z9z8b9xqch7oK_Ex0e7bXay-kKlDE3ZNYdvcNe2]--></g></svg>