<?xml version="1.0" encoding="UTF-8" standalone="no"?><svg xmlns="http://www.w3.org/2000/svg" xmlns:xlink="http://www.w3.org/1999/xlink" contentScriptType="application/ecmascript" contentStyleType="text/css" height="1092px" preserveAspectRatio="none" style="width:232px;height:1092px;" version="1.1" viewBox="0 0 232 1092" width="232px" zoomAndPan="magnify"><defs><filter height="300%" id="f1awg6afkbz011" width="300%" x="-1" y="-1"><feGaussianBlur result="blurOut" stdDeviation="2.0"/><feColorMatrix in="blurOut" result="blurOut2" type="matrix" values="0 0 0 0 0 0 0 0 0 0 0 0 0 0 0 0 0 0 .4 0"/><feOffset dx="4.0" dy="4.0" in="blurOut2" result="blurOut3"/><feBlend in="SourceGraphic" in2="blurOut3" mode="normal"/></filter></defs><g><rect fill="#00AAFF" filter="url(#f1awg6afkbz011)" height="1073.6094" rx="12.5" ry="12.5" style="stroke: #A80036; stroke-width: 1.5;" width="214" x="6" y="8"/><rect fill="#FFFFFF" height="1040" rx="12.5" ry="12.5" style="stroke: #FFFFFF; stroke-width: 1.0;" width="208" x="9" y="38.6094"/><line style="stroke: #A80036; stroke-width: 1.5;" x1="6" x2="220" y1="35.6094" y2="35.6094"/><text fill="#000000" font-family="sans-serif" font-size="14" lengthAdjust="spacingAndGlyphs" textLength="62" x="82" y="27.5332">Capability</text><polygon fill="#FEFECE" filter="url(#f1awg6afkbz011)" points="102,474.6094,114,486.6094,102,498.6094,90,486.6094,102,474.6094" style="stroke: #A80036; stroke-width: 1.5;"/><rect fill="#00AAFF" filter="url(#f1awg6afkbz011)" height="50" rx="12.5" ry="12.5" style="stroke: #A80036; stroke-width: 1.5;" width="50" x="77" y="48.6094"/><line style="stroke: #A80036; stroke-width: 1.5;" x1="77" x2="127" y1="76.2188" y2="76.2188"/><text fill="#000000" font-family="sans-serif" font-size="14" lengthAdjust="spacingAndGlyphs" textLength="18" x="93" y="68.1426">Init</text><rect fill="#00AAFF" filter="url(#f1awg6afkbz011)" height="50" rx="12.5" ry="12.5" style="stroke: #A80036; stroke-width: 1.5;" width="71" x="66.5" y="190.6094"/><line style="stroke: #A80036; stroke-width: 1.5;" x1="66.5" x2="137.5" y1="218.2188" y2="218.2188"/><text fill="#000000" font-family="sans-serif" font-size="14" lengthAdjust="spacingAndGlyphs" textLength="51" x="76.5" y="210.1426">Created</text><rect fill="#00AAFF" filter="url(#f1awg6afkbz011)" height="50" rx="12.5" ry="12.5" style="stroke: #A80036; stroke-width: 1.5;" width="70" x="67" y="332.6094"/><line style="stroke: #A80036; stroke-width: 1.5;" x1="67" x2="137" y1="360.2188" y2="360.2188"/><text fill="#000000" font-family="sans-serif" font-size="14" lengthAdjust="spacingAndGlyphs" textLength="50" x="77" y="352.1426">Building</text><rect fill="#00AAFF" filter="url(#f1awg6afkbz011)" height="50" rx="12.5" ry="12.5" style="stroke: #A80036; stroke-width: 1.5;" width="50" x="32" y="590.6094"/><line style="stroke: #A80036; stroke-width: 1.5;" x1="32" x2="82" y1="618.2188" y2="618.2188"/><text fill="#000000" font-family="sans-serif" font-size="14" lengthAdjust="spacingAndGlyphs" textLength="27" x="43.5" y="610.1426">Built</text><rect fill="#00AAFF" filter="url(#f1awg6afkbz011)" height="50" rx="12.5" ry="12.5" style="stroke: #A80036; stroke-width: 1.5;" width="67" x="23.5" y="732.6094"/><line style="stroke: #A80036; stroke-width: 1.5;" x1="23.5" x2="90.5" y1="760.2188" y2="760.2188"/><text fill="#000000" font-family="sans-serif" font-size="14" lengthAdjust="spacingAndGlyphs" textLength="47" x="33.5" y="752.1426">Testing</text><rect fill="#00AAFF" filter="url(#f1awg6afkbz011)" height="50" rx="12.5" ry="12.5" style="stroke: #A80036; stroke-width: 1.5;" width="64" x="25" y="874.6094"/><line style="stroke: #A80036; stroke-width: 1.5;" x1="25" x2="89" y1="902.2188" y2="902.2188"/><text fill="#000000" font-family="sans-serif" font-size="14" lengthAdjust="spacingAndGlyphs" textLength="44" x="35" y="894.1426">Tested</text><rect fill="#00AAFF" filter="url(#f1awg6afkbz011)" height="50" rx="12.5" ry="12.5" style="stroke: #A80036; stroke-width: 1.5;" width="80" x="17" y="1016.6094"/><line style="stroke: #A80036; stroke-width: 1.5;" x1="17" x2="97" y1="1044.2188" y2="1044.2188"/><text fill="#000000" font-family="sans-serif" font-size="14" lengthAdjust="spacingAndGlyphs" textLength="60" x="27" y="1036.1426">Released</text><rect fill="#00AAFF" filter="url(#f1awg6afkbz011)" height="50" rx="12.5" ry="12.5" style="stroke: #A80036; stroke-width: 1.5;" width="59" x="118.5" y="590.6094"/><line style="stroke: #A80036; stroke-width: 1.5;" x1="118.5" x2="177.5" y1="618.2188" y2="618.2188"/><text fill="#000000" font-family="sans-serif" font-size="14" lengthAdjust="spacingAndGlyphs" textLength="39" x="128.5" y="610.1426">Failed</text><!--link Init to Created--><path d="M102,98.6764 C102,122.6164 102,159.3894 102,185.0824 " fill="none" id="Init-Created" style="stroke: #000000; stroke-width: 1.0;"/><polygon fill="#000000" points="102,190.3884,106,181.3884,102,185.3884,98,181.3884,102,190.3884" style="stroke: #000000; stroke-width: 1.0;"/><text fill="#000000" font-family="sans-serif" font-size="13" lengthAdjust="spacingAndGlyphs" textLength="36" x="103" y="150.1045">create</text><!--link Created to Building--><path d="M102,240.6764 C102,264.6164 102,301.3894 102,327.0824 " fill="none" id="Created-Building" style="stroke: #000000; stroke-width: 1.0;"/><polygon fill="#000000" points="102,332.3884,106,323.3884,102,327.3884,98,323.3884,102,332.3884" style="stroke: #000000; stroke-width: 1.0;"/><text fill="#000000" font-family="sans-serif" font-size="13" lengthAdjust="spacingAndGlyphs" textLength="27" x="103" y="292.1045">build</text><!--link Building to builtCondition--><path d="M102,382.7964 C102,408.1404 102,447.2594 102,469.2144 " fill="none" id="Building-builtCondition" style="stroke: #000000; stroke-width: 1.0;"/><polygon fill="#000000" points="102,474.4074,106,465.4074,102,469.4074,98,465.4074,102,474.4074" style="stroke: #000000; stroke-width: 1.0;"/><text fill="#000000" font-family="sans-serif" font-size="13" lengthAdjust="spacingAndGlyphs" textLength="24" x="103" y="434.1045">built</text><!--link builtCondition to Built--><path d="M96.9187,493.6854 C89.9226,502.3884 77.458,519.1744 71,535.6094 C64.7755,551.4494 61.3035,570.1664 59.3745,585.4044 " fill="none" id="builtCondition-Built" style="stroke: #000000; stroke-width: 1.0;"/><polygon fill="#000000" points="58.7777,590.4294,63.8117,581.9642,59.3677,585.4643,55.8676,581.0203,58.7777,590.4294" style="stroke: #000000; stroke-width: 1.0;"/><text fill="#000000" font-family="sans-serif" font-size="13" lengthAdjust="spacingAndGlyphs" textLength="53" x="72" y="550.1045">[Custom]</text><!--link builtCondition to Failed--><path d="M106.1959,494.8914 C111.3864,504.1274 120.241,520.6554 126,535.6094 C132.206,551.7234 137.47,570.3024 141.291,585.3924 " fill="none" id="builtCondition-Failed" style="stroke: #000000; stroke-width: 1.0;"/><polygon fill="#000000" points="142.531,590.3674,144.2368,580.6674,141.3224,585.5157,136.4741,582.6012,142.531,590.3674" style="stroke: #000000; stroke-width: 1.0;"/><text fill="#000000" font-family="sans-serif" font-size="13" lengthAdjust="spacingAndGlyphs" textLength="53" x="133" y="550.1045">[Custom]</text><!--link Built to Testing--><path d="M57,640.6764 C57,664.6164 57,701.3894 57,727.0824 " fill="none" id="Built-Testing" style="stroke: #000000; stroke-width: 1.0;"/><polygon fill="#000000" points="57,732.3884,61,723.3884,57,727.3884,53,723.3884,57,732.3884" style="stroke: #000000; stroke-width: 1.0;"/><text fill="#000000" font-family="sans-serif" font-size="13" lengthAdjust="spacingAndGlyphs" textLength="22" x="58" y="692.1045">test</text><!--link Testing to Tested--><path d="M57,782.6764 C57,806.6164 57,843.3894 57,869.0824 " fill="none" id="Testing-Tested" style="stroke: #000000; stroke-width: 1.0;"/><polygon fill="#000000" points="57,874.3884,61,865.3884,57,869.3884,53,865.3884,57,874.3884" style="stroke: #000000; stroke-width: 1.0;"/><text fill="#000000" font-family="sans-serif" font-size="13" lengthAdjust="spacingAndGlyphs" textLength="73" x="58" y="834.1045">testSuccess</text><!--link Tested to Released--><path d="M57,924.6764 C57,948.6164 57,985.3899 57,1011.0824 " fill="none" id="Tested-Released" style="stroke: #000000; stroke-width: 1.0;"/><polygon fill="#000000" points="57,1016.3881,61,1007.3881,57,1011.3881,53,1007.3881,57,1016.3881" style="stroke: #000000; stroke-width: 1.0;"/><text fill="#000000" font-family="sans-serif" font-size="13" lengthAdjust="spacingAndGlyphs" textLength="42" x="58" y="976.1045">release</text><!--link Released to Released--><path d="M97.1186,1033.8286 C107.3323,1034.34 115,1036.9336 115,1041.6094 C115,1045.4815 109.7415,1047.9257 102.1334,1048.942 " fill="none" id="Released-Released" style="stroke: #000000; stroke-width: 1.0;"/><polygon fill="#000000" points="97.1186,1049.3902,106.4391,1052.5728,102.0987,1048.9449,105.7266,1044.6046,97.1186,1049.3902" style="stroke: #000000; stroke-width: 1.0;"/><text fill="#000000" font-family="sans-serif" font-size="13" lengthAdjust="spacingAndGlyphs" textLength="38" x="121" y="1047.1045">deploy</text><!--
@startuml



state Capability #00aaff {

    state Init #00aaff {
    }

    state Created #00aaff {
    }

    state Building #00aaff {
    }

    state Built #00aaff {
    }

    state Testing #00aaff {
    }

    state Tested #00aaff {
    }

    state Released #00aaff {
    }

    state Failed #00aaff {
    }




Init -[#black]- -> Created : create

Created -[#black]- -> Building : build

state builtCondition <<choice>>
Building -[#black]- -> builtCondition : built

builtCondition -[#black]- -> Built: [Custom]

builtCondition -[#black]- -> Failed: [Custom]

Built -[#black]- -> Testing : test

Testing -[#black]- -> Tested : testSuccess

Tested -[#black]- -> Released : release

Released -[#black]- -> Released : deploy

}


@enduml

PlantUML version 1.2019.05(Sat Apr 20 09:45:36 PDT 2019)
(GPL source distribution)
Java Runtime: Java(TM) SE Runtime Environment
JVM: Java HotSpot(TM) Client VM
Java Version: 1.8.0_271-b09
Operating System: Windows 10
OS Version: 10.0
Default Encoding: Cp1252
Language: en
Country: US
--></g></svg>