<?xml version="1.0" encoding="us-ascii" standalone="no"?><svg xmlns="http://www.w3.org/2000/svg" xmlns:xlink="http://www.w3.org/1999/xlink" contentStyleType="text/css" height="1080px" preserveAspectRatio="none" style="width:212px;height:1080px;background:#FFFFFF;" version="1.1" viewBox="0 0 212 1080" width="212px" zoomAndPan="magnify"><defs/><g><path d="M19.5,7 L186.5,7 A12.5,12.5 0 0 1 199,19.5 L199,34.6094 L7,34.6094 L7,19.5 A12.5,12.5 0 0 1 19.5,7 " fill="#00AAFF" style="stroke:#00AAFF;stroke-width:1.0;"/><rect fill="none" height="1067.6094" rx="12.5" ry="12.5" style="stroke:#181818;stroke-width:0.5;" width="192" x="7" y="7"/><line style="stroke:#181818;stroke-width:0.5;" x1="7" x2="199" y1="34.6094" y2="34.6094"/><text fill="#000000" font-family="sans-serif" font-size="14" lengthAdjust="spacing" textLength="62" x="72" y="26.5332">Capability</text><g id="Capability.Init"><rect fill="#00AAFF" height="50" rx="12.5" ry="12.5" style="stroke:#181818;stroke-width:0.5;" width="50" x="79" y="46.6094"/><line style="stroke:#181818;stroke-width:0.5;" x1="79" x2="129" y1="74.2188" y2="74.2188"/><text fill="#000000" font-family="sans-serif" font-size="14" lengthAdjust="spacing" textLength="18" x="95" y="66.1426">Init</text></g><g id="Capability.Created"><rect fill="#00AAFF" height="50" rx="12.5" ry="12.5" style="stroke:#181818;stroke-width:0.5;" width="71" x="68.5" y="188.6094"/><line style="stroke:#181818;stroke-width:0.5;" x1="68.5" x2="139.5" y1="216.2188" y2="216.2188"/><text fill="#000000" font-family="sans-serif" font-size="14" lengthAdjust="spacing" textLength="51" x="78.5" y="208.1426">Created</text></g><g id="Capability.Building"><rect fill="#00AAFF" height="50" rx="12.5" ry="12.5" style="stroke:#181818;stroke-width:0.5;" width="70" x="69" y="330.6094"/><line style="stroke:#181818;stroke-width:0.5;" x1="69" x2="139" y1="358.2188" y2="358.2188"/><text fill="#000000" font-family="sans-serif" font-size="14" lengthAdjust="spacing" textLength="50" x="79" y="350.1426">Building</text></g><g id="Capability.Built"><rect fill="#00AAFF" height="50" rx="12.5" ry="12.5" style="stroke:#181818;stroke-width:0.5;" width="50" x="34" y="588.6094"/><line style="stroke:#181818;stroke-width:0.5;" x1="34" x2="84" y1="616.2188" y2="616.2188"/><text fill="#000000" font-family="sans-serif" font-size="14" lengthAdjust="spacing" textLength="27" x="45.5" y="608.1426">Built</text></g><g id="Capability.Testing"><rect fill="#00AAFF" height="50" rx="12.5" ry="12.5" style="stroke:#181818;stroke-width:0.5;" width="67" x="25.5" y="730.6094"/><line style="stroke:#181818;stroke-width:0.5;" x1="25.5" x2="92.5" y1="758.2188" y2="758.2188"/><text fill="#000000" font-family="sans-serif" font-size="14" lengthAdjust="spacing" textLength="47" x="35.5" y="750.1426">Testing</text></g><g id="Capability.Tested"><rect fill="#00AAFF" height="50" rx="12.5" ry="12.5" style="stroke:#181818;stroke-width:0.5;" width="64" x="27" y="872.6094"/><line style="stroke:#181818;stroke-width:0.5;" x1="27" x2="91" y1="900.2188" y2="900.2188"/><text fill="#000000" font-family="sans-serif" font-size="14" lengthAdjust="spacing" textLength="44" x="37" y="892.1426">Tested</text></g><g id="Capability.Released"><rect fill="#00AAFF" height="50" rx="12.5" ry="12.5" style="stroke:#181818;stroke-width:0.5;" width="80" x="19" y="1014.6094"/><line style="stroke:#181818;stroke-width:0.5;" x1="19" x2="99" y1="1042.2188" y2="1042.2188"/><text fill="#000000" font-family="sans-serif" font-size="14" lengthAdjust="spacing" textLength="60" x="29" y="1034.1426">Released</text></g><g id="Capability.Failed"><rect fill="#00AAFF" height="50" rx="12.5" ry="12.5" style="stroke:#181818;stroke-width:0.5;" width="59" x="120.5" y="588.6094"/><line style="stroke:#181818;stroke-width:0.5;" x1="120.5" x2="179.5" y1="616.2188" y2="616.2188"/><text fill="#000000" font-family="sans-serif" font-size="14" lengthAdjust="spacing" textLength="39" x="130.5" y="608.1426">Failed</text></g><g id="elem_builtCondition"><polygon fill="#F1F1F1" points="104,472.6094,116,484.6094,104,496.6094,92,484.6094,104,472.6094" style="stroke:#181818;stroke-width:0.5;"/></g><!--link Init to Created--><g id="link_Init_Created"><path d="M104,96.6794 C104,122.3194 104,156.6894 104,182.3894 " fill="none" id="Init-to-Created" style="stroke:#000000;stroke-width:1.0;"/><polygon fill="#000000" points="104,188.3894,108,179.3894,104,183.3894,100,179.3894,104,188.3894" style="stroke:#000000;stroke-width:1.0;"/><text fill="#000000" font-family="sans-serif" font-size="13" lengthAdjust="spacing" textLength="36" x="105" y="148.1045">create</text></g><!--link Created to Building--><g id="link_Created_Building"><path d="M104,238.6794 C104,264.3194 104,298.6894 104,324.3894 " fill="none" id="Created-to-Building" style="stroke:#000000;stroke-width:1.0;"/><polygon fill="#000000" points="104,330.3894,108,321.3894,104,325.3894,100,321.3894,104,330.3894" style="stroke:#000000;stroke-width:1.0;"/><text fill="#000000" font-family="sans-serif" font-size="13" lengthAdjust="spacing" textLength="27" x="105" y="290.1045">build</text></g><!--link Building to builtCondition--><g id="link_Building_builtCondition"><path d="M104,380.7994 C104,408.2894 104,445.9894 104,466.4094 " fill="none" id="Building-to-builtCondition" style="stroke:#000000;stroke-width:1.0;"/><polygon fill="#000000" points="104,472.4094,108,463.4094,104,467.4094,100,463.4094,104,472.4094" style="stroke:#000000;stroke-width:1.0;"/><text fill="#000000" font-family="sans-serif" font-size="13" lengthAdjust="spacing" textLength="24" x="105" y="432.1045">built</text></g><!--link builtCondition to Built--><g id="link_builtCondition_Built"><path d="M98.92,491.6894 C91.92,500.3894 79.46,517.1794 73,533.6094 C66.07,551.2394 63.2097,566.4658 61.4397,582.4658 " fill="none" id="builtCondition-to-Built" style="stroke:#000000;stroke-width:1.0;"/><polygon fill="#000000" points="60.78,588.4294,65.7453,579.9238,61.3298,583.4597,57.7938,579.0441,60.78,588.4294" style="stroke:#000000;stroke-width:1.0;"/><text fill="#000000" font-family="sans-serif" font-size="13" lengthAdjust="spacing" textLength="53" x="74" y="548.1045">[Custom]</text></g><!--link builtCondition to Failed--><g id="link_builtCondition_Failed"><path d="M108.2,492.8894 C113.39,502.1294 122.24,518.6594 128,533.6094 C134.91,551.5494 139.2225,566.7017 143.1025,582.5417 " fill="none" id="builtCondition-to-Failed" style="stroke:#000000;stroke-width:1.0;"/><polygon fill="#000000" points="144.53,588.3694,146.2739,578.6761,143.3404,583.5129,138.5036,580.5795,144.53,588.3694" style="stroke:#000000;stroke-width:1.0;"/><text fill="#000000" font-family="sans-serif" font-size="13" lengthAdjust="spacing" textLength="53" x="136" y="548.1045">[Custom]</text></g><!--link Built to Testing--><g id="link_Built_Testing"><path d="M59,638.6794 C59,664.3194 59,698.6894 59,724.3894 " fill="none" id="Built-to-Testing" style="stroke:#000000;stroke-width:1.0;"/><polygon fill="#000000" points="59,730.3894,63,721.3894,59,725.3894,55,721.3894,59,730.3894" style="stroke:#000000;stroke-width:1.0;"/><text fill="#000000" font-family="sans-serif" font-size="13" lengthAdjust="spacing" textLength="22" x="60" y="690.1045">test</text></g><!--link Testing to Tested--><g id="link_Testing_Tested"><path d="M59,780.6794 C59,806.3194 59,840.6894 59,866.3894 " fill="none" id="Testing-to-Tested" style="stroke:#000000;stroke-width:1.0;"/><polygon fill="#000000" points="59,872.3894,63,863.3894,59,867.3894,55,863.3894,59,872.3894" style="stroke:#000000;stroke-width:1.0;"/><text fill="#000000" font-family="sans-serif" font-size="13" lengthAdjust="spacing" textLength="73" x="60" y="832.1045">testSuccess</text></g><!--link Tested to Released--><g id="link_Tested_Released"><path d="M59,922.6794 C59,948.3194 59,982.6894 59,1008.3894 " fill="none" id="Tested-to-Released" style="stroke:#000000;stroke-width:1.0;"/><polygon fill="#000000" points="59,1014.3894,63,1005.3894,59,1009.3894,55,1005.3894,59,1014.3894" style="stroke:#000000;stroke-width:1.0;"/><text fill="#000000" font-family="sans-serif" font-size="13" lengthAdjust="spacing" textLength="42" x="60" y="974.1045">release</text></g><!--link Released to Released--><g id="link_Released_Released"><path d="M99.12,1031.8294 C109.33,1032.3394 117,1034.9294 117,1039.6094 C117,1044.2894 115.3225,1046.58 105.1125,1047.09 " fill="none" id="Released-to-Released" style="stroke:#000000;stroke-width:1.0;"/><polygon fill="#000000" points="99.12,1047.3894,108.3083,1050.9354,104.1138,1047.1399,107.9092,1042.9454,99.12,1047.3894" style="stroke:#000000;stroke-width:1.0;"/><text fill="#000000" font-family="sans-serif" font-size="13" lengthAdjust="spacing" textLength="38" x="123" y="1045.1045">deploy</text></g><!--SRC=[XP4zYyCm38Pt_Gf1vq1cKp9SeD3rsgrqS1ptAiuNbrePIhd_NZic9XzthXPBUXzBjkHOiiPQtcH3XlY1cxAKydB19m1wSuE-xuWdIX1-ftfzr_veSyX7JwQbxkiTa-rpr8xVr0X8_YMVscZfyinEalcBy3RCeZXj6YFLzxaeglHxWMhm0CRC34iJ4DW45o3s2W7Njck9oNQutQgh9QMh2jADMPq57winm2A_wiq2JtNlsFwSyt3y_9IEYvb1uoe4ilS0ndW53OC9pA5NIZiNqULmqb84tgCBa7B_aQs-6Vi0y8jv0G00]--></g></svg>