<?xml version="1.0" encoding="UTF-8" standalone="no"?><svg xmlns="http://www.w3.org/2000/svg" xmlns:xlink="http://www.w3.org/1999/xlink" contentScriptType="application/ecmascript" contentStyleType="text/css" height="312px" preserveAspectRatio="none" style="width:234px;height:312px;" version="1.1" viewBox="0 0 234 312" width="234px" zoomAndPan="magnify"><defs><filter height="300%" id="f891q2uj46b28" width="300%" x="-1" y="-1"><feGaussianBlur result="blurOut" stdDeviation="2.0"/><feColorMatrix in="blurOut" result="blurOut2" type="matrix" values="0 0 0 0 0 0 0 0 0 0 0 0 0 0 0 0 0 0 .4 0"/><feOffset dx="4.0" dy="4.0" in="blurOut2" result="blurOut3"/><feBlend in="SourceGraphic" in2="blurOut3" mode="normal"/></filter></defs><g><!--entity JWT--><rect fill="#ADD8E6" filter="url(#f891q2uj46b28)" height="37.6094" style="stroke: #000000; stroke-width: 1.5;" width="48" x="6" y="264"/><text fill="#000000" font-family="sans-serif" font-size="14" lengthAdjust="spacingAndGlyphs" textLength="28" x="16" y="288.5332">JWT</text><!--entity SecurityKey--><rect fill="#ADD8E6" filter="url(#f891q2uj46b28)" height="37.6094" style="stroke: #000000; stroke-width: 1.5;" width="95" x="89.5" y="264"/><text fill="#000000" font-family="sans-serif" font-size="14" lengthAdjust="spacingAndGlyphs" textLength="75" x="99.5" y="288.5332">SecurityKey</text><!--entity SecureVault--><rect fill="#90EE90" filter="url(#f891q2uj46b28)" height="37.6094" style="stroke: #000000; stroke-width: 1.5;" width="97" x="34.5" y="8"/><text fill="#000000" font-family="sans-serif" font-size="14" lengthAdjust="spacingAndGlyphs" textLength="77" x="44.5" y="32.5332">SecureVault</text><!--class Model--><rect fill="#FEFECE" filter="url(#f891q2uj46b28)" height="61.8359" id="Model" style="stroke: #A80036; stroke-width: 1.5;" width="120" x="23" y="124"/><ellipse cx="38" cy="140" fill="#ADD1B2" rx="11" ry="11" style="stroke: #A80036; stroke-width: 1.0;"/><path d="M40.7656,135.875 Q40.9219,135.6563 41.1094,135.5469 Q41.2969,135.4375 41.5156,135.4375 Q41.8906,135.4375 42.125,135.6953 Q42.3594,135.9531 42.3594,136.5625 L42.3594,138.0156 Q42.3594,138.625 42.125,138.8906 Q41.8906,139.1563 41.5156,139.1563 Q41.1719,139.1563 40.9688,138.9531 Q40.7656,138.7656 40.6563,138.25 Q40.6094,137.8906 40.4219,137.7031 Q40.0938,137.3281 39.4844,137.1094 Q38.875,136.8906 38.25,136.8906 Q37.4844,136.8906 36.8516,137.2188 Q36.2188,137.5469 35.7266,138.2969 Q35.2344,139.0469 35.2344,140.0781 L35.2344,141.1719 Q35.2344,142.4063 36.125,143.2266 Q37.0156,144.0469 38.6094,144.0469 Q39.5469,144.0469 40.2031,143.7969 Q40.5938,143.6406 41.0156,143.2031 Q41.2813,142.9375 41.4297,142.8594 Q41.5781,142.7813 41.7813,142.7813 Q42.1094,142.7813 42.3672,143.0391 Q42.625,143.2969 42.625,143.6406 Q42.625,143.9844 42.2813,144.3906 Q41.7813,144.9688 40.9844,145.2969 Q39.9063,145.75 38.6094,145.75 Q37.0938,145.75 35.8906,145.125 Q34.9063,144.625 34.2188,143.5547 Q33.5313,142.4844 33.5313,141.2031 L33.5313,140.0469 Q33.5313,138.7188 34.1484,137.5703 Q34.7656,136.4219 35.8594,135.8047 Q36.9531,135.1875 38.1875,135.1875 Q38.9219,135.1875 39.5703,135.3516 Q40.2188,135.5156 40.7656,135.875 Z "/><text fill="#000000" font-family="sans-serif" font-size="12" lengthAdjust="spacingAndGlyphs" textLength="88" x="52" y="144.9102">WorkingEnclave</text><line style="stroke: #A80036; stroke-width: 1.5;" x1="24" x2="142" y1="156" y2="156"/><text fill="#000000" font-family="sans-serif" font-size="11" lengthAdjust="spacingAndGlyphs" textLength="78" x="29" y="171.4189">string deviceUID</text><line style="stroke: #A80036; stroke-width: 1.5;" x1="24" x2="142" y1="177.8359" y2="177.8359"/><!--link Model to JWT--><path d="M65.1683,198.392 C57.8608,215.7649 49.565,235.4869 42.8665,251.4117 " fill="none" id="Model-JWT" style="stroke: #A80036; stroke-width: 1.0;"/><polygon fill="#A80036" points="37.6721,263.7606,44.8488,257.0156,39.6108,259.1517,37.4746,253.9137,37.6721,263.7606" style="stroke: #A80036; stroke-width: 1.0;"/><line style="stroke: #A80036; stroke-width: 1.0;" x1="39.6108" x2="42.7127" y1="259.1517" y2="251.7775"/><polygon fill="#FFFFFF" points="70.3052,186.18,64.2919,190.1599,65.6528,197.2414,71.6661,193.2615,70.3052,186.18" style="stroke: #A80036; stroke-width: 1.0;"/><text fill="#000000" font-family="sans-serif" font-size="13" lengthAdjust="spacingAndGlyphs" textLength="32" x="58" y="230.4951">token</text><text fill="#000000" font-family="sans-serif" font-size="13" lengthAdjust="spacingAndGlyphs" textLength="7" x="31.9498" y="253.0273">1</text><!--link Model to SecurityKey--><path d="M101.1682,198.392 C108.614,215.7649 117.066,235.4869 123.891,251.4117 " fill="none" id="Model-SecurityKey" style="stroke: #A80036; stroke-width: 1.0;"/><polygon fill="#A80036" points="129.183,263.7606,129.3142,253.9126,127.2133,259.1649,121.9611,257.0641,129.183,263.7606" style="stroke: #A80036; stroke-width: 1.0;"/><line style="stroke: #A80036; stroke-width: 1.0;" x1="127.2133" x2="124.062" y1="259.1649" y2="251.8117"/><polygon fill="#FFFFFF" points="95.9343,186.18,94.6207,193.2705,100.6606,197.2101,101.9741,190.1196,95.9343,186.18" style="stroke: #A80036; stroke-width: 1.0;"/><text fill="#000000" font-family="sans-serif" font-size="13" lengthAdjust="spacingAndGlyphs" textLength="104" x="118" y="230.4951">authenticationKey</text><text fill="#000000" font-family="sans-serif" font-size="13" lengthAdjust="spacingAndGlyphs" textLength="7" x="118.7172" y="253.0273">1</text><!--link SecureVault to Model--><path d="M83,59.254 C83,74.813 83,93.869 83,110.801 " fill="none" id="SecureVault-Model" style="stroke: #A80036; stroke-width: 1.0;"/><polygon fill="#A80036" points="83,123.817,87,114.817,83,118.817,79,114.817,83,123.817" style="stroke: #A80036; stroke-width: 1.0;"/><line style="stroke: #A80036; stroke-width: 1.0;" x1="83" x2="83.0001" y1="118.817" y2="110.817"/><polygon fill="#A80036" points="83,46.053,79,52.053,83,58.053,87,52.053,83,46.053" style="stroke: #A80036; stroke-width: 1.0;"/><text fill="#000000" font-family="sans-serif" font-size="13" lengthAdjust="spacingAndGlyphs" textLength="43" x="84" y="90.4951">enclave</text><text fill="#000000" font-family="sans-serif" font-size="13" lengthAdjust="spacingAndGlyphs" textLength="7" x="75.2781" y="113.2838">1</text><!--
@startuml

class "WorkingEnclave" as Model {
 string deviceUID

 
}

rectangle "JWT" as JWT #lightblue {
}

Model o- -> "1" JWT : token


rectangle "SecurityKey" as SecurityKey #lightblue {
}

Model o- -> "1" SecurityKey : authenticationKey




    rectangle "SecureVault" as SecureVault #lightgreen {
    }
    
        SecureVault   *- -> "1" Model : "enclave"
    

@enduml

PlantUML version 1.2019.05(Sat Apr 20 09:45:36 PDT 2019)
(GPL source distribution)
Java Runtime: Java(TM) SE Runtime Environment
JVM: Java HotSpot(TM) Client VM
Java Version: 1.8.0_271-b09
Operating System: Windows 10
OS Version: 10.0
Default Encoding: Cp1252
Language: en
Country: US
--></g></svg>