<?xml version="1.0" encoding="UTF-8" standalone="no"?><svg xmlns="http://www.w3.org/2000/svg" xmlns:xlink="http://www.w3.org/1999/xlink" contentScriptType="application/ecmascript" contentStyleType="text/css" height="685px" preserveAspectRatio="none" style="width:362px;height:685px;" version="1.1" viewBox="0 0 362 685" width="362px" zoomAndPan="magnify"><defs><filter height="300%" id="f1kaowdnhay0bw" width="300%" x="-1" y="-1"><feGaussianBlur result="blurOut" stdDeviation="2.0"/><feColorMatrix in="blurOut" result="blurOut2" type="matrix" values="0 0 0 0 0 0 0 0 0 0 0 0 0 0 0 0 0 0 .4 0"/><feOffset dx="4.0" dy="4.0" in="blurOut2" result="blurOut3"/><feBlend in="SourceGraphic" in2="blurOut3" mode="normal"/></filter></defs><g><!--cluster Key Manager--><polygon fill="#ADD8E6" filter="url(#f1kaowdnhay0bw)" points="45.5,84,143.5,84,150.5,107.6094,340.5,107.6094,340.5,673,45.5,673,45.5,84" style="stroke: #000000; stroke-width: 1.5;"/><line style="stroke: #000000; stroke-width: 1.5;" x1="45.5" x2="150.5" y1="107.6094" y2="107.6094"/><text fill="#000000" font-family="sans-serif" font-size="14" font-weight="bold" lengthAdjust="spacingAndGlyphs" textLength="92" x="49.5" y="100.5332">Key Manager</text><!--cluster bin--><polygon fill="#FFFFFF" filter="url(#f1kaowdnhay0bw)" points="79.5,128,107.5,128,114.5,151.6094,201.5,151.6094,201.5,218,79.5,218,79.5,128" style="stroke: #000000; stroke-width: 1.5;"/><line style="stroke: #000000; stroke-width: 1.5;" x1="79.5" x2="114.5" y1="151.6094" y2="151.6094"/><text fill="#000000" font-family="sans-serif" font-size="14" font-weight="bold" lengthAdjust="spacingAndGlyphs" textLength="22" x="83.5" y="144.5332">bin</text><!--cluster deploy--><polygon fill="#FFFFFF" filter="url(#f1kaowdnhay0bw)" points="69.5,324,122.5,324,129.5,347.6094,314.5,347.6094,314.5,431,69.5,431,69.5,324" style="stroke: #000000; stroke-width: 1.5;"/><line style="stroke: #000000; stroke-width: 1.5;" x1="69.5" x2="129.5" y1="347.6094" y2="347.6094"/><text fill="#000000" font-family="sans-serif" font-size="14" font-weight="bold" lengthAdjust="spacingAndGlyphs" textLength="47" x="73.5" y="340.5332">deploy</text><!--cluster images--><polygon fill="#FFFFFF" filter="url(#f1kaowdnhay0bw)" points="69.5,455,125.5,455,132.5,478.6094,316.5,478.6094,316.5,649,69.5,649,69.5,455" style="stroke: #000000; stroke-width: 1.5;"/><line style="stroke: #000000; stroke-width: 1.5;" x1="69.5" x2="132.5" y1="478.6094" y2="478.6094"/><text fill="#000000" font-family="sans-serif" font-size="14" font-weight="bold" lengthAdjust="spacingAndGlyphs" textLength="50" x="73.5" y="471.5332">images</text><!--entity REST--><rect fill="#FEFECE" filter="url(#f1kaowdnhay0bw)" height="37.6094" style="stroke: #A80036; stroke-width: 1.5;" width="69" x="106" y="262"/><rect fill="#FEFECE" height="5" style="stroke: #A80036; stroke-width: 1.5;" width="10" x="101" y="267"/><rect fill="#FEFECE" height="5" style="stroke: #A80036; stroke-width: 1.5;" width="10" x="101" y="289.6094"/><text fill="#000000" font-family="sans-serif" font-size="14" lengthAdjust="spacingAndGlyphs" textLength="49" x="116" y="286.5332">express</text><!--entity socket--><rect fill="#FEFECE" filter="url(#f1kaowdnhay0bw)" height="37.6094" style="stroke: #A80036; stroke-width: 1.5;" width="76" x="226.5" y="164"/><rect fill="#FEFECE" height="5" style="stroke: #A80036; stroke-width: 1.5;" width="10" x="221.5" y="169"/><rect fill="#FEFECE" height="5" style="stroke: #A80036; stroke-width: 1.5;" width="10" x="221.5" y="191.6094"/><text fill="#000000" font-family="sans-serif" font-size="14" lengthAdjust="spacingAndGlyphs" textLength="56" x="236.5" y="188.5332">socket.io</text><!--entity binName--><rect fill="#FEFECE" filter="url(#f1kaowdnhay0bw)" height="37.6094" style="stroke: #A80036; stroke-width: 1.5;" width="89" x="96" y="164"/><rect fill="#FEFECE" height="5" style="stroke: #A80036; stroke-width: 1.5;" width="10" x="91" y="169"/><rect fill="#FEFECE" height="5" style="stroke: #A80036; stroke-width: 1.5;" width="10" x="91" y="191.6094"/><text fill="#000000" font-family="sans-serif" font-size="14" lengthAdjust="spacingAndGlyphs" textLength="69" x="106" y="188.5332">sabr sa km</text><!--entity s_km_container--><polygon fill="#FEFECE" filter="url(#f1kaowdnhay0bw)" points="85.5,360,85.5,415.2188,195.5,415.2188,195.5,370,185.5,360,85.5,360" style="stroke: #000000; stroke-width: 1.5;"/><path d="M185.5,360 L185.5,370 L195.5,370 " fill="#FEFECE" style="stroke: #000000; stroke-width: 1.5;"/><text fill="#000000" font-family="sans-serif" font-size="14" lengthAdjust="spacingAndGlyphs" textLength="90" x="95.5" y="384.5332">node server.js</text><text fill="#000000" font-family="sans-serif" font-size="14" lengthAdjust="spacingAndGlyphs" textLength="0" x="99.5" y="402.1426"/><!--entity registry_container--><polygon fill="#FEFECE" filter="url(#f1kaowdnhay0bw)" points="231,368.5,231,406.1094,298,406.1094,298,378.5,288,368.5,231,368.5" style="stroke: #000000; stroke-width: 1.5;"/><path d="M288,368.5 L288,378.5 L298,378.5 " fill="#FEFECE" style="stroke: #000000; stroke-width: 1.5;"/><text fill="#000000" font-family="sans-serif" font-size="14" lengthAdjust="spacingAndGlyphs" textLength="47" x="241" y="393.0332">registry</text><!--entity s_kmimage--><rect fill="#FEFECE" filter="url(#f1kaowdnhay0bw)" height="33.6094" style="stroke: #000000; stroke-width: 1.5;" width="49" x="90" y="496.5"/><rect fill="#FEFECE" height="33.6094" style="stroke: #000000; stroke-width: 1.5;" width="49" x="86" y="492.5"/><text fill="#000000" font-family="sans-serif" font-size="14" lengthAdjust="spacingAndGlyphs" textLength="33" x="94" y="515.0332">s_km</text><!--entity ailtireswarm--><rect fill="#FEFECE" filter="url(#f1kaowdnhay0bw)" height="40.6094" style="stroke: #000000; stroke-width: 1.5;" width="108" x="85.5" y="592"/><polygon fill="#FEFECE" points="176.5,597,176.5,611,188.5,611,188.5,603,182.5,597,176.5,597" style="stroke: #000000; stroke-width: 1.5;"/><line style="stroke: #000000; stroke-width: 1.5;" x1="182.5" x2="182.5" y1="597" y2="603"/><line style="stroke: #000000; stroke-width: 1.5;" x1="188.5" x2="182.5" y1="603" y2="603"/><text fill="#000000" font-family="sans-serif" font-size="14" lengthAdjust="spacingAndGlyphs" textLength="78" x="95.5" y="619.5332">ailtire:swarm</text><!--entity sa_km_registry--><rect fill="#FEFECE" filter="url(#f1kaowdnhay0bw)" height="40.6094" style="stroke: #000000; stroke-width: 1.5;" width="126" x="174.5" y="491"/><polygon fill="#FEFECE" points="283.5,496,283.5,510,295.5,510,295.5,502,289.5,496,283.5,496" style="stroke: #000000; stroke-width: 1.5;"/><line style="stroke: #000000; stroke-width: 1.5;" x1="289.5" x2="289.5" y1="496" y2="502"/><line style="stroke: #000000; stroke-width: 1.5;" x1="295.5" x2="289.5" y1="502" y2="502"/><text fill="#000000" font-family="sans-serif" font-size="14" lengthAdjust="spacingAndGlyphs" textLength="96" x="184.5" y="518.5332">sa_km_registry</text><!--entity CLI--><ellipse cx="140.5" cy="38" fill="#FEFECE" filter="url(#f1kaowdnhay0bw)" rx="8" ry="8" style="stroke: #A80036; stroke-width: 2.0;"/><text fill="#000000" font-family="sans-serif" font-size="14" lengthAdjust="spacingAndGlyphs" textLength="21" x="130" y="69.5332">CLI</text><!--entity Web--><ellipse cx="20.5" cy="281" fill="#FEFECE" filter="url(#f1kaowdnhay0bw)" rx="8" ry="8" style="stroke: #A80036; stroke-width: 2.0;"/><text fill="#000000" font-family="sans-serif" font-size="14" lengthAdjust="spacingAndGlyphs" textLength="29" x="6" y="312.5332">Web</text><!--entity WebSocket--><ellipse cx="264.5" cy="38" fill="#FEFECE" filter="url(#f1kaowdnhay0bw)" rx="8" ry="8" style="stroke: #A80036; stroke-width: 2.0;"/><text fill="#000000" font-family="sans-serif" font-size="14" lengthAdjust="spacingAndGlyphs" textLength="72" x="228.5" y="69.5332">WebSocket</text><!--link binName to REST--><path d="M140.5,202.057 C140.5,217.513 140.5,239.865 140.5,256.673 " fill="none" id="binName-REST" style="stroke: #A80036; stroke-width: 1.0;"/><polygon fill="#A80036" points="140.5,261.698,144.5,252.698,140.5,256.698,136.5,252.698,140.5,261.698" style="stroke: #A80036; stroke-width: 1.0;"/><!--link REST to s_km_container--><path d="M140.5,300.203 C140.5,315.147 140.5,336.673 140.5,354.487 " fill="none" id="REST-s_km_container" style="stroke: #A80036; stroke-width: 1.0;"/><polygon fill="#A80036" points="140.5,359.885,144.5,350.885,140.5,354.885,136.5,350.885,140.5,359.885" style="stroke: #A80036; stroke-width: 1.0;"/><!--link REST to registry_container--><path d="M175.128,294.226 C187.699,299.686 201.503,306.956 212.5,316 C228.681,329.307 242.505,348.706 251.822,363.788 " fill="none" id="REST-registry_container" style="stroke: #A80036; stroke-width: 1.0;"/><polygon fill="#A80036" points="254.567,368.318,253.3253,358.5477,251.9765,364.0414,246.4828,362.6926,254.567,368.318" style="stroke: #A80036; stroke-width: 1.0;"/><!--link socket to registry_container--><path d="M264.5,202.328 C264.5,239.225 264.5,322.407 264.5,363.138 " fill="none" id="socket-registry_container" style="stroke: #A80036; stroke-width: 1.0;"/><polygon fill="#A80036" points="264.5,368.36,268.5,359.36,264.5,363.36,260.5,359.36,264.5,368.36" style="stroke: #A80036; stroke-width: 1.0;"/><!--link s_kmimage to ailtireswarm--><path d="M122.836,550.398 C126.682,564.499 130.891,579.932 134.116,591.7594 " fill="none" id="s_kmimage-ailtireswarm" style="stroke: #A80036; stroke-width: 1.0;"/><polygon fill="none" points="115.961,551.795,117.452,530.658,129.468,548.112,115.961,551.795" style="stroke: #A80036; stroke-width: 1.0;"/><!--link s_km_container to s_kmimage--><path d="M134.355,415.273 C129.399,436.871 122.499,466.931 117.787,487.465 " fill="none" id="s_km_container-s_kmimage" style="stroke: #A80036; stroke-width: 1.0;"/><polygon fill="#A80036" points="116.638,492.469,122.5497,484.5917,117.7564,487.5957,114.7524,482.8023,116.638,492.469" style="stroke: #A80036; stroke-width: 1.0;"/><!--link registry_container to sa_km_registry--><path d="M260.516,406.502 C255.879,427.453 248.195,462.173 242.994,485.676 " fill="none" id="registry_container-sa_km_registry" style="stroke: #A80036; stroke-width: 1.0;"/><polygon fill="#A80036" points="241.859,490.805,247.7105,482.8829,242.9402,485.9233,239.8997,481.153,241.859,490.805" style="stroke: #A80036; stroke-width: 1.0;"/><!--link CLI to binName--><path d="M140.5,47.098 C140.5,69.432 140.5,132.318 140.5,163.705 " fill="none" id="CLI-binName" style="stroke: #A80036; stroke-width: 1.0;"/><text fill="#000000" font-family="sans-serif" font-size="13" lengthAdjust="spacingAndGlyphs" textLength="65" x="58.6813" y="45.2141">sabr sa km</text><!--link Web to REST--><path d="M29.875,281 C55.2266,281 80.5781,281 105.9297,281 " fill="none" id="Web-REST" style="stroke: #A80036; stroke-width: 1.0;"/><text fill="#000000" font-family="sans-serif" font-size="13" lengthAdjust="spacingAndGlyphs" textLength="69" x="37.5164" y="276.8549">/sabr/sa/km</text><!--link WebSocket to socket--><path d="M264.5,47.098 C264.5,69.432 264.5,132.318 264.5,163.705 " fill="none" id="WebSocket-socket" style="stroke: #A80036; stroke-width: 1.0;"/><text fill="#000000" font-family="sans-serif" font-size="13" lengthAdjust="spacingAndGlyphs" textLength="69" x="178.6813" y="45.2141">.sabr.sa.km</text><!--
@startuml
  interface CLI
  interface Web
  interface WebSocket
package "Key Manager" #lightblue {
  component express as REST
  component socket.io as socket
  folder bin #ffffff {
    component " sabr sa km" as binName
  }
  binName - -> REST

  folder deploy #ffffff {
      file "node server.js\n" as s_km_container
      REST - -> s_km_container

  
    file "registry" as registry_container
    REST - -> registry_container
    socket - - -> registry_container
  
  }
  folder images #ffffff {
    collections "s_km" as s_kmimage
    artifact "ailtire:swarm" as ailtireswarm
    s_kmimage <|- - ailtireswarm
    s_km_container - -> s_kmimage

  
      artifact "sa_km_registry" as sa_km_registry
      registry_container - -> sa_km_registry
    
  }
}
CLI " sabr sa km" - - binName
Web "/sabr/sa/km" - REST
WebSocket ".sabr.sa.km" - - socket

@enduml

PlantUML version 1.2019.05(Sat Apr 20 09:45:36 PDT 2019)
(GPL source distribution)
Java Runtime: Java(TM) SE Runtime Environment
JVM: Java HotSpot(TM) Client VM
Java Version: 1.8.0_271-b09
Operating System: Windows 10
OS Version: 10.0
Default Encoding: Cp1252
Language: en
Country: US
--></g></svg>