<?xml version="1.0" encoding="UTF-8" standalone="no"?><svg xmlns="http://www.w3.org/2000/svg" xmlns:xlink="http://www.w3.org/1999/xlink" contentScriptType="application/ecmascript" contentStyleType="text/css" height="312px" preserveAspectRatio="none" style="width:139px;height:312px;" version="1.1" viewBox="0 0 139 312" width="139px" zoomAndPan="magnify"><defs><filter height="300%" id="f11ahaqu5z6kzj" width="300%" x="-1" y="-1"><feGaussianBlur result="blurOut" stdDeviation="2.0"/><feColorMatrix in="blurOut" result="blurOut2" type="matrix" values="0 0 0 0 0 0 0 0 0 0 0 0 0 0 0 0 0 0 .4 0"/><feOffset dx="4.0" dy="4.0" in="blurOut2" result="blurOut3"/><feBlend in="SourceGraphic" in2="blurOut3" mode="normal"/></filter></defs><g><!--entity ModelName--><rect fill="#ADD8E6" filter="url(#f11ahaqu5z6kzj)" height="37.6094" style="stroke: #000000; stroke-width: 1.5;" width="94" x="20" y="264"/><text fill="#000000" font-family="sans-serif" font-size="14" lengthAdjust="spacingAndGlyphs" textLength="74" x="30" y="288.5332">ModelName</text><!--entity WorkingEnclave--><rect fill="#90EE90" filter="url(#f11ahaqu5z6kzj)" height="37.6094" style="stroke: #000000; stroke-width: 1.5;" width="122" x="6" y="8"/><text fill="#000000" font-family="sans-serif" font-size="14" lengthAdjust="spacingAndGlyphs" textLength="102" x="16" y="32.5332">WorkingEnclave</text><!--class Model--><rect fill="#FEFECE" filter="url(#f11ahaqu5z6kzj)" height="61.8359" id="Model" style="stroke: #A80036; stroke-width: 1.5;" width="64" x="35" y="124"/><ellipse cx="53.6" cy="140" fill="#ADD1B2" rx="11" ry="11" style="stroke: #A80036; stroke-width: 1.0;"/><path d="M56.3656,135.875 Q56.5219,135.6563 56.7094,135.5469 Q56.8969,135.4375 57.1156,135.4375 Q57.4906,135.4375 57.725,135.6953 Q57.9594,135.9531 57.9594,136.5625 L57.9594,138.0156 Q57.9594,138.625 57.725,138.8906 Q57.4906,139.1563 57.1156,139.1563 Q56.7719,139.1563 56.5688,138.9531 Q56.3656,138.7656 56.2563,138.25 Q56.2094,137.8906 56.0219,137.7031 Q55.6938,137.3281 55.0844,137.1094 Q54.475,136.8906 53.85,136.8906 Q53.0844,136.8906 52.4516,137.2188 Q51.8188,137.5469 51.3266,138.2969 Q50.8344,139.0469 50.8344,140.0781 L50.8344,141.1719 Q50.8344,142.4063 51.725,143.2266 Q52.6156,144.0469 54.2094,144.0469 Q55.1469,144.0469 55.8031,143.7969 Q56.1938,143.6406 56.6156,143.2031 Q56.8813,142.9375 57.0297,142.8594 Q57.1781,142.7813 57.3813,142.7813 Q57.7094,142.7813 57.9672,143.0391 Q58.225,143.2969 58.225,143.6406 Q58.225,143.9844 57.8813,144.3906 Q57.3813,144.9688 56.5844,145.2969 Q55.5063,145.75 54.2094,145.75 Q52.6938,145.75 51.4906,145.125 Q50.5063,144.625 49.8188,143.5547 Q49.1313,142.4844 49.1313,141.2031 L49.1313,140.0469 Q49.1313,138.7188 49.7484,137.5703 Q50.3656,136.4219 51.4594,135.8047 Q52.5531,135.1875 53.7875,135.1875 Q54.5219,135.1875 55.1703,135.3516 Q55.8188,135.5156 56.3656,135.875 Z "/><text fill="#000000" font-family="sans-serif" font-size="12" lengthAdjust="spacingAndGlyphs" textLength="24" x="68.4" y="144.9102">JWT</text><line style="stroke: #A80036; stroke-width: 1.5;" x1="36" x2="98" y1="156" y2="156"/><text fill="#000000" font-family="sans-serif" font-size="11" lengthAdjust="spacingAndGlyphs" textLength="52" x="41" y="171.4189">string attr1</text><line style="stroke: #A80036; stroke-width: 1.5;" x1="36" x2="98" y1="177.8359" y2="177.8359"/><!--link Model to ModelName--><path d="M67,199.325 C67,216.1922 67,235.1503 67,250.6534 " fill="none" id="Model-ModelName" style="stroke: #A80036; stroke-width: 1.0;"/><polygon fill="#A80036" points="67,263.7606,71,254.7606,67,258.7606,63,254.7606,67,263.7606" style="stroke: #A80036; stroke-width: 1.0;"/><line style="stroke: #A80036; stroke-width: 1.0;" x1="67" x2="67.0001" y1="258.7606" y2="250.7606"/><polygon fill="#FFFFFF" points="67,186.18,63,192.18,67,198.18,71,192.18,67,186.18" style="stroke: #A80036; stroke-width: 1.0;"/><text fill="#000000" font-family="sans-serif" font-size="13" lengthAdjust="spacingAndGlyphs" textLength="42" x="68" y="230.4951">assoc1</text><text fill="#000000" font-family="sans-serif" font-size="13" lengthAdjust="spacingAndGlyphs" textLength="7" x="58.9281" y="253.0273">1</text><!--link WorkingEnclave to Model--><path d="M67,59.254 C67,74.813 67,93.869 67,110.801 " fill="none" id="WorkingEnclave-Model" style="stroke: #A80036; stroke-width: 1.0;"/><polygon fill="#A80036" points="67,123.817,71,114.817,67,118.817,63,114.817,67,123.817" style="stroke: #A80036; stroke-width: 1.0;"/><line style="stroke: #A80036; stroke-width: 1.0;" x1="67" x2="67.0001" y1="118.817" y2="110.817"/><polygon fill="#FFFFFF" points="67,46.053,63,52.053,67,58.053,71,52.053,67,46.053" style="stroke: #A80036; stroke-width: 1.0;"/><text fill="#000000" font-family="sans-serif" font-size="13" lengthAdjust="spacingAndGlyphs" textLength="32" x="68" y="90.4951">token</text><text fill="#000000" font-family="sans-serif" font-size="13" lengthAdjust="spacingAndGlyphs" textLength="7" x="59.2781" y="113.2838">1</text><!--
@startuml

class "JWT" as Model {
 string attr1

 
}

rectangle "ModelName" as ModelName #lightblue {
}

Model o- -> "1" ModelName : assoc1




    rectangle "WorkingEnclave" as WorkingEnclave #lightgreen {
    }
    
        WorkingEnclave   o- -> "1" Model : "token"
    

@enduml

PlantUML version 1.2019.05(Sat Apr 20 09:45:36 PDT 2019)
(GPL source distribution)
Java Runtime: Java(TM) SE Runtime Environment
JVM: Java HotSpot(TM) Client VM
Java Version: 1.8.0_271-b09
Operating System: Windows 10
OS Version: 10.0
Default Encoding: Cp1252
Language: en
Country: US
--></g></svg>