<?xml version="1.0" encoding="us-ascii" standalone="no"?><svg xmlns="http://www.w3.org/2000/svg" xmlns:xlink="http://www.w3.org/1999/xlink" contentStyleType="text/css" height="310px" preserveAspectRatio="none" style="width:135px;height:310px;background:#FFFFFF;" version="1.1" viewBox="0 0 135 310" width="135px" zoomAndPan="magnify"><defs/><g><!--entity ModelName--><g id="elem_ModelName"><rect fill="#ADD8E6" height="37.6094" rx="2.5" ry="2.5" style="stroke:#181818;stroke-width:0.5;" width="94" x="21" y="267"/><text fill="#000000" font-family="sans-serif" font-size="14" lengthAdjust="spacing" textLength="74" x="31" y="291.5332">ModelName</text></g><!--entity WorkingEnclave--><g id="elem_WorkingEnclave"><rect fill="#90EE90" height="37.6094" rx="2.5" ry="2.5" style="stroke:#181818;stroke-width:0.5;" width="122" x="7" y="7"/><text fill="#000000" font-family="sans-serif" font-size="14" lengthAdjust="spacing" textLength="102" x="17" y="31.5332">WorkingEnclave</text></g><!--class Model--><g id="elem_Model"><rect codeLine="2" fill="#F1F1F1" height="65.6094" id="Model" rx="2.5" ry="2.5" style="stroke:#181818;stroke-width:0.5;" width="80" x="28" y="123"/><ellipse cx="52" cy="139" fill="#ADD1B2" rx="11" ry="11" style="stroke:#181818;stroke-width:1.0;"/><path d="M54.7656,134.875 Q54.9219,134.6563 55.1094,134.5469 Q55.2969,134.4375 55.5156,134.4375 Q55.8906,134.4375 56.125,134.6953 Q56.3594,134.9531 56.3594,135.5625 L56.3594,137.0156 Q56.3594,137.625 56.125,137.8906 Q55.8906,138.1563 55.5156,138.1563 Q55.1719,138.1563 54.9688,137.9531 Q54.7656,137.7656 54.6563,137.25 Q54.6094,136.8906 54.4219,136.7031 Q54.0938,136.3281 53.4844,136.1094 Q52.875,135.8906 52.25,135.8906 Q51.4844,135.8906 50.8516,136.2188 Q50.2188,136.5469 49.7266,137.2969 Q49.2344,138.0469 49.2344,139.0781 L49.2344,140.1719 Q49.2344,141.4063 50.125,142.2266 Q51.0156,143.0469 52.6094,143.0469 Q53.5469,143.0469 54.2031,142.7969 Q54.5938,142.6406 55.0156,142.2031 Q55.2813,141.9375 55.4297,141.8594 Q55.5781,141.7813 55.7813,141.7813 Q56.1094,141.7813 56.3672,142.0391 Q56.625,142.2969 56.625,142.6406 Q56.625,142.9844 56.2813,143.3906 Q55.7813,143.9688 54.9844,144.2969 Q53.9063,144.75 52.6094,144.75 Q51.0938,144.75 49.8906,144.125 Q48.9063,143.625 48.2188,142.5547 Q47.5313,141.4844 47.5313,140.2031 L47.5313,139.0469 Q47.5313,137.7188 48.1484,136.5703 Q48.7656,135.4219 49.8594,134.8047 Q50.9531,134.1875 52.1875,134.1875 Q52.9219,134.1875 53.5703,134.3516 Q54.2188,134.5156 54.7656,134.875 Z " fill="#000000"/><text fill="#000000" font-family="sans-serif" font-size="14" lengthAdjust="spacing" textLength="28" x="68" y="144.7285">JWT</text><line style="stroke:#181818;stroke-width:0.5;" x1="29" x2="107" y1="155" y2="155"/><text fill="#000000" font-family="sans-serif" font-size="14" lengthAdjust="spacing" textLength="68" x="34" y="173.5332">string attr1</text><line style="stroke:#181818;stroke-width:0.5;" x1="29" x2="107" y1="180.6094" y2="180.6094"/></g><!--link Model to ModelName--><g id="link_Model_ModelName"><path codeLine="11" d="M68,201.3 C68,225.89 68,240.83 68,260.95 " fill="none" id="Model-ModelName" style="stroke:#181818;stroke-width:1.0;"/><polygon fill="none" points="68,189.3,64,195.3,68,201.3,72,195.3,68,189.3" style="stroke:#181818;stroke-width:1.0;"/><polygon fill="#181818" points="68,266.95,72,257.95,68,261.95,64,257.95,68,266.95" style="stroke:#181818;stroke-width:1.0;"/><text fill="#000000" font-family="sans-serif" font-size="13" lengthAdjust="spacing" textLength="42" x="69" y="233.4951">assoc1</text><text fill="#000000" font-family="sans-serif" font-size="13" lengthAdjust="spacing" textLength="7" x="59.9281" y="256.2747">1</text></g><!--link WorkingEnclave to Model--><g id="link_WorkingEnclave_Model"><path codeLine="19" d="M68,57.07 C68,77.26 68,92.34 68,116.95 " fill="none" id="WorkingEnclave-Model" style="stroke:#181818;stroke-width:1.0;"/><polygon fill="none" points="68,45.07,64,51.07,68,57.07,72,51.07,68,45.07" style="stroke:#181818;stroke-width:1.0;"/><polygon fill="#181818" points="68,122.95,72,113.95,68,117.95,64,113.95,68,122.95" style="stroke:#181818;stroke-width:1.0;"/><text fill="#000000" font-family="sans-serif" font-size="13" lengthAdjust="spacing" textLength="32" x="69" y="89.4951">token</text><text fill="#000000" font-family="sans-serif" font-size="13" lengthAdjust="spacing" textLength="7" x="60.2781" y="112.0551">1</text></g><!--SRC=[NKuz2y8m4DtlLnpdtA6hWvkBe9FGESOZbiO4ahEBzBzxIGHht_3WZlTblSaPwJHS2Kt6SxopnpTWbZG6XqOazG082q1YAoOupqXLTZ5F_fdAXJi_keVS_8irGoqjBdRT0QcdbN2llXojHYjGiGeVOfgq-nYiDtDh-7zzQrnY3cMhOgbSgM2Znyq4hIU94mTgjWy0]--></g></svg>