<?xml version="1.0" encoding="UTF-8" standalone="no"?><svg xmlns="http://www.w3.org/2000/svg" xmlns:xlink="http://www.w3.org/1999/xlink" contentScriptType="application/ecmascript" contentStyleType="text/css" height="265px" preserveAspectRatio="none" style="width:875px;height:265px;" version="1.1" viewBox="0 0 875 265" width="875px" zoomAndPan="magnify"><defs><filter height="300%" id="fg4tp5g0k181h" width="300%" x="-1" y="-1"><feGaussianBlur result="blurOut" stdDeviation="2.0"/><feColorMatrix in="blurOut" result="blurOut2" type="matrix" values="0 0 0 0 0 0 0 0 0 0 0 0 0 0 0 0 0 0 .4 0"/><feOffset dx="4.0" dy="4.0" in="blurOut2" result="blurOut3"/><feBlend in="SourceGraphic" in2="blurOut3" mode="normal"/></filter></defs><g><!--entity DataStream--><rect fill="#ADD8E6" filter="url(#fg4tp5g0k181h)" height="37.6094" style="stroke: #000000; stroke-width: 1.5;" width="95" x="572.606" y="217"/><text fill="#000000" font-family="sans-serif" font-size="14" lengthAdjust="spacingAndGlyphs" textLength="75" x="582.606" y="241.5332">DataStream</text><!--entity SABundleInstance--><rect fill="#90EE90" filter="url(#fg4tp5g0k181h)" height="37.6094" style="stroke: #000000; stroke-width: 1.5;" width="135" x="65.6062" y="217"/><text fill="#000000" font-family="sans-serif" font-size="14" lengthAdjust="spacingAndGlyphs" textLength="115" x="75.6062" y="241.5332">SABundleInstance</text><!--entity DataChannelInstance--><rect fill="#ADD8E6" filter="url(#fg4tp5g0k181h)" height="37.6094" style="stroke: #000000; stroke-width: 1.5;" width="156" x="708.106" y="217"/><text fill="#000000" font-family="sans-serif" font-size="14" lengthAdjust="spacingAndGlyphs" textLength="136" x="718.106" y="241.5332">DataChannelInstance</text><!--entity DataTransformInstance--><rect fill="#90EE90" filter="url(#fg4tp5g0k181h)" height="37.6094" style="stroke: #000000; stroke-width: 1.5;" width="168" x="362.106" y="217"/><text fill="#000000" font-family="sans-serif" font-size="14" lengthAdjust="spacingAndGlyphs" textLength="148" x="372.106" y="241.5332">DataTransformInstance</text><!--class Model--><rect fill="#FEFECE" filter="url(#fg4tp5g0k181h)" height="131.0156" id="Model" style="stroke: #A80036; stroke-width: 1.5;" width="146" x="367.106" y="8"/><ellipse cx="382.106" cy="24" fill="#ADD1B2" rx="11" ry="11" style="stroke: #A80036; stroke-width: 1.0;"/><path d="M384.8716,19.875 Q385.0279,19.6563 385.2154,19.5469 Q385.4029,19.4375 385.6216,19.4375 Q385.9966,19.4375 386.231,19.6953 Q386.4654,19.9531 386.4654,20.5625 L386.4654,22.0156 Q386.4654,22.625 386.231,22.8906 Q385.9966,23.1563 385.6216,23.1563 Q385.2779,23.1563 385.0748,22.9531 Q384.8716,22.7656 384.7623,22.25 Q384.7154,21.8906 384.5279,21.7031 Q384.1998,21.3281 383.5904,21.1094 Q382.981,20.8906 382.356,20.8906 Q381.5904,20.8906 380.9576,21.2188 Q380.3248,21.5469 379.8326,22.2969 Q379.3404,23.0469 379.3404,24.0781 L379.3404,25.1719 Q379.3404,26.4063 380.231,27.2266 Q381.1216,28.0469 382.7154,28.0469 Q383.6529,28.0469 384.3091,27.7969 Q384.6998,27.6406 385.1216,27.2031 Q385.3873,26.9375 385.5357,26.8594 Q385.6841,26.7813 385.8873,26.7813 Q386.2154,26.7813 386.4732,27.0391 Q386.731,27.2969 386.731,27.6406 Q386.731,27.9844 386.3873,28.3906 Q385.8873,28.9688 385.0904,29.2969 Q384.0123,29.75 382.7154,29.75 Q381.1998,29.75 379.9966,29.125 Q379.0123,28.625 378.3248,27.5547 Q377.6373,26.4844 377.6373,25.2031 L377.6373,24.0469 Q377.6373,22.7188 378.2544,21.5703 Q378.8716,20.4219 379.9654,19.8047 Q381.0591,19.1875 382.2935,19.1875 Q383.0279,19.1875 383.6763,19.3516 Q384.3248,19.5156 384.8716,19.875 Z "/><text fill="#000000" font-family="sans-serif" font-size="12" lengthAdjust="spacingAndGlyphs" textLength="114" x="396.106" y="28.9102">InputStreamInstance</text><line style="stroke: #A80036; stroke-width: 1.5;" x1="368.106" x2="512.106" y1="40" y2="40"/><text fill="#000000" font-family="sans-serif" font-size="11" lengthAdjust="spacingAndGlyphs" textLength="65" x="373.106" y="55.4189">ref consumer</text><text fill="#000000" font-family="sans-serif" font-size="11" lengthAdjust="spacingAndGlyphs" textLength="56" x="373.106" y="69.2549">string name</text><text fill="#000000" font-family="sans-serif" font-size="11" lengthAdjust="spacingAndGlyphs" textLength="71" x="373.106" y="83.0908">string direction</text><line style="stroke: #A80036; stroke-width: 1.5;" x1="368.106" x2="512.106" y1="89.5078" y2="89.5078"/><text fill="#000000" font-family="sans-serif" font-size="11" lengthAdjust="spacingAndGlyphs" textLength="40" x="373.106" y="104.9268">deploy()</text><text fill="#000000" font-family="sans-serif" font-size="11" lengthAdjust="spacingAndGlyphs" textLength="48" x="373.106" y="118.7627">process()</text><text fill="#000000" font-family="sans-serif" font-size="11" lengthAdjust="spacingAndGlyphs" textLength="52" x="373.106" y="132.5986">provision()</text><!--link Model to DataStream--><path d="M523.471,143.73 C533.211,152.145 542.937,160.7002 552.106,169 C565.637,181.2481 580.211,195.275 592.382,207.239 " fill="none" id="Model-DataStream" style="stroke: #A80036; stroke-width: 1.0;"/><polygon fill="#A80036" points="601.966,216.7192,598.3809,207.546,598.4115,213.2028,592.7547,213.2333,601.966,216.7192" style="stroke: #A80036; stroke-width: 1.0;"/><line style="stroke: #A80036; stroke-width: 1.0;" x1="598.4115" x2="592.724" y1="213.2028" y2="207.5767"/><polygon fill="#FFFFFF" points="513.339,135.029,515.2854,141.9724,522.4434,142.8463,520.497,135.9029,513.339,135.029" style="stroke: #A80036; stroke-width: 1.0;"/><text fill="#000000" font-family="sans-serif" font-size="13" lengthAdjust="spacingAndGlyphs" textLength="36" x="573.106" y="183.4951">parent</text><text fill="#000000" font-family="sans-serif" font-size="13" lengthAdjust="spacingAndGlyphs" textLength="7" x="588.6093" y="206.3096">1</text><!--link Model to SABundleInstance--><path d="M354.103,81.031 C241.699,91.56 54.1646,116.642 12.1062,169 C-6.0319,191.5798 20.0299,207.5617 52.5506,218.1373 " fill="none" id="Model-SABundleInstance" style="stroke: #A80036; stroke-width: 1.0;"/><polygon fill="#A80036" points="65.2521,221.9283,57.772,215.5214,60.461,220.4983,55.484,223.1872,65.2521,221.9283" style="stroke: #A80036; stroke-width: 1.0;"/><line style="stroke: #A80036; stroke-width: 1.0;" x1="60.461" x2="52.7951" y1="220.4983" y2="218.2103"/><polygon fill="#FFFFFF" points="367.088,79.848,360.7501,76.4085,355.1374,80.936,361.4754,84.3755,367.088,79.848" style="stroke: #A80036; stroke-width: 1.0;"/><text fill="#000000" font-family="sans-serif" font-size="13" lengthAdjust="spacingAndGlyphs" textLength="38" x="13.1062" y="183.4951">bundle</text><text fill="#000000" font-family="sans-serif" font-size="13" lengthAdjust="spacingAndGlyphs" textLength="7" x="50.4477" y="217.0499">1</text><!--link SABundleInstance to Model--><path d="M99.9929,207.1455 C89.5961,195.0634 82.9522,180.9712 92.1062,169 C123.763,127.601 261.434,100.08 353.836,85.896 " fill="none" id="SABundleInstance-Model" style="stroke: #A80036; stroke-width: 1.0;"/><polygon fill="#A80036" points="366.84,83.942,357.3453,81.3247,361.8956,84.6855,358.5348,89.2358,366.84,83.942" style="stroke: #A80036; stroke-width: 1.0;"/><line style="stroke: #A80036; stroke-width: 1.0;" x1="361.8956" x2="353.9845" y1="84.6855" y2="85.874"/><polygon fill="#FFFFFF" points="109.344,216.7309,108.0173,209.6429,100.9642,208.1414,102.2909,215.2294,109.344,216.7309" style="stroke: #A80036; stroke-width: 1.0;"/><text fill="#000000" font-family="sans-serif" font-size="13" lengthAdjust="spacingAndGlyphs" textLength="35" x="93.1062" y="183.4951">inputs</text><text fill="#000000" font-family="sans-serif" font-size="13" lengthAdjust="spacingAndGlyphs" textLength="7" x="351.9235" y="81.7063">n</text><!--link SABundleInstance to Model--><path d="M143.986,204.5948 C149.774,192.1055 158.025,178.3996 169.106,169 C221.654,124.426 296.511,100.433 354.24,87.793 " fill="none" id="SABundleInstance-Model-1" style="stroke: #A80036; stroke-width: 1.0;"/><polygon fill="#A80036" points="367.027,85.116,357.3983,83.0454,362.1331,86.1407,359.0378,90.8756,367.027,85.116" style="stroke: #A80036; stroke-width: 1.0;"/><line style="stroke: #A80036; stroke-width: 1.0;" x1="362.1331" x2="354.3035" y1="86.1407" y2="87.7795"/><polygon fill="#FFFFFF" points="138.832,216.938,144.8352,212.9428,143.4563,205.8648,137.4531,209.86,138.832,216.938" style="stroke: #A80036; stroke-width: 1.0;"/><text fill="#000000" font-family="sans-serif" font-size="13" lengthAdjust="spacingAndGlyphs" textLength="97" x="170.106" y="183.4951">learningInStream</text><text fill="#000000" font-family="sans-serif" font-size="13" lengthAdjust="spacingAndGlyphs" textLength="7" x="352.1298" y="100.6513">1</text><!--link SABundleInstance to Model--><path d="M208.89,212.7754 C229.819,205.586 252.228,196.8802 272.106,187 C300.573,172.8507 329.924,154.633 355.97,136.997 " fill="none" id="SABundleInstance-Model-2" style="stroke: #A80036; stroke-width: 1.0;"/><polygon fill="#A80036" points="366.918,129.488,357.2336,131.2801,362.7947,132.3162,361.7586,137.8773,366.918,129.488" style="stroke: #A80036; stroke-width: 1.0;"/><line style="stroke: #A80036; stroke-width: 1.0;" x1="362.7947" x2="356.1975" y1="132.3162" y2="136.841"/><polygon fill="#FFFFFF" points="196.43,216.9414,203.3886,218.8328,207.811,213.137,200.8523,211.2455,196.43,216.9414" style="stroke: #A80036; stroke-width: 1.0;"/><text fill="#000000" font-family="sans-serif" font-size="13" lengthAdjust="spacingAndGlyphs" textLength="87" x="303.106" y="183.4951">adminInStream</text><text fill="#000000" font-family="sans-serif" font-size="13" lengthAdjust="spacingAndGlyphs" textLength="7" x="352.0096" y="131.9492">1</text><!--link Model to DataChannelInstance--><path d="M525.495,114.109 C591.338,144.652 680.185,185.8662 735.276,211.4213 " fill="none" id="Model-DataChannelInstance" style="stroke: #A80036; stroke-width: 1.0;"/><polygon fill="#A80036" points="747.172,216.9394,740.6914,209.5231,742.6364,214.8351,737.3244,216.7801,747.172,216.9394" style="stroke: #A80036; stroke-width: 1.0;"/><line style="stroke: #A80036; stroke-width: 1.0;" x1="742.6364" x2="735.379" y1="214.8351" y2="211.469"/><polygon fill="#A80036" points="513.484,108.538,517.2433,114.6917,524.3695,113.5884,520.6102,107.4347,513.484,108.538" style="stroke: #A80036; stroke-width: 1.0;"/><text fill="#000000" font-family="sans-serif" font-size="13" lengthAdjust="spacingAndGlyphs" textLength="52" x="676.106" y="183.4951">channels</text><text fill="#000000" font-family="sans-serif" font-size="13" lengthAdjust="spacingAndGlyphs" textLength="7" x="727.1766" y="206.2609">n</text><!--link Model to DataChannelInstance--><path d="M526.336,87.304 C589.312,99.951 674.309,124.158 737.106,169 C750.444,178.5242 761.676,192.7856 770.008,205.6172 " fill="none" id="Model-DataChannelInstance-1" style="stroke: #A80036; stroke-width: 1.0;"/><polygon fill="#A80036" points="776.821,216.8224,775.5633,207.0542,774.2235,212.5501,768.7276,211.2102,776.821,216.8224" style="stroke: #A80036; stroke-width: 1.0;"/><line style="stroke: #A80036; stroke-width: 1.0;" x1="774.2235" x2="770.067" y1="212.5501" y2="205.7145"/><polygon fill="#FFFFFF" points="513.247,84.777,518.38,89.8418,525.0294,87.0517,519.8965,81.9869,513.247,84.777" style="stroke: #A80036; stroke-width: 1.0;"/><text fill="#000000" font-family="sans-serif" font-size="13" lengthAdjust="spacingAndGlyphs" textLength="44" x="757.106" y="183.4951">policies</text><text fill="#000000" font-family="sans-serif" font-size="13" lengthAdjust="spacingAndGlyphs" textLength="7" x="765.9056" y="206.108">n</text><!--link Model to DataTransformInstance--><path d="M435.617,152.188 C435.641,163.8692 436.062,175.7628 437.106,187 C437.613,192.4478 438.435,198.1992 439.383,203.7548 " fill="none" id="Model-DataTransformInstance" style="stroke: #A80036; stroke-width: 1.0;"/><polygon fill="#A80036" points="441.887,216.8775,444.1293,207.2873,440.9499,211.9661,436.2711,208.7867,441.887,216.8775" style="stroke: #A80036; stroke-width: 1.0;"/><line style="stroke: #A80036; stroke-width: 1.0;" x1="440.9499" x2="439.4505" y1="211.9661" y2="204.1079"/><polygon fill="#FFFFFF" points="435.745,139.135,431.6865,145.0956,435.6276,151.1344,439.6861,145.1738,435.745,139.135" style="stroke: #A80036; stroke-width: 1.0;"/><text fill="#000000" font-family="sans-serif" font-size="13" lengthAdjust="spacingAndGlyphs" textLength="61" x="438.106" y="183.4951">transforms</text><text fill="#000000" font-family="sans-serif" font-size="13" lengthAdjust="spacingAndGlyphs" textLength="7" x="432.5231" y="206.18">n</text><!--link DataTransformInstance to Model--><path d="M487.728,208.5175 C494.365,202.3108 500.293,195.1052 504.106,187 C507.512,179.7611 506.452,176.6482 504.106,169 C502.243,162.9263 499.843,156.8916 497.069,150.981 " fill="none" id="DataTransformInstance-Model" style="stroke: #A80036; stroke-width: 1.0;"/><polygon fill="#A80036" points="490.903,139.052,491.4817,148.8838,493.1986,143.4938,498.5886,145.2108,490.903,139.052" style="stroke: #A80036; stroke-width: 1.0;"/><line style="stroke: #A80036; stroke-width: 1.0;" x1="493.1986" x2="496.872" y1="143.4938" y2="150.601"/><polygon fill="#FFFFFF" points="477.659,216.8847,484.83,216.1257,486.8875,209.2144,479.7165,209.9734,477.659,216.8847" style="stroke: #A80036; stroke-width: 1.0;"/><text fill="#000000" font-family="sans-serif" font-size="13" lengthAdjust="spacingAndGlyphs" textLength="35" x="508.106" y="183.4951">inputs</text><text fill="#000000" font-family="sans-serif" font-size="13" lengthAdjust="spacingAndGlyphs" textLength="7" x="489.0761" y="160.6102">n</text><!--
@startuml

class "InputStreamInstance" as Model {
 ref consumer
 string name
 string direction

 deploy()
 process()
 provision()
 
}

rectangle "DataStream" as DataStream #lightblue {
}

Model o- -> "1" DataStream : parent


rectangle "SABundleInstance" as SABundleInstance #lightblue {
}

Model o- -> "1" SABundleInstance : bundle


rectangle "DataChannelInstance" as DataChannelInstance #lightblue {
}

Model *- -> "n" DataChannelInstance : channels


rectangle "DataChannelInstance" as DataChannelInstance #lightblue {
}

Model o- -> "n" DataChannelInstance : policies


rectangle "DataTransformInstance" as DataTransformInstance #lightblue {
}

Model o- -> "n" DataTransformInstance : transforms




    rectangle "DataTransformInstance" as DataTransformInstance #lightgreen {
    }
    
        DataTransformInstance   o- -> "n" Model : "inputs"
    
    rectangle "SABundleInstance" as SABundleInstance #lightgreen {
    }
    
        SABundleInstance   o- -> "n" Model : "inputs"
    
    rectangle "SABundleInstance" as SABundleInstance #lightgreen {
    }
    
        SABundleInstance   o- -> "1" Model : "learningInStream"
    
    rectangle "SABundleInstance" as SABundleInstance #lightgreen {
    }
    
        SABundleInstance   o- -> "1" Model : "adminInStream"
    

@enduml

PlantUML version 1.2019.05(Sat Apr 20 09:45:36 PDT 2019)
(GPL source distribution)
Java Runtime: Java(TM) SE Runtime Environment
JVM: Java HotSpot(TM) Client VM
Java Version: 1.8.0_271-b09
Operating System: Windows 10
OS Version: 10.0
Default Encoding: Cp1252
Language: en
Country: US
--></g></svg>