<?xml version="1.0" encoding="us-ascii" standalone="no"?><svg xmlns="http://www.w3.org/2000/svg" xmlns:xlink="http://www.w3.org/1999/xlink" contentStyleType="text/css" height="282px" preserveAspectRatio="none" style="width:884px;height:282px;background:#FFFFFF;" version="1.1" viewBox="0 0 884 282" width="884px" zoomAndPan="magnify"><defs/><g><!--entity DataStream--><g id="elem_DataStream"><rect fill="#ADD8E6" height="37.6094" rx="2.5" ry="2.5" style="stroke:#181818;stroke-width:0.5;" width="95" x="586.83" y="239"/><text fill="#000000" font-family="sans-serif" font-size="14" lengthAdjust="spacing" textLength="75" x="596.83" y="263.5332">DataStream</text></g><!--entity SABundleInstance--><g id="elem_SABundleInstance"><rect fill="#90EE90" height="37.6094" rx="2.5" ry="2.5" style="stroke:#181818;stroke-width:0.5;" width="135" x="80.83" y="239"/><text fill="#000000" font-family="sans-serif" font-size="14" lengthAdjust="spacing" textLength="115" x="90.83" y="263.5332">SABundleInstance</text></g><!--entity DataChannelInstance--><g id="elem_DataChannelInstance"><rect fill="#ADD8E6" height="37.6094" rx="2.5" ry="2.5" style="stroke:#181818;stroke-width:0.5;" width="156" x="722.33" y="239"/><text fill="#000000" font-family="sans-serif" font-size="14" lengthAdjust="spacing" textLength="136" x="732.33" y="263.5332">DataChannelInstance</text></g><!--entity DataTransformInstance--><g id="elem_DataTransformInstance"><rect fill="#90EE90" height="37.6094" rx="2.5" ry="2.5" style="stroke:#181818;stroke-width:0.5;" width="168" x="376.33" y="239"/><text fill="#000000" font-family="sans-serif" font-size="14" lengthAdjust="spacing" textLength="148" x="386.33" y="263.5332">DataTransformInstance</text></g><!--class Model--><g id="elem_Model"><rect codeLine="2" fill="#F1F1F1" height="153.6563" id="Model" rx="2.5" ry="2.5" style="stroke:#181818;stroke-width:0.5;" width="161" x="373.83" y="7"/><ellipse cx="388.83" cy="23" fill="#ADD1B2" rx="11" ry="11" style="stroke:#181818;stroke-width:1.0;"/><path d="M391.5956,18.875 Q391.7519,18.6563 391.9394,18.5469 Q392.1269,18.4375 392.3456,18.4375 Q392.7206,18.4375 392.955,18.6953 Q393.1894,18.9531 393.1894,19.5625 L393.1894,21.0156 Q393.1894,21.625 392.955,21.8906 Q392.7206,22.1563 392.3456,22.1563 Q392.0019,22.1563 391.7988,21.9531 Q391.5956,21.7656 391.4863,21.25 Q391.4394,20.8906 391.2519,20.7031 Q390.9238,20.3281 390.3144,20.1094 Q389.705,19.8906 389.08,19.8906 Q388.3144,19.8906 387.6816,20.2188 Q387.0488,20.5469 386.5566,21.2969 Q386.0644,22.0469 386.0644,23.0781 L386.0644,24.1719 Q386.0644,25.4063 386.955,26.2266 Q387.8456,27.0469 389.4394,27.0469 Q390.3769,27.0469 391.0331,26.7969 Q391.4238,26.6406 391.8456,26.2031 Q392.1113,25.9375 392.2597,25.8594 Q392.4081,25.7813 392.6113,25.7813 Q392.9394,25.7813 393.1972,26.0391 Q393.455,26.2969 393.455,26.6406 Q393.455,26.9844 393.1113,27.3906 Q392.6113,27.9688 391.8144,28.2969 Q390.7363,28.75 389.4394,28.75 Q387.9238,28.75 386.7206,28.125 Q385.7363,27.625 385.0488,26.5547 Q384.3613,25.4844 384.3613,24.2031 L384.3613,23.0469 Q384.3613,21.7188 384.9784,20.5703 Q385.5956,19.4219 386.6894,18.8047 Q387.7831,18.1875 389.0175,18.1875 Q389.7519,18.1875 390.4003,18.3516 Q391.0488,18.5156 391.5956,18.875 Z " fill="#000000"/><text fill="#000000" font-family="sans-serif" font-size="14" lengthAdjust="spacing" textLength="129" x="402.83" y="28.7285">InputStreamInstance</text><line style="stroke:#181818;stroke-width:0.5;" x1="374.83" x2="533.83" y1="39" y2="39"/><text fill="#000000" font-family="sans-serif" font-size="14" lengthAdjust="spacing" textLength="83" x="379.83" y="57.5332">ref consumer</text><text fill="#000000" font-family="sans-serif" font-size="14" lengthAdjust="spacing" textLength="74" x="379.83" y="75.1426">string name</text><text fill="#000000" font-family="sans-serif" font-size="14" lengthAdjust="spacing" textLength="93" x="379.83" y="92.752">string direction</text><line style="stroke:#181818;stroke-width:0.5;" x1="374.83" x2="533.83" y1="99.8281" y2="99.8281"/><text fill="#000000" font-family="sans-serif" font-size="14" lengthAdjust="spacing" textLength="52" x="379.83" y="118.3613">deploy()</text><text fill="#000000" font-family="sans-serif" font-size="14" lengthAdjust="spacing" textLength="60" x="379.83" y="135.9707">process()</text><text fill="#000000" font-family="sans-serif" font-size="14" lengthAdjust="spacing" textLength="67" x="379.83" y="153.5801">provision()</text></g><!--link Model to DataStream--><g id="link_Model_DataStream"><path codeLine="16" d="M543.5941,169.2807 C554.1941,179.3407 556.18,181.27 566.33,191 C583.08,207.05 597.7041,221.2513 611.3341,234.5413 " fill="none" id="Model-DataStream" style="stroke:#181818;stroke-width:1.0;"/><polygon fill="none" points="534.89,161.02,536.4885,168.0517,543.5941,169.2807,541.9956,162.249,534.89,161.02" style="stroke:#181818;stroke-width:1.0;"/><polygon fill="#181818" points="615.63,238.73,611.9787,229.583,612.0501,235.2394,606.3937,235.3108,615.63,238.73" style="stroke:#181818;stroke-width:1.0;"/><text fill="#000000" font-family="sans-serif" font-size="13" lengthAdjust="spacing" textLength="36" x="584.33" y="205.4951">parent</text><text fill="#000000" font-family="sans-serif" font-size="13" lengthAdjust="spacing" textLength="7" x="601.8313" y="227.9873">1</text></g><!--link Model to SABundleInstance--><g id="link_Model_SABundleInstance"><path codeLine="22" d="M361.4743,94.7198 C249.6043,108.0498 68.61,136.97 26.33,191 C6,216.98 36.5754,232.5036 74.7754,242.7636 " fill="none" id="Model-SABundleInstance" style="stroke:#181818;stroke-width:1.0;"/><polygon fill="none" points="373.39,93.3,366.9589,90.038,361.4743,94.7198,367.9054,97.9818,373.39,93.3" style="stroke:#181818;stroke-width:1.0;"/><polygon fill="#181818" points="80.57,244.32,72.9156,238.1224,75.7411,243.023,70.8405,245.8485,80.57,244.32" style="stroke:#181818;stroke-width:1.0;"/><text fill="#000000" font-family="sans-serif" font-size="13" lengthAdjust="spacing" textLength="38" x="27.33" y="205.4951">bundle</text><text fill="#000000" font-family="sans-serif" font-size="13" lengthAdjust="spacing" textLength="7" x="65.7759" y="239.4845">1</text></g><!--link SABundleInstance to Model--><g id="link_SABundleInstance_Model"><path codeLine="53" d="M115.334,230.8685 C100.314,217.3385 94.77,206.61 106.33,191 C138.28,147.86 275.3592,116.3563 367.8092,99.3363 " fill="none" id="SABundleInstance-Model" style="stroke:#181818;stroke-width:1.0;"/><polygon fill="none" points="124.25,238.9,122.4692,231.9122,115.334,230.8685,117.1148,237.8562,124.25,238.9" style="stroke:#181818;stroke-width:1.0;"/><polygon fill="#181818" points="373.71,98.25,364.1345,95.9456,368.7926,99.1553,365.583,103.8134,373.71,98.25" style="stroke:#181818;stroke-width:1.0;"/><text fill="#000000" font-family="sans-serif" font-size="13" lengthAdjust="spacing" textLength="35" x="107.33" y="205.4951">inputs</text><text fill="#000000" font-family="sans-serif" font-size="13" lengthAdjust="spacing" textLength="7" x="358.9552" y="96.3533">n</text></g><!--link SABundleInstance to Model--><g id="link_SABundleInstance_Model"><path codeLine="58" d="M158.1495,227.5303 C163.5595,212.8503 168.9,203.86 183.33,191 C237.16,143.01 309.4047,117.0574 367.9347,102.1874 " fill="none" id="SABundleInstance-Model-1" style="stroke:#181818;stroke-width:1.0;"/><polygon fill="none" points="154,238.79,159.828,234.5433,158.1495,227.5303,152.3215,231.777,154,238.79" style="stroke:#181818;stroke-width:1.0;"/><polygon fill="#181818" points="373.75,100.71,364.0422,99.0493,368.9039,101.9412,366.0121,106.803,373.75,100.71" style="stroke:#181818;stroke-width:1.0;"/><text fill="#000000" font-family="sans-serif" font-size="13" lengthAdjust="spacing" textLength="97" x="184.33" y="205.4951">learningInStream</text><text fill="#000000" font-family="sans-serif" font-size="13" lengthAdjust="spacing" textLength="7" x="358.7361" y="116.5934">1</text></g><!--link SABundleInstance to Model--><g id="link_SABundleInstance_Model"><path codeLine="63" d="M224.6243,235.156 C248.2943,227.406 263.44,221.07 286.33,209 C316.31,193.19 342.0058,175.9978 368.6358,155.9578 " fill="none" id="SABundleInstance-Model-2" style="stroke:#181818;stroke-width:1.0;"/><polygon fill="none" points="213.22,238.89,220.1668,240.8244,224.6243,235.156,217.6775,233.2216,213.22,238.89" style="stroke:#181818;stroke-width:1.0;"/><polygon fill="#181818" points="373.43,152.35,363.8336,154.5656,369.4349,155.3565,368.6439,160.9578,373.43,152.35" style="stroke:#181818;stroke-width:1.0;"/><text fill="#000000" font-family="sans-serif" font-size="13" lengthAdjust="spacing" textLength="87" x="317.33" y="205.4951">adminInStream</text><text fill="#000000" font-family="sans-serif" font-size="13" lengthAdjust="spacing" textLength="7" x="358.9131" y="155.251">1</text></g><!--link Model to DataChannelInstance--><g id="link_Model_DataChannelInstance"><path codeLine="28" d="M545.7559,130.451 C618.0459,166.381 704.6273,209.4291 758.5973,236.2591 " fill="none" id="Model-DataChannelInstance" style="stroke:#181818;stroke-width:1.0;"/><polygon fill="#181818" points="535.01,125.11,538.6026,131.3624,545.7559,130.451,542.1633,124.1985,535.01,125.11" style="stroke:#181818;stroke-width:1.0;"/><polygon fill="#181818" points="763.97,238.93,757.6915,231.3418,759.4927,236.7042,754.1303,238.5054,763.97,238.93" style="stroke:#181818;stroke-width:1.0;"/><text fill="#000000" font-family="sans-serif" font-size="13" lengthAdjust="spacing" textLength="52" x="699.33" y="205.4951">channels</text><text fill="#000000" font-family="sans-serif" font-size="13" lengthAdjust="spacing" textLength="7" x="744.7629" y="228.2486">n</text></g><!--link Model to DataChannelInstance--><g id="link_Model_DataChannelInstance"><path codeLine="34" d="M546.6284,99.6659 C613.0284,113.1959 694.85,138.08 760.33,191 C775.96,203.63 784.6098,218.621 791.0698,233.421 " fill="none" id="Model-DataChannelInstance-1" style="stroke:#181818;stroke-width:1.0;"/><polygon fill="none" points="534.87,97.27,539.9505,102.3874,546.6284,99.6659,541.5478,94.5485,534.87,97.27" style="stroke:#181818;stroke-width:1.0;"/><polygon fill="#181818" points="793.47,238.92,793.5356,229.0714,791.4698,234.3375,786.2037,232.2717,793.47,238.92" style="stroke:#181818;stroke-width:1.0;"/><text fill="#000000" font-family="sans-serif" font-size="13" lengthAdjust="spacing" textLength="44" x="777.33" y="205.4951">policies</text><text fill="#000000" font-family="sans-serif" font-size="13" lengthAdjust="spacing" textLength="7" x="783.2973" y="228.2355">n</text></g><!--link Model to DataTransformInstance--><g id="link_Model_DataTransformInstance"><path codeLine="40" d="M449.5436,173.1692 C449.3636,188.9992 449.89,193.56 451.33,209 C452.25,218.96 453.0116,224.0671 454.8816,233.0071 " fill="none" id="Model-DataTransformInstance" style="stroke:#181818;stroke-width:1.0;"/><polygon fill="none" points="449.68,161.17,445.612,167.1241,449.5436,173.1692,453.6115,167.2151,449.68,161.17" style="stroke:#181818;stroke-width:1.0;"/><polygon fill="#181818" points="456.11,238.88,458.1826,229.2517,455.0863,233.9859,450.3521,230.8896,456.11,238.88" style="stroke:#181818;stroke-width:1.0;"/><text fill="#000000" font-family="sans-serif" font-size="13" lengthAdjust="spacing" textLength="61" x="452.33" y="205.4951">transforms</text><text fill="#000000" font-family="sans-serif" font-size="13" lengthAdjust="spacing" textLength="7" x="446.7457" y="228.1833">n</text></g><!--link DataTransformInstance to Model--><g id="link_DataTransformInstance_Model"><path codeLine="48" d="M501.5055,231.7141 C511.9155,223.9641 512.65,221.06 518.33,209 C521.73,201.76 520.47,198.71 518.33,191 C515.53,180.96 514.1252,176.3052 509.4152,166.6252 " fill="none" id="DataTransformInstance-Model" style="stroke:#181818;stroke-width:1.0;"/><polygon fill="none" points="491.88,238.88,499.0814,238.5055,501.5055,231.7141,494.3041,232.0885,491.88,238.88" style="stroke:#181818;stroke-width:1.0;"/><polygon fill="#181818" points="506.79,161.23,507.1309,171.073,508.9776,165.726,514.3246,167.5727,506.79,161.23" style="stroke:#181818;stroke-width:1.0;"/><text fill="#000000" font-family="sans-serif" font-size="13" lengthAdjust="spacing" textLength="35" x="522.33" y="205.4951">inputs</text><text fill="#000000" font-family="sans-serif" font-size="13" lengthAdjust="spacing" textLength="7" x="503.9975" y="182.0794">n</text></g><!--SRC=[pPJFJiCm3CRlUGehN01fXrrxGEBFfGTEumMyrEiYfKwLf4W8xTr9sa7NfGm4ICo7g7RyvVT5SgeCUW-ovBOBg-08cv9zG5Oa0JqyseeCl0fmj05bsNSDEG4-ECqrC3RqaLJQaGhQiX1GKMlio-MLWDPPHTxlFv-rZmqf4JiXKZzoRGZa0mOSy3rsJE72w7eRrgQZQ2EA1aTsiRW1kPI7dGMqw8Y3c9oykhthk38qkTPnyIjArb_0kY-8x1RtMsGcCy7Dr3yXNlT4bhEI0jHGyN-DjQUnhJLQQPh1FZbalx6koS3PpdVGkQY0y5vB-3XRCNvjedP4dCOwngvV-oN5l0n6duFj0gHERyRBKVx3gJjX9bEScu_bWGz3w3Z-2KhUl-H_TuHLe_d8pXi0]--></g></svg>