<?xml version="1.0" encoding="UTF-8" standalone="no"?><svg xmlns="http://www.w3.org/2000/svg" xmlns:xlink="http://www.w3.org/1999/xlink" contentScriptType="application/ecmascript" contentStyleType="text/css" height="1087px" preserveAspectRatio="none" style="width:320px;height:1087px;" version="1.1" viewBox="0 0 320 1087" width="320px" zoomAndPan="magnify"><defs><filter height="300%" id="f13c2psm8m78fp" width="300%" x="-1" y="-1"><feGaussianBlur result="blurOut" stdDeviation="2.0"/><feColorMatrix in="blurOut" result="blurOut2" type="matrix" values="0 0 0 0 0 0 0 0 0 0 0 0 0 0 0 0 0 0 .4 0"/><feOffset dx="4.0" dy="4.0" in="blurOut2" result="blurOut3"/><feBlend in="SourceGraphic" in2="blurOut3" mode="normal"/></filter></defs><g><!--cluster InputStreamInstance--><rect fill="#FFCC88" filter="url(#f13c2psm8m78fp)" height="1052" rx="12.5" ry="12.5" style="stroke: #A80036; stroke-width: 1.5;" width="220" x="22" y="24"/><rect fill="#FFFFFF" height="1018.3906" rx="12.5" ry="12.5" style="stroke: #FFFFFF; stroke-width: 1.0;" width="214" x="25" y="54.6094"/><line style="stroke: #A80036; stroke-width: 1.5;" x1="22" x2="242" y1="51.6094" y2="51.6094"/><text fill="#000000" font-family="sans-serif" font-size="14" lengthAdjust="spacingAndGlyphs" textLength="129" x="67.5" y="42.5332">InputStreamInstance</text><rect fill="#FFCC88" filter="url(#f13c2psm8m78fp)" height="50" rx="12.5" ry="12.5" style="stroke: #A80036; stroke-width: 1.5;" width="50" x="107" y="60"/><line style="stroke: #A80036; stroke-width: 1.5;" x1="107" x2="157" y1="87.6094" y2="87.6094"/><text fill="#000000" font-family="sans-serif" font-size="14" lengthAdjust="spacingAndGlyphs" textLength="18" x="123" y="79.5332">Init</text><rect fill="#FFCC88" filter="url(#f13c2psm8m78fp)" height="50" rx="12.5" ry="12.5" style="stroke: #A80036; stroke-width: 1.5;" width="71" x="96.5" y="250"/><line style="stroke: #A80036; stroke-width: 1.5;" x1="96.5" x2="167.5" y1="277.6094" y2="277.6094"/><text fill="#000000" font-family="sans-serif" font-size="14" lengthAdjust="spacingAndGlyphs" textLength="51" x="106.5" y="269.5332">Created</text><rect fill="#FFCC88" filter="url(#f13c2psm8m78fp)" height="50" rx="12.5" ry="12.5" style="stroke: #A80036; stroke-width: 1.5;" width="94" x="85" y="440"/><line style="stroke: #A80036; stroke-width: 1.5;" x1="85" x2="179" y1="467.6094" y2="467.6094"/><text fill="#000000" font-family="sans-serif" font-size="14" lengthAdjust="spacingAndGlyphs" textLength="74" x="95" y="459.5332">Provisioned</text><rect fill="#FFCC88" filter="url(#f13c2psm8m78fp)" height="50" rx="12.5" ry="12.5" style="stroke: #A80036; stroke-width: 1.5;" width="83" x="90.5" y="630"/><line style="stroke: #A80036; stroke-width: 1.5;" x1="90.5" x2="173.5" y1="657.6094" y2="657.6094"/><text fill="#000000" font-family="sans-serif" font-size="14" lengthAdjust="spacingAndGlyphs" textLength="63" x="100.5" y="649.5332">Deploying</text><rect fill="#FFCC88" filter="url(#f13c2psm8m78fp)" height="50" rx="12.5" ry="12.5" style="stroke: #A80036; stroke-width: 1.5;" width="72" x="96" y="820"/><line style="stroke: #A80036; stroke-width: 1.5;" x1="96" x2="168" y1="847.6094" y2="847.6094"/><text fill="#000000" font-family="sans-serif" font-size="14" lengthAdjust="spacingAndGlyphs" textLength="52" x="106" y="839.5332">Enabled</text><rect fill="#FFCC88" filter="url(#f13c2psm8m78fp)" height="50" rx="12.5" ry="12.5" style="stroke: #A80036; stroke-width: 1.5;" width="75" x="92.5" y="1010"/><line style="stroke: #A80036; stroke-width: 1.5;" x1="92.5" x2="167.5" y1="1037.6094" y2="1037.6094"/><text fill="#000000" font-family="sans-serif" font-size="14" lengthAdjust="spacingAndGlyphs" textLength="55" x="102.5" y="1029.5332">Disabled</text><rect fill="#FEFECE" filter="url(#f13c2psm8m78fp)" height="50" rx="12.5" ry="12.5" style="stroke: #A80036; stroke-width: 1.5;" width="50" x="258" y="1010"/><line style="stroke: #A80036; stroke-width: 1.5;" x1="258" x2="308" y1="1037.6094" y2="1037.6094"/><text fill="#000000" font-family="sans-serif" font-size="14" lengthAdjust="spacingAndGlyphs" textLength="23" x="271.5" y="1029.5332">Null</text><!--link Init to Created--><path d="M132,110.193 C132,144.599 132,207.591 132,244.63 " fill="none" id="Init-Created" style="stroke: #000000; stroke-width: 1.0;"/><polygon fill="#000000" points="132,249.9,136,240.9,132,244.9,128,240.9,132,249.9" style="stroke: #000000; stroke-width: 1.0;"/><text fill="#000000" font-family="sans-serif" font-size="13" lengthAdjust="spacingAndGlyphs" textLength="36" x="133" y="185.4951">create</text><!--link Created to Provisioned--><path d="M132,300.193 C132,334.599 132,397.591 132,434.63 " fill="none" id="Created-Provisioned" style="stroke: #000000; stroke-width: 1.0;"/><polygon fill="#000000" points="132,439.9,136,430.9,132,434.9,128,430.9,132,439.9" style="stroke: #000000; stroke-width: 1.0;"/><text fill="#000000" font-family="sans-serif" font-size="13" lengthAdjust="spacingAndGlyphs" textLength="50" x="133" y="375.4951">provision</text><!--link Provisioned to Deploying--><path d="M132,490.193 C132,524.599 132,587.591 132,624.63 " fill="none" id="Provisioned-Deploying" style="stroke: #000000; stroke-width: 1.0;"/><polygon fill="#000000" points="132,629.9,136,620.9,132,624.9,128,620.9,132,629.9" style="stroke: #000000; stroke-width: 1.0;"/><text fill="#000000" font-family="sans-serif" font-size="13" lengthAdjust="spacingAndGlyphs" textLength="38" x="133" y="565.4951">deploy</text><!--link Deploying to Enabled--><path d="M132,680.193 C132,714.599 132,777.591 132,814.63 " fill="none" id="Deploying-Enabled" style="stroke: #000000; stroke-width: 1.0;"/><polygon fill="#000000" points="132,819.9,136,810.9,132,814.9,128,810.9,132,819.9" style="stroke: #000000; stroke-width: 1.0;"/><text fill="#000000" font-family="sans-serif" font-size="13" lengthAdjust="spacingAndGlyphs" textLength="52" x="133" y="755.4951">deployed</text><!--link Enabled to Disabled--><path d="M120.192,870.248 C112.761,886.898 103.8681,909.747 100,931 C95.3688,956.446 104.5896,984.594 113.997,1005.0243 " fill="none" id="Enabled-Disabled" style="stroke: #000000; stroke-width: 1.0;"/><polygon fill="#000000" points="116.256,1009.7838,116.0105,999.938,114.1121,1005.2668,108.7833,1003.3683,116.256,1009.7838" style="stroke: #000000; stroke-width: 1.0;"/><text fill="#000000" font-family="sans-serif" font-size="13" lengthAdjust="spacingAndGlyphs" textLength="41" x="101" y="945.4951">disable</text><!--link Disabled to Enabled--><path d="M136.202,1009.6432 C140.173,992.7522 144.954,969.667 147,949 C149.479,923.968 144.827,895.704 140.066,875.124 " fill="none" id="Disabled-Enabled" style="stroke: #000000; stroke-width: 1.0;"/><polygon fill="#000000" points="138.857,870.064,137.0572,879.747,140.0185,874.9272,144.8383,877.8886,138.857,870.064" style="stroke: #000000; stroke-width: 1.0;"/><text fill="#000000" font-family="sans-serif" font-size="13" lengthAdjust="spacingAndGlyphs" textLength="38" x="148" y="945.4951">enable</text><!--link Enabled to Enabled--><path d="M168.166,835.202 C186.532,833.771 203,837.037 203,845 C203,852.216 189.475,855.575 173.27,855.077 " fill="none" id="Enabled-Enabled" style="stroke: #000000; stroke-width: 1.0;"/><polygon fill="#000000" points="168.166,854.798,176.9343,859.2832,173.1586,855.0708,177.3709,851.2951,168.166,854.798" style="stroke: #000000; stroke-width: 1.0;"/><text fill="#000000" font-family="sans-serif" font-size="13" lengthAdjust="spacingAndGlyphs" textLength="28" x="209" y="850.4951">send</text><!--link Enabled to Null--><path d="M151.431,870.193 C179.406,905.022 230.908,969.144 260.498,1005.9843 " fill="none" id="Enabled-Null" style="stroke: #000000; stroke-width: 1.0;"/><polygon fill="#000000" points="263.643,1009.9,261.1242,1000.3787,260.5113,1006.0022,254.8878,1005.3893,263.643,1009.9" style="stroke: #000000; stroke-width: 1.0;"/><!--
@startuml



state InputStreamInstance #ffcc88 {

    state Init #ffcc88 {
    }

    state Created #ffcc88 {
    }

    state Provisioned #ffcc88 {
    }

    state Deploying #ffcc88 {
    }

    state Enabled #ffcc88 {
    }

    state Disabled #ffcc88 {
    }




Init -[#black]- -> Created : create

Created -[#black]- -> Provisioned : provision

Provisioned -[#black]- -> Deploying : deploy

Deploying -[#black]- -> Enabled : deployed

Enabled -[#black]- -> Disabled : disable

Enabled -[#black]- -> Enabled : send

Disabled -[#black]- -> Enabled : enable

}

 
 Enabled -[#black]- -> Null
 

@enduml

PlantUML version 1.2019.05(Sat Apr 20 09:45:36 PDT 2019)
(GPL source distribution)
Java Runtime: Java(TM) SE Runtime Environment
JVM: Java HotSpot(TM) Client VM
Java Version: 1.8.0_271-b09
Operating System: Windows 10
OS Version: 10.0
Default Encoding: Cp1252
Language: en
Country: US
--></g></svg>