<?xml version="1.0" encoding="UTF-8" standalone="no"?><svg xmlns="http://www.w3.org/2000/svg" xmlns:xlink="http://www.w3.org/1999/xlink" contentScriptType="application/ecmascript" contentStyleType="text/css" height="326px" preserveAspectRatio="none" style="width:152px;height:326px;" version="1.1" viewBox="0 0 152 326" width="152px" zoomAndPan="magnify"><defs><filter height="300%" id="f137fwnfhj3ads" width="300%" x="-1" y="-1"><feGaussianBlur result="blurOut" stdDeviation="2.0"/><feColorMatrix in="blurOut" result="blurOut2" type="matrix" values="0 0 0 0 0 0 0 0 0 0 0 0 0 0 0 0 0 0 .4 0"/><feOffset dx="4.0" dy="4.0" in="blurOut2" result="blurOut3"/><feBlend in="SourceGraphic" in2="blurOut3" mode="normal"/></filter></defs><g><!--entity ServiceInstance--><rect fill="#ADD8E6" filter="url(#f137fwnfhj3ads)" height="37.6094" style="stroke: #000000; stroke-width: 1.5;" width="120" x="13.5" y="278"/><text fill="#000000" font-family="sans-serif" font-size="14" lengthAdjust="spacingAndGlyphs" textLength="100" x="23.5" y="302.5332">ServiceInstance</text><!--entity CapabilityInstance--><rect fill="#90EE90" filter="url(#f137fwnfhj3ads)" height="37.6094" style="stroke: #000000; stroke-width: 1.5;" width="135" x="6" y="8"/><text fill="#000000" font-family="sans-serif" font-size="14" lengthAdjust="spacingAndGlyphs" textLength="115" x="16" y="32.5332">CapabilityInstance</text><!--class Model--><rect fill="#FEFECE" filter="url(#f137fwnfhj3ads)" height="75.6719" id="Model" style="stroke: #A80036; stroke-width: 1.5;" width="94" x="26.5" y="124"/><ellipse cx="41.5" cy="140" fill="#ADD1B2" rx="11" ry="11" style="stroke: #A80036; stroke-width: 1.0;"/><path d="M44.2656,135.875 Q44.4219,135.6563 44.6094,135.5469 Q44.7969,135.4375 45.0156,135.4375 Q45.3906,135.4375 45.625,135.6953 Q45.8594,135.9531 45.8594,136.5625 L45.8594,138.0156 Q45.8594,138.625 45.625,138.8906 Q45.3906,139.1563 45.0156,139.1563 Q44.6719,139.1563 44.4688,138.9531 Q44.2656,138.7656 44.1563,138.25 Q44.1094,137.8906 43.9219,137.7031 Q43.5938,137.3281 42.9844,137.1094 Q42.375,136.8906 41.75,136.8906 Q40.9844,136.8906 40.3516,137.2188 Q39.7188,137.5469 39.2266,138.2969 Q38.7344,139.0469 38.7344,140.0781 L38.7344,141.1719 Q38.7344,142.4063 39.625,143.2266 Q40.5156,144.0469 42.1094,144.0469 Q43.0469,144.0469 43.7031,143.7969 Q44.0938,143.6406 44.5156,143.2031 Q44.7813,142.9375 44.9297,142.8594 Q45.0781,142.7813 45.2813,142.7813 Q45.6094,142.7813 45.8672,143.0391 Q46.125,143.2969 46.125,143.6406 Q46.125,143.9844 45.7813,144.3906 Q45.2813,144.9688 44.4844,145.2969 Q43.4063,145.75 42.1094,145.75 Q40.5938,145.75 39.3906,145.125 Q38.4063,144.625 37.7188,143.5547 Q37.0313,142.4844 37.0313,141.2031 L37.0313,140.0469 Q37.0313,138.7188 37.6484,137.5703 Q38.2656,136.4219 39.3594,135.8047 Q40.4531,135.1875 41.6875,135.1875 Q42.4219,135.1875 43.0703,135.3516 Q43.7188,135.5156 44.2656,135.875 Z "/><text fill="#000000" font-family="sans-serif" font-size="12" lengthAdjust="spacingAndGlyphs" textLength="62" x="55.5" y="144.9102">Provisioner</text><line style="stroke: #A80036; stroke-width: 1.5;" x1="27.5" x2="119.5" y1="156" y2="156"/><text fill="#000000" font-family="sans-serif" font-size="11" lengthAdjust="spacingAndGlyphs" textLength="56" x="32.5" y="171.4189">string name</text><text fill="#000000" font-family="sans-serif" font-size="11" lengthAdjust="spacingAndGlyphs" textLength="53" x="32.5" y="185.2549">json config</text><line style="stroke: #A80036; stroke-width: 1.5;" x1="27.5" x2="119.5" y1="191.6719" y2="191.6719"/><!--link Model to ServiceInstance--><path d="M73.5,213.342 C73.5,230.5007 73.5,249.1871 73.5,264.4452 " fill="none" id="Model-ServiceInstance" style="stroke: #A80036; stroke-width: 1.0;"/><polygon fill="#A80036" points="73.5,277.8618,77.5,268.8618,73.5,272.8618,69.5,268.8618,73.5,277.8618" style="stroke: #A80036; stroke-width: 1.0;"/><line style="stroke: #A80036; stroke-width: 1.0;" x1="73.5" x2="73.5001" y1="272.8618" y2="264.8618"/><polygon fill="#FFFFFF" points="73.5,200.048,69.5,206.048,73.5,212.048,77.5,206.048,73.5,200.048" style="stroke: #A80036; stroke-width: 1.0;"/><text fill="#000000" font-family="sans-serif" font-size="13" lengthAdjust="spacingAndGlyphs" textLength="47" x="74.5" y="244.4951">services</text><text fill="#000000" font-family="sans-serif" font-size="13" lengthAdjust="spacingAndGlyphs" textLength="7" x="65.4281" y="267.1595">n</text><!--link CapabilityInstance to Model--><path d="M73.5,59.457 C73.5,74.784 73.5,93.587 73.5,110.829 " fill="none" id="CapabilityInstance-Model" style="stroke: #A80036; stroke-width: 1.0;"/><polygon fill="#A80036" points="73.5,123.924,77.5,114.924,73.5,118.924,69.5,114.924,73.5,123.924" style="stroke: #A80036; stroke-width: 1.0;"/><line style="stroke: #A80036; stroke-width: 1.0;" x1="73.5" x2="73.5001" y1="118.924" y2="110.9245"/><polygon fill="#FFFFFF" points="73.5,46.214,69.5,52.214,73.5,58.214,77.5,52.214,73.5,46.214" style="stroke: #A80036; stroke-width: 1.0;"/><text fill="#000000" font-family="sans-serif" font-size="13" lengthAdjust="spacingAndGlyphs" textLength="61" x="74.5" y="90.4951">provisioner</text><text fill="#000000" font-family="sans-serif" font-size="13" lengthAdjust="spacingAndGlyphs" textLength="7" x="65.8766" y="113.2724">1</text><!--
@startuml

class "Provisioner" as Model {
 string name
 json config

 
}

rectangle "ServiceInstance" as ServiceInstance #lightblue {
}

Model o- -> "n" ServiceInstance : services




    rectangle "CapabilityInstance" as CapabilityInstance #lightgreen {
    }
    
        CapabilityInstance   o- -> "1" Model : "provisioner"
    

@enduml

PlantUML version 1.2019.05(Sat Apr 20 09:45:36 PDT 2019)
(GPL source distribution)
Java Runtime: Java(TM) SE Runtime Environment
JVM: Java HotSpot(TM) Client VM
Java Version: 1.8.0_271-b09
Operating System: Windows 10
OS Version: 10.0
Default Encoding: Cp1252
Language: en
Country: US
--></g></svg>