<?xml version="1.0" encoding="UTF-8" standalone="no"?><svg xmlns="http://www.w3.org/2000/svg" xmlns:xlink="http://www.w3.org/1999/xlink" contentScriptType="application/ecmascript" contentStyleType="text/css" height="685px" preserveAspectRatio="none" style="width:434px;height:685px;" version="1.1" viewBox="0 0 434 685" width="434px" zoomAndPan="magnify"><defs><filter height="300%" id="fesr4r8h7tm6c" width="300%" x="-1" y="-1"><feGaussianBlur result="blurOut" stdDeviation="2.0"/><feColorMatrix in="blurOut" result="blurOut2" type="matrix" values="0 0 0 0 0 0 0 0 0 0 0 0 0 0 0 0 0 0 .4 0"/><feOffset dx="4.0" dy="4.0" in="blurOut2" result="blurOut3"/><feBlend in="SourceGraphic" in2="blurOut3" mode="normal"/></filter></defs><g><!--cluster Capability Manager--><polygon fill="#00AAFF" filter="url(#fesr4r8h7tm6c)" points="45.5,84,185.5,84,192.5,107.6094,412.5,107.6094,412.5,673,45.5,673,45.5,84" style="stroke: #000000; stroke-width: 1.5;"/><line style="stroke: #000000; stroke-width: 1.5;" x1="45.5" x2="192.5" y1="107.6094" y2="107.6094"/><text fill="#000000" font-family="sans-serif" font-size="14" font-weight="bold" lengthAdjust="spacingAndGlyphs" textLength="134" x="49.5" y="100.5332">Capability Manager</text><!--cluster bin--><polygon fill="#FFFFFF" filter="url(#fesr4r8h7tm6c)" points="72.5,128,100.5,128,107.5,151.6094,200.5,151.6094,200.5,218,72.5,218,72.5,128" style="stroke: #000000; stroke-width: 1.5;"/><line style="stroke: #000000; stroke-width: 1.5;" x1="72.5" x2="107.5" y1="151.6094" y2="151.6094"/><text fill="#000000" font-family="sans-serif" font-size="14" font-weight="bold" lengthAdjust="spacingAndGlyphs" textLength="22" x="76.5" y="144.5332">bin</text><!--cluster deploy--><polygon fill="#FFFFFF" filter="url(#fesr4r8h7tm6c)" points="69.5,324,122.5,324,129.5,347.6094,292.5,347.6094,292.5,431,69.5,431,69.5,324" style="stroke: #000000; stroke-width: 1.5;"/><line style="stroke: #000000; stroke-width: 1.5;" x1="69.5" x2="129.5" y1="347.6094" y2="347.6094"/><text fill="#000000" font-family="sans-serif" font-size="14" font-weight="bold" lengthAdjust="spacingAndGlyphs" textLength="47" x="73.5" y="340.5332">deploy</text><!--cluster images--><polygon fill="#FFFFFF" filter="url(#fesr4r8h7tm6c)" points="69.5,455,125.5,455,132.5,478.6094,388.5,478.6094,388.5,649,69.5,649,69.5,455" style="stroke: #000000; stroke-width: 1.5;"/><line style="stroke: #000000; stroke-width: 1.5;" x1="69.5" x2="132.5" y1="478.6094" y2="478.6094"/><text fill="#000000" font-family="sans-serif" font-size="14" font-weight="bold" lengthAdjust="spacingAndGlyphs" textLength="50" x="73.5" y="471.5332">images</text><!--entity REST--><rect fill="#FEFECE" filter="url(#fesr4r8h7tm6c)" height="37.6094" style="stroke: #A80036; stroke-width: 1.5;" width="69" x="103" y="262"/><rect fill="#FEFECE" height="5" style="stroke: #A80036; stroke-width: 1.5;" width="10" x="98" y="267"/><rect fill="#FEFECE" height="5" style="stroke: #A80036; stroke-width: 1.5;" width="10" x="98" y="289.6094"/><text fill="#000000" font-family="sans-serif" font-size="14" lengthAdjust="spacingAndGlyphs" textLength="49" x="113" y="286.5332">express</text><!--entity socket--><rect fill="#FEFECE" filter="url(#fesr4r8h7tm6c)" height="37.6094" style="stroke: #A80036; stroke-width: 1.5;" width="76" x="219.5" y="164"/><rect fill="#FEFECE" height="5" style="stroke: #A80036; stroke-width: 1.5;" width="10" x="214.5" y="169"/><rect fill="#FEFECE" height="5" style="stroke: #A80036; stroke-width: 1.5;" width="10" x="214.5" y="191.6094"/><text fill="#000000" font-family="sans-serif" font-size="14" lengthAdjust="spacingAndGlyphs" textLength="56" x="229.5" y="188.5332">socket.io</text><!--entity binName--><rect fill="#FEFECE" filter="url(#fesr4r8h7tm6c)" height="37.6094" style="stroke: #A80036; stroke-width: 1.5;" width="96" x="88.5" y="164"/><rect fill="#FEFECE" height="5" style="stroke: #A80036; stroke-width: 1.5;" width="10" x="83.5" y="169"/><rect fill="#FEFECE" height="5" style="stroke: #A80036; stroke-width: 1.5;" width="10" x="83.5" y="191.6094"/><text fill="#000000" font-family="sans-serif" font-size="14" lengthAdjust="spacingAndGlyphs" textLength="76" x="98.5" y="188.5332">sabr aml cm</text><!--entity sabr_aml_cm_container--><polygon fill="#FEFECE" filter="url(#fesr4r8h7tm6c)" points="85.5,360,85.5,415.2188,195.5,415.2188,195.5,370,185.5,360,85.5,360" style="stroke: #000000; stroke-width: 1.5;"/><path d="M185.5,360 L185.5,370 L195.5,370 " fill="#FEFECE" style="stroke: #000000; stroke-width: 1.5;"/><text fill="#000000" font-family="sans-serif" font-size="14" lengthAdjust="spacingAndGlyphs" textLength="90" x="95.5" y="384.5332">node server.js</text><text fill="#000000" font-family="sans-serif" font-size="14" lengthAdjust="spacingAndGlyphs" textLength="0" x="99.5" y="402.1426"/><!--entity web_container--><polygon fill="#FEFECE" filter="url(#fesr4r8h7tm6c)" points="231,368.5,231,406.1094,276,406.1094,276,378.5,266,368.5,231,368.5" style="stroke: #000000; stroke-width: 1.5;"/><path d="M266,368.5 L266,378.5 L276,378.5 " fill="#FEFECE" style="stroke: #000000; stroke-width: 1.5;"/><text fill="#000000" font-family="sans-serif" font-size="14" lengthAdjust="spacingAndGlyphs" textLength="25" x="241" y="393.0332">web</text><!--entity sabr_aml_cmimage--><rect fill="#FEFECE" filter="url(#fesr4r8h7tm6c)" height="33.6094" style="stroke: #000000; stroke-width: 1.5;" width="100" x="89.5" y="496.5"/><rect fill="#FEFECE" height="33.6094" style="stroke: #000000; stroke-width: 1.5;" width="100" x="85.5" y="492.5"/><text fill="#000000" font-family="sans-serif" font-size="14" lengthAdjust="spacingAndGlyphs" textLength="84" x="93.5" y="515.0332">sabr_aml_cm</text><!--entity ailtireswarm--><rect fill="#FEFECE" filter="url(#fesr4r8h7tm6c)" height="40.6094" style="stroke: #000000; stroke-width: 1.5;" width="108" x="85.5" y="592"/><polygon fill="#FEFECE" points="176.5,597,176.5,611,188.5,611,188.5,603,182.5,597,176.5,597" style="stroke: #000000; stroke-width: 1.5;"/><line style="stroke: #000000; stroke-width: 1.5;" x1="182.5" x2="182.5" y1="597" y2="603"/><line style="stroke: #000000; stroke-width: 1.5;" x1="188.5" x2="182.5" y1="603" y2="603"/><text fill="#000000" font-family="sans-serif" font-size="14" lengthAdjust="spacingAndGlyphs" textLength="78" x="95.5" y="619.5332">ailtire:swarm</text><!--entity sabr_aml_cm_web--><rect fill="#FEFECE" filter="url(#fesr4r8h7tm6c)" height="40.6094" style="stroke: #000000; stroke-width: 1.5;" width="147" x="225" y="491"/><polygon fill="#FEFECE" points="355,496,355,510,367,510,367,502,361,496,355,496" style="stroke: #000000; stroke-width: 1.5;"/><line style="stroke: #000000; stroke-width: 1.5;" x1="361" x2="361" y1="496" y2="502"/><line style="stroke: #000000; stroke-width: 1.5;" x1="367" x2="361" y1="502" y2="502"/><text fill="#000000" font-family="sans-serif" font-size="14" lengthAdjust="spacingAndGlyphs" textLength="117" x="235" y="518.5332">sabr_aml_cm_web</text><!--entity CLI--><ellipse cx="136.5" cy="38" fill="#FEFECE" filter="url(#fesr4r8h7tm6c)" rx="8" ry="8" style="stroke: #A80036; stroke-width: 2.0;"/><text fill="#000000" font-family="sans-serif" font-size="14" lengthAdjust="spacingAndGlyphs" textLength="21" x="126" y="69.5332">CLI</text><!--entity Web--><ellipse cx="20.5" cy="281" fill="#FEFECE" filter="url(#fesr4r8h7tm6c)" rx="8" ry="8" style="stroke: #A80036; stroke-width: 2.0;"/><text fill="#000000" font-family="sans-serif" font-size="14" lengthAdjust="spacingAndGlyphs" textLength="29" x="6" y="312.5332">Web</text><!--entity WebSocket--><ellipse cx="257.5" cy="38" fill="#FEFECE" filter="url(#fesr4r8h7tm6c)" rx="8" ry="8" style="stroke: #A80036; stroke-width: 2.0;"/><text fill="#000000" font-family="sans-serif" font-size="14" lengthAdjust="spacingAndGlyphs" textLength="72" x="221.5" y="69.5332">WebSocket</text><!--link binName to REST--><path d="M136.688,202.057 C136.849,217.513 137.082,239.865 137.257,256.673 " fill="none" id="binName-REST" style="stroke: #A80036; stroke-width: 1.0;"/><polygon fill="#A80036" points="137.309,261.698,141.2162,252.6573,137.2576,256.6983,133.2166,252.7396,137.309,261.698" style="stroke: #A80036; stroke-width: 1.0;"/><!--link REST to sabr_aml_cm_container--><path d="M138.023,300.203 C138.452,315.147 139.07,336.673 139.581,354.487 " fill="none" id="REST-sabr_aml_cm_container" style="stroke: #A80036; stroke-width: 1.0;"/><polygon fill="#A80036" points="139.736,359.885,143.4747,350.7733,139.5917,354.8871,135.478,351.0042,139.736,359.885" style="stroke: #A80036; stroke-width: 1.0;"/><!--link REST to web_container--><path d="M172.231,292.572 C185.906,297.979 201.044,305.648 212.5,316 C226.94,329.049 237.694,348.411 244.557,363.545 " fill="none" id="REST-web_container" style="stroke: #A80036; stroke-width: 1.0;"/><polygon fill="#A80036" points="246.735,368.499,246.7761,358.6502,244.7234,363.9215,239.4521,361.8688,246.735,368.499" style="stroke: #A80036; stroke-width: 1.0;"/><!--link socket to web_container--><path d="M257.138,202.328 C256.409,239.225 254.766,322.407 253.961,363.138 " fill="none" id="socket-web_container" style="stroke: #A80036; stroke-width: 1.0;"/><polygon fill="#A80036" points="253.858,368.36,258.0347,359.4406,253.9566,363.361,250.0362,359.2829,253.858,368.36" style="stroke: #A80036; stroke-width: 1.0;"/><!--link sabr_aml_cmimage to ailtireswarm--><path d="M138.276,550.896 C138.558,564.862 138.865,580.071 139.101,591.7594 " fill="none" id="sabr_aml_cmimage-ailtireswarm" style="stroke: #A80036; stroke-width: 1.0;"/><polygon fill="none" points="131.272,550.795,137.867,530.658,145.269,550.513,131.272,550.795" style="stroke: #A80036; stroke-width: 1.0;"/><!--link sabr_aml_cm_container to sabr_aml_cmimage--><path d="M139.842,415.273 C139.311,436.871 138.571,466.931 138.066,487.465 " fill="none" id="sabr_aml_cm_container-sabr_aml_cmimage" style="stroke: #A80036; stroke-width: 1.0;"/><polygon fill="#A80036" points="137.943,492.469,142.1629,483.57,138.0659,487.4705,134.1653,483.3734,137.943,492.469" style="stroke: #A80036; stroke-width: 1.0;"/><!--link web_container to sabr_aml_cm_web--><path d="M260.14,406.502 C267.9,427.541 280.782,462.465 289.453,485.972 " fill="none" id="web_container-sabr_aml_cm_web" style="stroke: #A80036; stroke-width: 1.0;"/><polygon fill="#A80036" points="291.236,490.805,291.8751,480.9769,289.5061,486.1138,284.3692,483.7448,291.236,490.805" style="stroke: #A80036; stroke-width: 1.0;"/><!--link CLI to binName--><path d="M136.5,47.098 C136.5,69.432 136.5,132.318 136.5,163.705 " fill="none" id="CLI-binName" style="stroke: #A80036; stroke-width: 1.0;"/><text fill="#000000" font-family="sans-serif" font-size="13" lengthAdjust="spacingAndGlyphs" textLength="72" x="47.875" y="45.1504">sabr aml cm</text><!--link Web to REST--><path d="M29.6406,281 C54.0775,281 78.5144,281 102.9513,281 " fill="none" id="Web-REST" style="stroke: #A80036; stroke-width: 1.0;"/><text fill="#000000" font-family="sans-serif" font-size="13" lengthAdjust="spacingAndGlyphs" textLength="76" x="37.6206" y="272.7183">/sabr/aml/cm</text><!--link WebSocket to socket--><path d="M257.5,47.098 C257.5,69.432 257.5,132.318 257.5,163.705 " fill="none" id="WebSocket-socket" style="stroke: #A80036; stroke-width: 1.0;"/><text fill="#000000" font-family="sans-serif" font-size="13" lengthAdjust="spacingAndGlyphs" textLength="76" x="164.875" y="45.1504">.sabr.aml.cm</text><!--
@startuml
  interface CLI
  interface Web
  interface WebSocket
package "Capability Manager" #00aaff {
  component express as REST
  component socket.io as socket
  folder bin #ffffff {
    component " sabr aml cm" as binName
  }
  binName - -> REST

  folder deploy #ffffff {
      file "node server.js\n" as sabr_aml_cm_container
      REST - -> sabr_aml_cm_container

  
    file "web" as web_container
    REST - -> web_container
    socket - - -> web_container
  
  }
  folder images #ffffff {
    collections "sabr_aml_cm" as sabr_aml_cmimage
    artifact "ailtire:swarm" as ailtireswarm
    sabr_aml_cmimage <|- - ailtireswarm
    sabr_aml_cm_container - -> sabr_aml_cmimage

  
      artifact "sabr_aml_cm_web" as sabr_aml_cm_web
      web_container - -> sabr_aml_cm_web
    
  }
}
CLI " sabr aml cm" - - binName
Web "/sabr/aml/cm" - REST
WebSocket ".sabr.aml.cm" - - socket

@enduml

PlantUML version 1.2019.05(Sat Apr 20 09:45:36 PDT 2019)
(GPL source distribution)
Java Runtime: Java(TM) SE Runtime Environment
JVM: Java HotSpot(TM) Client VM
Java Version: 1.8.0_271-b09
Operating System: Windows 10
OS Version: 10.0
Default Encoding: Cp1252
Language: en
Country: US
--></g></svg>