<?xml version="1.0" encoding="us-ascii" standalone="no"?><svg xmlns="http://www.w3.org/2000/svg" xmlns:xlink="http://www.w3.org/1999/xlink" contentStyleType="text/css" height="390px" preserveAspectRatio="none" style="width:466px;height:390px;background:#FFFFFF;" version="1.1" viewBox="0 0 466 390" width="466px" zoomAndPan="magnify"><defs/><g><!--cluster Service Stack--><g id="cluster_Service Stack"><rect fill="#ADD8E6" height="315" rx="2.5" ry="2.5" style="stroke:none;stroke-width:1.0;" width="388" x="21" y="68"/><path d="M6,68 L18.5,68 A2.5,2.5 0 0 1 21,70.5 L21,380.5 A2.5,2.5 0 0 0 23.5,383 L406.5,383 A2.5,2.5 0 0 0 409,380.5 L409,70.5 A2.5,2.5 0 0 1 411.5,68 L424,68 " fill="none" style="stroke:#181818;stroke-width:1.0;"/><text fill="#000000" font-family="sans-serif" font-size="14" font-weight="bold" lengthAdjust="spacing" textLength="96" x="149" y="95.5332">Service Stack</text></g><!--entity Admin--><g id="elem_Admin"><rect fill="#F1F1F1" height="47.6094" rx="2.5" ry="2.5" style="stroke:#181818;stroke-width:0.5;" width="145" x="232.5" y="104"/><rect fill="#F1F1F1" height="10" style="stroke:#181818;stroke-width:0.5;" width="15" x="357.5" y="109"/><rect fill="#F1F1F1" height="2" style="stroke:#181818;stroke-width:0.5;" width="4" x="355.5" y="111"/><rect fill="#F1F1F1" height="2" style="stroke:#181818;stroke-width:0.5;" width="4" x="355.5" y="115"/><text fill="#000000" font-family="sans-serif" font-size="14" lengthAdjust="spacing" textLength="105" x="247.5" y="138.5332">Admin Container</text></g><!--entity C1--><g id="elem_C1"><rect fill="#DDDDDD" height="47.6094" rx="2.5" ry="2.5" style="stroke:#181818;stroke-width:0.5;" width="87" x="22.5" y="212"/><rect fill="#DDDDDD" height="10" style="stroke:#181818;stroke-width:0.5;" width="15" x="89.5" y="217"/><rect fill="#DDDDDD" height="2" style="stroke:#181818;stroke-width:0.5;" width="4" x="87.5" y="219"/><rect fill="#DDDDDD" height="2" style="stroke:#181818;stroke-width:0.5;" width="4" x="87.5" y="223"/><text fill="#000000" font-family="sans-serif" font-size="14" lengthAdjust="spacing" textLength="47" x="37.5" y="246.5332">Stack 1</text></g><!--entity C2--><g id="elem_C2"><rect fill="#FFFFFF" height="47.6094" rx="2.5" ry="2.5" style="stroke:#181818;stroke-width:0.5;" width="114" x="145" y="212"/><rect fill="#FFFFFF" height="10" style="stroke:#181818;stroke-width:0.5;" width="15" x="239" y="217"/><rect fill="#FFFFFF" height="2" style="stroke:#181818;stroke-width:0.5;" width="4" x="237" y="219"/><rect fill="#FFFFFF" height="2" style="stroke:#181818;stroke-width:0.5;" width="4" x="237" y="223"/><text fill="#000000" font-family="sans-serif" font-size="14" lengthAdjust="spacing" textLength="74" x="160" y="246.5332">Container 2</text></g><!--entity Cn--><g id="elem_Cn"><rect fill="#FFFFFF" height="47.6094" rx="2.5" ry="2.5" style="stroke:#181818;stroke-width:0.5;" width="114" x="294" y="212"/><rect fill="#FFFFFF" height="10" style="stroke:#181818;stroke-width:0.5;" width="15" x="388" y="217"/><rect fill="#FFFFFF" height="2" style="stroke:#181818;stroke-width:0.5;" width="4" x="386" y="219"/><rect fill="#FFFFFF" height="2" style="stroke:#181818;stroke-width:0.5;" width="4" x="386" y="223"/><text fill="#000000" font-family="sans-serif" font-size="14" lengthAdjust="spacing" textLength="74" x="309" y="246.5332">Container n</text></g><!--entity vault--><g id="elem_vault"><path d="M74.5,114.5 C74.5,104.5 123,104.5 123,104.5 C123,104.5 171.5,104.5 171.5,114.5 L171.5,141.1094 C171.5,151.1094 123,151.1094 123,151.1094 C123,151.1094 74.5,151.1094 74.5,141.1094 L74.5,114.5 " fill="#F1F1F1" style="stroke:#181818;stroke-width:0.5;"/><path d="M74.5,114.5 C74.5,124.5 123,124.5 123,124.5 C123,124.5 171.5,124.5 171.5,114.5 " fill="none" style="stroke:#181818;stroke-width:0.5;"/><text fill="#000000" font-family="sans-serif" font-size="14" lengthAdjust="spacing" textLength="77" x="84.5" y="143.0332">Secret Vault</text></g><!--entity sd--><g id="elem_sd"><path d="M205.5,330 C205.5,320 250,320 250,320 C250,320 294.5,320 294.5,330 L294.5,356.6094 C294.5,366.6094 250,366.6094 250,366.6094 C250,366.6094 205.5,366.6094 205.5,356.6094 L205.5,330 " fill="#FFFFFF" style="stroke:#181818;stroke-width:0.5;"/><path d="M205.5,330 C205.5,340 250,340 250,340 C250,340 294.5,340 294.5,330 " fill="none" style="stroke:#181818;stroke-width:0.5;"/><text fill="#000000" font-family="sans-serif" font-size="14" lengthAdjust="spacing" textLength="69" x="215.5" y="358.5332">Stack Data</text></g><!--entity SS1--><g id="elem_SS1"><rect fill="#DDDDDD" height="37.6094" rx="2.5" ry="2.5" style="stroke:none;stroke-width:0.5;" width="118" x="37" y="324.5"/><path d="M22,324.5 L34.5,324.5 A2.5,2.5 0 0 1 37,327 L37,359.6094 A2.5,2.5 0 0 0 39.5,362.1094 L152.5,362.1094 A2.5,2.5 0 0 0 155,359.6094 L155,327 A2.5,2.5 0 0 1 157.5,324.5 L170,324.5 " fill="none" style="stroke:#181818;stroke-width:0.5;"/><text fill="#000000" font-family="sans-serif" font-size="14" lengthAdjust="spacing" textLength="98" x="47" y="349.0332">Service Stack 1</text></g><!--entity CLI--><g id="elem_CLI"><ellipse cx="449" cy="128" fill="#F1F1F1" rx="8" ry="8" style="stroke:#181818;stroke-width:0.5;"/><text fill="#000000" font-family="sans-serif" font-size="14" lengthAdjust="spacing" textLength="21" x="438.5" y="159.5332">CLI</text></g><!--entity REST--><g id="elem_REST"><ellipse cx="199" cy="14" fill="#F1F1F1" rx="8" ry="8" style="stroke:#181818;stroke-width:0.5;"/><text fill="#000000" font-family="sans-serif" font-size="14" lengthAdjust="spacing" textLength="37" x="180.5" y="45.5332">REST</text></g><!--entity WebSocket--><g id="elem_WebSocket"><ellipse cx="305" cy="14" fill="#F1F1F1" rx="8" ry="8" style="stroke:#181818;stroke-width:0.5;"/><text fill="#000000" font-family="sans-serif" font-size="14" lengthAdjust="spacing" textLength="72" x="269" y="45.5332">WebSocket</text></g><!--entity Web--><g id="elem_Web"><ellipse cx="411" cy="14" fill="#F1F1F1" rx="8" ry="8" style="stroke:#181818;stroke-width:0.5;"/><text fill="#000000" font-family="sans-serif" font-size="14" lengthAdjust="spacing" textLength="29" x="396.5" y="45.5332">Web</text></g><!--link C2 to sd--><g id="link_C2_sd"><path d="M212.53,260.15 C220.59,277.86 231.65,302.16 239.66,319.76 " fill="none" id="C2-sd" style="stroke:#181818;stroke-width:1.0;stroke-dasharray:7.0,7.0;"/></g><!--link Cn to sd--><g id="link_Cn_sd"><path d="M328.84,260.15 C311.88,277.86 288.62,302.16 271.77,319.76 " fill="none" id="Cn-sd" style="stroke:#181818;stroke-width:1.0;stroke-dasharray:7.0,7.0;"/></g><!--link C1 to sd--><g id="link_C1_sd"><path d="M106.38,260.15 C137.38,277.92 179.93,302.32 210.66,319.94 " fill="none" id="C1-sd" style="stroke:#181818;stroke-width:1.0;stroke-dasharray:7.0,7.0;"/></g><!--link C1 to SS1--><g id="link_C1_SS1"><path d="M72.58,260.15 C78.07,279.44 84.129,300.7688 89.179,318.5288 " fill="none" id="C1-to-SS1" style="stroke:#181818;stroke-width:1.0;"/><polygon fill="#181818" points="90.82,324.3,92.2059,314.5491,89.4525,319.4906,84.511,316.7372,90.82,324.3" style="stroke:#181818;stroke-width:1.0;"/></g><!--link Admin to C1--><g id="link_Admin_C1"><path d="M253.14,152 C210.31,171 155.6643,195.2264 115.2343,213.1664 " fill="none" id="Admin-to-C1" style="stroke:#181818;stroke-width:1.0;"/><polygon fill="#181818" points="109.75,215.6,119.5989,215.6059,114.3203,213.572,116.3541,208.2934,109.75,215.6" style="stroke:#181818;stroke-width:1.0;"/></g><!--link Admin to C2--><g id="link_Admin_C2"><path d="M282.65,152 C265.49,169.66 246.0816,189.6372 228.8416,207.3772 " fill="none" id="Admin-to-C2" style="stroke:#181818;stroke-width:1.0;"/><polygon fill="#181818" points="224.66,211.68,233.8009,208.0134,228.1446,208.0943,228.0638,202.438,224.66,211.68" style="stroke:#181818;stroke-width:1.0;"/></g><!--link Admin to Cn--><g id="link_Admin_Cn"><path d="M314.98,152 C322.64,169.66 330.791,188.4361 338.491,206.1761 " fill="none" id="Admin-to-Cn" style="stroke:#181818;stroke-width:1.0;"/><polygon fill="#181818" points="340.88,211.68,340.9658,201.8315,338.8892,207.0934,333.6273,205.0168,340.88,211.68" style="stroke:#181818;stroke-width:1.0;"/></g><!--link Admin to CLI--><g id="link_Admin_CLI"><path d="M377.56,128 C398.31,128 419.05,128 439.79,128 " fill="none" id="Admin-CLI" style="stroke:#181818;stroke-width:1.0;"/></g><!--link REST to Admin--><g id="link_REST_Admin"><path d="M206.62,23.05 C222.38,39.71 259.07,78.47 282.92,103.67 " fill="none" id="REST-Admin" style="stroke:#181818;stroke-width:1.0;"/></g><!--link WebSocket to Admin--><g id="link_WebSocket_Admin"><path d="M305,23.05 C305,39.71 305,78.47 305,103.67 " fill="none" id="WebSocket-Admin" style="stroke:#181818;stroke-width:1.0;"/></g><!--link Web to Admin--><g id="link_Web_Admin"><path d="M403.38,23.05 C387.62,39.71 350.93,78.47 327.08,103.67 " fill="none" id="Web-Admin" style="stroke:#181818;stroke-width:1.0;"/></g><!--SRC=[RP713e8m38RlUufcd3611p0nwC74apDw7gFg8XO3LG_6TtSR863SgV_VR-LdjSHO7xL1aDbcBOKTz7QbTXFZWBcgp0NvrvMYOMqk81NM3-jCvQM4gBIdC-Vb7U4bJ7MzLOJ4079HN2r1LX5hIrXBq0q4RqJ9C0IIqCmIY8fmniHt0AGjbKBqF5l6_n2r4FLGeLddka6VszJ8iDVtaWFqyDKO25cMJeTsK_Gp_lrubrcf8VHRk6opcRietFUx8XcAE9vxNhGFurKs4UbOa72hWhZ48yVGlPjVbklsyhkggJUe3m00]--></g></svg>