<?xml version="1.0" encoding="UTF-8" standalone="no"?><svg xmlns="http://www.w3.org/2000/svg" xmlns:xlink="http://www.w3.org/1999/xlink" contentScriptType="application/ecmascript" contentStyleType="text/css" height="392px" preserveAspectRatio="none" style="width:1244px;height:392px;" version="1.1" viewBox="0 0 1244 392" width="1244px" zoomAndPan="magnify"><defs><filter height="300%" id="ff42519vejhkh" width="300%" x="-1" y="-1"><feGaussianBlur result="blurOut" stdDeviation="2.0"/><feColorMatrix in="blurOut" result="blurOut2" type="matrix" values="0 0 0 0 0 0 0 0 0 0 0 0 0 0 0 0 0 0 .4 0"/><feOffset dx="4.0" dy="4.0" in="blurOut2" result="blurOut3"/><feBlend in="SourceGraphic" in2="blurOut3" mode="normal"/></filter></defs><g><!--cluster Private/Public Cloud--><path d="M39.4401,75.5942 C48.0203,64.3321 56.0052,64.7958 62.844,77.3085 C70.2434,65.1063 81.8802,67.9646 88.0705,78.6417 C96.5124,65.6365 105.9405,65.0431 114.8582,78.1537 C120.8948,63.0623 132.1478,63.8094 141.9589,74.1279 C150.6456,64.5452 158.1327,64.6793 164.1255,76.8704 C169.9603,62.1576 179.7482,63.648 189.1213,73.23 C198.2546,59.7114 210.5539,59.4725 217.3249,75.486 C225.2154,64.2228 232.587,60.7254 242.2994,73.601 C250.8216,64.0444 259.7699,64.4355 265.1337,76.8792 C274.3311,63.0366 283.8445,63.1667 293.153,76.7658 C300.7265,64.1313 308.4856,65.4799 317.1732,75.5891 C326.048,62.6076 336.7299,66.5988 342.701,78.5608 C348.8924,67.798 359.2522,67.6382 366.1452,77.7737 C378.74,66.3863 389.3071,63.9775 398,82 C399.068,81.4199 399.8802,82.1854 399.8415,83.2437 C415.8822,89.9976 416.7044,101.5725 402.48,111.1844 C417.0911,115.672 416.9873,128.1452 407.4984,137.2693 C420.876,145.8041 422.7242,159.2165 407.5062,167.7587 C420.7031,173.1269 422.2422,181.4887 412.3552,191.5598 C426.7775,199.4733 427.9528,210.4749 414.7905,220.6941 C424.3935,231.35 424.3813,240.0983 409.7379,245.8925 C424.3807,255.5166 421.9269,268.7344 406.0224,274.3735 C418.5001,283.9327 418.2457,294.7231 404.5199,302.9023 C415.3835,310.0073 414.8314,321.2386 402.714,326.5916 C416.0754,343.7511 411.2252,354.617 391,360 C392.7434,359.8633 393.3913,360.7178 392.6994,362.3455 C384.8249,373.629 376.4844,371.9459 369.5979,361.3045 C363.9763,373.596 352.7977,376.5259 343.2871,365.7379 C336.7804,376.6558 325.6072,376.3374 318.7321,366.1668 C308.9929,377.0479 299.8172,376.5997 291.3375,364.6553 C285.4412,378.0041 278.025,379.0767 268.6097,367.9189 C260.7073,378.1942 250.98,378.7904 243.8676,367.0317 C234.7425,378.4604 227.0033,377.235 218.0777,366.7964 C211.6837,380.4251 197.4513,380.9301 189.1027,369.0135 C179.9034,378.9555 171.4826,379.7751 164.7772,366.4105 C157.8908,378.1144 148.5781,375.481 142.6991,365.39 C134.1408,377.9699 125.8299,376.4858 117.1118,365.564 C109.02,375.28 97.5928,375.7965 92.3411,362.5061 C85.1468,374.2807 76.7305,375.4523 66.9367,365.5532 C52.3894,377.1881 34.1447,371.9738 30,353 C31.8949,353.319 31.9272,354.6022 31.0528,355.9197 C20.9214,348.3775 20.2807,336.1939 32.6549,330.0451 C19.5536,323.3557 17.7204,310.5405 29.2718,300.9815 C17.0121,291.0579 14.2624,281.5953 29.5237,271.9102 C16.7418,265.4356 16.3655,258.3198 26.9888,249.2294 C9.8272,239.8173 9.7098,230.575 24.6904,218.7399 C11.1731,211.6294 10.6134,202.89 23.373,194.3596 C8.7222,183.3523 13.6832,170.3268 27.7886,163.424 C16.8573,156.1021 17.2536,144.6667 30.5322,140.2056 C17.0041,130.5141 17.5724,120.992 30.254,111.0504 C13.5148,98.5878 20.3814,81.2205 37,75 C37.9098,74.0025 39.1248,74.1505 39.4401,75.5942 " fill="#CCFFFF" style="stroke: #000000; stroke-width: 1.5;"/><text fill="#000000" font-family="sans-serif" font-size="14" font-weight="bold" lengthAdjust="spacingAndGlyphs" textLength="142" x="143" y="94.5332">Private/Public Cloud</text><!--cluster Aggregated Edge Node 1--><polygon fill="#ADD8E6" filter="url(#ff42519vejhkh)" points="430,180,440,170,814,170,814,358,804,368,430,368,430,180" style="stroke: #000000; stroke-width: 1.5;"/><line style="stroke: #000000; stroke-width: 1.5;" x1="804" x2="813" y1="180" y2="171"/><line style="stroke: #000000; stroke-width: 1.5;" x1="430" x2="804" y1="180" y2="180"/><line style="stroke: #000000; stroke-width: 1.5;" x1="804" x2="804" y1="180" y2="368"/><text fill="#000000" font-family="sans-serif" font-size="14" font-weight="bold" lengthAdjust="spacingAndGlyphs" textLength="175" x="530.5" y="197.5332">Aggregated Edge Node 1</text><!--cluster Edge Node 1--><polygon fill="#B0C4DE" filter="url(#ff42519vejhkh)" points="838,283,848,273,1222,273,1222,358,1212,368,838,368,838,283" style="stroke: #000000; stroke-width: 1.5;"/><line style="stroke: #000000; stroke-width: 1.5;" x1="1212" x2="1221" y1="283" y2="274"/><line style="stroke: #000000; stroke-width: 1.5;" x1="838" x2="1212" y1="283" y2="283"/><line style="stroke: #000000; stroke-width: 1.5;" x1="1212" x2="1212" y1="283" y2="368"/><text fill="#000000" font-family="sans-serif" font-size="14" font-weight="bold" lengthAdjust="spacingAndGlyphs" textLength="89" x="981.5" y="300.5332">Edge Node 1</text><!--entity WO--><rect fill="#FEFECE" filter="url(#ff42519vejhkh)" height="37.6094" style="stroke: #000000; stroke-width: 1.5;" width="161" x="226.5" y="103"/><text fill="#000000" font-family="sans-serif" font-size="14" lengthAdjust="spacingAndGlyphs" textLength="141" x="236.5" y="127.5332">Workflow Orchestrator</text><!--entity CO--><rect fill="#FEFECE" filter="url(#ff42519vejhkh)" height="37.6094" style="stroke: #000000; stroke-width: 1.5;" width="166" x="177" y="211"/><text fill="#000000" font-family="sans-serif" font-size="14" lengthAdjust="spacingAndGlyphs" textLength="146" x="187" y="235.5332">Container Orchestrator</text><!--entity C1--><rect fill="#FFFFFF" filter="url(#ff42519vejhkh)" height="37.6094" style="stroke: #000000; stroke-width: 1.5;" width="94" x="38" y="314"/><text fill="#000000" font-family="sans-serif" font-size="14" lengthAdjust="spacingAndGlyphs" textLength="74" x="48" y="338.5332">Container 1</text><!--entity Cr--><rect fill="#FFFFFF" filter="url(#ff42519vejhkh)" height="37.6094" style="stroke: #000000; stroke-width: 1.5;" width="94" x="167" y="314"/><text fill="#000000" font-family="sans-serif" font-size="14" lengthAdjust="spacingAndGlyphs" textLength="74" x="177" y="338.5332">Container 2</text><!--entity Cn--><rect fill="#FFFFFF" filter="url(#ff42519vejhkh)" height="37.6094" style="stroke: #000000; stroke-width: 1.5;" width="94" x="296" y="314"/><text fill="#000000" font-family="sans-serif" font-size="14" lengthAdjust="spacingAndGlyphs" textLength="74" x="306" y="338.5332">Container n</text><!--entity AENCO--><rect fill="#FEFECE" filter="url(#ff42519vejhkh)" height="37.6094" style="stroke: #000000; stroke-width: 1.5;" width="166" x="632" y="211"/><text fill="#000000" font-family="sans-serif" font-size="14" lengthAdjust="spacingAndGlyphs" textLength="146" x="642" y="235.5332">Container Orchestrator</text><!--entity AENC1--><rect fill="#FFFFFF" filter="url(#ff42519vejhkh)" height="37.6094" style="stroke: #000000; stroke-width: 1.5;" width="94" x="446" y="314"/><text fill="#000000" font-family="sans-serif" font-size="14" lengthAdjust="spacingAndGlyphs" textLength="74" x="456" y="338.5332">Container 1</text><!--entity AENCr--><rect fill="#FFFFFF" filter="url(#ff42519vejhkh)" height="37.6094" style="stroke: #000000; stroke-width: 1.5;" width="94" x="575" y="314"/><text fill="#000000" font-family="sans-serif" font-size="14" lengthAdjust="spacingAndGlyphs" textLength="74" x="585" y="338.5332">Container 2</text><!--entity AENCn--><rect fill="#FFFFFF" filter="url(#ff42519vejhkh)" height="37.6094" style="stroke: #000000; stroke-width: 1.5;" width="94" x="704" y="314"/><text fill="#000000" font-family="sans-serif" font-size="14" lengthAdjust="spacingAndGlyphs" textLength="74" x="714" y="338.5332">Container n</text><!--entity AEN2--><polygon fill="#ADD8E6" filter="url(#ff42519vejhkh)" points="423,108,433,98,623,98,623,135.6094,613,145.6094,423,145.6094,423,108" style="stroke: #000000; stroke-width: 1.5;"/><line style="stroke: #000000; stroke-width: 1.5;" x1="613" x2="622" y1="108" y2="99"/><line style="stroke: #000000; stroke-width: 1.5;" x1="423" x2="613" y1="108" y2="108"/><line style="stroke: #000000; stroke-width: 1.5;" x1="613" x2="613" y1="108" y2="145.6094"/><text fill="#000000" font-family="sans-serif" font-size="14" lengthAdjust="spacingAndGlyphs" textLength="160" x="438" y="132.5332">Aggregated Edge Node 2</text><!--entity AEN3--><polygon fill="#ADD8E6" filter="url(#ff42519vejhkh)" points="658,108,668,98,858,98,858,135.6094,848,145.6094,658,145.6094,658,108" style="stroke: #000000; stroke-width: 1.5;"/><line style="stroke: #000000; stroke-width: 1.5;" x1="848" x2="857" y1="108" y2="99"/><line style="stroke: #000000; stroke-width: 1.5;" x1="658" x2="848" y1="108" y2="108"/><line style="stroke: #000000; stroke-width: 1.5;" x1="848" x2="848" y1="108" y2="145.6094"/><text fill="#000000" font-family="sans-serif" font-size="14" lengthAdjust="spacingAndGlyphs" textLength="160" x="673" y="132.5332">Aggregated Edge Node n</text><!--entity ENC1--><rect fill="#FFFFFF" filter="url(#ff42519vejhkh)" height="37.6094" style="stroke: #000000; stroke-width: 1.5;" width="94" x="1112" y="314"/><text fill="#000000" font-family="sans-serif" font-size="14" lengthAdjust="spacingAndGlyphs" textLength="74" x="1122" y="338.5332">Container 1</text><!--entity ENCr--><rect fill="#FFFFFF" filter="url(#ff42519vejhkh)" height="37.6094" style="stroke: #000000; stroke-width: 1.5;" width="94" x="983" y="314"/><text fill="#000000" font-family="sans-serif" font-size="14" lengthAdjust="spacingAndGlyphs" textLength="74" x="993" y="338.5332">Container 2</text><!--entity ENCn--><rect fill="#FFFFFF" filter="url(#ff42519vejhkh)" height="37.6094" style="stroke: #000000; stroke-width: 1.5;" width="94" x="854" y="314"/><text fill="#000000" font-family="sans-serif" font-size="14" lengthAdjust="spacingAndGlyphs" textLength="74" x="864" y="338.5332">Container n</text><!--entity EN2--><polygon fill="#B0C4DE" filter="url(#ff42519vejhkh)" points="833,216,843,206,955,206,955,243.6094,945,253.6094,833,253.6094,833,216" style="stroke: #000000; stroke-width: 1.5;"/><line style="stroke: #000000; stroke-width: 1.5;" x1="945" x2="954" y1="216" y2="207"/><line style="stroke: #000000; stroke-width: 1.5;" x1="833" x2="945" y1="216" y2="216"/><line style="stroke: #000000; stroke-width: 1.5;" x1="945" x2="945" y1="216" y2="253.6094"/><text fill="#000000" font-family="sans-serif" font-size="14" lengthAdjust="spacingAndGlyphs" textLength="82" x="848" y="240.5332">Edge Node 2</text><!--entity ENn--><polygon fill="#B0C4DE" filter="url(#ff42519vejhkh)" points="990,216,1000,206,1112,206,1112,243.6094,1102,253.6094,990,253.6094,990,216" style="stroke: #000000; stroke-width: 1.5;"/><line style="stroke: #000000; stroke-width: 1.5;" x1="1102" x2="1111" y1="216" y2="207"/><line style="stroke: #000000; stroke-width: 1.5;" x1="990" x2="1102" y1="216" y2="216"/><line style="stroke: #000000; stroke-width: 1.5;" x1="1102" x2="1102" y1="216" y2="253.6094"/><text fill="#000000" font-family="sans-serif" font-size="14" lengthAdjust="spacingAndGlyphs" textLength="82" x="1005" y="240.5332">Edge Node n</text><!--link WO to CO--><path d="M298.813,141.464 C290.861,159.399 278.764,186.681 270.192,206.014 " fill="none" id="WO-CO" style="stroke: #A80036; stroke-width: 1.0;"/><polygon fill="#A80036" points="268.093,210.748,275.3962,204.1402,270.1187,206.1767,268.0821,200.8991,268.093,210.748" style="stroke: #A80036; stroke-width: 1.0;"/><!--link CO to C1--><path d="M182.533,249.107 C170.857,253.41 159.292,258.651 149,265 C130.104,276.657 112.98,295.2204 101.2096,309.8542 " fill="none" id="CO-C1" style="stroke: #A80036; stroke-width: 1.0;"/><polygon fill="#A80036" points="98.0347,313.8684,106.7551,309.2907,101.1364,309.9467,100.4804,304.328,98.0347,313.8684" style="stroke: #A80036; stroke-width: 1.0;"/><!--link CO to Cr--><path d="M251.776,249.057 C244.17,265.757 232.825,290.6665 224.554,308.8279 " fill="none" id="CO-Cr" style="stroke: #A80036; stroke-width: 1.0;"/><polygon fill="#A80036" points="222.308,313.759,229.6787,307.2266,224.3805,309.2088,222.3984,303.9106,222.308,313.759" style="stroke: #A80036; stroke-width: 1.0;"/><!--link CO to Cn--><path d="M274.839,249.057 C288.797,266.043 309.735,291.5205 324.718,309.7533 " fill="none" id="CO-Cn" style="stroke: #A80036; stroke-width: 1.0;"/><polygon fill="#A80036" points="328.01,313.759,325.386,304.2661,324.8354,309.8961,319.2054,309.3455,328.01,313.759" style="stroke: #A80036; stroke-width: 1.0;"/><!--link AENCO to AENC1--><path d="M631.873,239.647 C607.017,244.649 580.431,252.544 558,265 C538.315,275.931 520.851,294.7321 508.996,309.6406 " fill="none" id="AENCO-AENC1" style="stroke: #A80036; stroke-width: 1.0;"/><polygon fill="#A80036" points="505.804,313.7326,514.4933,309.0962,508.8792,309.7901,508.1853,304.176,505.804,313.7326" style="stroke: #A80036; stroke-width: 1.0;"/><!--link AENCO to AENCr--><path d="M698.373,249.057 C682.733,266.043 659.273,291.5205 642.485,309.7533 " fill="none" id="AENCO-AENCr" style="stroke: #A80036; stroke-width: 1.0;"/><polygon fill="#A80036" points="638.796,313.759,647.8355,309.849,642.1834,310.0813,641.9511,304.4292,638.796,313.759" style="stroke: #A80036; stroke-width: 1.0;"/><!--link AENCO to AENCn--><path d="M721.436,249.057 C727.389,265.757 736.267,290.6665 742.741,308.8279 " fill="none" id="AENCO-AENCn" style="stroke: #A80036; stroke-width: 1.0;"/><polygon fill="#A80036" points="744.498,313.759,745.2443,303.9385,742.8194,309.0492,737.7086,306.6243,744.498,313.759" style="stroke: #A80036; stroke-width: 1.0;"/><!--link WO to AENCO--><path d="M376.674,141.102 C450.167,160.195 565.532,190.168 640.72,209.702 " fill="none" id="WO-AENCO" style="stroke: #A80036; stroke-width: 1.0;"/><polygon fill="#A80036" points="645.613,210.973,637.9081,204.8383,640.7737,209.7157,635.8963,212.5813,645.613,210.973" style="stroke: #A80036; stroke-width: 1.0;"/><!--link WO to AEN2--><path d="M387.578,122 C397.564,122 407.549,122 417.534,122 " fill="none" id="WO-AEN2" style="stroke: #A80036; stroke-width: 1.0;"/><polygon fill="#A80036" points="422.756,122,413.756,118,417.756,122,413.756,126,422.756,122" style="stroke: #A80036; stroke-width: 1.0;"/><!--link WO to AEN3--><path d="M323.013,102.891 C343.395,80.215 380.982,43.637 422.5,29 C506.751,-0.703 538.222,2.388 623.5,29 C664.401,41.764 703.824,71.802 729.296,94.31 " fill="none" id="WO-AEN3" style="stroke: #A80036; stroke-width: 1.0;"/><polygon fill="#A80036" points="733.262,97.854,729.2158,88.8747,729.5335,94.5226,723.8856,94.8403,733.262,97.854" style="stroke: #A80036; stroke-width: 1.0;"/><!--link AENCO to ENC1--><path d="M786.706,249.035 C796.499,250.997 806.462,252.737 816,254 C846.756,258.073 1066.72,252.241 1095,265 C1115.77,274.373 1133.16,293.893 1144.54,309.4575 " fill="none" id="AENCO-ENC1" style="stroke: #A80036; stroke-width: 1.0;"/><polygon fill="#A80036" points="1147.59,313.7308,1145.6201,304.081,1144.6865,309.6602,1139.1072,308.7266,1147.59,313.7308" style="stroke: #A80036; stroke-width: 1.0;"/><!--link AENCO to ENCr--><path d="M788.122,249.014 C797.464,250.913 806.929,252.643 816,254 C849.055,258.947 935.771,250.741 966,265 C986.613,274.723 1004.012,294.2053 1015.44,309.6667 " fill="none" id="AENCO-ENCr" style="stroke: #A80036; stroke-width: 1.0;"/><polygon fill="#A80036" points="1018.51,313.9095,1016.4887,304.2703,1015.5848,309.8545,1010.0006,308.9506,1018.51,313.9095" style="stroke: #A80036; stroke-width: 1.0;"/><!--link AENCO to ENCn--><path d="M777.577,249.028 C789.962,253.55 802.637,258.887 814,265 C837.061,277.405 860.422,295.7875 877.122,310.1609 " fill="none" id="AENCO-ENCn" style="stroke: #A80036; stroke-width: 1.0;"/><polygon fill="#A80036" points="881.22,313.7228,877.0513,304.7997,877.4462,310.4428,871.8032,310.8377,881.22,313.7228" style="stroke: #A80036; stroke-width: 1.0;"/><!--link AENCO to EN2--><path d="M798.207,230 C807.979,230 817.751,230 827.523,230 " fill="none" id="AENCO-EN2" style="stroke: #A80036; stroke-width: 1.0;"/><polygon fill="#A80036" points="832.633,230,823.633,226,827.633,230,823.633,234,832.633,230" style="stroke: #A80036; stroke-width: 1.0;"/><!--link AENCO to ENn--><path d="M734.739,210.913 C756.718,191.32 794.335,162.528 833.5,154 C859.99,148.232 929.01,148.232 955.5,154 C963.856,155.819 965.813,157.364 973,162 C990.939,173.572 1009.03,189.052 1023.27,202.319 " fill="none" id="AENCO-ENn" style="stroke: #A80036; stroke-width: 1.0;"/><polygon fill="#A80036" points="1027.18,205.997,1023.3505,196.9231,1023.5325,202.5771,1017.8786,202.7591,1027.18,205.997" style="stroke: #A80036; stroke-width: 1.0;"/><!--
@startuml

Cloud "Private/Public Cloud" #ccffff {
    rectangle "Workflow Orchestrator" as WO
    rectangle "Container Orchestrator" as CO
    rectangle "Container 1" as C1 #white
    rectangle "Container 2" as Cr #white
    rectangle "Container n" as Cn #white
    WO - -> CO
    CO - -> C1
    CO - -> Cr
    CO - -> Cn
}

Node "Aggregated Edge Node 1" #lightblue {
    rectangle "Container Orchestrator" as AENCO
    rectangle "Container 1" as AENC1 #white
    rectangle "Container 2" as AENCr #white
    rectangle "Container n" as AENCn #white
    AENCO - -> AENC1
    AENCO - -> AENCr
    AENCO - -> AENCn
}
WO - -> AENCO

Node "Aggregated Edge Node 2" as AEN2 #lightblue {
}
WO ->  AEN2
Node "Aggregated Edge Node n" as AEN3 #lightblue {
}
WO ->  AEN3

Node "Edge Node 1" #lightsteelblue {
    rectangle "Container 1" as ENC1 #white
    rectangle "Container 2" as ENCr #white
    rectangle "Container n" as ENCn #white
    AENCO - -> ENC1
    AENCO - -> ENCr
    AENCO - -> ENCn
}
Node "Edge Node 2" as EN2 #lightsteelblue {
}
AENCO -> EN2
Node "Edge Node n" as ENn #lightsteelblue {
}
AENCO -> ENn

@enduml

PlantUML version 1.2019.05(Sat Apr 20 09:45:36 PDT 2019)
(GPL source distribution)
Java Runtime: Java(TM) SE Runtime Environment
JVM: Java HotSpot(TM) Client VM
Java Version: 1.8.0_271-b09
Operating System: Windows 10
OS Version: 10.0
Default Encoding: Cp1252
Language: en
Country: US
--></g></svg>