<?xml version="1.0" encoding="us-ascii" standalone="no"?><svg xmlns="http://www.w3.org/2000/svg" xmlns:xlink="http://www.w3.org/1999/xlink" contentStyleType="text/css" height="725px" preserveAspectRatio="none" style="width:811px;height:725px;background:#FFFFFF;" version="1.1" viewBox="0 0 811 725" width="811px" zoomAndPan="magnify"><defs/><g><!--cluster Sentient Agent Bundle Resources--><g id="cluster_Sentient Agent Bundle Resources"><path d="M8.5,6 L247.5,6 A3.75,3.75 0 0 1 250,8.5 L257,29.6094 L566.5,29.6094 A2.5,2.5 0 0 1 569,32.1094 L569,715.5 A2.5,2.5 0 0 1 566.5,718 L8.5,718 A2.5,2.5 0 0 1 6,715.5 L6,8.5 A2.5,2.5 0 0 1 8.5,6 " fill="#BBAAFF" style="stroke:#000000;stroke-width:1.5;"/><line style="stroke:#000000;stroke-width:1.5;" x1="6" x2="257" y1="29.6094" y2="29.6094"/><text fill="#000000" font-family="sans-serif" font-size="14" font-weight="bold" lengthAdjust="spacing" textLength="238" x="10" y="22.5332">Sentient Agent Bundle Resources</text></g><!--class i--><g id="elem_i"><rect codeLine="6" fill="#F1F1F1" height="241.7031" id="i" rx="2.5" ry="2.5" style="stroke:#181818;stroke-width:0.5;" width="245" x="307.5" y="42"/><ellipse cx="322.5" cy="58" fill="#B4A7E5" rx="11" ry="11" style="stroke:#181818;stroke-width:1.0;"/><path d="M323.4531,54.6406 L323.4531,61.2969 L325.1719,61.2969 Q325.7813,61.2969 326.0469,61.5313 Q326.3125,61.7656 326.3125,62.1563 Q326.3125,62.5313 326.0469,62.7656 Q325.7813,63 325.1719,63 L320.0313,63 Q319.4219,63 319.1563,62.7656 Q318.8906,62.5313 318.8906,62.1406 Q318.8906,61.7656 319.1563,61.5313 Q319.4219,61.2969 320.0313,61.2969 L321.75,61.2969 L321.75,54.6406 L320.0313,54.6406 Q319.4219,54.6406 319.1563,54.4063 Q318.8906,54.1719 318.8906,53.7813 Q318.8906,53.4063 319.1563,53.1719 Q319.4219,52.9375 320.0313,52.9375 L325.1719,52.9375 Q325.7813,52.9375 326.0469,53.1719 Q326.3125,53.4063 326.3125,53.7813 Q326.3125,54.1719 326.0469,54.4063 Q325.7813,54.6406 325.1719,54.6406 L323.4531,54.6406 Z " fill="#000000"/><text fill="#000000" font-family="sans-serif" font-size="14" font-style="italic" lengthAdjust="spacing" textLength="213" x="336.5" y="63.7285">Sentient Agent Bundle Resources</text><line style="stroke:#181818;stroke-width:0.5;" x1="308.5" x2="551.5" y1="74" y2="74"/><line style="stroke:#181818;stroke-width:0.5;" x1="308.5" x2="551.5" y1="82" y2="82"/><text fill="#000000" font-family="sans-serif" font-size="14" lengthAdjust="spacing" textLength="169" x="313.5" y="100.5332">/sabr/streampolicy create()</text><text fill="#000000" font-family="sans-serif" font-size="14" lengthAdjust="spacing" textLength="158" x="313.5" y="118.1426">/sabr/application/create()</text><text fill="#000000" font-family="sans-serif" font-size="14" lengthAdjust="spacing" textLength="123" x="313.5" y="135.752">/sabr/bundle/build()</text><text fill="#000000" font-family="sans-serif" font-size="14" lengthAdjust="spacing" textLength="133" x="313.5" y="153.3613">/sabr/bundle/create()</text><text fill="#000000" font-family="sans-serif" font-size="14" lengthAdjust="spacing" textLength="149" x="313.5" y="170.9707">/sabr/capability/create()</text><text fill="#000000" font-family="sans-serif" font-size="14" lengthAdjust="spacing" textLength="168" x="313.5" y="188.5801">/sabr/environment/create()</text><text fill="#000000" font-family="sans-serif" font-size="14" lengthAdjust="spacing" textLength="139" x="313.5" y="206.1895">/sabr/pulsar/streams()</text><text fill="#000000" font-family="sans-serif" font-size="14" lengthAdjust="spacing" textLength="119" x="313.5" y="223.7988">/sabr/pulsar/topic()</text><text fill="#000000" font-family="sans-serif" font-size="14" lengthAdjust="spacing" textLength="126" x="313.5" y="241.4082">/sabr/pulsar/topics()</text><text fill="#000000" font-family="sans-serif" font-size="14" lengthAdjust="spacing" textLength="138" x="313.5" y="259.0176">/sabr/sabundle/build()</text><text fill="#000000" font-family="sans-serif" font-size="14" lengthAdjust="spacing" textLength="169" x="313.5" y="276.627">/sabr/streampolicy/create()</text></g><!--entity Application Management Layer--><g id="elem_Application Management Layer"><rect fill="#FFFFFF" height="37.6094" rx="2.5" ry="2.5" style="stroke:#181818;stroke-width:0.5;" width="215" x="47.5" y="144"/><text fill="#000000" font-family="sans-serif" font-size="14" lengthAdjust="spacing" textLength="195" x="57.5" y="168.5332">Application Management Layer</text></g><!--entity Common Physical Layer--><g id="elem_Common Physical Layer"><rect fill="#FFFFFF" height="37.6094" rx="2.5" ry="2.5" style="stroke:#181818;stroke-width:0.5;" width="172" x="285" y="664"/><text fill="#000000" font-family="sans-serif" font-size="14" lengthAdjust="spacing" textLength="152" x="295" y="688.5332">Common Physical Layer</text></g><!--entity Distributed Information Management Layer--><g id="elem_Distributed Information Management Layer"><rect fill="#FFFFFF" height="37.6094" rx="2.5" ry="2.5" style="stroke:#181818;stroke-width:0.5;" width="288" x="159" y="356"/><text fill="#000000" font-family="sans-serif" font-size="14" lengthAdjust="spacing" textLength="268" x="169" y="380.5332">Distributed Information Management Layer</text></g><!--entity Identity Aspect--><g id="elem_Identity Aspect"><rect fill="#FFFFFF" height="37.6094" rx="2.5" ry="2.5" style="stroke:#181818;stroke-width:0.5;" width="112" x="441" y="466"/><text fill="#000000" font-family="sans-serif" font-size="14" lengthAdjust="spacing" textLength="92" x="451" y="490.5332">Identity Aspect</text></g><!--entity Security Aspect--><g id="elem_Security Aspect"><rect fill="#FFFFFF" height="37.6094" rx="2.5" ry="2.5" style="stroke:#181818;stroke-width:0.5;" width="118" x="22" y="466"/><text fill="#000000" font-family="sans-serif" font-size="14" lengthAdjust="spacing" textLength="98" x="32" y="490.5332">Security Aspect</text></g><!--entity Service Management Layer--><g id="elem_Service Management Layer"><rect fill="#FFFFFF" height="37.6094" rx="2.5" ry="2.5" style="stroke:#181818;stroke-width:0.5;" width="193" x="175.5" y="466"/><text fill="#000000" font-family="sans-serif" font-size="14" lengthAdjust="spacing" textLength="173" x="185.5" y="490.5332">Service Management Layer</text></g><!--entity Software Defined Infrastructure--><g id="elem_Software Defined Infrastructure"><rect fill="#FFFFFF" height="37.6094" rx="2.5" ry="2.5" style="stroke:#181818;stroke-width:0.5;" width="216" x="263" y="565"/><text fill="#000000" font-family="sans-serif" font-size="14" lengthAdjust="spacing" textLength="196" x="273" y="589.5332">Software Defined Infrastructure</text></g><!--entity REST--><g id="elem_REST"><ellipse cx="701" cy="375" fill="#F1F1F1" rx="8" ry="8" style="stroke:#181818;stroke-width:0.5;"/><text fill="#000000" font-family="sans-serif" font-size="14" lengthAdjust="spacing" textLength="37" x="682.5" y="406.5332">REST</text></g><!--entity Web--><g id="elem_Web"><ellipse cx="790" cy="375" fill="#F1F1F1" rx="8" ry="8" style="stroke:#181818;stroke-width:0.5;"/><text fill="#000000" font-family="sans-serif" font-size="14" lengthAdjust="spacing" textLength="29" x="775.5" y="406.5332">Web</text></g><!--entity CLI--><g id="elem_CLI"><ellipse cx="612" cy="375" fill="#F1F1F1" rx="8" ry="8" style="stroke:#181818;stroke-width:0.5;"/><text fill="#000000" font-family="sans-serif" font-size="14" lengthAdjust="spacing" textLength="21" x="601.5" y="406.5332">CLI</text></g><!--entity WebSocket--><g id="elem_WebSocket"><ellipse cx="648" cy="163" fill="#F1F1F1" rx="8" ry="8" style="stroke:#181818;stroke-width:0.5;"/><text fill="#000000" font-family="sans-serif" font-size="14" lengthAdjust="spacing" textLength="72" x="612" y="194.5332">WebSocket</text></g><!--link i to Web--><g id="link_i_Web"><path codeLine="28" d="M552.58,243.18 C575.41,257.19 599.25,271.34 622,284 C675.67,313.87 692.7,314.48 746,345 C758.39,352.09 772.02,361.31 780.77,367.43 " fill="none" id="i-Web" style="stroke:#181818;stroke-width:1.0;"/></g><!--link i to CLI--><g id="link_i_CLI"><path codeLine="29" d="M534.02,284.03 C563.96,318.57 591.98,350.9 604.75,365.64 " fill="none" id="i-CLI" style="stroke:#181818;stroke-width:1.0;"/></g><!--link i to REST--><g id="link_i_REST"><path codeLine="30" d="M552.81,259.17 C609.67,303.23 669.54,349.62 691.89,366.94 " fill="none" id="i-REST" style="stroke:#181818;stroke-width:1.0;"/></g><!--link i to WebSocket--><g id="link_i_WebSocket"><path codeLine="31" d="M552.7,163 C588.91,163 623.07,163 638.85,163 " fill="none" id="i-WebSocket" style="stroke:#181818;stroke-width:1.0;"/><polygon fill="#000000" points="569.75,151.1758,578.7951,154.1147,578.7951,148.2369,569.75,151.1758" style="stroke:#000000;stroke-width:1.0;"/><text fill="#000000" font-family="sans-serif" font-size="13" lengthAdjust="spacing" textLength="37" x="583.75" y="156.4951">events</text></g><!--link Application Management Layer to Distributed Information Management Layer--><g id="link_Application Management Layer_Distributed Information Management Layer"><path codeLine="57" d="M167.88,182.27 C195.94,222.08 258.8633,311.3758 286.8033,351.0158 " fill="none" id="Application Management Layer-to-Distributed Information Management Layer" style="stroke:#181818;stroke-width:1.0;"/><polygon fill="#181818" points="290.26,355.92,288.3444,346.2592,287.3794,351.8332,281.8055,350.8682,290.26,355.92" style="stroke:#181818;stroke-width:1.0;"/></g><!--link Application Management Layer to Service Management Layer--><g id="link_Application Management Layer_Service Management Layer"><path codeLine="59" d="M147.86,182.11 C132.43,224.36 100.61,331.41 142,405 C158.25,433.89 184.327,451.0035 212.277,463.4235 " fill="none" id="Application Management Layer-to-Service Management Layer" style="stroke:#181818;stroke-width:1.0;"/><polygon fill="#181818" points="217.76,465.86,211.1598,458.5499,213.1908,463.8296,207.9111,465.8607,217.76,465.86" style="stroke:#181818;stroke-width:1.0;"/></g><!--link Application Management Layer to Security Aspect--><g id="link_Application Management Layer_Security Aspect"><path codeLine="61" d="M149.5,182.36 C141.18,210.52 125.17,266.15 114,314 C101.19,368.9 90.4571,428.6568 85.0871,459.8768 " fill="none" id="Application Management Layer-to-Security Aspect" style="stroke:#181818;stroke-width:1.0;"/><polygon fill="#181818" points="84.07,465.79,89.5378,457.5983,84.9176,460.8624,81.6535,456.2422,84.07,465.79" style="stroke:#181818;stroke-width:1.0;"/></g><!--link Application Management Layer to Identity Aspect--><g id="link_Application Management Layer_Identity Aspect"><path codeLine="63" d="M171.16,182.32 C194.88,208.23 241.6,255.57 290,284 C361.02,325.71 410.02,283.67 465,345 C495.58,379.11 498.7993,430.5114 498.1693,459.7314 " fill="none" id="Application Management Layer-to-Identity Aspect" style="stroke:#181818;stroke-width:1.0;"/><polygon fill="#181818" points="498.04,465.73,502.2331,456.8183,498.1478,460.7312,494.2349,456.6459,498.04,465.73" style="stroke:#181818;stroke-width:1.0;"/></g><!--link Distributed Information Management Layer to Software Defined Infrastructure--><g id="link_Distributed Information Management Layer_Software Defined Infrastructure"><path codeLine="65" d="M327.94,394.24 C347.9,410.51 374.4,436.3 386,466 C398.97,499.19 389.4695,535.6856 380.7095,559.2656 " fill="none" id="Distributed Information Management Layer-to-Software Defined Infrastructure" style="stroke:#181818;stroke-width:1.0;"/><polygon fill="#181818" points="378.62,564.89,385.5038,557.8464,380.3612,560.203,378.0046,555.0604,378.62,564.89" style="stroke:#181818;stroke-width:1.0;"/></g><!--link Distributed Information Management Layer to Service Management Layer--><g id="link_Distributed Information Management Layer_Service Management Layer"><path codeLine="67" d="M287.89,394.32 C278.27,414.3 269.7083,440.1042 267.9183,459.9742 " fill="none" id="Distributed Information Management Layer-to-Service Management Layer" style="stroke:#181818;stroke-width:1.0;"/><polygon fill="#181818" points="267.38,465.95,272.1714,457.3452,267.8286,460.9702,264.2036,456.6274,267.38,465.95" style="stroke:#181818;stroke-width:1.0;"/></g><!--link Service Management Layer to Distributed Information Management Layer--><g id="link_Service Management Layer_Distributed Information Management Layer"><path codeLine="75" d="M287.56,465.95 C297.41,446.08 306.0621,420.2801 307.6921,400.3001 " fill="none" id="Service Management Layer-to-Distributed Information Management Layer" style="stroke:#181818;stroke-width:1.0;"/><polygon fill="#181818" points="308.18,394.32,303.4614,402.965,307.7734,399.3034,311.435,403.6154,308.18,394.32" style="stroke:#181818;stroke-width:1.0;"/></g><!--link Distributed Information Management Layer to Security Aspect--><g id="link_Distributed Information Management Layer_Security Aspect"><path codeLine="69" d="M265.84,394.08 C224.86,414.01 164.7054,443.2753 123.6754,463.2353 " fill="none" id="Distributed Information Management Layer-to-Security Aspect" style="stroke:#181818;stroke-width:1.0;"/><polygon fill="#181818" points="118.28,465.86,128.123,465.5199,122.7762,463.6727,124.6233,458.3259,118.28,465.86" style="stroke:#181818;stroke-width:1.0;"/></g><!--link Distributed Information Management Layer to Identity Aspect--><g id="link_Distributed Information Management Layer_Identity Aspect"><path codeLine="71" d="M338.21,394.2 C360.15,405.67 388.87,420.91 414,435 C431.81,444.98 446.3396,453.5022 462.0696,462.9022 " fill="none" id="Distributed Information Management Layer-to-Identity Aspect" style="stroke:#181818;stroke-width:1.0;"/><polygon fill="#181818" points="467.22,465.98,461.5462,457.9296,462.928,463.4151,457.4425,464.7969,467.22,465.98" style="stroke:#181818;stroke-width:1.0;"/></g><!--link Service Management Layer to Software Defined Infrastructure--><g id="link_Service Management Layer_Software Defined Infrastructure"><path codeLine="73" d="M290.62,504.24 C308.32,521.59 330.5051,543.32 348.1751,560.64 " fill="none" id="Service Management Layer-to-Software Defined Infrastructure" style="stroke:#181818;stroke-width:1.0;"/><polygon fill="#181818" points="352.46,564.84,348.8327,555.6834,348.8893,561.34,343.2327,561.3966,352.46,564.84" style="stroke:#181818;stroke-width:1.0;"/></g><!--link Software Defined Infrastructure to Common Physical Layer--><g id="link_Software Defined Infrastructure_Common Physical Layer"><path codeLine="77" d="M371,603.24 C371,620.59 371,640.52 371,657.84 " fill="none" id="Software Defined Infrastructure-to-Common Physical Layer" style="stroke:#181818;stroke-width:1.0;"/><polygon fill="#181818" points="371,663.84,375,654.84,371,658.84,367,654.84,371,663.84" style="stroke:#181818;stroke-width:1.0;"/></g><!--SRC=[fLHDJ-im4BpxLwpAXNU8UkU0r0SSAe6421BdZRCfAnBRifrM4Uf_PvEgfKLjFi1IDhOrC_QErtQeFt15C4l9H9OF5gis_gzDNXAyKB2rrnHcS9LbY4K1dqg1D3QHV85w31K3iF1QMXVsRHumy_CGFM7bRCcw0ItzIDV_pk3GEO5WP6lcFR2iMrv-NEPzW1u9ZGupBZasVIWoQ_RML99p7ypLPS1zbg4F4grZFGWuBo5XAEzZdqytt8MjsYgbsUlsx1xIrtt_ZR9zz-vnUJIRMlr1KIc69BSRatJ8mw357WQTte42IKb5J81lWDRYNe1RfTnl2b5vqX7DIW2pnNTvm1CQqMfF1Xwn8I-apJj74ixsX7Hdgqhmp-zD46uvWBvdyP2pEb8EIrDONqrSRfctoSK65i79x4LSIhhset1-pN85HsyWjKNSe2UufuBDBWsFabMjO-tfbDTMnO2jIN8xmPRlOXiZUp6vgJAdNavZ_pon8_RuQjZjOy3wFoYFC6gov4NJ9Yhr67YvUgSQDg3qcm8Tl2cTyldtOoSZDqXz0G00]--></g></svg>