<?xml version="1.0" encoding="UTF-8" standalone="no"?><svg xmlns="http://www.w3.org/2000/svg" xmlns:xlink="http://www.w3.org/1999/xlink" contentScriptType="application/ecmascript" contentStyleType="text/css" height="748px" preserveAspectRatio="none" style="width:828px;height:748px;" version="1.1" viewBox="0 0 828 748" width="828px" zoomAndPan="magnify"><defs><filter height="300%" id="f1qo24muosisqk" width="300%" x="-1" y="-1"><feGaussianBlur result="blurOut" stdDeviation="2.0"/><feColorMatrix in="blurOut" result="blurOut2" type="matrix" values="0 0 0 0 0 0 0 0 0 0 0 0 0 0 0 0 0 0 .4 0"/><feOffset dx="4.0" dy="4.0" in="blurOut2" result="blurOut3"/><feBlend in="SourceGraphic" in2="blurOut3" mode="normal"/></filter></defs><g><!--cluster Sentient Agent Bundle Resources--><polygon fill="#BBAAFF" filter="url(#f1qo24muosisqk)" points="22,24,266,24,273,47.6094,585,47.6094,585,736,22,736,22,24" style="stroke: #000000; stroke-width: 1.5;"/><line style="stroke: #000000; stroke-width: 1.5;" x1="22" x2="273" y1="47.6094" y2="47.6094"/><text fill="#000000" font-family="sans-serif" font-size="14" font-weight="bold" lengthAdjust="spacingAndGlyphs" textLength="238" x="26" y="40.5332">Sentient Agent Bundle Resources</text><!--class i--><rect fill="#FEFECE" filter="url(#f1qo24muosisqk)" height="241.7031" id="i" style="stroke: #A80036; stroke-width: 1.5;" width="216" x="353" y="60"/><ellipse cx="368" cy="76" fill="#B4A7E5" rx="11" ry="11" style="stroke: #A80036; stroke-width: 1.0;"/><path d="M368.9531,72.6406 L368.9531,79.2969 L370.6719,79.2969 Q371.2813,79.2969 371.5469,79.5313 Q371.8125,79.7656 371.8125,80.1563 Q371.8125,80.5313 371.5469,80.7656 Q371.2813,81 370.6719,81 L365.5313,81 Q364.9219,81 364.6563,80.7656 Q364.3906,80.5313 364.3906,80.1406 Q364.3906,79.7656 364.6563,79.5313 Q364.9219,79.2969 365.5313,79.2969 L367.25,79.2969 L367.25,72.6406 L365.5313,72.6406 Q364.9219,72.6406 364.6563,72.4063 Q364.3906,72.1719 364.3906,71.7813 Q364.3906,71.4063 364.6563,71.1719 Q364.9219,70.9375 365.5313,70.9375 L370.6719,70.9375 Q371.2813,70.9375 371.5469,71.1719 Q371.8125,71.4063 371.8125,71.7813 Q371.8125,72.1719 371.5469,72.4063 Q371.2813,72.6406 370.6719,72.6406 L368.9531,72.6406 Z "/><text fill="#000000" font-family="sans-serif" font-size="12" font-style="italic" lengthAdjust="spacingAndGlyphs" textLength="184" x="382" y="80.9102">Sentient Agent Bundle Resources</text><line style="stroke: #A80036; stroke-width: 1.5;" x1="354" x2="568" y1="92" y2="92"/><line style="stroke: #A80036; stroke-width: 1.5;" x1="354" x2="568" y1="100" y2="100"/><text fill="#000000" font-family="sans-serif" font-size="11" lengthAdjust="spacingAndGlyphs" textLength="138" x="359" y="115.4189">/sabr/streampolicy activate()</text><text fill="#000000" font-family="sans-serif" font-size="11" lengthAdjust="spacingAndGlyphs" textLength="131" x="359" y="129.2549">/sabr/streampolicy create()</text><text fill="#000000" font-family="sans-serif" font-size="11" lengthAdjust="spacingAndGlyphs" textLength="150" x="359" y="143.0908">/sabr/streampolicy deactivate()</text><text fill="#000000" font-family="sans-serif" font-size="11" lengthAdjust="spacingAndGlyphs" textLength="133" x="359" y="156.9268">/sabr/streampolicy update()</text><text fill="#000000" font-family="sans-serif" font-size="11" lengthAdjust="spacingAndGlyphs" textLength="121" x="359" y="170.7627">/sabr/application/create()</text><text fill="#000000" font-family="sans-serif" font-size="11" lengthAdjust="spacingAndGlyphs" textLength="93" x="359" y="184.5986">/sabr/bundle/build()</text><text fill="#000000" font-family="sans-serif" font-size="11" lengthAdjust="spacingAndGlyphs" textLength="102" x="359" y="198.4346">/sabr/bundle/create()</text><text fill="#000000" font-family="sans-serif" font-size="11" lengthAdjust="spacingAndGlyphs" textLength="115" x="359" y="212.2705">/sabr/capability/create()</text><text fill="#000000" font-family="sans-serif" font-size="11" lengthAdjust="spacingAndGlyphs" textLength="129" x="359" y="226.1064">/sabr/environment/create()</text><text fill="#000000" font-family="sans-serif" font-size="11" lengthAdjust="spacingAndGlyphs" textLength="108" x="359" y="239.9424">/sabr/pulsar/streams()</text><text fill="#000000" font-family="sans-serif" font-size="11" lengthAdjust="spacingAndGlyphs" textLength="92" x="359" y="253.7783">/sabr/pulsar/topic()</text><text fill="#000000" font-family="sans-serif" font-size="11" lengthAdjust="spacingAndGlyphs" textLength="98" x="359" y="267.6143">/sabr/pulsar/topics()</text><text fill="#000000" font-family="sans-serif" font-size="11" lengthAdjust="spacingAndGlyphs" textLength="105" x="359" y="281.4502">/sabr/sabundle/build()</text><text fill="#000000" font-family="sans-serif" font-size="11" lengthAdjust="spacingAndGlyphs" textLength="131" x="359" y="295.2861">/sabr/streampolicy/create()</text><!--entity Application Management Layer--><rect fill="#FFFFFF" filter="url(#f1qo24muosisqk)" height="37.6094" style="stroke: #000000; stroke-width: 1.5;" width="215" x="70.5" y="162"/><text fill="#000000" font-family="sans-serif" font-size="14" lengthAdjust="spacingAndGlyphs" textLength="195" x="80.5" y="186.5332">Application Management Layer</text><!--entity Common Physical Layer--><rect fill="#FFFFFF" filter="url(#f1qo24muosisqk)" height="37.6094" style="stroke: #000000; stroke-width: 1.5;" width="172" x="301" y="682"/><text fill="#000000" font-family="sans-serif" font-size="14" lengthAdjust="spacingAndGlyphs" textLength="152" x="311" y="706.5332">Common Physical Layer</text><!--entity Distributed Information Management Layer--><rect fill="#FFFFFF" filter="url(#f1qo24muosisqk)" height="37.6094" style="stroke: #000000; stroke-width: 1.5;" width="288" x="181" y="374"/><text fill="#000000" font-family="sans-serif" font-size="14" lengthAdjust="spacingAndGlyphs" textLength="268" x="191" y="398.5332">Distributed Information Management Layer</text><!--entity Identity Aspect--><rect fill="#FFFFFF" filter="url(#f1qo24muosisqk)" height="37.6094" style="stroke: #000000; stroke-width: 1.5;" width="112" x="457" y="484"/><text fill="#000000" font-family="sans-serif" font-size="14" lengthAdjust="spacingAndGlyphs" textLength="92" x="467" y="508.5332">Identity Aspect</text><!--entity Security Aspect--><rect fill="#FFFFFF" filter="url(#f1qo24muosisqk)" height="37.6094" style="stroke: #000000; stroke-width: 1.5;" width="118" x="38" y="484"/><text fill="#000000" font-family="sans-serif" font-size="14" lengthAdjust="spacingAndGlyphs" textLength="98" x="48" y="508.5332">Security Aspect</text><!--entity Service Management Layer--><rect fill="#FFFFFF" filter="url(#f1qo24muosisqk)" height="37.6094" style="stroke: #000000; stroke-width: 1.5;" width="193" x="191.5" y="484"/><text fill="#000000" font-family="sans-serif" font-size="14" lengthAdjust="spacingAndGlyphs" textLength="173" x="201.5" y="508.5332">Service Management Layer</text><!--entity Software Defined Infrastructure--><rect fill="#FFFFFF" filter="url(#f1qo24muosisqk)" height="37.6094" style="stroke: #000000; stroke-width: 1.5;" width="216" x="279" y="583"/><text fill="#000000" font-family="sans-serif" font-size="14" lengthAdjust="spacingAndGlyphs" textLength="196" x="289" y="607.5332">Software Defined Infrastructure</text><!--entity REST--><ellipse cx="628" cy="393" fill="#FEFECE" filter="url(#f1qo24muosisqk)" rx="8" ry="8" style="stroke: #A80036; stroke-width: 2.0;"/><text fill="#000000" font-family="sans-serif" font-size="14" lengthAdjust="spacingAndGlyphs" textLength="37" x="609.5" y="424.5332">REST</text><!--entity Web--><ellipse cx="717" cy="393" fill="#FEFECE" filter="url(#f1qo24muosisqk)" rx="8" ry="8" style="stroke: #A80036; stroke-width: 2.0;"/><text fill="#000000" font-family="sans-serif" font-size="14" lengthAdjust="spacingAndGlyphs" textLength="29" x="702.5" y="424.5332">Web</text><!--entity CLI--><ellipse cx="806" cy="393" fill="#FEFECE" filter="url(#f1qo24muosisqk)" rx="8" ry="8" style="stroke: #A80036; stroke-width: 2.0;"/><text fill="#000000" font-family="sans-serif" font-size="14" lengthAdjust="spacingAndGlyphs" textLength="21" x="795.5" y="424.5332">CLI</text><!--entity WebSocket--><ellipse cx="665" cy="181" fill="#FEFECE" filter="url(#f1qo24muosisqk)" rx="8" ry="8" style="stroke: #A80036; stroke-width: 2.0;"/><text fill="#000000" font-family="sans-serif" font-size="14" lengthAdjust="spacingAndGlyphs" textLength="72" x="629" y="212.5332">WebSocket</text><!--link i to Web--><path d="M569.196,270.755 C624.599,316.203 685.076,365.812 707.742,384.405 " fill="none" id="i-Web" style="stroke: #A80036; stroke-width: 1.0;"/><!--link i to CLI--><path d="M569.207,258.27 C591.912,273.328 615.965,288.603 639,302 C691.748,332.678 709.093,332.597 762,363 C774.375,370.111 788.006,379.324 796.768,385.437 " fill="none" id="i-CLI" style="stroke: #A80036; stroke-width: 1.0;"/><!--link i to REST--><path d="M556.45,302.027 C583.922,336.573 609.632,368.902 621.352,383.64 " fill="none" id="i-REST" style="stroke: #A80036; stroke-width: 1.0;"/><!--link i to WebSocket--><path d="M569.272,181 C605.128,181 639.947,181 655.915,181 " fill="none" id="i-WebSocket" style="stroke: #A80036; stroke-width: 1.0;"/><polygon fill="#000000" points="594.5,167.6758,588.5,170.6758,594.5,173.6758,594.5,167.6758" style="stroke: #000000; stroke-width: 1.0;"/><text fill="#000000" font-family="sans-serif" font-size="13" lengthAdjust="spacingAndGlyphs" textLength="37" x="600.5" y="174.4951">events</text><!--link Application Management Layer to Distributed Information Management Layer--><path d="M190.788,200.269 C217.734,238.762 280.261,328.087 309.459,369.798 " fill="none" id="Application Management Layer-Distributed Information Management Layer" style="stroke: #A80036; stroke-width: 1.0;"/><polygon fill="#A80036" points="312.346,373.923,310.4615,364.2561,309.4786,369.8269,303.9078,368.844,312.346,373.923" style="stroke: #A80036; stroke-width: 1.0;"/><!--link Application Management Layer to Service Management Layer--><path d="M170.707,200.058 C154.937,242.189 122.236,349.015 163,423 C177.87,449.989 206.275,469.036 232.254,481.656 " fill="none" id="Application Management Layer-Service Management Layer" style="stroke: #A80036; stroke-width: 1.0;"/><polygon fill="#A80036" points="237.073,483.938,230.6512,476.4707,232.5542,481.7979,227.227,483.7008,237.073,483.938" style="stroke: #A80036; stroke-width: 1.0;"/><!--link Application Management Layer to Security Aspect--><path d="M172.544,200.398 C164.247,228.61 148.142,284.302 136,332 C122.705,384.227 109.046,446.003 101.9549,478.807 " fill="none" id="Application Management Layer-Security Aspect" style="stroke: #A80036; stroke-width: 1.0;"/><polygon fill="#A80036" points="100.8743,483.817,106.6821,475.8628,101.9286,478.9294,98.862,474.1759,100.8743,483.817" style="stroke: #A80036; stroke-width: 1.0;"/><!--link Application Management Layer to Identity Aspect--><path d="M198.219,200.196 C227.129,225.526 282.693,271.709 336,302 C398.93,337.759 441.157,306.988 487,363 C514.081,396.088 516.348,448.488 515.03,478.61 " fill="none" id="Application Management Layer-Identity Aspect" style="stroke: #A80036; stroke-width: 1.0;"/><polygon fill="#A80036" points="514.748,483.966,519.2181,475.19,515.0123,478.973,511.2293,474.7671,514.748,483.966" style="stroke: #A80036; stroke-width: 1.0;"/><!--link Distributed Information Management Layer to Software Defined Infrastructure--><path d="M347.805,412.302 C366.384,428.795 391.241,454.873 402,484 C413.527,515.206 404.386,553.919 396.164,578.047 " fill="none" id="Distributed Information Management Layer-Software Defined Infrastructure" style="stroke: #A80036; stroke-width: 1.0;"/><polygon fill="#A80036" points="394.432,582.966,401.1954,575.8066,396.0935,578.2501,393.65,573.1482,394.432,582.966" style="stroke: #A80036; stroke-width: 1.0;"/><!--link Distributed Information Management Layer to Service Management Layer--><path d="M308.869,412.321 C299.025,430.662 289.059,458.943 285.251,478.832 " fill="none" id="Distributed Information Management Layer-Service Management Layer" style="stroke: #A80036; stroke-width: 1.0;"/><polygon fill="#A80036" points="284.382,483.95,289.8322,475.7467,285.219,479.0206,281.9451,474.4074,284.382,483.95" style="stroke: #A80036; stroke-width: 1.0;"/><!--link Service Management Layer to Distributed Information Management Layer--><path d="M304.562,483.95 C314.616,465.707 324.63,437.434 328.323,417.463 " fill="none" id="Service Management Layer-Distributed Information Management Layer" style="stroke: #A80036; stroke-width: 1.0;"/><polygon fill="#A80036" points="329.157,412.321,323.7686,420.5651,328.357,417.2566,331.6655,421.845,329.157,412.321" style="stroke: #A80036; stroke-width: 1.0;"/><!--link Distributed Information Management Layer to Security Aspect--><path d="M286.838,412.077 C246.23,431.312 182.126,461.677 139.822,481.716 " fill="none" id="Distributed Information Management Layer-Security Aspect" style="stroke: #A80036; stroke-width: 1.0;"/><polygon fill="#A80036" points="135.287,483.864,145.133,483.6268,139.8058,481.7239,141.7088,476.3967,135.287,483.864" style="stroke: #A80036; stroke-width: 1.0;"/><!--link Distributed Information Management Layer to Identity Aspect--><path d="M357.736,412.159 C378.503,423.736 405.902,439.119 430,453 C445.9,462.159 463.407,472.462 478.228,481.249 " fill="none" id="Distributed Information Management Layer-Identity Aspect" style="stroke: #A80036; stroke-width: 1.0;"/><polygon fill="#A80036" points="482.736,483.924,477.0371,475.8914,478.436,481.3726,472.9548,482.7714,482.736,483.924" style="stroke: #A80036; stroke-width: 1.0;"/><!--link Service Management Layer to Software Defined Infrastructure--><path d="M306.621,522.245 C323.076,538.368 347.111,561.917 364.61,579.063 " fill="none" id="Service Management Layer-Software Defined Infrastructure" style="stroke: #A80036; stroke-width: 1.0;"/><polygon fill="#A80036" points="368.462,582.837,364.8338,573.6808,364.8909,579.3374,359.2344,579.3945,368.462,582.837" style="stroke: #A80036; stroke-width: 1.0;"/><!--link Software Defined Infrastructure to Common Physical Layer--><path d="M387,621.245 C387,636.961 387,659.7346 387,676.7539 " fill="none" id="Software Defined Infrastructure-Common Physical Layer" style="stroke: #A80036; stroke-width: 1.0;"/><polygon fill="#A80036" points="387,681.8369,391,672.8369,387,676.8369,383,672.8369,387,681.8369" style="stroke: #A80036; stroke-width: 1.0;"/><!--
@startuml



package "Sentient Agent Bundle Resources" #bbaaff {

    interface "Sentient Agent Bundle Resources" as i {
    
            /sabr/streampolicy activate()
            /sabr/streampolicy create()
            /sabr/streampolicy deactivate()
            /sabr/streampolicy update()
            /sabr/application/create()
            /sabr/bundle/build()
            /sabr/bundle/create()
            /sabr/capability/create()
            /sabr/environment/create()
            /sabr/pulsar/streams()
            /sabr/pulsar/topic()
            /sabr/pulsar/topics()
            /sabr/sabundle/build()
            /sabr/streampolicy/create()
    
    }
}

circle REST
circle Web
circle CLI
circle WebSocket

i -down- Web
i -down- CLI
i -down- REST
WebSocket -left- i: events >

package "Sentient Agent Bundle Resources" #bbaaff {


rectangle "Application Management Layer" #white {
}

rectangle "Common Physical Layer" #white {
}

rectangle "Distributed Information Management Layer" #white {
}

rectangle "Identity Aspect" #white {
}

rectangle "Security Aspect" #white {
}

rectangle "Service Management Layer" #white {
}

rectangle "Software Defined Infrastructure" #white {
}

    "Application Management Layer" - -> "Distributed Information Management Layer"
    
    "Application Management Layer" - -> "Service Management Layer"
    
    "Application Management Layer" - -> "Security Aspect"
    
    "Application Management Layer" - -> "Identity Aspect"
    
    "Distributed Information Management Layer" - -> "Software Defined Infrastructure"
    
    "Distributed Information Management Layer" - -> "Service Management Layer"
    
    "Distributed Information Management Layer" - -> "Security Aspect"
    
    "Distributed Information Management Layer" - -> "Identity Aspect"
    
    "Service Management Layer" - -> "Software Defined Infrastructure"
    
    "Service Management Layer" - -> "Distributed Information Management Layer"
    
    "Software Defined Infrastructure" - -> "Common Physical Layer"
    
}



@enduml

PlantUML version 1.2019.05(Sat Apr 20 09:45:36 PDT 2019)
(GPL source distribution)
Java Runtime: Java(TM) SE Runtime Environment
JVM: Java HotSpot(TM) Client VM
Java Version: 1.8.0_271-b09
Operating System: Windows 10
OS Version: 10.0
Default Encoding: Cp1252
Language: en
Country: US
--></g></svg>