<?xml version="1.0" encoding="us-ascii" standalone="no"?><svg xmlns="http://www.w3.org/2000/svg" xmlns:xlink="http://www.w3.org/1999/xlink" contentStyleType="text/css" height="676px" preserveAspectRatio="none" style="width:353px;height:676px;background:#FFFFFF;" version="1.1" viewBox="0 0 353 676" width="353px" zoomAndPan="magnify"><defs/><g><!--cluster Security Aspect--><g id="cluster_Security Aspect"><path d="M48,60 L158,60 A3.75,3.75 0 0 1 160.5,62.5 L167.5,83.6094 L344,83.6094 A2.5,2.5 0 0 1 346.5,86.1094 L346.5,666.5 A2.5,2.5 0 0 1 344,669 L48,669 A2.5,2.5 0 0 1 45.5,666.5 L45.5,62.5 A2.5,2.5 0 0 1 48,60 " fill="#FFC0CB" style="stroke:#000000;stroke-width:1.5;"/><line style="stroke:#000000;stroke-width:1.5;" x1="45.5" x2="167.5" y1="83.6094" y2="83.6094"/><text fill="#000000" font-family="sans-serif" font-size="14" font-weight="bold" lengthAdjust="spacing" textLength="109" x="49.5" y="76.5332">Security Aspect</text></g><!--cluster bin--><g id="cluster_bin"><path d="M76,104 L99,104 A3.75,3.75 0 0 1 101.5,106.5 L108.5,127.6094 L195,127.6094 A2.5,2.5 0 0 1 197.5,130.1094 L197.5,201.5 A2.5,2.5 0 0 1 195,204 L76,204 A2.5,2.5 0 0 1 73.5,201.5 L73.5,106.5 A2.5,2.5 0 0 1 76,104 " fill="#FFFFFF" style="stroke:#000000;stroke-width:1.5;"/><line style="stroke:#000000;stroke-width:1.5;" x1="73.5" x2="108.5" y1="127.6094" y2="127.6094"/><text fill="#000000" font-family="sans-serif" font-size="14" font-weight="bold" lengthAdjust="spacing" textLength="22" x="77.5" y="120.5332">bin</text></g><!--cluster deploy--><g id="cluster_deploy"><path d="M72,320 L120,320 A3.75,3.75 0 0 1 122.5,322.5 L129.5,343.6094 L290,343.6094 A2.5,2.5 0 0 1 292.5,346.1094 L292.5,424.5 A2.5,2.5 0 0 1 290,427 L72,427 A2.5,2.5 0 0 1 69.5,424.5 L69.5,322.5 A2.5,2.5 0 0 1 72,320 " fill="#FFFFFF" style="stroke:#000000;stroke-width:1.5;"/><line style="stroke:#000000;stroke-width:1.5;" x1="69.5" x2="129.5" y1="343.6094" y2="343.6094"/><text fill="#000000" font-family="sans-serif" font-size="14" font-weight="bold" lengthAdjust="spacing" textLength="47" x="73.5" y="336.5332">deploy</text></g><!--cluster images--><g id="cluster_images"><path d="M72,451 L123,451 A3.75,3.75 0 0 1 125.5,453.5 L132.5,474.6094 L320,474.6094 A2.5,2.5 0 0 1 322.5,477.1094 L322.5,642.5 A2.5,2.5 0 0 1 320,645 L72,645 A2.5,2.5 0 0 1 69.5,642.5 L69.5,453.5 A2.5,2.5 0 0 1 72,451 " fill="#FFFFFF" style="stroke:#000000;stroke-width:1.5;"/><line style="stroke:#000000;stroke-width:1.5;" x1="69.5" x2="132.5" y1="474.6094" y2="474.6094"/><text fill="#000000" font-family="sans-serif" font-size="14" font-weight="bold" lengthAdjust="spacing" textLength="50" x="73.5" y="467.5332">images</text></g><!--entity REST--><g id="elem_REST"><rect fill="#F1F1F1" height="47.6094" rx="2.5" ry="2.5" style="stroke:#181818;stroke-width:0.5;" width="89" x="93" y="248"/><rect fill="#F1F1F1" height="10" style="stroke:#181818;stroke-width:0.5;" width="15" x="162" y="253"/><rect fill="#F1F1F1" height="2" style="stroke:#181818;stroke-width:0.5;" width="4" x="160" y="255"/><rect fill="#F1F1F1" height="2" style="stroke:#181818;stroke-width:0.5;" width="4" x="160" y="259"/><text fill="#000000" font-family="sans-serif" font-size="14" lengthAdjust="spacing" textLength="49" x="108" y="282.5332">express</text></g><!--entity socket--><g id="elem_socket"><rect fill="#F1F1F1" height="47.6094" rx="2.5" ry="2.5" style="stroke:#181818;stroke-width:0.5;" width="96" x="216.5" y="140"/><rect fill="#F1F1F1" height="10" style="stroke:#181818;stroke-width:0.5;" width="15" x="292.5" y="145"/><rect fill="#F1F1F1" height="2" style="stroke:#181818;stroke-width:0.5;" width="4" x="290.5" y="147"/><rect fill="#F1F1F1" height="2" style="stroke:#181818;stroke-width:0.5;" width="4" x="290.5" y="151"/><text fill="#000000" font-family="sans-serif" font-size="14" lengthAdjust="spacing" textLength="56" x="231.5" y="174.5332">socket.io</text></g><!--entity binName--><g id="elem_binName"><rect fill="#F1F1F1" height="47.6094" rx="2.5" ry="2.5" style="stroke:#181818;stroke-width:0.5;" width="91" x="90" y="140"/><rect fill="#F1F1F1" height="10" style="stroke:#181818;stroke-width:0.5;" width="15" x="161" y="145"/><rect fill="#F1F1F1" height="2" style="stroke:#181818;stroke-width:0.5;" width="4" x="159" y="147"/><rect fill="#F1F1F1" height="2" style="stroke:#181818;stroke-width:0.5;" width="4" x="159" y="151"/><text fill="#000000" font-family="sans-serif" font-size="14" lengthAdjust="spacing" textLength="47" x="109" y="174.5332">sabr sa</text></g><!--entity sabr_sa_container--><g id="elem_sabr_sa_container"><path d="M85.5,358.5 L85.5,408.7188 A2.5,2.5 0 0 0 88,411.2188 L193,411.2188 A2.5,2.5 0 0 0 195.5,408.7188 L195.5,366 L185.5,356 L88,356 A2.5,2.5 0 0 0 85.5,358.5 " fill="#F1F1F1" style="stroke:#181818;stroke-width:0.5;"/><path d="M185.5,356 L185.5,363.5 A2.5,2.5 0 0 0 188,366 L195.5,366 " fill="#F1F1F1" style="stroke:#181818;stroke-width:0.5;"/><text fill="#000000" font-family="sans-serif" font-size="14" lengthAdjust="spacing" textLength="90" x="95.5" y="380.5332">node server.js</text><text fill="#000000" font-family="sans-serif" font-size="14" lengthAdjust="spacing" textLength="4" x="95.5" y="398.1426">&#160;</text></g><!--entity web_container--><g id="elem_web_container"><path d="M231,367 L231,399.6094 A2.5,2.5 0 0 0 233.5,402.1094 L273.5,402.1094 A2.5,2.5 0 0 0 276,399.6094 L276,374.5 L266,364.5 L233.5,364.5 A2.5,2.5 0 0 0 231,367 " fill="#F1F1F1" style="stroke:#181818;stroke-width:0.5;"/><path d="M266,364.5 L266,372 A2.5,2.5 0 0 0 268.5,374.5 L276,374.5 " fill="#F1F1F1" style="stroke:#181818;stroke-width:0.5;"/><text fill="#000000" font-family="sans-serif" font-size="14" lengthAdjust="spacing" textLength="25" x="241" y="389.0332">web</text></g><!--entity sabr_saimage--><g id="elem_sabr_saimage"><rect fill="#F1F1F1" height="33.6094" rx="2.5" ry="2.5" style="stroke:#181818;stroke-width:0.5;" width="67" x="90" y="492.5"/><rect fill="#F1F1F1" height="33.6094" rx="2.5" ry="2.5" style="stroke:#181818;stroke-width:0.5;" width="67" x="86" y="488.5"/><text fill="#000000" font-family="sans-serif" font-size="14" lengthAdjust="spacing" textLength="51" x="94" y="511.0332">sabr_sa</text></g><!--entity ailtireswarm--><g id="elem_ailtireswarm"><rect fill="#F1F1F1" height="40.6094" rx="2.5" ry="2.5" style="stroke:#181818;stroke-width:0.5;" width="108" x="85.5" y="588"/><polygon fill="#F1F1F1" points="176.5,593,176.5,607,188.5,607,188.5,599,182.5,593,176.5,593" style="stroke:#181818;stroke-width:0.5;"/><line style="stroke:#181818;stroke-width:0.5;" x1="182.5" x2="182.5" y1="593" y2="599"/><line style="stroke:#181818;stroke-width:0.5;" x1="188.5" x2="182.5" y1="599" y2="599"/><text fill="#000000" font-family="sans-serif" font-size="14" lengthAdjust="spacing" textLength="78" x="95.5" y="615.5332">ailtire:swarm</text></g><!--entity sabr_sa_web--><g id="elem_sabr_sa_web"><rect fill="#F1F1F1" height="40.6094" rx="2.5" ry="2.5" style="stroke:#181818;stroke-width:0.5;" width="114" x="192.5" y="487"/><polygon fill="#F1F1F1" points="289.5,492,289.5,506,301.5,506,301.5,498,295.5,492,289.5,492" style="stroke:#181818;stroke-width:0.5;"/><line style="stroke:#181818;stroke-width:0.5;" x1="295.5" x2="295.5" y1="492" y2="498"/><line style="stroke:#181818;stroke-width:0.5;" x1="301.5" x2="295.5" y1="498" y2="498"/><text fill="#000000" font-family="sans-serif" font-size="14" lengthAdjust="spacing" textLength="84" x="202.5" y="514.5332">sabr_sa_web</text></g><!--entity CLI--><g id="elem_CLI"><ellipse cx="135.5" cy="14" fill="#F1F1F1" rx="8" ry="8" style="stroke:#181818;stroke-width:0.5;"/><text fill="#000000" font-family="sans-serif" font-size="14" lengthAdjust="spacing" textLength="21" x="125" y="45.5332">CLI</text></g><!--entity Web--><g id="elem_Web"><ellipse cx="20.5" cy="272" fill="#F1F1F1" rx="8" ry="8" style="stroke:#181818;stroke-width:0.5;"/><text fill="#000000" font-family="sans-serif" font-size="14" lengthAdjust="spacing" textLength="29" x="6" y="303.5332">Web</text></g><!--entity WebSocket--><g id="elem_WebSocket"><ellipse cx="264.5" cy="14" fill="#F1F1F1" rx="8" ry="8" style="stroke:#181818;stroke-width:0.5;"/><text fill="#000000" font-family="sans-serif" font-size="14" lengthAdjust="spacing" textLength="72" x="228.5" y="45.5332">WebSocket</text></g><!--link binName to REST--><g id="link_binName_REST"><path d="M135.93,188 C136.27,205.66 136.6184,223.941 136.9484,241.681 " fill="none" id="binName-to-REST" style="stroke:#181818;stroke-width:1.0;"/><polygon fill="#181818" points="137.06,247.68,140.8919,238.6072,136.967,242.6809,132.8933,238.756,137.06,247.68" style="stroke:#181818;stroke-width:1.0;"/></g><!--link REST to sabr_sa_container--><g id="link_REST_sabr_sa_container"><path d="M138.14,296.22 C138.61,313.67 139.1055,331.6123 139.6055,349.8423 " fill="none" id="REST-to-sabr_sa_container" style="stroke:#181818;stroke-width:1.0;"/><polygon fill="#181818" points="139.77,355.84,143.5217,346.7337,139.6329,350.8419,135.5248,346.9531,139.77,355.84" style="stroke:#181818;stroke-width:1.0;"/></g><!--link REST to web_container--><g id="link_REST_web_container"><path d="M182.15,290.48 C193.23,296.22 204.51,303.38 213.5,312 C228.94,326.8 237.8145,343.3532 244.3645,358.8532 " fill="none" id="REST-to-web_container" style="stroke:#181818;stroke-width:1.0;"/><polygon fill="#181818" points="246.7,364.38,246.8813,354.5328,244.7537,359.7743,239.5122,357.6468,246.7,364.38" style="stroke:#181818;stroke-width:1.0;"/></g><!--link socket to web_container--><g id="link_socket_web_container"><path d="M263.32,188.28 C261.12,231.89 256.7017,319.0676 254.7217,358.3976 " fill="none" id="socket-to-web_container" style="stroke:#181818;stroke-width:1.0;"/><polygon fill="#181818" points="254.42,364.39,258.8675,355.6025,254.6714,359.3963,250.8776,355.2003,254.42,364.39" style="stroke:#181818;stroke-width:1.0;"/></g><!--reverse link sabr_saimage to ailtireswarm--><g id="link_sabr_saimage_ailtireswarm"><path d="M128.0244,544.3688 C131.1744,561.6688 132.67,569.95 135.91,587.76 " fill="none" id="sabr_saimage-backto-ailtireswarm" style="stroke:#181818;stroke-width:1.0;"/><polygon fill="none" points="124.8,526.66,122.1215,545.4437,133.9274,543.294,124.8,526.66" style="stroke:#181818;stroke-width:1.0;"/></g><!--link sabr_sa_container to sabr_saimage--><g id="link_sabr_sa_container_sabr_saimage"><path d="M136.33,411.27 C132.68,434.7 128.4022,462.1613 125.2322,482.5413 " fill="none" id="sabr_sa_container-to-sabr_saimage" style="stroke:#181818;stroke-width:1.0;"/><polygon fill="#181818" points="124.31,488.47,129.6457,480.1917,125.0785,483.5294,121.7408,478.9622,124.31,488.47" style="stroke:#181818;stroke-width:1.0;"/></g><!--link web_container to sabr_sa_web--><g id="link_web_container_sabr_sa_web"><path d="M252.91,402.5 C252.17,425.04 251.1055,457.5032 250.3455,480.8132 " fill="none" id="web_container-to-sabr_sa_web" style="stroke:#181818;stroke-width:1.0;"/><polygon fill="#181818" points="250.15,486.81,254.4412,477.9451,250.3129,481.8127,246.4454,477.6844,250.15,486.81" style="stroke:#181818;stroke-width:1.0;"/></g><!--link CLI to binName--><g id="link_CLI_binName"><path d="M135.5,23.38 C135.5,45.52 135.5,106.15 135.5,139.77 " fill="none" id="CLI-binName" style="stroke:#181818;stroke-width:1.0;"/><text fill="#000000" font-family="sans-serif" font-size="13" lengthAdjust="spacing" textLength="43" x="75.7563" y="21.9836">sabr sa</text></g><!--link Web to REST--><g id="link_Web_REST"><path d="M29.64,272 C50.71,272 71.77,272 92.84,272 " fill="none" id="Web-REST" style="stroke:#181818;stroke-width:1.0;"/><text fill="#000000" font-family="sans-serif" font-size="13" lengthAdjust="spacing" textLength="47" x="37.596" y="267.588">/sabr/sa</text></g><!--link WebSocket to socket--><g id="link_WebSocket_socket"><path d="M264.5,23.38 C264.5,45.52 264.5,106.15 264.5,139.77 " fill="none" id="WebSocket-socket" style="stroke:#181818;stroke-width:1.0;"/><text fill="#000000" font-family="sans-serif" font-size="13" lengthAdjust="spacing" textLength="47" x="200.7563" y="21.9836">.sabr.sa</text></g><!--SRC=[TLB1IiGm4BttAuRikTsxY23YGP0zMC6BiAJfL6BJf2JHTT7zTwTfkasxMcZBvBrvC_Co059xj0qN27UF3naayGjMwxWqeaMVzLoq_0s1bIW-hFH7k7Kz2izWqqlTmZVb2TFrHgFsW5-zHUU0EtYwBvyNc0k2XJG3EWQ4DqRLQA6I6ZPDU89aciZ0yShIXmsPnDpn3ebpeZT6aEStOyLPiiPUcUDAbL2fQ1fjQWI7zXDjyUvUTP0UokmTtmkZFPSQRKmPX4E5Im8nibdrW5KGelzAv2nn2OrM4FW76gUC4ycERi9T-AGKtOSqsW6B3QRJXAJ0vDPBkbqob4lbfSKhT-2s2-Hu4Wx6hf9ikFx9ytyfSyEfHsFPoPwq-9GscPN4aRjmOM7yn0c-d39QutGxgCbfEsY1WMq7P1kGSJdEQmsi6B0YPiLj_0K0]--></g></svg>