<?xml version="1.0" encoding="UTF-8" standalone="no"?><svg xmlns="http://www.w3.org/2000/svg" xmlns:xlink="http://www.w3.org/1999/xlink" contentScriptType="application/ecmascript" contentStyleType="text/css" height="685px" preserveAspectRatio="none" style="width:368px;height:685px;" version="1.1" viewBox="0 0 368 685" width="368px" zoomAndPan="magnify"><defs><filter height="300%" id="f16xf9cowxqtiw" width="300%" x="-1" y="-1"><feGaussianBlur result="blurOut" stdDeviation="2.0"/><feColorMatrix in="blurOut" result="blurOut2" type="matrix" values="0 0 0 0 0 0 0 0 0 0 0 0 0 0 0 0 0 0 .4 0"/><feOffset dx="4.0" dy="4.0" in="blurOut2" result="blurOut3"/><feBlend in="SourceGraphic" in2="blurOut3" mode="normal"/></filter></defs><g><!--cluster Security Aspect--><polygon fill="#FFC0CB" filter="url(#f16xf9cowxqtiw)" points="45.5,84,160.5,84,167.5,107.6094,346.5,107.6094,346.5,673,45.5,673,45.5,84" style="stroke: #000000; stroke-width: 1.5;"/><line style="stroke: #000000; stroke-width: 1.5;" x1="45.5" x2="167.5" y1="107.6094" y2="107.6094"/><text fill="#000000" font-family="sans-serif" font-size="14" font-weight="bold" lengthAdjust="spacingAndGlyphs" textLength="109" x="49.5" y="100.5332">Security Aspect</text><!--cluster bin--><polygon fill="#FFFFFF" filter="url(#f16xf9cowxqtiw)" points="90.5,128,118.5,128,125.5,151.6094,190.5,151.6094,190.5,218,90.5,218,90.5,128" style="stroke: #000000; stroke-width: 1.5;"/><line style="stroke: #000000; stroke-width: 1.5;" x1="90.5" x2="125.5" y1="151.6094" y2="151.6094"/><text fill="#000000" font-family="sans-serif" font-size="14" font-weight="bold" lengthAdjust="spacingAndGlyphs" textLength="22" x="94.5" y="144.5332">bin</text><!--cluster deploy--><polygon fill="#FFFFFF" filter="url(#f16xf9cowxqtiw)" points="69.5,324,122.5,324,129.5,347.6094,292.5,347.6094,292.5,431,69.5,431,69.5,324" style="stroke: #000000; stroke-width: 1.5;"/><line style="stroke: #000000; stroke-width: 1.5;" x1="69.5" x2="129.5" y1="347.6094" y2="347.6094"/><text fill="#000000" font-family="sans-serif" font-size="14" font-weight="bold" lengthAdjust="spacingAndGlyphs" textLength="47" x="73.5" y="340.5332">deploy</text><!--cluster images--><polygon fill="#FFFFFF" filter="url(#f16xf9cowxqtiw)" points="69.5,455,125.5,455,132.5,478.6094,322.5,478.6094,322.5,649,69.5,649,69.5,455" style="stroke: #000000; stroke-width: 1.5;"/><line style="stroke: #000000; stroke-width: 1.5;" x1="69.5" x2="132.5" y1="478.6094" y2="478.6094"/><text fill="#000000" font-family="sans-serif" font-size="14" font-weight="bold" lengthAdjust="spacingAndGlyphs" textLength="50" x="73.5" y="471.5332">images</text><!--entity REST--><rect fill="#FEFECE" filter="url(#f16xf9cowxqtiw)" height="37.6094" style="stroke: #A80036; stroke-width: 1.5;" width="69" x="106" y="262"/><rect fill="#FEFECE" height="5" style="stroke: #A80036; stroke-width: 1.5;" width="10" x="101" y="267"/><rect fill="#FEFECE" height="5" style="stroke: #A80036; stroke-width: 1.5;" width="10" x="101" y="289.6094"/><text fill="#000000" font-family="sans-serif" font-size="14" lengthAdjust="spacingAndGlyphs" textLength="49" x="116" y="286.5332">express</text><!--entity socket--><rect fill="#FEFECE" filter="url(#f16xf9cowxqtiw)" height="37.6094" style="stroke: #A80036; stroke-width: 1.5;" width="76" x="215.5" y="164"/><rect fill="#FEFECE" height="5" style="stroke: #A80036; stroke-width: 1.5;" width="10" x="210.5" y="169"/><rect fill="#FEFECE" height="5" style="stroke: #A80036; stroke-width: 1.5;" width="10" x="210.5" y="191.6094"/><text fill="#000000" font-family="sans-serif" font-size="14" lengthAdjust="spacingAndGlyphs" textLength="56" x="225.5" y="188.5332">socket.io</text><!--entity binName--><rect fill="#FEFECE" filter="url(#f16xf9cowxqtiw)" height="37.6094" style="stroke: #A80036; stroke-width: 1.5;" width="67" x="107" y="164"/><rect fill="#FEFECE" height="5" style="stroke: #A80036; stroke-width: 1.5;" width="10" x="102" y="169"/><rect fill="#FEFECE" height="5" style="stroke: #A80036; stroke-width: 1.5;" width="10" x="102" y="191.6094"/><text fill="#000000" font-family="sans-serif" font-size="14" lengthAdjust="spacingAndGlyphs" textLength="47" x="117" y="188.5332">sabr sa</text><!--entity sabr_sa_container--><polygon fill="#FEFECE" filter="url(#f16xf9cowxqtiw)" points="85.5,360,85.5,415.2188,195.5,415.2188,195.5,370,185.5,360,85.5,360" style="stroke: #000000; stroke-width: 1.5;"/><path d="M185.5,360 L185.5,370 L195.5,370 " fill="#FEFECE" style="stroke: #000000; stroke-width: 1.5;"/><text fill="#000000" font-family="sans-serif" font-size="14" lengthAdjust="spacingAndGlyphs" textLength="90" x="95.5" y="384.5332">node server.js</text><text fill="#000000" font-family="sans-serif" font-size="14" lengthAdjust="spacingAndGlyphs" textLength="0" x="99.5" y="402.1426"/><!--entity web_container--><polygon fill="#FEFECE" filter="url(#f16xf9cowxqtiw)" points="231,368.5,231,406.1094,276,406.1094,276,378.5,266,368.5,231,368.5" style="stroke: #000000; stroke-width: 1.5;"/><path d="M266,368.5 L266,378.5 L276,378.5 " fill="#FEFECE" style="stroke: #000000; stroke-width: 1.5;"/><text fill="#000000" font-family="sans-serif" font-size="14" lengthAdjust="spacingAndGlyphs" textLength="25" x="241" y="393.0332">web</text><!--entity sabr_saimage--><rect fill="#FEFECE" filter="url(#f16xf9cowxqtiw)" height="33.6094" style="stroke: #000000; stroke-width: 1.5;" width="67" x="90" y="496.5"/><rect fill="#FEFECE" height="33.6094" style="stroke: #000000; stroke-width: 1.5;" width="67" x="86" y="492.5"/><text fill="#000000" font-family="sans-serif" font-size="14" lengthAdjust="spacingAndGlyphs" textLength="51" x="94" y="515.0332">sabr_sa</text><!--entity ailtireswarm--><rect fill="#FEFECE" filter="url(#f16xf9cowxqtiw)" height="40.6094" style="stroke: #000000; stroke-width: 1.5;" width="108" x="85.5" y="592"/><polygon fill="#FEFECE" points="176.5,597,176.5,611,188.5,611,188.5,603,182.5,597,176.5,597" style="stroke: #000000; stroke-width: 1.5;"/><line style="stroke: #000000; stroke-width: 1.5;" x1="182.5" x2="182.5" y1="597" y2="603"/><line style="stroke: #000000; stroke-width: 1.5;" x1="188.5" x2="182.5" y1="603" y2="603"/><text fill="#000000" font-family="sans-serif" font-size="14" lengthAdjust="spacingAndGlyphs" textLength="78" x="95.5" y="619.5332">ailtire:swarm</text><!--entity sabr_sa_web--><rect fill="#FEFECE" filter="url(#f16xf9cowxqtiw)" height="40.6094" style="stroke: #000000; stroke-width: 1.5;" width="114" x="192.5" y="491"/><polygon fill="#FEFECE" points="289.5,496,289.5,510,301.5,510,301.5,502,295.5,496,289.5,496" style="stroke: #000000; stroke-width: 1.5;"/><line style="stroke: #000000; stroke-width: 1.5;" x1="295.5" x2="295.5" y1="496" y2="502"/><line style="stroke: #000000; stroke-width: 1.5;" x1="301.5" x2="295.5" y1="502" y2="502"/><text fill="#000000" font-family="sans-serif" font-size="14" lengthAdjust="spacingAndGlyphs" textLength="84" x="202.5" y="518.5332">sabr_sa_web</text><!--entity CLI--><ellipse cx="140.5" cy="38" fill="#FEFECE" filter="url(#f16xf9cowxqtiw)" rx="8" ry="8" style="stroke: #A80036; stroke-width: 2.0;"/><text fill="#000000" font-family="sans-serif" font-size="14" lengthAdjust="spacingAndGlyphs" textLength="21" x="130" y="69.5332">CLI</text><!--entity Web--><ellipse cx="20.5" cy="281" fill="#FEFECE" filter="url(#f16xf9cowxqtiw)" rx="8" ry="8" style="stroke: #A80036; stroke-width: 2.0;"/><text fill="#000000" font-family="sans-serif" font-size="14" lengthAdjust="spacingAndGlyphs" textLength="29" x="6" y="312.5332">Web</text><!--entity WebSocket--><ellipse cx="253.5" cy="38" fill="#FEFECE" filter="url(#f16xf9cowxqtiw)" rx="8" ry="8" style="stroke: #A80036; stroke-width: 2.0;"/><text fill="#000000" font-family="sans-serif" font-size="14" lengthAdjust="spacingAndGlyphs" textLength="72" x="217.5" y="69.5332">WebSocket</text><!--link binName to REST--><path d="M140.5,202.057 C140.5,217.513 140.5,239.865 140.5,256.673 " fill="none" id="binName-REST" style="stroke: #A80036; stroke-width: 1.0;"/><polygon fill="#A80036" points="140.5,261.698,144.5,252.698,140.5,256.698,136.5,252.698,140.5,261.698" style="stroke: #A80036; stroke-width: 1.0;"/><!--link REST to sabr_sa_container--><path d="M140.5,300.203 C140.5,315.147 140.5,336.673 140.5,354.487 " fill="none" id="REST-sabr_sa_container" style="stroke: #A80036; stroke-width: 1.0;"/><polygon fill="#A80036" points="140.5,359.885,144.5,350.885,140.5,354.885,136.5,350.885,140.5,359.885" style="stroke: #A80036; stroke-width: 1.0;"/><!--link REST to web_container--><path d="M175.305,293.443 C188.04,298.844 201.909,306.278 212.5,316 C226.745,329.075 237.459,348.262 244.356,363.32 " fill="none" id="REST-web_container" style="stroke: #A80036; stroke-width: 1.0;"/><polygon fill="#A80036" points="246.548,368.253,246.55,358.4041,244.5182,363.6835,239.2388,361.6518,246.548,368.253" style="stroke: #A80036; stroke-width: 1.0;"/><!--link socket to web_container--><path d="M253.5,202.328 C253.5,239.225 253.5,322.407 253.5,363.138 " fill="none" id="socket-web_container" style="stroke: #A80036; stroke-width: 1.0;"/><polygon fill="#A80036" points="253.5,368.36,257.5,359.36,253.5,363.36,249.5,359.36,253.5,368.36" style="stroke: #A80036; stroke-width: 1.0;"/><!--link sabr_saimage to ailtireswarm--><path d="M128.391,550.398 C130.954,564.499 133.76,579.932 135.911,591.7594 " fill="none" id="sabr_saimage-ailtireswarm" style="stroke: #A80036; stroke-width: 1.0;"/><polygon fill="none" points="121.492,551.588,124.801,530.658,135.266,549.083,121.492,551.588" style="stroke: #A80036; stroke-width: 1.0;"/><!--link sabr_sa_container to sabr_saimage--><path d="M136.33,415.273 C132.967,436.871 128.285,466.931 125.087,487.465 " fill="none" id="sabr_sa_container-sabr_saimage" style="stroke: #A80036; stroke-width: 1.0;"/><polygon fill="#A80036" points="124.308,492.469,129.646,484.1922,125.0778,487.5286,121.7414,482.9604,124.308,492.469" style="stroke: #A80036; stroke-width: 1.0;"/><!--link web_container to sabr_sa_web--><path d="M252.91,406.502 C252.223,427.453 251.084,462.173 250.314,485.676 " fill="none" id="web_container-sabr_sa_web" style="stroke: #A80036; stroke-width: 1.0;"/><polygon fill="#A80036" points="250.146,490.805,254.437,481.9401,250.3089,485.8077,246.4413,481.6795,250.146,490.805" style="stroke: #A80036; stroke-width: 1.0;"/><!--link CLI to binName--><path d="M140.5,47.098 C140.5,69.432 140.5,132.318 140.5,163.705 " fill="none" id="CLI-binName" style="stroke: #A80036; stroke-width: 1.0;"/><text fill="#000000" font-family="sans-serif" font-size="13" lengthAdjust="spacingAndGlyphs" textLength="43" x="80.7563" y="45.5007">sabr sa</text><!--link Web to REST--><path d="M29.875,281 C55.2266,281 80.5781,281 105.9297,281 " fill="none" id="Web-REST" style="stroke: #A80036; stroke-width: 1.0;"/><text fill="#000000" font-family="sans-serif" font-size="13" lengthAdjust="spacingAndGlyphs" textLength="47" x="37.4773" y="276.6858">/sabr/sa</text><!--link WebSocket to socket--><path d="M253.5,47.098 C253.5,69.432 253.5,132.318 253.5,163.705 " fill="none" id="WebSocket-socket" style="stroke: #A80036; stroke-width: 1.0;"/><text fill="#000000" font-family="sans-serif" font-size="13" lengthAdjust="spacingAndGlyphs" textLength="47" x="189.7563" y="45.5007">.sabr.sa</text><!--
@startuml
  interface CLI
  interface Web
  interface WebSocket
package "Security Aspect" #pink {
  component express as REST
  component socket.io as socket
  folder bin #ffffff {
    component " sabr sa" as binName
  }
  binName - -> REST

  folder deploy #ffffff {
      file "node server.js\n" as sabr_sa_container
      REST - -> sabr_sa_container

  
    file "web" as web_container
    REST - -> web_container
    socket - - -> web_container
  
  }
  folder images #ffffff {
    collections "sabr_sa" as sabr_saimage
    artifact "ailtire:swarm" as ailtireswarm
    sabr_saimage <|- - ailtireswarm
    sabr_sa_container - -> sabr_saimage

  
      artifact "sabr_sa_web" as sabr_sa_web
      web_container - -> sabr_sa_web
    
  }
}
CLI " sabr sa" - - binName
Web "/sabr/sa" - REST
WebSocket ".sabr.sa" - - socket

@enduml

PlantUML version 1.2019.05(Sat Apr 20 09:45:36 PDT 2019)
(GPL source distribution)
Java Runtime: Java(TM) SE Runtime Environment
JVM: Java HotSpot(TM) Client VM
Java Version: 1.8.0_271-b09
Operating System: Windows 10
OS Version: 10.0
Default Encoding: Cp1252
Language: en
Country: US
--></g></svg>