<?xml version="1.0" encoding="us-ascii" standalone="no"?><svg xmlns="http://www.w3.org/2000/svg" xmlns:xlink="http://www.w3.org/1999/xlink" contentStyleType="text/css" height="327px" preserveAspectRatio="none" style="width:374px;height:327px;background:#FFFFFF;" version="1.1" viewBox="0 0 374 327" width="374px" zoomAndPan="magnify"><defs/><g><!--entity Seed--><g id="elem_Seed"><rect fill="#ADD8E6" height="37.6094" rx="2.5" ry="2.5" style="stroke:#181818;stroke-width:0.5;" width="53" x="7" y="284"/><text fill="#000000" font-family="sans-serif" font-size="14" lengthAdjust="spacing" textLength="33" x="17" y="308.5332">Seed</text></g><!--entity WorkingEnclave--><g id="elem_WorkingEnclave"><rect fill="#ADD8E6" height="37.6094" rx="2.5" ry="2.5" style="stroke:#181818;stroke-width:0.5;" width="122" x="95.5" y="284"/><text fill="#000000" font-family="sans-serif" font-size="14" lengthAdjust="spacing" textLength="102" x="105.5" y="308.5332">WorkingEnclave</text></g><!--entity EncryptedVault--><g id="elem_EncryptedVault"><rect fill="#ADD8E6" height="37.6094" rx="2.5" ry="2.5" style="stroke:#181818;stroke-width:0.5;" width="116" x="252.5" y="284"/><text fill="#000000" font-family="sans-serif" font-size="14" lengthAdjust="spacing" textLength="96" x="262.5" y="308.5332">EncryptedVault</text></g><!--entity SABundle--><g id="elem_SABundle"><rect fill="#90EE90" height="37.6094" rx="2.5" ry="2.5" style="stroke:#181818;stroke-width:0.5;" width="82" x="115.5" y="7"/><text fill="#000000" font-family="sans-serif" font-size="14" lengthAdjust="spacing" textLength="62" x="125.5" y="31.5332">SABundle</text></g><!--class Model--><g id="elem_Model"><rect codeLine="2" fill="#F1F1F1" height="83.2188" id="Model" rx="2.5" ry="2.5" style="stroke:#181818;stroke-width:0.5;" width="109" x="102" y="123"/><ellipse cx="117" cy="139" fill="#ADD1B2" rx="11" ry="11" style="stroke:#181818;stroke-width:1.0;"/><path d="M119.7656,134.875 Q119.9219,134.6563 120.1094,134.5469 Q120.2969,134.4375 120.5156,134.4375 Q120.8906,134.4375 121.125,134.6953 Q121.3594,134.9531 121.3594,135.5625 L121.3594,137.0156 Q121.3594,137.625 121.125,137.8906 Q120.8906,138.1563 120.5156,138.1563 Q120.1719,138.1563 119.9688,137.9531 Q119.7656,137.7656 119.6563,137.25 Q119.6094,136.8906 119.4219,136.7031 Q119.0938,136.3281 118.4844,136.1094 Q117.875,135.8906 117.25,135.8906 Q116.4844,135.8906 115.8516,136.2188 Q115.2188,136.5469 114.7266,137.2969 Q114.2344,138.0469 114.2344,139.0781 L114.2344,140.1719 Q114.2344,141.4063 115.125,142.2266 Q116.0156,143.0469 117.6094,143.0469 Q118.5469,143.0469 119.2031,142.7969 Q119.5938,142.6406 120.0156,142.2031 Q120.2813,141.9375 120.4297,141.8594 Q120.5781,141.7813 120.7813,141.7813 Q121.1094,141.7813 121.3672,142.0391 Q121.625,142.2969 121.625,142.6406 Q121.625,142.9844 121.2813,143.3906 Q120.7813,143.9688 119.9844,144.2969 Q118.9063,144.75 117.6094,144.75 Q116.0938,144.75 114.8906,144.125 Q113.9063,143.625 113.2188,142.5547 Q112.5313,141.4844 112.5313,140.2031 L112.5313,139.0469 Q112.5313,137.7188 113.1484,136.5703 Q113.7656,135.4219 114.8594,134.8047 Q115.9531,134.1875 117.1875,134.1875 Q117.9219,134.1875 118.5703,134.3516 Q119.2188,134.5156 119.7656,134.875 Z " fill="#000000"/><text fill="#000000" font-family="sans-serif" font-size="14" lengthAdjust="spacing" textLength="77" x="131" y="144.7285">SecureVault</text><line style="stroke:#181818;stroke-width:0.5;" x1="103" x2="210" y1="155" y2="155"/><text fill="#000000" font-family="sans-serif" font-size="14" lengthAdjust="spacing" textLength="74" x="108" y="173.5332">string name</text><line style="stroke:#181818;stroke-width:0.5;" x1="103" x2="210" y1="180.6094" y2="180.6094"/><text fill="#000000" font-family="sans-serif" font-size="14" lengthAdjust="spacing" textLength="57" x="108" y="199.1426">encrypt()</text></g><!--link Model to Seed--><g id="link_Model_Seed"><path codeLine="12" d="M111.8971,214.9947 C88.6671,240.7747 71.7769,259.523 53.9769,279.273 " fill="none" id="Model-Seed" style="stroke:#181818;stroke-width:1.0;"/><polygon fill="#181818" points="119.93,206.08,112.942,207.8597,111.8971,214.9947,118.8851,213.215,119.93,206.08" style="stroke:#181818;stroke-width:1.0;"/><polygon fill="#181818" points="49.96,283.73,58.9567,279.7225,53.3074,280.0159,53.0141,274.3666,49.96,283.73" style="stroke:#181818;stroke-width:1.0;"/><text fill="#000000" font-family="sans-serif" font-size="13" lengthAdjust="spacing" textLength="28" x="92.5" y="250.4951">seed</text><text fill="#000000" font-family="sans-serif" font-size="13" lengthAdjust="spacing" textLength="7" x="46.929" y="272.9873">1</text></g><!--link Model to WorkingEnclave--><g id="link_Model_WorkingEnclave"><path codeLine="18" d="M156.5,218.08 C156.5,243.86 156.5,257.98 156.5,277.73 " fill="none" id="Model-WorkingEnclave" style="stroke:#181818;stroke-width:1.0;"/><polygon fill="#181818" points="156.5,206.08,152.5,212.08,156.5,218.08,160.5,212.08,156.5,206.08" style="stroke:#181818;stroke-width:1.0;"/><polygon fill="#181818" points="156.5,283.73,160.5,274.73,156.5,278.73,152.5,274.73,156.5,283.73" style="stroke:#181818;stroke-width:1.0;"/><text fill="#000000" font-family="sans-serif" font-size="13" lengthAdjust="spacing" textLength="43" x="157.5" y="250.4951">enclave</text><text fill="#000000" font-family="sans-serif" font-size="13" lengthAdjust="spacing" textLength="7" x="148.4281" y="272.9873">1</text></g><!--link Model to EncryptedVault--><g id="link_Model_EncryptedVault"><path codeLine="24" d="M211.2695,214.0405 C240.3495,239.8205 263.1092,260.0009 285.3992,279.7509 " fill="none" id="Model-EncryptedVault" style="stroke:#181818;stroke-width:1.0;"/><polygon fill="#181818" points="202.29,206.08,204.1262,213.0534,211.2695,214.0405,209.4332,207.0671,202.29,206.08" style="stroke:#181818;stroke-width:1.0;"/><polygon fill="#181818" points="289.89,283.73,285.8065,274.7676,286.1477,280.4141,280.5011,280.7553,289.89,283.73" style="stroke:#181818;stroke-width:1.0;"/><text fill="#000000" font-family="sans-serif" font-size="13" lengthAdjust="spacing" textLength="26" x="257.5" y="250.4951">vault</text><text fill="#000000" font-family="sans-serif" font-size="13" lengthAdjust="spacing" textLength="7" x="275.5063" y="272.9873">1</text></g><!--link SABundle to Model--><g id="link_SABundle_Model"><path codeLine="32" d="M156.5,57.13 C156.5,76.85 156.5,91.03 156.5,116.86 " fill="none" id="SABundle-Model" style="stroke:#181818;stroke-width:1.0;"/><polygon fill="#181818" points="156.5,45.13,152.5,51.13,156.5,57.13,160.5,51.13,156.5,45.13" style="stroke:#181818;stroke-width:1.0;"/><polygon fill="#181818" points="156.5,122.86,160.5,113.86,156.5,117.86,152.5,113.86,156.5,122.86" style="stroke:#181818;stroke-width:1.0;"/><text fill="#000000" font-family="sans-serif" font-size="13" lengthAdjust="spacing" textLength="69" x="157.5" y="89.4951">secureVault</text><text fill="#000000" font-family="sans-serif" font-size="13" lengthAdjust="spacing" textLength="7" x="148.9203" y="112.1445">1</text></g><!--SRC=[XL5D2y8m3BtdLuHwKM47hpi82Zjw4lHSsp27jPEs6uZilziFTUikvf2auUMz91MAMuliIA8pTEATSWovnKChIU4Bq3hJw1erlnC0aXRc-N3B5I0C08Q4uxfM50X8niwGu48rzTLTL4UUmmCJtReejiWsB65Aj3v0nd9kpStBLLeetbFaoql_c6VeCamSibocIckG71VEI_zaPkWI-n0X67gRtcMtxxHKQPVluqDV6o8TZknjY3wwO3yaZg9fXXAPdNnMQdi3]--></g></svg>