<?xml version="1.0" encoding="UTF-8" standalone="no"?><svg xmlns="http://www.w3.org/2000/svg" xmlns:xlink="http://www.w3.org/1999/xlink" contentScriptType="application/ecmascript" contentStyleType="text/css" height="326px" preserveAspectRatio="none" style="width:378px;height:326px;" version="1.1" viewBox="0 0 378 326" width="378px" zoomAndPan="magnify"><defs><filter height="300%" id="f55f3m85kz55z" width="300%" x="-1" y="-1"><feGaussianBlur result="blurOut" stdDeviation="2.0"/><feColorMatrix in="blurOut" result="blurOut2" type="matrix" values="0 0 0 0 0 0 0 0 0 0 0 0 0 0 0 0 0 0 .4 0"/><feOffset dx="4.0" dy="4.0" in="blurOut2" result="blurOut3"/><feBlend in="SourceGraphic" in2="blurOut3" mode="normal"/></filter></defs><g><!--entity Seed--><rect fill="#ADD8E6" filter="url(#f55f3m85kz55z)" height="37.6094" style="stroke: #000000; stroke-width: 1.5;" width="53" x="6" y="278"/><text fill="#000000" font-family="sans-serif" font-size="14" lengthAdjust="spacingAndGlyphs" textLength="33" x="16" y="302.5332">Seed</text><!--entity WorkingEnclave--><rect fill="#ADD8E6" filter="url(#f55f3m85kz55z)" height="37.6094" style="stroke: #000000; stroke-width: 1.5;" width="122" x="94.5" y="278"/><text fill="#000000" font-family="sans-serif" font-size="14" lengthAdjust="spacingAndGlyphs" textLength="102" x="104.5" y="302.5332">WorkingEnclave</text><!--entity EncryptedVault--><rect fill="#ADD8E6" filter="url(#f55f3m85kz55z)" height="37.6094" style="stroke: #000000; stroke-width: 1.5;" width="116" x="251.5" y="278"/><text fill="#000000" font-family="sans-serif" font-size="14" lengthAdjust="spacingAndGlyphs" textLength="96" x="261.5" y="302.5332">EncryptedVault</text><!--entity SABundle--><rect fill="#90EE90" filter="url(#f55f3m85kz55z)" height="37.6094" style="stroke: #000000; stroke-width: 1.5;" width="82" x="114.5" y="8"/><text fill="#000000" font-family="sans-serif" font-size="14" lengthAdjust="spacingAndGlyphs" textLength="62" x="124.5" y="32.5332">SABundle</text><!--class Model--><rect fill="#FEFECE" filter="url(#f55f3m85kz55z)" height="75.6719" id="Model" style="stroke: #A80036; stroke-width: 1.5;" width="98" x="106.5" y="124"/><ellipse cx="121.5" cy="140" fill="#ADD1B2" rx="11" ry="11" style="stroke: #A80036; stroke-width: 1.0;"/><path d="M124.2656,135.875 Q124.4219,135.6563 124.6094,135.5469 Q124.7969,135.4375 125.0156,135.4375 Q125.3906,135.4375 125.625,135.6953 Q125.8594,135.9531 125.8594,136.5625 L125.8594,138.0156 Q125.8594,138.625 125.625,138.8906 Q125.3906,139.1563 125.0156,139.1563 Q124.6719,139.1563 124.4688,138.9531 Q124.2656,138.7656 124.1563,138.25 Q124.1094,137.8906 123.9219,137.7031 Q123.5938,137.3281 122.9844,137.1094 Q122.375,136.8906 121.75,136.8906 Q120.9844,136.8906 120.3516,137.2188 Q119.7188,137.5469 119.2266,138.2969 Q118.7344,139.0469 118.7344,140.0781 L118.7344,141.1719 Q118.7344,142.4063 119.625,143.2266 Q120.5156,144.0469 122.1094,144.0469 Q123.0469,144.0469 123.7031,143.7969 Q124.0938,143.6406 124.5156,143.2031 Q124.7813,142.9375 124.9297,142.8594 Q125.0781,142.7813 125.2813,142.7813 Q125.6094,142.7813 125.8672,143.0391 Q126.125,143.2969 126.125,143.6406 Q126.125,143.9844 125.7813,144.3906 Q125.2813,144.9688 124.4844,145.2969 Q123.4063,145.75 122.1094,145.75 Q120.5938,145.75 119.3906,145.125 Q118.4063,144.625 117.7188,143.5547 Q117.0313,142.4844 117.0313,141.2031 L117.0313,140.0469 Q117.0313,138.7188 117.6484,137.5703 Q118.2656,136.4219 119.3594,135.8047 Q120.4531,135.1875 121.6875,135.1875 Q122.4219,135.1875 123.0703,135.3516 Q123.7188,135.5156 124.2656,135.875 Z "/><text fill="#000000" font-family="sans-serif" font-size="12" lengthAdjust="spacingAndGlyphs" textLength="66" x="135.5" y="144.9102">SecureVault</text><line style="stroke: #A80036; stroke-width: 1.5;" x1="107.5" x2="203.5" y1="156" y2="156"/><text fill="#000000" font-family="sans-serif" font-size="11" lengthAdjust="spacingAndGlyphs" textLength="56" x="112.5" y="171.4189">string name</text><line style="stroke: #A80036; stroke-width: 1.5;" x1="107.5" x2="203.5" y1="177.8359" y2="177.8359"/><text fill="#000000" font-family="sans-serif" font-size="11" lengthAdjust="spacingAndGlyphs" textLength="45" x="112.5" y="193.2549">encrypt()</text><!--link Model to Seed--><path d="M112.166,209.857 C94.1755,229.3102 73.9063,251.2273 58.3153,268.0859 " fill="none" id="Model-Seed" style="stroke: #A80036; stroke-width: 1.0;"/><polygon fill="#A80036" points="49.2745,277.8618,58.3219,273.9702,52.6694,274.191,52.4486,268.5384,49.2745,277.8618" style="stroke: #A80036; stroke-width: 1.0;"/><line style="stroke: #A80036; stroke-width: 1.0;" x1="52.6694" x2="58.1011" y1="274.191" y2="268.3176"/><polygon fill="#A80036" points="121.238,200.048,114.2276,201.7375,113.0909,208.8585,120.1013,207.1689,121.238,200.048" style="stroke: #A80036; stroke-width: 1.0;"/><text fill="#000000" font-family="sans-serif" font-size="13" lengthAdjust="spacingAndGlyphs" textLength="28" x="91.5" y="244.4951">seed</text><text fill="#000000" font-family="sans-serif" font-size="13" lengthAdjust="spacingAndGlyphs" textLength="7" x="46.3398" y="267.1595">1</text><!--link Model to WorkingEnclave--><path d="M155.5,213.342 C155.5,230.5007 155.5,249.1871 155.5,264.4452 " fill="none" id="Model-WorkingEnclave" style="stroke: #A80036; stroke-width: 1.0;"/><polygon fill="#A80036" points="155.5,277.8618,159.5,268.8618,155.5,272.8618,151.5,268.8618,155.5,277.8618" style="stroke: #A80036; stroke-width: 1.0;"/><line style="stroke: #A80036; stroke-width: 1.0;" x1="155.5" x2="155.5" y1="272.8618" y2="264.8618"/><polygon fill="#A80036" points="155.5,200.048,151.5,206.048,155.5,212.048,159.5,206.048,155.5,200.048" style="stroke: #A80036; stroke-width: 1.0;"/><text fill="#000000" font-family="sans-serif" font-size="13" lengthAdjust="spacingAndGlyphs" textLength="43" x="156.5" y="244.4951">enclave</text><text fill="#000000" font-family="sans-serif" font-size="13" lengthAdjust="spacingAndGlyphs" textLength="7" x="147.4281" y="267.1595">1</text><!--link Model to EncryptedVault--><path d="M208.302,208.602 C231.745,228.8482 258.519,251.9712 278.637,269.3457 " fill="none" id="Model-EncryptedVault" style="stroke: #A80036; stroke-width: 1.0;"/><polygon fill="#A80036" points="288.498,277.8618,284.3011,268.9519,284.7139,274.5937,279.0721,275.0065,288.498,277.8618" style="stroke: #A80036; stroke-width: 1.0;"/><line style="stroke: #A80036; stroke-width: 1.0;" x1="284.7139" x2="278.659" y1="274.5937" y2="269.3647"/><polygon fill="#A80036" points="198.398,200.048,200.3249,206.9969,207.4804,207.8909,205.5535,200.942,198.398,200.048" style="stroke: #A80036; stroke-width: 1.0;"/><text fill="#000000" font-family="sans-serif" font-size="13" lengthAdjust="spacingAndGlyphs" textLength="26" x="252.5" y="244.4951">vault</text><text fill="#000000" font-family="sans-serif" font-size="13" lengthAdjust="spacingAndGlyphs" textLength="7" x="273.9943" y="267.1595">1</text><!--link SABundle to Model--><path d="M155.5,59.457 C155.5,74.784 155.5,93.587 155.5,110.829 " fill="none" id="SABundle-Model" style="stroke: #A80036; stroke-width: 1.0;"/><polygon fill="#A80036" points="155.5,123.924,159.5,114.924,155.5,118.924,151.5,114.924,155.5,123.924" style="stroke: #A80036; stroke-width: 1.0;"/><line style="stroke: #A80036; stroke-width: 1.0;" x1="155.5" x2="155.5" y1="118.924" y2="110.9245"/><polygon fill="#A80036" points="155.5,46.214,151.5,52.214,155.5,58.214,159.5,52.214,155.5,46.214" style="stroke: #A80036; stroke-width: 1.0;"/><text fill="#000000" font-family="sans-serif" font-size="13" lengthAdjust="spacingAndGlyphs" textLength="69" x="156.5" y="90.4951">secureVault</text><text fill="#000000" font-family="sans-serif" font-size="13" lengthAdjust="spacingAndGlyphs" textLength="7" x="147.8766" y="113.2724">1</text><!--
@startuml

class "SecureVault" as Model {
 string name

 encrypt()
 
}

rectangle "Seed" as Seed #lightblue {
}

Model *- -> "1" Seed : seed


rectangle "WorkingEnclave" as WorkingEnclave #lightblue {
}

Model *- -> "1" WorkingEnclave : enclave


rectangle "EncryptedVault" as EncryptedVault #lightblue {
}

Model *- -> "1" EncryptedVault : vault




    rectangle "SABundle" as SABundle #lightgreen {
    }
    
        SABundle   *- -> "1" Model : "secureVault"
    

@enduml

PlantUML version 1.2019.05(Sat Apr 20 09:45:36 PDT 2019)
(GPL source distribution)
Java Runtime: Java(TM) SE Runtime Environment
JVM: Java HotSpot(TM) Client VM
Java Version: 1.8.0_271-b09
Operating System: Windows 10
OS Version: 10.0
Default Encoding: Cp1252
Language: en
Country: US
--></g></svg>