<?xml version="1.0" encoding="UTF-8" standalone="no"?><svg xmlns="http://www.w3.org/2000/svg" xmlns:xlink="http://www.w3.org/1999/xlink" contentScriptType="application/ecmascript" contentStyleType="text/css" height="334px" preserveAspectRatio="none" style="width:629px;height:334px;" version="1.1" viewBox="0 0 629 334" width="629px" zoomAndPan="magnify"><defs><filter height="300%" id="f1pf65qbf6i5a1" width="300%" x="-1" y="-1"><feGaussianBlur result="blurOut" stdDeviation="2.0"/><feColorMatrix in="blurOut" result="blurOut2" type="matrix" values="0 0 0 0 0 0 0 0 0 0 0 0 0 0 0 0 0 0 .4 0"/><feOffset dx="4.0" dy="4.0" in="blurOut2" result="blurOut3"/><feBlend in="SourceGraphic" in2="blurOut3" mode="normal"/></filter></defs><g><!--entity DataChannel--><rect fill="#ADD8E6" filter="url(#f1pf65qbf6i5a1)" height="37.6094" style="stroke: #000000; stroke-width: 1.5;" width="103" x="6" y="286"/><text fill="#000000" font-family="sans-serif" font-size="14" lengthAdjust="spacingAndGlyphs" textLength="83" x="16" y="310.5332">DataChannel</text><!--entity DataStreamInstance--><rect fill="#ADD8E6" filter="url(#f1pf65qbf6i5a1)" height="37.6094" style="stroke: #000000; stroke-width: 1.5;" width="148" x="144.5" y="286"/><text fill="#000000" font-family="sans-serif" font-size="14" lengthAdjust="spacingAndGlyphs" textLength="128" x="154.5" y="310.5332">DataStreamInstance</text><!--entity ServiceInstance--><rect fill="#ADD8E6" filter="url(#f1pf65qbf6i5a1)" height="37.6094" style="stroke: #000000; stroke-width: 1.5;" width="120" x="327.5" y="286"/><text fill="#000000" font-family="sans-serif" font-size="14" lengthAdjust="spacingAndGlyphs" textLength="100" x="337.5" y="310.5332">ServiceInstance</text><!--entity SABundleInstance--><rect fill="#ADD8E6" filter="url(#f1pf65qbf6i5a1)" height="37.6094" style="stroke: #000000; stroke-width: 1.5;" width="135" x="483" y="286"/><text fill="#000000" font-family="sans-serif" font-size="14" lengthAdjust="spacingAndGlyphs" textLength="115" x="493" y="310.5332">SABundleInstance</text><!--class Model--><rect fill="#FEFECE" filter="url(#f1pf65qbf6i5a1)" height="200.1953" id="Model" style="stroke: #A80036; stroke-width: 1.5;" width="162" x="221.5" y="8"/><ellipse cx="236.5" cy="24" fill="#ADD1B2" rx="11" ry="11" style="stroke: #A80036; stroke-width: 1.0;"/><path d="M239.2656,19.875 Q239.4219,19.6563 239.6094,19.5469 Q239.7969,19.4375 240.0156,19.4375 Q240.3906,19.4375 240.625,19.6953 Q240.8594,19.9531 240.8594,20.5625 L240.8594,22.0156 Q240.8594,22.625 240.625,22.8906 Q240.3906,23.1563 240.0156,23.1563 Q239.6719,23.1563 239.4688,22.9531 Q239.2656,22.7656 239.1563,22.25 Q239.1094,21.8906 238.9219,21.7031 Q238.5938,21.3281 237.9844,21.1094 Q237.375,20.8906 236.75,20.8906 Q235.9844,20.8906 235.3516,21.2188 Q234.7188,21.5469 234.2266,22.2969 Q233.7344,23.0469 233.7344,24.0781 L233.7344,25.1719 Q233.7344,26.4063 234.625,27.2266 Q235.5156,28.0469 237.1094,28.0469 Q238.0469,28.0469 238.7031,27.7969 Q239.0938,27.6406 239.5156,27.2031 Q239.7813,26.9375 239.9297,26.8594 Q240.0781,26.7813 240.2813,26.7813 Q240.6094,26.7813 240.8672,27.0391 Q241.125,27.2969 241.125,27.6406 Q241.125,27.9844 240.7813,28.3906 Q240.2813,28.9688 239.4844,29.2969 Q238.4063,29.75 237.1094,29.75 Q235.5938,29.75 234.3906,29.125 Q233.4063,28.625 232.7188,27.5547 Q232.0313,26.4844 232.0313,25.2031 L232.0313,24.0469 Q232.0313,22.7188 232.6484,21.5703 Q233.2656,20.4219 234.3594,19.8047 Q235.4531,19.1875 236.6875,19.1875 Q237.4219,19.1875 238.0703,19.3516 Q238.7188,19.5156 239.2656,19.875 Z "/><text fill="#000000" font-family="sans-serif" font-size="12" lengthAdjust="spacingAndGlyphs" textLength="130" x="250.5" y="28.9102">OutputChannelInstance</text><line style="stroke: #A80036; stroke-width: 1.5;" x1="222.5" x2="382.5" y1="40" y2="40"/><text fill="#000000" font-family="sans-serif" font-size="11" lengthAdjust="spacingAndGlyphs" textLength="61" x="227.5" y="55.4189">ref producer</text><text fill="#000000" font-family="sans-serif" font-size="11" lengthAdjust="spacingAndGlyphs" textLength="47" x="227.5" y="69.2549">ref queue</text><text fill="#000000" font-family="sans-serif" font-size="11" lengthAdjust="spacingAndGlyphs" textLength="101" x="227.5" y="83.0908">string producerName</text><text fill="#000000" font-family="sans-serif" font-size="11" lengthAdjust="spacingAndGlyphs" textLength="56" x="227.5" y="96.9268">string name</text><text fill="#000000" font-family="sans-serif" font-size="11" lengthAdjust="spacingAndGlyphs" textLength="71" x="227.5" y="110.7627">string direction</text><text fill="#000000" font-family="sans-serif" font-size="11" lengthAdjust="spacingAndGlyphs" textLength="74" x="227.5" y="124.5986">string message</text><line style="stroke: #A80036; stroke-width: 1.5;" x1="222.5" x2="382.5" y1="131.0156" y2="131.0156"/><text fill="#000000" font-family="sans-serif" font-size="11" lengthAdjust="spacingAndGlyphs" textLength="39" x="227.5" y="146.4346">create()</text><text fill="#000000" font-family="sans-serif" font-size="11" lengthAdjust="spacingAndGlyphs" textLength="40" x="227.5" y="160.2705">deploy()</text><text fill="#000000" font-family="sans-serif" font-size="11" lengthAdjust="spacingAndGlyphs" textLength="32" x="227.5" y="174.1064">send()</text><text fill="#000000" font-family="sans-serif" font-size="11" lengthAdjust="spacingAndGlyphs" textLength="60" x="227.5" y="187.9424">sendBatch()</text><text fill="#000000" font-family="sans-serif" font-size="11" lengthAdjust="spacingAndGlyphs" textLength="34" x="227.5" y="201.7783">failed()</text><!--link Model to DataChannel--><path d="M210.988,181.836 C168.953,215.293 121.708,252.8956 90.8778,277.434 " fill="none" id="Model-DataChannel" style="stroke: #A80036; stroke-width: 1.0;"/><polygon fill="#A80036" points="80.302,285.8515,89.8348,283.3765,84.2141,282.7378,84.8528,277.1171,80.302,285.8515" style="stroke: #A80036; stroke-width: 1.0;"/><line style="stroke: #A80036; stroke-width: 1.0;" x1="84.2141" x2="90.4735" y1="282.7378" y2="277.7558"/><polygon fill="#FFFFFF" points="221.259,173.661,214.0735,174.2678,211.8699,181.134,219.0555,180.5272,221.259,173.661" style="stroke: #A80036; stroke-width: 1.0;"/><text fill="#000000" font-family="sans-serif" font-size="13" lengthAdjust="spacingAndGlyphs" textLength="38" x="138.5" y="252.4951">design</text><text fill="#000000" font-family="sans-serif" font-size="13" lengthAdjust="spacingAndGlyphs" textLength="7" x="79.2132" y="275.146">1</text><!--link Model to DataStreamInstance--><path d="M254.526,220.368 C246.137,239.8438 238.072,258.5659 231.707,273.3402 " fill="none" id="Model-DataStreamInstance" style="stroke: #A80036; stroke-width: 1.0;"/><polygon fill="#A80036" points="226.38,285.7069,233.6142,279.0236,228.358,281.1148,226.2668,275.8587,226.38,285.7069" style="stroke: #A80036; stroke-width: 1.0;"/><line style="stroke: #A80036; stroke-width: 1.0;" x1="228.358" x2="231.523" y1="281.1148" y2="273.7676"/><polygon fill="#FFFFFF" points="259.762,208.214,253.7146,212.1419,255.0144,219.2349,261.0619,215.307,259.762,208.214" style="stroke: #A80036; stroke-width: 1.0;"/><text fill="#000000" font-family="sans-serif" font-size="13" lengthAdjust="spacingAndGlyphs" textLength="40" x="247.5" y="252.4951">stream</text><text fill="#000000" font-family="sans-serif" font-size="13" lengthAdjust="spacingAndGlyphs" textLength="7" x="220.6666" y="275.2937">1</text><!--link Model to ServiceInstance--><path d="M351.045,220.368 C359.534,239.8438 367.695,258.5659 374.135,273.3402 " fill="none" id="Model-ServiceInstance" style="stroke: #A80036; stroke-width: 1.0;"/><polygon fill="#A80036" points="379.526,285.7069,379.5965,275.8583,377.5281,281.1234,372.2629,279.055,379.526,285.7069" style="stroke: #A80036; stroke-width: 1.0;"/><line style="stroke: #A80036; stroke-width: 1.0;" x1="377.5281" x2="374.331" y1="281.1234" y2="273.7899"/><polygon fill="#FFFFFF" points="345.747,208.214,344.4775,215.3125,350.5417,219.2145,351.8112,212.116,345.747,208.214" style="stroke: #A80036; stroke-width: 1.0;"/><text fill="#000000" font-family="sans-serif" font-size="13" lengthAdjust="spacingAndGlyphs" textLength="103" x="366.5" y="252.4951">transformInstance</text><text fill="#000000" font-family="sans-serif" font-size="13" lengthAdjust="spacingAndGlyphs" textLength="7" x="369.1555" y="275.2937">n</text><!--link Model to SABundleInstance--><path d="M394.445,173.478 C421.955,193.542 451.871,216.146 478.5,238 C493.291,250.1383 509.03,264.3984 522.01,276.5517 " fill="none" id="Model-SABundleInstance" style="stroke: #A80036; stroke-width: 1.0;"/><polygon fill="#A80036" points="531.756,285.766,527.9644,276.6763,528.1228,282.3309,522.4682,282.4893,531.756,285.766" style="stroke: #A80036; stroke-width: 1.0;"/><line style="stroke: #A80036; stroke-width: 1.0;" x1="528.1228" x2="522.309" y1="282.3309" y2="276.835"/><polygon fill="#FFFFFF" points="383.631,165.63,386.1376,172.3914,393.343,172.6783,390.8364,165.9168,383.631,165.63" style="stroke: #A80036; stroke-width: 1.0;"/><text fill="#000000" font-family="sans-serif" font-size="13" lengthAdjust="spacingAndGlyphs" textLength="38" x="500.5" y="252.4951">bundle</text><text fill="#000000" font-family="sans-serif" font-size="13" lengthAdjust="spacingAndGlyphs" textLength="7" x="517.9438" y="275.0344">1</text><!--
@startuml

class "OutputChannelInstance" as Model {
 ref producer
 ref queue
 string producerName
 string name
 string direction
 string message

 create()
 deploy()
 send()
 sendBatch()
 failed()
 
}

rectangle "DataChannel" as DataChannel #lightblue {
}

Model o- -> "1" DataChannel : design


rectangle "DataStreamInstance" as DataStreamInstance #lightblue {
}

Model o- -> "1" DataStreamInstance : stream


rectangle "ServiceInstance" as ServiceInstance #lightblue {
}

Model o- -> "n" ServiceInstance : transformInstance


rectangle "SABundleInstance" as SABundleInstance #lightblue {
}

Model o- -> "1" SABundleInstance : bundle





@enduml

PlantUML version 1.2019.05(Sat Apr 20 09:45:36 PDT 2019)
(GPL source distribution)
Java Runtime: Java(TM) SE Runtime Environment
JVM: Java HotSpot(TM) Client VM
Java Version: 1.8.0_271-b09
Operating System: Windows 10
OS Version: 10.0
Default Encoding: Cp1252
Language: en
Country: US
--></g></svg>