<?xml version="1.0" encoding="us-ascii" standalone="no"?><svg xmlns="http://www.w3.org/2000/svg" xmlns:xlink="http://www.w3.org/1999/xlink" contentStyleType="text/css" height="496px" preserveAspectRatio="none" style="width:3198px;height:496px;background:#FFFFFF;" version="1.1" viewBox="0 0 3198 496" width="3198px" zoomAndPan="magnify"><defs/><g><!--cluster headquarters--><g id="cluster_headquarters"><polygon fill="none" points="1106,335.47,1116,325.47,1436,325.47,1436,445.47,1426,455.47,1106,455.47,1106,335.47" style="stroke:#181818;stroke-width:1.0;"/><line style="stroke:#181818;stroke-width:1.0;" x1="1426" x2="1436" y1="335.47" y2="325.47"/><line style="stroke:#181818;stroke-width:1.0;" x1="1106" x2="1426" y1="335.47" y2="335.47"/><line style="stroke:#181818;stroke-width:1.0;" x1="1426" x2="1426" y1="335.47" y2="455.47"/><text fill="#000000" font-family="sans-serif" font-size="14" font-weight="bold" lengthAdjust="spacing" textLength="95" x="1219.5" y="353.0032">headquarters</text></g><!--cluster DroneNode--><g id="cluster_DroneNode"><polygon fill="none" points="1331,50.47,1341,40.47,2547,40.47,2547,265.47,2537,275.47,1331,275.47,1331,50.47" style="stroke:#181818;stroke-width:1.0;"/><line style="stroke:#181818;stroke-width:1.0;" x1="2537" x2="2547" y1="50.47" y2="40.47"/><line style="stroke:#181818;stroke-width:1.0;" x1="1331" x2="2537" y1="50.47" y2="50.47"/><line style="stroke:#181818;stroke-width:1.0;" x1="2537" x2="2537" y1="50.47" y2="275.47"/><text fill="#000000" font-family="sans-serif" font-size="14" font-weight="bold" lengthAdjust="spacing" textLength="80" x="1895" y="68.0032">DroneNode</text></g><!--cluster AISSABR--><g id="cluster_AISSABR"><rect fill="none" height="120" rx="2.5" ry="2.5" style="stroke:#181818;stroke-width:1.0;" width="327" x="2196" y="115.47"/><rect fill="none" height="10" style="stroke:#181818;stroke-width:1.0;" width="15" x="2503" y="120.47"/><rect fill="none" height="2" style="stroke:#181818;stroke-width:1.0;" width="4" x="2501" y="122.47"/><rect fill="none" height="2" style="stroke:#181818;stroke-width:1.0;" width="4" x="2501" y="126.47"/><text fill="#000000" font-family="sans-serif" font-size="14" font-weight="bold" lengthAdjust="spacing" textLength="60" x="2329.5" y="143.0032">AISSABR</text></g><!--cluster UpdateController--><g id="cluster_UpdateController"><polygon fill="none" points="1601,107.47,1611,97.47,2164,97.47,2164,233.47,2154,243.47,1601,243.47,1601,107.47" style="stroke:#181818;stroke-width:1.0;"/><line style="stroke:#181818;stroke-width:1.0;" x1="2154" x2="2164" y1="107.47" y2="97.47"/><line style="stroke:#181818;stroke-width:1.0;" x1="1601" x2="2154" y1="107.47" y2="107.47"/><line style="stroke:#181818;stroke-width:1.0;" x1="2154" x2="2154" y1="107.47" y2="243.47"/><text fill="#000000" font-family="sans-serif" font-size="14" font-weight="bold" lengthAdjust="spacing" textLength="121" x="1818" y="125.0032">UpdateController</text></g><!--cluster AEPEdge--><g id="cluster_AEPEdge"><polygon fill="none" points="16,71.47,26,61.47,1307,61.47,1307,249.47,1297,259.47,16,259.47,16,71.47" style="stroke:#181818;stroke-width:1.0;"/><line style="stroke:#181818;stroke-width:1.0;" x1="1297" x2="1307" y1="71.47" y2="61.47"/><line style="stroke:#181818;stroke-width:1.0;" x1="16" x2="1297" y1="71.47" y2="71.47"/><line style="stroke:#181818;stroke-width:1.0;" x1="1297" x2="1297" y1="71.47" y2="259.47"/><text fill="#000000" font-family="sans-serif" font-size="14" font-weight="bold" lengthAdjust="spacing" textLength="63" x="626" y="89.0032">AEPEdge</text></g><!--cluster AISAGG--><g id="cluster_AISAGG"><rect fill="none" height="120" rx="2.5" ry="2.5" style="stroke:#181818;stroke-width:1.0;" width="554" x="729" y="115.47"/><rect fill="none" height="10" style="stroke:#181818;stroke-width:1.0;" width="15" x="1263" y="120.47"/><rect fill="none" height="2" style="stroke:#181818;stroke-width:1.0;" width="4" x="1261" y="122.47"/><rect fill="none" height="2" style="stroke:#181818;stroke-width:1.0;" width="4" x="1261" y="126.47"/><text fill="#000000" font-family="sans-serif" font-size="14" font-weight="bold" lengthAdjust="spacing" textLength="53" x="979.5" y="143.0032">AISAGG</text></g><!--cluster PulsarPubSubHub--><g id="cluster_PulsarPubSubHub"><polygon fill="none" points="2571,66.47,2581,56.47,3181,56.47,3181,469.47,3171,479.47,2571,479.47,2571,66.47" style="stroke:#181818;stroke-width:1.0;"/><line style="stroke:#181818;stroke-width:1.0;" x1="3171" x2="3181" y1="66.47" y2="56.47"/><line style="stroke:#181818;stroke-width:1.0;" x1="2571" x2="3171" y1="66.47" y2="66.47"/><line style="stroke:#181818;stroke-width:1.0;" x1="3171" x2="3171" y1="66.47" y2="479.47"/><text fill="#000000" font-family="sans-serif" font-size="14" font-weight="bold" lengthAdjust="spacing" textLength="126" x="2809" y="84.0032">PulsarPubSubHub</text></g><!--cluster AISStream--><g id="cluster_AISStream"><polygon fill="none" points="2896,115.47,2906,105.47,3157,105.47,3157,445.47,3147,455.47,2896,455.47,2896,115.47" style="stroke:#181818;stroke-width:1.0;"/><line style="stroke:#181818;stroke-width:1.0;" x1="3147" x2="3157" y1="115.47" y2="105.47"/><line style="stroke:#181818;stroke-width:1.0;" x1="2896" x2="3147" y1="115.47" y2="115.47"/><line style="stroke:#181818;stroke-width:1.0;" x1="3147" x2="3147" y1="115.47" y2="455.47"/><text fill="#000000" font-family="sans-serif" font-size="14" font-weight="bold" lengthAdjust="spacing" textLength="71" x="2987" y="133.0032">AISStream</text></g><!--cluster AISHealth--><g id="cluster_AISHealth"><polygon fill="none" points="2595,115.47,2605,105.47,2872,105.47,2872,445.47,2862,455.47,2595,455.47,2595,115.47" style="stroke:#181818;stroke-width:1.0;"/><line style="stroke:#181818;stroke-width:1.0;" x1="2862" x2="2872" y1="115.47" y2="105.47"/><line style="stroke:#181818;stroke-width:1.0;" x1="2595" x2="2862" y1="115.47" y2="115.47"/><line style="stroke:#181818;stroke-width:1.0;" x1="2862" x2="2862" y1="115.47" y2="455.47"/><text fill="#000000" font-family="sans-serif" font-size="14" font-weight="bold" lengthAdjust="spacing" textLength="67" x="2696" y="133.0032">AISHealth</text></g><!--entity DevSecOps--><g id="elem_DevSecOps"><polygon fill="#F1F1F1" points="1122.5,401.47,1132.5,391.47,1237.5,391.47,1237.5,429.0794,1227.5,439.0794,1122.5,439.0794,1122.5,401.47" style="stroke:#181818;stroke-width:0.5;"/><line style="stroke:#181818;stroke-width:0.5;" x1="1227.5" x2="1237.5" y1="401.47" y2="391.47"/><line style="stroke:#181818;stroke-width:0.5;" x1="1122.5" x2="1227.5" y1="401.47" y2="401.47"/><line style="stroke:#181818;stroke-width:0.5;" x1="1227.5" x2="1227.5" y1="401.47" y2="439.0794"/><text fill="#000000" font-family="sans-serif" font-size="14" lengthAdjust="spacing" textLength="75" x="1137.5" y="426.0032">DevSecOps</text></g><!--entity SecurityManager--><g id="elem_SecurityManager"><polygon fill="#F1F1F1" points="1272.5,401.47,1282.5,391.47,1419.5,391.47,1419.5,429.0794,1409.5,439.0794,1272.5,439.0794,1272.5,401.47" style="stroke:#181818;stroke-width:0.5;"/><line style="stroke:#181818;stroke-width:0.5;" x1="1409.5" x2="1419.5" y1="401.47" y2="391.47"/><line style="stroke:#181818;stroke-width:0.5;" x1="1272.5" x2="1409.5" y1="401.47" y2="401.47"/><line style="stroke:#181818;stroke-width:0.5;" x1="1409.5" x2="1409.5" y1="401.47" y2="439.0794"/><text fill="#000000" font-family="sans-serif" font-size="14" lengthAdjust="spacing" textLength="107" x="1287.5" y="426.0032">SecurityManager</text></g><!--entity AISStream.key--><g id="elem_AISStream.key"><rect fill="#F1F1F1" height="47.6094" rx="2.5" ry="2.5" style="stroke:#181818;stroke-width:0.5;" width="132" x="2375" y="171.47"/><rect fill="#F1F1F1" height="10" style="stroke:#181818;stroke-width:0.5;" width="15" x="2487" y="176.47"/><rect fill="#F1F1F1" height="2" style="stroke:#181818;stroke-width:0.5;" width="4" x="2485" y="178.47"/><rect fill="#F1F1F1" height="2" style="stroke:#181818;stroke-width:0.5;" width="4" x="2485" y="182.47"/><text fill="#000000" font-family="sans-serif" font-size="14" lengthAdjust="spacing" textLength="92" x="2390" y="206.0032">AISStream.key</text></g><!--entity AISHealth.key--><g id="elem_AISHealth.key"><rect fill="#F1F1F1" height="47.6094" rx="2.5" ry="2.5" style="stroke:#181818;stroke-width:0.5;" width="127" x="2212.5" y="171.47"/><rect fill="#F1F1F1" height="10" style="stroke:#181818;stroke-width:0.5;" width="15" x="2319.5" y="176.47"/><rect fill="#F1F1F1" height="2" style="stroke:#181818;stroke-width:0.5;" width="4" x="2317.5" y="178.47"/><rect fill="#F1F1F1" height="2" style="stroke:#181818;stroke-width:0.5;" width="4" x="2317.5" y="182.47"/><text fill="#000000" font-family="sans-serif" font-size="14" lengthAdjust="spacing" textLength="87" x="2227.5" y="206.0032">AISHealth.key</text></g><!--entity USVSABR--><g id="elem_USVSABR"><rect fill="#F1F1F1" height="47.6094" rx="2.5" ry="2.5" style="stroke:#181818;stroke-width:0.5;" width="104" x="1470" y="171.47"/><rect fill="#F1F1F1" height="10" style="stroke:#181818;stroke-width:0.5;" width="15" x="1554" y="176.47"/><rect fill="#F1F1F1" height="2" style="stroke:#181818;stroke-width:0.5;" width="4" x="1552" y="178.47"/><rect fill="#F1F1F1" height="2" style="stroke:#181818;stroke-width:0.5;" width="4" x="1552" y="182.47"/><text fill="#000000" font-family="sans-serif" font-size="14" lengthAdjust="spacing" textLength="64" x="1485" y="206.0032">USVSABR</text></g><!--entity SecureComms--><g id="elem_SecureComms"><rect fill="#F1F1F1" height="47.6094" rx="2.5" ry="2.5" style="stroke:#181818;stroke-width:0.5;" width="132" x="1873" y="171.47"/><rect fill="#F1F1F1" height="10" style="stroke:#181818;stroke-width:0.5;" width="15" x="1985" y="176.47"/><rect fill="#F1F1F1" height="2" style="stroke:#181818;stroke-width:0.5;" width="4" x="1983" y="178.47"/><rect fill="#F1F1F1" height="2" style="stroke:#181818;stroke-width:0.5;" width="4" x="1983" y="182.47"/><text fill="#000000" font-family="sans-serif" font-size="14" lengthAdjust="spacing" textLength="92" x="1888" y="206.0032">SecureComms</text></g><!--entity UpdaterA--><g id="elem_UpdaterA"><rect fill="#F1F1F1" height="47.6094" rx="2.5" ry="2.5" style="stroke:#181818;stroke-width:0.5;" width="99" x="2040.5" y="171.47"/><rect fill="#F1F1F1" height="10" style="stroke:#181818;stroke-width:0.5;" width="15" x="2119.5" y="176.47"/><rect fill="#F1F1F1" height="2" style="stroke:#181818;stroke-width:0.5;" width="4" x="2117.5" y="178.47"/><rect fill="#F1F1F1" height="2" style="stroke:#181818;stroke-width:0.5;" width="4" x="2117.5" y="182.47"/><text fill="#000000" font-family="sans-serif" font-size="14" lengthAdjust="spacing" textLength="59" x="2055.5" y="206.0032">UpdaterA</text></g><!--entity internalSecurityEngineG--><g id="elem_internalSecurityEngineG"><rect fill="#F1F1F1" height="47.6094" rx="2.5" ry="2.5" style="stroke:#181818;stroke-width:0.5;" width="193" x="1644.5" y="171.47"/><rect fill="#F1F1F1" height="10" style="stroke:#181818;stroke-width:0.5;" width="15" x="1817.5" y="176.47"/><rect fill="#F1F1F1" height="2" style="stroke:#181818;stroke-width:0.5;" width="4" x="1815.5" y="178.47"/><rect fill="#F1F1F1" height="2" style="stroke:#181818;stroke-width:0.5;" width="4" x="1815.5" y="182.47"/><text fill="#000000" font-family="sans-serif" font-size="14" lengthAdjust="spacing" textLength="153" x="1659.5" y="206.0032">internalSecurityEngineG</text></g><!--entity Pulsar1--><g id="elem_Pulsar1"><polygon fill="#F1F1F1" points="1347,181.47,1357,171.47,1435,171.47,1435,209.0794,1425,219.0794,1347,219.0794,1347,181.47" style="stroke:#181818;stroke-width:0.5;"/><line style="stroke:#181818;stroke-width:0.5;" x1="1425" x2="1435" y1="181.47" y2="171.47"/><line style="stroke:#181818;stroke-width:0.5;" x1="1347" x2="1425" y1="181.47" y2="181.47"/><line style="stroke:#181818;stroke-width:0.5;" x1="1425" x2="1425" y1="181.47" y2="219.0794"/><text fill="#000000" font-family="sans-serif" font-size="14" lengthAdjust="spacing" textLength="48" x="1362" y="206.0032">Pulsar1</text></g><!--entity UpdateControllerAEP--><g id="elem_UpdateControllerAEP"><polygon fill="#F1F1F1" points="1093,181.47,1103,171.47,1267,171.47,1267,209.0794,1257,219.0794,1093,219.0794,1093,181.47" style="stroke:#181818;stroke-width:0.5;"/><line style="stroke:#181818;stroke-width:0.5;" x1="1257" x2="1267" y1="181.47" y2="171.47"/><line style="stroke:#181818;stroke-width:0.5;" x1="1093" x2="1257" y1="181.47" y2="181.47"/><line style="stroke:#181818;stroke-width:0.5;" x1="1257" x2="1257" y1="181.47" y2="219.0794"/><text fill="#000000" font-family="sans-serif" font-size="14" lengthAdjust="spacing" textLength="134" x="1108" y="206.0032">UpdateControllerAEP</text></g><!--entity AISStream.keyA--><g id="elem_AISStream.keyA"><rect fill="#F1F1F1" height="47.6094" rx="2.5" ry="2.5" style="stroke:#181818;stroke-width:0.5;" width="141" x="916.5" y="171.47"/><rect fill="#F1F1F1" height="10" style="stroke:#181818;stroke-width:0.5;" width="15" x="1037.5" y="176.47"/><rect fill="#F1F1F1" height="2" style="stroke:#181818;stroke-width:0.5;" width="4" x="1035.5" y="178.47"/><rect fill="#F1F1F1" height="2" style="stroke:#181818;stroke-width:0.5;" width="4" x="1035.5" y="182.47"/><text fill="#000000" font-family="sans-serif" font-size="14" lengthAdjust="spacing" textLength="101" x="931.5" y="206.0032">AISStream.keyA</text></g><!--entity AISHealth.keyA--><g id="elem_AISHealth.keyA"><rect fill="#F1F1F1" height="47.6094" rx="2.5" ry="2.5" style="stroke:#181818;stroke-width:0.5;" width="136" x="745" y="171.47"/><rect fill="#F1F1F1" height="10" style="stroke:#181818;stroke-width:0.5;" width="15" x="861" y="176.47"/><rect fill="#F1F1F1" height="2" style="stroke:#181818;stroke-width:0.5;" width="4" x="859" y="178.47"/><rect fill="#F1F1F1" height="2" style="stroke:#181818;stroke-width:0.5;" width="4" x="859" y="182.47"/><text fill="#000000" font-family="sans-serif" font-size="14" lengthAdjust="spacing" textLength="96" x="760" y="206.0032">AISHealth.keyA</text></g><!--entity AISNoContact--><g id="elem_AISNoContact"><rect fill="#F1F1F1" height="47.6094" rx="2.5" ry="2.5" style="stroke:#181818;stroke-width:0.5;" width="127" x="582.5" y="171.47"/><rect fill="#F1F1F1" height="10" style="stroke:#181818;stroke-width:0.5;" width="15" x="689.5" y="176.47"/><rect fill="#F1F1F1" height="2" style="stroke:#181818;stroke-width:0.5;" width="4" x="687.5" y="178.47"/><rect fill="#F1F1F1" height="2" style="stroke:#181818;stroke-width:0.5;" width="4" x="687.5" y="182.47"/><text fill="#000000" font-family="sans-serif" font-size="14" lengthAdjust="spacing" textLength="87" x="597.5" y="206.0032">AISNoContact</text></g><!--entity AISGhost--><g id="elem_AISGhost"><rect fill="#F1F1F1" height="47.6094" rx="2.5" ry="2.5" style="stroke:#181818;stroke-width:0.5;" width="99" x="448.5" y="171.47"/><rect fill="#F1F1F1" height="10" style="stroke:#181818;stroke-width:0.5;" width="15" x="527.5" y="176.47"/><rect fill="#F1F1F1" height="2" style="stroke:#181818;stroke-width:0.5;" width="4" x="525.5" y="178.47"/><rect fill="#F1F1F1" height="2" style="stroke:#181818;stroke-width:0.5;" width="4" x="525.5" y="182.47"/><text fill="#000000" font-family="sans-serif" font-size="14" lengthAdjust="spacing" textLength="59" x="463.5" y="206.0032">AISGhost</text></g><!--entity AISPhatom--><g id="elem_AISPhatom"><rect fill="#F1F1F1" height="47.6094" rx="2.5" ry="2.5" style="stroke:#181818;stroke-width:0.5;" width="109" x="304.5" y="171.47"/><rect fill="#F1F1F1" height="10" style="stroke:#181818;stroke-width:0.5;" width="15" x="393.5" y="176.47"/><rect fill="#F1F1F1" height="2" style="stroke:#181818;stroke-width:0.5;" width="4" x="391.5" y="178.47"/><rect fill="#F1F1F1" height="2" style="stroke:#181818;stroke-width:0.5;" width="4" x="391.5" y="182.47"/><text fill="#000000" font-family="sans-serif" font-size="14" lengthAdjust="spacing" textLength="69" x="319.5" y="206.0032">AISPhatom</text></g><!--entity AISBadTrack--><g id="elem_AISBadTrack"><rect fill="#F1F1F1" height="47.6094" rx="2.5" ry="2.5" style="stroke:#181818;stroke-width:0.5;" width="122" x="147" y="171.47"/><rect fill="#F1F1F1" height="10" style="stroke:#181818;stroke-width:0.5;" width="15" x="249" y="176.47"/><rect fill="#F1F1F1" height="2" style="stroke:#181818;stroke-width:0.5;" width="4" x="247" y="178.47"/><rect fill="#F1F1F1" height="2" style="stroke:#181818;stroke-width:0.5;" width="4" x="247" y="182.47"/><text fill="#000000" font-family="sans-serif" font-size="14" lengthAdjust="spacing" textLength="82" x="162" y="206.0032">AISBadTrack</text></g><!--entity Pulsar--><g id="elem_Pulsar"><polygon fill="#F1F1F1" points="32,181.47,42,171.47,112,171.47,112,209.0794,102,219.0794,32,219.0794,32,181.47" style="stroke:#181818;stroke-width:0.5;"/><line style="stroke:#181818;stroke-width:0.5;" x1="102" x2="112" y1="181.47" y2="171.47"/><line style="stroke:#181818;stroke-width:0.5;" x1="32" x2="102" y1="181.47" y2="181.47"/><line style="stroke:#181818;stroke-width:0.5;" x1="102" x2="102" y1="181.47" y2="219.0794"/><text fill="#000000" font-family="sans-serif" font-size="14" lengthAdjust="spacing" textLength="40" x="47" y="206.0032">Pulsar</text></g><!--entity key--><g id="elem_key"><rect fill="#F1F1F1" height="47.6094" rx="2.5" ry="2.5" style="stroke:#181818;stroke-width:0.5;" width="62" x="2929" y="171.47"/><rect fill="#F1F1F1" height="10" style="stroke:#181818;stroke-width:0.5;" width="15" x="2971" y="176.47"/><rect fill="#F1F1F1" height="2" style="stroke:#181818;stroke-width:0.5;" width="4" x="2969" y="178.47"/><rect fill="#F1F1F1" height="2" style="stroke:#181818;stroke-width:0.5;" width="4" x="2969" y="182.47"/><text fill="#000000" font-family="sans-serif" font-size="14" lengthAdjust="spacing" textLength="22" x="2944" y="206.0032">key</text></g><!--entity realtime--><g id="elem_realtime"><rect fill="#F1F1F1" height="47.6094" rx="2.5" ry="2.5" style="stroke:#181818;stroke-width:0.5;" width="90" x="3026" y="171.47"/><rect fill="#F1F1F1" height="10" style="stroke:#181818;stroke-width:0.5;" width="15" x="3096" y="176.47"/><rect fill="#F1F1F1" height="2" style="stroke:#181818;stroke-width:0.5;" width="4" x="3094" y="178.47"/><rect fill="#F1F1F1" height="2" style="stroke:#181818;stroke-width:0.5;" width="4" x="3094" y="182.47"/><text fill="#000000" font-family="sans-serif" font-size="14" lengthAdjust="spacing" textLength="50" x="3041" y="206.0032">realtime</text></g><!--entity historical--><g id="elem_historical"><rect fill="#F1F1F1" height="47.6094" rx="2.5" ry="2.5" style="stroke:#181818;stroke-width:0.5;" width="96" x="2912" y="391.47"/><rect fill="#F1F1F1" height="10" style="stroke:#181818;stroke-width:0.5;" width="15" x="2988" y="396.47"/><rect fill="#F1F1F1" height="2" style="stroke:#181818;stroke-width:0.5;" width="4" x="2986" y="398.47"/><rect fill="#F1F1F1" height="2" style="stroke:#181818;stroke-width:0.5;" width="4" x="2986" y="402.47"/><text fill="#000000" font-family="sans-serif" font-size="14" lengthAdjust="spacing" textLength="56" x="2927" y="426.0032">historical</text></g><!--entity summary--><g id="elem_summary"><rect fill="#F1F1F1" height="47.6094" rx="2.5" ry="2.5" style="stroke:#181818;stroke-width:0.5;" width="97" x="3043.5" y="391.47"/><rect fill="#F1F1F1" height="10" style="stroke:#181818;stroke-width:0.5;" width="15" x="3120.5" y="396.47"/><rect fill="#F1F1F1" height="2" style="stroke:#181818;stroke-width:0.5;" width="4" x="3118.5" y="398.47"/><rect fill="#F1F1F1" height="2" style="stroke:#181818;stroke-width:0.5;" width="4" x="3118.5" y="402.47"/><text fill="#000000" font-family="sans-serif" font-size="14" lengthAdjust="spacing" textLength="57" x="3058.5" y="426.0032">summary</text></g><!--entity key1--><g id="elem_key1"><rect fill="#F1F1F1" height="47.6094" rx="2.5" ry="2.5" style="stroke:#181818;stroke-width:0.5;" width="70" x="2628" y="171.47"/><rect fill="#F1F1F1" height="10" style="stroke:#181818;stroke-width:0.5;" width="15" x="2678" y="176.47"/><rect fill="#F1F1F1" height="2" style="stroke:#181818;stroke-width:0.5;" width="4" x="2676" y="178.47"/><rect fill="#F1F1F1" height="2" style="stroke:#181818;stroke-width:0.5;" width="4" x="2676" y="182.47"/><text fill="#000000" font-family="sans-serif" font-size="14" lengthAdjust="spacing" textLength="30" x="2643" y="206.0032">key1</text></g><!--entity realtime1--><g id="elem_realtime1"><rect fill="#F1F1F1" height="47.6094" rx="2.5" ry="2.5" style="stroke:#181818;stroke-width:0.5;" width="98" x="2733" y="171.47"/><rect fill="#F1F1F1" height="10" style="stroke:#181818;stroke-width:0.5;" width="15" x="2811" y="176.47"/><rect fill="#F1F1F1" height="2" style="stroke:#181818;stroke-width:0.5;" width="4" x="2809" y="178.47"/><rect fill="#F1F1F1" height="2" style="stroke:#181818;stroke-width:0.5;" width="4" x="2809" y="182.47"/><text fill="#000000" font-family="sans-serif" font-size="14" lengthAdjust="spacing" textLength="58" x="2748" y="206.0032">realtime1</text></g><!--entity historical1--><g id="elem_historical1"><rect fill="#F1F1F1" height="47.6094" rx="2.5" ry="2.5" style="stroke:#181818;stroke-width:0.5;" width="104" x="2611" y="391.47"/><rect fill="#F1F1F1" height="10" style="stroke:#181818;stroke-width:0.5;" width="15" x="2695" y="396.47"/><rect fill="#F1F1F1" height="2" style="stroke:#181818;stroke-width:0.5;" width="4" x="2693" y="398.47"/><rect fill="#F1F1F1" height="2" style="stroke:#181818;stroke-width:0.5;" width="4" x="2693" y="402.47"/><text fill="#000000" font-family="sans-serif" font-size="14" lengthAdjust="spacing" textLength="64" x="2626" y="426.0032">historical1</text></g><!--entity summary1--><g id="elem_summary1"><rect fill="#F1F1F1" height="47.6094" rx="2.5" ry="2.5" style="stroke:#181818;stroke-width:0.5;" width="105" x="2750.5" y="391.47"/><rect fill="#F1F1F1" height="10" style="stroke:#181818;stroke-width:0.5;" width="15" x="2835.5" y="396.47"/><rect fill="#F1F1F1" height="2" style="stroke:#181818;stroke-width:0.5;" width="4" x="2833.5" y="398.47"/><rect fill="#F1F1F1" height="2" style="stroke:#181818;stroke-width:0.5;" width="4" x="2833.5" y="402.47"/><text fill="#000000" font-family="sans-serif" font-size="14" lengthAdjust="spacing" textLength="65" x="2765.5" y="426.0032">summary1</text></g><!--link DevSecOps to UpdateControllerAEP--><g id="link_DevSecOps_UpdateControllerAEP"><path d="M1122.34,395.12 C1065.46,373 991.87,334.27 1028,291.47 C1041.67,275.28 1055.74,292.31 1075,283.47 C1108.13,268.26 1135.2163,244.1708 1154.8763,223.9608 " fill="none" id="DevSecOps-to-UpdateControllerAEP" style="stroke:#181818;stroke-width:1.0;"/><polygon fill="#181818" points="1159.06,219.66,1149.9173,223.322,1155.5736,223.244,1155.6516,228.9003,1159.06,219.66" style="stroke:#181818;stroke-width:1.0;"/><text fill="#000000" font-family="sans-serif" font-size="13" lengthAdjust="spacing" textLength="107" x="1029" y="305.9651">1. UpdateAvailable</text></g><!--link UpdateControllerAEP to DevSecOps--><g id="link_UpdateControllerAEP_DevSecOps"><path d="M1179.07,219.5 C1178.34,238.74 1177.39,266.89 1177,291.47 C1176.45,326.28 1177.563,360.6355 1178.623,385.3555 " fill="none" id="UpdateControllerAEP-to-DevSecOps" style="stroke:#181818;stroke-width:1.0;"/><polygon fill="#181818" points="1178.88,391.35,1182.4908,382.1869,1178.6658,386.3546,1174.4981,382.5296,1178.88,391.35" style="stroke:#181818;stroke-width:1.0;"/><text fill="#000000" font-family="sans-serif" font-size="13" lengthAdjust="spacing" textLength="147" x="1178" y="305.9651">3. getEncryptedContainer</text></g><!--link UpdateControllerAEP to SecurityManager--><g id="link_UpdateControllerAEP_SecurityManager"><path d="M1240.22,219.57 C1272.16,235.01 1309.03,258.59 1330,291.47 C1349.34,321.79 1350.6469,358.9025 1348.9469,385.2125 " fill="none" id="UpdateControllerAEP-to-SecurityManager" style="stroke:#181818;stroke-width:1.0;"/><polygon fill="#181818" points="1348.56,391.2,1353.132,382.4766,1348.8824,386.2104,1345.1486,381.9608,1348.56,391.2" style="stroke:#181818;stroke-width:1.0;"/><text fill="#000000" font-family="sans-serif" font-size="13" lengthAdjust="spacing" textLength="167" x="1339" y="305.9651">2. sendLocalSealKey(Public)</text></g><!--reverse link UpdateControllerAEP to UpdateController--><g id="link_UpdateControllerAEP_UpdateController"><path d="M1198.8994,166.4928 C1222.9794,131.6228 1269.65,73.4 1331,48.47 C1387.41,25.55 1561.36,6 1605,48.47 C1616.16,59.3325 1622.2288,73.3644 1624.9989,88.4386 C1625.3452,90.3229 1625.6399,92.2234 1625.8866,94.1361 C1626.0099,95.0925 1626.1213,96.0519 1626.221,97.0138 " fill="none" id="UpdateControllerAEP-backto-UpdateController" style="stroke:#181818;stroke-width:1.0;"/><polygon fill="#181818" points="1195.49,171.43,1203.8956,166.2972,1198.3312,167.3157,1197.3127,161.7513,1195.49,171.43" style="stroke:#181818;stroke-width:1.0;"/><text fill="#000000" font-family="sans-serif" font-size="13" lengthAdjust="spacing" textLength="107" x="1499.5" y="20.9651">3. UpdateAvailable</text></g><!--link UpdateController to UpdateControllerAEP--><g id="link_UpdateController_UpdateControllerAEP"><path d="M1626.221,97.0138 C1626.1213,96.0519 1626.0099,95.0925 1625.8866,94.1361 C1625.6399,92.2234 1625.3452,90.3229 1624.9989,88.4386 C1622.2288,73.3644 1616.16,59.3325 1605,48.47 C1561.36,6 1387.41,25.55 1331,48.47 C1269.65,73.4 1222.9794,131.6228 1198.8994,166.4928 " fill="none" id="UpdateController-to-UpdateControllerAEP" style="stroke:#181818;stroke-width:1.0;"/><polygon fill="#181818" points="1195.49,171.43,1203.8956,166.2972,1198.3312,167.3157,1197.3127,161.7513,1195.49,171.43" style="stroke:#181818;stroke-width:1.0;"/><text fill="#000000" font-family="sans-serif" font-size="13" lengthAdjust="spacing" textLength="115" x="1375.5" y="20.9651">4. getAttestionKeys</text></g><!--link UpdaterA to UpdateControllerAEP--><g id="link_UpdaterA_UpdateControllerAEP"><path d="M2086.97,171.23 C2081.25,137.02 2065.34,75.7 2023,48.47 C1958.33,6.88 1402.23,19.52 1331,48.47 C1269.65,73.4 1222.9794,131.6228 1198.8994,166.4928 " fill="none" id="UpdaterA-to-UpdateControllerAEP" style="stroke:#181818;stroke-width:1.0;"/><polygon fill="#181818" points="1195.49,171.43,1203.8956,166.2972,1198.3312,167.3157,1197.3127,161.7513,1195.49,171.43" style="stroke:#181818;stroke-width:1.0;"/><text fill="#000000" font-family="sans-serif" font-size="13" lengthAdjust="spacing" textLength="88" x="1276" y="20.9651">3. getContainer</text></g><!--SRC=[bLJBRi8m4BpxAtni3o3HzeIgIg55eMfBKLDwNv9LOk7Or7QG8iI_rtcH41oX9hUPoNfsTXqX8wG9GlIRWJAeD3qGKM0lk0ym_DmL03cIPO5P85FCv1yW84PbcQDzQxsI0alLWL3xX3BTMKGOwhq6WJVxgl5BpYY4TBp5lACukhKB16uIf_ROEtKT_7HEhTZIw7eNWS5dAOoId9TTqCxJLYYxjS8qrGEAgfJo1cWcB2c0Dx7DHSm4-dr3gunhK9EJqoPHRxwQHt6Hvra6dkzVZzBxJvPkiJCiwydwEwkpb0KDeQaMvOpp4wbDkIRd-2e18rC7COFeMq6uhMgHJZwLk5x42bfbco3RBB9DxRzAhOd16PBjre6g8WgMeeDAc3PIiH2uWzHPceBA-mCzXJkuMjR6P81gl0pnhQ4XHUrgqfcfJOwq5teqUd8DbaxfP5mJtXuOXmr7uX8M1Vh_WYcz6rED8dgNOR7omDymlx4ZuYoy7QpIcfhI-p6DqSn5gFATmQZSAdjVbFFZnz552sM5Q_Qfk_SfVIXFzun1RPWKrhmcpVscWu5LdbkhXFm1]--></g></svg>