<?xml version="1.0" encoding="us-ascii" standalone="no"?><svg xmlns="http://www.w3.org/2000/svg" xmlns:xlink="http://www.w3.org/1999/xlink" contentStyleType="text/css" height="402px" preserveAspectRatio="none" style="width:547px;height:402px;background:#FFFFFF;" version="1.1" viewBox="0 0 547 402" width="547px" zoomAndPan="magnify"><defs/><g><!--class SecureVault--><g id="elem_SecureVault"><rect codeLine="2" fill="#F1F1F1" height="48" id="SecureVault" rx="2.5" ry="2.5" style="stroke:#181818;stroke-width:0.5;" width="109" x="256" y="16"/><ellipse cx="271" cy="32" fill="#ADD1B2" rx="11" ry="11" style="stroke:#181818;stroke-width:1.0;"/><path d="M273.7656,27.875 Q273.9219,27.6563 274.1094,27.5469 Q274.2969,27.4375 274.5156,27.4375 Q274.8906,27.4375 275.125,27.6953 Q275.3594,27.9531 275.3594,28.5625 L275.3594,30.0156 Q275.3594,30.625 275.125,30.8906 Q274.8906,31.1563 274.5156,31.1563 Q274.1719,31.1563 273.9688,30.9531 Q273.7656,30.7656 273.6563,30.25 Q273.6094,29.8906 273.4219,29.7031 Q273.0938,29.3281 272.4844,29.1094 Q271.875,28.8906 271.25,28.8906 Q270.4844,28.8906 269.8516,29.2188 Q269.2188,29.5469 268.7266,30.2969 Q268.2344,31.0469 268.2344,32.0781 L268.2344,33.1719 Q268.2344,34.4063 269.125,35.2266 Q270.0156,36.0469 271.6094,36.0469 Q272.5469,36.0469 273.2031,35.7969 Q273.5938,35.6406 274.0156,35.2031 Q274.2813,34.9375 274.4297,34.8594 Q274.5781,34.7813 274.7813,34.7813 Q275.1094,34.7813 275.3672,35.0391 Q275.625,35.2969 275.625,35.6406 Q275.625,35.9844 275.2813,36.3906 Q274.7813,36.9688 273.9844,37.2969 Q272.9063,37.75 271.6094,37.75 Q270.0938,37.75 268.8906,37.125 Q267.9063,36.625 267.2188,35.5547 Q266.5313,34.4844 266.5313,33.2031 L266.5313,32.0469 Q266.5313,30.7188 267.1484,29.5703 Q267.7656,28.4219 268.8594,27.8047 Q269.9531,27.1875 271.1875,27.1875 Q271.9219,27.1875 272.5703,27.3516 Q273.2188,27.5156 273.7656,27.875 Z " fill="#000000"/><text fill="#000000" font-family="sans-serif" font-size="14" lengthAdjust="spacing" textLength="77" x="285" y="37.7285">SecureVault</text><line style="stroke:#181818;stroke-width:0.5;" x1="257" x2="364" y1="48" y2="48"/><line style="stroke:#181818;stroke-width:0.5;" x1="257" x2="364" y1="56" y2="56"/></g><!--class Seed--><g id="elem_Seed"><rect codeLine="5" fill="#F1F1F1" height="83.2188" id="Seed" rx="2.5" ry="2.5" style="stroke:#181818;stroke-width:0.5;" width="201" x="7" y="134"/><ellipse cx="86.75" cy="150" fill="#ADD1B2" rx="11" ry="11" style="stroke:#181818;stroke-width:1.0;"/><path d="M89.5156,145.875 Q89.6719,145.6563 89.8594,145.5469 Q90.0469,145.4375 90.2656,145.4375 Q90.6406,145.4375 90.875,145.6953 Q91.1094,145.9531 91.1094,146.5625 L91.1094,148.0156 Q91.1094,148.625 90.875,148.8906 Q90.6406,149.1563 90.2656,149.1563 Q89.9219,149.1563 89.7188,148.9531 Q89.5156,148.7656 89.4063,148.25 Q89.3594,147.8906 89.1719,147.7031 Q88.8438,147.3281 88.2344,147.1094 Q87.625,146.8906 87,146.8906 Q86.2344,146.8906 85.6016,147.2188 Q84.9688,147.5469 84.4766,148.2969 Q83.9844,149.0469 83.9844,150.0781 L83.9844,151.1719 Q83.9844,152.4063 84.875,153.2266 Q85.7656,154.0469 87.3594,154.0469 Q88.2969,154.0469 88.9531,153.7969 Q89.3438,153.6406 89.7656,153.2031 Q90.0313,152.9375 90.1797,152.8594 Q90.3281,152.7813 90.5313,152.7813 Q90.8594,152.7813 91.1172,153.0391 Q91.375,153.2969 91.375,153.6406 Q91.375,153.9844 91.0313,154.3906 Q90.5313,154.9688 89.7344,155.2969 Q88.6563,155.75 87.3594,155.75 Q85.8438,155.75 84.6406,155.125 Q83.6563,154.625 82.9688,153.5547 Q82.2813,152.4844 82.2813,151.2031 L82.2813,150.0469 Q82.2813,148.7188 82.8984,147.5703 Q83.5156,146.4219 84.6094,145.8047 Q85.7031,145.1875 86.9375,145.1875 Q87.6719,145.1875 88.3203,145.3516 Q88.9688,145.5156 89.5156,145.875 Z " fill="#000000"/><text fill="#000000" font-family="sans-serif" font-size="14" lengthAdjust="spacing" textLength="33" x="107.25" y="155.7285">Seed</text><line style="stroke:#181818;stroke-width:0.5;" x1="8" x2="207" y1="166" y2="166"/><text fill="#000000" font-family="sans-serif" font-size="14" lengthAdjust="spacing" textLength="189" x="13" y="184.5332">registrationCreds: Credentials</text><text fill="#000000" font-family="sans-serif" font-size="14" lengthAdjust="spacing" textLength="171" x="13" y="202.1426">bootstrapKey : SecurityKey</text><line style="stroke:#181818;stroke-width:0.5;" x1="8" x2="207" y1="209.2188" y2="209.2188"/></g><!--class WorkingEnclave--><g id="elem_WorkingEnclave"><rect codeLine="10" fill="#F1F1F1" height="65.6094" id="WorkingEnclave" rx="2.5" ry="2.5" style="stroke:#181818;stroke-width:0.5;" width="134" x="243.5" y="142.5"/><ellipse cx="258.5" cy="158.5" fill="#ADD1B2" rx="11" ry="11" style="stroke:#181818;stroke-width:1.0;"/><path d="M261.2656,154.375 Q261.4219,154.1563 261.6094,154.0469 Q261.7969,153.9375 262.0156,153.9375 Q262.3906,153.9375 262.625,154.1953 Q262.8594,154.4531 262.8594,155.0625 L262.8594,156.5156 Q262.8594,157.125 262.625,157.3906 Q262.3906,157.6563 262.0156,157.6563 Q261.6719,157.6563 261.4688,157.4531 Q261.2656,157.2656 261.1563,156.75 Q261.1094,156.3906 260.9219,156.2031 Q260.5938,155.8281 259.9844,155.6094 Q259.375,155.3906 258.75,155.3906 Q257.9844,155.3906 257.3516,155.7188 Q256.7188,156.0469 256.2266,156.7969 Q255.7344,157.5469 255.7344,158.5781 L255.7344,159.6719 Q255.7344,160.9063 256.625,161.7266 Q257.5156,162.5469 259.1094,162.5469 Q260.0469,162.5469 260.7031,162.2969 Q261.0938,162.1406 261.5156,161.7031 Q261.7813,161.4375 261.9297,161.3594 Q262.0781,161.2813 262.2813,161.2813 Q262.6094,161.2813 262.8672,161.5391 Q263.125,161.7969 263.125,162.1406 Q263.125,162.4844 262.7813,162.8906 Q262.2813,163.4688 261.4844,163.7969 Q260.4063,164.25 259.1094,164.25 Q257.5938,164.25 256.3906,163.625 Q255.4063,163.125 254.7188,162.0547 Q254.0313,160.9844 254.0313,159.7031 L254.0313,158.5469 Q254.0313,157.2188 254.6484,156.0703 Q255.2656,154.9219 256.3594,154.3047 Q257.4531,153.6875 258.6875,153.6875 Q259.4219,153.6875 260.0703,153.8516 Q260.7188,154.0156 261.2656,154.375 Z " fill="#000000"/><text fill="#000000" font-family="sans-serif" font-size="14" lengthAdjust="spacing" textLength="102" x="272.5" y="164.2285">WorkingEnclave</text><line style="stroke:#181818;stroke-width:0.5;" x1="244.5" x2="376.5" y1="174.5" y2="174.5"/><text fill="#000000" font-family="sans-serif" font-size="14" lengthAdjust="spacing" textLength="110" x="249.5" y="193.0332">deviceUID : string</text><line style="stroke:#181818;stroke-width:0.5;" x1="244.5" x2="376.5" y1="200.1094" y2="200.1094"/></g><!--class EncryptedVault--><g id="elem_EncryptedVault"><rect codeLine="14" fill="#F1F1F1" height="48" id="EncryptedVault" rx="2.5" ry="2.5" style="stroke:#181818;stroke-width:0.5;" width="128" x="412.5" y="151.5"/><ellipse cx="427.5" cy="167.5" fill="#ADD1B2" rx="11" ry="11" style="stroke:#181818;stroke-width:1.0;"/><path d="M430.2656,163.375 Q430.4219,163.1563 430.6094,163.0469 Q430.7969,162.9375 431.0156,162.9375 Q431.3906,162.9375 431.625,163.1953 Q431.8594,163.4531 431.8594,164.0625 L431.8594,165.5156 Q431.8594,166.125 431.625,166.3906 Q431.3906,166.6563 431.0156,166.6563 Q430.6719,166.6563 430.4688,166.4531 Q430.2656,166.2656 430.1563,165.75 Q430.1094,165.3906 429.9219,165.2031 Q429.5938,164.8281 428.9844,164.6094 Q428.375,164.3906 427.75,164.3906 Q426.9844,164.3906 426.3516,164.7188 Q425.7188,165.0469 425.2266,165.7969 Q424.7344,166.5469 424.7344,167.5781 L424.7344,168.6719 Q424.7344,169.9063 425.625,170.7266 Q426.5156,171.5469 428.1094,171.5469 Q429.0469,171.5469 429.7031,171.2969 Q430.0938,171.1406 430.5156,170.7031 Q430.7813,170.4375 430.9297,170.3594 Q431.0781,170.2813 431.2813,170.2813 Q431.6094,170.2813 431.8672,170.5391 Q432.125,170.7969 432.125,171.1406 Q432.125,171.4844 431.7813,171.8906 Q431.2813,172.4688 430.4844,172.7969 Q429.4063,173.25 428.1094,173.25 Q426.5938,173.25 425.3906,172.625 Q424.4063,172.125 423.7188,171.0547 Q423.0313,169.9844 423.0313,168.7031 L423.0313,167.5469 Q423.0313,166.2188 423.6484,165.0703 Q424.2656,163.9219 425.3594,163.3047 Q426.4531,162.6875 427.6875,162.6875 Q428.4219,162.6875 429.0703,162.8516 Q429.7188,163.0156 430.2656,163.375 Z " fill="#000000"/><text fill="#000000" font-family="sans-serif" font-size="14" lengthAdjust="spacing" textLength="96" x="441.5" y="173.2285">EncryptedVault</text><line style="stroke:#181818;stroke-width:0.5;" x1="413.5" x2="539.5" y1="183.5" y2="183.5"/><line style="stroke:#181818;stroke-width:0.5;" x1="413.5" x2="539.5" y1="191.5" y2="191.5"/></g><!--class Credentials--><g id="elem_Credentials"><rect codeLine="21" fill="#F1F1F1" height="65.6094" id="Credentials" rx="2.5" ry="2.5" style="stroke:#181818;stroke-width:0.5;" width="128" x="400.5" y="7"/><ellipse cx="426.3" cy="23" fill="#ADD1B2" rx="11" ry="11" style="stroke:#181818;stroke-width:1.0;"/><path d="M429.0656,18.875 Q429.2219,18.6563 429.4094,18.5469 Q429.5969,18.4375 429.8156,18.4375 Q430.1906,18.4375 430.425,18.6953 Q430.6594,18.9531 430.6594,19.5625 L430.6594,21.0156 Q430.6594,21.625 430.425,21.8906 Q430.1906,22.1563 429.8156,22.1563 Q429.4719,22.1563 429.2688,21.9531 Q429.0656,21.7656 428.9563,21.25 Q428.9094,20.8906 428.7219,20.7031 Q428.3938,20.3281 427.7844,20.1094 Q427.175,19.8906 426.55,19.8906 Q425.7844,19.8906 425.1516,20.2188 Q424.5188,20.5469 424.0266,21.2969 Q423.5344,22.0469 423.5344,23.0781 L423.5344,24.1719 Q423.5344,25.4063 424.425,26.2266 Q425.3156,27.0469 426.9094,27.0469 Q427.8469,27.0469 428.5031,26.7969 Q428.8938,26.6406 429.3156,26.2031 Q429.5813,25.9375 429.7297,25.8594 Q429.8781,25.7813 430.0813,25.7813 Q430.4094,25.7813 430.6672,26.0391 Q430.925,26.2969 430.925,26.6406 Q430.925,26.9844 430.5813,27.3906 Q430.0813,27.9688 429.2844,28.2969 Q428.2063,28.75 426.9094,28.75 Q425.3938,28.75 424.1906,28.125 Q423.2063,27.625 422.5188,26.5547 Q421.8313,25.4844 421.8313,24.2031 L421.8313,23.0469 Q421.8313,21.7188 422.4484,20.5703 Q423.0656,19.4219 424.1594,18.8047 Q425.2531,18.1875 426.4875,18.1875 Q427.2219,18.1875 427.8703,18.3516 Q428.5188,18.5156 429.0656,18.875 Z " fill="#000000"/><text fill="#000000" font-family="sans-serif" font-size="14" lengthAdjust="spacing" textLength="72" x="442.7" y="28.7285">Credentials</text><line style="stroke:#181818;stroke-width:0.5;" x1="401.5" x2="527.5" y1="39" y2="39"/><text fill="#000000" font-family="sans-serif" font-size="14" lengthAdjust="spacing" textLength="116" x="406.5" y="57.5332">credentials : string</text><line style="stroke:#181818;stroke-width:0.5;" x1="401.5" x2="527.5" y1="64.6094" y2="64.6094"/></g><!--class SecurityKey--><g id="elem_SecurityKey"><rect codeLine="25" fill="#F1F1F1" height="65.6094" id="SecurityKey" rx="2.5" ry="2.5" style="stroke:#181818;stroke-width:0.5;" width="107" x="387" y="312.5"/><ellipse cx="402" cy="328.5" fill="#ADD1B2" rx="11" ry="11" style="stroke:#181818;stroke-width:1.0;"/><path d="M404.7656,324.375 Q404.9219,324.1563 405.1094,324.0469 Q405.2969,323.9375 405.5156,323.9375 Q405.8906,323.9375 406.125,324.1953 Q406.3594,324.4531 406.3594,325.0625 L406.3594,326.5156 Q406.3594,327.125 406.125,327.3906 Q405.8906,327.6563 405.5156,327.6563 Q405.1719,327.6563 404.9688,327.4531 Q404.7656,327.2656 404.6563,326.75 Q404.6094,326.3906 404.4219,326.2031 Q404.0938,325.8281 403.4844,325.6094 Q402.875,325.3906 402.25,325.3906 Q401.4844,325.3906 400.8516,325.7188 Q400.2188,326.0469 399.7266,326.7969 Q399.2344,327.5469 399.2344,328.5781 L399.2344,329.6719 Q399.2344,330.9063 400.125,331.7266 Q401.0156,332.5469 402.6094,332.5469 Q403.5469,332.5469 404.2031,332.2969 Q404.5938,332.1406 405.0156,331.7031 Q405.2813,331.4375 405.4297,331.3594 Q405.5781,331.2813 405.7813,331.2813 Q406.1094,331.2813 406.3672,331.5391 Q406.625,331.7969 406.625,332.1406 Q406.625,332.4844 406.2813,332.8906 Q405.7813,333.4688 404.9844,333.7969 Q403.9063,334.25 402.6094,334.25 Q401.0938,334.25 399.8906,333.625 Q398.9063,333.125 398.2188,332.0547 Q397.5313,330.9844 397.5313,329.7031 L397.5313,328.5469 Q397.5313,327.2188 398.1484,326.0703 Q398.7656,324.9219 399.8594,324.3047 Q400.9531,323.6875 402.1875,323.6875 Q402.9219,323.6875 403.5703,323.8516 Q404.2188,324.0156 404.7656,324.375 Z " fill="#000000"/><text fill="#000000" font-family="sans-serif" font-size="14" lengthAdjust="spacing" textLength="75" x="416" y="334.2285">SecurityKey</text><line style="stroke:#181818;stroke-width:0.5;" x1="388" x2="493" y1="344.5" y2="344.5"/><text fill="#000000" font-family="sans-serif" font-size="14" lengthAdjust="spacing" textLength="69" x="393" y="363.0332">key : string</text><line style="stroke:#181818;stroke-width:0.5;" x1="388" x2="493" y1="370.1094" y2="370.1094"/></g><!--class JWT--><g id="elem_JWT"><rect codeLine="29" fill="#F1F1F1" height="100.8281" id="JWT" rx="2.5" ry="2.5" style="stroke:#181818;stroke-width:0.5;" width="118" x="197.5" y="295"/><ellipse cx="238.6" cy="311" fill="#ADD1B2" rx="11" ry="11" style="stroke:#181818;stroke-width:1.0;"/><path d="M241.3656,306.875 Q241.5219,306.6563 241.7094,306.5469 Q241.8969,306.4375 242.1156,306.4375 Q242.4906,306.4375 242.725,306.6953 Q242.9594,306.9531 242.9594,307.5625 L242.9594,309.0156 Q242.9594,309.625 242.725,309.8906 Q242.4906,310.1563 242.1156,310.1563 Q241.7719,310.1563 241.5688,309.9531 Q241.3656,309.7656 241.2563,309.25 Q241.2094,308.8906 241.0219,308.7031 Q240.6938,308.3281 240.0844,308.1094 Q239.475,307.8906 238.85,307.8906 Q238.0844,307.8906 237.4516,308.2188 Q236.8188,308.5469 236.3266,309.2969 Q235.8344,310.0469 235.8344,311.0781 L235.8344,312.1719 Q235.8344,313.4063 236.725,314.2266 Q237.6156,315.0469 239.2094,315.0469 Q240.1469,315.0469 240.8031,314.7969 Q241.1938,314.6406 241.6156,314.2031 Q241.8813,313.9375 242.0297,313.8594 Q242.1781,313.7813 242.3813,313.7813 Q242.7094,313.7813 242.9672,314.0391 Q243.225,314.2969 243.225,314.6406 Q243.225,314.9844 242.8813,315.3906 Q242.3813,315.9688 241.5844,316.2969 Q240.5063,316.75 239.2094,316.75 Q237.6938,316.75 236.4906,316.125 Q235.5063,315.625 234.8188,314.5547 Q234.1313,313.4844 234.1313,312.2031 L234.1313,311.0469 Q234.1313,309.7188 234.7484,308.5703 Q235.3656,307.4219 236.4594,306.8047 Q237.5531,306.1875 238.7875,306.1875 Q239.5219,306.1875 240.1703,306.3516 Q240.8188,306.5156 241.3656,306.875 Z " fill="#000000"/><text fill="#000000" font-family="sans-serif" font-size="14" lengthAdjust="spacing" textLength="28" x="258.4" y="316.7285">JWT</text><line style="stroke:#181818;stroke-width:0.5;" x1="198.5" x2="314.5" y1="327" y2="327"/><text fill="#000000" font-family="sans-serif" font-size="14" lengthAdjust="spacing" textLength="92" x="203.5" y="345.5332">header : string</text><text fill="#000000" font-family="sans-serif" font-size="14" lengthAdjust="spacing" textLength="97" x="203.5" y="363.1426">payload : string</text><text fill="#000000" font-family="sans-serif" font-size="14" lengthAdjust="spacing" textLength="106" x="203.5" y="380.752">signature : string</text><line style="stroke:#181818;stroke-width:0.5;" x1="198.5" x2="314.5" y1="387.8281" y2="387.8281"/></g><!--link SecureVault to Seed--><g id="link_SecureVault_Seed"><path codeLine="17" d="M265.1144,70.8445 C235.9244,90.0445 208.8333,107.8635 174.1133,130.6935 " fill="none" id="SecureVault-Seed" style="stroke:#181818;stroke-width:1.0;"/><polygon fill="#181818" points="275.14,64.25,267.929,64.2054,265.1144,70.8445,272.3253,70.8891,275.14,64.25" style="stroke:#181818;stroke-width:1.0;"/><polygon fill="#181818" points="169.1,133.99,178.8176,132.3875,173.2778,131.2429,174.4223,125.7031,169.1,133.99" style="stroke:#181818;stroke-width:1.0;"/><text fill="#000000" font-family="sans-serif" font-size="13" lengthAdjust="spacing" textLength="7" x="258.6679" y="85.6489">1</text><text fill="#000000" font-family="sans-serif" font-size="13" lengthAdjust="spacing" textLength="7" x="171.7228" y="123.296">1</text></g><!--link SecureVault to EncryptedVault--><g id="link_SecureVault_EncryptedVault"><path codeLine="18" d="M348.7615,71.77 C379.1415,96.2 412.604,123.1204 442.964,147.5304 " fill="none" id="SecureVault-EncryptedVault" style="stroke:#181818;stroke-width:1.0;"/><polygon fill="#181818" points="339.41,64.25,341.5791,71.1271,348.7615,71.77,346.5924,64.8928,339.41,64.25" style="stroke:#181818;stroke-width:1.0;"/><polygon fill="#181818" points="447.64,151.29,443.1324,142.5332,443.7433,148.157,438.1195,148.7679,447.64,151.29" style="stroke:#181818;stroke-width:1.0;"/><text fill="#000000" font-family="sans-serif" font-size="13" lengthAdjust="spacing" textLength="7" x="338.6037" y="85.6489">1</text><text fill="#000000" font-family="sans-serif" font-size="13" lengthAdjust="spacing" textLength="7" x="432.3477" y="140.5763">1</text></g><!--link SecureVault to WorkingEnclave--><g id="link_SecureVault_WorkingEnclave"><path codeLine="19" d="M310.5,76.25 C310.5,97.77 310.5,111.96 310.5,136.01 " fill="none" id="SecureVault-WorkingEnclave" style="stroke:#181818;stroke-width:1.0;"/><polygon fill="none" points="310.5,64.25,306.5,70.25,310.5,76.25,314.5,70.25,310.5,64.25" style="stroke:#181818;stroke-width:1.0;"/><polygon fill="#181818" points="310.5,142.01,314.5,133.01,310.5,137.01,306.5,133.01,310.5,142.01" style="stroke:#181818;stroke-width:1.0;"/><text fill="#000000" font-family="sans-serif" font-size="13" lengthAdjust="spacing" textLength="7" x="302.6469" y="85.6489">1</text><text fill="#000000" font-family="sans-serif" font-size="13" lengthAdjust="spacing" textLength="7" x="302.8328" y="131.6668">1</text></g><!--link WorkingEnclave to SecurityKey--><g id="link_WorkingEnclave_SecurityKey"><path codeLine="35" d="M322.0613,220.2317 C327.4913,237.9217 332.4,248.16 344.5,265 C357.38,282.93 370.4925,295.5081 387.3225,308.5881 " fill="none" id="WorkingEnclave-SecurityKey" style="stroke:#181818;stroke-width:1.0;"/><polygon fill="#181818" points="318.54,208.76,316.4767,215.6696,322.0613,220.2317,324.1246,213.3221,318.54,208.76" style="stroke:#181818;stroke-width:1.0;"/><polygon fill="#181818" points="392.06,312.27,387.4084,303.5888,388.1121,309.2018,382.4992,309.9055,392.06,312.27" style="stroke:#181818;stroke-width:1.0;"/><text fill="#000000" font-family="sans-serif" font-size="13" lengthAdjust="spacing" textLength="104" x="345.5" y="261.4951">authenticationKey</text></g><!--link WorkingEnclave to JWT--><g id="link_WorkingEnclave_JWT"><path codeLine="36" d="M269.0924,217.8738 C259.6824,229.0038 258.43,233.05 253.5,247 C248.19,262.01 246.865,273.1488 247.715,288.8188 " fill="none" id="WorkingEnclave-JWT" style="stroke:#181818;stroke-width:1.0;"/><polygon fill="#181818" points="276.84,208.71,269.9116,210.7093,269.0924,217.8738,276.0208,215.8744,276.84,208.71" style="stroke:#181818;stroke-width:1.0;"/><polygon fill="#181818" points="248.04,294.81,251.5467,285.6066,247.7692,289.8173,243.5584,286.0399,248.04,294.81" style="stroke:#181818;stroke-width:1.0;"/><text fill="#000000" font-family="sans-serif" font-size="13" lengthAdjust="spacing" textLength="32" x="254.5" y="261.4951">token</text></g><!--link EncryptedVault to SecurityKey--><g id="link_EncryptedVault_SecurityKey"><path codeLine="37" d="M469.0546,211.2434 C462.7946,240.4434 455.7375,273.3933 448.6575,306.4233 " fill="none" id="EncryptedVault-SecurityKey" style="stroke:#181818;stroke-width:1.0;"/><polygon fill="#181818" points="471.57,199.51,466.4011,204.5382,469.0546,211.2434,474.2234,206.2152,471.57,199.51" style="stroke:#181818;stroke-width:1.0;"/><polygon fill="#181818" points="447.4,312.29,453.1975,304.3283,448.4479,307.4011,445.3751,302.6515,447.4,312.29" style="stroke:#181818;stroke-width:1.0;"/><text fill="#000000" font-family="sans-serif" font-size="13" lengthAdjust="spacing" textLength="74" x="461.5" y="261.4951">dataStreams</text></g><!--SRC=[TP6nZi8m38RtF4N4YCJ0sk4MxeQ34GvcNsALg2Mf4XUfGhmxJYweQU6o9BP___hig1P2a7jKlSSZz2t9cxWBeN8QDSUIZyVQ1F90njcDHnqg6I-qPA0DIVBh74L9jyD1Ld-UXWQEHiUJyusnzPVby8hPM-FLAFpv_kGkDk3wsC1AFtI4ke0hQHVhXLokLX_f4Nd_hqwjNdJkgPioFa6AQJEsAZAluCNuMT-ajSnrszCXryy86lqeYRaEXjQ1dYQ3gIqGmq_iPgjDOvSGbOIUpX5OfL-C__Ak9m9Labo3Lios_yPJ0y6UFC8bY0S0]--></g></svg>