<?xml version="1.0" encoding="UTF-8" standalone="no"?><svg xmlns="http://www.w3.org/2000/svg" xmlns:xlink="http://www.w3.org/1999/xlink" contentScriptType="application/ecmascript" contentStyleType="text/css" height="385px" preserveAspectRatio="none" style="width:476px;height:385px;" version="1.1" viewBox="0 0 476 385" width="476px" zoomAndPan="magnify"><defs><filter height="300%" id="f1oiygakkd1fsb" width="300%" x="-1" y="-1"><feGaussianBlur result="blurOut" stdDeviation="2.0"/><feColorMatrix in="blurOut" result="blurOut2" type="matrix" values="0 0 0 0 0 0 0 0 0 0 0 0 0 0 0 0 0 0 .4 0"/><feOffset dx="4.0" dy="4.0" in="blurOut2" result="blurOut3"/><feBlend in="SourceGraphic" in2="blurOut3" mode="normal"/></filter></defs><g><!--class SecureVault--><rect fill="#FEFECE" filter="url(#f1oiygakkd1fsb)" height="48" id="SecureVault" style="stroke: #A80036; stroke-width: 1.5;" width="98" x="207.5" y="15"/><ellipse cx="222.5" cy="31" fill="#ADD1B2" rx="11" ry="11" style="stroke: #A80036; stroke-width: 1.0;"/><path d="M225.2656,26.875 Q225.4219,26.6563 225.6094,26.5469 Q225.7969,26.4375 226.0156,26.4375 Q226.3906,26.4375 226.625,26.6953 Q226.8594,26.9531 226.8594,27.5625 L226.8594,29.0156 Q226.8594,29.625 226.625,29.8906 Q226.3906,30.1563 226.0156,30.1563 Q225.6719,30.1563 225.4688,29.9531 Q225.2656,29.7656 225.1563,29.25 Q225.1094,28.8906 224.9219,28.7031 Q224.5938,28.3281 223.9844,28.1094 Q223.375,27.8906 222.75,27.8906 Q221.9844,27.8906 221.3516,28.2188 Q220.7188,28.5469 220.2266,29.2969 Q219.7344,30.0469 219.7344,31.0781 L219.7344,32.1719 Q219.7344,33.4063 220.625,34.2266 Q221.5156,35.0469 223.1094,35.0469 Q224.0469,35.0469 224.7031,34.7969 Q225.0938,34.6406 225.5156,34.2031 Q225.7813,33.9375 225.9297,33.8594 Q226.0781,33.7813 226.2813,33.7813 Q226.6094,33.7813 226.8672,34.0391 Q227.125,34.2969 227.125,34.6406 Q227.125,34.9844 226.7813,35.3906 Q226.2813,35.9688 225.4844,36.2969 Q224.4063,36.75 223.1094,36.75 Q221.5938,36.75 220.3906,36.125 Q219.4063,35.625 218.7188,34.5547 Q218.0313,33.4844 218.0313,32.2031 L218.0313,31.0469 Q218.0313,29.7188 218.6484,28.5703 Q219.2656,27.4219 220.3594,26.8047 Q221.4531,26.1875 222.6875,26.1875 Q223.4219,26.1875 224.0703,26.3516 Q224.7188,26.5156 225.2656,26.875 Z "/><text fill="#000000" font-family="sans-serif" font-size="12" lengthAdjust="spacingAndGlyphs" textLength="66" x="236.5" y="35.9102">SecureVault</text><line style="stroke: #A80036; stroke-width: 1.5;" x1="208.5" x2="304.5" y1="47" y2="47"/><line style="stroke: #A80036; stroke-width: 1.5;" x1="208.5" x2="304.5" y1="55" y2="55"/><!--class Seed--><rect fill="#FEFECE" filter="url(#f1oiygakkd1fsb)" height="75.6719" id="Seed" style="stroke: #A80036; stroke-width: 1.5;" width="155" x="6" y="131"/><ellipse cx="64.75" cy="147" fill="#ADD1B2" rx="11" ry="11" style="stroke: #A80036; stroke-width: 1.0;"/><path d="M67.5156,142.875 Q67.6719,142.6563 67.8594,142.5469 Q68.0469,142.4375 68.2656,142.4375 Q68.6406,142.4375 68.875,142.6953 Q69.1094,142.9531 69.1094,143.5625 L69.1094,145.0156 Q69.1094,145.625 68.875,145.8906 Q68.6406,146.1563 68.2656,146.1563 Q67.9219,146.1563 67.7188,145.9531 Q67.5156,145.7656 67.4063,145.25 Q67.3594,144.8906 67.1719,144.7031 Q66.8438,144.3281 66.2344,144.1094 Q65.625,143.8906 65,143.8906 Q64.2344,143.8906 63.6016,144.2188 Q62.9688,144.5469 62.4766,145.2969 Q61.9844,146.0469 61.9844,147.0781 L61.9844,148.1719 Q61.9844,149.4063 62.875,150.2266 Q63.7656,151.0469 65.3594,151.0469 Q66.2969,151.0469 66.9531,150.7969 Q67.3438,150.6406 67.7656,150.2031 Q68.0313,149.9375 68.1797,149.8594 Q68.3281,149.7813 68.5313,149.7813 Q68.8594,149.7813 69.1172,150.0391 Q69.375,150.2969 69.375,150.6406 Q69.375,150.9844 69.0313,151.3906 Q68.5313,151.9688 67.7344,152.2969 Q66.6563,152.75 65.3594,152.75 Q63.8438,152.75 62.6406,152.125 Q61.6563,151.625 60.9688,150.5547 Q60.2813,149.4844 60.2813,148.2031 L60.2813,147.0469 Q60.2813,145.7188 60.8984,144.5703 Q61.5156,143.4219 62.6094,142.8047 Q63.7031,142.1875 64.9375,142.1875 Q65.6719,142.1875 66.3203,142.3516 Q66.9688,142.5156 67.5156,142.875 Z "/><text fill="#000000" font-family="sans-serif" font-size="12" lengthAdjust="spacingAndGlyphs" textLength="29" x="85.25" y="151.9102">Seed</text><line style="stroke: #A80036; stroke-width: 1.5;" x1="7" x2="160" y1="163" y2="163"/><text fill="#000000" font-family="sans-serif" font-size="11" lengthAdjust="spacingAndGlyphs" textLength="143" x="12" y="178.4189">registrationCreds: Credentials</text><text fill="#000000" font-family="sans-serif" font-size="11" lengthAdjust="spacingAndGlyphs" textLength="133" x="12" y="192.2549">bootstrapKey : SecurityKey</text><line style="stroke: #A80036; stroke-width: 1.5;" x1="7" x2="160" y1="198.6719" y2="198.6719"/><!--class WorkingEnclave--><rect fill="#FEFECE" filter="url(#f1oiygakkd1fsb)" height="61.8359" id="WorkingEnclave" style="stroke: #A80036; stroke-width: 1.5;" width="120" x="196.5" y="138"/><ellipse cx="211.5" cy="154" fill="#ADD1B2" rx="11" ry="11" style="stroke: #A80036; stroke-width: 1.0;"/><path d="M214.2656,149.875 Q214.4219,149.6563 214.6094,149.5469 Q214.7969,149.4375 215.0156,149.4375 Q215.3906,149.4375 215.625,149.6953 Q215.8594,149.9531 215.8594,150.5625 L215.8594,152.0156 Q215.8594,152.625 215.625,152.8906 Q215.3906,153.1563 215.0156,153.1563 Q214.6719,153.1563 214.4688,152.9531 Q214.2656,152.7656 214.1563,152.25 Q214.1094,151.8906 213.9219,151.7031 Q213.5938,151.3281 212.9844,151.1094 Q212.375,150.8906 211.75,150.8906 Q210.9844,150.8906 210.3516,151.2188 Q209.7188,151.5469 209.2266,152.2969 Q208.7344,153.0469 208.7344,154.0781 L208.7344,155.1719 Q208.7344,156.4063 209.625,157.2266 Q210.5156,158.0469 212.1094,158.0469 Q213.0469,158.0469 213.7031,157.7969 Q214.0938,157.6406 214.5156,157.2031 Q214.7813,156.9375 214.9297,156.8594 Q215.0781,156.7813 215.2813,156.7813 Q215.6094,156.7813 215.8672,157.0391 Q216.125,157.2969 216.125,157.6406 Q216.125,157.9844 215.7813,158.3906 Q215.2813,158.9688 214.4844,159.2969 Q213.4063,159.75 212.1094,159.75 Q210.5938,159.75 209.3906,159.125 Q208.4063,158.625 207.7188,157.5547 Q207.0313,156.4844 207.0313,155.2031 L207.0313,154.0469 Q207.0313,152.7188 207.6484,151.5703 Q208.2656,150.4219 209.3594,149.8047 Q210.4531,149.1875 211.6875,149.1875 Q212.4219,149.1875 213.0703,149.3516 Q213.7188,149.5156 214.2656,149.875 Z "/><text fill="#000000" font-family="sans-serif" font-size="12" lengthAdjust="spacingAndGlyphs" textLength="88" x="225.5" y="158.9102">WorkingEnclave</text><line style="stroke: #A80036; stroke-width: 1.5;" x1="197.5" x2="315.5" y1="170" y2="170"/><text fill="#000000" font-family="sans-serif" font-size="11" lengthAdjust="spacingAndGlyphs" textLength="84" x="202.5" y="185.4189">deviceUID : string</text><line style="stroke: #A80036; stroke-width: 1.5;" x1="197.5" x2="315.5" y1="191.8359" y2="191.8359"/><!--class EncryptedVault--><rect fill="#FEFECE" filter="url(#f1oiygakkd1fsb)" height="48" id="EncryptedVault" style="stroke: #A80036; stroke-width: 1.5;" width="113" x="352" y="145"/><ellipse cx="367" cy="161" fill="#ADD1B2" rx="11" ry="11" style="stroke: #A80036; stroke-width: 1.0;"/><path d="M369.7656,156.875 Q369.9219,156.6563 370.1094,156.5469 Q370.2969,156.4375 370.5156,156.4375 Q370.8906,156.4375 371.125,156.6953 Q371.3594,156.9531 371.3594,157.5625 L371.3594,159.0156 Q371.3594,159.625 371.125,159.8906 Q370.8906,160.1563 370.5156,160.1563 Q370.1719,160.1563 369.9688,159.9531 Q369.7656,159.7656 369.6563,159.25 Q369.6094,158.8906 369.4219,158.7031 Q369.0938,158.3281 368.4844,158.1094 Q367.875,157.8906 367.25,157.8906 Q366.4844,157.8906 365.8516,158.2188 Q365.2188,158.5469 364.7266,159.2969 Q364.2344,160.0469 364.2344,161.0781 L364.2344,162.1719 Q364.2344,163.4063 365.125,164.2266 Q366.0156,165.0469 367.6094,165.0469 Q368.5469,165.0469 369.2031,164.7969 Q369.5938,164.6406 370.0156,164.2031 Q370.2813,163.9375 370.4297,163.8594 Q370.5781,163.7813 370.7813,163.7813 Q371.1094,163.7813 371.3672,164.0391 Q371.625,164.2969 371.625,164.6406 Q371.625,164.9844 371.2813,165.3906 Q370.7813,165.9688 369.9844,166.2969 Q368.9063,166.75 367.6094,166.75 Q366.0938,166.75 364.8906,166.125 Q363.9063,165.625 363.2188,164.5547 Q362.5313,163.4844 362.5313,162.2031 L362.5313,161.0469 Q362.5313,159.7188 363.1484,158.5703 Q363.7656,157.4219 364.8594,156.8047 Q365.9531,156.1875 367.1875,156.1875 Q367.9219,156.1875 368.5703,156.3516 Q369.2188,156.5156 369.7656,156.875 Z "/><text fill="#000000" font-family="sans-serif" font-size="12" lengthAdjust="spacingAndGlyphs" textLength="81" x="381" y="165.9102">EncryptedVault</text><line style="stroke: #A80036; stroke-width: 1.5;" x1="353" x2="464" y1="177" y2="177"/><line style="stroke: #A80036; stroke-width: 1.5;" x1="353" x2="464" y1="185" y2="185"/><!--class Credentials--><rect fill="#FEFECE" filter="url(#f1oiygakkd1fsb)" height="61.8359" id="Credentials" style="stroke: #A80036; stroke-width: 1.5;" width="101" x="341" y="8"/><ellipse cx="358.25" cy="24" fill="#ADD1B2" rx="11" ry="11" style="stroke: #A80036; stroke-width: 1.0;"/><path d="M361.0156,19.875 Q361.1719,19.6563 361.3594,19.5469 Q361.5469,19.4375 361.7656,19.4375 Q362.1406,19.4375 362.375,19.6953 Q362.6094,19.9531 362.6094,20.5625 L362.6094,22.0156 Q362.6094,22.625 362.375,22.8906 Q362.1406,23.1563 361.7656,23.1563 Q361.4219,23.1563 361.2188,22.9531 Q361.0156,22.7656 360.9063,22.25 Q360.8594,21.8906 360.6719,21.7031 Q360.3438,21.3281 359.7344,21.1094 Q359.125,20.8906 358.5,20.8906 Q357.7344,20.8906 357.1016,21.2188 Q356.4688,21.5469 355.9766,22.2969 Q355.4844,23.0469 355.4844,24.0781 L355.4844,25.1719 Q355.4844,26.4063 356.375,27.2266 Q357.2656,28.0469 358.8594,28.0469 Q359.7969,28.0469 360.4531,27.7969 Q360.8438,27.6406 361.2656,27.2031 Q361.5313,26.9375 361.6797,26.8594 Q361.8281,26.7813 362.0313,26.7813 Q362.3594,26.7813 362.6172,27.0391 Q362.875,27.2969 362.875,27.6406 Q362.875,27.9844 362.5313,28.3906 Q362.0313,28.9688 361.2344,29.2969 Q360.1563,29.75 358.8594,29.75 Q357.3438,29.75 356.1406,29.125 Q355.1563,28.625 354.4688,27.5547 Q353.7813,26.4844 353.7813,25.2031 L353.7813,24.0469 Q353.7813,22.7188 354.3984,21.5703 Q355.0156,20.4219 356.1094,19.8047 Q357.2031,19.1875 358.4375,19.1875 Q359.1719,19.1875 359.8203,19.3516 Q360.4688,19.5156 361.0156,19.875 Z "/><text fill="#000000" font-family="sans-serif" font-size="12" lengthAdjust="spacingAndGlyphs" textLength="64" x="372.75" y="28.9102">Credentials</text><line style="stroke: #A80036; stroke-width: 1.5;" x1="342" x2="441" y1="40" y2="40"/><text fill="#000000" font-family="sans-serif" font-size="11" lengthAdjust="spacingAndGlyphs" textLength="89" x="347" y="55.4189">credentials : string</text><line style="stroke: #A80036; stroke-width: 1.5;" x1="342" x2="441" y1="61.8359" y2="61.8359"/><!--class SecurityKey--><rect fill="#FEFECE" filter="url(#f1oiygakkd1fsb)" height="61.8359" id="SecurityKey" style="stroke: #A80036; stroke-width: 1.5;" width="95" x="315" y="299"/><ellipse cx="330" cy="315" fill="#ADD1B2" rx="11" ry="11" style="stroke: #A80036; stroke-width: 1.0;"/><path d="M332.7656,310.875 Q332.9219,310.6563 333.1094,310.5469 Q333.2969,310.4375 333.5156,310.4375 Q333.8906,310.4375 334.125,310.6953 Q334.3594,310.9531 334.3594,311.5625 L334.3594,313.0156 Q334.3594,313.625 334.125,313.8906 Q333.8906,314.1563 333.5156,314.1563 Q333.1719,314.1563 332.9688,313.9531 Q332.7656,313.7656 332.6563,313.25 Q332.6094,312.8906 332.4219,312.7031 Q332.0938,312.3281 331.4844,312.1094 Q330.875,311.8906 330.25,311.8906 Q329.4844,311.8906 328.8516,312.2188 Q328.2188,312.5469 327.7266,313.2969 Q327.2344,314.0469 327.2344,315.0781 L327.2344,316.1719 Q327.2344,317.4063 328.125,318.2266 Q329.0156,319.0469 330.6094,319.0469 Q331.5469,319.0469 332.2031,318.7969 Q332.5938,318.6406 333.0156,318.2031 Q333.2813,317.9375 333.4297,317.8594 Q333.5781,317.7813 333.7813,317.7813 Q334.1094,317.7813 334.3672,318.0391 Q334.625,318.2969 334.625,318.6406 Q334.625,318.9844 334.2813,319.3906 Q333.7813,319.9688 332.9844,320.2969 Q331.9063,320.75 330.6094,320.75 Q329.0938,320.75 327.8906,320.125 Q326.9063,319.625 326.2188,318.5547 Q325.5313,317.4844 325.5313,316.2031 L325.5313,315.0469 Q325.5313,313.7188 326.1484,312.5703 Q326.7656,311.4219 327.8594,310.8047 Q328.9531,310.1875 330.1875,310.1875 Q330.9219,310.1875 331.5703,310.3516 Q332.2188,310.5156 332.7656,310.875 Z "/><text fill="#000000" font-family="sans-serif" font-size="12" lengthAdjust="spacingAndGlyphs" textLength="63" x="344" y="319.9102">SecurityKey</text><line style="stroke: #A80036; stroke-width: 1.5;" x1="316" x2="409" y1="331" y2="331"/><text fill="#000000" font-family="sans-serif" font-size="11" lengthAdjust="spacingAndGlyphs" textLength="53" x="321" y="346.4189">key : string</text><line style="stroke: #A80036; stroke-width: 1.5;" x1="316" x2="409" y1="352.8359" y2="352.8359"/><!--class JWT--><rect fill="#FEFECE" filter="url(#f1oiygakkd1fsb)" height="89.5078" id="JWT" style="stroke: #A80036; stroke-width: 1.5;" width="93" x="142" y="285"/><ellipse cx="173.65" cy="301" fill="#ADD1B2" rx="11" ry="11" style="stroke: #A80036; stroke-width: 1.0;"/><path d="M176.4156,296.875 Q176.5719,296.6563 176.7594,296.5469 Q176.9469,296.4375 177.1656,296.4375 Q177.5406,296.4375 177.775,296.6953 Q178.0094,296.9531 178.0094,297.5625 L178.0094,299.0156 Q178.0094,299.625 177.775,299.8906 Q177.5406,300.1563 177.1656,300.1563 Q176.8219,300.1563 176.6188,299.9531 Q176.4156,299.7656 176.3063,299.25 Q176.2594,298.8906 176.0719,298.7031 Q175.7438,298.3281 175.1344,298.1094 Q174.525,297.8906 173.9,297.8906 Q173.1344,297.8906 172.5016,298.2188 Q171.8688,298.5469 171.3766,299.2969 Q170.8844,300.0469 170.8844,301.0781 L170.8844,302.1719 Q170.8844,303.4063 171.775,304.2266 Q172.6656,305.0469 174.2594,305.0469 Q175.1969,305.0469 175.8531,304.7969 Q176.2438,304.6406 176.6656,304.2031 Q176.9313,303.9375 177.0797,303.8594 Q177.2281,303.7813 177.4313,303.7813 Q177.7594,303.7813 178.0172,304.0391 Q178.275,304.2969 178.275,304.6406 Q178.275,304.9844 177.9313,305.3906 Q177.4313,305.9688 176.6344,306.2969 Q175.5563,306.75 174.2594,306.75 Q172.7438,306.75 171.5406,306.125 Q170.5563,305.625 169.8688,304.5547 Q169.1813,303.4844 169.1813,302.2031 L169.1813,301.0469 Q169.1813,299.7188 169.7984,298.5703 Q170.4156,297.4219 171.5094,296.8047 Q172.6031,296.1875 173.8375,296.1875 Q174.5719,296.1875 175.2203,296.3516 Q175.8688,296.5156 176.4156,296.875 Z "/><text fill="#000000" font-family="sans-serif" font-size="12" lengthAdjust="spacingAndGlyphs" textLength="24" x="191.35" y="305.9102">JWT</text><line style="stroke: #A80036; stroke-width: 1.5;" x1="143" x2="234" y1="317" y2="317"/><text fill="#000000" font-family="sans-serif" font-size="11" lengthAdjust="spacingAndGlyphs" textLength="70" x="148" y="332.4189">header : string</text><text fill="#000000" font-family="sans-serif" font-size="11" lengthAdjust="spacingAndGlyphs" textLength="74" x="148" y="346.2549">payload : string</text><text fill="#000000" font-family="sans-serif" font-size="11" lengthAdjust="spacingAndGlyphs" textLength="81" x="148" y="360.0908">signature : string</text><line style="stroke: #A80036; stroke-width: 1.5;" x1="143" x2="234" y1="366.5078" y2="366.5078"/><!--link SecureVault to Seed--><path d="M214.467,71.1 C193.325,86.742 167.315,105.986 144.062,123.191 " fill="none" id="SecureVault-Seed" style="stroke: #A80036; stroke-width: 1.0;"/><polygon fill="#A80036" points="133.599,130.933,143.2132,128.7957,137.6185,127.9592,138.455,122.3645,133.599,130.933" style="stroke: #A80036; stroke-width: 1.0;"/><line style="stroke: #A80036; stroke-width: 1.0;" x1="137.6185" x2="144.049" y1="127.9592" y2="123.2005"/><polygon fill="#A80036" points="225.171,63.18,217.9686,63.5332,215.5244,70.3174,222.7268,69.9642,225.171,63.18" style="stroke: #A80036; stroke-width: 1.0;"/><text fill="#000000" font-family="sans-serif" font-size="13" lengthAdjust="spacingAndGlyphs" textLength="7" x="209.6814" y="84.5618">1</text><text fill="#000000" font-family="sans-serif" font-size="13" lengthAdjust="spacingAndGlyphs" textLength="7" x="134.8994" y="120.283">1</text><!--link SecureVault to EncryptedVault--><path d="M294.264,71.802 C317.663,91.506 347.6,116.716 370.957,136.385 " fill="none" id="SecureVault-EncryptedVault" style="stroke: #A80036; stroke-width: 1.0;"/><polygon fill="#A80036" points="381.179,144.993,376.8714,136.1361,377.3545,141.7723,371.7183,142.2553,381.179,144.993" style="stroke: #A80036; stroke-width: 1.0;"/><line style="stroke: #A80036; stroke-width: 1.0;" x1="377.3545" x2="371.235" y1="141.7723" y2="136.6185"/><polygon fill="#A80036" points="284.026,63.18,286.0389,70.1045,293.2049,70.9097,291.192,63.9852,284.026,63.18" style="stroke: #A80036; stroke-width: 1.0;"/><text fill="#000000" font-family="sans-serif" font-size="13" lengthAdjust="spacingAndGlyphs" textLength="7" x="282.8823" y="84.5618">1</text><text fill="#000000" font-family="sans-serif" font-size="13" lengthAdjust="spacingAndGlyphs" textLength="7" x="366.2811" y="134.3314">1</text><!--link SecureVault to WorkingEnclave--><path d="M256.5,76.427 C256.5,91.425 256.5,108.92 256.5,124.577 " fill="none" id="SecureVault-WorkingEnclave" style="stroke: #A80036; stroke-width: 1.0;"/><polygon fill="#A80036" points="256.5,137.753,260.5,128.753,256.5,132.753,252.5,128.753,256.5,137.753" style="stroke: #A80036; stroke-width: 1.0;"/><line style="stroke: #A80036; stroke-width: 1.0;" x1="256.5" x2="256.5" y1="132.753" y2="124.753"/><polygon fill="#FFFFFF" points="256.5,63.18,252.5,69.18,256.5,75.18,260.5,69.18,256.5,63.18" style="stroke: #A80036; stroke-width: 1.0;"/><text fill="#000000" font-family="sans-serif" font-size="13" lengthAdjust="spacingAndGlyphs" textLength="7" x="248.6469" y="84.5618">1</text><text fill="#000000" font-family="sans-serif" font-size="13" lengthAdjust="spacingAndGlyphs" textLength="7" x="248.7781" y="127.2066">1</text><!--link WorkingEnclave to SecurityKey--><path d="M256.913,213.138 C258.614,227.233 262.239,242.471 269.5,255 C278.072,269.791 290.836,282.7589 304.182,293.5347 " fill="none" id="WorkingEnclave-SecurityKey" style="stroke: #A80036; stroke-width: 1.0;"/><polygon fill="#A80036" points="314.94,301.6996,310.1888,293.0726,310.957,298.677,305.3526,299.4453,314.94,301.6996" style="stroke: #A80036; stroke-width: 1.0;"/><line style="stroke: #A80036; stroke-width: 1.0;" x1="310.957" x2="304.5845" y1="298.677" y2="293.8405"/><polygon fill="#A80036" points="255.814,200.1,252.3319,206.4147,256.8216,212.0576,260.3037,205.743,255.814,200.1" style="stroke: #A80036; stroke-width: 1.0;"/><text fill="#000000" font-family="sans-serif" font-size="13" lengthAdjust="spacingAndGlyphs" textLength="104" x="270.5" y="251.4951">authenticationKey</text><!--link WorkingEnclave to JWT--><path d="M203.837,209.73 C196.378,217.877 189.795,227.042 185.5,237 C180.856,247.768 179.121,259.923 179.008,271.784 " fill="none" id="WorkingEnclave-JWT" style="stroke: #A80036; stroke-width: 1.0;"/><polygon fill="#A80036" points="179.503,284.9608,183.1619,275.8168,179.3151,279.9643,175.1676,276.1175,179.503,284.9608" style="stroke: #A80036; stroke-width: 1.0;"/><line style="stroke: #A80036; stroke-width: 1.0;" x1="179.3151" x2="179.015" y1="279.9643" y2="271.97"/><polygon fill="#A80036" points="213.276,200.312,206.2034,201.7185,204.7815,208.788,211.8541,207.3815,213.276,200.312" style="stroke: #A80036; stroke-width: 1.0;"/><text fill="#000000" font-family="sans-serif" font-size="13" lengthAdjust="spacingAndGlyphs" textLength="32" x="186.5" y="251.4951">token</text><!--link EncryptedVault to SecurityKey--><path d="M398.106,205.927 C391.209,229.768 382.123,261.173 374.856,286.2916 " fill="none" id="EncryptedVault-SecurityKey" style="stroke: #A80036; stroke-width: 1.0;"/><polygon fill="#A80036" points="371.243,298.7806,377.5868,291.2469,372.6326,293.9776,369.9019,289.0235,371.243,298.7806" style="stroke: #A80036; stroke-width: 1.0;"/><line style="stroke: #A80036; stroke-width: 1.0;" x1="372.6326" x2="374.8555" y1="293.9776" y2="286.2927"/><polygon fill="#A80036" points="401.811,193.12,396.301,197.7719,398.4759,204.6472,403.9858,199.9953,401.811,193.12" style="stroke: #A80036; stroke-width: 1.0;"/><text fill="#000000" font-family="sans-serif" font-size="13" lengthAdjust="spacingAndGlyphs" textLength="74" x="388.5" y="251.4951">dataStreams</text><!--
@startuml

class SecureVault {
}

class Seed {
    registrationCreds: Credentials
    bootstrapKey : SecurityKey
}

class WorkingEnclave {
    deviceUID : string
}

class EncryptedVault {
}

SecureVault "1" *- -> "1" Seed
SecureVault "1" *- -> "1" EncryptedVault
SecureVault "1" o- -> "1" WorkingEnclave

class Credentials {
    credentials : string
}

class SecurityKey {
    key : string
}

class JWT {
    header : string
    payload : string
    signature : string
}

WorkingEnclave *- -> SecurityKey : authenticationKey
WorkingEnclave *- -> JWT : token
EncryptedVault *- -> SecurityKey : dataStreams

@enduml

PlantUML version 1.2019.05(Sat Apr 20 09:45:36 PDT 2019)
(GPL source distribution)
Java Runtime: Java(TM) SE Runtime Environment
JVM: Java HotSpot(TM) Client VM
Java Version: 1.8.0_271-b09
Operating System: Windows 10
OS Version: 10.0
Default Encoding: Cp1252
Language: en
Country: US
--></g></svg>