<?xml version="1.0" encoding="UTF-8" standalone="no"?><svg xmlns="http://www.w3.org/2000/svg" xmlns:xlink="http://www.w3.org/1999/xlink" contentScriptType="application/ecmascript" contentStyleType="text/css" height="610px" preserveAspectRatio="none" style="width:3069px;height:610px;" version="1.1" viewBox="0 0 3069 610" width="3069px" zoomAndPan="magnify"><defs><filter height="300%" id="fgrd64r5n0h8g" width="300%" x="-1" y="-1"><feGaussianBlur result="blurOut" stdDeviation="2.0"/><feColorMatrix in="blurOut" result="blurOut2" type="matrix" values="0 0 0 0 0 0 0 0 0 0 0 0 0 0 0 0 0 0 .4 0"/><feOffset dx="4.0" dy="4.0" in="blurOut2" result="blurOut3"/><feBlend in="SourceGraphic" in2="blurOut3" mode="normal"/></filter></defs><g><!--cluster headquarters--><polygon fill="#FFFFFF" filter="url(#fgrd64r5n0h8g)" points="1112,459,1122,449,1442,449,1442,569,1432,579,1112,579,1112,459" style="stroke: #000000; stroke-width: 1.5;"/><line style="stroke: #000000; stroke-width: 1.5;" x1="1432" x2="1441" y1="459" y2="450"/><line style="stroke: #000000; stroke-width: 1.5;" x1="1112" x2="1432" y1="459" y2="459"/><line style="stroke: #000000; stroke-width: 1.5;" x1="1432" x2="1432" y1="459" y2="579"/><text fill="#000000" font-family="sans-serif" font-size="14" font-weight="bold" lengthAdjust="spacingAndGlyphs" textLength="95" x="1225.5" y="476.5332">headquarters</text><!--cluster DroneNode--><polygon fill="#FFFFFF" filter="url(#fgrd64r5n0h8g)" points="1337,184,1347,174,2493,174,2493,389,2483,399,1337,399,1337,184" style="stroke: #000000; stroke-width: 1.5;"/><line style="stroke: #000000; stroke-width: 1.5;" x1="2483" x2="2492" y1="184" y2="175"/><line style="stroke: #000000; stroke-width: 1.5;" x1="1337" x2="2483" y1="184" y2="184"/><line style="stroke: #000000; stroke-width: 1.5;" x1="2483" x2="2483" y1="184" y2="399"/><text fill="#000000" font-family="sans-serif" font-size="14" font-weight="bold" lengthAdjust="spacingAndGlyphs" textLength="80" x="1871" y="201.5332">DroneNode</text><!--cluster AISSABR--><rect fill="#FFFFFF" filter="url(#fgrd64r5n0h8g)" height="120" style="stroke: #000000; stroke-width: 1.5;" width="327" x="2142" y="244"/><rect fill="#FFFFFF" height="10" style="stroke: #000000; stroke-width: 1.5;" width="15" x="2449" y="249"/><rect fill="#FFFFFF" height="2" style="stroke: #000000; stroke-width: 1.5;" width="4" x="2447" y="251"/><rect fill="#FFFFFF" height="2" style="stroke: #000000; stroke-width: 1.5;" width="4" x="2447" y="255"/><text fill="#000000" font-family="sans-serif" font-size="14" font-weight="bold" lengthAdjust="spacingAndGlyphs" textLength="60" x="2275.5" y="271.5332">AISSABR</text><!--cluster UpdateController--><polygon fill="#FFFFFF" filter="url(#fgrd64r5n0h8g)" points="1607,241,1617,231,2110,231,2110,357,2100,367,1607,367,1607,241" style="stroke: #000000; stroke-width: 1.5;"/><line style="stroke: #000000; stroke-width: 1.5;" x1="2100" x2="2109" y1="241" y2="232"/><line style="stroke: #000000; stroke-width: 1.5;" x1="1607" x2="2100" y1="241" y2="241"/><line style="stroke: #000000; stroke-width: 1.5;" x1="2100" x2="2100" y1="241" y2="367"/><text fill="#000000" font-family="sans-serif" font-size="14" font-weight="bold" lengthAdjust="spacingAndGlyphs" textLength="121" x="1794" y="258.5332">UpdateController</text><!--cluster AEPEdge--><polygon fill="#FFFFFF" filter="url(#fgrd64r5n0h8g)" points="22,200,32,190,1313,190,1313,378,1303,388,22,388,22,200" style="stroke: #000000; stroke-width: 1.5;"/><line style="stroke: #000000; stroke-width: 1.5;" x1="1303" x2="1312" y1="200" y2="191"/><line style="stroke: #000000; stroke-width: 1.5;" x1="22" x2="1303" y1="200" y2="200"/><line style="stroke: #000000; stroke-width: 1.5;" x1="1303" x2="1303" y1="200" y2="388"/><text fill="#000000" font-family="sans-serif" font-size="14" font-weight="bold" lengthAdjust="spacingAndGlyphs" textLength="63" x="632" y="217.5332">AEPEdge</text><!--cluster AISAGG--><rect fill="#FFFFFF" filter="url(#fgrd64r5n0h8g)" height="120" style="stroke: #000000; stroke-width: 1.5;" width="554" x="735" y="244"/><rect fill="#FFFFFF" height="10" style="stroke: #000000; stroke-width: 1.5;" width="15" x="1269" y="249"/><rect fill="#FFFFFF" height="2" style="stroke: #000000; stroke-width: 1.5;" width="4" x="1267" y="251"/><rect fill="#FFFFFF" height="2" style="stroke: #000000; stroke-width: 1.5;" width="4" x="1267" y="255"/><text fill="#000000" font-family="sans-serif" font-size="14" font-weight="bold" lengthAdjust="spacingAndGlyphs" textLength="53" x="985.5" y="271.5332">AISAGG</text><!--cluster PulsarPubSubHub--><polygon fill="#FFFFFF" filter="url(#fgrd64r5n0h8g)" points="2517,200,2527,190,3047,190,3047,588,3037,598,2517,598,2517,200" style="stroke: #000000; stroke-width: 1.5;"/><line style="stroke: #000000; stroke-width: 1.5;" x1="3037" x2="3046" y1="200" y2="191"/><line style="stroke: #000000; stroke-width: 1.5;" x1="2517" x2="3037" y1="200" y2="200"/><line style="stroke: #000000; stroke-width: 1.5;" x1="3037" x2="3037" y1="200" y2="598"/><text fill="#000000" font-family="sans-serif" font-size="14" font-weight="bold" lengthAdjust="spacingAndGlyphs" textLength="126" x="2715" y="217.5332">PulsarPubSubHub</text><!--cluster AISStream--><polygon fill="#FFFFFF" filter="url(#fgrd64r5n0h8g)" points="2802,249,2812,239,3023,239,3023,564,3013,574,2802,574,2802,249" style="stroke: #000000; stroke-width: 1.5;"/><line style="stroke: #000000; stroke-width: 1.5;" x1="3013" x2="3022" y1="249" y2="240"/><line style="stroke: #000000; stroke-width: 1.5;" x1="2802" x2="3013" y1="249" y2="249"/><line style="stroke: #000000; stroke-width: 1.5;" x1="3013" x2="3013" y1="249" y2="574"/><text fill="#000000" font-family="sans-serif" font-size="14" font-weight="bold" lengthAdjust="spacingAndGlyphs" textLength="71" x="2873" y="266.5332">AISStream</text><!--cluster AISHealth--><polygon fill="#FFFFFF" filter="url(#fgrd64r5n0h8g)" points="2541,249,2551,239,2778,239,2778,564,2768,574,2541,574,2541,249" style="stroke: #000000; stroke-width: 1.5;"/><line style="stroke: #000000; stroke-width: 1.5;" x1="2768" x2="2777" y1="249" y2="240"/><line style="stroke: #000000; stroke-width: 1.5;" x1="2541" x2="2768" y1="249" y2="249"/><line style="stroke: #000000; stroke-width: 1.5;" x1="2768" x2="2768" y1="249" y2="574"/><text fill="#000000" font-family="sans-serif" font-size="14" font-weight="bold" lengthAdjust="spacingAndGlyphs" textLength="67" x="2622" y="266.5332">AISHealth</text><!--entity DevSecOps--><polygon fill="#FFFFFF" filter="url(#fgrd64r5n0h8g)" points="1128.5,525,1138.5,515,1243.5,515,1243.5,552.6094,1233.5,562.6094,1128.5,562.6094,1128.5,525" style="stroke: #000000; stroke-width: 1.5;"/><line style="stroke: #000000; stroke-width: 1.5;" x1="1233.5" x2="1242.5" y1="525" y2="516"/><line style="stroke: #000000; stroke-width: 1.5;" x1="1128.5" x2="1233.5" y1="525" y2="525"/><line style="stroke: #000000; stroke-width: 1.5;" x1="1233.5" x2="1233.5" y1="525" y2="562.6094"/><text fill="#000000" font-family="sans-serif" font-size="14" lengthAdjust="spacingAndGlyphs" textLength="75" x="1143.5" y="549.5332">DevSecOps</text><!--entity SecurityManager--><polygon fill="#FFFFFF" filter="url(#fgrd64r5n0h8g)" points="1278.5,525,1288.5,515,1425.5,515,1425.5,552.6094,1415.5,562.6094,1278.5,562.6094,1278.5,525" style="stroke: #000000; stroke-width: 1.5;"/><line style="stroke: #000000; stroke-width: 1.5;" x1="1415.5" x2="1424.5" y1="525" y2="516"/><line style="stroke: #000000; stroke-width: 1.5;" x1="1278.5" x2="1415.5" y1="525" y2="525"/><line style="stroke: #000000; stroke-width: 1.5;" x1="1415.5" x2="1415.5" y1="525" y2="562.6094"/><text fill="#000000" font-family="sans-serif" font-size="14" lengthAdjust="spacingAndGlyphs" textLength="107" x="1293.5" y="549.5332">SecurityManager</text><!--entity AISStream.key--><rect fill="#FFFFFF" filter="url(#fgrd64r5n0h8g)" height="47.6094" style="stroke: #A80036; stroke-width: 1.5;" width="132" x="2321" y="300"/><rect fill="#FFFFFF" height="10" style="stroke: #A80036; stroke-width: 1.5;" width="15" x="2433" y="305"/><rect fill="#FFFFFF" height="2" style="stroke: #A80036; stroke-width: 1.5;" width="4" x="2431" y="307"/><rect fill="#FFFFFF" height="2" style="stroke: #A80036; stroke-width: 1.5;" width="4" x="2431" y="311"/><text fill="#000000" font-family="sans-serif" font-size="14" lengthAdjust="spacingAndGlyphs" textLength="92" x="2336" y="334.5332">AISStream.key</text><!--entity AISHealth.key--><rect fill="#FFFFFF" filter="url(#fgrd64r5n0h8g)" height="47.6094" style="stroke: #A80036; stroke-width: 1.5;" width="127" x="2158.5" y="300"/><rect fill="#FFFFFF" height="10" style="stroke: #A80036; stroke-width: 1.5;" width="15" x="2265.5" y="305"/><rect fill="#FFFFFF" height="2" style="stroke: #A80036; stroke-width: 1.5;" width="4" x="2263.5" y="307"/><rect fill="#FFFFFF" height="2" style="stroke: #A80036; stroke-width: 1.5;" width="4" x="2263.5" y="311"/><text fill="#000000" font-family="sans-serif" font-size="14" lengthAdjust="spacingAndGlyphs" textLength="87" x="2173.5" y="334.5332">AISHealth.key</text><!--entity USVSABR--><rect fill="#FFFFFF" filter="url(#fgrd64r5n0h8g)" height="47.6094" style="stroke: #A80036; stroke-width: 1.5;" width="104" x="1476" y="300"/><rect fill="#FFFFFF" height="10" style="stroke: #A80036; stroke-width: 1.5;" width="15" x="1560" y="305"/><rect fill="#FFFFFF" height="2" style="stroke: #A80036; stroke-width: 1.5;" width="4" x="1558" y="307"/><rect fill="#FFFFFF" height="2" style="stroke: #A80036; stroke-width: 1.5;" width="4" x="1558" y="311"/><text fill="#000000" font-family="sans-serif" font-size="14" lengthAdjust="spacingAndGlyphs" textLength="64" x="1491" y="334.5332">USVSABR</text><!--entity SecureComms--><rect fill="#FEFECE" filter="url(#fgrd64r5n0h8g)" height="37.6094" style="stroke: #A80036; stroke-width: 1.5;" width="112" x="1859" y="305"/><rect fill="#FEFECE" height="5" style="stroke: #A80036; stroke-width: 1.5;" width="10" x="1854" y="310"/><rect fill="#FEFECE" height="5" style="stroke: #A80036; stroke-width: 1.5;" width="10" x="1854" y="332.6094"/><text fill="#000000" font-family="sans-serif" font-size="14" lengthAdjust="spacingAndGlyphs" textLength="92" x="1869" y="329.5332">SecureComms</text><!--entity UpdaterA--><rect fill="#FEFECE" filter="url(#fgrd64r5n0h8g)" height="37.6094" style="stroke: #A80036; stroke-width: 1.5;" width="79" x="2006.5" y="305"/><rect fill="#FEFECE" height="5" style="stroke: #A80036; stroke-width: 1.5;" width="10" x="2001.5" y="310"/><rect fill="#FEFECE" height="5" style="stroke: #A80036; stroke-width: 1.5;" width="10" x="2001.5" y="332.6094"/><text fill="#000000" font-family="sans-serif" font-size="14" lengthAdjust="spacingAndGlyphs" textLength="59" x="2016.5" y="329.5332">UpdaterA</text><!--entity internalSecurityEngineG--><rect fill="#FEFECE" filter="url(#fgrd64r5n0h8g)" height="37.6094" style="stroke: #A80036; stroke-width: 1.5;" width="173" x="1650.5" y="305"/><rect fill="#FEFECE" height="5" style="stroke: #A80036; stroke-width: 1.5;" width="10" x="1645.5" y="310"/><rect fill="#FEFECE" height="5" style="stroke: #A80036; stroke-width: 1.5;" width="10" x="1645.5" y="332.6094"/><text fill="#000000" font-family="sans-serif" font-size="14" lengthAdjust="spacingAndGlyphs" textLength="153" x="1660.5" y="329.5332">internalSecurityEngineG</text><!--entity Pulsar1--><polygon fill="#FFFFFF" filter="url(#fgrd64r5n0h8g)" points="1353,310,1363,300,1441,300,1441,337.6094,1431,347.6094,1353,347.6094,1353,310" style="stroke: #000000; stroke-width: 1.5;"/><line style="stroke: #000000; stroke-width: 1.5;" x1="1431" x2="1440" y1="310" y2="301"/><line style="stroke: #000000; stroke-width: 1.5;" x1="1353" x2="1431" y1="310" y2="310"/><line style="stroke: #000000; stroke-width: 1.5;" x1="1431" x2="1431" y1="310" y2="347.6094"/><text fill="#000000" font-family="sans-serif" font-size="14" lengthAdjust="spacingAndGlyphs" textLength="48" x="1368" y="334.5332">Pulsar1</text><!--entity UpdateControllerAEP--><polygon fill="#FEFECE" filter="url(#fgrd64r5n0h8g)" points="1099,310,1109,300,1273,300,1273,337.6094,1263,347.6094,1099,347.6094,1099,310" style="stroke: #000000; stroke-width: 1.5;"/><line style="stroke: #000000; stroke-width: 1.5;" x1="1263" x2="1272" y1="310" y2="301"/><line style="stroke: #000000; stroke-width: 1.5;" x1="1099" x2="1263" y1="310" y2="310"/><line style="stroke: #000000; stroke-width: 1.5;" x1="1263" x2="1263" y1="310" y2="347.6094"/><text fill="#000000" font-family="sans-serif" font-size="14" lengthAdjust="spacingAndGlyphs" textLength="134" x="1114" y="334.5332">UpdateControllerAEP</text><!--entity AISStream.keyA--><rect fill="#FFFFFF" filter="url(#fgrd64r5n0h8g)" height="47.6094" style="stroke: #A80036; stroke-width: 1.5;" width="141" x="922.5" y="300"/><rect fill="#FFFFFF" height="10" style="stroke: #A80036; stroke-width: 1.5;" width="15" x="1043.5" y="305"/><rect fill="#FFFFFF" height="2" style="stroke: #A80036; stroke-width: 1.5;" width="4" x="1041.5" y="307"/><rect fill="#FFFFFF" height="2" style="stroke: #A80036; stroke-width: 1.5;" width="4" x="1041.5" y="311"/><text fill="#000000" font-family="sans-serif" font-size="14" lengthAdjust="spacingAndGlyphs" textLength="101" x="937.5" y="334.5332">AISStream.keyA</text><!--entity AISHealth.keyA--><rect fill="#FFFFFF" filter="url(#fgrd64r5n0h8g)" height="47.6094" style="stroke: #A80036; stroke-width: 1.5;" width="136" x="751" y="300"/><rect fill="#FFFFFF" height="10" style="stroke: #A80036; stroke-width: 1.5;" width="15" x="867" y="305"/><rect fill="#FFFFFF" height="2" style="stroke: #A80036; stroke-width: 1.5;" width="4" x="865" y="307"/><rect fill="#FFFFFF" height="2" style="stroke: #A80036; stroke-width: 1.5;" width="4" x="865" y="311"/><text fill="#000000" font-family="sans-serif" font-size="14" lengthAdjust="spacingAndGlyphs" textLength="96" x="766" y="334.5332">AISHealth.keyA</text><!--entity AISNoContact--><rect fill="#FFFFFF" filter="url(#fgrd64r5n0h8g)" height="47.6094" style="stroke: #A80036; stroke-width: 1.5;" width="127" x="588.5" y="300"/><rect fill="#FFFFFF" height="10" style="stroke: #A80036; stroke-width: 1.5;" width="15" x="695.5" y="305"/><rect fill="#FFFFFF" height="2" style="stroke: #A80036; stroke-width: 1.5;" width="4" x="693.5" y="307"/><rect fill="#FFFFFF" height="2" style="stroke: #A80036; stroke-width: 1.5;" width="4" x="693.5" y="311"/><text fill="#000000" font-family="sans-serif" font-size="14" lengthAdjust="spacingAndGlyphs" textLength="87" x="603.5" y="334.5332">AISNoContact</text><!--entity AISGhost--><rect fill="#FFFFFF" filter="url(#fgrd64r5n0h8g)" height="47.6094" style="stroke: #A80036; stroke-width: 1.5;" width="99" x="454.5" y="300"/><rect fill="#FFFFFF" height="10" style="stroke: #A80036; stroke-width: 1.5;" width="15" x="533.5" y="305"/><rect fill="#FFFFFF" height="2" style="stroke: #A80036; stroke-width: 1.5;" width="4" x="531.5" y="307"/><rect fill="#FFFFFF" height="2" style="stroke: #A80036; stroke-width: 1.5;" width="4" x="531.5" y="311"/><text fill="#000000" font-family="sans-serif" font-size="14" lengthAdjust="spacingAndGlyphs" textLength="59" x="469.5" y="334.5332">AISGhost</text><!--entity AISPhatom--><rect fill="#FFFFFF" filter="url(#fgrd64r5n0h8g)" height="47.6094" style="stroke: #A80036; stroke-width: 1.5;" width="109" x="310.5" y="300"/><rect fill="#FFFFFF" height="10" style="stroke: #A80036; stroke-width: 1.5;" width="15" x="399.5" y="305"/><rect fill="#FFFFFF" height="2" style="stroke: #A80036; stroke-width: 1.5;" width="4" x="397.5" y="307"/><rect fill="#FFFFFF" height="2" style="stroke: #A80036; stroke-width: 1.5;" width="4" x="397.5" y="311"/><text fill="#000000" font-family="sans-serif" font-size="14" lengthAdjust="spacingAndGlyphs" textLength="69" x="325.5" y="334.5332">AISPhatom</text><!--entity AISBadTrack--><rect fill="#FFFFFF" filter="url(#fgrd64r5n0h8g)" height="47.6094" style="stroke: #A80036; stroke-width: 1.5;" width="122" x="153" y="300"/><rect fill="#FFFFFF" height="10" style="stroke: #A80036; stroke-width: 1.5;" width="15" x="255" y="305"/><rect fill="#FFFFFF" height="2" style="stroke: #A80036; stroke-width: 1.5;" width="4" x="253" y="307"/><rect fill="#FFFFFF" height="2" style="stroke: #A80036; stroke-width: 1.5;" width="4" x="253" y="311"/><text fill="#000000" font-family="sans-serif" font-size="14" lengthAdjust="spacingAndGlyphs" textLength="82" x="168" y="334.5332">AISBadTrack</text><!--entity Pulsar--><polygon fill="#FFFFFF" filter="url(#fgrd64r5n0h8g)" points="38,310,48,300,118,300,118,337.6094,108,347.6094,38,347.6094,38,310" style="stroke: #000000; stroke-width: 1.5;"/><line style="stroke: #000000; stroke-width: 1.5;" x1="108" x2="117" y1="310" y2="301"/><line style="stroke: #000000; stroke-width: 1.5;" x1="38" x2="108" y1="310" y2="310"/><line style="stroke: #000000; stroke-width: 1.5;" x1="108" x2="108" y1="310" y2="347.6094"/><text fill="#000000" font-family="sans-serif" font-size="14" lengthAdjust="spacingAndGlyphs" textLength="40" x="53" y="334.5332">Pulsar</text><!--entity key--><rect fill="#FEFECE" filter="url(#fgrd64r5n0h8g)" height="37.6094" style="stroke: #A80036; stroke-width: 1.5;" width="42" x="2835" y="305"/><rect fill="#FEFECE" height="5" style="stroke: #A80036; stroke-width: 1.5;" width="10" x="2830" y="310"/><rect fill="#FEFECE" height="5" style="stroke: #A80036; stroke-width: 1.5;" width="10" x="2830" y="332.6094"/><text fill="#000000" font-family="sans-serif" font-size="14" lengthAdjust="spacingAndGlyphs" textLength="22" x="2845" y="329.5332">key</text><!--entity realtime--><rect fill="#FEFECE" filter="url(#fgrd64r5n0h8g)" height="37.6094" style="stroke: #A80036; stroke-width: 1.5;" width="70" x="2912" y="305"/><rect fill="#FEFECE" height="5" style="stroke: #A80036; stroke-width: 1.5;" width="10" x="2907" y="310"/><rect fill="#FEFECE" height="5" style="stroke: #A80036; stroke-width: 1.5;" width="10" x="2907" y="332.6094"/><text fill="#000000" font-family="sans-serif" font-size="14" lengthAdjust="spacingAndGlyphs" textLength="50" x="2922" y="329.5332">realtime</text><!--entity historical--><rect fill="#FEFECE" filter="url(#fgrd64r5n0h8g)" height="37.6094" style="stroke: #A80036; stroke-width: 1.5;" width="76" x="2818" y="520"/><rect fill="#FEFECE" height="5" style="stroke: #A80036; stroke-width: 1.5;" width="10" x="2813" y="525"/><rect fill="#FEFECE" height="5" style="stroke: #A80036; stroke-width: 1.5;" width="10" x="2813" y="547.6094"/><text fill="#000000" font-family="sans-serif" font-size="14" lengthAdjust="spacingAndGlyphs" textLength="56" x="2828" y="544.5332">historical</text><!--entity summary--><rect fill="#FEFECE" filter="url(#fgrd64r5n0h8g)" height="37.6094" style="stroke: #A80036; stroke-width: 1.5;" width="77" x="2929.5" y="520"/><rect fill="#FEFECE" height="5" style="stroke: #A80036; stroke-width: 1.5;" width="10" x="2924.5" y="525"/><rect fill="#FEFECE" height="5" style="stroke: #A80036; stroke-width: 1.5;" width="10" x="2924.5" y="547.6094"/><text fill="#000000" font-family="sans-serif" font-size="14" lengthAdjust="spacingAndGlyphs" textLength="57" x="2939.5" y="544.5332">summary</text><!--entity key1--><rect fill="#FEFECE" filter="url(#fgrd64r5n0h8g)" height="37.6094" style="stroke: #A80036; stroke-width: 1.5;" width="50" x="2574" y="305"/><rect fill="#FEFECE" height="5" style="stroke: #A80036; stroke-width: 1.5;" width="10" x="2569" y="310"/><rect fill="#FEFECE" height="5" style="stroke: #A80036; stroke-width: 1.5;" width="10" x="2569" y="332.6094"/><text fill="#000000" font-family="sans-serif" font-size="14" lengthAdjust="spacingAndGlyphs" textLength="30" x="2584" y="329.5332">key1</text><!--entity realtime1--><rect fill="#FEFECE" filter="url(#fgrd64r5n0h8g)" height="37.6094" style="stroke: #A80036; stroke-width: 1.5;" width="78" x="2659" y="305"/><rect fill="#FEFECE" height="5" style="stroke: #A80036; stroke-width: 1.5;" width="10" x="2654" y="310"/><rect fill="#FEFECE" height="5" style="stroke: #A80036; stroke-width: 1.5;" width="10" x="2654" y="332.6094"/><text fill="#000000" font-family="sans-serif" font-size="14" lengthAdjust="spacingAndGlyphs" textLength="58" x="2669" y="329.5332">realtime1</text><!--entity historical1--><rect fill="#FEFECE" filter="url(#fgrd64r5n0h8g)" height="37.6094" style="stroke: #A80036; stroke-width: 1.5;" width="84" x="2557" y="520"/><rect fill="#FEFECE" height="5" style="stroke: #A80036; stroke-width: 1.5;" width="10" x="2552" y="525"/><rect fill="#FEFECE" height="5" style="stroke: #A80036; stroke-width: 1.5;" width="10" x="2552" y="547.6094"/><text fill="#000000" font-family="sans-serif" font-size="14" lengthAdjust="spacingAndGlyphs" textLength="64" x="2567" y="544.5332">historical1</text><!--entity summary1--><rect fill="#FEFECE" filter="url(#fgrd64r5n0h8g)" height="37.6094" style="stroke: #A80036; stroke-width: 1.5;" width="85" x="2676.5" y="520"/><rect fill="#FEFECE" height="5" style="stroke: #A80036; stroke-width: 1.5;" width="10" x="2671.5" y="525"/><rect fill="#FEFECE" height="5" style="stroke: #A80036; stroke-width: 1.5;" width="10" x="2671.5" y="547.6094"/><text fill="#000000" font-family="sans-serif" font-size="14" lengthAdjust="spacingAndGlyphs" textLength="65" x="2686.5" y="544.5332">summary1</text><!--link DevSecOps to UpdateControllerAEP--><path d="M1128.34,518.6479 C1071.46,496.525 997.869,457.801 1034,415 C1047.67,398.809 1061.62,415.559 1081,407 C1110.75,393.862 1139.5,370.414 1159.37,351.948 " fill="none" id="DevSecOps-UpdateControllerAEP" style="stroke: #A80036; stroke-width: 1.0;"/><polygon fill="#A80036" points="1163.23,348.326,1153.9341,351.5797,1159.5883,351.7521,1159.4159,357.4063,1163.23,348.326" style="stroke: #A80036; stroke-width: 1.0;"/><text fill="#000000" font-family="sans-serif" font-size="13" lengthAdjust="spacingAndGlyphs" textLength="107" x="1035" y="429.4951">1. UpdateAvailable</text><!--link UpdateControllerAEP to DevSecOps--><path d="M1185.01,348.304 C1184.29,366.471 1183.38,392.334 1183,415 C1182.46,447.501 1183.62,484.825 1184.65,509.754 " fill="none" id="UpdateControllerAEP-DevSecOps" style="stroke: #A80036; stroke-width: 1.0;"/><polygon fill="#A80036" points="1184.87,514.879,1188.4836,505.717,1184.6573,509.8835,1180.4908,506.0573,1184.87,514.879" style="stroke: #A80036; stroke-width: 1.0;"/><text fill="#000000" font-family="sans-serif" font-size="13" lengthAdjust="spacingAndGlyphs" textLength="147" x="1184" y="429.4951">3. getEncryptedContainer</text><!--link UpdateControllerAEP to SecurityManager--><path d="M1250.35,348.042 C1281.25,362.472 1315.87,384.26 1336,415 C1354.47,443.203 1356.33,482.914 1354.99,509.509 " fill="none" id="UpdateControllerAEP-SecurityManager" style="stroke: #A80036; stroke-width: 1.0;"/><polygon fill="#A80036" points="1354.69,514.6457,1359.2209,505.9009,1354.9889,509.6546,1351.2352,505.4227,1354.69,514.6457" style="stroke: #A80036; stroke-width: 1.0;"/><text fill="#000000" font-family="sans-serif" font-size="13" lengthAdjust="spacingAndGlyphs" textLength="167" x="1347" y="429.4951">2. sendLocalSealKey(Public)</text><!--link UpdateControllerAEP to UpdateController--><path d="M1205.25,295.633 C1230.7,260.957 1279.14,204.048 1337,181 C1393.57,158.466 1567.35,138.551 1611,181 C1621.8625,191.5618 1627.7756,205.2094 1630.4812,219.8727 C1630.8195,221.7056 1631.1075,223.5544 1631.3489,225.415 C1631.4696,226.3453 1631.5786,227.2786 1631.6764,228.2143 C1631.7252,228.6822 1631.7713,229.1506 1631.8146,229.6196 C1631.8362,229.8542 1631.8572,230.0888 1631.8775,230.3236 " fill="none" id="UpdateControllerAEP-UpdateController" style="stroke: #A80036; stroke-width: 1.0;"/><polygon fill="#A80036" points="1202.26,299.748,1210.7871,294.8197,1205.1998,295.7035,1204.316,290.1161,1202.26,299.748" style="stroke: #A80036; stroke-width: 1.0;"/><text fill="#000000" font-family="sans-serif" font-size="13" lengthAdjust="spacingAndGlyphs" textLength="107" x="1505.5" y="154.4951">3. UpdateAvailable</text><!--link UpdateController to UpdateControllerAEP--><path d="M1631.8775,230.3236 C1631.8572,230.0888 1631.8362,229.8542 1631.8146,229.6196 C1631.7713,229.1506 1631.7252,228.6822 1631.6764,228.2143 C1631.5786,227.2786 1631.4696,226.3453 1631.3489,225.415 C1631.1075,223.5544 1630.8195,221.7056 1630.4812,219.8727 C1627.7756,205.2094 1621.8625,191.5618 1611,181 C1567.35,138.551 1393.57,158.466 1337,181 C1279.14,204.048 1230.7,260.957 1205.25,295.633 " fill="none" id="UpdateController-UpdateControllerAEP" style="stroke: #A80036; stroke-width: 1.0;"/><polygon fill="#A80036" points="1202.26,299.748,1210.7871,294.8197,1205.1998,295.7035,1204.316,290.1161,1202.26,299.748" style="stroke: #A80036; stroke-width: 1.0;"/><text fill="#000000" font-family="sans-serif" font-size="13" lengthAdjust="spacingAndGlyphs" textLength="115" x="1381.5" y="154.4951">4. getAttestionKeys</text><!--link UpdaterA to UpdateControllerAEP--><path d="M2044.71,304.791 C2041.41,272.729 2029.66,209.062 1988,181 C1928.01,140.592 1404.2,154.231 1337,181 C1279.14,204.048 1230.7,260.957 1205.25,295.633 " fill="none" id="UpdaterA-UpdateControllerAEP" style="stroke: #A80036; stroke-width: 1.0;"/><polygon fill="#A80036" points="1202.26,299.748,1210.7871,294.8197,1205.1998,295.7035,1204.316,290.1161,1202.26,299.748" style="stroke: #A80036; stroke-width: 1.0;"/><text fill="#000000" font-family="sans-serif" font-size="13" lengthAdjust="spacingAndGlyphs" textLength="88" x="1282" y="154.4951">3. getContainer</text><!--link key to realtime--><!--link key to historical--><!--link historical to summary--><!--link key1 to realtime1--><!--link key1 to historical1--><!--link historical1 to summary1--><!--
@startuml

node headquarters {
node DevSecOps {

}
Node SecurityManager {
}
}

node DroneNode {
    component AISSABR {
        component AISStream.key {
        }
        component AISHealth.key {
        }
    }
    component USVSABR {
    }
    node UpdateController {
            component SecureComms
            component UpdaterA
            component internalSecurityEngineG
    }
    node Pulsar1 {
    }
}

node AEPEdge {
component AISAGG {
        component AISStream.keyA {
        }
        component AISHealth.keyA {
        }
        node UpdateControllerAEP
}
component AISNoContact {

}
component AISGhost {
}

component AISPhatom {
}

component AISBadTrack {

}

node Pulsar {
}

}
Node PulsarPubSubHub {
    node AISStream {
        component key
        component realtime
        component historical
        component summary
    }
    node AISHealth {
            component key1
            component realtime1
            component historical1
            component summary1
        }
}


DevSecOps - -> UpdateControllerAEP : 1. UpdateAvailable
UpdateControllerAEP - -> SecurityManager : 2. sendLocalSealKey(Public)
UpdateControllerAEP - -> DevSecOps : 3. getEncryptedContainer
UpdateControllerAEP <- UpdateController: 3. UpdateAvailable
UpdateController -> UpdateControllerAEP: 4. getAttestionKeys
UpdaterA -> UpdateControllerAEP : 3. getContainer



@enduml

PlantUML version 1.2019.05(Sat Apr 20 09:45:36 PDT 2019)
(GPL source distribution)
Java Runtime: Java(TM) SE Runtime Environment
JVM: Java HotSpot(TM) Client VM
Java Version: 1.8.0_271-b09
Operating System: Windows 10
OS Version: 10.0
Default Encoding: Cp1252
Language: en
Country: US
--></g></svg>