<?xml version="1.0" encoding="UTF-8" standalone="no"?><svg xmlns="http://www.w3.org/2000/svg" xmlns:xlink="http://www.w3.org/1999/xlink" contentScriptType="application/ecmascript" contentStyleType="text/css" height="640px" preserveAspectRatio="none" style="width:879px;height:640px;" version="1.1" viewBox="0 0 879 640" width="879px" zoomAndPan="magnify"><defs><filter height="300%" id="fcgjmm2nymrol" width="300%" x="-1" y="-1"><feGaussianBlur result="blurOut" stdDeviation="2.0"/><feColorMatrix in="blurOut" result="blurOut2" type="matrix" values="0 0 0 0 0 0 0 0 0 0 0 0 0 0 0 0 0 0 .4 0"/><feOffset dx="4.0" dy="4.0" in="blurOut2" result="blurOut3"/><feBlend in="SourceGraphic" in2="blurOut3" mode="normal"/></filter></defs><g><!--cluster ITOperations--><polygon fill="#FFFFFF" filter="url(#fcgjmm2nymrol)" points="559,24,655,24,662,47.6094,671,47.6094,671,145,559,145,559,24" style="stroke: #000000; stroke-width: 1.5;"/><line style="stroke: #000000; stroke-width: 1.5;" x1="559" x2="662" y1="47.6094" y2="47.6094"/><text fill="#000000" font-family="sans-serif" font-size="14" font-weight="bold" lengthAdjust="spacingAndGlyphs" textLength="90" x="563" y="40.5332">ITOperations</text><!--cluster Common Physical Layer--><polygon fill="#BBBBBB" filter="url(#fcgjmm2nymrol)" points="306,178,476,178,483,201.6094,648,201.6094,648,265,306,265,306,178" style="stroke: #000000; stroke-width: 1.5;"/><line style="stroke: #000000; stroke-width: 1.5;" x1="306" x2="483" y1="201.6094" y2="201.6094"/><text fill="#000000" font-family="sans-serif" font-size="14" font-weight="bold" lengthAdjust="spacingAndGlyphs" textLength="164" x="310" y="194.5332">Common Physical Layer</text><!--cluster DevOps Engineer--><polygon fill="#FFFFFF" filter="url(#fcgjmm2nymrol)" points="675,178,805,178,812,201.6094,815,201.6094,815,265,675,265,675,178" style="stroke: #000000; stroke-width: 1.5;"/><line style="stroke: #000000; stroke-width: 1.5;" x1="675" x2="812" y1="201.6094" y2="201.6094"/><text fill="#000000" font-family="sans-serif" font-size="14" font-weight="bold" lengthAdjust="spacingAndGlyphs" textLength="124" x="679" y="194.5332">DevOps Engineer</text><!--cluster Security Manager--><polygon fill="#FFC0CB" filter="url(#fcgjmm2nymrol)" points="22,298,151,298,158,321.6094,514,321.6094,514,385,22,385,22,298" style="stroke: #000000; stroke-width: 1.5;"/><line style="stroke: #000000; stroke-width: 1.5;" x1="22" x2="158" y1="321.6094" y2="321.6094"/><text fill="#000000" font-family="sans-serif" font-size="14" font-weight="bold" lengthAdjust="spacingAndGlyphs" textLength="123" x="26" y="314.5332">Security Manager</text><!--cluster DevOps Pipeline--><polygon fill="#00AAFF" filter="url(#fcgjmm2nymrol)" points="538,298,661,298,668,321.6094,857,321.6094,857,628,538,628,538,298" style="stroke: #000000; stroke-width: 1.5;"/><line style="stroke: #000000; stroke-width: 1.5;" x1="538" x2="668" y1="321.6094" y2="321.6094"/><text fill="#000000" font-family="sans-serif" font-size="14" font-weight="bold" lengthAdjust="spacingAndGlyphs" textLength="117" x="542" y="314.5332">DevOps Pipeline</text><ellipse cx="615" cy="70" fill="#000000" filter="url(#fcgjmm2nymrol)" rx="10" ry="10" style="stroke: none; stroke-width: 1.0;"/><rect fill="#000000" filter="url(#fcgjmm2nymrol)" height="8" style="stroke: none; stroke-width: 1.0;" width="80" x="575" y="121"/><rect fill="#FEFECE" filter="url(#fcgjmm2nymrol)" height="35.0938" rx="12.5" ry="12.5" style="stroke: #A80036; stroke-width: 1.5;" width="128" x="504" y="214"/><text fill="#000000" font-family="sans-serif" font-size="12" lengthAdjust="spacingAndGlyphs" textLength="108" x="514" y="236.457">Provision Hardware</text><rect fill="#FEFECE" filter="url(#fcgjmm2nymrol)" height="35.0938" rx="12.5" ry="12.5" style="stroke: #A80036; stroke-width: 1.5;" width="162" x="322" y="214"/><text fill="#000000" font-family="sans-serif" font-size="12" lengthAdjust="spacingAndGlyphs" textLength="142" x="332" y="236.457">Deploy Attested Hardware</text><rect fill="#FEFECE" filter="url(#fcgjmm2nymrol)" height="35.0938" rx="12.5" ry="12.5" style="stroke: #A80036; stroke-width: 1.5;" width="76" x="693" y="214"/><text fill="#000000" font-family="sans-serif" font-size="12" lengthAdjust="spacingAndGlyphs" textLength="56" x="703" y="236.457">Start Build</text><rect fill="#FEFECE" filter="url(#fcgjmm2nymrol)" height="35.0938" rx="12.5" ry="12.5" style="stroke: #A80036; stroke-width: 1.5;" width="158" x="158" y="334"/><text fill="#000000" font-family="sans-serif" font-size="12" lengthAdjust="spacingAndGlyphs" textLength="138" x="168" y="356.457">Generate Hardware Keys</text><rect fill="#FEFECE" filter="url(#fcgjmm2nymrol)" height="35.0938" rx="12.5" ry="12.5" style="stroke: #A80036; stroke-width: 1.5;" width="99" x="38.5" y="334"/><text fill="#000000" font-family="sans-serif" font-size="12" lengthAdjust="spacingAndGlyphs" textLength="79" x="48.5" y="356.457">Register Entity</text><rect fill="#FEFECE" filter="url(#fcgjmm2nymrol)" height="35.0938" rx="12.5" ry="12.5" style="stroke: #A80036; stroke-width: 1.5;" width="161" x="336.5" y="334"/><text fill="#000000" font-family="sans-serif" font-size="12" lengthAdjust="spacingAndGlyphs" textLength="141" x="346.5" y="356.457">Generate Attestation Keys</text><rect fill="#FEFECE" filter="url(#fcgjmm2nymrol)" height="35.0938" rx="12.5" ry="12.5" style="stroke: #A80036; stroke-width: 1.5;" width="143" x="554.5" y="577"/><text fill="#000000" font-family="sans-serif" font-size="12" lengthAdjust="spacingAndGlyphs" textLength="123" x="564.5" y="599.457">Deploy SABR Release</text><rect fill="#FEFECE" filter="url(#fcgjmm2nymrol)" height="35.0938" rx="12.5" ry="12.5" style="stroke: #A80036; stroke-width: 1.5;" width="83" x="698.5" y="334"/><text fill="#000000" font-family="sans-serif" font-size="12" lengthAdjust="spacingAndGlyphs" textLength="63" x="708.5" y="356.457">Build SABR</text><rect fill="#FEFECE" filter="url(#fcgjmm2nymrol)" height="35.0938" rx="12.5" ry="12.5" style="stroke: #A80036; stroke-width: 1.5;" width="106" x="572" y="334"/><text fill="#000000" font-family="sans-serif" font-size="12" lengthAdjust="spacingAndGlyphs" textLength="86" x="582" y="356.457">Provision SABR</text><rect fill="#FEFECE" filter="url(#fcgjmm2nymrol)" height="35.0938" rx="12.5" ry="12.5" style="stroke: #A80036; stroke-width: 1.5;" width="85" x="583.5" y="422"/><text fill="#000000" font-family="sans-serif" font-size="12" lengthAdjust="spacingAndGlyphs" textLength="65" x="593.5" y="444.457">Attest SABR</text><polygon fill="#FEFECE" filter="url(#fcgjmm2nymrol)" points="626,498,638,510,626,522,614,510,626,498" style="stroke: #A80036; stroke-width: 1.5;"/><rect fill="#FEFECE" filter="url(#fcgjmm2nymrol)" height="35.0938" rx="12.5" ry="12.5" style="stroke: #A80036; stroke-width: 1.5;" width="123" x="717.5" y="577"/><text fill="#000000" font-family="sans-serif" font-size="12" lengthAdjust="spacingAndGlyphs" textLength="103" x="727.5" y="599.457">Failed Deployment</text><!--link start to F1--><path d="M615,80.232 C615,90.253 615,106.108 615,115.734 " fill="none" id="start-F1" style="stroke: #A80036; stroke-width: 1.0;"/><polygon fill="#A80036" points="615,120.814,619,111.814,615,115.814,611,111.814,615,120.814" style="stroke: #A80036; stroke-width: 1.0;"/><!--link F1 to Provision Hardware--><path d="M613.644,129.015 C608.43,140.608 589.374,182.976 577.596,209.164 " fill="none" id="F1-Provision Hardware" style="stroke: #A80036; stroke-width: 1.0;"/><polygon fill="#A80036" points="575.486,213.855,582.8263,207.2884,577.5373,209.2952,575.5306,204.0062,575.486,213.855" style="stroke: #A80036; stroke-width: 1.0;"/><!--link F1 to Start Build--><path d="M618.347,129.015 C631.429,140.801 679.817,184.391 708.749,210.455 " fill="none" id="F1-Start Build" style="stroke: #A80036; stroke-width: 1.0;"/><polygon fill="#A80036" points="712.523,213.855,708.5132,204.8594,708.808,210.5085,703.1589,210.8033,712.523,213.855" style="stroke: #A80036; stroke-width: 1.0;"/><!--link Provision Hardware to Generate Hardware Keys--><path d="M543.435,249.201 C529.538,257.793 511.485,267.576 494,273 C422.322,295.236 396.525,264.341 326,290 C301.236,299.01 276.743,316.457 259.74,330.309 " fill="none" id="Provision Hardware-Generate Hardware Keys" style="stroke: #A80036; stroke-width: 1.0;"/><polygon fill="#A80036" points="255.583,333.746,265.0679,331.0933,259.4363,330.5597,259.9698,324.9281,255.583,333.746" style="stroke: #A80036; stroke-width: 1.0;"/><!--link Generate Hardware Keys to Deploy Attested Hardware--><path d="M260.312,333.928 C290.532,312.447 343.16,275.037 375.359,252.149 " fill="none" id="Generate Hardware Keys-Deploy Attested Hardware" style="stroke: #A80036; stroke-width: 1.0;"/><polygon fill="#A80036" points="379.568,249.156,369.9149,251.1101,375.4927,252.0529,374.5499,257.6306,379.568,249.156" style="stroke: #A80036; stroke-width: 1.0;"/><!--link Deploy Attested Hardware to Register Entity--><path d="M321.871,239.004 C269.581,245.956 201.599,260.323 148,290 C130.29,299.806 114.369,316.415 103.3855,329.753 " fill="none" id="Deploy Attested Hardware-Register Entity" style="stroke: #A80036; stroke-width: 1.0;"/><polygon fill="#A80036" points="100.1386,333.776,108.9035,329.2842,103.2786,329.885,102.6778,324.2601,100.1386,333.776" style="stroke: #A80036; stroke-width: 1.0;"/><!--link Deploy Attested Hardware to Deploy SABR Release--><path d="M447.805,249.069 C488.1,267.208 541,300.536 541,350.5 C541,350.5 541,350.5 541,511 C541,538.763 564.638,560.1868 586.983,574.2372 " fill="none" id="Deploy Attested Hardware-Deploy SABR Release" style="stroke: #A80036; stroke-width: 1.0;"/><polygon fill="#A80036" points="591.427,576.9487,585.8275,568.8465,587.1587,574.3445,581.6607,575.6758,591.427,576.9487" style="stroke: #A80036; stroke-width: 1.0;"/><!--link Start Build to Build SABR--><path d="M732.27,249.156 C733.858,269.976 736.58,305.665 738.334,328.658 " fill="none" id="Start Build-Build SABR" style="stroke: #A80036; stroke-width: 1.0;"/><polygon fill="#A80036" points="738.736,333.928,742.0405,324.65,738.356,328.9425,734.0636,325.258,738.736,333.928" style="stroke: #A80036; stroke-width: 1.0;"/><!--link Build SABR to Generate Attestation Keys--><path d="M731.046,333.787 C720.956,316.195 702.685,290.574 678,281.5 C651.511,271.763 578.409,274.772 551,281.5 C512.205,291.022 472.177,313.964 446.093,331.003 " fill="none" id="Build SABR-Generate Attestation Keys" style="stroke: #A80036; stroke-width: 1.0;"/><polygon fill="#A80036" points="441.709,333.897,451.4238,332.2775,445.882,331.1426,447.0168,325.6008,441.709,333.897" style="stroke: #A80036; stroke-width: 1.0;"/><!--link Generate Attestation Keys to Provision SABR--><path d="M497.844,351.5 C520.779,351.5 543.714,351.5 566.649,351.5 " fill="none" id="Generate Attestation Keys-Provision SABR" style="stroke: #A80036; stroke-width: 1.0;"/><polygon fill="#A80036" points="571.853,351.5,562.853,347.5,566.853,351.5,562.853,355.5,571.853,351.5" style="stroke: #A80036; stroke-width: 1.0;"/><!--link Provision SABR to Attest SABR--><path d="M625.193,369.082 C625.351,382.645 625.575,401.933 625.747,416.737 " fill="none" id="Provision SABR-Attest SABR" style="stroke: #A80036; stroke-width: 1.0;"/><polygon fill="#A80036" points="625.808,421.969,629.7023,412.9228,625.7494,416.9693,621.7028,413.0165,625.808,421.969" style="stroke: #A80036; stroke-width: 1.0;"/><!--link Attest SABR to #4706--><path d="M626,457.082 C626,467.872 626,481.883 626,492.63 " fill="none" id="Attest SABR-#4706" style="stroke: #A80036; stroke-width: 1.0;"/><polygon fill="#A80036" points="626,497.918,630,488.918,626,492.918,622,488.918,626,497.918" style="stroke: #A80036; stroke-width: 1.0;"/><text fill="#000000" font-family="sans-serif" font-size="11" lengthAdjust="spacingAndGlyphs" textLength="84" x="521.525" y="487.482">Attestation match</text><!--link #4706 to Deploy SABR Release--><path d="M626,522.126 C626,534.771 626,555.7201 626,571.6601 " fill="none" id="#4706-Deploy SABR Release" style="stroke: #A80036; stroke-width: 1.0;"/><polygon fill="#A80036" points="626,576.8545,630,567.8545,626,571.8545,622,567.8545,626,576.8545" style="stroke: #A80036; stroke-width: 1.0;"/><text fill="#000000" font-family="sans-serif" font-size="11" lengthAdjust="spacingAndGlyphs" textLength="19" x="627" y="554.4189">true</text><!--link #4706 to Failed Deployment--><path d="M633.38,514.979 C652.917,525.514 706.985,554.6682 743.45,574.3311 " fill="none" id="#4706-Failed Deployment" style="stroke: #A80036; stroke-width: 1.0;"/><polygon fill="#A80036" points="748.251,576.9196,742.2295,569.1259,743.8506,574.5455,738.431,576.1666,748.251,576.9196" style="stroke: #A80036; stroke-width: 1.0;"/><text fill="#000000" font-family="sans-serif" font-size="11" lengthAdjust="spacingAndGlyphs" textLength="24" x="708" y="554.4189">false</text><!--
@startuml
partition "ITOperations" {
(*) - -> ===F1===
}

partition "Common Physical Layer" #bbbbbb {
===F1=== - -> "Provision Hardware"
}

partition "DevOps Engineer" {
===F1=== - -> "Start Build"
}
partition "Security Manager" #pink {
"Provision Hardware" - -> "Generate Hardware Keys"
}
partition "Common Physical Layer" #bbbbbb {
"Generate Hardware Keys" - -> "Deploy Attested Hardware"
}
partition "Security Manager" {
"Deploy Attested Hardware" - -> "Register Entity"
}
partition "DevOps Pipeline" #00aaff {
"Deploy Attested Hardware" - -> "Deploy SABR Release"
}
partition "DevOps Pipeline" #00aaff {
"Start Build" - -> "Build SABR"
}
partition "Security Manager" pink {
"Build SABR" - -> "Generate Attestation Keys"
}
partition "DevOps Pipeline" #00aaff {
"Generate Attestation Keys" - -> "Provision SABR"
}
partition "DevOps Pipeline" #00aaff {
"Provision SABR" - -> "Attest SABR"
}
partition "DevOps Pipeline" #00aaff {
"Attest SABR" - -> if "Attestation match" then
}
partition "DevOps Pipeline" #00aaff {
else
- -> [true] "Deploy SABR Release"
}
partition "DevOps Pipeline" #00aaff {
else
- -> [false] "Failed Deployment"
}

@enduml

PlantUML version 1.2019.05(Sat Apr 20 09:45:36 PDT 2019)
(GPL source distribution)
Java Runtime: Java(TM) SE Runtime Environment
JVM: Java HotSpot(TM) Client VM
Java Version: 1.8.0_271-b09
Operating System: Windows 10
OS Version: 10.0
Default Encoding: Cp1252
Language: en
Country: US
--></g></svg>