<?xml version="1.0" encoding="us-ascii" standalone="no"?><svg xmlns="http://www.w3.org/2000/svg" xmlns:xlink="http://www.w3.org/1999/xlink" contentStyleType="text/css" height="617px" preserveAspectRatio="none" style="width:868px;height:617px;background:#FFFFFF;" version="1.1" viewBox="0 0 868 617" width="868px" zoomAndPan="magnify"><defs/><g><!--cluster ITOperations--><g id="cluster_ITOperations"><polygon fill="none" points="607,6,703,6,710,29.6094,719,29.6094,719,127,607,127,607,6" style="stroke:#000000;stroke-width:1.5;"/><line style="stroke:#000000;stroke-width:1.5;" x1="607" x2="710" y1="29.6094" y2="29.6094"/><text fill="#000000" font-family="sans-serif" font-size="14" font-weight="bold" lengthAdjust="spacing" textLength="90" x="611" y="22.5332">ITOperations</text></g><!--cluster Common Physical Layer--><g id="cluster_Common Physical Layer"><polygon fill="#BBBBBB" points="300,160,470,160,477,183.6094,642,183.6094,642,247,300,247,300,160" style="stroke:#000000;stroke-width:1.5;"/><line style="stroke:#000000;stroke-width:1.5;" x1="300" x2="477" y1="183.6094" y2="183.6094"/><text fill="#000000" font-family="sans-serif" font-size="14" font-weight="bold" lengthAdjust="spacing" textLength="164" x="304" y="176.5332">Common Physical Layer</text></g><!--cluster DevOps Engineer--><g id="cluster_DevOps Engineer"><polygon fill="none" points="673,160,803,160,810,183.6094,813,183.6094,813,247,673,247,673,160" style="stroke:#000000;stroke-width:1.5;"/><line style="stroke:#000000;stroke-width:1.5;" x1="673" x2="810" y1="183.6094" y2="183.6094"/><text fill="#000000" font-family="sans-serif" font-size="14" font-weight="bold" lengthAdjust="spacing" textLength="124" x="677" y="176.5332">DevOps Engineer</text></g><!--cluster Security Manager--><g id="cluster_Security Manager"><polygon fill="#FFC0CB" points="16,280,145,280,152,303.6094,508,303.6094,508,367,16,367,16,280" style="stroke:#000000;stroke-width:1.5;"/><line style="stroke:#000000;stroke-width:1.5;" x1="16" x2="152" y1="303.6094" y2="303.6094"/><text fill="#000000" font-family="sans-serif" font-size="14" font-weight="bold" lengthAdjust="spacing" textLength="123" x="20" y="296.5332">Security Manager</text></g><!--cluster DevOps Pipeline--><g id="cluster_DevOps Pipeline"><polygon fill="#00AAFF" points="532,280,655,280,662,303.6094,851,303.6094,851,610,532,610,532,280" style="stroke:#000000;stroke-width:1.5;"/><line style="stroke:#000000;stroke-width:1.5;" x1="532" x2="662" y1="303.6094" y2="303.6094"/><text fill="#000000" font-family="sans-serif" font-size="14" font-weight="bold" lengthAdjust="spacing" textLength="117" x="536" y="296.5332">DevOps Pipeline</text></g><ellipse cx="663" cy="52" fill="#222222" rx="10" ry="10" style="stroke:#222222;stroke-width:1.0;"/><rect fill="#555555" height="8" style="stroke:none;stroke-width:1.0;" width="80" x="623" y="103"/><rect fill="#F1F1F1" height="35.0938" rx="12.5" ry="12.5" style="stroke:#181818;stroke-width:0.5;" width="128" x="498" y="196"/><text fill="#000000" font-family="sans-serif" font-size="12" lengthAdjust="spacing" textLength="108" x="508" y="218.457">Provision Hardware</text><rect fill="#F1F1F1" height="35.0938" rx="12.5" ry="12.5" style="stroke:#181818;stroke-width:0.5;" width="162" x="316" y="196"/><text fill="#000000" font-family="sans-serif" font-size="12" lengthAdjust="spacing" textLength="142" x="326" y="218.457">Deploy Attested Hardware</text><rect fill="#F1F1F1" height="35.0938" rx="12.5" ry="12.5" style="stroke:#181818;stroke-width:0.5;" width="76" x="692" y="196"/><text fill="#000000" font-family="sans-serif" font-size="12" lengthAdjust="spacing" textLength="56" x="702" y="218.457">Start Build</text><rect fill="#F1F1F1" height="35.0938" rx="12.5" ry="12.5" style="stroke:#181818;stroke-width:0.5;" width="158" x="152" y="316"/><text fill="#000000" font-family="sans-serif" font-size="12" lengthAdjust="spacing" textLength="138" x="162" y="338.457">Generate Hardware Keys</text><rect fill="#F1F1F1" height="35.0938" rx="12.5" ry="12.5" style="stroke:#181818;stroke-width:0.5;" width="99" x="32.5" y="316"/><text fill="#000000" font-family="sans-serif" font-size="12" lengthAdjust="spacing" textLength="79" x="42.5" y="338.457">Register Entity</text><rect fill="#F1F1F1" height="35.0938" rx="12.5" ry="12.5" style="stroke:#181818;stroke-width:0.5;" width="161" x="330.5" y="316"/><text fill="#000000" font-family="sans-serif" font-size="12" lengthAdjust="spacing" textLength="141" x="340.5" y="338.457">Generate Attestation Keys</text><rect fill="#F1F1F1" height="35.0938" rx="12.5" ry="12.5" style="stroke:#181818;stroke-width:0.5;" width="143" x="548.5" y="559"/><text fill="#000000" font-family="sans-serif" font-size="12" lengthAdjust="spacing" textLength="123" x="558.5" y="581.457">Deploy SABR Release</text><rect fill="#F1F1F1" height="35.0938" rx="12.5" ry="12.5" style="stroke:#181818;stroke-width:0.5;" width="83" x="692.5" y="316"/><text fill="#000000" font-family="sans-serif" font-size="12" lengthAdjust="spacing" textLength="63" x="702.5" y="338.457">Build SABR</text><rect fill="#F1F1F1" height="35.0938" rx="12.5" ry="12.5" style="stroke:#181818;stroke-width:0.5;" width="106" x="566" y="316"/><text fill="#000000" font-family="sans-serif" font-size="12" lengthAdjust="spacing" textLength="86" x="576" y="338.457">Provision SABR</text><rect fill="#F1F1F1" height="35.0938" rx="12.5" ry="12.5" style="stroke:#181818;stroke-width:0.5;" width="85" x="577.5" y="404"/><text fill="#000000" font-family="sans-serif" font-size="12" lengthAdjust="spacing" textLength="65" x="587.5" y="426.457">Attest SABR</text><g id="elem_#30"><polygon fill="#F1F1F1" points="620,480,632,492,620,504,608,492,620,480" style="stroke:#181818;stroke-width:0.5;"/></g><rect fill="#F1F1F1" height="35.0938" rx="12.5" ry="12.5" style="stroke:#181818;stroke-width:0.5;" width="123" x="711.5" y="559"/><text fill="#000000" font-family="sans-serif" font-size="12" lengthAdjust="spacing" textLength="103" x="721.5" y="581.457">Failed Deployment</text><!--link start to F1--><g id="link_start_F1"><path d="M663,62.23 C663,74.33 663,88.94 663,96.81 " fill="none" id="start-to-F1" style="stroke:#181818;stroke-width:1.0;"/><polygon fill="#181818" points="663,102.81,667,93.81,663,97.81,659,93.81,663,102.81" style="stroke:#181818;stroke-width:1.0;"/></g><!--link F1 to Provision Hardware--><g id="link_F1_Provision Hardware"><path d="M660.09,111.01 C648.18,123.33 606.8892,166.0552 582.2592,191.5452 " fill="none" id="F1-to-Provision Hardware" style="stroke:#181818;stroke-width:1.0;"/><polygon fill="#181818" points="578.09,195.86,587.2204,192.1673,581.5644,192.2643,581.4673,186.6083,578.09,195.86" style="stroke:#181818;stroke-width:1.0;"/></g><!--link F1 to Start Build--><g id="link_F1_Start Build"><path d="M664.93,111.01 C672.83,123.33 699.752,165.3187 716.092,190.8087 " fill="none" id="F1-to-Start Build" style="stroke:#181818;stroke-width:1.0;"/><polygon fill="#181818" points="719.33,195.86,717.8405,186.1244,716.6316,191.6506,711.1054,190.4418,719.33,195.86" style="stroke:#181818;stroke-width:1.0;"/></g><!--link Provision Hardware to Generate Hardware Keys--><g id="link_Provision Hardware_Generate Hardware Keys"><path d="M537.43,231.2 C523.54,239.79 505.48,249.57 488,255 C416.75,277.13 391.17,246.65 321,272 C293.91,281.79 271.6712,297.6632 254.4512,311.9232 " fill="none" id="Provision Hardware-to-Generate Hardware Keys" style="stroke:#181818;stroke-width:1.0;"/><polygon fill="#181818" points="249.83,315.75,259.313,313.0905,253.681,312.561,254.2106,306.929,249.83,315.75" style="stroke:#181818;stroke-width:1.0;"/></g><!--link Generate Hardware Keys to Deploy Attested Hardware--><g id="link_Generate Hardware Keys_Deploy Attested Hardware"><path d="M254.31,315.93 C285.89,293.48 337.0396,257.1262 368.6796,234.6362 " fill="none" id="Generate Hardware Keys-to-Deploy Attested Hardware" style="stroke:#181818;stroke-width:1.0;"/><polygon fill="#181818" points="373.57,231.16,363.9169,233.114,369.4946,234.0568,368.5518,239.6345,373.57,231.16" style="stroke:#181818;stroke-width:1.0;"/></g><!--link Deploy Attested Hardware to Register Entity--><g id="link_Deploy Attested Hardware_Register Entity"><path d="M315.87,221 C263.58,227.96 195.6,242.32 142,272 C122.46,282.82 108.8095,297.212 97.8595,311.072 " fill="none" id="Deploy Attested Hardware-to-Register Entity" style="stroke:#181818;stroke-width:1.0;"/><polygon fill="#181818" points="94.14,315.78,102.8579,311.1977,97.2396,311.8567,96.5806,306.2383,94.14,315.78" style="stroke:#181818;stroke-width:1.0;"/></g><!--link Deploy Attested Hardware to Deploy SABR Release--><g id="link_Deploy Attested Hardware_Deploy SABR Release"><path d="M441.8,231.07 C482.1,249.21 535,282.54 535,332.5 C535,332.5 535,332.5 535,493 C535,522.61 556.7264,541.9644 580.2664,555.8944 " fill="none" id="Deploy Attested Hardware-to-Deploy SABR Release" style="stroke:#181818;stroke-width:1.0;"/><polygon fill="#181818" points="585.43,558.95,579.7216,550.9241,581.127,556.4036,575.6475,557.809,585.43,558.95" style="stroke:#181818;stroke-width:1.0;"/></g><!--link Start Build to Build SABR--><g id="link_Start Build_Build SABR"><path d="M730.56,231.16 C731.33,253.65 732.477,287.4834 733.237,309.9334 " fill="none" id="Start Build-to-Build SABR" style="stroke:#181818;stroke-width:1.0;"/><polygon fill="#181818" points="733.44,315.93,737.1332,306.7998,733.2708,310.9329,729.1378,307.0705,733.44,315.93" style="stroke:#181818;stroke-width:1.0;"/></g><!--link Build SABR to Generate Attestation Keys--><g id="link_Build SABR_Generate Attestation Keys"><path d="M725.05,315.79 C714.96,298.19 696.68,272.57 672,263.5 C645.51,253.76 572.41,256.77 545,263.5 C503.96,273.57 466.5305,295.3291 440.7005,312.5691 " fill="none" id="Build SABR-to-Generate Attestation Keys" style="stroke:#181818;stroke-width:1.0;"/><polygon fill="#181818" points="435.71,315.9,445.4164,314.2307,439.8688,313.1243,440.9752,307.5767,435.71,315.9" style="stroke:#181818;stroke-width:1.0;"/></g><!--link Generate Attestation Keys to Provision SABR--><g id="link_Generate Attestation Keys_Provision SABR"><path d="M491.84,333.5 C516.51,333.5 535.18,333.5 559.85,333.5 " fill="none" id="Generate Attestation Keys-to-Provision SABR" style="stroke:#181818;stroke-width:1.0;"/><polygon fill="#181818" points="565.85,333.5,556.85,329.5,560.85,333.5,556.85,337.5,565.85,333.5" style="stroke:#181818;stroke-width:1.0;"/></g><!--link Provision SABR to Attest SABR--><g id="link_Provision SABR_Attest SABR"><path d="M619.19,351.08 C619.37,366.31 619.559,382.7604 619.739,397.9704 " fill="none" id="Provision SABR-to-Attest SABR" style="stroke:#181818;stroke-width:1.0;"/><polygon fill="#181818" points="619.81,403.97,623.7032,394.9233,619.7508,398.9704,615.7038,395.018,619.81,403.97" style="stroke:#181818;stroke-width:1.0;"/></g><!--link Attest SABR to #30--><g id="link_Attest SABR_#30"><path d="M620,439.08 C620,451.75 620,462.87 620,473.92 " fill="none" id="Attest SABR-to-#30" style="stroke:#181818;stroke-width:1.0;"/><polygon fill="#181818" points="620,479.92,624,470.92,620,474.92,616,470.92,620,479.92" style="stroke:#181818;stroke-width:1.0;"/><text fill="#000000" font-family="sans-serif" font-size="11" lengthAdjust="spacing" textLength="84" x="515.525" y="469.485">Attestation match</text></g><!--link #30 to Deploy SABR Release--><g id="link_#30_Deploy SABR Release"><path d="M620,504.13 C620,518.2 620,536.56 620,552.85 " fill="none" id="#30-to-Deploy SABR Release" style="stroke:#181818;stroke-width:1.0;"/><polygon fill="#181818" points="620,558.85,624,549.85,620,553.85,616,549.85,620,558.85" style="stroke:#181818;stroke-width:1.0;"/><text fill="#000000" font-family="sans-serif" font-size="11" lengthAdjust="spacing" textLength="19" x="621" y="536.4189">true</text></g><!--link #30 to Failed Deployment--><g id="link_#30_Failed Deployment"><path d="M627.38,496.98 C647.79,507.99 700.6291,536.4718 736.9691,556.0718 " fill="none" id="#30-to-Failed Deployment" style="stroke:#181818;stroke-width:1.0;"/><polygon fill="#181818" points="742.25,558.92,736.2275,551.1271,737.8493,556.5465,732.4299,558.1682,742.25,558.92" style="stroke:#181818;stroke-width:1.0;"/><text fill="#000000" font-family="sans-serif" font-size="11" lengthAdjust="spacing" textLength="24" x="702" y="536.4189">false</text></g><!--SRC=[fTBTJi8m50Vm-pr5Cs_KX0GVO2OWeaOD1BmpNXp76JHsNTCMp69yTqzRaDcChxYBVVz_FUsf0csvvPLawSFBIA46zs1IzfMSNrwmJkUQPLaslA9JyfqaQllxJLMMT1qlQiDp4Em9QjGfEtlt1-KtEO-aOrsjk779Uz2pJz2OHk00LoDbsAsSSucEYecffPzPVyd5p6KRqIdcIyrjpPv1mjoNeRZy8A5jtA3TeNIpnT_tx15h4y479xcB2MCCK8cgPZrhqLYS_Pdwtl89tfaDz0JddDvhMYzYwaXSh-MOAnIqcbHnjmjG54V0wy_JNd_29YWG39w0DtiKF7_lkOEptlIi4Obw5OhsUxIjNVigsst46xIbrdrm50nQ6EHKgfdo3YysLAYt19ilKcONA8zMKHXC7FPgzHBV_jdXhLO0tH8t12ve6mMrH6aTzWC0]--></g></svg>