<?xml version="1.0" encoding="us-ascii" standalone="no"?><svg xmlns="http://www.w3.org/2000/svg" xmlns:xlink="http://www.w3.org/1999/xlink" contentStyleType="text/css" height="1214px" preserveAspectRatio="none" style="width:1411px;height:1214px;background:#FFFFFF;" version="1.1" viewBox="0 0 1411 1214" width="1411px" zoomAndPan="magnify"><defs/><g><rect fill="#FFFFFF" height="1099.1563" style="stroke:#181818;stroke-width:1.0;" width="10" x="279.5" y="69.9609"/><rect fill="#FFFFFF" height="1068.8047" style="stroke:#181818;stroke-width:1.0;" width="10" x="417" y="100.3125"/><rect fill="none" height="60.9609" style="stroke:#000000;stroke-width:1.5;" width="318.5" x="344" y="115.3125"/><rect fill="none" height="92.0547" style="stroke:#000000;stroke-width:1.5;" width="1025" x="84" y="1025.7109"/><line style="stroke:#181818;stroke-width:0.5;stroke-dasharray:5.0,5.0;" x1="44" x2="44" y1="37.6094" y2="1178.1172"/><line style="stroke:#181818;stroke-width:0.5;stroke-dasharray:5.0,5.0;" x1="154" x2="154" y1="37.6094" y2="1178.1172"/><line style="stroke:#181818;stroke-width:0.5;stroke-dasharray:5.0,5.0;" x1="284" x2="284" y1="37.6094" y2="1178.1172"/><line style="stroke:#181818;stroke-width:0.5;stroke-dasharray:5.0,5.0;" x1="422" x2="422" y1="37.6094" y2="1178.1172"/><line style="stroke:#181818;stroke-width:0.5;stroke-dasharray:5.0,5.0;" x1="622.5" x2="622.5" y1="164.9688" y2="1178.1172"/><line style="stroke:#181818;stroke-width:0.5;stroke-dasharray:5.0,5.0;" x1="1030.5" x2="1030.5" y1="37.6094" y2="1178.1172"/><line style="stroke:#181818;stroke-width:0.5;stroke-dasharray:5.0,5.0;" x1="1118.5" x2="1118.5" y1="37.6094" y2="1178.1172"/><line style="stroke:#181818;stroke-width:0.5;stroke-dasharray:5.0,5.0;" x1="1225.5" x2="1225.5" y1="37.6094" y2="1178.1172"/><line style="stroke:#181818;stroke-width:0.5;stroke-dasharray:5.0,5.0;" x1="1311.5" x2="1311.5" y1="37.6094" y2="1178.1172"/><line style="stroke:#181818;stroke-width:0.5;stroke-dasharray:5.0,5.0;" x1="1373.5" x2="1373.5" y1="37.6094" y2="1178.1172"/><rect fill="#E2E2F0" height="31.6094" rx="2.5" ry="2.5" style="stroke:#181818;stroke-width:0.5;" width="79" x="5" y="5"/><text fill="#000000" font-family="sans-serif" font-size="14" lengthAdjust="spacing" textLength="65" x="12" y="26.5332">Developer</text><rect fill="#E2E2F0" height="31.6094" rx="2.5" ry="2.5" style="stroke:#181818;stroke-width:0.5;" width="79" x="5" y="1177.1172"/><text fill="#000000" font-family="sans-serif" font-size="14" lengthAdjust="spacing" textLength="65" x="12" y="1198.6504">Developer</text><rect fill="#FFC0CB" height="31.6094" rx="2.5" ry="2.5" style="stroke:#181818;stroke-width:0.5;" width="121" x="94" y="5"/><text fill="#000000" font-family="sans-serif" font-size="14" lengthAdjust="spacing" textLength="107" x="101" y="26.5332">SecurityManager</text><rect fill="#FFC0CB" height="31.6094" rx="2.5" ry="2.5" style="stroke:#181818;stroke-width:0.5;" width="121" x="94" y="1177.1172"/><text fill="#000000" font-family="sans-serif" font-size="14" lengthAdjust="spacing" textLength="107" x="101" y="1198.6504">SecurityManager</text><rect fill="#00AAFF" height="31.6094" rx="2.5" ry="2.5" style="stroke:#181818;stroke-width:0.5;" width="119" x="225" y="5"/><text fill="#000000" font-family="sans-serif" font-size="14" lengthAdjust="spacing" textLength="105" x="232" y="26.5332">DevOps Pipeline</text><rect fill="#00AAFF" height="31.6094" rx="2.5" ry="2.5" style="stroke:#181818;stroke-width:0.5;" width="119" x="225" y="1177.1172"/><text fill="#000000" font-family="sans-serif" font-size="14" lengthAdjust="spacing" textLength="105" x="232" y="1198.6504">DevOps Pipeline</text><rect fill="#90EE90" height="31.6094" rx="2.5" ry="2.5" style="stroke:#181818;stroke-width:0.5;" width="136" x="354" y="5"/><text fill="#000000" font-family="sans-serif" font-size="14" lengthAdjust="spacing" textLength="122" x="361" y="26.5332">Capability Manager</text><rect fill="#90EE90" height="31.6094" rx="2.5" ry="2.5" style="stroke:#181818;stroke-width:0.5;" width="136" x="354" y="1177.1172"/><text fill="#000000" font-family="sans-serif" font-size="14" lengthAdjust="spacing" textLength="122" x="361" y="1198.6504">Capability Manager</text><rect fill="#90EE90" height="31.6094" rx="2.5" ry="2.5" style="stroke:#181818;stroke-width:0.5;" width="59" x="593.5" y="1177.1172"/><text fill="#000000" font-family="sans-serif" font-size="14" lengthAdjust="spacing" textLength="45" x="600.5" y="1198.6504">SABR1</text><rect fill="#90EE90" height="31.6094" rx="2.5" ry="2.5" style="stroke:#181818;stroke-width:0.5;" width="59" x="1001.5" y="5"/><text fill="#000000" font-family="sans-serif" font-size="14" lengthAdjust="spacing" textLength="45" x="1008.5" y="26.5332">SABR2</text><rect fill="#90EE90" height="31.6094" rx="2.5" ry="2.5" style="stroke:#181818;stroke-width:0.5;" width="59" x="1001.5" y="1177.1172"/><text fill="#000000" font-family="sans-serif" font-size="14" lengthAdjust="spacing" textLength="45" x="1008.5" y="1198.6504">SABR2</text><rect fill="#90EE90" height="31.6094" rx="2.5" ry="2.5" style="stroke:#181818;stroke-width:0.5;" width="97" x="1070.5" y="5"/><text fill="#000000" font-family="sans-serif" font-size="14" lengthAdjust="spacing" textLength="83" x="1077.5" y="26.5332">DataStream1</text><rect fill="#90EE90" height="31.6094" rx="2.5" ry="2.5" style="stroke:#181818;stroke-width:0.5;" width="97" x="1070.5" y="1177.1172"/><text fill="#000000" font-family="sans-serif" font-size="14" lengthAdjust="spacing" textLength="83" x="1077.5" y="1198.6504">DataStream1</text><rect fill="#90EE90" height="31.6094" rx="2.5" ry="2.5" style="stroke:#181818;stroke-width:0.5;" width="97" x="1177.5" y="5"/><text fill="#000000" font-family="sans-serif" font-size="14" lengthAdjust="spacing" textLength="83" x="1184.5" y="26.5332">DataStream2</text><rect fill="#90EE90" height="31.6094" rx="2.5" ry="2.5" style="stroke:#181818;stroke-width:0.5;" width="97" x="1177.5" y="1177.1172"/><text fill="#000000" font-family="sans-serif" font-size="14" lengthAdjust="spacing" textLength="83" x="1184.5" y="1198.6504">DataStream2</text><rect fill="#E2E2F0" height="31.6094" rx="2.5" ry="2.5" style="stroke:#181818;stroke-width:0.5;" width="54" x="1284.5" y="5"/><text fill="#000000" font-family="sans-serif" font-size="14" lengthAdjust="spacing" textLength="40" x="1291.5" y="26.5332">Pulsar</text><rect fill="#E2E2F0" height="31.6094" rx="2.5" ry="2.5" style="stroke:#181818;stroke-width:0.5;" width="54" x="1284.5" y="1177.1172"/><text fill="#000000" font-family="sans-serif" font-size="14" lengthAdjust="spacing" textLength="40" x="1291.5" y="1198.6504">Pulsar</text><rect fill="#E2E2F0" height="31.6094" rx="2.5" ry="2.5" style="stroke:#181818;stroke-width:0.5;" width="51" x="1348.5" y="5"/><text fill="#000000" font-family="sans-serif" font-size="14" lengthAdjust="spacing" textLength="37" x="1355.5" y="26.5332">SABR</text><rect fill="#E2E2F0" height="31.6094" rx="2.5" ry="2.5" style="stroke:#181818;stroke-width:0.5;" width="51" x="1348.5" y="1177.1172"/><text fill="#000000" font-family="sans-serif" font-size="14" lengthAdjust="spacing" textLength="37" x="1355.5" y="1198.6504">SABR</text><rect fill="#FFFFFF" height="1099.1563" style="stroke:#181818;stroke-width:1.0;" width="10" x="279.5" y="69.9609"/><rect fill="#FFFFFF" height="1068.8047" style="stroke:#181818;stroke-width:1.0;" width="10" x="417" y="100.3125"/><polygon fill="#181818" points="267.5,65.9609,277.5,69.9609,267.5,73.9609,271.5,69.9609" style="stroke:#181818;stroke-width:1.0;"/><line style="stroke:#181818;stroke-width:1.0;" x1="44.5" x2="273.5" y1="69.9609" y2="69.9609"/><text fill="#000000" font-family="sans-serif" font-size="13" lengthAdjust="spacing" textLength="65" x="51.5" y="65.1045">BuildSABR</text><polygon fill="#181818" points="405,96.3125,415,100.3125,405,104.3125,409,100.3125" style="stroke:#181818;stroke-width:1.0;"/><line style="stroke:#181818;stroke-width:1.0;" x1="289.5" x2="411" y1="100.3125" y2="100.3125"/><text fill="#000000" font-family="sans-serif" font-size="13" lengthAdjust="spacing" textLength="78" x="296.5" y="95.4561">build(SABR1)</text><path d="M344,115.3125 L405,115.3125 L405,123.6641 L395,133.6641 L344,133.6641 L344,115.3125 " fill="#EEEEEE" style="stroke:#000000;stroke-width:1.5;"/><rect fill="none" height="60.9609" style="stroke:#000000;stroke-width:1.5;" width="318.5" x="344" y="115.3125"/><text fill="#000000" font-family="sans-serif" font-size="13" font-weight="bold" lengthAdjust="spacing" textLength="16" x="359" y="129.8076">alt</text><text fill="#000000" font-family="sans-serif" font-size="11" font-weight="bold" lengthAdjust="spacing" textLength="132" x="420" y="128.7314">[SABR1 does not exists]</text><polygon fill="#181818" points="581.5,152.0156,591.5,156.0156,581.5,160.0156,585.5,156.0156" style="stroke:#181818;stroke-width:1.0;"/><line style="stroke:#181818;stroke-width:1.0;" x1="427" x2="587.5" y1="156.0156" y2="156.0156"/><text fill="#000000" font-family="sans-serif" font-size="13" lengthAdjust="spacing" textLength="36" x="434" y="151.1592">create</text><rect fill="#90EE90" height="31.6094" rx="2.5" ry="2.5" style="stroke:#181818;stroke-width:0.5;" width="59" x="593.5" y="133.6641"/><text fill="#000000" font-family="sans-serif" font-size="14" lengthAdjust="spacing" textLength="45" x="600.5" y="155.1973">SABR1</text><polygon fill="#181818" points="165.5,201.625,155.5,205.625,165.5,209.625,161.5,205.625" style="stroke:#181818;stroke-width:1.0;"/><line style="stroke:#181818;stroke-width:1.0;" x1="159.5" x2="416" y1="205.625" y2="205.625"/><text fill="#000000" font-family="sans-serif" font-size="13" lengthAdjust="spacing" textLength="172" x="171.5" y="200.7686">getRegistrationCreds(SABR1)</text><polygon fill="#181818" points="611,231.9766,621,235.9766,611,239.9766,615,235.9766" style="stroke:#181818;stroke-width:1.0;"/><line style="stroke:#181818;stroke-width:1.0;" x1="427" x2="617" y1="235.9766" y2="235.9766"/><text fill="#000000" font-family="sans-serif" font-size="13" lengthAdjust="spacing" textLength="172" x="434" y="231.1201">storeRegistrationCreds(creds)</text><polygon fill="#181818" points="165.5,262.3281,155.5,266.3281,165.5,270.3281,161.5,266.3281" style="stroke:#181818;stroke-width:1.0;"/><line style="stroke:#181818;stroke-width:1.0;" x1="159.5" x2="416" y1="266.3281" y2="266.3281"/><text fill="#000000" font-family="sans-serif" font-size="13" lengthAdjust="spacing" textLength="97" x="171.5" y="261.4717">getBootstrapKey</text><polygon fill="#181818" points="611,292.6797,621,296.6797,611,300.6797,615,296.6797" style="stroke:#181818;stroke-width:1.0;"/><line style="stroke:#181818;stroke-width:1.0;" x1="427" x2="617" y1="296.6797" y2="296.6797"/><text fill="#000000" font-family="sans-serif" font-size="13" lengthAdjust="spacing" textLength="137" x="434" y="291.8232">storeKey(bootstrapKey)</text><polygon fill="#181818" points="165.5,323.0313,155.5,327.0313,165.5,331.0313,161.5,327.0313" style="stroke:#181818;stroke-width:1.0;"/><line style="stroke:#181818;stroke-width:1.0;" x1="159.5" x2="622" y1="327.0313" y2="327.0313"/><text fill="#000000" font-family="sans-serif" font-size="13" lengthAdjust="spacing" textLength="128" x="171.5" y="322.1748">registerEntity(SABR1)</text><polygon fill="#181818" points="611,358.3828,621,358.3828,611,362.3828" style="stroke:#181818;stroke-width:1.0;"/><line style="stroke:#181818;stroke-width:1.0;stroke-dasharray:2.0,2.0;" x1="154.5" x2="622" y1="357.3828" y2="357.3828"/><text fill="#000000" font-family="sans-serif" font-size="13" lengthAdjust="spacing" textLength="57" x="161.5" y="352.5264">deviceUID</text><line style="stroke:#181818;stroke-width:1.0;" x1="623" x2="665" y1="387.7344" y2="387.7344"/><line style="stroke:#181818;stroke-width:1.0;" x1="665" x2="665" y1="387.7344" y2="400.7344"/><line style="stroke:#181818;stroke-width:1.0;" x1="624" x2="665" y1="400.7344" y2="400.7344"/><polygon fill="#181818" points="634,396.7344,624,400.7344,634,404.7344,630,400.7344" style="stroke:#181818;stroke-width:1.0;"/><text fill="#000000" font-family="sans-serif" font-size="13" lengthAdjust="spacing" textLength="182" x="630" y="382.8779">createUniqueAuthenticationKey</text><polygon fill="#181818" points="165.5,432.0859,155.5,432.0859,165.5,436.0859" style="stroke:#181818;stroke-width:1.0;"/><line style="stroke:#181818;stroke-width:1.0;" x1="154.5" x2="622" y1="431.0859" y2="431.0859"/><text fill="#000000" font-family="sans-serif" font-size="13" lengthAdjust="spacing" textLength="50" x="171.5" y="426.2295">provision</text><rect fill="#EEEEEE" height="3" style="stroke:#EEEEEE;stroke-width:1.0;" width="1404.5" x="0" y="460.2617"/><line style="stroke:#000000;stroke-width:1.0;" x1="0" x2="1404.5" y1="460.2617" y2="460.2617"/><line style="stroke:#000000;stroke-width:1.0;" x1="0" x2="1404.5" y1="463.2617" y2="463.2617"/><rect fill="#EEEEEE" height="24.3516" style="stroke:#000000;stroke-width:2.0;" width="158" x="623.25" y="449.0859"/><text fill="#000000" font-family="sans-serif" font-size="13" font-weight="bold" lengthAdjust="spacing" textLength="140" x="629.25" y="466.5811">Authenticate to Pulsar</text><polygon fill="#181818" points="165.5,501.7891,155.5,505.7891,165.5,509.7891,161.5,505.7891" style="stroke:#181818;stroke-width:1.0;"/><line style="stroke:#181818;stroke-width:1.0;" x1="159.5" x2="622" y1="505.7891" y2="505.7891"/><text fill="#000000" font-family="sans-serif" font-size="13" lengthAdjust="spacing" textLength="71" x="171.5" y="500.9326">authenticate</text><polygon fill="#181818" points="611,537.1406,621,537.1406,611,541.1406" style="stroke:#181818;stroke-width:1.0;"/><line style="stroke:#181818;stroke-width:1.0;stroke-dasharray:2.0,2.0;" x1="154.5" x2="622" y1="536.1406" y2="536.1406"/><text fill="#000000" font-family="sans-serif" font-size="13" lengthAdjust="spacing" textLength="26" x="161.5" y="531.2842">JWT</text><polygon fill="#181818" points="1299.5,562.4922,1309.5,566.4922,1299.5,570.4922,1303.5,566.4922" style="stroke:#181818;stroke-width:1.0;"/><line style="stroke:#181818;stroke-width:1.0;" x1="623" x2="1305.5" y1="566.4922" y2="566.4922"/><text fill="#000000" font-family="sans-serif" font-size="13" lengthAdjust="spacing" textLength="105" x="630" y="561.6357">authenticate(JWT)</text><polygon fill="#181818" points="165.5,592.8438,155.5,596.8438,165.5,600.8438,161.5,596.8438" style="stroke:#181818;stroke-width:1.0;"/><line style="stroke:#181818;stroke-width:1.0;" x1="159.5" x2="1310.5" y1="596.8438" y2="596.8438"/><text fill="#000000" font-family="sans-serif" font-size="13" lengthAdjust="spacing" textLength="77" x="171.5" y="591.9873">validate(JWT)</text><rect fill="#EEEEEE" height="3" style="stroke:#EEEEEE;stroke-width:1.0;" width="1404.5" x="0" y="626.0195"/><line style="stroke:#000000;stroke-width:1.0;" x1="0" x2="1404.5" y1="626.0195" y2="626.0195"/><line style="stroke:#000000;stroke-width:1.0;" x1="0" x2="1404.5" y1="629.0195" y2="629.0195"/><rect fill="#EEEEEE" height="24.3516" style="stroke:#000000;stroke-width:2.0;" width="98" x="653.25" y="614.8438"/><text fill="#000000" font-family="sans-serif" font-size="13" font-weight="bold" lengthAdjust="spacing" textLength="80" x="659.25" y="632.3389">Encrypt Data</text><polygon fill="#181818" points="165.5,667.5469,155.5,671.5469,165.5,675.5469,161.5,671.5469" style="stroke:#181818;stroke-width:1.0;"/><line style="stroke:#181818;stroke-width:1.0;" x1="159.5" x2="622" y1="671.5469" y2="671.5469"/><text fill="#000000" font-family="sans-serif" font-size="13" lengthAdjust="spacing" textLength="334" x="171.5" y="666.6904">requestKeysDataStreamKeys(JWT,StreamID, timeRange)</text><line style="stroke:#181818;stroke-width:1.0;" x1="623" x2="665" y1="701.8984" y2="701.8984"/><line style="stroke:#181818;stroke-width:1.0;" x1="665" x2="665" y1="701.8984" y2="714.8984"/><line style="stroke:#181818;stroke-width:1.0;" x1="624" x2="665" y1="714.8984" y2="714.8984"/><polygon fill="#181818" points="634,710.8984,624,714.8984,634,718.8984,630,714.8984" style="stroke:#181818;stroke-width:1.0;"/><text fill="#000000" font-family="sans-serif" font-size="13" lengthAdjust="spacing" textLength="59" x="630" y="697.042">storeKeys</text><line style="stroke:#181818;stroke-width:1.0;" x1="623" x2="665" y1="745.25" y2="745.25"/><line style="stroke:#181818;stroke-width:1.0;" x1="665" x2="665" y1="745.25" y2="758.25"/><line style="stroke:#181818;stroke-width:1.0;" x1="624" x2="665" y1="758.25" y2="758.25"/><polygon fill="#181818" points="634,754.25,624,758.25,634,762.25,630,758.25" style="stroke:#181818;stroke-width:1.0;"/><text fill="#000000" font-family="sans-serif" font-size="13" lengthAdjust="spacing" textLength="394" x="630" y="740.3936">createEnvelopeKey Data encryption key, Key Encryption Key KeyID</text><polygon fill="#181818" points="634,784.6016,624,788.6016,634,792.6016,630,788.6016" style="stroke:#181818;stroke-width:1.0;"/><line style="stroke:#181818;stroke-width:1.0;" x1="628" x2="1373" y1="788.6016" y2="788.6016"/><text fill="#000000" font-family="sans-serif" font-size="13" lengthAdjust="spacing" textLength="70" x="640" y="783.7451">encryptData</text><polygon fill="#181818" points="634,814.9531,624,818.9531,634,822.9531,630,818.9531" style="stroke:#181818;stroke-width:1.0;"/><line style="stroke:#181818;stroke-width:1.0;" x1="628" x2="1373" y1="818.9531" y2="818.9531"/><text fill="#000000" font-family="sans-serif" font-size="13" lengthAdjust="spacing" textLength="249" x="640" y="814.0967">CreateNewMessage(encryptedData, keyID)</text><line style="stroke:#181818;stroke-width:1.0;" x1="623" x2="665" y1="849.3047" y2="849.3047"/><line style="stroke:#181818;stroke-width:1.0;" x1="665" x2="665" y1="849.3047" y2="862.3047"/><line style="stroke:#181818;stroke-width:1.0;" x1="624" x2="665" y1="862.3047" y2="862.3047"/><polygon fill="#181818" points="634,858.3047,624,862.3047,634,866.3047,630,862.3047" style="stroke:#181818;stroke-width:1.0;"/><text fill="#000000" font-family="sans-serif" font-size="13" lengthAdjust="spacing" textLength="99" x="630" y="844.4482">encryptData(key)</text><polygon fill="#181818" points="1299.5,893.6563,1309.5,893.6563,1299.5,897.6563" style="stroke:#181818;stroke-width:1.0;"/><line style="stroke:#181818;stroke-width:1.0;" x1="623" x2="1310.5" y1="892.6563" y2="892.6563"/><text fill="#000000" font-family="sans-serif" font-size="13" lengthAdjust="spacing" textLength="177" x="630" y="887.7998">publish(JWT, message, keyID)</text><rect fill="#EEEEEE" height="3" style="stroke:#EEEEEE;stroke-width:1.0;" width="1404.5" x="0" y="921.832"/><line style="stroke:#000000;stroke-width:1.0;" x1="0" x2="1404.5" y1="921.832" y2="921.832"/><line style="stroke:#000000;stroke-width:1.0;" x1="0" x2="1404.5" y1="924.832" y2="924.832"/><rect fill="#EEEEEE" height="24.3516" style="stroke:#000000;stroke-width:2.0;" width="99" x="652.75" y="910.6563"/><text fill="#000000" font-family="sans-serif" font-size="13" font-weight="bold" lengthAdjust="spacing" textLength="81" x="658.75" y="928.1514">Decrypt Data</text><polygon fill="#181818" points="1299.5,968.3594,1309.5,968.3594,1299.5,972.3594" style="stroke:#181818;stroke-width:1.0;"/><line style="stroke:#181818;stroke-width:1.0;" x1="1031" x2="1310.5" y1="967.3594" y2="967.3594"/><text fill="#000000" font-family="sans-serif" font-size="13" lengthAdjust="spacing" textLength="172" x="1038" y="962.5029">consume(JWT,DataStreamID)</text><line style="stroke:#181818;stroke-width:1.0;" x1="1031" x2="1073" y1="997.7109" y2="997.7109"/><line style="stroke:#181818;stroke-width:1.0;" x1="1073" x2="1073" y1="997.7109" y2="1010.7109"/><line style="stroke:#181818;stroke-width:1.0;" x1="1032" x2="1073" y1="1010.7109" y2="1010.7109"/><polygon fill="#181818" points="1042,1006.7109,1032,1010.7109,1042,1014.7109,1038,1010.7109" style="stroke:#181818;stroke-width:1.0;"/><text fill="#000000" font-family="sans-serif" font-size="13" lengthAdjust="spacing" textLength="61" x="1038" y="992.8545">haveKeyID</text><path d="M84,1025.7109 L145,1025.7109 L145,1034.0625 L135,1044.0625 L84,1044.0625 L84,1025.7109 " fill="#EEEEEE" style="stroke:#000000;stroke-width:1.5;"/><rect fill="none" height="92.0547" style="stroke:#000000;stroke-width:1.5;" width="1025" x="84" y="1025.7109"/><text fill="#000000" font-family="sans-serif" font-size="13" font-weight="bold" lengthAdjust="spacing" textLength="16" x="99" y="1040.2061">alt</text><text fill="#000000" font-family="sans-serif" font-size="11" font-weight="bold" lengthAdjust="spacing" textLength="95" x="160" y="1039.1299">[do not have key]</text><polygon fill="#181818" points="165.5,1062.4141,155.5,1066.4141,165.5,1070.4141,161.5,1066.4141" style="stroke:#181818;stroke-width:1.0;"/><line style="stroke:#181818;stroke-width:1.0;" x1="159.5" x2="1030" y1="1066.4141" y2="1066.4141"/><text fill="#000000" font-family="sans-serif" font-size="13" lengthAdjust="spacing" textLength="313" x="171.5" y="1061.5576">getKeysDataStreamKeys(JWT, StreamID, timeRange)</text><line style="stroke:#181818;stroke-width:1.0;" x1="1031" x2="1073" y1="1096.7656" y2="1096.7656"/><line style="stroke:#181818;stroke-width:1.0;" x1="1073" x2="1073" y1="1096.7656" y2="1109.7656"/><line style="stroke:#181818;stroke-width:1.0;" x1="1032" x2="1073" y1="1109.7656" y2="1109.7656"/><polygon fill="#181818" points="1042,1105.7656,1032,1109.7656,1042,1113.7656,1038,1109.7656" style="stroke:#181818;stroke-width:1.0;"/><text fill="#000000" font-family="sans-serif" font-size="13" lengthAdjust="spacing" textLength="59" x="1038" y="1091.9092">storeKeys</text><line style="stroke:#181818;stroke-width:1.0;" x1="1031" x2="1073" y1="1147.1172" y2="1147.1172"/><line style="stroke:#181818;stroke-width:1.0;" x1="1073" x2="1073" y1="1147.1172" y2="1160.1172"/><line style="stroke:#181818;stroke-width:1.0;" x1="1032" x2="1073" y1="1160.1172" y2="1160.1172"/><polygon fill="#181818" points="1042,1156.1172,1032,1160.1172,1042,1164.1172,1038,1160.1172" style="stroke:#181818;stroke-width:1.0;"/><text fill="#000000" font-family="sans-serif" font-size="13" lengthAdjust="spacing" textLength="72" x="1038" y="1142.2607">decrypt(key)</text><!--SRC=[ZLHDZzem4BtxLupW0YlGxd94ej92ED2ATiLsjMUJp0QBOBksavP_tt6-0u7sG8HdthnvyyQ9viQ9K6Wk7Gm2p31H6is0wNRy3SFK27VUSibZoi9G2tdiOgZsXxRmAZGcGk80k8KoDdnwulppiujVSStt8Y5Mg6cfPBM5OIBYWuiDehoGyRBSFG_kvsTtyW5t_CqPvAVd_q9TSB7Q7fX-gMQRmp8LIUHRCnuwaN67POwL40BJL7FOU-0e7sBCUE8W_mkHGWjIES0_mZhRiAosZEgeki0zF117IBeSCfHHbUkkXY0nkXt6H6Mu4qgk34QswjhccuDrok0rDlJFyJt-fLBEr-XlUExZfF1etyAC6IlolOGcLu1cBHt5AwcNkEdqiMuIOIP2VDy4BTeoLHZqBiMl55zITq0Y3VFXlDOI_dYfOWxQg4nOWZ6sM42h4i4fU4qJomqi5dS7uQsgk_g_VlniU4hkRlc886DMfdgRPJmHKOtqejSoD6Vjm5_WVqarIFvOHvxOvhxxawUR5CTDC04dJhZZCiRnjTNLgksjBQnbyRuGfX25XK9o6Ovude1Fh9kOFzAlN6kRhopq95UvLTxhE_xUehKqtgW4O-JX4zzf4_J8Rt6EZlwErfUZteXEzucmXzmJE1NqDQ6tFC0UosSTZb19cvxoDKqQgoj5iqhHZA07dc4nl_ywH2h_AlYWRzc2NzvTUYDlB19kRhBJkDca_x1SfQDYoiAblm00]--></g></svg>