<?xml version="1.0" encoding="UTF-8" standalone="no"?><svg xmlns="http://www.w3.org/2000/svg" xmlns:xlink="http://www.w3.org/1999/xlink" contentScriptType="application/ecmascript" contentStyleType="text/css" height="530px" preserveAspectRatio="none" style="width:284px;height:530px;" version="1.1" viewBox="0 0 284 530" width="284px" zoomAndPan="magnify"><defs><filter height="300%" id="f1ljbwjpx2z1fm" width="300%" x="-1" y="-1"><feGaussianBlur result="blurOut" stdDeviation="2.0"/><feColorMatrix in="blurOut" result="blurOut2" type="matrix" values="0 0 0 0 0 0 0 0 0 0 0 0 0 0 0 0 0 0 .4 0"/><feOffset dx="4.0" dy="4.0" in="blurOut2" result="blurOut3"/><feBlend in="SourceGraphic" in2="blurOut3" mode="normal"/></filter></defs><g><ellipse cx="141.5" cy="20" fill="#000000" filter="url(#f1ljbwjpx2z1fm)" rx="10" ry="10" style="stroke: none; stroke-width: 1.0;"/><rect fill="#000000" filter="url(#f1ljbwjpx2z1fm)" height="6" rx="2.5" ry="2.5" style="stroke: #000000; stroke-width: 1.0;" width="263" x="10" y="50"/><rect fill="#FEFECE" filter="url(#f1ljbwjpx2z1fm)" height="35.0938" rx="12.5" ry="12.5" style="stroke: #A80036; stroke-width: 1.5;" width="107" x="32.5" y="76"/><text fill="#000000" font-family="sans-serif" font-size="12" lengthAdjust="spacingAndGlyphs" textLength="87" x="42.5" y="98.457">Attest Hardware</text><rect fill="#FEFECE" filter="url(#f1ljbwjpx2z1fm)" height="35.0938" rx="12.5" ry="12.5" style="stroke: #A80036; stroke-width: 1.5;" width="128" x="22" y="146.0938"/><text fill="#000000" font-family="sans-serif" font-size="12" lengthAdjust="spacingAndGlyphs" textLength="108" x="32" y="168.5508">Provision Hardware</text><rect fill="#FEFECE" filter="url(#f1ljbwjpx2z1fm)" height="35.0938" rx="12.5" ry="12.5" style="stroke: #A80036; stroke-width: 1.5;" width="83" x="178" y="111.0469"/><text fill="#000000" font-family="sans-serif" font-size="12" lengthAdjust="spacingAndGlyphs" textLength="63" x="188" y="133.5039">Build SABR</text><rect fill="#000000" filter="url(#f1ljbwjpx2z1fm)" height="6" rx="2.5" ry="2.5" style="stroke: #000000; stroke-width: 1.0;" width="263" x="10" y="201.1875"/><rect fill="#FEFECE" filter="url(#f1ljbwjpx2z1fm)" height="35.0938" rx="12.5" ry="12.5" style="stroke: #A80036; stroke-width: 1.5;" width="93" x="95" y="227.1875"/><text fill="#000000" font-family="sans-serif" font-size="12" lengthAdjust="spacingAndGlyphs" textLength="73" x="105" y="249.6445">Deploy SABR</text><rect fill="#FEFECE" filter="url(#f1ljbwjpx2z1fm)" height="35.0938" rx="12.5" ry="12.5" style="stroke: #A80036; stroke-width: 1.5;" width="102" x="90.5" y="282.2813"/><text fill="#000000" font-family="sans-serif" font-size="12" lengthAdjust="spacingAndGlyphs" textLength="82" x="100.5" y="304.7383">Register SABR</text><rect fill="#FEFECE" filter="url(#f1ljbwjpx2z1fm)" height="35.0938" rx="12.5" ry="12.5" style="stroke: #A80036; stroke-width: 1.5;" width="106" x="88.5" y="337.375"/><text fill="#000000" font-family="sans-serif" font-size="12" lengthAdjust="spacingAndGlyphs" textLength="86" x="98.5" y="359.832">Provision SABR</text><rect fill="#000000" filter="url(#f1ljbwjpx2z1fm)" height="6" rx="2.5" ry="2.5" style="stroke: #000000; stroke-width: 1.0;" width="235" x="24" y="392.4688"/><rect fill="#FEFECE" filter="url(#f1ljbwjpx2z1fm)" height="35.0938" rx="12.5" ry="12.5" style="stroke: #A80036; stroke-width: 1.5;" width="89" x="38" y="418.4688"/><text fill="#000000" font-family="sans-serif" font-size="12" lengthAdjust="spacingAndGlyphs" textLength="69" x="48" y="440.9258">Encrypt Data</text><rect fill="#FEFECE" filter="url(#f1ljbwjpx2z1fm)" height="35.0938" rx="12.5" ry="12.5" style="stroke: #A80036; stroke-width: 1.5;" width="90" x="155" y="418.4688"/><text fill="#000000" font-family="sans-serif" font-size="12" lengthAdjust="spacingAndGlyphs" textLength="70" x="165" y="440.9258">Decrypt Data</text><rect fill="#000000" filter="url(#f1ljbwjpx2z1fm)" height="6" rx="2.5" ry="2.5" style="stroke: #000000; stroke-width: 1.0;" width="235" x="24" y="473.5625"/><ellipse cx="141.5" cy="509.5625" fill="#FFFFFF" filter="url(#f1ljbwjpx2z1fm)" rx="10" ry="10" style="stroke: #000000; stroke-width: 1.5;"/><line style="stroke: #000000; stroke-width: 2.5;" x1="135.3128" x2="147.6872" y1="503.3753" y2="515.7497"/><line style="stroke: #000000; stroke-width: 2.5;" x1="147.6872" x2="135.3128" y1="503.3753" y2="515.7497"/><line style="stroke: #A80036; stroke-width: 1.5;" x1="86" x2="86" y1="111.0938" y2="146.0938"/><polygon fill="#A80036" points="82,136.0938,86,146.0938,90,136.0938,86,140.0938" style="stroke: #A80036; stroke-width: 1.0;"/><line style="stroke: #A80036; stroke-width: 1.5;" x1="86" x2="86" y1="56" y2="76"/><polygon fill="#A80036" points="82,66,86,76,90,66,86,70" style="stroke: #A80036; stroke-width: 1.0;"/><line style="stroke: #A80036; stroke-width: 1.5;" x1="219.5" x2="219.5" y1="56" y2="111.0469"/><polygon fill="#A80036" points="215.5,101.0469,219.5,111.0469,223.5,101.0469,219.5,105.0469" style="stroke: #A80036; stroke-width: 1.0;"/><line style="stroke: #A80036; stroke-width: 1.5;" x1="86" x2="86" y1="181.1875" y2="201.1875"/><polygon fill="#A80036" points="82,191.1875,86,201.1875,90,191.1875,86,195.1875" style="stroke: #A80036; stroke-width: 1.0;"/><line style="stroke: #A80036; stroke-width: 1.5;" x1="219.5" x2="219.5" y1="146.1406" y2="201.1875"/><polygon fill="#A80036" points="215.5,191.1875,219.5,201.1875,223.5,191.1875,219.5,195.1875" style="stroke: #A80036; stroke-width: 1.0;"/><line style="stroke: #A80036; stroke-width: 1.5;" x1="141.5" x2="141.5" y1="30" y2="50"/><polygon fill="#A80036" points="137.5,40,141.5,50,145.5,40,141.5,44" style="stroke: #A80036; stroke-width: 1.0;"/><line style="stroke: #A80036; stroke-width: 1.5;" x1="141.5" x2="141.5" y1="207.1875" y2="227.1875"/><polygon fill="#A80036" points="137.5,217.1875,141.5,227.1875,145.5,217.1875,141.5,221.1875" style="stroke: #A80036; stroke-width: 1.0;"/><line style="stroke: #A80036; stroke-width: 1.5;" x1="141.5" x2="141.5" y1="262.2813" y2="282.2813"/><polygon fill="#A80036" points="137.5,272.2813,141.5,282.2813,145.5,272.2813,141.5,276.2813" style="stroke: #A80036; stroke-width: 1.0;"/><line style="stroke: #A80036; stroke-width: 1.5;" x1="141.5" x2="141.5" y1="317.375" y2="337.375"/><polygon fill="#A80036" points="137.5,327.375,141.5,337.375,145.5,327.375,141.5,331.375" style="stroke: #A80036; stroke-width: 1.0;"/><line style="stroke: #A80036; stroke-width: 1.5;" x1="82.5" x2="82.5" y1="398.4688" y2="418.4688"/><polygon fill="#A80036" points="78.5,408.4688,82.5,418.4688,86.5,408.4688,82.5,412.4688" style="stroke: #A80036; stroke-width: 1.0;"/><line style="stroke: #A80036; stroke-width: 1.5;" x1="200" x2="200" y1="398.4688" y2="418.4688"/><polygon fill="#A80036" points="196,408.4688,200,418.4688,204,408.4688,200,412.4688" style="stroke: #A80036; stroke-width: 1.0;"/><line style="stroke: #A80036; stroke-width: 1.5;" x1="82.5" x2="82.5" y1="453.5625" y2="473.5625"/><polygon fill="#A80036" points="78.5,463.5625,82.5,473.5625,86.5,463.5625,82.5,467.5625" style="stroke: #A80036; stroke-width: 1.0;"/><line style="stroke: #A80036; stroke-width: 1.5;" x1="200" x2="200" y1="453.5625" y2="473.5625"/><polygon fill="#A80036" points="196,463.5625,200,473.5625,204,463.5625,200,467.5625" style="stroke: #A80036; stroke-width: 1.0;"/><line style="stroke: #A80036; stroke-width: 1.5;" x1="141.5" x2="141.5" y1="372.4688" y2="392.4688"/><polygon fill="#A80036" points="137.5,382.4688,141.5,392.4688,145.5,382.4688,141.5,386.4688" style="stroke: #A80036; stroke-width: 1.0;"/><line style="stroke: #A80036; stroke-width: 1.5;" x1="141.5" x2="141.5" y1="479.5625" y2="499.5625"/><polygon fill="#A80036" points="137.5,489.5625,141.5,499.5625,145.5,489.5625,141.5,493.5625" style="stroke: #A80036; stroke-width: 1.0;"/><!--
@startuml
start
fork
:Attest Hardware;
:Provision Hardware;
fork again
:Build SABR;
end fork
:Deploy SABR;
:Register SABR;
:Provision SABR;
fork
:Encrypt Data;
fork again
:Decrypt Data;
end fork
end
@enduml

PlantUML version 1.2019.05(Sat Apr 20 09:45:36 PDT 2019)
(GPL source distribution)
Java Runtime: Java(TM) SE Runtime Environment
JVM: Java HotSpot(TM) 64-Bit Server VM
Java Version: 17.0.7+8-LTS-224
Operating System: Windows 11
OS Version: 10.0
Default Encoding: Cp1252
Language: en
Country: US
--></g></svg>