<?xml version="1.0" encoding="us-ascii" standalone="no"?><svg xmlns="http://www.w3.org/2000/svg" xmlns:xlink="http://www.w3.org/1999/xlink" contentStyleType="text/css" height="530px" preserveAspectRatio="none" style="width:285px;height:530px;background:#FFFFFF;" version="1.1" viewBox="0 0 285 530" width="285px" zoomAndPan="magnify"><defs/><g><ellipse cx="142.5" cy="20" fill="#222222" rx="10" ry="10" style="stroke:#222222;stroke-width:1.0;"/><rect fill="#555555" height="6" rx="2.5" ry="2.5" style="stroke:#555555;stroke-width:1.0;" width="263" x="11" y="50"/><rect fill="#F1F1F1" height="35.0938" rx="12.5" ry="12.5" style="stroke:#181818;stroke-width:0.5;" width="107" x="33.5" y="76"/><text fill="#000000" font-family="sans-serif" font-size="12" lengthAdjust="spacing" textLength="87" x="43.5" y="98.457">Attest Hardware</text><rect fill="#F1F1F1" height="35.0938" rx="12.5" ry="12.5" style="stroke:#181818;stroke-width:0.5;" width="128" x="23" y="146.0938"/><text fill="#000000" font-family="sans-serif" font-size="12" lengthAdjust="spacing" textLength="108" x="33" y="168.5508">Provision Hardware</text><rect fill="#F1F1F1" height="35.0938" rx="12.5" ry="12.5" style="stroke:#181818;stroke-width:0.5;" width="83" x="179" y="111.0469"/><text fill="#000000" font-family="sans-serif" font-size="12" lengthAdjust="spacing" textLength="63" x="189" y="133.5039">Build SABR</text><rect fill="#555555" height="6" rx="2.5" ry="2.5" style="stroke:#555555;stroke-width:1.0;" width="263" x="11" y="201.1875"/><rect fill="#F1F1F1" height="35.0938" rx="12.5" ry="12.5" style="stroke:#181818;stroke-width:0.5;" width="93" x="96" y="227.1875"/><text fill="#000000" font-family="sans-serif" font-size="12" lengthAdjust="spacing" textLength="73" x="106" y="249.6445">Deploy SABR</text><rect fill="#F1F1F1" height="35.0938" rx="12.5" ry="12.5" style="stroke:#181818;stroke-width:0.5;" width="102" x="91.5" y="282.2813"/><text fill="#000000" font-family="sans-serif" font-size="12" lengthAdjust="spacing" textLength="82" x="101.5" y="304.7383">Register SABR</text><rect fill="#F1F1F1" height="35.0938" rx="12.5" ry="12.5" style="stroke:#181818;stroke-width:0.5;" width="106" x="89.5" y="337.375"/><text fill="#000000" font-family="sans-serif" font-size="12" lengthAdjust="spacing" textLength="86" x="99.5" y="359.832">Provision SABR</text><rect fill="#555555" height="6" rx="2.5" ry="2.5" style="stroke:#555555;stroke-width:1.0;" width="235" x="25" y="392.4688"/><rect fill="#F1F1F1" height="35.0938" rx="12.5" ry="12.5" style="stroke:#181818;stroke-width:0.5;" width="89" x="39" y="418.4688"/><text fill="#000000" font-family="sans-serif" font-size="12" lengthAdjust="spacing" textLength="69" x="49" y="440.9258">Encrypt Data</text><rect fill="#F1F1F1" height="35.0938" rx="12.5" ry="12.5" style="stroke:#181818;stroke-width:0.5;" width="90" x="156" y="418.4688"/><text fill="#000000" font-family="sans-serif" font-size="12" lengthAdjust="spacing" textLength="70" x="166" y="440.9258">Decrypt Data</text><rect fill="#555555" height="6" rx="2.5" ry="2.5" style="stroke:#555555;stroke-width:1.0;" width="235" x="25" y="473.5625"/><ellipse cx="142.5" cy="509.5625" fill="none" rx="10" ry="10" style="stroke:#222222;stroke-width:1.5;"/><line style="stroke:#222222;stroke-width:2.5;" x1="136.3128" x2="148.6872" y1="503.3753" y2="515.7497"/><line style="stroke:#222222;stroke-width:2.5;" x1="148.6872" x2="136.3128" y1="503.3753" y2="515.7497"/><line style="stroke:#181818;stroke-width:1.0;" x1="87" x2="87" y1="111.0938" y2="146.0938"/><polygon fill="#181818" points="83,136.0938,87,146.0938,91,136.0938,87,140.0938" style="stroke:#181818;stroke-width:1.0;"/><line style="stroke:#181818;stroke-width:1.0;" x1="87" x2="87" y1="56" y2="76"/><polygon fill="#181818" points="83,66,87,76,91,66,87,70" style="stroke:#181818;stroke-width:1.0;"/><line style="stroke:#181818;stroke-width:1.0;" x1="220.5" x2="220.5" y1="56" y2="111.0469"/><polygon fill="#181818" points="216.5,101.0469,220.5,111.0469,224.5,101.0469,220.5,105.0469" style="stroke:#181818;stroke-width:1.0;"/><line style="stroke:#181818;stroke-width:1.0;" x1="87" x2="87" y1="181.1875" y2="201.1875"/><polygon fill="#181818" points="83,191.1875,87,201.1875,91,191.1875,87,195.1875" style="stroke:#181818;stroke-width:1.0;"/><line style="stroke:#181818;stroke-width:1.0;" x1="220.5" x2="220.5" y1="146.1406" y2="201.1875"/><polygon fill="#181818" points="216.5,191.1875,220.5,201.1875,224.5,191.1875,220.5,195.1875" style="stroke:#181818;stroke-width:1.0;"/><line style="stroke:#181818;stroke-width:1.0;" x1="142.5" x2="142.5" y1="30" y2="50"/><polygon fill="#181818" points="138.5,40,142.5,50,146.5,40,142.5,44" style="stroke:#181818;stroke-width:1.0;"/><line style="stroke:#181818;stroke-width:1.0;" x1="142.5" x2="142.5" y1="207.1875" y2="227.1875"/><polygon fill="#181818" points="138.5,217.1875,142.5,227.1875,146.5,217.1875,142.5,221.1875" style="stroke:#181818;stroke-width:1.0;"/><line style="stroke:#181818;stroke-width:1.0;" x1="142.5" x2="142.5" y1="262.2813" y2="282.2813"/><polygon fill="#181818" points="138.5,272.2813,142.5,282.2813,146.5,272.2813,142.5,276.2813" style="stroke:#181818;stroke-width:1.0;"/><line style="stroke:#181818;stroke-width:1.0;" x1="142.5" x2="142.5" y1="317.375" y2="337.375"/><polygon fill="#181818" points="138.5,327.375,142.5,337.375,146.5,327.375,142.5,331.375" style="stroke:#181818;stroke-width:1.0;"/><line style="stroke:#181818;stroke-width:1.0;" x1="83.5" x2="83.5" y1="398.4688" y2="418.4688"/><polygon fill="#181818" points="79.5,408.4688,83.5,418.4688,87.5,408.4688,83.5,412.4688" style="stroke:#181818;stroke-width:1.0;"/><line style="stroke:#181818;stroke-width:1.0;" x1="201" x2="201" y1="398.4688" y2="418.4688"/><polygon fill="#181818" points="197,408.4688,201,418.4688,205,408.4688,201,412.4688" style="stroke:#181818;stroke-width:1.0;"/><line style="stroke:#181818;stroke-width:1.0;" x1="83.5" x2="83.5" y1="453.5625" y2="473.5625"/><polygon fill="#181818" points="79.5,463.5625,83.5,473.5625,87.5,463.5625,83.5,467.5625" style="stroke:#181818;stroke-width:1.0;"/><line style="stroke:#181818;stroke-width:1.0;" x1="201" x2="201" y1="453.5625" y2="473.5625"/><polygon fill="#181818" points="197,463.5625,201,473.5625,205,463.5625,201,467.5625" style="stroke:#181818;stroke-width:1.0;"/><line style="stroke:#181818;stroke-width:1.0;" x1="142.5" x2="142.5" y1="372.4688" y2="392.4688"/><polygon fill="#181818" points="138.5,382.4688,142.5,392.4688,146.5,382.4688,142.5,386.4688" style="stroke:#181818;stroke-width:1.0;"/><line style="stroke:#181818;stroke-width:1.0;" x1="142.5" x2="142.5" y1="479.5625" y2="499.5625"/><polygon fill="#181818" points="138.5,489.5625,142.5,499.5625,146.5,489.5625,142.5,493.5625" style="stroke:#181818;stroke-width:1.0;"/><!--SRC=[LOr13i8m30JlVeNVaPvQfH9755vW4LDPH4db651_3oXjAJVlx7gt6gd1hUWTN6_6rV146b-at84xQtbAbP8Fy9j5caWokE4XAUAb7q87d2Es7izpAikANU19gh5k-jVPGFiPyrMNsT2JqV-6vwEphtoEDm00]--></g></svg>