<?xml version="1.0" encoding="UTF-8" standalone="no"?><svg xmlns="http://www.w3.org/2000/svg" xmlns:xlink="http://www.w3.org/1999/xlink" contentScriptType="application/ecmascript" contentStyleType="text/css" height="791px" preserveAspectRatio="none" style="width:760px;height:791px;" version="1.1" viewBox="0 0 760 791" width="760px" zoomAndPan="magnify"><defs><filter height="300%" id="fk06e2nrgi0y9" width="300%" x="-1" y="-1"><feGaussianBlur result="blurOut" stdDeviation="2.0"/><feColorMatrix in="blurOut" result="blurOut2" type="matrix" values="0 0 0 0 0 0 0 0 0 0 0 0 0 0 0 0 0 0 .4 0"/><feOffset dx="4.0" dy="4.0" in="blurOut2" result="blurOut3"/><feBlend in="SourceGraphic" in2="blurOut3" mode="normal"/></filter></defs><g><!--cluster Security Aspect--><polygon fill="#FFC0CB" filter="url(#fk06e2nrgi0y9)" points="22,65,137,65,144,88.6094,738,88.6094,738,779,22,779,22,65" style="stroke: #000000; stroke-width: 1.5;"/><line style="stroke: #000000; stroke-width: 1.5;" x1="22" x2="144" y1="88.6094" y2="88.6094"/><text fill="#000000" font-family="sans-serif" font-size="14" font-weight="bold" lengthAdjust="spacingAndGlyphs" textLength="109" x="26" y="81.5332">Security Aspect</text><!--class SecurityKey--><rect fill="#FEFECE" filter="url(#fk06e2nrgi0y9)" height="117.1797" id="SecurityKey" style="stroke: #A80036; stroke-width: 1.5;" width="95" x="334.5" y="520"/><ellipse cx="349.5" cy="536" fill="#ADD1B2" rx="11" ry="11" style="stroke: #A80036; stroke-width: 1.0;"/><path d="M352.2656,531.875 Q352.4219,531.6563 352.6094,531.5469 Q352.7969,531.4375 353.0156,531.4375 Q353.3906,531.4375 353.625,531.6953 Q353.8594,531.9531 353.8594,532.5625 L353.8594,534.0156 Q353.8594,534.625 353.625,534.8906 Q353.3906,535.1563 353.0156,535.1563 Q352.6719,535.1563 352.4688,534.9531 Q352.2656,534.7656 352.1563,534.25 Q352.1094,533.8906 351.9219,533.7031 Q351.5938,533.3281 350.9844,533.1094 Q350.375,532.8906 349.75,532.8906 Q348.9844,532.8906 348.3516,533.2188 Q347.7188,533.5469 347.2266,534.2969 Q346.7344,535.0469 346.7344,536.0781 L346.7344,537.1719 Q346.7344,538.4063 347.625,539.2266 Q348.5156,540.0469 350.1094,540.0469 Q351.0469,540.0469 351.7031,539.7969 Q352.0938,539.6406 352.5156,539.2031 Q352.7813,538.9375 352.9297,538.8594 Q353.0781,538.7813 353.2813,538.7813 Q353.6094,538.7813 353.8672,539.0391 Q354.125,539.2969 354.125,539.6406 Q354.125,539.9844 353.7813,540.3906 Q353.2813,540.9688 352.4844,541.2969 Q351.4063,541.75 350.1094,541.75 Q348.5938,541.75 347.3906,541.125 Q346.4063,540.625 345.7188,539.5547 Q345.0313,538.4844 345.0313,537.2031 L345.0313,536.0469 Q345.0313,534.7188 345.6484,533.5703 Q346.2656,532.4219 347.3594,531.8047 Q348.4531,531.1875 349.6875,531.1875 Q350.4219,531.1875 351.0703,531.3516 Q351.7188,531.5156 352.2656,531.875 Z "/><text fill="#000000" font-family="sans-serif" font-size="12" lengthAdjust="spacingAndGlyphs" textLength="63" x="363.5" y="540.9102">SecurityKey</text><line style="stroke: #A80036; stroke-width: 1.5;" x1="335.5" x2="428.5" y1="552" y2="552"/><text fill="#000000" font-family="sans-serif" font-size="11" lengthAdjust="spacingAndGlyphs" textLength="56" x="340.5" y="567.4189">string name</text><text fill="#000000" font-family="sans-serif" font-size="11" lengthAdjust="spacingAndGlyphs" textLength="56" x="340.5" y="581.2549">string value</text><text fill="#000000" font-family="sans-serif" font-size="11" lengthAdjust="spacingAndGlyphs" textLength="38" x="340.5" y="595.0908">string iv</text><line style="stroke: #A80036; stroke-width: 1.5;" x1="335.5" x2="428.5" y1="601.5078" y2="601.5078"/><text fill="#000000" font-family="sans-serif" font-size="11" lengthAdjust="spacingAndGlyphs" textLength="70" x="340.5" y="616.9268">generateKey()</text><text fill="#000000" font-family="sans-serif" font-size="11" lengthAdjust="spacingAndGlyphs" textLength="69" x="340.5" y="630.7627">generatePair()</text><!--class Seed--><rect fill="#FEFECE" filter="url(#fk06e2nrgi0y9)" height="48" id="Seed" style="stroke: #A80036; stroke-width: 1.5;" width="61" x="495.5" y="373"/><ellipse cx="510.5" cy="389" fill="#ADD1B2" rx="11" ry="11" style="stroke: #A80036; stroke-width: 1.0;"/><path d="M513.2656,384.875 Q513.4219,384.6563 513.6094,384.5469 Q513.7969,384.4375 514.0156,384.4375 Q514.3906,384.4375 514.625,384.6953 Q514.8594,384.9531 514.8594,385.5625 L514.8594,387.0156 Q514.8594,387.625 514.625,387.8906 Q514.3906,388.1563 514.0156,388.1563 Q513.6719,388.1563 513.4688,387.9531 Q513.2656,387.7656 513.1563,387.25 Q513.1094,386.8906 512.9219,386.7031 Q512.5938,386.3281 511.9844,386.1094 Q511.375,385.8906 510.75,385.8906 Q509.9844,385.8906 509.3516,386.2188 Q508.7188,386.5469 508.2266,387.2969 Q507.7344,388.0469 507.7344,389.0781 L507.7344,390.1719 Q507.7344,391.4063 508.625,392.2266 Q509.5156,393.0469 511.1094,393.0469 Q512.0469,393.0469 512.7031,392.7969 Q513.0938,392.6406 513.5156,392.2031 Q513.7813,391.9375 513.9297,391.8594 Q514.0781,391.7813 514.2813,391.7813 Q514.6094,391.7813 514.8672,392.0391 Q515.125,392.2969 515.125,392.6406 Q515.125,392.9844 514.7813,393.3906 Q514.2813,393.9688 513.4844,394.2969 Q512.4063,394.75 511.1094,394.75 Q509.5938,394.75 508.3906,394.125 Q507.4063,393.625 506.7188,392.5547 Q506.0313,391.4844 506.0313,390.2031 L506.0313,389.0469 Q506.0313,387.7188 506.6484,386.5703 Q507.2656,385.4219 508.3594,384.8047 Q509.4531,384.1875 510.6875,384.1875 Q511.4219,384.1875 512.0703,384.3516 Q512.7188,384.5156 513.2656,384.875 Z "/><text fill="#000000" font-family="sans-serif" font-size="12" lengthAdjust="spacingAndGlyphs" textLength="29" x="524.5" y="393.9102">Seed</text><line style="stroke: #A80036; stroke-width: 1.5;" x1="496.5" x2="555.5" y1="405" y2="405"/><line style="stroke: #A80036; stroke-width: 1.5;" x1="496.5" x2="555.5" y1="413" y2="413"/><!--class WorkingEnclave--><rect fill="#FEFECE" filter="url(#fk06e2nrgi0y9)" height="61.8359" id="WorkingEnclave" style="stroke: #A80036; stroke-width: 1.5;" width="120" x="44" y="366"/><ellipse cx="59" cy="382" fill="#ADD1B2" rx="11" ry="11" style="stroke: #A80036; stroke-width: 1.0;"/><path d="M61.7656,377.875 Q61.9219,377.6563 62.1094,377.5469 Q62.2969,377.4375 62.5156,377.4375 Q62.8906,377.4375 63.125,377.6953 Q63.3594,377.9531 63.3594,378.5625 L63.3594,380.0156 Q63.3594,380.625 63.125,380.8906 Q62.8906,381.1563 62.5156,381.1563 Q62.1719,381.1563 61.9688,380.9531 Q61.7656,380.7656 61.6563,380.25 Q61.6094,379.8906 61.4219,379.7031 Q61.0938,379.3281 60.4844,379.1094 Q59.875,378.8906 59.25,378.8906 Q58.4844,378.8906 57.8516,379.2188 Q57.2188,379.5469 56.7266,380.2969 Q56.2344,381.0469 56.2344,382.0781 L56.2344,383.1719 Q56.2344,384.4063 57.125,385.2266 Q58.0156,386.0469 59.6094,386.0469 Q60.5469,386.0469 61.2031,385.7969 Q61.5938,385.6406 62.0156,385.2031 Q62.2813,384.9375 62.4297,384.8594 Q62.5781,384.7813 62.7813,384.7813 Q63.1094,384.7813 63.3672,385.0391 Q63.625,385.2969 63.625,385.6406 Q63.625,385.9844 63.2813,386.3906 Q62.7813,386.9688 61.9844,387.2969 Q60.9063,387.75 59.6094,387.75 Q58.0938,387.75 56.8906,387.125 Q55.9063,386.625 55.2188,385.5547 Q54.5313,384.4844 54.5313,383.2031 L54.5313,382.0469 Q54.5313,380.7188 55.1484,379.5703 Q55.7656,378.4219 56.8594,377.8047 Q57.9531,377.1875 59.1875,377.1875 Q59.9219,377.1875 60.5703,377.3516 Q61.2188,377.5156 61.7656,377.875 Z "/><text fill="#000000" font-family="sans-serif" font-size="12" lengthAdjust="spacingAndGlyphs" textLength="88" x="73" y="386.9102">WorkingEnclave</text><line style="stroke: #A80036; stroke-width: 1.5;" x1="45" x2="163" y1="398" y2="398"/><text fill="#000000" font-family="sans-serif" font-size="11" lengthAdjust="spacingAndGlyphs" textLength="78" x="50" y="413.4189">string deviceUID</text><line style="stroke: #A80036; stroke-width: 1.5;" x1="45" x2="163" y1="419.8359" y2="419.8359"/><!--class EncryptedVault--><rect fill="#FEFECE" filter="url(#fk06e2nrgi0y9)" height="75.6719" id="EncryptedVault" style="stroke: #A80036; stroke-width: 1.5;" width="113" x="199.5" y="359"/><ellipse cx="214.5" cy="375" fill="#ADD1B2" rx="11" ry="11" style="stroke: #A80036; stroke-width: 1.0;"/><path d="M217.2656,370.875 Q217.4219,370.6563 217.6094,370.5469 Q217.7969,370.4375 218.0156,370.4375 Q218.3906,370.4375 218.625,370.6953 Q218.8594,370.9531 218.8594,371.5625 L218.8594,373.0156 Q218.8594,373.625 218.625,373.8906 Q218.3906,374.1563 218.0156,374.1563 Q217.6719,374.1563 217.4688,373.9531 Q217.2656,373.7656 217.1563,373.25 Q217.1094,372.8906 216.9219,372.7031 Q216.5938,372.3281 215.9844,372.1094 Q215.375,371.8906 214.75,371.8906 Q213.9844,371.8906 213.3516,372.2188 Q212.7188,372.5469 212.2266,373.2969 Q211.7344,374.0469 211.7344,375.0781 L211.7344,376.1719 Q211.7344,377.4063 212.625,378.2266 Q213.5156,379.0469 215.1094,379.0469 Q216.0469,379.0469 216.7031,378.7969 Q217.0938,378.6406 217.5156,378.2031 Q217.7813,377.9375 217.9297,377.8594 Q218.0781,377.7813 218.2813,377.7813 Q218.6094,377.7813 218.8672,378.0391 Q219.125,378.2969 219.125,378.6406 Q219.125,378.9844 218.7813,379.3906 Q218.2813,379.9688 217.4844,380.2969 Q216.4063,380.75 215.1094,380.75 Q213.5938,380.75 212.3906,380.125 Q211.4063,379.625 210.7188,378.5547 Q210.0313,377.4844 210.0313,376.2031 L210.0313,375.0469 Q210.0313,373.7188 210.6484,372.5703 Q211.2656,371.4219 212.3594,370.8047 Q213.4531,370.1875 214.6875,370.1875 Q215.4219,370.1875 216.0703,370.3516 Q216.7188,370.5156 217.2656,370.875 Z "/><text fill="#000000" font-family="sans-serif" font-size="12" lengthAdjust="spacingAndGlyphs" textLength="81" x="228.5" y="379.9102">EncryptedVault</text><line style="stroke: #A80036; stroke-width: 1.5;" x1="200.5" x2="311.5" y1="391" y2="391"/><text fill="#000000" font-family="sans-serif" font-size="11" lengthAdjust="spacingAndGlyphs" textLength="101" x="205.5" y="406.4189">string encryptedDate</text><line style="stroke: #A80036; stroke-width: 1.5;" x1="200.5" x2="311.5" y1="412.8359" y2="412.8359"/><text fill="#000000" font-family="sans-serif" font-size="11" lengthAdjust="spacingAndGlyphs" textLength="45" x="205.5" y="428.2549">encrypt()</text><!--class Credential--><rect fill="#FEFECE" filter="url(#fk06e2nrgi0y9)" height="61.8359" id="Credential" style="stroke: #A80036; stroke-width: 1.5;" width="89" x="577.5" y="547.5"/><ellipse cx="592.5" cy="563.5" fill="#ADD1B2" rx="11" ry="11" style="stroke: #A80036; stroke-width: 1.0;"/><path d="M595.2656,559.375 Q595.4219,559.1563 595.6094,559.0469 Q595.7969,558.9375 596.0156,558.9375 Q596.3906,558.9375 596.625,559.1953 Q596.8594,559.4531 596.8594,560.0625 L596.8594,561.5156 Q596.8594,562.125 596.625,562.3906 Q596.3906,562.6563 596.0156,562.6563 Q595.6719,562.6563 595.4688,562.4531 Q595.2656,562.2656 595.1563,561.75 Q595.1094,561.3906 594.9219,561.2031 Q594.5938,560.8281 593.9844,560.6094 Q593.375,560.3906 592.75,560.3906 Q591.9844,560.3906 591.3516,560.7188 Q590.7188,561.0469 590.2266,561.7969 Q589.7344,562.5469 589.7344,563.5781 L589.7344,564.6719 Q589.7344,565.9063 590.625,566.7266 Q591.5156,567.5469 593.1094,567.5469 Q594.0469,567.5469 594.7031,567.2969 Q595.0938,567.1406 595.5156,566.7031 Q595.7813,566.4375 595.9297,566.3594 Q596.0781,566.2813 596.2813,566.2813 Q596.6094,566.2813 596.8672,566.5391 Q597.125,566.7969 597.125,567.1406 Q597.125,567.4844 596.7813,567.8906 Q596.2813,568.4688 595.4844,568.7969 Q594.4063,569.25 593.1094,569.25 Q591.5938,569.25 590.3906,568.625 Q589.4063,568.125 588.7188,567.0547 Q588.0313,565.9844 588.0313,564.7031 L588.0313,563.5469 Q588.0313,562.2188 588.6484,561.0703 Q589.2656,559.9219 590.3594,559.3047 Q591.4531,558.6875 592.6875,558.6875 Q593.4219,558.6875 594.0703,558.8516 Q594.7188,559.0156 595.2656,559.375 Z "/><text fill="#000000" font-family="sans-serif" font-size="12" lengthAdjust="spacingAndGlyphs" textLength="57" x="606.5" y="568.4102">Credential</text><line style="stroke: #A80036; stroke-width: 1.5;" x1="578.5" x2="665.5" y1="579.5" y2="579.5"/><text fill="#000000" font-family="sans-serif" font-size="11" lengthAdjust="spacingAndGlyphs" textLength="58" x="583.5" y="594.9189">string creds</text><line style="stroke: #A80036; stroke-width: 1.5;" x1="578.5" x2="665.5" y1="601.3359" y2="601.3359"/><!--class JWT--><rect fill="#FEFECE" filter="url(#fk06e2nrgi0y9)" height="61.8359" id="JWT" style="stroke: #A80036; stroke-width: 1.5;" width="64" x="45" y="547.5"/><ellipse cx="63.6" cy="563.5" fill="#ADD1B2" rx="11" ry="11" style="stroke: #A80036; stroke-width: 1.0;"/><path d="M66.3656,559.375 Q66.5219,559.1563 66.7094,559.0469 Q66.8969,558.9375 67.1156,558.9375 Q67.4906,558.9375 67.725,559.1953 Q67.9594,559.4531 67.9594,560.0625 L67.9594,561.5156 Q67.9594,562.125 67.725,562.3906 Q67.4906,562.6563 67.1156,562.6563 Q66.7719,562.6563 66.5688,562.4531 Q66.3656,562.2656 66.2563,561.75 Q66.2094,561.3906 66.0219,561.2031 Q65.6938,560.8281 65.0844,560.6094 Q64.475,560.3906 63.85,560.3906 Q63.0844,560.3906 62.4516,560.7188 Q61.8188,561.0469 61.3266,561.7969 Q60.8344,562.5469 60.8344,563.5781 L60.8344,564.6719 Q60.8344,565.9063 61.725,566.7266 Q62.6156,567.5469 64.2094,567.5469 Q65.1469,567.5469 65.8031,567.2969 Q66.1938,567.1406 66.6156,566.7031 Q66.8813,566.4375 67.0297,566.3594 Q67.1781,566.2813 67.3813,566.2813 Q67.7094,566.2813 67.9672,566.5391 Q68.225,566.7969 68.225,567.1406 Q68.225,567.4844 67.8813,567.8906 Q67.3813,568.4688 66.5844,568.7969 Q65.5063,569.25 64.2094,569.25 Q62.6938,569.25 61.4906,568.625 Q60.5063,568.125 59.8188,567.0547 Q59.1313,565.9844 59.1313,564.7031 L59.1313,563.5469 Q59.1313,562.2188 59.7484,561.0703 Q60.3656,559.9219 61.4594,559.3047 Q62.5531,558.6875 63.7875,558.6875 Q64.5219,558.6875 65.1703,558.8516 Q65.8188,559.0156 66.3656,559.375 Z "/><text fill="#000000" font-family="sans-serif" font-size="12" lengthAdjust="spacingAndGlyphs" textLength="24" x="78.4" y="568.4102">JWT</text><line style="stroke: #A80036; stroke-width: 1.5;" x1="46" x2="108" y1="579.5" y2="579.5"/><text fill="#000000" font-family="sans-serif" font-size="11" lengthAdjust="spacingAndGlyphs" textLength="52" x="51" y="594.9189">string attr1</text><line style="stroke: #A80036; stroke-width: 1.5;" x1="46" x2="108" y1="601.3359" y2="601.3359"/><!--class i--><rect fill="#FEFECE" filter="url(#fk06e2nrgi0y9)" height="172.5234" id="i" style="stroke: #A80036; stroke-width: 1.5;" width="246" x="408" y="101"/><ellipse cx="484.75" cy="117" fill="#B4A7E5" rx="11" ry="11" style="stroke: #A80036; stroke-width: 1.0;"/><path d="M485.7031,113.6406 L485.7031,120.2969 L487.4219,120.2969 Q488.0313,120.2969 488.2969,120.5313 Q488.5625,120.7656 488.5625,121.1563 Q488.5625,121.5313 488.2969,121.7656 Q488.0313,122 487.4219,122 L482.2813,122 Q481.6719,122 481.4063,121.7656 Q481.1406,121.5313 481.1406,121.1406 Q481.1406,120.7656 481.4063,120.5313 Q481.6719,120.2969 482.2813,120.2969 L484,120.2969 L484,113.6406 L482.2813,113.6406 Q481.6719,113.6406 481.4063,113.4063 Q481.1406,113.1719 481.1406,112.7813 Q481.1406,112.4063 481.4063,112.1719 Q481.6719,111.9375 482.2813,111.9375 L487.4219,111.9375 Q488.0313,111.9375 488.2969,112.1719 Q488.5625,112.4063 488.5625,112.7813 Q488.5625,113.1719 488.2969,113.4063 Q488.0313,113.6406 487.4219,113.6406 L485.7031,113.6406 Z "/><text fill="#000000" font-family="sans-serif" font-size="12" font-style="italic" lengthAdjust="spacingAndGlyphs" textLength="84" x="505.25" y="121.9102">Security Aspect</text><line style="stroke: #A80036; stroke-width: 1.5;" x1="409" x2="653" y1="133" y2="133"/><line style="stroke: #A80036; stroke-width: 1.5;" x1="409" x2="653" y1="141" y2="141"/><text fill="#000000" font-family="sans-serif" font-size="11" lengthAdjust="spacingAndGlyphs" textLength="194" x="414" y="156.4189">/sabr/sa/securitymanager/authenticate()</text><text fill="#000000" font-family="sans-serif" font-size="11" lengthAdjust="spacingAndGlyphs" textLength="234" x="414" y="170.2549">/sabr/sa/securitymanager/generatestreamkeys()</text><text fill="#000000" font-family="sans-serif" font-size="11" lengthAdjust="spacingAndGlyphs" textLength="213" x="414" y="184.0908">/sabr/sa/securitymanager/getbootstrapkey()</text><text fill="#000000" font-family="sans-serif" font-size="11" lengthAdjust="spacingAndGlyphs" textLength="232" x="414" y="197.9268">/sabr/sa/securitymanager/getregistrationcreds()</text><text fill="#000000" font-family="sans-serif" font-size="11" lengthAdjust="spacingAndGlyphs" textLength="206" x="414" y="211.7627">/sabr/sa/securitymanager/getstreamkeys()</text><text fill="#000000" font-family="sans-serif" font-size="11" lengthAdjust="spacingAndGlyphs" textLength="205" x="414" y="225.5986">/sabr/sa/securitymanager/provisionentity()</text><text fill="#000000" font-family="sans-serif" font-size="11" lengthAdjust="spacingAndGlyphs" textLength="198" x="414" y="239.4346">/sabr/sa/securitymanager/registerentity()</text><text fill="#000000" font-family="sans-serif" font-size="11" lengthAdjust="spacingAndGlyphs" textLength="195" x="414" y="253.2705">/sabr/sa/securitymanager/requestkeys()</text><text fill="#000000" font-family="sans-serif" font-size="11" lengthAdjust="spacingAndGlyphs" textLength="172" x="414" y="267.1064">/sabr/sa/securitymanager/validate()</text><!--class ModelName--><rect fill="#FEFECE" filter="url(#fk06e2nrgi0y9)" height="48" id="ModelName" style="stroke: #A80036; stroke-width: 1.5;" width="99" x="38.5" y="715"/><ellipse cx="53.5" cy="731" fill="#ADD1B2" rx="11" ry="11" style="stroke: #A80036; stroke-width: 1.0;"/><path d="M56.2656,726.875 Q56.4219,726.6563 56.6094,726.5469 Q56.7969,726.4375 57.0156,726.4375 Q57.3906,726.4375 57.625,726.6953 Q57.8594,726.9531 57.8594,727.5625 L57.8594,729.0156 Q57.8594,729.625 57.625,729.8906 Q57.3906,730.1563 57.0156,730.1563 Q56.6719,730.1563 56.4688,729.9531 Q56.2656,729.7656 56.1563,729.25 Q56.1094,728.8906 55.9219,728.7031 Q55.5938,728.3281 54.9844,728.1094 Q54.375,727.8906 53.75,727.8906 Q52.9844,727.8906 52.3516,728.2188 Q51.7188,728.5469 51.2266,729.2969 Q50.7344,730.0469 50.7344,731.0781 L50.7344,732.1719 Q50.7344,733.4063 51.625,734.2266 Q52.5156,735.0469 54.1094,735.0469 Q55.0469,735.0469 55.7031,734.7969 Q56.0938,734.6406 56.5156,734.2031 Q56.7813,733.9375 56.9297,733.8594 Q57.0781,733.7813 57.2813,733.7813 Q57.6094,733.7813 57.8672,734.0391 Q58.125,734.2969 58.125,734.6406 Q58.125,734.9844 57.7813,735.3906 Q57.2813,735.9688 56.4844,736.2969 Q55.4063,736.75 54.1094,736.75 Q52.5938,736.75 51.3906,736.125 Q50.4063,735.625 49.7188,734.5547 Q49.0313,733.4844 49.0313,732.2031 L49.0313,731.0469 Q49.0313,729.7188 49.6484,728.5703 Q50.2656,727.4219 51.3594,726.8047 Q52.4531,726.1875 53.6875,726.1875 Q54.4219,726.1875 55.0703,726.3516 Q55.7188,726.5156 56.2656,726.875 Z "/><text fill="#000000" font-family="sans-serif" font-size="12" lengthAdjust="spacingAndGlyphs" textLength="67" x="67.5" y="735.9102">ModelName</text><line style="stroke: #A80036; stroke-width: 1.5;" x1="39.5" x2="136.5" y1="747" y2="747"/><line style="stroke: #A80036; stroke-width: 1.5;" x1="39.5" x2="136.5" y1="755" y2="755"/><!--class KeyStore--><rect fill="#FEFECE" filter="url(#fk06e2nrgi0y9)" height="89.5078" id="KeyStore" style="stroke: #A80036; stroke-width: 1.5;" width="113" x="347.5" y="352"/><ellipse cx="376.9" cy="368" fill="#ADD1B2" rx="11" ry="11" style="stroke: #A80036; stroke-width: 1.0;"/><path d="M379.6656,363.875 Q379.8219,363.6563 380.0094,363.5469 Q380.1969,363.4375 380.4156,363.4375 Q380.7906,363.4375 381.025,363.6953 Q381.2594,363.9531 381.2594,364.5625 L381.2594,366.0156 Q381.2594,366.625 381.025,366.8906 Q380.7906,367.1563 380.4156,367.1563 Q380.0719,367.1563 379.8688,366.9531 Q379.6656,366.7656 379.5563,366.25 Q379.5094,365.8906 379.3219,365.7031 Q378.9938,365.3281 378.3844,365.1094 Q377.775,364.8906 377.15,364.8906 Q376.3844,364.8906 375.7516,365.2188 Q375.1188,365.5469 374.6266,366.2969 Q374.1344,367.0469 374.1344,368.0781 L374.1344,369.1719 Q374.1344,370.4063 375.025,371.2266 Q375.9156,372.0469 377.5094,372.0469 Q378.4469,372.0469 379.1031,371.7969 Q379.4938,371.6406 379.9156,371.2031 Q380.1813,370.9375 380.3297,370.8594 Q380.4781,370.7813 380.6813,370.7813 Q381.0094,370.7813 381.2672,371.0391 Q381.525,371.2969 381.525,371.6406 Q381.525,371.9844 381.1813,372.3906 Q380.6813,372.9688 379.8844,373.2969 Q378.8063,373.75 377.5094,373.75 Q375.9938,373.75 374.7906,373.125 Q373.8063,372.625 373.1188,371.5547 Q372.4313,370.4844 372.4313,369.2031 L372.4313,368.0469 Q372.4313,366.7188 373.0484,365.5703 Q373.6656,364.4219 374.7594,363.8047 Q375.8531,363.1875 377.0875,363.1875 Q377.8219,363.1875 378.4703,363.3516 Q379.1188,363.5156 379.6656,363.875 Z "/><text fill="#000000" font-family="sans-serif" font-size="12" lengthAdjust="spacingAndGlyphs" textLength="49" x="394.1" y="372.9102">KeyStore</text><line style="stroke: #A80036; stroke-width: 1.5;" x1="348.5" x2="459.5" y1="384" y2="384"/><text fill="#000000" font-family="sans-serif" font-size="11" lengthAdjust="spacingAndGlyphs" textLength="56" x="353.5" y="399.4189">string name</text><text fill="#000000" font-family="sans-serif" font-size="11" lengthAdjust="spacingAndGlyphs" textLength="101" x="353.5" y="413.2549">string encryptedData</text><line style="stroke: #A80036; stroke-width: 1.5;" x1="348.5" x2="459.5" y1="419.6719" y2="419.6719"/><text fill="#000000" font-family="sans-serif" font-size="11" lengthAdjust="spacingAndGlyphs" textLength="45" x="353.5" y="435.0908">encrypt()</text><!--class SecureVault--><rect fill="#FEFECE" filter="url(#fk06e2nrgi0y9)" height="75.6719" id="SecureVault" style="stroke: #A80036; stroke-width: 1.5;" width="98" x="207" y="149.5"/><ellipse cx="222" cy="165.5" fill="#ADD1B2" rx="11" ry="11" style="stroke: #A80036; stroke-width: 1.0;"/><path d="M224.7656,161.375 Q224.9219,161.1563 225.1094,161.0469 Q225.2969,160.9375 225.5156,160.9375 Q225.8906,160.9375 226.125,161.1953 Q226.3594,161.4531 226.3594,162.0625 L226.3594,163.5156 Q226.3594,164.125 226.125,164.3906 Q225.8906,164.6563 225.5156,164.6563 Q225.1719,164.6563 224.9688,164.4531 Q224.7656,164.2656 224.6563,163.75 Q224.6094,163.3906 224.4219,163.2031 Q224.0938,162.8281 223.4844,162.6094 Q222.875,162.3906 222.25,162.3906 Q221.4844,162.3906 220.8516,162.7188 Q220.2188,163.0469 219.7266,163.7969 Q219.2344,164.5469 219.2344,165.5781 L219.2344,166.6719 Q219.2344,167.9063 220.125,168.7266 Q221.0156,169.5469 222.6094,169.5469 Q223.5469,169.5469 224.2031,169.2969 Q224.5938,169.1406 225.0156,168.7031 Q225.2813,168.4375 225.4297,168.3594 Q225.5781,168.2813 225.7813,168.2813 Q226.1094,168.2813 226.3672,168.5391 Q226.625,168.7969 226.625,169.1406 Q226.625,169.4844 226.2813,169.8906 Q225.7813,170.4688 224.9844,170.7969 Q223.9063,171.25 222.6094,171.25 Q221.0938,171.25 219.8906,170.625 Q218.9063,170.125 218.2188,169.0547 Q217.5313,167.9844 217.5313,166.7031 L217.5313,165.5469 Q217.5313,164.2188 218.1484,163.0703 Q218.7656,161.9219 219.8594,161.3047 Q220.9531,160.6875 222.1875,160.6875 Q222.9219,160.6875 223.5703,160.8516 Q224.2188,161.0156 224.7656,161.375 Z "/><text fill="#000000" font-family="sans-serif" font-size="12" lengthAdjust="spacingAndGlyphs" textLength="66" x="236" y="170.4102">SecureVault</text><line style="stroke: #A80036; stroke-width: 1.5;" x1="208" x2="304" y1="181.5" y2="181.5"/><text fill="#000000" font-family="sans-serif" font-size="11" lengthAdjust="spacingAndGlyphs" textLength="56" x="213" y="196.9189">string name</text><line style="stroke: #A80036; stroke-width: 1.5;" x1="208" x2="304" y1="203.3359" y2="203.3359"/><text fill="#000000" font-family="sans-serif" font-size="11" lengthAdjust="spacingAndGlyphs" textLength="45" x="213" y="218.7549">encrypt()</text><ellipse cx="486" cy="13" fill="#FEFECE" filter="url(#fk06e2nrgi0y9)" rx="5" ry="5" style="stroke: #A80036; stroke-width: 1.5;"/><text fill="#000000" font-family="sans-serif" font-size="12" lengthAdjust="spacingAndGlyphs" textLength="19" x="476.5" y="30.457">CLI</text><ellipse cx="531" cy="13" fill="#FEFECE" filter="url(#fk06e2nrgi0y9)" rx="5" ry="5" style="stroke: #A80036; stroke-width: 1.5;"/><text fill="#000000" font-family="sans-serif" font-size="12" lengthAdjust="spacingAndGlyphs" textLength="32" x="515" y="30.457">REST</text><ellipse cx="576" cy="13" fill="#FEFECE" filter="url(#fk06e2nrgi0y9)" rx="5" ry="5" style="stroke: #A80036; stroke-width: 1.5;"/><text fill="#000000" font-family="sans-serif" font-size="12" lengthAdjust="spacingAndGlyphs" textLength="25" x="563.5" y="30.457">Web</text><!--link ilol4929 to i--><path d="M487.024,17.927 C490.06,29.562 499.373,65.264 508.652,100.834 " fill="none" id="ilol4929-i" style="stroke: #A80036; stroke-width: 1.0;"/><!--link ilol4932 to i--><path d="M531,18.264 C531,30.249 531,65.665 531,100.929 " fill="none" id="ilol4932-i" style="stroke: #A80036; stroke-width: 1.0;"/><!--link ilol4935 to i--><path d="M574.976,17.927 C571.94,29.562 562.627,65.264 553.348,100.834 " fill="none" id="ilol4935-i" style="stroke: #A80036; stroke-width: 1.0;"/><!--link EncryptedVault to SecurityKey--><path d="M289.415,446.202 C299.243,460.333 310.031,475.802 320,490 C324.318,496.15 328.815,502.535 333.328,508.929 " fill="none" id="EncryptedVault-SecurityKey" style="stroke: #A80036; stroke-width: 1.0;"/><polygon fill="#A80036" points="340.909,519.658,338.9825,509.9994,338.0238,515.5744,332.4488,514.6157,340.909,519.658" style="stroke: #A80036; stroke-width: 1.0;"/><line style="stroke: #A80036; stroke-width: 1.0;" x1="338.0238" x2="333.407" y1="515.5744" y2="509.0405"/><polygon fill="#A80036" points="281.773,435.205,281.9121,442.4148,288.6208,445.0593,288.4817,437.8496,281.773,435.205" style="stroke: #A80036; stroke-width: 1.0;"/><text fill="#000000" font-family="sans-serif" font-size="13" lengthAdjust="spacingAndGlyphs" textLength="47" x="321" y="486.4951">streams</text><text fill="#000000" font-family="sans-serif" font-size="13" lengthAdjust="spacingAndGlyphs" textLength="7" x="328.4745" y="509.0172">n</text><!--link JWT to ModelName--><path d="M80.0204,623.021 C81.7287,647.637 83.8408,678.069 85.4628,701.4408 " fill="none" id="JWT-ModelName" style="stroke: #A80036; stroke-width: 1.0;"/><polygon fill="#A80036" points="86.3778,714.6261,89.745,705.3707,86.0316,709.6381,81.7642,705.9247,86.3778,714.6261" style="stroke: #A80036; stroke-width: 1.0;"/><line style="stroke: #A80036; stroke-width: 1.0;" x1="86.0316" x2="85.4777" y1="709.6381" y2="701.6573"/><polygon fill="#FFFFFF" points="79.0949,609.686,75.5206,615.9489,79.927,621.6571,83.5013,615.3942,79.0949,609.686" style="stroke: #A80036; stroke-width: 1.0;"/><text fill="#000000" font-family="sans-serif" font-size="13" lengthAdjust="spacingAndGlyphs" textLength="42" x="86" y="681.4951">assoc1</text><text fill="#000000" font-family="sans-serif" font-size="13" lengthAdjust="spacingAndGlyphs" textLength="7" x="78.1293" y="704.2729">1</text><!--link KeyStore to SecurityKey--><path d="M382.819,454.577 C381.265,460.398 379.941,466.275 379,472 C377.184,483.046 376.406,494.829 376.274,506.367 " fill="none" id="KeyStore-SecurityKey" style="stroke: #A80036; stroke-width: 1.0;"/><polygon fill="#A80036" points="376.391,519.741,380.3117,510.7062,376.347,514.7412,372.312,510.7765,376.391,519.741" style="stroke: #A80036; stroke-width: 1.0;"/><line style="stroke: #A80036; stroke-width: 1.0;" x1="376.347" x2="376.277" y1="514.7412" y2="506.741"/><polygon fill="#FFFFFF" points="386.527,442.011,380.9927,446.6339,383.1314,453.5205,388.6657,448.8977,386.527,442.011" style="stroke: #A80036; stroke-width: 1.0;"/><text fill="#000000" font-family="sans-serif" font-size="13" lengthAdjust="spacingAndGlyphs" textLength="28" x="380" y="486.4951">keys</text><text fill="#000000" font-family="sans-serif" font-size="13" lengthAdjust="spacingAndGlyphs" textLength="7" x="368.2808" y="509.1103">n</text><!--link SecureVault to Seed--><path d="M316.056,230.088 C361.485,262.174 424.896,308.316 478,352 C482.543,355.737 487.221,359.772 491.794,363.83 " fill="none" id="SecureVault-Seed" style="stroke: #A80036; stroke-width: 1.0;"/><polygon fill="#A80036" points="501.538,372.644,497.5469,363.64,497.83,369.2898,492.1802,369.5729,501.538,372.644" style="stroke: #A80036; stroke-width: 1.0;"/><line style="stroke: #A80036; stroke-width: 1.0;" x1="497.83" x2="491.8965" y1="369.2898" y2="363.9235"/><polygon fill="#A80036" points="305.202,222.448,307.8058,229.1726,315.0146,229.3555,312.4108,222.6309,305.202,222.448" style="stroke: #A80036; stroke-width: 1.0;"/><text fill="#000000" font-family="sans-serif" font-size="13" lengthAdjust="spacingAndGlyphs" textLength="28" x="438" y="318.4951">seed</text><text fill="#000000" font-family="sans-serif" font-size="13" lengthAdjust="spacingAndGlyphs" textLength="7" x="487.7223" y="362.2952">1</text><!--link SecureVault to WorkingEnclave--><path d="M221.089,236.159 C194.675,272.217 158.794,321.199 133.739,355.402 " fill="none" id="SecureVault-WorkingEnclave" style="stroke: #A80036; stroke-width: 1.0;"/><polygon fill="#A80036" points="126.011,365.952,134.5562,361.0552,128.9656,361.9184,128.1024,356.3278,126.011,365.952" style="stroke: #A80036; stroke-width: 1.0;"/><line style="stroke: #A80036; stroke-width: 1.0;" x1="128.9656" x2="133.693" y1="361.9184" y2="355.465"/><polygon fill="#A80036" points="228.825,225.597,222.0524,228.0732,221.7333,235.2773,228.5059,232.801,228.825,225.597" style="stroke: #A80036; stroke-width: 1.0;"/><text fill="#000000" font-family="sans-serif" font-size="13" lengthAdjust="spacingAndGlyphs" textLength="43" x="172" y="318.4951">enclave</text><text fill="#000000" font-family="sans-serif" font-size="13" lengthAdjust="spacingAndGlyphs" textLength="7" x="123.0603" y="354.9618">1</text><!--link SecureVault to EncryptedVault--><path d="M256,238.627 C256,271.054 256,313.117 256,345.598 " fill="none" id="SecureVault-EncryptedVault" style="stroke: #A80036; stroke-width: 1.0;"/><polygon fill="#A80036" points="256,358.875,260,349.875,256,353.875,252,349.875,256,358.875" style="stroke: #A80036; stroke-width: 1.0;"/><line style="stroke: #A80036; stroke-width: 1.0;" x1="256" x2="256" y1="353.875" y2="345.875"/><polygon fill="#A80036" points="256,225.597,252,231.597,256,237.597,260,231.597,256,225.597" style="stroke: #A80036; stroke-width: 1.0;"/><text fill="#000000" font-family="sans-serif" font-size="13" lengthAdjust="spacingAndGlyphs" textLength="26" x="257" y="318.4951">vault</text><text fill="#000000" font-family="sans-serif" font-size="13" lengthAdjust="spacingAndGlyphs" textLength="7" x="248.3766" y="348.2146">1</text><!--link Seed to Credential--><path d="M555.025,431.222 C564.784,443.479 575.169,457.841 583,472 C593.932,491.764 602.946,515.205 609.545,534.966 " fill="none" id="Seed-Credential" style="stroke: #A80036; stroke-width: 1.0;"/><polygon fill="#A80036" points="613.528,547.345,614.5792,537.5524,611.9966,542.5853,606.9637,540.0027,613.528,547.345" style="stroke: #A80036; stroke-width: 1.0;"/><line style="stroke: #A80036; stroke-width: 1.0;" x1="611.9966" x2="609.546" y1="542.5853" y2="534.9695"/><polygon fill="#A80036" points="546.69,421.051,547.399,428.2272,554.2958,430.3328,553.5868,423.1566,546.69,421.051" style="stroke: #A80036; stroke-width: 1.0;"/><text fill="#000000" font-family="sans-serif" font-size="13" lengthAdjust="spacingAndGlyphs" textLength="98" x="592" y="486.4951">registrationCreds</text><text fill="#000000" font-family="sans-serif" font-size="13" lengthAdjust="spacingAndGlyphs" textLength="7" x="604.0588" y="536.8176">1</text><!--link Seed to SecurityKey--><path d="M515.42,433.481 C508.986,451.489 499.563,473.074 487,490 C473.941,507.594 456.643,523.879 439.862,537.511 " fill="none" id="Seed-SecurityKey" style="stroke: #A80036; stroke-width: 1.0;"/><polygon fill="#A80036" points="429.523,545.644,439.0698,543.2235,433.4528,542.5527,434.1236,536.9357,429.523,545.644" style="stroke: #A80036; stroke-width: 1.0;"/><line style="stroke: #A80036; stroke-width: 1.0;" x1="433.4528" x2="439.741" y1="542.5527" y2="537.607"/><polygon fill="#A80036" points="519.579,421.119,513.8749,425.5307,515.7534,432.4929,521.4575,428.0811,519.579,421.119" style="stroke: #A80036; stroke-width: 1.0;"/><text fill="#000000" font-family="sans-serif" font-size="13" lengthAdjust="spacingAndGlyphs" textLength="54" x="499" y="486.4951">bootstrap</text><text fill="#000000" font-family="sans-serif" font-size="13" lengthAdjust="spacingAndGlyphs" textLength="7" x="437.6548" y="536.6414">1</text><!--link Seed to SecurityKey--><path d="M490.757,430.337 C486.462,434.268 482.133,438.227 478,442 C463.361,455.364 457.551,456.658 445,472 C435.847,483.188 427.126,495.845 419.25,508.408 " fill="none" id="Seed-SecurityKey-1" style="stroke: #A80036; stroke-width: 1.0;"/><polygon fill="#A80036" points="412.265,519.875,420.363,514.2694,414.866,515.6048,413.5307,510.1078,412.265,519.875" style="stroke: #A80036; stroke-width: 1.0;"/><line style="stroke: #A80036; stroke-width: 1.0;" x1="414.866" x2="419.028" y1="515.6048" y2="508.773"/><polygon fill="#A80036" points="500.609,421.311,493.4828,422.4145,491.7606,429.4169,498.8868,428.3134,500.609,421.311" style="stroke: #A80036; stroke-width: 1.0;"/><text fill="#000000" font-family="sans-serif" font-size="13" lengthAdjust="spacingAndGlyphs" textLength="32" x="446" y="486.4951">uauth</text><text fill="#000000" font-family="sans-serif" font-size="13" lengthAdjust="spacingAndGlyphs" textLength="7" x="408.527" y="509.2607">1</text><!--link WorkingEnclave to JWT--><path d="M80.8751,440.151 C76.3804,450.293 72.3412,461.297 70,472 C65.5914,492.155 66.4032,514.948 68.7012,534.178 " fill="none" id="WorkingEnclave-JWT" style="stroke: #A80036; stroke-width: 1.0;"/><polygon fill="#A80036" points="70.5335,547.152,73.2362,537.6812,69.8346,542.2011,65.3147,538.7995,70.5335,547.152" style="stroke: #A80036; stroke-width: 1.0;"/><line style="stroke: #A80036; stroke-width: 1.0;" x1="69.8346" x2="68.7156" y1="542.2011" y2="534.28"/><polygon fill="#FFFFFF" points="86.5001,428.286,80.3152,431.9936,81.3588,439.1288,87.5437,435.4212,86.5001,428.286" style="stroke: #A80036; stroke-width: 1.0;"/><text fill="#000000" font-family="sans-serif" font-size="13" lengthAdjust="spacingAndGlyphs" textLength="32" x="71" y="486.4951">token</text><text fill="#000000" font-family="sans-serif" font-size="13" lengthAdjust="spacingAndGlyphs" textLength="7" x="61.4779" y="536.5848">1</text><!--link WorkingEnclave to SecurityKey--><path d="M137.294,438.076 C153.199,455.538 173.267,475.323 194,490 C233.553,517.999 283.489,540.745 321.954,556.022 " fill="none" id="WorkingEnclave-SecurityKey" style="stroke: #A80036; stroke-width: 1.0;"/><polygon fill="#A80036" points="334.269,560.815,327.3323,553.8234,329.6094,559.0017,324.4311,561.2788,334.269,560.815" style="stroke: #A80036; stroke-width: 1.0;"/><line style="stroke: #A80036; stroke-width: 1.0;" x1="329.6094" x2="322.154" y1="559.0017" y2="556.1"/><polygon fill="#FFFFFF" points="128.437,428.12,129.4362,435.2615,136.4126,437.086,135.4135,429.9445,128.437,428.12" style="stroke: #A80036; stroke-width: 1.0;"/><text fill="#000000" font-family="sans-serif" font-size="13" lengthAdjust="spacingAndGlyphs" textLength="104" x="195" y="486.4951">authenticationKey</text><text fill="#000000" font-family="sans-serif" font-size="13" lengthAdjust="spacingAndGlyphs" textLength="7" x="319.4243" y="554.3903">1</text><!--
@startuml


package "Security Aspect" #pink {
    
        class SecurityKey {
        }
    
        class Seed {
        }
    
        class WorkingEnclave {
        }
    
        class EncryptedVault {
        }
    
        class Credential {
        }
    
        class JWT {
        }
    }


package "Security Aspect" #pink {

    interface "Security Aspect" as i {
            /sabr/sa/securitymanager/authenticate()
            /sabr/sa/securitymanager/generatestreamkeys()
            /sabr/sa/securitymanager/getbootstrapkey()
            /sabr/sa/securitymanager/getregistrationcreds()
            /sabr/sa/securitymanager/getstreamkeys()
            /sabr/sa/securitymanager/provisionentity()
            /sabr/sa/securitymanager/registerentity()
            /sabr/sa/securitymanager/requestkeys()
            /sabr/sa/securitymanager/validate()
    
    }
}

CLI ()- - i
REST ()- - i
Web ()- - i

package "Security Aspect" #pink {
        class "Credential" {
                 string creds
                    }
    
    
    class "EncryptedVault" {
                 string encryptedDate
                             encrypt()
            }
                EncryptedVault *- -> "n" SecurityKey : streams
            
    
    class "JWT" {
                 string attr1
                    }
                JWT o- -> "1" ModelName : assoc1
            
    
    class "KeyStore" {
                 string name
                 string encryptedData
                             encrypt()
            }
                KeyStore o- -> "n" SecurityKey : keys
            
    
    class "SecureVault" {
                 string name
                             encrypt()
            }
                SecureVault *- -> "1" Seed : seed
                        SecureVault *- -> "1" WorkingEnclave : enclave
                        SecureVault *- -> "1" EncryptedVault : vault
            
    
    class "SecurityKey" {
                 string name
                 string value
                 string iv
                             generateKey()
                     generatePair()
            }
    
    
    class "Seed" {
                    }
                Seed *- -> "1" Credential : registrationCreds
                        Seed *- -> "1" SecurityKey : bootstrap
                        Seed *- -> "1" SecurityKey : uauth
            
    
    class "WorkingEnclave" {
                 string deviceUID
                    }
                WorkingEnclave o- -> "1" JWT : token
                        WorkingEnclave o- -> "1" SecurityKey : authenticationKey
            
    

}



@enduml

PlantUML version 1.2019.05(Sat Apr 20 09:45:36 PDT 2019)
(GPL source distribution)
Java Runtime: Java(TM) SE Runtime Environment
JVM: Java HotSpot(TM) Client VM
Java Version: 1.8.0_271-b09
Operating System: Windows 10
OS Version: 10.0
Default Encoding: Cp1252
Language: en
Country: US
--></g></svg>