<?xml version="1.0" encoding="us-ascii" standalone="no"?><svg xmlns="http://www.w3.org/2000/svg" xmlns:xlink="http://www.w3.org/1999/xlink" contentStyleType="text/css" height="847px" preserveAspectRatio="none" style="width:729px;height:847px;background:#FFFFFF;" version="1.1" viewBox="0 0 729 847" width="729px" zoomAndPan="magnify"><defs/><g><!--cluster Security Aspect--><g id="cluster_Security Aspect"><path d="M8.5,63 L118.5,63 A3.75,3.75 0 0 1 121,65.5 L128,86.6094 L719.5,86.6094 A2.5,2.5 0 0 1 722,89.1094 L722,837.5 A2.5,2.5 0 0 1 719.5,840 L8.5,840 A2.5,2.5 0 0 1 6,837.5 L6,65.5 A2.5,2.5 0 0 1 8.5,63 " fill="#FFC0CB" style="stroke:#000000;stroke-width:1.5;"/><line style="stroke:#000000;stroke-width:1.5;" x1="6" x2="128" y1="86.6094" y2="86.6094"/><text fill="#000000" font-family="sans-serif" font-size="14" font-weight="bold" lengthAdjust="spacing" textLength="109" x="10" y="79.5332">Security Aspect</text></g><!--class SecurityKey--><g id="elem_SecurityKey"><rect codeLine="81" fill="#F1F1F1" height="136.0469" id="SecurityKey" rx="2.5" ry="2.5" style="stroke:#181818;stroke-width:0.5;" width="107" x="312.5" y="562"/><ellipse cx="327.5" cy="578" fill="#ADD1B2" rx="11" ry="11" style="stroke:#181818;stroke-width:1.0;"/><path d="M330.2656,573.875 Q330.4219,573.6563 330.6094,573.5469 Q330.7969,573.4375 331.0156,573.4375 Q331.3906,573.4375 331.625,573.6953 Q331.8594,573.9531 331.8594,574.5625 L331.8594,576.0156 Q331.8594,576.625 331.625,576.8906 Q331.3906,577.1563 331.0156,577.1563 Q330.6719,577.1563 330.4688,576.9531 Q330.2656,576.7656 330.1563,576.25 Q330.1094,575.8906 329.9219,575.7031 Q329.5938,575.3281 328.9844,575.1094 Q328.375,574.8906 327.75,574.8906 Q326.9844,574.8906 326.3516,575.2188 Q325.7188,575.5469 325.2266,576.2969 Q324.7344,577.0469 324.7344,578.0781 L324.7344,579.1719 Q324.7344,580.4063 325.625,581.2266 Q326.5156,582.0469 328.1094,582.0469 Q329.0469,582.0469 329.7031,581.7969 Q330.0938,581.6406 330.5156,581.2031 Q330.7813,580.9375 330.9297,580.8594 Q331.0781,580.7813 331.2813,580.7813 Q331.6094,580.7813 331.8672,581.0391 Q332.125,581.2969 332.125,581.6406 Q332.125,581.9844 331.7813,582.3906 Q331.2813,582.9688 330.4844,583.2969 Q329.4063,583.75 328.1094,583.75 Q326.5938,583.75 325.3906,583.125 Q324.4063,582.625 323.7188,581.5547 Q323.0313,580.4844 323.0313,579.2031 L323.0313,578.0469 Q323.0313,576.7188 323.6484,575.5703 Q324.2656,574.4219 325.3594,573.8047 Q326.4531,573.1875 327.6875,573.1875 Q328.4219,573.1875 329.0703,573.3516 Q329.7188,573.5156 330.2656,573.875 Z " fill="#000000"/><text fill="#000000" font-family="sans-serif" font-size="14" lengthAdjust="spacing" textLength="75" x="341.5" y="583.7285">SecurityKey</text><line style="stroke:#181818;stroke-width:0.5;" x1="313.5" x2="418.5" y1="594" y2="594"/><text fill="#000000" font-family="sans-serif" font-size="14" lengthAdjust="spacing" textLength="74" x="318.5" y="612.5332">string name</text><text fill="#000000" font-family="sans-serif" font-size="14" lengthAdjust="spacing" textLength="73" x="318.5" y="630.1426">string value</text><text fill="#000000" font-family="sans-serif" font-size="14" lengthAdjust="spacing" textLength="49" x="318.5" y="647.752">string iv</text><line style="stroke:#181818;stroke-width:0.5;" x1="313.5" x2="418.5" y1="654.8281" y2="654.8281"/><text fill="#000000" font-family="sans-serif" font-size="14" lengthAdjust="spacing" textLength="91" x="318.5" y="673.3613">generateKey()</text><text fill="#000000" font-family="sans-serif" font-size="14" lengthAdjust="spacing" textLength="92" x="318.5" y="690.9707">generatePair()</text></g><!--class Seed--><g id="elem_Seed"><rect codeLine="90" fill="#F1F1F1" height="48" id="Seed" rx="2.5" ry="2.5" style="stroke:#181818;stroke-width:0.5;" width="65" x="549.5" y="409.5"/><ellipse cx="564.5" cy="425.5" fill="#ADD1B2" rx="11" ry="11" style="stroke:#181818;stroke-width:1.0;"/><path d="M567.2656,421.375 Q567.4219,421.1563 567.6094,421.0469 Q567.7969,420.9375 568.0156,420.9375 Q568.3906,420.9375 568.625,421.1953 Q568.8594,421.4531 568.8594,422.0625 L568.8594,423.5156 Q568.8594,424.125 568.625,424.3906 Q568.3906,424.6563 568.0156,424.6563 Q567.6719,424.6563 567.4688,424.4531 Q567.2656,424.2656 567.1563,423.75 Q567.1094,423.3906 566.9219,423.2031 Q566.5938,422.8281 565.9844,422.6094 Q565.375,422.3906 564.75,422.3906 Q563.9844,422.3906 563.3516,422.7188 Q562.7188,423.0469 562.2266,423.7969 Q561.7344,424.5469 561.7344,425.5781 L561.7344,426.6719 Q561.7344,427.9063 562.625,428.7266 Q563.5156,429.5469 565.1094,429.5469 Q566.0469,429.5469 566.7031,429.2969 Q567.0938,429.1406 567.5156,428.7031 Q567.7813,428.4375 567.9297,428.3594 Q568.0781,428.2813 568.2813,428.2813 Q568.6094,428.2813 568.8672,428.5391 Q569.125,428.7969 569.125,429.1406 Q569.125,429.4844 568.7813,429.8906 Q568.2813,430.4688 567.4844,430.7969 Q566.4063,431.25 565.1094,431.25 Q563.5938,431.25 562.3906,430.625 Q561.4063,430.125 560.7188,429.0547 Q560.0313,427.9844 560.0313,426.7031 L560.0313,425.5469 Q560.0313,424.2188 560.6484,423.0703 Q561.2656,421.9219 562.3594,421.3047 Q563.4531,420.6875 564.6875,420.6875 Q565.4219,420.6875 566.0703,420.8516 Q566.7188,421.0156 567.2656,421.375 Z " fill="#000000"/><text fill="#000000" font-family="sans-serif" font-size="14" lengthAdjust="spacing" textLength="33" x="578.5" y="431.2285">Seed</text><line style="stroke:#181818;stroke-width:0.5;" x1="550.5" x2="613.5" y1="441.5" y2="441.5"/><line style="stroke:#181818;stroke-width:0.5;" x1="550.5" x2="613.5" y1="449.5" y2="449.5"/></g><!--class WorkingEnclave--><g id="elem_WorkingEnclave"><rect codeLine="97" fill="#F1F1F1" height="65.6094" id="WorkingEnclave" rx="2.5" ry="2.5" style="stroke:#181818;stroke-width:0.5;" width="134" x="22" y="400.5"/><ellipse cx="37" cy="416.5" fill="#ADD1B2" rx="11" ry="11" style="stroke:#181818;stroke-width:1.0;"/><path d="M39.7656,412.375 Q39.9219,412.1563 40.1094,412.0469 Q40.2969,411.9375 40.5156,411.9375 Q40.8906,411.9375 41.125,412.1953 Q41.3594,412.4531 41.3594,413.0625 L41.3594,414.5156 Q41.3594,415.125 41.125,415.3906 Q40.8906,415.6563 40.5156,415.6563 Q40.1719,415.6563 39.9688,415.4531 Q39.7656,415.2656 39.6563,414.75 Q39.6094,414.3906 39.4219,414.2031 Q39.0938,413.8281 38.4844,413.6094 Q37.875,413.3906 37.25,413.3906 Q36.4844,413.3906 35.8516,413.7188 Q35.2188,414.0469 34.7266,414.7969 Q34.2344,415.5469 34.2344,416.5781 L34.2344,417.6719 Q34.2344,418.9063 35.125,419.7266 Q36.0156,420.5469 37.6094,420.5469 Q38.5469,420.5469 39.2031,420.2969 Q39.5938,420.1406 40.0156,419.7031 Q40.2813,419.4375 40.4297,419.3594 Q40.5781,419.2813 40.7813,419.2813 Q41.1094,419.2813 41.3672,419.5391 Q41.625,419.7969 41.625,420.1406 Q41.625,420.4844 41.2813,420.8906 Q40.7813,421.4688 39.9844,421.7969 Q38.9063,422.25 37.6094,422.25 Q36.0938,422.25 34.8906,421.625 Q33.9063,421.125 33.2188,420.0547 Q32.5313,418.9844 32.5313,417.7031 L32.5313,416.5469 Q32.5313,415.2188 33.1484,414.0703 Q33.7656,412.9219 34.8594,412.3047 Q35.9531,411.6875 37.1875,411.6875 Q37.9219,411.6875 38.5703,411.8516 Q39.2188,412.0156 39.7656,412.375 Z " fill="#000000"/><text fill="#000000" font-family="sans-serif" font-size="14" lengthAdjust="spacing" textLength="102" x="51" y="422.2285">WorkingEnclave</text><line style="stroke:#181818;stroke-width:0.5;" x1="23" x2="155" y1="432.5" y2="432.5"/><text fill="#000000" font-family="sans-serif" font-size="14" lengthAdjust="spacing" textLength="102" x="28" y="451.0332">string deviceUID</text><line style="stroke:#181818;stroke-width:0.5;" x1="23" x2="155" y1="458.1094" y2="458.1094"/></g><!--class EncryptedVault--><g id="elem_EncryptedVault"><rect codeLine="51" fill="#F1F1F1" height="83.2188" id="EncryptedVault" rx="2.5" ry="2.5" style="stroke:#181818;stroke-width:0.5;" width="144" x="191" y="392"/><ellipse cx="213.2" cy="408" fill="#ADD1B2" rx="11" ry="11" style="stroke:#181818;stroke-width:1.0;"/><path d="M215.9656,403.875 Q216.1219,403.6563 216.3094,403.5469 Q216.4969,403.4375 216.7156,403.4375 Q217.0906,403.4375 217.325,403.6953 Q217.5594,403.9531 217.5594,404.5625 L217.5594,406.0156 Q217.5594,406.625 217.325,406.8906 Q217.0906,407.1563 216.7156,407.1563 Q216.3719,407.1563 216.1688,406.9531 Q215.9656,406.7656 215.8563,406.25 Q215.8094,405.8906 215.6219,405.7031 Q215.2938,405.3281 214.6844,405.1094 Q214.075,404.8906 213.45,404.8906 Q212.6844,404.8906 212.0516,405.2188 Q211.4188,405.5469 210.9266,406.2969 Q210.4344,407.0469 210.4344,408.0781 L210.4344,409.1719 Q210.4344,410.4063 211.325,411.2266 Q212.2156,412.0469 213.8094,412.0469 Q214.7469,412.0469 215.4031,411.7969 Q215.7938,411.6406 216.2156,411.2031 Q216.4813,410.9375 216.6297,410.8594 Q216.7781,410.7813 216.9813,410.7813 Q217.3094,410.7813 217.5672,411.0391 Q217.825,411.2969 217.825,411.6406 Q217.825,411.9844 217.4813,412.3906 Q216.9813,412.9688 216.1844,413.2969 Q215.1063,413.75 213.8094,413.75 Q212.2938,413.75 211.0906,413.125 Q210.1063,412.625 209.4188,411.5547 Q208.7313,410.4844 208.7313,409.2031 L208.7313,408.0469 Q208.7313,406.7188 209.3484,405.5703 Q209.9656,404.4219 211.0594,403.8047 Q212.1531,403.1875 213.3875,403.1875 Q214.1219,403.1875 214.7703,403.3516 Q215.4188,403.5156 215.9656,403.875 Z " fill="#000000"/><text fill="#000000" font-family="sans-serif" font-size="14" lengthAdjust="spacing" textLength="96" x="228.8" y="413.7285">EncryptedVault</text><line style="stroke:#181818;stroke-width:0.5;" x1="192" x2="334" y1="424" y2="424"/><text fill="#000000" font-family="sans-serif" font-size="14" lengthAdjust="spacing" textLength="132" x="197" y="442.5332">string encryptedDate</text><line style="stroke:#181818;stroke-width:0.5;" x1="192" x2="334" y1="449.6094" y2="449.6094"/><text fill="#000000" font-family="sans-serif" font-size="14" lengthAdjust="spacing" textLength="57" x="197" y="468.1426">encrypt()</text></g><!--class Credential--><g id="elem_Credential"><rect codeLine="46" fill="#F1F1F1" height="65.6094" id="Credential" rx="2.5" ry="2.5" style="stroke:#181818;stroke-width:0.5;" width="97" x="557.5" y="597"/><ellipse cx="572.5" cy="613" fill="#ADD1B2" rx="11" ry="11" style="stroke:#181818;stroke-width:1.0;"/><path d="M575.2656,608.875 Q575.4219,608.6563 575.6094,608.5469 Q575.7969,608.4375 576.0156,608.4375 Q576.3906,608.4375 576.625,608.6953 Q576.8594,608.9531 576.8594,609.5625 L576.8594,611.0156 Q576.8594,611.625 576.625,611.8906 Q576.3906,612.1563 576.0156,612.1563 Q575.6719,612.1563 575.4688,611.9531 Q575.2656,611.7656 575.1563,611.25 Q575.1094,610.8906 574.9219,610.7031 Q574.5938,610.3281 573.9844,610.1094 Q573.375,609.8906 572.75,609.8906 Q571.9844,609.8906 571.3516,610.2188 Q570.7188,610.5469 570.2266,611.2969 Q569.7344,612.0469 569.7344,613.0781 L569.7344,614.1719 Q569.7344,615.4063 570.625,616.2266 Q571.5156,617.0469 573.1094,617.0469 Q574.0469,617.0469 574.7031,616.7969 Q575.0938,616.6406 575.5156,616.2031 Q575.7813,615.9375 575.9297,615.8594 Q576.0781,615.7813 576.2813,615.7813 Q576.6094,615.7813 576.8672,616.0391 Q577.125,616.2969 577.125,616.6406 Q577.125,616.9844 576.7813,617.3906 Q576.2813,617.9688 575.4844,618.2969 Q574.4063,618.75 573.1094,618.75 Q571.5938,618.75 570.3906,618.125 Q569.4063,617.625 568.7188,616.5547 Q568.0313,615.4844 568.0313,614.2031 L568.0313,613.0469 Q568.0313,611.7188 568.6484,610.5703 Q569.2656,609.4219 570.3594,608.8047 Q571.4531,608.1875 572.6875,608.1875 Q573.4219,608.1875 574.0703,608.3516 Q574.7188,608.5156 575.2656,608.875 Z " fill="#000000"/><text fill="#000000" font-family="sans-serif" font-size="14" lengthAdjust="spacing" textLength="65" x="586.5" y="618.7285">Credential</text><line style="stroke:#181818;stroke-width:0.5;" x1="558.5" x2="653.5" y1="629" y2="629"/><text fill="#000000" font-family="sans-serif" font-size="14" lengthAdjust="spacing" textLength="74" x="563.5" y="647.5332">string creds</text><line style="stroke:#181818;stroke-width:0.5;" x1="558.5" x2="653.5" y1="654.6094" y2="654.6094"/></g><!--class JWT--><g id="elem_JWT"><rect codeLine="58" fill="#F1F1F1" height="65.6094" id="JWT" rx="2.5" ry="2.5" style="stroke:#181818;stroke-width:0.5;" width="80" x="28" y="597"/><ellipse cx="52" cy="613" fill="#ADD1B2" rx="11" ry="11" style="stroke:#181818;stroke-width:1.0;"/><path d="M54.7656,608.875 Q54.9219,608.6563 55.1094,608.5469 Q55.2969,608.4375 55.5156,608.4375 Q55.8906,608.4375 56.125,608.6953 Q56.3594,608.9531 56.3594,609.5625 L56.3594,611.0156 Q56.3594,611.625 56.125,611.8906 Q55.8906,612.1563 55.5156,612.1563 Q55.1719,612.1563 54.9688,611.9531 Q54.7656,611.7656 54.6563,611.25 Q54.6094,610.8906 54.4219,610.7031 Q54.0938,610.3281 53.4844,610.1094 Q52.875,609.8906 52.25,609.8906 Q51.4844,609.8906 50.8516,610.2188 Q50.2188,610.5469 49.7266,611.2969 Q49.2344,612.0469 49.2344,613.0781 L49.2344,614.1719 Q49.2344,615.4063 50.125,616.2266 Q51.0156,617.0469 52.6094,617.0469 Q53.5469,617.0469 54.2031,616.7969 Q54.5938,616.6406 55.0156,616.2031 Q55.2813,615.9375 55.4297,615.8594 Q55.5781,615.7813 55.7813,615.7813 Q56.1094,615.7813 56.3672,616.0391 Q56.625,616.2969 56.625,616.6406 Q56.625,616.9844 56.2813,617.3906 Q55.7813,617.9688 54.9844,618.2969 Q53.9063,618.75 52.6094,618.75 Q51.0938,618.75 49.8906,618.125 Q48.9063,617.625 48.2188,616.5547 Q47.5313,615.4844 47.5313,614.2031 L47.5313,613.0469 Q47.5313,611.7188 48.1484,610.5703 Q48.7656,609.4219 49.8594,608.8047 Q50.9531,608.1875 52.1875,608.1875 Q52.9219,608.1875 53.5703,608.3516 Q54.2188,608.5156 54.7656,608.875 Z " fill="#000000"/><text fill="#000000" font-family="sans-serif" font-size="14" lengthAdjust="spacing" textLength="28" x="68" y="618.7285">JWT</text><line style="stroke:#181818;stroke-width:0.5;" x1="29" x2="107" y1="629" y2="629"/><text fill="#000000" font-family="sans-serif" font-size="14" lengthAdjust="spacing" textLength="68" x="34" y="647.5332">string attr1</text><line style="stroke:#181818;stroke-width:0.5;" x1="29" x2="107" y1="654.6094" y2="654.6094"/></g><!--class i--><g id="elem_i"><rect codeLine="27" fill="#F1F1F1" height="206.4844" id="i" rx="2.5" ry="2.5" style="stroke:#181818;stroke-width:0.5;" width="315" x="371.5" y="99"/><ellipse cx="475.75" cy="115" fill="#B4A7E5" rx="11" ry="11" style="stroke:#181818;stroke-width:1.0;"/><path d="M476.7031,111.6406 L476.7031,118.2969 L478.4219,118.2969 Q479.0313,118.2969 479.2969,118.5313 Q479.5625,118.7656 479.5625,119.1563 Q479.5625,119.5313 479.2969,119.7656 Q479.0313,120 478.4219,120 L473.2813,120 Q472.6719,120 472.4063,119.7656 Q472.1406,119.5313 472.1406,119.1406 Q472.1406,118.7656 472.4063,118.5313 Q472.6719,118.2969 473.2813,118.2969 L475,118.2969 L475,111.6406 L473.2813,111.6406 Q472.6719,111.6406 472.4063,111.4063 Q472.1406,111.1719 472.1406,110.7813 Q472.1406,110.4063 472.4063,110.1719 Q472.6719,109.9375 473.2813,109.9375 L478.4219,109.9375 Q479.0313,109.9375 479.2969,110.1719 Q479.5625,110.4063 479.5625,110.7813 Q479.5625,111.1719 479.2969,111.4063 Q479.0313,111.6406 478.4219,111.6406 L476.7031,111.6406 Z " fill="#000000"/><text fill="#000000" font-family="sans-serif" font-size="14" font-style="italic" lengthAdjust="spacing" textLength="98" x="496.25" y="120.7285">Security Aspect</text><line style="stroke:#181818;stroke-width:0.5;" x1="372.5" x2="685.5" y1="131" y2="131"/><line style="stroke:#181818;stroke-width:0.5;" x1="372.5" x2="685.5" y1="139" y2="139"/><text fill="#000000" font-family="sans-serif" font-size="14" lengthAdjust="spacing" textLength="252" x="377.5" y="157.5332">/sabr/sa/securitymanager/authenticate()</text><text fill="#000000" font-family="sans-serif" font-size="14" lengthAdjust="spacing" textLength="303" x="377.5" y="175.1426">/sabr/sa/securitymanager/generatestreamkeys()</text><text fill="#000000" font-family="sans-serif" font-size="14" lengthAdjust="spacing" textLength="276" x="377.5" y="192.752">/sabr/sa/securitymanager/getbootstrapkey()</text><text fill="#000000" font-family="sans-serif" font-size="14" lengthAdjust="spacing" textLength="300" x="377.5" y="210.3613">/sabr/sa/securitymanager/getregistrationcreds()</text><text fill="#000000" font-family="sans-serif" font-size="14" lengthAdjust="spacing" textLength="266" x="377.5" y="227.9707">/sabr/sa/securitymanager/getstreamkeys()</text><text fill="#000000" font-family="sans-serif" font-size="14" lengthAdjust="spacing" textLength="265" x="377.5" y="245.5801">/sabr/sa/securitymanager/provisionentity()</text><text fill="#000000" font-family="sans-serif" font-size="14" lengthAdjust="spacing" textLength="256" x="377.5" y="263.1895">/sabr/sa/securitymanager/registerentity()</text><text fill="#000000" font-family="sans-serif" font-size="14" lengthAdjust="spacing" textLength="251" x="377.5" y="280.7988">/sabr/sa/securitymanager/requestkeys()</text><text fill="#000000" font-family="sans-serif" font-size="14" lengthAdjust="spacing" textLength="223" x="377.5" y="298.4082">/sabr/sa/securitymanager/validate()</text></g><!--class ModelName--><g id="elem_ModelName"><rect fill="#F1F1F1" height="48" id="ModelName" rx="2.5" ry="2.5" style="stroke:#181818;stroke-width:0.5;" width="106" x="22" y="776"/><ellipse cx="37" cy="792" fill="#ADD1B2" rx="11" ry="11" style="stroke:#181818;stroke-width:1.0;"/><path d="M39.7656,787.875 Q39.9219,787.6563 40.1094,787.5469 Q40.2969,787.4375 40.5156,787.4375 Q40.8906,787.4375 41.125,787.6953 Q41.3594,787.9531 41.3594,788.5625 L41.3594,790.0156 Q41.3594,790.625 41.125,790.8906 Q40.8906,791.1563 40.5156,791.1563 Q40.1719,791.1563 39.9688,790.9531 Q39.7656,790.7656 39.6563,790.25 Q39.6094,789.8906 39.4219,789.7031 Q39.0938,789.3281 38.4844,789.1094 Q37.875,788.8906 37.25,788.8906 Q36.4844,788.8906 35.8516,789.2188 Q35.2188,789.5469 34.7266,790.2969 Q34.2344,791.0469 34.2344,792.0781 L34.2344,793.1719 Q34.2344,794.4063 35.125,795.2266 Q36.0156,796.0469 37.6094,796.0469 Q38.5469,796.0469 39.2031,795.7969 Q39.5938,795.6406 40.0156,795.2031 Q40.2813,794.9375 40.4297,794.8594 Q40.5781,794.7813 40.7813,794.7813 Q41.1094,794.7813 41.3672,795.0391 Q41.625,795.2969 41.625,795.6406 Q41.625,795.9844 41.2813,796.3906 Q40.7813,796.9688 39.9844,797.2969 Q38.9063,797.75 37.6094,797.75 Q36.0938,797.75 34.8906,797.125 Q33.9063,796.625 33.2188,795.5547 Q32.5313,794.4844 32.5313,793.2031 L32.5313,792.0469 Q32.5313,790.7188 33.1484,789.5703 Q33.7656,788.4219 34.8594,787.8047 Q35.9531,787.1875 37.1875,787.1875 Q37.9219,787.1875 38.5703,787.3516 Q39.2188,787.5156 39.7656,787.875 Z " fill="#000000"/><text fill="#000000" font-family="sans-serif" font-size="14" lengthAdjust="spacing" textLength="74" x="51" y="797.7285">ModelName</text><line style="stroke:#181818;stroke-width:0.5;" x1="23" x2="127" y1="808" y2="808"/><line style="stroke:#181818;stroke-width:0.5;" x1="23" x2="127" y1="816" y2="816"/></g><!--class KeyStore--><g id="elem_KeyStore"><rect codeLine="64" fill="#F1F1F1" height="100.8281" id="KeyStore" rx="2.5" ry="2.5" style="stroke:#181818;stroke-width:0.5;" width="144" x="370" y="383"/><ellipse cx="409.3" cy="399" fill="#ADD1B2" rx="11" ry="11" style="stroke:#181818;stroke-width:1.0;"/><path d="M412.0656,394.875 Q412.2219,394.6563 412.4094,394.5469 Q412.5969,394.4375 412.8156,394.4375 Q413.1906,394.4375 413.425,394.6953 Q413.6594,394.9531 413.6594,395.5625 L413.6594,397.0156 Q413.6594,397.625 413.425,397.8906 Q413.1906,398.1563 412.8156,398.1563 Q412.4719,398.1563 412.2688,397.9531 Q412.0656,397.7656 411.9563,397.25 Q411.9094,396.8906 411.7219,396.7031 Q411.3938,396.3281 410.7844,396.1094 Q410.175,395.8906 409.55,395.8906 Q408.7844,395.8906 408.1516,396.2188 Q407.5188,396.5469 407.0266,397.2969 Q406.5344,398.0469 406.5344,399.0781 L406.5344,400.1719 Q406.5344,401.4063 407.425,402.2266 Q408.3156,403.0469 409.9094,403.0469 Q410.8469,403.0469 411.5031,402.7969 Q411.8938,402.6406 412.3156,402.2031 Q412.5813,401.9375 412.7297,401.8594 Q412.8781,401.7813 413.0813,401.7813 Q413.4094,401.7813 413.6672,402.0391 Q413.925,402.2969 413.925,402.6406 Q413.925,402.9844 413.5813,403.3906 Q413.0813,403.9688 412.2844,404.2969 Q411.2063,404.75 409.9094,404.75 Q408.3938,404.75 407.1906,404.125 Q406.2063,403.625 405.5188,402.5547 Q404.8313,401.4844 404.8313,400.2031 L404.8313,399.0469 Q404.8313,397.7188 405.4484,396.5703 Q406.0656,395.4219 407.1594,394.8047 Q408.2531,394.1875 409.4875,394.1875 Q410.2219,394.1875 410.8703,394.3516 Q411.5188,394.5156 412.0656,394.875 Z " fill="#000000"/><text fill="#000000" font-family="sans-serif" font-size="14" lengthAdjust="spacing" textLength="58" x="428.7" y="404.7285">KeyStore</text><line style="stroke:#181818;stroke-width:0.5;" x1="371" x2="513" y1="415" y2="415"/><text fill="#000000" font-family="sans-serif" font-size="14" lengthAdjust="spacing" textLength="74" x="376" y="433.5332">string name</text><text fill="#000000" font-family="sans-serif" font-size="14" lengthAdjust="spacing" textLength="132" x="376" y="451.1426">string encryptedData</text><line style="stroke:#181818;stroke-width:0.5;" x1="371" x2="513" y1="458.2188" y2="458.2188"/><text fill="#000000" font-family="sans-serif" font-size="14" lengthAdjust="spacing" textLength="57" x="376" y="476.752">encrypt()</text></g><!--class SecureVault--><g id="elem_SecureVault"><rect codeLine="72" fill="#F1F1F1" height="83.2188" id="SecureVault" rx="2.5" ry="2.5" style="stroke:#181818;stroke-width:0.5;" width="109" x="208.5" y="160.5"/><ellipse cx="223.5" cy="176.5" fill="#ADD1B2" rx="11" ry="11" style="stroke:#181818;stroke-width:1.0;"/><path d="M226.2656,172.375 Q226.4219,172.1563 226.6094,172.0469 Q226.7969,171.9375 227.0156,171.9375 Q227.3906,171.9375 227.625,172.1953 Q227.8594,172.4531 227.8594,173.0625 L227.8594,174.5156 Q227.8594,175.125 227.625,175.3906 Q227.3906,175.6563 227.0156,175.6563 Q226.6719,175.6563 226.4688,175.4531 Q226.2656,175.2656 226.1563,174.75 Q226.1094,174.3906 225.9219,174.2031 Q225.5938,173.8281 224.9844,173.6094 Q224.375,173.3906 223.75,173.3906 Q222.9844,173.3906 222.3516,173.7188 Q221.7188,174.0469 221.2266,174.7969 Q220.7344,175.5469 220.7344,176.5781 L220.7344,177.6719 Q220.7344,178.9063 221.625,179.7266 Q222.5156,180.5469 224.1094,180.5469 Q225.0469,180.5469 225.7031,180.2969 Q226.0938,180.1406 226.5156,179.7031 Q226.7813,179.4375 226.9297,179.3594 Q227.0781,179.2813 227.2813,179.2813 Q227.6094,179.2813 227.8672,179.5391 Q228.125,179.7969 228.125,180.1406 Q228.125,180.4844 227.7813,180.8906 Q227.2813,181.4688 226.4844,181.7969 Q225.4063,182.25 224.1094,182.25 Q222.5938,182.25 221.3906,181.625 Q220.4063,181.125 219.7188,180.0547 Q219.0313,178.9844 219.0313,177.7031 L219.0313,176.5469 Q219.0313,175.2188 219.6484,174.0703 Q220.2656,172.9219 221.3594,172.3047 Q222.4531,171.6875 223.6875,171.6875 Q224.4219,171.6875 225.0703,171.8516 Q225.7188,172.0156 226.2656,172.375 Z " fill="#000000"/><text fill="#000000" font-family="sans-serif" font-size="14" lengthAdjust="spacing" textLength="77" x="237.5" y="182.2285">SecureVault</text><line style="stroke:#181818;stroke-width:0.5;" x1="209.5" x2="316.5" y1="192.5" y2="192.5"/><text fill="#000000" font-family="sans-serif" font-size="14" lengthAdjust="spacing" textLength="74" x="214.5" y="211.0332">string name</text><line style="stroke:#181818;stroke-width:0.5;" x1="209.5" x2="316.5" y1="218.1094" y2="218.1094"/><text fill="#000000" font-family="sans-serif" font-size="14" lengthAdjust="spacing" textLength="57" x="214.5" y="236.6426">encrypt()</text></g><g id="elem_ilol10"><ellipse cx="484" cy="11" fill="#F1F1F1" rx="5" ry="5" style="stroke:#181818;stroke-width:1.5;"/></g><text fill="#000000" font-family="sans-serif" font-size="14" lengthAdjust="spacing" textLength="21" x="473.5" y="30.5332">CLI</text><g id="elem_ilol13"><ellipse cx="529" cy="11" fill="#F1F1F1" rx="5" ry="5" style="stroke:#181818;stroke-width:1.5;"/></g><text fill="#000000" font-family="sans-serif" font-size="14" lengthAdjust="spacing" textLength="37" x="510.5" y="30.5332">REST</text><g id="elem_ilol16"><ellipse cx="574" cy="11" fill="#F1F1F1" rx="5" ry="5" style="stroke:#181818;stroke-width:1.5;"/></g><text fill="#000000" font-family="sans-serif" font-size="14" lengthAdjust="spacing" textLength="29" x="559.5" y="30.5332">Web</text><!--link ilol10 to i--><g id="link_ilol10_i"><path d="M484.94,15.95 C487.68,27.45 496.01,62.44 504.7,98.95 " fill="none" id="ilol10-i" style="stroke:#181818;stroke-width:1.0;"/></g><!--link ilol13 to i--><g id="link_ilol13_i"><path d="M529,16.3 C529,28.14 529,62.74 529,98.83 " fill="none" id="ilol13-i" style="stroke:#181818;stroke-width:1.0;"/></g><!--link ilol16 to i--><g id="link_ilol16_i"><path d="M573.06,15.95 C570.32,27.45 561.99,62.44 553.3,98.95 " fill="none" id="ilol16-i" style="stroke:#181818;stroke-width:1.0;"/></g><!--link EncryptedVault to SecurityKey--><g id="link_EncryptedVault_SecurityKey"><path codeLine="55" d="M280.7388,486.4873 C287.2688,504.3073 291.59,513.96 301,532 C306.16,541.88 308.9084,546.9193 315.0584,556.7093 " fill="none" id="EncryptedVault-SecurityKey" style="stroke:#181818;stroke-width:1.0;"/><polygon fill="#181818" points="276.61,475.22,274.9186,482.2299,280.7388,486.4873,282.4302,479.4774,276.61,475.22" style="stroke:#181818;stroke-width:1.0;"/><polygon fill="#181818" points="318.25,561.79,316.8497,552.0412,315.5903,557.5561,310.0754,556.2967,318.25,561.79" style="stroke:#181818;stroke-width:1.0;"/><text fill="#000000" font-family="sans-serif" font-size="13" lengthAdjust="spacing" textLength="47" x="302" y="528.4951">streams</text><text fill="#000000" font-family="sans-serif" font-size="13" lengthAdjust="spacing" textLength="7" x="305.6445" y="550.9663">n</text></g><!--link JWT to ModelName--><g id="link_JWT_ModelName"><path codeLine="61" d="M69.8479,675.3797 C71.2179,708.3697 72.5693,740.7152 73.7893,769.8852 " fill="none" id="JWT-ModelName" style="stroke:#181818;stroke-width:1.0;"/><polygon fill="none" points="69.35,663.39,65.6024,669.5508,69.8479,675.3797,73.5955,669.2189,69.35,663.39" style="stroke:#181818;stroke-width:1.0;"/><polygon fill="#181818" points="74.04,775.88,77.6604,766.7207,73.8311,770.8844,69.6674,767.055,74.04,775.88" style="stroke:#181818;stroke-width:1.0;"/><text fill="#000000" font-family="sans-serif" font-size="13" lengthAdjust="spacing" textLength="42" x="74" y="742.4951">assoc1</text><text fill="#000000" font-family="sans-serif" font-size="13" lengthAdjust="spacing" textLength="7" x="65.8971" y="765.1894">1</text></g><!--link KeyStore to SecurityKey--><g id="link_KeyStore_SecurityKey"><path codeLine="69" d="M373.7579,493.647 C366.2579,502.667 367.38,503.39 363,514 C356.87,528.86 354.8269,539.7503 354.9969,555.9203 " fill="none" id="KeyStore-SecurityKey" style="stroke:#181818;stroke-width:1.0;"/><polygon fill="none" points="381.43,484.42,374.5182,486.4761,373.7579,493.647,380.6696,491.5909,381.43,484.42" style="stroke:#181818;stroke-width:1.0;"/><polygon fill="#181818" points="355.06,561.92,358.9652,552.8784,355.0074,556.9203,350.9656,552.9625,355.06,561.92" style="stroke:#181818;stroke-width:1.0;"/><text fill="#000000" font-family="sans-serif" font-size="13" lengthAdjust="spacing" textLength="28" x="364" y="528.4951">keys</text><text fill="#000000" font-family="sans-serif" font-size="13" lengthAdjust="spacing" textLength="7" x="346.4806" y="551.1105">n</text></g><!--link SecureVault to Seed--><g id="link_SecureVault_Seed"><path codeLine="76" d="M299.9408,252.9768 C316.3008,273.4068 330.57,288 354,305 C423.91,355.72 460.55,334.47 532,383 C542.91,390.41 549.3843,396.033 557.9943,405.083 " fill="none" id="SecureVault-Seed" style="stroke:#181818;stroke-width:1.0;"/><polygon fill="#181818" points="292.44,243.61,293.0681,250.7937,299.9408,252.9768,299.3127,245.7932,292.44,243.61" style="stroke:#181818;stroke-width:1.0;"/><polygon fill="#181818" points="562.13,409.43,558.8245,400.1524,558.6836,405.8075,553.0285,405.6666,562.13,409.43" style="stroke:#181818;stroke-width:1.0;"/><text fill="#000000" font-family="sans-serif" font-size="13" lengthAdjust="spacing" textLength="28" x="469" y="349.4951">seed</text><text fill="#000000" font-family="sans-serif" font-size="13" lengthAdjust="spacing" textLength="7" x="549.1414" y="398.7522">1</text></g><!--link SecureVault to WorkingEnclave--><g id="link_SecureVault_WorkingEnclave"><path codeLine="77" d="M225.0404,253.0626 C191.1904,297.7126 148.274,354.3081 117.134,395.3981 " fill="none" id="SecureVault-WorkingEnclave" style="stroke:#181818;stroke-width:1.0;"/><polygon fill="#181818" points="232.29,243.5,225.4777,245.8648,225.0404,253.0626,231.8527,250.6978,232.29,243.5" style="stroke:#181818;stroke-width:1.0;"/><polygon fill="#181818" points="113.51,400.18,122.1339,395.4231,116.53,396.1951,115.758,390.5911,113.51,400.18" style="stroke:#181818;stroke-width:1.0;"/><text fill="#000000" font-family="sans-serif" font-size="13" lengthAdjust="spacing" textLength="43" x="162" y="349.4951">enclave</text><text fill="#000000" font-family="sans-serif" font-size="13" lengthAdjust="spacing" textLength="7" x="110.6463" y="389.6133">1</text></g><!--link SecureVault to EncryptedVault--><g id="link_SecureVault_EncryptedVault"><path codeLine="78" d="M263,255.5 C263,297.19 263,343.8 263,385.63 " fill="none" id="SecureVault-EncryptedVault" style="stroke:#181818;stroke-width:1.0;"/><polygon fill="#181818" points="263,243.5,259,249.5,263,255.5,267,249.5,263,243.5" style="stroke:#181818;stroke-width:1.0;"/><polygon fill="#181818" points="263,391.63,267,382.63,263,386.63,259,382.63,263,391.63" style="stroke:#181818;stroke-width:1.0;"/><text fill="#000000" font-family="sans-serif" font-size="13" lengthAdjust="spacing" textLength="26" x="264" y="349.4951">vault</text><text fill="#000000" font-family="sans-serif" font-size="13" lengthAdjust="spacing" textLength="7" x="255.4422" y="381.1877">1</text></g><!--link Seed to Credential--><g id="link_Seed_Credential"><path codeLine="92" d="M586.3194,469.4897 C590.5894,504.0997 596.4655,551.7251 601.3055,590.9651 " fill="none" id="Seed-Credential" style="stroke:#181818;stroke-width:1.0;"/><polygon fill="#181818" points="584.85,457.58,581.6148,464.0246,586.3194,469.4897,589.5546,463.0451,584.85,457.58" style="stroke:#181818;stroke-width:1.0;"/><polygon fill="#181818" points="602.04,596.92,604.9082,587.498,601.4279,591.9576,596.9683,588.4774,602.04,596.92" style="stroke:#181818;stroke-width:1.0;"/><text fill="#000000" font-family="sans-serif" font-size="13" lengthAdjust="spacing" textLength="98" x="595" y="528.4951">registrationCreds</text><text fill="#000000" font-family="sans-serif" font-size="13" lengthAdjust="spacing" textLength="7" x="593.5014" y="586.0189">1</text></g><!--link Seed to SecurityKey--><g id="link_Seed_SecurityKey"><path codeLine="93" d="M550.6446,466.1952 C542.2246,474.5952 541.03,475.6 532,484 C495.29,518.14 457.2459,551.4057 424.3859,579.5657 " fill="none" id="Seed-SecurityKey" style="stroke:#181818;stroke-width:1.0;"/><polygon fill="#181818" points="559.14,457.72,552.0673,459.1258,550.6446,466.1952,557.7174,464.7894,559.14,457.72" style="stroke:#181818;stroke-width:1.0;"/><polygon fill="#181818" points="419.83,583.47,429.2668,580.6509,423.6266,580.2164,424.061,574.5763,419.83,583.47" style="stroke:#181818;stroke-width:1.0;"/><text fill="#000000" font-family="sans-serif" font-size="13" lengthAdjust="spacing" textLength="54" x="497" y="528.4951">bootstrap</text><text fill="#000000" font-family="sans-serif" font-size="13" lengthAdjust="spacing" textLength="7" x="427.5337" y="573.6581">1</text></g><!--link Seed to SecurityKey--><g id="link_Seed_SecurityKey"><path codeLine="94" d="M554.7683,466.3883 C546.1283,475.6583 543.47,477 532,484 C495.29,506.4 474.05,487.73 440,514 C423.46,526.76 412.7508,539.2714 401.6208,556.8414 " fill="none" id="Seed-SecurityKey-1" style="stroke:#181818;stroke-width:1.0;"/><polygon fill="#181818" points="562.95,457.61,555.933,459.2719,554.7683,466.3883,561.7852,464.7264,562.95,457.61" style="stroke:#181818;stroke-width:1.0;"/><polygon fill="#181818" points="398.41,561.91,406.6053,556.4476,401.0857,557.6862,399.8471,552.1666,398.41,561.91" style="stroke:#181818;stroke-width:1.0;"/><text fill="#000000" font-family="sans-serif" font-size="13" lengthAdjust="spacing" textLength="32" x="441" y="528.4951">uauth</text><text fill="#000000" font-family="sans-serif" font-size="13" lengthAdjust="spacing" textLength="7" x="394.572" y="551.0994">1</text></g><!--link WorkingEnclave to JWT--><g id="link_WorkingEnclave_JWT"><path codeLine="100" d="M65.9421,477.5413 C59.1321,491.6113 57.42,497.77 54,514 C48.2,541.55 51.549,567.5211 57.029,590.6911 " fill="none" id="WorkingEnclave-JWT" style="stroke:#181818;stroke-width:1.0;"/><polygon fill="none" points="71.17,466.74,64.9556,470.398,65.9421,477.5413,72.1565,473.8833,71.17,466.74" style="stroke:#181818;stroke-width:1.0;"/><polygon fill="#181818" points="58.41,596.53,60.2311,586.851,57.2592,591.6642,52.4459,588.6923,58.41,596.53" style="stroke:#181818;stroke-width:1.0;"/><text fill="#000000" font-family="sans-serif" font-size="13" lengthAdjust="spacing" textLength="32" x="55" y="528.4951">token</text><text fill="#000000" font-family="sans-serif" font-size="13" lengthAdjust="spacing" textLength="7" x="48.9147" y="586.1906">1</text></g><!--link WorkingEnclave to SecurityKey--><g id="link_WorkingEnclave_SecurityKey"><path codeLine="101" d="M121.7968,475.7765 C138.8768,496.2065 155.12,513.08 180,532 C221.02,563.2 268.0428,587.0905 306.7928,604.4205 " fill="none" id="WorkingEnclave-SecurityKey" style="stroke:#181818;stroke-width:1.0;"/><polygon fill="none" points="114.1,466.57,114.8796,473.7388,121.7968,475.7765,121.0172,468.6076,114.1,466.57" style="stroke:#181818;stroke-width:1.0;"/><polygon fill="#181818" points="312.27,606.87,305.6872,599.5442,307.7057,604.8287,302.4212,606.8471,312.27,606.87" style="stroke:#181818;stroke-width:1.0;"/><text fill="#000000" font-family="sans-serif" font-size="13" lengthAdjust="spacing" textLength="104" x="181" y="528.4951">authenticationKey</text><text fill="#000000" font-family="sans-serif" font-size="13" lengthAdjust="spacing" textLength="7" x="297.5797" y="600.2025">1</text></g><!--SRC=[hLPDRzim3BtxLmZUfHqG1BdwK618U-Yw5aNJBMV6vZB1ZkHAie5Wo7yVvTYfF-IlO3hOJlmeaezFf5C8OzWZypSOPegR8_kcKmoDpxwaNCJihyTe5HUxmWIqPXNs2OybmAwJ6uhH66OhLSp5_a7Gpnp7q0HJnzHWz0kon8oXrmeZ58P3CeRyldtlG4wUvwMZ31LGBWogtn2wWA0Ph-rjrrB3Jj5bgKlm0GHvKKl8p1yRS0W6RswdsUnHe2AyDWhX4EDHJxSqEoaD6K9ATZFC5EwvDJDSKa4mckDoVfofaZdNvCfIOoR7UGuIrLohZuoud1DV3WcFFYjMYeVai_xno6vk5ml6lRU7pNlrlCLTzJX1O4sX-f-QzbkgAXQnIwU95KNflctAtwjjspnOGrjZXRodb9qkBgk4jdWyTOnQf_hhOd77VE4tMat0pi9fPjN9WmxoKF1WZ5eDy59VjYV88fILpvvbXCaB79028KSoN0t7GI5lZ5Gu58oWxIRH3F-7vYgcCgiEmLRpmraLU1oLY3knQqAkEInbiVBFOuNqGBTUBqx3rgm9R1ZsQTukBRK6BBVt2SITYRvQ4THcilwtF1zcl1eJJvr6tu6y0bVEoZZImiYPJqyngMuN6cl3EM3rWRBkxLtTJPe2laopgwmpEts7ozWKq50b8ynvY3yVxoToqvBcfU_O9XGm8sCKlKdrsJRJgtrR4CdqdoDLExIyVm00]--></g></svg>