<?xml version="1.0" encoding="us-ascii" standalone="no"?><svg xmlns="http://www.w3.org/2000/svg" xmlns:xlink="http://www.w3.org/1999/xlink" contentStyleType="text/css" height="841px" preserveAspectRatio="none" style="width:211px;height:841px;background:#FFFFFF;" version="1.1" viewBox="0 0 211 841" width="211px" zoomAndPan="magnify"><defs/><g><path d="M19.5,142.5 L185.5,142.5 A12.5,12.5 0 0 1 198,155 L198,170.1094 L7,170.1094 L7,155 A12.5,12.5 0 0 1 19.5,142.5 " fill="#FFC0CB" style="stroke:#FFC0CB;stroke-width:1.0;"/><rect fill="none" height="693.2188" rx="12.5" ry="12.5" style="stroke:#181818;stroke-width:0.5;" width="191" x="7" y="142.5"/><line style="stroke:#181818;stroke-width:0.5;" x1="7" x2="198" y1="170.1094" y2="170.1094"/><text fill="#000000" font-family="sans-serif" font-size="14" lengthAdjust="spacing" textLength="15" x="95" y="162.0332">sa</text><path d="M31.5,182.1094 L176.5,182.1094 A12.5,12.5 0 0 1 189,194.6094 L189,209.7188 L19,209.7188 L19,194.6094 A12.5,12.5 0 0 1 31.5,182.1094 " fill="#FFC0CB" style="stroke:#FFC0CB;stroke-width:1.0;"/><rect fill="none" height="643.6094" rx="12.5" ry="12.5" style="stroke:#181818;stroke-width:0.5;" width="170" x="19" y="182.1094"/><line style="stroke:#181818;stroke-width:0.5;" x1="19" x2="189" y1="209.7188" y2="209.7188"/><text fill="#000000" font-family="sans-serif" font-size="14" lengthAdjust="spacing" textLength="105" x="51.5" y="201.6426">securitymanager</text><g id="sa.sasecuritymanager.sasecuritymanagerauthenticate"><rect fill="#FFC0CB" height="50" rx="12.5" ry="12.5" style="stroke:#181818;stroke-width:0.5;" width="98" x="56.5" y="765.7188"/><line style="stroke:#181818;stroke-width:0.5;" x1="56.5" x2="154.5" y1="793.3281" y2="793.3281"/><text fill="#000000" font-family="sans-serif" font-size="14" lengthAdjust="spacing" textLength="78" x="66.5" y="785.252">authenticate</text></g><g id="sa.sasecuritymanager.sasecuritymanagergeneratestreamkeys"><rect fill="#FFC0CB" height="50" rx="12.5" ry="12.5" style="stroke:#181818;stroke-width:0.5;" width="149" x="31" y="697.7188"/><line style="stroke:#181818;stroke-width:0.5;" x1="31" x2="180" y1="725.3281" y2="725.3281"/><text fill="#000000" font-family="sans-serif" font-size="14" lengthAdjust="spacing" textLength="129" x="41" y="717.252">generatestreamkeys</text></g><g id="sa.sasecuritymanager.sasecuritymanagergetbootstrapkey"><rect fill="#FFC0CB" height="50" rx="12.5" ry="12.5" style="stroke:#181818;stroke-width:0.5;" width="122" x="44.5" y="629.7188"/><line style="stroke:#181818;stroke-width:0.5;" x1="44.5" x2="166.5" y1="657.3281" y2="657.3281"/><text fill="#000000" font-family="sans-serif" font-size="14" lengthAdjust="spacing" textLength="102" x="54.5" y="649.252">getbootstrapkey</text></g><g id="sa.sasecuritymanager.sasecuritymanagergetregistrationcreds"><rect fill="#FFC0CB" height="50" rx="12.5" ry="12.5" style="stroke:#181818;stroke-width:0.5;" width="146" x="32.5" y="561.7188"/><line style="stroke:#181818;stroke-width:0.5;" x1="32.5" x2="178.5" y1="589.3281" y2="589.3281"/><text fill="#000000" font-family="sans-serif" font-size="14" lengthAdjust="spacing" textLength="126" x="42.5" y="581.252">getregistrationcreds</text></g><g id="sa.sasecuritymanager.sasecuritymanagergetstreamkeys"><rect fill="#FFC0CB" height="50" rx="12.5" ry="12.5" style="stroke:#181818;stroke-width:0.5;" width="112" x="49.5" y="493.7188"/><line style="stroke:#181818;stroke-width:0.5;" x1="49.5" x2="161.5" y1="521.3281" y2="521.3281"/><text fill="#000000" font-family="sans-serif" font-size="14" lengthAdjust="spacing" textLength="92" x="59.5" y="513.252">getstreamkeys</text></g><g id="sa.sasecuritymanager.sasecuritymanagerprovisionentity"><rect fill="#FFC0CB" height="50" rx="12.5" ry="12.5" style="stroke:#181818;stroke-width:0.5;" width="111" x="50" y="425.7188"/><line style="stroke:#181818;stroke-width:0.5;" x1="50" x2="161" y1="453.3281" y2="453.3281"/><text fill="#000000" font-family="sans-serif" font-size="14" lengthAdjust="spacing" textLength="91" x="60" y="445.252">provisionentity</text></g><g id="sa.sasecuritymanager.sasecuritymanagerregisterentity"><rect fill="#FFC0CB" height="50" rx="12.5" ry="12.5" style="stroke:#181818;stroke-width:0.5;" width="102" x="54.5" y="357.7188"/><line style="stroke:#181818;stroke-width:0.5;" x1="54.5" x2="156.5" y1="385.3281" y2="385.3281"/><text fill="#000000" font-family="sans-serif" font-size="14" lengthAdjust="spacing" textLength="82" x="64.5" y="377.252">registerentity</text></g><g id="sa.sasecuritymanager.sasecuritymanagerrequestkeys"><rect fill="#FFC0CB" height="50" rx="12.5" ry="12.5" style="stroke:#181818;stroke-width:0.5;" width="97" x="57" y="289.7188"/><line style="stroke:#181818;stroke-width:0.5;" x1="57" x2="154" y1="317.3281" y2="317.3281"/><text fill="#000000" font-family="sans-serif" font-size="14" lengthAdjust="spacing" textLength="77" x="67" y="309.252">requestkeys</text></g><g id="sa.sasecuritymanager.sasecuritymanagervalidate"><rect fill="#FFC0CB" height="50" rx="12.5" ry="12.5" style="stroke:#181818;stroke-width:0.5;" width="69" x="71" y="221.7188"/><line style="stroke:#181818;stroke-width:0.5;" x1="71" x2="140" y1="249.3281" y2="249.3281"/><text fill="#000000" font-family="sans-serif" font-size="14" lengthAdjust="spacing" textLength="49" x="81" y="241.252">validate</text></g><path d="M41,7 L164,7 A12.5,12.5 0 0 1 176.5,19.5 L176.5,34.6094 L28.5,34.6094 L28.5,19.5 A12.5,12.5 0 0 1 41,7 " fill="#FFC0CB" style="stroke:#FFC0CB;stroke-width:1.0;"/><rect fill="none" height="99.6094" rx="12.5" ry="12.5" style="stroke:#181818;stroke-width:0.5;" width="148" x="28.5" y="7"/><line style="stroke:#181818;stroke-width:0.5;" x1="28.5" x2="176.5" y1="34.6094" y2="34.6094"/><text fill="#000000" font-family="sans-serif" font-size="14" lengthAdjust="spacing" textLength="15" x="95" y="26.5332">sa</text><g id="pstatename.safunction"><rect fill="#F1F1F1" height="50" rx="12.5" ry="12.5" style="stroke:#181818;stroke-width:0.5;" width="127" x="40.5" y="46.6094"/><line style="stroke:#181818;stroke-width:0.5;" x1="40.5" x2="167.5" y1="74.2188" y2="74.2188"/><text fill="#000000" font-family="sans-serif" font-size="14" lengthAdjust="spacing" textLength="107" x="50.5" y="66.1426">Custom Function</text></g><!--SRC=[nPHH3e8m38RVEKMZHp7n7XKADig6NMTYZ7Ttu3G8J9-SVIlzs_zZPHofLb0BmirUeMAXKjcQeYYSeXAi7Au07JY4TSVc0DVYDYjsGsgmfPS8GaJHnZkrBMoz6KR7SNLCe_RMZuKOIUjdWKelh9SM3JOaKJLvEcr2htioocN8bZl6Yj7R3cY_PMl817ibfqBO7kZYbllckjoSkhDMWprsmJq5-IRAJYZKS6_UVrsbK9KyoxaoE-ltXUk_Tjs9FRCB9zDV2KtiUYBAI_XO7yadm7TDRhwJ3rSrlTsH82_P6OzS9V-3p-gCASGT]--></g></svg>