<?xml version="1.0" encoding="us-ascii" standalone="no"?><svg xmlns="http://www.w3.org/2000/svg" xmlns:xlink="http://www.w3.org/1999/xlink" contentStyleType="text/css" height="953px" preserveAspectRatio="none" style="width:442px;height:953px;background:#FFFFFF;" version="1.1" viewBox="0 0 442 953" width="442px" zoomAndPan="magnify"><defs/><g><!--cluster sabr--><g id="cluster_sabr"><path d="M8.5,6 L40.5,6 A3.75,3.75 0 0 1 43,8.5 L50,29.6094 L432.5,29.6094 A2.5,2.5 0 0 1 435,32.1094 L435,943.5 A2.5,2.5 0 0 1 432.5,946 L8.5,946 A2.5,2.5 0 0 1 6,943.5 L6,8.5 A2.5,2.5 0 0 1 8.5,6 " fill="none" style="stroke:#000000;stroke-width:1.5;"/><line style="stroke:#000000;stroke-width:1.5;" x1="6" x2="50" y1="29.6094" y2="29.6094"/><text fill="#000000" font-family="sans-serif" font-size="14" font-weight="bold" lengthAdjust="spacing" textLength="31" x="10" y="22.5332">sabr</text></g><!--cluster sabrsa--><g id="cluster_sabrsa"><path d="M32.5,50 L49.5,50 A3.75,3.75 0 0 1 52,52.5 L59,73.6094 L408.5,73.6094 A2.5,2.5 0 0 1 411,76.1094 L411,919.5 A2.5,2.5 0 0 1 408.5,922 L32.5,922 A2.5,2.5 0 0 1 30,919.5 L30,52.5 A2.5,2.5 0 0 1 32.5,50 " fill="#FFAAAA" style="stroke:#000000;stroke-width:1.5;"/><line style="stroke:#000000;stroke-width:1.5;" x1="30" x2="59" y1="73.6094" y2="73.6094"/><text fill="#000000" font-family="sans-serif" font-size="14" font-weight="bold" lengthAdjust="spacing" textLength="16" x="34" y="66.5332">sa</text></g><!--entity sabrsasecuritymanager--><g id="elem_sabrsasecuritymanager"><rect fill="#F1F1F1" height="47.6094" rx="2.5" ry="2.5" style="stroke:#181818;stroke-width:0.5;" width="145" x="46" y="472"/><rect fill="#F1F1F1" height="10" style="stroke:#181818;stroke-width:0.5;" width="15" x="171" y="477"/><rect fill="#F1F1F1" height="2" style="stroke:#181818;stroke-width:0.5;" width="4" x="169" y="479"/><rect fill="#F1F1F1" height="2" style="stroke:#181818;stroke-width:0.5;" width="4" x="169" y="483"/><text fill="#000000" font-family="sans-serif" font-size="14" lengthAdjust="spacing" textLength="105" x="61" y="506.5332">securitymanager</text></g><!--entity sabrsasecuritymanagerauthenticate--><g id="elem_sabrsasecuritymanagerauthenticate"><ellipse cx="323" cy="876" fill="#F1F1F1" rx="8" ry="8" style="stroke:#181818;stroke-width:0.5;"/><text fill="#000000" font-family="sans-serif" font-size="14" lengthAdjust="spacing" textLength="78" x="284" y="907.5332">authenticate</text></g><!--entity sabrsasecuritymanagergeneratestreamkeys--><g id="elem_sabrsasecuritymanagergeneratestreamkeys"><ellipse cx="323" cy="781" fill="#F1F1F1" rx="8" ry="8" style="stroke:#181818;stroke-width:0.5;"/><text fill="#000000" font-family="sans-serif" font-size="14" lengthAdjust="spacing" textLength="129" x="258.5" y="812.5332">generatestreamkeys</text></g><!--entity sabrsasecuritymanagergetbootstrapkey--><g id="elem_sabrsasecuritymanagergetbootstrapkey"><ellipse cx="323" cy="686" fill="#F1F1F1" rx="8" ry="8" style="stroke:#181818;stroke-width:0.5;"/><text fill="#000000" font-family="sans-serif" font-size="14" lengthAdjust="spacing" textLength="102" x="272" y="717.5332">getbootstrapkey</text></g><!--entity sabrsasecuritymanagergetregistrationcreds--><g id="elem_sabrsasecuritymanagergetregistrationcreds"><ellipse cx="323" cy="591" fill="#F1F1F1" rx="8" ry="8" style="stroke:#181818;stroke-width:0.5;"/><text fill="#000000" font-family="sans-serif" font-size="14" lengthAdjust="spacing" textLength="126" x="260" y="622.5332">getregistrationcreds</text></g><!--entity sabrsasecuritymanagergetstreamkeys--><g id="elem_sabrsasecuritymanagergetstreamkeys"><ellipse cx="323" cy="496" fill="#F1F1F1" rx="8" ry="8" style="stroke:#181818;stroke-width:0.5;"/><text fill="#000000" font-family="sans-serif" font-size="14" lengthAdjust="spacing" textLength="92" x="277" y="527.5332">getstreamkeys</text></g><!--entity sabrsasecuritymanagerprovisionentity--><g id="elem_sabrsasecuritymanagerprovisionentity"><ellipse cx="323" cy="401" fill="#F1F1F1" rx="8" ry="8" style="stroke:#181818;stroke-width:0.5;"/><text fill="#000000" font-family="sans-serif" font-size="14" lengthAdjust="spacing" textLength="91" x="277.5" y="432.5332">provisionentity</text></g><!--entity sabrsasecuritymanagerregisterentity--><g id="elem_sabrsasecuritymanagerregisterentity"><ellipse cx="323" cy="306" fill="#F1F1F1" rx="8" ry="8" style="stroke:#181818;stroke-width:0.5;"/><text fill="#000000" font-family="sans-serif" font-size="14" lengthAdjust="spacing" textLength="82" x="282" y="337.5332">registerentity</text></g><!--entity sabrsasecuritymanagerrequestkeys--><g id="elem_sabrsasecuritymanagerrequestkeys"><ellipse cx="323" cy="211" fill="#F1F1F1" rx="8" ry="8" style="stroke:#181818;stroke-width:0.5;"/><text fill="#000000" font-family="sans-serif" font-size="14" lengthAdjust="spacing" textLength="77" x="284.5" y="242.5332">requestkeys</text></g><!--entity sabrsasecuritymanagervalidate--><g id="elem_sabrsasecuritymanagervalidate"><ellipse cx="323" cy="116" fill="#F1F1F1" rx="8" ry="8" style="stroke:#181818;stroke-width:0.5;"/><text fill="#000000" font-family="sans-serif" font-size="14" lengthAdjust="spacing" textLength="49" x="298.5" y="147.5332">validate</text></g><!--link sabrsasecuritymanager to sabrsasecuritymanagerauthenticate--><g id="link_sabrsasecuritymanager_sabrsasecuritymanagerauthenticate"><path d="M123.94,520.18 C135.68,578.61 172.19,729.88 251,828 C268.7,850.04 299.24,865.8 313.81,872.47 " fill="none" id="sabrsasecuritymanager-sabrsasecuritymanagerauthenticate" style="stroke:#181818;stroke-width:1.0;"/></g><!--link sabrsasecuritymanager to sabrsasecuritymanagergeneratestreamkeys--><g id="link_sabrsasecuritymanager_sabrsasecuritymanagergeneratestreamkeys"><path d="M128.47,520.18 C146.3,565.85 189.83,666.2 251,733 C269.89,753.63 299.33,769.85 313.63,777.01 " fill="none" id="sabrsasecuritymanager-sabrsasecuritymanagergeneratestreamkeys" style="stroke:#181818;stroke-width:1.0;"/></g><!--link sabrsasecuritymanager to sabrsasecuritymanagergetbootstrapkey--><g id="link_sabrsasecuritymanager_sabrsasecuritymanagergetbootstrapkey"><path d="M138.94,520.19 C163.37,549.8 207.39,600.59 251,638 C272,656.02 299.97,673.19 313.69,681.24 " fill="none" id="sabrsasecuritymanager-sabrsasecuritymanagergetbootstrapkey" style="stroke:#181818;stroke-width:1.0;"/></g><!--link sabrsasecuritymanager to sabrsasecuritymanagergetregistrationcreds--><g id="link_sabrsasecuritymanager_sabrsasecuritymanagergetregistrationcreds"><path d="M170.86,520.1 C220.07,543.18 290.25,576.11 313.88,587.19 " fill="none" id="sabrsasecuritymanager-sabrsasecuritymanagergetregistrationcreds" style="stroke:#181818;stroke-width:1.0;"/></g><!--link sabrsasecuritymanager to sabrsasecuritymanagergetstreamkeys--><g id="link_sabrsasecuritymanager_sabrsasecuritymanagergetstreamkeys"><path d="M191.18,496 C237.6,496 293.11,496 313.75,496 " fill="none" id="sabrsasecuritymanager-sabrsasecuritymanagergetstreamkeys" style="stroke:#181818;stroke-width:1.0;"/></g><!--link sabrsasecuritymanager to sabrsasecuritymanagerprovisionentity--><g id="link_sabrsasecuritymanager_sabrsasecuritymanagerprovisionentity"><path d="M170.86,471.9 C220.07,448.82 290.25,415.89 313.88,404.81 " fill="none" id="sabrsasecuritymanager-sabrsasecuritymanagerprovisionentity" style="stroke:#181818;stroke-width:1.0;"/></g><!--link sabrsasecuritymanager to sabrsasecuritymanagerregisterentity--><g id="link_sabrsasecuritymanager_sabrsasecuritymanagerregisterentity"><path d="M138.64,471.81 C162.93,441.95 206.98,390.53 251,353 C271.92,335.16 299.92,318.43 313.67,310.62 " fill="none" id="sabrsasecuritymanager-sabrsasecuritymanagerregisterentity" style="stroke:#181818;stroke-width:1.0;"/></g><!--link sabrsasecuritymanager to sabrsasecuritymanagerrequestkeys--><g id="link_sabrsasecuritymanager_sabrsasecuritymanagerrequestkeys"><path d="M128.38,471.66 C146.07,425.7 189.36,324.77 251,258 C269.85,237.58 299.3,221.8 313.62,214.86 " fill="none" id="sabrsasecuritymanager-sabrsasecuritymanagerrequestkeys" style="stroke:#181818;stroke-width:1.0;"/></g><!--link sabrsasecuritymanager to sabrsasecuritymanagervalidate--><g id="link_sabrsasecuritymanager_sabrsasecuritymanagervalidate"><path d="M123.86,471.7 C135.42,412.98 171.55,261.03 251,163 C268.68,141.18 299.23,125.86 313.8,119.41 " fill="none" id="sabrsasecuritymanager-sabrsasecuritymanagervalidate" style="stroke:#181818;stroke-width:1.0;"/></g><!--SRC=[pPNTReCm38NlynHMTzs7SeEXLal275EfclRkCwtMyLDOerqivWObvrZ-B1lEL2je1E7cg52na5UEmJa75Xtw4pO4kuG7sG4c65xWmuqk7iS9uQskqS84u6FRnK11JKE-5zPhYy4yCZBCRXnmK98QlMN6NezcPuzAwvQnoZrLm7x_WlNJdlzdRYXONKf9XR0zqJMj6vVQJFud2KhfWXvYLAiBEojhgmKJOJR_r5qCl533GrN38dgXQdC8bkhyDYnJ5DEBrpP1_x04MjpyTn8ldFYMmoJhhfam4ttkBWF-Feialx5FTPdeCtCfvE-zVOotPtqaocR-SPO1VC4pLvj_zsz59kh3TkUSnXS0]--></g></svg>