<?xml version="1.0" encoding="UTF-8" standalone="no"?><svg xmlns="http://www.w3.org/2000/svg" xmlns:xlink="http://www.w3.org/1999/xlink" contentScriptType="application/ecmascript" contentStyleType="text/css" height="371px" preserveAspectRatio="none" style="width:776px;height:371px;" version="1.1" viewBox="0 0 776 371" width="776px" zoomAndPan="magnify"><defs><filter height="300%" id="f16uhexdh7mkhp" width="300%" x="-1" y="-1"><feGaussianBlur result="blurOut" stdDeviation="2.0"/><feColorMatrix in="blurOut" result="blurOut2" type="matrix" values="0 0 0 0 0 0 0 0 0 0 0 0 0 0 0 0 0 0 .4 0"/><feOffset dx="4.0" dy="4.0" in="blurOut2" result="blurOut3"/><feBlend in="SourceGraphic" in2="blurOut3" mode="normal"/></filter></defs><g><!--cluster Security Aspect--><polygon fill="#FFC0CB" filter="url(#f16uhexdh7mkhp)" points="22,24,137,24,144,47.6094,648,47.6094,648,249,22,249,22,24" style="stroke: #000000; stroke-width: 1.5;"/><line style="stroke: #000000; stroke-width: 1.5;" x1="22" x2="144" y1="47.6094" y2="47.6094"/><text fill="#000000" font-family="sans-serif" font-size="14" font-weight="bold" lengthAdjust="spacingAndGlyphs" textLength="109" x="26" y="40.5332">Security Aspect</text><!--class i--><rect fill="#FEFECE" filter="url(#f16uhexdh7mkhp)" height="172.5234" id="i" style="stroke: #A80036; stroke-width: 1.5;" width="246" x="386" y="60"/><ellipse cx="462.75" cy="76" fill="#B4A7E5" rx="11" ry="11" style="stroke: #A80036; stroke-width: 1.0;"/><path d="M463.7031,72.6406 L463.7031,79.2969 L465.4219,79.2969 Q466.0313,79.2969 466.2969,79.5313 Q466.5625,79.7656 466.5625,80.1563 Q466.5625,80.5313 466.2969,80.7656 Q466.0313,81 465.4219,81 L460.2813,81 Q459.6719,81 459.4063,80.7656 Q459.1406,80.5313 459.1406,80.1406 Q459.1406,79.7656 459.4063,79.5313 Q459.6719,79.2969 460.2813,79.2969 L462,79.2969 L462,72.6406 L460.2813,72.6406 Q459.6719,72.6406 459.4063,72.4063 Q459.1406,72.1719 459.1406,71.7813 Q459.1406,71.4063 459.4063,71.1719 Q459.6719,70.9375 460.2813,70.9375 L465.4219,70.9375 Q466.0313,70.9375 466.2969,71.1719 Q466.5625,71.4063 466.5625,71.7813 Q466.5625,72.1719 466.2969,72.4063 Q466.0313,72.6406 465.4219,72.6406 L463.7031,72.6406 Z "/><text fill="#000000" font-family="sans-serif" font-size="12" font-style="italic" lengthAdjust="spacingAndGlyphs" textLength="84" x="483.25" y="80.9102">Security Aspect</text><line style="stroke: #A80036; stroke-width: 1.5;" x1="387" x2="631" y1="92" y2="92"/><line style="stroke: #A80036; stroke-width: 1.5;" x1="387" x2="631" y1="100" y2="100"/><text fill="#000000" font-family="sans-serif" font-size="11" lengthAdjust="spacingAndGlyphs" textLength="194" x="392" y="115.4189">/sabr/sa/securitymanager/authenticate()</text><text fill="#000000" font-family="sans-serif" font-size="11" lengthAdjust="spacingAndGlyphs" textLength="234" x="392" y="129.2549">/sabr/sa/securitymanager/generatestreamkeys()</text><text fill="#000000" font-family="sans-serif" font-size="11" lengthAdjust="spacingAndGlyphs" textLength="213" x="392" y="143.0908">/sabr/sa/securitymanager/getbootstrapkey()</text><text fill="#000000" font-family="sans-serif" font-size="11" lengthAdjust="spacingAndGlyphs" textLength="232" x="392" y="156.9268">/sabr/sa/securitymanager/getregistrationcreds()</text><text fill="#000000" font-family="sans-serif" font-size="11" lengthAdjust="spacingAndGlyphs" textLength="206" x="392" y="170.7627">/sabr/sa/securitymanager/getstreamkeys()</text><text fill="#000000" font-family="sans-serif" font-size="11" lengthAdjust="spacingAndGlyphs" textLength="205" x="392" y="184.5986">/sabr/sa/securitymanager/provisionentity()</text><text fill="#000000" font-family="sans-serif" font-size="11" lengthAdjust="spacingAndGlyphs" textLength="198" x="392" y="198.4346">/sabr/sa/securitymanager/registerentity()</text><text fill="#000000" font-family="sans-serif" font-size="11" lengthAdjust="spacingAndGlyphs" textLength="195" x="392" y="212.2705">/sabr/sa/securitymanager/requestkeys()</text><text fill="#000000" font-family="sans-serif" font-size="11" lengthAdjust="spacingAndGlyphs" textLength="172" x="392" y="226.1064">/sabr/sa/securitymanager/validate()</text><!--entity Edge Security Controller--><rect fill="#FFFFFF" filter="url(#f16uhexdh7mkhp)" height="37.6094" style="stroke: #000000; stroke-width: 1.5;" width="174" x="177" y="127.5"/><text fill="#000000" font-family="sans-serif" font-size="14" lengthAdjust="spacingAndGlyphs" textLength="154" x="187" y="152.0332">Edge Security Controller</text><!--entity Key Manager--><rect fill="#FFFFFF" filter="url(#f16uhexdh7mkhp)" height="37.6094" style="stroke: #000000; stroke-width: 1.5;" width="104" x="38" y="127.5"/><text fill="#000000" font-family="sans-serif" font-size="14" lengthAdjust="spacingAndGlyphs" textLength="84" x="48" y="152.0332">Key Manager</text><!--entity REST--><ellipse cx="420" cy="326" fill="#FEFECE" filter="url(#f16uhexdh7mkhp)" rx="8" ry="8" style="stroke: #A80036; stroke-width: 2.0;"/><text fill="#000000" font-family="sans-serif" font-size="14" lengthAdjust="spacingAndGlyphs" textLength="37" x="401.5" y="357.5332">REST</text><!--entity Web--><ellipse cx="509" cy="326" fill="#FEFECE" filter="url(#f16uhexdh7mkhp)" rx="8" ry="8" style="stroke: #A80036; stroke-width: 2.0;"/><text fill="#000000" font-family="sans-serif" font-size="14" lengthAdjust="spacingAndGlyphs" textLength="29" x="494.5" y="357.5332">Web</text><!--entity CLI--><ellipse cx="598" cy="326" fill="#FEFECE" filter="url(#f16uhexdh7mkhp)" rx="8" ry="8" style="stroke: #A80036; stroke-width: 2.0;"/><text fill="#000000" font-family="sans-serif" font-size="14" lengthAdjust="spacingAndGlyphs" textLength="21" x="587.5" y="357.5332">CLI</text><!--entity WebSocket--><ellipse cx="728" cy="146.5" fill="#FEFECE" filter="url(#f16uhexdh7mkhp)" rx="8" ry="8" style="stroke: #A80036; stroke-width: 2.0;"/><text fill="#000000" font-family="sans-serif" font-size="14" lengthAdjust="spacingAndGlyphs" textLength="72" x="692" y="178.0332">WebSocket</text><!--link i to Web--><path d="M509,233.13 C509,266.8184 509,301.1064 509,316.5471 " fill="none" id="i-Web" style="stroke: #A80036; stroke-width: 1.0;"/><!--link i to CLI--><path d="M551.936,233.13 C568.827,266.8184 586.02,301.1064 593.762,316.5471 " fill="none" id="i-CLI" style="stroke: #A80036; stroke-width: 1.0;"/><!--link i to REST--><path d="M466.064,233.13 C449.173,266.8184 431.98,301.1064 424.238,316.5471 " fill="none" id="i-REST" style="stroke: #A80036; stroke-width: 1.0;"/><!--link i to WebSocket--><path d="M632.262,146.5 C668.638,146.5 702.955,146.5 718.812,146.5 " fill="none" id="i-WebSocket" style="stroke: #A80036; stroke-width: 1.0;"/><polygon fill="#000000" points="657.5,133.1758,651.5,136.1758,657.5,139.1758,657.5,133.1758" style="stroke: #000000; stroke-width: 1.0;"/><text fill="#000000" font-family="sans-serif" font-size="13" lengthAdjust="spacingAndGlyphs" textLength="37" x="663.5" y="139.9951">events</text><!--
@startuml


package "Security Aspect" #pink {

}


package "Security Aspect" #pink {

    interface "Security Aspect" as i {
    
            /sabr/sa/securitymanager/authenticate()
            /sabr/sa/securitymanager/generatestreamkeys()
            /sabr/sa/securitymanager/getbootstrapkey()
            /sabr/sa/securitymanager/getregistrationcreds()
            /sabr/sa/securitymanager/getstreamkeys()
            /sabr/sa/securitymanager/provisionentity()
            /sabr/sa/securitymanager/registerentity()
            /sabr/sa/securitymanager/requestkeys()
            /sabr/sa/securitymanager/validate()
    
    }
}

circle REST
circle Web
circle CLI
circle WebSocket

i -down- Web
i -down- CLI
i -down- REST
WebSocket -left- i: events >

package "Security Aspect" #pink {


rectangle "Edge Security Controller" #white {
}

rectangle "Key Manager" #white {
}

}



@enduml

PlantUML version 1.2019.05(Sat Apr 20 09:45:36 PDT 2019)
(GPL source distribution)
Java Runtime: Java(TM) SE Runtime Environment
JVM: Java HotSpot(TM) Client VM
Java Version: 1.8.0_271-b09
Operating System: Windows 10
OS Version: 10.0
Default Encoding: Cp1252
Language: en
Country: US
--></g></svg>