<?xml version="1.0" encoding="UTF-8" standalone="no"?><svg xmlns="http://www.w3.org/2000/svg" xmlns:xlink="http://www.w3.org/1999/xlink" contentScriptType="application/ecmascript" contentStyleType="text/css" height="261px" preserveAspectRatio="none" style="width:624px;height:261px;" version="1.1" viewBox="0 0 624 261" width="624px" zoomAndPan="magnify"><defs><filter height="300%" id="f1dyy24yfz85wx" width="300%" x="-1" y="-1"><feGaussianBlur result="blurOut" stdDeviation="2.0"/><feColorMatrix in="blurOut" result="blurOut2" type="matrix" values="0 0 0 0 0 0 0 0 0 0 0 0 0 0 0 0 0 0 .4 0"/><feOffset dx="4.0" dy="4.0" in="blurOut2" result="blurOut3"/><feBlend in="SourceGraphic" in2="blurOut3" mode="normal"/></filter></defs><g><!--cluster Service Management Layer--><polygon fill="#90EE90" filter="url(#f1dyy24yfz85wx)" points="277,42,474,42,481,65.6094,526,65.6094,526,158,277,158,277,42" style="stroke: #000000; stroke-width: 1.5;"/><line style="stroke: #000000; stroke-width: 1.5;" x1="277" x2="481" y1="65.6094" y2="65.6094"/><text fill="#000000" font-family="sans-serif" font-size="14" font-weight="bold" lengthAdjust="spacingAndGlyphs" textLength="191" x="281" y="58.5332">Service Management Layer</text><polygon fill="#FFFFE0" filter="url(#f1dyy24yfz85wx)" points="6,194,234,194,241,217.6094,248,217.6094,248,249.2188,6,249.2188,6,194" style="stroke: #000000; stroke-width: 1.5;"/><line style="stroke: #000000; stroke-width: 1.5;" x1="6" x2="241" y1="217.6094" y2="217.6094"/><text fill="#000000" font-family="sans-serif" font-size="14" font-weight="bold" lengthAdjust="spacingAndGlyphs" textLength="222" x="10" y="210.5332">Software Defined Infrastructure</text><polygon fill="#FFCC88" filter="url(#f1dyy24yfz85wx)" points="283.5,194,588.5,194,595.5,217.6094,602.5,217.6094,602.5,249.2188,283.5,249.2188,283.5,194" style="stroke: #000000; stroke-width: 1.5;"/><line style="stroke: #000000; stroke-width: 1.5;" x1="283.5" x2="595.5" y1="217.6094" y2="217.6094"/><text fill="#000000" font-family="sans-serif" font-size="14" font-weight="bold" lengthAdjust="spacingAndGlyphs" textLength="299" x="287.5" y="210.5332">Distributed Information Management Layer</text><!--class i--><rect fill="#FEFECE" filter="url(#f1dyy24yfz85wx)" height="48" id="i" style="stroke: #A80036; stroke-width: 1.5;" width="182" x="320" y="86"/><ellipse cx="335" cy="102" fill="#B4A7E5" rx="11" ry="11" style="stroke: #A80036; stroke-width: 1.0;"/><path d="M335.9531,98.6406 L335.9531,105.2969 L337.6719,105.2969 Q338.2813,105.2969 338.5469,105.5313 Q338.8125,105.7656 338.8125,106.1563 Q338.8125,106.5313 338.5469,106.7656 Q338.2813,107 337.6719,107 L332.5313,107 Q331.9219,107 331.6563,106.7656 Q331.3906,106.5313 331.3906,106.1406 Q331.3906,105.7656 331.6563,105.5313 Q331.9219,105.2969 332.5313,105.2969 L334.25,105.2969 L334.25,98.6406 L332.5313,98.6406 Q331.9219,98.6406 331.6563,98.4063 Q331.3906,98.1719 331.3906,97.7813 Q331.3906,97.4063 331.6563,97.1719 Q331.9219,96.9375 332.5313,96.9375 L337.6719,96.9375 Q338.2813,96.9375 338.5469,97.1719 Q338.8125,97.4063 338.8125,97.7813 Q338.8125,98.1719 338.5469,98.4063 Q338.2813,98.6406 337.6719,98.6406 L335.9531,98.6406 Z "/><text fill="#000000" font-family="sans-serif" font-size="12" font-style="italic" lengthAdjust="spacingAndGlyphs" textLength="150" x="349" y="106.9102">Service Management Layer</text><line style="stroke: #A80036; stroke-width: 1.5;" x1="321" x2="501" y1="118" y2="118"/><line style="stroke: #A80036; stroke-width: 1.5;" x1="321" x2="501" y1="126" y2="126"/><ellipse cx="366" cy="13" fill="#FEFECE" filter="url(#f1dyy24yfz85wx)" rx="5" ry="5" style="stroke: #A80036; stroke-width: 1.5;"/><text fill="#000000" font-family="sans-serif" font-size="12" lengthAdjust="spacingAndGlyphs" textLength="19" x="356.5" y="30.457">CLI</text><ellipse cx="411" cy="13" fill="#FEFECE" filter="url(#f1dyy24yfz85wx)" rx="5" ry="5" style="stroke: #A80036; stroke-width: 1.5;"/><text fill="#000000" font-family="sans-serif" font-size="12" lengthAdjust="spacingAndGlyphs" textLength="32" x="395" y="30.457">REST</text><ellipse cx="456" cy="13" fill="#FEFECE" filter="url(#f1dyy24yfz85wx)" rx="5" ry="5" style="stroke: #A80036; stroke-width: 1.5;"/><text fill="#000000" font-family="sans-serif" font-size="12" lengthAdjust="spacingAndGlyphs" textLength="25" x="443.5" y="30.457">Web</text><!--link ilol5416 to i--><path d="M367.934,18.082 C373.384,29.589 389.182,62.941 400.049,85.882 " fill="none" id="ilol5416-i" style="stroke: #A80036; stroke-width: 1.0;"/><!--link ilol5419 to i--><path d="M411,18.082 C411,29.589 411,62.941 411,85.882 " fill="none" id="ilol5419-i" style="stroke: #A80036; stroke-width: 1.0;"/><!--link ilol5422 to i--><path d="M454.066,18.082 C448.616,29.589 432.818,62.941 421.951,85.882 " fill="none" id="ilol5422-i" style="stroke: #A80036; stroke-width: 1.0;"/><!--link Service Management Layer to Software Defined Infrastructure--><path d="M276.7335,116.7286 C276.6388,116.7942 276.5434,116.8604 276.4472,116.927 C276.2549,117.0603 276.0598,117.1955 275.8618,117.3327 C275.4659,117.6071 275.0587,117.8893 274.6406,118.1791 C273.8043,118.7587 272.9243,119.3686 272.0029,120.0071 C264.6323,125.1154 254.6217,132.0531 243.2811,139.9126 C220.6,155.6315 192.599,175.0372 169.758,190.8667 " fill="none" id="Service Management Layer-Software Defined Infrastructure" style="stroke: #A80036; stroke-width: 1.0;"/><polygon fill="#A80036" points="165.405,193.8839,175.0809,192.0465,169.515,191.0365,170.525,185.4705,165.405,193.8839" style="stroke: #A80036; stroke-width: 1.0;"/><!--link Service Management Layer to Distributed Information Management Layer--><path d="M293.6218,158.1173 C293.6675,158.22 293.7134,158.3225 293.7595,158.4249 C294.1286,159.2444 294.5132,160.0568 294.9138,160.8604 C295.7151,162.4676 296.5807,164.0398 297.5157,165.5628 C299.3858,168.6089 301.5335,171.4586 304,174 C310.505,180.7022 318.001,186.4384 326.072,191.3478 " fill="none" id="Service Management Layer-Distributed Information Management Layer" style="stroke: #A80036; stroke-width: 1.0;"/><polygon fill="#A80036" points="330.612,193.9911,324.8468,186.006,326.291,191.4754,320.8216,192.9196,330.612,193.9911" style="stroke: #A80036; stroke-width: 1.0;"/><!--
@startuml


package "Software Defined Infrastructure" #lightyellow {
    }

package "Distributed Information Management Layer" #ffcc88 {
    }


package "Service Management Layer" #lightgreen {

    interface "Service Management Layer" as i {
    
    }
}

CLI ()- - i
REST ()- - i
Web ()- - i

package "Service Management Layer" #lightgreen {
    
}


    "Service Management Layer" - -> "Software Defined Infrastructure"

    "Service Management Layer" - -> "Distributed Information Management Layer"


@enduml

PlantUML version 1.2019.05(Sat Apr 20 09:45:36 PDT 2019)
(GPL source distribution)
Java Runtime: Java(TM) SE Runtime Environment
JVM: Java HotSpot(TM) Client VM
Java Version: 1.8.0_271-b09
Operating System: Windows 10
OS Version: 10.0
Default Encoding: Cp1252
Language: en
Country: US
--></g></svg>