<?xml version="1.0" encoding="us-ascii" standalone="no"?><svg xmlns="http://www.w3.org/2000/svg" xmlns:xlink="http://www.w3.org/1999/xlink" contentStyleType="text/css" height="254px" preserveAspectRatio="none" style="width:609px;height:254px;background:#FFFFFF;" version="1.1" viewBox="0 0 609 254" width="609px" zoomAndPan="magnify"><defs/><g><!--cluster Service Management Layer--><g id="cluster_Service Management Layer"><path d="M279.5,40 L471.5,40 A3.75,3.75 0 0 1 474,42.5 L481,63.6094 L547.5,63.6094 A2.5,2.5 0 0 1 550,66.1094 L550,153.5 A2.5,2.5 0 0 1 547.5,156 L279.5,156 A2.5,2.5 0 0 1 277,153.5 L277,42.5 A2.5,2.5 0 0 1 279.5,40 " fill="#90EE90" style="stroke:#000000;stroke-width:1.5;"/><line style="stroke:#000000;stroke-width:1.5;" x1="277" x2="481" y1="63.6094" y2="63.6094"/><text fill="#000000" font-family="sans-serif" font-size="14" font-weight="bold" lengthAdjust="spacing" textLength="191" x="281" y="56.5332">Service Management Layer</text></g><path d="M8.5,192 L231.5,192 A3.75,3.75 0 0 1 234,194.5 L241,215.6094 L245.5,215.6094 A2.5,2.5 0 0 1 248,218.1094 L248,244.7188 A2.5,2.5 0 0 1 245.5,247.2188 L8.5,247.2188 A2.5,2.5 0 0 1 6,244.7188 L6,194.5 A2.5,2.5 0 0 1 8.5,192 " fill="#FFFFE0" style="stroke:#181818;stroke-width:0.5;"/><line style="stroke:#181818;stroke-width:0.5;" x1="6" x2="241" y1="215.6094" y2="215.6094"/><text fill="#000000" font-family="sans-serif" font-size="14" font-weight="bold" lengthAdjust="spacing" textLength="222" x="10" y="208.5332">Software Defined Infrastructure</text><path d="M286,192 L586,192 A3.75,3.75 0 0 1 588.5,194.5 L595.5,215.6094 L600,215.6094 A2.5,2.5 0 0 1 602.5,218.1094 L602.5,244.7188 A2.5,2.5 0 0 1 600,247.2188 L286,247.2188 A2.5,2.5 0 0 1 283.5,244.7188 L283.5,194.5 A2.5,2.5 0 0 1 286,192 " fill="#FFCC88" style="stroke:#181818;stroke-width:0.5;"/><line style="stroke:#181818;stroke-width:0.5;" x1="283.5" x2="595.5" y1="215.6094" y2="215.6094"/><text fill="#000000" font-family="sans-serif" font-size="14" font-weight="bold" lengthAdjust="spacing" textLength="299" x="287.5" y="208.5332">Distributed Information Management Layer</text><!--class i--><g id="elem_i"><rect codeLine="12" fill="#F1F1F1" height="48" id="i" rx="2.5" ry="2.5" style="stroke:#181818;stroke-width:0.5;" width="205" x="320.5" y="84"/><ellipse cx="335.5" cy="100" fill="#B4A7E5" rx="11" ry="11" style="stroke:#181818;stroke-width:1.0;"/><path d="M336.4531,96.6406 L336.4531,103.2969 L338.1719,103.2969 Q338.7813,103.2969 339.0469,103.5313 Q339.3125,103.7656 339.3125,104.1563 Q339.3125,104.5313 339.0469,104.7656 Q338.7813,105 338.1719,105 L333.0313,105 Q332.4219,105 332.1563,104.7656 Q331.8906,104.5313 331.8906,104.1406 Q331.8906,103.7656 332.1563,103.5313 Q332.4219,103.2969 333.0313,103.2969 L334.75,103.2969 L334.75,96.6406 L333.0313,96.6406 Q332.4219,96.6406 332.1563,96.4063 Q331.8906,96.1719 331.8906,95.7813 Q331.8906,95.4063 332.1563,95.1719 Q332.4219,94.9375 333.0313,94.9375 L338.1719,94.9375 Q338.7813,94.9375 339.0469,95.1719 Q339.3125,95.4063 339.3125,95.7813 Q339.3125,96.1719 339.0469,96.4063 Q338.7813,96.6406 338.1719,96.6406 L336.4531,96.6406 Z " fill="#000000"/><text fill="#000000" font-family="sans-serif" font-size="14" font-style="italic" lengthAdjust="spacing" textLength="173" x="349.5" y="105.7285">Service Management Layer</text><line style="stroke:#181818;stroke-width:0.5;" x1="321.5" x2="524.5" y1="116" y2="116"/><line style="stroke:#181818;stroke-width:0.5;" x1="321.5" x2="524.5" y1="124" y2="124"/></g><g id="elem_ilol6"><ellipse cx="378" cy="11" fill="#F1F1F1" rx="5" ry="5" style="stroke:#181818;stroke-width:1.5;"/></g><text fill="#000000" font-family="sans-serif" font-size="14" lengthAdjust="spacing" textLength="21" x="367.5" y="30.5332">CLI</text><g id="elem_ilol9"><ellipse cx="423" cy="11" fill="#F1F1F1" rx="5" ry="5" style="stroke:#181818;stroke-width:1.5;"/></g><text fill="#000000" font-family="sans-serif" font-size="14" lengthAdjust="spacing" textLength="37" x="404.5" y="30.5332">REST</text><g id="elem_ilol12"><ellipse cx="468" cy="11" fill="#F1F1F1" rx="5" ry="5" style="stroke:#181818;stroke-width:1.5;"/></g><text fill="#000000" font-family="sans-serif" font-size="14" lengthAdjust="spacing" textLength="29" x="453.5" y="30.5332">Web</text><!--link ilol6 to i--><g id="link_ilol6_i"><path d="M379.93,16.08 C385.38,27.59 401.18,60.94 412.05,83.88 " fill="none" id="ilol6-i" style="stroke:#181818;stroke-width:1.0;"/></g><!--link ilol9 to i--><g id="link_ilol9_i"><path d="M423,16.08 C423,27.59 423,60.94 423,83.88 " fill="none" id="ilol9-i" style="stroke:#181818;stroke-width:1.0;"/></g><!--link ilol12 to i--><g id="link_ilol12_i"><path d="M466.07,16.08 C460.62,27.59 444.82,60.94 433.95,83.88 " fill="none" id="ilol12-i" style="stroke:#181818;stroke-width:1.0;"/></g><!--link Service Management Layer to Software Defined Infrastructure--><g id="link_Service Management Layer_Software Defined Infrastructure"><path codeLine="26" d="M276.8731,114.6329 C276.776,114.7002 276.6782,114.7679 276.5796,114.8362 C275.0023,115.9292 273.2294,117.1577 271.2836,118.5061 C263.5003,123.8997 252.9494,131.2119 241.0713,139.4438 C217.315,155.9075 193.1821,172.6332 170.3321,188.4632 " fill="none" id="Service Management Layer-to-Software Defined Infrastructure" style="stroke:#181818;stroke-width:1.0;"/><polygon fill="#181818" points="165.4,191.88,175.076,190.0428,169.5101,189.0326,170.5202,183.4667,165.4,191.88" style="stroke:#181818;stroke-width:1.0;"/></g><!--link Service Management Layer to Distributed Information Management Layer--><g id="link_Service Management Layer_Distributed Information Management Layer"><path codeLine="28" d="M293.6231,156.1183 C293.6688,156.2209 293.7146,156.3235 293.7608,156.4259 C294.1299,157.2453 294.5144,158.0576 294.9149,158.8612 C295.7161,160.4683 296.5816,162.0404 297.5165,163.5633 C299.3863,166.6092 301.5338,169.4588 304,172 C311.71,179.94 315.5686,183.6098 325.3686,189.0698 " fill="none" id="Service Management Layer-to-Distributed Information Management Layer" style="stroke:#181818;stroke-width:1.0;"/><polygon fill="#181818" points="330.61,191.99,324.6947,184.1154,326.2422,189.5565,320.8011,191.104,330.61,191.99" style="stroke:#181818;stroke-width:1.0;"/></g><!--SRC=[bP2n2i8m48RtFCLH5nsoTt9HXq9ThE1ynaizh8cSgQM8xswi5XVHckc7vFk_ovtG7B0aI0flGuD2C2VBZdQGEIju3bARK0ibCAgut8UMgietS5KGpqsfKy_FERxbRHsUg9SZ1lOEbkZY_P5SW1nRabXahJ5f-kvubnGa5pRq2UhifH2v27Oakq1YqNpby0pyChrqKJZBCnXFj0PMgqMnxlE6jdtyVwJEyFZC8toXj9x-NlQmbi4hL-eE]--></g></svg>