<?xml version="1.0" encoding="us-ascii" standalone="no"?><svg xmlns="http://www.w3.org/2000/svg" xmlns:xlink="http://www.w3.org/1999/xlink" contentStyleType="text/css" height="198px" preserveAspectRatio="none" style="width:168px;height:198px;background:#FFFFFF;" version="1.1" viewBox="0 0 168 198" width="168px" zoomAndPan="magnify"><defs/><g><g id="sml"><rect fill="#90EE90" height="50" rx="12.5" ry="12.5" style="stroke:#181818;stroke-width:0.5;" width="50" x="56" y="142"/><line style="stroke:#181818;stroke-width:0.5;" x1="56" x2="106" y1="169.6094" y2="169.6094"/><text fill="#000000" font-family="sans-serif" font-size="14" lengthAdjust="spacing" textLength="21" x="70.5" y="161.5332">sml</text></g><path d="M19.5,7 L142.5,7 A12.5,12.5 0 0 1 155,19.5 L155,34.6094 L7,34.6094 L7,19.5 A12.5,12.5 0 0 1 19.5,7 " fill="#90EE90" style="stroke:#90EE90;stroke-width:1.0;"/><rect fill="none" height="99.6094" rx="12.5" ry="12.5" style="stroke:#181818;stroke-width:0.5;" width="148" x="7" y="7"/><line style="stroke:#181818;stroke-width:0.5;" x1="7" x2="155" y1="34.6094" y2="34.6094"/><text fill="#000000" font-family="sans-serif" font-size="14" lengthAdjust="spacing" textLength="21" x="70.5" y="26.5332">sml</text><g id="pstatename.smlfunction"><rect fill="#F1F1F1" height="50" rx="12.5" ry="12.5" style="stroke:#181818;stroke-width:0.5;" width="127" x="19" y="46.6094"/><line style="stroke:#181818;stroke-width:0.5;" x1="19" x2="146" y1="74.2188" y2="74.2188"/><text fill="#000000" font-family="sans-serif" font-size="14" lengthAdjust="spacing" textLength="107" x="29" y="66.1426">Custom Function</text></g><!--SRC=[PSrD2e0W40NW_PpYKKS9keVKQ88_eUCgl7icjgdPF1vyl76i1HAHh3a4kqsyYOs1YB8eOKpPkmageoLczoYJc0CkgdzqzXwKvuz5ks6NaYLwh2NqJ- -u7dtWskU9RW00]--></g></svg>