<?xml version="1.0" encoding="UTF-8" standalone="no"?><svg xmlns="http://www.w3.org/2000/svg" xmlns:xlink="http://www.w3.org/1999/xlink" contentScriptType="application/ecmascript" contentStyleType="text/css" height="364px" preserveAspectRatio="none" style="width:833px;height:364px;" version="1.1" viewBox="0 0 833 364" width="833px" zoomAndPan="magnify"><defs><filter height="300%" id="f1x5dh46yj7p16" width="300%" x="-1" y="-1"><feGaussianBlur result="blurOut" stdDeviation="2.0"/><feColorMatrix in="blurOut" result="blurOut2" type="matrix" values="0 0 0 0 0 0 0 0 0 0 0 0 0 0 0 0 0 0 .4 0"/><feOffset dx="4.0" dy="4.0" in="blurOut2" result="blurOut3"/><feBlend in="SourceGraphic" in2="blurOut3" mode="normal"/></filter></defs><g><!--cluster Service Management Layer--><polygon fill="#90EE90" filter="url(#f1x5dh46yj7p16)" points="277,118,474,118,481,141.6094,713,141.6094,713,234,277,234,277,118" style="stroke: #000000; stroke-width: 1.5;"/><line style="stroke: #000000; stroke-width: 1.5;" x1="277" x2="481" y1="141.6094" y2="141.6094"/><text fill="#000000" font-family="sans-serif" font-size="14" font-weight="bold" lengthAdjust="spacingAndGlyphs" textLength="191" x="281" y="134.5332">Service Management Layer</text><polygon fill="#FFFFE0" filter="url(#f1x5dh46yj7p16)" points="6,8,234,8,241,31.6094,248,31.6094,248,63.2188,6,63.2188,6,8" style="stroke: #000000; stroke-width: 1.5;"/><line style="stroke: #000000; stroke-width: 1.5;" x1="6" x2="241" y1="31.6094" y2="31.6094"/><text fill="#000000" font-family="sans-serif" font-size="14" font-weight="bold" lengthAdjust="spacingAndGlyphs" textLength="222" x="10" y="24.5332">Software Defined Infrastructure</text><polygon fill="#FFCC88" filter="url(#f1x5dh46yj7p16)" points="283.5,8,588.5,8,595.5,31.6094,602.5,31.6094,602.5,63.2188,283.5,63.2188,283.5,8" style="stroke: #000000; stroke-width: 1.5;"/><line style="stroke: #000000; stroke-width: 1.5;" x1="283.5" x2="595.5" y1="31.6094" y2="31.6094"/><text fill="#000000" font-family="sans-serif" font-size="14" font-weight="bold" lengthAdjust="spacingAndGlyphs" textLength="299" x="287.5" y="24.5332">Distributed Information Management Layer</text><!--class i--><rect fill="#FEFECE" filter="url(#f1x5dh46yj7p16)" height="48" id="i" style="stroke: #A80036; stroke-width: 1.5;" width="182" x="507" y="162"/><ellipse cx="522" cy="178" fill="#B4A7E5" rx="11" ry="11" style="stroke: #A80036; stroke-width: 1.0;"/><path d="M522.9531,174.6406 L522.9531,181.2969 L524.6719,181.2969 Q525.2813,181.2969 525.5469,181.5313 Q525.8125,181.7656 525.8125,182.1563 Q525.8125,182.5313 525.5469,182.7656 Q525.2813,183 524.6719,183 L519.5313,183 Q518.9219,183 518.6563,182.7656 Q518.3906,182.5313 518.3906,182.1406 Q518.3906,181.7656 518.6563,181.5313 Q518.9219,181.2969 519.5313,181.2969 L521.25,181.2969 L521.25,174.6406 L519.5313,174.6406 Q518.9219,174.6406 518.6563,174.4063 Q518.3906,174.1719 518.3906,173.7813 Q518.3906,173.4063 518.6563,173.1719 Q518.9219,172.9375 519.5313,172.9375 L524.6719,172.9375 Q525.2813,172.9375 525.5469,173.1719 Q525.8125,173.4063 525.8125,173.7813 Q525.8125,174.1719 525.5469,174.4063 Q525.2813,174.6406 524.6719,174.6406 L522.9531,174.6406 Z "/><text fill="#000000" font-family="sans-serif" font-size="12" font-style="italic" lengthAdjust="spacingAndGlyphs" textLength="150" x="536" y="182.9102">Service Management Layer</text><line style="stroke: #A80036; stroke-width: 1.5;" x1="508" x2="688" y1="194" y2="194"/><line style="stroke: #A80036; stroke-width: 1.5;" x1="508" x2="688" y1="202" y2="202"/><!--entity Service Orchestrator--><rect fill="#FFFFFF" filter="url(#f1x5dh46yj7p16)" height="37.6094" style="stroke: #000000; stroke-width: 1.5;" width="151" x="320.5" y="167"/><text fill="#000000" font-family="sans-serif" font-size="14" lengthAdjust="spacingAndGlyphs" textLength="131" x="330.5" y="191.5332">Service Orchestrator</text><!--entity REST--><ellipse cx="509" cy="319" fill="#FEFECE" filter="url(#f1x5dh46yj7p16)" rx="8" ry="8" style="stroke: #A80036; stroke-width: 2.0;"/><text fill="#000000" font-family="sans-serif" font-size="14" lengthAdjust="spacingAndGlyphs" textLength="37" x="490.5" y="350.5332">REST</text><!--entity Web--><ellipse cx="598" cy="319" fill="#FEFECE" filter="url(#f1x5dh46yj7p16)" rx="8" ry="8" style="stroke: #A80036; stroke-width: 2.0;"/><text fill="#000000" font-family="sans-serif" font-size="14" lengthAdjust="spacingAndGlyphs" textLength="29" x="583.5" y="350.5332">Web</text><!--entity CLI--><ellipse cx="687" cy="319" fill="#FEFECE" filter="url(#f1x5dh46yj7p16)" rx="8" ry="8" style="stroke: #A80036; stroke-width: 2.0;"/><text fill="#000000" font-family="sans-serif" font-size="14" lengthAdjust="spacingAndGlyphs" textLength="21" x="676.5" y="350.5332">CLI</text><!--entity WebSocket--><ellipse cx="785" cy="186" fill="#FEFECE" filter="url(#f1x5dh46yj7p16)" rx="8" ry="8" style="stroke: #A80036; stroke-width: 2.0;"/><text fill="#000000" font-family="sans-serif" font-size="14" lengthAdjust="spacingAndGlyphs" textLength="72" x="749" y="217.5332">WebSocket</text><!--link i to Web--><path d="M598,210.119 C598,239.94 598,290.3024 598,309.8772 " fill="none" id="i-Web" style="stroke: #A80036; stroke-width: 1.0;"/><!--link i to CLI--><path d="M613.707,210.119 C633.967,239.94 668.183,290.3024 681.481,309.8772 " fill="none" id="i-CLI" style="stroke: #A80036; stroke-width: 1.0;"/><!--link i to REST--><path d="M582.293,210.119 C562.033,239.94 527.817,290.3024 514.519,309.8772 " fill="none" id="i-REST" style="stroke: #A80036; stroke-width: 1.0;"/><!--link i to WebSocket--><path d="M689.035,186 C724.145,186 759.72,186 775.936,186 " fill="none" id="i-WebSocket" style="stroke: #A80036; stroke-width: 1.0;"/><polygon fill="#000000" points="714.5,172.6758,708.5,175.6758,714.5,178.6758,714.5,172.6758" style="stroke: #000000; stroke-width: 1.0;"/><text fill="#000000" font-family="sans-serif" font-size="13" lengthAdjust="spacingAndGlyphs" textLength="37" x="720.5" y="179.4951">events</text><!--link Software Defined Infrastructure to Service Management Layer--><path d="M158.999,66.575 C181.7145,87.9245 212.576,116.9305 238.0704,140.892 C250.8176,152.8728 262.223,163.5924 270.5975,171.4633 C272.6911,173.431 274.5953,175.2206 276.2836,176.8075 C276.4947,177.0058 276.7023,177.201 276.9066,177.393 " fill="none" id="Software Defined Infrastructure-Service Management Layer" style="stroke: #A80036; stroke-width: 1.0;"/><polygon fill="#A80036" points="155.247,63.049,159.065,72.1277,158.8901,66.4736,164.5443,66.2987,155.247,63.049" style="stroke: #A80036; stroke-width: 1.0;"/><!--link Distributed Information Management Layer to Service Management Layer--><path d="M351.049,65.348 C333.311,74.593 316.413,86.578 304,102 C301.1266,105.5698 298.6705,109.492 296.5728,113.6291 C296.0484,114.6634 295.5463,115.7111 295.0658,116.7701 C294.9456,117.0348 294.8268,117.3003 294.7094,117.5664 C294.6506,117.6994 294.5922,117.8327 294.5341,117.966 " fill="none" id="Distributed Information Management Layer-Service Management Layer" style="stroke: #A80036; stroke-width: 1.0;"/><polygon fill="#A80036" points="355.575,63.057,345.7388,63.5557,351.1146,65.3165,349.3539,70.6923,355.575,63.057" style="stroke: #A80036; stroke-width: 1.0;"/><!--
@startuml


package "Software Defined Infrastructure" #lightyellow {

}

package "Distributed Information Management Layer" #ffcc88 {

}


package "Service Management Layer" #lightgreen {

    interface "Service Management Layer" as i {
    
    
    }
}

circle REST
circle Web
circle CLI
circle WebSocket

i -down- Web
i -down- CLI
i -down- REST
WebSocket -left- i: events >

package "Service Management Layer" #lightgreen {


rectangle "Service Orchestrator" #white {
}

}


    "Software Defined Infrastructure" <- - "Service Management Layer"

    "Distributed Information Management Layer" <- - "Service Management Layer"


@enduml

PlantUML version 1.2019.05(Sat Apr 20 09:45:36 PDT 2019)
(GPL source distribution)
Java Runtime: Java(TM) SE Runtime Environment
JVM: Java HotSpot(TM) Client VM
Java Version: 1.8.0_271-b09
Operating System: Windows 10
OS Version: 10.0
Default Encoding: Cp1252
Language: en
Country: US
--></g></svg>