<?xml version="1.0" encoding="us-ascii" standalone="no"?><svg xmlns="http://www.w3.org/2000/svg" xmlns:xlink="http://www.w3.org/1999/xlink" contentStyleType="text/css" height="357px" preserveAspectRatio="none" style="width:850px;height:357px;background:#FFFFFF;" version="1.1" viewBox="0 0 850 357" width="850px" zoomAndPan="magnify"><defs/><g><!--cluster Service Management Layer--><g id="cluster_Service Management Layer"><path d="M279.5,116 L471.5,116 A3.75,3.75 0 0 1 474,118.5 L481,139.6094 L733.5,139.6094 A2.5,2.5 0 0 1 736,142.1094 L736,229.5 A2.5,2.5 0 0 1 733.5,232 L279.5,232 A2.5,2.5 0 0 1 277,229.5 L277,118.5 A2.5,2.5 0 0 1 279.5,116 " fill="#90EE90" style="stroke:#000000;stroke-width:1.5;"/><line style="stroke:#000000;stroke-width:1.5;" x1="277" x2="481" y1="139.6094" y2="139.6094"/><text fill="#000000" font-family="sans-serif" font-size="14" font-weight="bold" lengthAdjust="spacing" textLength="191" x="281" y="132.5332">Service Management Layer</text></g><path d="M8.5,6 L231.5,6 A3.75,3.75 0 0 1 234,8.5 L241,29.6094 L245.5,29.6094 A2.5,2.5 0 0 1 248,32.1094 L248,58.7188 A2.5,2.5 0 0 1 245.5,61.2188 L8.5,61.2188 A2.5,2.5 0 0 1 6,58.7188 L6,8.5 A2.5,2.5 0 0 1 8.5,6 " fill="#FFFFE0" style="stroke:#181818;stroke-width:0.5;"/><line style="stroke:#181818;stroke-width:0.5;" x1="6" x2="241" y1="29.6094" y2="29.6094"/><text fill="#000000" font-family="sans-serif" font-size="14" font-weight="bold" lengthAdjust="spacing" textLength="222" x="10" y="22.5332">Software Defined Infrastructure</text><path d="M286,6 L586,6 A3.75,3.75 0 0 1 588.5,8.5 L595.5,29.6094 L600,29.6094 A2.5,2.5 0 0 1 602.5,32.1094 L602.5,58.7188 A2.5,2.5 0 0 1 600,61.2188 L286,61.2188 A2.5,2.5 0 0 1 283.5,58.7188 L283.5,8.5 A2.5,2.5 0 0 1 286,6 " fill="#FFCC88" style="stroke:#181818;stroke-width:0.5;"/><line style="stroke:#181818;stroke-width:0.5;" x1="283.5" x2="595.5" y1="29.6094" y2="29.6094"/><text fill="#000000" font-family="sans-serif" font-size="14" font-weight="bold" lengthAdjust="spacing" textLength="299" x="287.5" y="22.5332">Distributed Information Management Layer</text><!--class i--><g id="elem_i"><rect codeLine="14" fill="#F1F1F1" height="48" id="i" rx="2.5" ry="2.5" style="stroke:#181818;stroke-width:0.5;" width="205" x="506.5" y="160"/><ellipse cx="521.5" cy="176" fill="#B4A7E5" rx="11" ry="11" style="stroke:#181818;stroke-width:1.0;"/><path d="M522.4531,172.6406 L522.4531,179.2969 L524.1719,179.2969 Q524.7813,179.2969 525.0469,179.5313 Q525.3125,179.7656 525.3125,180.1563 Q525.3125,180.5313 525.0469,180.7656 Q524.7813,181 524.1719,181 L519.0313,181 Q518.4219,181 518.1563,180.7656 Q517.8906,180.5313 517.8906,180.1406 Q517.8906,179.7656 518.1563,179.5313 Q518.4219,179.2969 519.0313,179.2969 L520.75,179.2969 L520.75,172.6406 L519.0313,172.6406 Q518.4219,172.6406 518.1563,172.4063 Q517.8906,172.1719 517.8906,171.7813 Q517.8906,171.4063 518.1563,171.1719 Q518.4219,170.9375 519.0313,170.9375 L524.1719,170.9375 Q524.7813,170.9375 525.0469,171.1719 Q525.3125,171.4063 525.3125,171.7813 Q525.3125,172.1719 525.0469,172.4063 Q524.7813,172.6406 524.1719,172.6406 L522.4531,172.6406 Z " fill="#000000"/><text fill="#000000" font-family="sans-serif" font-size="14" font-style="italic" lengthAdjust="spacing" textLength="173" x="535.5" y="181.7285">Service Management Layer</text><line style="stroke:#181818;stroke-width:0.5;" x1="507.5" x2="710.5" y1="192" y2="192"/><line style="stroke:#181818;stroke-width:0.5;" x1="507.5" x2="710.5" y1="200" y2="200"/></g><!--entity Service Orchestrator--><g id="elem_Service Orchestrator"><rect fill="#FFFFFF" height="37.6094" rx="2.5" ry="2.5" style="stroke:#181818;stroke-width:0.5;" width="151" x="320.5" y="165"/><text fill="#000000" font-family="sans-serif" font-size="14" lengthAdjust="spacing" textLength="131" x="330.5" y="189.5332">Service Orchestrator</text></g><!--entity REST--><g id="elem_REST"><ellipse cx="520" cy="317" fill="#F1F1F1" rx="8" ry="8" style="stroke:#181818;stroke-width:0.5;"/><text fill="#000000" font-family="sans-serif" font-size="14" lengthAdjust="spacing" textLength="37" x="501.5" y="348.5332">REST</text></g><!--entity Web--><g id="elem_Web"><ellipse cx="609" cy="317" fill="#F1F1F1" rx="8" ry="8" style="stroke:#181818;stroke-width:0.5;"/><text fill="#000000" font-family="sans-serif" font-size="14" lengthAdjust="spacing" textLength="29" x="594.5" y="348.5332">Web</text></g><!--entity CLI--><g id="elem_CLI"><ellipse cx="698" cy="317" fill="#F1F1F1" rx="8" ry="8" style="stroke:#181818;stroke-width:0.5;"/><text fill="#000000" font-family="sans-serif" font-size="14" lengthAdjust="spacing" textLength="21" x="687.5" y="348.5332">CLI</text></g><!--entity WebSocket--><g id="elem_WebSocket"><ellipse cx="807" cy="184" fill="#F1F1F1" rx="8" ry="8" style="stroke:#181818;stroke-width:0.5;"/><text fill="#000000" font-family="sans-serif" font-size="14" lengthAdjust="spacing" textLength="72" x="771" y="215.5332">WebSocket</text></g><!--link i to Web--><g id="link_i_Web"><path codeLine="25" d="M609,208.12 C609,237.94 609,288.3 609,307.88 " fill="none" id="i-Web" style="stroke:#181818;stroke-width:1.0;"/></g><!--link i to CLI--><g id="link_i_CLI"><path codeLine="26" d="M624.71,208.12 C644.97,237.94 679.18,288.3 692.48,307.88 " fill="none" id="i-CLI" style="stroke:#181818;stroke-width:1.0;"/></g><!--link i to REST--><g id="link_i_REST"><path codeLine="27" d="M593.29,208.12 C573.03,237.94 538.82,288.3 525.52,307.88 " fill="none" id="i-REST" style="stroke:#181818;stroke-width:1.0;"/></g><!--link i to WebSocket--><g id="link_i_WebSocket"><path codeLine="28" d="M711.77,184 C747.18,184 781.94,184 797.91,184 " fill="none" id="i-WebSocket" style="stroke:#181818;stroke-width:1.0;"/><polygon fill="#000000" points="728.75,172.1758,737.7951,175.1147,737.7951,169.2369,728.75,172.1758" style="stroke:#000000;stroke-width:1.0;"/><text fill="#000000" font-family="sans-serif" font-size="13" lengthAdjust="spacing" textLength="37" x="742.75" y="177.4951">events</text></g><!--reverse link Software Defined Infrastructure to Service Management Layer--><g id="link_Software Defined Infrastructure_Service Management Layer"><path codeLine="39" d="M159.6216,65.1597 C181.9866,86.1847 209.395,111.945 235.905,136.86 C249.16,149.3175 261.0975,160.5363 269.8819,168.7913 C272.078,170.855 274.077,172.7335 275.8503,174.3998 C276.0719,174.6081 276.2901,174.8131 276.5046,175.0147 C276.6119,175.1155 276.7183,175.2155 276.8237,175.3146 " fill="none" id="Software Defined Infrastructure-backto-Service Management Layer" style="stroke:#181818;stroke-width:1.0;"/><polygon fill="#181818" points="155.25,61.05,159.0676,70.1289,158.893,64.4747,164.5471,64.3001,155.25,61.05" style="stroke:#181818;stroke-width:1.0;"/></g><!--reverse link Distributed Information Management Layer to Service Management Layer--><g id="link_Distributed Information Management Layer_Service Management Layer"><path codeLine="41" d="M350.1869,63.7099 C330.8269,73.2399 317.47,83.27 304,100 C301.1263,103.57 298.6698,107.4925 296.5719,111.6298 C296.0474,112.6641 295.5453,113.7119 295.0646,114.7709 C294.9445,115.0356 294.8257,115.3011 294.7082,115.5672 C294.6495,115.7003 294.591,115.8335 294.533,115.9669 " fill="none" id="Distributed Information Management Layer-backto-Service Management Layer" style="stroke:#181818;stroke-width:1.0;"/><polygon fill="#181818" points="355.57,61.06,345.7287,61.446,351.084,63.2682,349.2619,68.6236,355.57,61.06" style="stroke:#181818;stroke-width:1.0;"/></g><!--SRC=[dP5DQyCm38Rl_XMYE_jUnjXbtQ7GCLW6Ewkkd8YcTb6KXZBotsUdJTh3QCTyC9RzFgy-l4UtnP9WLaIl7Gh1WZm7si0oUC56fNNQ2itWeUQoqYFLTUpWsvZUcFq8BpW9UTtgYOkoG-KOu0r3UjzHK5ZXaIIvUE_SV7usk3WK90Tsz1inv2s5A6GAqkAW91xTJGuRu0Ha_MNhSrR7ucg2ZzVYSpn_qNeylgoMLxT5T5jIOnZi9dR13iefoDef6Fmc16nDNYtm8z0XbTN0yt_QDK9ECPJr5VGkhg8qSDIOWQvYfQJjJoFDRTx_pIThRrHnTldxjzwp-m40]--></g></svg>