<?xml version="1.0" encoding="UTF-8" standalone="no"?><svg xmlns="http://www.w3.org/2000/svg" xmlns:xlink="http://www.w3.org/1999/xlink" contentScriptType="application/ecmascript" contentStyleType="text/css" height="261px" preserveAspectRatio="none" style="width:840px;height:261px;" version="1.1" viewBox="0 0 840 261" width="840px" zoomAndPan="magnify"><defs><filter height="300%" id="f1tk2n3vueiboi" width="300%" x="-1" y="-1"><feGaussianBlur result="blurOut" stdDeviation="2.0"/><feColorMatrix in="blurOut" result="blurOut2" type="matrix" values="0 0 0 0 0 0 0 0 0 0 0 0 0 0 0 0 0 0 .4 0"/><feOffset dx="4.0" dy="4.0" in="blurOut2" result="blurOut3"/><feBlend in="SourceGraphic" in2="blurOut3" mode="normal"/></filter></defs><g><!--cluster Distributed Information Management Layer--><polygon fill="#FFCC88" filter="url(#f1tk2n3vueiboi)" points="483,42,788,42,795,65.6094,818,65.6094,818,158,483,158,483,42" style="stroke: #000000; stroke-width: 1.5;"/><line style="stroke: #000000; stroke-width: 1.5;" x1="483" x2="795" y1="65.6094" y2="65.6094"/><text fill="#000000" font-family="sans-serif" font-size="14" font-weight="bold" lengthAdjust="spacingAndGlyphs" textLength="299" x="487" y="58.5332">Distributed Information Management Layer</text><polygon fill="#FFFFE0" filter="url(#f1tk2n3vueiboi)" points="6,194,234,194,241,217.6094,248,217.6094,248,249.2188,6,249.2188,6,194" style="stroke: #000000; stroke-width: 1.5;"/><line style="stroke: #000000; stroke-width: 1.5;" x1="6" x2="241" y1="217.6094" y2="217.6094"/><text fill="#000000" font-family="sans-serif" font-size="14" font-weight="bold" lengthAdjust="spacingAndGlyphs" textLength="222" x="10" y="210.5332">Software Defined Infrastructure</text><polygon fill="#90EE90" filter="url(#f1tk2n3vueiboi)" points="283.5,194,480.5,194,487.5,217.6094,494.5,217.6094,494.5,249.2188,283.5,249.2188,283.5,194" style="stroke: #000000; stroke-width: 1.5;"/><line style="stroke: #000000; stroke-width: 1.5;" x1="283.5" x2="487.5" y1="217.6094" y2="217.6094"/><text fill="#000000" font-family="sans-serif" font-size="14" font-weight="bold" lengthAdjust="spacingAndGlyphs" textLength="191" x="287.5" y="210.5332">Service Management Layer</text><polygon fill="#FFC0CB" filter="url(#f1tk2n3vueiboi)" points="529.5,194,644.5,194,651.5,217.6094,658.5,217.6094,658.5,249.2188,529.5,249.2188,529.5,194" style="stroke: #000000; stroke-width: 1.5;"/><line style="stroke: #000000; stroke-width: 1.5;" x1="529.5" x2="651.5" y1="217.6094" y2="217.6094"/><text fill="#000000" font-family="sans-serif" font-size="14" font-weight="bold" lengthAdjust="spacingAndGlyphs" textLength="109" x="533.5" y="210.5332">Security Aspect</text><polygon fill="#FFBBBB" filter="url(#f1tk2n3vueiboi)" points="694,194,804,194,811,217.6094,818,217.6094,818,249.2188,694,249.2188,694,194" style="stroke: #000000; stroke-width: 1.5;"/><line style="stroke: #000000; stroke-width: 1.5;" x1="694" x2="811" y1="217.6094" y2="217.6094"/><text fill="#000000" font-family="sans-serif" font-size="14" font-weight="bold" lengthAdjust="spacingAndGlyphs" textLength="104" x="698" y="210.5332">Identity Aspect</text><!--class i--><rect fill="#FEFECE" filter="url(#f1tk2n3vueiboi)" height="48" id="i" style="stroke: #A80036; stroke-width: 1.5;" width="267" x="526.5" y="86"/><ellipse cx="541.5" cy="102" fill="#B4A7E5" rx="11" ry="11" style="stroke: #A80036; stroke-width: 1.0;"/><path d="M542.4531,98.6406 L542.4531,105.2969 L544.1719,105.2969 Q544.7813,105.2969 545.0469,105.5313 Q545.3125,105.7656 545.3125,106.1563 Q545.3125,106.5313 545.0469,106.7656 Q544.7813,107 544.1719,107 L539.0313,107 Q538.4219,107 538.1563,106.7656 Q537.8906,106.5313 537.8906,106.1406 Q537.8906,105.7656 538.1563,105.5313 Q538.4219,105.2969 539.0313,105.2969 L540.75,105.2969 L540.75,98.6406 L539.0313,98.6406 Q538.4219,98.6406 538.1563,98.4063 Q537.8906,98.1719 537.8906,97.7813 Q537.8906,97.4063 538.1563,97.1719 Q538.4219,96.9375 539.0313,96.9375 L544.1719,96.9375 Q544.7813,96.9375 545.0469,97.1719 Q545.3125,97.4063 545.3125,97.7813 Q545.3125,98.1719 545.0469,98.4063 Q544.7813,98.6406 544.1719,98.6406 L542.4531,98.6406 Z "/><text fill="#000000" font-family="sans-serif" font-size="12" font-style="italic" lengthAdjust="spacingAndGlyphs" textLength="235" x="555.5" y="106.9102">Distributed Information Management Layer</text><line style="stroke: #A80036; stroke-width: 1.5;" x1="527.5" x2="792.5" y1="118" y2="118"/><line style="stroke: #A80036; stroke-width: 1.5;" x1="527.5" x2="792.5" y1="126" y2="126"/><ellipse cx="615" cy="13" fill="#FEFECE" filter="url(#f1tk2n3vueiboi)" rx="5" ry="5" style="stroke: #A80036; stroke-width: 1.5;"/><text fill="#000000" font-family="sans-serif" font-size="12" lengthAdjust="spacingAndGlyphs" textLength="19" x="605.5" y="30.457">CLI</text><ellipse cx="660" cy="13" fill="#FEFECE" filter="url(#f1tk2n3vueiboi)" rx="5" ry="5" style="stroke: #A80036; stroke-width: 1.5;"/><text fill="#000000" font-family="sans-serif" font-size="12" lengthAdjust="spacingAndGlyphs" textLength="32" x="644" y="30.457">REST</text><ellipse cx="705" cy="13" fill="#FEFECE" filter="url(#f1tk2n3vueiboi)" rx="5" ry="5" style="stroke: #A80036; stroke-width: 1.5;"/><text fill="#000000" font-family="sans-serif" font-size="12" lengthAdjust="spacingAndGlyphs" textLength="25" x="692.5" y="30.457">Web</text><!--link ilol3046 to i--><path d="M616.934,18.082 C622.384,29.589 638.182,62.941 649.049,85.882 " fill="none" id="ilol3046-i" style="stroke: #A80036; stroke-width: 1.0;"/><!--link ilol3049 to i--><path d="M660,18.082 C660,29.589 660,62.941 660,85.882 " fill="none" id="ilol3049-i" style="stroke: #A80036; stroke-width: 1.0;"/><!--link ilol3054 to i--><path d="M703.066,18.082 C697.616,29.589 681.818,62.941 670.951,85.882 " fill="none" id="ilol3054-i" style="stroke: #A80036; stroke-width: 1.0;"/><!--link Distributed Information Management Layer to Software Defined Infrastructure--><path d="M482.6079,113.5247 C477.6602,115.0131 470.6772,117.1137 462.0693,119.7032 C444.8537,124.8821 421.1388,132.0161 394.2096,140.117 C340.3513,156.3189 273.6355,176.3886 220.341,192.4208 " fill="none" id="Distributed Information Management Layer-Software Defined Infrastructure" style="stroke: #A80036; stroke-width: 1.0;"/><polygon fill="#A80036" points="215.307,193.9352,225.078,195.171,220.0947,192.4938,222.7719,187.5106,215.307,193.9352" style="stroke: #A80036; stroke-width: 1.0;"/><!--link Distributed Information Management Layer to Service Management Layer--><path d="M482.9431,119.6489 C482.8706,119.7267 482.7977,119.805 482.7244,119.8837 C478.0318,124.9214 471.6556,131.7664 464.4213,139.5328 C449.9525,155.0656 432.051,174.2836 417.32,190.098 " fill="none" id="Distributed Information Management Layer-Service Management Layer" style="stroke: #A80036; stroke-width: 1.0;"/><polygon fill="#A80036" points="413.793,193.8839,422.8543,190.0248,417.201,190.2253,417.0006,184.572,413.793,193.8839" style="stroke: #A80036; stroke-width: 1.0;"/><!--link Distributed Information Management Layer to Security Aspect--><path d="M500.6819,158.0385 C500.7263,158.1427 500.7708,158.2468 500.8156,158.3509 C500.9052,158.5589 500.9956,158.7667 501.0868,158.9741 C501.2692,159.3889 501.4548,159.8023 501.6439,160.2141 C502.4001,161.8613 503.2099,163.4828 504.0771,165.0658 C505.8116,168.2319 507.7758,171.2442 510,174 C515.115,180.3375 521.338,185.9497 528.058,190.8827 " fill="none" id="Distributed Information Management Layer-Security Aspect" style="stroke: #A80036; stroke-width: 1.0;"/><polygon fill="#A80036" points="532.302,193.8668,527.2404,185.4181,528.2118,190.991,522.639,191.9624,532.302,193.8668" style="stroke: #A80036; stroke-width: 1.0;"/><!--link Distributed Information Management Layer to Identity Aspect--><path d="M498.3951,158.0743 C498.5796,158.4792 498.7684,158.882 498.9618,159.2822 C499.3485,160.0828 499.7531,160.8736 500.1766,161.6527 C501.0234,163.211 501.9453,164.7226 502.9488,166.1721 C504.9557,169.0711 507.2889,171.7215 510,174 C538.445,197.9049 639.739,185.8956 676,194 C680.208,194.9404 684.507,196.0155 688.821,197.1818 " fill="none" id="Distributed Information Management Layer-Identity Aspect" style="stroke: #A80036; stroke-width: 1.0;"/><polygon fill="#A80036" points="693.886,198.5902,686.2872,192.3246,689.0689,197.2502,684.1432,200.032,693.886,198.5902" style="stroke: #A80036; stroke-width: 1.0;"/><!--
@startuml


package "Software Defined Infrastructure" #lightyellow {
    }

package "Service Management Layer" #lightgreen {
    }

package "Security Aspect" #pink {
    }

package "Identity Aspect" #ffbbbb {
    }


package "Distributed Information Management Layer" #ffcc88 {

    interface "Distributed Information Management Layer" as i {
    
    }
}

CLI ()- - i
REST ()- - i
Web ()- - i

package "Distributed Information Management Layer" #ffcc88 {
    
}


    "Distributed Information Management Layer" - -> "Software Defined Infrastructure"

    "Distributed Information Management Layer" - -> "Service Management Layer"

    "Distributed Information Management Layer" - -> "Security Aspect"

    "Distributed Information Management Layer" - -> "Identity Aspect"


@enduml

PlantUML version 1.2019.05(Sat Apr 20 09:45:36 PDT 2019)
(GPL source distribution)
Java Runtime: Java(TM) SE Runtime Environment
JVM: Java HotSpot(TM) Client VM
Java Version: 1.8.0_271-b09
Operating System: Windows 10
OS Version: 10.0
Default Encoding: Cp1252
Language: en
Country: US
--></g></svg>