<?xml version="1.0" encoding="us-ascii" standalone="no"?><svg xmlns="http://www.w3.org/2000/svg" xmlns:xlink="http://www.w3.org/1999/xlink" contentStyleType="text/css" height="254px" preserveAspectRatio="none" style="width:859px;height:254px;background:#FFFFFF;" version="1.1" viewBox="0 0 859 254" width="859px" zoomAndPan="magnify"><defs/><g><!--cluster Distributed Information Management Layer--><g id="cluster_Distributed Information Management Layer"><path d="M485.5,40 L785.5,40 A3.75,3.75 0 0 1 788,42.5 L795,63.6094 L849.5,63.6094 A2.5,2.5 0 0 1 852,66.1094 L852,153.5 A2.5,2.5 0 0 1 849.5,156 L485.5,156 A2.5,2.5 0 0 1 483,153.5 L483,42.5 A2.5,2.5 0 0 1 485.5,40 " fill="#FFCC88" style="stroke:#000000;stroke-width:1.5;"/><line style="stroke:#000000;stroke-width:1.5;" x1="483" x2="795" y1="63.6094" y2="63.6094"/><text fill="#000000" font-family="sans-serif" font-size="14" font-weight="bold" lengthAdjust="spacing" textLength="299" x="487" y="56.5332">Distributed Information Management Layer</text></g><path d="M8.5,192 L231.5,192 A3.75,3.75 0 0 1 234,194.5 L241,215.6094 L245.5,215.6094 A2.5,2.5 0 0 1 248,218.1094 L248,244.7188 A2.5,2.5 0 0 1 245.5,247.2188 L8.5,247.2188 A2.5,2.5 0 0 1 6,244.7188 L6,194.5 A2.5,2.5 0 0 1 8.5,192 " fill="#FFFFE0" style="stroke:#181818;stroke-width:0.5;"/><line style="stroke:#181818;stroke-width:0.5;" x1="6" x2="241" y1="215.6094" y2="215.6094"/><text fill="#000000" font-family="sans-serif" font-size="14" font-weight="bold" lengthAdjust="spacing" textLength="222" x="10" y="208.5332">Software Defined Infrastructure</text><path d="M286,192 L478,192 A3.75,3.75 0 0 1 480.5,194.5 L487.5,215.6094 L492,215.6094 A2.5,2.5 0 0 1 494.5,218.1094 L494.5,244.7188 A2.5,2.5 0 0 1 492,247.2188 L286,247.2188 A2.5,2.5 0 0 1 283.5,244.7188 L283.5,194.5 A2.5,2.5 0 0 1 286,192 " fill="#90EE90" style="stroke:#181818;stroke-width:0.5;"/><line style="stroke:#181818;stroke-width:0.5;" x1="283.5" x2="487.5" y1="215.6094" y2="215.6094"/><text fill="#000000" font-family="sans-serif" font-size="14" font-weight="bold" lengthAdjust="spacing" textLength="191" x="287.5" y="208.5332">Service Management Layer</text><path d="M532,192 L642,192 A3.75,3.75 0 0 1 644.5,194.5 L651.5,215.6094 L656,215.6094 A2.5,2.5 0 0 1 658.5,218.1094 L658.5,244.7188 A2.5,2.5 0 0 1 656,247.2188 L532,247.2188 A2.5,2.5 0 0 1 529.5,244.7188 L529.5,194.5 A2.5,2.5 0 0 1 532,192 " fill="#FFC0CB" style="stroke:#181818;stroke-width:0.5;"/><line style="stroke:#181818;stroke-width:0.5;" x1="529.5" x2="651.5" y1="215.6094" y2="215.6094"/><text fill="#000000" font-family="sans-serif" font-size="14" font-weight="bold" lengthAdjust="spacing" textLength="109" x="533.5" y="208.5332">Security Aspect</text><path d="M696.5,192 L801.5,192 A3.75,3.75 0 0 1 804,194.5 L811,215.6094 L815.5,215.6094 A2.5,2.5 0 0 1 818,218.1094 L818,244.7188 A2.5,2.5 0 0 1 815.5,247.2188 L696.5,247.2188 A2.5,2.5 0 0 1 694,244.7188 L694,194.5 A2.5,2.5 0 0 1 696.5,192 " fill="#FFBBBB" style="stroke:#181818;stroke-width:0.5;"/><line style="stroke:#181818;stroke-width:0.5;" x1="694" x2="811" y1="215.6094" y2="215.6094"/><text fill="#000000" font-family="sans-serif" font-size="14" font-weight="bold" lengthAdjust="spacing" textLength="104" x="698" y="208.5332">Identity Aspect</text><!--class i--><g id="elem_i"><rect codeLine="18" fill="#F1F1F1" height="48" id="i" rx="2.5" ry="2.5" style="stroke:#181818;stroke-width:0.5;" width="302" x="526" y="84"/><ellipse cx="541" cy="100" fill="#B4A7E5" rx="11" ry="11" style="stroke:#181818;stroke-width:1.0;"/><path d="M541.9531,96.6406 L541.9531,103.2969 L543.6719,103.2969 Q544.2813,103.2969 544.5469,103.5313 Q544.8125,103.7656 544.8125,104.1563 Q544.8125,104.5313 544.5469,104.7656 Q544.2813,105 543.6719,105 L538.5313,105 Q537.9219,105 537.6563,104.7656 Q537.3906,104.5313 537.3906,104.1406 Q537.3906,103.7656 537.6563,103.5313 Q537.9219,103.2969 538.5313,103.2969 L540.25,103.2969 L540.25,96.6406 L538.5313,96.6406 Q537.9219,96.6406 537.6563,96.4063 Q537.3906,96.1719 537.3906,95.7813 Q537.3906,95.4063 537.6563,95.1719 Q537.9219,94.9375 538.5313,94.9375 L543.6719,94.9375 Q544.2813,94.9375 544.5469,95.1719 Q544.8125,95.4063 544.8125,95.7813 Q544.8125,96.1719 544.5469,96.4063 Q544.2813,96.6406 543.6719,96.6406 L541.9531,96.6406 Z " fill="#000000"/><text fill="#000000" font-family="sans-serif" font-size="14" font-style="italic" lengthAdjust="spacing" textLength="270" x="555" y="105.7285">Distributed Information Management Layer</text><line style="stroke:#181818;stroke-width:0.5;" x1="527" x2="827" y1="116" y2="116"/><line style="stroke:#181818;stroke-width:0.5;" x1="527" x2="827" y1="124" y2="124"/></g><g id="elem_ilol8"><ellipse cx="632" cy="11" fill="#F1F1F1" rx="5" ry="5" style="stroke:#181818;stroke-width:1.5;"/></g><text fill="#000000" font-family="sans-serif" font-size="14" lengthAdjust="spacing" textLength="21" x="621.5" y="30.5332">CLI</text><g id="elem_ilol11"><ellipse cx="677" cy="11" fill="#F1F1F1" rx="5" ry="5" style="stroke:#181818;stroke-width:1.5;"/></g><text fill="#000000" font-family="sans-serif" font-size="14" lengthAdjust="spacing" textLength="37" x="658.5" y="30.5332">REST</text><g id="elem_ilol14"><ellipse cx="722" cy="11" fill="#F1F1F1" rx="5" ry="5" style="stroke:#181818;stroke-width:1.5;"/></g><text fill="#000000" font-family="sans-serif" font-size="14" lengthAdjust="spacing" textLength="29" x="707.5" y="30.5332">Web</text><!--link ilol8 to i--><g id="link_ilol8_i"><path d="M633.93,16.08 C639.38,27.59 655.18,60.94 666.05,83.88 " fill="none" id="ilol8-i" style="stroke:#181818;stroke-width:1.0;"/></g><!--link ilol11 to i--><g id="link_ilol11_i"><path d="M677,16.08 C677,27.59 677,60.94 677,83.88 " fill="none" id="ilol11-i" style="stroke:#181818;stroke-width:1.0;"/></g><!--link ilol14 to i--><g id="link_ilol14_i"><path d="M720.07,16.08 C714.62,27.59 698.82,60.94 687.95,83.88 " fill="none" id="ilol14-i" style="stroke:#181818;stroke-width:1.0;"/></g><!--link Distributed Information Management Layer to Software Defined Infrastructure--><g id="link_Distributed Information Management Layer_Software Defined Infrastructure"><path codeLine="32" d="M482.8378,111.4544 C482.6828,111.501 482.5257,111.5483 482.3666,111.5961 C477.2748,113.1279 470.0894,115.2895 461.2406,117.9516 C443.5431,123.2756 419.1925,130.6013 391.6325,138.8925 C336.5125,155.475 274.3006,174.1913 221.0556,190.2113 " fill="none" id="Distributed Information Management Layer-to-Software Defined Infrastructure" style="stroke:#181818;stroke-width:1.0;"/><polygon fill="#181818" points="215.31,191.94,225.0808,193.1773,220.098,190.4994,222.7759,185.5166,215.31,191.94" style="stroke:#181818;stroke-width:1.0;"/></g><!--link Distributed Information Management Layer to Service Management Layer--><g id="link_Distributed Information Management Layer_Service Management Layer"><path codeLine="34" d="M482.8384,117.7604 C482.7625,117.8418 482.6862,117.9237 482.6094,118.0061 C482.4559,118.1709 482.3006,118.3375 482.1436,118.5061 C477.1184,123.8997 470.3069,131.2119 462.6388,139.4438 C447.3025,155.9075 432.6303,171.6603 417.8803,187.4903 " fill="none" id="Distributed Information Management Layer-to-Service Management Layer" style="stroke:#181818;stroke-width:1.0;"/><polygon fill="#181818" points="413.79,191.88,422.8519,188.0222,417.1985,188.2219,416.9989,182.5686,413.79,191.88" style="stroke:#181818;stroke-width:1.0;"/></g><!--link Distributed Information Management Layer to Security Aspect--><g id="link_Distributed Information Management Layer_Security Aspect"><path codeLine="36" d="M500.6838,156.0375 C500.7281,156.1416 500.7727,156.2458 500.8175,156.3498 C500.907,156.5579 500.9974,156.7656 501.0886,156.973 C501.271,157.3879 501.4566,157.8013 501.6456,158.2131 C502.4017,159.8603 503.2113,161.4818 504.0784,163.065 C505.8125,166.2313 507.7763,169.2438 510,172 C516.18,179.65 518.9961,182.8943 527.3261,188.5143 " fill="none" id="Distributed Information Management Layer-to-Security Aspect" style="stroke:#181818;stroke-width:1.0;"/><polygon fill="#181818" points="532.3,191.87,527.0764,183.5205,528.1551,189.0736,522.6021,190.1523,532.3,191.87" style="stroke:#181818;stroke-width:1.0;"/></g><!--link Distributed Information Management Layer to Identity Aspect--><g id="link_Distributed Information Management Layer_Identity Aspect"><path codeLine="38" d="M498.3943,156.0738 C498.5788,156.4787 498.7677,156.8814 498.961,157.2817 C499.3478,158.0823 499.7525,158.8731 500.1759,159.6522 C501.0228,161.2105 501.9448,162.7221 502.9484,164.1716 C504.9555,167.0706 507.2888,169.7213 510,172 C538.44,195.9 639.74,183.9 676,192 C681.85,193.31 682.1198,193.2355 688.1198,194.9455 " fill="none" id="Distributed Information Management Layer-to-Identity Aspect" style="stroke:#181818;stroke-width:1.0;"/><polygon fill="#181818" points="693.89,196.59,686.331,190.2764,689.0815,195.2196,684.1383,197.97,693.89,196.59" style="stroke:#181818;stroke-width:1.0;"/></g><!--SRC=[fP9FYy903CNlyoc2Uz53xvu4KGy5lQYmvtJCr62TbZHTAOlVtV5FLrmgOitf3RpyveMaGBl3bA2tofqUK0YcvDZJ1cBl14kLocebr8ElZDEjrfHb-G5-3OGw6bFyzPFyi2LOe0_lFNc5ETOaJMCgHBwrprR2MiEuBCXgi1ViTot6U1EO3qRdab1twzqxvH2SaqglS-IoH-NSjuLppjhXC40k5FPAuj2-nS0I-9RY5YM4cSnZw0-Y2DWiPwjrexyfQUHdSI-_dOS-YpS8KJHwlUoEr6Sdq1NtU1dTAF_FnfWJ]--></g></svg>