<?xml version="1.0" encoding="UTF-8" standalone="no"?><svg xmlns="http://www.w3.org/2000/svg" xmlns:xlink="http://www.w3.org/1999/xlink" contentScriptType="application/ecmascript" contentStyleType="text/css" height="398px" preserveAspectRatio="none" style="width:1037px;height:398px;" version="1.1" viewBox="0 0 1037 398" width="1037px" zoomAndPan="magnify"><defs><filter height="300%" id="f1fo885o2f1gox" width="300%" x="-1" y="-1"><feGaussianBlur result="blurOut" stdDeviation="2.0"/><feColorMatrix in="blurOut" result="blurOut2" type="matrix" values="0 0 0 0 0 0 0 0 0 0 0 0 0 0 0 0 0 0 .4 0"/><feOffset dx="4.0" dy="4.0" in="blurOut2" result="blurOut3"/><feBlend in="SourceGraphic" in2="blurOut3" mode="normal"/></filter></defs><g><!--cluster Distributed Information Management Layer--><polygon fill="#FFCC88" filter="url(#f1fo885o2f1gox)" points="30,135,335,135,342,158.6094,621,158.6094,621,386,30,386,30,135" style="stroke: #000000; stroke-width: 1.5;"/><line style="stroke: #000000; stroke-width: 1.5;" x1="30" x2="342" y1="158.6094" y2="158.6094"/><text fill="#000000" font-family="sans-serif" font-size="14" font-weight="bold" lengthAdjust="spacingAndGlyphs" textLength="299" x="34" y="151.5332">Distributed Information Management Layer</text><polygon fill="#FFFFE0" filter="url(#f1fo885o2f1gox)" points="269,8,497,8,504,31.6094,511,31.6094,511,63.2188,269,63.2188,269,8" style="stroke: #000000; stroke-width: 1.5;"/><line style="stroke: #000000; stroke-width: 1.5;" x1="269" x2="504" y1="31.6094" y2="31.6094"/><text fill="#000000" font-family="sans-serif" font-size="14" font-weight="bold" lengthAdjust="spacingAndGlyphs" textLength="222" x="273" y="24.5332">Software Defined Infrastructure</text><polygon fill="#90EE90" filter="url(#f1fo885o2f1gox)" points="546.5,8,743.5,8,750.5,31.6094,757.5,31.6094,757.5,63.2188,546.5,63.2188,546.5,8" style="stroke: #000000; stroke-width: 1.5;"/><line style="stroke: #000000; stroke-width: 1.5;" x1="546.5" x2="750.5" y1="31.6094" y2="31.6094"/><text fill="#000000" font-family="sans-serif" font-size="14" font-weight="bold" lengthAdjust="spacingAndGlyphs" textLength="191" x="550.5" y="24.5332">Service Management Layer</text><polygon fill="#FFC0CB" filter="url(#f1fo885o2f1gox)" points="734.5,310.5,849.5,310.5,856.5,334.1094,863.5,334.1094,863.5,365.7188,734.5,365.7188,734.5,310.5" style="stroke: #000000; stroke-width: 1.5;"/><line style="stroke: #000000; stroke-width: 1.5;" x1="734.5" x2="856.5" y1="334.1094" y2="334.1094"/><text fill="#000000" font-family="sans-serif" font-size="14" font-weight="bold" lengthAdjust="spacingAndGlyphs" textLength="109" x="738.5" y="327.0332">Security Aspect</text><polygon fill="#FFBBBB" filter="url(#f1fo885o2f1gox)" points="793,8,903,8,910,31.6094,917,31.6094,917,63.2188,793,63.2188,793,8" style="stroke: #000000; stroke-width: 1.5;"/><line style="stroke: #000000; stroke-width: 1.5;" x1="793" x2="910" y1="31.6094" y2="31.6094"/><text fill="#000000" font-family="sans-serif" font-size="14" font-weight="bold" lengthAdjust="spacingAndGlyphs" textLength="104" x="797" y="24.5332">Identity Aspect</text><!--class i--><rect fill="#FEFECE" filter="url(#f1fo885o2f1gox)" height="48" id="i" style="stroke: #A80036; stroke-width: 1.5;" width="267" x="310.5" y="199"/><ellipse cx="325.5" cy="215" fill="#B4A7E5" rx="11" ry="11" style="stroke: #A80036; stroke-width: 1.0;"/><path d="M326.4531,211.6406 L326.4531,218.2969 L328.1719,218.2969 Q328.7813,218.2969 329.0469,218.5313 Q329.3125,218.7656 329.3125,219.1563 Q329.3125,219.5313 329.0469,219.7656 Q328.7813,220 328.1719,220 L323.0313,220 Q322.4219,220 322.1563,219.7656 Q321.8906,219.5313 321.8906,219.1406 Q321.8906,218.7656 322.1563,218.5313 Q322.4219,218.2969 323.0313,218.2969 L324.75,218.2969 L324.75,211.6406 L323.0313,211.6406 Q322.4219,211.6406 322.1563,211.4063 Q321.8906,211.1719 321.8906,210.7813 Q321.8906,210.4063 322.1563,210.1719 Q322.4219,209.9375 323.0313,209.9375 L328.1719,209.9375 Q328.7813,209.9375 329.0469,210.1719 Q329.3125,210.4063 329.3125,210.7813 Q329.3125,211.1719 329.0469,211.4063 Q328.7813,211.6406 328.1719,211.6406 L326.4531,211.6406 Z "/><text fill="#000000" font-family="sans-serif" font-size="12" font-style="italic" lengthAdjust="spacingAndGlyphs" textLength="235" x="339.5" y="219.9102">Distributed Information Management Layer</text><line style="stroke: #A80036; stroke-width: 1.5;" x1="311.5" x2="576.5" y1="231" y2="231"/><line style="stroke: #A80036; stroke-width: 1.5;" x1="311.5" x2="576.5" y1="239" y2="239"/><!--class Application Manager--><rect fill="#FEFECE" filter="url(#f1fo885o2f1gox)" height="48" id="Application Manager" style="stroke: #A80036; stroke-width: 1.5;" width="143" x="54.5" y="314"/><ellipse cx="69.5" cy="330" fill="#ADD1B2" rx="11" ry="11" style="stroke: #A80036; stroke-width: 1.0;"/><path d="M72.2656,325.875 Q72.4219,325.6563 72.6094,325.5469 Q72.7969,325.4375 73.0156,325.4375 Q73.3906,325.4375 73.625,325.6953 Q73.8594,325.9531 73.8594,326.5625 L73.8594,328.0156 Q73.8594,328.625 73.625,328.8906 Q73.3906,329.1563 73.0156,329.1563 Q72.6719,329.1563 72.4688,328.9531 Q72.2656,328.7656 72.1563,328.25 Q72.1094,327.8906 71.9219,327.7031 Q71.5938,327.3281 70.9844,327.1094 Q70.375,326.8906 69.75,326.8906 Q68.9844,326.8906 68.3516,327.2188 Q67.7188,327.5469 67.2266,328.2969 Q66.7344,329.0469 66.7344,330.0781 L66.7344,331.1719 Q66.7344,332.4063 67.625,333.2266 Q68.5156,334.0469 70.1094,334.0469 Q71.0469,334.0469 71.7031,333.7969 Q72.0938,333.6406 72.5156,333.2031 Q72.7813,332.9375 72.9297,332.8594 Q73.0781,332.7813 73.2813,332.7813 Q73.6094,332.7813 73.8672,333.0391 Q74.125,333.2969 74.125,333.6406 Q74.125,333.9844 73.7813,334.3906 Q73.2813,334.9688 72.4844,335.2969 Q71.4063,335.75 70.1094,335.75 Q68.5938,335.75 67.3906,335.125 Q66.4063,334.625 65.7188,333.5547 Q65.0313,332.4844 65.0313,331.2031 L65.0313,330.0469 Q65.0313,328.7188 65.6484,327.5703 Q66.2656,326.4219 67.3594,325.8047 Q68.4531,325.1875 69.6875,325.1875 Q70.4219,325.1875 71.0703,325.3516 Q71.7188,325.5156 72.2656,325.875 Z "/><text fill="#000000" font-family="sans-serif" font-size="12" lengthAdjust="spacingAndGlyphs" textLength="111" x="83.5" y="334.9102">Application Manager</text><line style="stroke: #A80036; stroke-width: 1.5;" x1="55.5" x2="196.5" y1="346" y2="346"/><line style="stroke: #A80036; stroke-width: 1.5;" x1="55.5" x2="196.5" y1="354" y2="354"/><!--class Learning Corpus--><rect fill="#FEFECE" filter="url(#f1fo885o2f1gox)" height="48" id="Learning Corpus" style="stroke: #A80036; stroke-width: 1.5;" width="125" x="232.5" y="314"/><ellipse cx="247.5" cy="330" fill="#ADD1B2" rx="11" ry="11" style="stroke: #A80036; stroke-width: 1.0;"/><path d="M250.2656,325.875 Q250.4219,325.6563 250.6094,325.5469 Q250.7969,325.4375 251.0156,325.4375 Q251.3906,325.4375 251.625,325.6953 Q251.8594,325.9531 251.8594,326.5625 L251.8594,328.0156 Q251.8594,328.625 251.625,328.8906 Q251.3906,329.1563 251.0156,329.1563 Q250.6719,329.1563 250.4688,328.9531 Q250.2656,328.7656 250.1563,328.25 Q250.1094,327.8906 249.9219,327.7031 Q249.5938,327.3281 248.9844,327.1094 Q248.375,326.8906 247.75,326.8906 Q246.9844,326.8906 246.3516,327.2188 Q245.7188,327.5469 245.2266,328.2969 Q244.7344,329.0469 244.7344,330.0781 L244.7344,331.1719 Q244.7344,332.4063 245.625,333.2266 Q246.5156,334.0469 248.1094,334.0469 Q249.0469,334.0469 249.7031,333.7969 Q250.0938,333.6406 250.5156,333.2031 Q250.7813,332.9375 250.9297,332.8594 Q251.0781,332.7813 251.2813,332.7813 Q251.6094,332.7813 251.8672,333.0391 Q252.125,333.2969 252.125,333.6406 Q252.125,333.9844 251.7813,334.3906 Q251.2813,334.9688 250.4844,335.2969 Q249.4063,335.75 248.1094,335.75 Q246.5938,335.75 245.3906,335.125 Q244.4063,334.625 243.7188,333.5547 Q243.0313,332.4844 243.0313,331.2031 L243.0313,330.0469 Q243.0313,328.7188 243.6484,327.5703 Q244.2656,326.4219 245.3594,325.8047 Q246.4531,325.1875 247.6875,325.1875 Q248.4219,325.1875 249.0703,325.3516 Q249.7188,325.5156 250.2656,325.875 Z "/><text fill="#000000" font-family="sans-serif" font-size="12" lengthAdjust="spacingAndGlyphs" textLength="93" x="261.5" y="334.9102">Learning Corpus</text><line style="stroke: #A80036; stroke-width: 1.5;" x1="233.5" x2="356.5" y1="346" y2="346"/><line style="stroke: #A80036; stroke-width: 1.5;" x1="233.5" x2="356.5" y1="354" y2="354"/><!--entity Data Stream Manager--><rect fill="#FFFFFF" filter="url(#f1fo885o2f1gox)" height="37.6094" style="stroke: #000000; stroke-width: 1.5;" width="159" x="392.5" y="319"/><text fill="#000000" font-family="sans-serif" font-size="14" lengthAdjust="spacingAndGlyphs" textLength="139" x="402.5" y="343.5332">Data Stream Manager</text><!--entity Sentient Agent Bundle Manager--><rect fill="#FFFFFF" filter="url(#f1fo885o2f1gox)" height="37.6094" style="stroke: #000000; stroke-width: 1.5;" width="221" x="54.5" y="204"/><text fill="#000000" font-family="sans-serif" font-size="14" lengthAdjust="spacingAndGlyphs" textLength="201" x="64.5" y="228.5332">Sentient Agent Bundle Manager</text><!--entity REST--><ellipse cx="672" cy="338" fill="#FEFECE" filter="url(#f1fo885o2f1gox)" rx="8" ry="8" style="stroke: #A80036; stroke-width: 2.0;"/><text fill="#000000" font-family="sans-serif" font-size="14" lengthAdjust="spacingAndGlyphs" textLength="37" x="653.5" y="369.5332">REST</text><!--entity Web--><ellipse cx="926" cy="338" fill="#FEFECE" filter="url(#f1fo885o2f1gox)" rx="8" ry="8" style="stroke: #A80036; stroke-width: 2.0;"/><text fill="#000000" font-family="sans-serif" font-size="14" lengthAdjust="spacingAndGlyphs" textLength="29" x="911.5" y="369.5332">Web</text><!--entity CLI--><ellipse cx="1015" cy="338" fill="#FEFECE" filter="url(#f1fo885o2f1gox)" rx="8" ry="8" style="stroke: #A80036; stroke-width: 2.0;"/><text fill="#000000" font-family="sans-serif" font-size="14" lengthAdjust="spacingAndGlyphs" textLength="21" x="1004.5" y="369.5332">CLI</text><!--entity WebSocket--><ellipse cx="657" cy="223" fill="#FEFECE" filter="url(#f1fo885o2f1gox)" rx="8" ry="8" style="stroke: #A80036; stroke-width: 2.0;"/><text fill="#000000" font-family="sans-serif" font-size="14" lengthAdjust="spacingAndGlyphs" textLength="72" x="621" y="254.5332">WebSocket</text><!--link i to Web--><path d="M577.45,247.009 C695.371,267.774 852.898,296.737 881,308 C894.458,313.3939 908.225,322.9828 916.926,329.6511 " fill="none" id="i-Web" style="stroke: #A80036; stroke-width: 1.0;"/><!--link i to CLI--><path d="M577.773,246.476 C578.853,246.652 579.929,246.826 581,247 C754.179,275.08 807.365,244.73 971,308 C984.141,313.081 997.394,322.5434 1005.869,329.2771 " fill="none" id="i-CLI" style="stroke: #A80036; stroke-width: 1.0;"/><!--link i to REST--><path d="M490.414,247.003 C545.62,274.364 633.921,318.1276 662.644,332.3629 " fill="none" id="i-REST" style="stroke: #A80036; stroke-width: 1.0;"/><!--link i to WebSocket--><path d="M463.569,198.723 C498.701,158.075 573.934,84.581 629,126 C656.875,146.967 658.333,193.95 657.6,213.833 " fill="none" id="i-WebSocket" style="stroke: #A80036; stroke-width: 1.0;"/><polygon fill="#000000" points="585,100.6758,579,103.6758,585,106.6758,585,100.6758" style="stroke: #000000; stroke-width: 1.0;"/><text fill="#000000" font-family="sans-serif" font-size="13" lengthAdjust="spacingAndGlyphs" textLength="37" x="591" y="107.4951">events</text><!--link Sentient Agent Bundle Manager to Data Stream Manager--><path d="M213.985,242.03 C269.721,262.546 360.469,295.948 418.151,317.1794 " fill="none" id="Sentient Agent Bundle Manager-Data Stream Manager" style="stroke: #A80036; stroke-width: 1.0;"/><polygon fill="#A80036" points="422.936,318.9407,415.8717,312.0781,418.2438,317.2136,413.1083,319.5857,422.936,318.9407" style="stroke: #A80036; stroke-width: 1.0;"/><!--link Sentient Agent Bundle Manager to Security Aspect--><path d="M263.475,242.052 C273.44,243.772 283.416,245.45 293,247 C480.943,277.395 532.136,262.485 717,308 C721.11,309.012 725.303,310.15 729.512,311.3743 " fill="none" id="Sentient Agent Bundle Manager-Security Aspect" style="stroke: #A80036; stroke-width: 1.0;"/><polygon fill="#A80036" points="734.456,312.8489,726.9742,306.444,729.6645,311.4202,724.6883,314.1104,734.456,312.8489" style="stroke: #A80036; stroke-width: 1.0;"/><!--link Sentient Agent Bundle Manager to Application Manager--><path d="M158.734,242.155 C152.515,260.176 142.894,288.049 135.69,308.924 " fill="none" id="Sentient Agent Bundle Manager-Application Manager" style="stroke: #A80036; stroke-width: 1.0;"/><polygon fill="#A80036" points="134.007,313.8003,140.7243,306.5977,135.6382,309.0739,133.162,303.9878,134.007,313.8003" style="stroke: #A80036; stroke-width: 1.0;"/><!--link Sentient Agent Bundle Manager to Learning Corpus--><path d="M185.887,242.155 C207.143,260.632 240.316,289.467 264.508,310.4952 " fill="none" id="Sentient Agent Bundle Manager-Learning Corpus" style="stroke: #A80036; stroke-width: 1.0;"/><polygon fill="#A80036" points="268.31,313.8003,264.1408,304.8774,264.536,310.5205,258.893,310.9158,268.31,313.8003" style="stroke: #A80036; stroke-width: 1.0;"/><!--link Software Defined Infrastructure to Distributed Information Management Layer--><path d="M455.299,65.24 C488.987,79.668 530.905,97.006 569,111 C579.951,115.023 586.292,110.243 594,119 C597.7844,123.2996 600.9251,128.1006 603.5233,133.2145 C603.6857,133.5341 603.846,133.8549 604.0041,134.1769 C604.0832,134.338 604.1618,134.4993 604.2398,134.6608 " fill="none" id="Software Defined Infrastructure-Distributed Information Management Layer" style="stroke: #A80036; stroke-width: 1.0;"/><polygon fill="#A80036" points="450.39,63.133,457.0815,70.3596,454.9843,65.1059,460.2381,63.0087,450.39,63.133" style="stroke: #A80036; stroke-width: 1.0;"/><!--link Service Management Layer to Distributed Information Management Layer--><path d="M642.792,68.138 C638.543,83.421 633.644,102.075 630,119 C627.6347,129.985 625.4181,141.6906 623.4167,153.1233 C622.9164,155.9815 622.4295,158.8227 621.9571,161.6313 C621.7209,163.0356 621.4883,164.4317 621.2595,165.8178 C621.2023,166.1643 621.1454,166.5102 621.0886,166.8554 C621.0603,167.028 621.032,167.2004 621.0037,167.3727 " fill="none" id="Service Management Layer-Distributed Information Management Layer" style="stroke: #A80036; stroke-width: 1.0;"/><polygon fill="#A80036" points="644.206,63.092,637.9266,70.6795,642.8573,67.9067,645.6301,72.8374,644.206,63.092" style="stroke: #A80036; stroke-width: 1.0;"/><!--link Security Aspect to Distributed Information Management Layer--><path d="M752.205,307.608 C735.365,297.458 716.064,286.307 698,277 C668.636,261.87 655.791,267.639 630,247 C627.674,245.1385 625.5045,242.8861 623.5459,240.5284 C623.0563,239.9389 622.5798,239.3429 622.1174,238.7447 C621.8861,238.4457 621.6584,238.146 621.4343,237.8465 C621.3223,237.6967 621.2111,237.5469 621.1009,237.3972 C621.0734,237.3598 621.0459,237.3223 621.0184,237.2849 " fill="none" id="Security Aspect-Distributed Information Management Layer" style="stroke: #A80036; stroke-width: 1.0;"/><polygon fill="#A80036" points="756.887,310.4415,751.2604,302.3581,752.61,307.8516,747.1165,309.2013,756.887,310.4415" style="stroke: #A80036; stroke-width: 1.0;"/><!--link Identity Aspect to Distributed Information Management Layer--><path d="M787.837,64.148 C750.523,79.003 703.066,97.073 660,111 C646.87,115.246 639.273,108.781 630,119 C626.1636,123.2279 623.014,127.9748 620.4401,133.0489 C620.1184,133.6832 619.8057,134.3226 619.5017,134.9667 " fill="none" id="Identity Aspect-Distributed Information Management Layer" style="stroke: #A80036; stroke-width: 1.0;"/><polygon fill="#A80036" points="792.8,62.167,782.9585,61.7867,788.1559,64.0198,785.9229,69.2172,792.8,62.167" style="stroke: #A80036; stroke-width: 1.0;"/><!--
@startuml


package "Software Defined Infrastructure" #lightyellow {

}

package "Service Management Layer" #lightgreen {

}

package "Security Aspect" #pink {

}

package "Identity Aspect" #ffbbbb {

}


package "Distributed Information Management Layer" #ffcc88 {

    interface "Distributed Information Management Layer" as i {
    
    
    }
}

circle REST
circle Web
circle CLI
circle WebSocket

i -down- Web
i -down- CLI
i -down- REST
WebSocket -left- i: events >

package "Distributed Information Management Layer" #ffcc88 {


rectangle "Data Stream Manager" #white {
}

rectangle "Sentient Agent Bundle Manager" #white {
}

    "Sentient Agent Bundle Manager" - -> "Data Stream Manager"
    
    "Sentient Agent Bundle Manager" - -> "Security Aspect"
    
    "Sentient Agent Bundle Manager" - -> "Application Manager"
    
    "Sentient Agent Bundle Manager" - -> "Learning Corpus"
    
}


    "Software Defined Infrastructure" <- - "Distributed Information Management Layer"

    "Service Management Layer" <- - "Distributed Information Management Layer"

    "Security Aspect" <- - "Distributed Information Management Layer"

    "Identity Aspect" <- - "Distributed Information Management Layer"


@enduml

PlantUML version 1.2019.05(Sat Apr 20 09:45:36 PDT 2019)
(GPL source distribution)
Java Runtime: Java(TM) SE Runtime Environment
JVM: Java HotSpot(TM) Client VM
Java Version: 1.8.0_271-b09
Operating System: Windows 10
OS Version: 10.0
Default Encoding: Cp1252
Language: en
Country: US
--></g></svg>