<?xml version="1.0" encoding="us-ascii" standalone="no"?><svg xmlns="http://www.w3.org/2000/svg" xmlns:xlink="http://www.w3.org/1999/xlink" contentStyleType="text/css" height="354px" preserveAspectRatio="none" style="width:1456px;height:354px;background:#FFFFFF;" version="1.1" viewBox="0 0 1456 354" width="1456px" zoomAndPan="magnify"><defs/><g><!--cluster Distributed Information Management Layer--><g id="cluster_Distributed Information Management Layer"><path d="M586,116 L886,116 A3.75,3.75 0 0 1 888.5,118.5 L895.5,139.6094 L1207,139.6094 A2.5,2.5 0 0 1 1209.5,142.1094 L1209.5,344.5 A2.5,2.5 0 0 1 1207,347 L586,347 A2.5,2.5 0 0 1 583.5,344.5 L583.5,118.5 A2.5,2.5 0 0 1 586,116 " fill="#FFCC88" style="stroke:#000000;stroke-width:1.5;"/><line style="stroke:#000000;stroke-width:1.5;" x1="583.5" x2="895.5" y1="139.6094" y2="139.6094"/><text fill="#000000" font-family="sans-serif" font-size="14" font-weight="bold" lengthAdjust="spacing" textLength="299" x="587.5" y="132.5332">Distributed Information Management Layer</text></g><path d="M255,6 L478,6 A3.75,3.75 0 0 1 480.5,8.5 L487.5,29.6094 L492,29.6094 A2.5,2.5 0 0 1 494.5,32.1094 L494.5,58.7188 A2.5,2.5 0 0 1 492,61.2188 L255,61.2188 A2.5,2.5 0 0 1 252.5,58.7188 L252.5,8.5 A2.5,2.5 0 0 1 255,6 " fill="#FFFFE0" style="stroke:#181818;stroke-width:0.5;"/><line style="stroke:#181818;stroke-width:0.5;" x1="252.5" x2="487.5" y1="29.6094" y2="29.6094"/><text fill="#000000" font-family="sans-serif" font-size="14" font-weight="bold" lengthAdjust="spacing" textLength="222" x="256.5" y="22.5332">Software Defined Infrastructure</text><path d="M8.5,6 L200.5,6 A3.75,3.75 0 0 1 203,8.5 L210,29.6094 L214.5,29.6094 A2.5,2.5 0 0 1 217,32.1094 L217,58.7188 A2.5,2.5 0 0 1 214.5,61.2188 L8.5,61.2188 A2.5,2.5 0 0 1 6,58.7188 L6,8.5 A2.5,2.5 0 0 1 8.5,6 " fill="#90EE90" style="stroke:#181818;stroke-width:0.5;"/><line style="stroke:#181818;stroke-width:0.5;" x1="6" x2="210" y1="29.6094" y2="29.6094"/><text fill="#000000" font-family="sans-serif" font-size="14" font-weight="bold" lengthAdjust="spacing" textLength="191" x="10" y="22.5332">Service Management Layer</text><path d="M691.5,6 L801.5,6 A3.75,3.75 0 0 1 804,8.5 L811,29.6094 L815.5,29.6094 A2.5,2.5 0 0 1 818,32.1094 L818,58.7188 A2.5,2.5 0 0 1 815.5,61.2188 L691.5,61.2188 A2.5,2.5 0 0 1 689,58.7188 L689,8.5 A2.5,2.5 0 0 1 691.5,6 " fill="#FFC0CB" style="stroke:#181818;stroke-width:0.5;"/><line style="stroke:#181818;stroke-width:0.5;" x1="689" x2="811" y1="29.6094" y2="29.6094"/><text fill="#000000" font-family="sans-serif" font-size="14" font-weight="bold" lengthAdjust="spacing" textLength="109" x="693" y="22.5332">Security Aspect</text><path d="M532,6 L637,6 A3.75,3.75 0 0 1 639.5,8.5 L646.5,29.6094 L651,29.6094 A2.5,2.5 0 0 1 653.5,32.1094 L653.5,58.7188 A2.5,2.5 0 0 1 651,61.2188 L532,61.2188 A2.5,2.5 0 0 1 529.5,58.7188 L529.5,8.5 A2.5,2.5 0 0 1 532,6 " fill="#FFBBBB" style="stroke:#181818;stroke-width:0.5;"/><line style="stroke:#181818;stroke-width:0.5;" x1="529.5" x2="646.5" y1="29.6094" y2="29.6094"/><text fill="#000000" font-family="sans-serif" font-size="14" font-weight="bold" lengthAdjust="spacing" textLength="104" x="533.5" y="22.5332">Identity Aspect</text><!--class i--><g id="elem_i"><rect codeLine="22" fill="#F1F1F1" height="48" id="i" rx="2.5" ry="2.5" style="stroke:#181818;stroke-width:0.5;" width="302" x="883.5" y="160"/><ellipse cx="898.5" cy="176" fill="#B4A7E5" rx="11" ry="11" style="stroke:#181818;stroke-width:1.0;"/><path d="M899.4531,172.6406 L899.4531,179.2969 L901.1719,179.2969 Q901.7813,179.2969 902.0469,179.5313 Q902.3125,179.7656 902.3125,180.1563 Q902.3125,180.5313 902.0469,180.7656 Q901.7813,181 901.1719,181 L896.0313,181 Q895.4219,181 895.1563,180.7656 Q894.8906,180.5313 894.8906,180.1406 Q894.8906,179.7656 895.1563,179.5313 Q895.4219,179.2969 896.0313,179.2969 L897.75,179.2969 L897.75,172.6406 L896.0313,172.6406 Q895.4219,172.6406 895.1563,172.4063 Q894.8906,172.1719 894.8906,171.7813 Q894.8906,171.4063 895.1563,171.1719 Q895.4219,170.9375 896.0313,170.9375 L901.1719,170.9375 Q901.7813,170.9375 902.0469,171.1719 Q902.3125,171.4063 902.3125,171.7813 Q902.3125,172.1719 902.0469,172.4063 Q901.7813,172.6406 901.1719,172.6406 L899.4531,172.6406 Z " fill="#000000"/><text fill="#000000" font-family="sans-serif" font-size="14" font-style="italic" lengthAdjust="spacing" textLength="270" x="912.5" y="181.7285">Distributed Information Management Layer</text><line style="stroke:#181818;stroke-width:0.5;" x1="884.5" x2="1184.5" y1="192" y2="192"/><line style="stroke:#181818;stroke-width:0.5;" x1="884.5" x2="1184.5" y1="200" y2="200"/></g><!--class Application Manager--><g id="elem_Application Manager"><rect fill="#F1F1F1" height="48" id="Application Manager" rx="2.5" ry="2.5" style="stroke:#181818;stroke-width:0.5;" width="161" x="627" y="275"/><ellipse cx="642" cy="291" fill="#ADD1B2" rx="11" ry="11" style="stroke:#181818;stroke-width:1.0;"/><path d="M644.7656,286.875 Q644.9219,286.6563 645.1094,286.5469 Q645.2969,286.4375 645.5156,286.4375 Q645.8906,286.4375 646.125,286.6953 Q646.3594,286.9531 646.3594,287.5625 L646.3594,289.0156 Q646.3594,289.625 646.125,289.8906 Q645.8906,290.1563 645.5156,290.1563 Q645.1719,290.1563 644.9688,289.9531 Q644.7656,289.7656 644.6563,289.25 Q644.6094,288.8906 644.4219,288.7031 Q644.0938,288.3281 643.4844,288.1094 Q642.875,287.8906 642.25,287.8906 Q641.4844,287.8906 640.8516,288.2188 Q640.2188,288.5469 639.7266,289.2969 Q639.2344,290.0469 639.2344,291.0781 L639.2344,292.1719 Q639.2344,293.4063 640.125,294.2266 Q641.0156,295.0469 642.6094,295.0469 Q643.5469,295.0469 644.2031,294.7969 Q644.5938,294.6406 645.0156,294.2031 Q645.2813,293.9375 645.4297,293.8594 Q645.5781,293.7813 645.7813,293.7813 Q646.1094,293.7813 646.3672,294.0391 Q646.625,294.2969 646.625,294.6406 Q646.625,294.9844 646.2813,295.3906 Q645.7813,295.9688 644.9844,296.2969 Q643.9063,296.75 642.6094,296.75 Q641.0938,296.75 639.8906,296.125 Q638.9063,295.625 638.2188,294.5547 Q637.5313,293.4844 637.5313,292.2031 L637.5313,291.0469 Q637.5313,289.7188 638.1484,288.5703 Q638.7656,287.4219 639.8594,286.8047 Q640.9531,286.1875 642.1875,286.1875 Q642.9219,286.1875 643.5703,286.3516 Q644.2188,286.5156 644.7656,286.875 Z " fill="#000000"/><text fill="#000000" font-family="sans-serif" font-size="14" lengthAdjust="spacing" textLength="129" x="656" y="296.7285">Application Manager</text><line style="stroke:#181818;stroke-width:0.5;" x1="628" x2="787" y1="307" y2="307"/><line style="stroke:#181818;stroke-width:0.5;" x1="628" x2="787" y1="315" y2="315"/></g><!--class Learning Corpus--><g id="elem_Learning Corpus"><rect fill="#F1F1F1" height="48" id="Learning Corpus" rx="2.5" ry="2.5" style="stroke:#181818;stroke-width:0.5;" width="138" x="823.5" y="275"/><ellipse cx="838.5" cy="291" fill="#ADD1B2" rx="11" ry="11" style="stroke:#181818;stroke-width:1.0;"/><path d="M841.2656,286.875 Q841.4219,286.6563 841.6094,286.5469 Q841.7969,286.4375 842.0156,286.4375 Q842.3906,286.4375 842.625,286.6953 Q842.8594,286.9531 842.8594,287.5625 L842.8594,289.0156 Q842.8594,289.625 842.625,289.8906 Q842.3906,290.1563 842.0156,290.1563 Q841.6719,290.1563 841.4688,289.9531 Q841.2656,289.7656 841.1563,289.25 Q841.1094,288.8906 840.9219,288.7031 Q840.5938,288.3281 839.9844,288.1094 Q839.375,287.8906 838.75,287.8906 Q837.9844,287.8906 837.3516,288.2188 Q836.7188,288.5469 836.2266,289.2969 Q835.7344,290.0469 835.7344,291.0781 L835.7344,292.1719 Q835.7344,293.4063 836.625,294.2266 Q837.5156,295.0469 839.1094,295.0469 Q840.0469,295.0469 840.7031,294.7969 Q841.0938,294.6406 841.5156,294.2031 Q841.7813,293.9375 841.9297,293.8594 Q842.0781,293.7813 842.2813,293.7813 Q842.6094,293.7813 842.8672,294.0391 Q843.125,294.2969 843.125,294.6406 Q843.125,294.9844 842.7813,295.3906 Q842.2813,295.9688 841.4844,296.2969 Q840.4063,296.75 839.1094,296.75 Q837.5938,296.75 836.3906,296.125 Q835.4063,295.625 834.7188,294.5547 Q834.0313,293.4844 834.0313,292.2031 L834.0313,291.0469 Q834.0313,289.7188 834.6484,288.5703 Q835.2656,287.4219 836.3594,286.8047 Q837.4531,286.1875 838.6875,286.1875 Q839.4219,286.1875 840.0703,286.3516 Q840.7188,286.5156 841.2656,286.875 Z " fill="#000000"/><text fill="#000000" font-family="sans-serif" font-size="14" lengthAdjust="spacing" textLength="106" x="852.5" y="296.7285">Learning Corpus</text><line style="stroke:#181818;stroke-width:0.5;" x1="824.5" x2="960.5" y1="307" y2="307"/><line style="stroke:#181818;stroke-width:0.5;" x1="824.5" x2="960.5" y1="315" y2="315"/></g><!--entity Data Stream Manager--><g id="elem_Data Stream Manager"><rect fill="#FFFFFF" height="37.6094" rx="2.5" ry="2.5" style="stroke:#181818;stroke-width:0.5;" width="159" x="997" y="280"/><text fill="#000000" font-family="sans-serif" font-size="14" lengthAdjust="spacing" textLength="139" x="1007" y="304.5332">Data Stream Manager</text></g><!--entity Sentient Agent Bundle Manager--><g id="elem_Sentient Agent Bundle Manager"><rect fill="#FFFFFF" height="37.6094" rx="2.5" ry="2.5" style="stroke:#181818;stroke-width:0.5;" width="221" x="627" y="165"/><text fill="#000000" font-family="sans-serif" font-size="14" lengthAdjust="spacing" textLength="201" x="637" y="189.5332">Sentient Agent Bundle Manager</text></g><!--entity REST--><g id="elem_REST"><ellipse cx="1260.5" cy="299" fill="#F1F1F1" rx="8" ry="8" style="stroke:#181818;stroke-width:0.5;"/><text fill="#000000" font-family="sans-serif" font-size="14" lengthAdjust="spacing" textLength="37" x="1242" y="330.5332">REST</text></g><!--entity Web--><g id="elem_Web"><ellipse cx="1349.5" cy="299" fill="#F1F1F1" rx="8" ry="8" style="stroke:#181818;stroke-width:0.5;"/><text fill="#000000" font-family="sans-serif" font-size="14" lengthAdjust="spacing" textLength="29" x="1335" y="330.5332">Web</text></g><!--entity CLI--><g id="elem_CLI"><ellipse cx="1438.5" cy="299" fill="#F1F1F1" rx="8" ry="8" style="stroke:#181818;stroke-width:0.5;"/><text fill="#000000" font-family="sans-serif" font-size="14" lengthAdjust="spacing" textLength="21" x="1428" y="330.5332">CLI</text></g><!--entity WebSocket--><g id="elem_WebSocket"><ellipse cx="1281.5" cy="184" fill="#F1F1F1" rx="8" ry="8" style="stroke:#181818;stroke-width:0.5;"/><text fill="#000000" font-family="sans-serif" font-size="14" lengthAdjust="spacing" textLength="72" x="1245.5" y="215.5332">WebSocket</text></g><!--link i to Web--><g id="link_i_Web"><path codeLine="33" d="M1131.99,208.06 C1184.71,222.29 1250.17,242.84 1305.5,269 C1318.24,275.02 1331.57,284.29 1340.18,290.73 " fill="none" id="i-Web" style="stroke:#181818;stroke-width:1.0;"/></g><!--link i to CLI--><g id="link_i_CLI"><path codeLine="34" d="M1185.83,207.98 C1251.65,221.07 1328.61,240.68 1394.5,269 C1407.44,274.56 1420.74,283.93 1429.28,290.51 " fill="none" id="i-CLI" style="stroke:#181818;stroke-width:1.0;"/></g><!--link i to REST--><g id="link_i_REST"><path codeLine="35" d="M1080.51,208 C1135.23,235.36 1222.76,279.13 1251.23,293.36 " fill="none" id="i-REST" style="stroke:#181818;stroke-width:1.0;"/></g><!--link i to WebSocket--><g id="link_i_WebSocket"><path codeLine="36" d="M1185.65,184 C1222.91,184 1256.62,184 1272.28,184 " fill="none" id="i-WebSocket" style="stroke:#181818;stroke-width:1.0;"/><polygon fill="#000000" points="1203,172.1758,1212.0451,175.1147,1212.0451,169.2369,1203,172.1758" style="stroke:#000000;stroke-width:1.0;"/><text fill="#000000" font-family="sans-serif" font-size="13" lengthAdjust="spacing" textLength="37" x="1217" y="177.4951">events</text></g><!--link Sentient Agent Bundle Manager to Data Stream Manager--><g id="link_Sentient Agent Bundle Manager_Data Stream Manager"><path codeLine="47" d="M791.59,203.03 C854.87,224.12 953.3178,256.9429 1016.6278,278.0429 " fill="none" id="Sentient Agent Bundle Manager-to-Data Stream Manager" style="stroke:#181818;stroke-width:1.0;"/><polygon fill="#181818" points="1022.32,279.94,1015.0464,273.2996,1017.5765,278.3591,1012.517,280.8891,1022.32,279.94" style="stroke:#181818;stroke-width:1.0;"/></g><!--link Sentient Agent Bundle Manager to Security Aspect--><g id="link_Sentient Agent Bundle Manager_Security Aspect"><path codeLine="49" d="M739.48,164.64 C742.28,138.64 746.7769,96.8854 749.9969,67.0154 " fill="none" id="Sentient Agent Bundle Manager-to-Security Aspect" style="stroke:#181818;stroke-width:1.0;"/><polygon fill="#181818" points="750.64,61.05,745.6984,69.5694,750.1041,66.0212,753.6523,70.4269,750.64,61.05" style="stroke:#181818;stroke-width:1.0;"/></g><!--link Sentient Agent Bundle Manager to Application Manager--><g id="link_Sentient Agent Bundle Manager_Application Manager"><path codeLine="51" d="M732.68,203.16 C727.51,222.62 720.8287,247.7806 715.1987,269.0006 " fill="none" id="Sentient Agent Bundle Manager-to-Application Manager" style="stroke:#181818;stroke-width:1.0;"/><polygon fill="#181818" points="713.66,274.8,719.8342,267.1267,714.9422,269.9672,712.1018,265.0752,713.66,274.8" style="stroke:#181818;stroke-width:1.0;"/></g><!--link Sentient Agent Bundle Manager to Learning Corpus--><g id="link_Sentient Agent Bundle Manager_Learning Corpus"><path codeLine="53" d="M762.4,203.16 C789.1,222.62 826.7215,250.0456 855.8315,271.2656 " fill="none" id="Sentient Agent Bundle Manager-to-Learning Corpus" style="stroke:#181818;stroke-width:1.0;"/><polygon fill="#181818" points="860.68,274.8,855.7635,266.2661,856.6396,271.8547,851.051,272.7308,860.68,274.8" style="stroke:#181818;stroke-width:1.0;"/></g><!--reverse link Software Defined Infrastructure to Distributed Information Management Layer--><g id="link_Software Defined Infrastructure_Distributed Information Management Layer"><path codeLine="58" d="M417.4288,64.4279 C448.2938,85.4529 487.1875,111.945 523.7663,136.86 C542.0556,149.3175 558.5266,160.5363 570.6464,168.7913 C573.6764,170.855 576.4344,172.7335 578.8809,174.3998 C580.1041,175.233 581.2495,176.0131 582.3121,176.7368 C582.5777,176.9178 582.8382,177.0952 583.0934,177.269 C583.221,177.3559 583.3472,177.4419 583.4722,177.527 " fill="none" id="Software Defined Infrastructure-backto-Distributed Information Management Layer" style="stroke:#181818;stroke-width:1.0;"/><polygon fill="#181818" points="412.47,61.05,417.6563,69.4227,416.6023,63.8649,422.1601,62.811,412.47,61.05" style="stroke:#181818;stroke-width:1.0;"/></g><!--reverse link Service Management Layer to Distributed Information Management Layer--><g id="link_Service Management Layer_Distributed Information Management Layer"><path codeLine="60" d="M203.042,62.8233 C271.537,84.0133 363.355,112.4175 444.2738,137.4513 C484.7331,149.9681 521.0347,161.1991 547.4677,169.3777 C560.6841,173.467 571.4335,176.7932 579.0018,179.1355 C579.9479,179.4283 580.8442,179.7057 581.6894,179.9673 C582.1121,180.0981 582.5219,180.225 582.9188,180.3478 " fill="none" id="Service Management Layer-backto-Distributed Information Management Layer" style="stroke:#181818;stroke-width:1.0;"/><polygon fill="#181818" points="197.31,61.05,204.7258,67.5312,202.0866,62.5277,207.0901,59.8886,197.31,61.05" style="stroke:#181818;stroke-width:1.0;"/></g><!--reverse link Security Aspect to Distributed Information Management Layer--><g id="link_Security Aspect_Distributed Information Management Layer"><path codeLine="62" d="M683.1507,59.9071 C650.5907,72.7871 621.36,86.66 610.5,100 C607.6075,103.5538 605.1369,107.4639 603.0284,111.5921 C602.5013,112.6241 601.9968,113.6697 601.514,114.7269 C601.3933,114.9911 601.2739,115.2561 601.1559,115.5218 C601.0969,115.6547 601.0383,115.7877 600.9799,115.9209 " fill="none" id="Security Aspect-backto-Distributed Information Management Layer" style="stroke:#181818;stroke-width:1.0;"/><polygon fill="#181818" points="688.73,57.7,678.8896,57.291,684.0806,59.5392,681.8324,64.7301,688.73,57.7" style="stroke:#181818;stroke-width:1.0;"/></g><!--reverse link Identity Aspect to Distributed Information Management Layer--><g id="link_Identity Aspect_Distributed Information Management Layer"><path codeLine="64" d="M591.5,67.05 C591.5,77.5625 591.5,84.2863 591.5,97.4963 C591.5,100.7988 591.5,104.1316 591.5,107.468 C591.5,109.1361 591.5,110.8052 591.5,112.4717 C591.5,113.3049 591.5,114.1376 591.5,114.9691 C591.5,115.177 591.5,115.3849 591.5,115.5926 " fill="none" id="Identity Aspect-backto-Distributed Information Management Layer" style="stroke:#181818;stroke-width:1.0;"/><polygon fill="#181818" points="591.5,61.05,587.5,70.05,591.5,66.05,595.5,70.05,591.5,61.05" style="stroke:#181818;stroke-width:1.0;"/></g><!--SRC=[fPFBQiCm44Nt_eeXNMiVIWcaIHU1T5CNkbRaaJD4aSru71DA_hrI7iwpf4wr41fpx_5mfIcrMUWSePSMLXhD26Eqv363YRUiA-7QICtOWoT7-LpMw5pHm7UIR9AaRCt8Ap88xzg7UebUOAhNo0TNpeZ-scHg9bd3i2hHID2Mv1UNgaaMQ6SgQsTXxNL7uPX2ipIhPTTxmKijLFXRFLbhJByV2H0MUK6ssdHYw0ee0AB_k6rYHuROE8IFj_JpSFx2sU4ucavElgQ5MQ0a2O7AYiQhhR8jehOjjhpM0igX5GNq3BWARLKm-6yK2OTujSzT16ZHa0gZNkvDKTlCIJ18DsVQDDvFH0xpkB_MFdDusnKpkgTNQd3x_yUO_uIuV5qTxSEoT6HEO-lSmHGrU_8vZ0ekwsflZszsXxWtS2zATRZADjtV9l51tCMCFaIvck6kb1y0]--></g></svg>