<?xml version="1.0" encoding="UTF-8" standalone="no"?><svg xmlns="http://www.w3.org/2000/svg" xmlns:xlink="http://www.w3.org/1999/xlink" contentScriptType="application/ecmascript" contentStyleType="text/css" height="367px" preserveAspectRatio="none" style="width:580px;height:367px;" version="1.1" viewBox="0 0 580 367" width="580px" zoomAndPan="magnify"><defs><filter height="300%" id="f1oh5gc3mcdsq9" width="300%" x="-1" y="-1"><feGaussianBlur result="blurOut" stdDeviation="2.0"/><feColorMatrix in="blurOut" result="blurOut2" type="matrix" values="0 0 0 0 0 0 0 0 0 0 0 0 0 0 0 0 0 0 .4 0"/><feOffset dx="4.0" dy="4.0" in="blurOut2" result="blurOut3"/><feBlend in="SourceGraphic" in2="blurOut3" mode="normal"/></filter></defs><g><!--entity DataChannel--><rect fill="#90EE90" filter="url(#f1oh5gc3mcdsq9)" height="37.6094" style="stroke: #000000; stroke-width: 1.5;" width="103" x="6" y="8"/><text fill="#000000" font-family="sans-serif" font-size="14" lengthAdjust="spacingAndGlyphs" textLength="83" x="16" y="32.5332">DataChannel</text><!--entity DataStreamInstance--><rect fill="#90EE90" filter="url(#f1oh5gc3mcdsq9)" height="37.6094" style="stroke: #000000; stroke-width: 1.5;" width="148" x="84.5" y="319"/><text fill="#000000" font-family="sans-serif" font-size="14" lengthAdjust="spacingAndGlyphs" textLength="128" x="94.5" y="343.5332">DataStreamInstance</text><!--entity ServiceInstance--><rect fill="#ADD8E6" filter="url(#f1oh5gc3mcdsq9)" height="37.6094" style="stroke: #000000; stroke-width: 1.5;" width="120" x="278.5" y="319"/><text fill="#000000" font-family="sans-serif" font-size="14" lengthAdjust="spacingAndGlyphs" textLength="100" x="288.5" y="343.5332">ServiceInstance</text><!--entity SABundleInstance--><rect fill="#ADD8E6" filter="url(#f1oh5gc3mcdsq9)" height="37.6094" style="stroke: #000000; stroke-width: 1.5;" width="135" x="434" y="319"/><text fill="#000000" font-family="sans-serif" font-size="14" lengthAdjust="spacingAndGlyphs" textLength="115" x="444" y="343.5332">SABundleInstance</text><!--entity InputStreamInstance--><rect fill="#90EE90" filter="url(#f1oh5gc3mcdsq9)" height="37.6094" style="stroke: #000000; stroke-width: 1.5;" width="149" x="152" y="8"/><text fill="#000000" font-family="sans-serif" font-size="14" lengthAdjust="spacingAndGlyphs" textLength="129" x="162" y="32.5332">InputStreamInstance</text><!--entity OutputStreamInstance--><rect fill="#90EE90" filter="url(#f1oh5gc3mcdsq9)" height="37.6094" style="stroke: #000000; stroke-width: 1.5;" width="161" x="378" y="8"/><text fill="#000000" font-family="sans-serif" font-size="14" lengthAdjust="spacingAndGlyphs" textLength="141" x="388" y="32.5332">OutputStreamInstance</text><!--class Model--><rect fill="#FEFECE" filter="url(#f1oh5gc3mcdsq9)" height="117.1797" id="Model" style="stroke: #A80036; stroke-width: 1.5;" width="152" x="176.5" y="124"/><ellipse cx="191.5" cy="140" fill="#ADD1B2" rx="11" ry="11" style="stroke: #A80036; stroke-width: 1.0;"/><path d="M194.2656,135.875 Q194.4219,135.6563 194.6094,135.5469 Q194.7969,135.4375 195.0156,135.4375 Q195.3906,135.4375 195.625,135.6953 Q195.8594,135.9531 195.8594,136.5625 L195.8594,138.0156 Q195.8594,138.625 195.625,138.8906 Q195.3906,139.1563 195.0156,139.1563 Q194.6719,139.1563 194.4688,138.9531 Q194.2656,138.7656 194.1563,138.25 Q194.1094,137.8906 193.9219,137.7031 Q193.5938,137.3281 192.9844,137.1094 Q192.375,136.8906 191.75,136.8906 Q190.9844,136.8906 190.3516,137.2188 Q189.7188,137.5469 189.2266,138.2969 Q188.7344,139.0469 188.7344,140.0781 L188.7344,141.1719 Q188.7344,142.4063 189.625,143.2266 Q190.5156,144.0469 192.1094,144.0469 Q193.0469,144.0469 193.7031,143.7969 Q194.0938,143.6406 194.5156,143.2031 Q194.7813,142.9375 194.9297,142.8594 Q195.0781,142.7813 195.2813,142.7813 Q195.6094,142.7813 195.8672,143.0391 Q196.125,143.2969 196.125,143.6406 Q196.125,143.9844 195.7813,144.3906 Q195.2813,144.9688 194.4844,145.2969 Q193.4063,145.75 192.1094,145.75 Q190.5938,145.75 189.3906,145.125 Q188.4063,144.625 187.7188,143.5547 Q187.0313,142.4844 187.0313,141.2031 L187.0313,140.0469 Q187.0313,138.7188 187.6484,137.5703 Q188.2656,136.4219 189.3594,135.8047 Q190.4531,135.1875 191.6875,135.1875 Q192.4219,135.1875 193.0703,135.3516 Q193.7188,135.5156 194.2656,135.875 Z "/><text fill="#000000" font-family="sans-serif" font-size="12" lengthAdjust="spacingAndGlyphs" textLength="120" x="205.5" y="144.9102">DataChannelInstance</text><line style="stroke: #A80036; stroke-width: 1.5;" x1="177.5" x2="327.5" y1="156" y2="156"/><text fill="#000000" font-family="sans-serif" font-size="11" lengthAdjust="spacingAndGlyphs" textLength="56" x="182.5" y="171.4189">string name</text><text fill="#000000" font-family="sans-serif" font-size="11" lengthAdjust="spacingAndGlyphs" textLength="71" x="182.5" y="185.2549">string direction</text><text fill="#000000" font-family="sans-serif" font-size="11" lengthAdjust="spacingAndGlyphs" textLength="74" x="182.5" y="199.0908">string message</text><line style="stroke: #A80036; stroke-width: 1.5;" x1="177.5" x2="327.5" y1="205.5078" y2="205.5078"/><text fill="#000000" font-family="sans-serif" font-size="11" lengthAdjust="spacingAndGlyphs" textLength="39" x="182.5" y="220.9268">create()</text><text fill="#000000" font-family="sans-serif" font-size="11" lengthAdjust="spacingAndGlyphs" textLength="34" x="182.5" y="234.7627">failed()</text><!--link Model to DataChannel--><path d="M168.629,115.478 C141.277,93.947 112.465,71.267 91.0336,54.397 " fill="none" id="Model-DataChannel" style="stroke: #A80036; stroke-width: 1.0;"/><polygon fill="#A80036" points="80.6348,46.211,85.2323,54.9209,84.5635,49.3038,90.1807,48.635,80.6348,46.211" style="stroke: #A80036; stroke-width: 1.0;"/><line style="stroke: #A80036; stroke-width: 1.0;" x1="84.5635" x2="90.8497" y1="49.3038" y2="54.252"/><polygon fill="#FFFFFF" points="179.022,123.66,176.7809,116.806,169.5922,116.2385,171.8333,123.0925,179.022,123.66" style="stroke: #A80036; stroke-width: 1.0;"/><text fill="#000000" font-family="sans-serif" font-size="13" lengthAdjust="spacingAndGlyphs" textLength="38" x="139.5" y="90.4951">design</text><text fill="#000000" font-family="sans-serif" font-size="13" lengthAdjust="spacingAndGlyphs" textLength="7" x="78.9117" y="67.1188">1</text><!--link DataChannel to Model--><path d="M49.4106,59.046 C48.0872,70.83 48.8988,83.845 55.5,94 C79.5696,131.028 123.311,152.512 163.473,164.914 " fill="none" id="DataChannel-Model" style="stroke: #A80036; stroke-width: 1.0;"/><polygon fill="#A80036" points="176.076,168.554,168.5392,162.2139,171.2723,167.1667,166.3195,169.8998,176.076,168.554" style="stroke: #A80036; stroke-width: 1.0;"/><line style="stroke: #A80036; stroke-width: 1.0;" x1="171.2723" x2="163.5865" y1="167.1667" y2="164.9465"/><polygon fill="#FFFFFF" points="51.726,46.022,46.7374,51.2291,49.6253,57.8367,54.6139,52.6296,51.726,46.022" style="stroke: #A80036; stroke-width: 1.0;"/><text fill="#000000" font-family="sans-serif" font-size="13" lengthAdjust="spacingAndGlyphs" textLength="56" x="56.5" y="90.4951">instances</text><text fill="#000000" font-family="sans-serif" font-size="13" lengthAdjust="spacingAndGlyphs" textLength="7" x="161.4582" y="163.9656">n</text><!--link Model to DataStreamInstance--><path d="M163.899,204.926 C129.526,218.032 93.6475,238.725 73.5,271 C63.0457,287.7469 75.7036,301.9135 94.1751,312.7766 " fill="none" id="Model-DataStreamInstance" style="stroke: #A80036; stroke-width: 1.0;"/><polygon fill="#A80036" points="105.9305,318.9459,99.8201,311.2217,101.5032,316.6224,96.1025,318.3055,105.9305,318.9459" style="stroke: #A80036; stroke-width: 1.0;"/><line style="stroke: #A80036; stroke-width: 1.0;" x1="101.5032" x2="94.4194" y1="316.6224" y2="312.9048"/><polygon fill="#FFFFFF" points="176.462,200.433,169.4655,198.6867,165.1626,204.4733,172.1591,206.2196,176.462,200.433" style="stroke: #A80036; stroke-width: 1.0;"/><text fill="#000000" font-family="sans-serif" font-size="13" lengthAdjust="spacingAndGlyphs" textLength="40" x="74.5" y="285.4951">stream</text><text fill="#000000" font-family="sans-serif" font-size="13" lengthAdjust="spacingAndGlyphs" textLength="7" x="81.7592" y="308.2693">1</text><!--link DataStreamInstance to Model--><path d="M151.401,305.8144 C150.253,294.4324 150.729,281.7296 155.5,271 C158.826,263.5203 163.142,256.41 168.104,249.715 " fill="none" id="DataStreamInstance-Model" style="stroke: #A80036; stroke-width: 1.0;"/><polygon fill="#A80036" points="176.381,239.54,167.5983,243.997,173.2255,243.4185,173.804,249.0457,176.381,239.54" style="stroke: #A80036; stroke-width: 1.0;"/><line style="stroke: #A80036; stroke-width: 1.0;" x1="173.2255" x2="168.1775" y1="243.4185" y2="249.6245"/><polygon fill="#A80036" points="153.426,318.8215,156.4553,312.2776,151.5799,306.9644,148.5506,313.5083,153.426,318.8215" style="stroke: #A80036; stroke-width: 1.0;"/><text fill="#000000" font-family="sans-serif" font-size="13" lengthAdjust="spacingAndGlyphs" textLength="52" x="156.5" y="285.4951">channels</text><text fill="#000000" font-family="sans-serif" font-size="13" lengthAdjust="spacingAndGlyphs" textLength="7" x="161.5435" y="241.871">n</text><!--link DataStreamInstance to Model--><path d="M194.516,310.2208 C201.476,303.8384 208.231,296.641 213.5,289 C220.941,278.2089 227.161,265.8235 232.289,253.422 " fill="none" id="DataStreamInstance-Model-1" style="stroke: #A80036; stroke-width: 1.0;"/><polygon fill="#A80036" points="237.058,241.073,230.0845,248.0279,235.2569,245.7373,237.5475,250.9097,237.058,241.073" style="stroke: #A80036; stroke-width: 1.0;"/><line style="stroke: #A80036; stroke-width: 1.0;" x1="235.2569" x2="232.3745" y1="245.7373" y2="253.2"/><polygon fill="#FFFFFF" points="184.321,318.9451,191.4804,318.0835,193.4387,311.1434,186.2793,312.005,184.321,318.9451" style="stroke: #A80036; stroke-width: 1.0;"/><text fill="#000000" font-family="sans-serif" font-size="13" lengthAdjust="spacingAndGlyphs" textLength="44" x="224.5" y="285.4951">policies</text><text fill="#000000" font-family="sans-serif" font-size="13" lengthAdjust="spacingAndGlyphs" textLength="7" x="227.7494" y="262.6922">n</text><!--link Model to ServiceInstance--><path d="M291.19,252.557 C301.966,271.7914 313.107,291.6763 321.869,307.3149 " fill="none" id="Model-ServiceInstance" style="stroke: #A80036; stroke-width: 1.0;"/><polygon fill="#A80036" points="328.333,318.8527,327.4237,309.0459,325.8891,314.4907,320.4444,312.9561,328.333,318.8527" style="stroke: #A80036; stroke-width: 1.0;"/><line style="stroke: #A80036; stroke-width: 1.0;" x1="325.8891" x2="321.9785" y1="314.4907" y2="307.5114"/><polygon fill="#FFFFFF" points="284.768,241.094,284.2111,248.2836,290.6334,251.5629,291.1903,244.3733,284.768,241.094" style="stroke: #A80036; stroke-width: 1.0;"/><text fill="#000000" font-family="sans-serif" font-size="13" lengthAdjust="spacingAndGlyphs" textLength="103" x="312.5" y="285.4951">transformInstance</text><text fill="#000000" font-family="sans-serif" font-size="13" lengthAdjust="spacingAndGlyphs" textLength="7" x="317.1475" y="308.1476">n</text><!--link Model to SABundleInstance--><path d="M340.459,223.207 C368.141,237.018 398.307,253.477 424.5,271 C441.526,282.3901 458.98,297.0591 472.956,309.6741 " fill="none" id="Model-SABundleInstance" style="stroke: #A80036; stroke-width: 1.0;"/><polygon fill="#A80036" points="482.902,318.8321,478.9907,309.7932,479.2238,315.4452,473.5718,315.6783,482.902,318.8321" style="stroke: #A80036; stroke-width: 1.0;"/><line style="stroke: #A80036; stroke-width: 1.0;" x1="479.2238" x2="473.339" y1="315.4452" y2="310.0261"/><polygon fill="#FFFFFF" points="328.765,217.455,332.3832,223.6927,339.5327,222.7518,335.9145,216.5142,328.765,217.455" style="stroke: #A80036; stroke-width: 1.0;"/><text fill="#000000" font-family="sans-serif" font-size="13" lengthAdjust="spacingAndGlyphs" textLength="38" x="448.5" y="285.4951">bundle</text><text fill="#000000" font-family="sans-serif" font-size="13" lengthAdjust="spacingAndGlyphs" textLength="7" x="469.1345" y="308.1207">1</text><!--link InputStreamInstance to Model--><path d="M207.388,57.96 C202.452,69.132 199.317,82.014 202.5,94 C204.032,99.768 206.043,105.552 208.379,111.246 " fill="none" id="InputStreamInstance-Model" style="stroke: #A80036; stroke-width: 1.0;"/><polygon fill="#A80036" points="213.95,123.525,213.874,113.6764,211.8841,118.9718,206.5888,116.9819,213.95,123.525" style="stroke: #A80036; stroke-width: 1.0;"/><line style="stroke: #A80036; stroke-width: 1.0;" x1="211.8841" x2="208.5785" y1="118.9718" y2="111.687"/><polygon fill="#A80036" points="213.484,46.211,207.1701,49.6945,207.9572,56.8625,214.2711,53.379,213.484,46.211" style="stroke: #A80036; stroke-width: 1.0;"/><text fill="#000000" font-family="sans-serif" font-size="13" lengthAdjust="spacingAndGlyphs" textLength="52" x="203.5" y="90.4951">channels</text><text fill="#000000" font-family="sans-serif" font-size="13" lengthAdjust="spacingAndGlyphs" textLength="7" x="202.088" y="113.2861">n</text><!--link InputStreamInstance to Model--><path d="M251.128,56.867 C254.983,62.847 258.386,69.359 260.5,76 C264.001,87 265.301,98.958 265.27,110.74 " fill="none" id="InputStreamInstance-Model-1" style="stroke: #A80036; stroke-width: 1.0;"/><polygon fill="#A80036" points="264.715,123.907,269.0902,115.0833,264.9254,118.9114,261.0973,114.7466,264.715,123.907" style="stroke: #A80036; stroke-width: 1.0;"/><line style="stroke: #A80036; stroke-width: 1.0;" x1="264.9254" x2="265.262" y1="118.9114" y2="110.9185"/><polygon fill="#FFFFFF" points="243.378,46.131,243.6466,53.3371,250.4017,55.8608,250.1331,48.6547,243.378,46.131" style="stroke: #A80036; stroke-width: 1.0;"/><text fill="#000000" font-family="sans-serif" font-size="13" lengthAdjust="spacingAndGlyphs" textLength="44" x="265.5" y="90.4951">policies</text><text fill="#000000" font-family="sans-serif" font-size="13" lengthAdjust="spacingAndGlyphs" textLength="7" x="258.7771" y="113.2966">n</text><!--link OutputStreamInstance to Model--><path d="M416.636,53.198 C405.375,60.31 393.321,68.233 382.5,76 C365.389,88.281 347.55,102.062 330.765,115.51 " fill="none" id="OutputStreamInstance-Model" style="stroke: #A80036; stroke-width: 1.0;"/><polygon fill="#A80036" points="320.466,123.824,329.9815,121.2834,324.3566,120.6834,324.9566,115.0585,320.466,123.824" style="stroke: #A80036; stroke-width: 1.0;"/><line style="stroke: #A80036; stroke-width: 1.0;" x1="324.3566" x2="330.581" y1="120.6834" y2="115.6585"/><polygon fill="#A80036" points="428,46.12,420.7923,45.8969,417.8143,52.4643,425.0219,52.6874,428,46.12" style="stroke: #A80036; stroke-width: 1.0;"/><text fill="#000000" font-family="sans-serif" font-size="13" lengthAdjust="spacingAndGlyphs" textLength="52" x="383.5" y="90.4951">channels</text><text fill="#000000" font-family="sans-serif" font-size="13" lengthAdjust="spacingAndGlyphs" textLength="7" x="321.3228" y="113.2035">n</text><!--link OutputStreamInstance to Model--><path d="M455.589,59.386 C453.13,71.316 448.646,84.343 440.5,94 C414.96,124.278 376.646,144.692 341.256,158.129 " fill="none" id="OutputStreamInstance-Model-1" style="stroke: #A80036; stroke-width: 1.0;"/><polygon fill="#A80036" points="328.886,162.595,338.7096,163.3002,333.5887,160.8967,335.9922,155.7758,328.886,162.595" style="stroke: #A80036; stroke-width: 1.0;"/><line style="stroke: #A80036; stroke-width: 1.0;" x1="333.5887" x2="341.1135" y1="160.8967" y2="158.1805"/><polygon fill="#FFFFFF" points="457.644,46.155,452.7709,51.4703,455.8031,58.0129,460.6762,52.6976,457.644,46.155" style="stroke: #A80036; stroke-width: 1.0;"/><text fill="#000000" font-family="sans-serif" font-size="13" lengthAdjust="spacingAndGlyphs" textLength="44" x="452.5" y="90.4951">policies</text><text fill="#000000" font-family="sans-serif" font-size="13" lengthAdjust="spacingAndGlyphs" textLength="7" x="336.5001" y="157.4386">n</text><!--
@startuml

class "DataChannelInstance" as Model {
 string name
 string direction
 string message

 create()
 failed()
 
}

rectangle "DataChannel" as DataChannel #lightblue {
}

Model o- -> "1" DataChannel : design


rectangle "DataStreamInstance" as DataStreamInstance #lightblue {
}

Model o- -> "1" DataStreamInstance : stream


rectangle "ServiceInstance" as ServiceInstance #lightblue {
}

Model o- -> "n" ServiceInstance : transformInstance


rectangle "SABundleInstance" as SABundleInstance #lightblue {
}

Model o- -> "1" SABundleInstance : bundle




    rectangle "DataChannel" as DataChannel #lightgreen {
    }
    
        DataChannel   o- -> "n" Model : "instances"
    
    rectangle "DataStreamInstance" as DataStreamInstance #lightgreen {
    }
    
        DataStreamInstance   *- -> "n" Model : "channels"
    
    rectangle "DataStreamInstance" as DataStreamInstance #lightgreen {
    }
    
        DataStreamInstance   o- -> "n" Model : "policies"
    
    rectangle "InputStreamInstance" as InputStreamInstance #lightgreen {
    }
    
        InputStreamInstance   *- -> "n" Model : "channels"
    
    rectangle "InputStreamInstance" as InputStreamInstance #lightgreen {
    }
    
        InputStreamInstance   o- -> "n" Model : "policies"
    
    rectangle "OutputStreamInstance" as OutputStreamInstance #lightgreen {
    }
    
        OutputStreamInstance   *- -> "n" Model : "channels"
    
    rectangle "OutputStreamInstance" as OutputStreamInstance #lightgreen {
    }
    
        OutputStreamInstance   o- -> "n" Model : "policies"
    

@enduml

PlantUML version 1.2019.05(Sat Apr 20 09:45:36 PDT 2019)
(GPL source distribution)
Java Runtime: Java(TM) SE Runtime Environment
JVM: Java HotSpot(TM) Client VM
Java Version: 1.8.0_271-b09
Operating System: Windows 10
OS Version: 10.0
Default Encoding: Cp1252
Language: en
Country: US
--></g></svg>