<?xml version="1.0" encoding="us-ascii" standalone="no"?><svg xmlns="http://www.w3.org/2000/svg" xmlns:xlink="http://www.w3.org/1999/xlink" contentStyleType="text/css" height="380px" preserveAspectRatio="none" style="width:576px;height:380px;background:#FFFFFF;" version="1.1" viewBox="0 0 576 380" width="576px" zoomAndPan="magnify"><defs/><g><!--entity DataChannel--><g id="elem_DataChannel"><rect fill="#90EE90" height="37.6094" rx="2.5" ry="2.5" style="stroke:#181818;stroke-width:0.5;" width="103" x="7" y="7"/><text fill="#000000" font-family="sans-serif" font-size="14" lengthAdjust="spacing" textLength="83" x="17" y="31.5332">DataChannel</text></g><!--entity DataStreamInstance--><g id="elem_DataStreamInstance"><rect fill="#90EE90" height="37.6094" rx="2.5" ry="2.5" style="stroke:#181818;stroke-width:0.5;" width="148" x="85.5" y="337"/><text fill="#000000" font-family="sans-serif" font-size="14" lengthAdjust="spacing" textLength="128" x="95.5" y="361.5332">DataStreamInstance</text></g><!--entity ServiceInstance--><g id="elem_ServiceInstance"><rect fill="#ADD8E6" height="37.6094" rx="2.5" ry="2.5" style="stroke:#181818;stroke-width:0.5;" width="120" x="279.5" y="337"/><text fill="#000000" font-family="sans-serif" font-size="14" lengthAdjust="spacing" textLength="100" x="289.5" y="361.5332">ServiceInstance</text></g><!--entity SABundleInstance--><g id="elem_SABundleInstance"><rect fill="#ADD8E6" height="37.6094" rx="2.5" ry="2.5" style="stroke:#181818;stroke-width:0.5;" width="135" x="435" y="337"/><text fill="#000000" font-family="sans-serif" font-size="14" lengthAdjust="spacing" textLength="115" x="445" y="361.5332">SABundleInstance</text></g><!--entity InputStreamInstance--><g id="elem_InputStreamInstance"><rect fill="#90EE90" height="37.6094" rx="2.5" ry="2.5" style="stroke:#181818;stroke-width:0.5;" width="149" x="153" y="7"/><text fill="#000000" font-family="sans-serif" font-size="14" lengthAdjust="spacing" textLength="129" x="163" y="31.5332">InputStreamInstance</text></g><!--entity OutputStreamInstance--><g id="elem_OutputStreamInstance"><rect fill="#90EE90" height="37.6094" rx="2.5" ry="2.5" style="stroke:#181818;stroke-width:0.5;" width="161" x="379" y="7"/><text fill="#000000" font-family="sans-serif" font-size="14" lengthAdjust="spacing" textLength="141" x="389" y="31.5332">OutputStreamInstance</text></g><!--class Model--><g id="elem_Model"><rect codeLine="2" fill="#F1F1F1" height="136.0469" id="Model" rx="2.5" ry="2.5" style="stroke:#181818;stroke-width:0.5;" width="168" x="169.5" y="123"/><ellipse cx="184.5" cy="139" fill="#ADD1B2" rx="11" ry="11" style="stroke:#181818;stroke-width:1.0;"/><path d="M187.2656,134.875 Q187.4219,134.6563 187.6094,134.5469 Q187.7969,134.4375 188.0156,134.4375 Q188.3906,134.4375 188.625,134.6953 Q188.8594,134.9531 188.8594,135.5625 L188.8594,137.0156 Q188.8594,137.625 188.625,137.8906 Q188.3906,138.1563 188.0156,138.1563 Q187.6719,138.1563 187.4688,137.9531 Q187.2656,137.7656 187.1563,137.25 Q187.1094,136.8906 186.9219,136.7031 Q186.5938,136.3281 185.9844,136.1094 Q185.375,135.8906 184.75,135.8906 Q183.9844,135.8906 183.3516,136.2188 Q182.7188,136.5469 182.2266,137.2969 Q181.7344,138.0469 181.7344,139.0781 L181.7344,140.1719 Q181.7344,141.4063 182.625,142.2266 Q183.5156,143.0469 185.1094,143.0469 Q186.0469,143.0469 186.7031,142.7969 Q187.0938,142.6406 187.5156,142.2031 Q187.7813,141.9375 187.9297,141.8594 Q188.0781,141.7813 188.2813,141.7813 Q188.6094,141.7813 188.8672,142.0391 Q189.125,142.2969 189.125,142.6406 Q189.125,142.9844 188.7813,143.3906 Q188.2813,143.9688 187.4844,144.2969 Q186.4063,144.75 185.1094,144.75 Q183.5938,144.75 182.3906,144.125 Q181.4063,143.625 180.7188,142.5547 Q180.0313,141.4844 180.0313,140.2031 L180.0313,139.0469 Q180.0313,137.7188 180.6484,136.5703 Q181.2656,135.4219 182.3594,134.8047 Q183.4531,134.1875 184.6875,134.1875 Q185.4219,134.1875 186.0703,134.3516 Q186.7188,134.5156 187.2656,134.875 Z " fill="#000000"/><text fill="#000000" font-family="sans-serif" font-size="14" lengthAdjust="spacing" textLength="136" x="198.5" y="144.7285">DataChannelInstance</text><line style="stroke:#181818;stroke-width:0.5;" x1="170.5" x2="336.5" y1="155" y2="155"/><text fill="#000000" font-family="sans-serif" font-size="14" lengthAdjust="spacing" textLength="74" x="175.5" y="173.5332">string name</text><text fill="#000000" font-family="sans-serif" font-size="14" lengthAdjust="spacing" textLength="93" x="175.5" y="191.1426">string direction</text><text fill="#000000" font-family="sans-serif" font-size="14" lengthAdjust="spacing" textLength="96" x="175.5" y="208.752">string message</text><line style="stroke:#181818;stroke-width:0.5;" x1="170.5" x2="336.5" y1="215.8281" y2="215.8281"/><text fill="#000000" font-family="sans-serif" font-size="14" lengthAdjust="spacing" textLength="50" x="175.5" y="234.3613">create()</text><text fill="#000000" font-family="sans-serif" font-size="14" lengthAdjust="spacing" textLength="44" x="175.5" y="251.9707">failed()</text></g><!--link Model to DataChannel--><g id="link_Model_DataChannel"><path codeLine="15" d="M163.8539,115.0628 C130.0539,86.8028 107.2241,67.7273 84.7141,48.9173 " fill="none" id="Model-DataChannel" style="stroke:#181818;stroke-width:1.0;"/><polygon fill="none" points="173.06,122.76,171.0227,115.8427,163.8539,115.0628,165.8912,121.9801,173.06,122.76" style="stroke:#181818;stroke-width:1.0;"/><polygon fill="#181818" points="80.11,45.07,84.4513,53.9104,83.9468,48.2761,89.5811,47.7716,80.11,45.07" style="stroke:#181818;stroke-width:1.0;"/><text fill="#000000" font-family="sans-serif" font-size="13" lengthAdjust="spacing" textLength="38" x="134.5" y="89.4951">design</text><text fill="#000000" font-family="sans-serif" font-size="13" lengthAdjust="spacing" textLength="7" x="77.9771" y="65.9399">1</text></g><!--link DataChannel to Model--><g id="link_DataChannel_Model"><path codeLine="41" d="M46.3611,56.5041 C41.3811,70.5941 41.51,78.74 50.5,93 C76.64,134.47 120.222,156.7721 163.692,170.5921 " fill="none" id="DataChannel-Model" style="stroke:#181818;stroke-width:1.0;"/><polygon fill="none" points="50.36,45.19,44.5892,49.5141,46.3611,56.5041,52.1319,52.18,50.36,45.19" style="stroke:#181818;stroke-width:1.0;"/><polygon fill="#181818" points="169.41,172.41,162.0449,165.8712,164.645,170.8951,159.6211,173.4952,169.41,172.41" style="stroke:#181818;stroke-width:1.0;"/><text fill="#000000" font-family="sans-serif" font-size="13" lengthAdjust="spacing" textLength="56" x="51.5" y="89.4951">instances</text><text fill="#000000" font-family="sans-serif" font-size="13" lengthAdjust="spacing" textLength="7" x="154.609" y="167.5505">n</text></g><!--link Model to DataStreamInstance--><g id="link_Model_DataStreamInstance"><path codeLine="21" d="M158.2575,220.682 C122.4475,235.552 95.3,254.08 74.5,289 C62.46,309.23 77.4422,322.9518 101.2722,334.2918 " fill="none" id="Model-DataStreamInstance" style="stroke:#181818;stroke-width:1.0;"/><polygon fill="none" points="169.34,216.08,162.2648,214.6868,158.2575,220.682,165.3327,222.0752,169.34,216.08" style="stroke:#181818;stroke-width:1.0;"/><polygon fill="#181818" points="106.69,336.87,100.282,329.3908,102.1751,334.7215,96.8445,336.6146,106.69,336.87" style="stroke:#181818;stroke-width:1.0;"/><text fill="#000000" font-family="sans-serif" font-size="13" lengthAdjust="spacing" textLength="40" x="75.5" y="303.4951">stream</text><text fill="#000000" font-family="sans-serif" font-size="13" lengthAdjust="spacing" textLength="7" x="82.4451" y="326.1702">1</text></g><!--link DataStreamInstance to Model--><g id="link_DataStreamInstance_Model"><path codeLine="46" d="M152.3016,325.152 C149.5716,311.472 150.18,304.26 156.5,289 C160.87,278.44 163.3791,273.1991 170.4791,263.8991 " fill="none" id="DataStreamInstance-Model" style="stroke:#181818;stroke-width:1.0;"/><polygon fill="#181818" points="154.65,336.92,157.3984,330.2532,152.3016,325.152,149.5531,331.8188,154.65,336.92" style="stroke:#181818;stroke-width:1.0;"/><polygon fill="#181818" points="174.12,259.13,165.4793,263.8563,171.0859,263.1042,171.838,268.7108,174.12,259.13" style="stroke:#181818;stroke-width:1.0;"/><text fill="#000000" font-family="sans-serif" font-size="13" lengthAdjust="spacing" textLength="52" x="157.5" y="303.4951">channels</text><text fill="#000000" font-family="sans-serif" font-size="13" lengthAdjust="spacing" textLength="7" x="158.573" y="280.4917">n</text></g><!--link DataStreamInstance to Model--><g id="link_DataStreamInstance_Model"><path codeLine="51" d="M195.1223,329.3135 C205.2623,321.1835 206.88,318.37 214.5,307 C224.12,292.64 229.6165,281.3496 235.3065,264.9196 " fill="none" id="DataStreamInstance-Model-1" style="stroke:#181818;stroke-width:1.0;"/><polygon fill="none" points="185.76,336.82,192.9433,336.1875,195.1223,329.3135,187.939,329.946,185.76,336.82" style="stroke:#181818;stroke-width:1.0;"/><polygon fill="#181818" points="237.27,259.25,230.545,266.4454,235.6338,263.9747,238.1045,269.0634,237.27,259.25" style="stroke:#181818;stroke-width:1.0;"/><text fill="#000000" font-family="sans-serif" font-size="13" lengthAdjust="spacing" textLength="44" x="225.5" y="303.4951">policies</text><text fill="#000000" font-family="sans-serif" font-size="13" lengthAdjust="spacing" textLength="7" x="228.2353" y="280.6241">n</text></g><!--link Model to ServiceInstance--><g id="link_Model_ServiceInstance"><path codeLine="27" d="M294.5769,269.8549 C309.4669,298.0949 317.2201,312.7634 327.1501,331.5834 " fill="none" id="Model-ServiceInstance" style="stroke:#181818;stroke-width:1.0;"/><polygon fill="none" points="288.98,259.24,288.2401,266.413,294.5769,269.8549,295.3167,262.6818,288.98,259.24" style="stroke:#181818;stroke-width:1.0;"/><polygon fill="#181818" points="329.95,336.89,329.2878,327.0634,327.6167,332.4678,322.2123,330.7967,329.95,336.89" style="stroke:#181818;stroke-width:1.0;"/><text fill="#000000" font-family="sans-serif" font-size="13" lengthAdjust="spacing" textLength="103" x="315.5" y="303.4951">transformInstance</text><text fill="#000000" font-family="sans-serif" font-size="13" lengthAdjust="spacing" textLength="7" x="318.9534" y="326.1963">n</text></g><!--link Model to SABundleInstance--><g id="link_Model_SABundleInstance"><path codeLine="33" d="M348.1155,239.8965 C377.3955,255.7965 399.4,269.14 427.5,289 C448.04,303.51 465.0277,318.6194 479.6677,332.5794 " fill="none" id="Model-SABundleInstance" style="stroke:#181818;stroke-width:1.0;"/><polygon fill="none" points="337.57,234.17,340.9339,240.5484,348.1155,239.8965,344.7516,233.5181,337.57,234.17" style="stroke:#181818;stroke-width:1.0;"/><polygon fill="#181818" points="484.01,336.72,480.257,327.6142,480.3914,333.2695,474.7362,333.404,484.01,336.72" style="stroke:#181818;stroke-width:1.0;"/><text fill="#000000" font-family="sans-serif" font-size="13" lengthAdjust="spacing" textLength="38" x="450.5" y="303.4951">bundle</text><text fill="#000000" font-family="sans-serif" font-size="13" lengthAdjust="spacing" textLength="7" x="470.5504" y="326.3106">1</text></g><!--link InputStreamInstance to Model--><g id="link_InputStreamInstance_Model"><path codeLine="56" d="M208.6265,55.5095 C200.9565,68.5795 199.48,76.41 203.5,93 C205.93,103.03 207.2039,107.6892 211.4639,117.4692 " fill="none" id="InputStreamInstance-Model" style="stroke:#181818;stroke-width:1.0;"/><polygon fill="#181818" points="214.7,45.16,208.2134,48.3103,208.6265,55.5095,215.1131,52.3593,214.7,45.16" style="stroke:#181818;stroke-width:1.0;"/><polygon fill="#181818" points="213.86,122.97,213.9331,113.1214,211.8633,118.386,206.5987,116.3162,213.86,122.97" style="stroke:#181818;stroke-width:1.0;"/><text fill="#000000" font-family="sans-serif" font-size="13" lengthAdjust="spacing" textLength="52" x="204.5" y="89.4951">channels</text><text fill="#000000" font-family="sans-serif" font-size="13" lengthAdjust="spacing" textLength="7" x="202.1416" y="112.166">n</text></g><!--link InputStreamInstance to Model--><g id="link_InputStreamInstance_Model"><path codeLine="61" d="M251.8587,54.5145 C258.5687,62.9345 258.03,64.1 261.5,75 C266.3,90.07 267.6749,100.7878 266.8649,116.7078 " fill="none" id="InputStreamInstance-Model-1" style="stroke:#181818;stroke-width:1.0;"/><polygon fill="none" points="244.38,45.13,244.9911,52.3152,251.8587,54.5145,251.2475,47.3294,244.38,45.13" style="stroke:#181818;stroke-width:1.0;"/><polygon fill="#181818" points="266.56,122.7,271.0122,113.9149,266.8141,117.7065,263.0225,113.5084,266.56,122.7" style="stroke:#181818;stroke-width:1.0;"/><text fill="#000000" font-family="sans-serif" font-size="13" lengthAdjust="spacing" textLength="44" x="266.5" y="89.4951">policies</text><text fill="#000000" font-family="sans-serif" font-size="13" lengthAdjust="spacing" textLength="7" x="260.5459" y="112.3424">n</text></g><!--link OutputStreamInstance to Model--><g id="link_OutputStreamInstance_Model"><path codeLine="66" d="M418.1734,51.3156 C404.1134,59.8856 397.73,64.32 383.5,75 C363.98,89.65 348.3058,102.5779 329.8258,118.8279 " fill="none" id="OutputStreamInstance-Model" style="stroke:#181818;stroke-width:1.0;"/><polygon fill="#181818" points="428.42,45.07,421.2148,44.7773,418.1734,51.3156,425.3786,51.6083,428.42,45.07" style="stroke:#181818;stroke-width:1.0;"/><polygon fill="#181818" points="325.32,122.79,334.72,119.8508,329.0748,119.4883,329.4373,113.8431,325.32,122.79" style="stroke:#181818;stroke-width:1.0;"/><text fill="#000000" font-family="sans-serif" font-size="13" lengthAdjust="spacing" textLength="52" x="384.5" y="89.4951">channels</text><text fill="#000000" font-family="sans-serif" font-size="13" lengthAdjust="spacing" textLength="7" x="325.7925" y="111.9663">n</text></g><!--link OutputStreamInstance to Model--><g id="link_OutputStreamInstance_Model"><path codeLine="71" d="M457.1321,56.9518 C455.4821,71.3318 452.56,79.34 441.5,93 C414.93,125.83 379.8291,146.4338 343.1291,161.7138 " fill="none" id="OutputStreamInstance-Model-1" style="stroke:#181818;stroke-width:1.0;"/><polygon fill="none" points="458.5,45.03,453.8421,50.5349,457.1321,56.9518,461.79,51.4469,458.5,45.03" style="stroke:#181818;stroke-width:1.0;"/><polygon fill="#181818" points="337.59,164.02,347.4361,164.2534,342.2059,162.0982,344.3612,156.868,337.59,164.02" style="stroke:#181818;stroke-width:1.0;"/><text fill="#000000" font-family="sans-serif" font-size="13" lengthAdjust="spacing" textLength="44" x="452.5" y="89.4951">policies</text><text fill="#000000" font-family="sans-serif" font-size="13" lengthAdjust="spacing" textLength="7" x="345.391" y="158.4133">n</text></g><!--SRC=[nPA_RiCW4CPtdk94bxPIXguUAlNFaY7ga2SW-4AGy3a2tANAknVioec1rhKgfJSWy_a-VpyEIoES0_ugl7Wv228qQt9Ua4GEmi6chT701mFdhIO591eSDxMsABrkQLGQT4ueP0oaHU7nzex1NcY3TNnY9yQYGv0oECdiioxsS6EqElYTwJ241zl0qQvMZy0V-AIrWXgTLiIoZszzW6WcvydbtqGbZYeUDmZJn2tQTorn4fTeFsOHpzehy5QGsxTs34yodvuxgaqIceXp9ypwAzZr0ei5eHPTchA857-PKAT-xPTObyrmFlR0Km7NNmIEdtr_kDCPaiG3S9y1oG7sdtZo0HrRewN-RZvhEdQ-05JGvubAfkKZkWBIqYczTRxCL7en3rLqBH_KTQXcP_K9]--></g></svg>