<?xml version="1.0" encoding="us-ascii" standalone="no"?><svg xmlns="http://www.w3.org/2000/svg" xmlns:xlink="http://www.w3.org/1999/xlink" contentStyleType="text/css" height="304px" preserveAspectRatio="none" style="width:183px;height:304px;background:#FFFFFF;" version="1.1" viewBox="0 0 183 304" width="183px" zoomAndPan="magnify"><defs/><g><g id="elem_RemoveCapability"><ellipse cx="91.5075" cy="163.2015" fill="#FFFF00" rx="81.5075" ry="18.7015" style="stroke:#181818;stroke-width:0.5;"/><text fill="#000000" font-family="sans-serif" font-size="14" lengthAdjust="spacing" textLength="118" x="32.1675" y="167.0304">Remove Capability</text></g><!--entity DevOpsEngineer--><g id="elem_DevOpsEngineer"><ellipse cx="91.5" cy="14" fill="#F1F1F1" rx="8" ry="8" style="stroke:#181818;stroke-width:0.5;"/><path d="M91.5,22 L91.5,49 M78.5,30 L104.5,30 M91.5,49 L78.5,64 M91.5,49 L104.5,64 " fill="none" style="stroke:#181818;stroke-width:0.5;"/><text fill="#000000" font-family="sans-serif" font-size="14" lengthAdjust="spacing" textLength="112" x="35.5" y="80.0332">DevOps Engineer</text></g><g id="elem_ManageCapabilities"><ellipse cx="91.6926" cy="279.0385" fill="#FFFFE0" rx="85.6926" ry="19.5385" style="stroke:#181818;stroke-width:0.5;"/><text fill="#000000" font-family="sans-serif" font-size="14" lengthAdjust="spacing" textLength="128" x="27.6926" y="282.767">Manage Capabilities</text></g><!--link DevOpsEngineer to RemoveCapability--><g id="link_DevOpsEngineer_RemoveCapability"><path d="M91.5,83.65 C91.5,104.09 91.5,122.29 91.5,138.33 " fill="none" id="DevOpsEngineer-to-RemoveCapability" style="stroke:#181818;stroke-width:1.0;"/><polygon fill="#181818" points="91.5,144.33,95.5,135.33,91.5,139.33,87.5,135.33,91.5,144.33" style="stroke:#181818;stroke-width:1.0;"/></g><!--reverse link RemoveCapability to ManageCapabilities--><g id="link_RemoveCapability_ManageCapabilities"><path d="M91.5,187.81 C91.5,208.85 91.5,237.7 91.5,259.18 " fill="none" id="RemoveCapability-backto-ManageCapabilities" style="stroke:#181818;stroke-width:1.0;"/><polygon fill="#181818" points="91.5,181.81,87.5,190.81,91.5,186.81,95.5,190.81,91.5,181.81" style="stroke:#181818;stroke-width:1.0;"/><text fill="#000000" font-family="sans-serif" font-size="13" lengthAdjust="spacing" textLength="46" x="92.5" y="225.9951">extends</text></g><!--SRC=[ROv12i8m44NtSugXNUS28eAeIn6ymLW_CH2JqachlRsG4ApKsVq7_yyR5PqekBdY6IVmGNgvEU_ItB0e5_g5tCxmFhw8zbsA0pT7J9TU-HIi2y2GIuLLHFIRsPZTQfVoZLNcB47iGiP1ytBXIyojT_QHgjNATslClzQ6yKu8TosFwGC0]--></g></svg>