<?xml version="1.0" encoding="UTF-8" standalone="no"?><svg xmlns="http://www.w3.org/2000/svg" xmlns:xlink="http://www.w3.org/1999/xlink" contentScriptType="application/ecmascript" contentStyleType="text/css" height="261px" preserveAspectRatio="none" style="width:916px;height:261px;" version="1.1" viewBox="0 0 916 261" width="916px" zoomAndPan="magnify"><defs><filter height="300%" id="f12ja0bi3qdrxf" width="300%" x="-1" y="-1"><feGaussianBlur result="blurOut" stdDeviation="2.0"/><feColorMatrix in="blurOut" result="blurOut2" type="matrix" values="0 0 0 0 0 0 0 0 0 0 0 0 0 0 0 0 0 0 .4 0"/><feOffset dx="4.0" dy="4.0" in="blurOut2" result="blurOut3"/><feBlend in="SourceGraphic" in2="blurOut3" mode="normal"/></filter></defs><g><!--cluster Application Management Layer--><polygon fill="#00AAFF" filter="url(#f12ja0bi3qdrxf)" points="559.5,42,780.5,42,787.5,65.6094,828.5,65.6094,828.5,158,559.5,158,559.5,42" style="stroke: #000000; stroke-width: 1.5;"/><line style="stroke: #000000; stroke-width: 1.5;" x1="559.5" x2="787.5" y1="65.6094" y2="65.6094"/><text fill="#000000" font-family="sans-serif" font-size="14" font-weight="bold" lengthAdjust="spacingAndGlyphs" textLength="215" x="563.5" y="58.5332">Application Management Layer</text><polygon fill="#FFCC88" filter="url(#f12ja0bi3qdrxf)" points="6,194,311,194,318,217.6094,325,217.6094,325,249.2188,6,249.2188,6,194" style="stroke: #000000; stroke-width: 1.5;"/><line style="stroke: #000000; stroke-width: 1.5;" x1="6" x2="318" y1="217.6094" y2="217.6094"/><text fill="#000000" font-family="sans-serif" font-size="14" font-weight="bold" lengthAdjust="spacingAndGlyphs" textLength="299" x="10" y="210.5332">Distributed Information Management Layer</text><polygon fill="#90EE90" filter="url(#f12ja0bi3qdrxf)" points="360,194,557,194,564,217.6094,571,217.6094,571,249.2188,360,249.2188,360,194" style="stroke: #000000; stroke-width: 1.5;"/><line style="stroke: #000000; stroke-width: 1.5;" x1="360" x2="564" y1="217.6094" y2="217.6094"/><text fill="#000000" font-family="sans-serif" font-size="14" font-weight="bold" lengthAdjust="spacingAndGlyphs" textLength="191" x="364" y="210.5332">Service Management Layer</text><polygon fill="#FFC0CB" filter="url(#f12ja0bi3qdrxf)" points="606,194,721,194,728,217.6094,735,217.6094,735,249.2188,606,249.2188,606,194" style="stroke: #000000; stroke-width: 1.5;"/><line style="stroke: #000000; stroke-width: 1.5;" x1="606" x2="728" y1="217.6094" y2="217.6094"/><text fill="#000000" font-family="sans-serif" font-size="14" font-weight="bold" lengthAdjust="spacingAndGlyphs" textLength="109" x="610" y="210.5332">Security Aspect</text><polygon fill="#FFBBBB" filter="url(#f12ja0bi3qdrxf)" points="770.5,194,880.5,194,887.5,217.6094,894.5,217.6094,894.5,249.2188,770.5,249.2188,770.5,194" style="stroke: #000000; stroke-width: 1.5;"/><line style="stroke: #000000; stroke-width: 1.5;" x1="770.5" x2="887.5" y1="217.6094" y2="217.6094"/><text fill="#000000" font-family="sans-serif" font-size="14" font-weight="bold" lengthAdjust="spacingAndGlyphs" textLength="104" x="774.5" y="210.5332">Identity Aspect</text><!--class i--><rect fill="#FEFECE" filter="url(#f12ja0bi3qdrxf)" height="48" id="i" style="stroke: #A80036; stroke-width: 1.5;" width="202" x="602.5" y="86"/><ellipse cx="617.5" cy="102" fill="#B4A7E5" rx="11" ry="11" style="stroke: #A80036; stroke-width: 1.0;"/><path d="M618.4531,98.6406 L618.4531,105.2969 L620.1719,105.2969 Q620.7813,105.2969 621.0469,105.5313 Q621.3125,105.7656 621.3125,106.1563 Q621.3125,106.5313 621.0469,106.7656 Q620.7813,107 620.1719,107 L615.0313,107 Q614.4219,107 614.1563,106.7656 Q613.8906,106.5313 613.8906,106.1406 Q613.8906,105.7656 614.1563,105.5313 Q614.4219,105.2969 615.0313,105.2969 L616.75,105.2969 L616.75,98.6406 L615.0313,98.6406 Q614.4219,98.6406 614.1563,98.4063 Q613.8906,98.1719 613.8906,97.7813 Q613.8906,97.4063 614.1563,97.1719 Q614.4219,96.9375 615.0313,96.9375 L620.1719,96.9375 Q620.7813,96.9375 621.0469,97.1719 Q621.3125,97.4063 621.3125,97.7813 Q621.3125,98.1719 621.0469,98.4063 Q620.7813,98.6406 620.1719,98.6406 L618.4531,98.6406 Z "/><text fill="#000000" font-family="sans-serif" font-size="12" font-style="italic" lengthAdjust="spacingAndGlyphs" textLength="170" x="631.5" y="106.9102">Application Management Layer</text><line style="stroke: #A80036; stroke-width: 1.5;" x1="603.5" x2="803.5" y1="118" y2="118"/><line style="stroke: #A80036; stroke-width: 1.5;" x1="603.5" x2="803.5" y1="126" y2="126"/><ellipse cx="658.5" cy="13" fill="#FEFECE" filter="url(#f12ja0bi3qdrxf)" rx="5" ry="5" style="stroke: #A80036; stroke-width: 1.5;"/><text fill="#000000" font-family="sans-serif" font-size="12" lengthAdjust="spacingAndGlyphs" textLength="19" x="649" y="30.457">CLI</text><ellipse cx="703.5" cy="13" fill="#FEFECE" filter="url(#f12ja0bi3qdrxf)" rx="5" ry="5" style="stroke: #A80036; stroke-width: 1.5;"/><text fill="#000000" font-family="sans-serif" font-size="12" lengthAdjust="spacingAndGlyphs" textLength="32" x="687.5" y="30.457">REST</text><ellipse cx="748.5" cy="13" fill="#FEFECE" filter="url(#f12ja0bi3qdrxf)" rx="5" ry="5" style="stroke: #A80036; stroke-width: 1.5;"/><text fill="#000000" font-family="sans-serif" font-size="12" lengthAdjust="spacingAndGlyphs" textLength="25" x="736" y="30.457">Web</text><!--link ilol1912 to i--><path d="M660.434,18.082 C665.884,29.589 681.682,62.941 692.549,85.882 " fill="none" id="ilol1912-i" style="stroke: #A80036; stroke-width: 1.0;"/><!--link ilol1915 to i--><path d="M703.5,18.082 C703.5,29.589 703.5,62.941 703.5,85.882 " fill="none" id="ilol1915-i" style="stroke: #A80036; stroke-width: 1.0;"/><!--link ilol1918 to i--><path d="M746.566,18.082 C741.116,29.589 725.318,62.941 714.451,85.882 " fill="none" id="ilol1918-i" style="stroke: #A80036; stroke-width: 1.0;"/><!--link Application Management Layer to Distributed Information Management Layer--><path d="M559.2006,113.2606 C558.8756,113.3492 558.5417,113.4401 558.1989,113.5335 C552.715,115.0272 544.9751,117.1355 535.4355,119.7339 C516.3562,124.9308 490.0781,132.0887 460.2504,140.2134 C400.595,156.4628 326.7415,176.5797 267.885,192.6115 " fill="none" id="Application Management Layer-Distributed Information Management Layer" style="stroke: #A80036; stroke-width: 1.0;"/><polygon fill="#A80036" points="263.025,193.9352,272.7599,195.4289,267.8492,192.6209,270.6571,187.7102,263.025,193.9352" style="stroke: #A80036; stroke-width: 1.0;"/><!--link Application Management Layer to Service Management Layer--><path d="M559.4431,119.6489 C559.3706,119.7267 559.2977,119.805 559.2244,119.8837 C554.5318,124.9214 548.1556,131.7664 540.9213,139.5328 C526.4525,155.0656 508.551,174.2836 493.82,190.098 " fill="none" id="Application Management Layer-Service Management Layer" style="stroke: #A80036; stroke-width: 1.0;"/><polygon fill="#A80036" points="490.293,193.8839,499.3543,190.0248,493.701,190.2253,493.5006,184.572,490.293,193.8839" style="stroke: #A80036; stroke-width: 1.0;"/><!--link Application Management Layer to Security Aspect--><path d="M577.1819,158.0385 C577.2263,158.1427 577.2708,158.2468 577.3156,158.3509 C577.4052,158.5589 577.4956,158.7667 577.5868,158.9741 C577.7692,159.3889 577.9548,159.8023 578.1439,160.2141 C578.9001,161.8613 579.7099,163.4828 580.5771,165.0658 C582.3116,168.2319 584.2758,171.2442 586.5,174 C591.615,180.3375 597.838,185.9497 604.558,190.8827 " fill="none" id="Application Management Layer-Security Aspect" style="stroke: #A80036; stroke-width: 1.0;"/><polygon fill="#A80036" points="608.802,193.8668,603.7404,185.4181,604.7118,190.991,599.139,191.9624,608.802,193.8668" style="stroke: #A80036; stroke-width: 1.0;"/><!--link Application Management Layer to Identity Aspect--><path d="M574.8951,158.0743 C575.0796,158.4792 575.2684,158.882 575.4618,159.2822 C575.8485,160.0828 576.2531,160.8736 576.6766,161.6527 C577.5234,163.211 578.4453,164.7226 579.4488,166.1721 C581.4557,169.0711 583.7889,171.7215 586.5,174 C614.945,197.9049 716.239,185.8956 752.5,194 C756.708,194.9404 761.007,196.0155 765.321,197.1818 " fill="none" id="Application Management Layer-Identity Aspect" style="stroke: #A80036; stroke-width: 1.0;"/><polygon fill="#A80036" points="770.386,198.5902,762.7872,192.3246,765.5689,197.2502,760.6432,200.032,770.386,198.5902" style="stroke: #A80036; stroke-width: 1.0;"/><!--
@startuml


package "Distributed Information Management Layer" #ffcc88 {
    }

package "Service Management Layer" #lightgreen {
    }

package "Security Aspect" #pink {
    }

package "Identity Aspect" #ffbbbb {
    }


package "Application Management Layer" #00aaff {

    interface "Application Management Layer" as i {
    
    }
}

CLI ()- - i
REST ()- - i
Web ()- - i

package "Application Management Layer" #00aaff {
    
}


    "Application Management Layer" - -> "Distributed Information Management Layer"

    "Application Management Layer" - -> "Service Management Layer"

    "Application Management Layer" - -> "Security Aspect"

    "Application Management Layer" - -> "Identity Aspect"


@enduml

PlantUML version 1.2019.05(Sat Apr 20 09:45:36 PDT 2019)
(GPL source distribution)
Java Runtime: Java(TM) SE Runtime Environment
JVM: Java HotSpot(TM) Client VM
Java Version: 1.8.0_271-b09
Operating System: Windows 10
OS Version: 10.0
Default Encoding: Cp1252
Language: en
Country: US
--></g></svg>