<?xml version="1.0" encoding="us-ascii" standalone="no"?><svg xmlns="http://www.w3.org/2000/svg" xmlns:xlink="http://www.w3.org/1999/xlink" contentStyleType="text/css" height="254px" preserveAspectRatio="none" style="width:901px;height:254px;background:#FFFFFF;" version="1.1" viewBox="0 0 901 254" width="901px" zoomAndPan="magnify"><defs/><g><!--cluster Application Management Layer--><g id="cluster_Application Management Layer"><path d="M562,40 L778,40 A3.75,3.75 0 0 1 780.5,42.5 L787.5,63.6094 L852,63.6094 A2.5,2.5 0 0 1 854.5,66.1094 L854.5,153.5 A2.5,2.5 0 0 1 852,156 L562,156 A2.5,2.5 0 0 1 559.5,153.5 L559.5,42.5 A2.5,2.5 0 0 1 562,40 " fill="#00AAFF" style="stroke:#000000;stroke-width:1.5;"/><line style="stroke:#000000;stroke-width:1.5;" x1="559.5" x2="787.5" y1="63.6094" y2="63.6094"/><text fill="#000000" font-family="sans-serif" font-size="14" font-weight="bold" lengthAdjust="spacing" textLength="215" x="563.5" y="56.5332">Application Management Layer</text></g><path d="M8.5,192 L308.5,192 A3.75,3.75 0 0 1 311,194.5 L318,215.6094 L322.5,215.6094 A2.5,2.5 0 0 1 325,218.1094 L325,244.7188 A2.5,2.5 0 0 1 322.5,247.2188 L8.5,247.2188 A2.5,2.5 0 0 1 6,244.7188 L6,194.5 A2.5,2.5 0 0 1 8.5,192 " fill="#FFCC88" style="stroke:#181818;stroke-width:0.5;"/><line style="stroke:#181818;stroke-width:0.5;" x1="6" x2="318" y1="215.6094" y2="215.6094"/><text fill="#000000" font-family="sans-serif" font-size="14" font-weight="bold" lengthAdjust="spacing" textLength="299" x="10" y="208.5332">Distributed Information Management Layer</text><path d="M362.5,192 L554.5,192 A3.75,3.75 0 0 1 557,194.5 L564,215.6094 L568.5,215.6094 A2.5,2.5 0 0 1 571,218.1094 L571,244.7188 A2.5,2.5 0 0 1 568.5,247.2188 L362.5,247.2188 A2.5,2.5 0 0 1 360,244.7188 L360,194.5 A2.5,2.5 0 0 1 362.5,192 " fill="#90EE90" style="stroke:#181818;stroke-width:0.5;"/><line style="stroke:#181818;stroke-width:0.5;" x1="360" x2="564" y1="215.6094" y2="215.6094"/><text fill="#000000" font-family="sans-serif" font-size="14" font-weight="bold" lengthAdjust="spacing" textLength="191" x="364" y="208.5332">Service Management Layer</text><path d="M608.5,192 L718.5,192 A3.75,3.75 0 0 1 721,194.5 L728,215.6094 L732.5,215.6094 A2.5,2.5 0 0 1 735,218.1094 L735,244.7188 A2.5,2.5 0 0 1 732.5,247.2188 L608.5,247.2188 A2.5,2.5 0 0 1 606,244.7188 L606,194.5 A2.5,2.5 0 0 1 608.5,192 " fill="#FFC0CB" style="stroke:#181818;stroke-width:0.5;"/><line style="stroke:#181818;stroke-width:0.5;" x1="606" x2="728" y1="215.6094" y2="215.6094"/><text fill="#000000" font-family="sans-serif" font-size="14" font-weight="bold" lengthAdjust="spacing" textLength="109" x="610" y="208.5332">Security Aspect</text><path d="M773,192 L878,192 A3.75,3.75 0 0 1 880.5,194.5 L887.5,215.6094 L892,215.6094 A2.5,2.5 0 0 1 894.5,218.1094 L894.5,244.7188 A2.5,2.5 0 0 1 892,247.2188 L773,247.2188 A2.5,2.5 0 0 1 770.5,244.7188 L770.5,194.5 A2.5,2.5 0 0 1 773,192 " fill="#FFBBBB" style="stroke:#181818;stroke-width:0.5;"/><line style="stroke:#181818;stroke-width:0.5;" x1="770.5" x2="887.5" y1="215.6094" y2="215.6094"/><text fill="#000000" font-family="sans-serif" font-size="14" font-weight="bold" lengthAdjust="spacing" textLength="104" x="774.5" y="208.5332">Identity Aspect</text><!--class i--><g id="elem_i"><rect codeLine="18" fill="#F1F1F1" height="48" id="i" rx="2.5" ry="2.5" style="stroke:#181818;stroke-width:0.5;" width="228" x="602.5" y="84"/><ellipse cx="617.5" cy="100" fill="#B4A7E5" rx="11" ry="11" style="stroke:#181818;stroke-width:1.0;"/><path d="M618.4531,96.6406 L618.4531,103.2969 L620.1719,103.2969 Q620.7813,103.2969 621.0469,103.5313 Q621.3125,103.7656 621.3125,104.1563 Q621.3125,104.5313 621.0469,104.7656 Q620.7813,105 620.1719,105 L615.0313,105 Q614.4219,105 614.1563,104.7656 Q613.8906,104.5313 613.8906,104.1406 Q613.8906,103.7656 614.1563,103.5313 Q614.4219,103.2969 615.0313,103.2969 L616.75,103.2969 L616.75,96.6406 L615.0313,96.6406 Q614.4219,96.6406 614.1563,96.4063 Q613.8906,96.1719 613.8906,95.7813 Q613.8906,95.4063 614.1563,95.1719 Q614.4219,94.9375 615.0313,94.9375 L620.1719,94.9375 Q620.7813,94.9375 621.0469,95.1719 Q621.3125,95.4063 621.3125,95.7813 Q621.3125,96.1719 621.0469,96.4063 Q620.7813,96.6406 620.1719,96.6406 L618.4531,96.6406 Z " fill="#000000"/><text fill="#000000" font-family="sans-serif" font-size="14" font-style="italic" lengthAdjust="spacing" textLength="196" x="631.5" y="105.7285">Application Management Layer</text><line style="stroke:#181818;stroke-width:0.5;" x1="603.5" x2="829.5" y1="116" y2="116"/><line style="stroke:#181818;stroke-width:0.5;" x1="603.5" x2="829.5" y1="124" y2="124"/></g><g id="elem_ilol8"><ellipse cx="671.5" cy="11" fill="#F1F1F1" rx="5" ry="5" style="stroke:#181818;stroke-width:1.5;"/></g><text fill="#000000" font-family="sans-serif" font-size="14" lengthAdjust="spacing" textLength="21" x="661" y="30.5332">CLI</text><g id="elem_ilol11"><ellipse cx="716.5" cy="11" fill="#F1F1F1" rx="5" ry="5" style="stroke:#181818;stroke-width:1.5;"/></g><text fill="#000000" font-family="sans-serif" font-size="14" lengthAdjust="spacing" textLength="37" x="698" y="30.5332">REST</text><g id="elem_ilol14"><ellipse cx="761.5" cy="11" fill="#F1F1F1" rx="5" ry="5" style="stroke:#181818;stroke-width:1.5;"/></g><text fill="#000000" font-family="sans-serif" font-size="14" lengthAdjust="spacing" textLength="29" x="747" y="30.5332">Web</text><!--link ilol8 to i--><g id="link_ilol8_i"><path d="M673.43,16.08 C678.88,27.59 694.68,60.94 705.55,83.88 " fill="none" id="ilol8-i" style="stroke:#181818;stroke-width:1.0;"/></g><!--link ilol11 to i--><g id="link_ilol11_i"><path d="M716.5,16.08 C716.5,27.59 716.5,60.94 716.5,83.88 " fill="none" id="ilol11-i" style="stroke:#181818;stroke-width:1.0;"/></g><!--link ilol14 to i--><g id="link_ilol14_i"><path d="M759.57,16.08 C754.12,27.59 738.32,60.94 727.45,83.88 " fill="none" id="ilol14-i" style="stroke:#181818;stroke-width:1.0;"/></g><!--link Application Management Layer to Distributed Information Management Layer--><g id="link_Application Management Layer_Distributed Information Management Layer"><path codeLine="32" d="M559.4915,111.182 C559.3294,111.2262 559.165,111.271 558.9984,111.3163 C558.6651,111.4071 558.3227,111.5004 557.9712,111.5961 C552.3475,113.1279 544.4116,115.2895 534.6388,117.9516 C515.0931,123.2756 488.2,130.6013 457.7625,138.8925 C396.8875,155.475 327.624,174.3429 268.819,190.3629 " fill="none" id="Application Management Layer-to-Distributed Information Management Layer" style="stroke:#181818;stroke-width:1.0;"/><polygon fill="#181818" points="263.03,191.94,272.7649,193.4337,267.8542,190.6258,270.6622,185.715,263.03,191.94" style="stroke:#181818;stroke-width:1.0;"/></g><!--link Application Management Layer to Service Management Layer--><g id="link_Application Management Layer_Service Management Layer"><path codeLine="34" d="M559.3384,117.7604 C559.2625,117.8418 559.1862,117.9237 559.1094,118.0061 C558.9559,118.1709 558.8006,118.3375 558.6436,118.5061 C553.6184,123.8997 546.8069,131.2119 539.1388,139.4438 C523.8025,155.9075 509.1303,171.6603 494.3803,187.4903 " fill="none" id="Application Management Layer-to-Service Management Layer" style="stroke:#181818;stroke-width:1.0;"/><polygon fill="#181818" points="490.29,191.88,499.3519,188.0222,493.6985,188.2219,493.4989,182.5686,490.29,191.88" style="stroke:#181818;stroke-width:1.0;"/></g><!--link Application Management Layer to Security Aspect--><g id="link_Application Management Layer_Security Aspect"><path codeLine="36" d="M577.1838,156.0375 C577.2281,156.1416 577.2727,156.2458 577.3175,156.3498 C577.407,156.5579 577.4974,156.7656 577.5886,156.973 C577.771,157.3879 577.9566,157.8013 578.1456,158.2131 C578.9017,159.8603 579.7113,161.4818 580.5784,163.065 C582.3125,166.2313 584.2763,169.2438 586.5,172 C592.68,179.65 595.4961,182.8943 603.8261,188.5143 " fill="none" id="Application Management Layer-to-Security Aspect" style="stroke:#181818;stroke-width:1.0;"/><polygon fill="#181818" points="608.8,191.87,603.5764,183.5205,604.6551,189.0736,599.1021,190.1523,608.8,191.87" style="stroke:#181818;stroke-width:1.0;"/></g><!--link Application Management Layer to Identity Aspect--><g id="link_Application Management Layer_Identity Aspect"><path codeLine="38" d="M574.8943,156.0738 C575.0788,156.4787 575.2677,156.8814 575.461,157.2817 C575.8478,158.0823 576.2525,158.8731 576.6759,159.6522 C577.5228,161.2105 578.4448,162.7221 579.4484,164.1716 C581.4555,167.0706 583.7887,169.7213 586.5,172 C614.94,195.9 716.24,183.9 752.5,192 C758.35,193.31 758.6198,193.2355 764.6198,194.9455 " fill="none" id="Application Management Layer-to-Identity Aspect" style="stroke:#181818;stroke-width:1.0;"/><polygon fill="#181818" points="770.39,196.59,762.831,190.2764,765.5815,195.2196,760.6383,197.97,770.39,196.59" style="stroke:#181818;stroke-width:1.0;"/></g><!--SRC=[bP4n2y8m48Nt_8f35nqA7Ji9HHqATR62ypLUwg6c8Ks58lvtKsaHfQAzwI3lUo_7CoXFM11CLbmvotdjw029LgMzeEDImmQrVx-GTf1YGtO2KwMaZ2Au2V1p5yBq7XdPAqiQOivS75rXYVGW9slBhe6uCYITbnlMfm5XSl2URqAbSZylwKiR6tDc-VM8C4HKoeDFahKZgr3-vB02xjAwI1-wJ1EOpOC0M6pNsQxVzvJtw_XlFHFQWzhb1nK4Yn45_c_vjSyn5k_L_az-TYt40m00]--></g></svg>