<?xml version="1.0" encoding="us-ascii" standalone="no"?><svg xmlns="http://www.w3.org/2000/svg" xmlns:xlink="http://www.w3.org/1999/xlink" contentStyleType="text/css" height="469px" preserveAspectRatio="none" style="width:1626px;height:469px;background:#FFFFFF;" version="1.1" viewBox="0 0 1626 469" width="1626px" zoomAndPan="magnify"><defs/><g><!--cluster Application Management Layer--><g id="cluster_Application Management Layer"><path d="M562,116 L778,116 A3.75,3.75 0 0 1 780.5,118.5 L787.5,139.6094 L1377,139.6094 A2.5,2.5 0 0 1 1379.5,142.1094 L1379.5,459.5 A2.5,2.5 0 0 1 1377,462 L562,462 A2.5,2.5 0 0 1 559.5,459.5 L559.5,118.5 A2.5,2.5 0 0 1 562,116 " fill="#00AAFF" style="stroke:#000000;stroke-width:1.5;"/><line style="stroke:#000000;stroke-width:1.5;" x1="559.5" x2="787.5" y1="139.6094" y2="139.6094"/><text fill="#000000" font-family="sans-serif" font-size="14" font-weight="bold" lengthAdjust="spacing" textLength="215" x="563.5" y="132.5332">Application Management Layer</text></g><path d="M8.5,6 L308.5,6 A3.75,3.75 0 0 1 311,8.5 L318,29.6094 L322.5,29.6094 A2.5,2.5 0 0 1 325,32.1094 L325,58.7188 A2.5,2.5 0 0 1 322.5,61.2188 L8.5,61.2188 A2.5,2.5 0 0 1 6,58.7188 L6,8.5 A2.5,2.5 0 0 1 8.5,6 " fill="#FFCC88" style="stroke:#181818;stroke-width:0.5;"/><line style="stroke:#181818;stroke-width:0.5;" x1="6" x2="318" y1="29.6094" y2="29.6094"/><text fill="#000000" font-family="sans-serif" font-size="14" font-weight="bold" lengthAdjust="spacing" textLength="299" x="10" y="22.5332">Distributed Information Management Layer</text><path d="M362.5,6 L554.5,6 A3.75,3.75 0 0 1 557,8.5 L564,29.6094 L568.5,29.6094 A2.5,2.5 0 0 1 571,32.1094 L571,58.7188 A2.5,2.5 0 0 1 568.5,61.2188 L362.5,61.2188 A2.5,2.5 0 0 1 360,58.7188 L360,8.5 A2.5,2.5 0 0 1 362.5,6 " fill="#90EE90" style="stroke:#181818;stroke-width:0.5;"/><line style="stroke:#181818;stroke-width:0.5;" x1="360" x2="564" y1="29.6094" y2="29.6094"/><text fill="#000000" font-family="sans-serif" font-size="14" font-weight="bold" lengthAdjust="spacing" textLength="191" x="364" y="22.5332">Service Management Layer</text><path d="M608.5,6 L718.5,6 A3.75,3.75 0 0 1 721,8.5 L728,29.6094 L732.5,29.6094 A2.5,2.5 0 0 1 735,32.1094 L735,58.7188 A2.5,2.5 0 0 1 732.5,61.2188 L608.5,61.2188 A2.5,2.5 0 0 1 606,58.7188 L606,8.5 A2.5,2.5 0 0 1 608.5,6 " fill="#FFC0CB" style="stroke:#181818;stroke-width:0.5;"/><line style="stroke:#181818;stroke-width:0.5;" x1="606" x2="728" y1="29.6094" y2="29.6094"/><text fill="#000000" font-family="sans-serif" font-size="14" font-weight="bold" lengthAdjust="spacing" textLength="109" x="610" y="22.5332">Security Aspect</text><path d="M773,6 L878,6 A3.75,3.75 0 0 1 880.5,8.5 L887.5,29.6094 L892,29.6094 A2.5,2.5 0 0 1 894.5,32.1094 L894.5,58.7188 A2.5,2.5 0 0 1 892,61.2188 L773,61.2188 A2.5,2.5 0 0 1 770.5,58.7188 L770.5,8.5 A2.5,2.5 0 0 1 773,6 " fill="#FFBBBB" style="stroke:#181818;stroke-width:0.5;"/><line style="stroke:#181818;stroke-width:0.5;" x1="770.5" x2="887.5" y1="29.6094" y2="29.6094"/><text fill="#000000" font-family="sans-serif" font-size="14" font-weight="bold" lengthAdjust="spacing" textLength="104" x="774.5" y="22.5332">Identity Aspect</text><!--class i--><g id="elem_i"><rect codeLine="22" fill="#F1F1F1" height="48" id="i" rx="2.5" ry="2.5" style="stroke:#181818;stroke-width:0.5;" width="228" x="1127.5" y="160"/><ellipse cx="1142.5" cy="176" fill="#B4A7E5" rx="11" ry="11" style="stroke:#181818;stroke-width:1.0;"/><path d="M1143.4531,172.6406 L1143.4531,179.2969 L1145.1719,179.2969 Q1145.7813,179.2969 1146.0469,179.5313 Q1146.3125,179.7656 1146.3125,180.1563 Q1146.3125,180.5313 1146.0469,180.7656 Q1145.7813,181 1145.1719,181 L1140.0313,181 Q1139.4219,181 1139.1563,180.7656 Q1138.8906,180.5313 1138.8906,180.1406 Q1138.8906,179.7656 1139.1563,179.5313 Q1139.4219,179.2969 1140.0313,179.2969 L1141.75,179.2969 L1141.75,172.6406 L1140.0313,172.6406 Q1139.4219,172.6406 1139.1563,172.4063 Q1138.8906,172.1719 1138.8906,171.7813 Q1138.8906,171.4063 1139.1563,171.1719 Q1139.4219,170.9375 1140.0313,170.9375 L1145.1719,170.9375 Q1145.7813,170.9375 1146.0469,171.1719 Q1146.3125,171.4063 1146.3125,171.7813 Q1146.3125,172.1719 1146.0469,172.4063 Q1145.7813,172.6406 1145.1719,172.6406 L1143.4531,172.6406 Z " fill="#000000"/><text fill="#000000" font-family="sans-serif" font-size="14" font-style="italic" lengthAdjust="spacing" textLength="196" x="1156.5" y="181.7285">Application Management Layer</text><line style="stroke:#181818;stroke-width:0.5;" x1="1128.5" x2="1354.5" y1="192" y2="192"/><line style="stroke:#181818;stroke-width:0.5;" x1="1128.5" x2="1354.5" y1="200" y2="200"/></g><!--class Service Orchestrator--><g id="elem_Service Orchestrator"><rect fill="#F1F1F1" height="48" id="Service Orchestrator" rx="2.5" ry="2.5" style="stroke:#181818;stroke-width:0.5;" width="163" x="1080" y="390"/><ellipse cx="1095" cy="406" fill="#ADD1B2" rx="11" ry="11" style="stroke:#181818;stroke-width:1.0;"/><path d="M1097.7656,401.875 Q1097.9219,401.6563 1098.1094,401.5469 Q1098.2969,401.4375 1098.5156,401.4375 Q1098.8906,401.4375 1099.125,401.6953 Q1099.3594,401.9531 1099.3594,402.5625 L1099.3594,404.0156 Q1099.3594,404.625 1099.125,404.8906 Q1098.8906,405.1563 1098.5156,405.1563 Q1098.1719,405.1563 1097.9688,404.9531 Q1097.7656,404.7656 1097.6563,404.25 Q1097.6094,403.8906 1097.4219,403.7031 Q1097.0938,403.3281 1096.4844,403.1094 Q1095.875,402.8906 1095.25,402.8906 Q1094.4844,402.8906 1093.8516,403.2188 Q1093.2188,403.5469 1092.7266,404.2969 Q1092.2344,405.0469 1092.2344,406.0781 L1092.2344,407.1719 Q1092.2344,408.4063 1093.125,409.2266 Q1094.0156,410.0469 1095.6094,410.0469 Q1096.5469,410.0469 1097.2031,409.7969 Q1097.5938,409.6406 1098.0156,409.2031 Q1098.2813,408.9375 1098.4297,408.8594 Q1098.5781,408.7813 1098.7813,408.7813 Q1099.1094,408.7813 1099.3672,409.0391 Q1099.625,409.2969 1099.625,409.6406 Q1099.625,409.9844 1099.2813,410.3906 Q1098.7813,410.9688 1097.9844,411.2969 Q1096.9063,411.75 1095.6094,411.75 Q1094.0938,411.75 1092.8906,411.125 Q1091.9063,410.625 1091.2188,409.5547 Q1090.5313,408.4844 1090.5313,407.2031 L1090.5313,406.0469 Q1090.5313,404.7188 1091.1484,403.5703 Q1091.7656,402.4219 1092.8594,401.8047 Q1093.9531,401.1875 1095.1875,401.1875 Q1095.9219,401.1875 1096.5703,401.3516 Q1097.2188,401.5156 1097.7656,401.875 Z " fill="#000000"/><text fill="#000000" font-family="sans-serif" font-size="14" lengthAdjust="spacing" textLength="131" x="1109" y="411.7285">Service Orchestrator</text><line style="stroke:#181818;stroke-width:0.5;" x1="1081" x2="1242" y1="422" y2="422"/><line style="stroke:#181818;stroke-width:0.5;" x1="1081" x2="1242" y1="430" y2="430"/></g><!--class Sentient Agent Bundle Manager--><g id="elem_Sentient Agent Bundle Manager"><rect fill="#F1F1F1" height="48" id="Sentient Agent Bundle Manager" rx="2.5" ry="2.5" style="stroke:#181818;stroke-width:0.5;" width="233" x="819" y="275"/><ellipse cx="834" cy="291" fill="#ADD1B2" rx="11" ry="11" style="stroke:#181818;stroke-width:1.0;"/><path d="M836.7656,286.875 Q836.9219,286.6563 837.1094,286.5469 Q837.2969,286.4375 837.5156,286.4375 Q837.8906,286.4375 838.125,286.6953 Q838.3594,286.9531 838.3594,287.5625 L838.3594,289.0156 Q838.3594,289.625 838.125,289.8906 Q837.8906,290.1563 837.5156,290.1563 Q837.1719,290.1563 836.9688,289.9531 Q836.7656,289.7656 836.6563,289.25 Q836.6094,288.8906 836.4219,288.7031 Q836.0938,288.3281 835.4844,288.1094 Q834.875,287.8906 834.25,287.8906 Q833.4844,287.8906 832.8516,288.2188 Q832.2188,288.5469 831.7266,289.2969 Q831.2344,290.0469 831.2344,291.0781 L831.2344,292.1719 Q831.2344,293.4063 832.125,294.2266 Q833.0156,295.0469 834.6094,295.0469 Q835.5469,295.0469 836.2031,294.7969 Q836.5938,294.6406 837.0156,294.2031 Q837.2813,293.9375 837.4297,293.8594 Q837.5781,293.7813 837.7813,293.7813 Q838.1094,293.7813 838.3672,294.0391 Q838.625,294.2969 838.625,294.6406 Q838.625,294.9844 838.2813,295.3906 Q837.7813,295.9688 836.9844,296.2969 Q835.9063,296.75 834.6094,296.75 Q833.0938,296.75 831.8906,296.125 Q830.9063,295.625 830.2188,294.5547 Q829.5313,293.4844 829.5313,292.2031 L829.5313,291.0469 Q829.5313,289.7188 830.1484,288.5703 Q830.7656,287.4219 831.8594,286.8047 Q832.9531,286.1875 834.1875,286.1875 Q834.9219,286.1875 835.5703,286.3516 Q836.2188,286.5156 836.7656,286.875 Z " fill="#000000"/><text fill="#000000" font-family="sans-serif" font-size="14" lengthAdjust="spacing" textLength="201" x="848" y="296.7285">Sentient Agent Bundle Manager</text><line style="stroke:#181818;stroke-width:0.5;" x1="820" x2="1051" y1="307" y2="307"/><line style="stroke:#181818;stroke-width:0.5;" x1="820" x2="1051" y1="315" y2="315"/></g><!--entity Application Manager--><g id="elem_Application Manager"><rect fill="#FFFFFF" height="37.6094" rx="2.5" ry="2.5" style="stroke:#181818;stroke-width:0.5;" width="149" x="1087" y="280"/><text fill="#000000" font-family="sans-serif" font-size="14" lengthAdjust="spacing" textLength="129" x="1097" y="304.5332">Application Manager</text></g><!--entity Capability Manager--><g id="elem_Capability Manager"><rect fill="#FFFFFF" height="37.6094" rx="2.5" ry="2.5" style="stroke:#181818;stroke-width:0.5;" width="142" x="950.5" y="165"/><text fill="#000000" font-family="sans-serif" font-size="14" lengthAdjust="spacing" textLength="122" x="960.5" y="189.5332">Capability Manager</text></g><!--entity DevSecOpsManager--><g id="elem_DevSecOpsManager"><rect fill="#FFFFFF" height="37.6094" rx="2.5" ry="2.5" style="stroke:#181818;stroke-width:0.5;" width="151" x="764" y="165"/><text fill="#000000" font-family="sans-serif" font-size="14" lengthAdjust="spacing" textLength="131" x="774" y="189.5332">DevSecOpsManager</text></g><!--entity Learning Corpus--><g id="elem_Learning Corpus"><rect fill="#FFFFFF" height="37.6094" rx="2.5" ry="2.5" style="stroke:#181818;stroke-width:0.5;" width="126" x="602.5" y="165"/><text fill="#000000" font-family="sans-serif" font-size="14" lengthAdjust="spacing" textLength="106" x="612.5" y="189.5332">Learning Corpus</text></g><!--entity REST--><g id="elem_REST"><ellipse cx="1430.5" cy="299" fill="#F1F1F1" rx="8" ry="8" style="stroke:#181818;stroke-width:0.5;"/><text fill="#000000" font-family="sans-serif" font-size="14" lengthAdjust="spacing" textLength="37" x="1412" y="330.5332">REST</text></g><!--entity Web--><g id="elem_Web"><ellipse cx="1519.5" cy="299" fill="#F1F1F1" rx="8" ry="8" style="stroke:#181818;stroke-width:0.5;"/><text fill="#000000" font-family="sans-serif" font-size="14" lengthAdjust="spacing" textLength="29" x="1505" y="330.5332">Web</text></g><!--entity CLI--><g id="elem_CLI"><ellipse cx="1608.5" cy="299" fill="#F1F1F1" rx="8" ry="8" style="stroke:#181818;stroke-width:0.5;"/><text fill="#000000" font-family="sans-serif" font-size="14" lengthAdjust="spacing" textLength="21" x="1598" y="330.5332">CLI</text></g><!--entity WebSocket--><g id="elem_WebSocket"><ellipse cx="1451.5" cy="184" fill="#F1F1F1" rx="8" ry="8" style="stroke:#181818;stroke-width:0.5;"/><text fill="#000000" font-family="sans-serif" font-size="14" lengthAdjust="spacing" textLength="72" x="1415.5" y="215.5332">WebSocket</text></g><!--link i to Web--><g id="link_i_Web"><path codeLine="33" d="M1320.09,208.03 C1366.44,222.88 1425.6,244.05 1475.5,269 C1488.27,275.38 1501.81,284.76 1510.45,291.1 " fill="none" id="i-Web" style="stroke:#181818;stroke-width:1.0;"/></g><!--link i to CLI--><g id="link_i_CLI"><path codeLine="34" d="M1355.56,205.11 C1418.82,218.6 1497.93,239.38 1564.5,269 C1577.37,274.73 1590.68,284.06 1599.24,290.58 " fill="none" id="i-CLI" style="stroke:#181818;stroke-width:1.0;"/></g><!--link i to REST--><g id="link_i_REST"><path codeLine="35" d="M1280.2,208.14 C1325.13,235 1396.27,277.53 1421.37,292.54 " fill="none" id="i-REST" style="stroke:#181818;stroke-width:1.0;"/></g><!--link i to WebSocket--><g id="link_i_WebSocket"><path codeLine="36" d="M1355.72,184 C1391.89,184 1426.59,184 1442.47,184 " fill="none" id="i-WebSocket" style="stroke:#181818;stroke-width:1.0;"/><polygon fill="#000000" points="1373,172.1758,1382.0451,175.1147,1382.0451,169.2369,1373,172.1758" style="stroke:#000000;stroke-width:1.0;"/><text fill="#000000" font-family="sans-serif" font-size="13" lengthAdjust="spacing" textLength="37" x="1387" y="177.4951">events</text></g><!--link Application Manager to Service Orchestrator--><g id="link_Application Manager_Service Orchestrator"><path codeLine="53" d="M1161.5,318.16 C1161.5,337.62 1161.5,362.58 1161.5,383.8 " fill="none" id="Application Manager-to-Service Orchestrator" style="stroke:#181818;stroke-width:1.0;"/><polygon fill="#181818" points="1161.5,389.8,1165.5,380.8,1161.5,384.8,1157.5,380.8,1161.5,389.8" style="stroke:#181818;stroke-width:1.0;"/></g><!--link Capability Manager to Sentient Agent Bundle Manager--><g id="link_Capability Manager_Sentient Agent Bundle Manager"><path codeLine="55" d="M1007.68,203.16 C992.87,222.62 972.9438,248.8055 956.7938,270.0255 " fill="none" id="Capability Manager-to-Sentient Agent Bundle Manager" style="stroke:#181818;stroke-width:1.0;"/><polygon fill="#181818" points="953.16,274.8,961.7936,270.0607,956.1881,270.8212,955.4276,265.2157,953.16,274.8" style="stroke:#181818;stroke-width:1.0;"/></g><!--link Capability Manager to Application Manager--><g id="link_Capability Manager_Application Manager"><path codeLine="57" d="M1043.99,203.16 C1070.12,224.24 1108.2914,255.0511 1134.3914,276.1211 " fill="none" id="Capability Manager-to-Application Manager" style="stroke:#181818;stroke-width:1.0;"/><polygon fill="#181818" points="1139.06,279.89,1134.5697,271.1243,1135.1695,276.7493,1129.5445,277.3491,1139.06,279.89" style="stroke:#181818;stroke-width:1.0;"/></g><!--reverse link Distributed Information Management Layer to Application Management Layer--><g id="link_Distributed Information Management Layer_Application Management Layer"><path codeLine="62" d="M242.9982,63.1293 C299.9082,84.1543 375.1425,111.945 442.5925,136.86 C476.3175,149.3175 506.6894,160.5363 529.0375,168.7913 C540.2116,172.9188 549.3797,176.3053 555.958,178.7353 C556.7803,179.0391 557.5622,179.3279 558.3024,179.6013 C558.6725,179.738 559.0322,179.8709 559.3814,179.9999 " fill="none" id="Distributed Information Management Layer-backto-Application Management Layer" style="stroke:#181818;stroke-width:1.0;"/><polygon fill="#181818" points="237.37,61.05,244.4261,67.9211,242.0602,62.7827,247.1985,60.4168,237.37,61.05" style="stroke:#181818;stroke-width:1.0;"/></g><!--reverse link Service Management Layer to Application Management Layer--><g id="link_Service Management Layer_Application Management Layer"><path codeLine="64" d="M487.1368,65.9959 C501.5768,87.0209 518.6975,111.945 535.8113,136.86 C544.3681,149.3175 552.0741,160.5363 557.7439,168.7913 C558.0983,169.3072 558.4447,169.8115 558.7829,170.3039 C558.9519,170.5501 559.119,170.7933 559.2839,171.0334 " fill="none" id="Service Management Layer-backto-Application Management Layer" style="stroke:#181818;stroke-width:1.0;"/><polygon fill="#181818" points="483.74,61.05,485.538,70.7333,486.5707,65.1716,492.1325,66.2042,483.74,61.05" style="stroke:#181818;stroke-width:1.0;"/></g><!--reverse link Security Aspect to Application Management Layer--><g id="link_Security Aspect_Application Management Layer"><path codeLine="66" d="M620.2757,64.6201 C605.9757,75.0701 596.23,84.71 586.5,100 C584.04,103.8663 581.8972,108.0133 580.0308,112.3164 C579.5642,113.3922 579.1149,114.4777 578.6822,115.571 C578.6282,115.7077 578.5743,115.8445 578.5208,115.9814 " fill="none" id="Security Aspect-backto-Application Management Layer" style="stroke:#181818;stroke-width:1.0;"/><polygon fill="#181818" points="625.12,61.08,615.4934,63.1606,621.083,64.0301,620.2135,69.6197,625.12,61.08" style="stroke:#181818;stroke-width:1.0;"/></g><!--reverse link Identity Aspect to Application Management Layer--><g id="link_Identity Aspect_Application Management Layer"><path codeLine="68" d="M764.4797,57.5087 C758.5197,59.3587 758.27,59.37 752.5,61 C751.36,61.32 587.33,99.16 586.5,100 C583.2688,103.25 580.5414,106.93 578.2433,110.8882 C577.6688,111.8778 577.1211,112.8847 576.5991,113.9066 C576.3381,114.4176 576.0835,114.9324 575.8351,115.4505 C575.773,115.5801 575.7114,115.7099 575.6501,115.8398 " fill="none" id="Identity Aspect-backto-Application Management Layer" style="stroke:#181818;stroke-width:1.0;"/><polygon fill="#181818" points="770.21,55.73,760.4288,54.5779,765.4348,57.2122,762.8004,62.2182,770.21,55.73" style="stroke:#181818;stroke-width:1.0;"/></g><!--SRC=[dPDTQy8m58Rl-oiExZhWvHX3SBeBmI7CmQvFqvDwCAOXJHKP_lSbJjkfbNRBHKZQvtrxUZuioZNc18CfbzvnMddAO6PKuJRekJ3mXYQytv3nCCSzkG4yA2NbuoDy9SaXIUpPO4bkovBQ19hpbSyTaRaLoSgntyEuj2HzO2sRzJKrouBR1QLK6jQ9Qy2njPhbtS27GqIbeWh2OkF9APITEYo1WoXgckqGlopPIKtm_hhyE9y_AJqV9_FPhwVBGgx99mc3o8gT4KUolaIslXpzQWa8JSeBu2UWRGYhXD5_VZbn8NLeSjqgYknknPu2UhXW9sWnPHtJtuLEQHiAkh1b5pWdT8PD3fF2sQgyv69ssoCKOjJqsSB95OMUHL-uGLENrdXFmj14CJVZFEulbSaqrKmVXxQWVdIn2u_Q_cFqB4H7zKwMzmVh3nPNOzPRUJDwVPJV]--></g></svg>