<?xml version="1.0" encoding="UTF-8" standalone="no"?><svg xmlns="http://www.w3.org/2000/svg" xmlns:xlink="http://www.w3.org/1999/xlink" contentScriptType="application/ecmascript" contentStyleType="text/css" height="476px" preserveAspectRatio="none" style="width:1605px;height:476px;" version="1.1" viewBox="0 0 1605 476" width="1605px" zoomAndPan="magnify"><defs><filter height="300%" id="f1idgsaebk98z3" width="300%" x="-1" y="-1"><feGaussianBlur result="blurOut" stdDeviation="2.0"/><feColorMatrix in="blurOut" result="blurOut2" type="matrix" values="0 0 0 0 0 0 0 0 0 0 0 0 0 0 0 0 0 0 .4 0"/><feOffset dx="4.0" dy="4.0" in="blurOut2" result="blurOut3"/><feBlend in="SourceGraphic" in2="blurOut3" mode="normal"/></filter></defs><g><!--cluster Application Management Layer--><polygon fill="#00AAFF" filter="url(#f1idgsaebk98z3)" points="559.5,118,780.5,118,787.5,141.6094,1353.5,141.6094,1353.5,464,559.5,464,559.5,118" style="stroke: #000000; stroke-width: 1.5;"/><line style="stroke: #000000; stroke-width: 1.5;" x1="559.5" x2="787.5" y1="141.6094" y2="141.6094"/><text fill="#000000" font-family="sans-serif" font-size="14" font-weight="bold" lengthAdjust="spacingAndGlyphs" textLength="215" x="563.5" y="134.5332">Application Management Layer</text><polygon fill="#FFCC88" filter="url(#f1idgsaebk98z3)" points="6,8,311,8,318,31.6094,325,31.6094,325,63.2188,6,63.2188,6,8" style="stroke: #000000; stroke-width: 1.5;"/><line style="stroke: #000000; stroke-width: 1.5;" x1="6" x2="318" y1="31.6094" y2="31.6094"/><text fill="#000000" font-family="sans-serif" font-size="14" font-weight="bold" lengthAdjust="spacingAndGlyphs" textLength="299" x="10" y="24.5332">Distributed Information Management Layer</text><polygon fill="#90EE90" filter="url(#f1idgsaebk98z3)" points="360,8,557,8,564,31.6094,571,31.6094,571,63.2188,360,63.2188,360,8" style="stroke: #000000; stroke-width: 1.5;"/><line style="stroke: #000000; stroke-width: 1.5;" x1="360" x2="564" y1="31.6094" y2="31.6094"/><text fill="#000000" font-family="sans-serif" font-size="14" font-weight="bold" lengthAdjust="spacingAndGlyphs" textLength="191" x="364" y="24.5332">Service Management Layer</text><polygon fill="#FFC0CB" filter="url(#f1idgsaebk98z3)" points="606,8,721,8,728,31.6094,735,31.6094,735,63.2188,606,63.2188,606,8" style="stroke: #000000; stroke-width: 1.5;"/><line style="stroke: #000000; stroke-width: 1.5;" x1="606" x2="728" y1="31.6094" y2="31.6094"/><text fill="#000000" font-family="sans-serif" font-size="14" font-weight="bold" lengthAdjust="spacingAndGlyphs" textLength="109" x="610" y="24.5332">Security Aspect</text><polygon fill="#FFBBBB" filter="url(#f1idgsaebk98z3)" points="770.5,8,880.5,8,887.5,31.6094,894.5,31.6094,894.5,63.2188,770.5,63.2188,770.5,8" style="stroke: #000000; stroke-width: 1.5;"/><line style="stroke: #000000; stroke-width: 1.5;" x1="770.5" x2="887.5" y1="31.6094" y2="31.6094"/><text fill="#000000" font-family="sans-serif" font-size="14" font-weight="bold" lengthAdjust="spacingAndGlyphs" textLength="104" x="774.5" y="24.5332">Identity Aspect</text><!--class i--><rect fill="#FEFECE" filter="url(#f1idgsaebk98z3)" height="48" id="i" style="stroke: #A80036; stroke-width: 1.5;" width="202" x="1127.5" y="162"/><ellipse cx="1142.5" cy="178" fill="#B4A7E5" rx="11" ry="11" style="stroke: #A80036; stroke-width: 1.0;"/><path d="M1143.4531,174.6406 L1143.4531,181.2969 L1145.1719,181.2969 Q1145.7813,181.2969 1146.0469,181.5313 Q1146.3125,181.7656 1146.3125,182.1563 Q1146.3125,182.5313 1146.0469,182.7656 Q1145.7813,183 1145.1719,183 L1140.0313,183 Q1139.4219,183 1139.1563,182.7656 Q1138.8906,182.5313 1138.8906,182.1406 Q1138.8906,181.7656 1139.1563,181.5313 Q1139.4219,181.2969 1140.0313,181.2969 L1141.75,181.2969 L1141.75,174.6406 L1140.0313,174.6406 Q1139.4219,174.6406 1139.1563,174.4063 Q1138.8906,174.1719 1138.8906,173.7813 Q1138.8906,173.4063 1139.1563,173.1719 Q1139.4219,172.9375 1140.0313,172.9375 L1145.1719,172.9375 Q1145.7813,172.9375 1146.0469,173.1719 Q1146.3125,173.4063 1146.3125,173.7813 Q1146.3125,174.1719 1146.0469,174.4063 Q1145.7813,174.6406 1145.1719,174.6406 L1143.4531,174.6406 Z "/><text fill="#000000" font-family="sans-serif" font-size="12" font-style="italic" lengthAdjust="spacingAndGlyphs" textLength="170" x="1156.5" y="182.9102">Application Management Layer</text><line style="stroke: #A80036; stroke-width: 1.5;" x1="1128.5" x2="1328.5" y1="194" y2="194"/><line style="stroke: #A80036; stroke-width: 1.5;" x1="1128.5" x2="1328.5" y1="202" y2="202"/><!--class Service Orchestrator--><rect fill="#FEFECE" filter="url(#f1idgsaebk98z3)" height="48" id="Service Orchestrator" style="stroke: #A80036; stroke-width: 1.5;" width="143" x="1107" y="392"/><ellipse cx="1122" cy="408" fill="#ADD1B2" rx="11" ry="11" style="stroke: #A80036; stroke-width: 1.0;"/><path d="M1124.7656,403.875 Q1124.9219,403.6563 1125.1094,403.5469 Q1125.2969,403.4375 1125.5156,403.4375 Q1125.8906,403.4375 1126.125,403.6953 Q1126.3594,403.9531 1126.3594,404.5625 L1126.3594,406.0156 Q1126.3594,406.625 1126.125,406.8906 Q1125.8906,407.1563 1125.5156,407.1563 Q1125.1719,407.1563 1124.9688,406.9531 Q1124.7656,406.7656 1124.6563,406.25 Q1124.6094,405.8906 1124.4219,405.7031 Q1124.0938,405.3281 1123.4844,405.1094 Q1122.875,404.8906 1122.25,404.8906 Q1121.4844,404.8906 1120.8516,405.2188 Q1120.2188,405.5469 1119.7266,406.2969 Q1119.2344,407.0469 1119.2344,408.0781 L1119.2344,409.1719 Q1119.2344,410.4063 1120.125,411.2266 Q1121.0156,412.0469 1122.6094,412.0469 Q1123.5469,412.0469 1124.2031,411.7969 Q1124.5938,411.6406 1125.0156,411.2031 Q1125.2813,410.9375 1125.4297,410.8594 Q1125.5781,410.7813 1125.7813,410.7813 Q1126.1094,410.7813 1126.3672,411.0391 Q1126.625,411.2969 1126.625,411.6406 Q1126.625,411.9844 1126.2813,412.3906 Q1125.7813,412.9688 1124.9844,413.2969 Q1123.9063,413.75 1122.6094,413.75 Q1121.0938,413.75 1119.8906,413.125 Q1118.9063,412.625 1118.2188,411.5547 Q1117.5313,410.4844 1117.5313,409.2031 L1117.5313,408.0469 Q1117.5313,406.7188 1118.1484,405.5703 Q1118.7656,404.4219 1119.8594,403.8047 Q1120.9531,403.1875 1122.1875,403.1875 Q1122.9219,403.1875 1123.5703,403.3516 Q1124.2188,403.5156 1124.7656,403.875 Z "/><text fill="#000000" font-family="sans-serif" font-size="12" lengthAdjust="spacingAndGlyphs" textLength="111" x="1136" y="412.9102">Service Orchestrator</text><line style="stroke: #A80036; stroke-width: 1.5;" x1="1108" x2="1249" y1="424" y2="424"/><line style="stroke: #A80036; stroke-width: 1.5;" x1="1108" x2="1249" y1="432" y2="432"/><!--class Sentient Agent Bundle Manager--><rect fill="#FEFECE" filter="url(#f1idgsaebk98z3)" height="48" id="Sentient Agent Bundle Manager" style="stroke: #A80036; stroke-width: 1.5;" width="204" x="864.5" y="277"/><ellipse cx="879.5" cy="293" fill="#ADD1B2" rx="11" ry="11" style="stroke: #A80036; stroke-width: 1.0;"/><path d="M882.2656,288.875 Q882.4219,288.6563 882.6094,288.5469 Q882.7969,288.4375 883.0156,288.4375 Q883.3906,288.4375 883.625,288.6953 Q883.8594,288.9531 883.8594,289.5625 L883.8594,291.0156 Q883.8594,291.625 883.625,291.8906 Q883.3906,292.1563 883.0156,292.1563 Q882.6719,292.1563 882.4688,291.9531 Q882.2656,291.7656 882.1563,291.25 Q882.1094,290.8906 881.9219,290.7031 Q881.5938,290.3281 880.9844,290.1094 Q880.375,289.8906 879.75,289.8906 Q878.9844,289.8906 878.3516,290.2188 Q877.7188,290.5469 877.2266,291.2969 Q876.7344,292.0469 876.7344,293.0781 L876.7344,294.1719 Q876.7344,295.4063 877.625,296.2266 Q878.5156,297.0469 880.1094,297.0469 Q881.0469,297.0469 881.7031,296.7969 Q882.0938,296.6406 882.5156,296.2031 Q882.7813,295.9375 882.9297,295.8594 Q883.0781,295.7813 883.2813,295.7813 Q883.6094,295.7813 883.8672,296.0391 Q884.125,296.2969 884.125,296.6406 Q884.125,296.9844 883.7813,297.3906 Q883.2813,297.9688 882.4844,298.2969 Q881.4063,298.75 880.1094,298.75 Q878.5938,298.75 877.3906,298.125 Q876.4063,297.625 875.7188,296.5547 Q875.0313,295.4844 875.0313,294.2031 L875.0313,293.0469 Q875.0313,291.7188 875.6484,290.5703 Q876.2656,289.4219 877.3594,288.8047 Q878.4531,288.1875 879.6875,288.1875 Q880.4219,288.1875 881.0703,288.3516 Q881.7188,288.5156 882.2656,288.875 Z "/><text fill="#000000" font-family="sans-serif" font-size="12" lengthAdjust="spacingAndGlyphs" textLength="172" x="893.5" y="297.9102">Sentient Agent Bundle Manager</text><line style="stroke: #A80036; stroke-width: 1.5;" x1="865.5" x2="1067.5" y1="309" y2="309"/><line style="stroke: #A80036; stroke-width: 1.5;" x1="865.5" x2="1067.5" y1="317" y2="317"/><!--entity Application Manager--><rect fill="#FFFFFF" filter="url(#f1idgsaebk98z3)" height="37.6094" style="stroke: #000000; stroke-width: 1.5;" width="149" x="1104" y="282"/><text fill="#000000" font-family="sans-serif" font-size="14" lengthAdjust="spacingAndGlyphs" textLength="129" x="1114" y="306.5332">Application Manager</text><!--entity Capability Manager--><rect fill="#FFFFFF" filter="url(#f1idgsaebk98z3)" height="37.6094" style="stroke: #000000; stroke-width: 1.5;" width="142" x="950.5" y="167"/><text fill="#000000" font-family="sans-serif" font-size="14" lengthAdjust="spacingAndGlyphs" textLength="122" x="960.5" y="191.5332">Capability Manager</text><!--entity DevSecOpsManager--><rect fill="#FFFFFF" filter="url(#f1idgsaebk98z3)" height="37.6094" style="stroke: #000000; stroke-width: 1.5;" width="151" x="764" y="167"/><text fill="#000000" font-family="sans-serif" font-size="14" lengthAdjust="spacingAndGlyphs" textLength="131" x="774" y="191.5332">DevSecOpsManager</text><!--entity Learning Corpus--><rect fill="#FFFFFF" filter="url(#f1idgsaebk98z3)" height="37.6094" style="stroke: #000000; stroke-width: 1.5;" width="126" x="602.5" y="167"/><text fill="#000000" font-family="sans-serif" font-size="14" lengthAdjust="spacingAndGlyphs" textLength="106" x="612.5" y="191.5332">Learning Corpus</text><!--entity REST--><ellipse cx="1404.5" cy="301" fill="#FEFECE" filter="url(#f1idgsaebk98z3)" rx="8" ry="8" style="stroke: #A80036; stroke-width: 2.0;"/><text fill="#000000" font-family="sans-serif" font-size="14" lengthAdjust="spacingAndGlyphs" textLength="37" x="1386" y="332.5332">REST</text><!--entity Web--><ellipse cx="1493.5" cy="301" fill="#FEFECE" filter="url(#f1idgsaebk98z3)" rx="8" ry="8" style="stroke: #A80036; stroke-width: 2.0;"/><text fill="#000000" font-family="sans-serif" font-size="14" lengthAdjust="spacingAndGlyphs" textLength="29" x="1479" y="332.5332">Web</text><!--entity CLI--><ellipse cx="1582.5" cy="301" fill="#FEFECE" filter="url(#f1idgsaebk98z3)" rx="8" ry="8" style="stroke: #A80036; stroke-width: 2.0;"/><text fill="#000000" font-family="sans-serif" font-size="14" lengthAdjust="spacingAndGlyphs" textLength="21" x="1572" y="332.5332">CLI</text><!--entity WebSocket--><ellipse cx="1425.5" cy="186" fill="#FEFECE" filter="url(#f1idgsaebk98z3)" rx="8" ry="8" style="stroke: #A80036; stroke-width: 2.0;"/><text fill="#000000" font-family="sans-serif" font-size="14" lengthAdjust="spacingAndGlyphs" textLength="72" x="1389.5" y="217.5332">WebSocket</text><!--link i to Web--><path d="M1300.88,210.004 C1344.88,225.083 1401.63,246.505 1449.5,271 C1462.21,277.502 1475.76,286.848 1484.42,293.158 " fill="none" id="i-Web" style="stroke: #A80036; stroke-width: 1.0;"/><!--link i to CLI--><path d="M1329.72,205.889 C1391.69,219.515 1471.66,240.855 1538.5,271 C1551.34,276.792 1564.66,286.11 1573.23,292.616 " fill="none" id="i-CLI" style="stroke: #A80036; stroke-width: 1.0;"/><!--link i to REST--><path d="M1264.54,210.14 C1305.98,236.743 1371.35,278.718 1395.31,294.1 " fill="none" id="i-REST" style="stroke: #A80036; stroke-width: 1.0;"/><!--link i to WebSocket--><path d="M1329.6,186 C1365.12,186 1400.19,186 1416.31,186 " fill="none" id="i-WebSocket" style="stroke: #A80036; stroke-width: 1.0;"/><polygon fill="#000000" points="1355,172.6758,1349,175.6758,1355,178.6758,1355,172.6758" style="stroke: #000000; stroke-width: 1.0;"/><text fill="#000000" font-family="sans-serif" font-size="13" lengthAdjust="spacingAndGlyphs" textLength="37" x="1361" y="179.4951">events</text><!--link Application Manager to Service Orchestrator--><path d="M1178.5,320.155 C1178.5,338.1 1178.5,365.814 1178.5,386.659 " fill="none" id="Application Manager-Service Orchestrator" style="stroke: #A80036; stroke-width: 1.0;"/><polygon fill="#A80036" points="1178.5,391.8003,1182.5,382.8003,1178.5,386.8003,1174.5,382.8003,1178.5,391.8003" style="stroke: #A80036; stroke-width: 1.0;"/><!--link Capability Manager to Sentient Agent Bundle Manager--><path d="M1012.66,205.155 C1003.855,223.252 990.211,251.285 980.037,272.187 " fill="none" id="Capability Manager-Sentient Agent Bundle Manager" style="stroke: #A80036; stroke-width: 1.0;"/><polygon fill="#A80036" points="977.792,276.8,985.3262,270.4568,979.9794,272.3038,978.1323,266.957,977.792,276.8" style="stroke: #A80036; stroke-width: 1.0;"/><!--link Capability Manager to Application Manager--><path d="M1046.72,205.155 C1074.65,225.254 1119.6,257.61 1149.1,278.841 " fill="none" id="Capability Manager-Application Manager" style="stroke: #A80036; stroke-width: 1.0;"/><polygon fill="#A80036" points="1153.34,281.89,1148.3625,273.3915,1149.2786,278.9737,1143.6964,279.8897,1153.34,281.89" style="stroke: #A80036; stroke-width: 1.0;"/><!--link Distributed Information Management Layer to Application Management Layer--><path d="M242.091,64.793 C299.4885,85.996 379.1933,115.4393 445.3529,139.8788 C478.4327,152.0985 508.1262,163.0673 529.9519,171.1297 C540.8648,175.1609 549.8107,178.4655 556.2294,180.8365 C557.0318,181.1329 557.7946,181.4147 558.5169,181.6815 C558.6975,181.7482 558.8755,181.8139 559.051,181.8787 " fill="none" id="Distributed Information Management Layer-Application Management Layer" style="stroke: #A80036; stroke-width: 1.0;"/><polygon fill="#A80036" points="237.37,63.049,244.4259,69.9203,242.0601,64.7819,247.1985,62.4161,237.37,63.049" style="stroke: #A80036; stroke-width: 1.0;"/><!--link Service Management Layer to Application Management Layer--><path d="M486.69,67.35 C501.3905,88.7525 521.183,117.5682 537.5004,141.3245 C545.6591,153.2026 552.949,163.8159 558.2992,171.6052 C558.6336,172.092 558.9604,172.5678 559.2794,173.0322 " fill="none" id="Service Management Layer-Application Management Layer" style="stroke: #A80036; stroke-width: 1.0;"/><polygon fill="#A80036" points="483.736,63.049,485.5353,72.7321,486.5672,67.1702,492.1292,68.2021,483.736,63.049" style="stroke: #A80036; stroke-width: 1.0;"/><!--link Security Aspect to Application Management Layer--><path d="M621.098,66.091 C608.128,76.019 595.318,88.144 586.5,102 C584.0395,105.866 581.8963,110.0128 580.0296,114.3157 C579.563,115.3914 579.1136,116.4769 578.6808,117.5702 C578.6267,117.7069 578.5729,117.8436 578.5193,117.9805 " fill="none" id="Security Aspect-Application Management Layer" style="stroke: #A80036; stroke-width: 1.0;"/><polygon fill="#A80036" points="625.124,63.081,615.5209,65.2673,621.1197,66.0753,620.3117,71.6741,625.124,63.081" style="stroke: #A80036; stroke-width: 1.0;"/><!--link Identity Aspect to Application Management Layer--><path d="M765.183,59.274 C760.903,60.574 756.649,61.828 752.5,63 C751.36,63.322 587.335,101.16 586.5,102 C583.2689,105.2496 580.5417,108.9293 578.2437,112.8873 C577.6692,113.8767 577.1216,114.8836 576.5996,115.9055 C576.3386,116.4165 576.084,116.9312 575.8357,117.4493 C575.7736,117.5789 575.7119,117.7086 575.6506,117.8386 " fill="none" id="Identity Aspect-Application Management Layer" style="stroke: #A80036; stroke-width: 1.0;"/><polygon fill="#A80036" points="770.214,57.728,760.4361,56.5475,765.4345,59.1964,762.7856,64.1948,770.214,57.728" style="stroke: #A80036; stroke-width: 1.0;"/><!--
@startuml


package "Distributed Information Management Layer" #ffcc88 {

}

package "Service Management Layer" #lightgreen {

}

package "Security Aspect" #pink {

}

package "Identity Aspect" #ffbbbb {

}


package "Application Management Layer" #00aaff {

    interface "Application Management Layer" as i {
    
    
    }
}

circle REST
circle Web
circle CLI
circle WebSocket

i -down- Web
i -down- CLI
i -down- REST
WebSocket -left- i: events >

package "Application Management Layer" #00aaff {


rectangle "Application Manager" #white {
}

rectangle "Capability Manager" #white {
}

rectangle "DevSecOpsManager" #white {
}

rectangle "Learning Corpus" #white {
}

    "Application Manager" - -> "Service Orchestrator"
    
    "Capability Manager" - -> "Sentient Agent Bundle Manager"
    
    "Capability Manager" - -> "Application Manager"
    
}


    "Distributed Information Management Layer" <- - "Application Management Layer"

    "Service Management Layer" <- - "Application Management Layer"

    "Security Aspect" <- - "Application Management Layer"

    "Identity Aspect" <- - "Application Management Layer"


@enduml

PlantUML version 1.2019.05(Sat Apr 20 09:45:36 PDT 2019)
(GPL source distribution)
Java Runtime: Java(TM) SE Runtime Environment
JVM: Java HotSpot(TM) Client VM
Java Version: 1.8.0_271-b09
Operating System: Windows 10
OS Version: 10.0
Default Encoding: Cp1252
Language: en
Country: US
--></g></svg>