<?xml version="1.0" encoding="UTF-8" standalone="no"?><svg xmlns="http://www.w3.org/2000/svg" xmlns:xlink="http://www.w3.org/1999/xlink" contentScriptType="application/ecmascript" contentStyleType="text/css" height="703px" preserveAspectRatio="none" style="width:896px;height:703px;" version="1.1" viewBox="0 0 896 703" width="896px" zoomAndPan="magnify"><defs><filter height="300%" id="fj8gwce4qzipj" width="300%" x="-1" y="-1"><feGaussianBlur result="blurOut" stdDeviation="2.0"/><feColorMatrix in="blurOut" result="blurOut2" type="matrix" values="0 0 0 0 0 0 0 0 0 0 0 0 0 0 0 0 0 0 .4 0"/><feOffset dx="4.0" dy="4.0" in="blurOut2" result="blurOut3"/><feBlend in="SourceGraphic" in2="blurOut3" mode="normal"/></filter></defs><g><!--cluster Sentient Agent Bundle Manager--><polygon fill="#FFCC88" filter="url(#fj8gwce4qzipj)" points="248,575,478,575,485,598.6094,570,598.6094,570,691,248,691,248,575" style="stroke: #000000; stroke-width: 1.5;"/><line style="stroke: #000000; stroke-width: 1.5;" x1="248" x2="485" y1="598.6094" y2="598.6094"/><text fill="#000000" font-family="sans-serif" font-size="14" font-weight="bold" lengthAdjust="spacingAndGlyphs" textLength="224" x="252" y="591.5332">Sentient Agent Bundle Manager</text><!--cluster Data Stream Manager--><polygon fill="#FFCC88" filter="url(#fj8gwce4qzipj)" points="26,583,182,583,189,606.6094,216,606.6094,216,683,26,683,26,583" style="stroke: #000000; stroke-width: 1.5;"/><line style="stroke: #000000; stroke-width: 1.5;" x1="26" x2="189" y1="606.6094" y2="606.6094"/><text fill="#000000" font-family="sans-serif" font-size="14" font-weight="bold" lengthAdjust="spacingAndGlyphs" textLength="150" x="30" y="599.5332">Data Stream Manager</text><!--cluster Capability Manager--><polygon fill="#00AAFF" filter="url(#fj8gwce4qzipj)" points="30,73,170,73,177,96.6094,434,96.6094,434,509,30,509,30,73" style="stroke: #000000; stroke-width: 1.5;"/><line style="stroke: #000000; stroke-width: 1.5;" x1="30" x2="177" y1="96.6094" y2="96.6094"/><text fill="#000000" font-family="sans-serif" font-size="14" font-weight="bold" lengthAdjust="spacingAndGlyphs" textLength="134" x="34" y="89.5332">Capability Manager</text><!--cluster Service Orchestrator--><polygon fill="#AAFFAA" filter="url(#fj8gwce4qzipj)" points="710,359.5,864,359.5,871,383.1094,874,383.1094,874,459.5,710,459.5,710,359.5" style="stroke: #000000; stroke-width: 1.5;"/><line style="stroke: #000000; stroke-width: 1.5;" x1="710" x2="871" y1="383.1094" y2="383.1094"/><text fill="#000000" font-family="sans-serif" font-size="14" font-weight="bold" lengthAdjust="spacingAndGlyphs" textLength="148" x="714" y="376.0332">Service Orchestrator</text><!--class SABundle--><rect fill="#FEFECE" filter="url(#fj8gwce4qzipj)" height="48" id="SABundle" style="stroke: #A80036; stroke-width: 1.5;" width="86" x="291" y="619"/><ellipse cx="306" cy="635" fill="#ADD1B2" rx="11" ry="11" style="stroke: #A80036; stroke-width: 1.0;"/><path d="M308.7656,630.875 Q308.9219,630.6563 309.1094,630.5469 Q309.2969,630.4375 309.5156,630.4375 Q309.8906,630.4375 310.125,630.6953 Q310.3594,630.9531 310.3594,631.5625 L310.3594,633.0156 Q310.3594,633.625 310.125,633.8906 Q309.8906,634.1563 309.5156,634.1563 Q309.1719,634.1563 308.9688,633.9531 Q308.7656,633.7656 308.6563,633.25 Q308.6094,632.8906 308.4219,632.7031 Q308.0938,632.3281 307.4844,632.1094 Q306.875,631.8906 306.25,631.8906 Q305.4844,631.8906 304.8516,632.2188 Q304.2188,632.5469 303.7266,633.2969 Q303.2344,634.0469 303.2344,635.0781 L303.2344,636.1719 Q303.2344,637.4063 304.125,638.2266 Q305.0156,639.0469 306.6094,639.0469 Q307.5469,639.0469 308.2031,638.7969 Q308.5938,638.6406 309.0156,638.2031 Q309.2813,637.9375 309.4297,637.8594 Q309.5781,637.7813 309.7813,637.7813 Q310.1094,637.7813 310.3672,638.0391 Q310.625,638.2969 310.625,638.6406 Q310.625,638.9844 310.2813,639.3906 Q309.7813,639.9688 308.9844,640.2969 Q307.9063,640.75 306.6094,640.75 Q305.0938,640.75 303.8906,640.125 Q302.9063,639.625 302.2188,638.5547 Q301.5313,637.4844 301.5313,636.2031 L301.5313,635.0469 Q301.5313,633.7188 302.1484,632.5703 Q302.7656,631.4219 303.8594,630.8047 Q304.9531,630.1875 306.1875,630.1875 Q306.9219,630.1875 307.5703,630.3516 Q308.2188,630.5156 308.7656,630.875 Z "/><text fill="#000000" font-family="sans-serif" font-size="12" lengthAdjust="spacingAndGlyphs" textLength="54" x="320" y="639.9102">SABundle</text><line style="stroke: #A80036; stroke-width: 1.5;" x1="292" x2="376" y1="651" y2="651"/><line style="stroke: #A80036; stroke-width: 1.5;" x1="292" x2="376" y1="659" y2="659"/><!--class SABundleInstance--><rect fill="#FEFECE" filter="url(#fj8gwce4qzipj)" height="48" id="SABundleInstance" style="stroke: #A80036; stroke-width: 1.5;" width="133" x="412.5" y="619"/><ellipse cx="427.5" cy="635" fill="#ADD1B2" rx="11" ry="11" style="stroke: #A80036; stroke-width: 1.0;"/><path d="M430.2656,630.875 Q430.4219,630.6563 430.6094,630.5469 Q430.7969,630.4375 431.0156,630.4375 Q431.3906,630.4375 431.625,630.6953 Q431.8594,630.9531 431.8594,631.5625 L431.8594,633.0156 Q431.8594,633.625 431.625,633.8906 Q431.3906,634.1563 431.0156,634.1563 Q430.6719,634.1563 430.4688,633.9531 Q430.2656,633.7656 430.1563,633.25 Q430.1094,632.8906 429.9219,632.7031 Q429.5938,632.3281 428.9844,632.1094 Q428.375,631.8906 427.75,631.8906 Q426.9844,631.8906 426.3516,632.2188 Q425.7188,632.5469 425.2266,633.2969 Q424.7344,634.0469 424.7344,635.0781 L424.7344,636.1719 Q424.7344,637.4063 425.625,638.2266 Q426.5156,639.0469 428.1094,639.0469 Q429.0469,639.0469 429.7031,638.7969 Q430.0938,638.6406 430.5156,638.2031 Q430.7813,637.9375 430.9297,637.8594 Q431.0781,637.7813 431.2813,637.7813 Q431.6094,637.7813 431.8672,638.0391 Q432.125,638.2969 432.125,638.6406 Q432.125,638.9844 431.7813,639.3906 Q431.2813,639.9688 430.4844,640.2969 Q429.4063,640.75 428.1094,640.75 Q426.5938,640.75 425.3906,640.125 Q424.4063,639.625 423.7188,638.5547 Q423.0313,637.4844 423.0313,636.2031 L423.0313,635.0469 Q423.0313,633.7188 423.6484,632.5703 Q424.2656,631.4219 425.3594,630.8047 Q426.4531,630.1875 427.6875,630.1875 Q428.4219,630.1875 429.0703,630.3516 Q429.7188,630.5156 430.2656,630.875 Z "/><text fill="#000000" font-family="sans-serif" font-size="12" lengthAdjust="spacingAndGlyphs" textLength="101" x="441.5" y="639.9102">SABundleInstance</text><line style="stroke: #A80036; stroke-width: 1.5;" x1="413.5" x2="544.5" y1="651" y2="651"/><line style="stroke: #A80036; stroke-width: 1.5;" x1="413.5" x2="544.5" y1="659" y2="659"/><polygon fill="#00AAFF" filter="url(#fj8gwce4qzipj)" points="458,392,608,392,615,415.6094,622,415.6094,622,447.2188,458,447.2188,458,392" style="stroke: #000000; stroke-width: 1.5;"/><line style="stroke: #000000; stroke-width: 1.5;" x1="458" x2="615" y1="415.6094" y2="415.6094"/><text fill="#000000" font-family="sans-serif" font-size="14" font-weight="bold" lengthAdjust="spacingAndGlyphs" textLength="144" x="462" y="408.5332">Application Manager</text><!--class ChannelCreationPolicy--><rect fill="#FEFECE" filter="url(#fj8gwce4qzipj)" height="48" id="ChannelCreationPolicy" style="stroke: #A80036; stroke-width: 1.5;" width="158" x="42" y="619"/><ellipse cx="57" cy="635" fill="#ADD1B2" rx="11" ry="11" style="stroke: #A80036; stroke-width: 1.0;"/><path d="M59.7656,630.875 Q59.9219,630.6563 60.1094,630.5469 Q60.2969,630.4375 60.5156,630.4375 Q60.8906,630.4375 61.125,630.6953 Q61.3594,630.9531 61.3594,631.5625 L61.3594,633.0156 Q61.3594,633.625 61.125,633.8906 Q60.8906,634.1563 60.5156,634.1563 Q60.1719,634.1563 59.9688,633.9531 Q59.7656,633.7656 59.6563,633.25 Q59.6094,632.8906 59.4219,632.7031 Q59.0938,632.3281 58.4844,632.1094 Q57.875,631.8906 57.25,631.8906 Q56.4844,631.8906 55.8516,632.2188 Q55.2188,632.5469 54.7266,633.2969 Q54.2344,634.0469 54.2344,635.0781 L54.2344,636.1719 Q54.2344,637.4063 55.125,638.2266 Q56.0156,639.0469 57.6094,639.0469 Q58.5469,639.0469 59.2031,638.7969 Q59.5938,638.6406 60.0156,638.2031 Q60.2813,637.9375 60.4297,637.8594 Q60.5781,637.7813 60.7813,637.7813 Q61.1094,637.7813 61.3672,638.0391 Q61.625,638.2969 61.625,638.6406 Q61.625,638.9844 61.2813,639.3906 Q60.7813,639.9688 59.9844,640.2969 Q58.9063,640.75 57.6094,640.75 Q56.0938,640.75 54.8906,640.125 Q53.9063,639.625 53.2188,638.5547 Q52.5313,637.4844 52.5313,636.2031 L52.5313,635.0469 Q52.5313,633.7188 53.1484,632.5703 Q53.7656,631.4219 54.8594,630.8047 Q55.9531,630.1875 57.1875,630.1875 Q57.9219,630.1875 58.5703,630.3516 Q59.2188,630.5156 59.7656,630.875 Z "/><text fill="#000000" font-family="sans-serif" font-size="12" lengthAdjust="spacingAndGlyphs" textLength="126" x="71" y="639.9102">ChannelCreationPolicy</text><line style="stroke: #A80036; stroke-width: 1.5;" x1="43" x2="199" y1="651" y2="651"/><line style="stroke: #A80036; stroke-width: 1.5;" x1="43" x2="199" y1="659" y2="659"/><!--class CapabilityInstance--><rect fill="#FEFECE" filter="url(#fj8gwce4qzipj)" height="103.3438" id="CapabilityInstance" style="stroke: #A80036; stroke-width: 1.5;" width="133" x="257.5" y="145"/><ellipse cx="272.5" cy="161" fill="#ADD1B2" rx="11" ry="11" style="stroke: #A80036; stroke-width: 1.0;"/><path d="M275.2656,156.875 Q275.4219,156.6563 275.6094,156.5469 Q275.7969,156.4375 276.0156,156.4375 Q276.3906,156.4375 276.625,156.6953 Q276.8594,156.9531 276.8594,157.5625 L276.8594,159.0156 Q276.8594,159.625 276.625,159.8906 Q276.3906,160.1563 276.0156,160.1563 Q275.6719,160.1563 275.4688,159.9531 Q275.2656,159.7656 275.1563,159.25 Q275.1094,158.8906 274.9219,158.7031 Q274.5938,158.3281 273.9844,158.1094 Q273.375,157.8906 272.75,157.8906 Q271.9844,157.8906 271.3516,158.2188 Q270.7188,158.5469 270.2266,159.2969 Q269.7344,160.0469 269.7344,161.0781 L269.7344,162.1719 Q269.7344,163.4063 270.625,164.2266 Q271.5156,165.0469 273.1094,165.0469 Q274.0469,165.0469 274.7031,164.7969 Q275.0938,164.6406 275.5156,164.2031 Q275.7813,163.9375 275.9297,163.8594 Q276.0781,163.7813 276.2813,163.7813 Q276.6094,163.7813 276.8672,164.0391 Q277.125,164.2969 277.125,164.6406 Q277.125,164.9844 276.7813,165.3906 Q276.2813,165.9688 275.4844,166.2969 Q274.4063,166.75 273.1094,166.75 Q271.5938,166.75 270.3906,166.125 Q269.4063,165.625 268.7188,164.5547 Q268.0313,163.4844 268.0313,162.2031 L268.0313,161.0469 Q268.0313,159.7188 268.6484,158.5703 Q269.2656,157.4219 270.3594,156.8047 Q271.4531,156.1875 272.6875,156.1875 Q273.4219,156.1875 274.0703,156.3516 Q274.7188,156.5156 275.2656,156.875 Z "/><text fill="#000000" font-family="sans-serif" font-size="12" lengthAdjust="spacingAndGlyphs" textLength="101" x="286.5" y="165.9102">CapabilityInstance</text><line style="stroke: #A80036; stroke-width: 1.5;" x1="258.5" x2="389.5" y1="177" y2="177"/><text fill="#000000" font-family="sans-serif" font-size="11" lengthAdjust="spacingAndGlyphs" textLength="56" x="263.5" y="192.4189">string name</text><line style="stroke: #A80036; stroke-width: 1.5;" x1="258.5" x2="389.5" y1="198.8359" y2="198.8359"/><text fill="#000000" font-family="sans-serif" font-size="11" lengthAdjust="spacingAndGlyphs" textLength="40" x="263.5" y="214.2549">deploy()</text><text fill="#000000" font-family="sans-serif" font-size="11" lengthAdjust="spacingAndGlyphs" textLength="19" x="263.5" y="228.0908">kill()</text><text fill="#000000" font-family="sans-serif" font-size="11" lengthAdjust="spacingAndGlyphs" textLength="41" x="263.5" y="241.9268">update()</text><!--class Capability--><rect fill="#FEFECE" filter="url(#fj8gwce4qzipj)" height="131.0156" id="Capability" style="stroke: #A80036; stroke-width: 1.5;" width="86" x="198" y="354"/><ellipse cx="213" cy="370" fill="#ADD1B2" rx="11" ry="11" style="stroke: #A80036; stroke-width: 1.0;"/><path d="M215.7656,365.875 Q215.9219,365.6563 216.1094,365.5469 Q216.2969,365.4375 216.5156,365.4375 Q216.8906,365.4375 217.125,365.6953 Q217.3594,365.9531 217.3594,366.5625 L217.3594,368.0156 Q217.3594,368.625 217.125,368.8906 Q216.8906,369.1563 216.5156,369.1563 Q216.1719,369.1563 215.9688,368.9531 Q215.7656,368.7656 215.6563,368.25 Q215.6094,367.8906 215.4219,367.7031 Q215.0938,367.3281 214.4844,367.1094 Q213.875,366.8906 213.25,366.8906 Q212.4844,366.8906 211.8516,367.2188 Q211.2188,367.5469 210.7266,368.2969 Q210.2344,369.0469 210.2344,370.0781 L210.2344,371.1719 Q210.2344,372.4063 211.125,373.2266 Q212.0156,374.0469 213.6094,374.0469 Q214.5469,374.0469 215.2031,373.7969 Q215.5938,373.6406 216.0156,373.2031 Q216.2813,372.9375 216.4297,372.8594 Q216.5781,372.7813 216.7813,372.7813 Q217.1094,372.7813 217.3672,373.0391 Q217.625,373.2969 217.625,373.6406 Q217.625,373.9844 217.2813,374.3906 Q216.7813,374.9688 215.9844,375.2969 Q214.9063,375.75 213.6094,375.75 Q212.0938,375.75 210.8906,375.125 Q209.9063,374.625 209.2188,373.5547 Q208.5313,372.4844 208.5313,371.2031 L208.5313,370.0469 Q208.5313,368.7188 209.1484,367.5703 Q209.7656,366.4219 210.8594,365.8047 Q211.9531,365.1875 213.1875,365.1875 Q213.9219,365.1875 214.5703,365.3516 Q215.2188,365.5156 215.7656,365.875 Z "/><text fill="#000000" font-family="sans-serif" font-size="12" lengthAdjust="spacingAndGlyphs" textLength="54" x="227" y="374.9102">Capability</text><line style="stroke: #A80036; stroke-width: 1.5;" x1="199" x2="283" y1="386" y2="386"/><text fill="#000000" font-family="sans-serif" font-size="11" lengthAdjust="spacingAndGlyphs" textLength="56" x="204" y="401.4189">string name</text><line style="stroke: #A80036; stroke-width: 1.5;" x1="199" x2="283" y1="407.8359" y2="407.8359"/><text fill="#000000" font-family="sans-serif" font-size="11" lengthAdjust="spacingAndGlyphs" textLength="30" x="204" y="423.2549">build()</text><text fill="#000000" font-family="sans-serif" font-size="11" lengthAdjust="spacingAndGlyphs" textLength="39" x="204" y="437.0908">create()</text><text fill="#000000" font-family="sans-serif" font-size="11" lengthAdjust="spacingAndGlyphs" textLength="40" x="204" y="450.9268">deploy()</text><text fill="#000000" font-family="sans-serif" font-size="11" lengthAdjust="spacingAndGlyphs" textLength="44" x="204" y="464.7627">release()</text><text fill="#000000" font-family="sans-serif" font-size="11" lengthAdjust="spacingAndGlyphs" textLength="26" x="204" y="478.5986">test()</text><!--class i--><rect fill="#FEFECE" filter="url(#fj8gwce4qzipj)" height="158.6875" id="i" style="stroke: #A80036; stroke-width: 1.5;" width="168" x="54" y="117"/><ellipse cx="82.05" cy="133" fill="#B4A7E5" rx="11" ry="11" style="stroke: #A80036; stroke-width: 1.0;"/><path d="M83.0031,129.6406 L83.0031,136.2969 L84.7219,136.2969 Q85.3313,136.2969 85.5969,136.5313 Q85.8625,136.7656 85.8625,137.1563 Q85.8625,137.5313 85.5969,137.7656 Q85.3313,138 84.7219,138 L79.5813,138 Q78.9719,138 78.7063,137.7656 Q78.4406,137.5313 78.4406,137.1406 Q78.4406,136.7656 78.7063,136.5313 Q78.9719,136.2969 79.5813,136.2969 L81.3,136.2969 L81.3,129.6406 L79.5813,129.6406 Q78.9719,129.6406 78.7063,129.4063 Q78.4406,129.1719 78.4406,128.7813 Q78.4406,128.4063 78.7063,128.1719 Q78.9719,127.9375 79.5813,127.9375 L84.7219,127.9375 Q85.3313,127.9375 85.5969,128.1719 Q85.8625,128.4063 85.8625,128.7813 Q85.8625,129.1719 85.5969,129.4063 Q85.3313,129.6406 84.7219,129.6406 L83.0031,129.6406 Z "/><text fill="#000000" font-family="sans-serif" font-size="12" font-style="italic" lengthAdjust="spacingAndGlyphs" textLength="107" x="98.95" y="137.9102">Capability Manager</text><line style="stroke: #A80036; stroke-width: 1.5;" x1="55" x2="221" y1="149" y2="149"/><line style="stroke: #A80036; stroke-width: 1.5;" x1="55" x2="221" y1="157" y2="157"/><text fill="#000000" font-family="sans-serif" font-size="11" lengthAdjust="spacingAndGlyphs" textLength="142" x="60" y="172.4189">/sabr/aml/cm/capability/build()</text><text fill="#000000" font-family="sans-serif" font-size="11" lengthAdjust="spacingAndGlyphs" textLength="151" x="60" y="186.2549">/sabr/aml/cm/capability/create()</text><text fill="#000000" font-family="sans-serif" font-size="11" lengthAdjust="spacingAndGlyphs" textLength="152" x="60" y="200.0908">/sabr/aml/cm/capability/deploy()</text><text fill="#000000" font-family="sans-serif" font-size="11" lengthAdjust="spacingAndGlyphs" textLength="133" x="60" y="213.9268">/sabr/aml/cm/capability/list()</text><text fill="#000000" font-family="sans-serif" font-size="11" lengthAdjust="spacingAndGlyphs" textLength="156" x="60" y="227.7627">/sabr/aml/cm/capability/release()</text><text fill="#000000" font-family="sans-serif" font-size="11" lengthAdjust="spacingAndGlyphs" textLength="156" x="60" y="241.5986">/sabr/aml/cm/capability/remove()</text><text fill="#000000" font-family="sans-serif" font-size="11" lengthAdjust="spacingAndGlyphs" textLength="138" x="60" y="255.4346">/sabr/aml/cm/capability/test()</text><text fill="#000000" font-family="sans-serif" font-size="11" lengthAdjust="spacingAndGlyphs" textLength="153" x="60" y="269.2705">/sabr/aml/cm/capability/update()</text><!--class Provisioner--><rect fill="#FEFECE" filter="url(#fj8gwce4qzipj)" height="48" id="Provisioner" style="stroke: #A80036; stroke-width: 1.5;" width="94" x="728" y="395.5"/><ellipse cx="743" cy="411.5" fill="#ADD1B2" rx="11" ry="11" style="stroke: #A80036; stroke-width: 1.0;"/><path d="M745.7656,407.375 Q745.9219,407.1563 746.1094,407.0469 Q746.2969,406.9375 746.5156,406.9375 Q746.8906,406.9375 747.125,407.1953 Q747.3594,407.4531 747.3594,408.0625 L747.3594,409.5156 Q747.3594,410.125 747.125,410.3906 Q746.8906,410.6563 746.5156,410.6563 Q746.1719,410.6563 745.9688,410.4531 Q745.7656,410.2656 745.6563,409.75 Q745.6094,409.3906 745.4219,409.2031 Q745.0938,408.8281 744.4844,408.6094 Q743.875,408.3906 743.25,408.3906 Q742.4844,408.3906 741.8516,408.7188 Q741.2188,409.0469 740.7266,409.7969 Q740.2344,410.5469 740.2344,411.5781 L740.2344,412.6719 Q740.2344,413.9063 741.125,414.7266 Q742.0156,415.5469 743.6094,415.5469 Q744.5469,415.5469 745.2031,415.2969 Q745.5938,415.1406 746.0156,414.7031 Q746.2813,414.4375 746.4297,414.3594 Q746.5781,414.2813 746.7813,414.2813 Q747.1094,414.2813 747.3672,414.5391 Q747.625,414.7969 747.625,415.1406 Q747.625,415.4844 747.2813,415.8906 Q746.7813,416.4688 745.9844,416.7969 Q744.9063,417.25 743.6094,417.25 Q742.0938,417.25 740.8906,416.625 Q739.9063,416.125 739.2188,415.0547 Q738.5313,413.9844 738.5313,412.7031 L738.5313,411.5469 Q738.5313,410.2188 739.1484,409.0703 Q739.7656,407.9219 740.8594,407.3047 Q741.9531,406.6875 743.1875,406.6875 Q743.9219,406.6875 744.5703,406.8516 Q745.2188,407.0156 745.7656,407.375 Z "/><text fill="#000000" font-family="sans-serif" font-size="12" lengthAdjust="spacingAndGlyphs" textLength="62" x="757" y="416.4102">Provisioner</text><line style="stroke: #A80036; stroke-width: 1.5;" x1="729" x2="821" y1="427.5" y2="427.5"/><line style="stroke: #A80036; stroke-width: 1.5;" x1="729" x2="821" y1="435.5" y2="435.5"/><ellipse cx="93" cy="13" fill="#FEFECE" filter="url(#fj8gwce4qzipj)" rx="5" ry="5" style="stroke: #A80036; stroke-width: 1.5;"/><text fill="#000000" font-family="sans-serif" font-size="12" lengthAdjust="spacingAndGlyphs" textLength="19" x="83.5" y="30.457">CLI</text><ellipse cx="138" cy="13" fill="#FEFECE" filter="url(#fj8gwce4qzipj)" rx="5" ry="5" style="stroke: #A80036; stroke-width: 1.5;"/><text fill="#000000" font-family="sans-serif" font-size="12" lengthAdjust="spacingAndGlyphs" textLength="32" x="122" y="30.457">REST</text><ellipse cx="183" cy="13" fill="#FEFECE" filter="url(#fj8gwce4qzipj)" rx="5" ry="5" style="stroke: #A80036; stroke-width: 1.5;"/><text fill="#000000" font-family="sans-serif" font-size="12" lengthAdjust="spacingAndGlyphs" textLength="25" x="170.5" y="30.457">Web</text><!--link ilol972 to i--><path d="M94.0244,18.132 C97.3736,31.64 108.367,75.982 118.524,116.947 " fill="none" id="ilol972-i" style="stroke: #A80036; stroke-width: 1.0;"/><!--link ilol975 to i--><path d="M138,18.132 C138,31.64 138,75.982 138,116.947 " fill="none" id="ilol975-i" style="stroke: #A80036; stroke-width: 1.0;"/><!--link ilol978 to i--><path d="M181.976,18.132 C178.626,31.64 167.633,75.982 157.476,116.947 " fill="none" id="ilol978-i" style="stroke: #A80036; stroke-width: 1.0;"/><!--link Capability to ChannelCreationPolicy--><path d="M199.704,496.725 C179.404,534.195 155.931,577.524 139.938,607.044 " fill="none" id="Capability-ChannelCreationPolicy" style="stroke: #A80036; stroke-width: 1.0;"/><polygon fill="#A80036" points="133.573,618.7924,141.3768,612.784,135.9545,614.396,134.3425,608.9736,133.573,618.7924" style="stroke: #A80036; stroke-width: 1.0;"/><line style="stroke: #A80036; stroke-width: 1.0;" x1="135.9545" x2="139.7655" y1="614.396" y2="607.362"/><polygon fill="#FFFFFF" points="205.968,485.162,199.5929,488.5323,200.252,495.7132,206.6271,492.3429,205.968,485.162" style="stroke: #A80036; stroke-width: 1.0;"/><text fill="#000000" font-family="sans-serif" font-size="13" lengthAdjust="spacingAndGlyphs" textLength="44" x="179" y="547.4951">policies</text><text fill="#000000" font-family="sans-serif" font-size="13" lengthAdjust="spacingAndGlyphs" textLength="7" x="128.898" y="608.0789">n</text><!--link Capability to SABundle--><path d="M273.235,497.274 C288.853,534.473 306.85,577.336 319.18,606.703 " fill="none" id="Capability-SABundle" style="stroke: #A80036; stroke-width: 1.0;"/><polygon fill="#A80036" points="324.256,618.7924,324.4596,608.9456,322.3202,614.1823,317.0835,612.0429,324.256,618.7924" style="stroke: #A80036; stroke-width: 1.0;"/><line style="stroke: #A80036; stroke-width: 1.0;" x1="322.3202" x2="319.223" y1="614.1823" y2="606.8065"/><polygon fill="#FFFFFF" points="268.149,485.162,266.7839,492.2427,272.7949,496.2262,274.16,489.1454,268.149,485.162" style="stroke: #A80036; stroke-width: 1.0;"/><text fill="#000000" font-family="sans-serif" font-size="13" lengthAdjust="spacingAndGlyphs" textLength="45" x="295" y="547.4951">bundles</text><text fill="#000000" font-family="sans-serif" font-size="13" lengthAdjust="spacingAndGlyphs" textLength="7" x="313.8622" y="608.0789">n</text><!--link Capability to CapabilityInstance--><path d="M269.935,341.457 C279.839,315.084 290.799,285.904 300.246,260.749 " fill="none" id="Capability-CapabilityInstance" style="stroke: #A80036; stroke-width: 1.0;"/><polygon fill="#A80036" points="304.958,248.202,298.0487,255.2206,303.1998,252.8827,305.5378,258.0338,304.958,248.202" style="stroke: #A80036; stroke-width: 1.0;"/><line style="stroke: #A80036; stroke-width: 1.0;" x1="303.1998" x2="300.3875" y1="252.8827" y2="260.372"/><polygon fill="#A80036" points="265.318,353.749,271.172,349.5382,269.5365,342.5149,263.6826,346.7258,265.318,353.749" style="stroke: #A80036; stroke-width: 1.0;"/><text fill="#000000" font-family="sans-serif" font-size="13" lengthAdjust="spacingAndGlyphs" textLength="56" x="284" y="320.4951">instances</text><text fill="#000000" font-family="sans-serif" font-size="13" lengthAdjust="spacingAndGlyphs" textLength="7" x="294.9289" y="269.7201">n</text><!--link CapabilityInstance to Capability--><path d="M261.362,258.43 C250.158,272.874 240.115,289.05 234,306 C230.068,316.9 228.329,328.777 227.98,340.595 " fill="none" id="CapabilityInstance-Capability" style="stroke: #A80036; stroke-width: 1.0;"/><polygon fill="#A80036" points="228.132,353.858,232.0279,344.8124,228.0743,348.8583,224.0284,344.9048,228.132,353.858" style="stroke: #A80036; stroke-width: 1.0;"/><line style="stroke: #A80036; stroke-width: 1.0;" x1="228.0743" x2="227.9825" y1="348.8583" y2="340.8595"/><polygon fill="#FFFFFF" points="269.687,248.232,262.7941,250.3506,262.0987,257.5281,268.9916,255.4095,269.687,248.232" style="stroke: #A80036; stroke-width: 1.0;"/><text fill="#000000" font-family="sans-serif" font-size="13" lengthAdjust="spacingAndGlyphs" textLength="34" x="235" y="320.4951">owner</text><text fill="#000000" font-family="sans-serif" font-size="13" lengthAdjust="spacingAndGlyphs" textLength="7" x="219.3418" y="343.3169">1</text><!--link CapabilityInstance to SABundleInstance--><path d="M338.929,260.919 C342.32,275.697 345.849,291.385 349,306 C369.925,403.048 352.875,434.191 393,525 C406.721,556.054 429.806,586.814 448.605,608.995 " fill="none" id="CapabilityInstance-SABundleInstance" style="stroke: #A80036; stroke-width: 1.0;"/><polygon fill="#A80036" points="457.16,618.8557,454.2841,609.4361,453.8836,615.0788,448.2409,614.6783,457.16,618.8557" style="stroke: #A80036; stroke-width: 1.0;"/><line style="stroke: #A80036; stroke-width: 1.0;" x1="453.8836" x2="448.641" y1="615.0788" y2="609.0365"/><polygon fill="#FFFFFF" points="335.997,248.216,333.4491,254.962,338.6963,259.9085,341.2441,253.1625,335.997,248.216" style="stroke: #A80036; stroke-width: 1.0;"/><text fill="#000000" font-family="sans-serif" font-size="13" lengthAdjust="spacingAndGlyphs" textLength="45" x="394" y="424.9951">bundles</text><text fill="#000000" font-family="sans-serif" font-size="13" lengthAdjust="spacingAndGlyphs" textLength="7" x="443.6666" y="608.1593">n</text><!--link CapabilityInstance to Provisioner--><path d="M371.18,257.738 C378.299,264.532 385.969,270.85 394,276 C490.274,337.733 533.759,309.161 640,351.5 C667.468,362.447 696.992,376.785 721.404,389.387 " fill="none" id="CapabilityInstance-Provisioner" style="stroke: #A80036; stroke-width: 1.0;"/><polygon fill="#A80036" points="732.947,395.412,726.8196,387.7013,728.5146,393.0982,723.1176,394.7932,732.947,395.412" style="stroke: #A80036; stroke-width: 1.0;"/><line style="stroke: #A80036; stroke-width: 1.0;" x1="728.5146" x2="721.4225" y1="393.0982" y2="389.3965"/><polygon fill="#FFFFFF" points="361.828,248.242,363.1878,255.3237,370.2478,256.7923,368.888,249.7106,361.828,248.242" style="stroke: #A80036; stroke-width: 1.0;"/><text fill="#000000" font-family="sans-serif" font-size="13" lengthAdjust="spacingAndGlyphs" textLength="61" x="531" y="320.4951">provisioner</text><text fill="#000000" font-family="sans-serif" font-size="13" lengthAdjust="spacingAndGlyphs" textLength="7" x="714.274" y="384.7296">1</text><!--link Capability Manager to Sentient Agent Bundle Manager--><path d="M434.1007,200.2228 C434.2485,200.2747 434.3981,200.3273 434.5495,200.3807 C439.3956,202.0888 446.1106,204.5598 454.196,207.8028 C470.3667,214.2887 492.0184,223.8623 515.1616,236.5961 C561.448,262.0638 613.7,300.172 640,351.5 C675.164,420.127 691.936,468.002 640,525 C636.571,528.763 278.83,555.645 275,559 C271.5528,562.0194 268.6618,565.5246 266.2429,569.3537 C265.6382,570.311 265.0629,571.2885 264.5159,572.2837 C264.2424,572.7813 263.9759,573.2834 263.7164,573.7895 C263.5866,574.0426 263.4585,574.2967 263.3321,574.5518 C263.2689,574.6793 263.2062,574.8071 263.1438,574.9352 " fill="none" id="Capability Manager-Sentient Agent Bundle Manager" style="stroke: #A80036; stroke-width: 1.0;"/><polygon fill="#A80036" points="263.1438,574.9352,270.6799,568.5943,265.3326,570.4397,263.4872,565.0923,263.1438,574.9352" style="stroke: #A80036; stroke-width: 1.0;"/><!--link Capability Manager to Application Manager--><path d="M434.1588,204.7959 C434.3339,204.9572 434.5113,205.1209 434.6911,205.2871 C435.4103,205.952 436.1668,206.6557 436.9579,207.397 C443.2868,213.3272 451.8294,221.6592 461.1527,231.6664 C479.7995,251.6808 501.5695,278.396 515,306 C527.451,331.591 533.784,363.476 536.954,386.759 " fill="none" id="Capability Manager-Application Manager" style="stroke: #A80036; stroke-width: 1.0;"/><polygon fill="#A80036" points="537.62,391.888,540.427,382.4476,536.9757,386.9297,532.4937,383.4784,537.62,391.888" style="stroke: #A80036; stroke-width: 1.0;"/><!--
@startuml


package "Sentient Agent Bundle Manager" #ffcc88 {
    
        class SABundle {
        }
    
        class SABundleInstance {
        }
    }

package "Application Manager" #00aaff {
    }

package "Data Stream Manager" #ffcc88 {
    
        class ChannelCreationPolicy {
        }
    }

package "Capability Manager" #00aaff {
    
        class CapabilityInstance {
        }
    
        class Capability {
        }
    }

package "Service Orchestrator" #aaffaa {
    
        class Provisioner {
        }
    }


package "Capability Manager" #00aaff {

    interface "Capability Manager" as i {
            /sabr/aml/cm/capability/build()
            /sabr/aml/cm/capability/create()
            /sabr/aml/cm/capability/deploy()
            /sabr/aml/cm/capability/list()
            /sabr/aml/cm/capability/release()
            /sabr/aml/cm/capability/remove()
            /sabr/aml/cm/capability/test()
            /sabr/aml/cm/capability/update()
    
    }
}

CLI ()- - i
REST ()- - i
Web ()- - i

package "Capability Manager" #00aaff {
        class "Capability" {
                 string name
                             build()
                     create()
                     deploy()
                     release()
                     test()
            }
                Capability o- -> "n" ChannelCreationPolicy : policies
                        Capability o- -> "n" SABundle : bundles
                        Capability *- -> "n" CapabilityInstance : instances
            
    
    class "CapabilityInstance" {
                 string name
                             deploy()
                     kill()
                     update()
            }
                CapabilityInstance o- -> "n" SABundleInstance : bundles
                        CapabilityInstance o- -> "1" Capability : owner
                        CapabilityInstance o- -> "1" Provisioner : provisioner
            
    

}


    "Capability Manager" - -> "Sentient Agent Bundle Manager"

    "Capability Manager" - -> "Application Manager"


@enduml

PlantUML version 1.2019.05(Sat Apr 20 09:45:36 PDT 2019)
(GPL source distribution)
Java Runtime: Java(TM) SE Runtime Environment
JVM: Java HotSpot(TM) Client VM
Java Version: 1.8.0_271-b09
Operating System: Windows 10
OS Version: 10.0
Default Encoding: Cp1252
Language: en
Country: US
--></g></svg>