<?xml version="1.0" encoding="us-ascii" standalone="no"?><svg xmlns="http://www.w3.org/2000/svg" xmlns:xlink="http://www.w3.org/1999/xlink" contentStyleType="text/css" height="749px" preserveAspectRatio="none" style="width:920px;height:749px;background:#FFFFFF;" version="1.1" viewBox="0 0 920 749" width="920px" zoomAndPan="magnify"><defs/><g><!--cluster Sentient Agent Bundle Manager--><g id="cluster_Sentient Agent Bundle Manager"><path d="M326.5,626 L551.5,626 A3.75,3.75 0 0 1 554,628.5 L561,649.6094 L665.5,649.6094 A2.5,2.5 0 0 1 668,652.1094 L668,739.5 A2.5,2.5 0 0 1 665.5,742 L326.5,742 A2.5,2.5 0 0 1 324,739.5 L324,628.5 A2.5,2.5 0 0 1 326.5,626 " fill="#FFCC88" style="stroke:#000000;stroke-width:1.5;"/><line style="stroke:#000000;stroke-width:1.5;" x1="324" x2="561" y1="649.6094" y2="649.6094"/><text fill="#000000" font-family="sans-serif" font-size="14" font-weight="bold" lengthAdjust="spacing" textLength="224" x="328" y="642.5332">Sentient Agent Bundle Manager</text></g><!--cluster Data Stream Manager--><g id="cluster_Data Stream Manager"><path d="M86.5,634 L237.5,634 A3.75,3.75 0 0 1 240,636.5 L247,657.6094 L289.5,657.6094 A2.5,2.5 0 0 1 292,660.1094 L292,731.5 A2.5,2.5 0 0 1 289.5,734 L86.5,734 A2.5,2.5 0 0 1 84,731.5 L84,636.5 A2.5,2.5 0 0 1 86.5,634 " fill="#FFCC88" style="stroke:#000000;stroke-width:1.5;"/><line style="stroke:#000000;stroke-width:1.5;" x1="84" x2="247" y1="657.6094" y2="657.6094"/><text fill="#000000" font-family="sans-serif" font-size="14" font-weight="bold" lengthAdjust="spacing" textLength="150" x="88" y="650.5332">Data Stream Manager</text></g><!--cluster Capability Manager--><g id="cluster_Capability Manager"><path d="M8.5,71 L143.5,71 A3.75,3.75 0 0 1 146,73.5 L153,94.6094 L469.5,94.6094 A2.5,2.5 0 0 1 472,97.1094 L472,557.5 A2.5,2.5 0 0 1 469.5,560 L8.5,560 A2.5,2.5 0 0 1 6,557.5 L6,73.5 A2.5,2.5 0 0 1 8.5,71 " fill="#00AAFF" style="stroke:#000000;stroke-width:1.5;"/><line style="stroke:#000000;stroke-width:1.5;" x1="6" x2="153" y1="94.6094" y2="94.6094"/><text fill="#000000" font-family="sans-serif" font-size="14" font-weight="bold" lengthAdjust="spacing" textLength="134" x="10" y="87.5332">Capability Manager</text></g><!--cluster Service Orchestrator--><g id="cluster_Service Orchestrator"><path d="M751.5,399 L900.5,399 A3.75,3.75 0 0 1 903,401.5 L910,422.6094 L910.5,422.6094 A2.5,2.5 0 0 1 913,425.1094 L913,496.5 A2.5,2.5 0 0 1 910.5,499 L751.5,499 A2.5,2.5 0 0 1 749,496.5 L749,401.5 A2.5,2.5 0 0 1 751.5,399 " fill="#AAFFAA" style="stroke:#000000;stroke-width:1.5;"/><line style="stroke:#000000;stroke-width:1.5;" x1="749" x2="910" y1="422.6094" y2="422.6094"/><text fill="#000000" font-family="sans-serif" font-size="14" font-weight="bold" lengthAdjust="spacing" textLength="148" x="753" y="415.5332">Service Orchestrator</text></g><!--class SABundle--><g id="elem_SABundle"><rect codeLine="5" fill="#F1F1F1" height="48" id="SABundle" rx="2.5" ry="2.5" style="stroke:#181818;stroke-width:0.5;" width="94" x="367" y="670"/><ellipse cx="382" cy="686" fill="#ADD1B2" rx="11" ry="11" style="stroke:#181818;stroke-width:1.0;"/><path d="M384.7656,681.875 Q384.9219,681.6563 385.1094,681.5469 Q385.2969,681.4375 385.5156,681.4375 Q385.8906,681.4375 386.125,681.6953 Q386.3594,681.9531 386.3594,682.5625 L386.3594,684.0156 Q386.3594,684.625 386.125,684.8906 Q385.8906,685.1563 385.5156,685.1563 Q385.1719,685.1563 384.9688,684.9531 Q384.7656,684.7656 384.6563,684.25 Q384.6094,683.8906 384.4219,683.7031 Q384.0938,683.3281 383.4844,683.1094 Q382.875,682.8906 382.25,682.8906 Q381.4844,682.8906 380.8516,683.2188 Q380.2188,683.5469 379.7266,684.2969 Q379.2344,685.0469 379.2344,686.0781 L379.2344,687.1719 Q379.2344,688.4063 380.125,689.2266 Q381.0156,690.0469 382.6094,690.0469 Q383.5469,690.0469 384.2031,689.7969 Q384.5938,689.6406 385.0156,689.2031 Q385.2813,688.9375 385.4297,688.8594 Q385.5781,688.7813 385.7813,688.7813 Q386.1094,688.7813 386.3672,689.0391 Q386.625,689.2969 386.625,689.6406 Q386.625,689.9844 386.2813,690.3906 Q385.7813,690.9688 384.9844,691.2969 Q383.9063,691.75 382.6094,691.75 Q381.0938,691.75 379.8906,691.125 Q378.9063,690.625 378.2188,689.5547 Q377.5313,688.4844 377.5313,687.2031 L377.5313,686.0469 Q377.5313,684.7188 378.1484,683.5703 Q378.7656,682.4219 379.8594,681.8047 Q380.9531,681.1875 382.1875,681.1875 Q382.9219,681.1875 383.5703,681.3516 Q384.2188,681.5156 384.7656,681.875 Z " fill="#000000"/><text fill="#000000" font-family="sans-serif" font-size="14" lengthAdjust="spacing" textLength="62" x="396" y="691.7285">SABundle</text><line style="stroke:#181818;stroke-width:0.5;" x1="368" x2="460" y1="702" y2="702"/><line style="stroke:#181818;stroke-width:0.5;" x1="368" x2="460" y1="710" y2="710"/></g><!--class SABundleInstance--><g id="elem_SABundleInstance"><rect codeLine="8" fill="#F1F1F1" height="48" id="SABundleInstance" rx="2.5" ry="2.5" style="stroke:#181818;stroke-width:0.5;" width="147" x="496.5" y="670"/><ellipse cx="511.5" cy="686" fill="#ADD1B2" rx="11" ry="11" style="stroke:#181818;stroke-width:1.0;"/><path d="M514.2656,681.875 Q514.4219,681.6563 514.6094,681.5469 Q514.7969,681.4375 515.0156,681.4375 Q515.3906,681.4375 515.625,681.6953 Q515.8594,681.9531 515.8594,682.5625 L515.8594,684.0156 Q515.8594,684.625 515.625,684.8906 Q515.3906,685.1563 515.0156,685.1563 Q514.6719,685.1563 514.4688,684.9531 Q514.2656,684.7656 514.1563,684.25 Q514.1094,683.8906 513.9219,683.7031 Q513.5938,683.3281 512.9844,683.1094 Q512.375,682.8906 511.75,682.8906 Q510.9844,682.8906 510.3516,683.2188 Q509.7188,683.5469 509.2266,684.2969 Q508.7344,685.0469 508.7344,686.0781 L508.7344,687.1719 Q508.7344,688.4063 509.625,689.2266 Q510.5156,690.0469 512.1094,690.0469 Q513.0469,690.0469 513.7031,689.7969 Q514.0938,689.6406 514.5156,689.2031 Q514.7813,688.9375 514.9297,688.8594 Q515.0781,688.7813 515.2813,688.7813 Q515.6094,688.7813 515.8672,689.0391 Q516.125,689.2969 516.125,689.6406 Q516.125,689.9844 515.7813,690.3906 Q515.2813,690.9688 514.4844,691.2969 Q513.4063,691.75 512.1094,691.75 Q510.5938,691.75 509.3906,691.125 Q508.4063,690.625 507.7188,689.5547 Q507.0313,688.4844 507.0313,687.2031 L507.0313,686.0469 Q507.0313,684.7188 507.6484,683.5703 Q508.2656,682.4219 509.3594,681.8047 Q510.4531,681.1875 511.6875,681.1875 Q512.4219,681.1875 513.0703,681.3516 Q513.7188,681.5156 514.2656,681.875 Z " fill="#000000"/><text fill="#000000" font-family="sans-serif" font-size="14" lengthAdjust="spacing" textLength="115" x="525.5" y="691.7285">SABundleInstance</text><line style="stroke:#181818;stroke-width:0.5;" x1="497.5" x2="642.5" y1="702" y2="702"/><line style="stroke:#181818;stroke-width:0.5;" x1="497.5" x2="642.5" y1="710" y2="710"/></g><path d="M498.5,431.5 L643.5,431.5 A3.75,3.75 0 0 1 646,434 L653,455.1094 L657.5,455.1094 A2.5,2.5 0 0 1 660,457.6094 L660,484.2188 A2.5,2.5 0 0 1 657.5,486.7188 L498.5,486.7188 A2.5,2.5 0 0 1 496,484.2188 L496,434 A2.5,2.5 0 0 1 498.5,431.5 " fill="#00AAFF" style="stroke:#181818;stroke-width:0.5;"/><line style="stroke:#181818;stroke-width:0.5;" x1="496" x2="653" y1="455.1094" y2="455.1094"/><text fill="#000000" font-family="sans-serif" font-size="14" font-weight="bold" lengthAdjust="spacing" textLength="144" x="500" y="448.0332">Application Manager</text><!--class ChannelCreationPolicy--><g id="elem_ChannelCreationPolicy"><rect codeLine="17" fill="#F1F1F1" height="48" id="ChannelCreationPolicy" rx="2.5" ry="2.5" style="stroke:#181818;stroke-width:0.5;" width="176" x="100" y="670"/><ellipse cx="115" cy="686" fill="#ADD1B2" rx="11" ry="11" style="stroke:#181818;stroke-width:1.0;"/><path d="M117.7656,681.875 Q117.9219,681.6563 118.1094,681.5469 Q118.2969,681.4375 118.5156,681.4375 Q118.8906,681.4375 119.125,681.6953 Q119.3594,681.9531 119.3594,682.5625 L119.3594,684.0156 Q119.3594,684.625 119.125,684.8906 Q118.8906,685.1563 118.5156,685.1563 Q118.1719,685.1563 117.9688,684.9531 Q117.7656,684.7656 117.6563,684.25 Q117.6094,683.8906 117.4219,683.7031 Q117.0938,683.3281 116.4844,683.1094 Q115.875,682.8906 115.25,682.8906 Q114.4844,682.8906 113.8516,683.2188 Q113.2188,683.5469 112.7266,684.2969 Q112.2344,685.0469 112.2344,686.0781 L112.2344,687.1719 Q112.2344,688.4063 113.125,689.2266 Q114.0156,690.0469 115.6094,690.0469 Q116.5469,690.0469 117.2031,689.7969 Q117.5938,689.6406 118.0156,689.2031 Q118.2813,688.9375 118.4297,688.8594 Q118.5781,688.7813 118.7813,688.7813 Q119.1094,688.7813 119.3672,689.0391 Q119.625,689.2969 119.625,689.6406 Q119.625,689.9844 119.2813,690.3906 Q118.7813,690.9688 117.9844,691.2969 Q116.9063,691.75 115.6094,691.75 Q114.0938,691.75 112.8906,691.125 Q111.9063,690.625 111.2188,689.5547 Q110.5313,688.4844 110.5313,687.2031 L110.5313,686.0469 Q110.5313,684.7188 111.1484,683.5703 Q111.7656,682.4219 112.8594,681.8047 Q113.9531,681.1875 115.1875,681.1875 Q115.9219,681.1875 116.5703,681.3516 Q117.2188,681.5156 117.7656,681.875 Z " fill="#000000"/><text fill="#000000" font-family="sans-serif" font-size="14" lengthAdjust="spacing" textLength="144" x="129" y="691.7285">ChannelCreationPolicy</text><line style="stroke:#181818;stroke-width:0.5;" x1="101" x2="275" y1="702" y2="702"/><line style="stroke:#181818;stroke-width:0.5;" x1="101" x2="275" y1="710" y2="710"/></g><!--class CapabilityInstance--><g id="elem_CapabilityInstance"><rect codeLine="70" fill="#F1F1F1" height="118.4375" id="CapabilityInstance" rx="2.5" ry="2.5" style="stroke:#181818;stroke-width:0.5;" width="147" x="281.5" y="150.5"/><ellipse cx="296.5" cy="166.5" fill="#ADD1B2" rx="11" ry="11" style="stroke:#181818;stroke-width:1.0;"/><path d="M299.2656,162.375 Q299.4219,162.1563 299.6094,162.0469 Q299.7969,161.9375 300.0156,161.9375 Q300.3906,161.9375 300.625,162.1953 Q300.8594,162.4531 300.8594,163.0625 L300.8594,164.5156 Q300.8594,165.125 300.625,165.3906 Q300.3906,165.6563 300.0156,165.6563 Q299.6719,165.6563 299.4688,165.4531 Q299.2656,165.2656 299.1563,164.75 Q299.1094,164.3906 298.9219,164.2031 Q298.5938,163.8281 297.9844,163.6094 Q297.375,163.3906 296.75,163.3906 Q295.9844,163.3906 295.3516,163.7188 Q294.7188,164.0469 294.2266,164.7969 Q293.7344,165.5469 293.7344,166.5781 L293.7344,167.6719 Q293.7344,168.9063 294.625,169.7266 Q295.5156,170.5469 297.1094,170.5469 Q298.0469,170.5469 298.7031,170.2969 Q299.0938,170.1406 299.5156,169.7031 Q299.7813,169.4375 299.9297,169.3594 Q300.0781,169.2813 300.2813,169.2813 Q300.6094,169.2813 300.8672,169.5391 Q301.125,169.7969 301.125,170.1406 Q301.125,170.4844 300.7813,170.8906 Q300.2813,171.4688 299.4844,171.7969 Q298.4063,172.25 297.1094,172.25 Q295.5938,172.25 294.3906,171.625 Q293.4063,171.125 292.7188,170.0547 Q292.0313,168.9844 292.0313,167.7031 L292.0313,166.5469 Q292.0313,165.2188 292.6484,164.0703 Q293.2656,162.9219 294.3594,162.3047 Q295.4531,161.6875 296.6875,161.6875 Q297.4219,161.6875 298.0703,161.8516 Q298.7188,162.0156 299.2656,162.375 Z " fill="#000000"/><text fill="#000000" font-family="sans-serif" font-size="14" lengthAdjust="spacing" textLength="115" x="310.5" y="172.2285">CapabilityInstance</text><line style="stroke:#181818;stroke-width:0.5;" x1="282.5" x2="427.5" y1="182.5" y2="182.5"/><text fill="#000000" font-family="sans-serif" font-size="14" lengthAdjust="spacing" textLength="74" x="287.5" y="201.0332">string name</text><line style="stroke:#181818;stroke-width:0.5;" x1="282.5" x2="427.5" y1="208.1094" y2="208.1094"/><text fill="#000000" font-family="sans-serif" font-size="14" lengthAdjust="spacing" textLength="52" x="287.5" y="226.6426">deploy()</text><text fill="#000000" font-family="sans-serif" font-size="14" lengthAdjust="spacing" textLength="26" x="287.5" y="244.252">kill()</text><text fill="#000000" font-family="sans-serif" font-size="14" lengthAdjust="spacing" textLength="54" x="287.5" y="261.8613">update()</text></g><!--class Capability--><g id="elem_Capability"><rect codeLine="57" fill="#F1F1F1" height="153.6563" id="Capability" rx="2.5" ry="2.5" style="stroke:#181818;stroke-width:0.5;" width="94" x="230" y="382"/><ellipse cx="245" cy="398" fill="#ADD1B2" rx="11" ry="11" style="stroke:#181818;stroke-width:1.0;"/><path d="M247.7656,393.875 Q247.9219,393.6563 248.1094,393.5469 Q248.2969,393.4375 248.5156,393.4375 Q248.8906,393.4375 249.125,393.6953 Q249.3594,393.9531 249.3594,394.5625 L249.3594,396.0156 Q249.3594,396.625 249.125,396.8906 Q248.8906,397.1563 248.5156,397.1563 Q248.1719,397.1563 247.9688,396.9531 Q247.7656,396.7656 247.6563,396.25 Q247.6094,395.8906 247.4219,395.7031 Q247.0938,395.3281 246.4844,395.1094 Q245.875,394.8906 245.25,394.8906 Q244.4844,394.8906 243.8516,395.2188 Q243.2188,395.5469 242.7266,396.2969 Q242.2344,397.0469 242.2344,398.0781 L242.2344,399.1719 Q242.2344,400.4063 243.125,401.2266 Q244.0156,402.0469 245.6094,402.0469 Q246.5469,402.0469 247.2031,401.7969 Q247.5938,401.6406 248.0156,401.2031 Q248.2813,400.9375 248.4297,400.8594 Q248.5781,400.7813 248.7813,400.7813 Q249.1094,400.7813 249.3672,401.0391 Q249.625,401.2969 249.625,401.6406 Q249.625,401.9844 249.2813,402.3906 Q248.7813,402.9688 247.9844,403.2969 Q246.9063,403.75 245.6094,403.75 Q244.0938,403.75 242.8906,403.125 Q241.9063,402.625 241.2188,401.5547 Q240.5313,400.4844 240.5313,399.2031 L240.5313,398.0469 Q240.5313,396.7188 241.1484,395.5703 Q241.7656,394.4219 242.8594,393.8047 Q243.9531,393.1875 245.1875,393.1875 Q245.9219,393.1875 246.5703,393.3516 Q247.2188,393.5156 247.7656,393.875 Z " fill="#000000"/><text fill="#000000" font-family="sans-serif" font-size="14" lengthAdjust="spacing" textLength="62" x="259" y="403.7285">Capability</text><line style="stroke:#181818;stroke-width:0.5;" x1="231" x2="323" y1="414" y2="414"/><text fill="#000000" font-family="sans-serif" font-size="14" lengthAdjust="spacing" textLength="74" x="236" y="432.5332">string name</text><line style="stroke:#181818;stroke-width:0.5;" x1="231" x2="323" y1="439.6094" y2="439.6094"/><text fill="#000000" font-family="sans-serif" font-size="14" lengthAdjust="spacing" textLength="40" x="236" y="458.1426">build()</text><text fill="#000000" font-family="sans-serif" font-size="14" lengthAdjust="spacing" textLength="50" x="236" y="475.752">create()</text><text fill="#000000" font-family="sans-serif" font-size="14" lengthAdjust="spacing" textLength="52" x="236" y="493.3613">deploy()</text><text fill="#000000" font-family="sans-serif" font-size="14" lengthAdjust="spacing" textLength="57" x="236" y="510.9707">release()</text><text fill="#000000" font-family="sans-serif" font-size="14" lengthAdjust="spacing" textLength="33" x="236" y="528.5801">test()</text></g><!--class i--><g id="elem_i"><rect codeLine="39" fill="#F1F1F1" height="188.875" id="i" rx="2.5" ry="2.5" style="stroke:#181818;stroke-width:0.5;" width="216" x="30" y="115"/><ellipse cx="72.45" cy="131" fill="#B4A7E5" rx="11" ry="11" style="stroke:#181818;stroke-width:1.0;"/><path d="M73.4031,127.6406 L73.4031,134.2969 L75.1219,134.2969 Q75.7313,134.2969 75.9969,134.5313 Q76.2625,134.7656 76.2625,135.1563 Q76.2625,135.5313 75.9969,135.7656 Q75.7313,136 75.1219,136 L69.9813,136 Q69.3719,136 69.1063,135.7656 Q68.8406,135.5313 68.8406,135.1406 Q68.8406,134.7656 69.1063,134.5313 Q69.3719,134.2969 69.9813,134.2969 L71.7,134.2969 L71.7,127.6406 L69.9813,127.6406 Q69.3719,127.6406 69.1063,127.4063 Q68.8406,127.1719 68.8406,126.7813 Q68.8406,126.4063 69.1063,126.1719 Q69.3719,125.9375 69.9813,125.9375 L75.1219,125.9375 Q75.7313,125.9375 75.9969,126.1719 Q76.2625,126.4063 76.2625,126.7813 Q76.2625,127.1719 75.9969,127.4063 Q75.7313,127.6406 75.1219,127.6406 L73.4031,127.6406 Z " fill="#000000"/><text fill="#000000" font-family="sans-serif" font-size="14" font-style="italic" lengthAdjust="spacing" textLength="123" x="92.55" y="136.7285">Capability Manager</text><line style="stroke:#181818;stroke-width:0.5;" x1="31" x2="245" y1="147" y2="147"/><line style="stroke:#181818;stroke-width:0.5;" x1="31" x2="245" y1="155" y2="155"/><text fill="#000000" font-family="sans-serif" font-size="14" lengthAdjust="spacing" textLength="187" x="36" y="173.5332">/sabr/aml/cm/capability/build()</text><text fill="#000000" font-family="sans-serif" font-size="14" lengthAdjust="spacing" textLength="197" x="36" y="191.1426">/sabr/aml/cm/capability/create()</text><text fill="#000000" font-family="sans-serif" font-size="14" lengthAdjust="spacing" textLength="199" x="36" y="208.752">/sabr/aml/cm/capability/deploy()</text><text fill="#000000" font-family="sans-serif" font-size="14" lengthAdjust="spacing" textLength="174" x="36" y="226.3613">/sabr/aml/cm/capability/list()</text><text fill="#000000" font-family="sans-serif" font-size="14" lengthAdjust="spacing" textLength="204" x="36" y="243.9707">/sabr/aml/cm/capability/release()</text><text fill="#000000" font-family="sans-serif" font-size="14" lengthAdjust="spacing" textLength="204" x="36" y="261.5801">/sabr/aml/cm/capability/remove()</text><text fill="#000000" font-family="sans-serif" font-size="14" lengthAdjust="spacing" textLength="180" x="36" y="279.1895">/sabr/aml/cm/capability/test()</text><text fill="#000000" font-family="sans-serif" font-size="14" lengthAdjust="spacing" textLength="201" x="36" y="296.7988">/sabr/aml/cm/capability/update()</text></g><!--class Provisioner--><g id="elem_Provisioner"><rect codeLine="32" fill="#F1F1F1" height="48" id="Provisioner" rx="2.5" ry="2.5" style="stroke:#181818;stroke-width:0.5;" width="103" x="766.5" y="435"/><ellipse cx="781.5" cy="451" fill="#ADD1B2" rx="11" ry="11" style="stroke:#181818;stroke-width:1.0;"/><path d="M784.2656,446.875 Q784.4219,446.6563 784.6094,446.5469 Q784.7969,446.4375 785.0156,446.4375 Q785.3906,446.4375 785.625,446.6953 Q785.8594,446.9531 785.8594,447.5625 L785.8594,449.0156 Q785.8594,449.625 785.625,449.8906 Q785.3906,450.1563 785.0156,450.1563 Q784.6719,450.1563 784.4688,449.9531 Q784.2656,449.7656 784.1563,449.25 Q784.1094,448.8906 783.9219,448.7031 Q783.5938,448.3281 782.9844,448.1094 Q782.375,447.8906 781.75,447.8906 Q780.9844,447.8906 780.3516,448.2188 Q779.7188,448.5469 779.2266,449.2969 Q778.7344,450.0469 778.7344,451.0781 L778.7344,452.1719 Q778.7344,453.4063 779.625,454.2266 Q780.5156,455.0469 782.1094,455.0469 Q783.0469,455.0469 783.7031,454.7969 Q784.0938,454.6406 784.5156,454.2031 Q784.7813,453.9375 784.9297,453.8594 Q785.0781,453.7813 785.2813,453.7813 Q785.6094,453.7813 785.8672,454.0391 Q786.125,454.2969 786.125,454.6406 Q786.125,454.9844 785.7813,455.3906 Q785.2813,455.9688 784.4844,456.2969 Q783.4063,456.75 782.1094,456.75 Q780.5938,456.75 779.3906,456.125 Q778.4063,455.625 777.7188,454.5547 Q777.0313,453.4844 777.0313,452.2031 L777.0313,451.0469 Q777.0313,449.7188 777.6484,448.5703 Q778.2656,447.4219 779.3594,446.8047 Q780.4531,446.1875 781.6875,446.1875 Q782.4219,446.1875 783.0703,446.3516 Q783.7188,446.5156 784.2656,446.875 Z " fill="#000000"/><text fill="#000000" font-family="sans-serif" font-size="14" lengthAdjust="spacing" textLength="71" x="795.5" y="456.7285">Provisioner</text><line style="stroke:#181818;stroke-width:0.5;" x1="767.5" x2="868.5" y1="467" y2="467"/><line style="stroke:#181818;stroke-width:0.5;" x1="767.5" x2="868.5" y1="475" y2="475"/></g><g id="elem_ilol14"><ellipse cx="93" cy="11" fill="#F1F1F1" rx="5" ry="5" style="stroke:#181818;stroke-width:1.5;"/></g><text fill="#000000" font-family="sans-serif" font-size="14" lengthAdjust="spacing" textLength="21" x="82.5" y="30.5332">CLI</text><g id="elem_ilol17"><ellipse cx="138" cy="11" fill="#F1F1F1" rx="5" ry="5" style="stroke:#181818;stroke-width:1.5;"/></g><text fill="#000000" font-family="sans-serif" font-size="14" lengthAdjust="spacing" textLength="37" x="119.5" y="30.5332">REST</text><g id="elem_ilol20"><ellipse cx="183" cy="11" fill="#F1F1F1" rx="5" ry="5" style="stroke:#181818;stroke-width:1.5;"/></g><text fill="#000000" font-family="sans-serif" font-size="14" lengthAdjust="spacing" textLength="29" x="168.5" y="30.5332">Web</text><!--link ilol14 to i--><g id="link_ilol14_i"><path d="M93.94,16.1 C96.98,29.36 106.88,72.61 116.53,114.76 " fill="none" id="ilol14-i" style="stroke:#181818;stroke-width:1.0;"/></g><!--link ilol17 to i--><g id="link_ilol17_i"><path d="M138,16.1 C138,29.36 138,72.61 138,114.76 " fill="none" id="ilol17-i" style="stroke:#181818;stroke-width:1.0;"/></g><!--link ilol20 to i--><g id="link_ilol20_i"><path d="M182.06,16.1 C179.02,29.36 169.12,72.61 159.47,114.76 " fill="none" id="ilol20-i" style="stroke:#181818;stroke-width:1.0;"/></g><!--link Capability to ChannelCreationPolicy--><g id="link_Capability_ChannelCreationPolicy"><path codeLine="65" d="M243.5765,547.4995 C225.8265,593.9495 210.8011,633.315 199.0011,664.205 " fill="none" id="Capability-ChannelCreationPolicy" style="stroke:#181818;stroke-width:1.0;"/><polygon fill="none" points="247.86,536.29,241.9818,540.4669,243.5765,547.4995,249.4547,543.3226,247.86,536.29" style="stroke:#181818;stroke-width:1.0;"/><polygon fill="#181818" points="196.86,669.81,203.8083,662.8299,198.6443,665.1392,196.335,659.9751,196.86,669.81" style="stroke:#181818;stroke-width:1.0;"/><text fill="#000000" font-family="sans-serif" font-size="13" lengthAdjust="spacing" textLength="44" x="228" y="598.4951">policies</text><text fill="#000000" font-family="sans-serif" font-size="13" lengthAdjust="spacing" textLength="7" x="191.2335" y="659.1015">n</text></g><!--link Capability to SABundle--><g id="link_Capability_SABundle"><path codeLine="66" d="M302.8751,547.1036 C312.6451,570.7936 321.87,584.25 341,602 C348.63,609.08 354.94,603.42 363,610 C382.53,625.93 394.1361,645.9592 402.4861,664.4992 " fill="none" id="Capability-SABundle" style="stroke:#181818;stroke-width:1.0;"/><polygon fill="none" points="298.3,536.01,296.8897,543.0818,302.8751,547.1036,304.2854,540.0318,298.3,536.01" style="stroke:#181818;stroke-width:1.0;"/><polygon fill="#181818" points="404.95,669.97,404.9013,660.1213,402.8967,665.411,397.607,663.4065,404.95,669.97" style="stroke:#181818;stroke-width:1.0;"/><text fill="#000000" font-family="sans-serif" font-size="13" lengthAdjust="spacing" textLength="45" x="342" y="598.4951">bundles</text><text fill="#000000" font-family="sans-serif" font-size="13" lengthAdjust="spacing" textLength="7" x="394.7341" y="659.3025">n</text></g><!--link Capability to CapabilityInstance--><g id="link_Capability_CapabilityInstance"><path codeLine="67" d="M304.6886,370.1354 C316.1786,333.6954 324.2876,307.9729 334.9076,274.2529 " fill="none" id="Capability-CapabilityInstance" style="stroke:#181818;stroke-width:1.0;"/><polygon fill="#181818" points="301.08,381.58,306.6992,377.0606,304.6886,370.1354,299.0695,374.6548,301.08,381.58" style="stroke:#181818;stroke-width:1.0;"/><polygon fill="#181818" points="336.71,268.53,330.1911,275.9127,335.208,273.2991,337.8217,278.3159,336.71,268.53" style="stroke:#181818;stroke-width:1.0;"/><text fill="#000000" font-family="sans-serif" font-size="13" lengthAdjust="spacing" textLength="56" x="317" y="348.4951">instances</text><text fill="#000000" font-family="sans-serif" font-size="13" lengthAdjust="spacing" textLength="7" x="326.9182" y="290.6078">n</text></g><!--link CapabilityInstance to Capability--><g id="link_CapabilityInstance_Capability"><path codeLine="77" d="M295.3354,278.2287 C280.9754,297.6487 274.46,310.68 267,334 C262.16,349.12 260.6689,359.7857 261.3689,375.8557 " fill="none" id="CapabilityInstance-Capability" style="stroke:#181818;stroke-width:1.0;"/><polygon fill="none" points="302.47,268.58,295.6865,271.0261,295.3354,278.2287,302.1189,275.7826,302.47,268.58" style="stroke:#181818;stroke-width:1.0;"/><polygon fill="#181818" points="261.63,381.85,265.2345,372.6845,261.4124,376.8547,257.2421,373.0326,261.63,381.85" style="stroke:#181818;stroke-width:1.0;"/><text fill="#000000" font-family="sans-serif" font-size="13" lengthAdjust="spacing" textLength="34" x="268" y="348.4951">owner</text><text fill="#000000" font-family="sans-serif" font-size="13" lengthAdjust="spacing" textLength="7" x="252.8315" y="371.2624">1</text></g><!--link CapabilityInstance to SABundleInstance--><g id="link_CapabilityInstance_SABundleInstance"><path codeLine="76" d="M370.4113,280.3013 C374.9413,300.9513 377.46,312.64 382,334 C404.84,441.43 372.35,483.78 432,576 C446,597.65 459,593.73 479,610 C502.56,629.16 523.631,648.4664 541.601,665.5464 " fill="none" id="CapabilityInstance-SABundleInstance" style="stroke:#181818;stroke-width:1.0;"/><polygon fill="none" points="367.84,268.58,365.2186,275.2977,370.4113,280.3013,373.0327,273.5835,367.84,268.58" style="stroke:#181818;stroke-width:1.0;"/><polygon fill="#181818" points="545.95,669.68,542.1823,660.5803,542.3259,666.2354,536.6708,666.3789,545.95,669.68" style="stroke:#181818;stroke-width:1.0;"/><text fill="#000000" font-family="sans-serif" font-size="13" lengthAdjust="spacing" textLength="45" x="433" y="464.4951">bundles</text><text fill="#000000" font-family="sans-serif" font-size="13" lengthAdjust="spacing" textLength="7" x="532.2347" y="659.34">n</text></g><!--link CapabilityInstance to Provisioner--><g id="link_CapabilityInstance_Provisioner"><path codeLine="78" d="M402.8038,278.0645 C413.8738,291.0245 418.97,294.56 433,304 C527.84,367.76 572.87,337.21 678,382 C713.75,397.23 747.2554,415.603 774.8754,431.813 " fill="none" id="CapabilityInstance-Provisioner" style="stroke:#181818;stroke-width:1.0;"/><polygon fill="none" points="395.01,268.94,395.8654,276.1002,402.8038,278.0645,401.9484,270.9043,395.01,268.94" style="stroke:#181818;stroke-width:1.0;"/><polygon fill="#181818" points="780.05,434.85,774.3127,426.8448,775.7378,432.3192,770.2634,433.7443,780.05,434.85" style="stroke:#181818;stroke-width:1.0;"/><text fill="#000000" font-family="sans-serif" font-size="13" lengthAdjust="spacing" textLength="61" x="561" y="348.4951">provisioner</text><text fill="#000000" font-family="sans-serif" font-size="13" lengthAdjust="spacing" textLength="7" x="762.4284" y="424.1517">1</text></g><!--link Capability Manager to Sentient Agent Bundle Manager--><g id="link_Capability Manager_Sentient Agent Bundle Manager"><path codeLine="85" d="M472.1337,213.8319 C472.282,213.8948 472.4322,213.9587 472.5842,214.0234 C477.4482,216.0944 484.1873,219.0704 492.2991,222.9264 C508.5225,230.6384 530.2363,241.8706 553.42,256.4238 C599.7875,285.53 652.035,327.92 678,382 C715.32,459.73 735.73,511.96 678,576 C665.77,589.57 364.67,597.89 351,610 C347.5688,613.0375 344.6898,616.5564 342.2798,620.3956 C341.6773,621.3554 341.1041,622.3352 340.5589,623.3325 C340.2863,623.8312 340.0207,624.3342 339.762,624.8413 C339.6326,625.0948 339.5049,625.3494 339.3789,625.6049 C339.3159,625.7327 341.8699,620.4613 341.8077,620.5895 " fill="none" id="Capability Manager-to-Sentient Agent Bundle Manager" style="stroke:#181818;stroke-width:1.0;"/><polygon fill="#181818" points="339.1912,625.989,346.7156,619.6342,341.3716,621.4894,339.5164,616.1455,339.1912,625.989" style="stroke:#181818;stroke-width:1.0;"/></g><!--link Capability Manager to Application Manager--><g id="link_Capability Manager_Application Manager"><path codeLine="87" d="M472.1825,219.015 C472.3581,219.2029 472.5361,219.3935 472.7164,219.587 C473.4377,220.3609 474.1964,221.1796 474.9897,222.0414 C481.3363,228.9359 489.8988,238.5881 499.235,250.0888 C517.9075,273.09 539.675,303.485 553,334 C566.89,365.8 572.5095,399.6143 575.2795,425.4143 " fill="none" id="Capability Manager-to-Application Manager" style="stroke:#181818;stroke-width:1.0;"/><polygon fill="#181818" points="575.92,431.38,578.9364,422.0044,575.3862,426.4086,570.9821,422.8584,575.92,431.38" style="stroke:#181818;stroke-width:1.0;"/></g><!--SRC=[fLLHIyCm47xlhmZrnGcZ-ZRs8CpfWw0eLl3vbbstO9gM99iCsNytgLkMhMcDUj1o9TzTljntkTP0ts619CrHQ6OUCbdOzyrAp3cIHn1cLQRah2We7Ot8PqACDIzhb8DI99_iu9zkOTk7knTAWw1j_3P9wZsXILrpHa6pIdWqBYy1Yc8NwCDlGGF9jKGe8rbFbo04yga9iPiyLsQxJI-bATGmOvpfJHUZqorSGEUHEoDwcUGerynaUv9qYKfBq9NbOfa0XBayoshDb3aeob3gs5CsU2OqoW9e1neKOTuUrZ85Cvb1oJDQPjJ5PBCLu_FpGHIMMgKm4Zp7cbURI31dIaT29N84XT7eibh7WZL6irZLyqCfTX8Q4QSFz-HyC1mIbhpSvQzx_mrdU_StpNpe7G-SdWZRcEb09XP4G8djHTz2SZiBwkiiAAYpi2pE0gNTjf1UHQhXy9ga8kqO4cDIMuUXwZnkA9cRasDJ2Ej4XLyuBkrfCZPNyTizJdNeYvQ0-zZ_2TclnZlZl6ljg7LZn727RTNHAqDyFK_INVbrDOcg3pCW_vJ67x2cGGvV0MNiPMsyu3LiClR_a7-A3lqza-GB]--></g></svg>