<?xml version="1.0" encoding="us-ascii" standalone="no"?><svg xmlns="http://www.w3.org/2000/svg" xmlns:xlink="http://www.w3.org/1999/xlink" contentStyleType="text/css" height="1418px" preserveAspectRatio="none" style="width:732px;height:1418px;background:#FFFFFF;" version="1.1" viewBox="0 0 732 1418" width="732px" zoomAndPan="magnify"><defs/><g><!--cluster sabr--><g id="cluster_sabr"><path d="M8.5,6 L40.5,6 A3.75,3.75 0 0 1 43,8.5 L50,29.6094 L352.5,29.6094 A2.5,2.5 0 0 1 355,32.1094 L355,916.5 A2.5,2.5 0 0 1 352.5,919 L8.5,919 A2.5,2.5 0 0 1 6,916.5 L6,8.5 A2.5,2.5 0 0 1 8.5,6 " fill="none" style="stroke:#000000;stroke-width:1.5;"/><line style="stroke:#000000;stroke-width:1.5;" x1="6" x2="50" y1="29.6094" y2="29.6094"/><text fill="#000000" font-family="sans-serif" font-size="14" font-weight="bold" lengthAdjust="spacing" textLength="31" x="10" y="22.5332">sabr</text></g><!--cluster sabraml--><g id="cluster_sabraml"><path d="M32.5,50 L57.5,50 A3.75,3.75 0 0 1 60,52.5 L67,73.6094 L328.5,73.6094 A2.5,2.5 0 0 1 331,76.1094 L331,892.5 A2.5,2.5 0 0 1 328.5,895 L32.5,895 A2.5,2.5 0 0 1 30,892.5 L30,52.5 A2.5,2.5 0 0 1 32.5,50 " fill="none" style="stroke:#000000;stroke-width:1.5;"/><line style="stroke:#000000;stroke-width:1.5;" x1="30" x2="67" y1="73.6094" y2="73.6094"/><text fill="#000000" font-family="sans-serif" font-size="14" font-weight="bold" lengthAdjust="spacing" textLength="24" x="34" y="66.5332">aml</text></g><!--cluster sabramlcm--><g id="cluster_sabramlcm"><path d="M56.5,94 L77.5,94 A3.75,3.75 0 0 1 80,96.5 L87,117.6094 L304.5,117.6094 A2.5,2.5 0 0 1 307,120.1094 L307,868.5 A2.5,2.5 0 0 1 304.5,871 L56.5,871 A2.5,2.5 0 0 1 54,868.5 L54,96.5 A2.5,2.5 0 0 1 56.5,94 " fill="#00AAFF" style="stroke:#000000;stroke-width:1.5;"/><line style="stroke:#000000;stroke-width:1.5;" x1="54" x2="87" y1="117.6094" y2="117.6094"/><text fill="#000000" font-family="sans-serif" font-size="14" font-weight="bold" lengthAdjust="spacing" textLength="20" x="58" y="110.5332">cm</text></g><!--cluster DeployCapability--><g id="cluster_DeployCapability"><rect fill="#FFFFAA" height="100" rx="2.5" ry="2.5" style="stroke:#181818;stroke-width:1.0;" width="246" x="429.5" y="447"/><text fill="#000000" font-family="sans-serif" font-size="14" font-weight="bold" lengthAdjust="spacing" textLength="120" x="492.5" y="463.5332">Deploy Capability</text></g><!--cluster DevelopCapability--><g id="cluster_DevelopCapability"><rect fill="#FFFFAA" height="306" rx="2.5" ry="2.5" style="stroke:#181818;stroke-width:1.0;" width="203" x="451" y="117"/><text fill="#000000" font-family="sans-serif" font-size="14" font-weight="bold" lengthAdjust="spacing" textLength="131" x="487" y="133.5332">Develop Capability</text></g><!--cluster UpdateCapability--><g id="cluster_UpdateCapability"><rect fill="#FFFFAA" height="841" rx="2.5" ry="2.5" style="stroke:#181818;stroke-width:1.0;" width="347" x="379" y="571"/><text fill="#000000" font-family="sans-serif" font-size="14" font-weight="bold" lengthAdjust="spacing" textLength="122" x="491.5" y="587.5332">Update Capability</text></g><!--entity sabramlcmcapability--><g id="elem_sabramlcmcapability"><rect fill="#F1F1F1" height="47.6094" rx="2.5" ry="2.5" style="stroke:#181818;stroke-width:0.5;" width="99" x="70" y="469"/><rect fill="#F1F1F1" height="10" style="stroke:#181818;stroke-width:0.5;" width="15" x="149" y="474"/><rect fill="#F1F1F1" height="2" style="stroke:#181818;stroke-width:0.5;" width="4" x="147" y="476"/><rect fill="#F1F1F1" height="2" style="stroke:#181818;stroke-width:0.5;" width="4" x="147" y="480"/><text fill="#000000" font-family="sans-serif" font-size="14" lengthAdjust="spacing" textLength="59" x="85" y="503.5332">capability</text></g><!--entity sabramlcmcapabilitybuild--><g id="elem_sabramlcmcapabilitybuild"><ellipse cx="260" cy="635" fill="#F1F1F1" rx="8" ry="8" style="stroke:#181818;stroke-width:0.5;"/><text fill="#000000" font-family="sans-serif" font-size="14" lengthAdjust="spacing" textLength="30" x="245" y="666.5332">build</text></g><!--entity sabramlcmcapabilitycreate--><g id="elem_sabramlcmcapabilitycreate"><ellipse cx="260" cy="445" fill="#F1F1F1" rx="8" ry="8" style="stroke:#181818;stroke-width:0.5;"/><text fill="#000000" font-family="sans-serif" font-size="14" lengthAdjust="spacing" textLength="40" x="240" y="476.5332">create</text></g><!--entity sabramlcmcapabilitydeploy--><g id="elem_sabramlcmcapabilitydeploy"><ellipse cx="260" cy="730" fill="#F1F1F1" rx="8" ry="8" style="stroke:#181818;stroke-width:0.5;"/><text fill="#000000" font-family="sans-serif" font-size="14" lengthAdjust="spacing" textLength="42" x="239" y="761.5332">deploy</text></g><!--entity sabramlcmcapabilitylist--><g id="elem_sabramlcmcapabilitylist"><ellipse cx="260" cy="540" fill="#F1F1F1" rx="8" ry="8" style="stroke:#181818;stroke-width:0.5;"/><text fill="#000000" font-family="sans-serif" font-size="14" lengthAdjust="spacing" textLength="17" x="251.5" y="571.5332">list</text></g><!--entity sabramlcmcapabilityrelease--><g id="elem_sabramlcmcapabilityrelease"><ellipse cx="260" cy="255" fill="#F1F1F1" rx="8" ry="8" style="stroke:#181818;stroke-width:0.5;"/><text fill="#000000" font-family="sans-serif" font-size="14" lengthAdjust="spacing" textLength="47" x="236.5" y="286.5332">release</text></g><!--entity sabramlcmcapabilityremove--><g id="elem_sabramlcmcapabilityremove"><ellipse cx="260" cy="350" fill="#F1F1F1" rx="8" ry="8" style="stroke:#181818;stroke-width:0.5;"/><text fill="#000000" font-family="sans-serif" font-size="14" lengthAdjust="spacing" textLength="47" x="236.5" y="381.5332">remove</text></g><!--entity sabramlcmcapabilitytest--><g id="elem_sabramlcmcapabilitytest"><ellipse cx="260" cy="160" fill="#F1F1F1" rx="8" ry="8" style="stroke:#181818;stroke-width:0.5;"/><text fill="#000000" font-family="sans-serif" font-size="14" lengthAdjust="spacing" textLength="23" x="248.5" y="191.5332">test</text></g><!--entity sabramlcmcapabilityupdate--><g id="elem_sabramlcmcapabilityupdate"><ellipse cx="260" cy="825" fill="#F1F1F1" rx="8" ry="8" style="stroke:#181818;stroke-width:0.5;"/><text fill="#000000" font-family="sans-serif" font-size="14" lengthAdjust="spacing" textLength="44" x="238" y="856.5332">update</text></g><g id="elem_DevOpsEngineerDeployCapabilityDeployCapabilityRelease"><ellipse cx="552.2982" cy="506.7596" fill="#F1F1F1" rx="106.7982" ry="23.7596" style="stroke:#181818;stroke-width:0.5;"/><text fill="#000000" font-family="sans-serif" font-size="14" lengthAdjust="spacing" textLength="176" x="464.2982" y="510.4882">"Deploy Capability Release"</text></g><line style="stroke:#181818;stroke-width:0.5;" x1="650.5841" x2="625.8819" y1="498.477" y2="523.1793"/><g id="elem_DevOpsEngineerDevelopCapabilityBuildCapability"><ellipse cx="552.6203" cy="388.8241" fill="#F1F1F1" rx="77.1203" ry="17.8241" style="stroke:#181818;stroke-width:0.5;"/><text fill="#000000" font-family="sans-serif" font-size="14" lengthAdjust="spacing" textLength="107" x="496.7783" y="393.1856">"Build Capability"</text></g><line style="stroke:#181818;stroke-width:0.5;" x1="623.5937" x2="604.8593" y1="382.6106" y2="401.345"/><g id="elem_DevOpsEngineerDevelopCapabilityCreateCapability"><ellipse cx="552.4202" cy="316.784" fill="#F1F1F1" rx="81.9202" ry="18.784" style="stroke:#181818;stroke-width:0.5;"/><text fill="#000000" font-family="sans-serif" font-size="14" lengthAdjust="spacing" textLength="119" x="492.7512" y="320.5629">"Create Capability"</text></g><line style="stroke:#181818;stroke-width:0.5;" x1="627.8111" x2="608.1124" y1="310.2359" y2="329.9346"/><g id="elem_DevOpsEngineerDevelopCapabilityReleaseCapability"><ellipse cx="552.6926" cy="243.0385" fill="#F1F1F1" rx="85.6926" ry="19.5385" style="stroke:#181818;stroke-width:0.5;"/><text fill="#000000" font-family="sans-serif" font-size="14" lengthAdjust="spacing" textLength="128" x="488.6926" y="246.767">"Release Capability"</text></g><line style="stroke:#181818;stroke-width:0.5;" x1="631.5551" x2="611.0983" y1="236.2274" y2="256.6842"/><g id="elem_DevOpsEngineerDevelopCapabilityTestCapability"><ellipse cx="552.4763" cy="171.0953" fill="#F1F1F1" rx="75.9763" ry="17.5953" style="stroke:#181818;stroke-width:0.5;"/><text fill="#000000" font-family="sans-serif" font-size="14" lengthAdjust="spacing" textLength="104" x="497.5467" y="175.5957">"Test Capability"</text></g><line style="stroke:#181818;stroke-width:0.5;" x1="622.397" x2="603.8923" y1="164.9616" y2="183.4663"/><g id="elem_DevOpsEngineerUpdateCapabilityAddaSABRtotheCapability"><ellipse cx="552.5137" cy="632.9027" fill="#F1F1F1" rx="115.0137" ry="25.4027" style="stroke:#181818;stroke-width:0.5;"/><text fill="#000000" font-family="sans-serif" font-size="14" lengthAdjust="spacing" textLength="194" x="455.5137" y="636.6313">"Add a SABR to the Capability"</text></g><line style="stroke:#181818;stroke-width:0.5;" x1="658.3603" x2="632.0042" y1="624.0473" y2="650.4034"/><g id="elem_ApplicationDeveloperUpdateCapabilityAddSABRstotheCapability"><ellipse cx="552.7192" cy="718.9438" fill="#F1F1F1" rx="112.7192" ry="24.9438" style="stroke:#181818;stroke-width:0.5;"/><text fill="#000000" font-family="sans-serif" font-size="14" lengthAdjust="spacing" textLength="189" x="458.2192" y="722.6724">"Add SABRs to the Capability"</text></g><line style="stroke:#181818;stroke-width:0.5;" x1="656.4543" x2="630.5601" y1="710.2484" y2="736.1426"/><g id="elem_DevOpsEngineerUpdateCapabilityAddSABRstotheCapability"><ellipse cx="552.7192" cy="803.9438" fill="#F1F1F1" rx="112.7192" ry="24.9438" style="stroke:#181818;stroke-width:0.5;"/><text fill="#000000" font-family="sans-serif" font-size="14" lengthAdjust="spacing" textLength="189" x="458.2192" y="807.6724">"Add SABRs to the Capability"</text></g><line style="stroke:#181818;stroke-width:0.5;" x1="656.4543" x2="630.5601" y1="795.2484" y2="821.1426"/><g id="elem_DevOpsEngineerUpdateCapabilityRemoveaSABRfromtheCapability"><ellipse cx="552.5542" cy="893.9108" fill="#F1F1F1" rx="135.0542" ry="29.4108" style="stroke:#181818;stroke-width:0.5;"/><text fill="#000000" font-family="sans-serif" font-size="14" lengthAdjust="spacing" textLength="237" x="434.0542" y="897.6394">"Remove a SABR from the Capability"</text></g><line style="stroke:#181818;stroke-width:0.5;" x1="676.844" x2="646.4516" y1="883.6582" y2="914.0507"/><g id="elem_ApplicationDeveloperUpdateCapabilityRemoveaSABRfromtheCapability"><ellipse cx="552.5542" cy="987.9108" fill="#F1F1F1" rx="135.0542" ry="29.4108" style="stroke:#181818;stroke-width:0.5;"/><text fill="#000000" font-family="sans-serif" font-size="14" lengthAdjust="spacing" textLength="237" x="434.0542" y="991.6394">"Remove a SABR from the Capability"</text></g><line style="stroke:#181818;stroke-width:0.5;" x1="676.844" x2="646.4516" y1="977.6582" y2="1008.0507"/><g id="elem_DevOpsEngineerUpdateCapabilityRemovemultipleSABRsfromtheCapability"><ellipse cx="552.4088" cy="1086.8818" fill="#F1F1F1" rx="157.4088" ry="33.8818" style="stroke:#181818;stroke-width:0.5;"/><text fill="#000000" font-family="sans-serif" font-size="14" lengthAdjust="spacing" textLength="284" x="410.4088" y="1090.6103">"Remove multiple SABRs from the Capability"</text></g><line style="stroke:#181818;stroke-width:0.5;" x1="697.2714" x2="662.3743" y1="1075.0706" y2="1109.9677"/><g id="elem_DevOpsEngineerUpdateCapabilityUpdateConfigurationoftheCapability"><ellipse cx="552.6994" cy="1187.1399" fill="#F1F1F1" rx="141.1994" ry="30.6399" style="stroke:#181818;stroke-width:0.5;"/><text fill="#000000" font-family="sans-serif" font-size="14" lengthAdjust="spacing" textLength="250" x="427.6994" y="1190.8684">"Update Configuration of the Capability"</text></g><line style="stroke:#181818;stroke-width:0.5;" x1="682.6445" x2="651.014" y1="1176.4588" y2="1208.0894"/><g id="elem_DevOpsEngineerUpdateCapabilityUpdatePoliciesoftheCapability"><ellipse cx="552.3069" cy="1280.1614" fill="#F1F1F1" rx="123.8069" ry="27.1614" style="stroke:#181818;stroke-width:0.5;"/><text fill="#000000" font-family="sans-serif" font-size="14" lengthAdjust="spacing" textLength="213" x="445.8069" y="1283.8899">"Update Policies of the Capability"</text></g><line style="stroke:#181818;stroke-width:0.5;" x1="666.2459" x2="638.1191" y1="1270.6929" y2="1298.8198"/><g id="elem_DevOpsEngineerUpdateCapabilityUpdateSABRsoftheCapability"><ellipse cx="552.4467" cy="1368.7893" fill="#F1F1F1" rx="121.9467" ry="26.7893" style="stroke:#181818;stroke-width:0.5;"/><text fill="#000000" font-family="sans-serif" font-size="14" lengthAdjust="spacing" textLength="209" x="447.9467" y="1372.5179">"Update SABRs of the Capability"</text></g><line style="stroke:#181818;stroke-width:0.5;" x1="664.6737" x2="636.9215" y1="1359.4506" y2="1387.2028"/><!--link sabramlcmcapability to sabramlcmcapabilitybuild--><g id="link_sabramlcmcapability_sabramlcmcapabilitybuild"><path d="M143.99,517.09 C175.64,549.53 230.35,605.63 250.89,626.69 " fill="none" id="sabramlcmcapability-sabramlcmcapabilitybuild" style="stroke:#181818;stroke-width:1.0;"/></g><!--link sabramlcmcapability to sabramlcmcapabilitycreate--><g id="link_sabramlcmcapability_sabramlcmcapabilitycreate"><path d="M169.33,476.08 C199.24,465.71 234.72,453.41 250.6,447.91 " fill="none" id="sabramlcmcapability-sabramlcmcapabilitycreate" style="stroke:#181818;stroke-width:1.0;"/></g><!--link sabramlcmcapability to sabramlcmcapabilitydeploy--><g id="link_sabramlcmcapability_sabramlcmcapabilitydeploy"><path d="M133.92,517.04 C154.14,553.1 193.8,623.26 229,682 C237.18,695.66 247.02,711.25 253.15,720.86 " fill="none" id="sabramlcmcapability-sabramlcmcapabilitydeploy" style="stroke:#181818;stroke-width:1.0;"/></g><!--link sabramlcmcapability to sabramlcmcapabilitylist--><g id="link_sabramlcmcapability_sabramlcmcapabilitylist"><path d="M169.33,509.57 C199.24,519.72 234.72,531.76 250.6,537.15 " fill="none" id="sabramlcmcapability-sabramlcmcapabilitylist" style="stroke:#181818;stroke-width:1.0;"/></g><!--link sabramlcmcapability to sabramlcmcapabilityrelease--><g id="link_sabramlcmcapability_sabramlcmcapabilityrelease"><path d="M133.64,468.95 C153.67,432.51 193.27,361.28 229,302 C236.99,288.73 246.71,273.69 252.88,264.27 " fill="none" id="sabramlcmcapability-sabramlcmcapabilityrelease" style="stroke:#181818;stroke-width:1.0;"/></g><!--link sabramlcmcapability to sabramlcmcapabilityremove--><g id="link_sabramlcmcapability_sabramlcmcapabilityremove"><path d="M143.99,468.74 C175.64,436.07 230.35,379.58 250.89,358.37 " fill="none" id="sabramlcmcapability-sabramlcmcapabilityremove" style="stroke:#181818;stroke-width:1.0;"/></g><!--link sabramlcmcapability to sabramlcmcapabilitytest--><g id="link_sabramlcmcapability_sabramlcmcapabilitytest"><path d="M127.77,468.95 C143.31,418.85 182.17,300.26 229,207 C235.95,193.16 245.93,178.26 252.44,169.03 " fill="none" id="sabramlcmcapability-sabramlcmcapabilitytest" style="stroke:#181818;stroke-width:1.0;"/></g><!--link sabramlcmcapability to sabramlcmcapabilityupdate--><g id="link_sabramlcmcapability_sabramlcmcapabilityupdate"><path d="M127.99,517.23 C143.79,567.11 182.91,684.38 229,777 C236.01,791.08 245.97,806.31 252.46,815.75 " fill="none" id="sabramlcmcapability-sabramlcmcapabilityupdate" style="stroke:#181818;stroke-width:1.0;"/></g><!--reverse link sabramlcmcapabilitydeploy to DevOpsEngineerDeployCapabilityDeployCapabilityRelease--><g id="link_sabramlcmcapabilitydeploy_DevOpsEngineerDeployCapabilityDeployCapabilityRelease"><path d="M275.0164,727.983 C294.8764,724.843 340.15,714.74 363,682 C386.24,648.71 347.69,624.24 371,591 C395.21,556.47 437.34,535.78 474.81,523.57 " fill="none" id="sabramlcmcapabilitydeploy-backto-DevOpsEngineerDeployCapabilityDeployCapabilityRelease" style="stroke:#181818;stroke-width:1.0;"/><polygon fill="#181818" points="269.09,728.92,278.6042,731.4654,274.0287,728.1392,277.3549,723.5636,269.09,728.92" style="stroke:#181818;stroke-width:1.0;"/></g><!--reverse link sabramlcmcapabilitybuild to DevOpsEngineerDevelopCapabilityBuildCapability--><g id="link_sabramlcmcapabilitybuild_DevOpsEngineerDevelopCapabilityBuildCapability"><path d="M275.0603,633.0379 C295.0203,629.9679 340.5,619.98 363,587 C378.06,564.92 355.59,488.83 371,467 C397.97,428.79 447.77,409.14 488.24,399.13 " fill="none" id="sabramlcmcapabilitybuild-backto-DevOpsEngineerDevelopCapabilityBuildCapability" style="stroke:#181818;stroke-width:1.0;"/><polygon fill="#181818" points="269.13,633.95,278.6335,636.5353,274.0719,633.1899,277.4173,628.6283,269.13,633.95" style="stroke:#181818;stroke-width:1.0;"/></g><!--reverse link sabramlcmcapabilitycreate to DevOpsEngineerDevelopCapabilityCreateCapability--><g id="link_sabramlcmcapabilitycreate_DevOpsEngineerDevelopCapabilityCreateCapability"><path d="M275.0965,442.6749 C294.7465,439.1649 338.79,428.5 363,397 C375.11,381.24 357.07,367.17 371,353 C396.87,326.68 436.14,316.78 471.45,313.85 " fill="none" id="sabramlcmcapabilitycreate-backto-DevOpsEngineerDevelopCapabilityCreateCapability" style="stroke:#181818;stroke-width:1.0;"/><polygon fill="#181818" points="269.19,443.73,278.7531,446.0851,274.1121,442.8508,277.3464,438.2097,269.19,443.73" style="stroke:#181818;stroke-width:1.0;"/></g><!--reverse link sabramlcmcapabilityrelease to DevOpsEngineerDevelopCapabilityReleaseCapability--><g id="link_sabramlcmcapabilityrelease_DevOpsEngineerDevelopCapabilityReleaseCapability"><path d="M275.0649,254.4218 C303.5649,253.2418 395.65,249.44 468.27,246.44 " fill="none" id="sabramlcmcapabilityrelease-backto-DevOpsEngineerDevelopCapabilityReleaseCapability" style="stroke:#181818;stroke-width:1.0;"/><polygon fill="#181818" points="269.07,254.67,278.2278,258.2943,274.0657,254.4632,277.8968,250.3011,269.07,254.67" style="stroke:#181818;stroke-width:1.0;"/></g><!--reverse link sabramlcmcapabilitytest to DevOpsEngineerDevelopCapabilityTestCapability--><g id="link_sabramlcmcapabilitytest_DevOpsEngineerDevelopCapabilityTestCapability"><path d="M275.0657,160.5362 C304.7557,161.6562 403.98,165.41 477.24,168.19 " fill="none" id="sabramlcmcapabilitytest-backto-DevOpsEngineerDevelopCapabilityTestCapability" style="stroke:#181818;stroke-width:1.0;"/><polygon fill="#181818" points="269.07,160.31,277.9128,164.6464,274.0664,160.4985,278.2144,156.6521,269.07,160.31" style="stroke:#181818;stroke-width:1.0;"/></g><!--reverse link sabramlcmcapabilityupdate to DevOpsEngineerUpdateCapabilityAddaSABRtotheCapability--><g id="link_sabramlcmcapabilityupdate_DevOpsEngineerUpdateCapabilityAddaSABRtotheCapability"><path d="M275.038,823.0031 C294.928,819.8931 340.29,809.84 363,777 C375.81,758.48 356.36,693.1 371,676 C388.28,655.81 413.17,644.17 438.97,637.66 " fill="none" id="sabramlcmcapabilityupdate-backto-DevOpsEngineerUpdateCapabilityAddaSABRtotheCapability" style="stroke:#181818;stroke-width:1.0;"/><polygon fill="#181818" points="269.11,823.93,278.6199,826.4916,274.05,823.1576,277.384,818.5877,269.11,823.93" style="stroke:#181818;stroke-width:1.0;"/></g><!--reverse link sabramlcmcapabilityupdate to ApplicationDeveloperUpdateCapabilityAddSABRstotheCapability--><g id="link_sabramlcmcapabilityupdate_ApplicationDeveloperUpdateCapabilityAddSABRstotheCapability"><path d="M275.0207,821.6541 C293.8507,816.9441 334.85,804.48 363,777 C368.69,771.45 364.76,765.92 371,761 C392.47,744.06 419.58,733.74 446.22,727.51 " fill="none" id="sabramlcmcapabilityupdate-backto-ApplicationDeveloperUpdateCapabilityAddSABRstotheCapability" style="stroke:#181818;stroke-width:1.0;"/><polygon fill="#181818" points="269.2,823.11,278.9016,824.8065,274.0506,821.8967,276.9604,817.0456,269.2,823.11" style="stroke:#181818;stroke-width:1.0;"/></g><!--reverse link sabramlcmcapabilityupdate to DevOpsEngineerUpdateCapabilityAddSABRstotheCapability--><g id="link_sabramlcmcapabilityupdate_DevOpsEngineerUpdateCapabilityAddSABRstotheCapability"><path d="M275.0544,823.987 C300.6244,822.137 376.21,816.67 445.15,811.69 " fill="none" id="sabramlcmcapabilityupdate-backto-DevOpsEngineerUpdateCapabilityAddSABRstotheCapability" style="stroke:#181818;stroke-width:1.0;"/><polygon fill="#181818" points="269.07,824.42,278.3352,827.7601,274.057,824.0592,277.7579,819.781,269.07,824.42" style="stroke:#181818;stroke-width:1.0;"/></g><!--reverse link sabramlcmcapabilityupdate to DevOpsEngineerUpdateCapabilityRemoveaSABRfromtheCapability--><g id="link_sabramlcmcapabilityupdate_DevOpsEngineerUpdateCapabilityRemoveaSABRfromtheCapability"><path d="M274.9076,828.3067 C302.3976,834.8367 388.8,855.36 460.47,872.38 " fill="none" id="sabramlcmcapabilityupdate-backto-DevOpsEngineerUpdateCapabilityRemoveaSABRfromtheCapability" style="stroke:#181818;stroke-width:1.0;"/><polygon fill="#181818" points="269.07,826.92,276.9019,832.8917,273.9346,828.0756,278.7508,825.1083,269.07,826.92" style="stroke:#181818;stroke-width:1.0;"/></g><!--reverse link sabramlcmcapabilityupdate to ApplicationDeveloperUpdateCapabilityRemoveaSABRfromtheCapability--><g id="link_sabramlcmcapabilityupdate_ApplicationDeveloperUpdateCapabilityRemoveaSABRfromtheCapability"><path d="M270.2944,839.1515 C285.0844,861.1815 322.48,912.36 371,941 C393.03,954.01 418.65,963.46 443.55,970.32 " fill="none" id="sabramlcmcapabilityupdate-backto-ApplicationDeveloperUpdateCapabilityRemoveaSABRfromtheCapability" style="stroke:#181818;stroke-width:1.0;"/><polygon fill="#181818" points="266.95,834.17,268.6455,843.8718,269.737,838.3212,275.2875,839.4127,266.95,834.17" style="stroke:#181818;stroke-width:1.0;"/></g><!--reverse link sabramlcmcapabilityupdate to DevOpsEngineerUpdateCapabilityRemovemultipleSABRsfromtheCapability--><g id="link_sabramlcmcapabilityupdate_DevOpsEngineerUpdateCapabilityRemovemultipleSABRsfromtheCapability"><path d="M264.4555,840.0455 C272.2755,872.7455 301.8,978.54 371,1035 C387.68,1048.61 407.75,1058.65 428.36,1066.07 " fill="none" id="sabramlcmcapabilityupdate-backto-DevOpsEngineerUpdateCapabilityRemovemultipleSABRsfromtheCapability" style="stroke:#181818;stroke-width:1.0;"/><polygon fill="#181818" points="263.06,834.21,261.263,843.8935,264.2229,839.0729,269.0436,842.0328,263.06,834.21" style="stroke:#181818;stroke-width:1.0;"/></g><!--reverse link sabramlcmcapabilityupdate to DevOpsEngineerUpdateCapabilityUpdateConfigurationoftheCapability--><g id="link_sabramlcmcapabilityupdate_DevOpsEngineerUpdateCapabilityUpdateConfigurationoftheCapability"><path d="M261.5424,840.0443 C263.3624,881.6143 276.29,1049.96 371,1138 C387.65,1153.48 408.69,1164.15 430.47,1171.5 " fill="none" id="sabramlcmcapabilityupdate-backto-DevOpsEngineerUpdateCapabilityUpdateConfigurationoftheCapability" style="stroke:#181818;stroke-width:1.0;"/><polygon fill="#181818" points="261.28,834.05,257.6775,843.2163,261.4987,839.0452,265.6698,842.8664,261.28,834.05" style="stroke:#181818;stroke-width:1.0;"/></g><!--reverse link sabramlcmcapabilityupdate to DevOpsEngineerUpdateCapabilityUpdatePoliciesoftheCapability--><g id="link_sabramlcmcapabilityupdate_DevOpsEngineerUpdateCapabilityUpdatePoliciesoftheCapability"><path d="M262.9943,840.2072 C270.3743,895.4672 310.28,1175.35 371,1235 C388.74,1252.43 412.14,1263.44 436.19,1270.33 " fill="none" id="sabramlcmcapabilityupdate-backto-DevOpsEngineerUpdateCapabilityUpdatePoliciesoftheCapability" style="stroke:#181818;stroke-width:1.0;"/><polygon fill="#181818" points="262.2,834.26,259.4266,843.7103,262.8619,839.216,267.3562,842.6513,262.2,834.26" style="stroke:#181818;stroke-width:1.0;"/></g><!--reverse link sabramlcmcapabilityupdate to DevOpsEngineerUpdateCapabilityUpdateSABRsoftheCapability--><g id="link_sabramlcmcapabilityupdate_DevOpsEngineerUpdateCapabilityUpdateSABRsoftheCapability"><path d="M262.2048,840.1704 C267.2148,901.9704 298.46,1250.8 371,1325 C388.48,1342.87 411.91,1353.96 436.1,1360.73 " fill="none" id="sabramlcmcapabilityupdate-backto-DevOpsEngineerUpdateCapabilityUpdateSABRsoftheCapability" style="stroke:#181818;stroke-width:1.0;"/><polygon fill="#181818" points="261.72,834.19,258.4603,843.4838,262.124,839.1737,266.4341,842.8374,261.72,834.19" style="stroke:#181818;stroke-width:1.0;"/></g><!--SRC=[rPVBSjiW58RtUeepoQPTP9e7wCPnksx7RHy0Iw0mHO91s3ETJjwzt6GhYh31Caw5DnRdfl_J0I66YGB5GTBwMK559IuLvMrH5A27GELlL6Euwz1MtW7gmFo1lyN1W1fscDV_XwQo6LhA1kuV7n4YHFj0oHl1MzmgxOO4sb96rP_NxiVv0cYhi2Ier5ctEyggaASr5XC6U7W8-x_OdnNylwek9KOAXroTDK6t3rY0y0eBneEkpfeWt0SiG3YZdGev6bk2QEk-0CaICuowO9TxSuBmFc8HsXk-Fo7TM9EKsu0525SutEV6bY3QkYz0yavK9pPpPqsGxGE6mlthsmppGaTjpNJTBtRpW_NhktMpnqcu9teWP3GEneUtuR3n2_RZ9vTe_qrqNzkQjXZBSThnjOyzr7WvFhBWlWsVDO7BomIWx37ZuYqLEns1vScS8ORXqpH6wMpKUj0VKHZiUMMIGaJwBEhNzYIHBD-59UjtvvOO09C5iX3m7PQCmCSbC_0ljHW8qoMoKFYfzzva12OeMR_PvMF4JoIVtXP_sVrpBDtDHYXVLHKW-B5wsfZlAFLyjXF6cNK2PC8Lry79EDpkFm4afKmcBAPS5wIo4eBH4fdFJV_m9c_Q9fdDPcwnTo5qze5UXytbPJ9GsTYJQx-YYEJD9MnS5jll9aLMG6ThlIEbcBQ_BgkhLCn7hDanHONEvrRUlFxgazbSD-gpY9ePwFNXl2MqtadxU86JIz3vws4cJhA2YwoO3zjthfS4nTqiOdsIcy0wLImV9xScvq2o6Mv2A5YfwCS_]--></g></svg>