<?xml version="1.0" encoding="UTF-8" standalone="no"?><svg xmlns="http://www.w3.org/2000/svg" xmlns:xlink="http://www.w3.org/1999/xlink" contentScriptType="application/ecmascript" contentStyleType="text/css" height="475px" preserveAspectRatio="none" style="width:879px;height:475px;" version="1.1" viewBox="0 0 879 475" width="879px" zoomAndPan="magnify"><defs><filter height="300%" id="f15vhkgdpm2feo" width="300%" x="-1" y="-1"><feGaussianBlur result="blurOut" stdDeviation="2.0"/><feColorMatrix in="blurOut" result="blurOut2" type="matrix" values="0 0 0 0 0 0 0 0 0 0 0 0 0 0 0 0 0 0 .4 0"/><feOffset dx="4.0" dy="4.0" in="blurOut2" result="blurOut3"/><feBlend in="SourceGraphic" in2="blurOut3" mode="normal"/></filter></defs><g><!--cluster Capability Manager--><polygon fill="#00AAFF" filter="url(#f15vhkgdpm2feo)" points="239,118,379,118,386,141.6094,474,141.6094,474,345,239,345,239,118" style="stroke: #000000; stroke-width: 1.5;"/><line style="stroke: #000000; stroke-width: 1.5;" x1="239" x2="386" y1="141.6094" y2="141.6094"/><text fill="#000000" font-family="sans-serif" font-size="14" font-weight="bold" lengthAdjust="spacingAndGlyphs" textLength="134" x="243" y="134.5332">Capability Manager</text><polygon fill="#FFCC88" filter="url(#f15vhkgdpm2feo)" points="6,8,236,8,243,31.6094,250,31.6094,250,63.2188,6,63.2188,6,8" style="stroke: #000000; stroke-width: 1.5;"/><line style="stroke: #000000; stroke-width: 1.5;" x1="6" x2="243" y1="31.6094" y2="31.6094"/><text fill="#000000" font-family="sans-serif" font-size="14" font-weight="bold" lengthAdjust="spacingAndGlyphs" textLength="224" x="10" y="24.5332">Sentient Agent Bundle Manager</text><polygon fill="#00AAFF" filter="url(#f15vhkgdpm2feo)" points="285,8,435,8,442,31.6094,449,31.6094,449,63.2188,285,63.2188,285,8" style="stroke: #000000; stroke-width: 1.5;"/><line style="stroke: #000000; stroke-width: 1.5;" x1="285" x2="442" y1="31.6094" y2="31.6094"/><text fill="#000000" font-family="sans-serif" font-size="14" font-weight="bold" lengthAdjust="spacingAndGlyphs" textLength="144" x="289" y="24.5332">Application Manager</text><polygon fill="#FFCC88" filter="url(#f15vhkgdpm2feo)" points="484,8,640,8,647,31.6094,654,31.6094,654,63.2188,484,63.2188,484,8" style="stroke: #000000; stroke-width: 1.5;"/><line style="stroke: #000000; stroke-width: 1.5;" x1="484" x2="647" y1="31.6094" y2="31.6094"/><text fill="#000000" font-family="sans-serif" font-size="14" font-weight="bold" lengthAdjust="spacingAndGlyphs" textLength="150" x="488" y="24.5332">Data Stream Manager</text><!--class i--><rect fill="#FEFECE" filter="url(#f15vhkgdpm2feo)" height="158.6875" id="i" style="stroke: #A80036; stroke-width: 1.5;" width="168" x="282" y="162"/><ellipse cx="310.05" cy="178" fill="#B4A7E5" rx="11" ry="11" style="stroke: #A80036; stroke-width: 1.0;"/><path d="M311.0031,174.6406 L311.0031,181.2969 L312.7219,181.2969 Q313.3313,181.2969 313.5969,181.5313 Q313.8625,181.7656 313.8625,182.1563 Q313.8625,182.5313 313.5969,182.7656 Q313.3313,183 312.7219,183 L307.5813,183 Q306.9719,183 306.7063,182.7656 Q306.4406,182.5313 306.4406,182.1406 Q306.4406,181.7656 306.7063,181.5313 Q306.9719,181.2969 307.5813,181.2969 L309.3,181.2969 L309.3,174.6406 L307.5813,174.6406 Q306.9719,174.6406 306.7063,174.4063 Q306.4406,174.1719 306.4406,173.7813 Q306.4406,173.4063 306.7063,173.1719 Q306.9719,172.9375 307.5813,172.9375 L312.7219,172.9375 Q313.3313,172.9375 313.5969,173.1719 Q313.8625,173.4063 313.8625,173.7813 Q313.8625,174.1719 313.5969,174.4063 Q313.3313,174.6406 312.7219,174.6406 L311.0031,174.6406 Z "/><text fill="#000000" font-family="sans-serif" font-size="12" font-style="italic" lengthAdjust="spacingAndGlyphs" textLength="107" x="326.95" y="182.9102">Capability Manager</text><line style="stroke: #A80036; stroke-width: 1.5;" x1="283" x2="449" y1="194" y2="194"/><line style="stroke: #A80036; stroke-width: 1.5;" x1="283" x2="449" y1="202" y2="202"/><text fill="#000000" font-family="sans-serif" font-size="11" lengthAdjust="spacingAndGlyphs" textLength="142" x="288" y="217.4189">/sabr/aml/cm/capability/build()</text><text fill="#000000" font-family="sans-serif" font-size="11" lengthAdjust="spacingAndGlyphs" textLength="151" x="288" y="231.2549">/sabr/aml/cm/capability/create()</text><text fill="#000000" font-family="sans-serif" font-size="11" lengthAdjust="spacingAndGlyphs" textLength="152" x="288" y="245.0908">/sabr/aml/cm/capability/deploy()</text><text fill="#000000" font-family="sans-serif" font-size="11" lengthAdjust="spacingAndGlyphs" textLength="133" x="288" y="258.9268">/sabr/aml/cm/capability/list()</text><text fill="#000000" font-family="sans-serif" font-size="11" lengthAdjust="spacingAndGlyphs" textLength="156" x="288" y="272.7627">/sabr/aml/cm/capability/release()</text><text fill="#000000" font-family="sans-serif" font-size="11" lengthAdjust="spacingAndGlyphs" textLength="156" x="288" y="286.5986">/sabr/aml/cm/capability/remove()</text><text fill="#000000" font-family="sans-serif" font-size="11" lengthAdjust="spacingAndGlyphs" textLength="138" x="288" y="300.4346">/sabr/aml/cm/capability/test()</text><text fill="#000000" font-family="sans-serif" font-size="11" lengthAdjust="spacingAndGlyphs" textLength="153" x="288" y="314.2705">/sabr/aml/cm/capability/update()</text><polygon fill="#AAFFAA" filter="url(#f15vhkgdpm2feo)" points="689,8,843,8,850,31.6094,857,31.6094,857,63.2188,689,63.2188,689,8" style="stroke: #000000; stroke-width: 1.5;"/><line style="stroke: #000000; stroke-width: 1.5;" x1="689" x2="850" y1="31.6094" y2="31.6094"/><text fill="#000000" font-family="sans-serif" font-size="14" font-weight="bold" lengthAdjust="spacingAndGlyphs" textLength="148" x="693" y="24.5332">Service Orchestrator</text><!--entity REST--><ellipse cx="277" cy="430" fill="#FEFECE" filter="url(#f15vhkgdpm2feo)" rx="8" ry="8" style="stroke: #A80036; stroke-width: 2.0;"/><text fill="#000000" font-family="sans-serif" font-size="14" lengthAdjust="spacingAndGlyphs" textLength="37" x="258.5" y="461.5332">REST</text><!--entity Web--><ellipse cx="366" cy="430" fill="#FEFECE" filter="url(#f15vhkgdpm2feo)" rx="8" ry="8" style="stroke: #A80036; stroke-width: 2.0;"/><text fill="#000000" font-family="sans-serif" font-size="14" lengthAdjust="spacingAndGlyphs" textLength="29" x="351.5" y="461.5332">Web</text><!--entity CLI--><ellipse cx="455" cy="430" fill="#FEFECE" filter="url(#f15vhkgdpm2feo)" rx="8" ry="8" style="stroke: #A80036; stroke-width: 2.0;"/><text fill="#000000" font-family="sans-serif" font-size="14" lengthAdjust="spacingAndGlyphs" textLength="21" x="444.5" y="461.5332">CLI</text><!--entity WebSocket--><ellipse cx="546" cy="241.5" fill="#FEFECE" filter="url(#f15vhkgdpm2feo)" rx="8" ry="8" style="stroke: #A80036; stroke-width: 2.0;"/><text fill="#000000" font-family="sans-serif" font-size="14" lengthAdjust="spacingAndGlyphs" textLength="72" x="510" y="273.0332">WebSocket</text><!--link i to Web--><path d="M366,321.052 C366,360.4737 366,403.49 366,420.9583 " fill="none" id="i-Web" style="stroke: #A80036; stroke-width: 1.0;"/><!--link i to CLI--><path d="M403.486,321.052 C422.298,360.4737 442.826,403.49 451.162,420.9583 " fill="none" id="i-CLI" style="stroke: #A80036; stroke-width: 1.0;"/><!--link i to REST--><path d="M328.514,321.052 C309.702,360.4737 289.174,403.49 280.838,420.9583 " fill="none" id="i-REST" style="stroke: #A80036; stroke-width: 1.0;"/><!--link i to WebSocket--><path d="M450.203,241.5 C484.789,241.5 520.522,241.5 536.856,241.5 " fill="none" id="i-WebSocket" style="stroke: #A80036; stroke-width: 1.0;"/><polygon fill="#000000" points="475.5,228.1758,469.5,231.1758,475.5,234.1758,475.5,228.1758" style="stroke: #000000; stroke-width: 1.0;"/><text fill="#000000" font-family="sans-serif" font-size="13" lengthAdjust="spacingAndGlyphs" textLength="37" x="481.5" y="234.9951">events</text><!--link Sentient Agent Bundle Manager to Capability Manager--><path d="M146.244,67.776 C162.6515,95.9025 187.3015,138.1595 208.1126,173.8358 C218.5182,191.6739 227.964,207.8668 234.94,219.8257 C235.812,221.3205 236.6454,222.7492 237.4372,224.1067 C237.8332,224.7854 238.2187,225.4464 238.5935,226.0889 C238.6872,226.2495 238.7802,226.409 238.8726,226.5673 " fill="none" id="Sentient Agent Bundle Manager-Capability Manager" style="stroke: #A80036; stroke-width: 1.0;"/><polygon fill="#A80036" points="143.557,63.169,144.6357,72.9586,146.0759,67.4882,151.5464,68.9283,143.557,63.169" style="stroke: #A80036; stroke-width: 1.0;"/><!--link Application Manager to Capability Manager--><path d="M303.43,65.933 C289.01,75.479 275.241,87.452 266,102 C263.9504,105.2267 262.0811,108.5806 260.3777,112.0338 C259.526,113.7604 258.7157,115.5119 257.9451,117.2847 C257.8488,117.5063 257.7531,117.7282 257.658,117.9505 " fill="none" id="Application Manager-Capability Manager" style="stroke: #A80036; stroke-width: 1.0;"/><polygon fill="#A80036" points="307.922,63.048,298.1876,64.5449,303.7147,65.7495,302.51,71.2767,307.922,63.048" style="stroke: #A80036; stroke-width: 1.0;"/><!--
@startuml


package "Sentient Agent Bundle Manager" #ffcc88 {

}

package "Application Manager" #00aaff {

}

package "Data Stream Manager" #ffcc88 {

}

package "Capability Manager" #00aaff {

}

package "Service Orchestrator" #aaffaa {

}


package "Capability Manager" #00aaff {

    interface "Capability Manager" as i {
    
            /sabr/aml/cm/capability/build()
            /sabr/aml/cm/capability/create()
            /sabr/aml/cm/capability/deploy()
            /sabr/aml/cm/capability/list()
            /sabr/aml/cm/capability/release()
            /sabr/aml/cm/capability/remove()
            /sabr/aml/cm/capability/test()
            /sabr/aml/cm/capability/update()
    
    }
}

circle REST
circle Web
circle CLI
circle WebSocket

i -down- Web
i -down- CLI
i -down- REST
WebSocket -left- i: events >

package "Capability Manager" #00aaff {


}


    "Sentient Agent Bundle Manager" <- - "Capability Manager"

    "Application Manager" <- - "Capability Manager"


@enduml

PlantUML version 1.2019.05(Sat Apr 20 09:45:36 PDT 2019)
(GPL source distribution)
Java Runtime: Java(TM) SE Runtime Environment
JVM: Java HotSpot(TM) Client VM
Java Version: 1.8.0_271-b09
Operating System: Windows 10
OS Version: 10.0
Default Encoding: Cp1252
Language: en
Country: US
--></g></svg>