<?xml version="1.0" encoding="us-ascii" standalone="no"?><svg xmlns="http://www.w3.org/2000/svg" xmlns:xlink="http://www.w3.org/1999/xlink" contentStyleType="text/css" height="498px" preserveAspectRatio="none" style="width:864px;height:498px;background:#FFFFFF;" version="1.1" viewBox="0 0 864 498" width="864px" zoomAndPan="magnify"><defs/><g><!--cluster Capability Manager--><g id="cluster_Capability Manager"><path d="M241.5,116 L376.5,116 A3.75,3.75 0 0 1 379,118.5 L386,139.6094 L519.5,139.6094 A2.5,2.5 0 0 1 522,142.1094 L522,370.5 A2.5,2.5 0 0 1 519.5,373 L241.5,373 A2.5,2.5 0 0 1 239,370.5 L239,118.5 A2.5,2.5 0 0 1 241.5,116 " fill="#00AAFF" style="stroke:#000000;stroke-width:1.5;"/><line style="stroke:#000000;stroke-width:1.5;" x1="239" x2="386" y1="139.6094" y2="139.6094"/><text fill="#000000" font-family="sans-serif" font-size="14" font-weight="bold" lengthAdjust="spacing" textLength="134" x="243" y="132.5332">Capability Manager</text></g><path d="M8.5,6 L233.5,6 A3.75,3.75 0 0 1 236,8.5 L243,29.6094 L247.5,29.6094 A2.5,2.5 0 0 1 250,32.1094 L250,58.7188 A2.5,2.5 0 0 1 247.5,61.2188 L8.5,61.2188 A2.5,2.5 0 0 1 6,58.7188 L6,8.5 A2.5,2.5 0 0 1 8.5,6 " fill="#FFCC88" style="stroke:#181818;stroke-width:0.5;"/><line style="stroke:#181818;stroke-width:0.5;" x1="6" x2="243" y1="29.6094" y2="29.6094"/><text fill="#000000" font-family="sans-serif" font-size="14" font-weight="bold" lengthAdjust="spacing" textLength="224" x="10" y="22.5332">Sentient Agent Bundle Manager</text><path d="M287.5,6 L432.5,6 A3.75,3.75 0 0 1 435,8.5 L442,29.6094 L446.5,29.6094 A2.5,2.5 0 0 1 449,32.1094 L449,58.7188 A2.5,2.5 0 0 1 446.5,61.2188 L287.5,61.2188 A2.5,2.5 0 0 1 285,58.7188 L285,8.5 A2.5,2.5 0 0 1 287.5,6 " fill="#00AAFF" style="stroke:#181818;stroke-width:0.5;"/><line style="stroke:#181818;stroke-width:0.5;" x1="285" x2="442" y1="29.6094" y2="29.6094"/><text fill="#000000" font-family="sans-serif" font-size="14" font-weight="bold" lengthAdjust="spacing" textLength="144" x="289" y="22.5332">Application Manager</text><path d="M486.5,6 L637.5,6 A3.75,3.75 0 0 1 640,8.5 L647,29.6094 L651.5,29.6094 A2.5,2.5 0 0 1 654,32.1094 L654,58.7188 A2.5,2.5 0 0 1 651.5,61.2188 L486.5,61.2188 A2.5,2.5 0 0 1 484,58.7188 L484,8.5 A2.5,2.5 0 0 1 486.5,6 " fill="#FFCC88" style="stroke:#181818;stroke-width:0.5;"/><line style="stroke:#181818;stroke-width:0.5;" x1="484" x2="647" y1="29.6094" y2="29.6094"/><text fill="#000000" font-family="sans-serif" font-size="14" font-weight="bold" lengthAdjust="spacing" textLength="150" x="488" y="22.5332">Data Stream Manager</text><!--class i--><g id="elem_i"><rect codeLine="26" fill="#F1F1F1" height="188.875" id="i" rx="2.5" ry="2.5" style="stroke:#181818;stroke-width:0.5;" width="216" x="282" y="160"/><ellipse cx="324.45" cy="176" fill="#B4A7E5" rx="11" ry="11" style="stroke:#181818;stroke-width:1.0;"/><path d="M325.4031,172.6406 L325.4031,179.2969 L327.1219,179.2969 Q327.7313,179.2969 327.9969,179.5313 Q328.2625,179.7656 328.2625,180.1563 Q328.2625,180.5313 327.9969,180.7656 Q327.7313,181 327.1219,181 L321.9813,181 Q321.3719,181 321.1063,180.7656 Q320.8406,180.5313 320.8406,180.1406 Q320.8406,179.7656 321.1063,179.5313 Q321.3719,179.2969 321.9813,179.2969 L323.7,179.2969 L323.7,172.6406 L321.9813,172.6406 Q321.3719,172.6406 321.1063,172.4063 Q320.8406,172.1719 320.8406,171.7813 Q320.8406,171.4063 321.1063,171.1719 Q321.3719,170.9375 321.9813,170.9375 L327.1219,170.9375 Q327.7313,170.9375 327.9969,171.1719 Q328.2625,171.4063 328.2625,171.7813 Q328.2625,172.1719 327.9969,172.4063 Q327.7313,172.6406 327.1219,172.6406 L325.4031,172.6406 Z " fill="#000000"/><text fill="#000000" font-family="sans-serif" font-size="14" font-style="italic" lengthAdjust="spacing" textLength="123" x="344.55" y="181.7285">Capability Manager</text><line style="stroke:#181818;stroke-width:0.5;" x1="283" x2="497" y1="192" y2="192"/><line style="stroke:#181818;stroke-width:0.5;" x1="283" x2="497" y1="200" y2="200"/><text fill="#000000" font-family="sans-serif" font-size="14" lengthAdjust="spacing" textLength="187" x="288" y="218.5332">/sabr/aml/cm/capability/build()</text><text fill="#000000" font-family="sans-serif" font-size="14" lengthAdjust="spacing" textLength="197" x="288" y="236.1426">/sabr/aml/cm/capability/create()</text><text fill="#000000" font-family="sans-serif" font-size="14" lengthAdjust="spacing" textLength="199" x="288" y="253.752">/sabr/aml/cm/capability/deploy()</text><text fill="#000000" font-family="sans-serif" font-size="14" lengthAdjust="spacing" textLength="174" x="288" y="271.3613">/sabr/aml/cm/capability/list()</text><text fill="#000000" font-family="sans-serif" font-size="14" lengthAdjust="spacing" textLength="204" x="288" y="288.9707">/sabr/aml/cm/capability/release()</text><text fill="#000000" font-family="sans-serif" font-size="14" lengthAdjust="spacing" textLength="204" x="288" y="306.5801">/sabr/aml/cm/capability/remove()</text><text fill="#000000" font-family="sans-serif" font-size="14" lengthAdjust="spacing" textLength="180" x="288" y="324.1895">/sabr/aml/cm/capability/test()</text><text fill="#000000" font-family="sans-serif" font-size="14" lengthAdjust="spacing" textLength="201" x="288" y="341.7988">/sabr/aml/cm/capability/update()</text></g><path d="M691.5,6 L840.5,6 A3.75,3.75 0 0 1 843,8.5 L850,29.6094 L854.5,29.6094 A2.5,2.5 0 0 1 857,32.1094 L857,58.7188 A2.5,2.5 0 0 1 854.5,61.2188 L691.5,61.2188 A2.5,2.5 0 0 1 689,58.7188 L689,8.5 A2.5,2.5 0 0 1 691.5,6 " fill="#AAFFAA" style="stroke:#181818;stroke-width:0.5;"/><line style="stroke:#181818;stroke-width:0.5;" x1="689" x2="850" y1="29.6094" y2="29.6094"/><text fill="#000000" font-family="sans-serif" font-size="14" font-weight="bold" lengthAdjust="spacing" textLength="148" x="693" y="22.5332">Service Orchestrator</text><!--entity REST--><g id="elem_REST"><ellipse cx="301" cy="458" fill="#F1F1F1" rx="8" ry="8" style="stroke:#181818;stroke-width:0.5;"/><text fill="#000000" font-family="sans-serif" font-size="14" lengthAdjust="spacing" textLength="37" x="282.5" y="489.5332">REST</text></g><!--entity Web--><g id="elem_Web"><ellipse cx="390" cy="458" fill="#F1F1F1" rx="8" ry="8" style="stroke:#181818;stroke-width:0.5;"/><text fill="#000000" font-family="sans-serif" font-size="14" lengthAdjust="spacing" textLength="29" x="375.5" y="489.5332">Web</text></g><!--entity CLI--><g id="elem_CLI"><ellipse cx="479" cy="458" fill="#F1F1F1" rx="8" ry="8" style="stroke:#181818;stroke-width:0.5;"/><text fill="#000000" font-family="sans-serif" font-size="14" lengthAdjust="spacing" textLength="21" x="468.5" y="489.5332">CLI</text></g><!--entity WebSocket--><g id="elem_WebSocket"><ellipse cx="594" cy="254.5" fill="#F1F1F1" rx="8" ry="8" style="stroke:#181818;stroke-width:0.5;"/><text fill="#000000" font-family="sans-serif" font-size="14" lengthAdjust="spacing" textLength="72" x="558" y="286.0332">WebSocket</text></g><!--link i to Web--><g id="link_i_Web"><path codeLine="45" d="M390,349.17 C390,389.66 390,431.69 390,448.91 " fill="none" id="i-Web" style="stroke:#181818;stroke-width:1.0;"/></g><!--link i to CLI--><g id="link_i_CLI"><path codeLine="46" d="M431.37,349.17 C449.26,389.66 467.82,431.69 475.43,448.91 " fill="none" id="i-CLI" style="stroke:#181818;stroke-width:1.0;"/></g><!--link i to REST--><g id="link_i_REST"><path codeLine="47" d="M348.63,349.17 C330.74,389.66 312.18,431.69 304.57,448.91 " fill="none" id="i-REST" style="stroke:#181818;stroke-width:1.0;"/></g><!--link i to WebSocket--><g id="link_i_WebSocket"><path codeLine="48" d="M498.27,254.5 C534.13,254.5 568.95,254.5 584.92,254.5 " fill="none" id="i-WebSocket" style="stroke:#181818;stroke-width:1.0;"/><polygon fill="#000000" points="515.5,242.6758,524.5451,245.6147,524.5451,239.7369,515.5,242.6758" style="stroke:#000000;stroke-width:1.0;"/><text fill="#000000" font-family="sans-serif" font-size="13" lengthAdjust="spacing" textLength="37" x="529.5" y="247.9951">events</text></g><!--reverse link Sentient Agent Bundle Manager to Capability Manager--><g id="link_Sentient Agent Bundle Manager_Capability Manager"><path codeLine="56" d="M145.4545,66.6221 C161.0945,95.4071 183.7675,137.1325 205.6713,177.4413 C216.6231,197.5956 226.6666,216.0778 234.1102,229.7752 C235.0406,231.4873 235.9304,233.1247 236.7763,234.6813 C237.1993,235.4596 237.6113,236.2176 238.0118,236.9547 C238.2121,237.3233 238.4096,237.6866 238.6041,238.0446 C238.7014,238.2236 238.7979,238.4012 238.8937,238.5775 " fill="none" id="Sentient Agent Bundle Manager-backto-Capability Manager" style="stroke:#181818;stroke-width:1.0;"/><polygon fill="#181818" points="142.59,61.35,143.3721,71.1678,144.9771,65.7434,150.4015,67.3484,142.59,61.35" style="stroke:#181818;stroke-width:1.0;"/></g><!--reverse link Application Manager to Capability Manager--><g id="link_Application Manager_Capability Manager"><path codeLine="58" d="M302.4425,64.3109 C286.5125,74.2709 276.04,83.97 266,100 C263.7556,103.585 261.7155,107.3099 259.863,111.1439 C259.3999,112.1024 258.9485,113.0677 258.5086,114.0393 C258.2886,114.5252 258.0715,115.0126 257.8572,115.5015 " fill="none" id="Application Manager-backto-Capability Manager" style="stroke:#181818;stroke-width:1.0;"/><polygon fill="#181818" points="307.53,61.13,297.7783,62.5096,303.2905,63.7807,302.0194,69.2929,307.53,61.13" style="stroke:#181818;stroke-width:1.0;"/></g><!--SRC=[ZPDHIyCm4CVV-ocE-Q8FfNiS8iASFWYAO0MVhzVhF9Qs8RrEXkoxcvIr3jbO0ZakoU__9oHt5cc3QuPPpesAdx1SX_ZGDwLXUCN6dxePN5KLqM81FqcoJn8xgfRM6Y5KQPiZTZv7hAh_x2CgGgwEiRxekqABXHZHtKNRdDrMYE7DqHTtwb3R00SKyG176uCVqYYx2kaCZHs8HmCvX75a7HOkmzfaL6Sq2REY5rDUtqInv1z7EH8ksPfs5maRwJGITMmOEuwcwtOR2oj7twAtvTzJ364VVfB4aQ_BzwVyOym_kHZJrSlpqMxUqeOrIGJIilrkqe6S5e6T5eFV987KSAKfo2tmrdT31_Vn9JJKMxZlfPQwIzEJPWVroTOwh_a5]--></g></svg>