<?xml version="1.0" encoding="UTF-8" standalone="no"?><svg xmlns="http://www.w3.org/2000/svg" xmlns:xlink="http://www.w3.org/1999/xlink" contentScriptType="application/ecmascript" contentStyleType="text/css" height="338px" preserveAspectRatio="none" style="width:381px;height:338px;" version="1.1" viewBox="0 0 381 338" width="381px" zoomAndPan="magnify"><defs><filter height="300%" id="f162u7lq51bucp" width="300%" x="-1" y="-1"><feGaussianBlur result="blurOut" stdDeviation="2.0"/><feColorMatrix in="blurOut" result="blurOut2" type="matrix" values="0 0 0 0 0 0 0 0 0 0 0 0 0 0 0 0 0 0 .4 0"/><feOffset dx="4.0" dy="4.0" in="blurOut2" result="blurOut3"/><feBlend in="SourceGraphic" in2="blurOut3" mode="normal"/></filter></defs><g><!--cluster Capability Manager--><rect fill="#00AAFF" filter="url(#f162u7lq51bucp)" height="296" style="stroke: #000000; stroke-width: 1.5;" width="182" x="188" y="24"/><text fill="#000000" font-family="sans-serif" font-size="14" font-weight="bold" lengthAdjust="spacingAndGlyphs" textLength="134" x="212" y="40.5332">Capability Manager</text><ellipse cx="278.8989" cy="145.7798" fill="#FEFECE" filter="url(#f162u7lq51bucp)" rx="71.8989" ry="16.7798" style="stroke: #A80036; stroke-width: 1.5;"/><text fill="#000000" font-family="sans-serif" font-size="14" lengthAdjust="spacingAndGlyphs" textLength="106" x="225.8989" y="151.0845">DeployCapability</text><ellipse cx="279.0213" cy="285.9043" fill="#FEFECE" filter="url(#f162u7lq51bucp)" rx="75.0213" ry="17.4043" style="stroke: #A80036; stroke-width: 1.5;"/><text fill="#000000" font-family="sans-serif" font-size="14" lengthAdjust="spacingAndGlyphs" textLength="114" x="222.0213" y="291.2089">DevelopCapability</text><ellipse cx="279.0213" cy="215.9043" fill="#FEFECE" filter="url(#f162u7lq51bucp)" rx="75.0213" ry="17.4043" style="stroke: #A80036; stroke-width: 1.5;"/><text fill="#000000" font-family="sans-serif" font-size="14" lengthAdjust="spacingAndGlyphs" textLength="114" x="222.0213" y="221.2089">RemoveCapability</text><ellipse cx="278.7843" cy="76.8569" fill="#FEFECE" filter="url(#f162u7lq51bucp)" rx="72.2843" ry="16.8569" style="stroke: #A80036; stroke-width: 1.5;"/><text fill="#000000" font-family="sans-serif" font-size="14" lengthAdjust="spacingAndGlyphs" textLength="107" x="225.2843" y="82.1615">UpdateCapability</text><!--entity DevOpsEngineer--><ellipse cx="75" cy="113.5" fill="#FEFECE" filter="url(#f162u7lq51bucp)" rx="8" ry="8" style="stroke: #A80036; stroke-width: 2.0;"/><path d="M75,121.5 L75,148.5 M62,129.5 L88,129.5 M75,148.5 L62,163.5 M75,148.5 L88,163.5 " fill="none" filter="url(#f162u7lq51bucp)" style="stroke: #A80036; stroke-width: 2.0;"/><text fill="#000000" font-family="sans-serif" font-size="14" lengthAdjust="spacingAndGlyphs" textLength="108" x="21" y="185.0332">DevOpsEngineer</text><!--entity ApplicationDeveloper--><ellipse cx="75" cy="253.5" fill="#FEFECE" filter="url(#f162u7lq51bucp)" rx="8" ry="8" style="stroke: #A80036; stroke-width: 2.0;"/><path d="M75,261.5 L75,288.5 M62,269.5 L88,269.5 M75,288.5 L62,303.5 M75,288.5 L88,303.5 " fill="none" filter="url(#f162u7lq51bucp)" style="stroke: #A80036; stroke-width: 2.0;"/><text fill="#000000" font-family="sans-serif" font-size="14" lengthAdjust="spacingAndGlyphs" textLength="138" x="6" y="325.0332">Application Developer</text><!--link DevOpsEngineer to DeployCapability--><path d="M129.073,146 C151.227,146 177.385,146 201.548,146 " fill="none" id="DevOpsEngineer-DeployCapability" style="stroke: #A80036; stroke-width: 1.0;"/><polygon fill="#A80036" points="206.671,146,197.671,142,201.671,146,197.671,150,206.671,146" style="stroke: #A80036; stroke-width: 1.0;"/><!--link ApplicationDeveloper to DevelopCapability--><path d="M144.106,286 C161.695,286 180.777,286 198.876,286 " fill="none" id="ApplicationDeveloper-DevelopCapability" style="stroke: #A80036; stroke-width: 1.0;"/><polygon fill="#A80036" points="203.952,286,194.952,282,198.952,286,194.952,290,203.952,286" style="stroke: #A80036; stroke-width: 1.0;"/><!--link DevOpsEngineer to RemoveCapability--><path d="M129.073,164.392 C160.807,175.388 200.758,189.233 231.29,199.814 " fill="none" id="DevOpsEngineer-RemoveCapability" style="stroke: #A80036; stroke-width: 1.0;"/><polygon fill="#A80036" points="236.107,201.483,228.9129,194.7566,231.3826,199.8458,226.2934,202.3156,236.107,201.483" style="stroke: #A80036; stroke-width: 1.0;"/><!--link DevOpsEngineer to UpdateCapability--><path d="M129.073,127.871 C161.14,116.918 201.597,103.098 232.248,92.628 " fill="none" id="DevOpsEngineer-UpdateCapability" style="stroke: #A80036; stroke-width: 1.0;"/><polygon fill="#A80036" points="237.08,90.977,227.27,90.1027,232.3487,92.5941,229.8574,97.6728,237.08,90.977" style="stroke: #A80036; stroke-width: 1.0;"/><!--
@startuml

left to right direction
Actor "DevOpsEngineer" as DevOpsEngineer
Actor "Application Developer" as ApplicationDeveloper
Actor "DevOpsEngineer" as DevOpsEngineer
Actor "DevOpsEngineer" as DevOpsEngineer


rectangle "Capability Manager" #00aaff {
usecase "DeployCapability" as DeployCapability
    DevOpsEngineer - -> DeployCapability
    usecase "DevelopCapability" as DevelopCapability
    ApplicationDeveloper - -> DevelopCapability
    usecase "RemoveCapability" as RemoveCapability
    DevOpsEngineer - -> RemoveCapability
    usecase "UpdateCapability" as UpdateCapability
    DevOpsEngineer - -> UpdateCapability
    }


@enduml

PlantUML version 1.2019.05(Sat Apr 20 09:45:36 PDT 2019)
(GPL source distribution)
Java Runtime: Java(TM) SE Runtime Environment
JVM: Java HotSpot(TM) Client VM
Java Version: 1.8.0_271-b09
Operating System: Windows 10
OS Version: 10.0
Default Encoding: Cp1252
Language: en
Country: US
--></g></svg>