<?xml version="1.0" encoding="UTF-8" standalone="no"?><svg xmlns="http://www.w3.org/2000/svg" xmlns:xlink="http://www.w3.org/1999/xlink" contentScriptType="application/ecmascript" contentStyleType="text/css" height="560px" preserveAspectRatio="none" style="width:634px;height:560px;" version="1.1" viewBox="0 0 634 560" width="634px" zoomAndPan="magnify"><defs><filter height="300%" id="fbz533oeo0tco" width="300%" x="-1" y="-1"><feGaussianBlur result="blurOut" stdDeviation="2.0"/><feColorMatrix in="blurOut" result="blurOut2" type="matrix" values="0 0 0 0 0 0 0 0 0 0 0 0 0 0 0 0 0 0 .4 0"/><feOffset dx="4.0" dy="4.0" in="blurOut2" result="blurOut3"/><feBlend in="SourceGraphic" in2="blurOut3" mode="normal"/></filter></defs><g><line style="stroke: #A80036; stroke-width: 1.0; stroke-dasharray: 5.0,5.0;" x1="65" x2="65" y1="87.6094" y2="471.8281"/><line style="stroke: #A80036; stroke-width: 1.0; stroke-dasharray: 5.0,5.0;" x1="202" x2="202" y1="87.6094" y2="471.8281"/><line style="stroke: #A80036; stroke-width: 1.0; stroke-dasharray: 5.0,5.0;" x1="352" x2="352" y1="87.6094" y2="471.8281"/><line style="stroke: #A80036; stroke-width: 1.0; stroke-dasharray: 5.0,5.0;" x1="475.5" x2="475.5" y1="87.6094" y2="471.8281"/><line style="stroke: #A80036; stroke-width: 1.0; stroke-dasharray: 5.0,5.0;" x1="599.5" x2="599.5" y1="87.6094" y2="471.8281"/><text fill="#000000" font-family="sans-serif" font-size="14" lengthAdjust="spacingAndGlyphs" textLength="108" x="8" y="84.5332">DevOpsEngineer</text><ellipse cx="65" cy="13" fill="#FEFECE" filter="url(#fbz533oeo0tco)" rx="8" ry="8" style="stroke: #A80036; stroke-width: 2.0;"/><path d="M65,21 L65,48 M52,29 L78,29 M65,48 L52,63 M65,48 L78,63 " fill="none" filter="url(#fbz533oeo0tco)" style="stroke: #A80036; stroke-width: 2.0;"/><text fill="#000000" font-family="sans-serif" font-size="14" lengthAdjust="spacingAndGlyphs" textLength="108" x="8" y="485.3613">DevOpsEngineer</text><ellipse cx="65" cy="498.4375" fill="#FEFECE" filter="url(#fbz533oeo0tco)" rx="8" ry="8" style="stroke: #A80036; stroke-width: 2.0;"/><path d="M65,506.4375 L65,533.4375 M52,514.4375 L78,514.4375 M65,533.4375 L52,548.4375 M65,533.4375 L78,548.4375 " fill="none" filter="url(#fbz533oeo0tco)" style="stroke: #A80036; stroke-width: 2.0;"/><text fill="#000000" font-family="sans-serif" font-size="14" lengthAdjust="spacingAndGlyphs" textLength="134" x="132" y="84.5332">ApplicationDeveloper</text><ellipse cx="202" cy="13" fill="#FEFECE" filter="url(#fbz533oeo0tco)" rx="8" ry="8" style="stroke: #A80036; stroke-width: 2.0;"/><path d="M202,21 L202,48 M189,29 L215,29 M202,48 L189,63 M202,48 L215,63 " fill="none" filter="url(#fbz533oeo0tco)" style="stroke: #A80036; stroke-width: 2.0;"/><text fill="#000000" font-family="sans-serif" font-size="14" lengthAdjust="spacingAndGlyphs" textLength="134" x="132" y="485.3613">ApplicationDeveloper</text><ellipse cx="202" cy="498.4375" fill="#FEFECE" filter="url(#fbz533oeo0tco)" rx="8" ry="8" style="stroke: #A80036; stroke-width: 2.0;"/><path d="M202,506.4375 L202,533.4375 M189,514.4375 L215,514.4375 M202,533.4375 L189,548.4375 M202,533.4375 L215,548.4375 " fill="none" filter="url(#fbz533oeo0tco)" style="stroke: #A80036; stroke-width: 2.0;"/><rect fill="#FEFECE" filter="url(#fbz533oeo0tco)" height="31.6094" style="stroke: #A80036; stroke-width: 1.5;" width="136" x="282" y="51"/><text fill="#000000" font-family="sans-serif" font-size="14" lengthAdjust="spacingAndGlyphs" textLength="122" x="289" y="72.5332">Capability Manager</text><rect fill="#FEFECE" filter="url(#fbz533oeo0tco)" height="31.6094" style="stroke: #A80036; stroke-width: 1.5;" width="136" x="282" y="470.8281"/><text fill="#000000" font-family="sans-serif" font-size="14" lengthAdjust="spacingAndGlyphs" textLength="122" x="289" y="492.3613">Capability Manager</text><rect fill="#FEFECE" filter="url(#fbz533oeo0tco)" height="31.6094" style="stroke: #A80036; stroke-width: 1.5;" width="33" x="457.5" y="51"/><text fill="#000000" font-family="sans-serif" font-size="14" lengthAdjust="spacingAndGlyphs" textLength="19" x="464.5" y="72.5332">bin</text><rect fill="#FEFECE" filter="url(#fbz533oeo0tco)" height="31.6094" style="stroke: #A80036; stroke-width: 1.5;" width="33" x="457.5" y="470.8281"/><text fill="#000000" font-family="sans-serif" font-size="14" lengthAdjust="spacingAndGlyphs" textLength="19" x="464.5" y="492.3613">bin</text><rect fill="#FEFECE" filter="url(#fbz533oeo0tco)" height="31.6094" style="stroke: #A80036; stroke-width: 1.5;" width="51" x="572.5" y="51"/><text fill="#000000" font-family="sans-serif" font-size="14" lengthAdjust="spacingAndGlyphs" textLength="37" x="579.5" y="72.5332">REST</text><rect fill="#FEFECE" filter="url(#fbz533oeo0tco)" height="31.6094" style="stroke: #A80036; stroke-width: 1.5;" width="51" x="572.5" y="470.8281"/><text fill="#000000" font-family="sans-serif" font-size="14" lengthAdjust="spacingAndGlyphs" textLength="37" x="579.5" y="492.3613">REST</text><polygon fill="#A80036" points="340,115.9609,350,119.9609,340,123.9609,344,119.9609" style="stroke: #A80036; stroke-width: 1.0;"/><line style="stroke: #A80036; stroke-width: 1.0;" x1="65" x2="346" y1="119.9609" y2="119.9609"/><text fill="#000000" font-family="sans-serif" font-size="13" lengthAdjust="spacingAndGlyphs" textLength="101" x="72" y="115.1045">Deploy Capability</text><polygon fill="#A80036" points="464,146.3125,474,150.3125,464,154.3125,468,150.3125" style="stroke: #A80036; stroke-width: 1.0;"/><line style="stroke: #A80036; stroke-width: 1.0;" x1="352" x2="470" y1="150.3125" y2="150.3125"/><text fill="#000000" font-family="sans-serif" font-size="13" lengthAdjust="spacingAndGlyphs" textLength="97" x="359" y="145.4561">capability deploy</text><polygon fill="#A80036" points="588,176.6641,598,180.6641,588,184.6641,592,180.6641" style="stroke: #A80036; stroke-width: 1.0;"/><line style="stroke: #A80036; stroke-width: 1.0;" x1="476" x2="594" y1="180.6641" y2="180.6641"/><text fill="#000000" font-family="sans-serif" font-size="13" lengthAdjust="spacingAndGlyphs" textLength="97" x="483" y="175.8076">capability/deploy</text><polygon fill="#A80036" points="340,207.0156,350,211.0156,340,215.0156,344,211.0156" style="stroke: #A80036; stroke-width: 1.0;"/><line style="stroke: #A80036; stroke-width: 1.0;" x1="65" x2="346" y1="211.0156" y2="211.0156"/><text fill="#000000" font-family="sans-serif" font-size="13" lengthAdjust="spacingAndGlyphs" textLength="107" x="72" y="206.1592">Remove Capability</text><polygon fill="#A80036" points="464,237.3672,474,241.3672,464,245.3672,468,241.3672" style="stroke: #A80036; stroke-width: 1.0;"/><line style="stroke: #A80036; stroke-width: 1.0;" x1="352" x2="470" y1="241.3672" y2="241.3672"/><text fill="#000000" font-family="sans-serif" font-size="13" lengthAdjust="spacingAndGlyphs" textLength="100" x="359" y="236.5107">capability remove</text><polygon fill="#A80036" points="588,267.7188,598,271.7188,588,275.7188,592,271.7188" style="stroke: #A80036; stroke-width: 1.0;"/><line style="stroke: #A80036; stroke-width: 1.0;" x1="476" x2="594" y1="271.7188" y2="271.7188"/><text fill="#000000" font-family="sans-serif" font-size="13" lengthAdjust="spacingAndGlyphs" textLength="100" x="483" y="266.8623">capability/remove</text><polygon fill="#A80036" points="340,298.0703,350,302.0703,340,306.0703,344,302.0703" style="stroke: #A80036; stroke-width: 1.0;"/><line style="stroke: #A80036; stroke-width: 1.0;" x1="65" x2="346" y1="302.0703" y2="302.0703"/><text fill="#000000" font-family="sans-serif" font-size="13" lengthAdjust="spacingAndGlyphs" textLength="102" x="72" y="297.2139">Update Capability</text><polygon fill="#A80036" points="464,328.4219,474,332.4219,464,336.4219,468,332.4219" style="stroke: #A80036; stroke-width: 1.0;"/><line style="stroke: #A80036; stroke-width: 1.0;" x1="352" x2="470" y1="332.4219" y2="332.4219"/><text fill="#000000" font-family="sans-serif" font-size="13" lengthAdjust="spacingAndGlyphs" textLength="98" x="359" y="327.5654">capability update</text><polygon fill="#A80036" points="588,358.7734,598,362.7734,588,366.7734,592,362.7734" style="stroke: #A80036; stroke-width: 1.0;"/><line style="stroke: #A80036; stroke-width: 1.0;" x1="476" x2="594" y1="362.7734" y2="362.7734"/><text fill="#000000" font-family="sans-serif" font-size="13" lengthAdjust="spacingAndGlyphs" textLength="98" x="483" y="357.917">capability/update</text><polygon fill="#A80036" points="340,389.125,350,393.125,340,397.125,344,393.125" style="stroke: #A80036; stroke-width: 1.0;"/><line style="stroke: #A80036; stroke-width: 1.0;" x1="202" x2="346" y1="393.125" y2="393.125"/><text fill="#000000" font-family="sans-serif" font-size="13" lengthAdjust="spacingAndGlyphs" textLength="106" x="209" y="388.2686">Develop Capability</text><polygon fill="#A80036" points="464,419.4766,474,423.4766,464,427.4766,468,423.4766" style="stroke: #A80036; stroke-width: 1.0;"/><line style="stroke: #A80036; stroke-width: 1.0;" x1="352" x2="470" y1="423.4766" y2="423.4766"/><text fill="#000000" font-family="sans-serif" font-size="13" lengthAdjust="spacingAndGlyphs" textLength="89" x="359" y="418.6201">capability show</text><polygon fill="#A80036" points="588,449.8281,598,453.8281,588,457.8281,592,453.8281" style="stroke: #A80036; stroke-width: 1.0;"/><line style="stroke: #A80036; stroke-width: 1.0;" x1="476" x2="594" y1="453.8281" y2="453.8281"/><text fill="#000000" font-family="sans-serif" font-size="13" lengthAdjust="spacingAndGlyphs" textLength="89" x="483" y="448.9717">capability/show</text><!--
@startuml


actor "DevOpsEngineer" as devops

actor "ApplicationDeveloper" as applicationdeveloper




devops -> "Capability Manager": Deploy Capability
"Capability Manager" -> bin: capability deploy
bin -> REST: capability/deploy

devops -> "Capability Manager": Remove Capability
"Capability Manager" -> bin: capability remove
bin -> REST: capability/remove

devops -> "Capability Manager": Update Capability
"Capability Manager" -> bin: capability update
bin -> REST: capability/update

applicationdeveloper -> "Capability Manager": Develop Capability
"Capability Manager" -> bin: capability show
bin -> REST: capability/show



@enduml

PlantUML version 1.2019.05(Sat Apr 20 09:45:36 PDT 2019)
(GPL source distribution)
Java Runtime: Java(TM) SE Runtime Environment
JVM: Java HotSpot(TM) Client VM
Java Version: 1.8.0_271-b09
Operating System: Windows 10
OS Version: 10.0
Default Encoding: Cp1252
Language: en
Country: US
--></g></svg>