<?xml version="1.0" encoding="us-ascii" standalone="no"?><svg xmlns="http://www.w3.org/2000/svg" xmlns:xlink="http://www.w3.org/1999/xlink" contentStyleType="text/css" height="548px" preserveAspectRatio="none" style="width:626px;height:548px;background:#FFFFFF;" version="1.1" viewBox="0 0 626 548" width="626px" zoomAndPan="magnify"><defs/><g><line style="stroke:#181818;stroke-width:0.5;stroke-dasharray:5.0,5.0;" x1="62" x2="62" y1="82.6094" y2="466.8281"/><line style="stroke:#181818;stroke-width:0.5;stroke-dasharray:5.0,5.0;" x1="199" x2="199" y1="82.6094" y2="466.8281"/><line style="stroke:#181818;stroke-width:0.5;stroke-dasharray:5.0,5.0;" x1="347" x2="347" y1="82.6094" y2="466.8281"/><line style="stroke:#181818;stroke-width:0.5;stroke-dasharray:5.0,5.0;" x1="470.5" x2="470.5" y1="82.6094" y2="466.8281"/><line style="stroke:#181818;stroke-width:0.5;stroke-dasharray:5.0,5.0;" x1="594.5" x2="594.5" y1="82.6094" y2="466.8281"/><text fill="#000000" font-family="sans-serif" font-size="14" lengthAdjust="spacing" textLength="108" x="5" y="79.5332">DevOpsEngineer</text><ellipse cx="62" cy="13.5" fill="#E2E2F0" rx="8" ry="8" style="stroke:#181818;stroke-width:0.5;"/><path d="M62,21.5 L62,48.5 M49,29.5 L75,29.5 M62,48.5 L49,63.5 M62,48.5 L75,63.5 " fill="none" style="stroke:#181818;stroke-width:0.5;"/><text fill="#000000" font-family="sans-serif" font-size="14" lengthAdjust="spacing" textLength="108" x="5" y="480.3613">DevOpsEngineer</text><ellipse cx="62" cy="491.9375" fill="#E2E2F0" rx="8" ry="8" style="stroke:#181818;stroke-width:0.5;"/><path d="M62,499.9375 L62,526.9375 M49,507.9375 L75,507.9375 M62,526.9375 L49,541.9375 M62,526.9375 L75,541.9375 " fill="none" style="stroke:#181818;stroke-width:0.5;"/><text fill="#000000" font-family="sans-serif" font-size="14" lengthAdjust="spacing" textLength="134" x="129" y="79.5332">ApplicationDeveloper</text><ellipse cx="199" cy="13.5" fill="#E2E2F0" rx="8" ry="8" style="stroke:#181818;stroke-width:0.5;"/><path d="M199,21.5 L199,48.5 M186,29.5 L212,29.5 M199,48.5 L186,63.5 M199,48.5 L212,63.5 " fill="none" style="stroke:#181818;stroke-width:0.5;"/><text fill="#000000" font-family="sans-serif" font-size="14" lengthAdjust="spacing" textLength="134" x="129" y="480.3613">ApplicationDeveloper</text><ellipse cx="199" cy="491.9375" fill="#E2E2F0" rx="8" ry="8" style="stroke:#181818;stroke-width:0.5;"/><path d="M199,499.9375 L199,526.9375 M186,507.9375 L212,507.9375 M199,526.9375 L186,541.9375 M199,526.9375 L212,541.9375 " fill="none" style="stroke:#181818;stroke-width:0.5;"/><rect fill="#E2E2F0" height="31.6094" rx="2.5" ry="2.5" style="stroke:#181818;stroke-width:0.5;" width="136" x="279" y="50"/><text fill="#000000" font-family="sans-serif" font-size="14" lengthAdjust="spacing" textLength="122" x="286" y="71.5332">Capability Manager</text><rect fill="#E2E2F0" height="31.6094" rx="2.5" ry="2.5" style="stroke:#181818;stroke-width:0.5;" width="136" x="279" y="465.8281"/><text fill="#000000" font-family="sans-serif" font-size="14" lengthAdjust="spacing" textLength="122" x="286" y="487.3613">Capability Manager</text><rect fill="#E2E2F0" height="31.6094" rx="2.5" ry="2.5" style="stroke:#181818;stroke-width:0.5;" width="33" x="454.5" y="50"/><text fill="#000000" font-family="sans-serif" font-size="14" lengthAdjust="spacing" textLength="19" x="461.5" y="71.5332">bin</text><rect fill="#E2E2F0" height="31.6094" rx="2.5" ry="2.5" style="stroke:#181818;stroke-width:0.5;" width="33" x="454.5" y="465.8281"/><text fill="#000000" font-family="sans-serif" font-size="14" lengthAdjust="spacing" textLength="19" x="461.5" y="487.3613">bin</text><rect fill="#E2E2F0" height="31.6094" rx="2.5" ry="2.5" style="stroke:#181818;stroke-width:0.5;" width="51" x="569.5" y="50"/><text fill="#000000" font-family="sans-serif" font-size="14" lengthAdjust="spacing" textLength="37" x="576.5" y="71.5332">REST</text><rect fill="#E2E2F0" height="31.6094" rx="2.5" ry="2.5" style="stroke:#181818;stroke-width:0.5;" width="51" x="569.5" y="465.8281"/><text fill="#000000" font-family="sans-serif" font-size="14" lengthAdjust="spacing" textLength="37" x="576.5" y="487.3613">REST</text><polygon fill="#181818" points="335,110.9609,345,114.9609,335,118.9609,339,114.9609" style="stroke:#181818;stroke-width:1.0;"/><line style="stroke:#181818;stroke-width:1.0;" x1="62" x2="341" y1="114.9609" y2="114.9609"/><text fill="#000000" font-family="sans-serif" font-size="13" lengthAdjust="spacing" textLength="101" x="69" y="110.1045">Deploy Capability</text><polygon fill="#181818" points="459,141.3125,469,145.3125,459,149.3125,463,145.3125" style="stroke:#181818;stroke-width:1.0;"/><line style="stroke:#181818;stroke-width:1.0;" x1="347" x2="465" y1="145.3125" y2="145.3125"/><text fill="#000000" font-family="sans-serif" font-size="13" lengthAdjust="spacing" textLength="97" x="354" y="140.4561">capability deploy</text><polygon fill="#181818" points="583,171.6641,593,175.6641,583,179.6641,587,175.6641" style="stroke:#181818;stroke-width:1.0;"/><line style="stroke:#181818;stroke-width:1.0;" x1="471" x2="589" y1="175.6641" y2="175.6641"/><text fill="#000000" font-family="sans-serif" font-size="13" lengthAdjust="spacing" textLength="97" x="478" y="170.8076">capability/deploy</text><polygon fill="#181818" points="335,202.0156,345,206.0156,335,210.0156,339,206.0156" style="stroke:#181818;stroke-width:1.0;"/><line style="stroke:#181818;stroke-width:1.0;" x1="62" x2="341" y1="206.0156" y2="206.0156"/><text fill="#000000" font-family="sans-serif" font-size="13" lengthAdjust="spacing" textLength="107" x="69" y="201.1592">Remove Capability</text><polygon fill="#181818" points="459,232.3672,469,236.3672,459,240.3672,463,236.3672" style="stroke:#181818;stroke-width:1.0;"/><line style="stroke:#181818;stroke-width:1.0;" x1="347" x2="465" y1="236.3672" y2="236.3672"/><text fill="#000000" font-family="sans-serif" font-size="13" lengthAdjust="spacing" textLength="100" x="354" y="231.5107">capability remove</text><polygon fill="#181818" points="583,262.7188,593,266.7188,583,270.7188,587,266.7188" style="stroke:#181818;stroke-width:1.0;"/><line style="stroke:#181818;stroke-width:1.0;" x1="471" x2="589" y1="266.7188" y2="266.7188"/><text fill="#000000" font-family="sans-serif" font-size="13" lengthAdjust="spacing" textLength="100" x="478" y="261.8623">capability/remove</text><polygon fill="#181818" points="335,293.0703,345,297.0703,335,301.0703,339,297.0703" style="stroke:#181818;stroke-width:1.0;"/><line style="stroke:#181818;stroke-width:1.0;" x1="62" x2="341" y1="297.0703" y2="297.0703"/><text fill="#000000" font-family="sans-serif" font-size="13" lengthAdjust="spacing" textLength="102" x="69" y="292.2139">Update Capability</text><polygon fill="#181818" points="459,323.4219,469,327.4219,459,331.4219,463,327.4219" style="stroke:#181818;stroke-width:1.0;"/><line style="stroke:#181818;stroke-width:1.0;" x1="347" x2="465" y1="327.4219" y2="327.4219"/><text fill="#000000" font-family="sans-serif" font-size="13" lengthAdjust="spacing" textLength="98" x="354" y="322.5654">capability update</text><polygon fill="#181818" points="583,353.7734,593,357.7734,583,361.7734,587,357.7734" style="stroke:#181818;stroke-width:1.0;"/><line style="stroke:#181818;stroke-width:1.0;" x1="471" x2="589" y1="357.7734" y2="357.7734"/><text fill="#000000" font-family="sans-serif" font-size="13" lengthAdjust="spacing" textLength="98" x="478" y="352.917">capability/update</text><polygon fill="#181818" points="335,384.125,345,388.125,335,392.125,339,388.125" style="stroke:#181818;stroke-width:1.0;"/><line style="stroke:#181818;stroke-width:1.0;" x1="199" x2="341" y1="388.125" y2="388.125"/><text fill="#000000" font-family="sans-serif" font-size="13" lengthAdjust="spacing" textLength="106" x="206" y="383.2686">Develop Capability</text><polygon fill="#181818" points="459,414.4766,469,418.4766,459,422.4766,463,418.4766" style="stroke:#181818;stroke-width:1.0;"/><line style="stroke:#181818;stroke-width:1.0;" x1="347" x2="465" y1="418.4766" y2="418.4766"/><text fill="#000000" font-family="sans-serif" font-size="13" lengthAdjust="spacing" textLength="89" x="354" y="413.6201">capability show</text><polygon fill="#181818" points="583,444.8281,593,448.8281,583,452.8281,587,448.8281" style="stroke:#181818;stroke-width:1.0;"/><line style="stroke:#181818;stroke-width:1.0;" x1="471" x2="589" y1="448.8281" y2="448.8281"/><text fill="#000000" font-family="sans-serif" font-size="13" lengthAdjust="spacing" textLength="89" x="478" y="443.9717">capability/show</text><!--SRC=[dP712eCm38RlUOhWVUpkOJ2cnp5msmD4MroXQuFj7Bxzj7QuWqumntp_7pu8LTusc6IolR3BJQsCb4s2v538rh83e35nPDQg8g-iwSDIMuuvce3u0XXcF82x0oOdOYgLLhx3Cncg-sgAcMHjEvmOpEM6VgbCYjN4H6X2lnveaLzlltWVyQf08P-sbLi4cj1S58XuLU3EWlmcWLTeBWf437E_-VUG4DdYunxslMWJ8C07]--></g></svg>