<?xml version="1.0" encoding="UTF-8" standalone="no"?><svg xmlns="http://www.w3.org/2000/svg" xmlns:xlink="http://www.w3.org/1999/xlink" contentScriptType="application/ecmascript" contentStyleType="text/css" height="506px" preserveAspectRatio="none" style="width:443px;height:506px;" version="1.1" viewBox="0 0 443 506" width="443px" zoomAndPan="magnify"><defs><filter height="300%" id="ft23qdtnkv2s9" width="300%" x="-1" y="-1"><feGaussianBlur result="blurOut" stdDeviation="2.0"/><feColorMatrix in="blurOut" result="blurOut2" type="matrix" values="0 0 0 0 0 0 0 0 0 0 0 0 0 0 0 0 0 0 .4 0"/><feOffset dx="4.0" dy="4.0" in="blurOut2" result="blurOut3"/><feBlend in="SourceGraphic" in2="blurOut3" mode="normal"/></filter></defs><g><!--cluster Application Manager--><polygon fill="#00AAFF" filter="url(#ft23qdtnkv2s9)" points="197,394,347,394,354,417.6094,357,417.6094,357,494,197,494,197,394" style="stroke: #000000; stroke-width: 1.5;"/><line style="stroke: #000000; stroke-width: 1.5;" x1="197" x2="354" y1="417.6094" y2="417.6094"/><text fill="#000000" font-family="sans-serif" font-size="14" font-weight="bold" lengthAdjust="spacingAndGlyphs" textLength="144" x="201" y="410.5332">Application Manager</text><!--cluster Service Orchestrator--><polygon fill="#AAFFAA" filter="url(#ft23qdtnkv2s9)" points="22,65,176,65,183,88.6094,363,88.6094,363,344,22,344,22,65" style="stroke: #000000; stroke-width: 1.5;"/><line style="stroke: #000000; stroke-width: 1.5;" x1="22" x2="183" y1="88.6094" y2="88.6094"/><text fill="#000000" font-family="sans-serif" font-size="14" font-weight="bold" lengthAdjust="spacingAndGlyphs" textLength="148" x="26" y="81.5332">Service Orchestrator</text><!--class ServiceInstance--><rect fill="#FEFECE" filter="url(#ft23qdtnkv2s9)" height="48" id="ServiceInstance" style="stroke: #A80036; stroke-width: 1.5;" width="119" x="217.5" y="430"/><ellipse cx="232.5" cy="446" fill="#ADD1B2" rx="11" ry="11" style="stroke: #A80036; stroke-width: 1.0;"/><path d="M235.2656,441.875 Q235.4219,441.6563 235.6094,441.5469 Q235.7969,441.4375 236.0156,441.4375 Q236.3906,441.4375 236.625,441.6953 Q236.8594,441.9531 236.8594,442.5625 L236.8594,444.0156 Q236.8594,444.625 236.625,444.8906 Q236.3906,445.1563 236.0156,445.1563 Q235.6719,445.1563 235.4688,444.9531 Q235.2656,444.7656 235.1563,444.25 Q235.1094,443.8906 234.9219,443.7031 Q234.5938,443.3281 233.9844,443.1094 Q233.375,442.8906 232.75,442.8906 Q231.9844,442.8906 231.3516,443.2188 Q230.7188,443.5469 230.2266,444.2969 Q229.7344,445.0469 229.7344,446.0781 L229.7344,447.1719 Q229.7344,448.4063 230.625,449.2266 Q231.5156,450.0469 233.1094,450.0469 Q234.0469,450.0469 234.7031,449.7969 Q235.0938,449.6406 235.5156,449.2031 Q235.7813,448.9375 235.9297,448.8594 Q236.0781,448.7813 236.2813,448.7813 Q236.6094,448.7813 236.8672,449.0391 Q237.125,449.2969 237.125,449.6406 Q237.125,449.9844 236.7813,450.3906 Q236.2813,450.9688 235.4844,451.2969 Q234.4063,451.75 233.1094,451.75 Q231.5938,451.75 230.3906,451.125 Q229.4063,450.625 228.7188,449.5547 Q228.0313,448.4844 228.0313,447.2031 L228.0313,446.0469 Q228.0313,444.7188 228.6484,443.5703 Q229.2656,442.4219 230.3594,441.8047 Q231.4531,441.1875 232.6875,441.1875 Q233.4219,441.1875 234.0703,441.3516 Q234.7188,441.5156 235.2656,441.875 Z "/><text fill="#000000" font-family="sans-serif" font-size="12" lengthAdjust="spacingAndGlyphs" textLength="87" x="246.5" y="450.9102">ServiceInstance</text><line style="stroke: #A80036; stroke-width: 1.5;" x1="218.5" x2="335.5" y1="462" y2="462"/><line style="stroke: #A80036; stroke-width: 1.5;" x1="218.5" x2="335.5" y1="470" y2="470"/><!--class i--><rect fill="#FEFECE" filter="url(#ft23qdtnkv2s9)" height="61.8359" id="i" style="stroke: #A80036; stroke-width: 1.5;" width="149" x="197.5" y="108"/><ellipse cx="215.2" cy="124" fill="#B4A7E5" rx="11" ry="11" style="stroke: #A80036; stroke-width: 1.0;"/><path d="M216.1531,120.6406 L216.1531,127.2969 L217.8719,127.2969 Q218.4813,127.2969 218.7469,127.5313 Q219.0125,127.7656 219.0125,128.1563 Q219.0125,128.5313 218.7469,128.7656 Q218.4813,129 217.8719,129 L212.7313,129 Q212.1219,129 211.8563,128.7656 Q211.5906,128.5313 211.5906,128.1406 Q211.5906,127.7656 211.8563,127.5313 Q212.1219,127.2969 212.7313,127.2969 L214.45,127.2969 L214.45,120.6406 L212.7313,120.6406 Q212.1219,120.6406 211.8563,120.4063 Q211.5906,120.1719 211.5906,119.7813 Q211.5906,119.4063 211.8563,119.1719 Q212.1219,118.9375 212.7313,118.9375 L217.8719,118.9375 Q218.4813,118.9375 218.7469,119.1719 Q219.0125,119.4063 219.0125,119.7813 Q219.0125,120.1719 218.7469,120.4063 Q218.4813,120.6406 217.8719,120.6406 L216.1531,120.6406 Z "/><text fill="#000000" font-family="sans-serif" font-size="12" font-style="italic" lengthAdjust="spacingAndGlyphs" textLength="111" x="229.8" y="128.9102">Service Orchestrator</text><line style="stroke: #A80036; stroke-width: 1.5;" x1="198.5" x2="345.5" y1="140" y2="140"/><line style="stroke: #A80036; stroke-width: 1.5;" x1="198.5" x2="345.5" y1="148" y2="148"/><text fill="#000000" font-family="sans-serif" font-size="11" lengthAdjust="spacingAndGlyphs" textLength="137" x="203.5" y="163.4189">/sabr/sml/so/service/ready()</text><!--class DockerProvisioner--><rect fill="#FEFECE" filter="url(#ft23qdtnkv2s9)" height="89.5078" id="DockerProvisioner" style="stroke: #A80036; stroke-width: 1.5;" width="133" x="38.5" y="238"/><ellipse cx="53.5" cy="254" fill="#ADD1B2" rx="11" ry="11" style="stroke: #A80036; stroke-width: 1.0;"/><path d="M56.2656,249.875 Q56.4219,249.6563 56.6094,249.5469 Q56.7969,249.4375 57.0156,249.4375 Q57.3906,249.4375 57.625,249.6953 Q57.8594,249.9531 57.8594,250.5625 L57.8594,252.0156 Q57.8594,252.625 57.625,252.8906 Q57.3906,253.1563 57.0156,253.1563 Q56.6719,253.1563 56.4688,252.9531 Q56.2656,252.7656 56.1563,252.25 Q56.1094,251.8906 55.9219,251.7031 Q55.5938,251.3281 54.9844,251.1094 Q54.375,250.8906 53.75,250.8906 Q52.9844,250.8906 52.3516,251.2188 Q51.7188,251.5469 51.2266,252.2969 Q50.7344,253.0469 50.7344,254.0781 L50.7344,255.1719 Q50.7344,256.4063 51.625,257.2266 Q52.5156,258.0469 54.1094,258.0469 Q55.0469,258.0469 55.7031,257.7969 Q56.0938,257.6406 56.5156,257.2031 Q56.7813,256.9375 56.9297,256.8594 Q57.0781,256.7813 57.2813,256.7813 Q57.6094,256.7813 57.8672,257.0391 Q58.125,257.2969 58.125,257.6406 Q58.125,257.9844 57.7813,258.3906 Q57.2813,258.9688 56.4844,259.2969 Q55.4063,259.75 54.1094,259.75 Q52.5938,259.75 51.3906,259.125 Q50.4063,258.625 49.7188,257.5547 Q49.0313,256.4844 49.0313,255.2031 L49.0313,254.0469 Q49.0313,252.7188 49.6484,251.5703 Q50.2656,250.4219 51.3594,249.8047 Q52.4531,249.1875 53.6875,249.1875 Q54.4219,249.1875 55.0703,249.3516 Q55.7188,249.5156 56.2656,249.875 Z "/><text fill="#000000" font-family="sans-serif" font-size="12" lengthAdjust="spacingAndGlyphs" textLength="101" x="67.5" y="258.9102">DockerProvisioner</text><line style="stroke: #A80036; stroke-width: 1.5;" x1="39.5" x2="170.5" y1="270" y2="270"/><text fill="#000000" font-family="sans-serif" font-size="11" lengthAdjust="spacingAndGlyphs" textLength="56" x="44.5" y="285.4189">string name</text><text fill="#000000" font-family="sans-serif" font-size="11" lengthAdjust="spacingAndGlyphs" textLength="53" x="44.5" y="299.2549">json config</text><line style="stroke: #A80036; stroke-width: 1.5;" x1="39.5" x2="170.5" y1="305.6719" y2="305.6719"/><text fill="#000000" font-family="sans-serif" font-size="11" lengthAdjust="spacingAndGlyphs" textLength="40" x="44.5" y="321.0908">deploy()</text><!--class Provisioner--><rect fill="#FEFECE" filter="url(#ft23qdtnkv2s9)" height="75.6719" id="Provisioner" style="stroke: #A80036; stroke-width: 1.5;" width="94" x="68" y="101"/><ellipse cx="83" cy="117" fill="#ADD1B2" rx="11" ry="11" style="stroke: #A80036; stroke-width: 1.0;"/><path d="M85.7656,112.875 Q85.9219,112.6563 86.1094,112.5469 Q86.2969,112.4375 86.5156,112.4375 Q86.8906,112.4375 87.125,112.6953 Q87.3594,112.9531 87.3594,113.5625 L87.3594,115.0156 Q87.3594,115.625 87.125,115.8906 Q86.8906,116.1563 86.5156,116.1563 Q86.1719,116.1563 85.9688,115.9531 Q85.7656,115.7656 85.6563,115.25 Q85.6094,114.8906 85.4219,114.7031 Q85.0938,114.3281 84.4844,114.1094 Q83.875,113.8906 83.25,113.8906 Q82.4844,113.8906 81.8516,114.2188 Q81.2188,114.5469 80.7266,115.2969 Q80.2344,116.0469 80.2344,117.0781 L80.2344,118.1719 Q80.2344,119.4063 81.125,120.2266 Q82.0156,121.0469 83.6094,121.0469 Q84.5469,121.0469 85.2031,120.7969 Q85.5938,120.6406 86.0156,120.2031 Q86.2813,119.9375 86.4297,119.8594 Q86.5781,119.7813 86.7813,119.7813 Q87.1094,119.7813 87.3672,120.0391 Q87.625,120.2969 87.625,120.6406 Q87.625,120.9844 87.2813,121.3906 Q86.7813,121.9688 85.9844,122.2969 Q84.9063,122.75 83.6094,122.75 Q82.0938,122.75 80.8906,122.125 Q79.9063,121.625 79.2188,120.5547 Q78.5313,119.4844 78.5313,118.2031 L78.5313,117.0469 Q78.5313,115.7188 79.1484,114.5703 Q79.7656,113.4219 80.8594,112.8047 Q81.9531,112.1875 83.1875,112.1875 Q83.9219,112.1875 84.5703,112.3516 Q85.2188,112.5156 85.7656,112.875 Z "/><text fill="#000000" font-family="sans-serif" font-size="12" lengthAdjust="spacingAndGlyphs" textLength="62" x="97" y="121.9102">Provisioner</text><line style="stroke: #A80036; stroke-width: 1.5;" x1="69" x2="161" y1="133" y2="133"/><text fill="#000000" font-family="sans-serif" font-size="11" lengthAdjust="spacingAndGlyphs" textLength="56" x="74" y="148.4189">string name</text><text fill="#000000" font-family="sans-serif" font-size="11" lengthAdjust="spacingAndGlyphs" textLength="53" x="74" y="162.2549">json config</text><line style="stroke: #A80036; stroke-width: 1.5;" x1="69" x2="161" y1="168.6719" y2="168.6719"/><!--class ProcessProvisioner--><rect fill="#FEFECE" filter="url(#ft23qdtnkv2s9)" height="89.5078" id="ProcessProvisioner" style="stroke: #A80036; stroke-width: 1.5;" width="140" x="207" y="238"/><ellipse cx="222" cy="254" fill="#ADD1B2" rx="11" ry="11" style="stroke: #A80036; stroke-width: 1.0;"/><path d="M224.7656,249.875 Q224.9219,249.6563 225.1094,249.5469 Q225.2969,249.4375 225.5156,249.4375 Q225.8906,249.4375 226.125,249.6953 Q226.3594,249.9531 226.3594,250.5625 L226.3594,252.0156 Q226.3594,252.625 226.125,252.8906 Q225.8906,253.1563 225.5156,253.1563 Q225.1719,253.1563 224.9688,252.9531 Q224.7656,252.7656 224.6563,252.25 Q224.6094,251.8906 224.4219,251.7031 Q224.0938,251.3281 223.4844,251.1094 Q222.875,250.8906 222.25,250.8906 Q221.4844,250.8906 220.8516,251.2188 Q220.2188,251.5469 219.7266,252.2969 Q219.2344,253.0469 219.2344,254.0781 L219.2344,255.1719 Q219.2344,256.4063 220.125,257.2266 Q221.0156,258.0469 222.6094,258.0469 Q223.5469,258.0469 224.2031,257.7969 Q224.5938,257.6406 225.0156,257.2031 Q225.2813,256.9375 225.4297,256.8594 Q225.5781,256.7813 225.7813,256.7813 Q226.1094,256.7813 226.3672,257.0391 Q226.625,257.2969 226.625,257.6406 Q226.625,257.9844 226.2813,258.3906 Q225.7813,258.9688 224.9844,259.2969 Q223.9063,259.75 222.6094,259.75 Q221.0938,259.75 219.8906,259.125 Q218.9063,258.625 218.2188,257.5547 Q217.5313,256.4844 217.5313,255.2031 L217.5313,254.0469 Q217.5313,252.7188 218.1484,251.5703 Q218.7656,250.4219 219.8594,249.8047 Q220.9531,249.1875 222.1875,249.1875 Q222.9219,249.1875 223.5703,249.3516 Q224.2188,249.5156 224.7656,249.875 Z "/><text fill="#000000" font-family="sans-serif" font-size="12" lengthAdjust="spacingAndGlyphs" textLength="108" x="236" y="258.9102">ProcessProvisioner</text><line style="stroke: #A80036; stroke-width: 1.5;" x1="208" x2="346" y1="270" y2="270"/><text fill="#000000" font-family="sans-serif" font-size="11" lengthAdjust="spacingAndGlyphs" textLength="56" x="213" y="285.4189">string name</text><text fill="#000000" font-family="sans-serif" font-size="11" lengthAdjust="spacingAndGlyphs" textLength="53" x="213" y="299.2549">json config</text><line style="stroke: #A80036; stroke-width: 1.5;" x1="208" x2="346" y1="305.6719" y2="305.6719"/><text fill="#000000" font-family="sans-serif" font-size="11" lengthAdjust="spacingAndGlyphs" textLength="40" x="213" y="321.0908">deploy()</text><ellipse cx="227" cy="13" fill="#FEFECE" filter="url(#ft23qdtnkv2s9)" rx="5" ry="5" style="stroke: #A80036; stroke-width: 1.5;"/><text fill="#000000" font-family="sans-serif" font-size="12" lengthAdjust="spacingAndGlyphs" textLength="19" x="217.5" y="30.457">CLI</text><ellipse cx="272" cy="13" fill="#FEFECE" filter="url(#ft23qdtnkv2s9)" rx="5" ry="5" style="stroke: #A80036; stroke-width: 1.5;"/><text fill="#000000" font-family="sans-serif" font-size="12" lengthAdjust="spacingAndGlyphs" textLength="32" x="256" y="30.457">REST</text><ellipse cx="317" cy="13" fill="#FEFECE" filter="url(#ft23qdtnkv2s9)" rx="5" ry="5" style="stroke: #A80036; stroke-width: 1.5;"/><text fill="#000000" font-family="sans-serif" font-size="12" lengthAdjust="spacingAndGlyphs" textLength="25" x="304.5" y="30.457">Web</text><!--link ilol5532 to i--><path d="M228.396,17.847 C233.262,31.255 249.789,76.795 261.039,107.795 " fill="none" id="ilol5532-i" style="stroke: #A80036; stroke-width: 1.0;"/><!--link ilol5536 to i--><path d="M272,18.126 C272,31.867 272,76.953 272,107.741 " fill="none" id="ilol5536-i" style="stroke: #A80036; stroke-width: 1.0;"/><!--link ilol5539 to i--><path d="M315.604,17.847 C310.738,31.255 294.211,76.795 282.961,107.795 " fill="none" id="ilol5539-i" style="stroke: #A80036; stroke-width: 1.0;"/><!--link DockerProvisioner to ServiceInstance--><path d="M159.738,337.783 C187.429,364.991 220.126,397.118 243.948,420.5248 " fill="none" id="DockerProvisioner-ServiceInstance" style="stroke: #A80036; stroke-width: 1.0;"/><polygon fill="#A80036" points="253.253,429.6676,249.6361,420.5069,249.6863,426.1636,244.0296,426.2137,253.253,429.6676" style="stroke: #A80036; stroke-width: 1.0;"/><line style="stroke: #A80036; stroke-width: 1.0;" x1="249.6863" x2="243.9805" y1="426.1636" y2="420.5565"/><polygon fill="#FFFFFF" points="150.191,328.403,151.6672,335.4614,158.7505,336.8134,157.2742,329.7551,150.191,328.403" style="stroke: #A80036; stroke-width: 1.0;"/><text fill="#000000" font-family="sans-serif" font-size="13" lengthAdjust="spacingAndGlyphs" textLength="47" x="198" y="374.4951">services</text><text fill="#000000" font-family="sans-serif" font-size="13" lengthAdjust="spacingAndGlyphs" textLength="7" x="239.6115" y="419.3245">n</text><!--link Provisioner to DockerProvisioner--><path d="M110.944,197.589 C109.998,211.027 109.005,225.131 108.107,237.879 " fill="none" id="Provisioner-DockerProvisioner" style="stroke: #A80036; stroke-width: 1.0;"/><polygon fill="none" points="103.9848,196.768,112.373,177.309,117.95,197.751,103.9848,196.768" style="stroke: #A80036; stroke-width: 1.0;"/><!--link ProcessProvisioner to ServiceInstance--><path d="M277,341.414 C277,366.306 277,394.706 277,416.6249 " fill="none" id="ProcessProvisioner-ServiceInstance" style="stroke: #A80036; stroke-width: 1.0;"/><polygon fill="#A80036" points="277,429.6676,281,420.6676,277,424.6676,273,420.6676,277,429.6676" style="stroke: #A80036; stroke-width: 1.0;"/><line style="stroke: #A80036; stroke-width: 1.0;" x1="277" x2="277" y1="424.6676" y2="416.6677"/><polygon fill="#FFFFFF" points="277,328.403,273,334.403,277,340.403,281,334.403,277,328.403" style="stroke: #A80036; stroke-width: 1.0;"/><text fill="#000000" font-family="sans-serif" font-size="13" lengthAdjust="spacingAndGlyphs" textLength="47" x="278" y="374.4951">services</text><text fill="#000000" font-family="sans-serif" font-size="13" lengthAdjust="spacingAndGlyphs" textLength="7" x="269.1469" y="419.3245">n</text><!--link Provisioner to ProcessProvisioner--><path d="M172.84,190.699 C190.43,206.118 209.611,222.931 226.665,237.879 " fill="none" id="Provisioner-ProcessProvisioner" style="stroke: #A80036; stroke-width: 1.0;"/><polygon fill="none" points="167.99,195.756,157.564,177.309,177.218,185.228,167.99,195.756" style="stroke: #A80036; stroke-width: 1.0;"/><!--link Provisioner to ServiceInstance--><path d="M173.836,174.157 C175.902,175.143 177.96,176.094 180,177 C259.123,212.144 314.264,167.848 365,238 C394.692,279.055 382.771,304.552 365,352 C354.997,378.707 334.386,403.002 315.625,421.0687 " fill="none" id="Provisioner-ServiceInstance" style="stroke: #A80036; stroke-width: 1.0;"/><polygon fill="#A80036" points="306.048,429.9282,315.3708,426.7524,309.7182,426.5327,309.9379,420.8801,306.048,429.9282" style="stroke: #A80036; stroke-width: 1.0;"/><line style="stroke: #A80036; stroke-width: 1.0;" x1="309.7182" x2="315.591" y1="426.5327" y2="421.1"/><polygon fill="#FFFFFF" points="162.004,168.197,165.5629,174.4687,172.721,173.5957,169.1621,167.324,162.004,168.197" style="stroke: #A80036; stroke-width: 1.0;"/><text fill="#000000" font-family="sans-serif" font-size="13" lengthAdjust="spacingAndGlyphs" textLength="47" x="384" y="288.4951">services</text><text fill="#000000" font-family="sans-serif" font-size="13" lengthAdjust="spacingAndGlyphs" textLength="7" x="305.5947" y="419.25">n</text><!--
@startuml


package "Application Manager" #00aaff {
    
        class ServiceInstance {
        }
    }


package "Service Orchestrator" #aaffaa {

    interface "Service Orchestrator" as i {
            /sabr/sml/so/service/ready()
    
    }
}

CLI ()- - i
REST ()- - i
Web ()- - i

package "Service Orchestrator" #aaffaa {
        class "DockerProvisioner" {
                 string name
                 json config
                             deploy()
            }
                DockerProvisioner o- -> "n" ServiceInstance : services
            
    
        Provisioner <|- - DockerProvisioner
    
    class "ProcessProvisioner" {
                 string name
                 json config
                             deploy()
            }
                ProcessProvisioner o- -> "n" ServiceInstance : services
            
    
        Provisioner <|- - ProcessProvisioner
    
    class "Provisioner" {
                 string name
                 json config
                    }
                Provisioner o- -> "n" ServiceInstance : services
            
    

}



@enduml

PlantUML version 1.2019.05(Sat Apr 20 09:45:36 PDT 2019)
(GPL source distribution)
Java Runtime: Java(TM) SE Runtime Environment
JVM: Java HotSpot(TM) Client VM
Java Version: 1.8.0_271-b09
Operating System: Windows 10
OS Version: 10.0
Default Encoding: Cp1252
Language: en
Country: US
--></g></svg>