<?xml version="1.0" encoding="us-ascii" standalone="no"?><svg xmlns="http://www.w3.org/2000/svg" xmlns:xlink="http://www.w3.org/1999/xlink" contentStyleType="text/css" height="517px" preserveAspectRatio="none" style="width:453px;height:517px;background:#FFFFFF;" version="1.1" viewBox="0 0 453 517" width="453px" zoomAndPan="magnify"><defs/><g><!--cluster Application Manager--><g id="cluster_Application Manager"><path d="M202.5,410 L347.5,410 A3.75,3.75 0 0 1 350,412.5 L357,433.6094 L361.5,433.6094 A2.5,2.5 0 0 1 364,436.1094 L364,507.5 A2.5,2.5 0 0 1 361.5,510 L202.5,510 A2.5,2.5 0 0 1 200,507.5 L200,412.5 A2.5,2.5 0 0 1 202.5,410 " fill="#00AAFF" style="stroke:#000000;stroke-width:1.5;"/><line style="stroke:#000000;stroke-width:1.5;" x1="200" x2="357" y1="433.6094" y2="433.6094"/><text fill="#000000" font-family="sans-serif" font-size="14" font-weight="bold" lengthAdjust="spacing" textLength="144" x="204" y="426.5332">Application Manager</text></g><!--cluster Service Orchestrator--><g id="cluster_Service Orchestrator"><path d="M8.5,63 L157.5,63 A3.75,3.75 0 0 1 160,65.5 L167,86.6094 L372.5,86.6094 A2.5,2.5 0 0 1 375,89.1094 L375,357.5 A2.5,2.5 0 0 1 372.5,360 L8.5,360 A2.5,2.5 0 0 1 6,357.5 L6,65.5 A2.5,2.5 0 0 1 8.5,63 " fill="#AAFFAA" style="stroke:#000000;stroke-width:1.5;"/><line style="stroke:#000000;stroke-width:1.5;" x1="6" x2="167" y1="86.6094" y2="86.6094"/><text fill="#000000" font-family="sans-serif" font-size="14" font-weight="bold" lengthAdjust="spacing" textLength="148" x="10" y="79.5332">Service Orchestrator</text></g><!--class ServiceInstance--><g id="elem_ServiceInstance"><rect codeLine="5" fill="#F1F1F1" height="48" id="ServiceInstance" rx="2.5" ry="2.5" style="stroke:#181818;stroke-width:0.5;" width="132" x="216" y="446"/><ellipse cx="231" cy="462" fill="#ADD1B2" rx="11" ry="11" style="stroke:#181818;stroke-width:1.0;"/><path d="M233.7656,457.875 Q233.9219,457.6563 234.1094,457.5469 Q234.2969,457.4375 234.5156,457.4375 Q234.8906,457.4375 235.125,457.6953 Q235.3594,457.9531 235.3594,458.5625 L235.3594,460.0156 Q235.3594,460.625 235.125,460.8906 Q234.8906,461.1563 234.5156,461.1563 Q234.1719,461.1563 233.9688,460.9531 Q233.7656,460.7656 233.6563,460.25 Q233.6094,459.8906 233.4219,459.7031 Q233.0938,459.3281 232.4844,459.1094 Q231.875,458.8906 231.25,458.8906 Q230.4844,458.8906 229.8516,459.2188 Q229.2188,459.5469 228.7266,460.2969 Q228.2344,461.0469 228.2344,462.0781 L228.2344,463.1719 Q228.2344,464.4063 229.125,465.2266 Q230.0156,466.0469 231.6094,466.0469 Q232.5469,466.0469 233.2031,465.7969 Q233.5938,465.6406 234.0156,465.2031 Q234.2813,464.9375 234.4297,464.8594 Q234.5781,464.7813 234.7813,464.7813 Q235.1094,464.7813 235.3672,465.0391 Q235.625,465.2969 235.625,465.6406 Q235.625,465.9844 235.2813,466.3906 Q234.7813,466.9688 233.9844,467.2969 Q232.9063,467.75 231.6094,467.75 Q230.0938,467.75 228.8906,467.125 Q227.9063,466.625 227.2188,465.5547 Q226.5313,464.4844 226.5313,463.2031 L226.5313,462.0469 Q226.5313,460.7188 227.1484,459.5703 Q227.7656,458.4219 228.8594,457.8047 Q229.9531,457.1875 231.1875,457.1875 Q231.9219,457.1875 232.5703,457.3516 Q233.2188,457.5156 233.7656,457.875 Z " fill="#000000"/><text fill="#000000" font-family="sans-serif" font-size="14" lengthAdjust="spacing" textLength="100" x="245" y="467.7285">ServiceInstance</text><line style="stroke:#181818;stroke-width:0.5;" x1="217" x2="347" y1="478" y2="478"/><line style="stroke:#181818;stroke-width:0.5;" x1="217" x2="347" y1="486" y2="486"/></g><!--class i--><g id="elem_i"><rect codeLine="12" fill="#F1F1F1" height="65.6094" id="i" rx="2.5" ry="2.5" style="stroke:#181818;stroke-width:0.5;" width="187" x="171.5" y="107.5"/><ellipse cx="197.75" cy="123.5" fill="#B4A7E5" rx="11" ry="11" style="stroke:#181818;stroke-width:1.0;"/><path d="M198.7031,120.1406 L198.7031,126.7969 L200.4219,126.7969 Q201.0313,126.7969 201.2969,127.0313 Q201.5625,127.2656 201.5625,127.6563 Q201.5625,128.0313 201.2969,128.2656 Q201.0313,128.5 200.4219,128.5 L195.2813,128.5 Q194.6719,128.5 194.4063,128.2656 Q194.1406,128.0313 194.1406,127.6406 Q194.1406,127.2656 194.4063,127.0313 Q194.6719,126.7969 195.2813,126.7969 L197,126.7969 L197,120.1406 L195.2813,120.1406 Q194.6719,120.1406 194.4063,119.9063 Q194.1406,119.6719 194.1406,119.2813 Q194.1406,118.9063 194.4063,118.6719 Q194.6719,118.4375 195.2813,118.4375 L200.4219,118.4375 Q201.0313,118.4375 201.2969,118.6719 Q201.5625,118.9063 201.5625,119.2813 Q201.5625,119.6719 201.2969,119.9063 Q201.0313,120.1406 200.4219,120.1406 L198.7031,120.1406 Z " fill="#000000"/><text fill="#000000" font-family="sans-serif" font-size="14" font-style="italic" lengthAdjust="spacing" textLength="130" x="214.25" y="129.2285">Service Orchestrator</text><line style="stroke:#181818;stroke-width:0.5;" x1="172.5" x2="357.5" y1="139.5" y2="139.5"/><line style="stroke:#181818;stroke-width:0.5;" x1="172.5" x2="357.5" y1="147.5" y2="147.5"/><text fill="#000000" font-family="sans-serif" font-size="14" lengthAdjust="spacing" textLength="175" x="177.5" y="166.0332">/sabr/sml/so/service/ready()</text></g><!--class DockerProvisioner--><g id="elem_DockerProvisioner"><rect codeLine="23" fill="#F1F1F1" height="100.8281" id="DockerProvisioner" rx="2.5" ry="2.5" style="stroke:#181818;stroke-width:0.5;" width="148" x="22" y="243"/><ellipse cx="37" cy="259" fill="#ADD1B2" rx="11" ry="11" style="stroke:#181818;stroke-width:1.0;"/><path d="M39.7656,254.875 Q39.9219,254.6563 40.1094,254.5469 Q40.2969,254.4375 40.5156,254.4375 Q40.8906,254.4375 41.125,254.6953 Q41.3594,254.9531 41.3594,255.5625 L41.3594,257.0156 Q41.3594,257.625 41.125,257.8906 Q40.8906,258.1563 40.5156,258.1563 Q40.1719,258.1563 39.9688,257.9531 Q39.7656,257.7656 39.6563,257.25 Q39.6094,256.8906 39.4219,256.7031 Q39.0938,256.3281 38.4844,256.1094 Q37.875,255.8906 37.25,255.8906 Q36.4844,255.8906 35.8516,256.2188 Q35.2188,256.5469 34.7266,257.2969 Q34.2344,258.0469 34.2344,259.0781 L34.2344,260.1719 Q34.2344,261.4063 35.125,262.2266 Q36.0156,263.0469 37.6094,263.0469 Q38.5469,263.0469 39.2031,262.7969 Q39.5938,262.6406 40.0156,262.2031 Q40.2813,261.9375 40.4297,261.8594 Q40.5781,261.7813 40.7813,261.7813 Q41.1094,261.7813 41.3672,262.0391 Q41.625,262.2969 41.625,262.6406 Q41.625,262.9844 41.2813,263.3906 Q40.7813,263.9688 39.9844,264.2969 Q38.9063,264.75 37.6094,264.75 Q36.0938,264.75 34.8906,264.125 Q33.9063,263.625 33.2188,262.5547 Q32.5313,261.4844 32.5313,260.2031 L32.5313,259.0469 Q32.5313,257.7188 33.1484,256.5703 Q33.7656,255.4219 34.8594,254.8047 Q35.9531,254.1875 37.1875,254.1875 Q37.9219,254.1875 38.5703,254.3516 Q39.2188,254.5156 39.7656,254.875 Z " fill="#000000"/><text fill="#000000" font-family="sans-serif" font-size="14" lengthAdjust="spacing" textLength="116" x="51" y="264.7285">DockerProvisioner</text><line style="stroke:#181818;stroke-width:0.5;" x1="23" x2="169" y1="275" y2="275"/><text fill="#000000" font-family="sans-serif" font-size="14" lengthAdjust="spacing" textLength="74" x="28" y="293.5332">string name</text><text fill="#000000" font-family="sans-serif" font-size="14" lengthAdjust="spacing" textLength="68" x="28" y="311.1426">json config</text><line style="stroke:#181818;stroke-width:0.5;" x1="23" x2="169" y1="318.2188" y2="318.2188"/><text fill="#000000" font-family="sans-serif" font-size="14" lengthAdjust="spacing" textLength="52" x="28" y="336.752">deploy()</text></g><!--class Provisioner--><g id="elem_Provisioner"><rect codeLine="43" fill="#F1F1F1" height="83.2188" id="Provisioner" rx="2.5" ry="2.5" style="stroke:#181818;stroke-width:0.5;" width="103" x="33.5" y="99"/><ellipse cx="48.5" cy="115" fill="#ADD1B2" rx="11" ry="11" style="stroke:#181818;stroke-width:1.0;"/><path d="M51.2656,110.875 Q51.4219,110.6563 51.6094,110.5469 Q51.7969,110.4375 52.0156,110.4375 Q52.3906,110.4375 52.625,110.6953 Q52.8594,110.9531 52.8594,111.5625 L52.8594,113.0156 Q52.8594,113.625 52.625,113.8906 Q52.3906,114.1563 52.0156,114.1563 Q51.6719,114.1563 51.4688,113.9531 Q51.2656,113.7656 51.1563,113.25 Q51.1094,112.8906 50.9219,112.7031 Q50.5938,112.3281 49.9844,112.1094 Q49.375,111.8906 48.75,111.8906 Q47.9844,111.8906 47.3516,112.2188 Q46.7188,112.5469 46.2266,113.2969 Q45.7344,114.0469 45.7344,115.0781 L45.7344,116.1719 Q45.7344,117.4063 46.625,118.2266 Q47.5156,119.0469 49.1094,119.0469 Q50.0469,119.0469 50.7031,118.7969 Q51.0938,118.6406 51.5156,118.2031 Q51.7813,117.9375 51.9297,117.8594 Q52.0781,117.7813 52.2813,117.7813 Q52.6094,117.7813 52.8672,118.0391 Q53.125,118.2969 53.125,118.6406 Q53.125,118.9844 52.7813,119.3906 Q52.2813,119.9688 51.4844,120.2969 Q50.4063,120.75 49.1094,120.75 Q47.5938,120.75 46.3906,120.125 Q45.4063,119.625 44.7188,118.5547 Q44.0313,117.4844 44.0313,116.2031 L44.0313,115.0469 Q44.0313,113.7188 44.6484,112.5703 Q45.2656,111.4219 46.3594,110.8047 Q47.4531,110.1875 48.6875,110.1875 Q49.4219,110.1875 50.0703,110.3516 Q50.7188,110.5156 51.2656,110.875 Z " fill="#000000"/><text fill="#000000" font-family="sans-serif" font-size="14" lengthAdjust="spacing" textLength="71" x="62.5" y="120.7285">Provisioner</text><line style="stroke:#181818;stroke-width:0.5;" x1="34.5" x2="135.5" y1="131" y2="131"/><text fill="#000000" font-family="sans-serif" font-size="14" lengthAdjust="spacing" textLength="74" x="39.5" y="149.5332">string name</text><text fill="#000000" font-family="sans-serif" font-size="14" lengthAdjust="spacing" textLength="68" x="39.5" y="167.1426">json config</text><line style="stroke:#181818;stroke-width:0.5;" x1="34.5" x2="135.5" y1="174.2188" y2="174.2188"/></g><!--class ProcessProvisioner--><g id="elem_ProcessProvisioner"><rect codeLine="33" fill="#F1F1F1" height="100.8281" id="ProcessProvisioner" rx="2.5" ry="2.5" style="stroke:#181818;stroke-width:0.5;" width="154" x="205" y="243"/><ellipse cx="220" cy="259" fill="#ADD1B2" rx="11" ry="11" style="stroke:#181818;stroke-width:1.0;"/><path d="M222.7656,254.875 Q222.9219,254.6563 223.1094,254.5469 Q223.2969,254.4375 223.5156,254.4375 Q223.8906,254.4375 224.125,254.6953 Q224.3594,254.9531 224.3594,255.5625 L224.3594,257.0156 Q224.3594,257.625 224.125,257.8906 Q223.8906,258.1563 223.5156,258.1563 Q223.1719,258.1563 222.9688,257.9531 Q222.7656,257.7656 222.6563,257.25 Q222.6094,256.8906 222.4219,256.7031 Q222.0938,256.3281 221.4844,256.1094 Q220.875,255.8906 220.25,255.8906 Q219.4844,255.8906 218.8516,256.2188 Q218.2188,256.5469 217.7266,257.2969 Q217.2344,258.0469 217.2344,259.0781 L217.2344,260.1719 Q217.2344,261.4063 218.125,262.2266 Q219.0156,263.0469 220.6094,263.0469 Q221.5469,263.0469 222.2031,262.7969 Q222.5938,262.6406 223.0156,262.2031 Q223.2813,261.9375 223.4297,261.8594 Q223.5781,261.7813 223.7813,261.7813 Q224.1094,261.7813 224.3672,262.0391 Q224.625,262.2969 224.625,262.6406 Q224.625,262.9844 224.2813,263.3906 Q223.7813,263.9688 222.9844,264.2969 Q221.9063,264.75 220.6094,264.75 Q219.0938,264.75 217.8906,264.125 Q216.9063,263.625 216.2188,262.5547 Q215.5313,261.4844 215.5313,260.2031 L215.5313,259.0469 Q215.5313,257.7188 216.1484,256.5703 Q216.7656,255.4219 217.8594,254.8047 Q218.9531,254.1875 220.1875,254.1875 Q220.9219,254.1875 221.5703,254.3516 Q222.2188,254.5156 222.7656,254.875 Z " fill="#000000"/><text fill="#000000" font-family="sans-serif" font-size="14" lengthAdjust="spacing" textLength="122" x="234" y="264.7285">ProcessProvisioner</text><line style="stroke:#181818;stroke-width:0.5;" x1="206" x2="358" y1="275" y2="275"/><text fill="#000000" font-family="sans-serif" font-size="14" lengthAdjust="spacing" textLength="74" x="211" y="293.5332">string name</text><text fill="#000000" font-family="sans-serif" font-size="14" lengthAdjust="spacing" textLength="68" x="211" y="311.1426">json config</text><line style="stroke:#181818;stroke-width:0.5;" x1="206" x2="358" y1="318.2188" y2="318.2188"/><text fill="#000000" font-family="sans-serif" font-size="14" lengthAdjust="spacing" textLength="52" x="211" y="336.752">deploy()</text></g><g id="elem_ilol6"><ellipse cx="220" cy="11" fill="#F1F1F1" rx="5" ry="5" style="stroke:#181818;stroke-width:1.5;"/></g><text fill="#000000" font-family="sans-serif" font-size="14" lengthAdjust="spacing" textLength="21" x="209.5" y="30.5332">CLI</text><g id="elem_ilol9"><ellipse cx="265" cy="11" fill="#F1F1F1" rx="5" ry="5" style="stroke:#181818;stroke-width:1.5;"/></g><text fill="#000000" font-family="sans-serif" font-size="14" lengthAdjust="spacing" textLength="37" x="246.5" y="30.5332">REST</text><g id="elem_ilol12"><ellipse cx="310" cy="11" fill="#F1F1F1" rx="5" ry="5" style="stroke:#181818;stroke-width:1.5;"/></g><text fill="#000000" font-family="sans-serif" font-size="14" lengthAdjust="spacing" textLength="29" x="295.5" y="30.5332">Web</text><!--link ilol6 to i--><g id="link_ilol6_i"><path d="M221.4,15.96 C226.2,29.57 242.39,75.43 253.62,107.27 " fill="none" id="ilol6-i" style="stroke:#181818;stroke-width:1.0;"/></g><!--link ilol9 to i--><g id="link_ilol9_i"><path d="M265,16.24 C265,30.2 265,75.6 265,107.22 " fill="none" id="ilol9-i" style="stroke:#181818;stroke-width:1.0;"/></g><!--link ilol12 to i--><g id="link_ilol12_i"><path d="M308.6,15.96 C303.8,29.57 287.61,75.43 276.38,107.27 " fill="none" id="ilol12-i" style="stroke:#181818;stroke-width:1.0;"/></g><!--link DockerProvisioner to ServiceInstance--><g id="link_DockerProvisioner_ServiceInstance"><path codeLine="28" d="M157.5521,352.2497 C193.2121,385.6997 225.5044,415.9946 253.0344,441.8246 " fill="none" id="DockerProvisioner-ServiceInstance" style="stroke:#181818;stroke-width:1.0;"/><polygon fill="none" points="148.8,344.04,150.4395,351.0623,157.5521,352.2497,155.9127,345.2275,148.8,344.04" style="stroke:#181818;stroke-width:1.0;"/><polygon fill="#181818" points="257.41,445.93,253.5835,436.8549,253.7637,442.5088,248.1097,442.689,257.41,445.93" style="stroke:#181818;stroke-width:1.0;"/><text fill="#000000" font-family="sans-serif" font-size="13" lengthAdjust="spacing" textLength="47" x="202" y="390.4951">services</text><text fill="#000000" font-family="sans-serif" font-size="13" lengthAdjust="spacing" textLength="7" x="243.2119" y="435.2522">n</text></g><!--reverse link Provisioner to DockerProvisioner--><g id="link_Provisioner_DockerProvisioner"><path codeLine="31" d="M89.2863,200.3125 C90.6463,219.0025 90.96,223.36 92.39,243 " fill="none" id="Provisioner-backto-DockerProvisioner" style="stroke:#181818;stroke-width:1.0;"/><polygon fill="none" points="87.98,182.36,83.3022,200.748,95.2705,199.8771,87.98,182.36" style="stroke:#181818;stroke-width:1.0;"/></g><!--link ProcessProvisioner to ServiceInstance--><g id="link_ProcessProvisioner_ServiceInstance"><path codeLine="38" d="M282,356.04 C282,389.49 282,414.1 282,439.93 " fill="none" id="ProcessProvisioner-ServiceInstance" style="stroke:#181818;stroke-width:1.0;"/><polygon fill="none" points="282,344.04,278,350.04,282,356.04,286,350.04,282,344.04" style="stroke:#181818;stroke-width:1.0;"/><polygon fill="#181818" points="282,445.93,286,436.93,282,440.93,278,436.93,282,445.93" style="stroke:#181818;stroke-width:1.0;"/><text fill="#000000" font-family="sans-serif" font-size="13" lengthAdjust="spacing" textLength="47" x="283" y="390.4951">services</text><text fill="#000000" font-family="sans-serif" font-size="13" lengthAdjust="spacing" textLength="7" x="274.1031" y="435.2522">n</text></g><!--reverse link Provisioner to ProcessProvisioner--><g id="link_Provisioner_ProcessProvisioner"><path codeLine="41" d="M150.787,191.9291 C175.527,210.8891 191.15,222.86 217.39,242.98 " fill="none" id="Provisioner-backto-ProcessProvisioner" style="stroke:#181818;stroke-width:1.0;"/><polygon fill="none" points="136.5,180.98,147.1373,196.6914,154.4367,187.1668,136.5,180.98" style="stroke:#181818;stroke-width:1.0;"/></g><!--link Provisioner to ServiceInstance--><g id="link_Provisioner_ServiceInstance"><path codeLine="47" d="M147.2454,179.2977 C153.0054,182.3077 148.24,179.57 154,182 C248.69,221.91 314.66,161.32 377,243 C410.71,287.16 397.47,316.35 377,368 C364.4,399.78 341.1911,423.5773 318.8811,441.8573 " fill="none" id="Provisioner-ServiceInstance" style="stroke:#181818;stroke-width:1.0;"/><polygon fill="none" points="136.61,173.74,140.0751,180.064,147.2454,179.2977,143.7803,172.9737,136.61,173.74" style="stroke:#181818;stroke-width:1.0;"/><polygon fill="#181818" points="314.24,445.66,323.7367,443.05,318.1075,442.4911,318.6664,436.8619,314.24,445.66" style="stroke:#181818;stroke-width:1.0;"/><text fill="#000000" font-family="sans-serif" font-size="13" lengthAdjust="spacing" textLength="47" x="398" y="298.9951">services</text><text fill="#000000" font-family="sans-serif" font-size="13" lengthAdjust="spacing" textLength="7" x="314.2454" y="435.3151">n</text></g><!--SRC=[pPF1IWCn48RlUOfXlRI79JsB2A8U2efY1S_JT7QDtIOX4mgYVNUJxIxT9HK4A_WVGjYP-MVc2-jGhR4cAAwSQxJ2eAs1UpJnco_WR3P3h2hu413L7acgGMPOaDzgHNF30OsYBYbf9_Qd4AwtxvBXmQjNuk0nsEIVt15ZQLkXJI1VeVes7ndqe4-IP5nwoPj6ifMyhvAUSFK-cHwcteaupVNT72RJiWGjdcuNp_tzXPRzzUVpZb4KDrQjoJzwkzKS2IPsup5RHHzjQZ2ueJpunf6yigRITHuSQaMkiVrsO-H3PIE1BSjBA4oHlTmvTE1uv39-zA7JnMV4bJKuv7TKOYnwyh_2aizqQYvvXsDW_ex8qPr_kMpwVSGN]--></g></svg>