<?xml version="1.0" encoding="us-ascii" standalone="no"?><svg xmlns="http://www.w3.org/2000/svg" xmlns:xlink="http://www.w3.org/1999/xlink" contentStyleType="text/css" height="347px" preserveAspectRatio="none" style="width:168px;height:347px;background:#FFFFFF;" version="1.1" viewBox="0 0 168 347" width="168px" zoomAndPan="magnify"><defs/><g><path d="M34,142.5 L128,142.5 A12.5,12.5 0 0 1 140.5,155 L140.5,170.1094 L21.5,170.1094 L21.5,155 A12.5,12.5 0 0 1 34,142.5 " fill="#90EE90" style="stroke:#90EE90;stroke-width:1.0;"/><rect fill="none" height="198.8281" rx="12.5" ry="12.5" style="stroke:#181818;stroke-width:0.5;" width="119" x="21.5" y="142.5"/><line style="stroke:#181818;stroke-width:0.5;" x1="21.5" x2="140.5" y1="170.1094" y2="170.1094"/><text fill="#000000" font-family="sans-serif" font-size="14" lengthAdjust="spacing" textLength="21" x="70.5" y="162.0332">sml</text><path d="M46,182.1094 L119,182.1094 A12.5,12.5 0 0 1 131.5,194.6094 L131.5,209.7188 L33.5,209.7188 L33.5,194.6094 A12.5,12.5 0 0 1 46,182.1094 " fill="#AAFFAA" style="stroke:#AAFFAA;stroke-width:1.0;"/><rect fill="none" height="149.2188" rx="12.5" ry="12.5" style="stroke:#181818;stroke-width:0.5;" width="98" x="33.5" y="182.1094"/><line style="stroke:#181818;stroke-width:0.5;" x1="33.5" x2="131.5" y1="209.7188" y2="209.7188"/><text fill="#000000" font-family="sans-serif" font-size="14" lengthAdjust="spacing" textLength="15" x="75" y="201.6426">so</text><path d="M58,221.7188 L110,221.7188 A12.5,12.5 0 0 1 122.5,234.2188 L122.5,249.3281 L45.5,249.3281 L45.5,234.2188 A12.5,12.5 0 0 1 58,221.7188 " fill="#AAFFAA" style="stroke:#AAFFAA;stroke-width:1.0;"/><rect fill="none" height="99.6094" rx="12.5" ry="12.5" style="stroke:#181818;stroke-width:0.5;" width="77" x="45.5" y="221.7188"/><line style="stroke:#181818;stroke-width:0.5;" x1="45.5" x2="122.5" y1="249.3281" y2="249.3281"/><text fill="#000000" font-family="sans-serif" font-size="14" lengthAdjust="spacing" textLength="45" x="61.5" y="241.252">service</text><g id="sml.smlso.smlsoservice.smlsoserviceready"><rect fill="#AAFFAA" height="50" rx="12.5" ry="12.5" style="stroke:#181818;stroke-width:0.5;" width="56" x="57.5" y="261.3281"/><line style="stroke:#181818;stroke-width:0.5;" x1="57.5" x2="113.5" y1="288.9375" y2="288.9375"/><text fill="#000000" font-family="sans-serif" font-size="14" lengthAdjust="spacing" textLength="36" x="67.5" y="280.8613">ready</text></g><path d="M19.5,7 L142.5,7 A12.5,12.5 0 0 1 155,19.5 L155,34.6094 L7,34.6094 L7,19.5 A12.5,12.5 0 0 1 19.5,7 " fill="#AAFFAA" style="stroke:#AAFFAA;stroke-width:1.0;"/><rect fill="none" height="99.6094" rx="12.5" ry="12.5" style="stroke:#181818;stroke-width:0.5;" width="148" x="7" y="7"/><line style="stroke:#181818;stroke-width:0.5;" x1="7" x2="155" y1="34.6094" y2="34.6094"/><text fill="#000000" font-family="sans-serif" font-size="14" lengthAdjust="spacing" textLength="36" x="63" y="26.5332">smlso</text><g id="pstatename.sofunction"><rect fill="#F1F1F1" height="50" rx="12.5" ry="12.5" style="stroke:#181818;stroke-width:0.5;" width="127" x="19" y="46.6094"/><line style="stroke:#181818;stroke-width:0.5;" x1="19" x2="146" y1="74.2188" y2="74.2188"/><text fill="#000000" font-family="sans-serif" font-size="14" lengthAdjust="spacing" textLength="107" x="29" y="66.1426">Custom Function</text></g><!--SRC=[fP1H2i8m44J_SugXFOhWFPPsKmDDLfAj8EBTZUbMY_rqyX5svZ5iChDNg227wQ8OG-P1WoJdN55IHbVYt84Awer-VbDJPavuV03PyYBeYRmdgkcpdds9OTVc98gyOr5bv6afAX7d9RKzrchnDXhRkc7wSyyjvNmB0tyHCuvaPXhl1wwvFyzVlw3g1G00]--></g></svg>