<?xml version="1.0" encoding="UTF-8" standalone="no"?><svg xmlns="http://www.w3.org/2000/svg" xmlns:xlink="http://www.w3.org/1999/xlink" contentScriptType="application/ecmascript" contentStyleType="text/css" height="284px" preserveAspectRatio="none" style="width:351px;height:284px;" version="1.1" viewBox="0 0 351 284" width="351px" zoomAndPan="magnify"><defs><filter height="300%" id="f107eaqpfoxsni" width="300%" x="-1" y="-1"><feGaussianBlur result="blurOut" stdDeviation="2.0"/><feColorMatrix in="blurOut" result="blurOut2" type="matrix" values="0 0 0 0 0 0 0 0 0 0 0 0 0 0 0 0 0 0 .4 0"/><feOffset dx="4.0" dy="4.0" in="blurOut2" result="blurOut3"/><feBlend in="SourceGraphic" in2="blurOut3" mode="normal"/></filter></defs><g><!--cluster sabr--><polygon fill="#FFFFFF" filter="url(#f107eaqpfoxsni)" points="22,24,59,24,66,47.6094,329,47.6094,329,272,22,272,22,24" style="stroke: #000000; stroke-width: 1.5;"/><line style="stroke: #000000; stroke-width: 1.5;" x1="22" x2="66" y1="47.6094" y2="47.6094"/><text fill="#000000" font-family="sans-serif" font-size="14" font-weight="bold" lengthAdjust="spacingAndGlyphs" textLength="31" x="26" y="40.5332">sabr</text><!--cluster sabrsml--><polygon fill="#FFFFFF" filter="url(#f107eaqpfoxsni)" points="46,68,76,68,83,91.6094,305,91.6094,305,248,46,248,46,68" style="stroke: #000000; stroke-width: 1.5;"/><line style="stroke: #000000; stroke-width: 1.5;" x1="46" x2="83" y1="91.6094" y2="91.6094"/><text fill="#000000" font-family="sans-serif" font-size="14" font-weight="bold" lengthAdjust="spacingAndGlyphs" textLength="24" x="50" y="84.5332">sml</text><!--cluster sabrsmlso--><polygon fill="#AAFFAA" filter="url(#f107eaqpfoxsni)" points="70,112,93,112,100,135.6094,281,135.6094,281,224,70,224,70,112" style="stroke: #000000; stroke-width: 1.5;"/><line style="stroke: #000000; stroke-width: 1.5;" x1="70" x2="100" y1="135.6094" y2="135.6094"/><text fill="#000000" font-family="sans-serif" font-size="14" font-weight="bold" lengthAdjust="spacingAndGlyphs" textLength="17" x="74" y="128.5332">so</text><!--entity sabrsmlsoservice--><rect fill="#FEFECE" filter="url(#f107eaqpfoxsni)" height="37.6094" style="stroke: #A80036; stroke-width: 1.5;" width="65" x="86" y="159"/><rect fill="#FEFECE" height="5" style="stroke: #A80036; stroke-width: 1.5;" width="10" x="81" y="164"/><rect fill="#FEFECE" height="5" style="stroke: #A80036; stroke-width: 1.5;" width="10" x="81" y="186.6094"/><text fill="#000000" font-family="sans-serif" font-size="14" lengthAdjust="spacingAndGlyphs" textLength="45" x="96" y="183.5332">service</text><!--entity sabrsmlsoserviceready--><ellipse cx="238" cy="178" fill="#FEFECE" filter="url(#f107eaqpfoxsni)" rx="8" ry="8" style="stroke: #A80036; stroke-width: 2.0;"/><text fill="#000000" font-family="sans-serif" font-size="14" lengthAdjust="spacingAndGlyphs" textLength="36" x="220" y="209.5332">ready</text><!--link sabrsmlsoservice to sabrsmlsoserviceready--><path d="M151.297,178 C177.668,178 213.288,178 228.995,178 " fill="none" id="sabrsmlsoservice-sabrsmlsoserviceready" style="stroke: #A80036; stroke-width: 1.0;"/><!--
@startuml
left to right direction


    package "sabr" as sabr {
package "sml" as sabrsml {
package "so" as sabrsmlso #aaffaa {
 component "service" as sabrsmlsoservice
 interface "ready" as sabrsmlsoserviceready
sabrsmlsoservice - - sabrsmlsoserviceready
}
}
}

    
















@enduml

PlantUML version 1.2019.05(Sat Apr 20 09:45:36 PDT 2019)
(GPL source distribution)
Java Runtime: Java(TM) SE Runtime Environment
JVM: Java HotSpot(TM) Client VM
Java Version: 1.8.0_271-b09
Operating System: Windows 10
OS Version: 10.0
Default Encoding: Cp1252
Language: en
Country: US
--></g></svg>