<?xml version="1.0" encoding="us-ascii" standalone="no"?><svg xmlns="http://www.w3.org/2000/svg" xmlns:xlink="http://www.w3.org/1999/xlink" contentStyleType="text/css" height="261px" preserveAspectRatio="none" style="width:340px;height:261px;background:#FFFFFF;" version="1.1" viewBox="0 0 340 261" width="340px" zoomAndPan="magnify"><defs/><g><!--cluster sabr--><g id="cluster_sabr"><path d="M8.5,6 L40.5,6 A3.75,3.75 0 0 1 43,8.5 L50,29.6094 L330.5,29.6094 A2.5,2.5 0 0 1 333,32.1094 L333,251.5 A2.5,2.5 0 0 1 330.5,254 L8.5,254 A2.5,2.5 0 0 1 6,251.5 L6,8.5 A2.5,2.5 0 0 1 8.5,6 " fill="none" style="stroke:#000000;stroke-width:1.5;"/><line style="stroke:#000000;stroke-width:1.5;" x1="6" x2="50" y1="29.6094" y2="29.6094"/><text fill="#000000" font-family="sans-serif" font-size="14" font-weight="bold" lengthAdjust="spacing" textLength="31" x="10" y="22.5332">sabr</text></g><!--cluster sabrsml--><g id="cluster_sabrsml"><path d="M32.5,50 L57.5,50 A3.75,3.75 0 0 1 60,52.5 L67,73.6094 L306.5,73.6094 A2.5,2.5 0 0 1 309,76.1094 L309,227.5 A2.5,2.5 0 0 1 306.5,230 L32.5,230 A2.5,2.5 0 0 1 30,227.5 L30,52.5 A2.5,2.5 0 0 1 32.5,50 " fill="none" style="stroke:#000000;stroke-width:1.5;"/><line style="stroke:#000000;stroke-width:1.5;" x1="30" x2="67" y1="73.6094" y2="73.6094"/><text fill="#000000" font-family="sans-serif" font-size="14" font-weight="bold" lengthAdjust="spacing" textLength="24" x="34" y="66.5332">sml</text></g><!--cluster sabrsmlso--><g id="cluster_sabrsmlso"><path d="M56.5,94 L74.5,94 A3.75,3.75 0 0 1 77,96.5 L84,117.6094 L282.5,117.6094 A2.5,2.5 0 0 1 285,120.1094 L285,203.5 A2.5,2.5 0 0 1 282.5,206 L56.5,206 A2.5,2.5 0 0 1 54,203.5 L54,96.5 A2.5,2.5 0 0 1 56.5,94 " fill="#AAFFAA" style="stroke:#000000;stroke-width:1.5;"/><line style="stroke:#000000;stroke-width:1.5;" x1="54" x2="84" y1="117.6094" y2="117.6094"/><text fill="#000000" font-family="sans-serif" font-size="14" font-weight="bold" lengthAdjust="spacing" textLength="17" x="58" y="110.5332">so</text></g><!--entity sabrsmlsoservice--><g id="elem_sabrsmlsoservice"><rect fill="#F1F1F1" height="47.6094" rx="2.5" ry="2.5" style="stroke:#181818;stroke-width:0.5;" width="85" x="70" y="136"/><rect fill="#F1F1F1" height="10" style="stroke:#181818;stroke-width:0.5;" width="15" x="135" y="141"/><rect fill="#F1F1F1" height="2" style="stroke:#181818;stroke-width:0.5;" width="4" x="133" y="143"/><rect fill="#F1F1F1" height="2" style="stroke:#181818;stroke-width:0.5;" width="4" x="133" y="147"/><text fill="#000000" font-family="sans-serif" font-size="14" lengthAdjust="spacing" textLength="45" x="85" y="170.5332">service</text></g><!--entity sabrsmlsoserviceready--><g id="elem_sabrsmlsoserviceready"><ellipse cx="242" cy="160" fill="#F1F1F1" rx="8" ry="8" style="stroke:#181818;stroke-width:0.5;"/><text fill="#000000" font-family="sans-serif" font-size="14" lengthAdjust="spacing" textLength="36" x="224" y="191.5332">ready</text></g><!--link sabrsmlsoservice to sabrsmlsoserviceready--><g id="link_sabrsmlsoservice_sabrsmlsoserviceready"><path d="M155.25,160 C183.14,160 217.43,160 232.83,160 " fill="none" id="sabrsmlsoservice-sabrsmlsoserviceready" style="stroke:#181818;stroke-width:1.0;"/></g><!--SRC=[TO_H2i8m34NVynMN-RoFYbqwYripqY28-E_MCjIAtho4Umw1B18Thh0qdnnJCWcUD1CHQZOEPvu5G-6Z3U22vu8RlS6wlFgwTqW_IL4Sc6DahWw2hfjcoLuriKiAqhjxIKZPnIA7Ui-4f-jFhH7wRZ6EVynxc_OXzNa0]--></g></svg>