<?xml version="1.0" encoding="UTF-8" standalone="no"?><svg xmlns="http://www.w3.org/2000/svg" xmlns:xlink="http://www.w3.org/1999/xlink" contentScriptType="application/ecmascript" contentStyleType="text/css" height="260px" preserveAspectRatio="none" style="width:522px;height:260px;" version="1.1" viewBox="0 0 522 260" width="522px" zoomAndPan="magnify"><defs><filter height="300%" id="f1ezwbvrhgzl3k" width="300%" x="-1" y="-1"><feGaussianBlur result="blurOut" stdDeviation="2.0"/><feColorMatrix in="blurOut" result="blurOut2" type="matrix" values="0 0 0 0 0 0 0 0 0 0 0 0 0 0 0 0 0 0 .4 0"/><feOffset dx="4.0" dy="4.0" in="blurOut2" result="blurOut3"/><feBlend in="SourceGraphic" in2="blurOut3" mode="normal"/></filter></defs><g><!--cluster Service Orchestrator--><polygon fill="#AAFFAA" filter="url(#f1ezwbvrhgzl3k)" points="31,24,185,24,192,47.6094,213,47.6094,213,138,31,138,31,24" style="stroke: #000000; stroke-width: 1.5;"/><line style="stroke: #000000; stroke-width: 1.5;" x1="31" x2="192" y1="47.6094" y2="47.6094"/><text fill="#000000" font-family="sans-serif" font-size="14" font-weight="bold" lengthAdjust="spacingAndGlyphs" textLength="148" x="35" y="40.5332">Service Orchestrator</text><polygon fill="#00AAFF" filter="url(#f1ezwbvrhgzl3k)" points="336,63.5,486,63.5,493,87.1094,500,87.1094,500,118.7188,336,118.7188,336,63.5" style="stroke: #000000; stroke-width: 1.5;"/><line style="stroke: #000000; stroke-width: 1.5;" x1="336" x2="493" y1="87.1094" y2="87.1094"/><text fill="#000000" font-family="sans-serif" font-size="14" font-weight="bold" lengthAdjust="spacingAndGlyphs" textLength="144" x="340" y="80.0332">Application Manager</text><!--class i--><rect fill="#FEFECE" filter="url(#f1ezwbvrhgzl3k)" height="61.8359" id="i" style="stroke: #A80036; stroke-width: 1.5;" width="149" x="47.5" y="60"/><ellipse cx="65.2" cy="76" fill="#B4A7E5" rx="11" ry="11" style="stroke: #A80036; stroke-width: 1.0;"/><path d="M66.1531,72.6406 L66.1531,79.2969 L67.8719,79.2969 Q68.4813,79.2969 68.7469,79.5313 Q69.0125,79.7656 69.0125,80.1563 Q69.0125,80.5313 68.7469,80.7656 Q68.4813,81 67.8719,81 L62.7313,81 Q62.1219,81 61.8563,80.7656 Q61.5906,80.5313 61.5906,80.1406 Q61.5906,79.7656 61.8563,79.5313 Q62.1219,79.2969 62.7313,79.2969 L64.45,79.2969 L64.45,72.6406 L62.7313,72.6406 Q62.1219,72.6406 61.8563,72.4063 Q61.5906,72.1719 61.5906,71.7813 Q61.5906,71.4063 61.8563,71.1719 Q62.1219,70.9375 62.7313,70.9375 L67.8719,70.9375 Q68.4813,70.9375 68.7469,71.1719 Q69.0125,71.4063 69.0125,71.7813 Q69.0125,72.1719 68.7469,72.4063 Q68.4813,72.6406 67.8719,72.6406 L66.1531,72.6406 Z "/><text fill="#000000" font-family="sans-serif" font-size="12" font-style="italic" lengthAdjust="spacingAndGlyphs" textLength="111" x="79.8" y="80.9102">Service Orchestrator</text><line style="stroke: #A80036; stroke-width: 1.5;" x1="48.5" x2="195.5" y1="92" y2="92"/><line style="stroke: #A80036; stroke-width: 1.5;" x1="48.5" x2="195.5" y1="100" y2="100"/><text fill="#000000" font-family="sans-serif" font-size="11" lengthAdjust="spacingAndGlyphs" textLength="137" x="53.5" y="115.4189">/sabr/sml/so/service/ready()</text><!--entity REST--><ellipse cx="33" cy="215" fill="#FEFECE" filter="url(#f1ezwbvrhgzl3k)" rx="8" ry="8" style="stroke: #A80036; stroke-width: 2.0;"/><text fill="#000000" font-family="sans-serif" font-size="14" lengthAdjust="spacingAndGlyphs" textLength="37" x="14.5" y="246.5332">REST</text><!--entity Web--><ellipse cx="122" cy="215" fill="#FEFECE" filter="url(#f1ezwbvrhgzl3k)" rx="8" ry="8" style="stroke: #A80036; stroke-width: 2.0;"/><text fill="#000000" font-family="sans-serif" font-size="14" lengthAdjust="spacingAndGlyphs" textLength="29" x="107.5" y="246.5332">Web</text><!--entity CLI--><ellipse cx="211" cy="215" fill="#FEFECE" filter="url(#f1ezwbvrhgzl3k)" rx="8" ry="8" style="stroke: #A80036; stroke-width: 2.0;"/><text fill="#000000" font-family="sans-serif" font-size="14" lengthAdjust="spacingAndGlyphs" textLength="21" x="200.5" y="246.5332">CLI</text><!--entity WebSocket--><ellipse cx="292" cy="91" fill="#FEFECE" filter="url(#f1ezwbvrhgzl3k)" rx="8" ry="8" style="stroke: #A80036; stroke-width: 2.0;"/><text fill="#000000" font-family="sans-serif" font-size="14" lengthAdjust="spacingAndGlyphs" textLength="72" x="256" y="122.5332">WebSocket</text><!--link i to Web--><path d="M122,122.157 C122,149.8176 122,188.9596 122,205.7879 " fill="none" id="i-Web" style="stroke: #A80036; stroke-width: 1.0;"/><!--link i to CLI--><path d="M144,122.157 C164.178,149.8176 192.733,188.9596 205.009,205.7879 " fill="none" id="i-CLI" style="stroke: #A80036; stroke-width: 1.0;"/><!--link i to REST--><path d="M100,122.157 C79.8216,149.8176 51.2672,188.9596 38.9908,205.7879 " fill="none" id="i-REST" style="stroke: #A80036; stroke-width: 1.0;"/><!--link i to WebSocket--><path d="M196.564,91 C230.287,91 266.234,91 282.74,91 " fill="none" id="i-WebSocket" style="stroke: #A80036; stroke-width: 1.0;"/><polygon fill="#000000" points="221.75,77.6758,215.75,80.6758,221.75,83.6758,221.75,77.6758" style="stroke: #000000; stroke-width: 1.0;"/><text fill="#000000" font-family="sans-serif" font-size="13" lengthAdjust="spacingAndGlyphs" textLength="37" x="227.75" y="84.4951">events</text><!--
@startuml


package "Application Manager" #00aaff {

}


package "Service Orchestrator" #aaffaa {

    interface "Service Orchestrator" as i {
    
            /sabr/sml/so/service/ready()
    
    }
}

circle REST
circle Web
circle CLI
circle WebSocket

i -down- Web
i -down- CLI
i -down- REST
WebSocket -left- i: events >

package "Service Orchestrator" #aaffaa {


}



@enduml

PlantUML version 1.2019.05(Sat Apr 20 09:45:36 PDT 2019)
(GPL source distribution)
Java Runtime: Java(TM) SE Runtime Environment
JVM: Java HotSpot(TM) Client VM
Java Version: 1.8.0_271-b09
Operating System: Windows 10
OS Version: 10.0
Default Encoding: Cp1252
Language: en
Country: US
--></g></svg>