<?xml version="1.0" encoding="UTF-8" standalone="no"?><svg xmlns="http://www.w3.org/2000/svg" xmlns:xlink="http://www.w3.org/1999/xlink" contentScriptType="application/ecmascript" contentStyleType="text/css" height="353px" preserveAspectRatio="none" style="width:1418px;height:353px;" version="1.1" viewBox="0 0 1418 353" width="1418px" zoomAndPan="magnify"><defs><filter height="300%" id="f9ubvyapkps55" width="300%" x="-1" y="-1"><feGaussianBlur result="blurOut" stdDeviation="2.0"/><feColorMatrix in="blurOut" result="blurOut2" type="matrix" values="0 0 0 0 0 0 0 0 0 0 0 0 0 0 0 0 0 0 .4 0"/><feOffset dx="4.0" dy="4.0" in="blurOut2" result="blurOut3"/><feBlend in="SourceGraphic" in2="blurOut3" mode="normal"/></filter></defs><g><!--entity ChannelCreationPolicy--><rect fill="#90EE90" filter="url(#f9ubvyapkps55)" height="37.6094" style="stroke: #000000; stroke-width: 1.5;" width="164" x="262.194" y="8"/><text fill="#000000" font-family="sans-serif" font-size="14" lengthAdjust="spacingAndGlyphs" textLength="144" x="272.194" y="32.5332">ChannelCreationPolicy</text><!--entity DataChannel--><rect fill="#90EE90" filter="url(#f9ubvyapkps55)" height="37.6094" style="stroke: #000000; stroke-width: 1.5;" width="103" x="13.6943" y="305"/><text fill="#000000" font-family="sans-serif" font-size="14" lengthAdjust="spacingAndGlyphs" textLength="83" x="23.6943" y="329.5332">DataChannel</text><!--entity DataStreamInstance--><rect fill="#90EE90" filter="url(#f9ubvyapkps55)" height="37.6094" style="stroke: #000000; stroke-width: 1.5;" width="148" x="159.194" y="305"/><text fill="#000000" font-family="sans-serif" font-size="14" lengthAdjust="spacingAndGlyphs" textLength="128" x="169.194" y="329.5332">DataStreamInstance</text><!--entity DataTransform--><rect fill="#90EE90" filter="url(#f9ubvyapkps55)" height="37.6094" style="stroke: #000000; stroke-width: 1.5;" width="115" x="411.694" y="305"/><text fill="#000000" font-family="sans-serif" font-size="14" lengthAdjust="spacingAndGlyphs" textLength="95" x="421.694" y="329.5332">DataTransform</text><!--entity SABundle--><rect fill="#90EE90" filter="url(#f9ubvyapkps55)" height="37.6094" style="stroke: #000000; stroke-width: 1.5;" width="82" x="808.194" y="305"/><text fill="#000000" font-family="sans-serif" font-size="14" lengthAdjust="spacingAndGlyphs" textLength="62" x="818.194" y="329.5332">SABundle</text><!--entity SecurityKey--><rect fill="#ADD8E6" filter="url(#f9ubvyapkps55)" height="37.6094" style="stroke: #000000; stroke-width: 1.5;" width="95" x="1260.69" y="305"/><text fill="#000000" font-family="sans-serif" font-size="14" lengthAdjust="spacingAndGlyphs" textLength="75" x="1270.69" y="329.5332">SecurityKey</text><!--entity InputStreamInstance--><rect fill="#90EE90" filter="url(#f9ubvyapkps55)" height="37.6094" style="stroke: #000000; stroke-width: 1.5;" width="149" x="461.694" y="8"/><text fill="#000000" font-family="sans-serif" font-size="14" lengthAdjust="spacingAndGlyphs" textLength="129" x="471.694" y="32.5332">InputStreamInstance</text><!--entity OutputStreamInstance--><rect fill="#90EE90" filter="url(#f9ubvyapkps55)" height="37.6094" style="stroke: #000000; stroke-width: 1.5;" width="161" x="645.694" y="8"/><text fill="#000000" font-family="sans-serif" font-size="14" lengthAdjust="spacingAndGlyphs" textLength="141" x="655.694" y="32.5332">OutputStreamInstance</text><!--entity AdminTransform--><rect fill="#90EE90" filter="url(#f9ubvyapkps55)" height="37.6094" style="stroke: #000000; stroke-width: 1.5;" width="124" x="842.194" y="8"/><text fill="#000000" font-family="sans-serif" font-size="14" lengthAdjust="spacingAndGlyphs" textLength="104" x="852.194" y="32.5332">AdminTransform</text><!--class Model--><rect fill="#FEFECE" filter="url(#f9ubvyapkps55)" height="103.3438" id="Model" style="stroke: #A80036; stroke-width: 1.5;" width="101" x="580.694" y="124"/><ellipse cx="597.044" cy="140" fill="#ADD1B2" rx="11" ry="11" style="stroke: #A80036; stroke-width: 1.0;"/><path d="M599.8096,135.875 Q599.9659,135.6563 600.1534,135.5469 Q600.3409,135.4375 600.5596,135.4375 Q600.9346,135.4375 601.169,135.6953 Q601.4034,135.9531 601.4034,136.5625 L601.4034,138.0156 Q601.4034,138.625 601.169,138.8906 Q600.9346,139.1563 600.5596,139.1563 Q600.2159,139.1563 600.0128,138.9531 Q599.8096,138.7656 599.7003,138.25 Q599.6534,137.8906 599.4659,137.7031 Q599.1378,137.3281 598.5284,137.1094 Q597.919,136.8906 597.294,136.8906 Q596.5284,136.8906 595.8956,137.2188 Q595.2628,137.5469 594.7706,138.2969 Q594.2784,139.0469 594.2784,140.0781 L594.2784,141.1719 Q594.2784,142.4063 595.169,143.2266 Q596.0596,144.0469 597.6534,144.0469 Q598.5909,144.0469 599.2471,143.7969 Q599.6378,143.6406 600.0596,143.2031 Q600.3253,142.9375 600.4737,142.8594 Q600.6221,142.7813 600.8253,142.7813 Q601.1534,142.7813 601.4112,143.0391 Q601.669,143.2969 601.669,143.6406 Q601.669,143.9844 601.3253,144.3906 Q600.8253,144.9688 600.0284,145.2969 Q598.9503,145.75 597.6534,145.75 Q596.1378,145.75 594.9346,145.125 Q593.9503,144.625 593.2628,143.5547 Q592.5753,142.4844 592.5753,141.2031 L592.5753,140.0469 Q592.5753,138.7188 593.1924,137.5703 Q593.8096,136.4219 594.9034,135.8047 Q595.9971,135.1875 597.2315,135.1875 Q597.9659,135.1875 598.6143,135.3516 Q599.2628,135.5156 599.8096,135.875 Z "/><text fill="#000000" font-family="sans-serif" font-size="12" lengthAdjust="spacingAndGlyphs" textLength="66" x="611.344" y="144.9102">DataStream</text><line style="stroke: #A80036; stroke-width: 1.5;" x1="581.694" x2="680.694" y1="156" y2="156"/><text fill="#000000" font-family="sans-serif" font-size="11" lengthAdjust="spacingAndGlyphs" textLength="56" x="586.694" y="171.4189">string name</text><line style="stroke: #A80036; stroke-width: 1.5;" x1="581.694" x2="680.694" y1="177.8359" y2="177.8359"/><text fill="#000000" font-family="sans-serif" font-size="11" lengthAdjust="spacingAndGlyphs" textLength="89" x="586.694" y="193.2549">addKeysToStore()</text><text fill="#000000" font-family="sans-serif" font-size="11" lengthAdjust="spacingAndGlyphs" textLength="30" x="586.694" y="207.0908">build()</text><text fill="#000000" font-family="sans-serif" font-size="11" lengthAdjust="spacingAndGlyphs" textLength="52" x="586.694" y="220.9268">provision()</text><!--link Model to ChannelCreationPolicy--><path d="M568.899,142.701 C515.611,115.5 440.052,76.931 391.578,52.187 " fill="none" id="Model-ChannelCreationPolicy" style="stroke: #A80036; stroke-width: 1.0;"/><polygon fill="#A80036" points="379.674,46.111,385.8716,53.7654,384.1274,48.3841,389.5086,46.6399,379.674,46.111" style="stroke: #A80036; stroke-width: 1.0;"/><line style="stroke: #A80036; stroke-width: 1.0;" x1="384.1274" x2="391.2525" y1="48.3841" y2="52.0215"/><polygon fill="#FFFFFF" points="580.586,148.667,577.0604,142.3765,569.8978,143.2115,573.4234,149.502,580.586,148.667" style="stroke: #A80036; stroke-width: 1.0;"/><text fill="#000000" font-family="sans-serif" font-size="13" lengthAdjust="spacingAndGlyphs" textLength="44" x="472.194" y="90.4951">policies</text><text fill="#000000" font-family="sans-serif" font-size="13" lengthAdjust="spacingAndGlyphs" textLength="7" x="381.2686" y="66.9919">n</text><!--link ChannelCreationPolicy to Model--><path d="M361.724,57.232 C370.658,70.032 382.528,84.31 396.194,94 C447.865,130.636 517.6,151.732 567.663,163.059 " fill="none" id="ChannelCreationPolicy-Model" style="stroke: #A80036; stroke-width: 1.0;"/><polygon fill="#A80036" points="580.586,165.866,572.6405,160.0463,575.7,164.8044,570.9419,167.8639,580.586,165.866" style="stroke: #A80036; stroke-width: 1.0;"/><line style="stroke: #A80036; stroke-width: 1.0;" x1="575.7" x2="567.882" y1="164.8044" y2="163.107"/><polygon fill="#FFFFFF" points="354.376,46.066,354.3329,53.277,360.9726,56.0902,361.0157,48.8792,354.376,46.066" style="stroke: #A80036; stroke-width: 1.0;"/><text fill="#000000" font-family="sans-serif" font-size="13" lengthAdjust="spacingAndGlyphs" textLength="40" x="397.194" y="90.4951">stream</text><text fill="#000000" font-family="sans-serif" font-size="13" lengthAdjust="spacingAndGlyphs" textLength="7" x="565.6389" y="160.7717">n</text><!--link Model to DataChannel--><path d="M567.416,180.085 C416.539,189.215 47.5729,215.593 11.1943,257 C-0.0795,269.8322 9.7768,284.5035 24.007,296.7498 " fill="none" id="Model-DataChannel" style="stroke: #A80036; stroke-width: 1.0;"/><polygon fill="#A80036" points="34.3517,304.7882,29.6994,296.1074,30.4036,301.7203,24.7907,302.4245,34.3517,304.7882" style="stroke: #A80036; stroke-width: 1.0;"/><line style="stroke: #A80036; stroke-width: 1.0;" x1="30.4036" x2="24.0865" y1="301.7203" y2="296.8115"/><polygon fill="#A80036" points="580.466,179.306,574.238,175.6711,568.4874,180.022,574.7154,183.6569,580.466,179.306" style="stroke: #A80036; stroke-width: 1.0;"/><text fill="#000000" font-family="sans-serif" font-size="13" lengthAdjust="spacingAndGlyphs" textLength="52" x="12.1943" y="271.4951">channels</text><text fill="#000000" font-family="sans-serif" font-size="13" lengthAdjust="spacingAndGlyphs" textLength="7" x="16.8343" y="294.0634">n</text><!--link DataChannel to Model--><path d="M87.1015,294.7905 C99.2067,281.1979 115.386,265.9424 133.194,257 C208.292,219.289 450.64,192.881 567.291,182.02 " fill="none" id="DataChannel-Model" style="stroke: #A80036; stroke-width: 1.0;"/><polygon fill="#A80036" points="580.538,180.804,571.21,177.6436,575.5589,181.2611,571.9414,185.6101,580.538,180.804" style="stroke: #A80036; stroke-width: 1.0;"/><line style="stroke: #A80036; stroke-width: 1.0;" x1="575.5589" x2="567.592" y1="181.2611" y2="181.993"/><polygon fill="#FFFFFF" points="78.6792,304.7286,85.6099,302.7374,86.4375,295.5739,79.5068,297.5651,78.6792,304.7286" style="stroke: #A80036; stroke-width: 1.0;"/><text fill="#000000" font-family="sans-serif" font-size="13" lengthAdjust="spacingAndGlyphs" textLength="40" x="134.194" y="271.4951">stream</text><text fill="#000000" font-family="sans-serif" font-size="13" lengthAdjust="spacingAndGlyphs" textLength="7" x="565.5838" y="196.2537">1</text><!--link Model to DataStreamInstance--><path d="M567.094,178.415 C455.973,183.231 234.853,199.924 187.194,257 C176.993,269.2167 184.988,283.6346 197.001,295.8735 " fill="none" id="Model-DataStreamInstance" style="stroke: #A80036; stroke-width: 1.0;"/><polygon fill="#A80036" points="206.736,304.7353,202.7734,295.7188,203.0386,301.3694,197.388,301.6346,206.736,304.7353" style="stroke: #A80036; stroke-width: 1.0;"/><line style="stroke: #A80036; stroke-width: 1.0;" x1="203.0386" x2="197.123" y1="301.3694" y2="295.9841"/><polygon fill="#A80036" points="580.404,177.872,574.2459,174.1199,568.414,178.3612,574.5721,182.1133,580.404,177.872" style="stroke: #A80036; stroke-width: 1.0;"/><text fill="#000000" font-family="sans-serif" font-size="13" lengthAdjust="spacingAndGlyphs" textLength="56" x="188.194" y="271.4951">instances</text><text fill="#000000" font-family="sans-serif" font-size="13" lengthAdjust="spacingAndGlyphs" textLength="7" x="190.5614" y="293.9943">n</text><!--link DataStreamInstance to Model--><path d="M259.679,295.6602 C274.07,282.2345 292.849,266.8654 312.194,257 C394.787,214.881 500.889,193.81 567.483,184.029 " fill="none" id="DataStreamInstance-Model" style="stroke: #A80036; stroke-width: 1.0;"/><polygon fill="#A80036" points="580.664,182.166,571.1926,179.4654,575.7132,182.866,572.3127,187.3867,580.664,182.166" style="stroke: #A80036; stroke-width: 1.0;"/><line style="stroke: #A80036; stroke-width: 1.0;" x1="575.7132" x2="567.792" y1="182.866" y2="183.986"/><polygon fill="#FFFFFF" points="250.029,304.9862,257.1232,303.6927,258.6577,296.6468,251.5636,297.9403,250.029,304.9862" style="stroke: #A80036; stroke-width: 1.0;"/><text fill="#000000" font-family="sans-serif" font-size="13" lengthAdjust="spacingAndGlyphs" textLength="36" x="313.194" y="271.4951">parent</text><text fill="#000000" font-family="sans-serif" font-size="13" lengthAdjust="spacingAndGlyphs" textLength="7" x="565.7283" y="179.4658">1</text><!--link Model to DataTransform--><path d="M567.841,186.664 C496.619,199.534 387.691,224.064 363.194,257 C347.516,278.0802 370.435,293.9925 398.923,304.9058 " fill="none" id="Model-DataTransform" style="stroke: #A80036; stroke-width: 1.0;"/><polygon fill="#A80036" points="411.377,309.2774,404.2098,302.5223,406.6592,307.6214,401.5601,310.0708,411.377,309.2774" style="stroke: #A80036; stroke-width: 1.0;"/><line style="stroke: #A80036; stroke-width: 1.0;" x1="406.6592" x2="399.11" y1="307.6214" y2="304.9715"/><polygon fill="#FFFFFF" points="580.673,184.397,574.0686,181.5018,568.856,186.4845,575.4603,189.3798,580.673,184.397" style="stroke: #A80036; stroke-width: 1.0;"/><text fill="#000000" font-family="sans-serif" font-size="13" lengthAdjust="spacingAndGlyphs" textLength="61" x="364.194" y="271.4951">transforms</text><text fill="#000000" font-family="sans-serif" font-size="13" lengthAdjust="spacingAndGlyphs" textLength="7" x="396.5208" y="303.9087">n</text><!--link DataTransform to Model--><path d="M460.631,291.8411 C459.171,280.137 459.817,267.2079 466.194,257 C488.402,221.455 531.33,201.187 567.832,189.879 " fill="none" id="DataTransform-Model" style="stroke: #A80036; stroke-width: 1.0;"/><polygon fill="#A80036" points="580.431,186.243,570.6748,184.8952,575.627,187.6293,572.8929,192.5815,580.431,186.243" style="stroke: #A80036; stroke-width: 1.0;"/><line style="stroke: #A80036; stroke-width: 1.0;" x1="575.627" x2="567.9405" y1="187.6293" y2="189.8475"/><polygon fill="#FFFFFF" points="463.094,304.7816,465.9018,298.1396,460.8506,292.9932,458.0428,299.6352,463.094,304.7816" style="stroke: #A80036; stroke-width: 1.0;"/><text fill="#000000" font-family="sans-serif" font-size="13" lengthAdjust="spacingAndGlyphs" textLength="35" x="467.194" y="271.4951">inputs</text><text fill="#000000" font-family="sans-serif" font-size="13" lengthAdjust="spacingAndGlyphs" textLength="7" x="565.8003" y="202.3744">n</text><!--link DataTransform to Model--><path d="M499.093,295.9624 C519.07,277.8965 546.057,253.4912 570.432,231.448 " fill="none" id="DataTransform-Model-1" style="stroke: #A80036; stroke-width: 1.0;"/><polygon fill="#A80036" points="580.381,222.452,571.0227,225.5217,576.6725,225.8056,576.3885,231.4553,580.381,222.452" style="stroke: #A80036; stroke-width: 1.0;"/><line style="stroke: #A80036; stroke-width: 1.0;" x1="576.6725" x2="570.739" y1="225.8056" y2="231.171"/><polygon fill="#FFFFFF" points="489.336,304.7857,496.4691,303.7279,498.2362,296.7367,491.1031,297.7945,489.336,304.7857" style="stroke: #A80036; stroke-width: 1.0;"/><text fill="#000000" font-family="sans-serif" font-size="13" lengthAdjust="spacingAndGlyphs" textLength="43" x="542.194" y="271.4951">outputs</text><text fill="#000000" font-family="sans-serif" font-size="13" lengthAdjust="spacingAndGlyphs" textLength="7" x="565.7432" y="225.4253">n</text><!--link Model to SABundle--><path d="M695.204,177.692 C811.446,181.356 1049.99,196.276 1101.19,257 C1106.35,263.1157 1106.29,268.8366 1101.19,275 C1076.59,304.7332 969.803,316.2074 903.384,320.5177 " fill="none" id="Model-SABundle" style="stroke: #A80036; stroke-width: 1.0;"/><polygon fill="#A80036" points="890.272,321.3102,899.4969,324.76,895.2629,321.0086,899.0143,316.7745,890.272,321.3102" style="stroke: #A80036; stroke-width: 1.0;"/><line style="stroke: #A80036; stroke-width: 1.0;" x1="895.2629" x2="903.2485" y1="321.0086" y2="320.5259"/><polygon fill="#FFFFFF" points="681.991,177.308,687.8724,181.4804,693.9859,177.6561,688.1045,173.4838,681.991,177.308" style="stroke: #A80036; stroke-width: 1.0;"/><text fill="#000000" font-family="sans-serif" font-size="13" lengthAdjust="spacingAndGlyphs" textLength="64" x="1105.19" y="271.4951">consumers</text><text fill="#000000" font-family="sans-serif" font-size="13" lengthAdjust="spacingAndGlyphs" textLength="7" x="898.2125" y="316.9673">n</text><!--link Model to SABundle--><path d="M616.756,240.2 C617.16,252.8058 620.265,265.1637 628.194,275 C648.769,300.5226 736.539,313.1724 795.086,318.8833 " fill="none" id="Model-SABundle-1" style="stroke: #A80036; stroke-width: 1.0;"/><polygon fill="#A80036" points="808.19,320.0944,799.5961,315.2836,803.2112,319.6345,798.8602,323.2496,808.19,320.0944" style="stroke: #A80036; stroke-width: 1.0;"/><line style="stroke: #A80036; stroke-width: 1.0;" x1="803.2112" x2="795.2445" y1="319.6345" y2="318.8979"/><polygon fill="#FFFFFF" points="617.223,227.068,613.0119,232.9218,616.7957,239.0604,621.0068,233.2066,617.223,227.068" style="stroke: #A80036; stroke-width: 1.0;"/><text fill="#000000" font-family="sans-serif" font-size="13" lengthAdjust="spacingAndGlyphs" textLength="57" x="629.194" y="271.4951">producers</text><text fill="#000000" font-family="sans-serif" font-size="13" lengthAdjust="spacingAndGlyphs" textLength="7" x="793.2627" y="315.5349">n</text><!--link SABundle to Model--><path d="M795.771,307.4969 C773.513,299.6726 748.05,288.8601 727.194,275 C711.116,264.3151 695.619,250.5555 681.939,236.729 " fill="none" id="SABundle-Model" style="stroke: #A80036; stroke-width: 1.0;"/><polygon fill="#A80036" points="672.774,227.183,676.1224,236.4452,676.2371,230.7895,681.8928,230.9042,672.774,227.183" style="stroke: #A80036; stroke-width: 1.0;"/><line style="stroke: #A80036; stroke-width: 1.0;" x1="676.2371" x2="681.778" y1="230.7895" y2="236.5605"/><polygon fill="#FFFFFF" points="808.1,311.6476,803.6902,305.942,796.7274,307.8182,801.1372,313.5238,808.1,311.6476" style="stroke: #A80036; stroke-width: 1.0;"/><text fill="#000000" font-family="sans-serif" font-size="13" lengthAdjust="spacingAndGlyphs" textLength="35" x="728.194" y="271.4951">inputs</text><text fill="#000000" font-family="sans-serif" font-size="13" lengthAdjust="spacingAndGlyphs" textLength="7" x="670.891" y="248.6985">n</text><!--link SABundle to Model--><path d="M818.469,296.1089 C803.683,283.6564 785.453,268.9978 768.194,257 C744.446,240.491 717.171,224.002 693.241,210.286 " fill="none" id="SABundle-Model-1" style="stroke: #A80036; stroke-width: 1.0;"/><polygon fill="#A80036" points="681.793,203.788,687.6455,211.7093,686.1414,206.2561,691.5946,204.752,681.793,203.788" style="stroke: #A80036; stroke-width: 1.0;"/><line style="stroke: #A80036; stroke-width: 1.0;" x1="686.1414" x2="693.098" y1="206.2561" y2="210.205"/><polygon fill="#FFFFFF" points="828.564,304.7168,826.5936,297.7801,819.4326,296.931,821.4031,303.8677,828.564,304.7168" style="stroke: #A80036; stroke-width: 1.0;"/><text fill="#000000" font-family="sans-serif" font-size="13" lengthAdjust="spacingAndGlyphs" textLength="43" x="793.194" y="271.4951">outputs</text><text fill="#000000" font-family="sans-serif" font-size="13" lengthAdjust="spacingAndGlyphs" textLength="7" x="689.7388" y="204.2635">n</text><!--link SABundle to Model--><path d="M854.123,291.786 C854.361,279.881 852.445,266.8253 845.194,257 C810.433,209.897 744.701,190.349 695.219,182.24 " fill="none" id="SABundle-Model-2" style="stroke: #A80036; stroke-width: 1.0;"/><polygon fill="#A80036" points="682.055,180.286,690.3696,185.5649,687.0007,181.0206,691.545,177.6518,682.055,180.286" style="stroke: #A80036; stroke-width: 1.0;"/><line style="stroke: #A80036; stroke-width: 1.0;" x1="687.0007" x2="694.9135" y1="181.0206" y2="182.1945"/><polygon fill="#FFFFFF" points="853.046,304.9703,857.5215,299.3161,854.0235,293.0102,849.548,298.6644,853.046,304.9703" style="stroke: #A80036; stroke-width: 1.0;"/><text fill="#000000" font-family="sans-serif" font-size="13" lengthAdjust="spacingAndGlyphs" textLength="87" x="854.194" y="271.4951">learningStream</text><text fill="#000000" font-family="sans-serif" font-size="13" lengthAdjust="spacingAndGlyphs" textLength="7" x="689.6995" y="177.3297">1</text><!--link SABundle to Model--><path d="M903.024,309.1126 C935.867,297.952 968.343,280.2976 950.194,257 C919.124,217.116 778.479,193.898 694.664,183.369 " fill="none" id="SABundle-Model-3" style="stroke: #A80036; stroke-width: 1.0;"/><polygon fill="#A80036" points="681.725,181.787,690.1733,186.8493,686.6881,182.3936,691.1438,178.9084,681.725,181.787" style="stroke: #A80036; stroke-width: 1.0;"/><line style="stroke: #A80036; stroke-width: 1.0;" x1="686.6881" x2="694.629" y1="182.3936" y2="183.3645"/><polygon fill="#FFFFFF" points="890.523,313.0703,897.4506,315.0725,901.9632,309.4479,895.0356,307.4457,890.523,313.0703" style="stroke: #A80036; stroke-width: 1.0;"/><text fill="#000000" font-family="sans-serif" font-size="13" lengthAdjust="spacingAndGlyphs" textLength="77" x="957.194" y="271.4951">adminStream</text><text fill="#000000" font-family="sans-serif" font-size="13" lengthAdjust="spacingAndGlyphs" textLength="7" x="689.6608" y="197.3811">1</text><!--link Model to SecurityKey--><path d="M694.804,179.208 C798.36,185.078 1008.85,203.136 1178.19,257 C1209.7,267.0216 1242.9,283.9998 1267.87,298.2261 " fill="none" id="Model-SecurityKey" style="stroke: #A80036; stroke-width: 1.0;"/><polygon fill="#A80036" points="1279.41,304.9463,1273.6453,296.9608,1275.0892,302.4303,1269.6197,303.8741,1279.41,304.9463" style="stroke: #A80036; stroke-width: 1.0;"/><line style="stroke: #A80036; stroke-width: 1.0;" x1="1275.0892" x2="1268.18" y1="302.4303" y2="298.4081"/><polygon fill="#FFFFFF" points="681.816,178.504,687.5905,182.8232,693.7984,179.1541,688.0239,174.8349,681.816,178.504" style="stroke: #A80036; stroke-width: 1.0;"/><text fill="#000000" font-family="sans-serif" font-size="13" lengthAdjust="spacingAndGlyphs" textLength="83" x="1223.19" y="271.4951">encryptionKey</text><text fill="#000000" font-family="sans-serif" font-size="13" lengthAdjust="spacingAndGlyphs" textLength="7" x="1262.5243" y="294.2699">1</text><!--link Model to SecurityKey--><path d="M694.978,179.265 C856.961,186.937 1274.31,211.019 1315.19,257 C1323.57,266.422 1323.51,279.8475 1320.69,292.1326 " fill="none" id="Model-SecurityKey-1" style="stroke: #A80036; stroke-width: 1.0;"/><polygon fill="#A80036" points="1316.82,304.7723,1323.2805,297.3385,1318.2844,299.9916,1315.6313,294.9954,1316.82,304.7723" style="stroke: #A80036; stroke-width: 1.0;"/><line style="stroke: #A80036; stroke-width: 1.0;" x1="1318.2844" x2="1320.63" y1="299.9916" y2="292.3423"/><polygon fill="#FFFFFF" points="681.936,178.657,687.7431,182.9322,693.923,179.2161,688.1159,174.9409,681.936,178.657" style="stroke: #A80036; stroke-width: 1.0;"/><text fill="#000000" font-family="sans-serif" font-size="13" lengthAdjust="spacingAndGlyphs" textLength="83" x="1323.19" y="271.4951">decryptionKey</text><text fill="#000000" font-family="sans-serif" font-size="13" lengthAdjust="spacingAndGlyphs" textLength="7" x="1311.3911" y="294.0426">1</text><!--link InputStreamInstance to Model--><path d="M555.134,57.208 C565.45,73.115 578.624,93.431 591.099,112.669 " fill="none" id="InputStreamInstance-Model" style="stroke: #A80036; stroke-width: 1.0;"/><polygon fill="#A80036" points="598.336,123.83,596.7954,114.1024,595.6156,119.6348,590.0831,118.455,598.336,123.83" style="stroke: #A80036; stroke-width: 1.0;"/><line style="stroke: #A80036; stroke-width: 1.0;" x1="595.6156" x2="591.2635" y1="119.6348" y2="112.9225"/><polygon fill="#FFFFFF" points="548.034,46.258,547.9423,53.4685,554.563,56.3264,554.6546,49.1159,548.034,46.258" style="stroke: #A80036; stroke-width: 1.0;"/><text fill="#000000" font-family="sans-serif" font-size="13" lengthAdjust="spacingAndGlyphs" textLength="36" x="579.194" y="90.4951">parent</text><text fill="#000000" font-family="sans-serif" font-size="13" lengthAdjust="spacingAndGlyphs" textLength="7" x="586.4504" y="113.3075">1</text><!--link OutputStreamInstance to Model--><path d="M707.254,57.208 C696.939,73.115 683.765,93.431 671.29,112.669 " fill="none" id="OutputStreamInstance-Model" style="stroke: #A80036; stroke-width: 1.0;"/><polygon fill="#A80036" points="664.052,123.83,672.3049,118.455,666.7724,119.6348,665.5926,114.1024,664.052,123.83" style="stroke: #A80036; stroke-width: 1.0;"/><line style="stroke: #A80036; stroke-width: 1.0;" x1="666.7724" x2="671.1255" y1="119.6348" y2="112.9225"/><polygon fill="#FFFFFF" points="714.355,46.258,707.7344,49.1159,707.826,56.3264,714.4467,53.4685,714.355,46.258" style="stroke: #A80036; stroke-width: 1.0;"/><text fill="#000000" font-family="sans-serif" font-size="13" lengthAdjust="spacingAndGlyphs" textLength="36" x="694.194" y="90.4951">parent</text><text fill="#000000" font-family="sans-serif" font-size="13" lengthAdjust="spacingAndGlyphs" textLength="7" x="660.997" y="113.3075">1</text><!--link AdminTransform to Model--><path d="M858.699,52.414 C813.571,76.631 744.069,113.928 693.758,140.927 " fill="none" id="AdminTransform-Model" style="stroke: #A80036; stroke-width: 1.0;"/><polygon fill="#A80036" points="682.05,147.209,691.8717,146.4777,686.4557,144.8446,688.0887,139.4286,682.05,147.209" style="stroke: #A80036; stroke-width: 1.0;"/><line style="stroke: #A80036; stroke-width: 1.0;" x1="686.4557" x2="693.5055" y1="144.8446" y2="141.062"/><polygon fill="#FFFFFF" points="870.445,46.111,863.2667,45.4237,859.8714,51.7855,867.0497,52.4728,870.445,46.111" style="stroke: #A80036; stroke-width: 1.0;"/><text fill="#000000" font-family="sans-serif" font-size="13" lengthAdjust="spacingAndGlyphs" textLength="35" x="809.194" y="90.4951">inputs</text><text fill="#000000" font-family="sans-serif" font-size="13" lengthAdjust="spacingAndGlyphs" textLength="7" x="689.6938" y="139.6012">n</text><!--link AdminTransform to Model--><path d="M886.854,57.385 C878.117,70.098 866.539,84.263 853.194,94 C805.668,128.68 741.663,149.776 694.59,161.618 " fill="none" id="AdminTransform-Model-1" style="stroke: #A80036; stroke-width: 1.0;"/><polygon fill="#A80036" points="681.789,164.717,691.4774,166.4874,686.6487,163.5407,689.5953,158.7119,681.789,164.717" style="stroke: #A80036; stroke-width: 1.0;"/><line style="stroke: #A80036; stroke-width: 1.0;" x1="686.6487" x2="694.4245" y1="163.5407" y2="161.6585"/><polygon fill="#FFFFFF" points="894.048,46.286,887.4278,49.1449,887.5206,56.3554,894.1407,53.4965,894.048,46.286" style="stroke: #A80036; stroke-width: 1.0;"/><text fill="#000000" font-family="sans-serif" font-size="13" lengthAdjust="spacingAndGlyphs" textLength="43" x="873.194" y="90.4951">outputs</text><text fill="#000000" font-family="sans-serif" font-size="13" lengthAdjust="spacingAndGlyphs" textLength="7" x="689.7342" y="159.4539">n</text><!--
@startuml

class "DataStream" as Model {
 string name

 addKeysToStore()
 build()
 provision()
 
}

rectangle "ChannelCreationPolicy" as ChannelCreationPolicy #lightblue {
}

Model o- -> "n" ChannelCreationPolicy : policies


rectangle "DataChannel" as DataChannel #lightblue {
}

Model *- -> "n" DataChannel : channels


rectangle "DataStreamInstance" as DataStreamInstance #lightblue {
}

Model *- -> "n" DataStreamInstance : instances


rectangle "DataTransform" as DataTransform #lightblue {
}

Model o- -> "n" DataTransform : transforms


rectangle "SABundle" as SABundle #lightblue {
}

Model o- -> "n" SABundle : consumers


rectangle "SABundle" as SABundle #lightblue {
}

Model o- -> "n" SABundle : producers


rectangle "SecurityKey" as SecurityKey #lightblue {
}

Model o- -> "1" SecurityKey : encryptionKey


rectangle "SecurityKey" as SecurityKey #lightblue {
}

Model o- -> "1" SecurityKey : decryptionKey




    rectangle "ChannelCreationPolicy" as ChannelCreationPolicy #lightgreen {
    }
    
        ChannelCreationPolicy   o- -> "n" Model : "stream"
    
    rectangle "DataChannel" as DataChannel #lightgreen {
    }
    
        DataChannel   o- -> "1" Model : "stream"
    
    rectangle "DataStreamInstance" as DataStreamInstance #lightgreen {
    }
    
        DataStreamInstance   o- -> "1" Model : "parent"
    
    rectangle "InputStreamInstance" as InputStreamInstance #lightgreen {
    }
    
        InputStreamInstance   o- -> "1" Model : "parent"
    
    rectangle "OutputStreamInstance" as OutputStreamInstance #lightgreen {
    }
    
        OutputStreamInstance   o- -> "1" Model : "parent"
    
    rectangle "AdminTransform" as AdminTransform #lightgreen {
    }
    
        AdminTransform   o- -> "n" Model : "inputs"
    
    rectangle "AdminTransform" as AdminTransform #lightgreen {
    }
    
        AdminTransform   o- -> "n" Model : "outputs"
    
    rectangle "DataTransform" as DataTransform #lightgreen {
    }
    
        DataTransform   o- -> "n" Model : "inputs"
    
    rectangle "DataTransform" as DataTransform #lightgreen {
    }
    
        DataTransform   o- -> "n" Model : "outputs"
    
    rectangle "SABundle" as SABundle #lightgreen {
    }
    
        SABundle   o- -> "n" Model : "inputs"
    
    rectangle "SABundle" as SABundle #lightgreen {
    }
    
        SABundle   o- -> "n" Model : "outputs"
    
    rectangle "SABundle" as SABundle #lightgreen {
    }
    
        SABundle   o- -> "1" Model : "learningStream"
    
    rectangle "SABundle" as SABundle #lightgreen {
    }
    
        SABundle   o- -> "1" Model : "adminStream"
    

@enduml

PlantUML version 1.2019.05(Sat Apr 20 09:45:36 PDT 2019)
(GPL source distribution)
Java Runtime: Java(TM) SE Runtime Environment
JVM: Java HotSpot(TM) Client VM
Java Version: 1.8.0_271-b09
Operating System: Windows 10
OS Version: 10.0
Default Encoding: Cp1252
Language: en
Country: US
--></g></svg>