<?xml version="1.0" encoding="us-ascii" standalone="no"?><svg xmlns="http://www.w3.org/2000/svg" xmlns:xlink="http://www.w3.org/1999/xlink" contentStyleType="text/css" height="362px" preserveAspectRatio="none" style="width:1421px;height:362px;background:#FFFFFF;" version="1.1" viewBox="0 0 1421 362" width="1421px" zoomAndPan="magnify"><defs/><g><!--entity ChannelCreationPolicy--><g id="elem_ChannelCreationPolicy"><rect fill="#90EE90" height="37.6094" rx="2.5" ry="2.5" style="stroke:#181818;stroke-width:0.5;" width="164" x="270.78" y="7"/><text fill="#000000" font-family="sans-serif" font-size="14" lengthAdjust="spacing" textLength="144" x="280.78" y="31.5332">ChannelCreationPolicy</text></g><!--entity DataChannel--><g id="elem_DataChannel"><rect fill="#90EE90" height="37.6094" rx="2.5" ry="2.5" style="stroke:#181818;stroke-width:0.5;" width="103" x="22.28" y="319"/><text fill="#000000" font-family="sans-serif" font-size="14" lengthAdjust="spacing" textLength="83" x="32.28" y="343.5332">DataChannel</text></g><!--entity DataStreamInstance--><g id="elem_DataStreamInstance"><rect fill="#90EE90" height="37.6094" rx="2.5" ry="2.5" style="stroke:#181818;stroke-width:0.5;" width="148" x="167.78" y="319"/><text fill="#000000" font-family="sans-serif" font-size="14" lengthAdjust="spacing" textLength="128" x="177.78" y="343.5332">DataStreamInstance</text></g><!--entity DataTransform--><g id="elem_DataTransform"><rect fill="#90EE90" height="37.6094" rx="2.5" ry="2.5" style="stroke:#181818;stroke-width:0.5;" width="115" x="420.28" y="319"/><text fill="#000000" font-family="sans-serif" font-size="14" lengthAdjust="spacing" textLength="95" x="430.28" y="343.5332">DataTransform</text></g><!--entity SABundle--><g id="elem_SABundle"><rect fill="#90EE90" height="37.6094" rx="2.5" ry="2.5" style="stroke:#181818;stroke-width:0.5;" width="82" x="816.78" y="319"/><text fill="#000000" font-family="sans-serif" font-size="14" lengthAdjust="spacing" textLength="62" x="826.78" y="343.5332">SABundle</text></g><!--entity SecurityKey--><g id="elem_SecurityKey"><rect fill="#ADD8E6" height="37.6094" rx="2.5" ry="2.5" style="stroke:#181818;stroke-width:0.5;" width="95" x="1269.28" y="319"/><text fill="#000000" font-family="sans-serif" font-size="14" lengthAdjust="spacing" textLength="75" x="1279.28" y="343.5332">SecurityKey</text></g><!--entity InputStreamInstance--><g id="elem_InputStreamInstance"><rect fill="#90EE90" height="37.6094" rx="2.5" ry="2.5" style="stroke:#181818;stroke-width:0.5;" width="149" x="470.28" y="7"/><text fill="#000000" font-family="sans-serif" font-size="14" lengthAdjust="spacing" textLength="129" x="480.28" y="31.5332">InputStreamInstance</text></g><!--entity OutputStreamInstance--><g id="elem_OutputStreamInstance"><rect fill="#90EE90" height="37.6094" rx="2.5" ry="2.5" style="stroke:#181818;stroke-width:0.5;" width="161" x="654.28" y="7"/><text fill="#000000" font-family="sans-serif" font-size="14" lengthAdjust="spacing" textLength="141" x="664.28" y="31.5332">OutputStreamInstance</text></g><!--entity AdminTransform--><g id="elem_AdminTransform"><rect fill="#90EE90" height="37.6094" rx="2.5" ry="2.5" style="stroke:#181818;stroke-width:0.5;" width="124" x="850.78" y="7"/><text fill="#000000" font-family="sans-serif" font-size="14" lengthAdjust="spacing" textLength="104" x="860.78" y="31.5332">AdminTransform</text></g><!--class Model--><g id="elem_Model"><rect codeLine="2" fill="#F1F1F1" height="118.4375" id="Model" rx="2.5" ry="2.5" style="stroke:#181818;stroke-width:0.5;" width="128" x="575.78" y="123"/><ellipse cx="600.23" cy="139" fill="#ADD1B2" rx="11" ry="11" style="stroke:#181818;stroke-width:1.0;"/><path d="M602.9956,134.875 Q603.1519,134.6563 603.3394,134.5469 Q603.5269,134.4375 603.7456,134.4375 Q604.1206,134.4375 604.355,134.6953 Q604.5894,134.9531 604.5894,135.5625 L604.5894,137.0156 Q604.5894,137.625 604.355,137.8906 Q604.1206,138.1563 603.7456,138.1563 Q603.4019,138.1563 603.1988,137.9531 Q602.9956,137.7656 602.8863,137.25 Q602.8394,136.8906 602.6519,136.7031 Q602.3238,136.3281 601.7144,136.1094 Q601.105,135.8906 600.48,135.8906 Q599.7144,135.8906 599.0816,136.2188 Q598.4488,136.5469 597.9566,137.2969 Q597.4644,138.0469 597.4644,139.0781 L597.4644,140.1719 Q597.4644,141.4063 598.355,142.2266 Q599.2456,143.0469 600.8394,143.0469 Q601.7769,143.0469 602.4331,142.7969 Q602.8238,142.6406 603.2456,142.2031 Q603.5113,141.9375 603.6597,141.8594 Q603.8081,141.7813 604.0113,141.7813 Q604.3394,141.7813 604.5972,142.0391 Q604.855,142.2969 604.855,142.6406 Q604.855,142.9844 604.5113,143.3906 Q604.0113,143.9688 603.2144,144.2969 Q602.1363,144.75 600.8394,144.75 Q599.3238,144.75 598.1206,144.125 Q597.1363,143.625 596.4488,142.5547 Q595.7613,141.4844 595.7613,140.2031 L595.7613,139.0469 Q595.7613,137.7188 596.3784,136.5703 Q596.9956,135.4219 598.0894,134.8047 Q599.1831,134.1875 600.4175,134.1875 Q601.1519,134.1875 601.8003,134.3516 Q602.4488,134.5156 602.9956,134.875 Z " fill="#000000"/><text fill="#000000" font-family="sans-serif" font-size="14" lengthAdjust="spacing" textLength="75" x="616.33" y="144.7285">DataStream</text><line style="stroke:#181818;stroke-width:0.5;" x1="576.78" x2="702.78" y1="155" y2="155"/><text fill="#000000" font-family="sans-serif" font-size="14" lengthAdjust="spacing" textLength="74" x="581.78" y="173.5332">string name</text><line style="stroke:#181818;stroke-width:0.5;" x1="576.78" x2="702.78" y1="180.6094" y2="180.6094"/><text fill="#000000" font-family="sans-serif" font-size="14" lengthAdjust="spacing" textLength="116" x="581.78" y="199.1426">addKeysToStore()</text><text fill="#000000" font-family="sans-serif" font-size="14" lengthAdjust="spacing" textLength="40" x="581.78" y="216.752">build()</text><text fill="#000000" font-family="sans-serif" font-size="14" lengthAdjust="spacing" textLength="67" x="581.78" y="234.3613">provision()</text></g><!--link Model to ChannelCreationPolicy--><g id="link_Model_ChannelCreationPolicy"><path codeLine="14" d="M565.1952,140.9778 C506.6552,109.5778 438.2073,72.8363 391.8273,47.9563 " fill="none" id="Model-ChannelCreationPolicy" style="stroke:#181818;stroke-width:1.0;"/><polygon fill="none" points="575.77,146.65,572.3733,140.289,565.1952,140.9778,568.5919,147.3388,575.77,146.65" style="stroke:#181818;stroke-width:1.0;"/><polygon fill="#181818" points="386.54,45.12,392.5801,52.8993,390.9461,47.4836,396.3618,45.8496,386.54,45.12" style="stroke:#181818;stroke-width:1.0;"/><text fill="#000000" font-family="sans-serif" font-size="13" lengthAdjust="spacing" textLength="44" x="471.78" y="89.4951">policies</text><text fill="#000000" font-family="sans-serif" font-size="13" lengthAdjust="spacing" textLength="7" x="387.6724" y="66.0033">n</text></g><!--link ChannelCreationPolicy to Model--><g id="link_ChannelCreationPolicy_Model"><path codeLine="64" d="M365.7693,55.821 C372.9493,70.581 379.69,80.27 395.78,93 C448.56,134.79 517.0472,156.4592 569.7772,168.3592 " fill="none" id="ChannelCreationPolicy-Model" style="stroke:#181818;stroke-width:1.0;"/><polygon fill="none" points="360.52,45.03,359.5476,52.1752,365.7693,55.821,366.7416,48.6757,360.52,45.03" style="stroke:#181818;stroke-width:1.0;"/><polygon fill="#181818" points="575.63,169.68,567.7314,163.7969,570.7527,168.5793,565.9702,171.6006,575.63,169.68" style="stroke:#181818;stroke-width:1.0;"/><text fill="#000000" font-family="sans-serif" font-size="13" lengthAdjust="spacing" textLength="40" x="396.78" y="89.4951">stream</text><text fill="#000000" font-family="sans-serif" font-size="13" lengthAdjust="spacing" textLength="7" x="560.808" y="164.8206">n</text></g><!--link Model to DataChannel--><g id="link_Model_DataChannel"><path codeLine="20" d="M563.7417,188.2721 C412.6417,199.2821 55.95,229.33 19.78,271 C6,286.88 19.2268,301.9778 38.0968,315.3678 " fill="none" id="Model-DataChannel" style="stroke:#181818;stroke-width:1.0;"/><polygon fill="#181818" points="575.71,187.4,569.4352,183.8466,563.7417,188.2721,570.0166,191.8255,575.71,187.4" style="stroke:#181818;stroke-width:1.0;"/><polygon fill="#181818" points="42.99,318.84,37.9649,310.3695,38.9123,315.9465,33.3353,316.8939,42.99,318.84" style="stroke:#181818;stroke-width:1.0;"/><text fill="#000000" font-family="sans-serif" font-size="13" lengthAdjust="spacing" textLength="52" x="20.78" y="285.4951">channels</text><text fill="#000000" font-family="sans-serif" font-size="13" lengthAdjust="spacing" textLength="7" x="25.4887" y="308.131">n</text></g><!--link DataChannel to Model--><g id="link_DataChannel_Model"><path codeLine="69" d="M94.8623,309.4927 C107.2723,294.2027 119.51,282.39 141.78,271 C284.44,198.05 470.791,184.5012 569.481,182.6712 " fill="none" id="DataChannel-Model" style="stroke:#181818;stroke-width:1.0;"/><polygon fill="none" points="87.3,318.81,94.1869,316.6721,94.8623,309.4927,87.9754,311.6306,87.3,318.81" style="stroke:#181818;stroke-width:1.0;"/><polygon fill="#181818" points="575.48,182.56,566.4074,178.7275,570.4809,182.6527,566.5557,186.7262,575.48,182.56" style="stroke:#181818;stroke-width:1.0;"/><text fill="#000000" font-family="sans-serif" font-size="13" lengthAdjust="spacing" textLength="40" x="142.78" y="285.4951">stream</text><text fill="#000000" font-family="sans-serif" font-size="13" lengthAdjust="spacing" textLength="7" x="560.6406" y="197.0399">1</text></g><!--link Model to DataStreamInstance--><g id="link_Model_DataStreamInstance"><path codeLine="26" d="M563.4922,186.7798 C452.2222,193.5598 243.09,213.38 195.78,271 C183.1,286.43 194.313,301.4002 210.763,314.9802 " fill="none" id="Model-DataStreamInstance" style="stroke:#181818;stroke-width:1.0;"/><polygon fill="#181818" points="575.47,186.05,569.2378,182.4223,563.4922,186.7798,569.7244,190.4075,575.47,186.05" style="stroke:#181818;stroke-width:1.0;"/><polygon fill="#181818" points="215.39,318.8,210.996,309.9857,211.5341,315.6169,205.9029,316.155,215.39,318.8" style="stroke:#181818;stroke-width:1.0;"/><text fill="#000000" font-family="sans-serif" font-size="13" lengthAdjust="spacing" textLength="56" x="196.78" y="285.4951">instances</text><text fill="#000000" font-family="sans-serif" font-size="13" lengthAdjust="spacing" textLength="7" x="199.2362" y="308.0788">n</text></g><!--link DataStreamInstance to Model--><g id="link_DataStreamInstance_Model"><path codeLine="74" d="M267.8318,310.4626 C283.0618,295.6126 297.82,283.47 321.78,271 C403.97,228.22 503.342,205.4167 569.722,193.6567 " fill="none" id="DataStreamInstance-Model" style="stroke:#181818;stroke-width:1.0;"/><polygon fill="none" points="259.24,318.84,266.3284,317.5152,267.8318,310.4626,260.7434,311.7874,259.24,318.84" style="stroke:#181818;stroke-width:1.0;"/><polygon fill="#181818" points="575.63,192.61,566.0702,190.2413,570.7067,193.4822,567.4658,198.1187,575.63,192.61" style="stroke:#181818;stroke-width:1.0;"/><text fill="#000000" font-family="sans-serif" font-size="13" lengthAdjust="spacing" textLength="36" x="322.78" y="285.4951">parent</text><text fill="#000000" font-family="sans-serif" font-size="13" lengthAdjust="spacing" textLength="7" x="560.808" y="208.2519">1</text></g><!--link Model to DataTransform--><g id="link_Model_DataTransform"><path codeLine="32" d="M563.5845,184.889 C500.1345,189.709 418.02,207.14 371.78,271 C354.17,295.32 380.9283,310.8026 414.4383,321.5826 " fill="none" id="Model-DataTransform" style="stroke:#181818;stroke-width:1.0;"/><polygon fill="none" points="575.55,183.98,569.2642,180.446,563.5845,184.889,569.8702,188.423,575.55,183.98" style="stroke:#181818;stroke-width:1.0;"/><polygon fill="#181818" points="420.15,323.42,412.8074,316.856,415.3902,321.8888,410.3575,324.4717,420.15,323.42" style="stroke:#181818;stroke-width:1.0;"/><text fill="#000000" font-family="sans-serif" font-size="13" lengthAdjust="spacing" textLength="61" x="372.78" y="285.4951">transforms</text><text fill="#000000" font-family="sans-serif" font-size="13" lengthAdjust="spacing" textLength="7" x="405.3177" y="318.0696">n</text></g><!--link DataTransform to Model--><g id="link_DataTransform_Model"><path codeLine="99" d="M468.9447,307.2196 C465.4747,293.1596 466.16,285.36 474.78,271 C496.57,234.67 533.3794,214.5276 569.7594,201.5376 " fill="none" id="DataTransform-Model" style="stroke:#181818;stroke-width:1.0;"/><polygon fill="none" points="471.82,318.87,474.2658,312.0863,468.9447,307.2196,466.4989,314.0032,471.82,318.87" style="stroke:#181818;stroke-width:1.0;"/><polygon fill="#181818" points="575.41,199.52,565.589,198.7794,570.7012,201.2014,568.2792,206.3135,575.41,199.52" style="stroke:#181818;stroke-width:1.0;"/><text fill="#000000" font-family="sans-serif" font-size="13" lengthAdjust="spacing" textLength="35" x="475.78" y="285.4951">inputs</text><text fill="#000000" font-family="sans-serif" font-size="13" lengthAdjust="spacing" textLength="7" x="560.9867" y="215.8017">n</text></g><!--link DataTransform to Model--><g id="link_DataTransform_Model"><path codeLine="104" d="M505.5051,310.6399 C525.5551,291.5699 545.1516,272.9542 574.1816,245.3542 " fill="none" id="DataTransform-Model-1" style="stroke:#181818;stroke-width:1.0;"/><polygon fill="none" points="496.81,318.91,503.9143,317.6733,505.5051,310.6399,498.4009,311.8766,496.81,318.91" style="stroke:#181818;stroke-width:1.0;"/><polygon fill="#181818" points="578.53,241.22,569.2513,244.5224,574.9063,244.6652,574.7635,250.3202,578.53,241.22" style="stroke:#181818;stroke-width:1.0;"/><text fill="#000000" font-family="sans-serif" font-size="13" lengthAdjust="spacing" textLength="43" x="545.78" y="285.4951">outputs</text><text fill="#000000" font-family="sans-serif" font-size="13" lengthAdjust="spacing" textLength="7" x="563.6386" y="262.9023">n</text></g><!--link Model to SABundle--><g id="link_Model_SABundle"><path codeLine="38" d="M716.106,185.8485 C832.556,191.4685 1058.94,209.76 1109.78,271 C1114.89,277.16 1114.88,282.84 1109.78,289 C1083.48,320.78 969.2706,331.3643 904.8406,334.9743 " fill="none" id="Model-SABundle" style="stroke:#181818;stroke-width:1.0;"/><polygon fill="none" points="704.12,185.27,709.9202,189.5546,716.106,185.8485,710.3058,181.5639,704.12,185.27" style="stroke:#181818;stroke-width:1.0;"/><polygon fill="#181818" points="898.85,335.31,908.0597,338.8003,903.8422,335.0303,907.6121,330.8128,898.85,335.31" style="stroke:#181818;stroke-width:1.0;"/><text fill="#000000" font-family="sans-serif" font-size="13" lengthAdjust="spacing" textLength="64" x="1113.78" y="285.4951">consumers</text><text fill="#000000" font-family="sans-serif" font-size="13" lengthAdjust="spacing" textLength="7" x="906.789" y="330.9671">n</text></g><!--link Model to SABundle--><g id="link_Model_SABundle"><path codeLine="44" d="M623.8349,253.2362 C622.7649,270.2062 626.09,275.74 636.78,289 C658.95,316.51 753.2228,328.5378 810.7928,333.5678 " fill="none" id="Model-SABundle-1" style="stroke:#181818;stroke-width:1.0;"/><polygon fill="none" points="624.59,241.26,620.2204,246.9964,623.8349,253.2362,628.2045,247.4998,624.59,241.26" style="stroke:#181818;stroke-width:1.0;"/><polygon fill="#181818" points="816.77,334.09,808.1523,329.3218,811.789,333.6548,807.456,337.2915,816.77,334.09" style="stroke:#181818;stroke-width:1.0;"/><text fill="#000000" font-family="sans-serif" font-size="13" lengthAdjust="spacing" textLength="57" x="637.78" y="285.4951">producers</text><text fill="#000000" font-family="sans-serif" font-size="13" lengthAdjust="spacing" textLength="7" x="801.8417" y="329.5297">n</text></g><!--link SABundle to Model--><g id="link_SABundle_Model"><path codeLine="109" d="M805.3065,322.4482 C780.4665,314.6082 760.4,306.02 735.78,289 C716.78,275.87 702.8893,262.7894 687.8393,245.7294 " fill="none" id="SABundle-Model" style="stroke:#181818;stroke-width:1.0;"/><polygon fill="none" points="816.75,326.06,812.2322,320.4396,805.3065,322.4482,809.8243,328.0686,816.75,326.06" style="stroke:#181818;stroke-width:1.0;"/><polygon fill="#181818" points="683.87,241.23,686.8243,250.6253,687.1777,244.9795,692.8235,245.3329,683.87,241.23" style="stroke:#181818;stroke-width:1.0;"/><text fill="#000000" font-family="sans-serif" font-size="13" lengthAdjust="spacing" textLength="35" x="736.78" y="285.4951">inputs</text><text fill="#000000" font-family="sans-serif" font-size="13" lengthAdjust="spacing" textLength="7" x="681.8169" y="262.9135">n</text></g><!--link SABundle to Model--><g id="link_SABundle_Model"><path codeLine="114" d="M827.8293,311.1852 C811.7693,297.5252 797.92,286.33 776.78,271 C753.55,254.16 732.2701,240.0485 708.9301,225.2785 " fill="none" id="SABundle-Model-1" style="stroke:#181818;stroke-width:1.0;"/><polygon fill="none" points="836.97,318.96,834.9912,312.0257,827.8293,311.1852,829.808,318.1195,836.97,318.96" style="stroke:#181818;stroke-width:1.0;"/><polygon fill="#181818" points="703.86,222.07,709.3262,230.2627,708.0851,224.7437,713.6041,223.5026,703.86,222.07" style="stroke:#181818;stroke-width:1.0;"/><text fill="#000000" font-family="sans-serif" font-size="13" lengthAdjust="spacing" textLength="43" x="800.78" y="285.4951">outputs</text><text fill="#000000" font-family="sans-serif" font-size="13" lengthAdjust="spacing" textLength="7" x="711.6739" y="223.2682">n</text></g><!--link SABundle to Model--><g id="link_SABundle_Model"><path codeLine="119" d="M862.5936,306.8089 C864.2436,292.4889 862.69,284.68 852.78,271 C818.25,223.38 759.0286,202.631 709.8386,192.581 " fill="none" id="SABundle-Model-2" style="stroke:#181818;stroke-width:1.0;"/><polygon fill="none" points="861.22,318.73,865.8805,313.2273,862.5936,306.8089,857.9331,312.3116,861.22,318.73" style="stroke:#181818;stroke-width:1.0;"/><polygon fill="#181818" points="703.96,191.38,711.9771,197.1006,708.8588,192.3809,713.5785,189.2625,703.96,191.38" style="stroke:#181818;stroke-width:1.0;"/><text fill="#000000" font-family="sans-serif" font-size="13" lengthAdjust="spacing" textLength="87" x="860.78" y="285.4951">learningStream</text><text fill="#000000" font-family="sans-serif" font-size="13" lengthAdjust="spacing" textLength="7" x="711.7855" y="189.0297">1</text></g><!--link SABundle to Model--><g id="link_SABundle_Model"><path codeLine="124" d="M910.3571,323.3061 C945.6671,312.5261 976.53,296.98 956.78,271 C926.32,230.93 793.4719,205.2214 709.9619,192.5314 " fill="none" id="SABundle-Model-3" style="stroke:#181818;stroke-width:1.0;"/><polygon fill="none" points="898.88,326.81,905.7865,328.8837,910.3571,323.3061,903.4506,321.2324,898.88,326.81" style="stroke:#181818;stroke-width:1.0;"/><polygon fill="#181818" points="704.03,191.63,712.3269,196.9367,708.9733,192.3812,713.5288,189.0275,704.03,191.63" style="stroke:#181818;stroke-width:1.0;"/><text fill="#000000" font-family="sans-serif" font-size="13" lengthAdjust="spacing" textLength="77" x="962.78" y="285.4951">adminStream</text><text fill="#000000" font-family="sans-serif" font-size="13" lengthAdjust="spacing" textLength="7" x="711.8636" y="207.1586">1</text></g><!--link Model to SecurityKey--><g id="link_Model_SecurityKey"><path codeLine="50" d="M716.0074,187.7644 C819.7974,195.4344 1017.8,216 1186.78,271 C1223.24,282.87 1256.9128,300.7505 1282.5328,315.8705 " fill="none" id="Model-SecurityKey" style="stroke:#181818;stroke-width:1.0;"/><polygon fill="none" points="704.04,186.88,709.7289,191.3113,716.0074,187.7644,710.3185,183.3331,704.04,186.88" style="stroke:#181818;stroke-width:1.0;"/><polygon fill="#181818" points="1287.7,318.92,1281.9821,310.9009,1283.394,316.3787,1277.9161,317.7905,1287.7,318.92" style="stroke:#181818;stroke-width:1.0;"/><text fill="#000000" font-family="sans-serif" font-size="13" lengthAdjust="spacing" textLength="83" x="1231.78" y="285.4951">encryptionKey</text><text fill="#000000" font-family="sans-serif" font-size="13" lengthAdjust="spacing" textLength="7" x="1270.7224" y="308.2355">1</text></g><!--link Model to SecurityKey--><g id="link_Model_SecurityKey"><path codeLine="56" d="M715.7695,187.2017 C877.9595,196.7017 1283.1,224.76 1323.78,271 C1335.12,283.89 1332.9897,298.5131 1327.4797,313.1831 " fill="none" id="Model-SecurityKey-1" style="stroke:#181818;stroke-width:1.0;"/><polygon fill="none" points="703.79,186.5,709.5458,190.844,715.7695,187.2017,710.0136,182.8577,703.79,186.5" style="stroke:#181818;stroke-width:1.0;"/><polygon fill="#181818" points="1325.37,318.8,1332.2791,311.7811,1327.1281,314.1193,1324.7899,308.9682,1325.37,318.8" style="stroke:#181818;stroke-width:1.0;"/><text fill="#000000" font-family="sans-serif" font-size="13" lengthAdjust="spacing" textLength="83" x="1330.78" y="285.4951">decryptionKey</text><text fill="#000000" font-family="sans-serif" font-size="13" lengthAdjust="spacing" textLength="7" x="1319.9288" y="308.0788">1</text></g><!--link InputStreamInstance to Model--><g id="link_InputStreamInstance_Model"><path codeLine="79" d="M562.3484,55.4842 C574.1384,74.6042 583.83,90.3034 600.83,117.8634 " fill="none" id="InputStreamInstance-Model" style="stroke:#181818;stroke-width:1.0;"/><polygon fill="none" points="556.05,45.27,555.7945,52.4766,562.3484,55.4842,562.6039,48.2776,556.05,45.27" style="stroke:#181818;stroke-width:1.0;"/><polygon fill="#181818" points="603.98,122.97,602.6595,113.2101,601.355,118.7145,595.8506,117.41,603.98,122.97" style="stroke:#181818;stroke-width:1.0;"/><text fill="#000000" font-family="sans-serif" font-size="13" lengthAdjust="spacing" textLength="36" x="584.78" y="89.4951">parent</text><text fill="#000000" font-family="sans-serif" font-size="13" lengthAdjust="spacing" textLength="7" x="592.1903" y="112.2906">1</text></g><!--link OutputStreamInstance to Model--><g id="link_OutputStreamInstance_Model"><path codeLine="84" d="M717.2077,55.4818 C705.4077,74.6018 695.7313,90.3042 678.7213,117.8642 " fill="none" id="OutputStreamInstance-Model" style="stroke:#181818;stroke-width:1.0;"/><polygon fill="none" points="723.51,45.27,716.9549,48.2752,717.2077,55.4818,723.7628,52.4767,723.51,45.27" style="stroke:#181818;stroke-width:1.0;"/><polygon fill="#181818" points="675.57,122.97,683.7008,117.4122,678.1961,118.7152,676.8931,113.2104,675.57,122.97" style="stroke:#181818;stroke-width:1.0;"/><text fill="#000000" font-family="sans-serif" font-size="13" lengthAdjust="spacing" textLength="36" x="705.78" y="89.4951">parent</text><text fill="#000000" font-family="sans-serif" font-size="13" lengthAdjust="spacing" textLength="7" x="672.5053" y="112.2906">1</text></g><!--link AdminTransform to Model--><g id="link_AdminTransform_Model"><path codeLine="89" d="M869.599,51.0238 C853.529,59.9838 844.36,65.11 826.78,75 C785.96,97.96 745.4368,120.9161 709.4068,141.3861 " fill="none" id="AdminTransform-Model" style="stroke:#181818;stroke-width:1.0;"/><polygon fill="none" points="880.08,45.18,872.8916,44.6082,869.599,51.0238,876.7874,51.5955,880.08,45.18" style="stroke:#181818;stroke-width:1.0;"/><polygon fill="#181818" points="704.19,144.35,713.9912,143.3821,708.5374,141.8801,710.0393,136.4263,704.19,144.35" style="stroke:#181818;stroke-width:1.0;"/><text fill="#000000" font-family="sans-serif" font-size="13" lengthAdjust="spacing" textLength="35" x="827.78" y="89.4951">inputs</text><text fill="#000000" font-family="sans-serif" font-size="13" lengthAdjust="spacing" textLength="7" x="711.6177" y="136.8474">n</text></g><!--link AdminTransform to Model--><g id="link_AdminTransform_Model"><path codeLine="94" d="M898.6846,55.8514 C890.9946,70.5414 883.97,80.16 867.78,93 C819.57,131.22 758.6211,152.848 709.8111,165.738 " fill="none" id="AdminTransform-Model-1" style="stroke:#181818;stroke-width:1.0;"/><polygon fill="none" points="904.25,45.22,897.9235,48.6806,898.6846,55.8514,905.0111,52.3908,904.25,45.22" style="stroke:#181818;stroke-width:1.0;"/><polygon fill="#181818" points="704.01,167.27,713.733,168.8394,708.8443,165.9933,711.6904,161.1046,704.01,167.27" style="stroke:#181818;stroke-width:1.0;"/><text fill="#000000" font-family="sans-serif" font-size="13" lengthAdjust="spacing" textLength="43" x="884.78" y="89.4951">outputs</text><text fill="#000000" font-family="sans-serif" font-size="13" lengthAdjust="spacing" textLength="7" x="711.8413" y="162.132">n</text></g><!--SRC=[nLR1JiCm3BttAwno0QGTkFQ0DCPbGWYaxGUor7IHKgTAKgG9xTz9sgrRIzPIO2E7A7PjlsVBjiebCmRYHsRPmcfaUGpCmBDAKS971CPgGHaGop6AWANf4sxCKYsiqdXz4y6g53BrZqAhTs648Yz4soZIo2sZJ2B4ipKZGZbpuQspU5LIy4s54_m2Lr9aQxkI9JeABbJDHaqczn1JVC8fWS8_19ge1UupstbKa4Vo2Q3RFT2nQGAyVWN2ruMRat5AZWrAM_qTi8v70cBt380kDIFpfdJUu3MQeGAsZHEm-tS7PZ5zA2cLTKPxOIXuO-SgfiYKEUe_3kjQBItvrx38IotindLe7VaWzmQ_Yrkc2I1nlIbyQpdvJ1WfjZ7SSBdpwvd9D2BvkNLdMztLvK_O3GuLhlac49jw3npSHqrJ3uLZOpXKvjl0O-PiW4R79yIcO1h9XjdCgIXjW4v0Fymdv3IMq4jfmun27uOf1Rt6SfgckQ3sccghXdbqx4FTAdprp7yoK5MnpEc-7LxL0ztwymfS0But_RvTtuFQM8xDznnu5qdmUAWaCatkjslHim_FWSjyhxT0Fm40]--></g></svg>