<?xml version="1.0" encoding="us-ascii" standalone="no"?><svg xmlns="http://www.w3.org/2000/svg" xmlns:xlink="http://www.w3.org/1999/xlink" contentStyleType="text/css" height="941px" preserveAspectRatio="none" style="width:262px;height:941px;background:#FFFFFF;" version="1.1" viewBox="0 0 262 941" width="262px" zoomAndPan="magnify"><defs/><g><path d="M19.5,7 L236.17,7 A12.5,12.5 0 0 1 248.67,19.5 L248.67,34.6094 L7,34.6094 L7,19.5 A12.5,12.5 0 0 1 19.5,7 " fill="#FFCC88" style="stroke:#FFCC88;stroke-width:1.0;"/><rect fill="none" height="928.6094" rx="12.5" ry="12.5" style="stroke:#181818;stroke-width:0.5;" width="241.67" x="7" y="7"/><line style="stroke:#181818;stroke-width:0.5;" x1="7" x2="248.67" y1="34.6094" y2="34.6094"/><text fill="#000000" font-family="sans-serif" font-size="14" lengthAdjust="spacing" textLength="75" x="90.335" y="26.5332">DataStream</text><g id="DataStream.Init"><rect fill="#FFCC88" height="50" rx="12.5" ry="12.5" style="stroke:#181818;stroke-width:0.5;" width="50" x="98.67" y="46.6094"/><line style="stroke:#181818;stroke-width:0.5;" x1="98.67" x2="148.67" y1="74.2188" y2="74.2188"/><text fill="#000000" font-family="sans-serif" font-size="14" lengthAdjust="spacing" textLength="18" x="114.67" y="66.1426">Init</text></g><g id="DataStream.Building"><rect fill="#FFCC88" height="52.7031" rx="12.5" ry="12.5" style="stroke:#181818;stroke-width:0.5;" width="96" x="75.67" y="188.6094"/><line style="stroke:#181818;stroke-width:0.5;" x1="75.67" x2="171.67" y1="216.2188" y2="216.2188"/><text fill="#000000" font-family="sans-serif" font-size="14" lengthAdjust="spacing" textLength="50" x="98.67" y="208.1426">Building</text><text fill="#000000" font-family="sans-serif" font-size="12" lengthAdjust="spacing" textLength="76" x="80.67" y="233.6758">entry/ Custom</text></g><g id="DataStream.Created"><rect fill="#FFCC88" height="50" rx="12.5" ry="12.5" style="stroke:#181818;stroke-width:0.5;" width="71" x="27.17" y="449.6094"/><line style="stroke:#181818;stroke-width:0.5;" x1="27.17" x2="98.17" y1="477.2188" y2="477.2188"/><text fill="#000000" font-family="sans-serif" font-size="14" lengthAdjust="spacing" textLength="51" x="37.17" y="469.1426">Created</text></g><g id="DataStream.Disabled"><rect fill="#FFCC88" height="50" rx="12.5" ry="12.5" style="stroke:#181818;stroke-width:0.5;" width="75" x="25.17" y="733.6094"/><line style="stroke:#181818;stroke-width:0.5;" x1="25.17" x2="100.17" y1="761.2188" y2="761.2188"/><text fill="#000000" font-family="sans-serif" font-size="14" lengthAdjust="spacing" textLength="55" x="35.17" y="753.1426">Disabled</text></g><g id="DataStream.Enabled"><rect fill="#FFCC88" height="50" rx="12.5" ry="12.5" style="stroke:#181818;stroke-width:0.5;" width="72" x="26.67" y="591.6094"/><line style="stroke:#181818;stroke-width:0.5;" x1="26.67" x2="98.67" y1="619.2188" y2="619.2188"/><text fill="#000000" font-family="sans-serif" font-size="14" lengthAdjust="spacing" textLength="52" x="36.67" y="611.1426">Enabled</text></g><g id="DataStream.Failed"><rect fill="#FFCC88" height="50" rx="12.5" ry="12.5" style="stroke:#181818;stroke-width:0.5;" width="59" x="156.17" y="449.6094"/><line style="stroke:#181818;stroke-width:0.5;" x1="156.17" x2="215.17" y1="477.2188" y2="477.2188"/><text fill="#000000" font-family="sans-serif" font-size="14" lengthAdjust="spacing" textLength="39" x="166.17" y="469.1426">Failed</text></g><g id="DataStream.Destroyed"><rect fill="#FFCC88" height="50" rx="12.5" ry="12.5" style="stroke:#181818;stroke-width:0.5;" width="85" x="20.17" y="875.6094"/><line style="stroke:#181818;stroke-width:0.5;" x1="20.17" x2="105.17" y1="903.2188" y2="903.2188"/><text fill="#000000" font-family="sans-serif" font-size="14" lengthAdjust="spacing" textLength="65" x="30.17" y="895.1426">Destroyed</text></g><g id="elem_builtCondition"><polygon fill="#F1F1F1" points="123.67,333.6094,135.67,345.6094,123.67,357.6094,111.67,345.6094,123.67,333.6094" style="stroke:#181818;stroke-width:0.5;"/></g><!--link Init to Building--><g id="link_Init_Building"><path d="M123.67,96.6094 C123.67,122.1594 123.67,156.4294 123.67,182.5494 " fill="none" id="Init-to-Building" style="stroke:#000000;stroke-width:1.0;"/><polygon fill="#000000" points="123.67,188.5494,127.67,179.5494,123.67,183.5494,119.67,179.5494,123.67,188.5494" style="stroke:#000000;stroke-width:1.0;"/><text fill="#000000" font-family="sans-serif" font-size="13" lengthAdjust="spacing" textLength="27" x="124.67" y="148.1045">build</text></g><!--link Building to builtCondition--><g id="link_Building_builtCondition"><path d="M123.67,241.8094 C123.67,269.7794 123.67,307.2394 123.67,327.4994 " fill="none" id="Building-to-builtCondition" style="stroke:#000000;stroke-width:1.0;"/><polygon fill="#000000" points="123.67,333.4994,127.67,324.4994,123.67,328.4994,119.67,324.4994,123.67,333.4994" style="stroke:#000000;stroke-width:1.0;"/><text fill="#000000" font-family="sans-serif" font-size="13" lengthAdjust="spacing" textLength="24" x="124.67" y="293.1045">built</text></g><!--link builtCondition to Created--><g id="link_builtCondition_Created"><path d="M116.94,351.3394 C106.47,359.0794 86.49,375.5294 76.67,394.6094 C67.94,411.5794 65.0072,427.0276 63.7372,443.2876 " fill="none" id="builtCondition-to-Created" style="stroke:#000000;stroke-width:1.0;"/><polygon fill="#000000" points="63.27,449.2694,67.9587,440.6082,63.6593,444.2846,59.983,439.9852,63.27,449.2694" style="stroke:#000000;stroke-width:1.0;"/><text fill="#000000" font-family="sans-serif" font-size="13" lengthAdjust="spacing" textLength="85" x="77.67" y="409.1045">[No build error]</text></g><!--link builtCondition to Failed--><g id="link_builtCondition_Failed"><path d="M129.47,351.9394 C138.15,360.2394 154.5,377.1294 163.67,394.6094 C172.73,411.8794 177.201,427.4104 180.501,443.5904 " fill="none" id="builtCondition-to-Failed" style="stroke:#000000;stroke-width:1.0;"/><polygon fill="#000000" points="181.7,449.4694,183.8207,439.8516,180.7008,444.5702,175.9821,441.4503,181.7,449.4694" style="stroke:#000000;stroke-width:1.0;"/><text fill="#000000" font-family="sans-serif" font-size="13" lengthAdjust="spacing" textLength="67" x="171.67" y="409.1045">[Build error]</text></g><!--link Created to Enabled--><g id="link_Created_Enabled"><path d="M62.67,499.6794 C62.67,525.3194 62.67,559.6894 62.67,585.3894 " fill="none" id="Created-to-Enabled" style="stroke:#000000;stroke-width:1.0;"/><polygon fill="#000000" points="62.67,591.3894,66.67,582.3894,62.67,586.3894,58.67,582.3894,62.67,591.3894" style="stroke:#000000;stroke-width:1.0;"/><text fill="#000000" font-family="sans-serif" font-size="13" lengthAdjust="spacing" textLength="38" x="63.67" y="551.1045">deploy</text></g><!--link Disabled to Enabled--><g id="link_Disabled_Enabled"><path d="M67.21,733.4394 C69.63,717.8194 71.87,697.0394 70.67,678.6094 C69.88,666.4594 69.0575,658.9678 67.4475,647.8178 " fill="none" id="Disabled-to-Enabled" style="stroke:#000000;stroke-width:1.0;"/><polygon fill="#000000" points="66.59,641.8794,63.9173,651.3586,67.3046,646.8281,71.8352,650.2153,66.59,641.8794" style="stroke:#000000;stroke-width:1.0;"/><text fill="#000000" font-family="sans-serif" font-size="13" lengthAdjust="spacing" textLength="38" x="72.67" y="693.1045">enable</text></g><!--link Disabled to Destroyed--><g id="link_Disabled_Destroyed"><path d="M62.67,783.6794 C62.67,809.3194 62.67,843.6894 62.67,869.3894 " fill="none" id="Disabled-to-Destroyed" style="stroke:#000000;stroke-width:1.0;"/><polygon fill="#000000" points="62.67,875.3894,66.67,866.3894,62.67,870.3894,58.67,866.3894,62.67,875.3894" style="stroke:#000000;stroke-width:1.0;"/><text fill="#000000" font-family="sans-serif" font-size="13" lengthAdjust="spacing" textLength="43" x="63.67" y="835.1045">destroy</text></g><!--link Enabled to Disabled--><g id="link_Enabled_Disabled"><path d="M42.66,641.8394 C35.16,652.4494 27.51,665.4594 23.67,678.6094 C18,697.9894 24.9214,713.6109 36.4714,728.8209 " fill="none" id="Enabled-to-Disabled" style="stroke:#000000;stroke-width:1.0;"/><polygon fill="#000000" points="40.1,733.5994,37.8427,724.0127,37.0762,729.6174,31.4715,728.8508,40.1,733.5994" style="stroke:#000000;stroke-width:1.0;"/><text fill="#000000" font-family="sans-serif" font-size="13" lengthAdjust="spacing" textLength="41" x="24.67" y="693.1045">disable</text></g><!--SRC=[XP6nZi8m38PtFuKbvkfMLA4Ej7VIBIoCg4EQchleIe8ITwWGxqxQ423eA9v-nTzlnxPZmOILOB5bI-A0Y_rUokKIJm3emqtvRwtu8JCcpe_vTQ-wLkcVEQRqvPdQEQHIJZJTFFEfto9VGhqXAd9ipV0Vv6EQDjijcax8lphBYljyEJQZ18WlEP9cEtnWsJis1u3GOAIuDBfLh8p6rKh-6YMfA6x6jC4J7zemmDDxuhakDCVTneHl8LbhR3rl2zlnhdLYYUT9sBZi75iwTcO0k9te1KUJUiNTzpvMd3H0DATaz7imI01_dGi0]--></g></svg>