<?xml version="1.0" encoding="UTF-8" standalone="no"?><svg xmlns="http://www.w3.org/2000/svg" xmlns:xlink="http://www.w3.org/1999/xlink" contentScriptType="application/ecmascript" contentStyleType="text/css" height="953px" preserveAspectRatio="none" style="width:282px;height:953px;" version="1.1" viewBox="0 0 282 953" width="282px" zoomAndPan="magnify"><defs><filter height="300%" id="f1jh1rjhpuju0m" width="300%" x="-1" y="-1"><feGaussianBlur result="blurOut" stdDeviation="2.0"/><feColorMatrix in="blurOut" result="blurOut2" type="matrix" values="0 0 0 0 0 0 0 0 0 0 0 0 0 0 0 0 0 0 .4 0"/><feOffset dx="4.0" dy="4.0" in="blurOut2" result="blurOut3"/><feBlend in="SourceGraphic" in2="blurOut3" mode="normal"/></filter></defs><g><rect fill="#FFCC88" filter="url(#f1jh1rjhpuju0m)" height="934.6094" rx="12.5" ry="12.5" style="stroke: #A80036; stroke-width: 1.5;" width="264" x="6" y="8"/><rect fill="#FFFFFF" height="901" rx="12.5" ry="12.5" style="stroke: #FFFFFF; stroke-width: 1.0;" width="258" x="9" y="38.6094"/><line style="stroke: #A80036; stroke-width: 1.5;" x1="6" x2="270" y1="35.6094" y2="35.6094"/><text fill="#000000" font-family="sans-serif" font-size="14" lengthAdjust="spacingAndGlyphs" textLength="75" x="100.5" y="27.5332">DataStream</text><polygon fill="#FEFECE" filter="url(#f1jh1rjhpuju0m)" points="120.5,335.6094,132.5,347.6094,120.5,359.6094,108.5,347.6094,120.5,335.6094" style="stroke: #A80036; stroke-width: 1.5;"/><rect fill="#FFCC88" filter="url(#f1jh1rjhpuju0m)" height="50" rx="12.5" ry="12.5" style="stroke: #A80036; stroke-width: 1.5;" width="50" x="95.5" y="48.6094"/><line style="stroke: #A80036; stroke-width: 1.5;" x1="95.5" x2="145.5" y1="76.2188" y2="76.2188"/><text fill="#000000" font-family="sans-serif" font-size="14" lengthAdjust="spacingAndGlyphs" textLength="18" x="111.5" y="68.1426">Init</text><rect fill="#FFCC88" filter="url(#f1jh1rjhpuju0m)" height="52.7031" rx="12.5" ry="12.5" style="stroke: #A80036; stroke-width: 1.5;" width="96" x="72.5" y="190.6094"/><line style="stroke: #A80036; stroke-width: 1.5;" x1="72.5" x2="168.5" y1="218.2188" y2="218.2188"/><text fill="#000000" font-family="sans-serif" font-size="14" lengthAdjust="spacingAndGlyphs" textLength="50" x="95.5" y="210.1426">Building</text><text fill="#000000" font-family="sans-serif" font-size="12" lengthAdjust="spacingAndGlyphs" textLength="76" x="77.5" y="235.6758">entry/ Custom</text><rect fill="#FFCC88" filter="url(#f1jh1rjhpuju0m)" height="50" rx="12.5" ry="12.5" style="stroke: #A80036; stroke-width: 1.5;" width="71" x="24" y="451.6094"/><line style="stroke: #A80036; stroke-width: 1.5;" x1="24" x2="95" y1="479.2188" y2="479.2188"/><text fill="#000000" font-family="sans-serif" font-size="14" lengthAdjust="spacingAndGlyphs" textLength="51" x="34" y="471.1426">Created</text><rect fill="#FFCC88" filter="url(#f1jh1rjhpuju0m)" height="50" rx="12.5" ry="12.5" style="stroke: #A80036; stroke-width: 1.5;" width="75" x="22" y="735.6094"/><line style="stroke: #A80036; stroke-width: 1.5;" x1="22" x2="97" y1="763.2188" y2="763.2188"/><text fill="#000000" font-family="sans-serif" font-size="14" lengthAdjust="spacingAndGlyphs" textLength="55" x="32" y="755.1426">Disabled</text><rect fill="#FFCC88" filter="url(#f1jh1rjhpuju0m)" height="50" rx="12.5" ry="12.5" style="stroke: #A80036; stroke-width: 1.5;" width="72" x="23.5" y="593.6094"/><line style="stroke: #A80036; stroke-width: 1.5;" x1="23.5" x2="95.5" y1="621.2188" y2="621.2188"/><text fill="#000000" font-family="sans-serif" font-size="14" lengthAdjust="spacingAndGlyphs" textLength="52" x="33.5" y="613.1426">Enabled</text><rect fill="#FFCC88" filter="url(#f1jh1rjhpuju0m)" height="50" rx="12.5" ry="12.5" style="stroke: #A80036; stroke-width: 1.5;" width="59" x="153" y="451.6094"/><line style="stroke: #A80036; stroke-width: 1.5;" x1="153" x2="212" y1="479.2188" y2="479.2188"/><text fill="#000000" font-family="sans-serif" font-size="14" lengthAdjust="spacingAndGlyphs" textLength="39" x="163" y="471.1426">Failed</text><rect fill="#FFCC88" filter="url(#f1jh1rjhpuju0m)" height="50" rx="12.5" ry="12.5" style="stroke: #A80036; stroke-width: 1.5;" width="85" x="17" y="877.6094"/><line style="stroke: #A80036; stroke-width: 1.5;" x1="17" x2="102" y1="905.2188" y2="905.2188"/><text fill="#000000" font-family="sans-serif" font-size="14" lengthAdjust="spacingAndGlyphs" textLength="65" x="27" y="897.1426">Destroyed</text><!--link Init to Building--><path d="M120.5,98.6134 C120.5,122.5634 120.5,159.4504 120.5,185.4944 " fill="none" id="Init-Building" style="stroke: #000000; stroke-width: 1.0;"/><polygon fill="#000000" points="120.5,190.5514,124.5,181.5514,120.5,185.5514,116.5,181.5514,120.5,190.5514" style="stroke: #000000; stroke-width: 1.0;"/><text fill="#000000" font-family="sans-serif" font-size="13" lengthAdjust="spacingAndGlyphs" textLength="27" x="121.5" y="150.1045">build</text><!--link Building to builtCondition--><path d="M120.5,243.8044 C120.5,269.5964 120.5,308.5434 120.5,330.3474 " fill="none" id="Building-builtCondition" style="stroke: #000000; stroke-width: 1.0;"/><polygon fill="#000000" points="120.5,335.5034,124.5,326.5034,120.5,330.5034,116.5,326.5034,120.5,335.5034" style="stroke: #000000; stroke-width: 1.0;"/><text fill="#000000" font-family="sans-serif" font-size="13" lengthAdjust="spacingAndGlyphs" textLength="24" x="121.5" y="295.1045">built</text><!--link builtCondition to Created--><path d="M113.7675,353.3354 C103.3023,361.0784 83.317,377.5264 73.5,396.6094 C65.6571,411.8554 62.1196,430.7024 60.5604,446.1644 " fill="none" id="builtCondition-Created" style="stroke: #000000; stroke-width: 1.0;"/><polygon fill="#000000" points="60.1041,451.2684,64.8905,442.6608,60.5498,446.2883,56.9223,441.9476,60.1041,451.2684" style="stroke: #000000; stroke-width: 1.0;"/><text fill="#000000" font-family="sans-serif" font-size="13" lengthAdjust="spacingAndGlyphs" textLength="85" x="74.5" y="411.1045">[No build error]</text><!--link builtCondition to Failed--><path d="M126.295,353.9404 C134.98,362.2414 151.328,379.1264 160.5,396.6094 C168.641,412.1274 174.04,430.9854 177.451,446.3854 " fill="none" id="builtCondition-Failed" style="stroke: #000000; stroke-width: 1.0;"/><polygon fill="#000000" points="178.532,451.4654,180.5701,441.8297,177.4908,446.575,172.7455,443.4956,178.532,451.4654" style="stroke: #000000; stroke-width: 1.0;"/><text fill="#000000" font-family="sans-serif" font-size="13" lengthAdjust="spacingAndGlyphs" textLength="67" x="168.5" y="411.1045">[Build error]</text><!--link Created to Enabled--><path d="M59.5,501.6764 C59.5,525.6164 59.5,562.3894 59.5,588.0824 " fill="none" id="Created-Enabled" style="stroke: #000000; stroke-width: 1.0;"/><polygon fill="#000000" points="59.5,593.3884,63.5,584.3884,59.5,588.3884,55.5,584.3884,59.5,593.3884" style="stroke: #000000; stroke-width: 1.0;"/><text fill="#000000" font-family="sans-serif" font-size="13" lengthAdjust="spacingAndGlyphs" textLength="38" x="60.5" y="553.1045">deploy</text><!--link Disabled to Enabled--><path d="M64.039,735.4444 C66.4553,719.8234 68.7036,699.0424 67.5,680.6094 C66.8244,670.2624 65.5108,658.9914 64.1402,648.9844 " fill="none" id="Disabled-Enabled" style="stroke: #000000; stroke-width: 1.0;"/><polygon fill="#000000" points="63.4213,643.8784,60.7152,653.3482,64.1184,648.8295,68.6371,652.2327,63.4213,643.8784" style="stroke: #000000; stroke-width: 1.0;"/><text fill="#000000" font-family="sans-serif" font-size="13" lengthAdjust="spacingAndGlyphs" textLength="38" x="69.5" y="695.1045">enable</text><!--link Disabled to Destroyed--><path d="M59.5,785.6764 C59.5,809.6164 59.5,846.3899 59.5,872.0824 " fill="none" id="Disabled-Destroyed" style="stroke: #000000; stroke-width: 1.0;"/><polygon fill="#000000" points="59.5,877.3881,63.5,868.3881,59.5,872.3881,55.5,868.3881,59.5,877.3881" style="stroke: #000000; stroke-width: 1.0;"/><text fill="#000000" font-family="sans-serif" font-size="13" lengthAdjust="spacingAndGlyphs" textLength="43" x="60.5" y="837.1045">destroy</text><!--link Enabled to Disabled--><path d="M36.9261,643.6184 C25.3805,658.8324 14.8346,679.2304 20.5,698.6094 C23.834,710.0134 30.0229,721.3124 36.5039,731.0284 " fill="none" id="Enabled-Disabled" style="stroke: #000000; stroke-width: 1.0;"/><polygon fill="#000000" points="39.4931,735.3764,37.6901,725.694,36.6603,731.2563,31.098,730.2265,39.4931,735.3764" style="stroke: #000000; stroke-width: 1.0;"/><text fill="#000000" font-family="sans-serif" font-size="13" lengthAdjust="spacingAndGlyphs" textLength="41" x="21.5" y="695.1045">disable</text><!--
@startuml



state DataStream #ffcc88 {

    state Init #ffcc88 {
    }

    state Building #ffcc88 {
    }

    state Created #ffcc88 {
    }

    state Disabled #ffcc88 {
    }

    state Enabled #ffcc88 {
    }

    state Failed #ffcc88 {
    }

    state Destroyed #ffcc88 {
    }




Init -[#black]- -> Building : build

Building: entry/ Custom

state builtCondition <<choice>>
Building -[#black]- -> builtCondition : built

builtCondition -[#black]- -> Created: [No build error]

builtCondition -[#black]- -> Failed: [Build error]

Created -[#black]- -> Enabled : deploy

Disabled -[#black]- -> Enabled : enable

Disabled -[#black]- -> Destroyed : destroy

Enabled -[#black]- -> Disabled : disable

}


@enduml

PlantUML version 1.2019.05(Sat Apr 20 09:45:36 PDT 2019)
(GPL source distribution)
Java Runtime: Java(TM) SE Runtime Environment
JVM: Java HotSpot(TM) Client VM
Java Version: 1.8.0_271-b09
Operating System: Windows 10
OS Version: 10.0
Default Encoding: Cp1252
Language: en
Country: US
--></g></svg>