<?xml version="1.0" encoding="UTF-8" standalone="no"?><svg xmlns="http://www.w3.org/2000/svg" xmlns:xlink="http://www.w3.org/1999/xlink" contentScriptType="application/ecmascript" contentStyleType="text/css" height="246px" preserveAspectRatio="none" style="width:318px;height:246px;" version="1.1" viewBox="0 0 318 246" width="318px" zoomAndPan="magnify"><defs><filter height="300%" id="f15z0q6x23wuau" width="300%" x="-1" y="-1"><feGaussianBlur result="blurOut" stdDeviation="2.0"/><feColorMatrix in="blurOut" result="blurOut2" type="matrix" values="0 0 0 0 0 0 0 0 0 0 0 0 0 0 0 0 0 0 .4 0"/><feOffset dx="4.0" dy="4.0" in="blurOut2" result="blurOut3"/><feBlend in="SourceGraphic" in2="blurOut3" mode="normal"/></filter></defs><g><!--cluster Key Manager--><polygon fill="#ADD8E6" filter="url(#f15z0q6x23wuau)" points="54,24,152,24,159,47.6094,190,47.6094,190,124,54,124,54,24" style="stroke: #000000; stroke-width: 1.5;"/><line style="stroke: #000000; stroke-width: 1.5;" x1="54" x2="159" y1="47.6094" y2="47.6094"/><text fill="#000000" font-family="sans-serif" font-size="14" font-weight="bold" lengthAdjust="spacingAndGlyphs" textLength="92" x="58" y="40.5332">Key Manager</text><!--class i--><rect fill="#FEFECE" filter="url(#f15z0q6x23wuau)" height="48" id="i" style="stroke: #A80036; stroke-width: 1.5;" width="104" x="70" y="60"/><ellipse cx="85" cy="76" fill="#B4A7E5" rx="11" ry="11" style="stroke: #A80036; stroke-width: 1.0;"/><path d="M85.9531,72.6406 L85.9531,79.2969 L87.6719,79.2969 Q88.2813,79.2969 88.5469,79.5313 Q88.8125,79.7656 88.8125,80.1563 Q88.8125,80.5313 88.5469,80.7656 Q88.2813,81 87.6719,81 L82.5313,81 Q81.9219,81 81.6563,80.7656 Q81.3906,80.5313 81.3906,80.1406 Q81.3906,79.7656 81.6563,79.5313 Q81.9219,79.2969 82.5313,79.2969 L84.25,79.2969 L84.25,72.6406 L82.5313,72.6406 Q81.9219,72.6406 81.6563,72.4063 Q81.3906,72.1719 81.3906,71.7813 Q81.3906,71.4063 81.6563,71.1719 Q81.9219,70.9375 82.5313,70.9375 L87.6719,70.9375 Q88.2813,70.9375 88.5469,71.1719 Q88.8125,71.4063 88.8125,71.7813 Q88.8125,72.1719 88.5469,72.4063 Q88.2813,72.6406 87.6719,72.6406 L85.9531,72.6406 Z "/><text fill="#000000" font-family="sans-serif" font-size="12" font-style="italic" lengthAdjust="spacingAndGlyphs" textLength="72" x="99" y="80.9102">Key Manager</text><line style="stroke: #A80036; stroke-width: 1.5;" x1="71" x2="173" y1="92" y2="92"/><line style="stroke: #A80036; stroke-width: 1.5;" x1="71" x2="173" y1="100" y2="100"/><!--entity REST--><ellipse cx="33" cy="201" fill="#FEFECE" filter="url(#f15z0q6x23wuau)" rx="8" ry="8" style="stroke: #A80036; stroke-width: 2.0;"/><text fill="#000000" font-family="sans-serif" font-size="14" lengthAdjust="spacingAndGlyphs" textLength="37" x="14.5" y="232.5332">REST</text><!--entity Web--><ellipse cx="122" cy="201" fill="#FEFECE" filter="url(#f15z0q6x23wuau)" rx="8" ry="8" style="stroke: #A80036; stroke-width: 2.0;"/><text fill="#000000" font-family="sans-serif" font-size="14" lengthAdjust="spacingAndGlyphs" textLength="29" x="107.5" y="232.5332">Web</text><!--entity CLI--><ellipse cx="211" cy="201" fill="#FEFECE" filter="url(#f15z0q6x23wuau)" rx="8" ry="8" style="stroke: #A80036; stroke-width: 2.0;"/><text fill="#000000" font-family="sans-serif" font-size="14" lengthAdjust="spacingAndGlyphs" textLength="21" x="200.5" y="232.5332">CLI</text><!--entity WebSocket--><ellipse cx="270" cy="84" fill="#FEFECE" filter="url(#f15z0q6x23wuau)" rx="8" ry="8" style="stroke: #A80036; stroke-width: 2.0;"/><text fill="#000000" font-family="sans-serif" font-size="14" lengthAdjust="spacingAndGlyphs" textLength="72" x="234" y="115.5332">WebSocket</text><!--link i to Web--><path d="M122,108.272 C122,134.1308 122,174.5106 122,191.7497 " fill="none" id="i-Web" style="stroke: #A80036; stroke-width: 1.0;"/><!--link i to CLI--><path d="M140.01,108.272 C160.023,134.1308 191.273,174.5106 204.615,191.7497 " fill="none" id="i-CLI" style="stroke: #A80036; stroke-width: 1.0;"/><!--link i to REST--><path d="M103.9895,108.272 C83.977,134.1308 52.7266,174.5106 39.385,191.7497 " fill="none" id="i-REST" style="stroke: #A80036; stroke-width: 1.0;"/><!--link i to WebSocket--><path d="M174.179,84 C205.97,84 243.662,84 260.753,84 " fill="none" id="i-WebSocket" style="stroke: #A80036; stroke-width: 1.0;"/><polygon fill="#000000" points="199.5,70.6758,193.5,73.6758,199.5,76.6758,199.5,70.6758" style="stroke: #000000; stroke-width: 1.0;"/><text fill="#000000" font-family="sans-serif" font-size="13" lengthAdjust="spacingAndGlyphs" textLength="37" x="205.5" y="77.4951">events</text><!--
@startuml



package "Key Manager" #lightblue {

    interface "Key Manager" as i {
    
    
    }
}

circle REST
circle Web
circle CLI
circle WebSocket

i -down- Web
i -down- CLI
i -down- REST
WebSocket -left- i: events >

package "Key Manager" #lightblue {


}



@enduml

PlantUML version 1.2019.05(Sat Apr 20 09:45:36 PDT 2019)
(GPL source distribution)
Java Runtime: Java(TM) SE Runtime Environment
JVM: Java HotSpot(TM) Client VM
Java Version: 1.8.0_271-b09
Operating System: Windows 10
OS Version: 10.0
Default Encoding: Cp1252
Language: en
Country: US
--></g></svg>