<?xml version="1.0" encoding="us-ascii" standalone="no"?><svg xmlns="http://www.w3.org/2000/svg" xmlns:xlink="http://www.w3.org/1999/xlink" contentStyleType="text/css" height="223px" preserveAspectRatio="none" style="width:310px;height:223px;background:#FFFFFF;" version="1.1" viewBox="0 0 310 223" width="310px" zoomAndPan="magnify"><defs/><g><!--cluster Key Manager--><g id="cluster_Key Manager"><path d="M41,6 L134,6 A3.75,3.75 0 0 1 136.5,8.5 L143.5,29.6094 L186,29.6094 A2.5,2.5 0 0 1 188.5,32.1094 L188.5,103.5 A2.5,2.5 0 0 1 186,106 L41,106 A2.5,2.5 0 0 1 38.5,103.5 L38.5,8.5 A2.5,2.5 0 0 1 41,6 " fill="#ADD8E6" style="stroke:#000000;stroke-width:1.5;"/><line style="stroke:#000000;stroke-width:1.5;" x1="38.5" x2="143.5" y1="29.6094" y2="29.6094"/><text fill="#000000" font-family="sans-serif" font-size="14" font-weight="bold" lengthAdjust="spacing" textLength="92" x="42.5" y="22.5332">Key Manager</text></g><!--class i--><g id="elem_i"><rect codeLine="6" fill="#F1F1F1" height="48" id="i" rx="2.5" ry="2.5" style="stroke:#181818;stroke-width:0.5;" width="117" x="55" y="42"/><ellipse cx="70" cy="58" fill="#B4A7E5" rx="11" ry="11" style="stroke:#181818;stroke-width:1.0;"/><path d="M70.9531,54.6406 L70.9531,61.2969 L72.6719,61.2969 Q73.2813,61.2969 73.5469,61.5313 Q73.8125,61.7656 73.8125,62.1563 Q73.8125,62.5313 73.5469,62.7656 Q73.2813,63 72.6719,63 L67.5313,63 Q66.9219,63 66.6563,62.7656 Q66.3906,62.5313 66.3906,62.1406 Q66.3906,61.7656 66.6563,61.5313 Q66.9219,61.2969 67.5313,61.2969 L69.25,61.2969 L69.25,54.6406 L67.5313,54.6406 Q66.9219,54.6406 66.6563,54.4063 Q66.3906,54.1719 66.3906,53.7813 Q66.3906,53.4063 66.6563,53.1719 Q66.9219,52.9375 67.5313,52.9375 L72.6719,52.9375 Q73.2813,52.9375 73.5469,53.1719 Q73.8125,53.4063 73.8125,53.7813 Q73.8125,54.1719 73.5469,54.4063 Q73.2813,54.6406 72.6719,54.6406 L70.9531,54.6406 Z " fill="#000000"/><text fill="#000000" font-family="sans-serif" font-size="14" font-style="italic" lengthAdjust="spacing" textLength="85" x="84" y="63.7285">Key Manager</text><line style="stroke:#181818;stroke-width:0.5;" x1="56" x2="171" y1="74" y2="74"/><line style="stroke:#181818;stroke-width:0.5;" x1="56" x2="171" y1="82" y2="82"/></g><!--entity REST--><g id="elem_REST"><ellipse cx="24.5" cy="183" fill="#F1F1F1" rx="8" ry="8" style="stroke:#181818;stroke-width:0.5;"/><text fill="#000000" font-family="sans-serif" font-size="14" lengthAdjust="spacing" textLength="37" x="6" y="214.5332">REST</text></g><!--entity Web--><g id="elem_Web"><ellipse cx="113.5" cy="183" fill="#F1F1F1" rx="8" ry="8" style="stroke:#181818;stroke-width:0.5;"/><text fill="#000000" font-family="sans-serif" font-size="14" lengthAdjust="spacing" textLength="29" x="99" y="214.5332">Web</text></g><!--entity CLI--><g id="elem_CLI"><ellipse cx="202.5" cy="183" fill="#F1F1F1" rx="8" ry="8" style="stroke:#181818;stroke-width:0.5;"/><text fill="#000000" font-family="sans-serif" font-size="14" lengthAdjust="spacing" textLength="21" x="192" y="214.5332">CLI</text></g><!--entity WebSocket--><g id="elem_WebSocket"><ellipse cx="267.5" cy="66" fill="#F1F1F1" rx="8" ry="8" style="stroke:#181818;stroke-width:0.5;"/><text fill="#000000" font-family="sans-serif" font-size="14" lengthAdjust="spacing" textLength="72" x="231.5" y="97.5332">WebSocket</text></g><!--link i to Web--><g id="link_i_Web"><path codeLine="17" d="M113.5,90.27 C113.5,116.13 113.5,156.51 113.5,173.75 " fill="none" id="i-Web" style="stroke:#181818;stroke-width:1.0;"/></g><!--link i to CLI--><g id="link_i_CLI"><path codeLine="18" d="M131.51,90.27 C151.52,116.13 182.77,156.51 196.11,173.75 " fill="none" id="i-CLI" style="stroke:#181818;stroke-width:1.0;"/></g><!--link i to REST--><g id="link_i_REST"><path codeLine="19" d="M95.49,90.27 C75.48,116.13 44.23,156.51 30.89,173.75 " fill="none" id="i-REST" style="stroke:#181818;stroke-width:1.0;"/></g><!--link i to WebSocket--><g id="link_i_WebSocket"><path codeLine="20" d="M172.16,66 C204.63,66 241.72,66 258.46,66 " fill="none" id="i-WebSocket" style="stroke:#181818;stroke-width:1.0;"/><polygon fill="#000000" points="189.25,54.1758,198.2951,57.1147,198.2951,51.2369,189.25,54.1758" style="stroke:#000000;stroke-width:1.0;"/><text fill="#000000" font-family="sans-serif" font-size="13" lengthAdjust="spacing" textLength="37" x="203.25" y="59.4951">events</text></g><!--SRC=[ZO-n3i8m34HtVyMfpFa11XR4W8258Z6dmIrMexHA0mYX_Zj9fGR4X0Vhpde-sRqshMuOnOwVE6WNjI-miD9SGsLlZ1SHOeaBx6jjVaazG2AJa4yRQIGouerb73VbQTPdhcQvtc-_fcLdMWv40dNf7avDP3Q9pMRAoojGbkkW84lmdLqOi2Bg__WfNKXl]--></g></svg>