<?xml version="1.0" encoding="us-ascii" standalone="no"?><svg xmlns="http://www.w3.org/2000/svg" xmlns:xlink="http://www.w3.org/1999/xlink" contentStyleType="text/css" height="293px" preserveAspectRatio="none" style="width:205px;height:293px;background:#FFFFFF;" version="1.1" viewBox="0 0 205 293" width="205px" zoomAndPan="magnify"><defs/><g><g id="elem_ManageEnvironments"><ellipse cx="102.2628" cy="164.1526" fill="#FFFF00" rx="91.2628" ry="20.6526" style="stroke:#181818;stroke-width:0.5;"/><text fill="#000000" font-family="sans-serif" font-size="14" lengthAdjust="spacing" textLength="141" x="31.7628" y="167.8811">Manage Environments</text></g><!--entity DevOpsEngineer--><g id="elem_DevOpsEngineer"><ellipse cx="102.5" cy="14" fill="#F1F1F1" rx="8" ry="8" style="stroke:#181818;stroke-width:0.5;"/><path d="M102.5,22 L102.5,49 M89.5,30 L115.5,30 M102.5,49 L89.5,64 M102.5,49 L115.5,64 " fill="none" style="stroke:#181818;stroke-width:0.5;"/><text fill="#000000" font-family="sans-serif" font-size="14" lengthAdjust="spacing" textLength="112" x="46.5" y="80.0332">DevOps Engineer</text></g><g id="elem_CreateBuildEnvironment"><ellipse cx="102.511" cy="266.2022" fill="#D3D3D3" rx="96.511" ry="21.7022" style="stroke:#181818;stroke-width:0.5;"/><text fill="#000000" font-family="sans-serif" font-size="14" lengthAdjust="spacing" textLength="153" x="26.011" y="269.9307">CreateBuildEnvironment</text></g><!--link DevOpsEngineer to ManageEnvironments--><g id="link_DevOpsEngineer_ManageEnvironments"><path d="M102.5,83.65 C102.5,103.62 102.5,121.22 102.5,137.47 " fill="none" id="DevOpsEngineer-to-ManageEnvironments" style="stroke:#181818;stroke-width:1.0;"/><polygon fill="#181818" points="102.5,143.47,106.5,134.47,102.5,138.47,98.5,134.47,102.5,143.47" style="stroke:#181818;stroke-width:1.0;"/></g><!--link ManageEnvironments to CreateBuildEnvironment--><g id="link_ManageEnvironments_CreateBuildEnvironment"><path d="M102.5,184.76 C102.5,201.95 102.5,220.78 102.5,238.25 " fill="none" id="ManageEnvironments-to-CreateBuildEnvironment" style="stroke:#181818;stroke-width:1.0;"/><polygon fill="#181818" points="102.5,244.25,106.5,235.25,102.5,239.25,98.5,235.25,102.5,244.25" style="stroke:#181818;stroke-width:1.0;"/></g><!--SRC=[ROvB2iCm34JtEeLmrhb2eMswB3s3I0VNuCh5dvJSlcc28G7FJa-QqPI4KHBOt4N5WcywkHZq3St9i2JU-1vpDyFxy2KwZpb4DWEcnoSjLkiKYAjjOnKH7MVk-rCZcHQLMkWQ8HcNulnpTxE6jrVSUMTVsKRCH8tQ_vzj9rNz0000]--></g></svg>