<?xml version="1.0" encoding="UTF-8" standalone="no"?><svg xmlns="http://www.w3.org/2000/svg" xmlns:xlink="http://www.w3.org/1999/xlink" contentScriptType="application/ecmascript" contentStyleType="text/css" height="297px" preserveAspectRatio="none" style="width:738px;height:297px;" version="1.1" viewBox="0 0 738 297" width="738px" zoomAndPan="magnify"><defs><filter height="300%" id="fmzzldf85ncnq" width="300%" x="-1" y="-1"><feGaussianBlur result="blurOut" stdDeviation="2.0"/><feColorMatrix in="blurOut" result="blurOut2" type="matrix" values="0 0 0 0 0 0 0 0 0 0 0 0 0 0 0 0 0 0 .4 0"/><feOffset dx="4.0" dy="4.0" in="blurOut2" result="blurOut3"/><feBlend in="SourceGraphic" in2="blurOut3" mode="normal"/></filter></defs><g><rect fill="#00AAFF" height="282.2734" style="stroke: #A80036; stroke-width: 1.0;" width="138" x="209.5" y="4"/><text fill="#000000" font-family="sans-serif" font-size="13" font-weight="bold" lengthAdjust="spacingAndGlyphs" textLength="128" x="212.5" y="17.4951">DevSecOpsManager</text><rect fill="#00AAFF" height="282.2734" style="stroke: #A80036; stroke-width: 1.0;" width="138" x="589" y="4"/><text fill="#000000" font-family="sans-serif" font-size="13" font-weight="bold" lengthAdjust="spacingAndGlyphs" textLength="128" x="592" y="17.4951">DevSecOpsManager</text><line style="stroke: #A80036; stroke-width: 1.0; stroke-dasharray: 5.0,5.0;" x1="65" x2="65" y1="87.6094" y2="198.6641"/><line style="stroke: #A80036; stroke-width: 1.0; stroke-dasharray: 5.0,5.0;" x1="165" x2="165" y1="87.6094" y2="198.6641"/><line style="stroke: #A80036; stroke-width: 1.0; stroke-dasharray: 5.0,5.0;" x1="278" x2="278" y1="87.6094" y2="198.6641"/><line style="stroke: #A80036; stroke-width: 1.0; stroke-dasharray: 5.0,5.0;" x1="658" x2="658" y1="87.6094" y2="198.6641"/><text fill="#000000" font-family="sans-serif" font-size="14" lengthAdjust="spacingAndGlyphs" textLength="108" x="8" y="84.5332">DevOpsEngineer</text><ellipse cx="65" cy="13" fill="#FEFECE" filter="url(#fmzzldf85ncnq)" rx="8" ry="8" style="stroke: #A80036; stroke-width: 2.0;"/><path d="M65,21 L65,48 M52,29 L78,29 M65,48 L52,63 M65,48 L78,63 " fill="none" filter="url(#fmzzldf85ncnq)" style="stroke: #A80036; stroke-width: 2.0;"/><text fill="#000000" font-family="sans-serif" font-size="14" lengthAdjust="spacingAndGlyphs" textLength="108" x="8" y="212.1973">DevOpsEngineer</text><ellipse cx="65" cy="225.2734" fill="#FEFECE" filter="url(#fmzzldf85ncnq)" rx="8" ry="8" style="stroke: #A80036; stroke-width: 2.0;"/><path d="M65,233.2734 L65,260.2734 M52,241.2734 L78,241.2734 M65,260.2734 L52,275.2734 M65,260.2734 L78,275.2734 " fill="none" filter="url(#fmzzldf85ncnq)" style="stroke: #A80036; stroke-width: 2.0;"/><text fill="#000000" font-family="sans-serif" font-size="14" lengthAdjust="spacingAndGlyphs" textLength="60" x="132" y="84.5332">EventBus</text><ellipse cx="165" cy="54" fill="#FEFECE" filter="url(#fmzzldf85ncnq)" rx="12" ry="12" style="stroke: #A80036; stroke-width: 2.0;"/><line style="stroke: #A80036; stroke-width: 2.0;" x1="153" x2="177" y1="68" y2="68"/><text fill="#000000" font-family="sans-serif" font-size="14" lengthAdjust="spacingAndGlyphs" textLength="60" x="132" y="212.1973">EventBus</text><ellipse cx="165" cy="231.2734" fill="#FEFECE" filter="url(#fmzzldf85ncnq)" rx="12" ry="12" style="stroke: #A80036; stroke-width: 2.0;"/><line style="stroke: #A80036; stroke-width: 2.0;" x1="153" x2="177" y1="245.2734" y2="245.2734"/><text fill="#000000" font-family="sans-serif" font-size="14" lengthAdjust="spacingAndGlyphs" textLength="34" x="258.5" y="84.5332">dsom</text><path d="M258,42 L258,66 M258,54 L275,54 " fill="none" filter="url(#fmzzldf85ncnq)" style="stroke: #A80036; stroke-width: 2.0;"/><ellipse cx="287" cy="54" fill="#FFFFFF" filter="url(#fmzzldf85ncnq)" rx="12" ry="12" style="stroke: #A80036; stroke-width: 2.0;"/><text fill="#000000" font-family="sans-serif" font-size="14" lengthAdjust="spacingAndGlyphs" textLength="34" x="258.5" y="212.1973">dsom</text><path d="M258,219.2734 L258,243.2734 M258,231.2734 L275,231.2734 " fill="none" filter="url(#fmzzldf85ncnq)" style="stroke: #A80036; stroke-width: 2.0;"/><ellipse cx="287" cy="231.2734" fill="#FFFFFF" filter="url(#fmzzldf85ncnq)" rx="12" ry="12" style="stroke: #A80036; stroke-width: 2.0;"/><rect fill="#FEFECE" filter="url(#fmzzldf85ncnq)" height="31.6094" style="stroke: #A80036; stroke-width: 1.5;" width="92" x="610" y="51"/><text fill="#000000" font-family="sans-serif" font-size="14" lengthAdjust="spacingAndGlyphs" textLength="78" x="617" y="72.5332">environment</text><rect fill="#FEFECE" filter="url(#fmzzldf85ncnq)" height="31.6094" style="stroke: #A80036; stroke-width: 1.5;" width="92" x="610" y="197.6641"/><text fill="#000000" font-family="sans-serif" font-size="14" lengthAdjust="spacingAndGlyphs" textLength="78" x="617" y="219.1973">environment</text><polygon fill="#A80036" points="266.5,115.9609,276.5,119.9609,266.5,123.9609,270.5,119.9609" style="stroke: #A80036; stroke-width: 1.0;"/><line style="stroke: #A80036; stroke-width: 1.0;" x1="65" x2="272.5" y1="119.9609" y2="119.9609"/><text fill="#000000" font-family="sans-serif" font-size="13" lengthAdjust="spacingAndGlyphs" textLength="149" x="72" y="115.1045">Update Build Environment</text><polygon fill="#A80036" points="646,146.3125,656,150.3125,646,154.3125,650,150.3125" style="stroke: #A80036; stroke-width: 1.0;"/><line style="stroke: #A80036; stroke-width: 1.0;" x1="278.5" x2="652" y1="150.3125" y2="150.3125"/><text fill="#000000" font-family="sans-serif" font-size="13" lengthAdjust="spacingAndGlyphs" textLength="298" x="285.5" y="145.4561">update (name: build,file: ./templates/environment.js)</text><polygon fill="#A80036" points="176,181.6641,166,181.6641,176,185.6641" style="stroke: #A80036; stroke-width: 1.0;"/><line style="stroke: #A80036; stroke-width: 1.0; stroke-dasharray: 2.0,2.0;" x1="165" x2="657" y1="180.6641" y2="180.6641"/><text fill="#000000" font-family="sans-serif" font-size="13" lengthAdjust="spacingAndGlyphs" textLength="112" x="182" y="175.8076">environment.update</text><!--
@startuml

actor "DevOpsEngineer"


entity EventBus

box DevSecOpsManager #00aaff
    boundary dsom #white
end box


box DevSecOpsManager #00aaff
            participant environment
    end box


"DevOpsEngineer" -> dsom: Update Build Environment

    dsom -> "environment": update (name: build,file: ./templates/environment.js)

    "environment" - -/ EventBus: environment.update



@enduml

PlantUML version 1.2019.05(Sat Apr 20 09:45:36 PDT 2019)
(GPL source distribution)
Java Runtime: Java(TM) SE Runtime Environment
JVM: Java HotSpot(TM) Client VM
Java Version: 1.8.0_271-b09
Operating System: Windows 10
OS Version: 10.0
Default Encoding: Cp1252
Language: en
Country: US
--></g></svg>