<?xml version="1.0" encoding="us-ascii" standalone="no"?><svg xmlns="http://www.w3.org/2000/svg" xmlns:xlink="http://www.w3.org/1999/xlink" contentStyleType="text/css" height="676px" preserveAspectRatio="none" style="width:419px;height:676px;background:#FFFFFF;" version="1.1" viewBox="0 0 419 676" width="419px" zoomAndPan="magnify"><defs/><g><!--cluster Capability Manager--><g id="cluster_Capability Manager"><path d="M48,60 L183,60 A3.75,3.75 0 0 1 185.5,62.5 L192.5,83.6094 L410,83.6094 A2.5,2.5 0 0 1 412.5,86.1094 L412.5,666.5 A2.5,2.5 0 0 1 410,669 L48,669 A2.5,2.5 0 0 1 45.5,666.5 L45.5,62.5 A2.5,2.5 0 0 1 48,60 " fill="#00AAFF" style="stroke:#000000;stroke-width:1.5;"/><line style="stroke:#000000;stroke-width:1.5;" x1="45.5" x2="192.5" y1="83.6094" y2="83.6094"/><text fill="#000000" font-family="sans-serif" font-size="14" font-weight="bold" lengthAdjust="spacing" textLength="134" x="49.5" y="76.5332">Capability Manager</text></g><!--cluster bin--><g id="cluster_bin"><path d="M72,104 L95,104 A3.75,3.75 0 0 1 97.5,106.5 L104.5,127.6094 L219,127.6094 A2.5,2.5 0 0 1 221.5,130.1094 L221.5,201.5 A2.5,2.5 0 0 1 219,204 L72,204 A2.5,2.5 0 0 1 69.5,201.5 L69.5,106.5 A2.5,2.5 0 0 1 72,104 " fill="#FFFFFF" style="stroke:#000000;stroke-width:1.5;"/><line style="stroke:#000000;stroke-width:1.5;" x1="69.5" x2="104.5" y1="127.6094" y2="127.6094"/><text fill="#000000" font-family="sans-serif" font-size="14" font-weight="bold" lengthAdjust="spacing" textLength="22" x="73.5" y="120.5332">bin</text></g><!--cluster deploy--><g id="cluster_deploy"><path d="M77,320 L125,320 A3.75,3.75 0 0 1 127.5,322.5 L134.5,343.6094 L295,343.6094 A2.5,2.5 0 0 1 297.5,346.1094 L297.5,424.5 A2.5,2.5 0 0 1 295,427 L77,427 A2.5,2.5 0 0 1 74.5,424.5 L74.5,322.5 A2.5,2.5 0 0 1 77,320 " fill="#FFFFFF" style="stroke:#000000;stroke-width:1.5;"/><line style="stroke:#000000;stroke-width:1.5;" x1="74.5" x2="134.5" y1="343.6094" y2="343.6094"/><text fill="#000000" font-family="sans-serif" font-size="14" font-weight="bold" lengthAdjust="spacing" textLength="47" x="78.5" y="336.5332">deploy</text></g><!--cluster images--><g id="cluster_images"><path d="M72,451 L123,451 A3.75,3.75 0 0 1 125.5,453.5 L132.5,474.6094 L386,474.6094 A2.5,2.5 0 0 1 388.5,477.1094 L388.5,642.5 A2.5,2.5 0 0 1 386,645 L72,645 A2.5,2.5 0 0 1 69.5,642.5 L69.5,453.5 A2.5,2.5 0 0 1 72,451 " fill="#FFFFFF" style="stroke:#000000;stroke-width:1.5;"/><line style="stroke:#000000;stroke-width:1.5;" x1="69.5" x2="132.5" y1="474.6094" y2="474.6094"/><text fill="#000000" font-family="sans-serif" font-size="14" font-weight="bold" lengthAdjust="spacing" textLength="50" x="73.5" y="467.5332">images</text></g><!--entity REST--><g id="elem_REST"><rect fill="#F1F1F1" height="47.6094" rx="2.5" ry="2.5" style="stroke:#181818;stroke-width:0.5;" width="89" x="101" y="248"/><rect fill="#F1F1F1" height="10" style="stroke:#181818;stroke-width:0.5;" width="15" x="170" y="253"/><rect fill="#F1F1F1" height="2" style="stroke:#181818;stroke-width:0.5;" width="4" x="168" y="255"/><rect fill="#F1F1F1" height="2" style="stroke:#181818;stroke-width:0.5;" width="4" x="168" y="259"/><text fill="#000000" font-family="sans-serif" font-size="14" lengthAdjust="spacing" textLength="49" x="116" y="282.5332">express</text></g><!--entity socket--><g id="elem_socket"><rect fill="#F1F1F1" height="47.6094" rx="2.5" ry="2.5" style="stroke:#181818;stroke-width:0.5;" width="96" x="240.5" y="140"/><rect fill="#F1F1F1" height="10" style="stroke:#181818;stroke-width:0.5;" width="15" x="316.5" y="145"/><rect fill="#F1F1F1" height="2" style="stroke:#181818;stroke-width:0.5;" width="4" x="314.5" y="147"/><rect fill="#F1F1F1" height="2" style="stroke:#181818;stroke-width:0.5;" width="4" x="314.5" y="151"/><text fill="#000000" font-family="sans-serif" font-size="14" lengthAdjust="spacing" textLength="56" x="255.5" y="174.5332">socket.io</text></g><!--entity binName--><g id="elem_binName"><rect fill="#F1F1F1" height="47.6094" rx="2.5" ry="2.5" style="stroke:#181818;stroke-width:0.5;" width="120" x="85.5" y="140"/><rect fill="#F1F1F1" height="10" style="stroke:#181818;stroke-width:0.5;" width="15" x="185.5" y="145"/><rect fill="#F1F1F1" height="2" style="stroke:#181818;stroke-width:0.5;" width="4" x="183.5" y="147"/><rect fill="#F1F1F1" height="2" style="stroke:#181818;stroke-width:0.5;" width="4" x="183.5" y="151"/><text fill="#000000" font-family="sans-serif" font-size="14" lengthAdjust="spacing" textLength="76" x="104.5" y="174.5332">sabr aml cm</text></g><!--entity sabr_aml_cm_container--><g id="elem_sabr_aml_cm_container"><path d="M90.5,358.5 L90.5,408.7188 A2.5,2.5 0 0 0 93,411.2188 L198,411.2188 A2.5,2.5 0 0 0 200.5,408.7188 L200.5,366 L190.5,356 L93,356 A2.5,2.5 0 0 0 90.5,358.5 " fill="#F1F1F1" style="stroke:#181818;stroke-width:0.5;"/><path d="M190.5,356 L190.5,363.5 A2.5,2.5 0 0 0 193,366 L200.5,366 " fill="#F1F1F1" style="stroke:#181818;stroke-width:0.5;"/><text fill="#000000" font-family="sans-serif" font-size="14" lengthAdjust="spacing" textLength="90" x="100.5" y="380.5332">node server.js</text><text fill="#000000" font-family="sans-serif" font-size="14" lengthAdjust="spacing" textLength="4" x="100.5" y="398.1426">&#160;</text></g><!--entity web_container--><g id="elem_web_container"><path d="M236,367 L236,399.6094 A2.5,2.5 0 0 0 238.5,402.1094 L278.5,402.1094 A2.5,2.5 0 0 0 281,399.6094 L281,374.5 L271,364.5 L238.5,364.5 A2.5,2.5 0 0 0 236,367 " fill="#F1F1F1" style="stroke:#181818;stroke-width:0.5;"/><path d="M271,364.5 L271,372 A2.5,2.5 0 0 0 273.5,374.5 L281,374.5 " fill="#F1F1F1" style="stroke:#181818;stroke-width:0.5;"/><text fill="#000000" font-family="sans-serif" font-size="14" lengthAdjust="spacing" textLength="25" x="246" y="389.0332">web</text></g><!--entity sabr_aml_cmimage--><g id="elem_sabr_aml_cmimage"><rect fill="#F1F1F1" height="33.6094" rx="2.5" ry="2.5" style="stroke:#181818;stroke-width:0.5;" width="100" x="89.5" y="492.5"/><rect fill="#F1F1F1" height="33.6094" rx="2.5" ry="2.5" style="stroke:#181818;stroke-width:0.5;" width="100" x="85.5" y="488.5"/><text fill="#000000" font-family="sans-serif" font-size="14" lengthAdjust="spacing" textLength="84" x="93.5" y="511.0332">sabr_aml_cm</text></g><!--entity ailtireswarm--><g id="elem_ailtireswarm"><rect fill="#F1F1F1" height="40.6094" rx="2.5" ry="2.5" style="stroke:#181818;stroke-width:0.5;" width="108" x="85.5" y="588"/><polygon fill="#F1F1F1" points="176.5,593,176.5,607,188.5,607,188.5,599,182.5,593,176.5,593" style="stroke:#181818;stroke-width:0.5;"/><line style="stroke:#181818;stroke-width:0.5;" x1="182.5" x2="182.5" y1="593" y2="599"/><line style="stroke:#181818;stroke-width:0.5;" x1="188.5" x2="182.5" y1="599" y2="599"/><text fill="#000000" font-family="sans-serif" font-size="14" lengthAdjust="spacing" textLength="78" x="95.5" y="615.5332">ailtire:swarm</text></g><!--entity sabr_aml_cm_web--><g id="elem_sabr_aml_cm_web"><rect fill="#F1F1F1" height="40.6094" rx="2.5" ry="2.5" style="stroke:#181818;stroke-width:0.5;" width="147" x="225" y="487"/><polygon fill="#F1F1F1" points="355,492,355,506,367,506,367,498,361,492,355,492" style="stroke:#181818;stroke-width:0.5;"/><line style="stroke:#181818;stroke-width:0.5;" x1="361" x2="361" y1="492" y2="498"/><line style="stroke:#181818;stroke-width:0.5;" x1="367" x2="361" y1="498" y2="498"/><text fill="#000000" font-family="sans-serif" font-size="14" lengthAdjust="spacing" textLength="117" x="235" y="514.5332">sabr_aml_cm_web</text></g><!--entity CLI--><g id="elem_CLI"><ellipse cx="145.5" cy="14" fill="#F1F1F1" rx="8" ry="8" style="stroke:#181818;stroke-width:0.5;"/><text fill="#000000" font-family="sans-serif" font-size="14" lengthAdjust="spacing" textLength="21" x="135" y="45.5332">CLI</text></g><!--entity Web--><g id="elem_Web"><ellipse cx="20.5" cy="272" fill="#F1F1F1" rx="8" ry="8" style="stroke:#181818;stroke-width:0.5;"/><text fill="#000000" font-family="sans-serif" font-size="14" lengthAdjust="spacing" textLength="29" x="6" y="303.5332">Web</text></g><!--entity WebSocket--><g id="elem_WebSocket"><ellipse cx="288.5" cy="14" fill="#F1F1F1" rx="8" ry="8" style="stroke:#181818;stroke-width:0.5;"/><text fill="#000000" font-family="sans-serif" font-size="14" lengthAdjust="spacing" textLength="72" x="252.5" y="45.5332">WebSocket</text></g><!--link binName to REST--><g id="link_binName_REST"><path d="M145.5,188 C145.5,205.66 145.5,223.94 145.5,241.68 " fill="none" id="binName-to-REST" style="stroke:#181818;stroke-width:1.0;"/><polygon fill="#181818" points="145.5,247.68,149.5,238.68,145.5,242.68,141.5,238.68,145.5,247.68" style="stroke:#181818;stroke-width:1.0;"/></g><!--link REST to sabr_aml_cm_container--><g id="link_REST_sabr_aml_cm_container"><path d="M145.5,296.22 C145.5,313.67 145.5,331.61 145.5,349.84 " fill="none" id="REST-to-sabr_aml_cm_container" style="stroke:#181818;stroke-width:1.0;"/><polygon fill="#181818" points="145.5,355.84,149.5,346.84,145.5,350.84,141.5,346.84,145.5,355.84" style="stroke:#181818;stroke-width:1.0;"/></g><!--link REST to web_container--><g id="link_REST_web_container"><path d="M190.28,291.79 C200.31,297.33 210.37,304.08 218.5,312 C233.82,326.93 242.696,343.4711 249.286,358.9211 " fill="none" id="REST-to-web_container" style="stroke:#181818;stroke-width:1.0;"/><polygon fill="#181818" points="251.64,364.44,251.7882,354.5923,249.6783,359.8409,244.4297,357.731,251.64,364.44" style="stroke:#181818;stroke-width:1.0;"/></g><!--link socket to web_container--><g id="link_socket_web_container"><path d="M285.29,188.28 C279.27,231.89 267.2391,319.1162 261.8191,358.4462 " fill="none" id="socket-to-web_container" style="stroke:#181818;stroke-width:1.0;"/><polygon fill="#181818" points="261,364.39,266.1912,356.0203,261.6826,359.4368,258.2661,354.9282,261,364.39" style="stroke:#181818;stroke-width:1.0;"/></g><!--reverse link sabr_aml_cmimage to ailtireswarm--><g id="link_sabr_aml_cmimage_ailtireswarm"><path d="M138.2341,544.6563 C138.5841,561.9563 138.74,569.95 139.1,587.76 " fill="none" id="sabr_aml_cmimage-backto-ailtireswarm" style="stroke:#181818;stroke-width:1.0;"/><polygon fill="none" points="137.87,526.66,132.2353,544.7777,144.2329,544.535,137.87,526.66" style="stroke:#181818;stroke-width:1.0;"/></g><!--link sabr_aml_cm_container to sabr_aml_cmimage--><g id="link_sabr_aml_cm_container_sabr_aml_cmimage"><path d="M143.74,411.27 C142.21,434.7 140.4137,462.1029 139.0737,482.4829 " fill="none" id="sabr_aml_cm_container-to-sabr_aml_cmimage" style="stroke:#181818;stroke-width:1.0;"/><polygon fill="#181818" points="138.68,488.47,143.2619,479.7518,139.008,483.4808,135.2791,479.227,138.68,488.47" style="stroke:#181818;stroke-width:1.0;"/></g><!--link web_container to sabr_aml_cm_web--><g id="link_web_container_sabr_aml_cm_web"><path d="M264.4,402.5 C271.79,425.04 282.5313,457.7984 290.1713,481.1084 " fill="none" id="web_container-to-sabr_aml_cm_web" style="stroke:#181818;stroke-width:1.0;"/><polygon fill="#181818" points="292.04,486.81,293.038,477.0118,290.4827,482.0587,285.4359,479.5035,292.04,486.81" style="stroke:#181818;stroke-width:1.0;"/></g><!--link CLI to binName--><g id="link_CLI_binName"><path d="M145.5,23.38 C145.5,45.52 145.5,106.15 145.5,139.77 " fill="none" id="CLI-binName" style="stroke:#181818;stroke-width:1.0;"/><text fill="#000000" font-family="sans-serif" font-size="13" lengthAdjust="spacing" textLength="72" x="56.875" y="21.5558">sabr aml cm</text></g><!--link Web to REST--><g id="link_Web_REST"><path d="M29.78,272 C53.43,272 77.09,272 100.75,272 " fill="none" id="Web-REST" style="stroke:#181818;stroke-width:1.0;"/><text fill="#000000" font-family="sans-serif" font-size="13" lengthAdjust="spacing" textLength="76" x="37.1221" y="262.8925">/sabr/aml/cm</text></g><!--link WebSocket to socket--><g id="link_WebSocket_socket"><path d="M288.5,23.38 C288.5,45.52 288.5,106.15 288.5,139.77 " fill="none" id="WebSocket-socket" style="stroke:#181818;stroke-width:1.0;"/><text fill="#000000" font-family="sans-serif" font-size="13" lengthAdjust="spacing" textLength="76" x="195.875" y="21.5558">.sabr.aml.cm</text></g><!--SRC=[VLF1QiCm3BtdAuHxJjhp6BkK7GRR3kjWbq5HN6LuTUnWctLbwxzFSPmsTSi28SXFxqbwLW2K2UGQb0JBnuS29l4RrNcyid9BeUXGRl63G2onmrff5VRmX8QFd83POe7ODF33P6dRpXeo0UYxS-Gze8UN-zNh6UQZQgLiZmu1uutL6t9GAmEp9ZvHSaeKuB5sWAq6sOgUpTdFs1Bd7VXD4PJbtL3r9BkXJjjzfioeqZoMiHi2J-wBNFNftqsKxakjkTHQjcjfJK1bo2LQBnwhN4_YhEAalgCw2l8t4phAN4A3BGnUGTEqQJBLyZtu2y-q9XcKDHx4fCbyiaYE37H1yRMpoQXqK8vk_0xTG4WdyM3eBbE0sz-o_3VjD43ksz32QDcqaIbzD34xIvmpXoukPioBlXqAtljyaxZvSPDuwq7CUtJEw3oYmp8T_mSGLOzNZ5U9dRRu3m00]--></g></svg>