<?xml version="1.0" encoding="UTF-8" standalone="no"?><svg xmlns="http://www.w3.org/2000/svg" xmlns:xlink="http://www.w3.org/1999/xlink" contentScriptType="application/ecmascript" contentStyleType="text/css" height="198px" preserveAspectRatio="none" style="width:342px;height:198px;" version="1.1" viewBox="0 0 342 198" width="342px" zoomAndPan="magnify"><defs><filter height="300%" id="f12l03nq2cqze0" width="300%" x="-1" y="-1"><feGaussianBlur result="blurOut" stdDeviation="2.0"/><feColorMatrix in="blurOut" result="blurOut2" type="matrix" values="0 0 0 0 0 0 0 0 0 0 0 0 0 0 0 0 0 0 .4 0"/><feOffset dx="4.0" dy="4.0" in="blurOut2" result="blurOut3"/><feBlend in="SourceGraphic" in2="blurOut3" mode="normal"/></filter></defs><g><ellipse cx="171.5594" cy="170.0119" fill="#FFFF00" filter="url(#f12l03nq2cqze0)" rx="73.0594" ry="17.0119" style="stroke: #A80036; stroke-width: 1.5;"/><text fill="#000000" font-family="sans-serif" font-size="14" lengthAdjust="spacingAndGlyphs" textLength="109" x="117.0594" y="175.3166">Manage AI Model</text><!--entity DataEngineer--><ellipse cx="49.5" cy="18" fill="#FEFECE" filter="url(#f12l03nq2cqze0)" rx="8" ry="8" style="stroke: #A80036; stroke-width: 2.0;"/><path d="M49.5,26 L49.5,53 M36.5,34 L62.5,34 M49.5,53 L36.5,68 M49.5,53 L62.5,68 " fill="none" filter="url(#f12l03nq2cqze0)" style="stroke: #A80036; stroke-width: 2.0;"/><text fill="#000000" font-family="sans-serif" font-size="14" lengthAdjust="spacingAndGlyphs" textLength="87" x="6" y="89.5332">DataEngineer</text><!--entity DataScientist--><ellipse cx="171.5" cy="18" fill="#FEFECE" filter="url(#f12l03nq2cqze0)" rx="8" ry="8" style="stroke: #A80036; stroke-width: 2.0;"/><path d="M171.5,26 L171.5,53 M158.5,34 L184.5,34 M171.5,53 L158.5,68 M171.5,53 L184.5,68 " fill="none" filter="url(#f12l03nq2cqze0)" style="stroke: #A80036; stroke-width: 2.0;"/><text fill="#000000" font-family="sans-serif" font-size="14" lengthAdjust="spacingAndGlyphs" textLength="87" x="128" y="89.5332">Data Scientist</text><!--entity DataAnalyst--><ellipse cx="290.5" cy="18" fill="#FEFECE" filter="url(#f12l03nq2cqze0)" rx="8" ry="8" style="stroke: #A80036; stroke-width: 2.0;"/><path d="M290.5,26 L290.5,53 M277.5,34 L303.5,34 M290.5,53 L277.5,68 M290.5,53 L303.5,68 " fill="none" filter="url(#f12l03nq2cqze0)" style="stroke: #A80036; stroke-width: 2.0;"/><text fill="#000000" font-family="sans-serif" font-size="14" lengthAdjust="spacingAndGlyphs" textLength="80" x="250.5" y="89.5332">Data Analyst</text><!--link DataEngineer to ManageAIModel--><path d="M92.8561,93.2569 C112.808,112.4727 135.515,134.3421 151.383,149.6249 " fill="none" id="DataEngineer-ManageAIModel" style="stroke: #A80036; stroke-width: 1.0;"/><polygon fill="#A80036" points="155.264,153.3628,151.5566,144.2384,151.6627,149.8942,146.0069,150.0004,155.264,153.3628" style="stroke: #A80036; stroke-width: 1.0;"/><!--link DataScientist to ManageAIModel--><path d="M171.5,93.2569 C171.5,111.5863 171.5,132.3302 171.5,147.4689 " fill="none" id="DataScientist-ManageAIModel" style="stroke: #A80036; stroke-width: 1.0;"/><polygon fill="#A80036" points="171.5,152.7778,175.5,143.7778,171.5,147.7778,167.5,143.7778,171.5,152.7778" style="stroke: #A80036; stroke-width: 1.0;"/><!--link DataAnalyst to ManageAIModel--><path d="M250.212,91.2801 C230.321,110.9205 207.221,133.7294 191.213,149.5355 " fill="none" id="DataAnalyst-ManageAIModel" style="stroke: #A80036; stroke-width: 1.0;"/><polygon fill="#A80036" points="187.302,153.3969,196.5167,149.9199,190.86,149.8839,190.896,144.2272,187.302,153.3969" style="stroke: #A80036; stroke-width: 1.0;"/><!--
@startuml


usecase "Manage AI Model" as ManageAIModel #yellow

Actor "DataEngineer" as DataEngineer

DataEngineer - -> ManageAIModel

Actor "Data Scientist" as DataScientist

DataScientist - -> ManageAIModel

Actor "Data Analyst" as DataAnalyst

DataAnalyst - -> ManageAIModel











@enduml

PlantUML version 1.2019.05(Sat Apr 20 09:45:36 PDT 2019)
(GPL source distribution)
Java Runtime: Java(TM) SE Runtime Environment
JVM: Java HotSpot(TM) Client VM
Java Version: 1.8.0_271-b09
Operating System: Windows 10
OS Version: 10.0
Default Encoding: Cp1252
Language: en
Country: US
--></g></svg>