<?xml version="1.0" encoding="us-ascii" standalone="no"?><svg xmlns="http://www.w3.org/2000/svg" xmlns:xlink="http://www.w3.org/1999/xlink" contentStyleType="text/css" height="185px" preserveAspectRatio="none" style="width:337px;height:185px;background:#FFFFFF;" version="1.1" viewBox="0 0 337 185" width="337px" zoomAndPan="magnify"><defs/><g><g id="elem_ManageAIModel"><ellipse cx="171.396" cy="161.4792" fill="#FFFF00" rx="77.896" ry="17.9792" style="stroke:#181818;stroke-width:0.5;"/><text fill="#000000" font-family="sans-serif" font-size="14" lengthAdjust="spacing" textLength="109" x="114.9355" y="165.7466">Manage AI Model</text></g><!--entity DataEngineer--><g id="elem_DataEngineer"><ellipse cx="49.5" cy="14" fill="#F1F1F1" rx="8" ry="8" style="stroke:#181818;stroke-width:0.5;"/><path d="M49.5,22 L49.5,49 M36.5,30 L62.5,30 M49.5,49 L36.5,64 M49.5,49 L62.5,64 " fill="none" style="stroke:#181818;stroke-width:0.5;"/><text fill="#000000" font-family="sans-serif" font-size="14" lengthAdjust="spacing" textLength="87" x="6" y="80.0332">DataEngineer</text></g><!--entity DataScientist--><g id="elem_DataScientist"><ellipse cx="171.5" cy="14" fill="#F1F1F1" rx="8" ry="8" style="stroke:#181818;stroke-width:0.5;"/><path d="M171.5,22 L171.5,49 M158.5,30 L184.5,30 M171.5,49 L158.5,64 M171.5,49 L184.5,64 " fill="none" style="stroke:#181818;stroke-width:0.5;"/><text fill="#000000" font-family="sans-serif" font-size="14" lengthAdjust="spacing" textLength="87" x="128" y="80.0332">Data Scientist</text></g><!--entity DataAnalyst--><g id="elem_DataAnalyst"><ellipse cx="290.5" cy="14" fill="#F1F1F1" rx="8" ry="8" style="stroke:#181818;stroke-width:0.5;"/><path d="M290.5,22 L290.5,49 M277.5,30 L303.5,30 M290.5,49 L277.5,64 M290.5,49 L303.5,64 " fill="none" style="stroke:#181818;stroke-width:0.5;"/><text fill="#000000" font-family="sans-serif" font-size="14" lengthAdjust="spacing" textLength="80" x="250.5" y="80.0332">Data Analyst</text></g><!--link DataEngineer to ManageAIModel--><g id="link_DataEngineer_ManageAIModel"><path d="M90.12,83.79 C111.75,104.18 132.8744,124.084 149.4844,139.744 " fill="none" id="DataEngineer-to-ManageAIModel" style="stroke:#181818;stroke-width:1.0;"/><polygon fill="#181818" points="153.85,143.86,150.0455,134.7756,150.212,140.43,144.5576,140.5965,153.85,143.86" style="stroke:#181818;stroke-width:1.0;"/></g><!--link DataScientist to ManageAIModel--><g id="link_DataScientist_ManageAIModel"><path d="M171.5,83.79 C171.5,103.92 171.5,121.59 171.5,137.26 " fill="none" id="DataScientist-to-ManageAIModel" style="stroke:#181818;stroke-width:1.0;"/><polygon fill="#181818" points="171.5,143.26,175.5,134.26,171.5,138.26,167.5,134.26,171.5,143.26" style="stroke:#181818;stroke-width:1.0;"/></g><!--link DataAnalyst to ManageAIModel--><g id="link_DataAnalyst_ManageAIModel"><path d="M250.87,83.79 C229.78,104.18 209.2339,124.0299 193.0339,139.6899 " fill="none" id="DataAnalyst-to-ManageAIModel" style="stroke:#181818;stroke-width:1.0;"/><polygon fill="#181818" points="188.72,143.86,197.971,140.4808,192.3149,140.3849,192.4108,134.7288,188.72,143.86" style="stroke:#181818;stroke-width:1.0;"/></g><!--SRC=[XSn12e0W48NXlQTusBeh148jMhJg18CD8SW8QKIt3pB486Xs_sFuziYM8aDF9BGop8WfBEmrA29lPhmND2Tx7mwbZ4rXW-ufqI2h4-RjVgy7fUf2stPlxQLWjeubkPYAKvOCbVoJZ90_A-Vfh3pnPPIx0000]--></g></svg>