<?xml version="1.0" encoding="us-ascii" standalone="no"?><svg xmlns="http://www.w3.org/2000/svg" xmlns:xlink="http://www.w3.org/1999/xlink" contentStyleType="text/css" height="165px" preserveAspectRatio="none" style="width:304px;height:165px;background:#FFFFFF;" version="1.1" viewBox="0 0 304 165" width="304px" zoomAndPan="magnify"><defs/><g><!--cluster Learning Corpus--><g id="cluster_Learning Corpus"><path d="M8.5,40 L126.5,40 A3.75,3.75 0 0 1 129,42.5 L136,63.6094 L294.5,63.6094 A2.5,2.5 0 0 1 297,66.1094 L297,155.5 A2.5,2.5 0 0 1 294.5,158 L8.5,158 A2.5,2.5 0 0 1 6,155.5 L6,42.5 A2.5,2.5 0 0 1 8.5,40 " fill="#00AAFF" style="stroke:#000000;stroke-width:1.5;"/><line style="stroke:#000000;stroke-width:1.5;" x1="6" x2="136" y1="63.6094" y2="63.6094"/><text fill="#000000" font-family="sans-serif" font-size="14" font-weight="bold" lengthAdjust="spacing" textLength="117" x="10" y="56.5332">Learning Corpus</text></g><!--class i--><g id="elem_i"><rect codeLine="6" fill="#F1F1F1" height="48" id="i" rx="2.5" ry="2.5" style="stroke:#181818;stroke-width:0.5;" width="138" x="143" y="85"/><ellipse cx="158" cy="101" fill="#B4A7E5" rx="11" ry="11" style="stroke:#181818;stroke-width:1.0;"/><path d="M158.9531,97.6406 L158.9531,104.2969 L160.6719,104.2969 Q161.2813,104.2969 161.5469,104.5313 Q161.8125,104.7656 161.8125,105.1563 Q161.8125,105.5313 161.5469,105.7656 Q161.2813,106 160.6719,106 L155.5313,106 Q154.9219,106 154.6563,105.7656 Q154.3906,105.5313 154.3906,105.1406 Q154.3906,104.7656 154.6563,104.5313 Q154.9219,104.2969 155.5313,104.2969 L157.25,104.2969 L157.25,97.6406 L155.5313,97.6406 Q154.9219,97.6406 154.6563,97.4063 Q154.3906,97.1719 154.3906,96.7813 Q154.3906,96.4063 154.6563,96.1719 Q154.9219,95.9375 155.5313,95.9375 L160.6719,95.9375 Q161.2813,95.9375 161.5469,96.1719 Q161.8125,96.4063 161.8125,96.7813 Q161.8125,97.1719 161.5469,97.4063 Q161.2813,97.6406 160.6719,97.6406 L158.9531,97.6406 Z " fill="#000000"/><text fill="#000000" font-family="sans-serif" font-size="14" font-style="italic" lengthAdjust="spacing" textLength="106" x="172" y="106.7285">Learning Corpus</text><line style="stroke:#181818;stroke-width:0.5;" x1="144" x2="280" y1="117" y2="117"/><line style="stroke:#181818;stroke-width:0.5;" x1="144" x2="280" y1="125" y2="125"/></g><!--class AIModel--><g id="elem_AIModel"><rect codeLine="16" fill="#F1F1F1" height="65.6094" id="AIModel" rx="2.5" ry="2.5" style="stroke:#181818;stroke-width:0.5;" width="86" x="22" y="76"/><ellipse cx="38.8" cy="92" fill="#ADD1B2" rx="11" ry="11" style="stroke:#181818;stroke-width:1.0;"/><path d="M41.5656,87.875 Q41.7219,87.6563 41.9094,87.5469 Q42.0969,87.4375 42.3156,87.4375 Q42.6906,87.4375 42.925,87.6953 Q43.1594,87.9531 43.1594,88.5625 L43.1594,90.0156 Q43.1594,90.625 42.925,90.8906 Q42.6906,91.1563 42.3156,91.1563 Q41.9719,91.1563 41.7688,90.9531 Q41.5656,90.7656 41.4563,90.25 Q41.4094,89.8906 41.2219,89.7031 Q40.8938,89.3281 40.2844,89.1094 Q39.675,88.8906 39.05,88.8906 Q38.2844,88.8906 37.6516,89.2188 Q37.0188,89.5469 36.5266,90.2969 Q36.0344,91.0469 36.0344,92.0781 L36.0344,93.1719 Q36.0344,94.4063 36.925,95.2266 Q37.8156,96.0469 39.4094,96.0469 Q40.3469,96.0469 41.0031,95.7969 Q41.3938,95.6406 41.8156,95.2031 Q42.0813,94.9375 42.2297,94.8594 Q42.3781,94.7813 42.5813,94.7813 Q42.9094,94.7813 43.1672,95.0391 Q43.425,95.2969 43.425,95.6406 Q43.425,95.9844 43.0813,96.3906 Q42.5813,96.9688 41.7844,97.2969 Q40.7063,97.75 39.4094,97.75 Q37.8938,97.75 36.6906,97.125 Q35.7063,96.625 35.0188,95.5547 Q34.3313,94.4844 34.3313,93.2031 L34.3313,92.0469 Q34.3313,90.7188 34.9484,89.5703 Q35.5656,88.4219 36.6594,87.8047 Q37.7531,87.1875 38.9875,87.1875 Q39.7219,87.1875 40.3703,87.3516 Q41.0188,87.5156 41.5656,87.875 Z " fill="#000000"/><text fill="#000000" font-family="sans-serif" font-size="14" lengthAdjust="spacing" textLength="50" x="53.2" y="97.7285">AIModel</text><line style="stroke:#181818;stroke-width:0.5;" x1="23" x2="107" y1="108" y2="108"/><text fill="#000000" font-family="sans-serif" font-size="14" lengthAdjust="spacing" textLength="74" x="28" y="126.5332">string name</text><line style="stroke:#181818;stroke-width:0.5;" x1="23" x2="107" y1="133.6094" y2="133.6094"/></g><g id="elem_ilol4"><ellipse cx="167" cy="11" fill="#F1F1F1" rx="5" ry="5" style="stroke:#181818;stroke-width:1.5;"/></g><text fill="#000000" font-family="sans-serif" font-size="14" lengthAdjust="spacing" textLength="21" x="156.5" y="30.5332">CLI</text><g id="elem_ilol7"><ellipse cx="212" cy="11" fill="#F1F1F1" rx="5" ry="5" style="stroke:#181818;stroke-width:1.5;"/></g><text fill="#000000" font-family="sans-serif" font-size="14" lengthAdjust="spacing" textLength="37" x="193.5" y="30.5332">REST</text><g id="elem_ilol10"><ellipse cx="257" cy="11" fill="#F1F1F1" rx="5" ry="5" style="stroke:#181818;stroke-width:1.5;"/></g><text fill="#000000" font-family="sans-serif" font-size="14" lengthAdjust="spacing" textLength="29" x="242.5" y="30.5332">Web</text><!--link ilol4 to i--><g id="link_ilol4_i"><path d="M168.93,16.12 C174.38,27.75 190.18,61.46 201.05,84.64 " fill="none" id="ilol4-i" style="stroke:#181818;stroke-width:1.0;"/></g><!--link ilol7 to i--><g id="link_ilol7_i"><path d="M212,16.12 C212,27.75 212,61.46 212,84.64 " fill="none" id="ilol7-i" style="stroke:#181818;stroke-width:1.0;"/></g><!--link ilol10 to i--><g id="link_ilol10_i"><path d="M255.07,16.12 C249.62,27.75 233.82,61.46 222.95,84.64 " fill="none" id="ilol10-i" style="stroke:#181818;stroke-width:1.0;"/></g><!--SRC=[AqXCpavCJrLGyabDBChBp4jNSCulAYWjLb9GDZ18J4nBKwZcub80WioyajIYjCHaR4eJYnKoWUf0oi14BLSj5vUpZwU2XgQkha8cLv1hS0YC7PwQ16Do5H1XkG8K9ESa5XShA3bw-kQdfEOe8Sd0GN594SYClCJSL4n9iBFWBkG2kP0B0000]--></g></svg>