<?xml version="1.0" encoding="UTF-8" standalone="no"?><svg xmlns="http://www.w3.org/2000/svg" xmlns:xlink="http://www.w3.org/1999/xlink" contentScriptType="application/ecmascript" contentStyleType="text/css" height="168px" preserveAspectRatio="none" style="width:311px;height:168px;" version="1.1" viewBox="0 0 311 168" width="311px" zoomAndPan="magnify"><defs><filter height="300%" id="f1i5mckr7wpqjg" width="300%" x="-1" y="-1"><feGaussianBlur result="blurOut" stdDeviation="2.0"/><feColorMatrix in="blurOut" result="blurOut2" type="matrix" values="0 0 0 0 0 0 0 0 0 0 0 0 0 0 0 0 0 0 .4 0"/><feOffset dx="4.0" dy="4.0" in="blurOut2" result="blurOut3"/><feBlend in="SourceGraphic" in2="blurOut3" mode="normal"/></filter></defs><g><!--cluster Learning Corpus--><polygon fill="#00AAFF" filter="url(#f1i5mckr7wpqjg)" points="22,42,145,42,152,65.6094,289,65.6094,289,156,22,156,22,42" style="stroke: #000000; stroke-width: 1.5;"/><line style="stroke: #000000; stroke-width: 1.5;" x1="22" x2="152" y1="65.6094" y2="65.6094"/><text fill="#000000" font-family="sans-serif" font-size="14" font-weight="bold" lengthAdjust="spacingAndGlyphs" textLength="117" x="26" y="58.5332">Learning Corpus</text><!--class i--><rect fill="#FEFECE" filter="url(#f1i5mckr7wpqjg)" height="48" id="i" style="stroke: #A80036; stroke-width: 1.5;" width="124" x="149" y="85"/><ellipse cx="164" cy="101" fill="#B4A7E5" rx="11" ry="11" style="stroke: #A80036; stroke-width: 1.0;"/><path d="M164.9531,97.6406 L164.9531,104.2969 L166.6719,104.2969 Q167.2813,104.2969 167.5469,104.5313 Q167.8125,104.7656 167.8125,105.1563 Q167.8125,105.5313 167.5469,105.7656 Q167.2813,106 166.6719,106 L161.5313,106 Q160.9219,106 160.6563,105.7656 Q160.3906,105.5313 160.3906,105.1406 Q160.3906,104.7656 160.6563,104.5313 Q160.9219,104.2969 161.5313,104.2969 L163.25,104.2969 L163.25,97.6406 L161.5313,97.6406 Q160.9219,97.6406 160.6563,97.4063 Q160.3906,97.1719 160.3906,96.7813 Q160.3906,96.4063 160.6563,96.1719 Q160.9219,95.9375 161.5313,95.9375 L166.6719,95.9375 Q167.2813,95.9375 167.5469,96.1719 Q167.8125,96.4063 167.8125,96.7813 Q167.8125,97.1719 167.5469,97.4063 Q167.2813,97.6406 166.6719,97.6406 L164.9531,97.6406 Z "/><text fill="#000000" font-family="sans-serif" font-size="12" font-style="italic" lengthAdjust="spacingAndGlyphs" textLength="92" x="178" y="105.9102">Learning Corpus</text><line style="stroke: #A80036; stroke-width: 1.5;" x1="150" x2="272" y1="117" y2="117"/><line style="stroke: #A80036; stroke-width: 1.5;" x1="150" x2="272" y1="125" y2="125"/><!--class AIModel--><rect fill="#FEFECE" filter="url(#f1i5mckr7wpqjg)" height="61.8359" id="AIModel" style="stroke: #A80036; stroke-width: 1.5;" width="75" x="38.5" y="78"/><ellipse cx="53.5" cy="94" fill="#ADD1B2" rx="11" ry="11" style="stroke: #A80036; stroke-width: 1.0;"/><path d="M56.2656,89.875 Q56.4219,89.6563 56.6094,89.5469 Q56.7969,89.4375 57.0156,89.4375 Q57.3906,89.4375 57.625,89.6953 Q57.8594,89.9531 57.8594,90.5625 L57.8594,92.0156 Q57.8594,92.625 57.625,92.8906 Q57.3906,93.1563 57.0156,93.1563 Q56.6719,93.1563 56.4688,92.9531 Q56.2656,92.7656 56.1563,92.25 Q56.1094,91.8906 55.9219,91.7031 Q55.5938,91.3281 54.9844,91.1094 Q54.375,90.8906 53.75,90.8906 Q52.9844,90.8906 52.3516,91.2188 Q51.7188,91.5469 51.2266,92.2969 Q50.7344,93.0469 50.7344,94.0781 L50.7344,95.1719 Q50.7344,96.4063 51.625,97.2266 Q52.5156,98.0469 54.1094,98.0469 Q55.0469,98.0469 55.7031,97.7969 Q56.0938,97.6406 56.5156,97.2031 Q56.7813,96.9375 56.9297,96.8594 Q57.0781,96.7813 57.2813,96.7813 Q57.6094,96.7813 57.8672,97.0391 Q58.125,97.2969 58.125,97.6406 Q58.125,97.9844 57.7813,98.3906 Q57.2813,98.9688 56.4844,99.2969 Q55.4063,99.75 54.1094,99.75 Q52.5938,99.75 51.3906,99.125 Q50.4063,98.625 49.7188,97.5547 Q49.0313,96.4844 49.0313,95.2031 L49.0313,94.0469 Q49.0313,92.7188 49.6484,91.5703 Q50.2656,90.4219 51.3594,89.8047 Q52.4531,89.1875 53.6875,89.1875 Q54.4219,89.1875 55.0703,89.3516 Q55.7188,89.5156 56.2656,89.875 Z "/><text fill="#000000" font-family="sans-serif" font-size="12" lengthAdjust="spacingAndGlyphs" textLength="43" x="67.5" y="98.9102">AIModel</text><line style="stroke: #A80036; stroke-width: 1.5;" x1="39.5" x2="112.5" y1="110" y2="110"/><text fill="#000000" font-family="sans-serif" font-size="11" lengthAdjust="spacingAndGlyphs" textLength="56" x="44.5" y="125.4189">string name</text><line style="stroke: #A80036; stroke-width: 1.5;" x1="39.5" x2="112.5" y1="131.8359" y2="131.8359"/><ellipse cx="166" cy="13" fill="#FEFECE" filter="url(#f1i5mckr7wpqjg)" rx="5" ry="5" style="stroke: #A80036; stroke-width: 1.5;"/><text fill="#000000" font-family="sans-serif" font-size="12" lengthAdjust="spacingAndGlyphs" textLength="19" x="156.5" y="30.457">CLI</text><ellipse cx="211" cy="13" fill="#FEFECE" filter="url(#f1i5mckr7wpqjg)" rx="5" ry="5" style="stroke: #A80036; stroke-width: 1.5;"/><text fill="#000000" font-family="sans-serif" font-size="12" lengthAdjust="spacingAndGlyphs" textLength="32" x="195" y="30.457">REST</text><ellipse cx="256" cy="13" fill="#FEFECE" filter="url(#f1i5mckr7wpqjg)" rx="5" ry="5" style="stroke: #A80036; stroke-width: 1.5;"/><text fill="#000000" font-family="sans-serif" font-size="12" lengthAdjust="spacingAndGlyphs" textLength="25" x="243.5" y="30.457">Web</text><!--link ilol1870 to i--><path d="M167.934,18.039 C173.351,29.354 188.988,62.019 199.848,84.7037 " fill="none" id="ilol1870-i" style="stroke: #A80036; stroke-width: 1.0;"/><!--link ilol1873 to i--><path d="M211,18.039 C211,29.354 211,62.019 211,84.7037 " fill="none" id="ilol1873-i" style="stroke: #A80036; stroke-width: 1.0;"/><!--link ilol1876 to i--><path d="M254.066,18.039 C248.649,29.354 233.012,62.019 222.152,84.7037 " fill="none" id="ilol1876-i" style="stroke: #A80036; stroke-width: 1.0;"/><!--
@startuml



package "Learning Corpus" #00aaff {

    interface "Learning Corpus" as i {
    
    }
}

CLI ()- - i
REST ()- - i
Web ()- - i

package "Learning Corpus" #00aaff {
        class "AIModel" {
                 string name
                    }
    
    

}



@enduml

PlantUML version 1.2019.05(Sat Apr 20 09:45:36 PDT 2019)
(GPL source distribution)
Java Runtime: Java(TM) SE Runtime Environment
JVM: Java HotSpot(TM) Client VM
Java Version: 1.8.0_271-b09
Operating System: Windows 10
OS Version: 10.0
Default Encoding: Cp1252
Language: en
Country: US
--></g></svg>