<?xml version="1.0" encoding="us-ascii" standalone="no"?><svg xmlns="http://www.w3.org/2000/svg" xmlns:xlink="http://www.w3.org/1999/xlink" contentStyleType="text/css" height="247px" preserveAspectRatio="none" style="width:168px;height:247px;background:#FFFFFF;" version="1.1" viewBox="0 0 168 247" width="168px" zoomAndPan="magnify"><defs/><g><path d="M58,142 L104,142 A12.5,12.5 0 0 1 116.5,154.5 L116.5,169.6094 L45.5,169.6094 L45.5,154.5 A12.5,12.5 0 0 1 58,142 " fill="#00AAFF" style="stroke:#00AAFF;stroke-width:1.0;"/><rect fill="none" height="99.6094" rx="12.5" ry="12.5" style="stroke:#181818;stroke-width:0.5;" width="71" x="45.5" y="142"/><line style="stroke:#181818;stroke-width:0.5;" x1="45.5" x2="116.5" y1="169.6094" y2="169.6094"/><text fill="#000000" font-family="sans-serif" font-size="14" lengthAdjust="spacing" textLength="22" x="70" y="161.5332">aml</text><g id="aml.amllc"><rect fill="#00AAFF" height="50" rx="12.5" ry="12.5" style="stroke:#181818;stroke-width:0.5;" width="50" x="57.5" y="181.6094"/><line style="stroke:#181818;stroke-width:0.5;" x1="57.5" x2="107.5" y1="209.2188" y2="209.2188"/><text fill="#000000" font-family="sans-serif" font-size="14" lengthAdjust="spacing" textLength="10" x="77.5" y="201.1426">lc</text></g><path d="M19.5,7 L142.5,7 A12.5,12.5 0 0 1 155,19.5 L155,34.6094 L7,34.6094 L7,19.5 A12.5,12.5 0 0 1 19.5,7 " fill="#00AAFF" style="stroke:#00AAFF;stroke-width:1.0;"/><rect fill="none" height="99.6094" rx="12.5" ry="12.5" style="stroke:#181818;stroke-width:0.5;" width="148" x="7" y="7"/><line style="stroke:#181818;stroke-width:0.5;" x1="7" x2="155" y1="34.6094" y2="34.6094"/><text fill="#000000" font-family="sans-serif" font-size="14" lengthAdjust="spacing" textLength="32" x="65" y="26.5332">amllc</text><g id="pstatename.lcfunction"><rect fill="#F1F1F1" height="50" rx="12.5" ry="12.5" style="stroke:#181818;stroke-width:0.5;" width="127" x="19" y="46.6094"/><line style="stroke:#181818;stroke-width:0.5;" x1="19" x2="146" y1="74.2188" y2="74.2188"/><text fill="#000000" font-family="sans-serif" font-size="14" lengthAdjust="spacing" textLength="107" x="29" y="66.1426">Custom Function</text></g><!--SRC=[JOxH2O0m34J_CyMX2xY3u1wXjbf8Mx7nIzpTKYiq-GZ9lJiYrYaquVJRhbZzQOtw58aeAwl5m446S4QP6AU9sJdSloZcryHqwbEw3sZOKI-HW-rOb6haV6LD0SiLwm_L8yQrjR5VDj4B]--></g></svg>