<?xml version="1.0" encoding="us-ascii" standalone="no"?><svg xmlns="http://www.w3.org/2000/svg" xmlns:xlink="http://www.w3.org/1999/xlink" contentStyleType="text/css" height="223px" preserveAspectRatio="none" style="width:321px;height:223px;background:#FFFFFF;" version="1.1" viewBox="0 0 321 223" width="321px" zoomAndPan="magnify"><defs/><g><!--cluster Learning Corpus--><g id="cluster_Learning Corpus"><path d="M31,6 L149,6 A3.75,3.75 0 0 1 151.5,8.5 L158.5,29.6094 L196,29.6094 A2.5,2.5 0 0 1 198.5,32.1094 L198.5,103.5 A2.5,2.5 0 0 1 196,106 L31,106 A2.5,2.5 0 0 1 28.5,103.5 L28.5,8.5 A2.5,2.5 0 0 1 31,6 " fill="#00AAFF" style="stroke:#000000;stroke-width:1.5;"/><line style="stroke:#000000;stroke-width:1.5;" x1="28.5" x2="158.5" y1="29.6094" y2="29.6094"/><text fill="#000000" font-family="sans-serif" font-size="14" font-weight="bold" lengthAdjust="spacing" textLength="117" x="32.5" y="22.5332">Learning Corpus</text></g><!--class i--><g id="elem_i"><rect codeLine="6" fill="#F1F1F1" height="48" id="i" rx="2.5" ry="2.5" style="stroke:#181818;stroke-width:0.5;" width="138" x="44.5" y="42"/><ellipse cx="59.5" cy="58" fill="#B4A7E5" rx="11" ry="11" style="stroke:#181818;stroke-width:1.0;"/><path d="M60.4531,54.6406 L60.4531,61.2969 L62.1719,61.2969 Q62.7813,61.2969 63.0469,61.5313 Q63.3125,61.7656 63.3125,62.1563 Q63.3125,62.5313 63.0469,62.7656 Q62.7813,63 62.1719,63 L57.0313,63 Q56.4219,63 56.1563,62.7656 Q55.8906,62.5313 55.8906,62.1406 Q55.8906,61.7656 56.1563,61.5313 Q56.4219,61.2969 57.0313,61.2969 L58.75,61.2969 L58.75,54.6406 L57.0313,54.6406 Q56.4219,54.6406 56.1563,54.4063 Q55.8906,54.1719 55.8906,53.7813 Q55.8906,53.4063 56.1563,53.1719 Q56.4219,52.9375 57.0313,52.9375 L62.1719,52.9375 Q62.7813,52.9375 63.0469,53.1719 Q63.3125,53.4063 63.3125,53.7813 Q63.3125,54.1719 63.0469,54.4063 Q62.7813,54.6406 62.1719,54.6406 L60.4531,54.6406 Z " fill="#000000"/><text fill="#000000" font-family="sans-serif" font-size="14" font-style="italic" lengthAdjust="spacing" textLength="106" x="73.5" y="63.7285">Learning Corpus</text><line style="stroke:#181818;stroke-width:0.5;" x1="45.5" x2="181.5" y1="74" y2="74"/><line style="stroke:#181818;stroke-width:0.5;" x1="45.5" x2="181.5" y1="82" y2="82"/></g><!--entity REST--><g id="elem_REST"><ellipse cx="24.5" cy="183" fill="#F1F1F1" rx="8" ry="8" style="stroke:#181818;stroke-width:0.5;"/><text fill="#000000" font-family="sans-serif" font-size="14" lengthAdjust="spacing" textLength="37" x="6" y="214.5332">REST</text></g><!--entity Web--><g id="elem_Web"><ellipse cx="113.5" cy="183" fill="#F1F1F1" rx="8" ry="8" style="stroke:#181818;stroke-width:0.5;"/><text fill="#000000" font-family="sans-serif" font-size="14" lengthAdjust="spacing" textLength="29" x="99" y="214.5332">Web</text></g><!--entity CLI--><g id="elem_CLI"><ellipse cx="202.5" cy="183" fill="#F1F1F1" rx="8" ry="8" style="stroke:#181818;stroke-width:0.5;"/><text fill="#000000" font-family="sans-serif" font-size="14" lengthAdjust="spacing" textLength="21" x="192" y="214.5332">CLI</text></g><!--entity WebSocket--><g id="elem_WebSocket"><ellipse cx="278.5" cy="66" fill="#F1F1F1" rx="8" ry="8" style="stroke:#181818;stroke-width:0.5;"/><text fill="#000000" font-family="sans-serif" font-size="14" lengthAdjust="spacing" textLength="72" x="242.5" y="97.5332">WebSocket</text></g><!--link i to Web--><g id="link_i_Web"><path codeLine="17" d="M113.5,90.27 C113.5,116.13 113.5,156.51 113.5,173.75 " fill="none" id="i-Web" style="stroke:#181818;stroke-width:1.0;"/></g><!--link i to CLI--><g id="link_i_CLI"><path codeLine="18" d="M131.51,90.27 C151.52,116.13 182.77,156.51 196.11,173.75 " fill="none" id="i-CLI" style="stroke:#181818;stroke-width:1.0;"/></g><!--link i to REST--><g id="link_i_REST"><path codeLine="19" d="M95.49,90.27 C75.48,116.13 44.23,156.51 30.89,173.75 " fill="none" id="i-REST" style="stroke:#181818;stroke-width:1.0;"/></g><!--link i to WebSocket--><g id="link_i_WebSocket"><path codeLine="20" d="M182.52,66 C216.08,66 252.69,66 269.34,66 " fill="none" id="i-WebSocket" style="stroke:#181818;stroke-width:1.0;"/><polygon fill="#000000" points="200,54.1758,209.0451,57.1147,209.0451,51.2369,200,54.1758" style="stroke:#000000;stroke-width:1.0;"/><text fill="#000000" font-family="sans-serif" font-size="13" lengthAdjust="spacing" textLength="37" x="214" y="59.4951">events</text></g><!--SRC=[ZOyn2y9038Nt_8fGvuFE3Yx5GUXa1UTuvafekJlkhZf8_xkzGay71pE4zyANH-993zGpLYrJi69xR5pmKwnmLzT4nk0B09SIcpWOqhzGYYWBbx5Fcs46q1Bqo7W-TfTDN_csoQOzVKqxfmTE08BgxfvMhMGncIrcpIihg4OsIQ7iaHziKyG3WF_diNmYl040]--></g></svg>