<?xml version="1.0" encoding="UTF-8" standalone="no"?><svg xmlns="http://www.w3.org/2000/svg" xmlns:xlink="http://www.w3.org/1999/xlink" contentScriptType="application/ecmascript" contentStyleType="text/css" height="312px" preserveAspectRatio="none" style="width:125px;height:312px;" version="1.1" viewBox="0 0 125 312" width="125px" zoomAndPan="magnify"><defs><filter height="300%" id="fxazi7j9z70bi" width="300%" x="-1" y="-1"><feGaussianBlur result="blurOut" stdDeviation="2.0"/><feColorMatrix in="blurOut" result="blurOut2" type="matrix" values="0 0 0 0 0 0 0 0 0 0 0 0 0 0 0 0 0 0 .4 0"/><feOffset dx="4.0" dy="4.0" in="blurOut2" result="blurOut3"/><feBlend in="SourceGraphic" in2="blurOut3" mode="normal"/></filter></defs><g><!--entity Build--><rect fill="#90EE90" filter="url(#fxazi7j9z70bi)" height="37.6094" style="stroke: #000000; stroke-width: 1.5;" width="51" x="35.265" y="8"/><text fill="#000000" font-family="sans-serif" font-size="14" lengthAdjust="spacingAndGlyphs" textLength="31" x="45.265" y="32.5332">Build</text><!--entity BuildRun--><rect fill="#90EE90" filter="url(#fxazi7j9z70bi)" height="37.6094" style="stroke: #000000; stroke-width: 1.5;" width="77" x="22.265" y="264"/><text fill="#000000" font-family="sans-serif" font-size="14" lengthAdjust="spacingAndGlyphs" textLength="57" x="32.265" y="288.5332">BuildRun</text><!--class Model--><rect fill="#FEFECE" filter="url(#fxazi7j9z70bi)" height="61.8359" id="Model" style="stroke: #A80036; stroke-width: 1.5;" width="107" x="7.265" y="124"/><ellipse cx="22.265" cy="140" fill="#ADD1B2" rx="11" ry="11" style="stroke: #A80036; stroke-width: 1.0;"/><path d="M25.0306,135.875 Q25.1869,135.6563 25.3744,135.5469 Q25.5619,135.4375 25.7806,135.4375 Q26.1556,135.4375 26.39,135.6953 Q26.6244,135.9531 26.6244,136.5625 L26.6244,138.0156 Q26.6244,138.625 26.39,138.8906 Q26.1556,139.1563 25.7806,139.1563 Q25.4369,139.1563 25.2338,138.9531 Q25.0306,138.7656 24.9213,138.25 Q24.8744,137.8906 24.6869,137.7031 Q24.3588,137.3281 23.7494,137.1094 Q23.14,136.8906 22.515,136.8906 Q21.7494,136.8906 21.1166,137.2188 Q20.4838,137.5469 19.9916,138.2969 Q19.4994,139.0469 19.4994,140.0781 L19.4994,141.1719 Q19.4994,142.4063 20.39,143.2266 Q21.2806,144.0469 22.8744,144.0469 Q23.8119,144.0469 24.4681,143.7969 Q24.8588,143.6406 25.2806,143.2031 Q25.5463,142.9375 25.6947,142.8594 Q25.8431,142.7813 26.0463,142.7813 Q26.3744,142.7813 26.6322,143.0391 Q26.89,143.2969 26.89,143.6406 Q26.89,143.9844 26.5463,144.3906 Q26.0463,144.9688 25.2494,145.2969 Q24.1713,145.75 22.8744,145.75 Q21.3588,145.75 20.1556,145.125 Q19.1713,144.625 18.4838,143.5547 Q17.7963,142.4844 17.7963,141.2031 L17.7963,140.0469 Q17.7963,138.7188 18.4134,137.5703 Q19.0306,136.4219 20.1244,135.8047 Q21.2181,135.1875 22.4525,135.1875 Q23.1869,135.1875 23.8353,135.3516 Q24.4838,135.5156 25.0306,135.875 Z "/><text fill="#000000" font-family="sans-serif" font-size="12" lengthAdjust="spacingAndGlyphs" textLength="75" x="36.265" y="144.9102">BuildInstance</text><line style="stroke: #A80036; stroke-width: 1.5;" x1="8.265" x2="113.265" y1="156" y2="156"/><text fill="#000000" font-family="sans-serif" font-size="11" lengthAdjust="spacingAndGlyphs" textLength="66" x="13.265" y="171.4189">string version</text><line style="stroke: #A80036; stroke-width: 1.5;" x1="8.265" x2="113.265" y1="177.8359" y2="177.8359"/><!--link Model to Build--><path d="M66.2576,110.478 C67.0859,99.25 67.461,87.179 66.765,76 C66.4282,70.591 65.88,64.859 65.2483,59.31 " fill="none" id="Model-Build" style="stroke: #A80036; stroke-width: 1.0;"/><polygon fill="#A80036" points="63.579,46.184,60.7474,55.617,64.2103,51.144,68.6833,54.6069,63.579,46.184" style="stroke: #A80036; stroke-width: 1.0;"/><line style="stroke: #A80036; stroke-width: 1.0;" x1="64.2103" x2="65.2192" y1="51.144" y2="59.0805"/><polygon fill="#FFFFFF" points="65.064,123.64,69.5896,118.0258,66.148,111.6891,61.6223,117.3032,65.064,123.64" style="stroke: #A80036; stroke-width: 1.0;"/><text fill="#000000" font-family="sans-serif" font-size="13" lengthAdjust="spacingAndGlyphs" textLength="27" x="67.765" y="90.4951">build</text><text fill="#000000" font-family="sans-serif" font-size="13" lengthAdjust="spacingAndGlyphs" textLength="7" x="56.3946" y="67.0845">1</text><!--link Build to Model--><path d="M25.2124,52.691 C13.2394,64.23 4.1672,78.771 9.765,94 C12.2413,100.737 15.8468,107.234 20.0142,113.306 " fill="none" id="Build-Model" style="stroke: #A80036; stroke-width: 1.0;"/><polygon fill="#A80036" points="28,123.738,25.705,114.1603,24.9605,119.7679,19.3529,119.0234,28,123.738" style="stroke: #A80036; stroke-width: 1.0;"/><line style="stroke: #A80036; stroke-width: 1.0;" x1="24.9605" x2="20.0977" y1="119.7679" y2="113.415"/><polygon fill="#A80036" points="35.2115,44.126,28.0525,44.9916,26.0981,51.9328,33.2571,51.0672,35.2115,44.126" style="stroke: #A80036; stroke-width: 1.0;"/><text fill="#000000" font-family="sans-serif" font-size="13" lengthAdjust="spacingAndGlyphs" textLength="47" x="10.765" y="90.4951">versions</text><text fill="#000000" font-family="sans-serif" font-size="13" lengthAdjust="spacingAndGlyphs" textLength="7" x="13.5203" y="113.1885">n</text><!--link Model to BuildRun--><path d="M28.7356,197.672 C23.4,209.2294 20.7395,221.9236 24.765,234 C26.973,240.6241 30.4929,247.0702 34.4863,252.9773 " fill="none" id="Model-BuildRun" style="stroke: #A80036; stroke-width: 1.0;"/><polygon fill="#A80036" points="42.5288,263.5778,40.2756,253.9901,39.5067,259.5945,33.9023,258.8255,42.5288,263.5778" style="stroke: #A80036; stroke-width: 1.0;"/><line style="stroke: #A80036; stroke-width: 1.0;" x1="39.5067" x2="34.6713" y1="259.5945" y2="253.2212"/><polygon fill="#A80036" points="35.0962,186.113,28.6992,189.4414,29.3111,196.6265,35.7082,193.2981,35.0962,186.113" style="stroke: #A80036; stroke-width: 1.0;"/><text fill="#000000" font-family="sans-serif" font-size="13" lengthAdjust="spacingAndGlyphs" textLength="25" x="25.765" y="230.4951">runs</text><text fill="#000000" font-family="sans-serif" font-size="13" lengthAdjust="spacingAndGlyphs" textLength="7" x="29.1438" y="253.1267">n</text><!--link BuildRun to Model--><path d="M60.765,250.6534 C60.765,235.1503 60.765,216.1922 60.765,199.325 " fill="none" id="BuildRun-Model" style="stroke: #A80036; stroke-width: 1.0;"/><polygon fill="#A80036" points="60.765,186.18,56.765,195.18,60.765,191.18,64.765,195.18,60.765,186.18" style="stroke: #A80036; stroke-width: 1.0;"/><line style="stroke: #A80036; stroke-width: 1.0;" x1="60.765" x2="60.7651" y1="191.18" y2="199.18"/><polygon fill="#FFFFFF" points="60.765,263.7606,64.765,257.7606,60.765,251.7606,56.765,257.7606,60.765,263.7606" style="stroke: #A80036; stroke-width: 1.0;"/><text fill="#000000" font-family="sans-serif" font-size="13" lengthAdjust="spacingAndGlyphs" textLength="27" x="61.765" y="230.4951">build</text><text fill="#000000" font-family="sans-serif" font-size="13" lengthAdjust="spacingAndGlyphs" textLength="7" x="53.0759" y="207.4394">1</text><!--
@startuml

class "BuildInstance" as Model {
 string version

 
}

rectangle "Build" as Build #lightblue {
}

Model o- -> "1" Build : build


rectangle "BuildRun" as BuildRun #lightblue {
}

Model *- -> "n" BuildRun : runs




    rectangle "Build" as Build #lightgreen {
    }
    
        Build   *- -> "n" Model : "versions"
    
    rectangle "BuildRun" as BuildRun #lightgreen {
    }
    
        BuildRun   o- -> "1" Model : "build"
    

@enduml

PlantUML version 1.2019.05(Sat Apr 20 09:45:36 PDT 2019)
(GPL source distribution)
Java Runtime: Java(TM) SE Runtime Environment
JVM: Java HotSpot(TM) Client VM
Java Version: 1.8.0_271-b09
Operating System: Windows 10
OS Version: 10.0
Default Encoding: Cp1252
Language: en
Country: US
--></g></svg>